G04 #@! TF.GenerationSoftware,KiCad,Pcbnew,(6.0.4)*
G04 #@! TF.CreationDate,2022-04-05T14:23:39+02:00*
G04 #@! TF.ProjectId,Wzmacniacz antenowy FM,577a6d61-636e-4696-9163-7a20616e7465,rev?*
G04 #@! TF.SameCoordinates,Original*
G04 #@! TF.FileFunction,Copper,L1,Top*
G04 #@! TF.FilePolarity,Positive*
%FSLAX46Y46*%
G04 Gerber Fmt 4.6, Leading zero omitted, Abs format (unit mm)*
G04 Created by KiCad (PCBNEW (6.0.4)) date 2022-04-05 14:23:39*
%MOMM*%
%LPD*%
G01*
G04 APERTURE LIST*
G04 Aperture macros list*
%AMRoundRect*
0 Rectangle with rounded corners*
0 $1 Rounding radius*
0 $2 $3 $4 $5 $6 $7 $8 $9 X,Y pos of 4 corners*
0 Add a 4 corners polygon primitive as box body*
4,1,4,$2,$3,$4,$5,$6,$7,$8,$9,$2,$3,0*
0 Add four circle primitives for the rounded corners*
1,1,$1+$1,$2,$3*
1,1,$1+$1,$4,$5*
1,1,$1+$1,$6,$7*
1,1,$1+$1,$8,$9*
0 Add four rect primitives between the rounded corners*
20,1,$1+$1,$2,$3,$4,$5,0*
20,1,$1+$1,$4,$5,$6,$7,0*
20,1,$1+$1,$6,$7,$8,$9,0*
20,1,$1+$1,$8,$9,$2,$3,0*%
G04 Aperture macros list end*
G04 #@! TA.AperFunction,ComponentPad*
%ADD10C,2.000000*%
G04 #@! TD*
G04 #@! TA.AperFunction,ComponentPad*
%ADD11C,3.500000*%
G04 #@! TD*
G04 #@! TA.AperFunction,ComponentPad*
%ADD12C,2.900000*%
G04 #@! TD*
G04 #@! TA.AperFunction,SMDPad,CuDef*
%ADD13RoundRect,0.250000X0.250000X0.475000X-0.250000X0.475000X-0.250000X-0.475000X0.250000X-0.475000X0*%
G04 #@! TD*
G04 #@! TA.AperFunction,SMDPad,CuDef*
%ADD14RoundRect,0.250000X0.450000X-0.262500X0.450000X0.262500X-0.450000X0.262500X-0.450000X-0.262500X0*%
G04 #@! TD*
G04 #@! TA.AperFunction,ComponentPad*
%ADD15C,2.500000*%
G04 #@! TD*
G04 #@! TA.AperFunction,SMDPad,CuDef*
%ADD16R,10.000000X1.500000*%
G04 #@! TD*
G04 #@! TA.AperFunction,SMDPad,CuDef*
%ADD17R,1.500000X7.000000*%
G04 #@! TD*
G04 #@! TA.AperFunction,SMDPad,CuDef*
%ADD18R,7.000000X1.500000*%
G04 #@! TD*
G04 #@! TA.AperFunction,SMDPad,CuDef*
%ADD19RoundRect,0.250000X-0.250000X-0.475000X0.250000X-0.475000X0.250000X0.475000X-0.250000X0.475000X0*%
G04 #@! TD*
G04 #@! TA.AperFunction,SMDPad,CuDef*
%ADD20RoundRect,0.250000X-0.550000X1.500000X-0.550000X-1.500000X0.550000X-1.500000X0.550000X1.500000X0*%
G04 #@! TD*
G04 #@! TA.AperFunction,ComponentPad*
%ADD21RoundRect,0.312500X-0.687500X0.437500X-0.687500X-0.437500X0.687500X-0.437500X0.687500X0.437500X0*%
G04 #@! TD*
G04 #@! TA.AperFunction,ComponentPad*
%ADD22O,2.000000X1.500000*%
G04 #@! TD*
G04 #@! TA.AperFunction,SMDPad,CuDef*
%ADD23RoundRect,0.250000X-0.475000X0.250000X-0.475000X-0.250000X0.475000X-0.250000X0.475000X0.250000X0*%
G04 #@! TD*
G04 #@! TA.AperFunction,SMDPad,CuDef*
%ADD24RoundRect,0.250000X0.475000X-0.250000X0.475000X0.250000X-0.475000X0.250000X-0.475000X-0.250000X0*%
G04 #@! TD*
G04 #@! TA.AperFunction,SMDPad,CuDef*
%ADD25R,1.700000X1.300000*%
G04 #@! TD*
G04 #@! TA.AperFunction,SMDPad,CuDef*
%ADD26R,2.000000X1.300000*%
G04 #@! TD*
G04 #@! TA.AperFunction,SMDPad,CuDef*
%ADD27R,2.000000X2.000000*%
G04 #@! TD*
G04 #@! TA.AperFunction,Conductor*
%ADD28C,0.500000*%
G04 #@! TD*
G04 APERTURE END LIST*
D10*
G04 #@! TO.P,,1*
G04 #@! TO.N,GND*
X143700000Y-102300000D03*
G04 #@! TD*
G04 #@! TO.P,,1*
G04 #@! TO.N,Net-(C3-Pad1)*
X143700000Y-96200000D03*
G04 #@! TD*
G04 #@! TO.P,REF\u002A\u002A,1*
G04 #@! TO.N,GND*
X150200000Y-99400000D03*
G04 #@! TD*
D11*
G04 #@! TO.P,J1,1,Pin_1*
G04 #@! TO.N,Net-(C1-Pad1)*
X121400000Y-88000000D03*
D12*
G04 #@! TO.P,J1,2,Pin_2*
G04 #@! TO.N,GND*
X118860000Y-85460000D03*
X123940000Y-85460000D03*
X118860000Y-90540000D03*
X123940000Y-90540000D03*
G04 #@! TD*
D11*
G04 #@! TO.P,J3,1,Pin_1*
G04 #@! TO.N,Net-(C8-Pad2)*
X180350000Y-88000000D03*
D12*
G04 #@! TO.P,J3,2,Pin_2*
G04 #@! TO.N,GND*
X177810000Y-90540000D03*
X177810000Y-85460000D03*
X182890000Y-85460000D03*
X182890000Y-90540000D03*
G04 #@! TD*
D13*
G04 #@! TO.P,C5,1*
G04 #@! TO.N,Net-(C5-Pad1)*
X160650000Y-77200000D03*
G04 #@! TO.P,C5,2*
G04 #@! TO.N,GND*
X158750000Y-77200000D03*
G04 #@! TD*
D14*
G04 #@! TO.P,R1,1*
G04 #@! TO.N,+12V*
X155000000Y-97812500D03*
G04 #@! TO.P,R1,2*
G04 #@! TO.N,Net-(C3-Pad1)*
X155000000Y-95987500D03*
G04 #@! TD*
D15*
G04 #@! TO.P,L1,1*
G04 #@! TO.N,GND*
X136150000Y-75400000D03*
G04 #@! TO.P,L1,2*
G04 #@! TO.N,Net-(C1-Pad2)*
X130650000Y-80800000D03*
G04 #@! TD*
D16*
G04 #@! TO.P,Q1,1,D*
G04 #@! TO.N,Net-(C5-Pad1)*
X160160000Y-82900000D03*
D17*
G04 #@! TO.P,Q1,2,S*
G04 #@! TO.N,GND*
X151960000Y-76100000D03*
D18*
G04 #@! TO.P,Q1,3,G1*
G04 #@! TO.N,Net-(C2-Pad1)*
X145160000Y-82900000D03*
D17*
G04 #@! TO.P,Q1,4,G2*
G04 #@! TO.N,Net-(C3-Pad1)*
X151960000Y-89700000D03*
G04 #@! TD*
D19*
G04 #@! TO.P,C8,1*
G04 #@! TO.N,Net-(C7-Pad1)*
X170450000Y-86700000D03*
G04 #@! TO.P,C8,2*
G04 #@! TO.N,Net-(C8-Pad2)*
X172350000Y-86700000D03*
G04 #@! TD*
D20*
G04 #@! TO.P,C6,1*
G04 #@! TO.N,+12V*
X159900000Y-97700000D03*
G04 #@! TO.P,C6,2*
G04 #@! TO.N,GND*
X159900000Y-103300000D03*
G04 #@! TD*
D15*
G04 #@! TO.P,L2,1*
G04 #@! TO.N,Net-(C1-Pad2)*
X133300000Y-85400000D03*
G04 #@! TO.P,L2,2*
G04 #@! TO.N,Net-(C2-Pad1)*
X139300000Y-91700000D03*
G04 #@! TD*
D21*
G04 #@! TO.P,J2,1,Pin_1*
G04 #@! TO.N,+12V*
X176900000Y-100300000D03*
D22*
G04 #@! TO.P,J2,2,Pin_2*
G04 #@! TO.N,GND*
X176900000Y-102300000D03*
G04 #@! TD*
D19*
G04 #@! TO.P,C2,1*
G04 #@! TO.N,Net-(C2-Pad1)*
X145150000Y-77500000D03*
G04 #@! TO.P,C2,2*
G04 #@! TO.N,GND*
X147050000Y-77500000D03*
G04 #@! TD*
D23*
G04 #@! TO.P,C4,1*
G04 #@! TO.N,+12V*
X165200000Y-99950000D03*
G04 #@! TO.P,C4,2*
G04 #@! TO.N,GND*
X165200000Y-101850000D03*
G04 #@! TD*
D24*
G04 #@! TO.P,C3,1*
G04 #@! TO.N,Net-(C3-Pad1)*
X158900000Y-93750000D03*
G04 #@! TO.P,C3,2*
G04 #@! TO.N,GND*
X158900000Y-91850000D03*
G04 #@! TD*
D15*
G04 #@! TO.P,L4,2*
G04 #@! TO.N,Net-(C7-Pad1)*
X166900000Y-89600000D03*
G04 #@! TO.P,L4,1*
G04 #@! TO.N,+12V*
X170900000Y-100600000D03*
G04 #@! TD*
D13*
G04 #@! TO.P,C7,1*
G04 #@! TO.N,Net-(C7-Pad1)*
X163250000Y-89100000D03*
G04 #@! TO.P,C7,2*
G04 #@! TO.N,GND*
X161350000Y-89100000D03*
G04 #@! TD*
D25*
G04 #@! TO.P,D1,1,K*
G04 #@! TO.N,+12V*
X153200000Y-100350000D03*
G04 #@! TO.P,D1,2,A*
G04 #@! TO.N,GND*
X153200000Y-103850000D03*
G04 #@! TD*
D19*
G04 #@! TO.P,C1,1*
G04 #@! TO.N,Net-(C1-Pad1)*
X127650000Y-87800000D03*
G04 #@! TO.P,C1,2*
G04 #@! TO.N,Net-(C1-Pad2)*
X129550000Y-87800000D03*
G04 #@! TD*
D26*
G04 #@! TO.P,RV1,1,1*
G04 #@! TO.N,Net-(C3-Pad1)*
X143700000Y-98250000D03*
D27*
G04 #@! TO.P,RV1,2,2*
G04 #@! TO.N,GND*
X147700000Y-99400000D03*
D26*
G04 #@! TO.P,RV1,3,3*
X143700000Y-100550000D03*
G04 #@! TD*
D15*
G04 #@! TO.P,L3,1*
G04 #@! TO.N,Net-(C5-Pad1)*
X166900000Y-73300000D03*
G04 #@! TO.P,L3,2*
G04 #@! TO.N,Net-(C7-Pad1)*
X172900000Y-81400000D03*
G04 #@! TD*
D28*
G04 #@! TO.N,+12V*
X171200000Y-100300000D02*
X176900000Y-100300000D01*
X170900000Y-100600000D02*
X171200000Y-100300000D01*
X170250000Y-99950000D02*
X165200000Y-99950000D01*
X170900000Y-100600000D02*
X170250000Y-99950000D01*
G04 #@! TO.N,Net-(C7-Pad1)*
X170000000Y-81400000D02*
X168600000Y-82800000D01*
X168600000Y-82800000D02*
X168600000Y-85900000D01*
X172900000Y-81400000D02*
X170000000Y-81400000D01*
X167600000Y-85900000D02*
X166900000Y-86600000D01*
X166900000Y-86600000D02*
X166900000Y-89600000D01*
X168600000Y-85900000D02*
X167600000Y-85900000D01*
G04 #@! TO.N,Net-(C8-Pad2)*
X175100000Y-88000000D02*
X173800000Y-86700000D01*
X173800000Y-86700000D02*
X172350000Y-86700000D01*
X180350000Y-88000000D02*
X175100000Y-88000000D01*
G04 #@! TO.N,Net-(C7-Pad1)*
X169400000Y-86700000D02*
X170450000Y-86700000D01*
X168600000Y-85900000D02*
X169400000Y-86700000D01*
G04 #@! TO.N,Net-(C1-Pad2)*
X129400000Y-81900000D02*
X129400000Y-87650000D01*
X129400000Y-87650000D02*
X129550000Y-87800000D01*
X130500000Y-80800000D02*
X129400000Y-81900000D01*
X130650000Y-80800000D02*
X130500000Y-80800000D01*
G04 #@! TO.N,Net-(C1-Pad1)*
X127450000Y-88000000D02*
X127650000Y-87800000D01*
X121400000Y-88000000D02*
X127450000Y-88000000D01*
G04 #@! TO.N,Net-(C1-Pad2)*
X133300000Y-81600000D02*
X132500000Y-80800000D01*
X132500000Y-80800000D02*
X130650000Y-80800000D01*
X133300000Y-85400000D02*
X133300000Y-81600000D01*
G04 #@! TO.N,Net-(C2-Pad1)*
X139300000Y-91700000D02*
X145160000Y-85840000D01*
X145160000Y-85840000D02*
X145160000Y-82900000D01*
X145160000Y-77590000D02*
X145160000Y-82900000D01*
G04 #@! TO.N,Net-(C3-Pad1)*
X151960000Y-94540000D02*
X151960000Y-89700000D01*
X155000000Y-95987500D02*
X153407500Y-95987500D01*
X150300000Y-96200000D02*
X151960000Y-94540000D01*
X155000000Y-94400000D02*
X155000000Y-95987500D01*
X158900000Y-93750000D02*
X155650000Y-93750000D01*
X153407500Y-95987500D02*
X151960000Y-94540000D01*
X155650000Y-93750000D02*
X155000000Y-94400000D01*
X143700000Y-96200000D02*
X150300000Y-96200000D01*
X143700000Y-96200000D02*
X143700000Y-98250000D01*
G04 #@! TO.N,+12V*
X153200000Y-100350000D02*
X153200000Y-98500000D01*
X155000000Y-97812500D02*
X159787500Y-97812500D01*
X159900000Y-97700000D02*
X162950000Y-97700000D01*
X170200000Y-99900000D02*
X170900000Y-100600000D01*
X153200000Y-98500000D02*
X153887500Y-97812500D01*
X153887500Y-97812500D02*
X155000000Y-97812500D01*
X159787500Y-97812500D02*
X159900000Y-97700000D01*
X162950000Y-97700000D02*
X165200000Y-99950000D01*
G04 #@! TO.N,Net-(C5-Pad1)*
X163200000Y-82100000D02*
X163300000Y-82200000D01*
X166900000Y-73300000D02*
X166900000Y-78600000D01*
X166900000Y-78600000D02*
X163300000Y-82200000D01*
X163200000Y-79750000D02*
X163200000Y-82100000D01*
X162600000Y-82900000D02*
X160160000Y-82900000D01*
X163300000Y-82200000D02*
X162600000Y-82900000D01*
X160650000Y-77200000D02*
X163200000Y-79750000D01*
G04 #@! TO.N,Net-(C7-Pad1)*
X166400000Y-89100000D02*
X166900000Y-89600000D01*
X163250000Y-89100000D02*
X166400000Y-89100000D01*
G04 #@! TD*
G04 #@! TA.AperFunction,Conductor*
G04 #@! TO.N,GND*
G36*
X185633621Y-68428502D02*
G01*
X185680114Y-68482158D01*
X185691500Y-68534500D01*
X185691500Y-107265500D01*
X185671498Y-107333621D01*
X185617842Y-107380114D01*
X185565500Y-107391500D01*
X116334500Y-107391500D01*
X116266379Y-107371498D01*
X116219886Y-107317842D01*
X116208500Y-107265500D01*
X116208500Y-96200000D01*
X142186835Y-96200000D01*
X142205465Y-96436711D01*
X142206619Y-96441518D01*
X142206620Y-96441524D01*
X142239618Y-96578968D01*
X142260895Y-96667594D01*
X142262788Y-96672165D01*
X142262789Y-96672167D01*
X142346004Y-96873066D01*
X142351760Y-96886963D01*
X142354346Y-96891183D01*
X142433959Y-97021099D01*
X142452497Y-97089632D01*
X142431041Y-97157309D01*
X142402091Y-97187760D01*
X142367584Y-97213622D01*
X142336739Y-97236739D01*
X142249385Y-97353295D01*
X142198255Y-97489684D01*
X142191500Y-97551866D01*
X142191500Y-98948134D01*
X142198255Y-99010316D01*
X142249385Y-99146705D01*
X142336739Y-99263261D01*
X142453295Y-99350615D01*
X142589684Y-99401745D01*
X142651866Y-99408500D01*
X144748134Y-99408500D01*
X144810316Y-99401745D01*
X144946705Y-99350615D01*
X145063261Y-99263261D01*
X145150615Y-99146705D01*
X145201745Y-99010316D01*
X145208500Y-98948134D01*
X145208500Y-97551866D01*
X145201745Y-97489684D01*
X145150615Y-97353295D01*
X145063261Y-97236739D01*
X144997907Y-97187759D01*
X144955393Y-97130901D01*
X144950367Y-97060083D01*
X144966048Y-97021088D01*
X144967541Y-97018651D01*
X145020195Y-96971026D01*
X145074965Y-96958500D01*
X150232930Y-96958500D01*
X150251880Y-96959933D01*
X150266115Y-96962099D01*
X150266119Y-96962099D01*
X150273349Y-96963199D01*
X150280641Y-96962606D01*
X150280644Y-96962606D01*
X150326018Y-96958915D01*
X150336233Y-96958500D01*
X150344293Y-96958500D01*
X150357583Y-96956951D01*
X150372507Y-96955211D01*
X150376882Y-96954778D01*
X150442339Y-96949454D01*
X150442342Y-96949453D01*
X150449637Y-96948860D01*
X150456601Y-96946604D01*
X150462560Y-96945413D01*
X150468415Y-96944029D01*
X150475681Y-96943182D01*
X150544327Y-96918265D01*
X150548455Y-96916848D01*
X150610936Y-96896607D01*
X150610938Y-96896606D01*
X150617899Y-96894351D01*
X150624154Y-96890555D01*
X150629628Y-96888049D01*
X150635058Y-96885330D01*
X150641937Y-96882833D01*
X150682690Y-96856114D01*
X150702976Y-96842814D01*
X150706680Y-96840477D01*
X150769107Y-96802595D01*
X150777484Y-96795197D01*
X150777508Y-96795224D01*
X150780500Y-96792571D01*
X150783733Y-96789868D01*
X150789852Y-96785856D01*
X150843128Y-96729617D01*
X150845506Y-96727175D01*
X151870905Y-95701776D01*
X151933217Y-95667750D01*
X152004032Y-95672815D01*
X152049095Y-95701776D01*
X152823730Y-96476411D01*
X152836116Y-96490823D01*
X152844649Y-96502418D01*
X152844654Y-96502423D01*
X152848992Y-96508318D01*
X152854570Y-96513057D01*
X152854573Y-96513060D01*
X152889268Y-96542535D01*
X152896784Y-96549465D01*
X152902479Y-96555160D01*
X152905361Y-96557440D01*
X152924751Y-96572781D01*
X152928155Y-96575572D01*
X152978203Y-96618091D01*
X152983785Y-96622833D01*
X152990301Y-96626161D01*
X152995350Y-96629528D01*
X153000479Y-96632695D01*
X153006216Y-96637234D01*
X153072375Y-96668155D01*
X153076269Y-96670058D01*
X153141308Y-96703269D01*
X153148416Y-96705008D01*
X153154059Y-96707107D01*
X153159822Y-96709024D01*
X153166450Y-96712122D01*
X153173612Y-96713612D01*
X153173613Y-96713612D01*
X153237912Y-96726986D01*
X153242196Y-96727956D01*
X153313110Y-96745308D01*
X153318712Y-96745656D01*
X153318715Y-96745656D01*
X153324264Y-96746000D01*
X153324262Y-96746036D01*
X153328255Y-96746275D01*
X153332447Y-96746649D01*
X153339615Y-96748140D01*
X153417020Y-96746046D01*
X153420428Y-96746000D01*
X153921085Y-96746000D01*
X153989206Y-96766002D01*
X154010102Y-96782827D01*
X154038108Y-96810784D01*
X154072188Y-96873066D01*
X154067185Y-96943886D01*
X154038265Y-96988974D01*
X154031131Y-96996121D01*
X154013826Y-97013456D01*
X153951543Y-97047536D01*
X153920802Y-97050313D01*
X153914151Y-97049301D01*
X153906859Y-97049894D01*
X153906857Y-97049894D01*
X153861482Y-97053585D01*
X153851267Y-97054000D01*
X153843207Y-97054000D01*
X153839573Y-97054424D01*
X153839567Y-97054424D01*
X153826542Y-97055943D01*
X153814980Y-97057291D01*
X153810632Y-97057721D01*
X153737864Y-97063640D01*
X153730903Y-97065895D01*
X153724963Y-97067082D01*
X153719088Y-97068471D01*
X153711819Y-97069318D01*
X153643170Y-97094236D01*
X153639042Y-97095653D01*
X153576564Y-97115893D01*
X153576562Y-97115894D01*
X153569601Y-97118149D01*
X153563346Y-97121945D01*
X153557872Y-97124451D01*
X153552442Y-97127170D01*
X153545563Y-97129667D01*
X153539443Y-97133680D01*
X153539442Y-97133680D01*
X153484524Y-97169686D01*
X153480820Y-97172023D01*
X153418393Y-97209905D01*
X153410016Y-97217303D01*
X153409992Y-97217276D01*
X153407000Y-97219929D01*
X153403767Y-97222632D01*
X153397648Y-97226644D01*
X153392616Y-97231956D01*
X153344372Y-97282883D01*
X153341994Y-97285325D01*
X152711089Y-97916230D01*
X152696677Y-97928616D01*
X152685082Y-97937149D01*
X152685077Y-97937154D01*
X152679182Y-97941492D01*
X152674443Y-97947070D01*
X152674440Y-97947073D01*
X152644965Y-97981768D01*
X152638035Y-97989284D01*
X152632340Y-97994979D01*
X152630060Y-97997861D01*
X152614719Y-98017251D01*
X152611928Y-98020655D01*
X152569409Y-98070703D01*
X152564667Y-98076285D01*
X152561339Y-98082801D01*
X152557972Y-98087850D01*
X152554805Y-98092979D01*
X152550266Y-98098716D01*
X152519345Y-98164875D01*
X152517442Y-98168769D01*
X152484231Y-98233808D01*
X152482492Y-98240916D01*
X152480393Y-98246559D01*
X152478476Y-98252322D01*
X152475378Y-98258950D01*
X152473888Y-98266112D01*
X152473888Y-98266113D01*
X152460514Y-98330412D01*
X152459544Y-98334696D01*
X152442192Y-98405610D01*
X152441500Y-98416764D01*
X152441464Y-98416762D01*
X152441225Y-98420755D01*
X152440851Y-98424947D01*
X152439360Y-98432115D01*
X152439558Y-98439432D01*
X152441454Y-98509521D01*
X152441500Y-98512928D01*
X152441500Y-99065500D01*
X152421498Y-99133621D01*
X152367842Y-99180114D01*
X152315500Y-99191500D01*
X152301866Y-99191500D01*
X152239684Y-99198255D01*
X152103295Y-99249385D01*
X151986739Y-99336739D01*
X151899385Y-99453295D01*
X151848255Y-99589684D01*
X151841500Y-99651866D01*
X151841500Y-101048134D01*
X151848255Y-101110316D01*
X151899385Y-101246705D01*
X151986739Y-101363261D01*
X152103295Y-101450615D01*
X152239684Y-101501745D01*
X152301866Y-101508500D01*
X154098134Y-101508500D01*
X154160316Y-101501745D01*
X154296705Y-101450615D01*
X154413261Y-101363261D01*
X154500615Y-101246705D01*
X154551745Y-101110316D01*
X154558500Y-101048134D01*
X154558500Y-99651866D01*
X154551745Y-99589684D01*
X154500615Y-99453295D01*
X154413261Y-99336739D01*
X154296705Y-99249385D01*
X154160316Y-99198255D01*
X154098134Y-99191500D01*
X154084500Y-99191500D01*
X154016379Y-99171498D01*
X153969886Y-99117842D01*
X153958500Y-99065500D01*
X153958500Y-98866372D01*
X153978502Y-98798251D01*
X153995403Y-98777278D01*
X154006131Y-98766550D01*
X154019681Y-98752999D01*
X154081991Y-98718974D01*
X154152807Y-98724037D01*
X154174893Y-98734834D01*
X154220090Y-98762694D01*
X154227262Y-98767115D01*
X154257903Y-98777278D01*
X154388611Y-98820632D01*
X154388613Y-98820632D01*
X154395139Y-98822797D01*
X154401975Y-98823497D01*
X154401978Y-98823498D01*
X154445031Y-98827909D01*
X154499600Y-98833500D01*
X155500400Y-98833500D01*
X155503646Y-98833163D01*
X155503650Y-98833163D01*
X155599308Y-98823238D01*
X155599312Y-98823237D01*
X155606166Y-98822526D01*
X155612702Y-98820345D01*
X155612704Y-98820345D01*
X155744806Y-98776272D01*
X155773946Y-98766550D01*
X155924348Y-98673478D01*
X155989731Y-98607982D01*
X156052013Y-98573903D01*
X156078903Y-98571000D01*
X158465500Y-98571000D01*
X158533621Y-98591002D01*
X158580114Y-98644658D01*
X158591500Y-98697000D01*
X158591500Y-99250400D01*
X158591837Y-99253646D01*
X158591837Y-99253650D01*
X158593393Y-99268642D01*
X158602474Y-99356166D01*
X158604655Y-99362702D01*
X158604655Y-99362704D01*
X158626635Y-99428585D01*
X158658450Y-99523946D01*
X158751522Y-99674348D01*
X158876697Y-99799305D01*
X158882927Y-99803145D01*
X158882928Y-99803146D01*
X159020090Y-99887694D01*
X159027262Y-99892115D01*
X159107005Y-99918564D01*
X159188611Y-99945632D01*
X159188613Y-99945632D01*
X159195139Y-99947797D01*
X159201975Y-99948497D01*
X159201978Y-99948498D01*
X159245031Y-99952909D01*
X159299600Y-99958500D01*
X160500400Y-99958500D01*
X160503646Y-99958163D01*
X160503650Y-99958163D01*
X160599308Y-99948238D01*
X160599312Y-99948237D01*
X160606166Y-99947526D01*
X160612702Y-99945345D01*
X160612704Y-99945345D01*
X160744806Y-99901272D01*
X160773946Y-99891550D01*
X160924348Y-99798478D01*
X161049305Y-99673303D01*
X161096006Y-99597540D01*
X161138275Y-99528968D01*
X161138276Y-99528966D01*
X161142115Y-99522738D01*
X161178742Y-99412311D01*
X161195632Y-99361389D01*
X161195632Y-99361387D01*
X161197797Y-99354861D01*
X161208500Y-99250400D01*
X161208500Y-98584500D01*
X161228502Y-98516379D01*
X161282158Y-98469886D01*
X161334500Y-98458500D01*
X162583629Y-98458500D01*
X162651750Y-98478502D01*
X162672724Y-98495405D01*
X163929595Y-99752276D01*
X163963621Y-99814588D01*
X163966500Y-99841371D01*
X163966500Y-100250400D01*
X163977474Y-100356166D01*
X164033450Y-100523946D01*
X164126522Y-100674348D01*
X164251697Y-100799305D01*
X164257927Y-100803145D01*
X164257928Y-100803146D01*
X164395090Y-100887694D01*
X164402262Y-100892115D01*
X164482005Y-100918564D01*
X164563611Y-100945632D01*
X164563613Y-100945632D01*
X164570139Y-100947797D01*
X164576975Y-100948497D01*
X164576978Y-100948498D01*
X164620031Y-100952909D01*
X164674600Y-100958500D01*
X165725400Y-100958500D01*
X165728646Y-100958163D01*
X165728650Y-100958163D01*
X165824308Y-100948238D01*
X165824312Y-100948237D01*
X165831166Y-100947526D01*
X165837702Y-100945345D01*
X165837704Y-100945345D01*
X165969806Y-100901272D01*
X165998946Y-100891550D01*
X166149348Y-100798478D01*
X166202252Y-100745482D01*
X166264535Y-100711403D01*
X166291425Y-100708500D01*
X169025521Y-100708500D01*
X169093642Y-100728502D01*
X169140135Y-100782158D01*
X169149404Y-100814969D01*
X169149713Y-100814908D01*
X169150625Y-100819491D01*
X169150625Y-100819494D01*
X169188903Y-101011930D01*
X169200704Y-101071256D01*
X169289026Y-101317252D01*
X169291242Y-101321376D01*
X169391787Y-101508500D01*
X169412737Y-101547491D01*
X169415532Y-101551234D01*
X169415534Y-101551237D01*
X169566330Y-101753177D01*
X169566335Y-101753183D01*
X169569122Y-101756915D01*
X169572431Y-101760195D01*
X169572436Y-101760201D01*
X169751426Y-101937635D01*
X169754743Y-101940923D01*
X169758505Y-101943681D01*
X169758508Y-101943684D01*
X169961750Y-102092707D01*
X169965524Y-102095474D01*
X169969667Y-102097654D01*
X169969669Y-102097655D01*
X170192684Y-102214989D01*
X170192689Y-102214991D01*
X170196834Y-102217172D01*
X170443590Y-102303344D01*
X170448183Y-102304216D01*
X170695785Y-102351224D01*
X170695788Y-102351224D01*
X170700374Y-102352095D01*
X170830959Y-102357226D01*
X170956875Y-102362174D01*
X170956881Y-102362174D01*
X170961543Y-102362357D01*
X171040977Y-102353657D01*
X171216707Y-102334412D01*
X171216712Y-102334411D01*
X171221360Y-102333902D01*
X171334116Y-102304216D01*
X171469594Y-102268548D01*
X171469596Y-102268547D01*
X171474117Y-102267357D01*
X171714262Y-102164182D01*
X171936519Y-102026646D01*
X171940082Y-102023629D01*
X171940087Y-102023626D01*
X172132439Y-101860787D01*
X172132440Y-101860786D01*
X172136005Y-101857768D01*
X172227729Y-101753177D01*
X172305257Y-101664774D01*
X172305261Y-101664769D01*
X172308339Y-101661259D01*
X172449733Y-101441437D01*
X172557083Y-101203129D01*
X172571983Y-101150298D01*
X172609725Y-101090165D01*
X172673986Y-101059982D01*
X172693252Y-101058500D01*
X175376687Y-101058500D01*
X175444808Y-101078502D01*
X175490127Y-101129661D01*
X175513379Y-101177760D01*
X175628292Y-101321708D01*
X175772240Y-101436621D01*
X175778583Y-101439687D01*
X175778584Y-101439688D01*
X175790332Y-101445367D01*
X175938070Y-101516786D01*
X175944931Y-101518370D01*
X176112341Y-101557020D01*
X176112344Y-101557020D01*
X176117540Y-101558220D01*
X176122396Y-101558500D01*
X177677604Y-101558500D01*
X177682460Y-101558220D01*
X177687656Y-101557020D01*
X177687659Y-101557020D01*
X177855069Y-101518370D01*
X177861930Y-101516786D01*
X178009668Y-101445367D01*
X178021416Y-101439688D01*
X178021417Y-101439687D01*
X178027760Y-101436621D01*
X178171708Y-101321708D01*
X178286621Y-101177760D01*
X178366786Y-101011930D01*
X178379199Y-100958163D01*
X178407020Y-100837659D01*
X178407020Y-100837656D01*
X178408220Y-100832460D01*
X178408500Y-100827604D01*
X178408500Y-99772396D01*
X178408220Y-99767540D01*
X178381515Y-99651866D01*
X178368370Y-99594931D01*
X178366786Y-99588070D01*
X178286621Y-99422240D01*
X178171708Y-99278292D01*
X178027760Y-99163379D01*
X177861930Y-99083214D01*
X177841546Y-99078508D01*
X177687659Y-99042980D01*
X177687656Y-99042980D01*
X177682460Y-99041780D01*
X177677604Y-99041500D01*
X176122396Y-99041500D01*
X176117540Y-99041780D01*
X176112344Y-99042980D01*
X176112341Y-99042980D01*
X175958454Y-99078508D01*
X175938070Y-99083214D01*
X175772240Y-99163379D01*
X175628292Y-99278292D01*
X175513379Y-99422240D01*
X175510312Y-99428585D01*
X175490127Y-99470339D01*
X175442471Y-99522964D01*
X175376687Y-99541500D01*
X172365989Y-99541500D01*
X172297868Y-99521498D01*
X172267039Y-99493506D01*
X172203030Y-99412311D01*
X172203027Y-99412308D01*
X172200138Y-99408643D01*
X172009763Y-99229557D01*
X171831464Y-99105866D01*
X171798851Y-99083241D01*
X171798848Y-99083239D01*
X171795009Y-99080576D01*
X171764438Y-99065500D01*
X171564781Y-98967040D01*
X171564778Y-98967039D01*
X171560593Y-98964975D01*
X171518504Y-98951502D01*
X171316123Y-98886720D01*
X171311665Y-98885293D01*
X171053693Y-98843279D01*
X170939942Y-98841790D01*
X170797022Y-98839919D01*
X170797019Y-98839919D01*
X170792345Y-98839858D01*
X170533362Y-98875104D01*
X170282433Y-98948243D01*
X170278180Y-98950203D01*
X170278179Y-98950204D01*
X170241659Y-98967040D01*
X170045072Y-99057668D01*
X169985303Y-99096854D01*
X169872407Y-99170872D01*
X169803322Y-99191500D01*
X166291393Y-99191500D01*
X166223272Y-99171498D01*
X166202375Y-99154673D01*
X166153483Y-99105866D01*
X166148303Y-99100695D01*
X166112309Y-99078508D01*
X166003968Y-99011725D01*
X166003966Y-99011724D01*
X165997738Y-99007885D01*
X165917995Y-98981436D01*
X165836389Y-98954368D01*
X165836387Y-98954368D01*
X165829861Y-98952203D01*
X165823025Y-98951503D01*
X165823022Y-98951502D01*
X165778416Y-98946932D01*
X165725400Y-98941500D01*
X165316371Y-98941500D01*
X165248250Y-98921498D01*
X165227276Y-98904595D01*
X163533770Y-97211089D01*
X163521384Y-97196677D01*
X163512851Y-97185082D01*
X163512846Y-97185077D01*
X163508508Y-97179182D01*
X163502930Y-97174443D01*
X163502927Y-97174440D01*
X163468232Y-97144965D01*
X163460716Y-97138035D01*
X163455021Y-97132340D01*
X163445869Y-97125099D01*
X163432749Y-97114719D01*
X163429345Y-97111928D01*
X163379297Y-97069409D01*
X163379295Y-97069408D01*
X163373715Y-97064667D01*
X163367199Y-97061339D01*
X163362150Y-97057972D01*
X163357021Y-97054805D01*
X163351284Y-97050266D01*
X163285125Y-97019345D01*
X163281225Y-97017439D01*
X163273425Y-97013456D01*
X163216192Y-96984231D01*
X163209084Y-96982492D01*
X163203441Y-96980393D01*
X163197678Y-96978476D01*
X163191050Y-96975378D01*
X163119583Y-96960513D01*
X163115299Y-96959543D01*
X163044390Y-96942192D01*
X163038788Y-96941844D01*
X163038785Y-96941844D01*
X163033236Y-96941500D01*
X163033238Y-96941464D01*
X163029245Y-96941225D01*
X163025053Y-96940851D01*
X163017885Y-96939360D01*
X162951675Y-96941151D01*
X162940479Y-96941454D01*
X162937072Y-96941500D01*
X161334500Y-96941500D01*
X161266379Y-96921498D01*
X161219886Y-96867842D01*
X161208500Y-96815500D01*
X161208500Y-96149600D01*
X161197526Y-96043834D01*
X161141550Y-95876054D01*
X161048478Y-95725652D01*
X160923303Y-95600695D01*
X160861009Y-95562296D01*
X160778968Y-95511725D01*
X160778966Y-95511724D01*
X160772738Y-95507885D01*
X160612254Y-95454655D01*
X160611389Y-95454368D01*
X160611387Y-95454368D01*
X160604861Y-95452203D01*
X160598025Y-95451503D01*
X160598022Y-95451502D01*
X160554969Y-95447091D01*
X160500400Y-95441500D01*
X159299600Y-95441500D01*
X159296354Y-95441837D01*
X159296350Y-95441837D01*
X159200692Y-95451762D01*
X159200688Y-95451763D01*
X159193834Y-95452474D01*
X159187298Y-95454655D01*
X159187296Y-95454655D01*
X159055194Y-95498728D01*
X159026054Y-95508450D01*
X158875652Y-95601522D01*
X158750695Y-95726697D01*
X158657885Y-95877262D01*
X158602203Y-96045139D01*
X158591500Y-96149600D01*
X158591500Y-96928000D01*
X158571498Y-96996121D01*
X158517842Y-97042614D01*
X158465500Y-97054000D01*
X156078915Y-97054000D01*
X156010794Y-97033998D01*
X155989898Y-97017173D01*
X155961892Y-96989216D01*
X155927812Y-96926934D01*
X155932815Y-96856114D01*
X155961736Y-96811025D01*
X156044134Y-96728483D01*
X156049305Y-96723303D01*
X156056197Y-96712122D01*
X156138275Y-96578968D01*
X156138276Y-96578966D01*
X156142115Y-96572738D01*
X156174065Y-96476411D01*
X156195632Y-96411389D01*
X156195632Y-96411387D01*
X156197797Y-96404861D01*
X156208500Y-96300400D01*
X156208500Y-95674600D01*
X156207789Y-95667750D01*
X156198238Y-95575692D01*
X156198237Y-95575688D01*
X156197526Y-95568834D01*
X156141550Y-95401054D01*
X156048478Y-95250652D01*
X155923303Y-95125695D01*
X155818383Y-95061021D01*
X155770891Y-95008250D01*
X155758500Y-94953762D01*
X155758500Y-94766371D01*
X155778502Y-94698250D01*
X155795405Y-94677276D01*
X155927276Y-94545405D01*
X155989588Y-94511379D01*
X156016371Y-94508500D01*
X157808607Y-94508500D01*
X157876728Y-94528502D01*
X157897625Y-94545327D01*
X157951697Y-94599305D01*
X157957927Y-94603145D01*
X157957928Y-94603146D01*
X158095090Y-94687694D01*
X158102262Y-94692115D01*
X158168789Y-94714181D01*
X158263611Y-94745632D01*
X158263613Y-94745632D01*
X158270139Y-94747797D01*
X158276975Y-94748497D01*
X158276978Y-94748498D01*
X158320031Y-94752909D01*
X158374600Y-94758500D01*
X159425400Y-94758500D01*
X159428646Y-94758163D01*
X159428650Y-94758163D01*
X159524308Y-94748238D01*
X159524312Y-94748237D01*
X159531166Y-94747526D01*
X159537702Y-94745345D01*
X159537704Y-94745345D01*
X159678864Y-94698250D01*
X159698946Y-94691550D01*
X159849348Y-94598478D01*
X159974305Y-94473303D01*
X160067115Y-94322738D01*
X160099261Y-94225819D01*
X160120632Y-94161389D01*
X160120632Y-94161387D01*
X160122797Y-94154861D01*
X160133500Y-94050400D01*
X160133500Y-93449600D01*
X160128541Y-93401802D01*
X160123238Y-93350692D01*
X160123237Y-93350688D01*
X160122526Y-93343834D01*
X160114147Y-93318717D01*
X160068868Y-93183002D01*
X160066550Y-93176054D01*
X159973478Y-93025652D01*
X159957113Y-93009315D01*
X159853483Y-92905866D01*
X159848303Y-92900695D01*
X159771215Y-92853177D01*
X159703968Y-92811725D01*
X159703966Y-92811724D01*
X159697738Y-92807885D01*
X159567762Y-92764774D01*
X159536389Y-92754368D01*
X159536387Y-92754368D01*
X159529861Y-92752203D01*
X159523025Y-92751503D01*
X159523022Y-92751502D01*
X159479969Y-92747091D01*
X159425400Y-92741500D01*
X158374600Y-92741500D01*
X158371354Y-92741837D01*
X158371350Y-92741837D01*
X158275692Y-92751762D01*
X158275688Y-92751763D01*
X158268834Y-92752474D01*
X158262298Y-92754655D01*
X158262296Y-92754655D01*
X158130194Y-92798728D01*
X158101054Y-92808450D01*
X157950652Y-92901522D01*
X157945479Y-92906704D01*
X157897748Y-92954518D01*
X157835465Y-92988597D01*
X157808575Y-92991500D01*
X155717070Y-92991500D01*
X155698120Y-92990067D01*
X155683885Y-92987901D01*
X155683881Y-92987901D01*
X155676651Y-92986801D01*
X155669359Y-92987394D01*
X155669356Y-92987394D01*
X155623982Y-92991085D01*
X155613767Y-92991500D01*
X155605707Y-92991500D01*
X155602073Y-92991924D01*
X155602067Y-92991924D01*
X155589042Y-92993443D01*
X155577480Y-92994791D01*
X155573132Y-92995221D01*
X155500364Y-93001140D01*
X155493403Y-93003395D01*
X155487463Y-93004582D01*
X155481588Y-93005971D01*
X155474319Y-93006818D01*
X155405670Y-93031736D01*
X155401542Y-93033153D01*
X155339064Y-93053393D01*
X155339062Y-93053394D01*
X155332101Y-93055649D01*
X155325846Y-93059445D01*
X155320372Y-93061951D01*
X155314942Y-93064670D01*
X155308063Y-93067167D01*
X155301943Y-93071180D01*
X155301942Y-93071180D01*
X155247024Y-93107186D01*
X155243320Y-93109523D01*
X155180893Y-93147405D01*
X155172516Y-93154803D01*
X155172492Y-93154776D01*
X155169500Y-93157429D01*
X155166267Y-93160132D01*
X155160148Y-93164144D01*
X155142284Y-93183002D01*
X155106872Y-93220383D01*
X155104494Y-93222825D01*
X154511089Y-93816230D01*
X154496677Y-93828616D01*
X154485082Y-93837149D01*
X154485077Y-93837154D01*
X154479182Y-93841492D01*
X154474443Y-93847070D01*
X154474440Y-93847073D01*
X154444965Y-93881768D01*
X154438035Y-93889284D01*
X154432340Y-93894979D01*
X154430060Y-93897861D01*
X154414719Y-93917251D01*
X154411928Y-93920655D01*
X154369409Y-93970703D01*
X154364667Y-93976285D01*
X154361339Y-93982801D01*
X154357972Y-93987850D01*
X154354805Y-93992979D01*
X154350266Y-93998716D01*
X154319345Y-94064875D01*
X154317442Y-94068769D01*
X154284231Y-94133808D01*
X154282492Y-94140916D01*
X154280393Y-94146559D01*
X154278476Y-94152322D01*
X154275378Y-94158950D01*
X154273888Y-94166112D01*
X154273888Y-94166113D01*
X154260514Y-94230412D01*
X154259544Y-94234696D01*
X154242192Y-94305610D01*
X154241500Y-94316764D01*
X154241464Y-94316762D01*
X154241225Y-94320755D01*
X154240851Y-94324947D01*
X154239360Y-94332115D01*
X154239558Y-94339432D01*
X154241454Y-94409521D01*
X154241500Y-94412928D01*
X154241500Y-94953689D01*
X154221498Y-95021810D01*
X154181804Y-95060833D01*
X154075652Y-95126522D01*
X154070479Y-95131704D01*
X154010270Y-95192018D01*
X153947987Y-95226097D01*
X153921097Y-95229000D01*
X153773871Y-95229000D01*
X153705750Y-95208998D01*
X153684776Y-95192095D01*
X152755405Y-94262724D01*
X152721379Y-94200412D01*
X152718500Y-94173629D01*
X152718500Y-93824493D01*
X152738502Y-93756372D01*
X152792158Y-93709879D01*
X152813763Y-93702457D01*
X152820316Y-93701745D01*
X152827711Y-93698973D01*
X152827714Y-93698972D01*
X152948297Y-93653767D01*
X152956705Y-93650615D01*
X153073261Y-93563261D01*
X153160615Y-93446705D01*
X153211745Y-93310316D01*
X153218500Y-93248134D01*
X153218500Y-89625400D01*
X162241500Y-89625400D01*
X162252474Y-89731166D01*
X162308450Y-89898946D01*
X162401522Y-90049348D01*
X162526697Y-90174305D01*
X162532927Y-90178145D01*
X162532928Y-90178146D01*
X162670710Y-90263076D01*
X162677262Y-90267115D01*
X162757005Y-90293564D01*
X162838611Y-90320632D01*
X162838613Y-90320632D01*
X162845139Y-90322797D01*
X162851975Y-90323497D01*
X162851978Y-90323498D01*
X162895031Y-90327909D01*
X162949600Y-90333500D01*
X163550400Y-90333500D01*
X163553646Y-90333163D01*
X163553650Y-90333163D01*
X163649308Y-90323238D01*
X163649312Y-90323237D01*
X163656166Y-90322526D01*
X163662702Y-90320345D01*
X163662704Y-90320345D01*
X163794806Y-90276272D01*
X163823946Y-90266550D01*
X163974348Y-90173478D01*
X164099305Y-90048303D01*
X164116230Y-90020846D01*
X164179389Y-89918384D01*
X164232162Y-89870890D01*
X164286649Y-89858500D01*
X165054979Y-89858500D01*
X165123100Y-89878502D01*
X165169593Y-89932158D01*
X165178557Y-89959916D01*
X165200704Y-90071256D01*
X165289026Y-90317252D01*
X165292242Y-90323238D01*
X165355753Y-90441437D01*
X165412737Y-90547491D01*
X165415532Y-90551234D01*
X165415534Y-90551237D01*
X165566330Y-90753177D01*
X165566335Y-90753183D01*
X165569122Y-90756915D01*
X165572431Y-90760195D01*
X165572436Y-90760201D01*
X165708843Y-90895422D01*
X165754743Y-90940923D01*
X165758505Y-90943681D01*
X165758508Y-90943684D01*
X165911717Y-91056021D01*
X165965524Y-91095474D01*
X165969667Y-91097654D01*
X165969669Y-91097655D01*
X166192684Y-91214989D01*
X166192689Y-91214991D01*
X166196834Y-91217172D01*
X166443590Y-91303344D01*
X166448183Y-91304216D01*
X166695785Y-91351224D01*
X166695788Y-91351224D01*
X166700374Y-91352095D01*
X166830959Y-91357226D01*
X166956875Y-91362174D01*
X166956881Y-91362174D01*
X166961543Y-91362357D01*
X167040977Y-91353657D01*
X167216707Y-91334412D01*
X167216712Y-91334411D01*
X167221360Y-91333902D01*
X167334116Y-91304216D01*
X167469594Y-91268548D01*
X167469596Y-91268547D01*
X167474117Y-91267357D01*
X167714262Y-91164182D01*
X167936519Y-91026646D01*
X167940082Y-91023629D01*
X167940087Y-91023626D01*
X168132439Y-90860787D01*
X168132440Y-90860786D01*
X168136005Y-90857768D01*
X168227729Y-90753177D01*
X168305257Y-90664774D01*
X168305261Y-90664769D01*
X168308339Y-90661259D01*
X168449733Y-90441437D01*
X168557083Y-90203129D01*
X168600766Y-90048243D01*
X168626760Y-89956076D01*
X168626761Y-89956073D01*
X168628030Y-89951572D01*
X168635609Y-89891998D01*
X168660616Y-89695421D01*
X168660616Y-89695417D01*
X168661014Y-89692291D01*
X168663431Y-89600000D01*
X168647152Y-89380938D01*
X168644407Y-89344000D01*
X168644406Y-89343996D01*
X168644061Y-89339348D01*
X168586377Y-89084423D01*
X168506161Y-88878146D01*
X168493340Y-88845176D01*
X168493339Y-88845173D01*
X168491647Y-88840823D01*
X168361951Y-88613902D01*
X168200138Y-88408643D01*
X168009763Y-88229557D01*
X167795009Y-88080576D01*
X167790825Y-88078512D01*
X167790817Y-88078508D01*
X167728772Y-88047911D01*
X167676523Y-87999843D01*
X167658500Y-87934905D01*
X167658500Y-86966371D01*
X167678502Y-86898250D01*
X167695405Y-86877276D01*
X167877276Y-86695405D01*
X167939588Y-86661379D01*
X167966371Y-86658500D01*
X168233629Y-86658500D01*
X168301750Y-86678502D01*
X168322724Y-86695405D01*
X168816230Y-87188911D01*
X168828616Y-87203323D01*
X168837149Y-87214918D01*
X168837154Y-87214923D01*
X168841492Y-87220818D01*
X168847070Y-87225557D01*
X168847073Y-87225560D01*
X168881768Y-87255035D01*
X168889284Y-87261965D01*
X168894979Y-87267660D01*
X168897861Y-87269940D01*
X168917251Y-87285281D01*
X168920655Y-87288072D01*
X168970703Y-87330591D01*
X168976285Y-87335333D01*
X168982801Y-87338661D01*
X168987850Y-87342028D01*
X168992979Y-87345195D01*
X168998716Y-87349734D01*
X169064875Y-87380655D01*
X169068769Y-87382558D01*
X169133808Y-87415769D01*
X169140917Y-87417508D01*
X169146551Y-87419604D01*
X169152321Y-87421523D01*
X169158950Y-87424622D01*
X169166113Y-87426112D01*
X169166116Y-87426113D01*
X169216830Y-87436661D01*
X169230435Y-87439491D01*
X169234701Y-87440457D01*
X169305610Y-87457808D01*
X169311212Y-87458156D01*
X169311215Y-87458156D01*
X169316764Y-87458500D01*
X169316762Y-87458535D01*
X169320734Y-87458775D01*
X169324955Y-87459152D01*
X169332115Y-87460641D01*
X169409542Y-87458546D01*
X169412950Y-87458500D01*
X169413219Y-87458500D01*
X169481340Y-87478502D01*
X169520363Y-87518197D01*
X169601522Y-87649348D01*
X169726697Y-87774305D01*
X169732927Y-87778145D01*
X169732928Y-87778146D01*
X169870090Y-87862694D01*
X169877262Y-87867115D01*
X169957005Y-87893564D01*
X170038611Y-87920632D01*
X170038613Y-87920632D01*
X170045139Y-87922797D01*
X170051975Y-87923497D01*
X170051978Y-87923498D01*
X170095031Y-87927909D01*
X170149600Y-87933500D01*
X170750400Y-87933500D01*
X170753646Y-87933163D01*
X170753650Y-87933163D01*
X170849308Y-87923238D01*
X170849312Y-87923237D01*
X170856166Y-87922526D01*
X170862702Y-87920345D01*
X170862704Y-87920345D01*
X170994806Y-87876272D01*
X171023946Y-87866550D01*
X171174348Y-87773478D01*
X171299305Y-87648303D01*
X171301906Y-87644084D01*
X171359030Y-87603583D01*
X171429953Y-87600351D01*
X171491365Y-87635976D01*
X171497922Y-87643530D01*
X171501522Y-87649348D01*
X171626697Y-87774305D01*
X171632927Y-87778145D01*
X171632928Y-87778146D01*
X171770090Y-87862694D01*
X171777262Y-87867115D01*
X171857005Y-87893564D01*
X171938611Y-87920632D01*
X171938613Y-87920632D01*
X171945139Y-87922797D01*
X171951975Y-87923497D01*
X171951978Y-87923498D01*
X171995031Y-87927909D01*
X172049600Y-87933500D01*
X172650400Y-87933500D01*
X172653646Y-87933163D01*
X172653650Y-87933163D01*
X172749308Y-87923238D01*
X172749312Y-87923237D01*
X172756166Y-87922526D01*
X172762702Y-87920345D01*
X172762704Y-87920345D01*
X172894806Y-87876272D01*
X172923946Y-87866550D01*
X173074348Y-87773478D01*
X173199305Y-87648303D01*
X173279389Y-87518384D01*
X173332162Y-87470890D01*
X173386649Y-87458500D01*
X173433629Y-87458500D01*
X173501750Y-87478502D01*
X173522724Y-87495405D01*
X174516230Y-88488911D01*
X174528616Y-88503323D01*
X174537149Y-88514918D01*
X174537154Y-88514923D01*
X174541492Y-88520818D01*
X174547070Y-88525557D01*
X174547073Y-88525560D01*
X174581768Y-88555035D01*
X174589284Y-88561965D01*
X174594980Y-88567661D01*
X174597841Y-88569924D01*
X174597846Y-88569929D01*
X174617256Y-88585285D01*
X174620658Y-88588074D01*
X174676285Y-88635333D01*
X174682802Y-88638661D01*
X174687850Y-88642027D01*
X174692972Y-88645190D01*
X174698716Y-88649735D01*
X174764895Y-88680664D01*
X174768779Y-88682563D01*
X174833808Y-88715769D01*
X174840923Y-88717510D01*
X174846578Y-88719613D01*
X174852317Y-88721522D01*
X174858950Y-88724622D01*
X174930435Y-88739491D01*
X174934701Y-88740457D01*
X175005610Y-88757808D01*
X175011212Y-88758156D01*
X175011215Y-88758156D01*
X175016764Y-88758500D01*
X175016762Y-88758535D01*
X175020734Y-88758775D01*
X175024955Y-88759152D01*
X175032115Y-88760641D01*
X175109542Y-88758546D01*
X175112950Y-88758500D01*
X178132111Y-88758500D01*
X178200232Y-88778502D01*
X178246725Y-88832158D01*
X178251420Y-88843988D01*
X178258941Y-88866145D01*
X178306554Y-88962694D01*
X178364437Y-89080069D01*
X178389885Y-89131673D01*
X178392179Y-89135106D01*
X178528649Y-89339348D01*
X178554367Y-89377838D01*
X178557081Y-89380932D01*
X178557085Y-89380938D01*
X178746437Y-89596851D01*
X178749573Y-89600427D01*
X178752662Y-89603136D01*
X178969062Y-89792915D01*
X178969068Y-89792919D01*
X178972162Y-89795633D01*
X178975588Y-89797922D01*
X178975593Y-89797926D01*
X179124973Y-89897738D01*
X179218327Y-89960115D01*
X179222026Y-89961939D01*
X179222031Y-89961942D01*
X179341477Y-90020846D01*
X179483855Y-90091059D01*
X179487760Y-90092384D01*
X179487761Y-90092385D01*
X179760290Y-90184896D01*
X179760294Y-90184897D01*
X179764203Y-90186224D01*
X179768247Y-90187028D01*
X179768253Y-90187030D01*
X180050535Y-90243180D01*
X180050541Y-90243181D01*
X180054574Y-90243983D01*
X180058679Y-90244252D01*
X180058686Y-90244253D01*
X180329340Y-90261992D01*
X180340053Y-90262694D01*
X180345881Y-90263076D01*
X180350000Y-90263346D01*
X180354119Y-90263076D01*
X180359948Y-90262694D01*
X180370660Y-90261992D01*
X180641314Y-90244253D01*
X180641321Y-90244252D01*
X180645426Y-90243983D01*
X180649459Y-90243181D01*
X180649465Y-90243180D01*
X180931747Y-90187030D01*
X180931753Y-90187028D01*
X180935797Y-90186224D01*
X180939706Y-90184897D01*
X180939710Y-90184896D01*
X181212239Y-90092385D01*
X181212240Y-90092384D01*
X181216145Y-90091059D01*
X181358523Y-90020846D01*
X181477969Y-89961942D01*
X181477974Y-89961939D01*
X181481673Y-89960115D01*
X181575027Y-89897738D01*
X181724407Y-89797926D01*
X181724412Y-89797922D01*
X181727838Y-89795633D01*
X181730932Y-89792919D01*
X181730938Y-89792915D01*
X181947338Y-89603136D01*
X181950427Y-89600427D01*
X181953563Y-89596851D01*
X182142915Y-89380938D01*
X182142919Y-89380932D01*
X182145633Y-89377838D01*
X182171352Y-89339348D01*
X182307821Y-89135106D01*
X182310115Y-89131673D01*
X182335564Y-89080069D01*
X182393446Y-88962694D01*
X182441059Y-88866145D01*
X182449655Y-88840823D01*
X182534896Y-88589710D01*
X182534897Y-88589706D01*
X182536224Y-88585797D01*
X182537030Y-88581747D01*
X182593180Y-88299465D01*
X182593181Y-88299459D01*
X182593983Y-88295426D01*
X182598301Y-88229557D01*
X182613076Y-88004119D01*
X182613346Y-88000000D01*
X182605458Y-87879655D01*
X182594253Y-87708686D01*
X182594252Y-87708679D01*
X182593983Y-87704574D01*
X182583821Y-87653483D01*
X182537030Y-87418253D01*
X182537028Y-87418247D01*
X182536224Y-87414203D01*
X182515391Y-87352829D01*
X182442385Y-87137761D01*
X182442383Y-87137755D01*
X182441059Y-87133855D01*
X182358294Y-86966025D01*
X182311942Y-86872031D01*
X182311939Y-86872026D01*
X182310115Y-86868327D01*
X182267281Y-86804222D01*
X182147926Y-86625593D01*
X182147922Y-86625588D01*
X182145633Y-86622162D01*
X182142919Y-86619068D01*
X182142915Y-86619062D01*
X181953136Y-86402662D01*
X181950427Y-86399573D01*
X181903287Y-86358232D01*
X181730938Y-86207085D01*
X181730932Y-86207081D01*
X181727838Y-86204367D01*
X181724412Y-86202078D01*
X181724407Y-86202074D01*
X181518762Y-86064667D01*
X181481673Y-86039885D01*
X181477974Y-86038061D01*
X181477969Y-86038058D01*
X181283571Y-85942192D01*
X181216145Y-85908941D01*
X181212239Y-85907615D01*
X180939710Y-85815104D01*
X180939706Y-85815103D01*
X180935797Y-85813776D01*
X180931753Y-85812972D01*
X180931747Y-85812970D01*
X180649465Y-85756820D01*
X180649459Y-85756819D01*
X180645426Y-85756017D01*
X180641321Y-85755748D01*
X180641314Y-85755747D01*
X180354119Y-85736924D01*
X180350000Y-85736654D01*
X180345881Y-85736924D01*
X180058686Y-85755747D01*
X180058679Y-85755748D01*
X180054574Y-85756017D01*
X180050541Y-85756819D01*
X180050535Y-85756820D01*
X179768253Y-85812970D01*
X179768247Y-85812972D01*
X179764203Y-85813776D01*
X179760294Y-85815103D01*
X179760290Y-85815104D01*
X179487761Y-85907615D01*
X179483855Y-85908941D01*
X179416429Y-85942192D01*
X179222031Y-86038058D01*
X179222026Y-86038061D01*
X179218327Y-86039885D01*
X179181238Y-86064667D01*
X178975593Y-86202074D01*
X178975588Y-86202078D01*
X178972162Y-86204367D01*
X178969068Y-86207081D01*
X178969062Y-86207085D01*
X178796713Y-86358232D01*
X178749573Y-86399573D01*
X178746864Y-86402662D01*
X178557085Y-86619062D01*
X178557081Y-86619068D01*
X178554367Y-86622162D01*
X178552078Y-86625588D01*
X178552074Y-86625593D01*
X178432719Y-86804222D01*
X178389885Y-86868327D01*
X178388061Y-86872026D01*
X178388058Y-86872031D01*
X178341706Y-86966025D01*
X178258941Y-87133855D01*
X178251424Y-87156001D01*
X178210589Y-87214076D01*
X178144837Y-87240856D01*
X178132111Y-87241500D01*
X175466370Y-87241500D01*
X175398249Y-87221498D01*
X175377275Y-87204595D01*
X174895349Y-86722668D01*
X174383770Y-86211089D01*
X174371384Y-86196677D01*
X174362851Y-86185082D01*
X174362846Y-86185077D01*
X174358508Y-86179182D01*
X174352930Y-86174443D01*
X174352927Y-86174440D01*
X174318232Y-86144965D01*
X174310716Y-86138035D01*
X174305021Y-86132340D01*
X174291163Y-86121376D01*
X174282749Y-86114719D01*
X174279345Y-86111928D01*
X174229297Y-86069409D01*
X174229295Y-86069408D01*
X174223715Y-86064667D01*
X174217199Y-86061339D01*
X174212150Y-86057972D01*
X174207021Y-86054805D01*
X174201284Y-86050266D01*
X174135125Y-86019345D01*
X174131225Y-86017439D01*
X174066192Y-85984231D01*
X174059084Y-85982492D01*
X174053441Y-85980393D01*
X174047678Y-85978476D01*
X174041050Y-85975378D01*
X173969583Y-85960513D01*
X173965299Y-85959543D01*
X173939765Y-85953295D01*
X173894390Y-85942192D01*
X173888788Y-85941844D01*
X173888785Y-85941844D01*
X173883236Y-85941500D01*
X173883238Y-85941464D01*
X173879245Y-85941225D01*
X173875053Y-85940851D01*
X173867885Y-85939360D01*
X173801675Y-85941151D01*
X173790479Y-85941454D01*
X173787072Y-85941500D01*
X173386781Y-85941500D01*
X173318660Y-85921498D01*
X173279637Y-85881803D01*
X173202332Y-85756880D01*
X173198478Y-85750652D01*
X173073303Y-85625695D01*
X173067072Y-85621854D01*
X172928968Y-85536725D01*
X172928966Y-85536724D01*
X172922738Y-85532885D01*
X172809787Y-85495421D01*
X172761389Y-85479368D01*
X172761387Y-85479368D01*
X172754861Y-85477203D01*
X172748025Y-85476503D01*
X172748022Y-85476502D01*
X172704969Y-85472091D01*
X172650400Y-85466500D01*
X172049600Y-85466500D01*
X172046354Y-85466837D01*
X172046350Y-85466837D01*
X171950692Y-85476762D01*
X171950688Y-85476763D01*
X171943834Y-85477474D01*
X171937298Y-85479655D01*
X171937296Y-85479655D01*
X171899422Y-85492291D01*
X171776054Y-85533450D01*
X171625652Y-85626522D01*
X171500695Y-85751697D01*
X171498094Y-85755916D01*
X171440970Y-85796417D01*
X171370047Y-85799649D01*
X171308635Y-85764024D01*
X171302078Y-85756470D01*
X171298478Y-85750652D01*
X171173303Y-85625695D01*
X171167072Y-85621854D01*
X171028968Y-85536725D01*
X171028966Y-85536724D01*
X171022738Y-85532885D01*
X170909787Y-85495421D01*
X170861389Y-85479368D01*
X170861387Y-85479368D01*
X170854861Y-85477203D01*
X170848025Y-85476503D01*
X170848022Y-85476502D01*
X170804969Y-85472091D01*
X170750400Y-85466500D01*
X170149600Y-85466500D01*
X170146354Y-85466837D01*
X170146350Y-85466837D01*
X170050692Y-85476762D01*
X170050688Y-85476763D01*
X170043834Y-85477474D01*
X170037298Y-85479655D01*
X170037296Y-85479655D01*
X169999422Y-85492291D01*
X169876054Y-85533450D01*
X169725652Y-85626522D01*
X169651664Y-85700639D01*
X169589383Y-85734718D01*
X169518563Y-85729715D01*
X169473397Y-85700716D01*
X169395405Y-85622724D01*
X169361379Y-85560412D01*
X169358500Y-85533629D01*
X169358500Y-83166371D01*
X169378502Y-83098250D01*
X169395405Y-83077276D01*
X170277276Y-82195405D01*
X170339588Y-82161379D01*
X170366371Y-82158500D01*
X171235854Y-82158500D01*
X171303975Y-82178502D01*
X171346846Y-82224862D01*
X171377423Y-82281768D01*
X171412737Y-82347491D01*
X171415532Y-82351234D01*
X171415534Y-82351237D01*
X171566330Y-82553177D01*
X171566335Y-82553183D01*
X171569122Y-82556915D01*
X171572431Y-82560195D01*
X171572436Y-82560201D01*
X171745858Y-82732115D01*
X171754743Y-82740923D01*
X171758505Y-82743681D01*
X171758508Y-82743684D01*
X171961750Y-82892707D01*
X171965524Y-82895474D01*
X171969667Y-82897654D01*
X171969669Y-82897655D01*
X172192684Y-83014989D01*
X172192689Y-83014991D01*
X172196834Y-83017172D01*
X172335254Y-83065511D01*
X172368944Y-83077276D01*
X172443590Y-83103344D01*
X172448183Y-83104216D01*
X172695785Y-83151224D01*
X172695788Y-83151224D01*
X172700374Y-83152095D01*
X172830959Y-83157226D01*
X172956875Y-83162174D01*
X172956881Y-83162174D01*
X172961543Y-83162357D01*
X173040977Y-83153657D01*
X173216707Y-83134412D01*
X173216712Y-83134411D01*
X173221360Y-83133902D01*
X173334116Y-83104216D01*
X173469594Y-83068548D01*
X173469596Y-83068547D01*
X173474117Y-83067357D01*
X173714262Y-82964182D01*
X173936519Y-82826646D01*
X173940082Y-82823629D01*
X173940087Y-82823626D01*
X174132439Y-82660787D01*
X174132440Y-82660786D01*
X174136005Y-82657768D01*
X174203563Y-82580733D01*
X174305257Y-82464774D01*
X174305261Y-82464769D01*
X174308339Y-82461259D01*
X174366587Y-82370703D01*
X174447205Y-82245367D01*
X174449733Y-82241437D01*
X174557083Y-82003129D01*
X174583004Y-81911221D01*
X174626760Y-81756076D01*
X174626761Y-81756073D01*
X174628030Y-81751572D01*
X174641173Y-81648255D01*
X174660616Y-81495421D01*
X174660616Y-81495417D01*
X174661014Y-81492291D01*
X174661131Y-81487850D01*
X174663348Y-81403160D01*
X174663431Y-81400000D01*
X174660139Y-81355703D01*
X174644407Y-81144000D01*
X174644406Y-81143996D01*
X174644061Y-81139348D01*
X174641196Y-81126684D01*
X174587408Y-80888980D01*
X174586377Y-80884423D01*
X174551406Y-80794495D01*
X174493340Y-80645176D01*
X174493339Y-80645173D01*
X174491647Y-80640823D01*
X174361951Y-80413902D01*
X174200138Y-80208643D01*
X174009763Y-80029557D01*
X173795009Y-79880576D01*
X173790816Y-79878508D01*
X173564781Y-79767040D01*
X173564778Y-79767039D01*
X173560593Y-79764975D01*
X173514449Y-79750204D01*
X173316123Y-79686720D01*
X173311665Y-79685293D01*
X173053693Y-79643279D01*
X172939942Y-79641790D01*
X172797022Y-79639919D01*
X172797019Y-79639919D01*
X172792345Y-79639858D01*
X172533362Y-79675104D01*
X172282433Y-79748243D01*
X172278180Y-79750203D01*
X172278179Y-79750204D01*
X172241659Y-79767040D01*
X172045072Y-79857668D01*
X172006067Y-79883241D01*
X171830404Y-79998410D01*
X171830399Y-79998414D01*
X171826491Y-80000976D01*
X171631494Y-80175018D01*
X171464363Y-80375970D01*
X171392873Y-80493783D01*
X171340030Y-80580865D01*
X171287591Y-80628726D01*
X171232311Y-80641500D01*
X170067070Y-80641500D01*
X170048120Y-80640067D01*
X170033885Y-80637901D01*
X170033881Y-80637901D01*
X170026651Y-80636801D01*
X170019359Y-80637394D01*
X170019356Y-80637394D01*
X169973982Y-80641085D01*
X169963767Y-80641500D01*
X169955707Y-80641500D01*
X169942417Y-80643049D01*
X169927493Y-80644789D01*
X169923118Y-80645222D01*
X169857661Y-80650546D01*
X169857658Y-80650547D01*
X169850363Y-80651140D01*
X169843399Y-80653396D01*
X169837440Y-80654587D01*
X169831585Y-80655971D01*
X169824319Y-80656818D01*
X169755673Y-80681735D01*
X169751545Y-80683152D01*
X169689064Y-80703393D01*
X169689062Y-80703394D01*
X169682101Y-80705649D01*
X169675846Y-80709445D01*
X169670372Y-80711951D01*
X169664942Y-80714670D01*
X169658063Y-80717167D01*
X169651943Y-80721180D01*
X169651942Y-80721180D01*
X169597024Y-80757186D01*
X169593320Y-80759523D01*
X169530893Y-80797405D01*
X169522516Y-80804803D01*
X169522492Y-80804776D01*
X169519500Y-80807429D01*
X169516267Y-80810132D01*
X169510148Y-80814144D01*
X169505116Y-80819456D01*
X169456872Y-80870383D01*
X169454494Y-80872825D01*
X168111089Y-82216230D01*
X168096677Y-82228616D01*
X168085082Y-82237149D01*
X168085077Y-82237154D01*
X168079182Y-82241492D01*
X168074443Y-82247070D01*
X168074440Y-82247073D01*
X168044965Y-82281768D01*
X168038035Y-82289284D01*
X168032340Y-82294979D01*
X168030060Y-82297861D01*
X168014719Y-82317251D01*
X168011928Y-82320655D01*
X167969409Y-82370703D01*
X167964667Y-82376285D01*
X167961339Y-82382801D01*
X167957972Y-82387850D01*
X167954805Y-82392979D01*
X167950266Y-82398716D01*
X167919345Y-82464875D01*
X167917442Y-82468769D01*
X167884231Y-82533808D01*
X167882492Y-82540916D01*
X167880393Y-82546559D01*
X167878476Y-82552322D01*
X167875378Y-82558950D01*
X167873888Y-82566112D01*
X167873888Y-82566113D01*
X167860514Y-82630412D01*
X167859544Y-82634696D01*
X167842192Y-82705610D01*
X167841500Y-82716764D01*
X167841464Y-82716762D01*
X167841225Y-82720755D01*
X167840851Y-82724947D01*
X167839360Y-82732115D01*
X167839558Y-82739432D01*
X167841454Y-82809521D01*
X167841500Y-82812928D01*
X167841500Y-85015500D01*
X167821498Y-85083621D01*
X167767842Y-85130114D01*
X167715500Y-85141500D01*
X167667063Y-85141500D01*
X167648114Y-85140067D01*
X167647907Y-85140036D01*
X167626651Y-85136802D01*
X167619359Y-85137395D01*
X167619356Y-85137395D01*
X167573991Y-85141085D01*
X167563777Y-85141500D01*
X167555707Y-85141500D01*
X167552087Y-85141922D01*
X167552069Y-85141923D01*
X167527461Y-85144792D01*
X167523100Y-85145224D01*
X167497981Y-85147267D01*
X167457661Y-85150546D01*
X167457658Y-85150547D01*
X167450363Y-85151140D01*
X167443399Y-85153396D01*
X167437440Y-85154587D01*
X167431585Y-85155971D01*
X167424319Y-85156818D01*
X167355673Y-85181735D01*
X167351545Y-85183152D01*
X167289064Y-85203393D01*
X167289062Y-85203394D01*
X167282101Y-85205649D01*
X167275846Y-85209445D01*
X167270372Y-85211951D01*
X167264942Y-85214670D01*
X167258063Y-85217167D01*
X167197016Y-85257191D01*
X167193327Y-85259518D01*
X167173135Y-85271771D01*
X167135693Y-85294491D01*
X167135688Y-85294495D01*
X167130892Y-85297405D01*
X167122516Y-85304803D01*
X167122493Y-85304777D01*
X167119503Y-85307426D01*
X167116264Y-85310134D01*
X167110148Y-85314144D01*
X167105121Y-85319451D01*
X167105117Y-85319454D01*
X167056872Y-85370383D01*
X167054494Y-85372825D01*
X166411089Y-86016230D01*
X166396677Y-86028616D01*
X166385082Y-86037149D01*
X166385077Y-86037154D01*
X166379182Y-86041492D01*
X166374443Y-86047070D01*
X166374440Y-86047073D01*
X166344965Y-86081768D01*
X166338035Y-86089284D01*
X166332340Y-86094979D01*
X166330060Y-86097861D01*
X166314719Y-86117251D01*
X166311928Y-86120655D01*
X166269409Y-86170703D01*
X166264667Y-86176285D01*
X166261339Y-86182801D01*
X166257972Y-86187850D01*
X166254805Y-86192979D01*
X166250266Y-86198716D01*
X166219345Y-86264875D01*
X166217442Y-86268769D01*
X166184231Y-86333808D01*
X166182492Y-86340916D01*
X166180393Y-86346559D01*
X166178476Y-86352322D01*
X166175378Y-86358950D01*
X166161896Y-86423770D01*
X166160514Y-86430412D01*
X166159544Y-86434696D01*
X166142192Y-86505610D01*
X166141500Y-86516764D01*
X166141464Y-86516762D01*
X166141225Y-86520755D01*
X166140851Y-86524947D01*
X166139360Y-86532115D01*
X166139558Y-86539432D01*
X166141454Y-86609521D01*
X166141500Y-86612928D01*
X166141500Y-87932556D01*
X166121498Y-88000677D01*
X166068252Y-88046981D01*
X166049324Y-88055707D01*
X166049315Y-88055712D01*
X166045072Y-88057668D01*
X166006070Y-88083239D01*
X165830404Y-88198410D01*
X165830399Y-88198414D01*
X165826491Y-88200976D01*
X165822999Y-88204093D01*
X165704897Y-88309503D01*
X165640756Y-88339941D01*
X165620996Y-88341500D01*
X164286781Y-88341500D01*
X164218660Y-88321498D01*
X164179637Y-88281803D01*
X164102332Y-88156880D01*
X164098478Y-88150652D01*
X163973303Y-88025695D01*
X163953055Y-88013214D01*
X163828968Y-87936725D01*
X163828966Y-87936724D01*
X163822738Y-87932885D01*
X163662254Y-87879655D01*
X163661389Y-87879368D01*
X163661387Y-87879368D01*
X163654861Y-87877203D01*
X163648025Y-87876503D01*
X163648022Y-87876502D01*
X163604969Y-87872091D01*
X163550400Y-87866500D01*
X162949600Y-87866500D01*
X162946354Y-87866837D01*
X162946350Y-87866837D01*
X162850692Y-87876762D01*
X162850688Y-87876763D01*
X162843834Y-87877474D01*
X162837298Y-87879655D01*
X162837296Y-87879655D01*
X162715334Y-87920345D01*
X162676054Y-87933450D01*
X162525652Y-88026522D01*
X162400695Y-88151697D01*
X162396855Y-88157927D01*
X162396854Y-88157928D01*
X162368398Y-88204093D01*
X162307885Y-88302262D01*
X162281436Y-88382005D01*
X162265563Y-88429861D01*
X162252203Y-88470139D01*
X162251503Y-88476975D01*
X162251502Y-88476978D01*
X162248803Y-88503323D01*
X162241500Y-88574600D01*
X162241500Y-89625400D01*
X153218500Y-89625400D01*
X153218500Y-86151866D01*
X153211745Y-86089684D01*
X153160615Y-85953295D01*
X153073261Y-85836739D01*
X152956705Y-85749385D01*
X152820316Y-85698255D01*
X152758134Y-85691500D01*
X151161866Y-85691500D01*
X151099684Y-85698255D01*
X150963295Y-85749385D01*
X150846739Y-85836739D01*
X150759385Y-85953295D01*
X150708255Y-86089684D01*
X150701500Y-86151866D01*
X150701500Y-93248134D01*
X150708255Y-93310316D01*
X150759385Y-93446705D01*
X150846739Y-93563261D01*
X150963295Y-93650615D01*
X150971703Y-93653767D01*
X151092286Y-93698972D01*
X151092289Y-93698973D01*
X151099684Y-93701745D01*
X151105453Y-93702372D01*
X151166291Y-93737126D01*
X151199113Y-93800081D01*
X151201500Y-93824493D01*
X151201500Y-94173629D01*
X151181498Y-94241750D01*
X151164595Y-94262724D01*
X150022724Y-95404595D01*
X149960412Y-95438621D01*
X149933629Y-95441500D01*
X145074965Y-95441500D01*
X145006844Y-95421498D01*
X144967533Y-95381336D01*
X144924176Y-95310584D01*
X144769969Y-95130031D01*
X144765861Y-95126522D01*
X144689170Y-95061022D01*
X144589416Y-94975824D01*
X144585208Y-94973245D01*
X144585202Y-94973241D01*
X144391183Y-94854346D01*
X144386963Y-94851760D01*
X144382393Y-94849867D01*
X144382389Y-94849865D01*
X144172167Y-94762789D01*
X144172165Y-94762788D01*
X144167594Y-94760895D01*
X144087391Y-94741640D01*
X143941524Y-94706620D01*
X143941518Y-94706619D01*
X143936711Y-94705465D01*
X143700000Y-94686835D01*
X143463289Y-94705465D01*
X143458482Y-94706619D01*
X143458476Y-94706620D01*
X143312609Y-94741640D01*
X143232406Y-94760895D01*
X143227835Y-94762788D01*
X143227833Y-94762789D01*
X143017611Y-94849865D01*
X143017607Y-94849867D01*
X143013037Y-94851760D01*
X143008817Y-94854346D01*
X142814798Y-94973241D01*
X142814792Y-94973245D01*
X142810584Y-94975824D01*
X142710830Y-95061022D01*
X142634140Y-95126522D01*
X142630031Y-95130031D01*
X142475824Y-95310584D01*
X142473245Y-95314792D01*
X142473241Y-95314798D01*
X142387537Y-95454655D01*
X142351760Y-95513037D01*
X142349867Y-95517607D01*
X142349865Y-95517611D01*
X142263260Y-95726697D01*
X142260895Y-95732406D01*
X142205465Y-95963289D01*
X142186835Y-96200000D01*
X116208500Y-96200000D01*
X116208500Y-91653839D01*
X137537173Y-91653839D01*
X137549713Y-91914908D01*
X137600704Y-92171256D01*
X137689026Y-92417252D01*
X137691242Y-92421376D01*
X137755753Y-92541437D01*
X137812737Y-92647491D01*
X137815532Y-92651234D01*
X137815534Y-92651237D01*
X137966330Y-92853177D01*
X137966335Y-92853183D01*
X137969122Y-92856915D01*
X137972431Y-92860195D01*
X137972436Y-92860201D01*
X138108462Y-92995044D01*
X138154743Y-93040923D01*
X138158505Y-93043681D01*
X138158508Y-93043684D01*
X138339038Y-93176054D01*
X138365524Y-93195474D01*
X138369667Y-93197654D01*
X138369669Y-93197655D01*
X138592684Y-93314989D01*
X138592689Y-93314991D01*
X138596834Y-93317172D01*
X138843590Y-93403344D01*
X138848183Y-93404216D01*
X139095785Y-93451224D01*
X139095788Y-93451224D01*
X139100374Y-93452095D01*
X139230959Y-93457226D01*
X139356875Y-93462174D01*
X139356881Y-93462174D01*
X139361543Y-93462357D01*
X139440977Y-93453657D01*
X139616707Y-93434412D01*
X139616712Y-93434411D01*
X139621360Y-93433902D01*
X139734116Y-93404216D01*
X139869594Y-93368548D01*
X139869596Y-93368547D01*
X139874117Y-93367357D01*
X139944086Y-93337296D01*
X140109972Y-93266025D01*
X140114262Y-93264182D01*
X140140196Y-93248134D01*
X140332547Y-93129104D01*
X140332548Y-93129104D01*
X140336519Y-93126646D01*
X140340082Y-93123629D01*
X140340087Y-93123626D01*
X140532439Y-92960787D01*
X140532440Y-92960786D01*
X140536005Y-92957768D01*
X140581522Y-92905866D01*
X140705257Y-92764774D01*
X140705261Y-92764769D01*
X140708339Y-92761259D01*
X140712772Y-92754368D01*
X140847205Y-92545367D01*
X140849733Y-92541437D01*
X140957083Y-92303129D01*
X141028030Y-92051572D01*
X141044832Y-91919496D01*
X141060616Y-91795421D01*
X141060616Y-91795417D01*
X141061014Y-91792291D01*
X141063431Y-91700000D01*
X141044061Y-91439348D01*
X141032725Y-91389248D01*
X140987408Y-91188979D01*
X140987408Y-91188978D01*
X140986377Y-91184423D01*
X140985254Y-91181536D01*
X140984474Y-91110957D01*
X141016660Y-91056021D01*
X145648911Y-86423770D01*
X145663323Y-86411384D01*
X145674918Y-86402851D01*
X145674923Y-86402846D01*
X145680818Y-86398508D01*
X145685557Y-86392930D01*
X145685560Y-86392927D01*
X145715035Y-86358232D01*
X145721965Y-86350716D01*
X145727660Y-86345021D01*
X145745281Y-86322749D01*
X145748072Y-86319345D01*
X145790591Y-86269297D01*
X145790592Y-86269295D01*
X145795333Y-86263715D01*
X145798661Y-86257199D01*
X145802020Y-86252162D01*
X145805194Y-86247023D01*
X145809734Y-86241284D01*
X145840636Y-86175163D01*
X145842569Y-86171209D01*
X145855970Y-86144965D01*
X145875769Y-86106192D01*
X145877510Y-86099076D01*
X145879604Y-86093446D01*
X145881523Y-86087679D01*
X145884621Y-86081050D01*
X145887043Y-86069409D01*
X145896701Y-86022974D01*
X145899483Y-86009600D01*
X145900453Y-86005315D01*
X145902090Y-85998626D01*
X145917808Y-85934390D01*
X145918500Y-85923236D01*
X145918536Y-85923238D01*
X145918775Y-85919248D01*
X145919150Y-85915050D01*
X145920640Y-85907885D01*
X145918546Y-85830479D01*
X145918500Y-85827072D01*
X145918500Y-84284500D01*
X145938502Y-84216379D01*
X145992158Y-84169886D01*
X146044500Y-84158500D01*
X148708134Y-84158500D01*
X148770316Y-84151745D01*
X148906705Y-84100615D01*
X149023261Y-84013261D01*
X149110615Y-83896705D01*
X149161745Y-83760316D01*
X149168500Y-83698134D01*
X154651500Y-83698134D01*
X154658255Y-83760316D01*
X154709385Y-83896705D01*
X154796739Y-84013261D01*
X154913295Y-84100615D01*
X155049684Y-84151745D01*
X155111866Y-84158500D01*
X165208134Y-84158500D01*
X165270316Y-84151745D01*
X165406705Y-84100615D01*
X165523261Y-84013261D01*
X165610615Y-83896705D01*
X165661745Y-83760316D01*
X165668500Y-83698134D01*
X165668500Y-82101866D01*
X165661745Y-82039684D01*
X165610615Y-81903295D01*
X165523261Y-81786739D01*
X165406705Y-81699385D01*
X165270316Y-81648255D01*
X165237233Y-81644661D01*
X165219763Y-81642763D01*
X165154201Y-81615521D01*
X165113775Y-81557158D01*
X165111320Y-81486203D01*
X165144276Y-81428405D01*
X167388907Y-79183773D01*
X167403319Y-79171387D01*
X167414917Y-79162851D01*
X167414919Y-79162850D01*
X167420818Y-79158508D01*
X167425557Y-79152930D01*
X167425560Y-79152927D01*
X167455041Y-79118225D01*
X167461971Y-79110709D01*
X167467660Y-79105020D01*
X167469918Y-79102166D01*
X167469927Y-79102156D01*
X167485274Y-79082758D01*
X167488062Y-79079358D01*
X167530595Y-79029293D01*
X167530598Y-79029289D01*
X167535333Y-79023715D01*
X167538660Y-79017200D01*
X167542019Y-79012163D01*
X167545192Y-79007025D01*
X167549734Y-79001284D01*
X167580655Y-78935125D01*
X167582561Y-78931225D01*
X167615769Y-78866192D01*
X167617508Y-78859083D01*
X167619604Y-78853449D01*
X167621523Y-78847679D01*
X167624622Y-78841050D01*
X167639491Y-78769565D01*
X167640461Y-78765282D01*
X167656473Y-78699844D01*
X167657808Y-78694390D01*
X167658500Y-78683236D01*
X167658535Y-78683238D01*
X167658775Y-78679266D01*
X167659152Y-78675045D01*
X167660641Y-78667885D01*
X167658546Y-78590458D01*
X167658500Y-78587050D01*
X167658500Y-74968892D01*
X167678502Y-74900771D01*
X167718197Y-74861747D01*
X167932547Y-74729104D01*
X167932548Y-74729104D01*
X167936519Y-74726646D01*
X167940082Y-74723629D01*
X167940087Y-74723626D01*
X168132439Y-74560787D01*
X168132440Y-74560786D01*
X168136005Y-74557768D01*
X168227729Y-74453177D01*
X168305257Y-74364774D01*
X168305261Y-74364769D01*
X168308339Y-74361259D01*
X168449733Y-74141437D01*
X168557083Y-73903129D01*
X168628030Y-73651572D01*
X168644832Y-73519496D01*
X168660616Y-73395421D01*
X168660616Y-73395417D01*
X168661014Y-73392291D01*
X168663431Y-73300000D01*
X168644061Y-73039348D01*
X168632725Y-72989248D01*
X168587408Y-72788980D01*
X168586377Y-72784423D01*
X168491647Y-72540823D01*
X168361951Y-72313902D01*
X168200138Y-72108643D01*
X168009763Y-71929557D01*
X167795009Y-71780576D01*
X167790816Y-71778508D01*
X167564781Y-71667040D01*
X167564778Y-71667039D01*
X167560593Y-71664975D01*
X167514449Y-71650204D01*
X167316123Y-71586720D01*
X167311665Y-71585293D01*
X167053693Y-71543279D01*
X166939942Y-71541790D01*
X166797022Y-71539919D01*
X166797019Y-71539919D01*
X166792345Y-71539858D01*
X166533362Y-71575104D01*
X166282433Y-71648243D01*
X166278180Y-71650203D01*
X166278179Y-71650204D01*
X166241659Y-71667040D01*
X166045072Y-71757668D01*
X166006067Y-71783241D01*
X165830404Y-71898410D01*
X165830399Y-71898414D01*
X165826491Y-71900976D01*
X165631494Y-72075018D01*
X165464363Y-72275970D01*
X165328771Y-72499419D01*
X165227697Y-72740455D01*
X165163359Y-72993783D01*
X165137173Y-73253839D01*
X165149713Y-73514908D01*
X165200704Y-73771256D01*
X165289026Y-74017252D01*
X165291242Y-74021376D01*
X165355753Y-74141437D01*
X165412737Y-74247491D01*
X165415532Y-74251234D01*
X165415534Y-74251237D01*
X165566330Y-74453177D01*
X165566335Y-74453183D01*
X165569122Y-74456915D01*
X165572431Y-74460195D01*
X165572436Y-74460201D01*
X165751426Y-74637635D01*
X165754743Y-74640923D01*
X165758505Y-74643681D01*
X165758508Y-74643684D01*
X165961757Y-74792712D01*
X165965524Y-74795474D01*
X165969657Y-74797648D01*
X165969661Y-74797651D01*
X166074168Y-74852635D01*
X166125140Y-74902054D01*
X166141500Y-74964143D01*
X166141500Y-78233629D01*
X166121498Y-78301750D01*
X166104595Y-78322724D01*
X164173595Y-80253724D01*
X164111283Y-80287750D01*
X164040468Y-80282685D01*
X163983632Y-80240138D01*
X163958821Y-80173618D01*
X163958500Y-80164629D01*
X163958500Y-79817070D01*
X163959933Y-79798120D01*
X163962099Y-79783885D01*
X163962099Y-79783881D01*
X163963199Y-79776651D01*
X163962418Y-79767040D01*
X163958915Y-79723982D01*
X163958500Y-79713767D01*
X163958500Y-79705707D01*
X163955209Y-79677480D01*
X163954778Y-79673121D01*
X163949454Y-79607662D01*
X163949453Y-79607659D01*
X163948860Y-79600364D01*
X163946604Y-79593400D01*
X163945417Y-79587461D01*
X163944030Y-79581590D01*
X163943182Y-79574319D01*
X163940686Y-79567443D01*
X163940684Y-79567434D01*
X163918275Y-79505702D01*
X163916865Y-79501598D01*
X163894352Y-79432101D01*
X163890556Y-79425846D01*
X163888057Y-79420387D01*
X163885329Y-79414939D01*
X163882833Y-79408063D01*
X163842805Y-79347010D01*
X163840481Y-79343327D01*
X163805500Y-79285680D01*
X163805499Y-79285679D01*
X163802595Y-79280893D01*
X163795198Y-79272517D01*
X163795225Y-79272493D01*
X163792570Y-79269499D01*
X163789868Y-79266268D01*
X163785856Y-79260148D01*
X163729617Y-79206872D01*
X163727175Y-79204494D01*
X161695405Y-77172724D01*
X161661379Y-77110412D01*
X161658500Y-77083629D01*
X161658500Y-76674600D01*
X161647526Y-76568834D01*
X161643888Y-76557928D01*
X161593868Y-76408002D01*
X161591550Y-76401054D01*
X161498478Y-76250652D01*
X161373303Y-76125695D01*
X161367072Y-76121854D01*
X161228968Y-76036725D01*
X161228966Y-76036724D01*
X161222738Y-76032885D01*
X161062254Y-75979655D01*
X161061389Y-75979368D01*
X161061387Y-75979368D01*
X161054861Y-75977203D01*
X161048025Y-75976503D01*
X161048022Y-75976502D01*
X161004969Y-75972091D01*
X160950400Y-75966500D01*
X160349600Y-75966500D01*
X160346354Y-75966837D01*
X160346350Y-75966837D01*
X160250692Y-75976762D01*
X160250688Y-75976763D01*
X160243834Y-75977474D01*
X160237298Y-75979655D01*
X160237296Y-75979655D01*
X160105194Y-76023728D01*
X160076054Y-76033450D01*
X159925652Y-76126522D01*
X159800695Y-76251697D01*
X159796855Y-76257927D01*
X159796854Y-76257928D01*
X159747925Y-76337306D01*
X159707885Y-76402262D01*
X159698398Y-76430866D01*
X159658667Y-76550652D01*
X159652203Y-76570139D01*
X159641500Y-76674600D01*
X159641500Y-77725400D01*
X159652474Y-77831166D01*
X159708450Y-77998946D01*
X159801522Y-78149348D01*
X159926697Y-78274305D01*
X159932927Y-78278145D01*
X159932928Y-78278146D01*
X160005247Y-78322724D01*
X160077262Y-78367115D01*
X160157005Y-78393564D01*
X160238611Y-78420632D01*
X160238613Y-78420632D01*
X160245139Y-78422797D01*
X160251975Y-78423497D01*
X160251978Y-78423498D01*
X160295031Y-78427909D01*
X160349600Y-78433500D01*
X160758629Y-78433500D01*
X160826750Y-78453502D01*
X160847724Y-78470405D01*
X162404595Y-80027276D01*
X162438621Y-80089588D01*
X162441500Y-80116371D01*
X162441500Y-81515500D01*
X162421498Y-81583621D01*
X162367842Y-81630114D01*
X162315500Y-81641500D01*
X155111866Y-81641500D01*
X155049684Y-81648255D01*
X154913295Y-81699385D01*
X154796739Y-81786739D01*
X154709385Y-81903295D01*
X154658255Y-82039684D01*
X154651500Y-82101866D01*
X154651500Y-83698134D01*
X149168500Y-83698134D01*
X149168500Y-82101866D01*
X149161745Y-82039684D01*
X149110615Y-81903295D01*
X149023261Y-81786739D01*
X148906705Y-81699385D01*
X148770316Y-81648255D01*
X148708134Y-81641500D01*
X146044500Y-81641500D01*
X145976379Y-81621498D01*
X145929886Y-81567842D01*
X145918500Y-81515500D01*
X145918500Y-78581376D01*
X145938502Y-78513255D01*
X145955327Y-78492359D01*
X145994130Y-78453488D01*
X145994134Y-78453483D01*
X145999305Y-78448303D01*
X146051717Y-78363275D01*
X146088275Y-78303968D01*
X146088276Y-78303966D01*
X146092115Y-78297738D01*
X146139618Y-78154521D01*
X146145632Y-78136389D01*
X146145632Y-78136387D01*
X146147797Y-78129861D01*
X146158500Y-78025400D01*
X146158500Y-76974600D01*
X146147526Y-76868834D01*
X146091550Y-76701054D01*
X145998478Y-76550652D01*
X145873303Y-76425695D01*
X145823221Y-76394824D01*
X145728968Y-76336725D01*
X145728966Y-76336724D01*
X145722738Y-76332885D01*
X145562254Y-76279655D01*
X145561389Y-76279368D01*
X145561387Y-76279368D01*
X145554861Y-76277203D01*
X145548025Y-76276503D01*
X145548022Y-76276502D01*
X145504969Y-76272091D01*
X145450400Y-76266500D01*
X144849600Y-76266500D01*
X144846354Y-76266837D01*
X144846350Y-76266837D01*
X144750692Y-76276762D01*
X144750688Y-76276763D01*
X144743834Y-76277474D01*
X144737298Y-76279655D01*
X144737296Y-76279655D01*
X144605194Y-76323728D01*
X144576054Y-76333450D01*
X144425652Y-76426522D01*
X144300695Y-76551697D01*
X144296855Y-76557927D01*
X144296854Y-76557928D01*
X144226940Y-76671350D01*
X144207885Y-76702262D01*
X144152203Y-76870139D01*
X144141500Y-76974600D01*
X144141500Y-78025400D01*
X144152474Y-78131166D01*
X144208450Y-78298946D01*
X144301522Y-78449348D01*
X144306704Y-78454521D01*
X144364518Y-78512234D01*
X144398597Y-78574516D01*
X144401500Y-78601407D01*
X144401500Y-81515500D01*
X144381498Y-81583621D01*
X144327842Y-81630114D01*
X144275500Y-81641500D01*
X141611866Y-81641500D01*
X141549684Y-81648255D01*
X141413295Y-81699385D01*
X141296739Y-81786739D01*
X141209385Y-81903295D01*
X141158255Y-82039684D01*
X141151500Y-82101866D01*
X141151500Y-83698134D01*
X141158255Y-83760316D01*
X141209385Y-83896705D01*
X141296739Y-84013261D01*
X141413295Y-84100615D01*
X141549684Y-84151745D01*
X141611866Y-84158500D01*
X144275500Y-84158500D01*
X144343621Y-84178502D01*
X144390114Y-84232158D01*
X144401500Y-84284500D01*
X144401500Y-85473629D01*
X144381498Y-85541750D01*
X144364595Y-85562724D01*
X139940499Y-89986820D01*
X139878187Y-90020846D01*
X139812992Y-90017727D01*
X139716435Y-89986820D01*
X139711665Y-89985293D01*
X139453693Y-89943279D01*
X139339942Y-89941790D01*
X139197022Y-89939919D01*
X139197019Y-89939919D01*
X139192345Y-89939858D01*
X138933362Y-89975104D01*
X138928876Y-89976412D01*
X138928874Y-89976412D01*
X138893166Y-89986820D01*
X138682433Y-90048243D01*
X138678180Y-90050203D01*
X138678179Y-90050204D01*
X138668815Y-90054521D01*
X138445072Y-90157668D01*
X138413838Y-90178146D01*
X138230404Y-90298410D01*
X138230399Y-90298414D01*
X138226491Y-90300976D01*
X138031494Y-90475018D01*
X137864363Y-90675970D01*
X137728771Y-90899419D01*
X137627697Y-91140455D01*
X137563359Y-91393783D01*
X137537173Y-91653839D01*
X116208500Y-91653839D01*
X116208500Y-88000000D01*
X119136654Y-88000000D01*
X119136924Y-88004119D01*
X119151700Y-88229557D01*
X119156017Y-88295426D01*
X119156819Y-88299459D01*
X119156820Y-88299465D01*
X119212970Y-88581747D01*
X119213776Y-88585797D01*
X119215103Y-88589706D01*
X119215104Y-88589710D01*
X119300345Y-88840823D01*
X119308941Y-88866145D01*
X119356554Y-88962694D01*
X119414437Y-89080069D01*
X119439885Y-89131673D01*
X119442179Y-89135106D01*
X119578649Y-89339348D01*
X119604367Y-89377838D01*
X119607081Y-89380932D01*
X119607085Y-89380938D01*
X119796437Y-89596851D01*
X119799573Y-89600427D01*
X119802662Y-89603136D01*
X120019062Y-89792915D01*
X120019068Y-89792919D01*
X120022162Y-89795633D01*
X120025588Y-89797922D01*
X120025593Y-89797926D01*
X120174973Y-89897738D01*
X120268327Y-89960115D01*
X120272026Y-89961939D01*
X120272031Y-89961942D01*
X120391477Y-90020846D01*
X120533855Y-90091059D01*
X120537760Y-90092384D01*
X120537761Y-90092385D01*
X120810290Y-90184896D01*
X120810294Y-90184897D01*
X120814203Y-90186224D01*
X120818247Y-90187028D01*
X120818253Y-90187030D01*
X121100535Y-90243180D01*
X121100541Y-90243181D01*
X121104574Y-90243983D01*
X121108679Y-90244252D01*
X121108686Y-90244253D01*
X121379340Y-90261992D01*
X121390053Y-90262694D01*
X121395881Y-90263076D01*
X121400000Y-90263346D01*
X121404119Y-90263076D01*
X121409948Y-90262694D01*
X121420660Y-90261992D01*
X121691314Y-90244253D01*
X121691321Y-90244252D01*
X121695426Y-90243983D01*
X121699459Y-90243181D01*
X121699465Y-90243180D01*
X121981747Y-90187030D01*
X121981753Y-90187028D01*
X121985797Y-90186224D01*
X121989706Y-90184897D01*
X121989710Y-90184896D01*
X122262239Y-90092385D01*
X122262240Y-90092384D01*
X122266145Y-90091059D01*
X122408523Y-90020846D01*
X122527969Y-89961942D01*
X122527974Y-89961939D01*
X122531673Y-89960115D01*
X122625027Y-89897738D01*
X122774407Y-89797926D01*
X122774412Y-89797922D01*
X122777838Y-89795633D01*
X122780932Y-89792919D01*
X122780938Y-89792915D01*
X122997338Y-89603136D01*
X123000427Y-89600427D01*
X123003563Y-89596851D01*
X123192915Y-89380938D01*
X123192919Y-89380932D01*
X123195633Y-89377838D01*
X123221352Y-89339348D01*
X123357821Y-89135106D01*
X123360115Y-89131673D01*
X123385564Y-89080069D01*
X123443446Y-88962694D01*
X123491059Y-88866145D01*
X123498576Y-88843999D01*
X123539411Y-88785924D01*
X123605163Y-88759144D01*
X123617889Y-88758500D01*
X126758563Y-88758500D01*
X126826684Y-88778502D01*
X126847581Y-88795327D01*
X126893157Y-88840823D01*
X126926697Y-88874305D01*
X126932927Y-88878145D01*
X126932928Y-88878146D01*
X127070090Y-88962694D01*
X127077262Y-88967115D01*
X127157005Y-88993564D01*
X127238611Y-89020632D01*
X127238613Y-89020632D01*
X127245139Y-89022797D01*
X127251975Y-89023497D01*
X127251978Y-89023498D01*
X127295031Y-89027909D01*
X127349600Y-89033500D01*
X127950400Y-89033500D01*
X127953646Y-89033163D01*
X127953650Y-89033163D01*
X128049308Y-89023238D01*
X128049312Y-89023237D01*
X128056166Y-89022526D01*
X128062702Y-89020345D01*
X128062704Y-89020345D01*
X128194806Y-88976272D01*
X128223946Y-88966550D01*
X128374348Y-88873478D01*
X128499305Y-88748303D01*
X128501906Y-88744084D01*
X128559030Y-88703583D01*
X128629953Y-88700351D01*
X128691365Y-88735976D01*
X128697922Y-88743530D01*
X128701522Y-88749348D01*
X128826697Y-88874305D01*
X128832927Y-88878145D01*
X128832928Y-88878146D01*
X128970090Y-88962694D01*
X128977262Y-88967115D01*
X129057005Y-88993564D01*
X129138611Y-89020632D01*
X129138613Y-89020632D01*
X129145139Y-89022797D01*
X129151975Y-89023497D01*
X129151978Y-89023498D01*
X129195031Y-89027909D01*
X129249600Y-89033500D01*
X129850400Y-89033500D01*
X129853646Y-89033163D01*
X129853650Y-89033163D01*
X129949308Y-89023238D01*
X129949312Y-89023237D01*
X129956166Y-89022526D01*
X129962702Y-89020345D01*
X129962704Y-89020345D01*
X130094806Y-88976272D01*
X130123946Y-88966550D01*
X130274348Y-88873478D01*
X130399305Y-88748303D01*
X130404464Y-88739934D01*
X130488275Y-88603968D01*
X130488276Y-88603966D01*
X130492115Y-88597738D01*
X130532169Y-88476978D01*
X130545632Y-88436389D01*
X130545632Y-88436387D01*
X130547797Y-88429861D01*
X130558500Y-88325400D01*
X130558500Y-87274600D01*
X130558163Y-87271350D01*
X130548238Y-87175692D01*
X130548237Y-87175688D01*
X130547526Y-87168834D01*
X130545196Y-87161848D01*
X130493868Y-87008002D01*
X130491550Y-87001054D01*
X130398478Y-86850652D01*
X130273303Y-86725695D01*
X130267075Y-86721856D01*
X130267070Y-86721852D01*
X130218383Y-86691841D01*
X130170890Y-86639069D01*
X130158500Y-86584582D01*
X130158500Y-82648854D01*
X130178502Y-82580733D01*
X130232158Y-82534240D01*
X130308001Y-82525065D01*
X130392442Y-82541097D01*
X130445785Y-82551224D01*
X130445788Y-82551224D01*
X130450374Y-82552095D01*
X130573044Y-82556915D01*
X130706875Y-82562174D01*
X130706881Y-82562174D01*
X130711543Y-82562357D01*
X130795364Y-82553177D01*
X130966707Y-82534412D01*
X130966712Y-82534411D01*
X130971360Y-82533902D01*
X130975884Y-82532711D01*
X131219594Y-82468548D01*
X131219596Y-82468547D01*
X131224117Y-82467357D01*
X131238311Y-82461259D01*
X131408333Y-82388211D01*
X131464262Y-82364182D01*
X131576094Y-82294979D01*
X131682547Y-82229104D01*
X131682548Y-82229104D01*
X131686519Y-82226646D01*
X131690082Y-82223629D01*
X131690087Y-82223626D01*
X131882439Y-82060787D01*
X131882440Y-82060786D01*
X131886005Y-82057768D01*
X131966158Y-81966371D01*
X132055257Y-81864774D01*
X132055261Y-81864769D01*
X132058339Y-81861259D01*
X132086961Y-81816762D01*
X132142201Y-81730881D01*
X132195875Y-81684409D01*
X132266153Y-81674333D01*
X132330722Y-81703851D01*
X132337267Y-81709948D01*
X132504595Y-81877276D01*
X132538621Y-81939588D01*
X132541500Y-81966371D01*
X132541500Y-83732556D01*
X132521498Y-83800677D01*
X132468252Y-83846981D01*
X132449324Y-83855707D01*
X132449315Y-83855712D01*
X132445072Y-83857668D01*
X132406070Y-83883239D01*
X132230404Y-83998410D01*
X132230399Y-83998414D01*
X132226491Y-84000976D01*
X132031494Y-84175018D01*
X131864363Y-84375970D01*
X131728771Y-84599419D01*
X131627697Y-84840455D01*
X131563359Y-85093783D01*
X131562891Y-85098434D01*
X131562890Y-85098438D01*
X131554504Y-85181724D01*
X131537173Y-85353839D01*
X131537397Y-85358505D01*
X131537397Y-85358511D01*
X131538026Y-85371598D01*
X131549713Y-85614908D01*
X131600704Y-85871256D01*
X131689026Y-86117252D01*
X131720745Y-86176285D01*
X131801883Y-86327290D01*
X131812737Y-86347491D01*
X131815532Y-86351234D01*
X131815534Y-86351237D01*
X131966330Y-86553177D01*
X131966335Y-86553183D01*
X131969122Y-86556915D01*
X131972431Y-86560195D01*
X131972436Y-86560201D01*
X132140216Y-86726522D01*
X132154743Y-86740923D01*
X132158505Y-86743681D01*
X132158508Y-86743684D01*
X132340705Y-86877276D01*
X132365524Y-86895474D01*
X132369667Y-86897654D01*
X132369669Y-86897655D01*
X132592684Y-87014989D01*
X132592689Y-87014991D01*
X132596834Y-87017172D01*
X132843590Y-87103344D01*
X132848183Y-87104216D01*
X133095785Y-87151224D01*
X133095788Y-87151224D01*
X133100374Y-87152095D01*
X133230959Y-87157226D01*
X133356875Y-87162174D01*
X133356881Y-87162174D01*
X133361543Y-87162357D01*
X133440977Y-87153657D01*
X133616707Y-87134412D01*
X133616712Y-87134411D01*
X133621360Y-87133902D01*
X133734116Y-87104216D01*
X133869594Y-87068548D01*
X133869596Y-87068547D01*
X133874117Y-87067357D01*
X134114262Y-86964182D01*
X134336519Y-86826646D01*
X134340082Y-86823629D01*
X134340087Y-86823626D01*
X134532439Y-86660787D01*
X134532440Y-86660786D01*
X134536005Y-86657768D01*
X134578317Y-86609521D01*
X134705257Y-86464774D01*
X134705261Y-86464769D01*
X134708339Y-86461259D01*
X134728181Y-86430412D01*
X134847205Y-86245367D01*
X134849733Y-86241437D01*
X134957083Y-86003129D01*
X134971138Y-85953295D01*
X135026760Y-85756076D01*
X135026761Y-85756073D01*
X135028030Y-85751572D01*
X135034500Y-85700716D01*
X135060616Y-85495421D01*
X135060616Y-85495417D01*
X135061014Y-85492291D01*
X135061353Y-85479368D01*
X135063348Y-85403160D01*
X135063431Y-85400000D01*
X135057051Y-85314144D01*
X135044407Y-85144000D01*
X135044406Y-85143996D01*
X135044061Y-85139348D01*
X135032725Y-85089248D01*
X134987408Y-84888980D01*
X134986377Y-84884423D01*
X134891647Y-84640823D01*
X134761951Y-84413902D01*
X134600138Y-84208643D01*
X134409763Y-84029557D01*
X134195009Y-83880576D01*
X134190825Y-83878512D01*
X134190817Y-83878508D01*
X134128772Y-83847911D01*
X134076523Y-83799843D01*
X134058500Y-83734905D01*
X134058500Y-81667070D01*
X134059933Y-81648120D01*
X134062099Y-81633885D01*
X134062099Y-81633881D01*
X134063199Y-81626651D01*
X134058915Y-81573982D01*
X134058500Y-81563767D01*
X134058500Y-81555707D01*
X134055209Y-81527480D01*
X134054778Y-81523121D01*
X134052270Y-81492291D01*
X134048860Y-81450364D01*
X134046605Y-81443403D01*
X134045418Y-81437463D01*
X134044029Y-81431588D01*
X134043182Y-81424319D01*
X134018264Y-81355670D01*
X134016847Y-81351542D01*
X133996607Y-81289064D01*
X133996606Y-81289062D01*
X133994351Y-81282101D01*
X133990555Y-81275846D01*
X133988049Y-81270372D01*
X133985330Y-81264942D01*
X133982833Y-81258063D01*
X133942814Y-81197024D01*
X133940467Y-81193305D01*
X133910548Y-81144000D01*
X133902595Y-81130893D01*
X133895197Y-81122516D01*
X133895224Y-81122492D01*
X133892571Y-81119500D01*
X133889868Y-81116267D01*
X133885856Y-81110148D01*
X133829617Y-81056872D01*
X133827175Y-81054494D01*
X133083770Y-80311089D01*
X133071384Y-80296677D01*
X133062851Y-80285082D01*
X133062846Y-80285077D01*
X133058508Y-80279182D01*
X133052930Y-80274443D01*
X133052927Y-80274440D01*
X133018232Y-80244965D01*
X133010716Y-80238035D01*
X133005021Y-80232340D01*
X132998880Y-80227482D01*
X132982749Y-80214719D01*
X132979345Y-80211928D01*
X132929297Y-80169409D01*
X132929295Y-80169408D01*
X132923715Y-80164667D01*
X132917199Y-80161339D01*
X132912150Y-80157972D01*
X132907021Y-80154805D01*
X132901284Y-80150266D01*
X132835125Y-80119345D01*
X132831225Y-80117439D01*
X132766192Y-80084231D01*
X132759084Y-80082492D01*
X132753441Y-80080393D01*
X132747678Y-80078476D01*
X132741050Y-80075378D01*
X132669583Y-80060513D01*
X132665299Y-80059543D01*
X132594390Y-80042192D01*
X132588788Y-80041844D01*
X132588785Y-80041844D01*
X132583236Y-80041500D01*
X132583238Y-80041464D01*
X132579245Y-80041225D01*
X132575053Y-80040851D01*
X132567885Y-80039360D01*
X132513805Y-80040823D01*
X132490479Y-80041454D01*
X132487072Y-80041500D01*
X132315147Y-80041500D01*
X132247026Y-80021498D01*
X132205754Y-79978023D01*
X132114270Y-79817960D01*
X132111951Y-79813902D01*
X131950138Y-79608643D01*
X131759763Y-79429557D01*
X131607437Y-79323884D01*
X131548851Y-79283241D01*
X131548848Y-79283239D01*
X131545009Y-79280576D01*
X131540816Y-79278508D01*
X131314781Y-79167040D01*
X131314778Y-79167039D01*
X131310593Y-79164975D01*
X131264449Y-79150204D01*
X131066123Y-79086720D01*
X131061665Y-79085293D01*
X130803693Y-79043279D01*
X130689942Y-79041790D01*
X130547022Y-79039919D01*
X130547019Y-79039919D01*
X130542345Y-79039858D01*
X130283362Y-79075104D01*
X130032433Y-79148243D01*
X130028180Y-79150203D01*
X130028179Y-79150204D01*
X129991659Y-79167040D01*
X129795072Y-79257668D01*
X129759648Y-79280893D01*
X129580404Y-79398410D01*
X129580399Y-79398414D01*
X129576491Y-79400976D01*
X129381494Y-79575018D01*
X129214363Y-79775970D01*
X129211934Y-79779973D01*
X129150887Y-79880576D01*
X129078771Y-79999419D01*
X128977697Y-80240455D01*
X128913359Y-80493783D01*
X128887173Y-80753839D01*
X128887397Y-80758505D01*
X128887397Y-80758511D01*
X128890325Y-80819456D01*
X128899713Y-81014908D01*
X128920406Y-81118938D01*
X128938128Y-81208033D01*
X128931800Y-81278747D01*
X128889231Y-81334096D01*
X128885081Y-81337150D01*
X128885077Y-81337154D01*
X128879182Y-81341492D01*
X128874443Y-81347070D01*
X128874440Y-81347073D01*
X128844965Y-81381768D01*
X128838035Y-81389284D01*
X128832340Y-81394979D01*
X128830060Y-81397861D01*
X128814719Y-81417251D01*
X128811928Y-81420655D01*
X128780490Y-81457660D01*
X128764667Y-81476285D01*
X128761339Y-81482801D01*
X128757972Y-81487850D01*
X128754805Y-81492979D01*
X128750266Y-81498716D01*
X128719345Y-81564875D01*
X128717442Y-81568769D01*
X128684231Y-81633808D01*
X128682492Y-81640916D01*
X128680393Y-81646559D01*
X128678476Y-81652322D01*
X128675378Y-81658950D01*
X128673888Y-81666112D01*
X128673888Y-81666113D01*
X128660514Y-81730412D01*
X128659544Y-81734696D01*
X128642192Y-81805610D01*
X128641500Y-81816764D01*
X128641464Y-81816762D01*
X128641225Y-81820755D01*
X128640851Y-81824947D01*
X128639360Y-81832115D01*
X128639558Y-81839432D01*
X128641454Y-81909521D01*
X128641500Y-81912928D01*
X128641500Y-86689608D01*
X128621498Y-86757729D01*
X128567842Y-86804222D01*
X128497568Y-86814326D01*
X128432988Y-86784832D01*
X128426483Y-86778781D01*
X128378488Y-86730870D01*
X128378483Y-86730866D01*
X128373303Y-86725695D01*
X128318382Y-86691841D01*
X128228968Y-86636725D01*
X128228966Y-86636724D01*
X128222738Y-86632885D01*
X128142995Y-86606436D01*
X128061389Y-86579368D01*
X128061387Y-86579368D01*
X128054861Y-86577203D01*
X128048025Y-86576503D01*
X128048022Y-86576502D01*
X128004969Y-86572091D01*
X127950400Y-86566500D01*
X127349600Y-86566500D01*
X127346354Y-86566837D01*
X127346350Y-86566837D01*
X127250692Y-86576762D01*
X127250688Y-86576763D01*
X127243834Y-86577474D01*
X127237298Y-86579655D01*
X127237296Y-86579655D01*
X127142682Y-86611221D01*
X127076054Y-86633450D01*
X126925652Y-86726522D01*
X126800695Y-86851697D01*
X126796855Y-86857927D01*
X126796854Y-86857928D01*
X126730009Y-86966371D01*
X126707885Y-87002262D01*
X126686294Y-87067357D01*
X126657169Y-87155167D01*
X126616739Y-87213527D01*
X126551174Y-87240764D01*
X126537576Y-87241500D01*
X123617889Y-87241500D01*
X123549768Y-87221498D01*
X123503275Y-87167842D01*
X123498580Y-87156012D01*
X123491059Y-87133855D01*
X123408294Y-86966025D01*
X123361942Y-86872031D01*
X123361939Y-86872026D01*
X123360115Y-86868327D01*
X123317281Y-86804222D01*
X123197926Y-86625593D01*
X123197922Y-86625588D01*
X123195633Y-86622162D01*
X123192919Y-86619068D01*
X123192915Y-86619062D01*
X123003136Y-86402662D01*
X123000427Y-86399573D01*
X122953287Y-86358232D01*
X122780938Y-86207085D01*
X122780932Y-86207081D01*
X122777838Y-86204367D01*
X122774412Y-86202078D01*
X122774407Y-86202074D01*
X122568762Y-86064667D01*
X122531673Y-86039885D01*
X122527974Y-86038061D01*
X122527969Y-86038058D01*
X122333571Y-85942192D01*
X122266145Y-85908941D01*
X122262239Y-85907615D01*
X121989710Y-85815104D01*
X121989706Y-85815103D01*
X121985797Y-85813776D01*
X121981753Y-85812972D01*
X121981747Y-85812970D01*
X121699465Y-85756820D01*
X121699459Y-85756819D01*
X121695426Y-85756017D01*
X121691321Y-85755748D01*
X121691314Y-85755747D01*
X121404119Y-85736924D01*
X121400000Y-85736654D01*
X121395881Y-85736924D01*
X121108686Y-85755747D01*
X121108679Y-85755748D01*
X121104574Y-85756017D01*
X121100541Y-85756819D01*
X121100535Y-85756820D01*
X120818253Y-85812970D01*
X120818247Y-85812972D01*
X120814203Y-85813776D01*
X120810294Y-85815103D01*
X120810290Y-85815104D01*
X120537761Y-85907615D01*
X120533855Y-85908941D01*
X120466429Y-85942192D01*
X120272031Y-86038058D01*
X120272026Y-86038061D01*
X120268327Y-86039885D01*
X120231238Y-86064667D01*
X120025593Y-86202074D01*
X120025588Y-86202078D01*
X120022162Y-86204367D01*
X120019068Y-86207081D01*
X120019062Y-86207085D01*
X119846713Y-86358232D01*
X119799573Y-86399573D01*
X119796864Y-86402662D01*
X119607085Y-86619062D01*
X119607081Y-86619068D01*
X119604367Y-86622162D01*
X119602078Y-86625588D01*
X119602074Y-86625593D01*
X119482719Y-86804222D01*
X119439885Y-86868327D01*
X119438061Y-86872026D01*
X119438058Y-86872031D01*
X119391706Y-86966025D01*
X119308941Y-87133855D01*
X119307617Y-87137755D01*
X119307615Y-87137761D01*
X119234610Y-87352829D01*
X119213776Y-87414203D01*
X119212972Y-87418247D01*
X119212970Y-87418253D01*
X119166180Y-87653483D01*
X119156017Y-87704574D01*
X119155748Y-87708679D01*
X119155747Y-87708686D01*
X119144542Y-87879655D01*
X119136654Y-88000000D01*
X116208500Y-88000000D01*
X116208500Y-68534500D01*
X116228502Y-68466379D01*
X116282158Y-68419886D01*
X116334500Y-68408500D01*
X185565500Y-68408500D01*
X185633621Y-68428502D01*
G37*
G04 #@! TD.AperFunction*
G04 #@! TD*
M02*
