%FSLAX45Y45*%
G04 Gerber Fmt 4.5, Leading zero omitted, Abs format (unit mm)*
G04 Created by KiCad (PCBNEW (6.0.4)) date 2022-04-05 14:23:42*
%MOMM*%
%LPD*%
G01*
G04 APERTURE LIST*
%TA.AperFunction,Profile*%
%ADD10C,0.100000*%
%TD*%
%ADD11C,0.200000*%
G04 APERTURE END LIST*
D10*
X11570000Y-6790000D02*
X18620000Y-6790000D01*
X18620000Y-6790000D02*
X18620000Y-10790000D01*
X18620000Y-10790000D02*
X11570000Y-10790000D01*
X11570000Y-10790000D02*
X11570000Y-6790000D01*
D11*
X11822619Y-11105476D02*
X11822619Y-10905476D01*
X11870238Y-10905476D01*
X11898809Y-10915000D01*
X11917857Y-10934048D01*
X11927381Y-10953095D01*
X11936905Y-10991190D01*
X11936905Y-11019762D01*
X11927381Y-11057857D01*
X11917857Y-11076905D01*
X11898809Y-11095952D01*
X11870238Y-11105476D01*
X11822619Y-11105476D01*
X12022619Y-11105476D02*
X12022619Y-10972143D01*
X12022619Y-11010238D02*
X12032143Y-10991190D01*
X12041667Y-10981667D01*
X12060714Y-10972143D01*
X12079762Y-10972143D01*
X12146428Y-11105476D02*
X12146428Y-10972143D01*
X12146428Y-10905476D02*
X12136905Y-10915000D01*
X12146428Y-10924524D01*
X12155952Y-10915000D01*
X12146428Y-10905476D01*
X12146428Y-10924524D01*
X12270238Y-11105476D02*
X12251190Y-11095952D01*
X12241667Y-11076905D01*
X12241667Y-10905476D01*
X12375000Y-11105476D02*
X12355952Y-11095952D01*
X12346428Y-11076905D01*
X12346428Y-10905476D01*
X12603571Y-11105476D02*
X12603571Y-10905476D01*
X12670238Y-11048333D01*
X12736905Y-10905476D01*
X12736905Y-11105476D01*
X12917857Y-11105476D02*
X12917857Y-11000714D01*
X12908333Y-10981667D01*
X12889286Y-10972143D01*
X12851190Y-10972143D01*
X12832143Y-10981667D01*
X12917857Y-11095952D02*
X12898809Y-11105476D01*
X12851190Y-11105476D01*
X12832143Y-11095952D01*
X12822619Y-11076905D01*
X12822619Y-11057857D01*
X12832143Y-11038810D01*
X12851190Y-11029286D01*
X12898809Y-11029286D01*
X12917857Y-11019762D01*
X13013095Y-10972143D02*
X13013095Y-11172143D01*
X13013095Y-10981667D02*
X13032143Y-10972143D01*
X13070238Y-10972143D01*
X13089286Y-10981667D01*
X13098809Y-10991190D01*
X13108333Y-11010238D01*
X13108333Y-11067381D01*
X13098809Y-11086429D01*
X13089286Y-11095952D01*
X13070238Y-11105476D01*
X13032143Y-11105476D01*
X13013095Y-11095952D01*
X13194048Y-11086429D02*
X13203571Y-11095952D01*
X13194048Y-11105476D01*
X13184524Y-11095952D01*
X13194048Y-11086429D01*
X13194048Y-11105476D01*
X13194048Y-10981667D02*
X13203571Y-10991190D01*
X13194048Y-11000714D01*
X13184524Y-10991190D01*
X13194048Y-10981667D01*
X13194048Y-11000714D01*
M02*
