G04 #@! TF.GenerationSoftware,KiCad,Pcbnew,(6.0.4)*
G04 #@! TF.CreationDate,2022-04-05T14:23:40+02:00*
G04 #@! TF.ProjectId,Wzmacniacz antenowy FM,577a6d61-636e-4696-9163-7a20616e7465,rev?*
G04 #@! TF.SameCoordinates,Original*
G04 #@! TF.FileFunction,Soldermask,Top*
G04 #@! TF.FilePolarity,Negative*
%FSLAX46Y46*%
G04 Gerber Fmt 4.6, Leading zero omitted, Abs format (unit mm)*
G04 Created by KiCad (PCBNEW (6.0.4)) date 2022-04-05 14:23:40*
%MOMM*%
%LPD*%
G01*
G04 APERTURE LIST*
G04 Aperture macros list*
%AMRoundRect*
0 Rectangle with rounded corners*
0 $1 Rounding radius*
0 $2 $3 $4 $5 $6 $7 $8 $9 X,Y pos of 4 corners*
0 Add a 4 corners polygon primitive as box body*
4,1,4,$2,$3,$4,$5,$6,$7,$8,$9,$2,$3,0*
0 Add four circle primitives for the rounded corners*
1,1,$1+$1,$2,$3*
1,1,$1+$1,$4,$5*
1,1,$1+$1,$6,$7*
1,1,$1+$1,$8,$9*
0 Add four rect primitives between the rounded corners*
20,1,$1+$1,$2,$3,$4,$5,0*
20,1,$1+$1,$4,$5,$6,$7,0*
20,1,$1+$1,$6,$7,$8,$9,0*
20,1,$1+$1,$8,$9,$2,$3,0*%
G04 Aperture macros list end*
%ADD10C,2.000000*%
%ADD11C,3.500000*%
%ADD12C,2.900000*%
%ADD13RoundRect,0.250000X0.250000X0.475000X-0.250000X0.475000X-0.250000X-0.475000X0.250000X-0.475000X0*%
%ADD14RoundRect,0.250000X0.450000X-0.262500X0.450000X0.262500X-0.450000X0.262500X-0.450000X-0.262500X0*%
%ADD15C,2.500000*%
%ADD16R,10.000000X1.500000*%
%ADD17R,1.500000X7.000000*%
%ADD18R,7.000000X1.500000*%
%ADD19RoundRect,0.250000X-0.250000X-0.475000X0.250000X-0.475000X0.250000X0.475000X-0.250000X0.475000X0*%
%ADD20RoundRect,0.250000X-0.550000X1.500000X-0.550000X-1.500000X0.550000X-1.500000X0.550000X1.500000X0*%
%ADD21RoundRect,0.312500X-0.687500X0.437500X-0.687500X-0.437500X0.687500X-0.437500X0.687500X0.437500X0*%
%ADD22O,2.000000X1.500000*%
%ADD23RoundRect,0.250000X-0.475000X0.250000X-0.475000X-0.250000X0.475000X-0.250000X0.475000X0.250000X0*%
%ADD24RoundRect,0.250000X0.475000X-0.250000X0.475000X0.250000X-0.475000X0.250000X-0.475000X-0.250000X0*%
%ADD25R,1.700000X1.300000*%
%ADD26R,2.000000X1.300000*%
%ADD27R,2.000000X2.000000*%
G04 APERTURE END LIST*
D10*
G04 #@! TO.C,*
X143700000Y-102300000D03*
G04 #@! TD*
G04 #@! TO.C,*
X143700000Y-96200000D03*
G04 #@! TD*
G04 #@! TO.C,REF\u002A\u002A*
X150200000Y-99400000D03*
G04 #@! TD*
D11*
G04 #@! TO.C,J1*
X121400000Y-88000000D03*
D12*
X118860000Y-85460000D03*
X123940000Y-85460000D03*
X118860000Y-90540000D03*
X123940000Y-90540000D03*
G04 #@! TD*
D11*
G04 #@! TO.C,J3*
X180350000Y-88000000D03*
D12*
X177810000Y-90540000D03*
X177810000Y-85460000D03*
X182890000Y-85460000D03*
X182890000Y-90540000D03*
G04 #@! TD*
D13*
G04 #@! TO.C,C5*
X160650000Y-77200000D03*
X158750000Y-77200000D03*
G04 #@! TD*
D14*
G04 #@! TO.C,R1*
X155000000Y-97812500D03*
X155000000Y-95987500D03*
G04 #@! TD*
D15*
G04 #@! TO.C,L1*
X136150000Y-75400000D03*
X130650000Y-80800000D03*
G04 #@! TD*
D16*
G04 #@! TO.C,Q1*
X160160000Y-82900000D03*
D17*
X151960000Y-76100000D03*
D18*
X145160000Y-82900000D03*
D17*
X151960000Y-89700000D03*
G04 #@! TD*
D19*
G04 #@! TO.C,C8*
X170450000Y-86700000D03*
X172350000Y-86700000D03*
G04 #@! TD*
D20*
G04 #@! TO.C,C6*
X159900000Y-97700000D03*
X159900000Y-103300000D03*
G04 #@! TD*
D15*
G04 #@! TO.C,L2*
X133300000Y-85400000D03*
X139300000Y-91700000D03*
G04 #@! TD*
D21*
G04 #@! TO.C,J2*
X176900000Y-100300000D03*
D22*
X176900000Y-102300000D03*
G04 #@! TD*
D19*
G04 #@! TO.C,C2*
X145150000Y-77500000D03*
X147050000Y-77500000D03*
G04 #@! TD*
D23*
G04 #@! TO.C,C4*
X165200000Y-99950000D03*
X165200000Y-101850000D03*
G04 #@! TD*
D24*
G04 #@! TO.C,C3*
X158900000Y-93750000D03*
X158900000Y-91850000D03*
G04 #@! TD*
D15*
G04 #@! TO.C,L4*
X166900000Y-89600000D03*
X170900000Y-100600000D03*
G04 #@! TD*
D13*
G04 #@! TO.C,C7*
X163250000Y-89100000D03*
X161350000Y-89100000D03*
G04 #@! TD*
D25*
G04 #@! TO.C,D1*
X153200000Y-100350000D03*
X153200000Y-103850000D03*
G04 #@! TD*
D19*
G04 #@! TO.C,C1*
X127650000Y-87800000D03*
X129550000Y-87800000D03*
G04 #@! TD*
D26*
G04 #@! TO.C,RV1*
X143700000Y-98250000D03*
D27*
X147700000Y-99400000D03*
D26*
X143700000Y-100550000D03*
G04 #@! TD*
D15*
G04 #@! TO.C,L3*
X166900000Y-73300000D03*
X172900000Y-81400000D03*
G04 #@! TD*
M02*
