G04 #@! TF.GenerationSoftware,KiCad,Pcbnew,(6.0.4)*
G04 #@! TF.CreationDate,2022-04-05T14:23:39+02:00*
G04 #@! TF.ProjectId,Wzmacniacz antenowy FM,577a6d61-636e-4696-9163-7a20616e7465,rev?*
G04 #@! TF.SameCoordinates,Original*
G04 #@! TF.FileFunction,Legend,Top*
G04 #@! TF.FilePolarity,Positive*
%FSLAX46Y46*%
G04 Gerber Fmt 4.6, Leading zero omitted, Abs format (unit mm)*
G04 Created by KiCad (PCBNEW (6.0.4)) date 2022-04-05 14:23:39*
%MOMM*%
%LPD*%
G01*
G04 APERTURE LIST*
%ADD10C,0.150000*%
%ADD11C,0.120000*%
G04 APERTURE END LIST*
D10*
G04 #@! TO.C,*
G04 #@! TO.C,J1*
X121066666Y-92752380D02*
X121066666Y-93466666D01*
X121019047Y-93609523D01*
X120923809Y-93704761D01*
X120780952Y-93752380D01*
X120685714Y-93752380D01*
X122066666Y-93752380D02*
X121495238Y-93752380D01*
X121780952Y-93752380D02*
X121780952Y-92752380D01*
X121685714Y-92895238D01*
X121590476Y-92990476D01*
X121495238Y-93038095D01*
G04 #@! TO.C,J3*
X180016666Y-82152380D02*
X180016666Y-82866666D01*
X179969047Y-83009523D01*
X179873809Y-83104761D01*
X179730952Y-83152380D01*
X179635714Y-83152380D01*
X180397619Y-82152380D02*
X181016666Y-82152380D01*
X180683333Y-82533333D01*
X180826190Y-82533333D01*
X180921428Y-82580952D01*
X180969047Y-82628571D01*
X181016666Y-82723809D01*
X181016666Y-82961904D01*
X180969047Y-83057142D01*
X180921428Y-83104761D01*
X180826190Y-83152380D01*
X180540476Y-83152380D01*
X180445238Y-83104761D01*
X180397619Y-83057142D01*
G04 #@! TO.C,C5*
X159533333Y-79557142D02*
X159485714Y-79604761D01*
X159342857Y-79652380D01*
X159247619Y-79652380D01*
X159104761Y-79604761D01*
X159009523Y-79509523D01*
X158961904Y-79414285D01*
X158914285Y-79223809D01*
X158914285Y-79080952D01*
X158961904Y-78890476D01*
X159009523Y-78795238D01*
X159104761Y-78700000D01*
X159247619Y-78652380D01*
X159342857Y-78652380D01*
X159485714Y-78700000D01*
X159533333Y-78747619D01*
X160438095Y-78652380D02*
X159961904Y-78652380D01*
X159914285Y-79128571D01*
X159961904Y-79080952D01*
X160057142Y-79033333D01*
X160295238Y-79033333D01*
X160390476Y-79080952D01*
X160438095Y-79128571D01*
X160485714Y-79223809D01*
X160485714Y-79461904D01*
X160438095Y-79557142D01*
X160390476Y-79604761D01*
X160295238Y-79652380D01*
X160057142Y-79652380D01*
X159961904Y-79604761D01*
X159914285Y-79557142D01*
G04 #@! TO.C,R1*
X157352380Y-95766666D02*
X156876190Y-96100000D01*
X157352380Y-96338095D02*
X156352380Y-96338095D01*
X156352380Y-95957142D01*
X156400000Y-95861904D01*
X156447619Y-95814285D01*
X156542857Y-95766666D01*
X156685714Y-95766666D01*
X156780952Y-95814285D01*
X156828571Y-95861904D01*
X156876190Y-95957142D01*
X156876190Y-96338095D01*
X157352380Y-94814285D02*
X157352380Y-95385714D01*
X157352380Y-95100000D02*
X156352380Y-95100000D01*
X156495238Y-95195238D01*
X156590476Y-95290476D01*
X156638095Y-95385714D01*
G04 #@! TO.C,L1*
X133333333Y-78252380D02*
X132857142Y-78252380D01*
X132857142Y-77252380D01*
X134190476Y-78252380D02*
X133619047Y-78252380D01*
X133904761Y-78252380D02*
X133904761Y-77252380D01*
X133809523Y-77395238D01*
X133714285Y-77490476D01*
X133619047Y-77538095D01*
G04 #@! TO.C,Q1*
X151864761Y-83447619D02*
X151769523Y-83400000D01*
X151674285Y-83304761D01*
X151531428Y-83161904D01*
X151436190Y-83114285D01*
X151340952Y-83114285D01*
X151388571Y-83352380D02*
X151293333Y-83304761D01*
X151198095Y-83209523D01*
X151150476Y-83019047D01*
X151150476Y-82685714D01*
X151198095Y-82495238D01*
X151293333Y-82400000D01*
X151388571Y-82352380D01*
X151579047Y-82352380D01*
X151674285Y-82400000D01*
X151769523Y-82495238D01*
X151817142Y-82685714D01*
X151817142Y-83019047D01*
X151769523Y-83209523D01*
X151674285Y-83304761D01*
X151579047Y-83352380D01*
X151388571Y-83352380D01*
X152769523Y-83352380D02*
X152198095Y-83352380D01*
X152483809Y-83352380D02*
X152483809Y-82352380D01*
X152388571Y-82495238D01*
X152293333Y-82590476D01*
X152198095Y-82638095D01*
G04 #@! TO.C,C8*
X171233333Y-85257142D02*
X171185714Y-85304761D01*
X171042857Y-85352380D01*
X170947619Y-85352380D01*
X170804761Y-85304761D01*
X170709523Y-85209523D01*
X170661904Y-85114285D01*
X170614285Y-84923809D01*
X170614285Y-84780952D01*
X170661904Y-84590476D01*
X170709523Y-84495238D01*
X170804761Y-84400000D01*
X170947619Y-84352380D01*
X171042857Y-84352380D01*
X171185714Y-84400000D01*
X171233333Y-84447619D01*
X171804761Y-84780952D02*
X171709523Y-84733333D01*
X171661904Y-84685714D01*
X171614285Y-84590476D01*
X171614285Y-84542857D01*
X171661904Y-84447619D01*
X171709523Y-84400000D01*
X171804761Y-84352380D01*
X171995238Y-84352380D01*
X172090476Y-84400000D01*
X172138095Y-84447619D01*
X172185714Y-84542857D01*
X172185714Y-84590476D01*
X172138095Y-84685714D01*
X172090476Y-84733333D01*
X171995238Y-84780952D01*
X171804761Y-84780952D01*
X171709523Y-84828571D01*
X171661904Y-84876190D01*
X171614285Y-84971428D01*
X171614285Y-85161904D01*
X171661904Y-85257142D01*
X171709523Y-85304761D01*
X171804761Y-85352380D01*
X171995238Y-85352380D01*
X172090476Y-85304761D01*
X172138095Y-85257142D01*
X172185714Y-85161904D01*
X172185714Y-84971428D01*
X172138095Y-84876190D01*
X172090476Y-84828571D01*
X171995238Y-84780952D01*
G04 #@! TO.C,C6*
X162457142Y-100766666D02*
X162504761Y-100814285D01*
X162552380Y-100957142D01*
X162552380Y-101052380D01*
X162504761Y-101195238D01*
X162409523Y-101290476D01*
X162314285Y-101338095D01*
X162123809Y-101385714D01*
X161980952Y-101385714D01*
X161790476Y-101338095D01*
X161695238Y-101290476D01*
X161600000Y-101195238D01*
X161552380Y-101052380D01*
X161552380Y-100957142D01*
X161600000Y-100814285D01*
X161647619Y-100766666D01*
X161552380Y-99909523D02*
X161552380Y-100100000D01*
X161600000Y-100195238D01*
X161647619Y-100242857D01*
X161790476Y-100338095D01*
X161980952Y-100385714D01*
X162361904Y-100385714D01*
X162457142Y-100338095D01*
X162504761Y-100290476D01*
X162552380Y-100195238D01*
X162552380Y-100004761D01*
X162504761Y-99909523D01*
X162457142Y-99861904D01*
X162361904Y-99814285D01*
X162123809Y-99814285D01*
X162028571Y-99861904D01*
X161980952Y-99909523D01*
X161933333Y-100004761D01*
X161933333Y-100195238D01*
X161980952Y-100290476D01*
X162028571Y-100338095D01*
X162123809Y-100385714D01*
G04 #@! TO.C,L2*
X136333333Y-88952380D02*
X135857142Y-88952380D01*
X135857142Y-87952380D01*
X136619047Y-88047619D02*
X136666666Y-88000000D01*
X136761904Y-87952380D01*
X137000000Y-87952380D01*
X137095238Y-88000000D01*
X137142857Y-88047619D01*
X137190476Y-88142857D01*
X137190476Y-88238095D01*
X137142857Y-88380952D01*
X136571428Y-88952380D01*
X137190476Y-88952380D01*
G04 #@! TO.C,J2*
X179452380Y-101633333D02*
X180166666Y-101633333D01*
X180309523Y-101680952D01*
X180404761Y-101776190D01*
X180452380Y-101919047D01*
X180452380Y-102014285D01*
X179547619Y-101204761D02*
X179500000Y-101157142D01*
X179452380Y-101061904D01*
X179452380Y-100823809D01*
X179500000Y-100728571D01*
X179547619Y-100680952D01*
X179642857Y-100633333D01*
X179738095Y-100633333D01*
X179880952Y-100680952D01*
X180452380Y-101252380D01*
X180452380Y-100633333D01*
G04 #@! TO.C,C2*
X145833333Y-75957142D02*
X145785714Y-76004761D01*
X145642857Y-76052380D01*
X145547619Y-76052380D01*
X145404761Y-76004761D01*
X145309523Y-75909523D01*
X145261904Y-75814285D01*
X145214285Y-75623809D01*
X145214285Y-75480952D01*
X145261904Y-75290476D01*
X145309523Y-75195238D01*
X145404761Y-75100000D01*
X145547619Y-75052380D01*
X145642857Y-75052380D01*
X145785714Y-75100000D01*
X145833333Y-75147619D01*
X146214285Y-75147619D02*
X146261904Y-75100000D01*
X146357142Y-75052380D01*
X146595238Y-75052380D01*
X146690476Y-75100000D01*
X146738095Y-75147619D01*
X146785714Y-75242857D01*
X146785714Y-75338095D01*
X146738095Y-75480952D01*
X146166666Y-76052380D01*
X146785714Y-76052380D01*
G04 #@! TO.C,C4*
X167657142Y-102066666D02*
X167704761Y-102114285D01*
X167752380Y-102257142D01*
X167752380Y-102352380D01*
X167704761Y-102495238D01*
X167609523Y-102590476D01*
X167514285Y-102638095D01*
X167323809Y-102685714D01*
X167180952Y-102685714D01*
X166990476Y-102638095D01*
X166895238Y-102590476D01*
X166800000Y-102495238D01*
X166752380Y-102352380D01*
X166752380Y-102257142D01*
X166800000Y-102114285D01*
X166847619Y-102066666D01*
X167085714Y-101209523D02*
X167752380Y-101209523D01*
X166704761Y-101447619D02*
X167419047Y-101685714D01*
X167419047Y-101066666D01*
G04 #@! TO.C,C3*
X157357142Y-92466666D02*
X157404761Y-92514285D01*
X157452380Y-92657142D01*
X157452380Y-92752380D01*
X157404761Y-92895238D01*
X157309523Y-92990476D01*
X157214285Y-93038095D01*
X157023809Y-93085714D01*
X156880952Y-93085714D01*
X156690476Y-93038095D01*
X156595238Y-92990476D01*
X156500000Y-92895238D01*
X156452380Y-92752380D01*
X156452380Y-92657142D01*
X156500000Y-92514285D01*
X156547619Y-92466666D01*
X156452380Y-92133333D02*
X156452380Y-91514285D01*
X156833333Y-91847619D01*
X156833333Y-91704761D01*
X156880952Y-91609523D01*
X156928571Y-91561904D01*
X157023809Y-91514285D01*
X157261904Y-91514285D01*
X157357142Y-91561904D01*
X157404761Y-91609523D01*
X157452380Y-91704761D01*
X157452380Y-91990476D01*
X157404761Y-92085714D01*
X157357142Y-92133333D01*
G04 #@! TO.C,L4*
X168833333Y-95552380D02*
X168357142Y-95552380D01*
X168357142Y-94552380D01*
X169595238Y-94885714D02*
X169595238Y-95552380D01*
X169357142Y-94504761D02*
X169119047Y-95219047D01*
X169738095Y-95219047D01*
G04 #@! TO.C,C7*
X162133333Y-91257142D02*
X162085714Y-91304761D01*
X161942857Y-91352380D01*
X161847619Y-91352380D01*
X161704761Y-91304761D01*
X161609523Y-91209523D01*
X161561904Y-91114285D01*
X161514285Y-90923809D01*
X161514285Y-90780952D01*
X161561904Y-90590476D01*
X161609523Y-90495238D01*
X161704761Y-90400000D01*
X161847619Y-90352380D01*
X161942857Y-90352380D01*
X162085714Y-90400000D01*
X162133333Y-90447619D01*
X162466666Y-90352380D02*
X163133333Y-90352380D01*
X162704761Y-91352380D01*
G04 #@! TO.C,D1*
X155552380Y-102438095D02*
X154552380Y-102438095D01*
X154552380Y-102200000D01*
X154600000Y-102057142D01*
X154695238Y-101961904D01*
X154790476Y-101914285D01*
X154980952Y-101866666D01*
X155123809Y-101866666D01*
X155314285Y-101914285D01*
X155409523Y-101961904D01*
X155504761Y-102057142D01*
X155552380Y-102200000D01*
X155552380Y-102438095D01*
X155552380Y-100914285D02*
X155552380Y-101485714D01*
X155552380Y-101200000D02*
X154552380Y-101200000D01*
X154695238Y-101295238D01*
X154790476Y-101390476D01*
X154838095Y-101485714D01*
G04 #@! TO.C,C1*
X128533333Y-90357142D02*
X128485714Y-90404761D01*
X128342857Y-90452380D01*
X128247619Y-90452380D01*
X128104761Y-90404761D01*
X128009523Y-90309523D01*
X127961904Y-90214285D01*
X127914285Y-90023809D01*
X127914285Y-89880952D01*
X127961904Y-89690476D01*
X128009523Y-89595238D01*
X128104761Y-89500000D01*
X128247619Y-89452380D01*
X128342857Y-89452380D01*
X128485714Y-89500000D01*
X128533333Y-89547619D01*
X129485714Y-90452380D02*
X128914285Y-90452380D01*
X129200000Y-90452380D02*
X129200000Y-89452380D01*
X129104761Y-89595238D01*
X129009523Y-89690476D01*
X128914285Y-89738095D01*
G04 #@! TO.C,RV1*
X141752380Y-99995238D02*
X141276190Y-100328571D01*
X141752380Y-100566666D02*
X140752380Y-100566666D01*
X140752380Y-100185714D01*
X140800000Y-100090476D01*
X140847619Y-100042857D01*
X140942857Y-99995238D01*
X141085714Y-99995238D01*
X141180952Y-100042857D01*
X141228571Y-100090476D01*
X141276190Y-100185714D01*
X141276190Y-100566666D01*
X140752380Y-99709523D02*
X141752380Y-99376190D01*
X140752380Y-99042857D01*
X141752380Y-98185714D02*
X141752380Y-98757142D01*
X141752380Y-98471428D02*
X140752380Y-98471428D01*
X140895238Y-98566666D01*
X140990476Y-98661904D01*
X141038095Y-98757142D01*
G04 #@! TO.C,L3*
X169733333Y-77852380D02*
X169257142Y-77852380D01*
X169257142Y-76852380D01*
X169971428Y-76852380D02*
X170590476Y-76852380D01*
X170257142Y-77233333D01*
X170400000Y-77233333D01*
X170495238Y-77280952D01*
X170542857Y-77328571D01*
X170590476Y-77423809D01*
X170590476Y-77661904D01*
X170542857Y-77757142D01*
X170495238Y-77804761D01*
X170400000Y-77852380D01*
X170114285Y-77852380D01*
X170019047Y-77804761D01*
X169971428Y-77757142D01*
D11*
G04 #@! TO.C,REF\u002A\u002A*
X151400000Y-99400000D02*
G75*
G03*
X151400000Y-99400000I-1200000J0D01*
G01*
G04 #@! TO.C,J1*
X117250000Y-92150000D02*
X117250000Y-83850000D01*
X117250000Y-92150000D02*
X125550000Y-92150000D01*
X125550000Y-92150000D02*
X125550000Y-83850000D01*
X117250000Y-83850000D02*
X125550000Y-83850000D01*
G04 #@! TO.C,J3*
X184500000Y-83850000D02*
X176200000Y-83850000D01*
X176200000Y-83850000D02*
X176200000Y-92150000D01*
X184500000Y-92150000D02*
X176200000Y-92150000D01*
X184500000Y-83850000D02*
X184500000Y-92150000D01*
G04 #@! TO.C,C5*
X159961252Y-77935000D02*
X159438748Y-77935000D01*
X159961252Y-76465000D02*
X159438748Y-76465000D01*
G04 #@! TO.C,R1*
X155735000Y-97127064D02*
X155735000Y-96672936D01*
X154265000Y-97127064D02*
X154265000Y-96672936D01*
G04 #@! TO.C,L1*
X136100000Y-80800000D02*
X130600000Y-80800000D01*
X130600000Y-80800000D02*
X130600000Y-74800000D01*
X130600000Y-74800000D02*
X136100000Y-74800000D01*
X136100000Y-74800000D02*
X136100000Y-80800000D01*
G04 #@! TO.C,Q1*
X154560000Y-82900000D02*
G75*
G03*
X154560000Y-82900000I-2600000J0D01*
G01*
G04 #@! TO.C,C8*
X171138748Y-87435000D02*
X171661252Y-87435000D01*
X171138748Y-85965000D02*
X171661252Y-85965000D01*
G04 #@! TO.C,C6*
X162141250Y-96456250D02*
X161353750Y-96456250D01*
X162245563Y-97090000D02*
X160960000Y-97090000D01*
X163310000Y-98154437D02*
X163310000Y-103910000D01*
X161747500Y-96062500D02*
X161747500Y-96850000D01*
X156490000Y-103910000D02*
X158840000Y-103910000D01*
X163310000Y-103910000D02*
X160960000Y-103910000D01*
X162245563Y-97090000D02*
X163310000Y-98154437D01*
X156490000Y-98154437D02*
X156490000Y-103910000D01*
X157554437Y-97090000D02*
X156490000Y-98154437D01*
X157554437Y-97090000D02*
X158840000Y-97090000D01*
G04 #@! TO.C,L2*
X139300000Y-85300000D02*
X133300000Y-85300000D01*
X133300000Y-85300000D02*
X133300000Y-91700000D01*
X133300000Y-91700000D02*
X139300000Y-91700000D01*
X139300000Y-91700000D02*
X139300000Y-85300000D01*
G04 #@! TO.C,J2*
X178100000Y-101800000D02*
X178710000Y-101800000D01*
X174600000Y-98850000D02*
X174600000Y-103750000D01*
X178710000Y-104360000D02*
X178710000Y-98240000D01*
X178100000Y-98850000D02*
X174600000Y-98850000D01*
X176100000Y-104360000D02*
X176100000Y-103750000D01*
X174600000Y-101300000D02*
X175100000Y-101300000D01*
X173990000Y-104360000D02*
X178710000Y-104360000D01*
X178710000Y-100000000D02*
X178910000Y-100000000D01*
X176100000Y-98240000D02*
X176100000Y-98850000D01*
X178100000Y-100800000D02*
X178100000Y-98850000D01*
X178910000Y-99700000D02*
X178710000Y-99700000D01*
X175100000Y-101400000D02*
X174600000Y-101400000D01*
X178710000Y-98240000D02*
X173990000Y-98240000D01*
X179010000Y-97940000D02*
X177760000Y-97940000D01*
X175100000Y-101200000D02*
X175100000Y-101400000D01*
X179010000Y-99190000D02*
X179010000Y-97940000D01*
X178710000Y-100800000D02*
X178100000Y-100800000D01*
X178100000Y-103750000D02*
X178100000Y-101800000D01*
X177400000Y-98240000D02*
X177400000Y-98850000D01*
X173990000Y-98240000D02*
X173990000Y-104360000D01*
X174600000Y-103750000D02*
X178100000Y-103750000D01*
X178910000Y-100000000D02*
X178910000Y-99700000D01*
X178810000Y-100000000D02*
X178810000Y-99700000D01*
X174600000Y-101200000D02*
X175100000Y-101200000D01*
X177400000Y-104360000D02*
X177400000Y-103750000D01*
G04 #@! TO.C,C2*
X145838748Y-76765000D02*
X146361252Y-76765000D01*
X145838748Y-78235000D02*
X146361252Y-78235000D01*
G04 #@! TO.C,C4*
X164465000Y-100638748D02*
X164465000Y-101161252D01*
X165935000Y-100638748D02*
X165935000Y-101161252D01*
G04 #@! TO.C,C3*
X159635000Y-93061252D02*
X159635000Y-92538748D01*
X158165000Y-93061252D02*
X158165000Y-92538748D01*
G04 #@! TO.C,L4*
X166900000Y-100600000D02*
X170900000Y-100600000D01*
X170900000Y-100600000D02*
X170900000Y-89600000D01*
X170900000Y-89600000D02*
X166900000Y-89600000D01*
X166900000Y-89600000D02*
X166900000Y-100600000D01*
G04 #@! TO.C,C7*
X162561252Y-88365000D02*
X162038748Y-88365000D01*
X162561252Y-89835000D02*
X162038748Y-89835000D01*
G04 #@! TO.C,D1*
X154200000Y-99550000D02*
X152200000Y-99550000D01*
X154200000Y-103850000D02*
X154200000Y-99550000D01*
X152200000Y-99550000D02*
X152200000Y-103850000D01*
G04 #@! TO.C,C1*
X128338748Y-88535000D02*
X128861252Y-88535000D01*
X128338748Y-87065000D02*
X128861252Y-87065000D01*
G04 #@! TO.C,RV1*
X143330000Y-97360000D02*
X143330000Y-97030000D01*
X143330000Y-97030000D02*
X148070000Y-97030000D01*
X143330000Y-99659000D02*
X143330000Y-99140000D01*
X148070000Y-98160000D02*
X148070000Y-97030000D01*
X148070000Y-101770000D02*
X148070000Y-100640000D01*
X143330000Y-101770000D02*
X143330000Y-101439000D01*
X143330000Y-101770000D02*
X148070000Y-101770000D01*
G04 #@! TO.C,L3*
X172900000Y-73400000D02*
X166900000Y-73400000D01*
X166900000Y-73400000D02*
X166900000Y-81400000D01*
X166900000Y-81400000D02*
X172900000Y-81400000D01*
X172900000Y-81400000D02*
X172900000Y-73400000D01*
G04 #@! TD*
M02*
