%TF.GenerationSoftware,KiCad,Pcbnew,9.0.5*%
%TF.CreationDate,2025-10-18T17:52:02+02:00*%
%TF.ProjectId,VAS_VE,5641535f-5645-42e6-9b69-6361645f7063,rev?*%
%TF.SameCoordinates,Original*%
%TF.FileFunction,Legend,Top*%
%TF.FilePolarity,Positive*%
%FSLAX46Y46*%
G04 Gerber Fmt 4.6, Leading zero omitted, Abs format (unit mm)*
G04 Created by KiCad (PCBNEW 9.0.5) date 2025-10-18 17:52:02*
%MOMM*%
%LPD*%
G01*
G04 APERTURE LIST*
%ADD10C,0.150000*%
%ADD11C,0.120000*%
G04 APERTURE END LIST*
D10*
X158439819Y-142543333D02*
X159154104Y-142543333D01*
X159154104Y-142543333D02*
X159296961Y-142590952D01*
X159296961Y-142590952D02*
X159392200Y-142686190D01*
X159392200Y-142686190D02*
X159439819Y-142829047D01*
X159439819Y-142829047D02*
X159439819Y-142924285D01*
X159439819Y-141543333D02*
X159439819Y-142114761D01*
X159439819Y-141829047D02*
X158439819Y-141829047D01*
X158439819Y-141829047D02*
X158582676Y-141924285D01*
X158582676Y-141924285D02*
X158677914Y-142019523D01*
X158677914Y-142019523D02*
X158725533Y-142114761D01*
X153933333Y-133379580D02*
X153885714Y-133427200D01*
X153885714Y-133427200D02*
X153742857Y-133474819D01*
X153742857Y-133474819D02*
X153647619Y-133474819D01*
X153647619Y-133474819D02*
X153504762Y-133427200D01*
X153504762Y-133427200D02*
X153409524Y-133331961D01*
X153409524Y-133331961D02*
X153361905Y-133236723D01*
X153361905Y-133236723D02*
X153314286Y-133046247D01*
X153314286Y-133046247D02*
X153314286Y-132903390D01*
X153314286Y-132903390D02*
X153361905Y-132712914D01*
X153361905Y-132712914D02*
X153409524Y-132617676D01*
X153409524Y-132617676D02*
X153504762Y-132522438D01*
X153504762Y-132522438D02*
X153647619Y-132474819D01*
X153647619Y-132474819D02*
X153742857Y-132474819D01*
X153742857Y-132474819D02*
X153885714Y-132522438D01*
X153885714Y-132522438D02*
X153933333Y-132570057D01*
X154885714Y-133474819D02*
X154314286Y-133474819D01*
X154600000Y-133474819D02*
X154600000Y-132474819D01*
X154600000Y-132474819D02*
X154504762Y-132617676D01*
X154504762Y-132617676D02*
X154409524Y-132712914D01*
X154409524Y-132712914D02*
X154314286Y-132760533D01*
%TO.C,J1*%
D11*
X157145000Y-141975000D02*
X156285000Y-141975000D01*
X156285000Y-147975000D01*
X157145000Y-147975000D01*
X157145000Y-141975000D01*
G36*
X157145000Y-141975000D02*
G01*
X156285000Y-141975000D01*
X156285000Y-147975000D01*
X157145000Y-147975000D01*
X157145000Y-141975000D01*
G37*
X158095000Y-141975000D02*
X158095000Y-139215000D01*
X158095000Y-139215000D02*
X150255000Y-139215000D01*
X157985000Y-136555000D02*
X157985000Y-137825000D01*
X157145000Y-138985000D02*
X157145000Y-139215000D01*
X156715000Y-136555000D02*
X157985000Y-136555000D01*
X156285000Y-138985000D02*
X156285000Y-139215000D01*
X155445000Y-139215000D02*
X155445000Y-141975000D01*
X154605000Y-147975000D02*
X153745000Y-147975000D01*
X154605000Y-141975000D02*
X154605000Y-147975000D01*
X154605000Y-138902358D02*
X154605000Y-139215000D01*
X153745000Y-147975000D02*
X153745000Y-141975000D01*
X153745000Y-138902358D02*
X153745000Y-139215000D01*
X152905000Y-139215000D02*
X152905000Y-141975000D01*
X152065000Y-147975000D02*
X151205000Y-147975000D01*
X152065000Y-141975000D02*
X152065000Y-147975000D01*
X152065000Y-138902358D02*
X152065000Y-139215000D01*
X151205000Y-147975000D02*
X151205000Y-141975000D01*
X151205000Y-138902358D02*
X151205000Y-139215000D01*
X150255000Y-141975000D02*
X158095000Y-141975000D01*
X150255000Y-139215000D02*
X150255000Y-141975000D01*
%TO.C,C1*%
X153838748Y-133965000D02*
X154361252Y-133965000D01*
X153838748Y-135435000D02*
X154361252Y-135435000D01*
%TD*%
M02*
