G04 #@! TF.GenerationSoftware,KiCad,Pcbnew,(6.0.5)*
G04 #@! TF.CreationDate,2022-05-29T13:56:34+02:00*
G04 #@! TF.ProjectId,Jogurtownica,4a6f6775-7274-46f7-976e-6963612e6b69,rev?*
G04 #@! TF.SameCoordinates,Original*
G04 #@! TF.FileFunction,Copper,L2,Bot*
G04 #@! TF.FilePolarity,Positive*
%FSLAX45Y45*%
G04 Gerber Fmt 4.5, Leading zero omitted, Abs format (unit mm)*
G04 Created by KiCad (PCBNEW (6.0.5)) date 2022-05-29 13:56:34*
%MOMM*%
%LPD*%
G01*
G04 APERTURE LIST*
G04 Aperture macros list*
%AMRoundRect*
0 Rectangle with rounded corners*
0 $1 Rounding radius*
0 $2 $3 $4 $5 $6 $7 $8 $9 X,Y pos of 4 corners*
0 Add a 4 corners polygon primitive as box body*
4,1,4,$2,$3,$4,$5,$6,$7,$8,$9,$2,$3,0*
0 Add four circle primitives for the rounded corners*
1,1,$1+$1,$2,$3*
1,1,$1+$1,$4,$5*
1,1,$1+$1,$6,$7*
1,1,$1+$1,$8,$9*
0 Add four rect primitives between the rounded corners*
20,1,$1+$1,$2,$3,$4,$5,0*
20,1,$1+$1,$4,$5,$6,$7,0*
20,1,$1+$1,$6,$7,$8,$9,0*
20,1,$1+$1,$8,$9,$2,$3,0*%
G04 Aperture macros list end*
G04 #@! TA.AperFunction,ComponentPad*
%ADD10C,4.000000*%
G04 #@! TD*
G04 #@! TA.AperFunction,ComponentPad*
%ADD11C,1.440000*%
G04 #@! TD*
G04 #@! TA.AperFunction,ComponentPad*
%ADD12C,2.000000*%
G04 #@! TD*
G04 #@! TA.AperFunction,ComponentPad*
%ADD13RoundRect,0.250000X-0.625000X0.350000X-0.625000X-0.350000X0.625000X-0.350000X0.625000X0.350000X0*%
G04 #@! TD*
G04 #@! TA.AperFunction,ComponentPad*
%ADD14O,1.750000X1.200000*%
G04 #@! TD*
G04 #@! TA.AperFunction,ComponentPad*
%ADD15RoundRect,0.250001X-0.949999X0.949999X-0.949999X-0.949999X0.949999X-0.949999X0.949999X0.949999X0*%
G04 #@! TD*
G04 #@! TA.AperFunction,ComponentPad*
%ADD16C,2.400000*%
G04 #@! TD*
G04 #@! TA.AperFunction,ComponentPad*
%ADD17R,1.600000X1.600000*%
G04 #@! TD*
G04 #@! TA.AperFunction,ComponentPad*
%ADD18C,1.600000*%
G04 #@! TD*
G04 #@! TA.AperFunction,ComponentPad*
%ADD19RoundRect,0.250000X0.350000X0.625000X-0.350000X0.625000X-0.350000X-0.625000X0.350000X-0.625000X0*%
G04 #@! TD*
G04 #@! TA.AperFunction,ComponentPad*
%ADD20O,1.200000X1.750000*%
G04 #@! TD*
G04 #@! TA.AperFunction,ComponentPad*
%ADD21RoundRect,0.250000X-0.845000X0.620000X-0.845000X-0.620000X0.845000X-0.620000X0.845000X0.620000X0*%
G04 #@! TD*
G04 #@! TA.AperFunction,ComponentPad*
%ADD22O,2.190000X1.740000*%
G04 #@! TD*
G04 #@! TA.AperFunction,ComponentPad*
%ADD23C,1.800000*%
G04 #@! TD*
G04 #@! TA.AperFunction,ComponentPad*
%ADD24RoundRect,0.250000X-0.350000X-0.625000X0.350000X-0.625000X0.350000X0.625000X-0.350000X0.625000X0*%
G04 #@! TD*
G04 #@! TA.AperFunction,ComponentPad*
%ADD25O,1.600000X1.600000*%
G04 #@! TD*
G04 #@! TA.AperFunction,ComponentPad*
%ADD26RoundRect,0.250001X-1.099999X-1.099999X1.099999X-1.099999X1.099999X1.099999X-1.099999X1.099999X0*%
G04 #@! TD*
G04 #@! TA.AperFunction,ComponentPad*
%ADD27C,2.700000*%
G04 #@! TD*
G04 #@! TA.AperFunction,ComponentPad*
%ADD28C,3.000000*%
G04 #@! TD*
G04 #@! TA.AperFunction,ComponentPad*
%ADD29R,2.500000X2.500000*%
G04 #@! TD*
G04 #@! TA.AperFunction,SMDPad,CuDef*
%ADD30RoundRect,0.250000X-0.450000X0.262500X-0.450000X-0.262500X0.450000X-0.262500X0.450000X0.262500X0*%
G04 #@! TD*
G04 #@! TA.AperFunction,SMDPad,CuDef*
%ADD31RoundRect,0.150000X-0.150000X0.587500X-0.150000X-0.587500X0.150000X-0.587500X0.150000X0.587500X0*%
G04 #@! TD*
G04 #@! TA.AperFunction,SMDPad,CuDef*
%ADD32R,1.700000X1.300000*%
G04 #@! TD*
G04 #@! TA.AperFunction,ComponentPad*
%ADD33R,1.700000X1.700000*%
G04 #@! TD*
G04 #@! TA.AperFunction,ComponentPad*
%ADD34O,1.700000X1.700000*%
G04 #@! TD*
G04 #@! TA.AperFunction,SMDPad,CuDef*
%ADD35R,1.300000X1.700000*%
G04 #@! TD*
G04 #@! TA.AperFunction,SMDPad,CuDef*
%ADD36RoundRect,0.250000X-0.312500X-0.625000X0.312500X-0.625000X0.312500X0.625000X-0.312500X0.625000X0*%
G04 #@! TD*
G04 #@! TA.AperFunction,SMDPad,CuDef*
%ADD37RoundRect,0.250000X0.312500X0.625000X-0.312500X0.625000X-0.312500X-0.625000X0.312500X-0.625000X0*%
G04 #@! TD*
G04 #@! TA.AperFunction,SMDPad,CuDef*
%ADD38RoundRect,0.250000X0.450000X-0.262500X0.450000X0.262500X-0.450000X0.262500X-0.450000X-0.262500X0*%
G04 #@! TD*
G04 #@! TA.AperFunction,SMDPad,CuDef*
%ADD39RoundRect,0.150000X0.150000X-0.587500X0.150000X0.587500X-0.150000X0.587500X-0.150000X-0.587500X0*%
G04 #@! TD*
G04 #@! TA.AperFunction,SMDPad,CuDef*
%ADD40RoundRect,0.250000X-0.262500X-0.450000X0.262500X-0.450000X0.262500X0.450000X-0.262500X0.450000X0*%
G04 #@! TD*
G04 #@! TA.AperFunction,SMDPad,CuDef*
%ADD41RoundRect,0.250000X-0.625000X0.312500X-0.625000X-0.312500X0.625000X-0.312500X0.625000X0.312500X0*%
G04 #@! TD*
G04 #@! TA.AperFunction,SMDPad,CuDef*
%ADD42RoundRect,0.250000X0.262500X0.450000X-0.262500X0.450000X-0.262500X-0.450000X0.262500X-0.450000X0*%
G04 #@! TD*
G04 #@! TA.AperFunction,SMDPad,CuDef*
%ADD43RoundRect,0.250000X-0.250000X-0.475000X0.250000X-0.475000X0.250000X0.475000X-0.250000X0.475000X0*%
G04 #@! TD*
G04 #@! TA.AperFunction,ViaPad*
%ADD44C,1.000000*%
G04 #@! TD*
G04 #@! TA.AperFunction,ViaPad*
%ADD45C,0.800000*%
G04 #@! TD*
G04 #@! TA.AperFunction,Conductor*
%ADD46C,0.500000*%
G04 #@! TD*
G04 #@! TA.AperFunction,Conductor*
%ADD47C,1.000000*%
G04 #@! TD*
G04 #@! TA.AperFunction,Conductor*
%ADD48C,1.500000*%
G04 #@! TD*
G04 APERTURE END LIST*
D10*
G04 #@! TO.P,REF\u002A\u002A,1*
G04 #@! TO.N,N/C*
X14300000Y-12525000D03*
G04 #@! TD*
D11*
G04 #@! TO.P,RV1,1,1*
G04 #@! TO.N,Net-(R1-Pad1)*
X10950000Y-5152500D03*
G04 #@! TO.P,RV1,2,2*
X11204000Y-5152500D03*
G04 #@! TO.P,RV1,3,3*
G04 #@! TO.N,GND*
X11458000Y-5152500D03*
G04 #@! TD*
D10*
G04 #@! TO.P,REF\u002A\u002A,1*
G04 #@! TO.N,N/C*
X7125000Y-7925000D03*
G04 #@! TD*
D12*
G04 #@! TO.P,C7,1*
G04 #@! TO.N,Net-(C7-Pad1)*
X6900000Y-10174500D03*
G04 #@! TO.P,C7,2*
G04 #@! TO.N,Net-(C7-Pad2)*
X6900000Y-9424500D03*
G04 #@! TD*
D13*
G04 #@! TO.P,J2,1,Pin_1*
G04 #@! TO.N,Net-(J2-Pad1)*
X9900000Y-7225000D03*
D14*
G04 #@! TO.P,J2,2,Pin_2*
G04 #@! TO.N,GND*
X9900000Y-7425000D03*
G04 #@! TD*
D15*
G04 #@! TO.P,J10,1,Pin_1*
G04 #@! TO.N,Net-(J10-Pad1)*
X5660000Y-10630000D03*
D16*
G04 #@! TO.P,J10,2,Pin_2*
G04 #@! TO.N,Net-(J10-Pad2)*
X5660000Y-11026000D03*
G04 #@! TD*
D17*
G04 #@! TO.P,C1,1*
G04 #@! TO.N,Net-(C1-Pad1)*
X7540000Y-6590000D03*
D18*
G04 #@! TO.P,C1,2*
G04 #@! TO.N,GND*
X7890000Y-6590000D03*
G04 #@! TD*
D17*
G04 #@! TO.P,C4,1*
G04 #@! TO.N,Net-(C4-Pad1)*
X12410000Y-7400511D03*
D18*
G04 #@! TO.P,C4,2*
G04 #@! TO.N,GND*
X12410000Y-7150511D03*
G04 #@! TD*
D17*
G04 #@! TO.P,C5,1*
G04 #@! TO.N,+5V*
X8510000Y-5800511D03*
D18*
G04 #@! TO.P,C5,2*
G04 #@! TO.N,GND*
X8510000Y-5550511D03*
G04 #@! TD*
D19*
G04 #@! TO.P,J8,1,Pin_1*
G04 #@! TO.N,Net-(J8-Pad1)*
X12260000Y-6150000D03*
D20*
G04 #@! TO.P,J8,2,Pin_2*
G04 #@! TO.N,GND*
X12060000Y-6150000D03*
G04 #@! TD*
D21*
G04 #@! TO.P,J1,1,Pin_1*
G04 #@! TO.N,+12V*
X6307028Y-7236046D03*
D22*
G04 #@! TO.P,J1,2,Pin_2*
G04 #@! TO.N,GND*
X6307028Y-7490046D03*
G04 #@! TD*
D23*
G04 #@! TO.P,RV2,1*
G04 #@! TO.N,Net-(J10-Pad1)*
X4735000Y-10835000D03*
G04 #@! TO.P,RV2,2*
G04 #@! TO.N,Net-(J10-Pad2)*
X4545000Y-11585000D03*
G04 #@! TD*
D24*
G04 #@! TO.P,J9,1,Pin_1*
G04 #@! TO.N,Net-(D4-Pad1)*
X11900000Y-10080000D03*
D20*
G04 #@! TO.P,J9,2,Pin_2*
G04 #@! TO.N,GND*
X12100000Y-10080000D03*
G04 #@! TD*
D15*
G04 #@! TO.P,J11,1,Pin_1*
G04 #@! TO.N,Net-(J10-Pad1)*
X5660000Y-11480000D03*
D16*
G04 #@! TO.P,J11,2,Pin_2*
G04 #@! TO.N,Net-(J10-Pad2)*
X5660000Y-11876000D03*
G04 #@! TD*
D17*
G04 #@! TO.P,U3,1*
G04 #@! TO.N,Net-(R11-Pad2)*
X8427500Y-10620000D03*
D25*
G04 #@! TO.P,U3,2*
G04 #@! TO.N,Net-(Q2-Pad3)*
X8173500Y-10620000D03*
G04 #@! TO.P,U3,3,NC*
G04 #@! TO.N,unconnected-(U3-Pad3)*
X7919500Y-10620000D03*
G04 #@! TO.P,U3,4*
G04 #@! TO.N,Net-(Q4-Pad3)*
X7919500Y-11382000D03*
G04 #@! TO.P,U3,5,NC*
G04 #@! TO.N,unconnected-(U3-Pad5)*
X8173500Y-11382000D03*
G04 #@! TO.P,U3,6*
G04 #@! TO.N,Net-(R16-Pad2)*
X8427500Y-11382000D03*
G04 #@! TD*
D24*
G04 #@! TO.P,J6,1,Pin_1*
G04 #@! TO.N,Net-(J5-Pad3)*
X9880000Y-10300000D03*
D20*
G04 #@! TO.P,J6,2,Pin_2*
G04 #@! TO.N,GND*
X10080000Y-10300000D03*
G04 #@! TD*
D26*
G04 #@! TO.P,J12,1,Pin_1*
G04 #@! TO.N,Net-(J10-Pad2)*
X6627000Y-11897500D03*
D27*
G04 #@! TO.P,J12,2,Pin_2*
G04 #@! TO.N,Net-(C7-Pad2)*
X7023000Y-11897500D03*
G04 #@! TD*
D10*
G04 #@! TO.P,REF\u002A\u002A,1*
G04 #@! TO.N,N/C*
X5800000Y-12550000D03*
G04 #@! TD*
G04 #@! TO.P,REF\u002A\u002A,1*
G04 #@! TO.N,N/C*
X10000000Y-5000000D03*
G04 #@! TD*
D17*
G04 #@! TO.P,U2,1,~{RESET}/PB5*
G04 #@! TO.N,Net-(C4-Pad1)*
X11805000Y-6895000D03*
D25*
G04 #@! TO.P,U2,2,XTAL1/PB3*
G04 #@! TO.N,Net-(R2-Pad2)*
X11551000Y-6895000D03*
G04 #@! TO.P,U2,3,XTAL2/PB4*
G04 #@! TO.N,Net-(R4-Pad1)*
X11297000Y-6895000D03*
G04 #@! TO.P,U2,4,GND*
G04 #@! TO.N,GND*
X11043000Y-6895000D03*
G04 #@! TO.P,U2,5,AREF/PB0*
G04 #@! TO.N,Net-(J3-Pad4)*
X11043000Y-7657000D03*
G04 #@! TO.P,U2,6,PB1*
G04 #@! TO.N,Net-(J4-Pad4)*
X11297000Y-7657000D03*
G04 #@! TO.P,U2,7,PB2*
G04 #@! TO.N,Net-(J3-Pad3)*
X11551000Y-7657000D03*
G04 #@! TO.P,U2,8,VCC*
G04 #@! TO.N,Net-(C4-Pad1)*
X11805000Y-7657000D03*
G04 #@! TD*
D19*
G04 #@! TO.P,J7,1,Pin_1*
G04 #@! TO.N,Net-(J7-Pad1)*
X10100000Y-6155000D03*
D20*
G04 #@! TO.P,J7,2,Pin_2*
G04 #@! TO.N,Net-(C4-Pad1)*
X9900000Y-6155000D03*
G04 #@! TD*
D10*
G04 #@! TO.P,REF\u002A\u002A,1*
G04 #@! TO.N,N/C*
X12875000Y-7925000D03*
G04 #@! TD*
D28*
G04 #@! TO.P,REF\u002A\u002A,1*
G04 #@! TO.N,N/C*
X10000000Y-9580000D03*
G04 #@! TD*
D10*
G04 #@! TO.P,REF\u002A\u002A,1*
G04 #@! TO.N,N/C*
X12025000Y-12600000D03*
G04 #@! TD*
G04 #@! TO.P,REF\u002A\u002A,1*
G04 #@! TO.N,N/C*
X7975000Y-12600000D03*
G04 #@! TD*
D12*
G04 #@! TO.P,C8,1*
G04 #@! TO.N,Net-(C8-Pad1)*
X5515500Y-9420000D03*
G04 #@! TO.P,C8,2*
G04 #@! TO.N,Net-(C7-Pad2)*
X6265500Y-9420000D03*
G04 #@! TD*
D29*
G04 #@! TO.P,Q4,1,A1*
G04 #@! TO.N,Net-(C7-Pad2)*
X6685500Y-10646000D03*
D27*
G04 #@! TO.P,Q4,2,A2*
G04 #@! TO.N,Net-(J10-Pad1)*
X6685500Y-11000000D03*
G04 #@! TO.P,Q4,3,G*
G04 #@! TO.N,Net-(Q4-Pad3)*
X6685500Y-11356000D03*
G04 #@! TD*
D30*
G04 #@! TO.P,R15,1*
G04 #@! TO.N,+5V*
X10710000Y-11448750D03*
G04 #@! TO.P,R15,2*
G04 #@! TO.N,Net-(Q5-Pad3)*
X10710000Y-11631250D03*
G04 #@! TD*
D31*
G04 #@! TO.P,Q5,1,B*
G04 #@! TO.N,Net-(Q5-Pad1)*
X10260000Y-11456250D03*
G04 #@! TO.P,Q5,2,E*
G04 #@! TO.N,GND*
X10450000Y-11456250D03*
G04 #@! TO.P,Q5,3,C*
G04 #@! TO.N,Net-(Q5-Pad3)*
X10355000Y-11643750D03*
G04 #@! TD*
D30*
G04 #@! TO.P,R13,1*
G04 #@! TO.N,Net-(Q3-Pad1)*
X9780000Y-11463750D03*
G04 #@! TO.P,R13,2*
G04 #@! TO.N,Net-(J5-Pad4)*
X9780000Y-11646250D03*
G04 #@! TD*
D32*
G04 #@! TO.P,D3,1,K*
G04 #@! TO.N,Net-(C4-Pad1)*
X11280000Y-8685000D03*
G04 #@! TO.P,D3,2,A*
G04 #@! TO.N,Net-(D3-Pad2)*
X11280000Y-9035000D03*
G04 #@! TD*
D33*
G04 #@! TO.P,J5,1,Pin_1*
G04 #@! TO.N,+5V*
X10390000Y-10987500D03*
D34*
G04 #@! TO.P,J5,2,Pin_2*
G04 #@! TO.N,GND*
X10136000Y-10987500D03*
G04 #@! TO.P,J5,3,Pin_3*
G04 #@! TO.N,Net-(J5-Pad3)*
X9882000Y-10987500D03*
G04 #@! TO.P,J5,4,Pin_4*
G04 #@! TO.N,Net-(J5-Pad4)*
X9628000Y-10987500D03*
G04 #@! TD*
D35*
G04 #@! TO.P,D4,1,K*
G04 #@! TO.N,Net-(D4-Pad1)*
X11825000Y-10535000D03*
G04 #@! TO.P,D4,2,A*
G04 #@! TO.N,GND*
X12175000Y-10535000D03*
G04 #@! TD*
D36*
G04 #@! TO.P,R18,1*
G04 #@! TO.N,Net-(J10-Pad1)*
X5828750Y-9975000D03*
G04 #@! TO.P,R18,2*
G04 #@! TO.N,Net-(C7-Pad1)*
X6121250Y-9975000D03*
G04 #@! TD*
D37*
G04 #@! TO.P,R19,1*
G04 #@! TO.N,Net-(J10-Pad1)*
X5446250Y-9975000D03*
G04 #@! TO.P,R19,2*
G04 #@! TO.N,Net-(C8-Pad1)*
X5153750Y-9975000D03*
G04 #@! TD*
D30*
G04 #@! TO.P,R8,1*
G04 #@! TO.N,Net-(J4-Pad4)*
X8560000Y-9433750D03*
G04 #@! TO.P,R8,2*
G04 #@! TO.N,Net-(Q2-Pad1)*
X8560000Y-9616250D03*
G04 #@! TD*
D33*
G04 #@! TO.P,J4,1,Pin_1*
G04 #@! TO.N,Net-(C4-Pad1)*
X9375000Y-8720000D03*
D34*
G04 #@! TO.P,J4,2,Pin_2*
X9629000Y-8720000D03*
G04 #@! TO.P,J4,3,Pin_3*
G04 #@! TO.N,Net-(J3-Pad4)*
X9883000Y-8720000D03*
G04 #@! TO.P,J4,4,Pin_4*
G04 #@! TO.N,Net-(J4-Pad4)*
X10137000Y-8720000D03*
G04 #@! TO.P,J4,5,Pin_5*
G04 #@! TO.N,Net-(J3-Pad3)*
X10391000Y-8720000D03*
G04 #@! TO.P,J4,6,Pin_6*
G04 #@! TO.N,GND*
X10645000Y-8720000D03*
G04 #@! TD*
D38*
G04 #@! TO.P,R21,1*
G04 #@! TO.N,Net-(Q5-Pad1)*
X10040000Y-11646250D03*
G04 #@! TO.P,R21,2*
G04 #@! TO.N,GND*
X10040000Y-11463750D03*
G04 #@! TD*
D30*
G04 #@! TO.P,R14,1*
G04 #@! TO.N,Net-(D4-Pad1)*
X11520000Y-11603750D03*
G04 #@! TO.P,R14,2*
G04 #@! TO.N,Net-(Q3-Pad3)*
X11520000Y-11786250D03*
G04 #@! TD*
D38*
G04 #@! TO.P,R20,1*
G04 #@! TO.N,Net-(Q5-Pad1)*
X9490000Y-11646250D03*
G04 #@! TO.P,R20,2*
G04 #@! TO.N,Net-(J5-Pad4)*
X9490000Y-11463750D03*
G04 #@! TD*
D36*
G04 #@! TO.P,R17,1*
G04 #@! TO.N,Net-(C7-Pad2)*
X7313750Y-11610000D03*
G04 #@! TO.P,R17,2*
G04 #@! TO.N,Net-(Q4-Pad3)*
X7606250Y-11610000D03*
G04 #@! TD*
D39*
G04 #@! TO.P,Q2,1,B*
G04 #@! TO.N,Net-(Q2-Pad1)*
X8385000Y-10043750D03*
G04 #@! TO.P,Q2,2,E*
G04 #@! TO.N,GND*
X8195000Y-10043750D03*
G04 #@! TO.P,Q2,3,C*
G04 #@! TO.N,Net-(Q2-Pad3)*
X8290000Y-9856250D03*
G04 #@! TD*
D40*
G04 #@! TO.P,R12,1*
G04 #@! TO.N,+5V*
X10968750Y-11490000D03*
G04 #@! TO.P,R12,2*
G04 #@! TO.N,Net-(Q3-Pad1)*
X11151250Y-11490000D03*
G04 #@! TD*
D35*
G04 #@! TO.P,D5,1,K*
G04 #@! TO.N,Net-(R11-Pad2)*
X8635000Y-10335000D03*
G04 #@! TO.P,D5,2,A*
G04 #@! TO.N,Net-(Q2-Pad3)*
X8285000Y-10335000D03*
G04 #@! TD*
D33*
G04 #@! TO.P,J3,1,Pin_1*
G04 #@! TO.N,Net-(D3-Pad2)*
X10390000Y-9100000D03*
D34*
G04 #@! TO.P,J3,2,Pin_2*
G04 #@! TO.N,GND*
X10136000Y-9100000D03*
G04 #@! TO.P,J3,3,Pin_3*
G04 #@! TO.N,Net-(J3-Pad3)*
X9882000Y-9100000D03*
G04 #@! TO.P,J3,4,Pin_4*
G04 #@! TO.N,Net-(J3-Pad4)*
X9628000Y-9100000D03*
G04 #@! TD*
D41*
G04 #@! TO.P,R16,1*
G04 #@! TO.N,Net-(C7-Pad1)*
X7420000Y-10183750D03*
G04 #@! TO.P,R16,2*
G04 #@! TO.N,Net-(R16-Pad2)*
X7420000Y-10476250D03*
G04 #@! TD*
D39*
G04 #@! TO.P,Q3,1,B*
G04 #@! TO.N,Net-(Q3-Pad1)*
X11155000Y-11973750D03*
G04 #@! TO.P,Q3,2,E*
G04 #@! TO.N,+5V*
X10965000Y-11973750D03*
G04 #@! TO.P,Q3,3,C*
G04 #@! TO.N,Net-(Q3-Pad3)*
X11060000Y-11786250D03*
G04 #@! TD*
D30*
G04 #@! TO.P,R11,1*
G04 #@! TO.N,Net-(C4-Pad1)*
X8740000Y-9868750D03*
G04 #@! TO.P,R11,2*
G04 #@! TO.N,Net-(R11-Pad2)*
X8740000Y-10051250D03*
G04 #@! TD*
D42*
G04 #@! TO.P,R10,1*
G04 #@! TO.N,Net-(Q2-Pad1)*
X8251250Y-9570000D03*
G04 #@! TO.P,R10,2*
G04 #@! TO.N,GND*
X8068750Y-9570000D03*
G04 #@! TD*
D43*
G04 #@! TO.P,C9,1*
G04 #@! TO.N,Net-(J5-Pad3)*
X9880000Y-10545000D03*
G04 #@! TO.P,C9,2*
G04 #@! TO.N,GND*
X10070000Y-10545000D03*
G04 #@! TD*
D44*
G04 #@! TO.N,Net-(C4-Pad1)*
X11060000Y-7370000D03*
X9620000Y-7820000D03*
G04 #@! TO.N,Net-(C7-Pad2)*
X6550000Y-9550000D03*
X6680000Y-10420000D03*
D45*
G04 #@! TO.N,Net-(Q3-Pad1)*
X9690000Y-11290000D03*
X10765000Y-11290000D03*
D44*
G04 #@! TO.N,Net-(Q4-Pad3)*
X7000000Y-11380000D03*
X7600000Y-11380000D03*
D45*
G04 #@! TO.N,Net-(Q5-Pad3)*
X9435000Y-11890000D03*
G04 #@! TD*
D46*
G04 #@! TO.N,GND*
X8068750Y-9570000D02*
X8068750Y-10017500D01*
D47*
X9900000Y-7440000D02*
X9885000Y-7425000D01*
D46*
X8095000Y-10043750D02*
X8068750Y-10017500D01*
D48*
X8068750Y-8791250D02*
X8070000Y-8790000D01*
D46*
X8195000Y-10043750D02*
X8095000Y-10043750D01*
D48*
X8068750Y-9570000D02*
X8068750Y-8791250D01*
D46*
X10070000Y-10310000D02*
X10080000Y-10300000D01*
G04 #@! TO.N,+5V*
X10710000Y-11448750D02*
X10927500Y-11448750D01*
X10410000Y-11148750D02*
X10710000Y-11448750D01*
X10927500Y-11448750D02*
X10968750Y-11490000D01*
X10410000Y-11007500D02*
X10410000Y-11148750D01*
X10390000Y-10987500D02*
X10410000Y-11007500D01*
X10965000Y-11973750D02*
X10965000Y-11493750D01*
X10390000Y-10987500D02*
X10390000Y-10980000D01*
X10965000Y-11493750D02*
X10968750Y-11490000D01*
G04 #@! TO.N,Net-(C4-Pad1)*
X9375000Y-8720000D02*
X9370000Y-8720000D01*
X9370000Y-8720000D02*
X8740000Y-9350000D01*
D47*
X12061489Y-7400511D02*
X11805000Y-7657000D01*
X11280000Y-8695000D02*
X11280000Y-8440000D01*
X11060000Y-7370000D02*
X11600000Y-7370000D01*
D46*
X8740000Y-9350000D02*
X8740000Y-9868750D01*
X11805000Y-6895000D02*
X11805000Y-7657000D01*
D47*
X9620000Y-7820000D02*
X10490000Y-7820000D01*
X11805000Y-7915000D02*
X11805000Y-7657000D01*
X10490000Y-7820000D02*
X10940000Y-7370000D01*
X12410000Y-7400511D02*
X12061489Y-7400511D01*
X10940000Y-7370000D02*
X11060000Y-7370000D01*
X11280000Y-8440000D02*
X11805000Y-7915000D01*
X11600000Y-7370000D02*
X11805000Y-7575000D01*
X11805000Y-7575000D02*
X11805000Y-7657000D01*
G04 #@! TO.N,Net-(C7-Pad1)*
X6909250Y-10183750D02*
X6900000Y-10174500D01*
X6705500Y-9980000D02*
X6126250Y-9980000D01*
X6900000Y-10174500D02*
X6705500Y-9980000D01*
X7420000Y-10183750D02*
X6909250Y-10183750D01*
D48*
G04 #@! TO.N,Net-(C7-Pad2)*
X7300000Y-11620500D02*
X7023000Y-11897500D01*
D47*
X6550000Y-9450000D02*
X6580000Y-9420000D01*
D48*
X6966000Y-10646000D02*
X7300000Y-10980000D01*
D47*
X6265500Y-9420000D02*
X6580000Y-9420000D01*
D48*
X6680000Y-10420000D02*
X6680000Y-10640500D01*
X6685500Y-10646000D02*
X6966000Y-10646000D01*
D47*
X6580000Y-9420000D02*
X6895500Y-9420000D01*
X6895500Y-9420000D02*
X6900000Y-9424500D01*
X6680000Y-10640500D02*
X6685500Y-10646000D01*
X6550000Y-9550000D02*
X6550000Y-9450000D01*
D48*
X7300000Y-10980000D02*
X7300000Y-11620500D01*
D47*
G04 #@! TO.N,Net-(C8-Pad1)*
X5153750Y-9975000D02*
X5153750Y-9566250D01*
X5153750Y-9566250D02*
X5300000Y-9420000D01*
X5300000Y-9420000D02*
X5515500Y-9420000D01*
G04 #@! TO.N,Net-(D4-Pad1)*
X11830000Y-10530000D02*
X11830000Y-10150000D01*
D46*
X11520000Y-11100000D02*
X11835000Y-10785000D01*
X11835000Y-10785000D02*
X11835000Y-10535000D01*
X11520000Y-11603750D02*
X11520000Y-11100000D01*
D47*
X11830000Y-10150000D02*
X11900000Y-10080000D01*
G04 #@! TO.N,Net-(D3-Pad2)*
X10390000Y-9100000D02*
X11205000Y-9100000D01*
X11205000Y-9100000D02*
X11280000Y-9025000D01*
D46*
G04 #@! TO.N,Net-(J4-Pad4)*
X9980000Y-8500000D02*
X10137000Y-8657000D01*
X9160000Y-8500000D02*
X9980000Y-8500000D01*
X8560000Y-9100000D02*
X9160000Y-8500000D01*
X10137000Y-8657000D02*
X10137000Y-8720000D01*
X8560000Y-9433750D02*
X8560000Y-9100000D01*
D47*
G04 #@! TO.N,Net-(J5-Pad3)*
X9880000Y-10985500D02*
X9882000Y-10987500D01*
X9880000Y-10300000D02*
X9880000Y-10985500D01*
D46*
G04 #@! TO.N,Net-(J5-Pad4)*
X9510000Y-11447500D02*
X9510000Y-11105500D01*
X9515000Y-11463750D02*
X9528750Y-11463750D01*
X9711250Y-11646250D02*
X9780000Y-11646250D01*
X9510000Y-11105500D02*
X9628000Y-10987500D01*
X9528750Y-11463750D02*
X9711250Y-11646250D01*
D48*
G04 #@! TO.N,Net-(J10-Pad1)*
X4735000Y-10835000D02*
X4735000Y-10815000D01*
D47*
X5446250Y-9975000D02*
X5615000Y-9975000D01*
D48*
X6280000Y-11000000D02*
X6685500Y-11000000D01*
D47*
X5660000Y-10630000D02*
X5660000Y-10030000D01*
D48*
X5660000Y-10630000D02*
X6080000Y-10630000D01*
X6270000Y-10820000D02*
X6270000Y-11020000D01*
X4920000Y-10630000D02*
X5660000Y-10630000D01*
D47*
X5615000Y-9975000D02*
X5828750Y-9975000D01*
D48*
X6080000Y-10630000D02*
X6270000Y-10820000D01*
X5660000Y-11480000D02*
X5950000Y-11480000D01*
X6270000Y-11160000D02*
X6270000Y-10980000D01*
X4735000Y-10815000D02*
X4920000Y-10630000D01*
X5950000Y-11480000D02*
X6270000Y-11160000D01*
G04 #@! TO.N,Net-(J10-Pad2)*
X5180000Y-11180000D02*
X5180000Y-11650000D01*
X5306000Y-11876000D02*
X5660000Y-11876000D01*
X5334000Y-11026000D02*
X5180000Y-11180000D01*
X5660000Y-11026000D02*
X5334000Y-11026000D01*
X4545000Y-11585000D02*
X5115000Y-11585000D01*
X5770000Y-11900000D02*
X6624500Y-11900000D01*
X5180000Y-11750000D02*
X5306000Y-11876000D01*
X6624500Y-11900000D02*
X6627000Y-11897500D01*
X5180000Y-11650000D02*
X5180000Y-11750000D01*
D46*
G04 #@! TO.N,Net-(Q2-Pad1)*
X8251250Y-9601250D02*
X8266250Y-9616250D01*
X8251250Y-9570000D02*
X8251250Y-9601250D01*
X8451250Y-10043750D02*
X8560000Y-9935000D01*
X8385000Y-10043750D02*
X8451250Y-10043750D01*
X8560000Y-9935000D02*
X8560000Y-9616250D01*
X8266250Y-9616250D02*
X8560000Y-9616250D01*
G04 #@! TO.N,Net-(Q2-Pad3)*
X8173500Y-10506500D02*
X8173500Y-10620000D01*
X8290000Y-10390000D02*
X8173500Y-10506500D01*
X8290000Y-9856250D02*
X8290000Y-10390000D01*
G04 #@! TO.N,Net-(Q3-Pad1)*
X11155000Y-11973750D02*
X11155000Y-11493750D01*
X10765000Y-11290000D02*
X11010000Y-11290000D01*
X11010000Y-11290000D02*
X11151250Y-11431250D01*
X11155000Y-11493750D02*
X11151250Y-11490000D01*
X9690000Y-11395000D02*
X9758750Y-11463750D01*
X9690000Y-11290000D02*
X9690000Y-11395000D01*
X9758750Y-11463750D02*
X9780000Y-11463750D01*
X11151250Y-11431250D02*
X11151250Y-11490000D01*
D47*
G04 #@! TO.N,Net-(Q4-Pad3)*
X7606250Y-11457750D02*
X7682000Y-11382000D01*
X6709500Y-11380000D02*
X6685500Y-11356000D01*
X7919500Y-11382000D02*
X7682000Y-11382000D01*
X7600000Y-11380000D02*
X7680000Y-11380000D01*
X7680000Y-11380000D02*
X7682000Y-11382000D01*
X7606250Y-11610000D02*
X7606250Y-11457750D01*
X7000000Y-11380000D02*
X6709500Y-11380000D01*
D46*
G04 #@! TO.N,Net-(R11-Pad2)*
X8740000Y-10051250D02*
X8740000Y-10230000D01*
X8740000Y-10230000D02*
X8427500Y-10542500D01*
X8427500Y-10542500D02*
X8427500Y-10620000D01*
D47*
G04 #@! TO.N,Net-(R16-Pad2)*
X7420000Y-10620000D02*
X7780000Y-10980000D01*
X7780000Y-10980000D02*
X8240000Y-10980000D01*
X8240000Y-10980000D02*
X8427500Y-11167500D01*
X7420000Y-10476250D02*
X7420000Y-10620000D01*
X8427500Y-11167500D02*
X8427500Y-11382000D01*
D46*
G04 #@! TO.N,Net-(Q3-Pad3)*
X11120000Y-12125000D02*
X11060000Y-12065000D01*
X11440000Y-12125000D02*
X11120000Y-12125000D01*
X11520000Y-11786250D02*
X11520000Y-12045000D01*
X11520000Y-12045000D02*
X11440000Y-12125000D01*
X11060000Y-12065000D02*
X11060000Y-11786250D01*
G04 #@! TO.N,Net-(Q5-Pad1)*
X9515000Y-11646250D02*
X9515000Y-11700000D01*
X9936250Y-11780000D02*
X10260000Y-11456250D01*
X9595000Y-11780000D02*
X9936250Y-11780000D01*
X9515000Y-11700000D02*
X9595000Y-11780000D01*
G04 #@! TO.N,Net-(Q5-Pad3)*
X9435000Y-11890000D02*
X10108750Y-11890000D01*
X10710000Y-11631250D02*
X10367500Y-11631250D01*
X10108750Y-11890000D02*
X10355000Y-11643750D01*
X10367500Y-11631250D02*
X10355000Y-11643750D01*
G04 #@! TD*
G04 #@! TA.AperFunction,Conductor*
G04 #@! TO.N,GND*
G36*
X10044830Y-3600259D02*
G01*
X10052789Y-3600412D01*
X10052934Y-3600415D01*
X10126489Y-3602727D01*
X10348998Y-3609720D01*
X10349151Y-3609725D01*
X10356512Y-3610047D01*
X10357099Y-3610072D01*
X10357405Y-3610089D01*
X10363231Y-3610487D01*
X10365343Y-3610631D01*
X10365497Y-3610642D01*
X10660753Y-3634398D01*
X10660906Y-3634411D01*
X10668819Y-3635145D01*
X10669125Y-3635177D01*
X10677012Y-3636104D01*
X10677164Y-3636123D01*
X10871287Y-3661335D01*
X10970923Y-3674275D01*
X10971072Y-3674295D01*
X10972687Y-3674525D01*
X10978941Y-3675415D01*
X10979246Y-3675463D01*
X10987085Y-3676774D01*
X10987237Y-3676801D01*
X11278766Y-3729255D01*
X11278918Y-3729283D01*
X11286728Y-3730787D01*
X11287029Y-3730849D01*
X11289853Y-3731465D01*
X11294804Y-3732544D01*
X11294943Y-3732576D01*
X11583578Y-3799212D01*
X11583717Y-3799245D01*
X11588819Y-3800489D01*
X11591439Y-3801128D01*
X11591737Y-3801204D01*
X11599419Y-3803277D01*
X11599568Y-3803318D01*
X11884583Y-3883969D01*
X11884729Y-3884012D01*
X11892360Y-3886272D01*
X11892646Y-3886360D01*
X11900214Y-3888805D01*
X11900353Y-3888851D01*
X12100296Y-3956139D01*
X12181100Y-3983332D01*
X12181242Y-3983381D01*
X12188751Y-3986011D01*
X12189038Y-3986115D01*
X12196482Y-3988928D01*
X12196625Y-3988983D01*
X12393208Y-4066023D01*
X12472402Y-4097059D01*
X12472545Y-4097116D01*
X12479918Y-4100110D01*
X12480202Y-4100229D01*
X12487509Y-4103406D01*
X12487632Y-4103461D01*
X12632767Y-4168687D01*
X12757809Y-4224883D01*
X12757949Y-4224947D01*
X12765167Y-4228298D01*
X12765442Y-4228430D01*
X12772575Y-4231955D01*
X12772702Y-4232018D01*
X13036636Y-4366500D01*
X13036770Y-4366569D01*
X13043812Y-4370266D01*
X13044083Y-4370412D01*
X13051033Y-4374281D01*
X13051167Y-4374357D01*
X13308199Y-4521560D01*
X13308332Y-4521638D01*
X13315187Y-4525675D01*
X13315450Y-4525835D01*
X13322209Y-4530042D01*
X13322340Y-4530124D01*
X13508715Y-4649316D01*
X13571873Y-4689707D01*
X13572002Y-4689791D01*
X13578652Y-4694159D01*
X13578907Y-4694331D01*
X13585443Y-4698857D01*
X13585569Y-4698945D01*
X13827011Y-4870529D01*
X13827136Y-4870619D01*
X13833566Y-4875309D01*
X13833813Y-4875493D01*
X13840128Y-4880338D01*
X13840249Y-4880433D01*
X14055150Y-5049543D01*
X14073018Y-5063604D01*
X14073139Y-5063700D01*
X14079330Y-5068696D01*
X14079567Y-5068892D01*
X14085637Y-5074040D01*
X14085754Y-5074140D01*
X14155254Y-5134555D01*
X14298971Y-5259487D01*
X14309297Y-5268463D01*
X14309404Y-5268557D01*
X14315352Y-5273856D01*
X14315579Y-5274064D01*
X14321387Y-5279499D01*
X14321498Y-5279604D01*
X14475579Y-5427362D01*
X14535292Y-5484625D01*
X14535402Y-5484732D01*
X14541073Y-5490305D01*
X14541288Y-5490521D01*
X14543461Y-5492763D01*
X14546820Y-5496230D01*
X14546927Y-5496341D01*
X14666375Y-5622654D01*
X14750453Y-5711564D01*
X14750552Y-5711670D01*
X14755948Y-5717518D01*
X14756154Y-5717747D01*
X14761403Y-5723721D01*
X14761504Y-5723837D01*
X14954271Y-5948743D01*
X14954370Y-5948860D01*
X14959471Y-5954961D01*
X14959661Y-5955194D01*
X14964614Y-5961421D01*
X14964707Y-5961538D01*
X15036990Y-6054726D01*
X15146255Y-6195589D01*
X15146348Y-6195711D01*
X15151147Y-6202055D01*
X15151329Y-6202303D01*
X15155973Y-6208765D01*
X15156062Y-6208891D01*
X15201401Y-6273642D01*
X15325963Y-6451535D01*
X15326038Y-6451644D01*
X15330349Y-6457963D01*
X15330527Y-6458224D01*
X15330695Y-6458477D01*
X15335017Y-6465157D01*
X15335097Y-6465283D01*
X15491187Y-6713149D01*
X15492937Y-6715929D01*
X15493018Y-6716059D01*
X15497177Y-6722846D01*
X15497335Y-6723110D01*
X15501323Y-6729991D01*
X15501397Y-6730120D01*
X15646812Y-6988191D01*
X15646883Y-6988318D01*
X15650703Y-6995295D01*
X15650847Y-6995566D01*
X15654495Y-7002634D01*
X15654564Y-7002770D01*
X15664764Y-7023139D01*
X15787196Y-7267630D01*
X15787264Y-7267768D01*
X15790735Y-7274917D01*
X15790866Y-7275195D01*
X15794164Y-7282431D01*
X15794223Y-7282562D01*
X15813363Y-7325958D01*
X15913764Y-7553598D01*
X15913825Y-7553739D01*
X15916944Y-7561050D01*
X15917058Y-7561329D01*
X15919999Y-7568719D01*
X15920055Y-7568862D01*
X16026207Y-7845397D01*
X16026261Y-7845541D01*
X16029020Y-7852999D01*
X16029122Y-7853285D01*
X16031703Y-7860823D01*
X16031748Y-7860957D01*
X16055626Y-7933584D01*
X16124264Y-8142349D01*
X16124312Y-8142495D01*
X16126702Y-8150078D01*
X16126791Y-8150372D01*
X16128996Y-8158011D01*
X16129037Y-8158156D01*
X16196873Y-8404433D01*
X16207699Y-8443736D01*
X16207738Y-8443880D01*
X16209757Y-8451578D01*
X16209831Y-8451873D01*
X16211660Y-8459610D01*
X16211694Y-8459760D01*
X16276312Y-8748842D01*
X16276344Y-8748993D01*
X16277983Y-8756769D01*
X16278043Y-8757071D01*
X16278203Y-8757933D01*
X16279494Y-8764901D01*
X16279519Y-8765038D01*
X16329939Y-9056940D01*
X16329961Y-9057072D01*
X16330488Y-9060365D01*
X16331219Y-9064930D01*
X16331264Y-9065234D01*
X16332330Y-9073113D01*
X16332349Y-9073265D01*
X16342618Y-9156896D01*
X16368449Y-9367276D01*
X16368465Y-9367410D01*
X16368897Y-9371320D01*
X16369339Y-9375324D01*
X16369369Y-9375630D01*
X16370049Y-9383562D01*
X16370061Y-9383714D01*
X16372293Y-9414110D01*
X16391754Y-9679123D01*
X16391764Y-9679276D01*
X16392250Y-9687215D01*
X16392265Y-9687522D01*
X16392556Y-9695468D01*
X16392561Y-9695621D01*
X16399627Y-9984726D01*
X16399798Y-9991734D01*
X16399801Y-9991888D01*
X16399899Y-9999914D01*
X16399900Y-10000090D01*
X16399886Y-10008107D01*
X16399885Y-10008261D01*
X16398341Y-10118807D01*
X16398304Y-10121434D01*
X16398299Y-10121433D01*
X16398304Y-10121455D01*
X16398187Y-10128898D01*
X16397407Y-10178542D01*
X16397399Y-10178850D01*
X16397080Y-10186789D01*
X16397073Y-10186943D01*
X16381570Y-10482752D01*
X16381561Y-10482906D01*
X16381048Y-10490840D01*
X16381024Y-10491147D01*
X16380317Y-10499066D01*
X16380303Y-10499219D01*
X16374088Y-10560400D01*
X16350643Y-10791219D01*
X16350369Y-10793916D01*
X16350352Y-10794069D01*
X16349452Y-10801968D01*
X16349414Y-10802273D01*
X16348321Y-10810149D01*
X16348299Y-10810299D01*
X16304667Y-11098802D01*
X16304006Y-11103175D01*
X16303983Y-11103320D01*
X16302782Y-11110652D01*
X16302696Y-11111180D01*
X16302643Y-11111480D01*
X16302140Y-11114143D01*
X16301166Y-11119297D01*
X16301136Y-11119448D01*
X16242589Y-11409809D01*
X16242558Y-11409959D01*
X16240891Y-11417737D01*
X16240822Y-11418038D01*
X16238965Y-11425773D01*
X16238928Y-11425923D01*
X16172521Y-11688363D01*
X16166268Y-11713075D01*
X16166229Y-11713224D01*
X16164183Y-11720915D01*
X16164102Y-11721205D01*
X16161865Y-11728852D01*
X16161826Y-11728985D01*
X16098799Y-11935137D01*
X16075222Y-12012254D01*
X16075177Y-12012398D01*
X16072757Y-12019979D01*
X16072663Y-12020262D01*
X16072366Y-12021121D01*
X16070060Y-12027778D01*
X16070009Y-12027923D01*
X15969670Y-12306626D01*
X15969617Y-12306770D01*
X15966832Y-12314218D01*
X15966721Y-12314505D01*
X15963756Y-12321881D01*
X15963702Y-12322013D01*
X15849857Y-12595509D01*
X15849810Y-12595619D01*
X15848101Y-12599588D01*
X15846660Y-12602932D01*
X15846538Y-12603208D01*
X15843210Y-12610442D01*
X15843149Y-12610574D01*
X15744392Y-12818555D01*
X15716093Y-12878153D01*
X15716026Y-12878292D01*
X15712527Y-12885434D01*
X15712388Y-12885709D01*
X15708717Y-12892760D01*
X15708645Y-12892897D01*
X15568670Y-13153949D01*
X15568597Y-13154085D01*
X15564755Y-13161045D01*
X15564605Y-13161307D01*
X15560595Y-13168170D01*
X15560517Y-13168302D01*
X15407953Y-13422211D01*
X15407873Y-13422342D01*
X15403694Y-13429109D01*
X15403533Y-13429363D01*
X15399182Y-13436037D01*
X15399105Y-13436153D01*
X15234325Y-13682299D01*
X15234238Y-13682426D01*
X15229731Y-13688985D01*
X15229554Y-13689236D01*
X15224894Y-13695673D01*
X15224803Y-13695797D01*
X15048192Y-13933604D01*
X15048100Y-13933727D01*
X15043283Y-13940050D01*
X15043097Y-13940288D01*
X15038119Y-13946502D01*
X15038028Y-13946614D01*
X14850010Y-14175510D01*
X14849924Y-14175614D01*
X14847019Y-14179063D01*
X14844792Y-14181708D01*
X14844591Y-14181941D01*
X14839317Y-14187903D01*
X14839217Y-14188014D01*
X14640250Y-14407444D01*
X14640146Y-14407557D01*
X14634732Y-14413384D01*
X14634524Y-14413602D01*
X14628957Y-14419307D01*
X14628856Y-14419409D01*
X14419409Y-14628856D01*
X14419307Y-14628957D01*
X14413602Y-14634524D01*
X14413384Y-14634732D01*
X14407557Y-14640146D01*
X14407444Y-14640250D01*
X14188018Y-14839214D01*
X14187903Y-14839317D01*
X14181941Y-14844591D01*
X14181708Y-14844792D01*
X14181200Y-14845221D01*
X14175614Y-14849924D01*
X14175510Y-14850010D01*
X13951189Y-15034269D01*
X13946614Y-15038028D01*
X13946502Y-15038119D01*
X13940288Y-15043097D01*
X13940051Y-15043282D01*
X13933722Y-15048104D01*
X13933609Y-15048188D01*
X13903360Y-15070654D01*
X13695797Y-15224803D01*
X13695673Y-15224894D01*
X13689236Y-15229554D01*
X13688985Y-15229731D01*
X13682426Y-15234238D01*
X13682299Y-15234325D01*
X13436154Y-15399105D01*
X13436038Y-15399182D01*
X13429363Y-15403533D01*
X13429109Y-15403694D01*
X13422342Y-15407873D01*
X13422211Y-15407953D01*
X13168302Y-15560517D01*
X13168175Y-15560592D01*
X13161307Y-15564605D01*
X13161046Y-15564754D01*
X13154085Y-15568597D01*
X13153949Y-15568670D01*
X12892897Y-15708645D01*
X12892760Y-15708717D01*
X12885709Y-15712388D01*
X12885434Y-15712527D01*
X12878292Y-15716026D01*
X12878155Y-15716092D01*
X12610575Y-15843148D01*
X12610442Y-15843210D01*
X12603208Y-15846538D01*
X12602936Y-15846659D01*
X12595619Y-15849810D01*
X12595509Y-15849857D01*
X12322013Y-15963702D01*
X12321881Y-15963756D01*
X12314505Y-15966721D01*
X12314218Y-15966832D01*
X12306770Y-15969617D01*
X12306626Y-15969670D01*
X12027923Y-16070009D01*
X12027778Y-16070060D01*
X12025592Y-16070818D01*
X12020262Y-16072663D01*
X12019979Y-16072757D01*
X12012398Y-16075177D01*
X12012257Y-16075221D01*
X11974508Y-16086762D01*
X11728986Y-16161825D01*
X11728853Y-16161865D01*
X11721205Y-16164102D01*
X11720915Y-16164183D01*
X11713224Y-16166229D01*
X11713075Y-16166268D01*
X11425923Y-16238928D01*
X11425773Y-16238965D01*
X11418038Y-16240822D01*
X11417737Y-16240891D01*
X11409959Y-16242558D01*
X11409809Y-16242589D01*
X11119448Y-16301136D01*
X11119297Y-16301166D01*
X11114784Y-16302019D01*
X11111480Y-16302643D01*
X11111183Y-16302695D01*
X11103320Y-16303983D01*
X11103182Y-16304005D01*
X10810299Y-16348299D01*
X10810152Y-16348320D01*
X10802273Y-16349414D01*
X10801969Y-16349452D01*
X10794062Y-16350353D01*
X10793920Y-16350368D01*
X10613782Y-16368666D01*
X10499219Y-16380303D01*
X10499066Y-16380317D01*
X10497512Y-16380456D01*
X10491144Y-16381024D01*
X10490842Y-16381048D01*
X10488172Y-16381220D01*
X10482906Y-16381561D01*
X10482752Y-16381570D01*
X10186943Y-16397073D01*
X10186789Y-16397080D01*
X10178850Y-16397399D01*
X10178542Y-16397407D01*
X10177461Y-16397424D01*
X10170583Y-16397532D01*
X10170456Y-16397533D01*
X9990469Y-16398162D01*
X9874232Y-16398567D01*
X9874078Y-16398567D01*
X9869394Y-16398526D01*
X9866124Y-16398498D01*
X9865822Y-16398491D01*
X9860727Y-16398322D01*
X9857863Y-16398227D01*
X9857709Y-16398221D01*
X9752008Y-16393421D01*
X9561801Y-16384784D01*
X9561664Y-16384777D01*
X9553718Y-16384319D01*
X9553411Y-16384297D01*
X9551601Y-16384149D01*
X9545493Y-16383646D01*
X9545346Y-16383634D01*
X9250426Y-16355755D01*
X9250289Y-16355742D01*
X9242378Y-16354896D01*
X9242075Y-16354860D01*
X9234189Y-16353822D01*
X9234040Y-16353801D01*
X9196008Y-16348321D01*
X9110904Y-16336057D01*
X9104447Y-16333106D01*
X9100611Y-16327132D01*
X9100101Y-16323569D01*
X9105033Y-12600000D01*
X11804478Y-12600000D01*
X11806364Y-12628784D01*
X11811992Y-12657075D01*
X11812124Y-12657466D01*
X11812125Y-12657466D01*
X11812834Y-12659555D01*
X11821264Y-12684390D01*
X11834022Y-12710261D01*
X11834252Y-12710604D01*
X11846367Y-12728736D01*
X11850048Y-12734245D01*
X11850319Y-12734555D01*
X11850320Y-12734555D01*
X11859604Y-12745142D01*
X11869067Y-12755933D01*
X11869376Y-12756204D01*
X11890445Y-12774680D01*
X11890445Y-12774681D01*
X11890755Y-12774952D01*
X11891097Y-12775181D01*
X11891098Y-12775181D01*
X11909057Y-12787181D01*
X11914739Y-12790978D01*
X11915109Y-12791160D01*
X11915109Y-12791160D01*
X11940240Y-12803554D01*
X11940610Y-12803736D01*
X11941000Y-12803868D01*
X11941000Y-12803868D01*
X11967534Y-12812875D01*
X11967534Y-12812875D01*
X11967925Y-12813008D01*
X11968329Y-12813088D01*
X11968330Y-12813089D01*
X11995812Y-12818555D01*
X11995812Y-12818555D01*
X11996216Y-12818636D01*
X11996627Y-12818662D01*
X11996628Y-12818663D01*
X12024588Y-12820495D01*
X12025000Y-12820522D01*
X12025412Y-12820495D01*
X12053372Y-12818663D01*
X12053373Y-12818662D01*
X12053784Y-12818636D01*
X12054188Y-12818555D01*
X12054188Y-12818555D01*
X12081670Y-12813089D01*
X12081671Y-12813088D01*
X12082075Y-12813008D01*
X12082466Y-12812875D01*
X12082466Y-12812875D01*
X12109000Y-12803868D01*
X12109000Y-12803868D01*
X12109390Y-12803736D01*
X12109760Y-12803554D01*
X12134891Y-12791160D01*
X12134891Y-12791160D01*
X12135261Y-12790978D01*
X12140943Y-12787181D01*
X12158902Y-12775181D01*
X12158903Y-12775181D01*
X12159245Y-12774952D01*
X12159555Y-12774681D01*
X12159555Y-12774680D01*
X12180624Y-12756204D01*
X12180933Y-12755933D01*
X12190396Y-12745142D01*
X12199680Y-12734555D01*
X12199681Y-12734555D01*
X12199952Y-12734245D01*
X12203633Y-12728736D01*
X12215748Y-12710604D01*
X12215978Y-12710261D01*
X12228736Y-12684390D01*
X12237166Y-12659555D01*
X12237875Y-12657466D01*
X12237875Y-12657466D01*
X12238008Y-12657075D01*
X12243636Y-12628784D01*
X12245522Y-12600000D01*
X12243636Y-12571216D01*
X12243555Y-12570812D01*
X12238089Y-12543330D01*
X12238088Y-12543329D01*
X12238008Y-12542925D01*
X12231923Y-12525000D01*
X14079478Y-12525000D01*
X14081364Y-12553784D01*
X14081445Y-12554188D01*
X14081445Y-12554188D01*
X14084832Y-12571216D01*
X14086992Y-12582075D01*
X14087124Y-12582466D01*
X14087125Y-12582466D01*
X14096132Y-12609000D01*
X14096264Y-12609390D01*
X14096446Y-12609759D01*
X14096446Y-12609760D01*
X14106027Y-12629188D01*
X14109022Y-12635261D01*
X14109252Y-12635604D01*
X14123598Y-12657075D01*
X14125048Y-12659245D01*
X14125319Y-12659555D01*
X14125320Y-12659555D01*
X14143796Y-12680624D01*
X14144067Y-12680933D01*
X14144376Y-12681204D01*
X14165445Y-12699680D01*
X14165445Y-12699681D01*
X14165755Y-12699952D01*
X14166097Y-12700181D01*
X14166098Y-12700181D01*
X14181697Y-12710604D01*
X14189739Y-12715978D01*
X14190109Y-12716160D01*
X14190109Y-12716160D01*
X14215240Y-12728554D01*
X14215610Y-12728736D01*
X14216000Y-12728868D01*
X14216000Y-12728868D01*
X14242534Y-12737875D01*
X14242534Y-12737875D01*
X14242925Y-12738008D01*
X14243329Y-12738088D01*
X14243330Y-12738089D01*
X14270812Y-12743555D01*
X14270812Y-12743555D01*
X14271216Y-12743636D01*
X14271627Y-12743662D01*
X14271628Y-12743663D01*
X14299588Y-12745495D01*
X14300000Y-12745522D01*
X14300412Y-12745495D01*
X14328372Y-12743663D01*
X14328373Y-12743662D01*
X14328784Y-12743636D01*
X14329188Y-12743555D01*
X14329188Y-12743555D01*
X14356670Y-12738089D01*
X14356671Y-12738088D01*
X14357075Y-12738008D01*
X14357466Y-12737875D01*
X14357466Y-12737875D01*
X14384000Y-12728868D01*
X14384000Y-12728868D01*
X14384390Y-12728736D01*
X14384760Y-12728554D01*
X14409891Y-12716160D01*
X14409891Y-12716160D01*
X14410261Y-12715978D01*
X14418303Y-12710604D01*
X14433902Y-12700181D01*
X14433903Y-12700181D01*
X14434245Y-12699952D01*
X14434555Y-12699681D01*
X14434555Y-12699680D01*
X14455624Y-12681204D01*
X14455933Y-12680933D01*
X14456204Y-12680624D01*
X14474680Y-12659555D01*
X14474681Y-12659555D01*
X14474952Y-12659245D01*
X14476402Y-12657075D01*
X14490748Y-12635604D01*
X14490978Y-12635261D01*
X14493973Y-12629188D01*
X14503554Y-12609760D01*
X14503554Y-12609759D01*
X14503736Y-12609390D01*
X14503868Y-12609000D01*
X14512875Y-12582466D01*
X14512875Y-12582466D01*
X14513008Y-12582075D01*
X14515168Y-12571216D01*
X14518555Y-12554188D01*
X14518555Y-12554188D01*
X14518636Y-12553784D01*
X14520522Y-12525000D01*
X14518636Y-12496216D01*
X14513008Y-12467925D01*
X14512271Y-12465755D01*
X14503868Y-12441000D01*
X14503868Y-12441000D01*
X14503736Y-12440610D01*
X14490978Y-12414739D01*
X14478755Y-12396446D01*
X14475181Y-12391098D01*
X14475181Y-12391097D01*
X14474952Y-12390755D01*
X14474681Y-12390445D01*
X14474680Y-12390445D01*
X14456204Y-12369376D01*
X14455933Y-12369067D01*
X14455624Y-12368796D01*
X14434555Y-12350320D01*
X14434555Y-12350319D01*
X14434245Y-12350048D01*
X14433903Y-12349819D01*
X14433902Y-12349819D01*
X14410604Y-12334252D01*
X14410261Y-12334022D01*
X14409891Y-12333840D01*
X14409891Y-12333839D01*
X14384760Y-12321446D01*
X14384759Y-12321446D01*
X14384390Y-12321264D01*
X14364798Y-12314613D01*
X14357466Y-12312125D01*
X14357466Y-12312124D01*
X14357075Y-12311992D01*
X14356671Y-12311911D01*
X14356670Y-12311911D01*
X14329188Y-12306445D01*
X14329188Y-12306445D01*
X14328784Y-12306364D01*
X14328373Y-12306337D01*
X14328372Y-12306337D01*
X14300412Y-12304505D01*
X14300000Y-12304478D01*
X14299588Y-12304505D01*
X14271628Y-12306337D01*
X14271627Y-12306337D01*
X14271216Y-12306364D01*
X14270812Y-12306445D01*
X14270812Y-12306445D01*
X14243330Y-12311911D01*
X14243329Y-12311911D01*
X14242925Y-12311992D01*
X14242534Y-12312124D01*
X14242534Y-12312125D01*
X14235202Y-12314613D01*
X14215610Y-12321264D01*
X14215240Y-12321446D01*
X14215240Y-12321446D01*
X14190109Y-12333839D01*
X14190109Y-12333840D01*
X14189739Y-12334022D01*
X14189396Y-12334252D01*
X14166098Y-12349819D01*
X14166097Y-12349819D01*
X14165755Y-12350048D01*
X14165445Y-12350319D01*
X14165445Y-12350320D01*
X14144376Y-12368796D01*
X14144067Y-12369067D01*
X14143796Y-12369376D01*
X14125320Y-12390445D01*
X14125319Y-12390445D01*
X14125048Y-12390755D01*
X14124819Y-12391097D01*
X14124819Y-12391098D01*
X14121245Y-12396446D01*
X14109022Y-12414739D01*
X14096264Y-12440610D01*
X14096132Y-12441000D01*
X14096132Y-12441000D01*
X14087729Y-12465755D01*
X14086992Y-12467925D01*
X14081364Y-12496216D01*
X14079478Y-12525000D01*
X12231923Y-12525000D01*
X12231784Y-12524588D01*
X12228868Y-12516000D01*
X12228868Y-12516000D01*
X12228736Y-12515610D01*
X12228554Y-12515240D01*
X12216160Y-12490109D01*
X12216160Y-12490109D01*
X12215978Y-12489739D01*
X12212181Y-12484057D01*
X12200181Y-12466098D01*
X12200181Y-12466097D01*
X12199952Y-12465755D01*
X12199681Y-12465445D01*
X12199680Y-12465445D01*
X12181204Y-12444376D01*
X12180933Y-12444067D01*
X12176569Y-12440240D01*
X12159555Y-12425320D01*
X12159555Y-12425319D01*
X12159245Y-12425048D01*
X12158903Y-12424819D01*
X12158902Y-12424819D01*
X12135604Y-12409252D01*
X12135261Y-12409022D01*
X12134891Y-12408840D01*
X12134891Y-12408839D01*
X12109760Y-12396446D01*
X12109759Y-12396446D01*
X12109390Y-12396264D01*
X12109000Y-12396132D01*
X12082466Y-12387125D01*
X12082466Y-12387124D01*
X12082075Y-12386992D01*
X12081671Y-12386911D01*
X12081670Y-12386911D01*
X12054188Y-12381445D01*
X12054188Y-12381445D01*
X12053784Y-12381364D01*
X12053373Y-12381337D01*
X12053372Y-12381337D01*
X12025412Y-12379505D01*
X12025000Y-12379478D01*
X12024588Y-12379505D01*
X11996628Y-12381337D01*
X11996627Y-12381337D01*
X11996216Y-12381364D01*
X11995812Y-12381445D01*
X11995812Y-12381445D01*
X11968330Y-12386911D01*
X11968329Y-12386911D01*
X11967925Y-12386992D01*
X11967534Y-12387124D01*
X11967534Y-12387125D01*
X11941000Y-12396132D01*
X11940610Y-12396264D01*
X11940240Y-12396446D01*
X11940240Y-12396446D01*
X11915109Y-12408839D01*
X11915109Y-12408840D01*
X11914739Y-12409022D01*
X11914396Y-12409252D01*
X11891098Y-12424819D01*
X11891097Y-12424819D01*
X11890755Y-12425048D01*
X11890445Y-12425319D01*
X11890445Y-12425320D01*
X11873431Y-12440240D01*
X11869067Y-12444067D01*
X11868796Y-12444376D01*
X11850320Y-12465445D01*
X11850319Y-12465445D01*
X11850048Y-12465755D01*
X11849819Y-12466097D01*
X11849819Y-12466098D01*
X11837819Y-12484057D01*
X11834022Y-12489739D01*
X11833840Y-12490109D01*
X11833839Y-12490109D01*
X11821446Y-12515240D01*
X11821264Y-12515610D01*
X11821132Y-12516000D01*
X11821132Y-12516000D01*
X11818216Y-12524588D01*
X11811992Y-12542925D01*
X11811911Y-12543329D01*
X11811911Y-12543330D01*
X11806445Y-12570812D01*
X11806364Y-12571216D01*
X11804478Y-12600000D01*
X9105033Y-12600000D01*
X9105974Y-11890000D01*
X9374432Y-11890000D01*
X9376496Y-11905676D01*
X9382546Y-11920284D01*
X9392172Y-11932828D01*
X9392826Y-11933330D01*
X9393048Y-11933501D01*
X9404716Y-11942454D01*
X9419324Y-11948504D01*
X9435000Y-11950568D01*
X9435819Y-11950460D01*
X9449857Y-11948612D01*
X9450676Y-11948504D01*
X9465284Y-11942454D01*
X9471540Y-11937654D01*
X9478162Y-11935094D01*
X9479210Y-11935050D01*
X10105328Y-11935050D01*
X10106809Y-11935137D01*
X10110181Y-11935536D01*
X10111107Y-11935367D01*
X10111108Y-11935367D01*
X10115950Y-11934483D01*
X10116340Y-11934418D01*
X10121215Y-11933685D01*
X10121215Y-11933685D01*
X10122146Y-11933545D01*
X10122798Y-11933232D01*
X10123507Y-11933102D01*
X10128715Y-11930397D01*
X10129064Y-11930223D01*
X10134358Y-11927681D01*
X10134887Y-11927192D01*
X10134891Y-11927189D01*
X10135529Y-11926858D01*
X10136033Y-11926427D01*
X10139756Y-11922705D01*
X10140112Y-11922362D01*
X10143614Y-11919125D01*
X10144306Y-11918485D01*
X10144675Y-11917849D01*
X10145227Y-11917234D01*
X10321937Y-11740523D01*
X10328168Y-11737120D01*
X10332666Y-11736965D01*
X10336678Y-11737550D01*
X10373322Y-11737550D01*
X10373777Y-11737483D01*
X10373777Y-11737483D01*
X10379243Y-11736678D01*
X10379243Y-11736678D01*
X10380211Y-11736536D01*
X10387515Y-11732950D01*
X10389751Y-11731852D01*
X10389751Y-11731852D01*
X10390686Y-11731393D01*
X10398929Y-11723135D01*
X10404054Y-11712652D01*
X10405050Y-11705822D01*
X10405050Y-11688900D01*
X10407050Y-11682088D01*
X10412416Y-11677439D01*
X10417650Y-11676300D01*
X10616519Y-11676300D01*
X10623331Y-11678300D01*
X10626654Y-11681414D01*
X10632226Y-11688958D01*
X10632226Y-11688958D01*
X10632785Y-11689715D01*
X10633542Y-11690274D01*
X10642924Y-11697204D01*
X10642925Y-11697204D01*
X10643682Y-11697763D01*
X10656463Y-11702252D01*
X10657228Y-11702324D01*
X10657228Y-11702324D01*
X10657741Y-11702373D01*
X10659617Y-11702550D01*
X10760383Y-11702550D01*
X10762259Y-11702373D01*
X10762772Y-11702324D01*
X10762772Y-11702324D01*
X10763537Y-11702252D01*
X10776318Y-11697763D01*
X10777075Y-11697204D01*
X10777076Y-11697204D01*
X10786458Y-11690274D01*
X10787215Y-11689715D01*
X10792154Y-11683028D01*
X10794704Y-11679576D01*
X10794704Y-11679575D01*
X10795263Y-11678818D01*
X10799752Y-11666037D01*
X10800050Y-11662883D01*
X10800050Y-11599617D01*
X10799752Y-11596463D01*
X10795263Y-11583682D01*
X10794704Y-11582925D01*
X10794704Y-11582924D01*
X10787774Y-11573542D01*
X10787215Y-11572785D01*
X10782041Y-11568963D01*
X10777076Y-11565296D01*
X10777075Y-11565296D01*
X10776318Y-11564737D01*
X10763537Y-11560248D01*
X10762772Y-11560176D01*
X10762772Y-11560176D01*
X10762175Y-11560119D01*
X10760383Y-11559950D01*
X10659617Y-11559950D01*
X10657825Y-11560119D01*
X10657228Y-11560176D01*
X10657228Y-11560176D01*
X10656463Y-11560248D01*
X10643682Y-11564737D01*
X10642925Y-11565296D01*
X10642924Y-11565296D01*
X10637959Y-11568963D01*
X10632785Y-11572785D01*
X10632226Y-11573542D01*
X10632226Y-11573542D01*
X10626654Y-11581086D01*
X10620998Y-11585377D01*
X10616519Y-11586200D01*
X10517274Y-11586200D01*
X10510462Y-11584200D01*
X10505813Y-11578834D01*
X10504803Y-11571807D01*
X10507752Y-11565349D01*
X10508365Y-11564690D01*
X10516845Y-11556210D01*
X10517809Y-11554968D01*
X10525465Y-11542022D01*
X10526089Y-11540579D01*
X10530327Y-11525993D01*
X10530557Y-11524733D01*
X10530781Y-11521892D01*
X10530800Y-11521399D01*
X10530800Y-11483461D01*
X10530353Y-11481938D01*
X10530214Y-11481817D01*
X10529445Y-11481650D01*
X10371012Y-11481650D01*
X10369488Y-11482097D01*
X10369367Y-11482236D01*
X10369200Y-11483005D01*
X10369200Y-11521398D01*
X10369220Y-11521892D01*
X10369443Y-11524734D01*
X10369673Y-11525993D01*
X10371951Y-11533835D01*
X10371931Y-11540934D01*
X10368076Y-11546896D01*
X10361609Y-11549827D01*
X10359852Y-11549950D01*
X10336678Y-11549950D01*
X10336223Y-11550017D01*
X10336223Y-11550017D01*
X10330757Y-11550822D01*
X10330757Y-11550822D01*
X10329789Y-11550964D01*
X10325595Y-11553023D01*
X10320249Y-11555648D01*
X10320249Y-11555648D01*
X10319315Y-11556107D01*
X10311071Y-11564365D01*
X10305946Y-11574848D01*
X10305805Y-11575816D01*
X10305152Y-11580296D01*
X10304950Y-11581678D01*
X10304950Y-11624871D01*
X10302950Y-11631683D01*
X10301260Y-11633780D01*
X10093780Y-11841259D01*
X10087549Y-11844662D01*
X10084871Y-11844950D01*
X9960539Y-11844950D01*
X9953726Y-11842950D01*
X9949077Y-11837584D01*
X9948067Y-11830557D01*
X9951016Y-11824099D01*
X9954730Y-11821169D01*
X9956215Y-11820397D01*
X9956564Y-11820223D01*
X9961858Y-11817681D01*
X9962387Y-11817192D01*
X9962391Y-11817189D01*
X9963029Y-11816858D01*
X9963533Y-11816427D01*
X9967256Y-11812705D01*
X9967612Y-11812362D01*
X9971114Y-11809125D01*
X9971806Y-11808485D01*
X9972175Y-11807849D01*
X9972727Y-11807234D01*
X10058720Y-11721240D01*
X10064951Y-11717838D01*
X10067629Y-11717550D01*
X10090383Y-11717550D01*
X10092175Y-11717381D01*
X10092772Y-11717324D01*
X10092772Y-11717324D01*
X10093537Y-11717252D01*
X10106318Y-11712763D01*
X10107075Y-11712204D01*
X10107076Y-11712204D01*
X10115717Y-11705822D01*
X10117215Y-11704715D01*
X10123027Y-11696846D01*
X10124704Y-11694576D01*
X10124704Y-11694575D01*
X10125263Y-11693818D01*
X10129752Y-11681037D01*
X10130050Y-11677883D01*
X10130050Y-11655129D01*
X10132050Y-11648317D01*
X10133741Y-11646220D01*
X10226937Y-11553023D01*
X10233168Y-11549620D01*
X10237666Y-11549465D01*
X10241678Y-11550050D01*
X10278322Y-11550050D01*
X10278777Y-11549983D01*
X10278777Y-11549983D01*
X10284243Y-11549178D01*
X10284243Y-11549178D01*
X10285211Y-11549036D01*
X10291309Y-11546042D01*
X10294751Y-11544352D01*
X10294751Y-11544352D01*
X10295686Y-11543893D01*
X10302517Y-11537050D01*
X10303194Y-11536372D01*
X10303194Y-11536372D01*
X10303929Y-11535635D01*
X10305341Y-11532748D01*
X10308624Y-11526031D01*
X10309054Y-11525152D01*
X10310050Y-11518322D01*
X10310050Y-11429038D01*
X10369200Y-11429038D01*
X10369648Y-11430562D01*
X10369787Y-11430683D01*
X10370555Y-11430850D01*
X10422789Y-11430850D01*
X10424312Y-11430402D01*
X10424433Y-11430263D01*
X10424600Y-11429495D01*
X10424600Y-11429038D01*
X10475400Y-11429038D01*
X10475848Y-11430562D01*
X10475987Y-11430683D01*
X10476755Y-11430850D01*
X10528988Y-11430850D01*
X10530512Y-11430402D01*
X10530633Y-11430263D01*
X10530800Y-11429495D01*
X10530800Y-11391102D01*
X10530781Y-11390608D01*
X10530557Y-11387766D01*
X10530327Y-11386507D01*
X10526089Y-11371921D01*
X10525465Y-11370478D01*
X10517809Y-11357532D01*
X10516845Y-11356290D01*
X10506210Y-11345655D01*
X10504968Y-11344691D01*
X10492022Y-11337035D01*
X10490579Y-11336411D01*
X10477140Y-11332506D01*
X10475729Y-11332510D01*
X10475400Y-11333237D01*
X10475400Y-11429038D01*
X10424600Y-11429038D01*
X10424600Y-11333812D01*
X10424203Y-11332459D01*
X10423413Y-11332346D01*
X10409421Y-11336411D01*
X10407978Y-11337035D01*
X10395032Y-11344691D01*
X10393790Y-11345655D01*
X10383155Y-11356290D01*
X10382191Y-11357532D01*
X10374535Y-11370478D01*
X10373911Y-11371921D01*
X10369673Y-11386506D01*
X10369443Y-11387767D01*
X10369219Y-11390608D01*
X10369200Y-11391101D01*
X10369200Y-11429038D01*
X10310050Y-11429038D01*
X10310050Y-11394178D01*
X10309877Y-11393003D01*
X10309178Y-11388257D01*
X10309178Y-11388257D01*
X10309036Y-11387289D01*
X10305472Y-11380030D01*
X10304352Y-11377749D01*
X10304352Y-11377749D01*
X10303893Y-11376814D01*
X10295635Y-11368571D01*
X10294680Y-11368104D01*
X10291454Y-11366527D01*
X10285152Y-11363446D01*
X10281997Y-11362986D01*
X10278774Y-11362516D01*
X10278774Y-11362516D01*
X10278322Y-11362450D01*
X10241678Y-11362450D01*
X10241223Y-11362517D01*
X10241223Y-11362517D01*
X10235757Y-11363322D01*
X10235757Y-11363322D01*
X10234789Y-11363464D01*
X10229799Y-11365914D01*
X10225249Y-11368148D01*
X10225249Y-11368148D01*
X10224315Y-11368607D01*
X10223579Y-11369344D01*
X10223579Y-11369344D01*
X10219131Y-11373799D01*
X10216071Y-11376865D01*
X10215613Y-11377801D01*
X10215613Y-11377801D01*
X10215413Y-11378210D01*
X10210946Y-11387348D01*
X10209950Y-11394178D01*
X10209950Y-11437371D01*
X10207950Y-11444183D01*
X10206260Y-11446280D01*
X10167080Y-11485459D01*
X10160849Y-11488862D01*
X10158171Y-11489150D01*
X9921012Y-11489150D01*
X9919488Y-11489597D01*
X9919367Y-11489736D01*
X9919200Y-11490505D01*
X9919200Y-11494709D01*
X9919234Y-11495361D01*
X9920226Y-11504921D01*
X9920515Y-11506260D01*
X9925659Y-11521678D01*
X9926276Y-11522996D01*
X9934806Y-11536781D01*
X9935710Y-11537921D01*
X9947183Y-11549374D01*
X9948324Y-11550275D01*
X9962124Y-11558782D01*
X9963442Y-11559396D01*
X9966441Y-11560391D01*
X9972277Y-11564434D01*
X9975001Y-11570990D01*
X9973747Y-11577979D01*
X9969960Y-11582485D01*
X9963542Y-11587225D01*
X9963542Y-11587226D01*
X9962785Y-11587785D01*
X9962226Y-11588542D01*
X9955296Y-11597924D01*
X9955296Y-11597925D01*
X9954737Y-11598682D01*
X9950248Y-11611463D01*
X9949950Y-11614617D01*
X9949950Y-11677883D01*
X9950248Y-11681037D01*
X9952549Y-11687587D01*
X9953146Y-11689288D01*
X9953516Y-11696378D01*
X9950167Y-11702373D01*
X9921280Y-11731259D01*
X9915049Y-11734662D01*
X9912371Y-11734950D01*
X9854547Y-11734950D01*
X9847735Y-11732950D01*
X9843086Y-11727584D01*
X9842075Y-11720557D01*
X9845025Y-11714099D01*
X9847061Y-11712215D01*
X9847076Y-11712204D01*
X9857215Y-11704715D01*
X9863027Y-11696846D01*
X9864704Y-11694576D01*
X9864704Y-11694575D01*
X9865263Y-11693818D01*
X9869752Y-11681037D01*
X9870050Y-11677883D01*
X9870050Y-11614617D01*
X9869752Y-11611463D01*
X9865263Y-11598682D01*
X9864704Y-11597925D01*
X9864704Y-11597924D01*
X9857774Y-11588542D01*
X9857215Y-11587785D01*
X9855069Y-11586200D01*
X9847076Y-11580296D01*
X9847075Y-11580296D01*
X9846318Y-11579737D01*
X9833537Y-11575248D01*
X9832772Y-11575176D01*
X9832772Y-11575176D01*
X9832175Y-11575119D01*
X9830383Y-11574950D01*
X9729617Y-11574950D01*
X9727825Y-11575119D01*
X9727228Y-11575176D01*
X9727228Y-11575176D01*
X9726463Y-11575248D01*
X9717286Y-11578471D01*
X9710197Y-11578840D01*
X9704202Y-11575492D01*
X9583741Y-11455030D01*
X9580338Y-11448799D01*
X9580050Y-11446121D01*
X9580050Y-11432117D01*
X9579752Y-11428963D01*
X9575263Y-11416182D01*
X9574704Y-11415425D01*
X9574704Y-11415424D01*
X9567774Y-11406042D01*
X9567215Y-11405285D01*
X9560396Y-11400248D01*
X9560164Y-11400077D01*
X9555873Y-11394421D01*
X9555050Y-11389942D01*
X9555050Y-11290000D01*
X9629432Y-11290000D01*
X9631496Y-11305676D01*
X9637546Y-11320284D01*
X9638049Y-11320939D01*
X9642346Y-11326539D01*
X9644906Y-11333162D01*
X9644950Y-11334210D01*
X9644950Y-11391578D01*
X9644863Y-11393059D01*
X9644464Y-11396431D01*
X9644633Y-11397357D01*
X9644633Y-11397357D01*
X9645517Y-11402200D01*
X9645582Y-11402590D01*
X9646101Y-11406042D01*
X9646455Y-11408396D01*
X9646768Y-11409047D01*
X9646898Y-11409757D01*
X9649603Y-11414965D01*
X9649777Y-11415314D01*
X9652319Y-11420608D01*
X9652808Y-11421136D01*
X9652811Y-11421141D01*
X9653142Y-11421779D01*
X9653573Y-11422283D01*
X9657295Y-11426005D01*
X9657638Y-11426362D01*
X9661515Y-11430556D01*
X9662151Y-11430925D01*
X9662766Y-11431477D01*
X9686260Y-11454970D01*
X9689662Y-11461201D01*
X9689950Y-11463879D01*
X9689950Y-11495383D01*
X9690248Y-11498537D01*
X9694737Y-11511318D01*
X9695296Y-11512075D01*
X9695296Y-11512076D01*
X9699909Y-11518322D01*
X9702785Y-11522215D01*
X9703542Y-11522774D01*
X9712924Y-11529704D01*
X9712925Y-11529704D01*
X9713682Y-11530263D01*
X9726463Y-11534752D01*
X9727228Y-11534824D01*
X9727228Y-11534824D01*
X9727825Y-11534881D01*
X9729617Y-11535050D01*
X9830383Y-11535050D01*
X9832175Y-11534881D01*
X9832772Y-11534824D01*
X9832772Y-11534824D01*
X9833537Y-11534752D01*
X9846318Y-11530263D01*
X9847075Y-11529704D01*
X9847076Y-11529704D01*
X9856458Y-11522774D01*
X9857215Y-11522215D01*
X9860091Y-11518322D01*
X9864704Y-11512076D01*
X9864704Y-11512075D01*
X9865263Y-11511318D01*
X9869752Y-11498537D01*
X9870050Y-11495383D01*
X9870050Y-11436538D01*
X9919200Y-11436538D01*
X9919648Y-11438062D01*
X9919787Y-11438183D01*
X9920555Y-11438350D01*
X10012789Y-11438350D01*
X10014312Y-11437902D01*
X10014433Y-11437763D01*
X10014600Y-11436995D01*
X10014600Y-11436538D01*
X10065400Y-11436538D01*
X10065848Y-11438062D01*
X10065987Y-11438183D01*
X10066755Y-11438350D01*
X10158988Y-11438350D01*
X10160512Y-11437902D01*
X10160633Y-11437763D01*
X10160800Y-11436995D01*
X10160800Y-11432790D01*
X10160766Y-11432139D01*
X10159774Y-11422579D01*
X10159485Y-11421240D01*
X10154341Y-11405822D01*
X10153724Y-11404504D01*
X10145194Y-11390719D01*
X10144290Y-11389579D01*
X10132817Y-11378126D01*
X10131676Y-11377225D01*
X10117876Y-11368718D01*
X10116558Y-11368104D01*
X10101129Y-11362986D01*
X10099791Y-11362699D01*
X10090356Y-11361733D01*
X10089715Y-11361700D01*
X10067212Y-11361700D01*
X10065688Y-11362147D01*
X10065567Y-11362286D01*
X10065400Y-11363055D01*
X10065400Y-11436538D01*
X10014600Y-11436538D01*
X10014600Y-11363512D01*
X10014153Y-11361988D01*
X10014014Y-11361867D01*
X10013245Y-11361700D01*
X9990291Y-11361700D01*
X9989639Y-11361734D01*
X9980079Y-11362726D01*
X9978740Y-11363015D01*
X9963322Y-11368159D01*
X9962004Y-11368776D01*
X9948219Y-11377306D01*
X9947079Y-11378210D01*
X9935626Y-11389683D01*
X9934725Y-11390824D01*
X9926218Y-11404624D01*
X9925604Y-11405942D01*
X9920486Y-11421371D01*
X9920200Y-11422709D01*
X9919233Y-11432144D01*
X9919200Y-11432785D01*
X9919200Y-11436538D01*
X9870050Y-11436538D01*
X9870050Y-11432117D01*
X9869752Y-11428963D01*
X9865263Y-11416182D01*
X9864704Y-11415425D01*
X9864704Y-11415424D01*
X9857774Y-11406042D01*
X9857215Y-11405285D01*
X9850740Y-11400503D01*
X9847076Y-11397796D01*
X9847075Y-11397796D01*
X9846318Y-11397237D01*
X9833537Y-11392748D01*
X9832772Y-11392676D01*
X9832772Y-11392676D01*
X9832175Y-11392619D01*
X9830383Y-11392450D01*
X9756379Y-11392450D01*
X9749567Y-11390450D01*
X9747470Y-11388759D01*
X9738741Y-11380030D01*
X9735338Y-11373799D01*
X9735050Y-11371121D01*
X9735050Y-11334210D01*
X9737050Y-11327398D01*
X9737654Y-11326539D01*
X9741951Y-11320939D01*
X9742454Y-11320284D01*
X9748504Y-11305676D01*
X9750568Y-11290000D01*
X9748504Y-11274324D01*
X9742454Y-11259716D01*
X9732828Y-11247172D01*
X9720284Y-11237546D01*
X9705676Y-11231496D01*
X9690000Y-11229432D01*
X9674324Y-11231496D01*
X9659716Y-11237546D01*
X9647172Y-11247172D01*
X9637546Y-11259716D01*
X9631496Y-11274324D01*
X9629432Y-11290000D01*
X9555050Y-11290000D01*
X9555050Y-11129379D01*
X9557050Y-11122567D01*
X9558741Y-11120470D01*
X9587255Y-11091956D01*
X9593486Y-11088553D01*
X9600058Y-11088882D01*
X9604747Y-11090406D01*
X9604748Y-11090406D01*
X9605333Y-11090596D01*
X9625789Y-11093035D01*
X9626403Y-11092988D01*
X9626403Y-11092988D01*
X9633663Y-11092429D01*
X9646330Y-11091455D01*
X9646923Y-11091289D01*
X9646923Y-11091289D01*
X9665580Y-11086080D01*
X9665580Y-11086080D01*
X9666173Y-11085915D01*
X9666721Y-11085637D01*
X9666722Y-11085637D01*
X9680491Y-11078682D01*
X9684561Y-11076626D01*
X9686135Y-11075397D01*
X9700310Y-11064321D01*
X9700795Y-11063942D01*
X9706599Y-11057218D01*
X9713854Y-11048813D01*
X9713854Y-11048813D01*
X9714256Y-11048347D01*
X9715267Y-11046568D01*
X9724128Y-11030971D01*
X9724432Y-11030434D01*
X9730935Y-11010886D01*
X9733517Y-10990447D01*
X9733558Y-10987500D01*
X9733414Y-10986026D01*
X9776452Y-10986026D01*
X9778176Y-11006555D01*
X9778346Y-11007148D01*
X9778346Y-11007148D01*
X9782940Y-11023168D01*
X9783854Y-11026359D01*
X9784136Y-11026906D01*
X9784136Y-11026907D01*
X9791732Y-11041687D01*
X9793271Y-11044682D01*
X9806068Y-11060827D01*
X9806537Y-11061226D01*
X9806537Y-11061227D01*
X9813954Y-11067539D01*
X9821756Y-11074179D01*
X9822294Y-11074480D01*
X9822294Y-11074480D01*
X9829448Y-11078478D01*
X9839740Y-11084230D01*
X9848128Y-11086955D01*
X9858747Y-11090406D01*
X9858748Y-11090406D01*
X9859333Y-11090596D01*
X9879789Y-11093035D01*
X9880403Y-11092988D01*
X9880403Y-11092988D01*
X9887663Y-11092429D01*
X9900330Y-11091455D01*
X9900923Y-11091289D01*
X9900923Y-11091289D01*
X9919580Y-11086080D01*
X9919580Y-11086080D01*
X9920173Y-11085915D01*
X9920721Y-11085637D01*
X9920722Y-11085637D01*
X9934491Y-11078682D01*
X9938561Y-11076626D01*
X9940135Y-11075397D01*
X9954310Y-11064321D01*
X9954795Y-11063942D01*
X9960599Y-11057218D01*
X9967854Y-11048813D01*
X9967854Y-11048813D01*
X9968256Y-11048347D01*
X9969267Y-11046568D01*
X9978128Y-11030971D01*
X9978432Y-11030434D01*
X9979327Y-11027744D01*
X9980850Y-11023168D01*
X9984898Y-11017335D01*
X9991457Y-11014618D01*
X9998444Y-11015877D01*
X10003641Y-11020714D01*
X10005097Y-11024375D01*
X10005856Y-11027744D01*
X10006165Y-11028728D01*
X10014177Y-11048460D01*
X10014641Y-11049379D01*
X10025769Y-11067539D01*
X10026378Y-11068370D01*
X10040321Y-11084467D01*
X10041058Y-11085188D01*
X10057443Y-11098792D01*
X10058288Y-11099383D01*
X10076676Y-11110128D01*
X10077604Y-11110573D01*
X10097500Y-11118170D01*
X10098490Y-11118458D01*
X10108825Y-11120561D01*
X10110230Y-11120441D01*
X10110600Y-11119407D01*
X10110600Y-11119352D01*
X10161400Y-11119352D01*
X10161806Y-11120736D01*
X10163148Y-11120939D01*
X10163818Y-11120853D01*
X10164826Y-11120639D01*
X10185226Y-11114519D01*
X10186184Y-11114143D01*
X10205310Y-11104774D01*
X10206195Y-11104246D01*
X10223533Y-11091879D01*
X10224320Y-11091214D01*
X10239405Y-11076181D01*
X10240073Y-11075397D01*
X10252500Y-11058102D01*
X10253031Y-11057218D01*
X10261054Y-11040985D01*
X10265866Y-11035764D01*
X10272736Y-11033974D01*
X10279483Y-11036182D01*
X10283966Y-11041687D01*
X10284950Y-11046568D01*
X10284950Y-11074475D01*
X10285071Y-11075082D01*
X10285433Y-11076903D01*
X10286113Y-11080323D01*
X10290545Y-11086955D01*
X10297177Y-11091387D01*
X10298394Y-11091629D01*
X10298394Y-11091629D01*
X10301188Y-11092185D01*
X10303025Y-11092550D01*
X10352350Y-11092550D01*
X10359162Y-11094550D01*
X10363811Y-11099916D01*
X10364950Y-11105150D01*
X10364950Y-11145328D01*
X10364863Y-11146809D01*
X10364464Y-11150181D01*
X10364633Y-11151107D01*
X10364633Y-11151108D01*
X10365517Y-11155950D01*
X10365582Y-11156340D01*
X10366455Y-11162146D01*
X10366768Y-11162798D01*
X10366898Y-11163507D01*
X10369603Y-11168715D01*
X10369777Y-11169064D01*
X10372319Y-11174358D01*
X10372808Y-11174887D01*
X10372811Y-11174891D01*
X10373142Y-11175529D01*
X10373573Y-11176033D01*
X10377295Y-11179756D01*
X10377638Y-11180112D01*
X10381515Y-11184306D01*
X10382151Y-11184675D01*
X10382766Y-11185227D01*
X10616260Y-11418720D01*
X10619662Y-11424951D01*
X10619950Y-11427629D01*
X10619950Y-11480383D01*
X10620248Y-11483537D01*
X10624737Y-11496318D01*
X10625296Y-11497075D01*
X10625296Y-11497076D01*
X10631090Y-11504921D01*
X10632785Y-11507215D01*
X10633542Y-11507774D01*
X10642924Y-11514704D01*
X10642925Y-11514704D01*
X10643682Y-11515263D01*
X10656463Y-11519752D01*
X10657228Y-11519824D01*
X10657228Y-11519824D01*
X10657825Y-11519881D01*
X10659617Y-11520050D01*
X10760383Y-11520050D01*
X10762175Y-11519881D01*
X10762772Y-11519824D01*
X10762772Y-11519824D01*
X10763537Y-11519752D01*
X10776318Y-11515263D01*
X10777075Y-11514704D01*
X10777076Y-11514704D01*
X10786458Y-11507774D01*
X10787215Y-11507215D01*
X10787774Y-11506458D01*
X10787775Y-11506458D01*
X10793346Y-11498914D01*
X10799002Y-11494623D01*
X10803481Y-11493800D01*
X10884850Y-11493800D01*
X10891662Y-11495800D01*
X10896311Y-11501166D01*
X10897450Y-11506400D01*
X10897450Y-11540383D01*
X10897748Y-11543537D01*
X10902237Y-11556318D01*
X10902796Y-11557075D01*
X10902796Y-11557076D01*
X10908907Y-11565349D01*
X10910285Y-11567215D01*
X10913687Y-11569728D01*
X10914836Y-11570576D01*
X10919127Y-11576233D01*
X10919950Y-11580711D01*
X10919950Y-11893743D01*
X10918670Y-11899276D01*
X10915946Y-11904848D01*
X10914950Y-11911678D01*
X10914950Y-12035822D01*
X10915017Y-12036277D01*
X10915017Y-12036277D01*
X10915822Y-12041743D01*
X10915964Y-12042711D01*
X10921107Y-12053185D01*
X10929365Y-12061429D01*
X10930301Y-12061887D01*
X10930301Y-12061887D01*
X10933546Y-12063473D01*
X10939848Y-12066554D01*
X10942897Y-12066998D01*
X10946226Y-12067484D01*
X10946226Y-12067484D01*
X10946678Y-12067550D01*
X10983322Y-12067550D01*
X10983777Y-12067483D01*
X10983777Y-12067483D01*
X10989243Y-12066678D01*
X10989243Y-12066678D01*
X10990211Y-12066536D01*
X10997531Y-12062942D01*
X11004527Y-12061735D01*
X11011065Y-12064503D01*
X11015069Y-12070366D01*
X11015479Y-12071988D01*
X11015517Y-12072199D01*
X11015582Y-12072590D01*
X11016134Y-12076259D01*
X11016455Y-12078396D01*
X11016768Y-12079047D01*
X11016898Y-12079757D01*
X11019603Y-12084965D01*
X11019777Y-12085314D01*
X11022319Y-12090608D01*
X11022808Y-12091136D01*
X11022811Y-12091141D01*
X11023142Y-12091779D01*
X11023573Y-12092283D01*
X11027295Y-12096005D01*
X11027638Y-12096362D01*
X11031515Y-12100556D01*
X11032151Y-12100925D01*
X11032766Y-12101477D01*
X11085725Y-12154435D01*
X11086710Y-12155544D01*
X11088143Y-12157362D01*
X11088813Y-12158211D01*
X11089588Y-12158746D01*
X11089588Y-12158747D01*
X11092139Y-12160510D01*
X11093467Y-12161427D01*
X11093638Y-12161545D01*
X11093959Y-12161775D01*
X11098682Y-12165263D01*
X11099363Y-12165503D01*
X11099957Y-12165913D01*
X11100855Y-12166197D01*
X11100855Y-12166197D01*
X11102872Y-12166835D01*
X11105552Y-12167683D01*
X11105925Y-12167807D01*
X11110574Y-12169440D01*
X11110574Y-12169440D01*
X11111463Y-12169752D01*
X11112182Y-12169780D01*
X11112188Y-12169781D01*
X11112873Y-12169998D01*
X11113534Y-12170050D01*
X11118802Y-12170050D01*
X11119296Y-12170060D01*
X11124999Y-12170284D01*
X11125710Y-12170095D01*
X11126535Y-12170050D01*
X11436578Y-12170050D01*
X11438059Y-12170137D01*
X11441431Y-12170536D01*
X11442357Y-12170367D01*
X11442357Y-12170367D01*
X11447200Y-12169483D01*
X11447590Y-12169418D01*
X11452464Y-12168685D01*
X11452465Y-12168685D01*
X11453396Y-12168545D01*
X11454047Y-12168232D01*
X11454757Y-12168102D01*
X11459965Y-12165397D01*
X11460314Y-12165223D01*
X11465608Y-12162681D01*
X11466136Y-12162192D01*
X11466141Y-12162189D01*
X11466779Y-12161858D01*
X11467283Y-12161427D01*
X11471005Y-12157705D01*
X11471362Y-12157362D01*
X11474864Y-12154125D01*
X11475556Y-12153485D01*
X11475925Y-12152849D01*
X11476477Y-12152234D01*
X11549435Y-12079275D01*
X11550544Y-12078290D01*
X11552471Y-12076771D01*
X11552471Y-12076770D01*
X11553211Y-12076187D01*
X11553746Y-12075412D01*
X11553747Y-12075412D01*
X11556547Y-12071360D01*
X11556777Y-12071038D01*
X11559704Y-12067076D01*
X11559704Y-12067076D01*
X11560263Y-12066318D01*
X11560503Y-12065637D01*
X11560913Y-12065043D01*
X11561774Y-12062321D01*
X11562682Y-12059451D01*
X11562807Y-12059075D01*
X11564440Y-12054426D01*
X11564752Y-12053537D01*
X11564780Y-12052818D01*
X11564782Y-12052811D01*
X11564998Y-12052127D01*
X11565050Y-12051466D01*
X11565050Y-12046199D01*
X11565060Y-12045705D01*
X11565180Y-12042652D01*
X11565284Y-12040001D01*
X11565095Y-12039290D01*
X11565050Y-12038465D01*
X11565050Y-11869154D01*
X11567050Y-11862342D01*
X11572416Y-11857692D01*
X11573558Y-11857311D01*
X11573537Y-11857252D01*
X11579348Y-11855211D01*
X11586318Y-11852763D01*
X11587075Y-11852204D01*
X11587076Y-11852204D01*
X11596458Y-11845274D01*
X11597215Y-11844715D01*
X11601106Y-11839446D01*
X11604704Y-11834576D01*
X11604704Y-11834575D01*
X11605263Y-11833818D01*
X11609752Y-11821037D01*
X11610050Y-11817883D01*
X11610050Y-11754617D01*
X11609752Y-11751463D01*
X11605263Y-11738682D01*
X11604704Y-11737925D01*
X11604704Y-11737924D01*
X11597774Y-11728542D01*
X11597215Y-11727785D01*
X11592140Y-11724036D01*
X11587076Y-11720296D01*
X11587075Y-11720296D01*
X11586318Y-11719737D01*
X11573537Y-11715248D01*
X11572772Y-11715176D01*
X11572772Y-11715176D01*
X11572175Y-11715119D01*
X11570383Y-11714950D01*
X11469617Y-11714950D01*
X11467825Y-11715119D01*
X11467228Y-11715176D01*
X11467228Y-11715176D01*
X11466463Y-11715248D01*
X11453682Y-11719737D01*
X11452925Y-11720296D01*
X11452924Y-11720296D01*
X11447860Y-11724036D01*
X11442785Y-11727785D01*
X11442226Y-11728542D01*
X11435296Y-11737924D01*
X11435296Y-11737925D01*
X11434737Y-11738682D01*
X11430248Y-11751463D01*
X11429950Y-11754617D01*
X11429950Y-11817883D01*
X11430248Y-11821037D01*
X11434737Y-11833818D01*
X11435296Y-11834575D01*
X11435296Y-11834576D01*
X11438894Y-11839446D01*
X11442785Y-11844715D01*
X11443542Y-11845274D01*
X11452924Y-11852204D01*
X11452925Y-11852204D01*
X11453682Y-11852763D01*
X11460652Y-11855211D01*
X11466463Y-11857252D01*
X11466354Y-11857563D01*
X11471270Y-11860255D01*
X11474665Y-11866490D01*
X11474950Y-11869154D01*
X11474950Y-12021121D01*
X11472950Y-12027933D01*
X11471259Y-12030030D01*
X11425030Y-12076259D01*
X11418799Y-12079662D01*
X11416121Y-12079950D01*
X11202543Y-12079950D01*
X11195731Y-12077950D01*
X11191081Y-12072584D01*
X11190071Y-12065557D01*
X11193020Y-12059099D01*
X11193625Y-12058448D01*
X11198193Y-12053872D01*
X11198194Y-12053872D01*
X11198929Y-12053135D01*
X11204054Y-12042652D01*
X11205050Y-12035822D01*
X11205050Y-11911678D01*
X11204036Y-11904789D01*
X11203604Y-11903910D01*
X11203604Y-11903909D01*
X11201340Y-11899297D01*
X11200050Y-11893744D01*
X11200050Y-11635383D01*
X11429950Y-11635383D01*
X11430248Y-11638537D01*
X11434737Y-11651318D01*
X11435296Y-11652075D01*
X11435296Y-11652076D01*
X11437551Y-11655129D01*
X11442785Y-11662215D01*
X11443542Y-11662774D01*
X11452924Y-11669704D01*
X11452925Y-11669704D01*
X11453682Y-11670263D01*
X11466463Y-11674752D01*
X11467228Y-11674824D01*
X11467228Y-11674824D01*
X11467825Y-11674881D01*
X11469617Y-11675050D01*
X11570383Y-11675050D01*
X11572175Y-11674881D01*
X11572772Y-11674824D01*
X11572772Y-11674824D01*
X11573537Y-11674752D01*
X11586318Y-11670263D01*
X11587075Y-11669704D01*
X11587076Y-11669704D01*
X11596458Y-11662774D01*
X11597215Y-11662215D01*
X11602449Y-11655129D01*
X11604704Y-11652076D01*
X11604704Y-11652075D01*
X11605263Y-11651318D01*
X11609752Y-11638537D01*
X11610050Y-11635383D01*
X11610050Y-11572117D01*
X11609752Y-11568963D01*
X11605263Y-11556182D01*
X11604704Y-11555425D01*
X11604704Y-11555424D01*
X11597774Y-11546042D01*
X11597215Y-11545285D01*
X11591325Y-11540934D01*
X11587076Y-11537796D01*
X11587075Y-11537796D01*
X11586318Y-11537237D01*
X11573537Y-11532748D01*
X11573646Y-11532437D01*
X11568730Y-11529745D01*
X11565335Y-11523510D01*
X11565050Y-11520846D01*
X11565050Y-11123879D01*
X11567050Y-11117067D01*
X11568740Y-11114970D01*
X11864435Y-10819275D01*
X11865544Y-10818290D01*
X11867471Y-10816771D01*
X11867471Y-10816770D01*
X11868211Y-10816187D01*
X11868746Y-10815413D01*
X11868747Y-10815412D01*
X11871548Y-10811360D01*
X11871776Y-10811040D01*
X11875263Y-10806318D01*
X11875503Y-10805637D01*
X11875913Y-10805043D01*
X11877681Y-10799453D01*
X11877806Y-10799079D01*
X11879440Y-10794426D01*
X11879440Y-10794425D01*
X11879752Y-10793537D01*
X11879780Y-10792818D01*
X11879782Y-10792811D01*
X11879998Y-10792127D01*
X11880050Y-10791466D01*
X11880050Y-10786199D01*
X11880060Y-10785705D01*
X11880247Y-10780942D01*
X11880284Y-10780001D01*
X11880095Y-10779290D01*
X11880050Y-10778465D01*
X11880050Y-10652584D01*
X11882050Y-10645771D01*
X11887416Y-10641122D01*
X11891393Y-10640050D01*
X11891975Y-10640050D01*
X11892582Y-10639929D01*
X11896606Y-10639129D01*
X11896606Y-10639129D01*
X11897823Y-10638887D01*
X11904455Y-10634455D01*
X11908887Y-10627823D01*
X11909350Y-10625496D01*
X11909554Y-10624467D01*
X12059200Y-10624467D01*
X12059237Y-10625149D01*
X12059789Y-10630235D01*
X12060152Y-10631760D01*
X12064668Y-10643805D01*
X12065521Y-10645365D01*
X12073171Y-10655572D01*
X12074428Y-10656829D01*
X12084635Y-10664479D01*
X12086195Y-10665332D01*
X12098239Y-10669848D01*
X12099765Y-10670211D01*
X12104851Y-10670763D01*
X12105533Y-10670800D01*
X12147788Y-10670800D01*
X12149312Y-10670353D01*
X12149433Y-10670214D01*
X12149600Y-10669445D01*
X12149600Y-10668988D01*
X12200400Y-10668988D01*
X12200847Y-10670512D01*
X12200986Y-10670633D01*
X12201755Y-10670800D01*
X12244467Y-10670800D01*
X12245149Y-10670763D01*
X12250235Y-10670211D01*
X12251760Y-10669848D01*
X12263805Y-10665332D01*
X12265365Y-10664479D01*
X12275572Y-10656829D01*
X12276828Y-10655572D01*
X12284479Y-10645365D01*
X12285332Y-10643805D01*
X12289848Y-10631761D01*
X12290210Y-10630235D01*
X12290763Y-10625149D01*
X12290800Y-10624467D01*
X12290800Y-10562212D01*
X12290352Y-10560688D01*
X12290213Y-10560567D01*
X12289445Y-10560400D01*
X12202211Y-10560400D01*
X12200688Y-10560848D01*
X12200567Y-10560987D01*
X12200400Y-10561755D01*
X12200400Y-10668988D01*
X12149600Y-10668988D01*
X12149600Y-10562212D01*
X12149152Y-10560688D01*
X12149013Y-10560567D01*
X12148245Y-10560400D01*
X12061012Y-10560400D01*
X12059488Y-10560848D01*
X12059367Y-10560987D01*
X12059200Y-10561755D01*
X12059200Y-10624467D01*
X11909554Y-10624467D01*
X11909929Y-10622582D01*
X11910050Y-10621975D01*
X11910050Y-10507789D01*
X12059200Y-10507789D01*
X12059647Y-10509312D01*
X12059786Y-10509433D01*
X12060555Y-10509600D01*
X12147788Y-10509600D01*
X12149312Y-10509153D01*
X12149433Y-10509014D01*
X12149600Y-10508245D01*
X12149600Y-10507789D01*
X12200400Y-10507789D01*
X12200847Y-10509312D01*
X12200986Y-10509433D01*
X12201755Y-10509600D01*
X12288988Y-10509600D01*
X12290512Y-10509153D01*
X12290633Y-10509014D01*
X12290800Y-10508245D01*
X12290800Y-10445533D01*
X12290763Y-10444851D01*
X12290210Y-10439765D01*
X12289848Y-10438240D01*
X12285332Y-10426195D01*
X12284479Y-10424635D01*
X12276828Y-10414428D01*
X12275572Y-10413172D01*
X12265365Y-10405521D01*
X12263805Y-10404668D01*
X12251761Y-10400152D01*
X12250235Y-10399790D01*
X12245149Y-10399237D01*
X12244467Y-10399200D01*
X12202211Y-10399200D01*
X12200688Y-10399648D01*
X12200567Y-10399787D01*
X12200400Y-10400555D01*
X12200400Y-10507789D01*
X12149600Y-10507789D01*
X12149600Y-10401012D01*
X12149152Y-10399488D01*
X12149013Y-10399367D01*
X12148245Y-10399200D01*
X12105533Y-10399200D01*
X12104851Y-10399237D01*
X12099765Y-10399790D01*
X12098240Y-10400152D01*
X12086195Y-10404668D01*
X12084635Y-10405521D01*
X12074428Y-10413172D01*
X12073171Y-10414428D01*
X12065521Y-10424635D01*
X12064668Y-10426195D01*
X12060152Y-10438239D01*
X12059789Y-10439765D01*
X12059237Y-10444851D01*
X12059200Y-10445533D01*
X12059200Y-10507789D01*
X11910050Y-10507789D01*
X11910050Y-10448025D01*
X11908887Y-10442177D01*
X11907275Y-10439765D01*
X11905145Y-10436577D01*
X11905144Y-10436576D01*
X11904455Y-10435545D01*
X11903650Y-10435007D01*
X11900338Y-10428942D01*
X11900050Y-10426263D01*
X11900050Y-10200150D01*
X11902050Y-10193338D01*
X11907416Y-10188689D01*
X11912650Y-10187550D01*
X11940383Y-10187550D01*
X11942175Y-10187381D01*
X11942772Y-10187324D01*
X11942772Y-10187324D01*
X11943537Y-10187252D01*
X11956318Y-10182763D01*
X11957075Y-10182204D01*
X11957076Y-10182204D01*
X11966458Y-10175274D01*
X11967215Y-10174715D01*
X11972538Y-10167508D01*
X11974704Y-10164576D01*
X11974704Y-10164575D01*
X11975263Y-10163818D01*
X11977371Y-10157817D01*
X11981515Y-10152053D01*
X11988118Y-10149444D01*
X11995083Y-10150819D01*
X12000461Y-10156223D01*
X12006062Y-10167098D01*
X12006707Y-10168102D01*
X12019026Y-10183786D01*
X12019850Y-10184651D01*
X12034912Y-10197721D01*
X12035885Y-10198415D01*
X12053147Y-10208401D01*
X12054233Y-10208898D01*
X12073073Y-10215441D01*
X12073172Y-10215465D01*
X12074201Y-10215318D01*
X12074600Y-10213962D01*
X12074600Y-10213540D01*
X12125400Y-10213540D01*
X12125797Y-10214893D01*
X12126740Y-10215029D01*
X12135654Y-10212881D01*
X12136783Y-10212492D01*
X12154938Y-10204237D01*
X12155972Y-10203642D01*
X12172240Y-10192103D01*
X12173142Y-10191324D01*
X12186934Y-10176917D01*
X12187674Y-10175980D01*
X12198492Y-10159226D01*
X12199042Y-10158166D01*
X12206496Y-10139669D01*
X12206835Y-10138523D01*
X12210686Y-10118807D01*
X12210793Y-10117921D01*
X12210800Y-10117650D01*
X12210800Y-10107212D01*
X12210352Y-10105688D01*
X12210213Y-10105567D01*
X12209445Y-10105400D01*
X12127211Y-10105400D01*
X12125688Y-10105848D01*
X12125567Y-10105987D01*
X12125400Y-10106755D01*
X12125400Y-10213540D01*
X12074600Y-10213540D01*
X12074600Y-10052789D01*
X12125400Y-10052789D01*
X12125847Y-10054312D01*
X12125986Y-10054433D01*
X12126755Y-10054600D01*
X12208988Y-10054600D01*
X12210512Y-10054153D01*
X12210633Y-10054014D01*
X12210800Y-10053245D01*
X12210800Y-10047517D01*
X12210771Y-10046919D01*
X12209353Y-10032051D01*
X12209127Y-10030877D01*
X12203513Y-10011740D01*
X12203070Y-10010633D01*
X12193938Y-9992902D01*
X12193293Y-9991898D01*
X12180974Y-9976214D01*
X12180150Y-9975349D01*
X12165088Y-9962279D01*
X12164115Y-9961585D01*
X12146853Y-9951599D01*
X12145767Y-9951102D01*
X12126927Y-9944559D01*
X12126828Y-9944535D01*
X12125799Y-9944682D01*
X12125400Y-9946039D01*
X12125400Y-10052789D01*
X12074600Y-10052789D01*
X12074600Y-9946460D01*
X12074203Y-9945107D01*
X12073260Y-9944971D01*
X12064346Y-9947119D01*
X12063217Y-9947508D01*
X12045062Y-9955763D01*
X12044028Y-9956358D01*
X12027760Y-9967897D01*
X12026857Y-9968676D01*
X12013066Y-9983083D01*
X12012326Y-9984020D01*
X12001508Y-10000774D01*
X12000958Y-10001834D01*
X12000786Y-10002263D01*
X11996384Y-10007833D01*
X11989669Y-10010140D01*
X11982774Y-10008450D01*
X11977886Y-10003300D01*
X11977211Y-10001727D01*
X11976876Y-10000774D01*
X11975263Y-9996182D01*
X11974704Y-9995425D01*
X11974704Y-9995424D01*
X11967774Y-9986042D01*
X11967215Y-9985285D01*
X11964234Y-9983083D01*
X11957076Y-9977796D01*
X11957075Y-9977796D01*
X11956318Y-9977237D01*
X11943537Y-9972748D01*
X11942772Y-9972676D01*
X11942772Y-9972676D01*
X11942175Y-9972619D01*
X11940383Y-9972450D01*
X11859617Y-9972450D01*
X11857825Y-9972619D01*
X11857228Y-9972676D01*
X11857228Y-9972676D01*
X11856463Y-9972748D01*
X11843682Y-9977237D01*
X11842925Y-9977796D01*
X11842924Y-9977796D01*
X11835766Y-9983083D01*
X11832785Y-9985285D01*
X11832226Y-9986042D01*
X11825296Y-9995424D01*
X11825296Y-9995425D01*
X11824737Y-9996182D01*
X11820248Y-10008963D01*
X11819950Y-10012117D01*
X11819950Y-10055765D01*
X11817950Y-10062577D01*
X11816259Y-10064675D01*
X11782492Y-10098442D01*
X11781866Y-10099027D01*
X11777560Y-10102783D01*
X11774769Y-10106755D01*
X11773932Y-10107946D01*
X11773538Y-10108476D01*
X11770110Y-10112848D01*
X11770110Y-10112848D01*
X11769642Y-10113446D01*
X11769329Y-10114138D01*
X11769150Y-10114433D01*
X11768411Y-10115729D01*
X11768248Y-10116033D01*
X11767811Y-10116655D01*
X11767318Y-10117921D01*
X11765518Y-10122537D01*
X11765262Y-10123145D01*
X11762664Y-10128898D01*
X11762526Y-10129646D01*
X11762424Y-10129972D01*
X11762012Y-10131416D01*
X11761928Y-10131744D01*
X11761652Y-10132451D01*
X11761553Y-10133204D01*
X11760828Y-10138711D01*
X11760725Y-10139362D01*
X11759575Y-10145569D01*
X11759618Y-10146327D01*
X11759618Y-10146327D01*
X11759929Y-10151714D01*
X11759950Y-10152440D01*
X11759950Y-10419737D01*
X11757950Y-10426549D01*
X11752585Y-10431032D01*
X11752177Y-10431113D01*
X11745545Y-10435545D01*
X11741113Y-10442177D01*
X11739950Y-10448025D01*
X11739950Y-10621975D01*
X11740071Y-10622582D01*
X11740650Y-10625496D01*
X11741113Y-10627823D01*
X11745545Y-10634455D01*
X11752177Y-10638887D01*
X11753394Y-10639129D01*
X11753394Y-10639129D01*
X11757418Y-10639929D01*
X11758025Y-10640050D01*
X11777350Y-10640050D01*
X11784162Y-10642050D01*
X11788811Y-10647416D01*
X11789950Y-10652650D01*
X11789950Y-10761121D01*
X11787950Y-10767933D01*
X11786259Y-10770030D01*
X11490565Y-11065725D01*
X11489456Y-11066710D01*
X11487529Y-11068229D01*
X11487529Y-11068230D01*
X11486789Y-11068813D01*
X11486253Y-11069588D01*
X11486253Y-11069588D01*
X11483454Y-11073638D01*
X11483225Y-11073959D01*
X11479737Y-11078682D01*
X11479497Y-11079363D01*
X11479087Y-11079957D01*
X11477344Y-11085466D01*
X11477318Y-11085550D01*
X11477193Y-11085925D01*
X11475619Y-11090406D01*
X11475248Y-11091463D01*
X11475220Y-11092182D01*
X11475219Y-11092188D01*
X11475002Y-11092873D01*
X11474950Y-11093534D01*
X11474950Y-11098802D01*
X11474940Y-11099296D01*
X11474716Y-11104999D01*
X11474905Y-11105710D01*
X11474950Y-11106535D01*
X11474950Y-11520846D01*
X11472950Y-11527658D01*
X11467584Y-11532308D01*
X11466442Y-11532689D01*
X11466463Y-11532748D01*
X11453682Y-11537237D01*
X11452925Y-11537796D01*
X11452924Y-11537796D01*
X11448675Y-11540934D01*
X11442785Y-11545285D01*
X11442226Y-11546042D01*
X11435296Y-11555424D01*
X11435296Y-11555425D01*
X11434737Y-11556182D01*
X11430248Y-11568963D01*
X11429950Y-11572117D01*
X11429950Y-11635383D01*
X11200050Y-11635383D01*
X11200050Y-11580711D01*
X11202050Y-11573899D01*
X11205164Y-11570576D01*
X11206313Y-11569728D01*
X11209715Y-11567215D01*
X11211093Y-11565349D01*
X11217204Y-11557076D01*
X11217204Y-11557075D01*
X11217763Y-11556318D01*
X11222252Y-11543537D01*
X11222550Y-11540383D01*
X11222550Y-11439617D01*
X11222252Y-11436463D01*
X11217763Y-11423682D01*
X11217204Y-11422925D01*
X11217204Y-11422924D01*
X11210274Y-11413542D01*
X11209715Y-11412785D01*
X11205685Y-11409809D01*
X11199576Y-11405296D01*
X11199575Y-11405296D01*
X11198818Y-11404737D01*
X11186037Y-11400248D01*
X11186149Y-11399930D01*
X11180837Y-11396886D01*
X11180749Y-11396791D01*
X11179735Y-11395694D01*
X11179100Y-11395325D01*
X11178484Y-11394774D01*
X11044275Y-11260565D01*
X11043290Y-11259456D01*
X11041771Y-11257529D01*
X11041771Y-11257529D01*
X11041187Y-11256789D01*
X11040413Y-11256253D01*
X11040412Y-11256253D01*
X11036363Y-11253454D01*
X11036040Y-11253224D01*
X11032076Y-11250296D01*
X11032076Y-11250296D01*
X11031318Y-11249737D01*
X11030637Y-11249497D01*
X11030043Y-11249087D01*
X11029145Y-11248803D01*
X11029145Y-11248803D01*
X11026058Y-11247826D01*
X11024448Y-11247317D01*
X11024075Y-11247193D01*
X11019426Y-11245560D01*
X11019426Y-11245560D01*
X11018537Y-11245248D01*
X11017818Y-11245220D01*
X11017812Y-11245219D01*
X11017127Y-11245002D01*
X11016466Y-11244950D01*
X11011198Y-11244950D01*
X11010704Y-11244940D01*
X11005001Y-11244716D01*
X11004290Y-11244905D01*
X11003465Y-11244950D01*
X10809210Y-11244950D01*
X10802398Y-11242950D01*
X10801540Y-11242346D01*
X10795939Y-11238049D01*
X10795284Y-11237546D01*
X10780676Y-11231496D01*
X10765000Y-11229432D01*
X10749324Y-11231496D01*
X10734716Y-11237546D01*
X10722172Y-11247172D01*
X10712546Y-11259716D01*
X10706496Y-11274324D01*
X10704432Y-11290000D01*
X10706496Y-11305676D01*
X10712546Y-11320284D01*
X10722172Y-11332828D01*
X10734716Y-11342454D01*
X10749324Y-11348504D01*
X10765000Y-11350568D01*
X10765819Y-11350460D01*
X10779857Y-11348612D01*
X10780676Y-11348504D01*
X10795284Y-11342454D01*
X10801540Y-11337654D01*
X10808162Y-11335094D01*
X10809210Y-11335050D01*
X10986121Y-11335050D01*
X10992933Y-11337050D01*
X10995030Y-11338740D01*
X11077893Y-11421603D01*
X11081296Y-11427834D01*
X11080872Y-11434688D01*
X11080503Y-11435738D01*
X11080503Y-11435738D01*
X11080248Y-11436463D01*
X11079950Y-11439617D01*
X11079950Y-11540383D01*
X11080248Y-11543537D01*
X11084737Y-11556318D01*
X11085296Y-11557075D01*
X11085296Y-11557076D01*
X11087586Y-11560176D01*
X11092785Y-11567215D01*
X11093542Y-11567774D01*
X11102450Y-11574354D01*
X11103531Y-11575152D01*
X11103531Y-11575152D01*
X11103682Y-11575263D01*
X11103666Y-11575284D01*
X11108330Y-11579829D01*
X11109950Y-11586010D01*
X11109950Y-11685384D01*
X11107950Y-11692196D01*
X11102584Y-11696846D01*
X11095557Y-11697856D01*
X11091817Y-11696704D01*
X11085152Y-11693446D01*
X11082103Y-11693002D01*
X11078774Y-11692516D01*
X11078774Y-11692516D01*
X11078322Y-11692450D01*
X11041678Y-11692450D01*
X11041223Y-11692517D01*
X11041223Y-11692517D01*
X11035757Y-11693322D01*
X11035757Y-11693322D01*
X11034789Y-11693464D01*
X11029399Y-11696110D01*
X11028203Y-11696698D01*
X11021207Y-11697904D01*
X11014669Y-11695137D01*
X11010665Y-11689274D01*
X11010050Y-11685387D01*
X11010050Y-11586010D01*
X11012050Y-11579198D01*
X11016323Y-11575270D01*
X11016318Y-11575263D01*
X11016339Y-11575248D01*
X11017550Y-11574354D01*
X11026458Y-11567774D01*
X11027215Y-11567215D01*
X11032414Y-11560176D01*
X11034704Y-11557076D01*
X11034704Y-11557075D01*
X11035263Y-11556318D01*
X11039752Y-11543537D01*
X11040050Y-11540383D01*
X11040050Y-11439617D01*
X11039752Y-11436463D01*
X11035263Y-11423682D01*
X11034704Y-11422925D01*
X11034704Y-11422924D01*
X11027774Y-11413542D01*
X11027215Y-11412785D01*
X11023185Y-11409809D01*
X11017076Y-11405296D01*
X11017075Y-11405296D01*
X11016318Y-11404737D01*
X11003537Y-11400248D01*
X11002772Y-11400176D01*
X11002772Y-11400176D01*
X11002175Y-11400119D01*
X11000383Y-11399950D01*
X10937117Y-11399950D01*
X10935325Y-11400119D01*
X10934728Y-11400176D01*
X10934728Y-11400176D01*
X10933963Y-11400248D01*
X10926627Y-11402824D01*
X10923835Y-11403460D01*
X10923442Y-11403503D01*
X10922501Y-11403466D01*
X10921790Y-11403655D01*
X10920965Y-11403700D01*
X10803481Y-11403700D01*
X10796669Y-11401700D01*
X10793346Y-11398586D01*
X10787775Y-11391042D01*
X10787774Y-11391042D01*
X10787215Y-11390285D01*
X10785521Y-11389033D01*
X10777076Y-11382796D01*
X10777075Y-11382796D01*
X10776318Y-11382237D01*
X10763537Y-11377748D01*
X10762772Y-11377676D01*
X10762772Y-11377676D01*
X10762175Y-11377619D01*
X10760383Y-11377450D01*
X10707629Y-11377450D01*
X10700817Y-11375450D01*
X10698720Y-11373759D01*
X10458741Y-11133780D01*
X10455338Y-11127549D01*
X10455050Y-11124871D01*
X10455050Y-11105150D01*
X10457050Y-11098338D01*
X10462416Y-11093689D01*
X10467650Y-11092550D01*
X10476975Y-11092550D01*
X10478812Y-11092185D01*
X10481606Y-11091629D01*
X10481606Y-11091629D01*
X10482823Y-11091387D01*
X10489455Y-11086955D01*
X10493887Y-11080323D01*
X10494567Y-11076903D01*
X10494929Y-11075082D01*
X10495050Y-11074475D01*
X10495050Y-10900525D01*
X10493887Y-10894677D01*
X10489455Y-10888045D01*
X10482823Y-10883613D01*
X10481606Y-10883371D01*
X10481606Y-10883371D01*
X10477582Y-10882571D01*
X10476975Y-10882450D01*
X10303025Y-10882450D01*
X10302418Y-10882571D01*
X10298394Y-10883371D01*
X10298394Y-10883371D01*
X10297177Y-10883613D01*
X10290545Y-10888045D01*
X10286113Y-10894677D01*
X10284950Y-10900525D01*
X10284950Y-10928902D01*
X10282950Y-10935714D01*
X10277584Y-10940363D01*
X10270557Y-10941373D01*
X10264099Y-10938424D01*
X10260795Y-10933926D01*
X10256297Y-10923581D01*
X10255811Y-10922674D01*
X10244243Y-10904793D01*
X10243614Y-10903976D01*
X10229281Y-10888224D01*
X10228527Y-10887522D01*
X10211814Y-10874322D01*
X10210955Y-10873752D01*
X10192312Y-10863460D01*
X10191371Y-10863037D01*
X10171296Y-10855928D01*
X10170299Y-10855665D01*
X10163184Y-10854397D01*
X10161854Y-10854543D01*
X10161400Y-10855999D01*
X10161400Y-11119352D01*
X10110600Y-11119352D01*
X10110600Y-10855810D01*
X10110208Y-10854476D01*
X10108781Y-10854277D01*
X10104932Y-10854866D01*
X10103929Y-10855105D01*
X10083687Y-10861721D01*
X10082736Y-10862121D01*
X10063846Y-10871954D01*
X10062974Y-10872504D01*
X10045943Y-10885291D01*
X10045173Y-10885975D01*
X10030459Y-10901372D01*
X10029810Y-10902173D01*
X10017810Y-10919765D01*
X10017300Y-10920662D01*
X10008334Y-10939978D01*
X10007978Y-10940947D01*
X10005101Y-10951319D01*
X10001353Y-10957348D01*
X9994941Y-10960395D01*
X9987899Y-10959490D01*
X9982464Y-10954922D01*
X9980897Y-10951593D01*
X9980814Y-10951319D01*
X9979594Y-10947275D01*
X9969922Y-10929085D01*
X9962321Y-10919765D01*
X9957291Y-10913598D01*
X9957290Y-10913597D01*
X9956901Y-10913120D01*
X9954619Y-10911232D01*
X9950645Y-10905348D01*
X9950050Y-10901523D01*
X9950050Y-10625000D01*
X9952050Y-10618187D01*
X9957416Y-10613538D01*
X9964443Y-10612528D01*
X9970901Y-10615477D01*
X9974602Y-10621012D01*
X9975659Y-10624178D01*
X9976276Y-10625496D01*
X9984806Y-10639281D01*
X9985710Y-10640421D01*
X9997183Y-10651874D01*
X9998324Y-10652775D01*
X10012124Y-10661282D01*
X10013442Y-10661896D01*
X10028871Y-10667014D01*
X10030209Y-10667301D01*
X10039644Y-10668267D01*
X10040285Y-10668300D01*
X10042789Y-10668300D01*
X10044312Y-10667853D01*
X10044433Y-10667714D01*
X10044600Y-10666945D01*
X10044600Y-10666488D01*
X10095400Y-10666488D01*
X10095848Y-10668012D01*
X10095987Y-10668133D01*
X10096755Y-10668300D01*
X10099710Y-10668300D01*
X10100361Y-10668266D01*
X10109921Y-10667274D01*
X10111260Y-10666985D01*
X10126678Y-10661841D01*
X10127996Y-10661224D01*
X10141781Y-10652694D01*
X10142921Y-10651790D01*
X10154374Y-10640317D01*
X10155275Y-10639176D01*
X10163782Y-10625376D01*
X10164396Y-10624058D01*
X10169514Y-10608629D01*
X10169801Y-10607291D01*
X10170767Y-10597856D01*
X10170800Y-10597215D01*
X10170800Y-10572212D01*
X10170353Y-10570688D01*
X10170214Y-10570567D01*
X10169445Y-10570400D01*
X10097212Y-10570400D01*
X10095688Y-10570848D01*
X10095567Y-10570987D01*
X10095400Y-10571755D01*
X10095400Y-10666488D01*
X10044600Y-10666488D01*
X10044600Y-10517789D01*
X10095400Y-10517789D01*
X10095848Y-10519312D01*
X10095987Y-10519433D01*
X10096755Y-10519600D01*
X10168988Y-10519600D01*
X10170512Y-10519153D01*
X10170633Y-10519014D01*
X10170800Y-10518245D01*
X10170800Y-10492791D01*
X10170766Y-10492139D01*
X10169774Y-10482579D01*
X10169485Y-10481240D01*
X10164341Y-10465822D01*
X10163724Y-10464504D01*
X10155194Y-10450719D01*
X10154290Y-10449579D01*
X10142299Y-10437609D01*
X10142466Y-10437442D01*
X10139017Y-10432576D01*
X10138693Y-10425484D01*
X10142255Y-10419343D01*
X10143642Y-10418202D01*
X10152239Y-10412104D01*
X10153143Y-10411324D01*
X10166934Y-10396917D01*
X10167674Y-10395980D01*
X10178492Y-10379226D01*
X10179042Y-10378166D01*
X10186496Y-10359669D01*
X10186836Y-10358523D01*
X10190686Y-10338807D01*
X10190793Y-10337921D01*
X10190800Y-10337650D01*
X10190800Y-10327212D01*
X10190353Y-10325688D01*
X10190214Y-10325567D01*
X10189445Y-10325400D01*
X10107212Y-10325400D01*
X10105688Y-10325848D01*
X10105567Y-10325987D01*
X10105400Y-10326755D01*
X10105400Y-10430463D01*
X10103400Y-10437276D01*
X10098034Y-10441925D01*
X10096350Y-10442553D01*
X10095688Y-10442748D01*
X10095567Y-10442887D01*
X10095400Y-10443655D01*
X10095400Y-10517789D01*
X10044600Y-10517789D01*
X10044600Y-10429537D01*
X10046600Y-10422725D01*
X10051966Y-10418075D01*
X10053650Y-10417447D01*
X10054312Y-10417253D01*
X10054433Y-10417114D01*
X10054600Y-10416345D01*
X10054600Y-10272789D01*
X10105400Y-10272789D01*
X10105848Y-10274312D01*
X10105987Y-10274433D01*
X10106755Y-10274600D01*
X10188989Y-10274600D01*
X10190512Y-10274153D01*
X10190633Y-10274014D01*
X10190800Y-10273245D01*
X10190800Y-10267517D01*
X10190772Y-10266919D01*
X10189353Y-10252051D01*
X10189127Y-10250877D01*
X10183513Y-10231740D01*
X10183070Y-10230633D01*
X10173938Y-10212902D01*
X10173293Y-10211898D01*
X10160974Y-10196214D01*
X10160150Y-10195349D01*
X10145088Y-10182279D01*
X10144115Y-10181585D01*
X10126853Y-10171599D01*
X10125767Y-10171102D01*
X10106927Y-10164559D01*
X10106828Y-10164535D01*
X10105799Y-10164682D01*
X10105400Y-10166039D01*
X10105400Y-10272789D01*
X10054600Y-10272789D01*
X10054600Y-10166460D01*
X10054203Y-10165107D01*
X10053260Y-10164971D01*
X10044346Y-10167119D01*
X10043217Y-10167508D01*
X10025062Y-10175763D01*
X10024028Y-10176358D01*
X10007760Y-10187897D01*
X10006858Y-10188676D01*
X9993066Y-10203083D01*
X9992326Y-10204020D01*
X9981508Y-10220774D01*
X9980959Y-10221834D01*
X9980786Y-10222263D01*
X9976384Y-10227833D01*
X9969669Y-10230140D01*
X9962774Y-10228450D01*
X9957886Y-10223300D01*
X9957211Y-10221727D01*
X9956876Y-10220774D01*
X9955263Y-10216182D01*
X9954704Y-10215425D01*
X9954704Y-10215424D01*
X9947774Y-10206042D01*
X9947215Y-10205285D01*
X9944234Y-10203083D01*
X9937076Y-10197796D01*
X9937075Y-10197796D01*
X9936318Y-10197237D01*
X9923537Y-10192748D01*
X9922772Y-10192676D01*
X9922772Y-10192676D01*
X9922175Y-10192619D01*
X9920383Y-10192450D01*
X9839617Y-10192450D01*
X9837825Y-10192619D01*
X9837228Y-10192676D01*
X9837228Y-10192676D01*
X9836463Y-10192748D01*
X9823682Y-10197237D01*
X9822925Y-10197796D01*
X9822924Y-10197796D01*
X9815766Y-10203083D01*
X9812785Y-10205285D01*
X9812226Y-10206042D01*
X9805296Y-10215424D01*
X9805296Y-10215425D01*
X9804737Y-10216182D01*
X9800248Y-10228963D01*
X9799950Y-10232117D01*
X9799950Y-10367883D01*
X9800248Y-10371037D01*
X9804737Y-10383818D01*
X9805296Y-10384575D01*
X9805296Y-10384576D01*
X9807485Y-10387540D01*
X9809923Y-10394207D01*
X9809950Y-10395026D01*
X9809950Y-10905344D01*
X9807950Y-10912156D01*
X9807002Y-10913443D01*
X9794902Y-10927863D01*
X9794606Y-10928403D01*
X9794605Y-10928403D01*
X9788242Y-10939978D01*
X9784978Y-10945916D01*
X9778748Y-10965553D01*
X9778680Y-10966165D01*
X9778680Y-10966165D01*
X9776521Y-10985414D01*
X9776452Y-10986026D01*
X9733414Y-10986026D01*
X9731548Y-10966997D01*
X9725594Y-10947275D01*
X9715922Y-10929085D01*
X9708321Y-10919765D01*
X9703291Y-10913598D01*
X9703290Y-10913597D01*
X9702901Y-10913120D01*
X9701179Y-10911695D01*
X9687503Y-10900381D01*
X9687502Y-10900381D01*
X9687028Y-10899988D01*
X9668906Y-10890190D01*
X9649225Y-10884098D01*
X9648613Y-10884033D01*
X9648613Y-10884033D01*
X9629350Y-10882009D01*
X9629350Y-10882009D01*
X9628737Y-10881944D01*
X9620053Y-10882735D01*
X9608834Y-10883756D01*
X9608834Y-10883756D01*
X9608220Y-10883811D01*
X9588457Y-10889628D01*
X9570200Y-10899173D01*
X9569720Y-10899559D01*
X9569720Y-10899559D01*
X9562519Y-10905348D01*
X9554145Y-10912082D01*
X9540902Y-10927863D01*
X9540606Y-10928403D01*
X9540605Y-10928403D01*
X9534242Y-10939978D01*
X9530978Y-10945916D01*
X9524748Y-10965553D01*
X9524680Y-10966165D01*
X9524680Y-10966165D01*
X9522521Y-10985414D01*
X9522452Y-10986026D01*
X9524176Y-11006555D01*
X9526823Y-11015787D01*
X9526778Y-11022886D01*
X9523621Y-11028169D01*
X9480565Y-11071225D01*
X9479456Y-11072210D01*
X9477529Y-11073729D01*
X9477529Y-11073730D01*
X9476789Y-11074313D01*
X9476254Y-11075088D01*
X9476253Y-11075088D01*
X9473455Y-11079138D01*
X9473225Y-11079459D01*
X9469737Y-11084182D01*
X9469497Y-11084863D01*
X9469087Y-11085457D01*
X9467430Y-11090697D01*
X9467318Y-11091050D01*
X9467193Y-11091425D01*
X9466366Y-11093781D01*
X9465248Y-11096963D01*
X9465220Y-11097682D01*
X9465219Y-11097688D01*
X9465002Y-11098373D01*
X9464950Y-11099034D01*
X9464950Y-11104302D01*
X9464940Y-11104796D01*
X9464716Y-11110499D01*
X9464905Y-11111210D01*
X9464950Y-11112035D01*
X9464950Y-11379850D01*
X9462950Y-11386662D01*
X9457584Y-11391311D01*
X9452350Y-11392450D01*
X9439617Y-11392450D01*
X9437825Y-11392619D01*
X9437228Y-11392676D01*
X9437228Y-11392676D01*
X9436463Y-11392748D01*
X9423682Y-11397237D01*
X9422925Y-11397796D01*
X9422924Y-11397796D01*
X9419260Y-11400503D01*
X9412785Y-11405285D01*
X9412226Y-11406042D01*
X9405296Y-11415424D01*
X9405296Y-11415425D01*
X9404737Y-11416182D01*
X9400248Y-11428963D01*
X9399950Y-11432117D01*
X9399950Y-11495383D01*
X9400248Y-11498537D01*
X9404737Y-11511318D01*
X9405296Y-11512075D01*
X9405296Y-11512076D01*
X9409909Y-11518322D01*
X9412785Y-11522215D01*
X9413542Y-11522774D01*
X9422924Y-11529704D01*
X9422925Y-11529704D01*
X9423682Y-11530263D01*
X9436463Y-11534752D01*
X9437228Y-11534824D01*
X9437228Y-11534824D01*
X9437825Y-11534881D01*
X9439617Y-11535050D01*
X9531121Y-11535050D01*
X9537933Y-11537050D01*
X9540030Y-11538740D01*
X9555492Y-11554203D01*
X9558895Y-11560434D01*
X9558388Y-11567515D01*
X9554134Y-11573199D01*
X9547482Y-11575680D01*
X9544062Y-11575432D01*
X9543537Y-11575248D01*
X9542773Y-11575176D01*
X9542772Y-11575176D01*
X9541737Y-11575078D01*
X9540383Y-11574950D01*
X9439617Y-11574950D01*
X9437825Y-11575119D01*
X9437228Y-11575176D01*
X9437228Y-11575176D01*
X9436463Y-11575248D01*
X9423682Y-11579737D01*
X9422925Y-11580296D01*
X9422924Y-11580296D01*
X9414931Y-11586200D01*
X9412785Y-11587785D01*
X9412226Y-11588542D01*
X9405296Y-11597924D01*
X9405296Y-11597925D01*
X9404737Y-11598682D01*
X9400248Y-11611463D01*
X9399950Y-11614617D01*
X9399950Y-11677883D01*
X9400248Y-11681037D01*
X9404737Y-11693818D01*
X9405296Y-11694575D01*
X9405296Y-11694576D01*
X9406973Y-11696846D01*
X9412785Y-11704715D01*
X9414284Y-11705822D01*
X9422924Y-11712204D01*
X9422925Y-11712204D01*
X9423682Y-11712763D01*
X9436463Y-11717252D01*
X9437228Y-11717324D01*
X9437228Y-11717324D01*
X9437825Y-11717381D01*
X9439617Y-11717550D01*
X9465523Y-11717550D01*
X9472335Y-11719550D01*
X9476299Y-11724036D01*
X9476382Y-11723980D01*
X9476826Y-11724633D01*
X9476881Y-11724695D01*
X9477319Y-11725608D01*
X9477808Y-11726136D01*
X9477811Y-11726141D01*
X9478142Y-11726779D01*
X9478573Y-11727283D01*
X9482295Y-11731005D01*
X9482638Y-11731362D01*
X9486515Y-11735556D01*
X9487151Y-11735925D01*
X9487766Y-11736477D01*
X9560725Y-11809435D01*
X9561710Y-11810544D01*
X9563143Y-11812362D01*
X9563813Y-11813211D01*
X9564588Y-11813746D01*
X9564588Y-11813747D01*
X9568640Y-11816547D01*
X9568962Y-11816777D01*
X9570261Y-11817736D01*
X9573682Y-11820263D01*
X9574363Y-11820503D01*
X9574957Y-11820913D01*
X9575619Y-11821123D01*
X9580761Y-11825827D01*
X9582576Y-11832691D01*
X9580392Y-11839446D01*
X9574903Y-11843949D01*
X9569981Y-11844950D01*
X9479210Y-11844950D01*
X9472398Y-11842950D01*
X9471540Y-11842346D01*
X9465939Y-11838049D01*
X9465284Y-11837546D01*
X9450676Y-11831496D01*
X9435000Y-11829432D01*
X9419324Y-11831496D01*
X9404716Y-11837546D01*
X9392172Y-11847172D01*
X9382546Y-11859716D01*
X9376496Y-11874324D01*
X9374432Y-11890000D01*
X9105974Y-11890000D01*
X9109039Y-9575536D01*
X9829532Y-9575536D01*
X9830744Y-9600782D01*
X9835675Y-9625571D01*
X9835833Y-9626011D01*
X9835833Y-9626012D01*
X9844058Y-9648919D01*
X9844216Y-9649360D01*
X9856179Y-9671624D01*
X9856459Y-9671998D01*
X9856459Y-9671999D01*
X9871023Y-9691502D01*
X9871023Y-9691502D01*
X9871302Y-9691876D01*
X9871633Y-9692204D01*
X9871633Y-9692204D01*
X9888920Y-9709341D01*
X9889252Y-9709670D01*
X9889628Y-9709945D01*
X9889628Y-9709946D01*
X9909258Y-9724338D01*
X9909635Y-9724615D01*
X9910048Y-9724833D01*
X9910049Y-9724833D01*
X9921795Y-9731013D01*
X9932003Y-9736383D01*
X9955864Y-9744716D01*
X9956324Y-9744803D01*
X9980237Y-9749344D01*
X9980237Y-9749344D01*
X9980696Y-9749431D01*
X9992708Y-9749903D01*
X10005485Y-9750405D01*
X10005485Y-9750405D01*
X10005951Y-9750423D01*
X10013766Y-9749567D01*
X10030611Y-9747722D01*
X10030611Y-9747722D01*
X10031076Y-9747671D01*
X10042886Y-9744562D01*
X10055066Y-9741355D01*
X10055066Y-9741355D01*
X10055518Y-9741236D01*
X10078741Y-9731259D01*
X10089477Y-9724615D01*
X10099836Y-9718205D01*
X10099836Y-9718205D01*
X10100233Y-9717959D01*
X10109699Y-9709946D01*
X10119167Y-9701930D01*
X10119167Y-9701930D01*
X10119524Y-9701628D01*
X10127789Y-9692204D01*
X10135881Y-9682977D01*
X10135881Y-9682977D01*
X10136189Y-9682626D01*
X10136442Y-9682232D01*
X10149609Y-9661761D01*
X10149610Y-9661761D01*
X10149862Y-9661368D01*
X10160243Y-9638324D01*
X10167103Y-9613998D01*
X10168726Y-9601241D01*
X10170253Y-9589238D01*
X10170253Y-9589237D01*
X10170293Y-9588925D01*
X10170527Y-9580000D01*
X10168654Y-9554795D01*
X10163076Y-9530143D01*
X10153915Y-9506586D01*
X10141373Y-9484643D01*
X10125726Y-9464794D01*
X10107316Y-9447476D01*
X10086549Y-9433069D01*
X10086130Y-9432862D01*
X10064299Y-9422097D01*
X10064299Y-9422097D01*
X10063881Y-9421890D01*
X10059438Y-9420468D01*
X10054240Y-9418805D01*
X10039809Y-9414185D01*
X10039348Y-9414110D01*
X10039348Y-9414110D01*
X10015324Y-9410197D01*
X10015324Y-9410197D01*
X10014862Y-9410122D01*
X10002603Y-9409962D01*
X9990057Y-9409797D01*
X9990057Y-9409797D01*
X9989590Y-9409791D01*
X9964546Y-9413200D01*
X9964097Y-9413331D01*
X9964096Y-9413331D01*
X9953785Y-9416336D01*
X9940280Y-9420272D01*
X9939856Y-9420468D01*
X9939855Y-9420468D01*
X9936323Y-9422097D01*
X9917327Y-9430854D01*
X9916936Y-9431110D01*
X9896581Y-9444455D01*
X9896581Y-9444456D01*
X9896190Y-9444712D01*
X9877333Y-9461542D01*
X9861172Y-9480975D01*
X9848060Y-9502583D01*
X9847879Y-9503014D01*
X9847879Y-9503014D01*
X9846381Y-9506586D01*
X9838285Y-9525891D01*
X9838170Y-9526344D01*
X9838170Y-9526345D01*
X9835079Y-9538517D01*
X9832064Y-9550388D01*
X9829532Y-9575536D01*
X9109039Y-9575536D01*
X9109671Y-9098526D01*
X9522452Y-9098526D01*
X9522504Y-9099141D01*
X9524104Y-9118197D01*
X9524176Y-9119055D01*
X9524346Y-9119648D01*
X9528940Y-9135668D01*
X9529854Y-9138859D01*
X9530136Y-9139406D01*
X9530136Y-9139407D01*
X9538990Y-9156634D01*
X9539271Y-9157182D01*
X9552068Y-9173327D01*
X9552537Y-9173726D01*
X9552537Y-9173727D01*
X9559954Y-9180039D01*
X9567756Y-9186679D01*
X9568294Y-9186980D01*
X9568294Y-9186980D01*
X9571339Y-9188681D01*
X9585740Y-9196730D01*
X9594128Y-9199455D01*
X9604747Y-9202906D01*
X9604748Y-9202906D01*
X9605333Y-9203096D01*
X9625789Y-9205535D01*
X9626403Y-9205488D01*
X9626403Y-9205488D01*
X9633663Y-9204929D01*
X9646330Y-9203955D01*
X9646923Y-9203789D01*
X9646923Y-9203789D01*
X9665580Y-9198580D01*
X9665580Y-9198580D01*
X9666173Y-9198415D01*
X9666721Y-9198137D01*
X9666722Y-9198137D01*
X9684012Y-9189403D01*
X9684561Y-9189126D01*
X9686135Y-9187897D01*
X9700310Y-9176821D01*
X9700795Y-9176442D01*
X9714256Y-9160847D01*
X9715267Y-9159068D01*
X9724128Y-9143471D01*
X9724432Y-9142934D01*
X9730935Y-9123386D01*
X9733517Y-9102947D01*
X9733558Y-9100000D01*
X9733414Y-9098526D01*
X9776452Y-9098526D01*
X9776504Y-9099141D01*
X9778104Y-9118197D01*
X9778176Y-9119055D01*
X9778346Y-9119648D01*
X9782940Y-9135668D01*
X9783854Y-9138859D01*
X9784136Y-9139406D01*
X9784136Y-9139407D01*
X9792990Y-9156634D01*
X9793271Y-9157182D01*
X9806068Y-9173327D01*
X9806537Y-9173726D01*
X9806537Y-9173727D01*
X9813954Y-9180039D01*
X9821756Y-9186679D01*
X9822294Y-9186980D01*
X9822294Y-9186980D01*
X9825339Y-9188681D01*
X9839740Y-9196730D01*
X9848128Y-9199455D01*
X9858747Y-9202906D01*
X9858748Y-9202906D01*
X9859333Y-9203096D01*
X9879789Y-9205535D01*
X9880403Y-9205488D01*
X9880403Y-9205488D01*
X9887663Y-9204929D01*
X9900330Y-9203955D01*
X9900923Y-9203789D01*
X9900923Y-9203789D01*
X9919580Y-9198580D01*
X9919580Y-9198580D01*
X9920173Y-9198415D01*
X9920721Y-9198137D01*
X9920722Y-9198137D01*
X9938012Y-9189403D01*
X9938561Y-9189126D01*
X9940135Y-9187897D01*
X9954310Y-9176821D01*
X9954795Y-9176442D01*
X9968256Y-9160847D01*
X9969267Y-9159068D01*
X9978128Y-9143471D01*
X9978432Y-9142934D01*
X9979327Y-9140244D01*
X9980850Y-9135668D01*
X9984898Y-9129835D01*
X9991457Y-9127118D01*
X9998444Y-9128377D01*
X10003641Y-9133214D01*
X10005097Y-9136875D01*
X10005856Y-9140244D01*
X10006165Y-9141228D01*
X10014177Y-9160960D01*
X10014641Y-9161879D01*
X10025769Y-9180039D01*
X10026378Y-9180870D01*
X10040321Y-9196967D01*
X10041058Y-9197688D01*
X10057443Y-9211292D01*
X10058288Y-9211883D01*
X10076676Y-9222628D01*
X10077604Y-9223073D01*
X10097500Y-9230670D01*
X10098490Y-9230958D01*
X10108825Y-9233061D01*
X10110230Y-9232941D01*
X10110600Y-9231907D01*
X10110600Y-9231852D01*
X10161400Y-9231852D01*
X10161806Y-9233236D01*
X10163148Y-9233439D01*
X10163818Y-9233353D01*
X10164826Y-9233139D01*
X10185226Y-9227019D01*
X10186184Y-9226643D01*
X10205310Y-9217274D01*
X10206195Y-9216746D01*
X10223533Y-9204379D01*
X10224320Y-9203714D01*
X10239405Y-9188681D01*
X10240073Y-9187897D01*
X10252500Y-9170602D01*
X10253031Y-9169718D01*
X10261054Y-9153485D01*
X10265866Y-9148264D01*
X10272736Y-9146474D01*
X10279483Y-9148682D01*
X10283966Y-9154187D01*
X10284950Y-9159068D01*
X10284950Y-9186975D01*
X10285071Y-9187582D01*
X10285433Y-9189403D01*
X10286113Y-9192823D01*
X10290545Y-9199455D01*
X10297177Y-9203887D01*
X10298394Y-9204129D01*
X10298394Y-9204129D01*
X10302418Y-9204929D01*
X10303025Y-9205050D01*
X10476975Y-9205050D01*
X10477582Y-9204929D01*
X10481606Y-9204129D01*
X10481606Y-9204129D01*
X10482823Y-9203887D01*
X10489455Y-9199455D01*
X10493887Y-9192823D01*
X10494567Y-9189403D01*
X10494929Y-9187582D01*
X10495050Y-9186975D01*
X10495050Y-9182650D01*
X10497050Y-9175838D01*
X10502416Y-9171189D01*
X10507650Y-9170050D01*
X11202136Y-9170050D01*
X11202993Y-9170079D01*
X11207935Y-9170416D01*
X11207936Y-9170416D01*
X11208693Y-9170468D01*
X11209441Y-9170337D01*
X11209441Y-9170337D01*
X11214913Y-9169382D01*
X11215566Y-9169286D01*
X11219610Y-9168797D01*
X11221832Y-9168528D01*
X11222543Y-9168259D01*
X11222872Y-9168178D01*
X11224319Y-9167782D01*
X11224647Y-9167683D01*
X11225395Y-9167553D01*
X11226091Y-9167247D01*
X11231176Y-9165015D01*
X11231787Y-9164766D01*
X11236982Y-9162803D01*
X11236982Y-9162803D01*
X11237692Y-9162535D01*
X11238318Y-9162105D01*
X11238620Y-9161947D01*
X11239930Y-9161218D01*
X11240224Y-9161043D01*
X11240920Y-9160738D01*
X11245927Y-9156896D01*
X11246461Y-9156508D01*
X11251039Y-9153362D01*
X11251039Y-9153361D01*
X11251665Y-9152931D01*
X11255761Y-9148334D01*
X11256259Y-9147807D01*
X11280325Y-9123741D01*
X11286556Y-9120338D01*
X11289235Y-9120050D01*
X11366975Y-9120050D01*
X11368997Y-9119648D01*
X11371606Y-9119129D01*
X11371606Y-9119129D01*
X11372823Y-9118887D01*
X11379455Y-9114455D01*
X11383887Y-9107823D01*
X11385050Y-9101975D01*
X11385050Y-8968025D01*
X11383887Y-8962177D01*
X11379455Y-8955545D01*
X11372823Y-8951113D01*
X11371606Y-8950871D01*
X11371606Y-8950871D01*
X11367582Y-8950071D01*
X11366975Y-8949950D01*
X11193025Y-8949950D01*
X11192418Y-8950071D01*
X11188394Y-8950871D01*
X11188394Y-8950871D01*
X11187177Y-8951113D01*
X11180545Y-8955545D01*
X11176113Y-8962177D01*
X11174950Y-8968025D01*
X11174950Y-9017350D01*
X11172950Y-9024162D01*
X11167584Y-9028811D01*
X11162350Y-9029950D01*
X10507650Y-9029950D01*
X10500838Y-9027950D01*
X10496189Y-9022584D01*
X10495050Y-9017350D01*
X10495050Y-9013025D01*
X10493887Y-9007177D01*
X10489455Y-9000545D01*
X10482823Y-8996113D01*
X10481606Y-8995871D01*
X10481606Y-8995871D01*
X10477582Y-8995071D01*
X10476975Y-8994950D01*
X10303025Y-8994950D01*
X10302418Y-8995071D01*
X10298394Y-8995871D01*
X10298394Y-8995871D01*
X10297177Y-8996113D01*
X10290545Y-9000545D01*
X10286113Y-9007177D01*
X10284950Y-9013025D01*
X10284950Y-9041402D01*
X10282950Y-9048214D01*
X10277584Y-9052863D01*
X10270557Y-9053873D01*
X10264099Y-9050924D01*
X10260795Y-9046426D01*
X10256297Y-9036081D01*
X10255811Y-9035174D01*
X10244243Y-9017293D01*
X10243614Y-9016476D01*
X10229281Y-9000724D01*
X10228527Y-9000022D01*
X10211814Y-8986822D01*
X10210955Y-8986252D01*
X10192312Y-8975960D01*
X10191371Y-8975537D01*
X10171296Y-8968428D01*
X10170299Y-8968165D01*
X10163184Y-8966897D01*
X10161854Y-8967043D01*
X10161400Y-8968499D01*
X10161400Y-9231852D01*
X10110600Y-9231852D01*
X10110600Y-8968310D01*
X10110208Y-8966976D01*
X10108781Y-8966777D01*
X10104932Y-8967366D01*
X10103929Y-8967605D01*
X10083687Y-8974221D01*
X10082736Y-8974621D01*
X10063846Y-8984454D01*
X10062974Y-8985004D01*
X10045943Y-8997791D01*
X10045173Y-8998475D01*
X10030459Y-9013872D01*
X10029810Y-9014673D01*
X10017810Y-9032265D01*
X10017300Y-9033162D01*
X10008334Y-9052478D01*
X10007978Y-9053447D01*
X10005101Y-9063819D01*
X10001353Y-9069848D01*
X9994941Y-9072895D01*
X9987899Y-9071990D01*
X9982464Y-9067422D01*
X9980897Y-9064093D01*
X9980814Y-9063819D01*
X9979594Y-9059775D01*
X9969922Y-9041585D01*
X9959504Y-9028811D01*
X9957291Y-9026098D01*
X9957290Y-9026097D01*
X9956901Y-9025620D01*
X9953232Y-9022584D01*
X9941503Y-9012881D01*
X9941502Y-9012881D01*
X9941028Y-9012488D01*
X9922906Y-9002690D01*
X9903225Y-8996598D01*
X9902613Y-8996533D01*
X9902613Y-8996533D01*
X9883350Y-8994509D01*
X9883350Y-8994509D01*
X9882737Y-8994444D01*
X9874053Y-8995235D01*
X9862834Y-8996256D01*
X9862834Y-8996256D01*
X9862220Y-8996311D01*
X9842457Y-9002128D01*
X9824200Y-9011673D01*
X9823720Y-9012059D01*
X9823720Y-9012059D01*
X9808666Y-9024162D01*
X9808145Y-9024582D01*
X9794902Y-9040363D01*
X9794606Y-9040903D01*
X9794605Y-9040903D01*
X9788242Y-9052478D01*
X9784978Y-9058416D01*
X9778748Y-9078053D01*
X9778680Y-9078665D01*
X9778680Y-9078665D01*
X9776521Y-9097914D01*
X9776452Y-9098526D01*
X9733414Y-9098526D01*
X9731548Y-9079497D01*
X9725594Y-9059775D01*
X9715922Y-9041585D01*
X9705504Y-9028811D01*
X9703291Y-9026098D01*
X9703290Y-9026097D01*
X9702901Y-9025620D01*
X9699232Y-9022584D01*
X9687503Y-9012881D01*
X9687502Y-9012881D01*
X9687028Y-9012488D01*
X9668906Y-9002690D01*
X9649225Y-8996598D01*
X9648613Y-8996533D01*
X9648613Y-8996533D01*
X9629350Y-8994509D01*
X9629350Y-8994509D01*
X9628737Y-8994444D01*
X9620053Y-8995235D01*
X9608834Y-8996256D01*
X9608834Y-8996256D01*
X9608220Y-8996311D01*
X9588457Y-9002128D01*
X9570200Y-9011673D01*
X9569720Y-9012059D01*
X9569720Y-9012059D01*
X9554666Y-9024162D01*
X9554145Y-9024582D01*
X9540902Y-9040363D01*
X9540606Y-9040903D01*
X9540605Y-9040903D01*
X9534242Y-9052478D01*
X9530978Y-9058416D01*
X9524748Y-9078053D01*
X9524680Y-9078665D01*
X9524680Y-9078665D01*
X9522521Y-9097914D01*
X9522452Y-9098526D01*
X9109671Y-9098526D01*
X9109736Y-9049176D01*
X9111745Y-9042367D01*
X9113427Y-9040284D01*
X9324970Y-8828741D01*
X9331201Y-8825338D01*
X9333879Y-8825050D01*
X9461975Y-8825050D01*
X9462582Y-8824929D01*
X9466606Y-8824129D01*
X9466606Y-8824129D01*
X9467823Y-8823887D01*
X9474455Y-8819455D01*
X9478887Y-8812823D01*
X9479567Y-8809403D01*
X9479929Y-8807582D01*
X9480050Y-8806975D01*
X9480050Y-8718526D01*
X9523452Y-8718526D01*
X9525176Y-8739055D01*
X9525346Y-8739648D01*
X9530558Y-8757823D01*
X9530854Y-8758859D01*
X9531136Y-8759406D01*
X9531136Y-8759407D01*
X9539990Y-8776634D01*
X9540271Y-8777182D01*
X9553068Y-8793327D01*
X9553537Y-8793726D01*
X9553537Y-8793727D01*
X9560954Y-8800039D01*
X9568756Y-8806679D01*
X9569294Y-8806980D01*
X9569294Y-8806980D01*
X9572339Y-8808681D01*
X9586740Y-8816730D01*
X9595128Y-8819455D01*
X9605747Y-8822906D01*
X9605748Y-8822906D01*
X9606333Y-8823096D01*
X9626789Y-8825535D01*
X9627403Y-8825488D01*
X9627403Y-8825488D01*
X9634663Y-8824929D01*
X9647330Y-8823955D01*
X9647923Y-8823789D01*
X9647923Y-8823789D01*
X9666580Y-8818580D01*
X9666580Y-8818580D01*
X9667173Y-8818415D01*
X9667721Y-8818137D01*
X9667722Y-8818137D01*
X9685012Y-8809403D01*
X9685561Y-8809126D01*
X9687135Y-8807897D01*
X9701310Y-8796821D01*
X9701795Y-8796442D01*
X9707599Y-8789718D01*
X9714854Y-8781313D01*
X9714854Y-8781313D01*
X9715256Y-8780847D01*
X9717339Y-8777182D01*
X9719106Y-8774071D01*
X9725432Y-8762934D01*
X9731935Y-8743386D01*
X9734517Y-8722947D01*
X9734558Y-8720000D01*
X9734414Y-8718526D01*
X9777452Y-8718526D01*
X9779176Y-8739055D01*
X9779346Y-8739648D01*
X9784558Y-8757823D01*
X9784854Y-8758859D01*
X9785136Y-8759406D01*
X9785136Y-8759407D01*
X9793990Y-8776634D01*
X9794271Y-8777182D01*
X9807068Y-8793327D01*
X9807537Y-8793726D01*
X9807537Y-8793727D01*
X9814954Y-8800039D01*
X9822756Y-8806679D01*
X9823294Y-8806980D01*
X9823294Y-8806980D01*
X9826339Y-8808681D01*
X9840740Y-8816730D01*
X9849128Y-8819455D01*
X9859747Y-8822906D01*
X9859748Y-8822906D01*
X9860333Y-8823096D01*
X9880789Y-8825535D01*
X9881403Y-8825488D01*
X9881403Y-8825488D01*
X9888663Y-8824929D01*
X9901330Y-8823955D01*
X9901923Y-8823789D01*
X9901923Y-8823789D01*
X9920580Y-8818580D01*
X9920580Y-8818580D01*
X9921173Y-8818415D01*
X9921721Y-8818137D01*
X9921722Y-8818137D01*
X9939012Y-8809403D01*
X9939561Y-8809126D01*
X9941135Y-8807897D01*
X9955310Y-8796821D01*
X9955795Y-8796442D01*
X9961599Y-8789718D01*
X9968854Y-8781313D01*
X9968854Y-8781313D01*
X9969256Y-8780847D01*
X9971339Y-8777182D01*
X9973106Y-8774071D01*
X9979432Y-8762934D01*
X9985935Y-8743386D01*
X9988517Y-8722947D01*
X9988558Y-8720000D01*
X9986548Y-8699497D01*
X9980594Y-8679775D01*
X9970922Y-8661585D01*
X9962262Y-8650966D01*
X9958291Y-8646098D01*
X9958290Y-8646097D01*
X9957901Y-8645620D01*
X9948271Y-8637654D01*
X9942503Y-8632881D01*
X9942502Y-8632881D01*
X9942028Y-8632488D01*
X9923906Y-8622690D01*
X9904225Y-8616598D01*
X9903613Y-8616533D01*
X9903613Y-8616533D01*
X9884350Y-8614509D01*
X9884350Y-8614509D01*
X9883737Y-8614444D01*
X9875053Y-8615235D01*
X9863834Y-8616256D01*
X9863834Y-8616256D01*
X9863220Y-8616311D01*
X9843457Y-8622128D01*
X9825200Y-8631673D01*
X9824720Y-8632059D01*
X9824720Y-8632059D01*
X9821469Y-8634673D01*
X9809145Y-8644582D01*
X9795902Y-8660363D01*
X9795606Y-8660903D01*
X9795605Y-8660903D01*
X9789242Y-8672478D01*
X9785978Y-8678416D01*
X9779748Y-8698053D01*
X9779680Y-8698665D01*
X9779680Y-8698665D01*
X9777521Y-8717914D01*
X9777452Y-8718526D01*
X9734414Y-8718526D01*
X9732548Y-8699497D01*
X9726594Y-8679775D01*
X9716922Y-8661585D01*
X9708262Y-8650966D01*
X9704291Y-8646098D01*
X9704290Y-8646097D01*
X9703901Y-8645620D01*
X9694271Y-8637654D01*
X9688503Y-8632881D01*
X9688502Y-8632881D01*
X9688028Y-8632488D01*
X9669906Y-8622690D01*
X9650225Y-8616598D01*
X9649613Y-8616533D01*
X9649613Y-8616533D01*
X9630350Y-8614509D01*
X9630350Y-8614509D01*
X9629737Y-8614444D01*
X9621053Y-8615235D01*
X9609834Y-8616256D01*
X9609834Y-8616256D01*
X9609220Y-8616311D01*
X9589457Y-8622128D01*
X9571200Y-8631673D01*
X9570720Y-8632059D01*
X9570720Y-8632059D01*
X9567469Y-8634673D01*
X9555145Y-8644582D01*
X9541902Y-8660363D01*
X9541606Y-8660903D01*
X9541605Y-8660903D01*
X9535242Y-8672478D01*
X9531978Y-8678416D01*
X9525748Y-8698053D01*
X9525680Y-8698665D01*
X9525680Y-8698665D01*
X9523521Y-8717914D01*
X9523452Y-8718526D01*
X9480050Y-8718526D01*
X9480050Y-8633025D01*
X9478887Y-8627177D01*
X9474455Y-8620545D01*
X9467823Y-8616113D01*
X9466606Y-8615871D01*
X9466606Y-8615871D01*
X9462582Y-8615071D01*
X9461975Y-8614950D01*
X9288025Y-8614950D01*
X9287418Y-8615071D01*
X9283394Y-8615871D01*
X9283394Y-8615871D01*
X9282177Y-8616113D01*
X9275545Y-8620545D01*
X9271113Y-8627177D01*
X9269950Y-8633025D01*
X9269950Y-8751121D01*
X9267950Y-8757933D01*
X9266260Y-8760030D01*
X9131462Y-8894828D01*
X9125231Y-8898230D01*
X9118149Y-8897724D01*
X9112466Y-8893469D01*
X9109985Y-8886817D01*
X9109953Y-8885902D01*
X9109998Y-8851812D01*
X9110000Y-8850000D01*
X8904129Y-8850000D01*
X8897317Y-8848000D01*
X8892668Y-8842634D01*
X8891658Y-8835607D01*
X8894607Y-8829149D01*
X8895220Y-8828491D01*
X9174970Y-8548741D01*
X9181201Y-8545338D01*
X9183879Y-8545050D01*
X9956121Y-8545050D01*
X9962933Y-8547050D01*
X9965030Y-8548741D01*
X10053943Y-8637654D01*
X10057346Y-8643885D01*
X10056839Y-8650966D01*
X10054686Y-8654662D01*
X10049902Y-8660363D01*
X10049606Y-8660903D01*
X10049605Y-8660903D01*
X10043242Y-8672478D01*
X10039978Y-8678416D01*
X10033748Y-8698053D01*
X10033680Y-8698665D01*
X10033680Y-8698665D01*
X10031521Y-8717914D01*
X10031452Y-8718526D01*
X10033176Y-8739055D01*
X10033346Y-8739648D01*
X10038558Y-8757823D01*
X10038854Y-8758859D01*
X10039136Y-8759406D01*
X10039136Y-8759407D01*
X10047990Y-8776634D01*
X10048271Y-8777182D01*
X10061068Y-8793327D01*
X10061537Y-8793726D01*
X10061537Y-8793727D01*
X10068954Y-8800039D01*
X10076756Y-8806679D01*
X10077294Y-8806980D01*
X10077294Y-8806980D01*
X10080339Y-8808681D01*
X10094740Y-8816730D01*
X10103128Y-8819455D01*
X10113747Y-8822906D01*
X10113748Y-8822906D01*
X10114333Y-8823096D01*
X10134789Y-8825535D01*
X10135403Y-8825488D01*
X10135403Y-8825488D01*
X10142663Y-8824929D01*
X10155330Y-8823955D01*
X10155923Y-8823789D01*
X10155923Y-8823789D01*
X10174580Y-8818580D01*
X10174580Y-8818580D01*
X10175173Y-8818415D01*
X10175721Y-8818137D01*
X10175722Y-8818137D01*
X10193012Y-8809403D01*
X10193561Y-8809126D01*
X10195135Y-8807897D01*
X10209310Y-8796821D01*
X10209795Y-8796442D01*
X10215599Y-8789718D01*
X10222854Y-8781313D01*
X10222854Y-8781313D01*
X10223256Y-8780847D01*
X10225339Y-8777182D01*
X10227106Y-8774071D01*
X10233432Y-8762934D01*
X10239935Y-8743386D01*
X10242517Y-8722947D01*
X10242558Y-8720000D01*
X10242414Y-8718526D01*
X10285452Y-8718526D01*
X10287176Y-8739055D01*
X10287346Y-8739648D01*
X10292558Y-8757823D01*
X10292854Y-8758859D01*
X10293136Y-8759406D01*
X10293136Y-8759407D01*
X10301990Y-8776634D01*
X10302271Y-8777182D01*
X10315068Y-8793327D01*
X10315537Y-8793726D01*
X10315537Y-8793727D01*
X10322954Y-8800039D01*
X10330756Y-8806679D01*
X10331294Y-8806980D01*
X10331294Y-8806980D01*
X10334339Y-8808681D01*
X10348740Y-8816730D01*
X10357128Y-8819455D01*
X10367747Y-8822906D01*
X10367748Y-8822906D01*
X10368333Y-8823096D01*
X10388789Y-8825535D01*
X10389403Y-8825488D01*
X10389403Y-8825488D01*
X10396663Y-8824929D01*
X10409330Y-8823955D01*
X10409923Y-8823789D01*
X10409923Y-8823789D01*
X10428580Y-8818580D01*
X10428580Y-8818580D01*
X10429173Y-8818415D01*
X10429721Y-8818137D01*
X10429722Y-8818137D01*
X10447012Y-8809403D01*
X10447561Y-8809126D01*
X10449135Y-8807897D01*
X10463310Y-8796821D01*
X10463795Y-8796442D01*
X10469599Y-8789718D01*
X10476854Y-8781313D01*
X10476854Y-8781313D01*
X10477256Y-8780847D01*
X10479339Y-8777182D01*
X10481106Y-8774071D01*
X10487432Y-8762934D01*
X10488398Y-8760030D01*
X10489850Y-8755668D01*
X10493898Y-8749835D01*
X10500457Y-8747118D01*
X10507444Y-8748377D01*
X10512641Y-8753214D01*
X10514097Y-8756875D01*
X10514856Y-8760244D01*
X10515165Y-8761228D01*
X10523177Y-8780960D01*
X10523641Y-8781879D01*
X10534769Y-8800039D01*
X10535378Y-8800870D01*
X10549321Y-8816967D01*
X10550058Y-8817688D01*
X10566443Y-8831292D01*
X10567288Y-8831883D01*
X10585676Y-8842628D01*
X10586604Y-8843073D01*
X10606500Y-8850670D01*
X10607490Y-8850958D01*
X10617825Y-8853061D01*
X10619230Y-8852941D01*
X10619600Y-8851907D01*
X10619600Y-8851852D01*
X10670400Y-8851852D01*
X10670806Y-8853236D01*
X10672148Y-8853439D01*
X10672818Y-8853353D01*
X10673826Y-8853139D01*
X10694226Y-8847019D01*
X10695184Y-8846643D01*
X10714310Y-8837274D01*
X10715195Y-8836746D01*
X10732533Y-8824379D01*
X10733320Y-8823714D01*
X10748405Y-8808681D01*
X10749073Y-8807897D01*
X10761500Y-8790602D01*
X10762031Y-8789718D01*
X10771467Y-8770627D01*
X10771847Y-8769667D01*
X10778038Y-8749291D01*
X10778256Y-8748284D01*
X10778399Y-8747196D01*
X10778178Y-8745778D01*
X10776862Y-8745400D01*
X10672212Y-8745400D01*
X10670688Y-8745848D01*
X10670567Y-8745987D01*
X10670400Y-8746755D01*
X10670400Y-8851852D01*
X10619600Y-8851852D01*
X10619600Y-8692789D01*
X10670400Y-8692789D01*
X10670848Y-8694312D01*
X10670987Y-8694433D01*
X10671755Y-8694600D01*
X10776834Y-8694600D01*
X10778188Y-8694203D01*
X10778318Y-8693295D01*
X10774121Y-8676588D01*
X10773789Y-8675612D01*
X10765297Y-8656081D01*
X10764811Y-8655174D01*
X10753243Y-8637293D01*
X10752614Y-8636476D01*
X10738281Y-8620724D01*
X10737527Y-8620022D01*
X10720814Y-8606822D01*
X10719955Y-8606252D01*
X10701312Y-8595960D01*
X10700371Y-8595537D01*
X10680296Y-8588428D01*
X10679299Y-8588165D01*
X10672184Y-8586897D01*
X10670854Y-8587043D01*
X10670400Y-8588499D01*
X10670400Y-8692789D01*
X10619600Y-8692789D01*
X10619600Y-8588310D01*
X10619208Y-8586976D01*
X10617781Y-8586777D01*
X10613932Y-8587366D01*
X10612929Y-8587605D01*
X10592687Y-8594221D01*
X10591736Y-8594621D01*
X10572846Y-8604454D01*
X10571974Y-8605004D01*
X10554943Y-8617791D01*
X10554173Y-8618475D01*
X10539459Y-8633872D01*
X10538810Y-8634673D01*
X10526810Y-8652265D01*
X10526300Y-8653162D01*
X10517334Y-8672478D01*
X10516978Y-8673447D01*
X10514101Y-8683819D01*
X10510353Y-8689848D01*
X10503941Y-8692895D01*
X10496899Y-8691990D01*
X10491464Y-8687422D01*
X10489897Y-8684093D01*
X10489814Y-8683819D01*
X10488594Y-8679775D01*
X10478922Y-8661585D01*
X10470262Y-8650966D01*
X10466291Y-8646098D01*
X10466290Y-8646097D01*
X10465901Y-8645620D01*
X10456271Y-8637654D01*
X10450503Y-8632881D01*
X10450502Y-8632881D01*
X10450028Y-8632488D01*
X10431906Y-8622690D01*
X10412225Y-8616598D01*
X10411613Y-8616533D01*
X10411613Y-8616533D01*
X10392350Y-8614509D01*
X10392350Y-8614509D01*
X10391737Y-8614444D01*
X10383053Y-8615235D01*
X10371834Y-8616256D01*
X10371834Y-8616256D01*
X10371220Y-8616311D01*
X10351457Y-8622128D01*
X10333200Y-8631673D01*
X10332720Y-8632059D01*
X10332720Y-8632059D01*
X10329469Y-8634673D01*
X10317145Y-8644582D01*
X10303902Y-8660363D01*
X10303606Y-8660903D01*
X10303605Y-8660903D01*
X10297242Y-8672478D01*
X10293978Y-8678416D01*
X10287748Y-8698053D01*
X10287680Y-8698665D01*
X10287680Y-8698665D01*
X10285521Y-8717914D01*
X10285452Y-8718526D01*
X10242414Y-8718526D01*
X10240548Y-8699497D01*
X10234594Y-8679775D01*
X10224922Y-8661585D01*
X10216262Y-8650966D01*
X10212291Y-8646098D01*
X10212290Y-8646097D01*
X10211901Y-8645620D01*
X10202271Y-8637654D01*
X10196503Y-8632881D01*
X10196502Y-8632881D01*
X10196028Y-8632488D01*
X10177906Y-8622690D01*
X10168750Y-8619856D01*
X10164220Y-8618453D01*
X10159037Y-8615326D01*
X10014275Y-8470565D01*
X10013290Y-8469456D01*
X10011771Y-8467529D01*
X10011771Y-8467529D01*
X10011187Y-8466789D01*
X10010413Y-8466254D01*
X10010412Y-8466253D01*
X10006788Y-8463748D01*
X10006362Y-8463454D01*
X10006040Y-8463224D01*
X10005479Y-8462809D01*
X10001318Y-8459737D01*
X10000637Y-8459497D01*
X10000043Y-8459087D01*
X9999145Y-8458803D01*
X9999145Y-8458803D01*
X9997128Y-8458165D01*
X9994448Y-8457317D01*
X9994075Y-8457193D01*
X9989426Y-8455560D01*
X9989426Y-8455560D01*
X9988537Y-8455248D01*
X9987818Y-8455220D01*
X9987812Y-8455219D01*
X9987127Y-8455002D01*
X9986466Y-8454950D01*
X9981198Y-8454950D01*
X9980704Y-8454940D01*
X9975001Y-8454716D01*
X9974290Y-8454905D01*
X9973465Y-8454950D01*
X9163422Y-8454950D01*
X9161941Y-8454863D01*
X9161016Y-8454753D01*
X9158569Y-8454464D01*
X9157643Y-8454633D01*
X9157642Y-8454633D01*
X9152798Y-8455518D01*
X9152408Y-8455583D01*
X9150135Y-8455924D01*
X9147536Y-8456315D01*
X9147536Y-8456315D01*
X9146604Y-8456455D01*
X9145953Y-8456768D01*
X9145243Y-8456898D01*
X9140035Y-8459603D01*
X9139685Y-8459778D01*
X9135241Y-8461911D01*
X9134392Y-8462319D01*
X9133864Y-8462808D01*
X9133859Y-8462811D01*
X9133221Y-8463142D01*
X9132717Y-8463573D01*
X9128995Y-8467295D01*
X9128638Y-8467638D01*
X9124444Y-8471515D01*
X9124075Y-8472151D01*
X9123523Y-8472766D01*
X8749980Y-8846310D01*
X8743749Y-8849712D01*
X8741071Y-8850000D01*
X3721227Y-8850000D01*
X3714415Y-8848000D01*
X3709766Y-8842634D01*
X3708842Y-8835082D01*
X3735164Y-8694433D01*
X3738336Y-8677485D01*
X3738364Y-8677337D01*
X3739924Y-8669534D01*
X3739988Y-8669233D01*
X3741711Y-8661585D01*
X3741735Y-8661481D01*
X3741769Y-8661333D01*
X3745926Y-8643885D01*
X3810417Y-8373179D01*
X3810450Y-8373045D01*
X3812390Y-8365321D01*
X3812468Y-8365025D01*
X3812476Y-8364994D01*
X3814597Y-8357347D01*
X3814634Y-8357216D01*
X3897277Y-8072760D01*
X3897319Y-8072619D01*
X3899630Y-8065010D01*
X3899723Y-8064717D01*
X3902221Y-8057165D01*
X3902270Y-8057019D01*
X3947728Y-7925000D01*
X6904478Y-7925000D01*
X6904505Y-7925412D01*
X6906257Y-7952152D01*
X6906364Y-7953784D01*
X6906445Y-7954188D01*
X6906445Y-7954188D01*
X6908905Y-7966558D01*
X6911992Y-7982075D01*
X6921264Y-8009390D01*
X6934022Y-8035261D01*
X6934252Y-8035604D01*
X6948658Y-8057165D01*
X6950048Y-8059245D01*
X6950319Y-8059555D01*
X6950320Y-8059555D01*
X6968796Y-8080624D01*
X6969067Y-8080933D01*
X6969376Y-8081204D01*
X6990445Y-8099680D01*
X6990445Y-8099681D01*
X6990755Y-8099952D01*
X6991097Y-8100181D01*
X6991098Y-8100181D01*
X7009057Y-8112181D01*
X7014739Y-8115978D01*
X7015109Y-8116160D01*
X7015109Y-8116160D01*
X7040240Y-8128554D01*
X7040610Y-8128736D01*
X7041000Y-8128868D01*
X7041000Y-8128868D01*
X7067534Y-8137875D01*
X7067534Y-8137875D01*
X7067925Y-8138008D01*
X7068329Y-8138088D01*
X7068330Y-8138089D01*
X7095812Y-8143555D01*
X7095812Y-8143555D01*
X7096216Y-8143636D01*
X7096627Y-8143662D01*
X7096628Y-8143663D01*
X7124588Y-8145495D01*
X7125000Y-8145522D01*
X7125412Y-8145495D01*
X7153372Y-8143663D01*
X7153373Y-8143662D01*
X7153784Y-8143636D01*
X7154188Y-8143555D01*
X7154188Y-8143555D01*
X7181670Y-8138089D01*
X7181671Y-8138088D01*
X7182075Y-8138008D01*
X7182466Y-8137875D01*
X7182466Y-8137875D01*
X7209000Y-8128868D01*
X7209000Y-8128868D01*
X7209390Y-8128736D01*
X7209760Y-8128554D01*
X7234891Y-8116160D01*
X7234891Y-8116160D01*
X7235261Y-8115978D01*
X7240943Y-8112181D01*
X7258902Y-8100181D01*
X7258903Y-8100181D01*
X7259245Y-8099952D01*
X7259555Y-8099681D01*
X7259555Y-8099680D01*
X7280624Y-8081204D01*
X7280933Y-8080933D01*
X7281204Y-8080624D01*
X7299680Y-8059555D01*
X7299681Y-8059555D01*
X7299952Y-8059245D01*
X7301342Y-8057165D01*
X7315748Y-8035604D01*
X7315978Y-8035261D01*
X7328736Y-8009390D01*
X7338008Y-7982075D01*
X7341095Y-7966558D01*
X7343555Y-7954188D01*
X7343555Y-7954188D01*
X7343636Y-7953784D01*
X7343743Y-7952152D01*
X7345495Y-7925412D01*
X7345522Y-7925000D01*
X7343636Y-7896216D01*
X7342492Y-7890468D01*
X7338089Y-7868330D01*
X7338088Y-7868329D01*
X7338008Y-7867925D01*
X7337565Y-7866619D01*
X7328868Y-7841000D01*
X7328868Y-7841000D01*
X7328736Y-7840610D01*
X7324524Y-7832068D01*
X7318208Y-7819261D01*
X9549439Y-7819261D01*
X9549523Y-7820016D01*
X9549847Y-7822950D01*
X9549923Y-7824398D01*
X9549903Y-7828110D01*
X9550668Y-7831298D01*
X9550940Y-7832856D01*
X9551300Y-7836113D01*
X9552576Y-7839601D01*
X9552994Y-7840986D01*
X9553861Y-7844597D01*
X9554210Y-7845272D01*
X9555364Y-7847509D01*
X9556000Y-7848958D01*
X9557127Y-7852036D01*
X9557550Y-7852666D01*
X9559197Y-7855117D01*
X9559935Y-7856365D01*
X9561638Y-7859663D01*
X9562137Y-7860235D01*
X9562137Y-7860236D01*
X9563792Y-7862133D01*
X9564755Y-7863388D01*
X9566583Y-7866108D01*
X9567145Y-7866619D01*
X9569329Y-7868606D01*
X9570344Y-7869643D01*
X9572783Y-7872440D01*
X9573404Y-7872876D01*
X9573404Y-7872876D01*
X9575464Y-7874324D01*
X9576699Y-7875313D01*
X9578561Y-7877008D01*
X9578562Y-7877008D01*
X9579123Y-7877519D01*
X9582385Y-7879290D01*
X9583618Y-7880054D01*
X9586033Y-7881751D01*
X9586033Y-7881752D01*
X9586655Y-7882189D01*
X9589708Y-7883379D01*
X9591143Y-7884045D01*
X9593356Y-7885247D01*
X9593357Y-7885247D01*
X9594024Y-7885609D01*
X9594758Y-7885802D01*
X9594758Y-7885802D01*
X9597613Y-7886551D01*
X9598993Y-7886999D01*
X9601744Y-7888072D01*
X9601744Y-7888072D01*
X9602451Y-7888348D01*
X9605048Y-7888689D01*
X9605701Y-7888775D01*
X9607253Y-7889080D01*
X9610423Y-7889912D01*
X9614397Y-7889974D01*
X9614987Y-7889998D01*
X9615383Y-7890050D01*
X9619138Y-7890050D01*
X9619336Y-7890052D01*
X9626617Y-7890166D01*
X9626617Y-7890166D01*
X9627376Y-7890178D01*
X9627802Y-7890080D01*
X9628380Y-7890050D01*
X10487136Y-7890050D01*
X10487993Y-7890079D01*
X10492935Y-7890416D01*
X10492936Y-7890416D01*
X10493693Y-7890468D01*
X10494441Y-7890337D01*
X10494441Y-7890337D01*
X10499913Y-7889382D01*
X10500566Y-7889286D01*
X10504783Y-7888775D01*
X10506832Y-7888528D01*
X10507543Y-7888259D01*
X10507872Y-7888178D01*
X10509319Y-7887782D01*
X10509647Y-7887683D01*
X10510395Y-7887553D01*
X10511657Y-7886999D01*
X10516176Y-7885015D01*
X10516787Y-7884766D01*
X10521982Y-7882803D01*
X10521982Y-7882803D01*
X10522692Y-7882534D01*
X10523318Y-7882105D01*
X10523620Y-7881946D01*
X10524930Y-7881217D01*
X10525224Y-7881043D01*
X10525920Y-7880738D01*
X10527807Y-7879290D01*
X10530927Y-7876896D01*
X10531461Y-7876508D01*
X10536039Y-7873362D01*
X10536039Y-7873361D01*
X10536665Y-7872931D01*
X10540761Y-7868334D01*
X10541259Y-7867807D01*
X10753469Y-7655596D01*
X10942476Y-7655596D01*
X10944118Y-7675148D01*
X10949526Y-7694009D01*
X10949808Y-7694557D01*
X10958212Y-7710911D01*
X10958213Y-7710912D01*
X10958494Y-7711460D01*
X10970682Y-7726837D01*
X10971151Y-7727236D01*
X10971151Y-7727236D01*
X10978910Y-7733839D01*
X10985624Y-7739553D01*
X10986162Y-7739854D01*
X10986162Y-7739854D01*
X10989793Y-7741884D01*
X11002751Y-7749126D01*
X11021412Y-7755189D01*
X11040895Y-7757512D01*
X11041508Y-7757465D01*
X11041508Y-7757465D01*
X11059843Y-7756054D01*
X11059844Y-7756054D01*
X11060458Y-7756007D01*
X11079356Y-7750730D01*
X11096869Y-7741884D01*
X11099852Y-7739553D01*
X11111845Y-7730183D01*
X11112330Y-7729804D01*
X11113225Y-7728767D01*
X11124749Y-7715417D01*
X11124749Y-7715417D01*
X11125151Y-7714951D01*
X11134843Y-7697891D01*
X11141036Y-7679273D01*
X11143495Y-7659807D01*
X11143534Y-7657000D01*
X11143397Y-7655596D01*
X11196476Y-7655596D01*
X11198117Y-7675148D01*
X11203526Y-7694009D01*
X11203808Y-7694557D01*
X11212212Y-7710911D01*
X11212213Y-7710912D01*
X11212494Y-7711460D01*
X11224682Y-7726837D01*
X11225151Y-7727236D01*
X11225151Y-7727236D01*
X11232910Y-7733839D01*
X11239624Y-7739553D01*
X11240162Y-7739854D01*
X11240162Y-7739854D01*
X11243793Y-7741884D01*
X11256751Y-7749126D01*
X11275412Y-7755189D01*
X11294895Y-7757512D01*
X11295508Y-7757465D01*
X11295508Y-7757465D01*
X11313843Y-7756054D01*
X11313844Y-7756054D01*
X11314458Y-7756007D01*
X11333356Y-7750730D01*
X11350869Y-7741884D01*
X11353851Y-7739553D01*
X11365845Y-7730183D01*
X11366330Y-7729804D01*
X11367225Y-7728767D01*
X11378748Y-7715417D01*
X11378748Y-7715417D01*
X11379151Y-7714951D01*
X11388842Y-7697891D01*
X11395036Y-7679273D01*
X11397495Y-7659807D01*
X11397534Y-7657000D01*
X11397396Y-7655596D01*
X11450476Y-7655596D01*
X11452117Y-7675148D01*
X11457526Y-7694009D01*
X11457808Y-7694557D01*
X11466212Y-7710911D01*
X11466213Y-7710912D01*
X11466494Y-7711460D01*
X11478682Y-7726837D01*
X11479151Y-7727236D01*
X11479151Y-7727236D01*
X11486910Y-7733839D01*
X11493624Y-7739553D01*
X11494162Y-7739854D01*
X11494162Y-7739854D01*
X11497793Y-7741884D01*
X11510751Y-7749126D01*
X11529412Y-7755189D01*
X11548895Y-7757512D01*
X11549508Y-7757465D01*
X11549508Y-7757465D01*
X11567843Y-7756054D01*
X11567844Y-7756054D01*
X11568458Y-7756007D01*
X11587356Y-7750730D01*
X11604869Y-7741884D01*
X11607851Y-7739553D01*
X11619845Y-7730183D01*
X11620330Y-7729804D01*
X11621225Y-7728767D01*
X11632748Y-7715417D01*
X11632748Y-7715417D01*
X11633151Y-7714951D01*
X11642842Y-7697891D01*
X11649036Y-7679273D01*
X11651495Y-7659807D01*
X11651534Y-7657000D01*
X11649619Y-7637473D01*
X11649441Y-7636883D01*
X11649441Y-7636882D01*
X11644126Y-7619279D01*
X11643948Y-7618689D01*
X11634737Y-7601365D01*
X11622336Y-7586160D01*
X11607218Y-7573653D01*
X11589958Y-7564321D01*
X11578977Y-7560922D01*
X11571804Y-7558701D01*
X11571804Y-7558701D01*
X11571215Y-7558519D01*
X11570603Y-7558455D01*
X11570603Y-7558455D01*
X11552315Y-7556533D01*
X11552315Y-7556533D01*
X11551702Y-7556468D01*
X11539438Y-7557584D01*
X11532776Y-7558191D01*
X11532776Y-7558191D01*
X11532162Y-7558247D01*
X11531570Y-7558421D01*
X11531570Y-7558421D01*
X11521689Y-7561329D01*
X11513339Y-7563786D01*
X11512793Y-7564072D01*
X11496497Y-7572591D01*
X11496497Y-7572591D01*
X11495951Y-7572877D01*
X11495471Y-7573263D01*
X11495471Y-7573263D01*
X11492033Y-7576027D01*
X11480660Y-7585171D01*
X11468048Y-7600202D01*
X11467752Y-7600741D01*
X11467751Y-7600741D01*
X11462338Y-7610589D01*
X11458596Y-7617395D01*
X11452663Y-7636098D01*
X11450476Y-7655596D01*
X11397396Y-7655596D01*
X11395619Y-7637473D01*
X11395441Y-7636883D01*
X11395441Y-7636882D01*
X11390126Y-7619279D01*
X11389948Y-7618689D01*
X11380737Y-7601365D01*
X11368336Y-7586160D01*
X11353218Y-7573653D01*
X11335958Y-7564321D01*
X11324977Y-7560922D01*
X11317804Y-7558701D01*
X11317804Y-7558701D01*
X11317215Y-7558519D01*
X11316603Y-7558455D01*
X11316603Y-7558455D01*
X11298315Y-7556533D01*
X11298315Y-7556533D01*
X11297702Y-7556468D01*
X11285438Y-7557584D01*
X11278776Y-7558191D01*
X11278776Y-7558191D01*
X11278162Y-7558247D01*
X11277570Y-7558421D01*
X11277570Y-7558421D01*
X11267689Y-7561329D01*
X11259339Y-7563786D01*
X11258793Y-7564072D01*
X11242497Y-7572591D01*
X11242497Y-7572591D01*
X11241951Y-7572877D01*
X11241471Y-7573263D01*
X11241471Y-7573263D01*
X11238033Y-7576027D01*
X11226660Y-7585171D01*
X11214048Y-7600202D01*
X11213752Y-7600741D01*
X11213751Y-7600741D01*
X11208338Y-7610589D01*
X11204596Y-7617395D01*
X11198663Y-7636098D01*
X11196476Y-7655596D01*
X11143397Y-7655596D01*
X11141619Y-7637473D01*
X11141441Y-7636883D01*
X11141441Y-7636882D01*
X11136127Y-7619279D01*
X11135948Y-7618689D01*
X11126737Y-7601365D01*
X11114336Y-7586160D01*
X11099218Y-7573653D01*
X11081959Y-7564321D01*
X11070977Y-7560922D01*
X11063804Y-7558701D01*
X11063804Y-7558701D01*
X11063215Y-7558519D01*
X11062603Y-7558455D01*
X11062603Y-7558455D01*
X11044315Y-7556533D01*
X11044315Y-7556533D01*
X11043702Y-7556468D01*
X11031438Y-7557584D01*
X11024776Y-7558191D01*
X11024776Y-7558191D01*
X11024162Y-7558247D01*
X11023570Y-7558421D01*
X11023570Y-7558421D01*
X11013689Y-7561329D01*
X11005339Y-7563786D01*
X11004793Y-7564072D01*
X10988497Y-7572591D01*
X10988497Y-7572591D01*
X10987951Y-7572877D01*
X10987471Y-7573263D01*
X10987471Y-7573263D01*
X10984033Y-7576027D01*
X10972660Y-7585171D01*
X10960048Y-7600202D01*
X10959752Y-7600741D01*
X10959751Y-7600741D01*
X10954338Y-7610589D01*
X10950596Y-7617395D01*
X10944663Y-7636098D01*
X10942476Y-7655596D01*
X10753469Y-7655596D01*
X10965325Y-7443740D01*
X10971556Y-7440338D01*
X10974235Y-7440050D01*
X11059138Y-7440050D01*
X11059336Y-7440052D01*
X11066617Y-7440166D01*
X11066617Y-7440166D01*
X11067376Y-7440178D01*
X11067802Y-7440080D01*
X11068380Y-7440050D01*
X11565765Y-7440050D01*
X11572577Y-7442050D01*
X11574675Y-7443740D01*
X11718582Y-7587648D01*
X11721985Y-7593879D01*
X11721478Y-7600961D01*
X11720714Y-7602627D01*
X11712596Y-7617395D01*
X11706663Y-7636098D01*
X11704476Y-7655596D01*
X11706117Y-7675148D01*
X11711526Y-7694009D01*
X11711808Y-7694557D01*
X11720212Y-7710911D01*
X11720213Y-7710912D01*
X11720494Y-7711460D01*
X11723261Y-7714951D01*
X11732225Y-7726260D01*
X11734888Y-7732841D01*
X11734950Y-7734086D01*
X11734950Y-7880765D01*
X11732950Y-7887577D01*
X11731259Y-7889675D01*
X11478586Y-8142349D01*
X11232492Y-8388442D01*
X11231866Y-8389027D01*
X11227560Y-8392783D01*
X11223932Y-8397946D01*
X11223538Y-8398476D01*
X11220110Y-8402848D01*
X11220110Y-8402848D01*
X11219642Y-8403446D01*
X11219329Y-8404138D01*
X11219150Y-8404433D01*
X11218411Y-8405729D01*
X11218248Y-8406033D01*
X11217811Y-8406655D01*
X11217535Y-8407362D01*
X11215518Y-8412537D01*
X11215262Y-8413145D01*
X11212664Y-8418898D01*
X11212526Y-8419646D01*
X11212424Y-8419972D01*
X11212012Y-8421416D01*
X11211928Y-8421744D01*
X11211652Y-8422451D01*
X11211553Y-8423204D01*
X11210828Y-8428711D01*
X11210725Y-8429362D01*
X11209575Y-8435569D01*
X11209618Y-8436327D01*
X11209618Y-8436327D01*
X11209929Y-8441714D01*
X11209950Y-8442440D01*
X11209950Y-8587350D01*
X11207950Y-8594162D01*
X11202584Y-8598811D01*
X11197350Y-8599950D01*
X11193025Y-8599950D01*
X11192418Y-8600071D01*
X11188394Y-8600871D01*
X11188394Y-8600871D01*
X11187177Y-8601113D01*
X11180545Y-8605545D01*
X11176113Y-8612177D01*
X11175871Y-8613394D01*
X11175871Y-8613394D01*
X11175330Y-8616113D01*
X11174950Y-8618025D01*
X11174950Y-8751975D01*
X11176113Y-8757823D01*
X11180545Y-8764455D01*
X11187177Y-8768887D01*
X11188394Y-8769129D01*
X11188394Y-8769129D01*
X11191101Y-8769667D01*
X11193025Y-8770050D01*
X11366975Y-8770050D01*
X11368899Y-8769667D01*
X11371606Y-8769129D01*
X11371606Y-8769129D01*
X11372823Y-8768887D01*
X11379455Y-8764455D01*
X11383887Y-8757823D01*
X11385050Y-8751975D01*
X11385050Y-8618025D01*
X11384670Y-8616113D01*
X11384129Y-8613394D01*
X11384129Y-8613394D01*
X11383887Y-8612177D01*
X11379455Y-8605545D01*
X11372823Y-8601113D01*
X11371606Y-8600871D01*
X11371606Y-8600871D01*
X11367582Y-8600071D01*
X11366975Y-8599950D01*
X11362650Y-8599950D01*
X11355838Y-8597950D01*
X11351189Y-8592584D01*
X11350050Y-8587350D01*
X11350050Y-8474235D01*
X11352050Y-8467423D01*
X11353740Y-8465325D01*
X11852507Y-7966558D01*
X11853134Y-7965973D01*
X11856867Y-7962716D01*
X11857440Y-7962217D01*
X11861070Y-7957051D01*
X11861463Y-7956523D01*
X11864889Y-7952152D01*
X11865358Y-7951554D01*
X11865671Y-7950862D01*
X11865849Y-7950568D01*
X11866590Y-7949268D01*
X11866752Y-7948967D01*
X11867189Y-7948345D01*
X11867465Y-7947638D01*
X11867465Y-7947637D01*
X11869482Y-7942464D01*
X11869737Y-7941855D01*
X11872023Y-7936793D01*
X11872023Y-7936793D01*
X11872335Y-7936102D01*
X11872474Y-7935355D01*
X11872576Y-7935030D01*
X11872988Y-7933584D01*
X11873072Y-7933256D01*
X11873348Y-7932549D01*
X11874172Y-7926289D01*
X11874275Y-7925638D01*
X11874393Y-7925000D01*
X12654478Y-7925000D01*
X12654505Y-7925412D01*
X12656257Y-7952152D01*
X12656364Y-7953784D01*
X12656445Y-7954188D01*
X12656445Y-7954188D01*
X12658905Y-7966558D01*
X12661992Y-7982075D01*
X12671264Y-8009390D01*
X12684022Y-8035261D01*
X12684252Y-8035604D01*
X12698658Y-8057165D01*
X12700048Y-8059245D01*
X12700319Y-8059555D01*
X12700320Y-8059555D01*
X12718796Y-8080624D01*
X12719067Y-8080933D01*
X12719376Y-8081204D01*
X12740445Y-8099680D01*
X12740445Y-8099681D01*
X12740755Y-8099952D01*
X12741097Y-8100181D01*
X12741098Y-8100181D01*
X12759057Y-8112181D01*
X12764739Y-8115978D01*
X12765109Y-8116160D01*
X12765109Y-8116160D01*
X12790240Y-8128554D01*
X12790610Y-8128736D01*
X12791000Y-8128868D01*
X12791000Y-8128868D01*
X12817534Y-8137875D01*
X12817534Y-8137875D01*
X12817925Y-8138008D01*
X12818329Y-8138088D01*
X12818330Y-8138089D01*
X12845812Y-8143555D01*
X12845812Y-8143555D01*
X12846216Y-8143636D01*
X12846627Y-8143662D01*
X12846628Y-8143663D01*
X12874588Y-8145495D01*
X12875000Y-8145522D01*
X12875412Y-8145495D01*
X12903372Y-8143663D01*
X12903373Y-8143662D01*
X12903784Y-8143636D01*
X12904188Y-8143555D01*
X12904188Y-8143555D01*
X12931670Y-8138089D01*
X12931671Y-8138088D01*
X12932075Y-8138008D01*
X12932466Y-8137875D01*
X12932466Y-8137875D01*
X12959000Y-8128868D01*
X12959000Y-8128868D01*
X12959390Y-8128736D01*
X12959760Y-8128554D01*
X12984891Y-8116160D01*
X12984891Y-8116160D01*
X12985261Y-8115978D01*
X12990943Y-8112181D01*
X13008902Y-8100181D01*
X13008903Y-8100181D01*
X13009245Y-8099952D01*
X13009555Y-8099681D01*
X13009555Y-8099680D01*
X13030624Y-8081204D01*
X13030933Y-8080933D01*
X13031204Y-8080624D01*
X13049680Y-8059555D01*
X13049681Y-8059555D01*
X13049952Y-8059245D01*
X13051342Y-8057165D01*
X13065748Y-8035604D01*
X13065978Y-8035261D01*
X13078736Y-8009390D01*
X13088008Y-7982075D01*
X13091095Y-7966558D01*
X13093555Y-7954188D01*
X13093555Y-7954188D01*
X13093636Y-7953784D01*
X13093743Y-7952152D01*
X13095495Y-7925412D01*
X13095522Y-7925000D01*
X13093636Y-7896216D01*
X13092492Y-7890468D01*
X13088089Y-7868330D01*
X13088088Y-7868329D01*
X13088008Y-7867925D01*
X13087565Y-7866619D01*
X13078868Y-7841000D01*
X13078868Y-7841000D01*
X13078736Y-7840610D01*
X13074524Y-7832068D01*
X13066160Y-7815109D01*
X13066160Y-7815109D01*
X13065978Y-7814739D01*
X13057295Y-7801744D01*
X13050181Y-7791098D01*
X13050181Y-7791097D01*
X13049952Y-7790755D01*
X13049681Y-7790445D01*
X13049680Y-7790445D01*
X13031204Y-7769376D01*
X13030933Y-7769067D01*
X13025243Y-7764077D01*
X13009555Y-7750320D01*
X13009555Y-7750319D01*
X13009245Y-7750048D01*
X13008903Y-7749819D01*
X13008902Y-7749819D01*
X12985604Y-7734252D01*
X12985261Y-7734022D01*
X12984891Y-7733840D01*
X12984891Y-7733839D01*
X12959760Y-7721446D01*
X12959759Y-7721446D01*
X12959390Y-7721264D01*
X12939214Y-7714415D01*
X12932466Y-7712125D01*
X12932466Y-7712124D01*
X12932075Y-7711992D01*
X12931671Y-7711911D01*
X12931670Y-7711911D01*
X12904188Y-7706445D01*
X12904188Y-7706445D01*
X12903784Y-7706364D01*
X12903373Y-7706337D01*
X12903372Y-7706337D01*
X12875412Y-7704505D01*
X12875000Y-7704478D01*
X12874588Y-7704505D01*
X12846628Y-7706337D01*
X12846627Y-7706337D01*
X12846216Y-7706364D01*
X12845812Y-7706445D01*
X12845812Y-7706445D01*
X12818330Y-7711911D01*
X12818329Y-7711911D01*
X12817925Y-7711992D01*
X12817534Y-7712124D01*
X12817534Y-7712125D01*
X12810786Y-7714415D01*
X12790610Y-7721264D01*
X12790240Y-7721446D01*
X12790240Y-7721446D01*
X12765109Y-7733839D01*
X12765109Y-7733840D01*
X12764739Y-7734022D01*
X12764396Y-7734252D01*
X12741098Y-7749819D01*
X12741097Y-7749819D01*
X12740755Y-7750048D01*
X12740445Y-7750319D01*
X12740445Y-7750320D01*
X12724757Y-7764077D01*
X12719067Y-7769067D01*
X12718796Y-7769376D01*
X12700320Y-7790445D01*
X12700319Y-7790445D01*
X12700048Y-7790755D01*
X12699819Y-7791097D01*
X12699819Y-7791098D01*
X12692705Y-7801744D01*
X12684022Y-7814739D01*
X12683840Y-7815109D01*
X12683839Y-7815109D01*
X12675476Y-7832068D01*
X12671264Y-7840610D01*
X12671132Y-7841000D01*
X12671132Y-7841000D01*
X12662435Y-7866619D01*
X12661992Y-7867925D01*
X12661911Y-7868329D01*
X12661911Y-7868330D01*
X12657508Y-7890468D01*
X12656364Y-7896216D01*
X12654478Y-7925000D01*
X11874393Y-7925000D01*
X11875287Y-7920177D01*
X11875425Y-7919431D01*
X11875071Y-7913286D01*
X11875050Y-7912560D01*
X11875050Y-7733656D01*
X11877050Y-7726844D01*
X11878112Y-7725423D01*
X11886748Y-7715417D01*
X11886748Y-7715417D01*
X11887151Y-7714951D01*
X11896842Y-7697891D01*
X11903036Y-7679273D01*
X11905495Y-7659807D01*
X11905524Y-7659811D01*
X11907934Y-7653316D01*
X11909123Y-7651942D01*
X12086814Y-7474252D01*
X12093045Y-7470849D01*
X12095723Y-7470561D01*
X12297416Y-7470561D01*
X12304229Y-7472561D01*
X12308878Y-7477927D01*
X12309950Y-7481905D01*
X12309950Y-7482486D01*
X12311113Y-7488334D01*
X12315545Y-7494966D01*
X12322177Y-7499398D01*
X12323394Y-7499640D01*
X12323394Y-7499640D01*
X12327418Y-7500441D01*
X12328025Y-7500561D01*
X12491975Y-7500561D01*
X12492582Y-7500441D01*
X12496606Y-7499640D01*
X12496606Y-7499640D01*
X12497823Y-7499398D01*
X12504455Y-7494966D01*
X12508887Y-7488334D01*
X12510050Y-7482486D01*
X12510050Y-7318536D01*
X12509281Y-7314669D01*
X12509129Y-7313905D01*
X12509129Y-7313905D01*
X12508887Y-7312688D01*
X12504455Y-7306056D01*
X12497823Y-7301625D01*
X12496606Y-7301382D01*
X12496606Y-7301382D01*
X12492582Y-7300582D01*
X12491975Y-7300461D01*
X12451458Y-7300461D01*
X12444646Y-7298461D01*
X12439997Y-7293095D01*
X12438986Y-7286068D01*
X12441936Y-7279610D01*
X12448197Y-7275691D01*
X12454376Y-7274035D01*
X12455405Y-7273660D01*
X12475151Y-7264453D01*
X12476101Y-7263904D01*
X12481305Y-7260260D01*
X12482142Y-7259212D01*
X12481436Y-7257868D01*
X12411281Y-7187713D01*
X12409887Y-7186952D01*
X12409703Y-7186965D01*
X12409042Y-7187390D01*
X12338492Y-7257940D01*
X12337849Y-7259117D01*
X12338779Y-7260319D01*
X12343899Y-7263904D01*
X12344849Y-7264453D01*
X12364595Y-7273660D01*
X12365624Y-7274035D01*
X12371803Y-7275691D01*
X12377865Y-7279386D01*
X12380967Y-7285772D01*
X12380125Y-7292821D01*
X12375604Y-7298296D01*
X12368542Y-7300461D01*
X12328025Y-7300461D01*
X12327418Y-7300582D01*
X12323394Y-7301382D01*
X12323394Y-7301382D01*
X12322177Y-7301625D01*
X12315545Y-7306056D01*
X12311113Y-7312688D01*
X12310871Y-7313905D01*
X12310871Y-7313905D01*
X12310719Y-7314669D01*
X12309950Y-7318536D01*
X12309950Y-7319111D01*
X12307298Y-7325679D01*
X12301502Y-7329780D01*
X12297416Y-7330461D01*
X12064353Y-7330461D01*
X12063496Y-7330432D01*
X12058553Y-7330095D01*
X12058553Y-7330095D01*
X12057796Y-7330043D01*
X12057048Y-7330174D01*
X12057048Y-7330174D01*
X12051575Y-7331129D01*
X12050923Y-7331225D01*
X12046944Y-7331707D01*
X12044657Y-7331984D01*
X12043946Y-7332252D01*
X12043617Y-7332333D01*
X12042170Y-7332729D01*
X12041842Y-7332828D01*
X12041093Y-7332959D01*
X12040397Y-7333264D01*
X12040397Y-7333264D01*
X12035313Y-7335496D01*
X12034702Y-7335745D01*
X12029507Y-7337708D01*
X12029507Y-7337708D01*
X12028796Y-7337977D01*
X12028171Y-7338407D01*
X12027868Y-7338565D01*
X12026559Y-7339294D01*
X12026264Y-7339468D01*
X12025568Y-7339773D01*
X12024966Y-7340236D01*
X12024966Y-7340236D01*
X12020561Y-7343615D01*
X12020028Y-7344003D01*
X12015450Y-7347149D01*
X12015449Y-7347150D01*
X12014824Y-7347580D01*
X12011013Y-7351857D01*
X12010728Y-7352177D01*
X12010230Y-7352705D01*
X11871559Y-7491375D01*
X11865328Y-7494777D01*
X11858247Y-7494271D01*
X11852563Y-7490016D01*
X11850082Y-7483364D01*
X11850050Y-7482465D01*
X11850050Y-7151059D01*
X12278748Y-7151059D01*
X12280647Y-7172763D01*
X12280837Y-7173842D01*
X12286476Y-7194887D01*
X12286851Y-7195917D01*
X12296059Y-7215662D01*
X12296607Y-7216612D01*
X12300251Y-7221816D01*
X12301299Y-7222654D01*
X12302643Y-7221947D01*
X12372798Y-7151792D01*
X12373436Y-7150624D01*
X12446441Y-7150624D01*
X12446454Y-7150808D01*
X12446879Y-7151469D01*
X12517429Y-7222019D01*
X12518606Y-7222662D01*
X12519808Y-7221732D01*
X12523393Y-7216612D01*
X12523941Y-7215662D01*
X12533149Y-7195917D01*
X12533524Y-7194887D01*
X12539162Y-7173842D01*
X12539353Y-7172763D01*
X12541252Y-7151059D01*
X12541252Y-7149964D01*
X12539353Y-7128259D01*
X12539162Y-7127180D01*
X12533524Y-7106135D01*
X12533149Y-7105106D01*
X12523941Y-7085360D01*
X12523393Y-7084411D01*
X12519749Y-7079206D01*
X12518701Y-7078369D01*
X12517357Y-7079076D01*
X12447202Y-7149230D01*
X12446441Y-7150624D01*
X12373436Y-7150624D01*
X12373559Y-7150398D01*
X12373546Y-7150215D01*
X12373121Y-7149553D01*
X12302571Y-7079004D01*
X12301394Y-7078361D01*
X12300192Y-7079290D01*
X12296607Y-7084411D01*
X12296059Y-7085360D01*
X12286851Y-7105106D01*
X12286476Y-7106135D01*
X12280837Y-7127180D01*
X12280647Y-7128259D01*
X12278748Y-7149964D01*
X12278748Y-7151059D01*
X11850050Y-7151059D01*
X11850050Y-7041810D01*
X12337858Y-7041810D01*
X12338564Y-7043155D01*
X12408719Y-7113309D01*
X12410113Y-7114070D01*
X12410296Y-7114057D01*
X12410958Y-7113632D01*
X12481508Y-7043083D01*
X12482151Y-7041905D01*
X12481221Y-7040704D01*
X12476101Y-7037118D01*
X12475151Y-7036570D01*
X12455405Y-7027362D01*
X12454376Y-7026988D01*
X12433331Y-7021349D01*
X12432252Y-7021158D01*
X12410547Y-7019260D01*
X12409452Y-7019260D01*
X12387748Y-7021158D01*
X12386669Y-7021349D01*
X12365624Y-7026988D01*
X12364595Y-7027362D01*
X12344849Y-7036570D01*
X12343899Y-7037118D01*
X12338695Y-7040762D01*
X12337858Y-7041810D01*
X11850050Y-7041810D01*
X11850050Y-7007650D01*
X11852050Y-7000838D01*
X11857416Y-6996189D01*
X11862650Y-6995050D01*
X11886975Y-6995050D01*
X11887582Y-6994929D01*
X11891606Y-6994129D01*
X11891606Y-6994129D01*
X11892823Y-6993887D01*
X11899455Y-6989455D01*
X11903887Y-6982823D01*
X11905050Y-6976975D01*
X11905050Y-6813025D01*
X11904623Y-6810877D01*
X11904129Y-6808394D01*
X11904129Y-6808394D01*
X11903887Y-6807177D01*
X11899455Y-6800545D01*
X11892823Y-6796113D01*
X11891606Y-6795871D01*
X11891606Y-6795871D01*
X11887582Y-6795071D01*
X11886975Y-6794950D01*
X11723025Y-6794950D01*
X11722418Y-6795071D01*
X11718394Y-6795871D01*
X11718394Y-6795871D01*
X11717177Y-6796113D01*
X11710545Y-6800545D01*
X11706113Y-6807177D01*
X11705871Y-6808394D01*
X11705871Y-6808394D01*
X11705377Y-6810877D01*
X11704950Y-6813025D01*
X11704950Y-6976975D01*
X11706113Y-6982823D01*
X11710545Y-6989455D01*
X11717177Y-6993887D01*
X11718394Y-6994129D01*
X11718394Y-6994129D01*
X11722418Y-6994929D01*
X11723025Y-6995050D01*
X11747350Y-6995050D01*
X11754162Y-6997050D01*
X11758811Y-7002416D01*
X11759950Y-7007650D01*
X11759950Y-7400465D01*
X11757950Y-7407277D01*
X11752584Y-7411927D01*
X11745557Y-7412937D01*
X11739099Y-7409988D01*
X11738442Y-7409376D01*
X11651557Y-7322491D01*
X11650973Y-7321866D01*
X11647716Y-7318133D01*
X11647217Y-7317560D01*
X11642053Y-7313931D01*
X11641524Y-7313538D01*
X11637152Y-7310110D01*
X11637152Y-7310110D01*
X11636554Y-7309642D01*
X11635862Y-7309329D01*
X11635567Y-7309150D01*
X11634271Y-7308411D01*
X11633967Y-7308248D01*
X11633345Y-7307811D01*
X11627463Y-7305518D01*
X11626855Y-7305262D01*
X11626385Y-7305050D01*
X11621102Y-7302664D01*
X11620354Y-7302526D01*
X11620028Y-7302424D01*
X11618584Y-7302012D01*
X11618256Y-7301928D01*
X11617549Y-7301652D01*
X11613082Y-7301064D01*
X11611289Y-7300828D01*
X11610638Y-7300725D01*
X11605177Y-7299713D01*
X11604431Y-7299575D01*
X11603673Y-7299618D01*
X11603673Y-7299618D01*
X11598286Y-7299929D01*
X11597560Y-7299950D01*
X11060872Y-7299950D01*
X11060806Y-7299950D01*
X11051890Y-7299903D01*
X11051739Y-7299939D01*
X11051552Y-7299950D01*
X10942864Y-7299950D01*
X10942007Y-7299921D01*
X10937065Y-7299584D01*
X10937064Y-7299584D01*
X10936307Y-7299532D01*
X10935559Y-7299663D01*
X10935559Y-7299663D01*
X10930087Y-7300618D01*
X10929434Y-7300714D01*
X10925390Y-7301203D01*
X10923168Y-7301472D01*
X10922457Y-7301741D01*
X10922128Y-7301822D01*
X10920681Y-7302218D01*
X10920353Y-7302317D01*
X10919605Y-7302447D01*
X10918909Y-7302753D01*
X10918909Y-7302753D01*
X10913824Y-7304985D01*
X10913213Y-7305234D01*
X10908018Y-7307197D01*
X10908018Y-7307197D01*
X10907308Y-7307465D01*
X10906682Y-7307895D01*
X10906380Y-7308053D01*
X10905070Y-7308782D01*
X10904776Y-7308957D01*
X10904080Y-7309262D01*
X10903477Y-7309725D01*
X10903477Y-7309725D01*
X10899073Y-7313104D01*
X10898539Y-7313492D01*
X10893961Y-7316638D01*
X10893961Y-7316639D01*
X10893335Y-7317069D01*
X10890649Y-7320083D01*
X10889239Y-7321666D01*
X10888741Y-7322193D01*
X10464675Y-7746259D01*
X10458444Y-7749662D01*
X10455765Y-7749950D01*
X9620872Y-7749950D01*
X9620806Y-7749950D01*
X9611890Y-7749903D01*
X9610154Y-7750320D01*
X9608280Y-7750770D01*
X9606852Y-7751026D01*
X9603922Y-7751381D01*
X9603922Y-7751381D01*
X9603168Y-7751472D01*
X9602457Y-7751741D01*
X9602457Y-7751741D01*
X9600102Y-7752631D01*
X9598590Y-7753096D01*
X9596142Y-7753684D01*
X9596141Y-7753684D01*
X9595403Y-7753861D01*
X9594729Y-7754209D01*
X9594728Y-7754209D01*
X9592105Y-7755563D01*
X9590780Y-7756153D01*
X9587308Y-7757465D01*
X9585046Y-7759020D01*
X9584607Y-7759322D01*
X9583249Y-7760135D01*
X9581012Y-7761289D01*
X9580337Y-7761637D01*
X9579764Y-7762137D01*
X9579764Y-7762137D01*
X9577540Y-7764077D01*
X9576394Y-7764966D01*
X9573335Y-7767069D01*
X9571796Y-7768796D01*
X9571155Y-7769516D01*
X9570031Y-7770628D01*
X9567560Y-7772783D01*
X9565426Y-7775820D01*
X9564525Y-7776956D01*
X9562056Y-7779728D01*
X9561701Y-7780399D01*
X9560523Y-7782624D01*
X9559696Y-7783973D01*
X9558248Y-7786033D01*
X9557811Y-7786655D01*
X9557536Y-7787362D01*
X9556463Y-7790112D01*
X9555859Y-7791431D01*
X9554478Y-7794040D01*
X9554477Y-7794041D01*
X9554122Y-7794712D01*
X9553938Y-7795448D01*
X9553937Y-7795448D01*
X9553324Y-7797890D01*
X9552843Y-7799397D01*
X9551652Y-7802451D01*
X9551553Y-7803204D01*
X9551168Y-7806131D01*
X9550896Y-7807556D01*
X9549992Y-7811156D01*
X9549988Y-7811916D01*
X9549988Y-7811916D01*
X9549975Y-7814433D01*
X9549867Y-7816012D01*
X9549539Y-7818508D01*
X9549539Y-7818508D01*
X9549439Y-7819261D01*
X7318208Y-7819261D01*
X7316160Y-7815109D01*
X7316160Y-7815109D01*
X7315978Y-7814739D01*
X7307295Y-7801744D01*
X7300181Y-7791098D01*
X7300181Y-7791097D01*
X7299952Y-7790755D01*
X7299681Y-7790445D01*
X7299680Y-7790445D01*
X7281204Y-7769376D01*
X7280933Y-7769067D01*
X7275243Y-7764077D01*
X7259555Y-7750320D01*
X7259555Y-7750319D01*
X7259245Y-7750048D01*
X7258903Y-7749819D01*
X7258902Y-7749819D01*
X7235604Y-7734252D01*
X7235261Y-7734022D01*
X7234891Y-7733840D01*
X7234891Y-7733839D01*
X7209760Y-7721446D01*
X7209759Y-7721446D01*
X7209390Y-7721264D01*
X7189214Y-7714415D01*
X7182466Y-7712125D01*
X7182466Y-7712124D01*
X7182075Y-7711992D01*
X7181671Y-7711911D01*
X7181670Y-7711911D01*
X7154188Y-7706445D01*
X7154188Y-7706445D01*
X7153784Y-7706364D01*
X7153373Y-7706337D01*
X7153372Y-7706337D01*
X7125412Y-7704505D01*
X7125000Y-7704478D01*
X7124588Y-7704505D01*
X7096628Y-7706337D01*
X7096627Y-7706337D01*
X7096216Y-7706364D01*
X7095812Y-7706445D01*
X7095812Y-7706445D01*
X7068330Y-7711911D01*
X7068329Y-7711911D01*
X7067925Y-7711992D01*
X7067534Y-7712124D01*
X7067534Y-7712125D01*
X7060786Y-7714415D01*
X7040610Y-7721264D01*
X7040240Y-7721446D01*
X7040240Y-7721446D01*
X7015109Y-7733839D01*
X7015109Y-7733840D01*
X7014739Y-7734022D01*
X7014396Y-7734252D01*
X6991098Y-7749819D01*
X6991097Y-7749819D01*
X6990755Y-7750048D01*
X6990445Y-7750319D01*
X6990445Y-7750320D01*
X6974757Y-7764077D01*
X6969067Y-7769067D01*
X6968796Y-7769376D01*
X6950320Y-7790445D01*
X6950319Y-7790445D01*
X6950048Y-7790755D01*
X6949819Y-7791097D01*
X6949819Y-7791098D01*
X6942705Y-7801744D01*
X6934022Y-7814739D01*
X6933840Y-7815109D01*
X6933839Y-7815109D01*
X6925476Y-7832068D01*
X6921264Y-7840610D01*
X6921132Y-7841000D01*
X6921132Y-7841000D01*
X6912435Y-7866619D01*
X6911992Y-7867925D01*
X6911911Y-7868329D01*
X6911911Y-7868330D01*
X6907508Y-7890468D01*
X6906364Y-7896216D01*
X6904478Y-7925000D01*
X3947728Y-7925000D01*
X3998704Y-7776954D01*
X3998755Y-7776809D01*
X4001437Y-7769318D01*
X4001545Y-7769029D01*
X4004408Y-7761609D01*
X4004464Y-7761466D01*
X4076543Y-7581256D01*
X4102282Y-7516904D01*
X6149359Y-7516904D01*
X6151953Y-7529264D01*
X6152259Y-7530284D01*
X6160456Y-7551041D01*
X6160929Y-7551994D01*
X6172507Y-7571074D01*
X6173134Y-7571933D01*
X6187761Y-7588790D01*
X6188524Y-7589532D01*
X6205782Y-7603682D01*
X6206658Y-7604285D01*
X6226054Y-7615325D01*
X6227020Y-7615772D01*
X6247999Y-7623387D01*
X6249025Y-7623664D01*
X6271104Y-7627656D01*
X6271927Y-7627749D01*
X6273815Y-7627839D01*
X6274112Y-7627846D01*
X6279816Y-7627846D01*
X6281340Y-7627398D01*
X6281460Y-7627259D01*
X6281628Y-7626491D01*
X6281628Y-7626034D01*
X6332428Y-7626034D01*
X6332875Y-7627558D01*
X6333014Y-7627678D01*
X6333782Y-7627846D01*
X6335133Y-7627846D01*
X6335664Y-7627823D01*
X6352298Y-7626412D01*
X6353345Y-7626233D01*
X6374948Y-7620626D01*
X6375952Y-7620272D01*
X6396301Y-7611106D01*
X6397229Y-7610589D01*
X6415743Y-7598125D01*
X6416572Y-7597458D01*
X6432721Y-7582053D01*
X6433425Y-7581256D01*
X6446748Y-7563350D01*
X6447308Y-7562447D01*
X6457423Y-7542552D01*
X6457823Y-7541566D01*
X6464441Y-7520253D01*
X6464670Y-7519215D01*
X6464931Y-7517241D01*
X6464712Y-7515825D01*
X6463393Y-7515446D01*
X6334239Y-7515446D01*
X6332715Y-7515893D01*
X6332595Y-7516032D01*
X6332428Y-7516800D01*
X6332428Y-7626034D01*
X6281628Y-7626034D01*
X6281628Y-7517257D01*
X6281180Y-7515733D01*
X6281041Y-7515613D01*
X6280273Y-7515446D01*
X6150865Y-7515446D01*
X6149512Y-7515843D01*
X6149359Y-7516904D01*
X4102282Y-7516904D01*
X4114467Y-7486439D01*
X4114518Y-7486313D01*
X4117568Y-7478951D01*
X4117688Y-7478670D01*
X4120909Y-7471401D01*
X4120973Y-7471261D01*
X4124823Y-7462850D01*
X6149124Y-7462850D01*
X6149344Y-7464266D01*
X6150662Y-7464646D01*
X6463190Y-7464646D01*
X6464543Y-7464248D01*
X6464696Y-7463188D01*
X6462294Y-7451740D01*
X9764971Y-7451740D01*
X9767119Y-7460654D01*
X9767508Y-7461783D01*
X9775763Y-7479938D01*
X9776358Y-7480972D01*
X9787897Y-7497240D01*
X9788676Y-7498142D01*
X9803083Y-7511934D01*
X9804020Y-7512674D01*
X9820774Y-7523492D01*
X9821835Y-7524042D01*
X9840331Y-7531496D01*
X9841477Y-7531835D01*
X9861193Y-7535686D01*
X9862079Y-7535793D01*
X9862350Y-7535800D01*
X9872789Y-7535800D01*
X9874312Y-7535352D01*
X9874433Y-7535213D01*
X9874600Y-7534445D01*
X9874600Y-7533988D01*
X9925400Y-7533988D01*
X9925848Y-7535512D01*
X9925987Y-7535633D01*
X9926755Y-7535800D01*
X9932483Y-7535800D01*
X9933081Y-7535771D01*
X9947949Y-7534353D01*
X9949123Y-7534127D01*
X9968260Y-7528513D01*
X9969368Y-7528070D01*
X9987098Y-7518938D01*
X9988102Y-7518293D01*
X10003786Y-7505974D01*
X10004651Y-7505150D01*
X10017721Y-7490088D01*
X10018415Y-7489115D01*
X10028401Y-7471853D01*
X10028898Y-7470767D01*
X10035441Y-7451927D01*
X10035465Y-7451828D01*
X10035318Y-7450799D01*
X10033962Y-7450400D01*
X9927212Y-7450400D01*
X9925688Y-7450847D01*
X9925567Y-7450986D01*
X9925400Y-7451755D01*
X9925400Y-7533988D01*
X9874600Y-7533988D01*
X9874600Y-7452211D01*
X9874153Y-7450688D01*
X9874014Y-7450567D01*
X9873245Y-7450400D01*
X9766460Y-7450400D01*
X9765107Y-7450797D01*
X9764971Y-7451740D01*
X6462294Y-7451740D01*
X6462102Y-7450827D01*
X6461796Y-7449807D01*
X6453599Y-7429050D01*
X6453126Y-7428097D01*
X6441548Y-7409017D01*
X6440921Y-7408158D01*
X6432256Y-7398172D01*
X9764535Y-7398172D01*
X9764682Y-7399201D01*
X9766039Y-7399600D01*
X10033540Y-7399600D01*
X10034893Y-7399203D01*
X10035029Y-7398260D01*
X10032881Y-7389346D01*
X10032492Y-7388217D01*
X10024237Y-7370062D01*
X10023642Y-7369028D01*
X10012103Y-7352760D01*
X10011324Y-7351857D01*
X9996917Y-7338066D01*
X9995980Y-7337326D01*
X9979226Y-7326508D01*
X9978166Y-7325958D01*
X9977737Y-7325786D01*
X9972167Y-7321384D01*
X9969860Y-7314669D01*
X9971550Y-7307774D01*
X9976700Y-7302886D01*
X9978272Y-7302211D01*
X9983818Y-7300263D01*
X9984575Y-7299704D01*
X9984576Y-7299704D01*
X9993958Y-7292774D01*
X9994715Y-7292215D01*
X9999474Y-7285772D01*
X10002204Y-7282076D01*
X10002204Y-7282075D01*
X10002763Y-7281318D01*
X10007252Y-7268537D01*
X10007550Y-7265383D01*
X10007550Y-7184617D01*
X10007252Y-7181463D01*
X10002763Y-7168682D01*
X10002204Y-7167925D01*
X10002204Y-7167924D01*
X9995274Y-7158542D01*
X9994715Y-7157785D01*
X9989070Y-7153615D01*
X9984576Y-7150296D01*
X9984575Y-7150296D01*
X9983818Y-7149737D01*
X9971037Y-7145248D01*
X9970272Y-7145176D01*
X9970272Y-7145176D01*
X9969675Y-7145119D01*
X9967883Y-7144950D01*
X9832117Y-7144950D01*
X9830325Y-7145119D01*
X9829728Y-7145176D01*
X9829728Y-7145176D01*
X9828963Y-7145248D01*
X9816182Y-7149737D01*
X9815425Y-7150296D01*
X9815424Y-7150296D01*
X9810930Y-7153615D01*
X9805285Y-7157785D01*
X9804726Y-7158542D01*
X9797796Y-7167924D01*
X9797796Y-7167925D01*
X9797237Y-7168682D01*
X9792748Y-7181463D01*
X9792450Y-7184617D01*
X9792450Y-7265383D01*
X9792748Y-7268537D01*
X9797237Y-7281318D01*
X9797796Y-7282075D01*
X9797796Y-7282076D01*
X9800526Y-7285772D01*
X9805285Y-7292215D01*
X9806042Y-7292774D01*
X9815424Y-7299704D01*
X9815425Y-7299704D01*
X9816182Y-7300263D01*
X9822183Y-7302371D01*
X9827948Y-7306515D01*
X9830556Y-7313118D01*
X9829181Y-7320083D01*
X9823777Y-7325461D01*
X9812902Y-7331062D01*
X9811898Y-7331707D01*
X9796214Y-7344026D01*
X9795349Y-7344850D01*
X9782279Y-7359912D01*
X9781585Y-7360885D01*
X9771599Y-7378147D01*
X9771102Y-7379233D01*
X9764559Y-7398073D01*
X9764535Y-7398172D01*
X6432256Y-7398172D01*
X6426294Y-7391301D01*
X6425531Y-7390559D01*
X6408273Y-7376409D01*
X6407397Y-7375806D01*
X6391256Y-7366618D01*
X6386325Y-7361510D01*
X6384939Y-7354547D01*
X6387537Y-7347940D01*
X6393295Y-7343787D01*
X6396828Y-7343096D01*
X6396911Y-7343096D01*
X6397207Y-7343068D01*
X6397207Y-7343068D01*
X6399300Y-7342870D01*
X6399300Y-7342870D01*
X6400064Y-7342797D01*
X6412846Y-7338309D01*
X6413603Y-7337750D01*
X6413603Y-7337750D01*
X6422490Y-7331186D01*
X6423743Y-7330261D01*
X6429480Y-7322493D01*
X6431232Y-7320121D01*
X6431232Y-7320121D01*
X6431791Y-7319364D01*
X6436279Y-7306582D01*
X6436578Y-7303429D01*
X6436578Y-7168662D01*
X6436279Y-7165509D01*
X6431791Y-7152727D01*
X6431232Y-7151970D01*
X6431232Y-7151970D01*
X6424302Y-7142588D01*
X6423743Y-7141831D01*
X6422048Y-7140579D01*
X6413603Y-7134341D01*
X6413603Y-7134341D01*
X6412846Y-7133782D01*
X6400064Y-7129294D01*
X6399300Y-7129221D01*
X6399300Y-7129221D01*
X6398703Y-7129165D01*
X6396911Y-7128996D01*
X6217144Y-7128996D01*
X6215352Y-7129165D01*
X6214755Y-7129221D01*
X6214755Y-7129221D01*
X6213991Y-7129294D01*
X6201209Y-7133782D01*
X6200452Y-7134341D01*
X6200452Y-7134341D01*
X6192007Y-7140579D01*
X6190313Y-7141831D01*
X6189753Y-7142588D01*
X6182823Y-7151970D01*
X6182823Y-7151970D01*
X6182264Y-7152727D01*
X6177776Y-7165509D01*
X6177478Y-7168662D01*
X6177478Y-7303429D01*
X6177776Y-7306582D01*
X6182264Y-7319364D01*
X6182823Y-7320121D01*
X6182823Y-7320121D01*
X6184575Y-7322493D01*
X6190313Y-7330261D01*
X6191565Y-7331186D01*
X6200452Y-7337750D01*
X6200452Y-7337750D01*
X6201209Y-7338309D01*
X6213991Y-7342797D01*
X6214755Y-7342870D01*
X6214755Y-7342870D01*
X6215775Y-7342966D01*
X6217144Y-7343096D01*
X6217255Y-7343096D01*
X6223936Y-7345404D01*
X6228328Y-7350983D01*
X6229006Y-7358050D01*
X6225756Y-7364362D01*
X6221807Y-7367160D01*
X6217755Y-7368985D01*
X6216826Y-7369502D01*
X6198312Y-7381967D01*
X6197483Y-7382633D01*
X6181335Y-7398038D01*
X6180630Y-7398835D01*
X6167307Y-7416741D01*
X6166747Y-7417644D01*
X6156632Y-7437539D01*
X6156232Y-7438525D01*
X6149614Y-7459838D01*
X6149386Y-7460876D01*
X6149124Y-7462850D01*
X4124823Y-7462850D01*
X4244283Y-7201928D01*
X4244340Y-7201805D01*
X4247744Y-7194604D01*
X4247877Y-7194331D01*
X4247962Y-7194163D01*
X4248124Y-7193841D01*
X4251448Y-7187230D01*
X4251518Y-7187093D01*
X4387832Y-6924117D01*
X4387904Y-6923981D01*
X4389147Y-6921652D01*
X10914727Y-6921652D01*
X10919476Y-6939376D01*
X10919851Y-6940405D01*
X10929059Y-6960151D01*
X10929607Y-6961101D01*
X10942103Y-6978947D01*
X10942808Y-6979787D01*
X10958213Y-6995192D01*
X10959053Y-6995897D01*
X10976899Y-7008393D01*
X10977849Y-7008941D01*
X10997595Y-7018149D01*
X10998624Y-7018524D01*
X11015850Y-7023139D01*
X11017260Y-7023106D01*
X11017600Y-7022312D01*
X11017600Y-7021797D01*
X11068400Y-7021797D01*
X11068797Y-7023150D01*
X11069652Y-7023273D01*
X11087376Y-7018524D01*
X11088405Y-7018149D01*
X11108151Y-7008941D01*
X11109101Y-7008393D01*
X11126947Y-6995897D01*
X11127788Y-6995192D01*
X11143192Y-6979787D01*
X11143897Y-6978947D01*
X11156393Y-6961101D01*
X11156941Y-6960151D01*
X11166149Y-6940405D01*
X11166524Y-6939376D01*
X11172163Y-6918331D01*
X11172353Y-6917251D01*
X11172866Y-6911390D01*
X11175452Y-6904778D01*
X11181203Y-6900614D01*
X11188291Y-6900220D01*
X11194468Y-6903721D01*
X11197771Y-6910006D01*
X11197974Y-6911434D01*
X11198066Y-6912534D01*
X11198066Y-6912535D01*
X11198117Y-6913148D01*
X11203526Y-6932009D01*
X11203808Y-6932557D01*
X11212212Y-6948911D01*
X11212213Y-6948912D01*
X11212494Y-6949460D01*
X11224682Y-6964837D01*
X11225151Y-6965236D01*
X11225151Y-6965236D01*
X11238217Y-6976356D01*
X11239624Y-6977553D01*
X11240162Y-6977854D01*
X11240162Y-6977854D01*
X11243621Y-6979787D01*
X11256751Y-6987126D01*
X11275412Y-6993189D01*
X11294895Y-6995512D01*
X11295508Y-6995465D01*
X11295508Y-6995465D01*
X11313843Y-6994054D01*
X11313844Y-6994054D01*
X11314458Y-6994007D01*
X11333356Y-6988730D01*
X11350869Y-6979884D01*
X11353851Y-6977553D01*
X11365845Y-6968183D01*
X11366330Y-6967804D01*
X11369308Y-6964354D01*
X11378748Y-6953417D01*
X11378748Y-6953417D01*
X11379151Y-6952951D01*
X11388842Y-6935891D01*
X11395036Y-6917273D01*
X11397495Y-6897807D01*
X11397534Y-6895000D01*
X11397396Y-6893596D01*
X11450476Y-6893596D01*
X11452117Y-6913148D01*
X11457526Y-6932009D01*
X11457808Y-6932557D01*
X11466212Y-6948911D01*
X11466213Y-6948912D01*
X11466494Y-6949460D01*
X11478682Y-6964837D01*
X11479151Y-6965236D01*
X11479151Y-6965236D01*
X11492217Y-6976356D01*
X11493624Y-6977553D01*
X11494162Y-6977854D01*
X11494162Y-6977854D01*
X11497621Y-6979787D01*
X11510751Y-6987126D01*
X11529412Y-6993189D01*
X11548895Y-6995512D01*
X11549508Y-6995465D01*
X11549508Y-6995465D01*
X11567843Y-6994054D01*
X11567844Y-6994054D01*
X11568458Y-6994007D01*
X11587356Y-6988730D01*
X11604869Y-6979884D01*
X11607851Y-6977553D01*
X11619845Y-6968183D01*
X11620330Y-6967804D01*
X11623308Y-6964354D01*
X11632748Y-6953417D01*
X11632748Y-6953417D01*
X11633151Y-6952951D01*
X11642842Y-6935891D01*
X11649036Y-6917273D01*
X11651495Y-6897807D01*
X11651534Y-6895000D01*
X11649619Y-6875473D01*
X11649441Y-6874883D01*
X11649441Y-6874882D01*
X11644126Y-6857279D01*
X11643948Y-6856689D01*
X11634737Y-6839365D01*
X11622336Y-6824160D01*
X11607218Y-6811653D01*
X11589958Y-6802321D01*
X11580587Y-6799420D01*
X11571804Y-6796701D01*
X11571804Y-6796701D01*
X11571215Y-6796519D01*
X11570603Y-6796455D01*
X11570603Y-6796455D01*
X11552315Y-6794533D01*
X11552315Y-6794533D01*
X11551702Y-6794468D01*
X11539438Y-6795584D01*
X11532776Y-6796191D01*
X11532776Y-6796191D01*
X11532162Y-6796247D01*
X11531570Y-6796421D01*
X11531570Y-6796421D01*
X11519899Y-6799856D01*
X11513339Y-6801786D01*
X11512793Y-6802072D01*
X11496497Y-6810591D01*
X11496497Y-6810591D01*
X11495951Y-6810877D01*
X11495471Y-6811263D01*
X11495471Y-6811263D01*
X11494034Y-6812418D01*
X11480660Y-6823171D01*
X11468048Y-6838202D01*
X11467752Y-6838741D01*
X11467751Y-6838741D01*
X11461785Y-6849595D01*
X11458596Y-6855395D01*
X11452663Y-6874098D01*
X11450476Y-6893596D01*
X11397396Y-6893596D01*
X11395619Y-6875473D01*
X11395441Y-6874883D01*
X11395441Y-6874882D01*
X11390126Y-6857279D01*
X11389948Y-6856689D01*
X11380737Y-6839365D01*
X11368336Y-6824160D01*
X11353218Y-6811653D01*
X11335958Y-6802321D01*
X11326587Y-6799420D01*
X11317804Y-6796701D01*
X11317804Y-6796701D01*
X11317215Y-6796519D01*
X11316603Y-6796455D01*
X11316603Y-6796455D01*
X11298315Y-6794533D01*
X11298315Y-6794533D01*
X11297702Y-6794468D01*
X11285438Y-6795584D01*
X11278776Y-6796191D01*
X11278776Y-6796191D01*
X11278162Y-6796247D01*
X11277570Y-6796421D01*
X11277570Y-6796421D01*
X11265899Y-6799856D01*
X11259339Y-6801786D01*
X11258793Y-6802072D01*
X11242497Y-6810591D01*
X11242497Y-6810591D01*
X11241951Y-6810877D01*
X11241471Y-6811263D01*
X11241471Y-6811263D01*
X11240034Y-6812418D01*
X11226660Y-6823171D01*
X11214048Y-6838202D01*
X11213752Y-6838741D01*
X11213751Y-6838741D01*
X11207785Y-6849595D01*
X11204596Y-6855395D01*
X11198663Y-6874098D01*
X11198019Y-6879833D01*
X11195272Y-6886380D01*
X11189422Y-6890402D01*
X11182326Y-6890623D01*
X11176237Y-6886972D01*
X11173088Y-6880609D01*
X11172946Y-6879527D01*
X11172353Y-6872748D01*
X11172163Y-6871669D01*
X11166524Y-6850624D01*
X11166149Y-6849595D01*
X11156941Y-6829849D01*
X11156393Y-6828899D01*
X11143897Y-6811053D01*
X11143192Y-6810212D01*
X11127788Y-6794808D01*
X11126947Y-6794103D01*
X11109101Y-6781607D01*
X11108151Y-6781059D01*
X11088405Y-6771851D01*
X11087376Y-6771476D01*
X11070150Y-6766861D01*
X11068740Y-6766894D01*
X11068400Y-6767688D01*
X11068400Y-7021797D01*
X11017600Y-7021797D01*
X11017600Y-6922211D01*
X11017153Y-6920688D01*
X11017014Y-6920567D01*
X11016245Y-6920400D01*
X10916203Y-6920400D01*
X10914850Y-6920797D01*
X10914727Y-6921652D01*
X4389147Y-6921652D01*
X4391653Y-6916960D01*
X4391801Y-6916690D01*
X4393470Y-6913740D01*
X4395718Y-6909766D01*
X4395793Y-6909635D01*
X4398620Y-6904778D01*
X4420113Y-6867850D01*
X10914861Y-6867850D01*
X10914894Y-6869260D01*
X10915688Y-6869600D01*
X11015789Y-6869600D01*
X11017312Y-6869152D01*
X11017433Y-6869013D01*
X11017600Y-6868245D01*
X11017600Y-6768203D01*
X11017203Y-6766850D01*
X11016348Y-6766727D01*
X10998624Y-6771476D01*
X10997595Y-6771851D01*
X10977849Y-6781059D01*
X10976899Y-6781607D01*
X10959053Y-6794103D01*
X10958213Y-6794808D01*
X10942808Y-6810212D01*
X10942103Y-6811053D01*
X10929607Y-6828899D01*
X10929059Y-6829849D01*
X10919851Y-6849595D01*
X10919476Y-6850624D01*
X10914861Y-6867850D01*
X4420113Y-6867850D01*
X4445842Y-6823643D01*
X4518615Y-6698606D01*
X7817849Y-6698606D01*
X7818779Y-6699808D01*
X7823899Y-6703393D01*
X7824849Y-6703941D01*
X7844595Y-6713149D01*
X7845624Y-6713524D01*
X7866669Y-6719162D01*
X7867748Y-6719353D01*
X7889452Y-6721252D01*
X7890547Y-6721252D01*
X7912252Y-6719353D01*
X7913331Y-6719162D01*
X7934376Y-6713524D01*
X7935405Y-6713149D01*
X7955151Y-6703941D01*
X7956101Y-6703393D01*
X7961305Y-6699749D01*
X7962142Y-6698701D01*
X7961436Y-6697357D01*
X7891281Y-6627202D01*
X7889887Y-6626441D01*
X7889703Y-6626454D01*
X7889042Y-6626879D01*
X7818492Y-6697429D01*
X7817849Y-6698606D01*
X4518615Y-6698606D01*
X4534115Y-6671975D01*
X7439950Y-6671975D01*
X7441113Y-6677823D01*
X7445545Y-6684455D01*
X7452177Y-6688887D01*
X7453394Y-6689129D01*
X7453394Y-6689129D01*
X7457418Y-6689929D01*
X7458025Y-6690050D01*
X7621975Y-6690050D01*
X7622582Y-6689929D01*
X7626606Y-6689129D01*
X7626606Y-6689129D01*
X7627823Y-6688887D01*
X7634455Y-6684455D01*
X7638887Y-6677823D01*
X7640050Y-6671975D01*
X7640050Y-6590547D01*
X7758748Y-6590547D01*
X7760647Y-6612252D01*
X7760837Y-6613331D01*
X7766476Y-6634376D01*
X7766851Y-6635405D01*
X7776059Y-6655151D01*
X7776607Y-6656101D01*
X7780251Y-6661305D01*
X7781299Y-6662142D01*
X7782643Y-6661436D01*
X7852798Y-6591281D01*
X7853436Y-6590113D01*
X7926441Y-6590113D01*
X7926454Y-6590296D01*
X7926879Y-6590958D01*
X7997429Y-6661508D01*
X7998606Y-6662151D01*
X7999808Y-6661221D01*
X8003393Y-6656101D01*
X8003941Y-6655151D01*
X8013149Y-6635405D01*
X8013524Y-6634376D01*
X8019162Y-6613331D01*
X8019353Y-6612252D01*
X8021252Y-6590547D01*
X8021252Y-6589452D01*
X8019353Y-6567748D01*
X8019162Y-6566669D01*
X8013524Y-6545624D01*
X8013149Y-6544595D01*
X8003941Y-6524849D01*
X8003393Y-6523899D01*
X7999749Y-6518695D01*
X7998701Y-6517858D01*
X7997357Y-6518564D01*
X7927202Y-6588719D01*
X7926441Y-6590113D01*
X7853436Y-6590113D01*
X7853559Y-6589887D01*
X7853546Y-6589703D01*
X7853121Y-6589042D01*
X7782571Y-6518492D01*
X7781394Y-6517849D01*
X7780192Y-6518779D01*
X7776607Y-6523899D01*
X7776059Y-6524849D01*
X7766851Y-6544595D01*
X7766476Y-6545624D01*
X7760837Y-6566669D01*
X7760647Y-6567748D01*
X7758748Y-6589452D01*
X7758748Y-6590547D01*
X7640050Y-6590547D01*
X7640050Y-6508025D01*
X7638887Y-6502177D01*
X7634455Y-6495545D01*
X7627823Y-6491113D01*
X7626606Y-6490871D01*
X7626606Y-6490871D01*
X7622582Y-6490071D01*
X7621975Y-6489950D01*
X7458025Y-6489950D01*
X7457418Y-6490071D01*
X7453394Y-6490871D01*
X7453394Y-6490871D01*
X7452177Y-6491113D01*
X7445545Y-6495545D01*
X7441113Y-6502177D01*
X7439950Y-6508025D01*
X7439950Y-6671975D01*
X4534115Y-6671975D01*
X4544794Y-6653626D01*
X4544873Y-6653494D01*
X4548957Y-6646670D01*
X4549115Y-6646413D01*
X4549264Y-6646177D01*
X4553375Y-6639674D01*
X4553441Y-6639571D01*
X4656224Y-6481299D01*
X7817858Y-6481299D01*
X7818564Y-6482643D01*
X7888719Y-6552798D01*
X7890113Y-6553559D01*
X7890296Y-6553546D01*
X7890958Y-6553121D01*
X7961508Y-6482571D01*
X7962151Y-6481394D01*
X7961221Y-6480192D01*
X7956101Y-6476607D01*
X7955151Y-6476059D01*
X7935405Y-6466851D01*
X7934376Y-6466476D01*
X7913331Y-6460837D01*
X7912252Y-6460647D01*
X7890547Y-6458748D01*
X7889452Y-6458748D01*
X7867748Y-6460647D01*
X7866669Y-6460837D01*
X7845624Y-6466476D01*
X7844595Y-6466851D01*
X7824849Y-6476059D01*
X7823899Y-6476607D01*
X7818695Y-6480251D01*
X7817858Y-6481299D01*
X4656224Y-6481299D01*
X4714773Y-6391141D01*
X4714858Y-6391013D01*
X4719273Y-6384393D01*
X4719444Y-6384142D01*
X4724018Y-6377635D01*
X4724107Y-6377510D01*
X4861496Y-6187015D01*
X9819950Y-6187015D01*
X9821445Y-6200347D01*
X9821677Y-6201012D01*
X9821677Y-6201013D01*
X9822057Y-6202104D01*
X9827352Y-6217307D01*
X9827725Y-6217905D01*
X9827725Y-6217905D01*
X9833259Y-6226762D01*
X9836868Y-6232537D01*
X9841397Y-6237098D01*
X9849027Y-6244781D01*
X9849027Y-6244781D01*
X9849523Y-6245281D01*
X9850118Y-6245658D01*
X9850118Y-6245658D01*
X9852101Y-6246917D01*
X9864686Y-6254904D01*
X9866689Y-6255617D01*
X9880941Y-6260692D01*
X9880942Y-6260692D01*
X9881605Y-6260928D01*
X9882304Y-6261011D01*
X9882304Y-6261011D01*
X9894973Y-6262522D01*
X9899438Y-6263054D01*
X9900138Y-6262981D01*
X9900138Y-6262981D01*
X9916598Y-6261251D01*
X9916598Y-6261251D01*
X9917298Y-6261177D01*
X9927327Y-6257763D01*
X9933632Y-6255617D01*
X9933633Y-6255617D01*
X9934299Y-6255390D01*
X9935704Y-6254526D01*
X9948996Y-6246348D01*
X9949596Y-6245979D01*
X9950099Y-6245487D01*
X9950099Y-6245486D01*
X9956908Y-6238818D01*
X9962427Y-6233414D01*
X9962992Y-6232537D01*
X9969213Y-6222883D01*
X10019950Y-6222883D01*
X10020248Y-6226037D01*
X10024737Y-6238818D01*
X10025296Y-6239575D01*
X10025296Y-6239576D01*
X10030718Y-6246917D01*
X10032785Y-6249715D01*
X10033542Y-6250274D01*
X10042924Y-6257204D01*
X10042925Y-6257204D01*
X10043682Y-6257763D01*
X10056463Y-6262252D01*
X10057228Y-6262324D01*
X10057228Y-6262324D01*
X10057825Y-6262381D01*
X10059617Y-6262550D01*
X10140383Y-6262550D01*
X10142175Y-6262381D01*
X10142772Y-6262324D01*
X10142772Y-6262324D01*
X10143537Y-6262252D01*
X10156318Y-6257763D01*
X10157075Y-6257204D01*
X10157076Y-6257204D01*
X10166458Y-6250274D01*
X10167215Y-6249715D01*
X10169282Y-6246917D01*
X10174704Y-6239576D01*
X10174704Y-6239575D01*
X10175263Y-6238818D01*
X10179752Y-6226037D01*
X10180050Y-6222883D01*
X10180050Y-6182483D01*
X11949200Y-6182483D01*
X11949228Y-6183081D01*
X11950647Y-6197949D01*
X11950873Y-6199123D01*
X11956487Y-6218260D01*
X11956930Y-6219367D01*
X11966062Y-6237098D01*
X11966707Y-6238102D01*
X11979026Y-6253786D01*
X11979850Y-6254651D01*
X11994912Y-6267721D01*
X11995885Y-6268415D01*
X12013147Y-6278401D01*
X12014233Y-6278898D01*
X12033073Y-6285441D01*
X12033172Y-6285465D01*
X12034201Y-6285318D01*
X12034600Y-6283961D01*
X12034600Y-6283540D01*
X12085400Y-6283540D01*
X12085797Y-6284893D01*
X12086740Y-6285029D01*
X12095654Y-6282881D01*
X12096783Y-6282492D01*
X12114938Y-6274237D01*
X12115972Y-6273642D01*
X12132240Y-6262103D01*
X12133142Y-6261324D01*
X12146934Y-6246917D01*
X12147674Y-6245980D01*
X12158492Y-6229226D01*
X12159041Y-6228166D01*
X12159214Y-6227737D01*
X12163616Y-6222167D01*
X12170331Y-6219860D01*
X12177226Y-6221550D01*
X12182114Y-6226700D01*
X12182789Y-6228272D01*
X12184737Y-6233818D01*
X12185296Y-6234575D01*
X12185296Y-6234576D01*
X12187901Y-6238102D01*
X12192785Y-6244715D01*
X12193542Y-6245274D01*
X12202924Y-6252204D01*
X12202925Y-6252204D01*
X12203682Y-6252763D01*
X12216463Y-6257252D01*
X12217228Y-6257324D01*
X12217228Y-6257324D01*
X12217825Y-6257381D01*
X12219617Y-6257550D01*
X12300383Y-6257550D01*
X12302175Y-6257381D01*
X12302772Y-6257324D01*
X12302772Y-6257324D01*
X12303537Y-6257252D01*
X12316318Y-6252763D01*
X12317075Y-6252204D01*
X12317076Y-6252204D01*
X12326458Y-6245274D01*
X12327215Y-6244715D01*
X12332099Y-6238102D01*
X12334704Y-6234576D01*
X12334704Y-6234575D01*
X12335263Y-6233818D01*
X12339752Y-6221037D01*
X12340050Y-6217883D01*
X12340050Y-6082117D01*
X12339752Y-6078963D01*
X12335263Y-6066182D01*
X12334704Y-6065425D01*
X12334704Y-6065424D01*
X12327774Y-6056042D01*
X12327215Y-6055285D01*
X12324234Y-6053083D01*
X12317076Y-6047796D01*
X12317075Y-6047796D01*
X12316318Y-6047237D01*
X12303537Y-6042748D01*
X12302772Y-6042676D01*
X12302772Y-6042676D01*
X12302175Y-6042619D01*
X12300383Y-6042450D01*
X12219617Y-6042450D01*
X12217825Y-6042619D01*
X12217228Y-6042676D01*
X12217228Y-6042676D01*
X12216463Y-6042748D01*
X12203682Y-6047237D01*
X12202925Y-6047796D01*
X12202924Y-6047796D01*
X12195766Y-6053083D01*
X12192785Y-6055285D01*
X12192226Y-6056042D01*
X12185296Y-6065424D01*
X12185296Y-6065425D01*
X12184737Y-6066182D01*
X12182981Y-6071182D01*
X12182629Y-6072183D01*
X12178485Y-6077947D01*
X12171882Y-6080556D01*
X12164917Y-6079181D01*
X12159539Y-6073777D01*
X12153938Y-6062902D01*
X12153293Y-6061898D01*
X12140974Y-6046214D01*
X12140150Y-6045349D01*
X12125088Y-6032279D01*
X12124115Y-6031585D01*
X12106853Y-6021599D01*
X12105767Y-6021102D01*
X12086927Y-6014559D01*
X12086828Y-6014535D01*
X12085799Y-6014682D01*
X12085400Y-6016038D01*
X12085400Y-6283540D01*
X12034600Y-6283540D01*
X12034600Y-6177211D01*
X12034152Y-6175688D01*
X12034013Y-6175567D01*
X12033245Y-6175400D01*
X11951011Y-6175400D01*
X11949488Y-6175847D01*
X11949367Y-6175986D01*
X11949200Y-6176755D01*
X11949200Y-6182483D01*
X10180050Y-6182483D01*
X10180050Y-6122788D01*
X11949200Y-6122788D01*
X11949647Y-6124312D01*
X11949786Y-6124433D01*
X11950555Y-6124600D01*
X12032788Y-6124600D01*
X12034312Y-6124152D01*
X12034433Y-6124013D01*
X12034600Y-6123245D01*
X12034600Y-6016460D01*
X12034203Y-6015107D01*
X12033260Y-6014971D01*
X12024346Y-6017119D01*
X12023217Y-6017508D01*
X12005062Y-6025763D01*
X12004028Y-6026358D01*
X11987760Y-6037897D01*
X11986857Y-6038676D01*
X11973066Y-6053083D01*
X11972326Y-6054020D01*
X11961508Y-6070774D01*
X11960958Y-6071834D01*
X11953504Y-6090331D01*
X11953164Y-6091477D01*
X11949314Y-6111193D01*
X11949207Y-6112079D01*
X11949200Y-6112350D01*
X11949200Y-6122788D01*
X10180050Y-6122788D01*
X10180050Y-6087117D01*
X10179752Y-6083963D01*
X10175263Y-6071182D01*
X10174704Y-6070425D01*
X10174704Y-6070424D01*
X10167774Y-6061042D01*
X10167215Y-6060285D01*
X10161471Y-6056042D01*
X10157076Y-6052796D01*
X10157075Y-6052796D01*
X10156318Y-6052237D01*
X10143537Y-6047748D01*
X10142772Y-6047676D01*
X10142772Y-6047676D01*
X10142175Y-6047619D01*
X10140383Y-6047450D01*
X10059617Y-6047450D01*
X10057825Y-6047619D01*
X10057228Y-6047676D01*
X10057228Y-6047676D01*
X10056463Y-6047748D01*
X10043682Y-6052237D01*
X10042925Y-6052796D01*
X10042924Y-6052796D01*
X10038529Y-6056042D01*
X10032785Y-6060285D01*
X10032226Y-6061042D01*
X10025296Y-6070424D01*
X10025296Y-6070425D01*
X10024737Y-6071182D01*
X10020248Y-6083963D01*
X10019950Y-6087117D01*
X10019950Y-6222883D01*
X9969213Y-6222883D01*
X9971774Y-6218911D01*
X9972155Y-6218318D01*
X9972422Y-6217587D01*
X9978057Y-6202104D01*
X9978057Y-6202104D01*
X9978298Y-6201442D01*
X9980050Y-6187572D01*
X9980050Y-6122984D01*
X9978555Y-6109653D01*
X9972649Y-6092693D01*
X9971889Y-6091477D01*
X9963505Y-6078060D01*
X9963132Y-6077462D01*
X9952811Y-6067070D01*
X9950973Y-6065219D01*
X9950973Y-6065219D01*
X9950477Y-6064719D01*
X9949376Y-6064021D01*
X9936804Y-6056042D01*
X9935314Y-6055096D01*
X9929660Y-6053083D01*
X9919059Y-6049308D01*
X9919058Y-6049308D01*
X9918395Y-6049072D01*
X9917697Y-6048989D01*
X9917696Y-6048988D01*
X9904793Y-6047450D01*
X9900562Y-6046945D01*
X9899862Y-6047019D01*
X9899862Y-6047019D01*
X9883403Y-6048749D01*
X9883402Y-6048749D01*
X9882702Y-6048823D01*
X9882035Y-6049050D01*
X9866368Y-6054383D01*
X9866367Y-6054383D01*
X9865701Y-6054610D01*
X9865101Y-6054979D01*
X9865101Y-6054979D01*
X9863373Y-6056042D01*
X9850405Y-6064021D01*
X9849901Y-6064513D01*
X9849901Y-6064513D01*
X9847291Y-6067070D01*
X9837573Y-6076586D01*
X9837191Y-6077178D01*
X9837191Y-6077179D01*
X9828715Y-6090331D01*
X9827845Y-6091682D01*
X9821702Y-6108558D01*
X9819950Y-6122428D01*
X9819950Y-6187015D01*
X4861496Y-6187015D01*
X4897375Y-6137267D01*
X4897466Y-6137143D01*
X4902198Y-6130748D01*
X4902382Y-6130506D01*
X4907273Y-6124223D01*
X4907352Y-6124123D01*
X5086554Y-5899640D01*
X5092163Y-5892614D01*
X5092259Y-5892495D01*
X5097296Y-5886342D01*
X5097493Y-5886106D01*
X5100085Y-5883093D01*
X5100607Y-5882486D01*
X8409950Y-5882486D01*
X8410071Y-5883093D01*
X8410604Y-5885775D01*
X8411113Y-5888334D01*
X8415545Y-5894966D01*
X8422177Y-5899398D01*
X8423394Y-5899640D01*
X8423394Y-5899640D01*
X8427418Y-5900441D01*
X8428025Y-5900561D01*
X8591975Y-5900561D01*
X8592582Y-5900441D01*
X8596606Y-5899640D01*
X8596606Y-5899640D01*
X8597823Y-5899398D01*
X8604455Y-5894966D01*
X8608887Y-5888334D01*
X8609396Y-5885775D01*
X8609929Y-5883093D01*
X8610050Y-5882486D01*
X8610050Y-5718536D01*
X8608887Y-5712688D01*
X8604455Y-5706056D01*
X8597823Y-5701625D01*
X8596606Y-5701382D01*
X8596606Y-5701382D01*
X8592582Y-5700582D01*
X8591975Y-5700461D01*
X8551458Y-5700461D01*
X8544646Y-5698461D01*
X8539997Y-5693095D01*
X8538986Y-5686068D01*
X8541936Y-5679610D01*
X8548197Y-5675691D01*
X8554376Y-5674035D01*
X8555405Y-5673660D01*
X8575151Y-5664453D01*
X8576101Y-5663904D01*
X8581305Y-5660260D01*
X8582142Y-5659212D01*
X8581436Y-5657868D01*
X8511281Y-5587714D01*
X8509887Y-5586952D01*
X8509704Y-5586965D01*
X8509042Y-5587390D01*
X8438492Y-5657940D01*
X8437849Y-5659117D01*
X8438779Y-5660319D01*
X8443899Y-5663904D01*
X8444849Y-5664453D01*
X8464595Y-5673660D01*
X8465624Y-5674035D01*
X8471803Y-5675691D01*
X8477865Y-5679386D01*
X8480968Y-5685772D01*
X8480125Y-5692821D01*
X8475604Y-5698296D01*
X8468542Y-5700461D01*
X8428025Y-5700461D01*
X8427418Y-5700582D01*
X8423394Y-5701382D01*
X8423394Y-5701382D01*
X8422177Y-5701625D01*
X8415545Y-5706056D01*
X8411113Y-5712688D01*
X8409950Y-5718536D01*
X8409950Y-5882486D01*
X5100607Y-5882486D01*
X5102687Y-5880068D01*
X5102771Y-5879972D01*
X5298670Y-5657768D01*
X5298770Y-5657655D01*
X5304099Y-5651758D01*
X5304308Y-5651532D01*
X5309776Y-5645770D01*
X5309883Y-5645659D01*
X5401877Y-5551059D01*
X8378748Y-5551059D01*
X8380647Y-5572763D01*
X8380837Y-5573843D01*
X8386476Y-5594887D01*
X8386851Y-5595917D01*
X8396059Y-5615662D01*
X8396607Y-5616612D01*
X8400251Y-5621816D01*
X8401299Y-5622654D01*
X8402643Y-5621947D01*
X8472798Y-5551793D01*
X8473436Y-5550625D01*
X8546441Y-5550625D01*
X8546454Y-5550808D01*
X8546879Y-5551469D01*
X8617429Y-5622019D01*
X8618606Y-5622662D01*
X8619808Y-5621732D01*
X8623393Y-5616612D01*
X8623941Y-5615662D01*
X8633149Y-5595917D01*
X8633524Y-5594887D01*
X8639163Y-5573843D01*
X8639353Y-5572763D01*
X8641252Y-5551059D01*
X8641252Y-5549964D01*
X8639353Y-5528259D01*
X8639163Y-5527180D01*
X8633524Y-5506135D01*
X8633149Y-5505106D01*
X8623941Y-5485360D01*
X8623393Y-5484411D01*
X8619749Y-5479207D01*
X8618701Y-5478369D01*
X8617357Y-5479076D01*
X8547202Y-5549230D01*
X8546441Y-5550625D01*
X8473436Y-5550625D01*
X8473559Y-5550398D01*
X8473546Y-5550215D01*
X8473121Y-5549553D01*
X8402571Y-5479004D01*
X8401394Y-5478361D01*
X8400192Y-5479290D01*
X8396607Y-5484411D01*
X8396059Y-5485360D01*
X8386851Y-5505106D01*
X8386476Y-5506135D01*
X8380837Y-5527180D01*
X8380647Y-5528259D01*
X8378748Y-5549964D01*
X8378748Y-5551059D01*
X5401877Y-5551059D01*
X5508117Y-5441810D01*
X8437858Y-5441810D01*
X8438564Y-5443155D01*
X8508719Y-5513309D01*
X8510113Y-5514071D01*
X8510297Y-5514057D01*
X8510958Y-5513632D01*
X8581508Y-5443083D01*
X8582151Y-5441905D01*
X8581221Y-5440704D01*
X8576101Y-5437118D01*
X8575151Y-5436570D01*
X8555405Y-5427362D01*
X8554376Y-5426988D01*
X8533331Y-5421349D01*
X8532252Y-5421159D01*
X8510548Y-5419260D01*
X8509453Y-5419260D01*
X8487748Y-5421159D01*
X8486669Y-5421349D01*
X8465624Y-5426988D01*
X8464595Y-5427362D01*
X8444849Y-5436570D01*
X8443899Y-5437118D01*
X8438695Y-5440762D01*
X8437858Y-5441810D01*
X5508117Y-5441810D01*
X5516396Y-5433297D01*
X5516504Y-5433187D01*
X5522117Y-5427555D01*
X5522337Y-5427339D01*
X5528081Y-5421850D01*
X5528193Y-5421744D01*
X5530857Y-5419260D01*
X5706616Y-5255362D01*
X11391593Y-5255362D01*
X11392523Y-5256564D01*
X11395915Y-5258939D01*
X11396864Y-5259487D01*
X11415341Y-5268103D01*
X11416370Y-5268477D01*
X11436063Y-5273754D01*
X11437142Y-5273944D01*
X11457452Y-5275721D01*
X11458547Y-5275721D01*
X11478857Y-5273944D01*
X11479937Y-5273754D01*
X11499629Y-5268477D01*
X11500659Y-5268103D01*
X11519136Y-5259487D01*
X11520085Y-5258939D01*
X11523561Y-5256505D01*
X11524398Y-5255457D01*
X11523692Y-5254113D01*
X11459281Y-5189702D01*
X11457887Y-5188941D01*
X11457703Y-5188954D01*
X11457042Y-5189379D01*
X11392236Y-5254185D01*
X11391593Y-5255362D01*
X5706616Y-5255362D01*
X5744837Y-5219720D01*
X5744939Y-5219626D01*
X5750824Y-5214271D01*
X5751054Y-5214067D01*
X5757068Y-5208858D01*
X5757184Y-5208758D01*
X5820060Y-5155624D01*
X5983426Y-5017569D01*
X5983530Y-5017483D01*
X5989682Y-5012411D01*
X5989919Y-5012220D01*
X5996188Y-5007305D01*
X5996309Y-5007211D01*
X6005202Y-5000412D01*
X6005741Y-5000000D01*
X9779478Y-5000000D01*
X9781364Y-5028784D01*
X9781445Y-5029188D01*
X9781445Y-5029188D01*
X9785285Y-5048495D01*
X9786992Y-5057075D01*
X9787125Y-5057466D01*
X9787125Y-5057466D01*
X9792785Y-5074140D01*
X9796264Y-5084390D01*
X9796446Y-5084760D01*
X9796446Y-5084760D01*
X9808815Y-5109841D01*
X9809022Y-5110261D01*
X9809252Y-5110604D01*
X9823968Y-5132628D01*
X9825048Y-5134245D01*
X9825319Y-5134555D01*
X9825320Y-5134555D01*
X9840577Y-5151953D01*
X9844067Y-5155933D01*
X9844376Y-5156204D01*
X9865445Y-5174680D01*
X9865445Y-5174681D01*
X9865755Y-5174952D01*
X9866097Y-5175181D01*
X9866098Y-5175181D01*
X9884057Y-5187181D01*
X9889739Y-5190978D01*
X9890109Y-5191160D01*
X9890109Y-5191161D01*
X9896130Y-5194130D01*
X9915610Y-5203736D01*
X9916000Y-5203868D01*
X9916000Y-5203868D01*
X9942534Y-5212875D01*
X9942534Y-5212876D01*
X9942925Y-5213008D01*
X9943329Y-5213089D01*
X9943330Y-5213089D01*
X9970812Y-5218555D01*
X9970812Y-5218555D01*
X9971216Y-5218636D01*
X9971627Y-5218663D01*
X9971628Y-5218663D01*
X9999588Y-5220495D01*
X10000000Y-5220522D01*
X10000412Y-5220495D01*
X10028372Y-5218663D01*
X10028373Y-5218663D01*
X10028784Y-5218636D01*
X10029188Y-5218555D01*
X10029188Y-5218555D01*
X10056670Y-5213089D01*
X10056671Y-5213089D01*
X10057075Y-5213008D01*
X10057466Y-5212876D01*
X10057466Y-5212875D01*
X10084000Y-5203868D01*
X10084000Y-5203868D01*
X10084390Y-5203736D01*
X10103870Y-5194130D01*
X10109891Y-5191161D01*
X10109891Y-5191160D01*
X10110261Y-5190978D01*
X10115943Y-5187181D01*
X10133902Y-5175181D01*
X10133903Y-5175181D01*
X10134245Y-5174952D01*
X10134555Y-5174681D01*
X10134555Y-5174680D01*
X10155624Y-5156204D01*
X10155933Y-5155933D01*
X10158943Y-5152500D01*
X10857443Y-5152500D01*
X10859466Y-5171744D01*
X10859670Y-5172371D01*
X10859670Y-5172372D01*
X10862904Y-5182325D01*
X10865445Y-5190146D01*
X10865775Y-5190719D01*
X10865775Y-5190719D01*
X10866031Y-5191161D01*
X10875120Y-5206904D01*
X10875562Y-5207394D01*
X10875562Y-5207394D01*
X10880497Y-5212875D01*
X10888067Y-5221283D01*
X10888602Y-5221671D01*
X10888602Y-5221672D01*
X10903187Y-5232269D01*
X10903722Y-5232657D01*
X10904324Y-5232925D01*
X10904325Y-5232925D01*
X10920795Y-5240258D01*
X10921398Y-5240527D01*
X10930862Y-5242539D01*
X10939680Y-5244413D01*
X10939680Y-5244413D01*
X10940325Y-5244550D01*
X10959675Y-5244550D01*
X10960320Y-5244413D01*
X10960321Y-5244413D01*
X10969138Y-5242539D01*
X10978602Y-5240527D01*
X10979205Y-5240258D01*
X10995676Y-5232925D01*
X10995676Y-5232925D01*
X10996279Y-5232657D01*
X10996813Y-5232269D01*
X11011398Y-5221672D01*
X11011399Y-5221671D01*
X11011933Y-5221283D01*
X11019503Y-5212875D01*
X11024438Y-5207394D01*
X11024438Y-5207394D01*
X11024880Y-5206904D01*
X11033970Y-5191161D01*
X11034225Y-5190719D01*
X11034225Y-5190719D01*
X11034555Y-5190146D01*
X11037096Y-5182325D01*
X11040330Y-5172372D01*
X11040330Y-5172371D01*
X11040534Y-5171744D01*
X11042557Y-5152500D01*
X11111443Y-5152500D01*
X11113466Y-5171744D01*
X11113670Y-5172371D01*
X11113670Y-5172372D01*
X11116904Y-5182325D01*
X11119445Y-5190146D01*
X11119775Y-5190719D01*
X11119775Y-5190719D01*
X11120031Y-5191161D01*
X11129120Y-5206904D01*
X11129562Y-5207394D01*
X11129562Y-5207394D01*
X11134497Y-5212875D01*
X11142067Y-5221283D01*
X11142602Y-5221671D01*
X11142602Y-5221672D01*
X11157187Y-5232269D01*
X11157722Y-5232657D01*
X11158324Y-5232925D01*
X11158325Y-5232925D01*
X11174795Y-5240258D01*
X11175398Y-5240527D01*
X11184862Y-5242539D01*
X11193679Y-5244413D01*
X11193680Y-5244413D01*
X11194325Y-5244550D01*
X11213675Y-5244550D01*
X11214320Y-5244413D01*
X11214320Y-5244413D01*
X11223138Y-5242539D01*
X11232602Y-5240527D01*
X11233205Y-5240258D01*
X11249675Y-5232925D01*
X11249676Y-5232925D01*
X11250278Y-5232657D01*
X11250813Y-5232269D01*
X11265398Y-5221672D01*
X11265398Y-5221671D01*
X11265933Y-5221283D01*
X11273503Y-5212875D01*
X11278438Y-5207394D01*
X11278438Y-5207394D01*
X11278880Y-5206904D01*
X11287969Y-5191161D01*
X11288225Y-5190719D01*
X11288225Y-5190719D01*
X11288555Y-5190146D01*
X11291096Y-5182325D01*
X11294330Y-5172372D01*
X11294330Y-5172371D01*
X11294534Y-5171744D01*
X11296499Y-5153048D01*
X11334779Y-5153048D01*
X11336556Y-5173358D01*
X11336746Y-5174437D01*
X11342023Y-5194130D01*
X11342397Y-5195159D01*
X11351013Y-5213636D01*
X11351561Y-5214585D01*
X11353995Y-5218061D01*
X11355043Y-5218898D01*
X11356387Y-5218192D01*
X11420798Y-5153781D01*
X11421436Y-5152613D01*
X11494441Y-5152613D01*
X11494454Y-5152797D01*
X11494879Y-5153458D01*
X11559685Y-5218264D01*
X11560862Y-5218907D01*
X11562063Y-5217977D01*
X11564439Y-5214585D01*
X11564986Y-5213636D01*
X11573603Y-5195159D01*
X11573977Y-5194130D01*
X11579254Y-5174437D01*
X11579444Y-5173358D01*
X11581221Y-5153048D01*
X11581221Y-5151953D01*
X11579444Y-5131643D01*
X11579254Y-5130563D01*
X11573977Y-5110871D01*
X11573603Y-5109841D01*
X11564986Y-5091364D01*
X11564439Y-5090415D01*
X11562005Y-5086939D01*
X11560957Y-5086102D01*
X11559613Y-5086808D01*
X11495202Y-5151219D01*
X11494441Y-5152613D01*
X11421436Y-5152613D01*
X11421559Y-5152387D01*
X11421546Y-5152203D01*
X11421121Y-5151542D01*
X11356315Y-5086736D01*
X11355138Y-5086093D01*
X11353936Y-5087023D01*
X11351561Y-5090415D01*
X11351013Y-5091364D01*
X11342397Y-5109841D01*
X11342023Y-5110871D01*
X11336746Y-5130563D01*
X11336556Y-5131643D01*
X11334779Y-5151953D01*
X11334779Y-5153048D01*
X11296499Y-5153048D01*
X11296557Y-5152500D01*
X11296422Y-5151219D01*
X11294603Y-5133913D01*
X11294603Y-5133913D01*
X11294534Y-5133256D01*
X11294010Y-5131643D01*
X11288759Y-5115482D01*
X11288555Y-5114854D01*
X11286781Y-5111782D01*
X11279210Y-5098668D01*
X11278880Y-5098096D01*
X11265933Y-5083717D01*
X11265398Y-5083329D01*
X11265398Y-5083328D01*
X11250813Y-5072731D01*
X11250813Y-5072731D01*
X11250278Y-5072343D01*
X11249676Y-5072075D01*
X11249675Y-5072075D01*
X11233205Y-5064742D01*
X11233205Y-5064742D01*
X11232602Y-5064473D01*
X11223138Y-5062462D01*
X11214320Y-5060587D01*
X11214320Y-5060587D01*
X11213675Y-5060450D01*
X11194325Y-5060450D01*
X11193680Y-5060587D01*
X11193679Y-5060587D01*
X11184862Y-5062462D01*
X11175398Y-5064473D01*
X11174795Y-5064742D01*
X11174795Y-5064742D01*
X11158325Y-5072075D01*
X11158324Y-5072075D01*
X11157722Y-5072343D01*
X11157187Y-5072731D01*
X11157187Y-5072731D01*
X11142602Y-5083328D01*
X11142602Y-5083329D01*
X11142067Y-5083717D01*
X11129120Y-5098096D01*
X11128790Y-5098668D01*
X11121219Y-5111782D01*
X11119445Y-5114854D01*
X11119241Y-5115482D01*
X11113990Y-5131643D01*
X11113466Y-5133256D01*
X11113397Y-5133913D01*
X11113397Y-5133913D01*
X11111578Y-5151219D01*
X11111443Y-5152500D01*
X11042557Y-5152500D01*
X11042422Y-5151219D01*
X11040603Y-5133913D01*
X11040603Y-5133913D01*
X11040534Y-5133256D01*
X11040010Y-5131643D01*
X11034759Y-5115482D01*
X11034555Y-5114854D01*
X11032782Y-5111782D01*
X11025210Y-5098668D01*
X11024880Y-5098096D01*
X11011933Y-5083717D01*
X11011399Y-5083329D01*
X11011398Y-5083328D01*
X10996813Y-5072731D01*
X10996813Y-5072731D01*
X10996279Y-5072343D01*
X10995676Y-5072075D01*
X10995676Y-5072075D01*
X10979205Y-5064742D01*
X10979205Y-5064742D01*
X10978602Y-5064473D01*
X10969138Y-5062462D01*
X10960321Y-5060587D01*
X10960320Y-5060587D01*
X10959675Y-5060450D01*
X10940325Y-5060450D01*
X10939680Y-5060587D01*
X10939680Y-5060587D01*
X10930862Y-5062462D01*
X10921398Y-5064473D01*
X10920795Y-5064742D01*
X10920795Y-5064742D01*
X10904325Y-5072075D01*
X10904324Y-5072075D01*
X10903722Y-5072343D01*
X10903187Y-5072731D01*
X10903187Y-5072731D01*
X10888602Y-5083328D01*
X10888602Y-5083329D01*
X10888067Y-5083717D01*
X10875120Y-5098096D01*
X10874790Y-5098668D01*
X10867219Y-5111782D01*
X10865445Y-5114854D01*
X10865241Y-5115482D01*
X10859990Y-5131643D01*
X10859466Y-5133256D01*
X10859397Y-5133913D01*
X10859397Y-5133913D01*
X10857578Y-5151219D01*
X10857443Y-5152500D01*
X10158943Y-5152500D01*
X10159423Y-5151953D01*
X10174680Y-5134555D01*
X10174681Y-5134555D01*
X10174952Y-5134245D01*
X10176033Y-5132628D01*
X10190748Y-5110604D01*
X10190978Y-5110261D01*
X10191185Y-5109841D01*
X10203554Y-5084760D01*
X10203554Y-5084760D01*
X10203736Y-5084390D01*
X10207215Y-5074140D01*
X10212875Y-5057466D01*
X10212876Y-5057466D01*
X10213008Y-5057075D01*
X10214507Y-5049543D01*
X11391602Y-5049543D01*
X11392308Y-5050887D01*
X11456719Y-5115298D01*
X11458113Y-5116059D01*
X11458297Y-5116046D01*
X11458958Y-5115621D01*
X11523764Y-5050815D01*
X11524407Y-5049638D01*
X11523477Y-5048437D01*
X11520085Y-5046062D01*
X11519136Y-5045513D01*
X11500659Y-5036897D01*
X11499629Y-5036523D01*
X11479937Y-5031246D01*
X11478857Y-5031056D01*
X11458547Y-5029279D01*
X11457452Y-5029279D01*
X11437142Y-5031056D01*
X11436063Y-5031246D01*
X11416370Y-5036523D01*
X11415341Y-5036897D01*
X11396864Y-5045514D01*
X11395915Y-5046061D01*
X11392439Y-5048495D01*
X11391602Y-5049543D01*
X10214507Y-5049543D01*
X10214715Y-5048495D01*
X10218555Y-5029188D01*
X10218555Y-5029188D01*
X10218636Y-5028784D01*
X10220522Y-5000000D01*
X10218636Y-4971216D01*
X10218512Y-4970595D01*
X10213089Y-4943330D01*
X10213089Y-4943329D01*
X10213008Y-4942925D01*
X10203736Y-4915610D01*
X10190978Y-4889739D01*
X10174952Y-4865755D01*
X10174681Y-4865445D01*
X10174680Y-4865445D01*
X10156204Y-4844376D01*
X10155933Y-4844067D01*
X10155624Y-4843796D01*
X10134555Y-4825320D01*
X10134555Y-4825319D01*
X10134245Y-4825048D01*
X10133903Y-4824819D01*
X10133902Y-4824819D01*
X10110604Y-4809252D01*
X10110261Y-4809022D01*
X10109891Y-4808840D01*
X10109891Y-4808840D01*
X10084760Y-4796446D01*
X10084760Y-4796446D01*
X10084390Y-4796264D01*
X10084000Y-4796132D01*
X10057466Y-4787125D01*
X10057466Y-4787125D01*
X10057075Y-4786992D01*
X10056671Y-4786912D01*
X10056670Y-4786911D01*
X10029188Y-4781445D01*
X10029188Y-4781445D01*
X10028784Y-4781364D01*
X10028373Y-4781338D01*
X10028372Y-4781337D01*
X10000412Y-4779505D01*
X10000000Y-4779478D01*
X9999588Y-4779505D01*
X9971628Y-4781337D01*
X9971627Y-4781338D01*
X9971216Y-4781364D01*
X9970812Y-4781445D01*
X9970812Y-4781445D01*
X9943330Y-4786911D01*
X9943329Y-4786912D01*
X9942925Y-4786992D01*
X9942534Y-4787125D01*
X9942534Y-4787125D01*
X9916000Y-4796132D01*
X9915610Y-4796264D01*
X9915241Y-4796446D01*
X9915240Y-4796446D01*
X9890109Y-4808840D01*
X9890109Y-4808840D01*
X9889739Y-4809022D01*
X9889396Y-4809252D01*
X9866098Y-4824819D01*
X9866097Y-4824819D01*
X9865755Y-4825048D01*
X9865445Y-4825319D01*
X9865445Y-4825320D01*
X9844376Y-4843796D01*
X9844067Y-4844067D01*
X9843796Y-4844376D01*
X9825320Y-4865445D01*
X9825319Y-4865445D01*
X9825048Y-4865755D01*
X9809022Y-4889739D01*
X9796264Y-4915610D01*
X9786992Y-4942925D01*
X9786912Y-4943329D01*
X9786911Y-4943330D01*
X9781488Y-4970595D01*
X9781364Y-4971216D01*
X9779478Y-5000000D01*
X6005741Y-5000000D01*
X6231612Y-4827309D01*
X6231721Y-4827227D01*
X6238112Y-4822462D01*
X6238361Y-4822282D01*
X6239030Y-4821808D01*
X6244860Y-4817680D01*
X6244976Y-4817599D01*
X6257076Y-4809252D01*
X6416975Y-4698945D01*
X6488790Y-4649403D01*
X6488918Y-4649316D01*
X6495523Y-4644878D01*
X6495781Y-4644709D01*
X6502492Y-4640434D01*
X6502622Y-4640352D01*
X6680533Y-4530042D01*
X6754360Y-4484268D01*
X6754480Y-4484194D01*
X6761307Y-4480076D01*
X6761568Y-4479923D01*
X6768483Y-4475979D01*
X6768604Y-4475911D01*
X7027690Y-4332297D01*
X7027810Y-4332231D01*
X7034818Y-4328458D01*
X7035086Y-4328317D01*
X7042179Y-4324719D01*
X7042317Y-4324650D01*
X7231966Y-4231331D01*
X7308100Y-4193868D01*
X7308226Y-4193807D01*
X7315416Y-4190378D01*
X7315689Y-4190252D01*
X7322948Y-4187005D01*
X7323089Y-4186943D01*
X7594932Y-4069306D01*
X7595074Y-4069246D01*
X7602415Y-4066175D01*
X7602700Y-4066059D01*
X7610104Y-4063173D01*
X7610248Y-4063118D01*
X7887523Y-3958897D01*
X7887667Y-3958844D01*
X7895139Y-3956139D01*
X7895430Y-3956038D01*
X7901722Y-3953932D01*
X7902983Y-3953510D01*
X7903113Y-3953468D01*
X8133732Y-3879424D01*
X8185147Y-3862916D01*
X8185294Y-3862870D01*
X8192898Y-3860531D01*
X8193194Y-3860444D01*
X8200838Y-3858295D01*
X8200987Y-3858254D01*
X8421340Y-3799211D01*
X8487117Y-3781586D01*
X8487260Y-3781549D01*
X8491250Y-3780532D01*
X8494964Y-3779585D01*
X8495263Y-3779513D01*
X8503024Y-3777735D01*
X8503165Y-3777704D01*
X8792687Y-3715107D01*
X8792827Y-3715077D01*
X8800632Y-3713490D01*
X8800925Y-3713434D01*
X8808764Y-3712037D01*
X8808905Y-3712013D01*
X9036863Y-3674275D01*
X9101146Y-3663633D01*
X9101297Y-3663609D01*
X9109152Y-3662407D01*
X9109456Y-3662364D01*
X9113779Y-3661810D01*
X9117352Y-3661353D01*
X9117494Y-3661335D01*
X9270130Y-3643675D01*
X9411748Y-3627289D01*
X9411892Y-3627273D01*
X9419811Y-3626455D01*
X9420111Y-3626428D01*
X9428046Y-3625803D01*
X9428199Y-3625792D01*
X9723750Y-3606162D01*
X9723903Y-3606152D01*
X9731850Y-3605722D01*
X9732151Y-3605709D01*
X9739147Y-3605502D01*
X9740103Y-3605473D01*
X9740257Y-3605470D01*
X9776414Y-3604839D01*
X10036426Y-3600300D01*
X10036574Y-3600298D01*
X10044525Y-3600257D01*
X10044830Y-3600259D01*
G37*
G04 #@! TD.AperFunction*
G04 #@! TD*
M02*
