%FSLAX45Y45*%
G04 Gerber Fmt 4.5, Leading zero omitted, Abs format (unit mm)*
G04 Created by KiCad (PCBNEW (6.0.5)) date 2022-05-29 13:56:38*
%MOMM*%
%LPD*%
G01*
G04 APERTURE LIST*
%TA.AperFunction,Profile*%
%ADD10C,0.100000*%
%TD*%
%ADD11C,0.200000*%
G04 APERTURE END LIST*
D10*
X16400000Y-10000000D02*
G75*
G03*
X16400000Y-10000000I-6400000J0D01*
G01*
D11*
X3852619Y-16715476D02*
X3852619Y-16515476D01*
X3900238Y-16515476D01*
X3928809Y-16525000D01*
X3947857Y-16544048D01*
X3957381Y-16563095D01*
X3966905Y-16601190D01*
X3966905Y-16629762D01*
X3957381Y-16667857D01*
X3947857Y-16686905D01*
X3928809Y-16705952D01*
X3900238Y-16715476D01*
X3852619Y-16715476D01*
X4052619Y-16715476D02*
X4052619Y-16582143D01*
X4052619Y-16620238D02*
X4062143Y-16601190D01*
X4071667Y-16591667D01*
X4090714Y-16582143D01*
X4109762Y-16582143D01*
X4176428Y-16715476D02*
X4176428Y-16582143D01*
X4176428Y-16515476D02*
X4166905Y-16525000D01*
X4176428Y-16534524D01*
X4185952Y-16525000D01*
X4176428Y-16515476D01*
X4176428Y-16534524D01*
X4300238Y-16715476D02*
X4281190Y-16705952D01*
X4271667Y-16686905D01*
X4271667Y-16515476D01*
X4405000Y-16715476D02*
X4385952Y-16705952D01*
X4376429Y-16686905D01*
X4376429Y-16515476D01*
X4633571Y-16715476D02*
X4633571Y-16515476D01*
X4700238Y-16658333D01*
X4766905Y-16515476D01*
X4766905Y-16715476D01*
X4947857Y-16715476D02*
X4947857Y-16610714D01*
X4938333Y-16591667D01*
X4919286Y-16582143D01*
X4881190Y-16582143D01*
X4862143Y-16591667D01*
X4947857Y-16705952D02*
X4928810Y-16715476D01*
X4881190Y-16715476D01*
X4862143Y-16705952D01*
X4852619Y-16686905D01*
X4852619Y-16667857D01*
X4862143Y-16648809D01*
X4881190Y-16639286D01*
X4928810Y-16639286D01*
X4947857Y-16629762D01*
X5043095Y-16582143D02*
X5043095Y-16782143D01*
X5043095Y-16591667D02*
X5062143Y-16582143D01*
X5100238Y-16582143D01*
X5119286Y-16591667D01*
X5128810Y-16601190D01*
X5138333Y-16620238D01*
X5138333Y-16677381D01*
X5128810Y-16696428D01*
X5119286Y-16705952D01*
X5100238Y-16715476D01*
X5062143Y-16715476D01*
X5043095Y-16705952D01*
X5224048Y-16696428D02*
X5233571Y-16705952D01*
X5224048Y-16715476D01*
X5214524Y-16705952D01*
X5224048Y-16696428D01*
X5224048Y-16715476D01*
X5224048Y-16591667D02*
X5233571Y-16601190D01*
X5224048Y-16610714D01*
X5214524Y-16601190D01*
X5224048Y-16591667D01*
X5224048Y-16610714D01*
M02*
