G04 #@! TF.GenerationSoftware,KiCad,Pcbnew,(6.0.5)*
G04 #@! TF.CreationDate,2022-05-29T13:56:34+02:00*
G04 #@! TF.ProjectId,Jogurtownica,4a6f6775-7274-46f7-976e-6963612e6b69,rev?*
G04 #@! TF.SameCoordinates,Original*
G04 #@! TF.FileFunction,Soldermask,Bot*
G04 #@! TF.FilePolarity,Negative*
%FSLAX45Y45*%
G04 Gerber Fmt 4.5, Leading zero omitted, Abs format (unit mm)*
G04 Created by KiCad (PCBNEW (6.0.5)) date 2022-05-29 13:56:34*
%MOMM*%
%LPD*%
G01*
G04 APERTURE LIST*
G04 Aperture macros list*
%AMRoundRect*
0 Rectangle with rounded corners*
0 $1 Rounding radius*
0 $2 $3 $4 $5 $6 $7 $8 $9 X,Y pos of 4 corners*
0 Add a 4 corners polygon primitive as box body*
4,1,4,$2,$3,$4,$5,$6,$7,$8,$9,$2,$3,0*
0 Add four circle primitives for the rounded corners*
1,1,$1+$1,$2,$3*
1,1,$1+$1,$4,$5*
1,1,$1+$1,$6,$7*
1,1,$1+$1,$8,$9*
0 Add four rect primitives between the rounded corners*
20,1,$1+$1,$2,$3,$4,$5,0*
20,1,$1+$1,$4,$5,$6,$7,0*
20,1,$1+$1,$6,$7,$8,$9,0*
20,1,$1+$1,$8,$9,$2,$3,0*%
G04 Aperture macros list end*
%ADD10C,4.000000*%
%ADD11C,1.440000*%
%ADD12C,2.000000*%
%ADD13RoundRect,0.250000X-0.625000X0.350000X-0.625000X-0.350000X0.625000X-0.350000X0.625000X0.350000X0*%
%ADD14O,1.750000X1.200000*%
%ADD15RoundRect,0.250001X-0.949999X0.949999X-0.949999X-0.949999X0.949999X-0.949999X0.949999X0.949999X0*%
%ADD16C,2.400000*%
%ADD17R,1.600000X1.600000*%
%ADD18C,1.600000*%
%ADD19RoundRect,0.250000X0.350000X0.625000X-0.350000X0.625000X-0.350000X-0.625000X0.350000X-0.625000X0*%
%ADD20O,1.200000X1.750000*%
%ADD21RoundRect,0.250000X-0.845000X0.620000X-0.845000X-0.620000X0.845000X-0.620000X0.845000X0.620000X0*%
%ADD22O,2.190000X1.740000*%
%ADD23C,1.800000*%
%ADD24RoundRect,0.250000X-0.350000X-0.625000X0.350000X-0.625000X0.350000X0.625000X-0.350000X0.625000X0*%
%ADD25O,1.600000X1.600000*%
%ADD26RoundRect,0.250001X-1.099999X-1.099999X1.099999X-1.099999X1.099999X1.099999X-1.099999X1.099999X0*%
%ADD27C,2.700000*%
%ADD28C,3.000000*%
%ADD29R,2.500000X2.500000*%
%ADD30RoundRect,0.250000X-0.450000X0.262500X-0.450000X-0.262500X0.450000X-0.262500X0.450000X0.262500X0*%
%ADD31RoundRect,0.150000X-0.150000X0.587500X-0.150000X-0.587500X0.150000X-0.587500X0.150000X0.587500X0*%
%ADD32R,1.700000X1.300000*%
%ADD33R,1.700000X1.700000*%
%ADD34O,1.700000X1.700000*%
%ADD35R,1.300000X1.700000*%
%ADD36RoundRect,0.250000X-0.312500X-0.625000X0.312500X-0.625000X0.312500X0.625000X-0.312500X0.625000X0*%
%ADD37RoundRect,0.250000X0.312500X0.625000X-0.312500X0.625000X-0.312500X-0.625000X0.312500X-0.625000X0*%
%ADD38RoundRect,0.250000X0.450000X-0.262500X0.450000X0.262500X-0.450000X0.262500X-0.450000X-0.262500X0*%
%ADD39RoundRect,0.150000X0.150000X-0.587500X0.150000X0.587500X-0.150000X0.587500X-0.150000X-0.587500X0*%
%ADD40RoundRect,0.250000X-0.262500X-0.450000X0.262500X-0.450000X0.262500X0.450000X-0.262500X0.450000X0*%
%ADD41RoundRect,0.250000X-0.625000X0.312500X-0.625000X-0.312500X0.625000X-0.312500X0.625000X0.312500X0*%
%ADD42RoundRect,0.250000X0.262500X0.450000X-0.262500X0.450000X-0.262500X-0.450000X0.262500X-0.450000X0*%
%ADD43RoundRect,0.250000X-0.250000X-0.475000X0.250000X-0.475000X0.250000X0.475000X-0.250000X0.475000X0*%
G04 APERTURE END LIST*
D10*
G04 #@! TO.C,REF\u002A\u002A*
X14300000Y-12525000D03*
G04 #@! TD*
D11*
G04 #@! TO.C,RV1*
X10950000Y-5152500D03*
X11204000Y-5152500D03*
X11458000Y-5152500D03*
G04 #@! TD*
D10*
G04 #@! TO.C,REF\u002A\u002A*
X7125000Y-7925000D03*
G04 #@! TD*
D12*
G04 #@! TO.C,C7*
X6900000Y-10174500D03*
X6900000Y-9424500D03*
G04 #@! TD*
D13*
G04 #@! TO.C,J2*
X9900000Y-7225000D03*
D14*
X9900000Y-7425000D03*
G04 #@! TD*
D15*
G04 #@! TO.C,J10*
X5660000Y-10630000D03*
D16*
X5660000Y-11026000D03*
G04 #@! TD*
D17*
G04 #@! TO.C,C1*
X7540000Y-6590000D03*
D18*
X7890000Y-6590000D03*
G04 #@! TD*
D17*
G04 #@! TO.C,C4*
X12410000Y-7400511D03*
D18*
X12410000Y-7150511D03*
G04 #@! TD*
D17*
G04 #@! TO.C,C5*
X8510000Y-5800511D03*
D18*
X8510000Y-5550511D03*
G04 #@! TD*
D19*
G04 #@! TO.C,J8*
X12260000Y-6150000D03*
D20*
X12060000Y-6150000D03*
G04 #@! TD*
D21*
G04 #@! TO.C,J1*
X6307028Y-7236046D03*
D22*
X6307028Y-7490046D03*
G04 #@! TD*
D23*
G04 #@! TO.C,RV2*
X4735000Y-10835000D03*
X4545000Y-11585000D03*
G04 #@! TD*
D24*
G04 #@! TO.C,J9*
X11900000Y-10080000D03*
D20*
X12100000Y-10080000D03*
G04 #@! TD*
D15*
G04 #@! TO.C,J11*
X5660000Y-11480000D03*
D16*
X5660000Y-11876000D03*
G04 #@! TD*
D17*
G04 #@! TO.C,U3*
X8427500Y-10620000D03*
D25*
X8173500Y-10620000D03*
X7919500Y-10620000D03*
X7919500Y-11382000D03*
X8173500Y-11382000D03*
X8427500Y-11382000D03*
G04 #@! TD*
D24*
G04 #@! TO.C,J6*
X9880000Y-10300000D03*
D20*
X10080000Y-10300000D03*
G04 #@! TD*
D26*
G04 #@! TO.C,J12*
X6627000Y-11897500D03*
D27*
X7023000Y-11897500D03*
G04 #@! TD*
D10*
G04 #@! TO.C,REF\u002A\u002A*
X5800000Y-12550000D03*
G04 #@! TD*
G04 #@! TO.C,REF\u002A\u002A*
X10000000Y-5000000D03*
G04 #@! TD*
D17*
G04 #@! TO.C,U2*
X11805000Y-6895000D03*
D25*
X11551000Y-6895000D03*
X11297000Y-6895000D03*
X11043000Y-6895000D03*
X11043000Y-7657000D03*
X11297000Y-7657000D03*
X11551000Y-7657000D03*
X11805000Y-7657000D03*
G04 #@! TD*
D19*
G04 #@! TO.C,J7*
X10100000Y-6155000D03*
D20*
X9900000Y-6155000D03*
G04 #@! TD*
D10*
G04 #@! TO.C,REF\u002A\u002A*
X12875000Y-7925000D03*
G04 #@! TD*
D28*
G04 #@! TO.C,REF\u002A\u002A*
X10000000Y-9580000D03*
G04 #@! TD*
D10*
G04 #@! TO.C,REF\u002A\u002A*
X12025000Y-12600000D03*
G04 #@! TD*
G04 #@! TO.C,REF\u002A\u002A*
X7975000Y-12600000D03*
G04 #@! TD*
D12*
G04 #@! TO.C,C8*
X5515500Y-9420000D03*
X6265500Y-9420000D03*
G04 #@! TD*
D29*
G04 #@! TO.C,Q4*
X6685500Y-10646000D03*
D27*
X6685500Y-11000000D03*
X6685500Y-11356000D03*
G04 #@! TD*
D30*
G04 #@! TO.C,R15*
X10710000Y-11448750D03*
X10710000Y-11631250D03*
G04 #@! TD*
D31*
G04 #@! TO.C,Q5*
X10260000Y-11456250D03*
X10450000Y-11456250D03*
X10355000Y-11643750D03*
G04 #@! TD*
D30*
G04 #@! TO.C,R13*
X9780000Y-11463750D03*
X9780000Y-11646250D03*
G04 #@! TD*
D32*
G04 #@! TO.C,D3*
X11280000Y-8685000D03*
X11280000Y-9035000D03*
G04 #@! TD*
D33*
G04 #@! TO.C,J5*
X10390000Y-10987500D03*
D34*
X10136000Y-10987500D03*
X9882000Y-10987500D03*
X9628000Y-10987500D03*
G04 #@! TD*
D35*
G04 #@! TO.C,D4*
X11825000Y-10535000D03*
X12175000Y-10535000D03*
G04 #@! TD*
D36*
G04 #@! TO.C,R18*
X5828750Y-9975000D03*
X6121250Y-9975000D03*
G04 #@! TD*
D37*
G04 #@! TO.C,R19*
X5446250Y-9975000D03*
X5153750Y-9975000D03*
G04 #@! TD*
D30*
G04 #@! TO.C,R8*
X8560000Y-9433750D03*
X8560000Y-9616250D03*
G04 #@! TD*
D33*
G04 #@! TO.C,J4*
X9375000Y-8720000D03*
D34*
X9629000Y-8720000D03*
X9883000Y-8720000D03*
X10137000Y-8720000D03*
X10391000Y-8720000D03*
X10645000Y-8720000D03*
G04 #@! TD*
D38*
G04 #@! TO.C,R21*
X10040000Y-11646250D03*
X10040000Y-11463750D03*
G04 #@! TD*
D30*
G04 #@! TO.C,R14*
X11520000Y-11603750D03*
X11520000Y-11786250D03*
G04 #@! TD*
D38*
G04 #@! TO.C,R20*
X9490000Y-11646250D03*
X9490000Y-11463750D03*
G04 #@! TD*
D36*
G04 #@! TO.C,R17*
X7313750Y-11610000D03*
X7606250Y-11610000D03*
G04 #@! TD*
D39*
G04 #@! TO.C,Q2*
X8385000Y-10043750D03*
X8195000Y-10043750D03*
X8290000Y-9856250D03*
G04 #@! TD*
D40*
G04 #@! TO.C,R12*
X10968750Y-11490000D03*
X11151250Y-11490000D03*
G04 #@! TD*
D35*
G04 #@! TO.C,D5*
X8635000Y-10335000D03*
X8285000Y-10335000D03*
G04 #@! TD*
D33*
G04 #@! TO.C,J3*
X10390000Y-9100000D03*
D34*
X10136000Y-9100000D03*
X9882000Y-9100000D03*
X9628000Y-9100000D03*
G04 #@! TD*
D41*
G04 #@! TO.C,R16*
X7420000Y-10183750D03*
X7420000Y-10476250D03*
G04 #@! TD*
D39*
G04 #@! TO.C,Q3*
X11155000Y-11973750D03*
X10965000Y-11973750D03*
X11060000Y-11786250D03*
G04 #@! TD*
D30*
G04 #@! TO.C,R11*
X8740000Y-9868750D03*
X8740000Y-10051250D03*
G04 #@! TD*
D42*
G04 #@! TO.C,R10*
X8251250Y-9570000D03*
X8068750Y-9570000D03*
G04 #@! TD*
D43*
G04 #@! TO.C,C9*
X9880000Y-10545000D03*
X10070000Y-10545000D03*
G04 #@! TD*
M02*
