%FSLAX45Y45*%
G04 Gerber Fmt 4.5, Leading zero omitted, Abs format (unit mm)*
G04 Created by KiCad (PCBNEW (6.0.5)) date 2022-05-29 13:56:38*
%MOMM*%
%LPD*%
G01*
G04 APERTURE LIST*
%TA.AperFunction,Profile*%
%ADD10C,0.100000*%
%TD*%
%ADD11C,0.200000*%
%ADD12C,0.040000*%
%ADD13C,0.075000*%
%ADD14C,0.080000*%
%ADD15C,0.100000*%
%ADD16C,0.110000*%
%ADD17C,0.119000*%
%ADD18C,0.140000*%
%ADD19C,0.170000*%
%ADD20C,0.300000*%
G04 APERTURE END LIST*
D10*
X16400000Y-10000000D02*
G75*
G03*
X16400000Y-10000000I-6400000J0D01*
G01*
D11*
D12*
X6530000Y-9530000D02*
X6570000Y-9570000D01*
X6570000Y-9530000D02*
X6530000Y-9570000D01*
X6660000Y-10400000D02*
X6700000Y-10440000D01*
X6700000Y-10400000D02*
X6660000Y-10440000D01*
X6980000Y-11360000D02*
X7020000Y-11400000D01*
X7020000Y-11360000D02*
X6980000Y-11400000D01*
X7580000Y-11360000D02*
X7620000Y-11400000D01*
X7620000Y-11360000D02*
X7580000Y-11400000D01*
X9415000Y-11870000D02*
X9455000Y-11910000D01*
X9455000Y-11870000D02*
X9415000Y-11910000D01*
X9600000Y-7800000D02*
X9640000Y-7840000D01*
X9640000Y-7800000D02*
X9600000Y-7840000D01*
X9670000Y-11270000D02*
X9710000Y-11310000D01*
X9710000Y-11270000D02*
X9670000Y-11310000D01*
X10745000Y-11270000D02*
X10785000Y-11310000D01*
X10785000Y-11270000D02*
X10745000Y-11310000D01*
X11040000Y-7350000D02*
X11080000Y-7390000D01*
X11080000Y-7350000D02*
X11040000Y-7390000D01*
D13*
X9917500Y-10300000D02*
G75*
G03*
X9917500Y-10300000I-37500J0D01*
G01*
X9937500Y-6155000D02*
G75*
G03*
X9937500Y-6155000I-37500J0D01*
G01*
X9937500Y-7225000D02*
G75*
G03*
X9937500Y-7225000I-37500J0D01*
G01*
X9937500Y-7425000D02*
G75*
G03*
X9937500Y-7425000I-37500J0D01*
G01*
X10117500Y-10300000D02*
G75*
G03*
X10117500Y-10300000I-37500J0D01*
G01*
X10137500Y-6155000D02*
G75*
G03*
X10137500Y-6155000I-37500J0D01*
G01*
X11937500Y-10080000D02*
G75*
G03*
X11937500Y-10080000I-37500J0D01*
G01*
X12097500Y-6150000D02*
G75*
G03*
X12097500Y-6150000I-37500J0D01*
G01*
X12137500Y-10080000D02*
G75*
G03*
X12137500Y-10080000I-37500J0D01*
G01*
X12297500Y-6150000D02*
G75*
G03*
X12297500Y-6150000I-37500J0D01*
G01*
D14*
X4545000Y-11545000D02*
X4545000Y-11625000D01*
X4505000Y-11585000D02*
X4585000Y-11585000D01*
X4735000Y-10795000D02*
X4735000Y-10875000D01*
X4695000Y-10835000D02*
X4775000Y-10835000D01*
X7540000Y-6550000D02*
X7540000Y-6630000D01*
X7500000Y-6590000D02*
X7580000Y-6590000D01*
X7890000Y-6550000D02*
X7890000Y-6630000D01*
X7850000Y-6590000D02*
X7930000Y-6590000D01*
X7919500Y-10580000D02*
X7919500Y-10660000D01*
X7879500Y-10620000D02*
X7959500Y-10620000D01*
X7919500Y-11342000D02*
X7919500Y-11422000D01*
X7879500Y-11382000D02*
X7959500Y-11382000D01*
X8173500Y-10580000D02*
X8173500Y-10660000D01*
X8133500Y-10620000D02*
X8213500Y-10620000D01*
X8173500Y-11342000D02*
X8173500Y-11422000D01*
X8133500Y-11382000D02*
X8213500Y-11382000D01*
X8427500Y-10580000D02*
X8427500Y-10660000D01*
X8387500Y-10620000D02*
X8467500Y-10620000D01*
X8427500Y-11342000D02*
X8427500Y-11422000D01*
X8387500Y-11382000D02*
X8467500Y-11382000D01*
X8510000Y-5510511D02*
X8510000Y-5590511D01*
X8470000Y-5550511D02*
X8550000Y-5550511D01*
X8510000Y-5760511D02*
X8510000Y-5840511D01*
X8470000Y-5800511D02*
X8550000Y-5800511D01*
X10950000Y-5112500D02*
X10950000Y-5192500D01*
X10910000Y-5152500D02*
X10990000Y-5152500D01*
X11043000Y-6855000D02*
X11043000Y-6935000D01*
X11003000Y-6895000D02*
X11083000Y-6895000D01*
X11043000Y-7617000D02*
X11043000Y-7697000D01*
X11003000Y-7657000D02*
X11083000Y-7657000D01*
X11204000Y-5112500D02*
X11204000Y-5192500D01*
X11164000Y-5152500D02*
X11244000Y-5152500D01*
X11297000Y-6855000D02*
X11297000Y-6935000D01*
X11257000Y-6895000D02*
X11337000Y-6895000D01*
X11297000Y-7617000D02*
X11297000Y-7697000D01*
X11257000Y-7657000D02*
X11337000Y-7657000D01*
X11458000Y-5112500D02*
X11458000Y-5192500D01*
X11418000Y-5152500D02*
X11498000Y-5152500D01*
X11551000Y-6855000D02*
X11551000Y-6935000D01*
X11511000Y-6895000D02*
X11591000Y-6895000D01*
X11551000Y-7617000D02*
X11551000Y-7697000D01*
X11511000Y-7657000D02*
X11591000Y-7657000D01*
X11805000Y-6855000D02*
X11805000Y-6935000D01*
X11765000Y-6895000D02*
X11845000Y-6895000D01*
X11805000Y-7617000D02*
X11805000Y-7697000D01*
X11765000Y-7657000D02*
X11845000Y-7657000D01*
X12410000Y-7110511D02*
X12410000Y-7190511D01*
X12370000Y-7150511D02*
X12450000Y-7150511D01*
X12410000Y-7360511D02*
X12410000Y-7440511D01*
X12370000Y-7400511D02*
X12450000Y-7400511D01*
D15*
X5550856Y-9455356D02*
X5550856Y-9384644D01*
X5480144Y-9384644D01*
X5480144Y-9455356D01*
X5550856Y-9455356D01*
X6300856Y-9455356D02*
X6300856Y-9384644D01*
X6230144Y-9384644D01*
X6230144Y-9455356D01*
X6300856Y-9455356D01*
X6935356Y-9459856D02*
X6935356Y-9389144D01*
X6864644Y-9389144D01*
X6864644Y-9459856D01*
X6935356Y-9459856D01*
X6935356Y-10209856D02*
X6935356Y-10139144D01*
X6864644Y-10139144D01*
X6864644Y-10209856D01*
X6935356Y-10209856D01*
X9410356Y-8755356D02*
X9410356Y-8684644D01*
X9339644Y-8684644D01*
X9339644Y-8755356D01*
X9410356Y-8755356D01*
X9663356Y-9135356D02*
X9663356Y-9064644D01*
X9592644Y-9064644D01*
X9592644Y-9135356D01*
X9663356Y-9135356D01*
X9663356Y-11022856D02*
X9663356Y-10952144D01*
X9592644Y-10952144D01*
X9592644Y-11022856D01*
X9663356Y-11022856D01*
X9664356Y-8755356D02*
X9664356Y-8684644D01*
X9593644Y-8684644D01*
X9593644Y-8755356D01*
X9664356Y-8755356D01*
X9917356Y-9135356D02*
X9917356Y-9064644D01*
X9846644Y-9064644D01*
X9846644Y-9135356D01*
X9917356Y-9135356D01*
X9917356Y-11022856D02*
X9917356Y-10952144D01*
X9846644Y-10952144D01*
X9846644Y-11022856D01*
X9917356Y-11022856D01*
X9918356Y-8755356D02*
X9918356Y-8684644D01*
X9847644Y-8684644D01*
X9847644Y-8755356D01*
X9918356Y-8755356D01*
X10171356Y-9135356D02*
X10171356Y-9064644D01*
X10100644Y-9064644D01*
X10100644Y-9135356D01*
X10171356Y-9135356D01*
X10171356Y-11022856D02*
X10171356Y-10952144D01*
X10100644Y-10952144D01*
X10100644Y-11022856D01*
X10171356Y-11022856D01*
X10172356Y-8755356D02*
X10172356Y-8684644D01*
X10101644Y-8684644D01*
X10101644Y-8755356D01*
X10172356Y-8755356D01*
X10425356Y-9135356D02*
X10425356Y-9064644D01*
X10354644Y-9064644D01*
X10354644Y-9135356D01*
X10425356Y-9135356D01*
X10425356Y-11022856D02*
X10425356Y-10952144D01*
X10354644Y-10952144D01*
X10354644Y-11022856D01*
X10425356Y-11022856D01*
X10426356Y-8755356D02*
X10426356Y-8684644D01*
X10355644Y-8684644D01*
X10355644Y-8755356D01*
X10426356Y-8755356D01*
X10680356Y-8755356D02*
X10680356Y-8684644D01*
X10609644Y-8684644D01*
X10609644Y-8755356D01*
X10680356Y-8755356D01*
D16*
X6685500Y-10701000D02*
X6740500Y-10646000D01*
X6685500Y-10591000D01*
X6630500Y-10646000D01*
X6685500Y-10701000D01*
X6685500Y-11055000D02*
X6740500Y-11000000D01*
X6685500Y-10945000D01*
X6630500Y-11000000D01*
X6685500Y-11055000D01*
X6685500Y-11411000D02*
X6740500Y-11356000D01*
X6685500Y-11301000D01*
X6630500Y-11356000D01*
X6685500Y-11411000D01*
D17*
X6247528Y-7176546D02*
X6366528Y-7295546D01*
X6366528Y-7176546D02*
X6247528Y-7295546D01*
X6366528Y-7236046D02*
G75*
G03*
X6366528Y-7236046I-59500J0D01*
G01*
X6247528Y-7430546D02*
X6366528Y-7549546D01*
X6366528Y-7430546D02*
X6247528Y-7549546D01*
X6366528Y-7490046D02*
G75*
G03*
X6366528Y-7490046I-59500J0D01*
G01*
D18*
X5590000Y-10560000D02*
X5730000Y-10700000D01*
X5730000Y-10560000D02*
X5590000Y-10700000D01*
X5660000Y-10560000D02*
X5660000Y-10700000D01*
X5590000Y-10630000D02*
X5730000Y-10630000D01*
X5590000Y-10956000D02*
X5730000Y-11096000D01*
X5730000Y-10956000D02*
X5590000Y-11096000D01*
X5660000Y-10956000D02*
X5660000Y-11096000D01*
X5590000Y-11026000D02*
X5730000Y-11026000D01*
X5590000Y-11410000D02*
X5730000Y-11550000D01*
X5730000Y-11410000D02*
X5590000Y-11550000D01*
X5660000Y-11410000D02*
X5660000Y-11550000D01*
X5590000Y-11480000D02*
X5730000Y-11480000D01*
X5590000Y-11806000D02*
X5730000Y-11946000D01*
X5730000Y-11806000D02*
X5590000Y-11946000D01*
X5660000Y-11806000D02*
X5660000Y-11946000D01*
X5590000Y-11876000D02*
X5730000Y-11876000D01*
D19*
X6542000Y-11812500D02*
X6712000Y-11982500D01*
X6712000Y-11812500D02*
X6542000Y-11982500D01*
X6687105Y-11957605D02*
X6687105Y-11837395D01*
X6566895Y-11837395D01*
X6566895Y-11957605D01*
X6687105Y-11957605D01*
X6938000Y-11812500D02*
X7108000Y-11982500D01*
X7108000Y-11812500D02*
X6938000Y-11982500D01*
X7083105Y-11957605D02*
X7083105Y-11837395D01*
X6962895Y-11837395D01*
X6962895Y-11957605D01*
X7083105Y-11957605D01*
D11*
X9900000Y-9480000D02*
X10100000Y-9680000D01*
X10100000Y-9480000D02*
X9900000Y-9680000D01*
X10000000Y-9680000D02*
X10100000Y-9580000D01*
X10000000Y-9480000D01*
X9900000Y-9580000D01*
X10000000Y-9680000D01*
D20*
X5800000Y-12400000D02*
X5800000Y-12700000D01*
X5650000Y-12550000D02*
X5950000Y-12550000D01*
X5950000Y-12550000D02*
G75*
G03*
X5950000Y-12550000I-150000J0D01*
G01*
X7125000Y-7775000D02*
X7125000Y-8075000D01*
X6975000Y-7925000D02*
X7275000Y-7925000D01*
X7275000Y-7925000D02*
G75*
G03*
X7275000Y-7925000I-150000J0D01*
G01*
X7975000Y-12450000D02*
X7975000Y-12750000D01*
X7825000Y-12600000D02*
X8125000Y-12600000D01*
X8125000Y-12600000D02*
G75*
G03*
X8125000Y-12600000I-150000J0D01*
G01*
X10000000Y-4850000D02*
X10000000Y-5150000D01*
X9850000Y-5000000D02*
X10150000Y-5000000D01*
X10150000Y-5000000D02*
G75*
G03*
X10150000Y-5000000I-150000J0D01*
G01*
X12025000Y-12450000D02*
X12025000Y-12750000D01*
X11875000Y-12600000D02*
X12175000Y-12600000D01*
X12175000Y-12600000D02*
G75*
G03*
X12175000Y-12600000I-150000J0D01*
G01*
X12875000Y-7775000D02*
X12875000Y-8075000D01*
X12725000Y-7925000D02*
X13025000Y-7925000D01*
X13025000Y-7925000D02*
G75*
G03*
X13025000Y-7925000I-150000J0D01*
G01*
X14300000Y-12375000D02*
X14300000Y-12675000D01*
X14150000Y-12525000D02*
X14450000Y-12525000D01*
X14450000Y-12525000D02*
G75*
G03*
X14450000Y-12525000I-150000J0D01*
G01*
D11*
X3852619Y-16715476D02*
X3852619Y-16515476D01*
X3900238Y-16515476D01*
X3928809Y-16525000D01*
X3947857Y-16544048D01*
X3957381Y-16563095D01*
X3966905Y-16601190D01*
X3966905Y-16629762D01*
X3957381Y-16667857D01*
X3947857Y-16686905D01*
X3928809Y-16705952D01*
X3900238Y-16715476D01*
X3852619Y-16715476D01*
X4052619Y-16715476D02*
X4052619Y-16582143D01*
X4052619Y-16620238D02*
X4062143Y-16601190D01*
X4071667Y-16591667D01*
X4090714Y-16582143D01*
X4109762Y-16582143D01*
X4176428Y-16715476D02*
X4176428Y-16582143D01*
X4176428Y-16515476D02*
X4166905Y-16525000D01*
X4176428Y-16534524D01*
X4185952Y-16525000D01*
X4176428Y-16515476D01*
X4176428Y-16534524D01*
X4300238Y-16715476D02*
X4281190Y-16705952D01*
X4271667Y-16686905D01*
X4271667Y-16515476D01*
X4405000Y-16715476D02*
X4385952Y-16705952D01*
X4376429Y-16686905D01*
X4376429Y-16515476D01*
X4633571Y-16715476D02*
X4633571Y-16515476D01*
X4700238Y-16658333D01*
X4766905Y-16515476D01*
X4766905Y-16715476D01*
X4947857Y-16715476D02*
X4947857Y-16610714D01*
X4938333Y-16591667D01*
X4919286Y-16582143D01*
X4881190Y-16582143D01*
X4862143Y-16591667D01*
X4947857Y-16705952D02*
X4928810Y-16715476D01*
X4881190Y-16715476D01*
X4862143Y-16705952D01*
X4852619Y-16686905D01*
X4852619Y-16667857D01*
X4862143Y-16648809D01*
X4881190Y-16639286D01*
X4928810Y-16639286D01*
X4947857Y-16629762D01*
X5043095Y-16582143D02*
X5043095Y-16782143D01*
X5043095Y-16591667D02*
X5062143Y-16582143D01*
X5100238Y-16582143D01*
X5119286Y-16591667D01*
X5128810Y-16601190D01*
X5138333Y-16620238D01*
X5138333Y-16677381D01*
X5128810Y-16696428D01*
X5119286Y-16705952D01*
X5100238Y-16715476D01*
X5062143Y-16715476D01*
X5043095Y-16705952D01*
X5224048Y-16696428D02*
X5233571Y-16705952D01*
X5224048Y-16715476D01*
X5214524Y-16705952D01*
X5224048Y-16696428D01*
X5224048Y-16715476D01*
X5224048Y-16591667D02*
X5233571Y-16601190D01*
X5224048Y-16610714D01*
X5214524Y-16601190D01*
X5224048Y-16591667D01*
X5224048Y-16610714D01*
D12*
X3555000Y-17025000D02*
X3595000Y-17065000D01*
X3595000Y-17025000D02*
X3555000Y-17065000D01*
D11*
X3890714Y-16935476D02*
X3909762Y-16935476D01*
X3928809Y-16945000D01*
X3938333Y-16954524D01*
X3947857Y-16973571D01*
X3957381Y-17011667D01*
X3957381Y-17059286D01*
X3947857Y-17097381D01*
X3938333Y-17116429D01*
X3928809Y-17125952D01*
X3909762Y-17135476D01*
X3890714Y-17135476D01*
X3871667Y-17125952D01*
X3862143Y-17116429D01*
X3852619Y-17097381D01*
X3843095Y-17059286D01*
X3843095Y-17011667D01*
X3852619Y-16973571D01*
X3862143Y-16954524D01*
X3871667Y-16945000D01*
X3890714Y-16935476D01*
X4043095Y-17116429D02*
X4052619Y-17125952D01*
X4043095Y-17135476D01*
X4033571Y-17125952D01*
X4043095Y-17116429D01*
X4043095Y-17135476D01*
X4224048Y-17002143D02*
X4224048Y-17135476D01*
X4176428Y-16925952D02*
X4128809Y-17068810D01*
X4252619Y-17068810D01*
X4366905Y-16935476D02*
X4385952Y-16935476D01*
X4405000Y-16945000D01*
X4414524Y-16954524D01*
X4424048Y-16973571D01*
X4433571Y-17011667D01*
X4433571Y-17059286D01*
X4424048Y-17097381D01*
X4414524Y-17116429D01*
X4405000Y-17125952D01*
X4385952Y-17135476D01*
X4366905Y-17135476D01*
X4347857Y-17125952D01*
X4338333Y-17116429D01*
X4328810Y-17097381D01*
X4319286Y-17059286D01*
X4319286Y-17011667D01*
X4328810Y-16973571D01*
X4338333Y-16954524D01*
X4347857Y-16945000D01*
X4366905Y-16935476D01*
X4557381Y-16935476D02*
X4576429Y-16935476D01*
X4595476Y-16945000D01*
X4605000Y-16954524D01*
X4614524Y-16973571D01*
X4624048Y-17011667D01*
X4624048Y-17059286D01*
X4614524Y-17097381D01*
X4605000Y-17116429D01*
X4595476Y-17125952D01*
X4576429Y-17135476D01*
X4557381Y-17135476D01*
X4538333Y-17125952D01*
X4528810Y-17116429D01*
X4519286Y-17097381D01*
X4509762Y-17059286D01*
X4509762Y-17011667D01*
X4519286Y-16973571D01*
X4528810Y-16954524D01*
X4538333Y-16945000D01*
X4557381Y-16935476D01*
X4709762Y-17135476D02*
X4709762Y-17002143D01*
X4709762Y-17021190D02*
X4719286Y-17011667D01*
X4738333Y-17002143D01*
X4766905Y-17002143D01*
X4785952Y-17011667D01*
X4795476Y-17030714D01*
X4795476Y-17135476D01*
X4795476Y-17030714D02*
X4805000Y-17011667D01*
X4824048Y-17002143D01*
X4852619Y-17002143D01*
X4871667Y-17011667D01*
X4881190Y-17030714D01*
X4881190Y-17135476D01*
X4976429Y-17135476D02*
X4976429Y-17002143D01*
X4976429Y-17021190D02*
X4985952Y-17011667D01*
X5005000Y-17002143D01*
X5033571Y-17002143D01*
X5052619Y-17011667D01*
X5062143Y-17030714D01*
X5062143Y-17135476D01*
X5062143Y-17030714D02*
X5071667Y-17011667D01*
X5090714Y-17002143D01*
X5119286Y-17002143D01*
X5138333Y-17011667D01*
X5147857Y-17030714D01*
X5147857Y-17135476D01*
X5538333Y-16925952D02*
X5366905Y-17183095D01*
X5795476Y-16935476D02*
X5814524Y-16935476D01*
X5833571Y-16945000D01*
X5843095Y-16954524D01*
X5852619Y-16973571D01*
X5862143Y-17011667D01*
X5862143Y-17059286D01*
X5852619Y-17097381D01*
X5843095Y-17116429D01*
X5833571Y-17125952D01*
X5814524Y-17135476D01*
X5795476Y-17135476D01*
X5776428Y-17125952D01*
X5766905Y-17116429D01*
X5757381Y-17097381D01*
X5747857Y-17059286D01*
X5747857Y-17011667D01*
X5757381Y-16973571D01*
X5766905Y-16954524D01*
X5776428Y-16945000D01*
X5795476Y-16935476D01*
X5947857Y-17116429D02*
X5957381Y-17125952D01*
X5947857Y-17135476D01*
X5938333Y-17125952D01*
X5947857Y-17116429D01*
X5947857Y-17135476D01*
X6081190Y-16935476D02*
X6100238Y-16935476D01*
X6119286Y-16945000D01*
X6128809Y-16954524D01*
X6138333Y-16973571D01*
X6147857Y-17011667D01*
X6147857Y-17059286D01*
X6138333Y-17097381D01*
X6128809Y-17116429D01*
X6119286Y-17125952D01*
X6100238Y-17135476D01*
X6081190Y-17135476D01*
X6062143Y-17125952D01*
X6052619Y-17116429D01*
X6043095Y-17097381D01*
X6033571Y-17059286D01*
X6033571Y-17011667D01*
X6043095Y-16973571D01*
X6052619Y-16954524D01*
X6062143Y-16945000D01*
X6081190Y-16935476D01*
X6338333Y-17135476D02*
X6224048Y-17135476D01*
X6281190Y-17135476D02*
X6281190Y-16935476D01*
X6262143Y-16964048D01*
X6243095Y-16983095D01*
X6224048Y-16992619D01*
X6519286Y-16935476D02*
X6424048Y-16935476D01*
X6414524Y-17030714D01*
X6424048Y-17021190D01*
X6443095Y-17011667D01*
X6490714Y-17011667D01*
X6509762Y-17021190D01*
X6519286Y-17030714D01*
X6528809Y-17049762D01*
X6528809Y-17097381D01*
X6519286Y-17116429D01*
X6509762Y-17125952D01*
X6490714Y-17135476D01*
X6443095Y-17135476D01*
X6424048Y-17125952D01*
X6414524Y-17116429D01*
X6595476Y-16935476D02*
X6728809Y-16935476D01*
X6643095Y-17135476D01*
X6795476Y-16935476D02*
X6795476Y-16973571D01*
X6871667Y-16935476D02*
X6871667Y-16973571D01*
X7166905Y-17211667D02*
X7157381Y-17202143D01*
X7138333Y-17173571D01*
X7128809Y-17154524D01*
X7119286Y-17125952D01*
X7109762Y-17078333D01*
X7109762Y-17040238D01*
X7119286Y-16992619D01*
X7128809Y-16964048D01*
X7138333Y-16945000D01*
X7157381Y-16916429D01*
X7166905Y-16906905D01*
X7252619Y-17135476D02*
X7290714Y-17135476D01*
X7309762Y-17125952D01*
X7319286Y-17116429D01*
X7338333Y-17087857D01*
X7347857Y-17049762D01*
X7347857Y-16973571D01*
X7338333Y-16954524D01*
X7328809Y-16945000D01*
X7309762Y-16935476D01*
X7271667Y-16935476D01*
X7252619Y-16945000D01*
X7243095Y-16954524D01*
X7233571Y-16973571D01*
X7233571Y-17021190D01*
X7243095Y-17040238D01*
X7252619Y-17049762D01*
X7271667Y-17059286D01*
X7309762Y-17059286D01*
X7328809Y-17049762D01*
X7338333Y-17040238D01*
X7347857Y-17021190D01*
X7585952Y-17135476D02*
X7585952Y-16935476D01*
X7671667Y-17135476D02*
X7671667Y-17030714D01*
X7662143Y-17011667D01*
X7643095Y-17002143D01*
X7614524Y-17002143D01*
X7595476Y-17011667D01*
X7585952Y-17021190D01*
X7795476Y-17135476D02*
X7776428Y-17125952D01*
X7766905Y-17116429D01*
X7757381Y-17097381D01*
X7757381Y-17040238D01*
X7766905Y-17021190D01*
X7776428Y-17011667D01*
X7795476Y-17002143D01*
X7824048Y-17002143D01*
X7843095Y-17011667D01*
X7852619Y-17021190D01*
X7862143Y-17040238D01*
X7862143Y-17097381D01*
X7852619Y-17116429D01*
X7843095Y-17125952D01*
X7824048Y-17135476D01*
X7795476Y-17135476D01*
X7976428Y-17135476D02*
X7957381Y-17125952D01*
X7947857Y-17106905D01*
X7947857Y-16935476D01*
X8128809Y-17125952D02*
X8109762Y-17135476D01*
X8071667Y-17135476D01*
X8052619Y-17125952D01*
X8043095Y-17106905D01*
X8043095Y-17030714D01*
X8052619Y-17011667D01*
X8071667Y-17002143D01*
X8109762Y-17002143D01*
X8128809Y-17011667D01*
X8138333Y-17030714D01*
X8138333Y-17049762D01*
X8043095Y-17068810D01*
X8214524Y-17125952D02*
X8233571Y-17135476D01*
X8271667Y-17135476D01*
X8290714Y-17125952D01*
X8300238Y-17106905D01*
X8300238Y-17097381D01*
X8290714Y-17078333D01*
X8271667Y-17068810D01*
X8243095Y-17068810D01*
X8224048Y-17059286D01*
X8214524Y-17040238D01*
X8214524Y-17030714D01*
X8224048Y-17011667D01*
X8243095Y-17002143D01*
X8271667Y-17002143D01*
X8290714Y-17011667D01*
X8366905Y-17211667D02*
X8376428Y-17202143D01*
X8395476Y-17173571D01*
X8405000Y-17154524D01*
X8414524Y-17125952D01*
X8424048Y-17078333D01*
X8424048Y-17040238D01*
X8414524Y-16992619D01*
X8405000Y-16964048D01*
X8395476Y-16945000D01*
X8376428Y-16916429D01*
X8366905Y-16906905D01*
D13*
X3595000Y-17309000D02*
G75*
G03*
X3595000Y-17309000I-37500J0D01*
G01*
D11*
X3890714Y-17199476D02*
X3909762Y-17199476D01*
X3928809Y-17209000D01*
X3938333Y-17218524D01*
X3947857Y-17237571D01*
X3957381Y-17275667D01*
X3957381Y-17323286D01*
X3947857Y-17361381D01*
X3938333Y-17380429D01*
X3928809Y-17389952D01*
X3909762Y-17399476D01*
X3890714Y-17399476D01*
X3871667Y-17389952D01*
X3862143Y-17380429D01*
X3852619Y-17361381D01*
X3843095Y-17323286D01*
X3843095Y-17275667D01*
X3852619Y-17237571D01*
X3862143Y-17218524D01*
X3871667Y-17209000D01*
X3890714Y-17199476D01*
X4043095Y-17380429D02*
X4052619Y-17389952D01*
X4043095Y-17399476D01*
X4033571Y-17389952D01*
X4043095Y-17380429D01*
X4043095Y-17399476D01*
X4119286Y-17199476D02*
X4252619Y-17199476D01*
X4166905Y-17399476D01*
X4424048Y-17199476D02*
X4328810Y-17199476D01*
X4319286Y-17294714D01*
X4328810Y-17285190D01*
X4347857Y-17275667D01*
X4395476Y-17275667D01*
X4414524Y-17285190D01*
X4424048Y-17294714D01*
X4433571Y-17313762D01*
X4433571Y-17361381D01*
X4424048Y-17380429D01*
X4414524Y-17389952D01*
X4395476Y-17399476D01*
X4347857Y-17399476D01*
X4328810Y-17389952D01*
X4319286Y-17380429D01*
X4557381Y-17199476D02*
X4576429Y-17199476D01*
X4595476Y-17209000D01*
X4605000Y-17218524D01*
X4614524Y-17237571D01*
X4624048Y-17275667D01*
X4624048Y-17323286D01*
X4614524Y-17361381D01*
X4605000Y-17380429D01*
X4595476Y-17389952D01*
X4576429Y-17399476D01*
X4557381Y-17399476D01*
X4538333Y-17389952D01*
X4528810Y-17380429D01*
X4519286Y-17361381D01*
X4509762Y-17323286D01*
X4509762Y-17275667D01*
X4519286Y-17237571D01*
X4528810Y-17218524D01*
X4538333Y-17209000D01*
X4557381Y-17199476D01*
X4709762Y-17399476D02*
X4709762Y-17266143D01*
X4709762Y-17285190D02*
X4719286Y-17275667D01*
X4738333Y-17266143D01*
X4766905Y-17266143D01*
X4785952Y-17275667D01*
X4795476Y-17294714D01*
X4795476Y-17399476D01*
X4795476Y-17294714D02*
X4805000Y-17275667D01*
X4824048Y-17266143D01*
X4852619Y-17266143D01*
X4871667Y-17275667D01*
X4881190Y-17294714D01*
X4881190Y-17399476D01*
X4976429Y-17399476D02*
X4976429Y-17266143D01*
X4976429Y-17285190D02*
X4985952Y-17275667D01*
X5005000Y-17266143D01*
X5033571Y-17266143D01*
X5052619Y-17275667D01*
X5062143Y-17294714D01*
X5062143Y-17399476D01*
X5062143Y-17294714D02*
X5071667Y-17275667D01*
X5090714Y-17266143D01*
X5119286Y-17266143D01*
X5138333Y-17275667D01*
X5147857Y-17294714D01*
X5147857Y-17399476D01*
X5538333Y-17189952D02*
X5366905Y-17447095D01*
X5795476Y-17199476D02*
X5814524Y-17199476D01*
X5833571Y-17209000D01*
X5843095Y-17218524D01*
X5852619Y-17237571D01*
X5862143Y-17275667D01*
X5862143Y-17323286D01*
X5852619Y-17361381D01*
X5843095Y-17380429D01*
X5833571Y-17389952D01*
X5814524Y-17399476D01*
X5795476Y-17399476D01*
X5776428Y-17389952D01*
X5766905Y-17380429D01*
X5757381Y-17361381D01*
X5747857Y-17323286D01*
X5747857Y-17275667D01*
X5757381Y-17237571D01*
X5766905Y-17218524D01*
X5776428Y-17209000D01*
X5795476Y-17199476D01*
X5947857Y-17380429D02*
X5957381Y-17389952D01*
X5947857Y-17399476D01*
X5938333Y-17389952D01*
X5947857Y-17380429D01*
X5947857Y-17399476D01*
X6081190Y-17199476D02*
X6100238Y-17199476D01*
X6119286Y-17209000D01*
X6128809Y-17218524D01*
X6138333Y-17237571D01*
X6147857Y-17275667D01*
X6147857Y-17323286D01*
X6138333Y-17361381D01*
X6128809Y-17380429D01*
X6119286Y-17389952D01*
X6100238Y-17399476D01*
X6081190Y-17399476D01*
X6062143Y-17389952D01*
X6052619Y-17380429D01*
X6043095Y-17361381D01*
X6033571Y-17323286D01*
X6033571Y-17275667D01*
X6043095Y-17237571D01*
X6052619Y-17218524D01*
X6062143Y-17209000D01*
X6081190Y-17199476D01*
X6224048Y-17218524D02*
X6233571Y-17209000D01*
X6252619Y-17199476D01*
X6300238Y-17199476D01*
X6319286Y-17209000D01*
X6328809Y-17218524D01*
X6338333Y-17237571D01*
X6338333Y-17256619D01*
X6328809Y-17285190D01*
X6214524Y-17399476D01*
X6338333Y-17399476D01*
X6433571Y-17399476D02*
X6471667Y-17399476D01*
X6490714Y-17389952D01*
X6500238Y-17380429D01*
X6519286Y-17351857D01*
X6528809Y-17313762D01*
X6528809Y-17237571D01*
X6519286Y-17218524D01*
X6509762Y-17209000D01*
X6490714Y-17199476D01*
X6452619Y-17199476D01*
X6433571Y-17209000D01*
X6424048Y-17218524D01*
X6414524Y-17237571D01*
X6414524Y-17285190D01*
X6424048Y-17304238D01*
X6433571Y-17313762D01*
X6452619Y-17323286D01*
X6490714Y-17323286D01*
X6509762Y-17313762D01*
X6519286Y-17304238D01*
X6528809Y-17285190D01*
X6709762Y-17199476D02*
X6614524Y-17199476D01*
X6605000Y-17294714D01*
X6614524Y-17285190D01*
X6633571Y-17275667D01*
X6681190Y-17275667D01*
X6700238Y-17285190D01*
X6709762Y-17294714D01*
X6719286Y-17313762D01*
X6719286Y-17361381D01*
X6709762Y-17380429D01*
X6700238Y-17389952D01*
X6681190Y-17399476D01*
X6633571Y-17399476D01*
X6614524Y-17389952D01*
X6605000Y-17380429D01*
X6795476Y-17199476D02*
X6795476Y-17237571D01*
X6871667Y-17199476D02*
X6871667Y-17237571D01*
X7166905Y-17475667D02*
X7157381Y-17466143D01*
X7138333Y-17437571D01*
X7128809Y-17418524D01*
X7119286Y-17389952D01*
X7109762Y-17342333D01*
X7109762Y-17304238D01*
X7119286Y-17256619D01*
X7128809Y-17228048D01*
X7138333Y-17209000D01*
X7157381Y-17180429D01*
X7166905Y-17170905D01*
X7347857Y-17399476D02*
X7233571Y-17399476D01*
X7290714Y-17399476D02*
X7290714Y-17199476D01*
X7271667Y-17228048D01*
X7252619Y-17247095D01*
X7233571Y-17256619D01*
X7471667Y-17199476D02*
X7490714Y-17199476D01*
X7509762Y-17209000D01*
X7519286Y-17218524D01*
X7528809Y-17237571D01*
X7538333Y-17275667D01*
X7538333Y-17323286D01*
X7528809Y-17361381D01*
X7519286Y-17380429D01*
X7509762Y-17389952D01*
X7490714Y-17399476D01*
X7471667Y-17399476D01*
X7452619Y-17389952D01*
X7443095Y-17380429D01*
X7433571Y-17361381D01*
X7424048Y-17323286D01*
X7424048Y-17275667D01*
X7433571Y-17237571D01*
X7443095Y-17218524D01*
X7452619Y-17209000D01*
X7471667Y-17199476D01*
X7776428Y-17399476D02*
X7776428Y-17199476D01*
X7862143Y-17399476D02*
X7862143Y-17294714D01*
X7852619Y-17275667D01*
X7833571Y-17266143D01*
X7805000Y-17266143D01*
X7785952Y-17275667D01*
X7776428Y-17285190D01*
X7985952Y-17399476D02*
X7966905Y-17389952D01*
X7957381Y-17380429D01*
X7947857Y-17361381D01*
X7947857Y-17304238D01*
X7957381Y-17285190D01*
X7966905Y-17275667D01*
X7985952Y-17266143D01*
X8014524Y-17266143D01*
X8033571Y-17275667D01*
X8043095Y-17285190D01*
X8052619Y-17304238D01*
X8052619Y-17361381D01*
X8043095Y-17380429D01*
X8033571Y-17389952D01*
X8014524Y-17399476D01*
X7985952Y-17399476D01*
X8166905Y-17399476D02*
X8147857Y-17389952D01*
X8138333Y-17370905D01*
X8138333Y-17199476D01*
X8319286Y-17389952D02*
X8300238Y-17399476D01*
X8262143Y-17399476D01*
X8243095Y-17389952D01*
X8233571Y-17370905D01*
X8233571Y-17294714D01*
X8243095Y-17275667D01*
X8262143Y-17266143D01*
X8300238Y-17266143D01*
X8319286Y-17275667D01*
X8328809Y-17294714D01*
X8328809Y-17313762D01*
X8233571Y-17332810D01*
X8405000Y-17389952D02*
X8424048Y-17399476D01*
X8462143Y-17399476D01*
X8481190Y-17389952D01*
X8490714Y-17370905D01*
X8490714Y-17361381D01*
X8481190Y-17342333D01*
X8462143Y-17332810D01*
X8433571Y-17332810D01*
X8414524Y-17323286D01*
X8405000Y-17304238D01*
X8405000Y-17294714D01*
X8414524Y-17275667D01*
X8433571Y-17266143D01*
X8462143Y-17266143D01*
X8481190Y-17275667D01*
X8557381Y-17475667D02*
X8566905Y-17466143D01*
X8585952Y-17437571D01*
X8595476Y-17418524D01*
X8605000Y-17389952D01*
X8614524Y-17342333D01*
X8614524Y-17304238D01*
X8605000Y-17256619D01*
X8595476Y-17228048D01*
X8585952Y-17209000D01*
X8566905Y-17180429D01*
X8557381Y-17170905D01*
D14*
X3555000Y-17533000D02*
X3555000Y-17613000D01*
X3515000Y-17573000D02*
X3595000Y-17573000D01*
D11*
X3890714Y-17463476D02*
X3909762Y-17463476D01*
X3928809Y-17473000D01*
X3938333Y-17482524D01*
X3947857Y-17501571D01*
X3957381Y-17539667D01*
X3957381Y-17587286D01*
X3947857Y-17625381D01*
X3938333Y-17644429D01*
X3928809Y-17653952D01*
X3909762Y-17663476D01*
X3890714Y-17663476D01*
X3871667Y-17653952D01*
X3862143Y-17644429D01*
X3852619Y-17625381D01*
X3843095Y-17587286D01*
X3843095Y-17539667D01*
X3852619Y-17501571D01*
X3862143Y-17482524D01*
X3871667Y-17473000D01*
X3890714Y-17463476D01*
X4043095Y-17644429D02*
X4052619Y-17653952D01*
X4043095Y-17663476D01*
X4033571Y-17653952D01*
X4043095Y-17644429D01*
X4043095Y-17663476D01*
X4166905Y-17549190D02*
X4147857Y-17539667D01*
X4138333Y-17530143D01*
X4128809Y-17511095D01*
X4128809Y-17501571D01*
X4138333Y-17482524D01*
X4147857Y-17473000D01*
X4166905Y-17463476D01*
X4205000Y-17463476D01*
X4224048Y-17473000D01*
X4233571Y-17482524D01*
X4243095Y-17501571D01*
X4243095Y-17511095D01*
X4233571Y-17530143D01*
X4224048Y-17539667D01*
X4205000Y-17549190D01*
X4166905Y-17549190D01*
X4147857Y-17558714D01*
X4138333Y-17568238D01*
X4128809Y-17587286D01*
X4128809Y-17625381D01*
X4138333Y-17644429D01*
X4147857Y-17653952D01*
X4166905Y-17663476D01*
X4205000Y-17663476D01*
X4224048Y-17653952D01*
X4233571Y-17644429D01*
X4243095Y-17625381D01*
X4243095Y-17587286D01*
X4233571Y-17568238D01*
X4224048Y-17558714D01*
X4205000Y-17549190D01*
X4366905Y-17463476D02*
X4385952Y-17463476D01*
X4405000Y-17473000D01*
X4414524Y-17482524D01*
X4424048Y-17501571D01*
X4433571Y-17539667D01*
X4433571Y-17587286D01*
X4424048Y-17625381D01*
X4414524Y-17644429D01*
X4405000Y-17653952D01*
X4385952Y-17663476D01*
X4366905Y-17663476D01*
X4347857Y-17653952D01*
X4338333Y-17644429D01*
X4328810Y-17625381D01*
X4319286Y-17587286D01*
X4319286Y-17539667D01*
X4328810Y-17501571D01*
X4338333Y-17482524D01*
X4347857Y-17473000D01*
X4366905Y-17463476D01*
X4557381Y-17463476D02*
X4576429Y-17463476D01*
X4595476Y-17473000D01*
X4605000Y-17482524D01*
X4614524Y-17501571D01*
X4624048Y-17539667D01*
X4624048Y-17587286D01*
X4614524Y-17625381D01*
X4605000Y-17644429D01*
X4595476Y-17653952D01*
X4576429Y-17663476D01*
X4557381Y-17663476D01*
X4538333Y-17653952D01*
X4528810Y-17644429D01*
X4519286Y-17625381D01*
X4509762Y-17587286D01*
X4509762Y-17539667D01*
X4519286Y-17501571D01*
X4528810Y-17482524D01*
X4538333Y-17473000D01*
X4557381Y-17463476D01*
X4709762Y-17663476D02*
X4709762Y-17530143D01*
X4709762Y-17549190D02*
X4719286Y-17539667D01*
X4738333Y-17530143D01*
X4766905Y-17530143D01*
X4785952Y-17539667D01*
X4795476Y-17558714D01*
X4795476Y-17663476D01*
X4795476Y-17558714D02*
X4805000Y-17539667D01*
X4824048Y-17530143D01*
X4852619Y-17530143D01*
X4871667Y-17539667D01*
X4881190Y-17558714D01*
X4881190Y-17663476D01*
X4976429Y-17663476D02*
X4976429Y-17530143D01*
X4976429Y-17549190D02*
X4985952Y-17539667D01*
X5005000Y-17530143D01*
X5033571Y-17530143D01*
X5052619Y-17539667D01*
X5062143Y-17558714D01*
X5062143Y-17663476D01*
X5062143Y-17558714D02*
X5071667Y-17539667D01*
X5090714Y-17530143D01*
X5119286Y-17530143D01*
X5138333Y-17539667D01*
X5147857Y-17558714D01*
X5147857Y-17663476D01*
X5538333Y-17453952D02*
X5366905Y-17711095D01*
X5795476Y-17463476D02*
X5814524Y-17463476D01*
X5833571Y-17473000D01*
X5843095Y-17482524D01*
X5852619Y-17501571D01*
X5862143Y-17539667D01*
X5862143Y-17587286D01*
X5852619Y-17625381D01*
X5843095Y-17644429D01*
X5833571Y-17653952D01*
X5814524Y-17663476D01*
X5795476Y-17663476D01*
X5776428Y-17653952D01*
X5766905Y-17644429D01*
X5757381Y-17625381D01*
X5747857Y-17587286D01*
X5747857Y-17539667D01*
X5757381Y-17501571D01*
X5766905Y-17482524D01*
X5776428Y-17473000D01*
X5795476Y-17463476D01*
X5947857Y-17644429D02*
X5957381Y-17653952D01*
X5947857Y-17663476D01*
X5938333Y-17653952D01*
X5947857Y-17644429D01*
X5947857Y-17663476D01*
X6081190Y-17463476D02*
X6100238Y-17463476D01*
X6119286Y-17473000D01*
X6128809Y-17482524D01*
X6138333Y-17501571D01*
X6147857Y-17539667D01*
X6147857Y-17587286D01*
X6138333Y-17625381D01*
X6128809Y-17644429D01*
X6119286Y-17653952D01*
X6100238Y-17663476D01*
X6081190Y-17663476D01*
X6062143Y-17653952D01*
X6052619Y-17644429D01*
X6043095Y-17625381D01*
X6033571Y-17587286D01*
X6033571Y-17539667D01*
X6043095Y-17501571D01*
X6052619Y-17482524D01*
X6062143Y-17473000D01*
X6081190Y-17463476D01*
X6214524Y-17463476D02*
X6338333Y-17463476D01*
X6271667Y-17539667D01*
X6300238Y-17539667D01*
X6319286Y-17549190D01*
X6328809Y-17558714D01*
X6338333Y-17577762D01*
X6338333Y-17625381D01*
X6328809Y-17644429D01*
X6319286Y-17653952D01*
X6300238Y-17663476D01*
X6243095Y-17663476D01*
X6224048Y-17653952D01*
X6214524Y-17644429D01*
X6528809Y-17663476D02*
X6414524Y-17663476D01*
X6471667Y-17663476D02*
X6471667Y-17463476D01*
X6452619Y-17492048D01*
X6433571Y-17511095D01*
X6414524Y-17520619D01*
X6709762Y-17463476D02*
X6614524Y-17463476D01*
X6605000Y-17558714D01*
X6614524Y-17549190D01*
X6633571Y-17539667D01*
X6681190Y-17539667D01*
X6700238Y-17549190D01*
X6709762Y-17558714D01*
X6719286Y-17577762D01*
X6719286Y-17625381D01*
X6709762Y-17644429D01*
X6700238Y-17653952D01*
X6681190Y-17663476D01*
X6633571Y-17663476D01*
X6614524Y-17653952D01*
X6605000Y-17644429D01*
X6795476Y-17463476D02*
X6795476Y-17501571D01*
X6871667Y-17463476D02*
X6871667Y-17501571D01*
X7166905Y-17739667D02*
X7157381Y-17730143D01*
X7138333Y-17701571D01*
X7128809Y-17682524D01*
X7119286Y-17653952D01*
X7109762Y-17606333D01*
X7109762Y-17568238D01*
X7119286Y-17520619D01*
X7128809Y-17492048D01*
X7138333Y-17473000D01*
X7157381Y-17444429D01*
X7166905Y-17434905D01*
X7233571Y-17482524D02*
X7243095Y-17473000D01*
X7262143Y-17463476D01*
X7309762Y-17463476D01*
X7328809Y-17473000D01*
X7338333Y-17482524D01*
X7347857Y-17501571D01*
X7347857Y-17520619D01*
X7338333Y-17549190D01*
X7224048Y-17663476D01*
X7347857Y-17663476D01*
X7528809Y-17463476D02*
X7433571Y-17463476D01*
X7424048Y-17558714D01*
X7433571Y-17549190D01*
X7452619Y-17539667D01*
X7500238Y-17539667D01*
X7519286Y-17549190D01*
X7528809Y-17558714D01*
X7538333Y-17577762D01*
X7538333Y-17625381D01*
X7528809Y-17644429D01*
X7519286Y-17653952D01*
X7500238Y-17663476D01*
X7452619Y-17663476D01*
X7433571Y-17653952D01*
X7424048Y-17644429D01*
X7776428Y-17663476D02*
X7776428Y-17463476D01*
X7862143Y-17663476D02*
X7862143Y-17558714D01*
X7852619Y-17539667D01*
X7833571Y-17530143D01*
X7805000Y-17530143D01*
X7785952Y-17539667D01*
X7776428Y-17549190D01*
X7985952Y-17663476D02*
X7966905Y-17653952D01*
X7957381Y-17644429D01*
X7947857Y-17625381D01*
X7947857Y-17568238D01*
X7957381Y-17549190D01*
X7966905Y-17539667D01*
X7985952Y-17530143D01*
X8014524Y-17530143D01*
X8033571Y-17539667D01*
X8043095Y-17549190D01*
X8052619Y-17568238D01*
X8052619Y-17625381D01*
X8043095Y-17644429D01*
X8033571Y-17653952D01*
X8014524Y-17663476D01*
X7985952Y-17663476D01*
X8166905Y-17663476D02*
X8147857Y-17653952D01*
X8138333Y-17634905D01*
X8138333Y-17463476D01*
X8319286Y-17653952D02*
X8300238Y-17663476D01*
X8262143Y-17663476D01*
X8243095Y-17653952D01*
X8233571Y-17634905D01*
X8233571Y-17558714D01*
X8243095Y-17539667D01*
X8262143Y-17530143D01*
X8300238Y-17530143D01*
X8319286Y-17539667D01*
X8328809Y-17558714D01*
X8328809Y-17577762D01*
X8233571Y-17596810D01*
X8405000Y-17653952D02*
X8424048Y-17663476D01*
X8462143Y-17663476D01*
X8481190Y-17653952D01*
X8490714Y-17634905D01*
X8490714Y-17625381D01*
X8481190Y-17606333D01*
X8462143Y-17596810D01*
X8433571Y-17596810D01*
X8414524Y-17587286D01*
X8405000Y-17568238D01*
X8405000Y-17558714D01*
X8414524Y-17539667D01*
X8433571Y-17530143D01*
X8462143Y-17530143D01*
X8481190Y-17539667D01*
X8557381Y-17739667D02*
X8566905Y-17730143D01*
X8585952Y-17701571D01*
X8595476Y-17682524D01*
X8605000Y-17653952D01*
X8614524Y-17606333D01*
X8614524Y-17568238D01*
X8605000Y-17520619D01*
X8595476Y-17492048D01*
X8585952Y-17473000D01*
X8566905Y-17444429D01*
X8557381Y-17434905D01*
D15*
X3580356Y-17872356D02*
X3580356Y-17801644D01*
X3509644Y-17801644D01*
X3509644Y-17872356D01*
X3580356Y-17872356D01*
D11*
X3957381Y-17927476D02*
X3843095Y-17927476D01*
X3900238Y-17927476D02*
X3900238Y-17727476D01*
X3881190Y-17756048D01*
X3862143Y-17775095D01*
X3843095Y-17784619D01*
X4043095Y-17908429D02*
X4052619Y-17917952D01*
X4043095Y-17927476D01*
X4033571Y-17917952D01*
X4043095Y-17908429D01*
X4043095Y-17927476D01*
X4176428Y-17727476D02*
X4195476Y-17727476D01*
X4214524Y-17737000D01*
X4224048Y-17746524D01*
X4233571Y-17765571D01*
X4243095Y-17803667D01*
X4243095Y-17851286D01*
X4233571Y-17889381D01*
X4224048Y-17908429D01*
X4214524Y-17917952D01*
X4195476Y-17927476D01*
X4176428Y-17927476D01*
X4157381Y-17917952D01*
X4147857Y-17908429D01*
X4138333Y-17889381D01*
X4128809Y-17851286D01*
X4128809Y-17803667D01*
X4138333Y-17765571D01*
X4147857Y-17746524D01*
X4157381Y-17737000D01*
X4176428Y-17727476D01*
X4366905Y-17727476D02*
X4385952Y-17727476D01*
X4405000Y-17737000D01*
X4414524Y-17746524D01*
X4424048Y-17765571D01*
X4433571Y-17803667D01*
X4433571Y-17851286D01*
X4424048Y-17889381D01*
X4414524Y-17908429D01*
X4405000Y-17917952D01*
X4385952Y-17927476D01*
X4366905Y-17927476D01*
X4347857Y-17917952D01*
X4338333Y-17908429D01*
X4328810Y-17889381D01*
X4319286Y-17851286D01*
X4319286Y-17803667D01*
X4328810Y-17765571D01*
X4338333Y-17746524D01*
X4347857Y-17737000D01*
X4366905Y-17727476D01*
X4557381Y-17727476D02*
X4576429Y-17727476D01*
X4595476Y-17737000D01*
X4605000Y-17746524D01*
X4614524Y-17765571D01*
X4624048Y-17803667D01*
X4624048Y-17851286D01*
X4614524Y-17889381D01*
X4605000Y-17908429D01*
X4595476Y-17917952D01*
X4576429Y-17927476D01*
X4557381Y-17927476D01*
X4538333Y-17917952D01*
X4528810Y-17908429D01*
X4519286Y-17889381D01*
X4509762Y-17851286D01*
X4509762Y-17803667D01*
X4519286Y-17765571D01*
X4528810Y-17746524D01*
X4538333Y-17737000D01*
X4557381Y-17727476D01*
X4709762Y-17927476D02*
X4709762Y-17794143D01*
X4709762Y-17813190D02*
X4719286Y-17803667D01*
X4738333Y-17794143D01*
X4766905Y-17794143D01*
X4785952Y-17803667D01*
X4795476Y-17822714D01*
X4795476Y-17927476D01*
X4795476Y-17822714D02*
X4805000Y-17803667D01*
X4824048Y-17794143D01*
X4852619Y-17794143D01*
X4871667Y-17803667D01*
X4881190Y-17822714D01*
X4881190Y-17927476D01*
X4976429Y-17927476D02*
X4976429Y-17794143D01*
X4976429Y-17813190D02*
X4985952Y-17803667D01*
X5005000Y-17794143D01*
X5033571Y-17794143D01*
X5052619Y-17803667D01*
X5062143Y-17822714D01*
X5062143Y-17927476D01*
X5062143Y-17822714D02*
X5071667Y-17803667D01*
X5090714Y-17794143D01*
X5119286Y-17794143D01*
X5138333Y-17803667D01*
X5147857Y-17822714D01*
X5147857Y-17927476D01*
X5538333Y-17717952D02*
X5366905Y-17975095D01*
X5795476Y-17727476D02*
X5814524Y-17727476D01*
X5833571Y-17737000D01*
X5843095Y-17746524D01*
X5852619Y-17765571D01*
X5862143Y-17803667D01*
X5862143Y-17851286D01*
X5852619Y-17889381D01*
X5843095Y-17908429D01*
X5833571Y-17917952D01*
X5814524Y-17927476D01*
X5795476Y-17927476D01*
X5776428Y-17917952D01*
X5766905Y-17908429D01*
X5757381Y-17889381D01*
X5747857Y-17851286D01*
X5747857Y-17803667D01*
X5757381Y-17765571D01*
X5766905Y-17746524D01*
X5776428Y-17737000D01*
X5795476Y-17727476D01*
X5947857Y-17908429D02*
X5957381Y-17917952D01*
X5947857Y-17927476D01*
X5938333Y-17917952D01*
X5947857Y-17908429D01*
X5947857Y-17927476D01*
X6081190Y-17727476D02*
X6100238Y-17727476D01*
X6119286Y-17737000D01*
X6128809Y-17746524D01*
X6138333Y-17765571D01*
X6147857Y-17803667D01*
X6147857Y-17851286D01*
X6138333Y-17889381D01*
X6128809Y-17908429D01*
X6119286Y-17917952D01*
X6100238Y-17927476D01*
X6081190Y-17927476D01*
X6062143Y-17917952D01*
X6052619Y-17908429D01*
X6043095Y-17889381D01*
X6033571Y-17851286D01*
X6033571Y-17803667D01*
X6043095Y-17765571D01*
X6052619Y-17746524D01*
X6062143Y-17737000D01*
X6081190Y-17727476D01*
X6214524Y-17727476D02*
X6338333Y-17727476D01*
X6271667Y-17803667D01*
X6300238Y-17803667D01*
X6319286Y-17813190D01*
X6328809Y-17822714D01*
X6338333Y-17841762D01*
X6338333Y-17889381D01*
X6328809Y-17908429D01*
X6319286Y-17917952D01*
X6300238Y-17927476D01*
X6243095Y-17927476D01*
X6224048Y-17917952D01*
X6214524Y-17908429D01*
X6433571Y-17927476D02*
X6471667Y-17927476D01*
X6490714Y-17917952D01*
X6500238Y-17908429D01*
X6519286Y-17879857D01*
X6528809Y-17841762D01*
X6528809Y-17765571D01*
X6519286Y-17746524D01*
X6509762Y-17737000D01*
X6490714Y-17727476D01*
X6452619Y-17727476D01*
X6433571Y-17737000D01*
X6424048Y-17746524D01*
X6414524Y-17765571D01*
X6414524Y-17813190D01*
X6424048Y-17832238D01*
X6433571Y-17841762D01*
X6452619Y-17851286D01*
X6490714Y-17851286D01*
X6509762Y-17841762D01*
X6519286Y-17832238D01*
X6528809Y-17813190D01*
X6700238Y-17794143D02*
X6700238Y-17927476D01*
X6652619Y-17717952D02*
X6605000Y-17860810D01*
X6728809Y-17860810D01*
X6795476Y-17727476D02*
X6795476Y-17765571D01*
X6871667Y-17727476D02*
X6871667Y-17765571D01*
X7166905Y-18003667D02*
X7157381Y-17994143D01*
X7138333Y-17965571D01*
X7128809Y-17946524D01*
X7119286Y-17917952D01*
X7109762Y-17870333D01*
X7109762Y-17832238D01*
X7119286Y-17784619D01*
X7128809Y-17756048D01*
X7138333Y-17737000D01*
X7157381Y-17708429D01*
X7166905Y-17698905D01*
X7347857Y-17927476D02*
X7233571Y-17927476D01*
X7290714Y-17927476D02*
X7290714Y-17727476D01*
X7271667Y-17756048D01*
X7252619Y-17775095D01*
X7233571Y-17784619D01*
X7462143Y-17813190D02*
X7443095Y-17803667D01*
X7433571Y-17794143D01*
X7424048Y-17775095D01*
X7424048Y-17765571D01*
X7433571Y-17746524D01*
X7443095Y-17737000D01*
X7462143Y-17727476D01*
X7500238Y-17727476D01*
X7519286Y-17737000D01*
X7528809Y-17746524D01*
X7538333Y-17765571D01*
X7538333Y-17775095D01*
X7528809Y-17794143D01*
X7519286Y-17803667D01*
X7500238Y-17813190D01*
X7462143Y-17813190D01*
X7443095Y-17822714D01*
X7433571Y-17832238D01*
X7424048Y-17851286D01*
X7424048Y-17889381D01*
X7433571Y-17908429D01*
X7443095Y-17917952D01*
X7462143Y-17927476D01*
X7500238Y-17927476D01*
X7519286Y-17917952D01*
X7528809Y-17908429D01*
X7538333Y-17889381D01*
X7538333Y-17851286D01*
X7528809Y-17832238D01*
X7519286Y-17822714D01*
X7500238Y-17813190D01*
X7776428Y-17927476D02*
X7776428Y-17727476D01*
X7862143Y-17927476D02*
X7862143Y-17822714D01*
X7852619Y-17803667D01*
X7833571Y-17794143D01*
X7805000Y-17794143D01*
X7785952Y-17803667D01*
X7776428Y-17813190D01*
X7985952Y-17927476D02*
X7966905Y-17917952D01*
X7957381Y-17908429D01*
X7947857Y-17889381D01*
X7947857Y-17832238D01*
X7957381Y-17813190D01*
X7966905Y-17803667D01*
X7985952Y-17794143D01*
X8014524Y-17794143D01*
X8033571Y-17803667D01*
X8043095Y-17813190D01*
X8052619Y-17832238D01*
X8052619Y-17889381D01*
X8043095Y-17908429D01*
X8033571Y-17917952D01*
X8014524Y-17927476D01*
X7985952Y-17927476D01*
X8166905Y-17927476D02*
X8147857Y-17917952D01*
X8138333Y-17898905D01*
X8138333Y-17727476D01*
X8319286Y-17917952D02*
X8300238Y-17927476D01*
X8262143Y-17927476D01*
X8243095Y-17917952D01*
X8233571Y-17898905D01*
X8233571Y-17822714D01*
X8243095Y-17803667D01*
X8262143Y-17794143D01*
X8300238Y-17794143D01*
X8319286Y-17803667D01*
X8328809Y-17822714D01*
X8328809Y-17841762D01*
X8233571Y-17860810D01*
X8405000Y-17917952D02*
X8424048Y-17927476D01*
X8462143Y-17927476D01*
X8481190Y-17917952D01*
X8490714Y-17898905D01*
X8490714Y-17889381D01*
X8481190Y-17870333D01*
X8462143Y-17860810D01*
X8433571Y-17860810D01*
X8414524Y-17851286D01*
X8405000Y-17832238D01*
X8405000Y-17822714D01*
X8414524Y-17803667D01*
X8433571Y-17794143D01*
X8462143Y-17794143D01*
X8481190Y-17803667D01*
X8557381Y-18003667D02*
X8566905Y-17994143D01*
X8585952Y-17965571D01*
X8595476Y-17946524D01*
X8605000Y-17917952D01*
X8614524Y-17870333D01*
X8614524Y-17832238D01*
X8605000Y-17784619D01*
X8595476Y-17756048D01*
X8585952Y-17737000D01*
X8566905Y-17708429D01*
X8557381Y-17698905D01*
D16*
X3540000Y-18156000D02*
X3595000Y-18101000D01*
X3540000Y-18046000D01*
X3485000Y-18101000D01*
X3540000Y-18156000D01*
D11*
X3957381Y-18191476D02*
X3843095Y-18191476D01*
X3900238Y-18191476D02*
X3900238Y-17991476D01*
X3881190Y-18020048D01*
X3862143Y-18039095D01*
X3843095Y-18048619D01*
X4043095Y-18172429D02*
X4052619Y-18181952D01*
X4043095Y-18191476D01*
X4033571Y-18181952D01*
X4043095Y-18172429D01*
X4043095Y-18191476D01*
X4243095Y-18191476D02*
X4128809Y-18191476D01*
X4185952Y-18191476D02*
X4185952Y-17991476D01*
X4166905Y-18020048D01*
X4147857Y-18039095D01*
X4128809Y-18048619D01*
X4366905Y-17991476D02*
X4385952Y-17991476D01*
X4405000Y-18001000D01*
X4414524Y-18010524D01*
X4424048Y-18029571D01*
X4433571Y-18067667D01*
X4433571Y-18115286D01*
X4424048Y-18153381D01*
X4414524Y-18172429D01*
X4405000Y-18181952D01*
X4385952Y-18191476D01*
X4366905Y-18191476D01*
X4347857Y-18181952D01*
X4338333Y-18172429D01*
X4328810Y-18153381D01*
X4319286Y-18115286D01*
X4319286Y-18067667D01*
X4328810Y-18029571D01*
X4338333Y-18010524D01*
X4347857Y-18001000D01*
X4366905Y-17991476D01*
X4557381Y-17991476D02*
X4576429Y-17991476D01*
X4595476Y-18001000D01*
X4605000Y-18010524D01*
X4614524Y-18029571D01*
X4624048Y-18067667D01*
X4624048Y-18115286D01*
X4614524Y-18153381D01*
X4605000Y-18172429D01*
X4595476Y-18181952D01*
X4576429Y-18191476D01*
X4557381Y-18191476D01*
X4538333Y-18181952D01*
X4528810Y-18172429D01*
X4519286Y-18153381D01*
X4509762Y-18115286D01*
X4509762Y-18067667D01*
X4519286Y-18029571D01*
X4528810Y-18010524D01*
X4538333Y-18001000D01*
X4557381Y-17991476D01*
X4709762Y-18191476D02*
X4709762Y-18058143D01*
X4709762Y-18077190D02*
X4719286Y-18067667D01*
X4738333Y-18058143D01*
X4766905Y-18058143D01*
X4785952Y-18067667D01*
X4795476Y-18086714D01*
X4795476Y-18191476D01*
X4795476Y-18086714D02*
X4805000Y-18067667D01*
X4824048Y-18058143D01*
X4852619Y-18058143D01*
X4871667Y-18067667D01*
X4881190Y-18086714D01*
X4881190Y-18191476D01*
X4976429Y-18191476D02*
X4976429Y-18058143D01*
X4976429Y-18077190D02*
X4985952Y-18067667D01*
X5005000Y-18058143D01*
X5033571Y-18058143D01*
X5052619Y-18067667D01*
X5062143Y-18086714D01*
X5062143Y-18191476D01*
X5062143Y-18086714D02*
X5071667Y-18067667D01*
X5090714Y-18058143D01*
X5119286Y-18058143D01*
X5138333Y-18067667D01*
X5147857Y-18086714D01*
X5147857Y-18191476D01*
X5538333Y-17981952D02*
X5366905Y-18239095D01*
X5795476Y-17991476D02*
X5814524Y-17991476D01*
X5833571Y-18001000D01*
X5843095Y-18010524D01*
X5852619Y-18029571D01*
X5862143Y-18067667D01*
X5862143Y-18115286D01*
X5852619Y-18153381D01*
X5843095Y-18172429D01*
X5833571Y-18181952D01*
X5814524Y-18191476D01*
X5795476Y-18191476D01*
X5776428Y-18181952D01*
X5766905Y-18172429D01*
X5757381Y-18153381D01*
X5747857Y-18115286D01*
X5747857Y-18067667D01*
X5757381Y-18029571D01*
X5766905Y-18010524D01*
X5776428Y-18001000D01*
X5795476Y-17991476D01*
X5947857Y-18172429D02*
X5957381Y-18181952D01*
X5947857Y-18191476D01*
X5938333Y-18181952D01*
X5947857Y-18172429D01*
X5947857Y-18191476D01*
X6081190Y-17991476D02*
X6100238Y-17991476D01*
X6119286Y-18001000D01*
X6128809Y-18010524D01*
X6138333Y-18029571D01*
X6147857Y-18067667D01*
X6147857Y-18115286D01*
X6138333Y-18153381D01*
X6128809Y-18172429D01*
X6119286Y-18181952D01*
X6100238Y-18191476D01*
X6081190Y-18191476D01*
X6062143Y-18181952D01*
X6052619Y-18172429D01*
X6043095Y-18153381D01*
X6033571Y-18115286D01*
X6033571Y-18067667D01*
X6043095Y-18029571D01*
X6052619Y-18010524D01*
X6062143Y-18001000D01*
X6081190Y-17991476D01*
X6319286Y-18058143D02*
X6319286Y-18191476D01*
X6271667Y-17981952D02*
X6224048Y-18124810D01*
X6347857Y-18124810D01*
X6405000Y-17991476D02*
X6528809Y-17991476D01*
X6462143Y-18067667D01*
X6490714Y-18067667D01*
X6509762Y-18077190D01*
X6519286Y-18086714D01*
X6528809Y-18105762D01*
X6528809Y-18153381D01*
X6519286Y-18172429D01*
X6509762Y-18181952D01*
X6490714Y-18191476D01*
X6433571Y-18191476D01*
X6414524Y-18181952D01*
X6405000Y-18172429D01*
X6595476Y-17991476D02*
X6719286Y-17991476D01*
X6652619Y-18067667D01*
X6681190Y-18067667D01*
X6700238Y-18077190D01*
X6709762Y-18086714D01*
X6719286Y-18105762D01*
X6719286Y-18153381D01*
X6709762Y-18172429D01*
X6700238Y-18181952D01*
X6681190Y-18191476D01*
X6624048Y-18191476D01*
X6605000Y-18181952D01*
X6595476Y-18172429D01*
X6795476Y-17991476D02*
X6795476Y-18029571D01*
X6871667Y-17991476D02*
X6871667Y-18029571D01*
X7166905Y-18267667D02*
X7157381Y-18258143D01*
X7138333Y-18229571D01*
X7128809Y-18210524D01*
X7119286Y-18181952D01*
X7109762Y-18134333D01*
X7109762Y-18096238D01*
X7119286Y-18048619D01*
X7128809Y-18020048D01*
X7138333Y-18001000D01*
X7157381Y-17972429D01*
X7166905Y-17962905D01*
X7224048Y-17991476D02*
X7347857Y-17991476D01*
X7281190Y-18067667D01*
X7309762Y-18067667D01*
X7328809Y-18077190D01*
X7338333Y-18086714D01*
X7347857Y-18105762D01*
X7347857Y-18153381D01*
X7338333Y-18172429D01*
X7328809Y-18181952D01*
X7309762Y-18191476D01*
X7252619Y-18191476D01*
X7233571Y-18181952D01*
X7224048Y-18172429D01*
X7585952Y-18191476D02*
X7585952Y-17991476D01*
X7671667Y-18191476D02*
X7671667Y-18086714D01*
X7662143Y-18067667D01*
X7643095Y-18058143D01*
X7614524Y-18058143D01*
X7595476Y-18067667D01*
X7585952Y-18077190D01*
X7795476Y-18191476D02*
X7776428Y-18181952D01*
X7766905Y-18172429D01*
X7757381Y-18153381D01*
X7757381Y-18096238D01*
X7766905Y-18077190D01*
X7776428Y-18067667D01*
X7795476Y-18058143D01*
X7824048Y-18058143D01*
X7843095Y-18067667D01*
X7852619Y-18077190D01*
X7862143Y-18096238D01*
X7862143Y-18153381D01*
X7852619Y-18172429D01*
X7843095Y-18181952D01*
X7824048Y-18191476D01*
X7795476Y-18191476D01*
X7976428Y-18191476D02*
X7957381Y-18181952D01*
X7947857Y-18162905D01*
X7947857Y-17991476D01*
X8128809Y-18181952D02*
X8109762Y-18191476D01*
X8071667Y-18191476D01*
X8052619Y-18181952D01*
X8043095Y-18162905D01*
X8043095Y-18086714D01*
X8052619Y-18067667D01*
X8071667Y-18058143D01*
X8109762Y-18058143D01*
X8128809Y-18067667D01*
X8138333Y-18086714D01*
X8138333Y-18105762D01*
X8043095Y-18124810D01*
X8214524Y-18181952D02*
X8233571Y-18191476D01*
X8271667Y-18191476D01*
X8290714Y-18181952D01*
X8300238Y-18162905D01*
X8300238Y-18153381D01*
X8290714Y-18134333D01*
X8271667Y-18124810D01*
X8243095Y-18124810D01*
X8224048Y-18115286D01*
X8214524Y-18096238D01*
X8214524Y-18086714D01*
X8224048Y-18067667D01*
X8243095Y-18058143D01*
X8271667Y-18058143D01*
X8290714Y-18067667D01*
X8366905Y-18267667D02*
X8376428Y-18258143D01*
X8395476Y-18229571D01*
X8405000Y-18210524D01*
X8414524Y-18181952D01*
X8424048Y-18134333D01*
X8424048Y-18096238D01*
X8414524Y-18048619D01*
X8405000Y-18020048D01*
X8395476Y-18001000D01*
X8376428Y-17972429D01*
X8366905Y-17962905D01*
D17*
X3476000Y-18305500D02*
X3595000Y-18424500D01*
X3595000Y-18305500D02*
X3476000Y-18424500D01*
X3595000Y-18365000D02*
G75*
G03*
X3595000Y-18365000I-59500J0D01*
G01*
D11*
X3957381Y-18455476D02*
X3843095Y-18455476D01*
X3900238Y-18455476D02*
X3900238Y-18255476D01*
X3881190Y-18284048D01*
X3862143Y-18303095D01*
X3843095Y-18312619D01*
X4043095Y-18436429D02*
X4052619Y-18445952D01*
X4043095Y-18455476D01*
X4033571Y-18445952D01*
X4043095Y-18436429D01*
X4043095Y-18455476D01*
X4243095Y-18455476D02*
X4128809Y-18455476D01*
X4185952Y-18455476D02*
X4185952Y-18255476D01*
X4166905Y-18284048D01*
X4147857Y-18303095D01*
X4128809Y-18312619D01*
X4338333Y-18455476D02*
X4376429Y-18455476D01*
X4395476Y-18445952D01*
X4405000Y-18436429D01*
X4424048Y-18407857D01*
X4433571Y-18369762D01*
X4433571Y-18293571D01*
X4424048Y-18274524D01*
X4414524Y-18265000D01*
X4395476Y-18255476D01*
X4357381Y-18255476D01*
X4338333Y-18265000D01*
X4328810Y-18274524D01*
X4319286Y-18293571D01*
X4319286Y-18341190D01*
X4328810Y-18360238D01*
X4338333Y-18369762D01*
X4357381Y-18379286D01*
X4395476Y-18379286D01*
X4414524Y-18369762D01*
X4424048Y-18360238D01*
X4433571Y-18341190D01*
X4557381Y-18255476D02*
X4576429Y-18255476D01*
X4595476Y-18265000D01*
X4605000Y-18274524D01*
X4614524Y-18293571D01*
X4624048Y-18331667D01*
X4624048Y-18379286D01*
X4614524Y-18417381D01*
X4605000Y-18436429D01*
X4595476Y-18445952D01*
X4576429Y-18455476D01*
X4557381Y-18455476D01*
X4538333Y-18445952D01*
X4528810Y-18436429D01*
X4519286Y-18417381D01*
X4509762Y-18379286D01*
X4509762Y-18331667D01*
X4519286Y-18293571D01*
X4528810Y-18274524D01*
X4538333Y-18265000D01*
X4557381Y-18255476D01*
X4709762Y-18455476D02*
X4709762Y-18322143D01*
X4709762Y-18341190D02*
X4719286Y-18331667D01*
X4738333Y-18322143D01*
X4766905Y-18322143D01*
X4785952Y-18331667D01*
X4795476Y-18350714D01*
X4795476Y-18455476D01*
X4795476Y-18350714D02*
X4805000Y-18331667D01*
X4824048Y-18322143D01*
X4852619Y-18322143D01*
X4871667Y-18331667D01*
X4881190Y-18350714D01*
X4881190Y-18455476D01*
X4976429Y-18455476D02*
X4976429Y-18322143D01*
X4976429Y-18341190D02*
X4985952Y-18331667D01*
X5005000Y-18322143D01*
X5033571Y-18322143D01*
X5052619Y-18331667D01*
X5062143Y-18350714D01*
X5062143Y-18455476D01*
X5062143Y-18350714D02*
X5071667Y-18331667D01*
X5090714Y-18322143D01*
X5119286Y-18322143D01*
X5138333Y-18331667D01*
X5147857Y-18350714D01*
X5147857Y-18455476D01*
X5538333Y-18245952D02*
X5366905Y-18503095D01*
X5795476Y-18255476D02*
X5814524Y-18255476D01*
X5833571Y-18265000D01*
X5843095Y-18274524D01*
X5852619Y-18293571D01*
X5862143Y-18331667D01*
X5862143Y-18379286D01*
X5852619Y-18417381D01*
X5843095Y-18436429D01*
X5833571Y-18445952D01*
X5814524Y-18455476D01*
X5795476Y-18455476D01*
X5776428Y-18445952D01*
X5766905Y-18436429D01*
X5757381Y-18417381D01*
X5747857Y-18379286D01*
X5747857Y-18331667D01*
X5757381Y-18293571D01*
X5766905Y-18274524D01*
X5776428Y-18265000D01*
X5795476Y-18255476D01*
X5947857Y-18436429D02*
X5957381Y-18445952D01*
X5947857Y-18455476D01*
X5938333Y-18445952D01*
X5947857Y-18436429D01*
X5947857Y-18455476D01*
X6081190Y-18255476D02*
X6100238Y-18255476D01*
X6119286Y-18265000D01*
X6128809Y-18274524D01*
X6138333Y-18293571D01*
X6147857Y-18331667D01*
X6147857Y-18379286D01*
X6138333Y-18417381D01*
X6128809Y-18436429D01*
X6119286Y-18445952D01*
X6100238Y-18455476D01*
X6081190Y-18455476D01*
X6062143Y-18445952D01*
X6052619Y-18436429D01*
X6043095Y-18417381D01*
X6033571Y-18379286D01*
X6033571Y-18331667D01*
X6043095Y-18293571D01*
X6052619Y-18274524D01*
X6062143Y-18265000D01*
X6081190Y-18255476D01*
X6319286Y-18322143D02*
X6319286Y-18455476D01*
X6271667Y-18245952D02*
X6224048Y-18388810D01*
X6347857Y-18388810D01*
X6509762Y-18255476D02*
X6471667Y-18255476D01*
X6452619Y-18265000D01*
X6443095Y-18274524D01*
X6424048Y-18303095D01*
X6414524Y-18341190D01*
X6414524Y-18417381D01*
X6424048Y-18436429D01*
X6433571Y-18445952D01*
X6452619Y-18455476D01*
X6490714Y-18455476D01*
X6509762Y-18445952D01*
X6519286Y-18436429D01*
X6528809Y-18417381D01*
X6528809Y-18369762D01*
X6519286Y-18350714D01*
X6509762Y-18341190D01*
X6490714Y-18331667D01*
X6452619Y-18331667D01*
X6433571Y-18341190D01*
X6424048Y-18350714D01*
X6414524Y-18369762D01*
X6624048Y-18455476D02*
X6662143Y-18455476D01*
X6681190Y-18445952D01*
X6690714Y-18436429D01*
X6709762Y-18407857D01*
X6719286Y-18369762D01*
X6719286Y-18293571D01*
X6709762Y-18274524D01*
X6700238Y-18265000D01*
X6681190Y-18255476D01*
X6643095Y-18255476D01*
X6624048Y-18265000D01*
X6614524Y-18274524D01*
X6605000Y-18293571D01*
X6605000Y-18341190D01*
X6614524Y-18360238D01*
X6624048Y-18369762D01*
X6643095Y-18379286D01*
X6681190Y-18379286D01*
X6700238Y-18369762D01*
X6709762Y-18360238D01*
X6719286Y-18341190D01*
X6795476Y-18255476D02*
X6795476Y-18293571D01*
X6871667Y-18255476D02*
X6871667Y-18293571D01*
X7166905Y-18531667D02*
X7157381Y-18522143D01*
X7138333Y-18493571D01*
X7128809Y-18474524D01*
X7119286Y-18445952D01*
X7109762Y-18398333D01*
X7109762Y-18360238D01*
X7119286Y-18312619D01*
X7128809Y-18284048D01*
X7138333Y-18265000D01*
X7157381Y-18236429D01*
X7166905Y-18226905D01*
X7233571Y-18274524D02*
X7243095Y-18265000D01*
X7262143Y-18255476D01*
X7309762Y-18255476D01*
X7328809Y-18265000D01*
X7338333Y-18274524D01*
X7347857Y-18293571D01*
X7347857Y-18312619D01*
X7338333Y-18341190D01*
X7224048Y-18455476D01*
X7347857Y-18455476D01*
X7585952Y-18455476D02*
X7585952Y-18255476D01*
X7671667Y-18455476D02*
X7671667Y-18350714D01*
X7662143Y-18331667D01*
X7643095Y-18322143D01*
X7614524Y-18322143D01*
X7595476Y-18331667D01*
X7585952Y-18341190D01*
X7795476Y-18455476D02*
X7776428Y-18445952D01*
X7766905Y-18436429D01*
X7757381Y-18417381D01*
X7757381Y-18360238D01*
X7766905Y-18341190D01*
X7776428Y-18331667D01*
X7795476Y-18322143D01*
X7824048Y-18322143D01*
X7843095Y-18331667D01*
X7852619Y-18341190D01*
X7862143Y-18360238D01*
X7862143Y-18417381D01*
X7852619Y-18436429D01*
X7843095Y-18445952D01*
X7824048Y-18455476D01*
X7795476Y-18455476D01*
X7976428Y-18455476D02*
X7957381Y-18445952D01*
X7947857Y-18426905D01*
X7947857Y-18255476D01*
X8128809Y-18445952D02*
X8109762Y-18455476D01*
X8071667Y-18455476D01*
X8052619Y-18445952D01*
X8043095Y-18426905D01*
X8043095Y-18350714D01*
X8052619Y-18331667D01*
X8071667Y-18322143D01*
X8109762Y-18322143D01*
X8128809Y-18331667D01*
X8138333Y-18350714D01*
X8138333Y-18369762D01*
X8043095Y-18388810D01*
X8214524Y-18445952D02*
X8233571Y-18455476D01*
X8271667Y-18455476D01*
X8290714Y-18445952D01*
X8300238Y-18426905D01*
X8300238Y-18417381D01*
X8290714Y-18398333D01*
X8271667Y-18388810D01*
X8243095Y-18388810D01*
X8224048Y-18379286D01*
X8214524Y-18360238D01*
X8214524Y-18350714D01*
X8224048Y-18331667D01*
X8243095Y-18322143D01*
X8271667Y-18322143D01*
X8290714Y-18331667D01*
X8366905Y-18531667D02*
X8376428Y-18522143D01*
X8395476Y-18493571D01*
X8405000Y-18474524D01*
X8414524Y-18445952D01*
X8424048Y-18398333D01*
X8424048Y-18360238D01*
X8414524Y-18312619D01*
X8405000Y-18284048D01*
X8395476Y-18265000D01*
X8376428Y-18236429D01*
X8366905Y-18226905D01*
D18*
X3455000Y-18559000D02*
X3595000Y-18699000D01*
X3595000Y-18559000D02*
X3455000Y-18699000D01*
X3525000Y-18559000D02*
X3525000Y-18699000D01*
X3455000Y-18629000D02*
X3595000Y-18629000D01*
D11*
X3957381Y-18719476D02*
X3843095Y-18719476D01*
X3900238Y-18719476D02*
X3900238Y-18519476D01*
X3881190Y-18548048D01*
X3862143Y-18567095D01*
X3843095Y-18576619D01*
X4043095Y-18700429D02*
X4052619Y-18709952D01*
X4043095Y-18719476D01*
X4033571Y-18709952D01*
X4043095Y-18700429D01*
X4043095Y-18719476D01*
X4224048Y-18586143D02*
X4224048Y-18719476D01*
X4176428Y-18509952D02*
X4128809Y-18652810D01*
X4252619Y-18652810D01*
X4366905Y-18519476D02*
X4385952Y-18519476D01*
X4405000Y-18529000D01*
X4414524Y-18538524D01*
X4424048Y-18557571D01*
X4433571Y-18595667D01*
X4433571Y-18643286D01*
X4424048Y-18681381D01*
X4414524Y-18700429D01*
X4405000Y-18709952D01*
X4385952Y-18719476D01*
X4366905Y-18719476D01*
X4347857Y-18709952D01*
X4338333Y-18700429D01*
X4328810Y-18681381D01*
X4319286Y-18643286D01*
X4319286Y-18595667D01*
X4328810Y-18557571D01*
X4338333Y-18538524D01*
X4347857Y-18529000D01*
X4366905Y-18519476D01*
X4557381Y-18519476D02*
X4576429Y-18519476D01*
X4595476Y-18529000D01*
X4605000Y-18538524D01*
X4614524Y-18557571D01*
X4624048Y-18595667D01*
X4624048Y-18643286D01*
X4614524Y-18681381D01*
X4605000Y-18700429D01*
X4595476Y-18709952D01*
X4576429Y-18719476D01*
X4557381Y-18719476D01*
X4538333Y-18709952D01*
X4528810Y-18700429D01*
X4519286Y-18681381D01*
X4509762Y-18643286D01*
X4509762Y-18595667D01*
X4519286Y-18557571D01*
X4528810Y-18538524D01*
X4538333Y-18529000D01*
X4557381Y-18519476D01*
X4709762Y-18719476D02*
X4709762Y-18586143D01*
X4709762Y-18605190D02*
X4719286Y-18595667D01*
X4738333Y-18586143D01*
X4766905Y-18586143D01*
X4785952Y-18595667D01*
X4795476Y-18614714D01*
X4795476Y-18719476D01*
X4795476Y-18614714D02*
X4805000Y-18595667D01*
X4824048Y-18586143D01*
X4852619Y-18586143D01*
X4871667Y-18595667D01*
X4881190Y-18614714D01*
X4881190Y-18719476D01*
X4976429Y-18719476D02*
X4976429Y-18586143D01*
X4976429Y-18605190D02*
X4985952Y-18595667D01*
X5005000Y-18586143D01*
X5033571Y-18586143D01*
X5052619Y-18595667D01*
X5062143Y-18614714D01*
X5062143Y-18719476D01*
X5062143Y-18614714D02*
X5071667Y-18595667D01*
X5090714Y-18586143D01*
X5119286Y-18586143D01*
X5138333Y-18595667D01*
X5147857Y-18614714D01*
X5147857Y-18719476D01*
X5538333Y-18509952D02*
X5366905Y-18767095D01*
X5795476Y-18519476D02*
X5814524Y-18519476D01*
X5833571Y-18529000D01*
X5843095Y-18538524D01*
X5852619Y-18557571D01*
X5862143Y-18595667D01*
X5862143Y-18643286D01*
X5852619Y-18681381D01*
X5843095Y-18700429D01*
X5833571Y-18709952D01*
X5814524Y-18719476D01*
X5795476Y-18719476D01*
X5776428Y-18709952D01*
X5766905Y-18700429D01*
X5757381Y-18681381D01*
X5747857Y-18643286D01*
X5747857Y-18595667D01*
X5757381Y-18557571D01*
X5766905Y-18538524D01*
X5776428Y-18529000D01*
X5795476Y-18519476D01*
X5947857Y-18700429D02*
X5957381Y-18709952D01*
X5947857Y-18719476D01*
X5938333Y-18709952D01*
X5947857Y-18700429D01*
X5947857Y-18719476D01*
X6081190Y-18519476D02*
X6100238Y-18519476D01*
X6119286Y-18529000D01*
X6128809Y-18538524D01*
X6138333Y-18557571D01*
X6147857Y-18595667D01*
X6147857Y-18643286D01*
X6138333Y-18681381D01*
X6128809Y-18700429D01*
X6119286Y-18709952D01*
X6100238Y-18719476D01*
X6081190Y-18719476D01*
X6062143Y-18709952D01*
X6052619Y-18700429D01*
X6043095Y-18681381D01*
X6033571Y-18643286D01*
X6033571Y-18595667D01*
X6043095Y-18557571D01*
X6052619Y-18538524D01*
X6062143Y-18529000D01*
X6081190Y-18519476D01*
X6328809Y-18519476D02*
X6233571Y-18519476D01*
X6224048Y-18614714D01*
X6233571Y-18605190D01*
X6252619Y-18595667D01*
X6300238Y-18595667D01*
X6319286Y-18605190D01*
X6328809Y-18614714D01*
X6338333Y-18633762D01*
X6338333Y-18681381D01*
X6328809Y-18700429D01*
X6319286Y-18709952D01*
X6300238Y-18719476D01*
X6252619Y-18719476D01*
X6233571Y-18709952D01*
X6224048Y-18700429D01*
X6519286Y-18519476D02*
X6424048Y-18519476D01*
X6414524Y-18614714D01*
X6424048Y-18605190D01*
X6443095Y-18595667D01*
X6490714Y-18595667D01*
X6509762Y-18605190D01*
X6519286Y-18614714D01*
X6528809Y-18633762D01*
X6528809Y-18681381D01*
X6519286Y-18700429D01*
X6509762Y-18709952D01*
X6490714Y-18719476D01*
X6443095Y-18719476D01*
X6424048Y-18709952D01*
X6414524Y-18700429D01*
X6719286Y-18719476D02*
X6605000Y-18719476D01*
X6662143Y-18719476D02*
X6662143Y-18519476D01*
X6643095Y-18548048D01*
X6624048Y-18567095D01*
X6605000Y-18576619D01*
X6795476Y-18519476D02*
X6795476Y-18557571D01*
X6871667Y-18519476D02*
X6871667Y-18557571D01*
X7166905Y-18795667D02*
X7157381Y-18786143D01*
X7138333Y-18757571D01*
X7128809Y-18738524D01*
X7119286Y-18709952D01*
X7109762Y-18662333D01*
X7109762Y-18624238D01*
X7119286Y-18576619D01*
X7128809Y-18548048D01*
X7138333Y-18529000D01*
X7157381Y-18500429D01*
X7166905Y-18490905D01*
X7328809Y-18586143D02*
X7328809Y-18719476D01*
X7281190Y-18509952D02*
X7233571Y-18652810D01*
X7357381Y-18652810D01*
X7585952Y-18719476D02*
X7585952Y-18519476D01*
X7671667Y-18719476D02*
X7671667Y-18614714D01*
X7662143Y-18595667D01*
X7643095Y-18586143D01*
X7614524Y-18586143D01*
X7595476Y-18595667D01*
X7585952Y-18605190D01*
X7795476Y-18719476D02*
X7776428Y-18709952D01*
X7766905Y-18700429D01*
X7757381Y-18681381D01*
X7757381Y-18624238D01*
X7766905Y-18605190D01*
X7776428Y-18595667D01*
X7795476Y-18586143D01*
X7824048Y-18586143D01*
X7843095Y-18595667D01*
X7852619Y-18605190D01*
X7862143Y-18624238D01*
X7862143Y-18681381D01*
X7852619Y-18700429D01*
X7843095Y-18709952D01*
X7824048Y-18719476D01*
X7795476Y-18719476D01*
X7976428Y-18719476D02*
X7957381Y-18709952D01*
X7947857Y-18690905D01*
X7947857Y-18519476D01*
X8128809Y-18709952D02*
X8109762Y-18719476D01*
X8071667Y-18719476D01*
X8052619Y-18709952D01*
X8043095Y-18690905D01*
X8043095Y-18614714D01*
X8052619Y-18595667D01*
X8071667Y-18586143D01*
X8109762Y-18586143D01*
X8128809Y-18595667D01*
X8138333Y-18614714D01*
X8138333Y-18633762D01*
X8043095Y-18652810D01*
X8214524Y-18709952D02*
X8233571Y-18719476D01*
X8271667Y-18719476D01*
X8290714Y-18709952D01*
X8300238Y-18690905D01*
X8300238Y-18681381D01*
X8290714Y-18662333D01*
X8271667Y-18652810D01*
X8243095Y-18652810D01*
X8224048Y-18643286D01*
X8214524Y-18624238D01*
X8214524Y-18614714D01*
X8224048Y-18595667D01*
X8243095Y-18586143D01*
X8271667Y-18586143D01*
X8290714Y-18595667D01*
X8366905Y-18795667D02*
X8376428Y-18786143D01*
X8395476Y-18757571D01*
X8405000Y-18738524D01*
X8414524Y-18709952D01*
X8424048Y-18662333D01*
X8424048Y-18624238D01*
X8414524Y-18576619D01*
X8405000Y-18548048D01*
X8395476Y-18529000D01*
X8376428Y-18500429D01*
X8366905Y-18490905D01*
D19*
X3425000Y-18808000D02*
X3595000Y-18978000D01*
X3595000Y-18808000D02*
X3425000Y-18978000D01*
X3570105Y-18953105D02*
X3570105Y-18832895D01*
X3449895Y-18832895D01*
X3449895Y-18953105D01*
X3570105Y-18953105D01*
D11*
X3957381Y-18983476D02*
X3843095Y-18983476D01*
X3900238Y-18983476D02*
X3900238Y-18783476D01*
X3881190Y-18812048D01*
X3862143Y-18831095D01*
X3843095Y-18840619D01*
X4043095Y-18964429D02*
X4052619Y-18973952D01*
X4043095Y-18983476D01*
X4033571Y-18973952D01*
X4043095Y-18964429D01*
X4043095Y-18983476D01*
X4119286Y-18783476D02*
X4252619Y-18783476D01*
X4166905Y-18983476D01*
X4366905Y-18783476D02*
X4385952Y-18783476D01*
X4405000Y-18793000D01*
X4414524Y-18802524D01*
X4424048Y-18821571D01*
X4433571Y-18859667D01*
X4433571Y-18907286D01*
X4424048Y-18945381D01*
X4414524Y-18964429D01*
X4405000Y-18973952D01*
X4385952Y-18983476D01*
X4366905Y-18983476D01*
X4347857Y-18973952D01*
X4338333Y-18964429D01*
X4328810Y-18945381D01*
X4319286Y-18907286D01*
X4319286Y-18859667D01*
X4328810Y-18821571D01*
X4338333Y-18802524D01*
X4347857Y-18793000D01*
X4366905Y-18783476D01*
X4557381Y-18783476D02*
X4576429Y-18783476D01*
X4595476Y-18793000D01*
X4605000Y-18802524D01*
X4614524Y-18821571D01*
X4624048Y-18859667D01*
X4624048Y-18907286D01*
X4614524Y-18945381D01*
X4605000Y-18964429D01*
X4595476Y-18973952D01*
X4576429Y-18983476D01*
X4557381Y-18983476D01*
X4538333Y-18973952D01*
X4528810Y-18964429D01*
X4519286Y-18945381D01*
X4509762Y-18907286D01*
X4509762Y-18859667D01*
X4519286Y-18821571D01*
X4528810Y-18802524D01*
X4538333Y-18793000D01*
X4557381Y-18783476D01*
X4709762Y-18983476D02*
X4709762Y-18850143D01*
X4709762Y-18869190D02*
X4719286Y-18859667D01*
X4738333Y-18850143D01*
X4766905Y-18850143D01*
X4785952Y-18859667D01*
X4795476Y-18878714D01*
X4795476Y-18983476D01*
X4795476Y-18878714D02*
X4805000Y-18859667D01*
X4824048Y-18850143D01*
X4852619Y-18850143D01*
X4871667Y-18859667D01*
X4881190Y-18878714D01*
X4881190Y-18983476D01*
X4976429Y-18983476D02*
X4976429Y-18850143D01*
X4976429Y-18869190D02*
X4985952Y-18859667D01*
X5005000Y-18850143D01*
X5033571Y-18850143D01*
X5052619Y-18859667D01*
X5062143Y-18878714D01*
X5062143Y-18983476D01*
X5062143Y-18878714D02*
X5071667Y-18859667D01*
X5090714Y-18850143D01*
X5119286Y-18850143D01*
X5138333Y-18859667D01*
X5147857Y-18878714D01*
X5147857Y-18983476D01*
X5538333Y-18773952D02*
X5366905Y-19031095D01*
X5795476Y-18783476D02*
X5814524Y-18783476D01*
X5833571Y-18793000D01*
X5843095Y-18802524D01*
X5852619Y-18821571D01*
X5862143Y-18859667D01*
X5862143Y-18907286D01*
X5852619Y-18945381D01*
X5843095Y-18964429D01*
X5833571Y-18973952D01*
X5814524Y-18983476D01*
X5795476Y-18983476D01*
X5776428Y-18973952D01*
X5766905Y-18964429D01*
X5757381Y-18945381D01*
X5747857Y-18907286D01*
X5747857Y-18859667D01*
X5757381Y-18821571D01*
X5766905Y-18802524D01*
X5776428Y-18793000D01*
X5795476Y-18783476D01*
X5947857Y-18964429D02*
X5957381Y-18973952D01*
X5947857Y-18983476D01*
X5938333Y-18973952D01*
X5947857Y-18964429D01*
X5947857Y-18983476D01*
X6081190Y-18783476D02*
X6100238Y-18783476D01*
X6119286Y-18793000D01*
X6128809Y-18802524D01*
X6138333Y-18821571D01*
X6147857Y-18859667D01*
X6147857Y-18907286D01*
X6138333Y-18945381D01*
X6128809Y-18964429D01*
X6119286Y-18973952D01*
X6100238Y-18983476D01*
X6081190Y-18983476D01*
X6062143Y-18973952D01*
X6052619Y-18964429D01*
X6043095Y-18945381D01*
X6033571Y-18907286D01*
X6033571Y-18859667D01*
X6043095Y-18821571D01*
X6052619Y-18802524D01*
X6062143Y-18793000D01*
X6081190Y-18783476D01*
X6319286Y-18783476D02*
X6281190Y-18783476D01*
X6262143Y-18793000D01*
X6252619Y-18802524D01*
X6233571Y-18831095D01*
X6224048Y-18869190D01*
X6224048Y-18945381D01*
X6233571Y-18964429D01*
X6243095Y-18973952D01*
X6262143Y-18983476D01*
X6300238Y-18983476D01*
X6319286Y-18973952D01*
X6328809Y-18964429D01*
X6338333Y-18945381D01*
X6338333Y-18897762D01*
X6328809Y-18878714D01*
X6319286Y-18869190D01*
X6300238Y-18859667D01*
X6262143Y-18859667D01*
X6243095Y-18869190D01*
X6233571Y-18878714D01*
X6224048Y-18897762D01*
X6509762Y-18783476D02*
X6471667Y-18783476D01*
X6452619Y-18793000D01*
X6443095Y-18802524D01*
X6424048Y-18831095D01*
X6414524Y-18869190D01*
X6414524Y-18945381D01*
X6424048Y-18964429D01*
X6433571Y-18973952D01*
X6452619Y-18983476D01*
X6490714Y-18983476D01*
X6509762Y-18973952D01*
X6519286Y-18964429D01*
X6528809Y-18945381D01*
X6528809Y-18897762D01*
X6519286Y-18878714D01*
X6509762Y-18869190D01*
X6490714Y-18859667D01*
X6452619Y-18859667D01*
X6433571Y-18869190D01*
X6424048Y-18878714D01*
X6414524Y-18897762D01*
X6624048Y-18983476D02*
X6662143Y-18983476D01*
X6681190Y-18973952D01*
X6690714Y-18964429D01*
X6709762Y-18935857D01*
X6719286Y-18897762D01*
X6719286Y-18821571D01*
X6709762Y-18802524D01*
X6700238Y-18793000D01*
X6681190Y-18783476D01*
X6643095Y-18783476D01*
X6624048Y-18793000D01*
X6614524Y-18802524D01*
X6605000Y-18821571D01*
X6605000Y-18869190D01*
X6614524Y-18888238D01*
X6624048Y-18897762D01*
X6643095Y-18907286D01*
X6681190Y-18907286D01*
X6700238Y-18897762D01*
X6709762Y-18888238D01*
X6719286Y-18869190D01*
X6795476Y-18783476D02*
X6795476Y-18821571D01*
X6871667Y-18783476D02*
X6871667Y-18821571D01*
X7166905Y-19059667D02*
X7157381Y-19050143D01*
X7138333Y-19021571D01*
X7128809Y-19002524D01*
X7119286Y-18973952D01*
X7109762Y-18926333D01*
X7109762Y-18888238D01*
X7119286Y-18840619D01*
X7128809Y-18812048D01*
X7138333Y-18793000D01*
X7157381Y-18764429D01*
X7166905Y-18754905D01*
X7233571Y-18802524D02*
X7243095Y-18793000D01*
X7262143Y-18783476D01*
X7309762Y-18783476D01*
X7328809Y-18793000D01*
X7338333Y-18802524D01*
X7347857Y-18821571D01*
X7347857Y-18840619D01*
X7338333Y-18869190D01*
X7224048Y-18983476D01*
X7347857Y-18983476D01*
X7585952Y-18983476D02*
X7585952Y-18783476D01*
X7671667Y-18983476D02*
X7671667Y-18878714D01*
X7662143Y-18859667D01*
X7643095Y-18850143D01*
X7614524Y-18850143D01*
X7595476Y-18859667D01*
X7585952Y-18869190D01*
X7795476Y-18983476D02*
X7776428Y-18973952D01*
X7766905Y-18964429D01*
X7757381Y-18945381D01*
X7757381Y-18888238D01*
X7766905Y-18869190D01*
X7776428Y-18859667D01*
X7795476Y-18850143D01*
X7824048Y-18850143D01*
X7843095Y-18859667D01*
X7852619Y-18869190D01*
X7862143Y-18888238D01*
X7862143Y-18945381D01*
X7852619Y-18964429D01*
X7843095Y-18973952D01*
X7824048Y-18983476D01*
X7795476Y-18983476D01*
X7976428Y-18983476D02*
X7957381Y-18973952D01*
X7947857Y-18954905D01*
X7947857Y-18783476D01*
X8128809Y-18973952D02*
X8109762Y-18983476D01*
X8071667Y-18983476D01*
X8052619Y-18973952D01*
X8043095Y-18954905D01*
X8043095Y-18878714D01*
X8052619Y-18859667D01*
X8071667Y-18850143D01*
X8109762Y-18850143D01*
X8128809Y-18859667D01*
X8138333Y-18878714D01*
X8138333Y-18897762D01*
X8043095Y-18916810D01*
X8214524Y-18973952D02*
X8233571Y-18983476D01*
X8271667Y-18983476D01*
X8290714Y-18973952D01*
X8300238Y-18954905D01*
X8300238Y-18945381D01*
X8290714Y-18926333D01*
X8271667Y-18916810D01*
X8243095Y-18916810D01*
X8224048Y-18907286D01*
X8214524Y-18888238D01*
X8214524Y-18878714D01*
X8224048Y-18859667D01*
X8243095Y-18850143D01*
X8271667Y-18850143D01*
X8290714Y-18859667D01*
X8366905Y-19059667D02*
X8376428Y-19050143D01*
X8395476Y-19021571D01*
X8405000Y-19002524D01*
X8414524Y-18973952D01*
X8424048Y-18926333D01*
X8424048Y-18888238D01*
X8414524Y-18840619D01*
X8405000Y-18812048D01*
X8395476Y-18793000D01*
X8376428Y-18764429D01*
X8366905Y-18754905D01*
X3395000Y-19083000D02*
X3595000Y-19283000D01*
X3595000Y-19083000D02*
X3395000Y-19283000D01*
X3495000Y-19283000D02*
X3595000Y-19183000D01*
X3495000Y-19083000D01*
X3395000Y-19183000D01*
X3495000Y-19283000D01*
X3843095Y-19092524D02*
X3852619Y-19083000D01*
X3871667Y-19073476D01*
X3919286Y-19073476D01*
X3938333Y-19083000D01*
X3947857Y-19092524D01*
X3957381Y-19111571D01*
X3957381Y-19130619D01*
X3947857Y-19159190D01*
X3833571Y-19273476D01*
X3957381Y-19273476D01*
X4043095Y-19254429D02*
X4052619Y-19263952D01*
X4043095Y-19273476D01*
X4033571Y-19263952D01*
X4043095Y-19254429D01*
X4043095Y-19273476D01*
X4176428Y-19073476D02*
X4195476Y-19073476D01*
X4214524Y-19083000D01*
X4224048Y-19092524D01*
X4233571Y-19111571D01*
X4243095Y-19149667D01*
X4243095Y-19197286D01*
X4233571Y-19235381D01*
X4224048Y-19254429D01*
X4214524Y-19263952D01*
X4195476Y-19273476D01*
X4176428Y-19273476D01*
X4157381Y-19263952D01*
X4147857Y-19254429D01*
X4138333Y-19235381D01*
X4128809Y-19197286D01*
X4128809Y-19149667D01*
X4138333Y-19111571D01*
X4147857Y-19092524D01*
X4157381Y-19083000D01*
X4176428Y-19073476D01*
X4366905Y-19073476D02*
X4385952Y-19073476D01*
X4405000Y-19083000D01*
X4414524Y-19092524D01*
X4424048Y-19111571D01*
X4433571Y-19149667D01*
X4433571Y-19197286D01*
X4424048Y-19235381D01*
X4414524Y-19254429D01*
X4405000Y-19263952D01*
X4385952Y-19273476D01*
X4366905Y-19273476D01*
X4347857Y-19263952D01*
X4338333Y-19254429D01*
X4328810Y-19235381D01*
X4319286Y-19197286D01*
X4319286Y-19149667D01*
X4328810Y-19111571D01*
X4338333Y-19092524D01*
X4347857Y-19083000D01*
X4366905Y-19073476D01*
X4557381Y-19073476D02*
X4576429Y-19073476D01*
X4595476Y-19083000D01*
X4605000Y-19092524D01*
X4614524Y-19111571D01*
X4624048Y-19149667D01*
X4624048Y-19197286D01*
X4614524Y-19235381D01*
X4605000Y-19254429D01*
X4595476Y-19263952D01*
X4576429Y-19273476D01*
X4557381Y-19273476D01*
X4538333Y-19263952D01*
X4528810Y-19254429D01*
X4519286Y-19235381D01*
X4509762Y-19197286D01*
X4509762Y-19149667D01*
X4519286Y-19111571D01*
X4528810Y-19092524D01*
X4538333Y-19083000D01*
X4557381Y-19073476D01*
X4709762Y-19273476D02*
X4709762Y-19140143D01*
X4709762Y-19159190D02*
X4719286Y-19149667D01*
X4738333Y-19140143D01*
X4766905Y-19140143D01*
X4785952Y-19149667D01*
X4795476Y-19168714D01*
X4795476Y-19273476D01*
X4795476Y-19168714D02*
X4805000Y-19149667D01*
X4824048Y-19140143D01*
X4852619Y-19140143D01*
X4871667Y-19149667D01*
X4881190Y-19168714D01*
X4881190Y-19273476D01*
X4976429Y-19273476D02*
X4976429Y-19140143D01*
X4976429Y-19159190D02*
X4985952Y-19149667D01*
X5005000Y-19140143D01*
X5033571Y-19140143D01*
X5052619Y-19149667D01*
X5062143Y-19168714D01*
X5062143Y-19273476D01*
X5062143Y-19168714D02*
X5071667Y-19149667D01*
X5090714Y-19140143D01*
X5119286Y-19140143D01*
X5138333Y-19149667D01*
X5147857Y-19168714D01*
X5147857Y-19273476D01*
X5538333Y-19063952D02*
X5366905Y-19321095D01*
X5795476Y-19073476D02*
X5814524Y-19073476D01*
X5833571Y-19083000D01*
X5843095Y-19092524D01*
X5852619Y-19111571D01*
X5862143Y-19149667D01*
X5862143Y-19197286D01*
X5852619Y-19235381D01*
X5843095Y-19254429D01*
X5833571Y-19263952D01*
X5814524Y-19273476D01*
X5795476Y-19273476D01*
X5776428Y-19263952D01*
X5766905Y-19254429D01*
X5757381Y-19235381D01*
X5747857Y-19197286D01*
X5747857Y-19149667D01*
X5757381Y-19111571D01*
X5766905Y-19092524D01*
X5776428Y-19083000D01*
X5795476Y-19073476D01*
X5947857Y-19254429D02*
X5957381Y-19263952D01*
X5947857Y-19273476D01*
X5938333Y-19263952D01*
X5947857Y-19254429D01*
X5947857Y-19273476D01*
X6081190Y-19073476D02*
X6100238Y-19073476D01*
X6119286Y-19083000D01*
X6128809Y-19092524D01*
X6138333Y-19111571D01*
X6147857Y-19149667D01*
X6147857Y-19197286D01*
X6138333Y-19235381D01*
X6128809Y-19254429D01*
X6119286Y-19263952D01*
X6100238Y-19273476D01*
X6081190Y-19273476D01*
X6062143Y-19263952D01*
X6052619Y-19254429D01*
X6043095Y-19235381D01*
X6033571Y-19197286D01*
X6033571Y-19149667D01*
X6043095Y-19111571D01*
X6052619Y-19092524D01*
X6062143Y-19083000D01*
X6081190Y-19073476D01*
X6214524Y-19073476D02*
X6347857Y-19073476D01*
X6262143Y-19273476D01*
X6452619Y-19159190D02*
X6433571Y-19149667D01*
X6424048Y-19140143D01*
X6414524Y-19121095D01*
X6414524Y-19111571D01*
X6424048Y-19092524D01*
X6433571Y-19083000D01*
X6452619Y-19073476D01*
X6490714Y-19073476D01*
X6509762Y-19083000D01*
X6519286Y-19092524D01*
X6528809Y-19111571D01*
X6528809Y-19121095D01*
X6519286Y-19140143D01*
X6509762Y-19149667D01*
X6490714Y-19159190D01*
X6452619Y-19159190D01*
X6433571Y-19168714D01*
X6424048Y-19178238D01*
X6414524Y-19197286D01*
X6414524Y-19235381D01*
X6424048Y-19254429D01*
X6433571Y-19263952D01*
X6452619Y-19273476D01*
X6490714Y-19273476D01*
X6509762Y-19263952D01*
X6519286Y-19254429D01*
X6528809Y-19235381D01*
X6528809Y-19197286D01*
X6519286Y-19178238D01*
X6509762Y-19168714D01*
X6490714Y-19159190D01*
X6595476Y-19073476D02*
X6728809Y-19073476D01*
X6643095Y-19273476D01*
X6795476Y-19073476D02*
X6795476Y-19111571D01*
X6871667Y-19073476D02*
X6871667Y-19111571D01*
X7166905Y-19349667D02*
X7157381Y-19340143D01*
X7138333Y-19311571D01*
X7128809Y-19292524D01*
X7119286Y-19263952D01*
X7109762Y-19216333D01*
X7109762Y-19178238D01*
X7119286Y-19130619D01*
X7128809Y-19102048D01*
X7138333Y-19083000D01*
X7157381Y-19054429D01*
X7166905Y-19044905D01*
X7347857Y-19273476D02*
X7233571Y-19273476D01*
X7290714Y-19273476D02*
X7290714Y-19073476D01*
X7271667Y-19102048D01*
X7252619Y-19121095D01*
X7233571Y-19130619D01*
X7585952Y-19273476D02*
X7585952Y-19073476D01*
X7671667Y-19273476D02*
X7671667Y-19168714D01*
X7662143Y-19149667D01*
X7643095Y-19140143D01*
X7614524Y-19140143D01*
X7595476Y-19149667D01*
X7585952Y-19159190D01*
X7795476Y-19273476D02*
X7776428Y-19263952D01*
X7766905Y-19254429D01*
X7757381Y-19235381D01*
X7757381Y-19178238D01*
X7766905Y-19159190D01*
X7776428Y-19149667D01*
X7795476Y-19140143D01*
X7824048Y-19140143D01*
X7843095Y-19149667D01*
X7852619Y-19159190D01*
X7862143Y-19178238D01*
X7862143Y-19235381D01*
X7852619Y-19254429D01*
X7843095Y-19263952D01*
X7824048Y-19273476D01*
X7795476Y-19273476D01*
X7976428Y-19273476D02*
X7957381Y-19263952D01*
X7947857Y-19244905D01*
X7947857Y-19073476D01*
X8128809Y-19263952D02*
X8109762Y-19273476D01*
X8071667Y-19273476D01*
X8052619Y-19263952D01*
X8043095Y-19244905D01*
X8043095Y-19168714D01*
X8052619Y-19149667D01*
X8071667Y-19140143D01*
X8109762Y-19140143D01*
X8128809Y-19149667D01*
X8138333Y-19168714D01*
X8138333Y-19187762D01*
X8043095Y-19206810D01*
X8205000Y-19349667D02*
X8214524Y-19340143D01*
X8233571Y-19311571D01*
X8243095Y-19292524D01*
X8252619Y-19263952D01*
X8262143Y-19216333D01*
X8262143Y-19178238D01*
X8252619Y-19130619D01*
X8243095Y-19102048D01*
X8233571Y-19083000D01*
X8214524Y-19054429D01*
X8205000Y-19044905D01*
X3495000Y-19403000D02*
X3495000Y-19603000D01*
X3395000Y-19503000D02*
X3595000Y-19503000D01*
X3595000Y-19503000D02*
G75*
G03*
X3595000Y-19503000I-100000J0D01*
G01*
X3833571Y-19393476D02*
X3957381Y-19393476D01*
X3890714Y-19469667D01*
X3919286Y-19469667D01*
X3938333Y-19479190D01*
X3947857Y-19488714D01*
X3957381Y-19507762D01*
X3957381Y-19555381D01*
X3947857Y-19574429D01*
X3938333Y-19583952D01*
X3919286Y-19593476D01*
X3862143Y-19593476D01*
X3843095Y-19583952D01*
X3833571Y-19574429D01*
X4043095Y-19574429D02*
X4052619Y-19583952D01*
X4043095Y-19593476D01*
X4033571Y-19583952D01*
X4043095Y-19574429D01*
X4043095Y-19593476D01*
X4176428Y-19393476D02*
X4195476Y-19393476D01*
X4214524Y-19403000D01*
X4224048Y-19412524D01*
X4233571Y-19431571D01*
X4243095Y-19469667D01*
X4243095Y-19517286D01*
X4233571Y-19555381D01*
X4224048Y-19574429D01*
X4214524Y-19583952D01*
X4195476Y-19593476D01*
X4176428Y-19593476D01*
X4157381Y-19583952D01*
X4147857Y-19574429D01*
X4138333Y-19555381D01*
X4128809Y-19517286D01*
X4128809Y-19469667D01*
X4138333Y-19431571D01*
X4147857Y-19412524D01*
X4157381Y-19403000D01*
X4176428Y-19393476D01*
X4366905Y-19393476D02*
X4385952Y-19393476D01*
X4405000Y-19403000D01*
X4414524Y-19412524D01*
X4424048Y-19431571D01*
X4433571Y-19469667D01*
X4433571Y-19517286D01*
X4424048Y-19555381D01*
X4414524Y-19574429D01*
X4405000Y-19583952D01*
X4385952Y-19593476D01*
X4366905Y-19593476D01*
X4347857Y-19583952D01*
X4338333Y-19574429D01*
X4328810Y-19555381D01*
X4319286Y-19517286D01*
X4319286Y-19469667D01*
X4328810Y-19431571D01*
X4338333Y-19412524D01*
X4347857Y-19403000D01*
X4366905Y-19393476D01*
X4557381Y-19393476D02*
X4576429Y-19393476D01*
X4595476Y-19403000D01*
X4605000Y-19412524D01*
X4614524Y-19431571D01*
X4624048Y-19469667D01*
X4624048Y-19517286D01*
X4614524Y-19555381D01*
X4605000Y-19574429D01*
X4595476Y-19583952D01*
X4576429Y-19593476D01*
X4557381Y-19593476D01*
X4538333Y-19583952D01*
X4528810Y-19574429D01*
X4519286Y-19555381D01*
X4509762Y-19517286D01*
X4509762Y-19469667D01*
X4519286Y-19431571D01*
X4528810Y-19412524D01*
X4538333Y-19403000D01*
X4557381Y-19393476D01*
X4709762Y-19593476D02*
X4709762Y-19460143D01*
X4709762Y-19479190D02*
X4719286Y-19469667D01*
X4738333Y-19460143D01*
X4766905Y-19460143D01*
X4785952Y-19469667D01*
X4795476Y-19488714D01*
X4795476Y-19593476D01*
X4795476Y-19488714D02*
X4805000Y-19469667D01*
X4824048Y-19460143D01*
X4852619Y-19460143D01*
X4871667Y-19469667D01*
X4881190Y-19488714D01*
X4881190Y-19593476D01*
X4976429Y-19593476D02*
X4976429Y-19460143D01*
X4976429Y-19479190D02*
X4985952Y-19469667D01*
X5005000Y-19460143D01*
X5033571Y-19460143D01*
X5052619Y-19469667D01*
X5062143Y-19488714D01*
X5062143Y-19593476D01*
X5062143Y-19488714D02*
X5071667Y-19469667D01*
X5090714Y-19460143D01*
X5119286Y-19460143D01*
X5138333Y-19469667D01*
X5147857Y-19488714D01*
X5147857Y-19593476D01*
X5538333Y-19383952D02*
X5366905Y-19641095D01*
X5795476Y-19393476D02*
X5814524Y-19393476D01*
X5833571Y-19403000D01*
X5843095Y-19412524D01*
X5852619Y-19431571D01*
X5862143Y-19469667D01*
X5862143Y-19517286D01*
X5852619Y-19555381D01*
X5843095Y-19574429D01*
X5833571Y-19583952D01*
X5814524Y-19593476D01*
X5795476Y-19593476D01*
X5776428Y-19583952D01*
X5766905Y-19574429D01*
X5757381Y-19555381D01*
X5747857Y-19517286D01*
X5747857Y-19469667D01*
X5757381Y-19431571D01*
X5766905Y-19412524D01*
X5776428Y-19403000D01*
X5795476Y-19393476D01*
X5947857Y-19574429D02*
X5957381Y-19583952D01*
X5947857Y-19593476D01*
X5938333Y-19583952D01*
X5947857Y-19574429D01*
X5947857Y-19593476D01*
X6147857Y-19593476D02*
X6033571Y-19593476D01*
X6090714Y-19593476D02*
X6090714Y-19393476D01*
X6071667Y-19422048D01*
X6052619Y-19441095D01*
X6033571Y-19450619D01*
X6338333Y-19593476D02*
X6224048Y-19593476D01*
X6281190Y-19593476D02*
X6281190Y-19393476D01*
X6262143Y-19422048D01*
X6243095Y-19441095D01*
X6224048Y-19450619D01*
X6452619Y-19479190D02*
X6433571Y-19469667D01*
X6424048Y-19460143D01*
X6414524Y-19441095D01*
X6414524Y-19431571D01*
X6424048Y-19412524D01*
X6433571Y-19403000D01*
X6452619Y-19393476D01*
X6490714Y-19393476D01*
X6509762Y-19403000D01*
X6519286Y-19412524D01*
X6528809Y-19431571D01*
X6528809Y-19441095D01*
X6519286Y-19460143D01*
X6509762Y-19469667D01*
X6490714Y-19479190D01*
X6452619Y-19479190D01*
X6433571Y-19488714D01*
X6424048Y-19498238D01*
X6414524Y-19517286D01*
X6414524Y-19555381D01*
X6424048Y-19574429D01*
X6433571Y-19583952D01*
X6452619Y-19593476D01*
X6490714Y-19593476D01*
X6509762Y-19583952D01*
X6519286Y-19574429D01*
X6528809Y-19555381D01*
X6528809Y-19517286D01*
X6519286Y-19498238D01*
X6509762Y-19488714D01*
X6490714Y-19479190D01*
X6719286Y-19593476D02*
X6605000Y-19593476D01*
X6662143Y-19593476D02*
X6662143Y-19393476D01*
X6643095Y-19422048D01*
X6624048Y-19441095D01*
X6605000Y-19450619D01*
X6795476Y-19393476D02*
X6795476Y-19431571D01*
X6871667Y-19393476D02*
X6871667Y-19431571D01*
X7166905Y-19669667D02*
X7157381Y-19660143D01*
X7138333Y-19631571D01*
X7128809Y-19612524D01*
X7119286Y-19583952D01*
X7109762Y-19536333D01*
X7109762Y-19498238D01*
X7119286Y-19450619D01*
X7128809Y-19422048D01*
X7138333Y-19403000D01*
X7157381Y-19374429D01*
X7166905Y-19364905D01*
X7224048Y-19393476D02*
X7357381Y-19393476D01*
X7271667Y-19593476D01*
X7585952Y-19593476D02*
X7585952Y-19393476D01*
X7671667Y-19593476D02*
X7671667Y-19488714D01*
X7662143Y-19469667D01*
X7643095Y-19460143D01*
X7614524Y-19460143D01*
X7595476Y-19469667D01*
X7585952Y-19479190D01*
X7795476Y-19593476D02*
X7776428Y-19583952D01*
X7766905Y-19574429D01*
X7757381Y-19555381D01*
X7757381Y-19498238D01*
X7766905Y-19479190D01*
X7776428Y-19469667D01*
X7795476Y-19460143D01*
X7824048Y-19460143D01*
X7843095Y-19469667D01*
X7852619Y-19479190D01*
X7862143Y-19498238D01*
X7862143Y-19555381D01*
X7852619Y-19574429D01*
X7843095Y-19583952D01*
X7824048Y-19593476D01*
X7795476Y-19593476D01*
X7976428Y-19593476D02*
X7957381Y-19583952D01*
X7947857Y-19564905D01*
X7947857Y-19393476D01*
X8128809Y-19583952D02*
X8109762Y-19593476D01*
X8071667Y-19593476D01*
X8052619Y-19583952D01*
X8043095Y-19564905D01*
X8043095Y-19488714D01*
X8052619Y-19469667D01*
X8071667Y-19460143D01*
X8109762Y-19460143D01*
X8128809Y-19469667D01*
X8138333Y-19488714D01*
X8138333Y-19507762D01*
X8043095Y-19526810D01*
X8214524Y-19583952D02*
X8233571Y-19593476D01*
X8271667Y-19593476D01*
X8290714Y-19583952D01*
X8300238Y-19564905D01*
X8300238Y-19555381D01*
X8290714Y-19536333D01*
X8271667Y-19526810D01*
X8243095Y-19526810D01*
X8224048Y-19517286D01*
X8214524Y-19498238D01*
X8214524Y-19488714D01*
X8224048Y-19469667D01*
X8243095Y-19460143D01*
X8271667Y-19460143D01*
X8290714Y-19469667D01*
X8366905Y-19669667D02*
X8376428Y-19660143D01*
X8395476Y-19631571D01*
X8405000Y-19612524D01*
X8414524Y-19583952D01*
X8424048Y-19536333D01*
X8424048Y-19498238D01*
X8414524Y-19450619D01*
X8405000Y-19422048D01*
X8395476Y-19403000D01*
X8376428Y-19374429D01*
X8366905Y-19364905D01*
M02*
