G04 #@! TF.GenerationSoftware,KiCad,Pcbnew,(6.0.5)*
G04 #@! TF.CreationDate,2022-05-29T13:56:34+02:00*
G04 #@! TF.ProjectId,Jogurtownica,4a6f6775-7274-46f7-976e-6963612e6b69,rev?*
G04 #@! TF.SameCoordinates,Original*
G04 #@! TF.FileFunction,Soldermask,Top*
G04 #@! TF.FilePolarity,Negative*
%FSLAX45Y45*%
G04 Gerber Fmt 4.5, Leading zero omitted, Abs format (unit mm)*
G04 Created by KiCad (PCBNEW (6.0.5)) date 2022-05-29 13:56:34*
%MOMM*%
%LPD*%
G01*
G04 APERTURE LIST*
G04 Aperture macros list*
%AMRoundRect*
0 Rectangle with rounded corners*
0 $1 Rounding radius*
0 $2 $3 $4 $5 $6 $7 $8 $9 X,Y pos of 4 corners*
0 Add a 4 corners polygon primitive as box body*
4,1,4,$2,$3,$4,$5,$6,$7,$8,$9,$2,$3,0*
0 Add four circle primitives for the rounded corners*
1,1,$1+$1,$2,$3*
1,1,$1+$1,$4,$5*
1,1,$1+$1,$6,$7*
1,1,$1+$1,$8,$9*
0 Add four rect primitives between the rounded corners*
20,1,$1+$1,$2,$3,$4,$5,0*
20,1,$1+$1,$4,$5,$6,$7,0*
20,1,$1+$1,$6,$7,$8,$9,0*
20,1,$1+$1,$8,$9,$2,$3,0*%
G04 Aperture macros list end*
%ADD10C,4.000000*%
%ADD11RoundRect,0.250000X-0.450000X0.262500X-0.450000X-0.262500X0.450000X-0.262500X0.450000X0.262500X0*%
%ADD12RoundRect,0.150000X0.150000X-0.825000X0.150000X0.825000X-0.150000X0.825000X-0.150000X-0.825000X0*%
%ADD13C,1.440000*%
%ADD14C,2.000000*%
%ADD15RoundRect,0.250000X-0.625000X0.350000X-0.625000X-0.350000X0.625000X-0.350000X0.625000X0.350000X0*%
%ADD16O,1.750000X1.200000*%
%ADD17R,1.500000X2.700000*%
%ADD18RoundRect,0.250001X-0.949999X0.949999X-0.949999X-0.949999X0.949999X-0.949999X0.949999X0.949999X0*%
%ADD19C,2.400000*%
%ADD20R,1.600000X1.600000*%
%ADD21C,1.600000*%
%ADD22RoundRect,0.250000X-0.262500X-0.450000X0.262500X-0.450000X0.262500X0.450000X-0.262500X0.450000X0*%
%ADD23RoundRect,0.250000X0.350000X0.625000X-0.350000X0.625000X-0.350000X-0.625000X0.350000X-0.625000X0*%
%ADD24O,1.200000X1.750000*%
%ADD25RoundRect,0.250000X-0.845000X0.620000X-0.845000X-0.620000X0.845000X-0.620000X0.845000X0.620000X0*%
%ADD26O,2.190000X1.740000*%
%ADD27RoundRect,0.250000X-0.475000X0.250000X-0.475000X-0.250000X0.475000X-0.250000X0.475000X0.250000X0*%
%ADD28C,1.800000*%
%ADD29RoundRect,0.250000X0.262500X0.450000X-0.262500X0.450000X-0.262500X-0.450000X0.262500X-0.450000X0*%
%ADD30RoundRect,0.250000X-0.350000X-0.625000X0.350000X-0.625000X0.350000X0.625000X-0.350000X0.625000X0*%
%ADD31RoundRect,0.250000X0.475000X-0.250000X0.475000X0.250000X-0.475000X0.250000X-0.475000X-0.250000X0*%
%ADD32O,1.600000X1.600000*%
%ADD33RoundRect,0.250001X-1.099999X-1.099999X1.099999X-1.099999X1.099999X1.099999X-1.099999X1.099999X0*%
%ADD34C,2.700000*%
%ADD35R,2.000000X1.500000*%
%ADD36R,2.000000X3.800000*%
%ADD37R,2.700000X1.500000*%
%ADD38RoundRect,0.250000X1.075000X-0.425000X1.075000X0.425000X-1.075000X0.425000X-1.075000X-0.425000X0*%
%ADD39C,3.000000*%
%ADD40R,2.500000X2.500000*%
%ADD41R,1.700000X1.700000*%
%ADD42O,1.700000X1.700000*%
G04 APERTURE END LIST*
D10*
G04 #@! TO.C,REF\u002A\u002A*
X14300000Y-12525000D03*
G04 #@! TD*
D11*
G04 #@! TO.C,R6*
X12275000Y-6583750D03*
X12275000Y-6766250D03*
G04 #@! TD*
G04 #@! TO.C,R2*
X11125000Y-6033750D03*
X11125000Y-6216250D03*
G04 #@! TD*
G04 #@! TO.C,R7*
X8875000Y-7248750D03*
X8875000Y-7431250D03*
G04 #@! TD*
D12*
G04 #@! TO.C,Q1*
X8509500Y-6947500D03*
X8636500Y-6947500D03*
X8763500Y-6947500D03*
X8890500Y-6947500D03*
X8890500Y-6452500D03*
X8763500Y-6452500D03*
X8636500Y-6452500D03*
X8509500Y-6452500D03*
G04 #@! TD*
D13*
G04 #@! TO.C,RV1*
X10950000Y-5152500D03*
X11204000Y-5152500D03*
X11458000Y-5152500D03*
G04 #@! TD*
D10*
G04 #@! TO.C,REF\u002A\u002A*
X7125000Y-7925000D03*
G04 #@! TD*
D14*
G04 #@! TO.C,C7*
X6900000Y-10174500D03*
X6900000Y-9424500D03*
G04 #@! TD*
D15*
G04 #@! TO.C,J2*
X9900000Y-7225000D03*
D16*
X9900000Y-7425000D03*
G04 #@! TD*
D17*
G04 #@! TO.C,D1*
X6950000Y-6475000D03*
X6470000Y-6475000D03*
G04 #@! TD*
D18*
G04 #@! TO.C,J10*
X5660000Y-10630000D03*
D19*
X5660000Y-11026000D03*
G04 #@! TD*
D20*
G04 #@! TO.C,C1*
X7540000Y-6590000D03*
D21*
X7890000Y-6590000D03*
G04 #@! TD*
D22*
G04 #@! TO.C,R3*
X10608750Y-5980000D03*
X10791250Y-5980000D03*
G04 #@! TD*
D20*
G04 #@! TO.C,C4*
X12410000Y-7400511D03*
D21*
X12410000Y-7150511D03*
G04 #@! TD*
D20*
G04 #@! TO.C,C5*
X8510000Y-5800511D03*
D21*
X8510000Y-5550511D03*
G04 #@! TD*
D23*
G04 #@! TO.C,J8*
X12260000Y-6150000D03*
D24*
X12060000Y-6150000D03*
G04 #@! TD*
D25*
G04 #@! TO.C,J1*
X6307028Y-7236046D03*
D26*
X6307028Y-7490046D03*
G04 #@! TD*
D27*
G04 #@! TO.C,C2*
X6880000Y-5865000D03*
X6880000Y-6055000D03*
G04 #@! TD*
D28*
G04 #@! TO.C,RV2*
X4735000Y-10835000D03*
X4545000Y-11585000D03*
G04 #@! TD*
D29*
G04 #@! TO.C,R4*
X10961250Y-6450000D03*
X10778750Y-6450000D03*
G04 #@! TD*
D30*
G04 #@! TO.C,J9*
X11900000Y-10080000D03*
D24*
X12100000Y-10080000D03*
G04 #@! TD*
D18*
G04 #@! TO.C,J11*
X5660000Y-11480000D03*
D19*
X5660000Y-11876000D03*
G04 #@! TD*
D31*
G04 #@! TO.C,C6*
X10640000Y-7375000D03*
X10640000Y-7185000D03*
G04 #@! TD*
D20*
G04 #@! TO.C,U3*
X8427500Y-10620000D03*
D32*
X8173500Y-10620000D03*
X7919500Y-10620000D03*
X7919500Y-11382000D03*
X8173500Y-11382000D03*
X8427500Y-11382000D03*
G04 #@! TD*
D30*
G04 #@! TO.C,J6*
X9880000Y-10300000D03*
D24*
X10080000Y-10300000D03*
G04 #@! TD*
D33*
G04 #@! TO.C,J12*
X6627000Y-11897500D03*
D34*
X7023000Y-11897500D03*
G04 #@! TD*
D10*
G04 #@! TO.C,REF\u002A\u002A*
X5800000Y-12550000D03*
G04 #@! TD*
G04 #@! TO.C,REF\u002A\u002A*
X10000000Y-5000000D03*
G04 #@! TD*
D20*
G04 #@! TO.C,U2*
X11805000Y-6895000D03*
D32*
X11551000Y-6895000D03*
X11297000Y-6895000D03*
X11043000Y-6895000D03*
X11043000Y-7657000D03*
X11297000Y-7657000D03*
X11551000Y-7657000D03*
X11805000Y-7657000D03*
G04 #@! TD*
D29*
G04 #@! TO.C,R1*
X10791250Y-5625000D03*
X10608750Y-5625000D03*
G04 #@! TD*
D11*
G04 #@! TO.C,R5*
X10375000Y-6658750D03*
X10375000Y-6841250D03*
G04 #@! TD*
D23*
G04 #@! TO.C,J7*
X10100000Y-6155000D03*
D24*
X9900000Y-6155000D03*
G04 #@! TD*
D10*
G04 #@! TO.C,REF\u002A\u002A*
X12875000Y-7925000D03*
G04 #@! TD*
D29*
G04 #@! TO.C,R9*
X8491250Y-7250000D03*
X8308750Y-7250000D03*
G04 #@! TD*
D35*
G04 #@! TO.C,U1*
X7242028Y-5406046D03*
X7242028Y-5636046D03*
D36*
X7872028Y-5636046D03*
D35*
X7242028Y-5866046D03*
G04 #@! TD*
D37*
G04 #@! TO.C,D2*
X7070000Y-6910000D03*
X7070000Y-7390000D03*
G04 #@! TD*
D38*
G04 #@! TO.C,F1*
X6015000Y-6840000D03*
X6015000Y-6390000D03*
G04 #@! TD*
D39*
G04 #@! TO.C,REF\u002A\u002A*
X10000000Y-9580000D03*
G04 #@! TD*
D10*
G04 #@! TO.C,REF\u002A\u002A*
X12025000Y-12600000D03*
G04 #@! TD*
G04 #@! TO.C,REF\u002A\u002A*
X7975000Y-12600000D03*
G04 #@! TD*
D31*
G04 #@! TO.C,C3*
X6880000Y-5585000D03*
X6880000Y-5395000D03*
G04 #@! TD*
D14*
G04 #@! TO.C,C8*
X5515500Y-9420000D03*
X6265500Y-9420000D03*
G04 #@! TD*
D40*
G04 #@! TO.C,Q4*
X6685500Y-10646000D03*
D34*
X6685500Y-11000000D03*
X6685500Y-11356000D03*
G04 #@! TD*
D41*
G04 #@! TO.C,J5*
X10390000Y-10987500D03*
D42*
X10136000Y-10987500D03*
X9882000Y-10987500D03*
X9628000Y-10987500D03*
G04 #@! TD*
D41*
G04 #@! TO.C,J4*
X9375000Y-8720000D03*
D42*
X9629000Y-8720000D03*
X9883000Y-8720000D03*
X10137000Y-8720000D03*
X10391000Y-8720000D03*
X10645000Y-8720000D03*
G04 #@! TD*
D41*
G04 #@! TO.C,J3*
X10390000Y-9100000D03*
D42*
X10136000Y-9100000D03*
X9882000Y-9100000D03*
X9628000Y-9100000D03*
G04 #@! TD*
M02*
