%TF.GenerationSoftware,KiCad,Pcbnew,9.0.5*%
%TF.CreationDate,2025-10-20T17:55:58+02:00*%
%TF.ProjectId,yoradio-3,796f7261-6469-46f2-9d33-2e6b69636164,rev?*%
%TF.SameCoordinates,Original*%
%TF.FileFunction,Soldermask,Bot*%
%TF.FilePolarity,Negative*%
%FSLAX46Y46*%
G04 Gerber Fmt 4.6, Leading zero omitted, Abs format (unit mm)*
G04 Created by KiCad (PCBNEW 9.0.5) date 2025-10-20 17:55:58*
%MOMM*%
%LPD*%
G01*
G04 APERTURE LIST*
G04 Aperture macros list*
%AMRoundRect*
0 Rectangle with rounded corners*
0 $1 Rounding radius*
0 $2 $3 $4 $5 $6 $7 $8 $9 X,Y pos of 4 corners*
0 Add a 4 corners polygon primitive as box body*
4,1,4,$2,$3,$4,$5,$6,$7,$8,$9,$2,$3,0*
0 Add four circle primitives for the rounded corners*
1,1,$1+$1,$2,$3*
1,1,$1+$1,$4,$5*
1,1,$1+$1,$6,$7*
1,1,$1+$1,$8,$9*
0 Add four rect primitives between the rounded corners*
20,1,$1+$1,$2,$3,$4,$5,0*
20,1,$1+$1,$4,$5,$6,$7,0*
20,1,$1+$1,$6,$7,$8,$9,0*
20,1,$1+$1,$8,$9,$2,$3,0*%
G04 Aperture macros list end*
%ADD10C,2.500000*%
%ADD11RoundRect,0.170455X1.129545X-0.579545X1.129545X0.579545X-1.129545X0.579545X-1.129545X-0.579545X0*%
%ADD12R,2.500000X1.500000*%
%ADD13RoundRect,0.217391X1.032609X-0.782609X1.032609X0.782609X-1.032609X0.782609X-1.032609X-0.782609X0*%
%ADD14R,2.500000X2.000000*%
%ADD15R,2.000000X2.000000*%
%ADD16C,2.000000*%
%ADD17R,3.200000X2.000000*%
%ADD18RoundRect,0.250000X0.412500X0.650000X-0.412500X0.650000X-0.412500X-0.650000X0.412500X-0.650000X0*%
%ADD19RoundRect,0.250000X-0.625000X0.400000X-0.625000X-0.400000X0.625000X-0.400000X0.625000X0.400000X0*%
%ADD20RoundRect,0.250000X-0.650000X0.412500X-0.650000X-0.412500X0.650000X-0.412500X0.650000X0.412500X0*%
%ADD21R,2.000000X1.200000*%
%ADD22O,2.000000X1.200000*%
%ADD23R,1.600000X1.600000*%
%ADD24C,1.600000*%
%ADD25RoundRect,0.250000X0.650000X-0.412500X0.650000X0.412500X-0.650000X0.412500X-0.650000X-0.412500X0*%
%ADD26RoundRect,0.250000X0.350000X0.625000X-0.350000X0.625000X-0.350000X-0.625000X0.350000X-0.625000X0*%
%ADD27O,1.200000X1.750000*%
%ADD28RoundRect,0.250000X0.625000X-0.400000X0.625000X0.400000X-0.625000X0.400000X-0.625000X-0.400000X0*%
%ADD29RoundRect,0.250000X-0.620000X-0.845000X0.620000X-0.845000X0.620000X0.845000X-0.620000X0.845000X0*%
%ADD30O,1.740000X2.190000*%
G04 APERTURE END LIST*
D10*
%TO.C,H7*%
X214000000Y-70950000D03*
%TD*%
%TO.C,H6*%
X225000000Y-55000000D03*
%TD*%
D11*
%TO.C,M1*%
X94000000Y-65100000D03*
D12*
X94000000Y-67650000D03*
X93950000Y-70200000D03*
X93950000Y-72750000D03*
X93950000Y-75300000D03*
X93950000Y-77850000D03*
X93950000Y-80400000D03*
X93950000Y-82950000D03*
X93950000Y-85500000D03*
X93900000Y-88100000D03*
X93900000Y-90600000D03*
X93900000Y-93150000D03*
X93900000Y-95700000D03*
X93900000Y-98250000D03*
D13*
X197850000Y-77750000D03*
D14*
X197850000Y-80450000D03*
X197850000Y-83050000D03*
X197850000Y-85550000D03*
%TD*%
D10*
%TO.C,H4*%
X214000000Y-92550000D03*
%TD*%
%TO.C,H5*%
X225000000Y-123000000D03*
%TD*%
%TO.C,H1*%
X87000000Y-123000000D03*
%TD*%
%TO.C,H3*%
X187000000Y-123000000D03*
%TD*%
%TO.C,H2*%
X87000000Y-55000000D03*
%TD*%
D15*
%TO.C,SW1*%
X206650000Y-79250000D03*
D16*
X206650000Y-84250000D03*
X206650000Y-81750000D03*
D17*
X214150000Y-76150000D03*
X214150000Y-87350000D03*
D16*
X221150000Y-84250000D03*
X221150000Y-79250000D03*
%TD*%
D18*
%TO.C,C8*%
X156842500Y-78160000D03*
X153717500Y-78160000D03*
%TD*%
D19*
%TO.C,R1*%
X160500000Y-78160000D03*
X160500000Y-81260000D03*
%TD*%
D20*
%TO.C,C5*%
X96950000Y-65137500D03*
X96950000Y-68262500D03*
%TD*%
D18*
%TO.C,C10*%
X176182500Y-119130000D03*
X173057500Y-119130000D03*
%TD*%
D21*
%TO.C,U1*%
X156750000Y-82160000D03*
D22*
X156750000Y-84700000D03*
X156750000Y-87240000D03*
X156750000Y-89780000D03*
X156750000Y-92320000D03*
X156750000Y-94860000D03*
X156750000Y-97400000D03*
X156750000Y-99940000D03*
X156750000Y-102480000D03*
X156750000Y-105020000D03*
X156750000Y-107560000D03*
X156750000Y-110100000D03*
X156750000Y-112640000D03*
X156750000Y-115180000D03*
X156750000Y-117720000D03*
X156750000Y-120260000D03*
X156750000Y-122800000D03*
X156750000Y-125340000D03*
X156750000Y-127880000D03*
X131250000Y-127877280D03*
X131250000Y-125337280D03*
X131250000Y-122800000D03*
X131250000Y-120260000D03*
X131250000Y-117720000D03*
X131250000Y-115180000D03*
X131250000Y-112640000D03*
X131250000Y-110100000D03*
X131250000Y-107560000D03*
X131250000Y-105020000D03*
X131250000Y-102480000D03*
X131250000Y-99940000D03*
X131250000Y-97400000D03*
X131250000Y-94860000D03*
X131250000Y-92360000D03*
X131250000Y-89760000D03*
X131250000Y-87240000D03*
X131250000Y-84700000D03*
X131250000Y-82160000D03*
%TD*%
D23*
%TO.C,C6*%
X168200000Y-126700000D03*
D24*
X168200000Y-121700000D03*
%TD*%
D19*
%TO.C,R3*%
X163100000Y-89150000D03*
X163100000Y-92250000D03*
%TD*%
D23*
%TO.C,C2*%
X156760139Y-73030000D03*
D24*
X151760139Y-73030000D03*
%TD*%
D25*
%TO.C,C4*%
X167300000Y-92262500D03*
X167300000Y-89137500D03*
%TD*%
D26*
%TO.C,J2*%
X170300000Y-103400000D03*
D27*
X168300000Y-103400000D03*
X166300000Y-103400000D03*
X164300000Y-103400000D03*
%TD*%
D25*
%TO.C,C1*%
X171200000Y-89162500D03*
X171200000Y-86037500D03*
%TD*%
%TO.C,C7*%
X161800000Y-126462500D03*
X161800000Y-123337500D03*
%TD*%
D28*
%TO.C,R2*%
X163200000Y-86550000D03*
X163200000Y-83450000D03*
%TD*%
D20*
%TO.C,C3*%
X167300000Y-83537500D03*
X167300000Y-86662500D03*
%TD*%
D23*
%TO.C,C11*%
X102230000Y-65349862D03*
D24*
X102230000Y-70349862D03*
%TD*%
D23*
%TO.C,C9*%
X176150000Y-90220139D03*
D24*
X176150000Y-85220139D03*
%TD*%
D29*
%TO.C,J1*%
X173740000Y-124280000D03*
D30*
X176280000Y-124280000D03*
X178820000Y-124280000D03*
X181360000Y-124280000D03*
%TD*%
M02*
