M48
METRIC,TZ
VER,1
FMAT,2
DETECT,ON
ATC,ON
T1C2.0000
T2C0.7000
%
T1
X25400Y368300
X17780Y114300
X43180Y45720
X1391920Y386080
X1380000Y45720
T2
X147000Y85000
Y65000
X57000Y164000
Y324000
Y304000
Y284000
Y264000
Y244000
Y224000
Y204000
Y184000
X1281000Y353000
X1261000
X177000Y387000
X157000
X137000
X117000
X97000
X185420Y142240
Y205740
X147320Y142240
Y204000
M30
