G04 Generated by Ultiboard 14.2 *
%FSLAX34Y34*%
%MOMM*%

%ADD10C,0.0001*%
%ADD11C,0.0010*%
%ADD12C,1.5000*%
%ADD13C,0.5000*%
%ADD14C,0.3333*%
%ADD15C,0.1270*%
%ADD16C,2.0000*%
%ADD17C,1.8000*%


G04 ColorRGB 0000FF for the following layer *
%LNCopper Bottom*%
%LPD*%
G54D10*
G36*
X5029Y122210D02*
X5029Y122210D01*
X5029Y431971D01*
X1414971Y431971D01*
X1414971Y5029D01*
X5029Y5029D01*
X5029Y106390D01*
G75*
D01*
G03X5029Y122210I12751J7910*
G01*
D02*
G37*
%LPC*%
G36*
X1289876Y297994D02*
G75*
D01*
G03X1293566Y306889I-8876J8895*
G01*
X1293566Y306889D01*
X1293566Y346815D01*
G75*
D01*
G03X1271000Y362805I-12566J6185*
G01*
G75*
D01*
G03X1248435Y346815I-10000J-9805*
G01*
X1248435Y346815D01*
X1248435Y326405D01*
X1194971Y272941D01*
X1157000Y234971D01*
X1157000Y234971D01*
X1118595Y196566D01*
X197293Y196566D01*
G75*
D01*
G03X188506Y220424I-11873J9174*
G01*
X188506Y220424D01*
X176055Y232876D01*
G74*
D01*
G03X167160Y236566I8895J8876*
G01*
X167160Y236566D01*
X117176Y236566D01*
X185876Y305265D01*
G75*
D01*
G03X189566Y314160I-8876J8895*
G01*
X189566Y314160D01*
X189566Y380815D01*
G75*
D01*
G03X167000Y396805I-12566J6185*
G01*
G75*
D01*
G03X147000Y396805I-10000J-9805*
G01*
G75*
D01*
G03X127000Y396805I-10000J-9805*
G01*
G75*
D01*
G03X107000Y396805I-10000J-9805*
G01*
G75*
D01*
G03X84435Y380815I-10000J-9805*
G01*
X84435Y380815D01*
X84435Y369205D01*
X52488Y337258D01*
G75*
D01*
G03X47195Y314000I4512J-13258*
G01*
G75*
D01*
G03X47195Y294000I9805J-10000*
G01*
G75*
D01*
G03X47195Y274000I9805J-10000*
G01*
G75*
D01*
G03X47195Y254000I9805J-10000*
G01*
G75*
D01*
G03X47195Y234000I9805J-10000*
G01*
G75*
D01*
G03X47195Y214000I9805J-10000*
G01*
G75*
D01*
G03X47195Y194000I9805J-10000*
G01*
G75*
D01*
G03X47195Y174000I9805J-10000*
G01*
G75*
D01*
G03X59974Y150315I9805J-10000*
G01*
X59974Y150315D01*
X134673Y150315D01*
G75*
D01*
G03X134755Y134039I12647J-8075*
G01*
X134755Y134039D01*
X134755Y91796D01*
G75*
D01*
G03X137195Y75000I12245J-6796*
G01*
G75*
D01*
G03X153185Y52435I9805J-10000*
G01*
X153185Y52435D01*
X166597Y52435D01*
G75*
D01*
G03X166927Y52439I3J12565*
G01*
G74*
D01*
G03X175495Y56124I327J12561*
G01*
X175495Y56124D01*
X194296Y74925D01*
G75*
D01*
G03X197986Y83820I-8876J8895*
G01*
X197986Y83820D01*
X197986Y134039D01*
G75*
D01*
G03X198067Y150315I-12566J8201*
G01*
X198067Y150315D01*
X1136985Y150315D01*
G75*
D01*
G03X1139400Y150547I8J12565*
G01*
G74*
D01*
G03X1145888Y154004I2407J12333*
G01*
X1145888Y154004D01*
X1194971Y203088D01*
X1194971Y203088D01*
X1226853Y234971D01*
X1226853Y234971D01*
X1289876Y297994D01*
D02*
G37*
G36*
X546560Y67468D02*
X546560Y67468D01*
X782600Y67468D01*
G75*
D01*
G03X786452Y71320I0J3852*
G01*
X786452Y71320D01*
X786452Y106960D01*
G74*
D01*
G03X782600Y110812I3852J0*
G01*
X782600Y110812D01*
X546560Y110812D01*
G75*
D01*
G03X542708Y106960I0J-3852*
G01*
X542708Y106960D01*
X542708Y71320D01*
G75*
D01*
G03X546560Y67468I3852J0*
G01*
D02*
G37*
G36*
X762072Y373145D02*
X762072Y373145D01*
X582928Y373145D01*
G75*
D01*
G03X578595Y368812I0J-4333*
G01*
X578595Y368812D01*
X578595Y227468D01*
G75*
D01*
G03X582928Y223135I4333J0*
G01*
X582928Y223135D01*
X762072Y223135D01*
G75*
D01*
G03X766405Y227468I0J4333*
G01*
X766405Y227468D01*
X766405Y368812D01*
G74*
D01*
G03X762072Y373145I4333J0*
G01*
D02*
G37*
G36*
X1376915Y386080D02*
G75*
D01*
G03X1376915Y386080I15005J0*
G01*
D02*
G37*
G36*
X10395Y368300D02*
G75*
D01*
G03X10395Y368300I15005J0*
G01*
D02*
G37*
G36*
X1364995Y45720D02*
G75*
D01*
G03X1364995Y45720I15005J0*
G01*
D02*
G37*
G36*
X28175Y45720D02*
G75*
D01*
G03X28175Y45720I15005J0*
G01*
D02*
G37*
%LPD*%
G36*
X158869Y77566D02*
X158869Y77566D01*
X161395Y77566D01*
X172855Y89025D01*
X172855Y134039D01*
G75*
D01*
G02X172773Y150315I12565J8201*
G01*
X172773Y150315D01*
X159967Y150315D01*
G75*
D01*
G02X159886Y134039I-12647J-8075*
G01*
X159886Y134039D01*
X159886Y90487D01*
G75*
D01*
G02X158869Y77566I-12886J-5487*
G01*
D02*
G37*
G36*
X160354Y196566D02*
G75*
D01*
G03X160354Y211435I-13034J7434*
G01*
X160354Y211435D01*
X161955Y211435D01*
X170736Y202654D01*
G74*
D01*
G03X173547Y196566I14684J3086*
G01*
X173547Y196566D01*
X160354Y196566D01*
D02*
G37*
G54D11*
X160354Y196566D02*
G75*
D01*
G03X160354Y211435I-13034J7434*
G01*
X161955Y211435D01*
X170736Y202654D01*
G74*
D01*
G03X173547Y196566I14684J3086*
G01*
X160354Y196566D01*
X1289876Y297994D02*
G75*
D01*
G03X1293566Y306889I-8876J8895*
G01*
X1293566Y346815D01*
G75*
D01*
G03X1271000Y362805I-12566J6185*
G01*
G75*
D01*
G03X1248435Y346815I-10000J-9805*
G01*
X1248435Y326405D01*
X1194971Y272941D01*
X1157000Y234971D01*
X1157000Y234971D01*
X1118595Y196566D01*
X197293Y196566D01*
G75*
D01*
G03X188506Y220424I-11873J9174*
G01*
X176055Y232876D01*
G74*
D01*
G03X167160Y236566I8895J8876*
G01*
X117176Y236566D01*
X185876Y305265D01*
G75*
D01*
G03X189566Y314160I-8876J8895*
G01*
X189566Y380815D01*
G75*
D01*
G03X167000Y396805I-12566J6185*
G01*
G75*
D01*
G03X147000Y396805I-10000J-9805*
G01*
G75*
D01*
G03X127000Y396805I-10000J-9805*
G01*
G75*
D01*
G03X107000Y396805I-10000J-9805*
G01*
G75*
D01*
G03X84435Y380815I-10000J-9805*
G01*
X84435Y369205D01*
X52488Y337258D01*
G75*
D01*
G03X47195Y314000I4512J-13258*
G01*
G75*
D01*
G03X47195Y294000I9805J-10000*
G01*
G75*
D01*
G03X47195Y274000I9805J-10000*
G01*
G75*
D01*
G03X47195Y254000I9805J-10000*
G01*
G75*
D01*
G03X47195Y234000I9805J-10000*
G01*
G75*
D01*
G03X47195Y214000I9805J-10000*
G01*
G75*
D01*
G03X47195Y194000I9805J-10000*
G01*
G75*
D01*
G03X47195Y174000I9805J-10000*
G01*
G75*
D01*
G03X59974Y150315I9805J-10000*
G01*
X134673Y150315D01*
G75*
D01*
G03X134755Y134039I12647J-8075*
G01*
X134755Y91796D01*
G75*
D01*
G03X137195Y75000I12245J-6796*
G01*
G75*
D01*
G03X153185Y52435I9805J-10000*
G01*
X166597Y52435D01*
G75*
D01*
G03X166927Y52439I3J12565*
G01*
G74*
D01*
G03X175495Y56124I327J12561*
G01*
X194296Y74925D01*
G75*
D01*
G03X197986Y83820I-8876J8895*
G01*
X197986Y134039D01*
G75*
D01*
G03X198067Y150315I-12566J8201*
G01*
X1136985Y150315D01*
G75*
D01*
G03X1139400Y150547I8J12565*
G01*
G74*
D01*
G03X1145888Y154004I2407J12333*
G01*
X1194971Y203088D01*
X1194971Y203088D01*
X1226853Y234971D01*
X1226853Y234971D01*
X1289876Y297994D01*
X546560Y67468D02*
X782600Y67468D01*
G75*
D01*
G03X786452Y71320I0J3852*
G01*
X786452Y106960D01*
G74*
D01*
G03X782600Y110812I3852J0*
G01*
X546560Y110812D01*
G75*
D01*
G03X542708Y106960I0J-3852*
G01*
X542708Y71320D01*
G75*
D01*
G03X546560Y67468I3852J0*
G01*
X762072Y373145D02*
X582928Y373145D01*
G75*
D01*
G03X578595Y368812I0J-4333*
G01*
X578595Y227468D01*
G75*
D01*
G03X582928Y223135I4333J0*
G01*
X762072Y223135D01*
G75*
D01*
G03X766405Y227468I0J4333*
G01*
X766405Y368812D01*
G74*
D01*
G03X762072Y373145I4333J0*
G01*
X1376915Y386080D02*
G75*
D01*
G03X1376915Y386080I15005J0*
G01*
X10395Y368300D02*
G75*
D01*
G03X10395Y368300I15005J0*
G01*
X1364995Y45720D02*
G75*
D01*
G03X1364995Y45720I15005J0*
G01*
X28175Y45720D02*
G75*
D01*
G03X28175Y45720I15005J0*
G01*
X5029Y122210D02*
X5029Y431971D01*
X1414971Y431971D01*
X1414971Y5029D01*
X5029Y5029D01*
X5029Y106390D01*
G75*
D01*
G03X5029Y122210I12751J7910*
G01*
X158869Y77566D02*
X161395Y77566D01*
X172855Y89025D01*
X172855Y134039D01*
G75*
D01*
G02X172773Y150315I12565J8201*
G01*
X159967Y150315D01*
G75*
D01*
G02X159886Y134039I-12647J-8075*
G01*
X159886Y90487D01*
G75*
D01*
G02X158869Y77566I-12886J-5487*
G01*
G54D12*
X147000Y65000D02*
X166600Y65000D01*
X97000Y387000D02*
X97000Y364000D01*
X57000Y324000D01*
X137000Y387000D02*
X137000Y340200D01*
X80800Y284000D01*
X57000Y284000D01*
X157000Y387000D02*
X157000Y327180D01*
X93820Y264000D01*
X57000Y264000D01*
X177000Y387000D02*
X177000Y314160D01*
X106840Y244000D01*
X57000Y244000D01*
X117000Y353564D02*
X67436Y304000D01*
X57000Y304000D01*
X117000Y387000D02*
X117000Y353564D01*
X57000Y204000D02*
X146520Y204000D01*
X1281000Y353000D02*
X1281000Y306889D01*
X58120Y162880D02*
X57000Y164000D01*
X1136993Y162880D02*
X58120Y162880D01*
X1281000Y306889D02*
X1136993Y162880D01*
X1261000Y321200D02*
X1123800Y184000D01*
X57000Y184000D02*
X1123800Y184000D01*
X1261000Y353000D02*
X1261000Y321200D01*
X167160Y224000D02*
X185420Y205740D01*
X57000Y224000D02*
X167160Y224000D01*
X185420Y83820D02*
X166600Y65000D01*
X185420Y139700D02*
X185420Y83820D01*
X147320Y139700D02*
X147320Y85000D01*
X147320Y83820D01*
G54D13*
X755700Y362426D02*
X746100Y346354D01*
X736500Y362426D01*
X746100Y346354D02*
X746100Y330283D01*
X726900Y330283D02*
X726900Y349569D01*
X720500Y362426D01*
X714100Y362426D01*
X707700Y349569D01*
X707700Y330283D01*
X726900Y339926D02*
X707700Y339926D01*
X698100Y330283D02*
X698100Y362426D01*
X688500Y346354D01*
X678900Y362426D01*
X678900Y330283D01*
X669300Y330283D02*
X669300Y349569D01*
X662900Y362426D01*
X656500Y362426D01*
X650100Y349569D01*
X650100Y330283D01*
X669300Y339926D02*
X650100Y339926D01*
X640500Y330283D02*
X640500Y362426D01*
X621300Y330283D02*
X621300Y362426D01*
X640500Y346354D02*
X621300Y346354D01*
X611700Y330283D02*
X611700Y349569D01*
X605300Y362426D01*
X598900Y362426D01*
X592500Y349569D01*
X592500Y330283D01*
X611700Y339926D02*
X592500Y339926D01*
X741300Y285283D02*
X741300Y304569D01*
X734900Y317426D01*
X728500Y317426D01*
X722100Y304569D01*
X722100Y285283D01*
X741300Y294926D02*
X722100Y294926D01*
X712500Y291711D02*
X706100Y285283D01*
X699700Y285283D01*
X693300Y291711D01*
X693300Y304569D01*
X693300Y310997D01*
X699700Y317426D01*
X706100Y317426D01*
X712500Y310997D01*
X712500Y304569D01*
X706100Y298140D01*
X699700Y298140D01*
X693300Y304569D01*
X674100Y285283D02*
X674100Y301354D01*
X664500Y310997D01*
X664500Y317426D01*
X683700Y317426D01*
X683700Y310997D01*
X654900Y298140D02*
X635700Y298140D01*
X626100Y317426D02*
X626100Y285283D01*
X606900Y285283D01*
X741300Y272426D02*
X731700Y240283D01*
X722100Y272426D01*
X693300Y240283D02*
X712500Y240283D01*
X712500Y256354D01*
X712500Y272426D01*
X693300Y272426D01*
X712500Y256354D02*
X699700Y256354D01*
X683700Y240283D02*
X683700Y272426D01*
X670900Y272426D01*
X664500Y265997D01*
X664500Y262783D01*
X670900Y256354D01*
X683700Y256354D01*
X680500Y256354D02*
X664500Y240283D01*
X645300Y269211D02*
X645300Y262783D01*
X645300Y243497D02*
X645300Y249926D01*
X626100Y240283D02*
X613300Y240283D01*
X606900Y246711D01*
X606900Y249926D01*
X613300Y256354D01*
X606900Y262783D01*
X606900Y265997D01*
X613300Y272426D01*
X622900Y272426D01*
X626100Y272426D01*
X622900Y256354D02*
X613300Y256354D01*
X622900Y272426D02*
X622900Y240283D01*
G54D14*
X777647Y80569D02*
X777647Y93426D01*
X773380Y101997D01*
X769113Y101997D01*
X764847Y93426D01*
X764847Y80569D01*
X777647Y86997D02*
X764847Y86997D01*
X745647Y84854D02*
X749913Y80569D01*
X754180Y80569D01*
X758447Y84854D01*
X758447Y97711D01*
X754180Y101997D01*
X749913Y101997D01*
X745647Y97711D01*
X739247Y80569D02*
X739247Y101997D01*
X730713Y101997D01*
X726447Y97711D01*
X726447Y95569D01*
X730713Y91283D01*
X739247Y91283D01*
X720047Y89140D02*
X707247Y89140D01*
X700847Y80569D02*
X692313Y80569D01*
X688047Y84854D01*
X688047Y86997D01*
X692313Y91283D01*
X688047Y95569D01*
X688047Y97711D01*
X692313Y101997D01*
X698713Y101997D01*
X700847Y101997D01*
X698713Y91283D02*
X692313Y91283D01*
X698713Y101997D02*
X698713Y80569D01*
X681647Y84854D02*
X677380Y80569D01*
X673113Y80569D01*
X668847Y84854D01*
X681647Y97711D01*
X677380Y101997D01*
X673113Y101997D01*
X668847Y97711D01*
X643247Y84854D02*
X638980Y80569D01*
X634713Y80569D01*
X630447Y84854D01*
X630447Y93426D01*
X630447Y97711D01*
X634713Y101997D01*
X638980Y101997D01*
X643247Y97711D01*
X643247Y93426D01*
X638980Y89140D01*
X634713Y89140D01*
X630447Y93426D01*
X611247Y89140D02*
X624047Y89140D01*
X613380Y101997D01*
X613380Y80569D01*
X615513Y80569D02*
X611247Y80569D01*
X604847Y95569D02*
X598447Y80569D01*
X592047Y95569D01*
X585647Y89140D02*
X572847Y89140D01*
X566447Y97711D02*
X562180Y101997D01*
X557913Y101997D01*
X553647Y97711D01*
X553647Y84854D01*
X557913Y80569D01*
X562180Y80569D01*
X566447Y84854D01*
X566447Y97711D01*
X553647Y97711D02*
X566447Y84854D01*
G54D15*
X-2540Y-2540D02*
X-2540Y41668D01*
X-2540Y-2540D02*
X139968Y-2540D01*
X1422540Y-2540D02*
X1280032Y-2540D01*
X1422540Y-2540D02*
X1422540Y41668D01*
X1422540Y439540D02*
X1422540Y395332D01*
X1422540Y439540D02*
X1280032Y439540D01*
X-2540Y439540D02*
X139968Y439540D01*
X-2540Y439540D02*
X-2540Y395332D01*
X-52540Y-2540D02*
X-152540Y-2540D01*
X-102540Y-52540D02*
X-102540Y47460D01*
X-140040Y-2540D02*
G75*
D01*
G02X-140040Y-2540I37500J0*
G01*
X1472540Y-2540D02*
X1572540Y-2540D01*
X1522540Y-52540D02*
X1522540Y47460D01*
X1485040Y-2540D02*
G75*
D01*
G02X1485040Y-2540I37500J0*
G01*
X1510040Y-2540D02*
G75*
D01*
G02X1510040Y-2540I12500J0*
G01*
X-52540Y439540D02*
X-152540Y439540D01*
X-102540Y389540D02*
X-102540Y489540D01*
X-140040Y439540D02*
G75*
D01*
G02X-140040Y439540I37500J0*
G01*
X-127540Y439540D02*
G75*
D01*
G02X-127540Y439540I25000J0*
G01*
X-115040Y439540D02*
G75*
D01*
G02X-115040Y439540I12500J0*
G01*
G54D16*
X185420Y142240D03*
X185420Y205740D03*
X147320Y142240D03*
X147320Y204000D03*
G54D17*
X147000Y85000D03*
X147000Y65000D03*
X57000Y164000D03*
X57000Y324000D03*
X57000Y304000D03*
X57000Y284000D03*
X57000Y264000D03*
X57000Y244000D03*
X57000Y224000D03*
X57000Y204000D03*
X57000Y184000D03*
X1281000Y353000D03*
X1261000Y353000D03*
X177000Y387000D03*
X157000Y387000D03*
X137000Y387000D03*
X117000Y387000D03*
X97000Y387000D03*

M02*
