%FSLAX45Y45*%
G04 Gerber Fmt 4.5, Leading zero omitted, Abs format (unit mm)*
G04 Created by KiCad (PCBNEW (6.0.5)) date 2022-05-30 11:18:54*
%MOMM*%
%LPD*%
G01*
G04 APERTURE LIST*
%TA.AperFunction,Profile*%
%ADD10C,0.100000*%
%TD*%
%ADD11C,0.200000*%
G04 APERTURE END LIST*
D10*
X4890000Y-5858000D02*
X19390000Y-5858000D01*
X19390000Y-5858000D02*
X19390000Y-11858000D01*
X19390000Y-11858000D02*
X4890000Y-11858000D01*
X4890000Y-11858000D02*
X4890000Y-5858000D01*
D11*
X5142619Y-12173476D02*
X5142619Y-11973476D01*
X5190238Y-11973476D01*
X5218810Y-11983000D01*
X5237857Y-12002048D01*
X5247381Y-12021095D01*
X5256905Y-12059190D01*
X5256905Y-12087762D01*
X5247381Y-12125857D01*
X5237857Y-12144905D01*
X5218810Y-12163952D01*
X5190238Y-12173476D01*
X5142619Y-12173476D01*
X5342619Y-12173476D02*
X5342619Y-12040143D01*
X5342619Y-12078238D02*
X5352143Y-12059190D01*
X5361667Y-12049667D01*
X5380714Y-12040143D01*
X5399762Y-12040143D01*
X5466429Y-12173476D02*
X5466429Y-12040143D01*
X5466429Y-11973476D02*
X5456905Y-11983000D01*
X5466429Y-11992524D01*
X5475952Y-11983000D01*
X5466429Y-11973476D01*
X5466429Y-11992524D01*
X5590238Y-12173476D02*
X5571190Y-12163952D01*
X5561667Y-12144905D01*
X5561667Y-11973476D01*
X5695000Y-12173476D02*
X5675952Y-12163952D01*
X5666428Y-12144905D01*
X5666428Y-11973476D01*
X5923571Y-12173476D02*
X5923571Y-11973476D01*
X5990238Y-12116333D01*
X6056905Y-11973476D01*
X6056905Y-12173476D01*
X6237857Y-12173476D02*
X6237857Y-12068714D01*
X6228333Y-12049667D01*
X6209286Y-12040143D01*
X6171190Y-12040143D01*
X6152143Y-12049667D01*
X6237857Y-12163952D02*
X6218809Y-12173476D01*
X6171190Y-12173476D01*
X6152143Y-12163952D01*
X6142619Y-12144905D01*
X6142619Y-12125857D01*
X6152143Y-12106809D01*
X6171190Y-12097286D01*
X6218809Y-12097286D01*
X6237857Y-12087762D01*
X6333095Y-12040143D02*
X6333095Y-12240143D01*
X6333095Y-12049667D02*
X6352143Y-12040143D01*
X6390238Y-12040143D01*
X6409286Y-12049667D01*
X6418809Y-12059190D01*
X6428333Y-12078238D01*
X6428333Y-12135381D01*
X6418809Y-12154428D01*
X6409286Y-12163952D01*
X6390238Y-12173476D01*
X6352143Y-12173476D01*
X6333095Y-12163952D01*
X6514048Y-12154428D02*
X6523571Y-12163952D01*
X6514048Y-12173476D01*
X6504524Y-12163952D01*
X6514048Y-12154428D01*
X6514048Y-12173476D01*
X6514048Y-12049667D02*
X6523571Y-12059190D01*
X6514048Y-12068714D01*
X6504524Y-12059190D01*
X6514048Y-12049667D01*
X6514048Y-12068714D01*
M02*
