M48
; DRILL file {KiCad (6.0.5)} date Mon May 30 11:18:54 2022
; FORMAT={-:-/ absolute / metric / decimal}
; #@! TF.CreationDate,2022-05-30T11:18:54+02:00
; #@! TF.GenerationSoftware,Kicad,Pcbnew,(6.0.5)
; #@! TF.FileFunction,Plated,1,2,PTH
FMAT,2
METRIC
; #@! TA.AperFunction,Plated,PTH,ComponentDrill
T1C0.750
; #@! TA.AperFunction,Plated,PTH,ViaDrill
T2C0.800
; #@! TA.AperFunction,Plated,PTH,ComponentDrill
T3C0.800
; #@! TA.AperFunction,Plated,PTH,ComponentDrill
T4C0.950
; #@! TA.AperFunction,Plated,PTH,ComponentDrill
T5C1.000
; #@! TA.AperFunction,Plated,PTH,ComponentDrill
T6C1.100
; #@! TA.AperFunction,Plated,PTH,ComponentDrill
T7C2.500
%
G90
G05
T1
X60.1Y-89.44
X60.192Y-85.84
X60.7Y-71.172
X60.7Y-74.672
X61.892Y-84.14
X61.9Y-91.14
X62.4Y-72.873
X63.6Y-89.44
X63.692Y-85.84
X81.7Y-62.9
X82.307Y-99.48
X82.392Y-95.84
X83.5Y-64.6
X84.093Y-94.14
X84.108Y-101.18
X85.2Y-62.9
X85.807Y-99.48
X85.892Y-95.84
X93.9Y-62.98
X95.7Y-64.68
X97.4Y-62.98
X102.642Y-85.46
X102.65Y-89.0
X104.343Y-83.76
X104.45Y-90.7
X106.142Y-85.46
X106.15Y-89.0
X111.46Y-75.388
X113.16Y-73.587
X113.16Y-77.087
X128.207Y-89.24
X128.308Y-85.66
X128.8Y-71.2
X128.8Y-74.7
X130.007Y-83.96
X130.007Y-90.94
X130.5Y-72.9
X131.707Y-89.24
X131.808Y-85.66
X149.8Y-62.9
X150.308Y-99.64
X150.493Y-96.06
X151.6Y-64.6
X152.107Y-101.34
X152.192Y-94.36
X153.3Y-62.9
X153.808Y-99.64
X153.993Y-96.06
X162.007Y-62.84
X163.808Y-64.54
X165.507Y-62.84
X170.9Y-89.14
X170.942Y-85.61
X172.642Y-83.91
X172.7Y-90.84
X174.4Y-89.14
X174.442Y-85.61
X179.46Y-75.307
X181.16Y-73.507
X181.16Y-77.007
T2
X69.0Y-110.0
X69.0Y-116.0
X96.7Y-97.78
X96.8Y-91.78
X137.5Y-110.0
X137.5Y-116.0
X164.8Y-97.747
X164.9Y-91.747
T3
X53.6Y-95.18
X55.9Y-81.9
X55.9Y-92.06
X55.92Y-78.58
X58.247Y-102.28
X61.747Y-102.28
X63.6Y-95.18
X66.08Y-78.58
X66.12Y-70.28
X66.12Y-74.58
X66.7Y-100.6
X68.875Y-87.425
X68.875Y-89.965
X68.875Y-92.505
X73.9Y-84.6
X73.9Y-94.76
X76.28Y-70.28
X76.28Y-74.58
X76.7Y-100.6
X78.22Y-109.78
X78.3Y-84.6
X78.3Y-94.76
X78.32Y-105.18
X80.6Y-69.1
X80.6Y-79.26
X84.4Y-80.0
X84.4Y-90.16
X88.38Y-109.78
X88.48Y-105.18
X88.7Y-70.6
X88.7Y-80.76
X92.1Y-91.3
X92.1Y-101.46
X93.04Y-78.68
X97.22Y-72.38
X97.32Y-68.48
X99.72Y-93.68
X99.82Y-97.28
X100.0Y-101.18
X103.2Y-78.68
X107.38Y-72.38
X107.48Y-68.48
X109.88Y-93.68
X109.9Y-80.9
X109.9Y-91.06
X109.98Y-97.28
X110.0Y-101.18
X111.6Y-106.133
X111.6Y-109.633
X121.7Y-94.9
X124.0Y-81.92
X124.0Y-92.08
X124.02Y-78.6
X126.347Y-102.4
X129.847Y-102.4
X131.7Y-94.9
X134.18Y-78.6
X134.22Y-70.2
X134.22Y-74.6
X134.7Y-100.6
X136.975Y-87.445
X136.975Y-89.985
X136.975Y-92.525
X142.0Y-84.62
X142.0Y-94.78
X144.38Y-70.2
X144.38Y-74.6
X144.7Y-100.6
X146.34Y-109.6
X146.4Y-84.52
X146.4Y-94.68
X146.44Y-105.1
X148.6Y-69.12
X148.6Y-79.28
X152.5Y-79.82
X152.5Y-89.98
X156.5Y-109.6
X156.6Y-105.1
X156.8Y-70.52
X156.8Y-80.68
X160.1Y-91.52
X160.1Y-101.68
X161.02Y-78.6
X165.32Y-68.5
X165.32Y-72.4
X167.82Y-93.7
X168.1Y-101.2
X168.12Y-97.5
X171.18Y-78.6
X175.48Y-68.5
X175.48Y-72.4
X177.98Y-93.7
X178.0Y-80.84
X178.0Y-91.0
X178.1Y-101.2
X178.28Y-97.5
X179.8Y-106.053
X179.8Y-109.553
T4
X97.9Y-105.947
X100.4Y-105.947
X102.9Y-105.947
X165.9Y-106.0
X168.4Y-106.0
X170.9Y-106.0
T5
X69.25Y-105.947
X71.75Y-105.947
X91.35Y-84.38
X93.85Y-84.38
X137.35Y-105.968
X139.85Y-105.968
X159.2Y-84.4
X161.7Y-84.4
T6
X66.06Y-62.902
X68.6Y-62.902
X71.14Y-62.902
X107.86Y-63.102
X110.4Y-63.102
X112.94Y-63.102
X134.16Y-63.1
X136.7Y-63.1
X139.24Y-63.1
X175.96Y-63.0
X178.5Y-63.0
X181.04Y-63.0
T7
X56.3Y-64.1
X56.3Y-109.38
X120.8Y-109.4
X188.7Y-64.1
X188.7Y-109.5
T0
M30
