%TF.GenerationSoftware,KiCad,Pcbnew,9.0.0*%
%TF.CreationDate,2025-03-20T15:24:16+01:00*%
%TF.ProjectId,Sonda_w_cz.kicad2_pcb,536f6e64-615f-4775-9f63-7a2e6b696361,rev?*%
%TF.SameCoordinates,Original*%
%TF.FileFunction,Drillmap*%
%TF.FilePolarity,Positive*%
%FSLAX45Y45*%
G04 Gerber Fmt 4.5, Leading zero omitted, Abs format (unit mm)*
G04 Created by KiCad (PCBNEW 9.0.0) date 2025-03-20 15:24:16*
%MOMM*%
%LPD*%
G01*
G04 APERTURE LIST*
%ADD10C,0.100000*%
%ADD11C,0.200000*%
G04 APERTURE END LIST*
D10*
X13251000Y-9416000D02*
X19251000Y-9416000D01*
X19251000Y-10996000D01*
X13251000Y-10996000D01*
X13251000Y-9416000D01*
D11*
X13506777Y-11312484D02*
X13506777Y-11112484D01*
X13506777Y-11112484D02*
X13554396Y-11112484D01*
X13554396Y-11112484D02*
X13582967Y-11122008D01*
X13582967Y-11122008D02*
X13602015Y-11141055D01*
X13602015Y-11141055D02*
X13611539Y-11160103D01*
X13611539Y-11160103D02*
X13621062Y-11198198D01*
X13621062Y-11198198D02*
X13621062Y-11226769D01*
X13621062Y-11226769D02*
X13611539Y-11264865D01*
X13611539Y-11264865D02*
X13602015Y-11283912D01*
X13602015Y-11283912D02*
X13582967Y-11302960D01*
X13582967Y-11302960D02*
X13554396Y-11312484D01*
X13554396Y-11312484D02*
X13506777Y-11312484D01*
X13706777Y-11312484D02*
X13706777Y-11179150D01*
X13706777Y-11217246D02*
X13716301Y-11198198D01*
X13716301Y-11198198D02*
X13725824Y-11188674D01*
X13725824Y-11188674D02*
X13744872Y-11179150D01*
X13744872Y-11179150D02*
X13763920Y-11179150D01*
X13830586Y-11312484D02*
X13830586Y-11179150D01*
X13830586Y-11112484D02*
X13821062Y-11122008D01*
X13821062Y-11122008D02*
X13830586Y-11131531D01*
X13830586Y-11131531D02*
X13840110Y-11122008D01*
X13840110Y-11122008D02*
X13830586Y-11112484D01*
X13830586Y-11112484D02*
X13830586Y-11131531D01*
X13954396Y-11312484D02*
X13935348Y-11302960D01*
X13935348Y-11302960D02*
X13925824Y-11283912D01*
X13925824Y-11283912D02*
X13925824Y-11112484D01*
X14059158Y-11312484D02*
X14040110Y-11302960D01*
X14040110Y-11302960D02*
X14030586Y-11283912D01*
X14030586Y-11283912D02*
X14030586Y-11112484D01*
X14287729Y-11312484D02*
X14287729Y-11112484D01*
X14287729Y-11112484D02*
X14354396Y-11255341D01*
X14354396Y-11255341D02*
X14421062Y-11112484D01*
X14421062Y-11112484D02*
X14421062Y-11312484D01*
X14602015Y-11312484D02*
X14602015Y-11207722D01*
X14602015Y-11207722D02*
X14592491Y-11188674D01*
X14592491Y-11188674D02*
X14573443Y-11179150D01*
X14573443Y-11179150D02*
X14535348Y-11179150D01*
X14535348Y-11179150D02*
X14516301Y-11188674D01*
X14602015Y-11302960D02*
X14582967Y-11312484D01*
X14582967Y-11312484D02*
X14535348Y-11312484D01*
X14535348Y-11312484D02*
X14516301Y-11302960D01*
X14516301Y-11302960D02*
X14506777Y-11283912D01*
X14506777Y-11283912D02*
X14506777Y-11264865D01*
X14506777Y-11264865D02*
X14516301Y-11245817D01*
X14516301Y-11245817D02*
X14535348Y-11236293D01*
X14535348Y-11236293D02*
X14582967Y-11236293D01*
X14582967Y-11236293D02*
X14602015Y-11226769D01*
X14697253Y-11179150D02*
X14697253Y-11379150D01*
X14697253Y-11188674D02*
X14716301Y-11179150D01*
X14716301Y-11179150D02*
X14754396Y-11179150D01*
X14754396Y-11179150D02*
X14773443Y-11188674D01*
X14773443Y-11188674D02*
X14782967Y-11198198D01*
X14782967Y-11198198D02*
X14792491Y-11217246D01*
X14792491Y-11217246D02*
X14792491Y-11274388D01*
X14792491Y-11274388D02*
X14782967Y-11293436D01*
X14782967Y-11293436D02*
X14773443Y-11302960D01*
X14773443Y-11302960D02*
X14754396Y-11312484D01*
X14754396Y-11312484D02*
X14716301Y-11312484D01*
X14716301Y-11312484D02*
X14697253Y-11302960D01*
X14878205Y-11293436D02*
X14887729Y-11302960D01*
X14887729Y-11302960D02*
X14878205Y-11312484D01*
X14878205Y-11312484D02*
X14868682Y-11302960D01*
X14868682Y-11302960D02*
X14878205Y-11293436D01*
X14878205Y-11293436D02*
X14878205Y-11312484D01*
X14878205Y-11188674D02*
X14887729Y-11198198D01*
X14887729Y-11198198D02*
X14878205Y-11207722D01*
X14878205Y-11207722D02*
X14868682Y-11198198D01*
X14868682Y-11198198D02*
X14878205Y-11188674D01*
X14878205Y-11188674D02*
X14878205Y-11207722D01*
M02*
