%TF.GenerationSoftware,KiCad,Pcbnew,9.0.0*%
%TF.CreationDate,2025-03-20T15:23:59+01:00*%
%TF.ProjectId,Sonda_w_cz.kicad2_pcb,536f6e64-615f-4775-9f63-7a2e6b696361,rev?*%
%TF.SameCoordinates,Original*%
%TF.FileFunction,Legend,Bot*%
%TF.FilePolarity,Positive*%
%FSLAX46Y46*%
G04 Gerber Fmt 4.6, Leading zero omitted, Abs format (unit mm)*
G04 Created by KiCad (PCBNEW 9.0.0) date 2025-03-20 15:23:59*
%MOMM*%
%LPD*%
G01*
G04 APERTURE LIST*
%ADD10C,0.100000*%
%ADD11C,0.150000*%
%ADD12C,0.300000*%
%ADD13C,0.400000*%
%ADD14C,0.120000*%
G04 APERTURE END LIST*
D10*
D11*
X177002200Y-166007200D02*
X285002200Y-166007200D01*
X285002200Y-198007200D01*
X177002200Y-198007200D01*
X177002200Y-166007200D01*
D10*
D11*
X10000000Y-10000000D02*
X287002200Y-10000000D01*
X287002200Y-200007200D01*
X10000000Y-200007200D01*
X10000000Y-10000000D01*
D10*
D11*
X12000000Y-12000000D02*
X285002200Y-12000000D01*
X285002200Y-198007200D01*
X12000000Y-198007200D01*
X12000000Y-12000000D01*
D10*
D11*
X60000000Y-12000000D02*
X60000000Y-10000000D01*
D10*
D11*
X110000000Y-12000000D02*
X110000000Y-10000000D01*
D10*
D11*
X160000000Y-12000000D02*
X160000000Y-10000000D01*
D10*
D11*
X210000000Y-12000000D02*
X210000000Y-10000000D01*
D10*
D11*
X260000000Y-12000000D02*
X260000000Y-10000000D01*
D10*
D11*
X36089160Y-11593604D02*
X35346303Y-11593604D01*
X35717731Y-11593604D02*
X35717731Y-10293604D01*
X35717731Y-10293604D02*
X35593922Y-10479319D01*
X35593922Y-10479319D02*
X35470112Y-10603128D01*
X35470112Y-10603128D02*
X35346303Y-10665033D01*
D10*
D11*
X85346303Y-10417414D02*
X85408207Y-10355509D01*
X85408207Y-10355509D02*
X85532017Y-10293604D01*
X85532017Y-10293604D02*
X85841541Y-10293604D01*
X85841541Y-10293604D02*
X85965350Y-10355509D01*
X85965350Y-10355509D02*
X86027255Y-10417414D01*
X86027255Y-10417414D02*
X86089160Y-10541223D01*
X86089160Y-10541223D02*
X86089160Y-10665033D01*
X86089160Y-10665033D02*
X86027255Y-10850747D01*
X86027255Y-10850747D02*
X85284398Y-11593604D01*
X85284398Y-11593604D02*
X86089160Y-11593604D01*
D10*
D11*
X135284398Y-10293604D02*
X136089160Y-10293604D01*
X136089160Y-10293604D02*
X135655826Y-10788842D01*
X135655826Y-10788842D02*
X135841541Y-10788842D01*
X135841541Y-10788842D02*
X135965350Y-10850747D01*
X135965350Y-10850747D02*
X136027255Y-10912652D01*
X136027255Y-10912652D02*
X136089160Y-11036461D01*
X136089160Y-11036461D02*
X136089160Y-11345985D01*
X136089160Y-11345985D02*
X136027255Y-11469795D01*
X136027255Y-11469795D02*
X135965350Y-11531700D01*
X135965350Y-11531700D02*
X135841541Y-11593604D01*
X135841541Y-11593604D02*
X135470112Y-11593604D01*
X135470112Y-11593604D02*
X135346303Y-11531700D01*
X135346303Y-11531700D02*
X135284398Y-11469795D01*
D10*
D11*
X185965350Y-10726938D02*
X185965350Y-11593604D01*
X185655826Y-10231700D02*
X185346303Y-11160271D01*
X185346303Y-11160271D02*
X186151064Y-11160271D01*
D10*
D11*
X236027255Y-10293604D02*
X235408207Y-10293604D01*
X235408207Y-10293604D02*
X235346303Y-10912652D01*
X235346303Y-10912652D02*
X235408207Y-10850747D01*
X235408207Y-10850747D02*
X235532017Y-10788842D01*
X235532017Y-10788842D02*
X235841541Y-10788842D01*
X235841541Y-10788842D02*
X235965350Y-10850747D01*
X235965350Y-10850747D02*
X236027255Y-10912652D01*
X236027255Y-10912652D02*
X236089160Y-11036461D01*
X236089160Y-11036461D02*
X236089160Y-11345985D01*
X236089160Y-11345985D02*
X236027255Y-11469795D01*
X236027255Y-11469795D02*
X235965350Y-11531700D01*
X235965350Y-11531700D02*
X235841541Y-11593604D01*
X235841541Y-11593604D02*
X235532017Y-11593604D01*
X235532017Y-11593604D02*
X235408207Y-11531700D01*
X235408207Y-11531700D02*
X235346303Y-11469795D01*
D10*
D11*
X285965350Y-10293604D02*
X285717731Y-10293604D01*
X285717731Y-10293604D02*
X285593922Y-10355509D01*
X285593922Y-10355509D02*
X285532017Y-10417414D01*
X285532017Y-10417414D02*
X285408207Y-10603128D01*
X285408207Y-10603128D02*
X285346303Y-10850747D01*
X285346303Y-10850747D02*
X285346303Y-11345985D01*
X285346303Y-11345985D02*
X285408207Y-11469795D01*
X285408207Y-11469795D02*
X285470112Y-11531700D01*
X285470112Y-11531700D02*
X285593922Y-11593604D01*
X285593922Y-11593604D02*
X285841541Y-11593604D01*
X285841541Y-11593604D02*
X285965350Y-11531700D01*
X285965350Y-11531700D02*
X286027255Y-11469795D01*
X286027255Y-11469795D02*
X286089160Y-11345985D01*
X286089160Y-11345985D02*
X286089160Y-11036461D01*
X286089160Y-11036461D02*
X286027255Y-10912652D01*
X286027255Y-10912652D02*
X285965350Y-10850747D01*
X285965350Y-10850747D02*
X285841541Y-10788842D01*
X285841541Y-10788842D02*
X285593922Y-10788842D01*
X285593922Y-10788842D02*
X285470112Y-10850747D01*
X285470112Y-10850747D02*
X285408207Y-10912652D01*
X285408207Y-10912652D02*
X285346303Y-11036461D01*
D10*
D11*
X60000000Y-198007200D02*
X60000000Y-200007200D01*
D10*
D11*
X110000000Y-198007200D02*
X110000000Y-200007200D01*
D10*
D11*
X160000000Y-198007200D02*
X160000000Y-200007200D01*
D10*
D11*
X210000000Y-198007200D02*
X210000000Y-200007200D01*
D10*
D11*
X260000000Y-198007200D02*
X260000000Y-200007200D01*
D10*
D11*
X36089160Y-199600804D02*
X35346303Y-199600804D01*
X35717731Y-199600804D02*
X35717731Y-198300804D01*
X35717731Y-198300804D02*
X35593922Y-198486519D01*
X35593922Y-198486519D02*
X35470112Y-198610328D01*
X35470112Y-198610328D02*
X35346303Y-198672233D01*
D10*
D11*
X85346303Y-198424614D02*
X85408207Y-198362709D01*
X85408207Y-198362709D02*
X85532017Y-198300804D01*
X85532017Y-198300804D02*
X85841541Y-198300804D01*
X85841541Y-198300804D02*
X85965350Y-198362709D01*
X85965350Y-198362709D02*
X86027255Y-198424614D01*
X86027255Y-198424614D02*
X86089160Y-198548423D01*
X86089160Y-198548423D02*
X86089160Y-198672233D01*
X86089160Y-198672233D02*
X86027255Y-198857947D01*
X86027255Y-198857947D02*
X85284398Y-199600804D01*
X85284398Y-199600804D02*
X86089160Y-199600804D01*
D10*
D11*
X135284398Y-198300804D02*
X136089160Y-198300804D01*
X136089160Y-198300804D02*
X135655826Y-198796042D01*
X135655826Y-198796042D02*
X135841541Y-198796042D01*
X135841541Y-198796042D02*
X135965350Y-198857947D01*
X135965350Y-198857947D02*
X136027255Y-198919852D01*
X136027255Y-198919852D02*
X136089160Y-199043661D01*
X136089160Y-199043661D02*
X136089160Y-199353185D01*
X136089160Y-199353185D02*
X136027255Y-199476995D01*
X136027255Y-199476995D02*
X135965350Y-199538900D01*
X135965350Y-199538900D02*
X135841541Y-199600804D01*
X135841541Y-199600804D02*
X135470112Y-199600804D01*
X135470112Y-199600804D02*
X135346303Y-199538900D01*
X135346303Y-199538900D02*
X135284398Y-199476995D01*
D10*
D11*
X185965350Y-198734138D02*
X185965350Y-199600804D01*
X185655826Y-198238900D02*
X185346303Y-199167471D01*
X185346303Y-199167471D02*
X186151064Y-199167471D01*
D10*
D11*
X236027255Y-198300804D02*
X235408207Y-198300804D01*
X235408207Y-198300804D02*
X235346303Y-198919852D01*
X235346303Y-198919852D02*
X235408207Y-198857947D01*
X235408207Y-198857947D02*
X235532017Y-198796042D01*
X235532017Y-198796042D02*
X235841541Y-198796042D01*
X235841541Y-198796042D02*
X235965350Y-198857947D01*
X235965350Y-198857947D02*
X236027255Y-198919852D01*
X236027255Y-198919852D02*
X236089160Y-199043661D01*
X236089160Y-199043661D02*
X236089160Y-199353185D01*
X236089160Y-199353185D02*
X236027255Y-199476995D01*
X236027255Y-199476995D02*
X235965350Y-199538900D01*
X235965350Y-199538900D02*
X235841541Y-199600804D01*
X235841541Y-199600804D02*
X235532017Y-199600804D01*
X235532017Y-199600804D02*
X235408207Y-199538900D01*
X235408207Y-199538900D02*
X235346303Y-199476995D01*
D10*
D11*
X285965350Y-198300804D02*
X285717731Y-198300804D01*
X285717731Y-198300804D02*
X285593922Y-198362709D01*
X285593922Y-198362709D02*
X285532017Y-198424614D01*
X285532017Y-198424614D02*
X285408207Y-198610328D01*
X285408207Y-198610328D02*
X285346303Y-198857947D01*
X285346303Y-198857947D02*
X285346303Y-199353185D01*
X285346303Y-199353185D02*
X285408207Y-199476995D01*
X285408207Y-199476995D02*
X285470112Y-199538900D01*
X285470112Y-199538900D02*
X285593922Y-199600804D01*
X285593922Y-199600804D02*
X285841541Y-199600804D01*
X285841541Y-199600804D02*
X285965350Y-199538900D01*
X285965350Y-199538900D02*
X286027255Y-199476995D01*
X286027255Y-199476995D02*
X286089160Y-199353185D01*
X286089160Y-199353185D02*
X286089160Y-199043661D01*
X286089160Y-199043661D02*
X286027255Y-198919852D01*
X286027255Y-198919852D02*
X285965350Y-198857947D01*
X285965350Y-198857947D02*
X285841541Y-198796042D01*
X285841541Y-198796042D02*
X285593922Y-198796042D01*
X285593922Y-198796042D02*
X285470112Y-198857947D01*
X285470112Y-198857947D02*
X285408207Y-198919852D01*
X285408207Y-198919852D02*
X285346303Y-199043661D01*
D10*
D11*
X10000000Y-60000000D02*
X12000000Y-60000000D01*
D10*
D11*
X10000000Y-110000000D02*
X12000000Y-110000000D01*
D10*
D11*
X10000000Y-160000000D02*
X12000000Y-160000000D01*
D10*
D11*
X10690476Y-35222176D02*
X11309523Y-35222176D01*
X10566666Y-35593604D02*
X10999999Y-34293604D01*
X10999999Y-34293604D02*
X11433333Y-35593604D01*
D10*
D11*
X11092857Y-84912652D02*
X11278571Y-84974557D01*
X11278571Y-84974557D02*
X11340476Y-85036461D01*
X11340476Y-85036461D02*
X11402380Y-85160271D01*
X11402380Y-85160271D02*
X11402380Y-85345985D01*
X11402380Y-85345985D02*
X11340476Y-85469795D01*
X11340476Y-85469795D02*
X11278571Y-85531700D01*
X11278571Y-85531700D02*
X11154761Y-85593604D01*
X11154761Y-85593604D02*
X10659523Y-85593604D01*
X10659523Y-85593604D02*
X10659523Y-84293604D01*
X10659523Y-84293604D02*
X11092857Y-84293604D01*
X11092857Y-84293604D02*
X11216666Y-84355509D01*
X11216666Y-84355509D02*
X11278571Y-84417414D01*
X11278571Y-84417414D02*
X11340476Y-84541223D01*
X11340476Y-84541223D02*
X11340476Y-84665033D01*
X11340476Y-84665033D02*
X11278571Y-84788842D01*
X11278571Y-84788842D02*
X11216666Y-84850747D01*
X11216666Y-84850747D02*
X11092857Y-84912652D01*
X11092857Y-84912652D02*
X10659523Y-84912652D01*
D10*
D11*
X11402380Y-135469795D02*
X11340476Y-135531700D01*
X11340476Y-135531700D02*
X11154761Y-135593604D01*
X11154761Y-135593604D02*
X11030952Y-135593604D01*
X11030952Y-135593604D02*
X10845238Y-135531700D01*
X10845238Y-135531700D02*
X10721428Y-135407890D01*
X10721428Y-135407890D02*
X10659523Y-135284080D01*
X10659523Y-135284080D02*
X10597619Y-135036461D01*
X10597619Y-135036461D02*
X10597619Y-134850747D01*
X10597619Y-134850747D02*
X10659523Y-134603128D01*
X10659523Y-134603128D02*
X10721428Y-134479319D01*
X10721428Y-134479319D02*
X10845238Y-134355509D01*
X10845238Y-134355509D02*
X11030952Y-134293604D01*
X11030952Y-134293604D02*
X11154761Y-134293604D01*
X11154761Y-134293604D02*
X11340476Y-134355509D01*
X11340476Y-134355509D02*
X11402380Y-134417414D01*
D10*
D11*
X10659523Y-185593604D02*
X10659523Y-184293604D01*
X10659523Y-184293604D02*
X10969047Y-184293604D01*
X10969047Y-184293604D02*
X11154761Y-184355509D01*
X11154761Y-184355509D02*
X11278571Y-184479319D01*
X11278571Y-184479319D02*
X11340476Y-184603128D01*
X11340476Y-184603128D02*
X11402380Y-184850747D01*
X11402380Y-184850747D02*
X11402380Y-185036461D01*
X11402380Y-185036461D02*
X11340476Y-185284080D01*
X11340476Y-185284080D02*
X11278571Y-185407890D01*
X11278571Y-185407890D02*
X11154761Y-185531700D01*
X11154761Y-185531700D02*
X10969047Y-185593604D01*
X10969047Y-185593604D02*
X10659523Y-185593604D01*
D10*
D11*
X287002200Y-60000000D02*
X285002200Y-60000000D01*
D10*
D11*
X287002200Y-110000000D02*
X285002200Y-110000000D01*
D10*
D11*
X287002200Y-160000000D02*
X285002200Y-160000000D01*
D10*
D11*
X285692676Y-35222176D02*
X286311723Y-35222176D01*
X285568866Y-35593604D02*
X286002199Y-34293604D01*
X286002199Y-34293604D02*
X286435533Y-35593604D01*
D10*
D11*
X286095057Y-84912652D02*
X286280771Y-84974557D01*
X286280771Y-84974557D02*
X286342676Y-85036461D01*
X286342676Y-85036461D02*
X286404580Y-85160271D01*
X286404580Y-85160271D02*
X286404580Y-85345985D01*
X286404580Y-85345985D02*
X286342676Y-85469795D01*
X286342676Y-85469795D02*
X286280771Y-85531700D01*
X286280771Y-85531700D02*
X286156961Y-85593604D01*
X286156961Y-85593604D02*
X285661723Y-85593604D01*
X285661723Y-85593604D02*
X285661723Y-84293604D01*
X285661723Y-84293604D02*
X286095057Y-84293604D01*
X286095057Y-84293604D02*
X286218866Y-84355509D01*
X286218866Y-84355509D02*
X286280771Y-84417414D01*
X286280771Y-84417414D02*
X286342676Y-84541223D01*
X286342676Y-84541223D02*
X286342676Y-84665033D01*
X286342676Y-84665033D02*
X286280771Y-84788842D01*
X286280771Y-84788842D02*
X286218866Y-84850747D01*
X286218866Y-84850747D02*
X286095057Y-84912652D01*
X286095057Y-84912652D02*
X285661723Y-84912652D01*
D10*
D11*
X286404580Y-135469795D02*
X286342676Y-135531700D01*
X286342676Y-135531700D02*
X286156961Y-135593604D01*
X286156961Y-135593604D02*
X286033152Y-135593604D01*
X286033152Y-135593604D02*
X285847438Y-135531700D01*
X285847438Y-135531700D02*
X285723628Y-135407890D01*
X285723628Y-135407890D02*
X285661723Y-135284080D01*
X285661723Y-135284080D02*
X285599819Y-135036461D01*
X285599819Y-135036461D02*
X285599819Y-134850747D01*
X285599819Y-134850747D02*
X285661723Y-134603128D01*
X285661723Y-134603128D02*
X285723628Y-134479319D01*
X285723628Y-134479319D02*
X285847438Y-134355509D01*
X285847438Y-134355509D02*
X286033152Y-134293604D01*
X286033152Y-134293604D02*
X286156961Y-134293604D01*
X286156961Y-134293604D02*
X286342676Y-134355509D01*
X286342676Y-134355509D02*
X286404580Y-134417414D01*
D10*
D11*
X285661723Y-185593604D02*
X285661723Y-184293604D01*
X285661723Y-184293604D02*
X285971247Y-184293604D01*
X285971247Y-184293604D02*
X286156961Y-184355509D01*
X286156961Y-184355509D02*
X286280771Y-184479319D01*
X286280771Y-184479319D02*
X286342676Y-184603128D01*
X286342676Y-184603128D02*
X286404580Y-184850747D01*
X286404580Y-184850747D02*
X286404580Y-185036461D01*
X286404580Y-185036461D02*
X286342676Y-185284080D01*
X286342676Y-185284080D02*
X286280771Y-185407890D01*
X286280771Y-185407890D02*
X286156961Y-185531700D01*
X286156961Y-185531700D02*
X285971247Y-185593604D01*
X285971247Y-185593604D02*
X285661723Y-185593604D01*
D10*
D11*
X200458026Y-193793328D02*
X200458026Y-192293328D01*
X200458026Y-192293328D02*
X200815169Y-192293328D01*
X200815169Y-192293328D02*
X201029455Y-192364757D01*
X201029455Y-192364757D02*
X201172312Y-192507614D01*
X201172312Y-192507614D02*
X201243741Y-192650471D01*
X201243741Y-192650471D02*
X201315169Y-192936185D01*
X201315169Y-192936185D02*
X201315169Y-193150471D01*
X201315169Y-193150471D02*
X201243741Y-193436185D01*
X201243741Y-193436185D02*
X201172312Y-193579042D01*
X201172312Y-193579042D02*
X201029455Y-193721900D01*
X201029455Y-193721900D02*
X200815169Y-193793328D01*
X200815169Y-193793328D02*
X200458026Y-193793328D01*
X202600884Y-193793328D02*
X202600884Y-193007614D01*
X202600884Y-193007614D02*
X202529455Y-192864757D01*
X202529455Y-192864757D02*
X202386598Y-192793328D01*
X202386598Y-192793328D02*
X202100884Y-192793328D01*
X202100884Y-192793328D02*
X201958026Y-192864757D01*
X202600884Y-193721900D02*
X202458026Y-193793328D01*
X202458026Y-193793328D02*
X202100884Y-193793328D01*
X202100884Y-193793328D02*
X201958026Y-193721900D01*
X201958026Y-193721900D02*
X201886598Y-193579042D01*
X201886598Y-193579042D02*
X201886598Y-193436185D01*
X201886598Y-193436185D02*
X201958026Y-193293328D01*
X201958026Y-193293328D02*
X202100884Y-193221900D01*
X202100884Y-193221900D02*
X202458026Y-193221900D01*
X202458026Y-193221900D02*
X202600884Y-193150471D01*
X203100884Y-192793328D02*
X203672312Y-192793328D01*
X203315169Y-192293328D02*
X203315169Y-193579042D01*
X203315169Y-193579042D02*
X203386598Y-193721900D01*
X203386598Y-193721900D02*
X203529455Y-193793328D01*
X203529455Y-193793328D02*
X203672312Y-193793328D01*
X204743741Y-193721900D02*
X204600884Y-193793328D01*
X204600884Y-193793328D02*
X204315170Y-193793328D01*
X204315170Y-193793328D02*
X204172312Y-193721900D01*
X204172312Y-193721900D02*
X204100884Y-193579042D01*
X204100884Y-193579042D02*
X204100884Y-193007614D01*
X204100884Y-193007614D02*
X204172312Y-192864757D01*
X204172312Y-192864757D02*
X204315170Y-192793328D01*
X204315170Y-192793328D02*
X204600884Y-192793328D01*
X204600884Y-192793328D02*
X204743741Y-192864757D01*
X204743741Y-192864757D02*
X204815170Y-193007614D01*
X204815170Y-193007614D02*
X204815170Y-193150471D01*
X204815170Y-193150471D02*
X204100884Y-193293328D01*
X205458026Y-193650471D02*
X205529455Y-193721900D01*
X205529455Y-193721900D02*
X205458026Y-193793328D01*
X205458026Y-193793328D02*
X205386598Y-193721900D01*
X205386598Y-193721900D02*
X205458026Y-193650471D01*
X205458026Y-193650471D02*
X205458026Y-193793328D01*
X205458026Y-192864757D02*
X205529455Y-192936185D01*
X205529455Y-192936185D02*
X205458026Y-193007614D01*
X205458026Y-193007614D02*
X205386598Y-192936185D01*
X205386598Y-192936185D02*
X205458026Y-192864757D01*
X205458026Y-192864757D02*
X205458026Y-193007614D01*
D10*
D11*
X177002200Y-194507200D02*
X285002200Y-194507200D01*
D10*
D11*
X178458026Y-196593328D02*
X178458026Y-195093328D01*
X179315169Y-196593328D02*
X178672312Y-195736185D01*
X179315169Y-195093328D02*
X178458026Y-195950471D01*
X179958026Y-196593328D02*
X179958026Y-195593328D01*
X179958026Y-195093328D02*
X179886598Y-195164757D01*
X179886598Y-195164757D02*
X179958026Y-195236185D01*
X179958026Y-195236185D02*
X180029455Y-195164757D01*
X180029455Y-195164757D02*
X179958026Y-195093328D01*
X179958026Y-195093328D02*
X179958026Y-195236185D01*
X181529455Y-196450471D02*
X181458027Y-196521900D01*
X181458027Y-196521900D02*
X181243741Y-196593328D01*
X181243741Y-196593328D02*
X181100884Y-196593328D01*
X181100884Y-196593328D02*
X180886598Y-196521900D01*
X180886598Y-196521900D02*
X180743741Y-196379042D01*
X180743741Y-196379042D02*
X180672312Y-196236185D01*
X180672312Y-196236185D02*
X180600884Y-195950471D01*
X180600884Y-195950471D02*
X180600884Y-195736185D01*
X180600884Y-195736185D02*
X180672312Y-195450471D01*
X180672312Y-195450471D02*
X180743741Y-195307614D01*
X180743741Y-195307614D02*
X180886598Y-195164757D01*
X180886598Y-195164757D02*
X181100884Y-195093328D01*
X181100884Y-195093328D02*
X181243741Y-195093328D01*
X181243741Y-195093328D02*
X181458027Y-195164757D01*
X181458027Y-195164757D02*
X181529455Y-195236185D01*
X182815170Y-196593328D02*
X182815170Y-195807614D01*
X182815170Y-195807614D02*
X182743741Y-195664757D01*
X182743741Y-195664757D02*
X182600884Y-195593328D01*
X182600884Y-195593328D02*
X182315170Y-195593328D01*
X182315170Y-195593328D02*
X182172312Y-195664757D01*
X182815170Y-196521900D02*
X182672312Y-196593328D01*
X182672312Y-196593328D02*
X182315170Y-196593328D01*
X182315170Y-196593328D02*
X182172312Y-196521900D01*
X182172312Y-196521900D02*
X182100884Y-196379042D01*
X182100884Y-196379042D02*
X182100884Y-196236185D01*
X182100884Y-196236185D02*
X182172312Y-196093328D01*
X182172312Y-196093328D02*
X182315170Y-196021900D01*
X182315170Y-196021900D02*
X182672312Y-196021900D01*
X182672312Y-196021900D02*
X182815170Y-195950471D01*
X184172313Y-196593328D02*
X184172313Y-195093328D01*
X184172313Y-196521900D02*
X184029455Y-196593328D01*
X184029455Y-196593328D02*
X183743741Y-196593328D01*
X183743741Y-196593328D02*
X183600884Y-196521900D01*
X183600884Y-196521900D02*
X183529455Y-196450471D01*
X183529455Y-196450471D02*
X183458027Y-196307614D01*
X183458027Y-196307614D02*
X183458027Y-195879042D01*
X183458027Y-195879042D02*
X183529455Y-195736185D01*
X183529455Y-195736185D02*
X183600884Y-195664757D01*
X183600884Y-195664757D02*
X183743741Y-195593328D01*
X183743741Y-195593328D02*
X184029455Y-195593328D01*
X184029455Y-195593328D02*
X184172313Y-195664757D01*
X186029455Y-195807614D02*
X186529455Y-195807614D01*
X186743741Y-196593328D02*
X186029455Y-196593328D01*
X186029455Y-196593328D02*
X186029455Y-195093328D01*
X186029455Y-195093328D02*
X186743741Y-195093328D01*
X187386598Y-196450471D02*
X187458027Y-196521900D01*
X187458027Y-196521900D02*
X187386598Y-196593328D01*
X187386598Y-196593328D02*
X187315170Y-196521900D01*
X187315170Y-196521900D02*
X187386598Y-196450471D01*
X187386598Y-196450471D02*
X187386598Y-196593328D01*
X188100884Y-196593328D02*
X188100884Y-195093328D01*
X188100884Y-195093328D02*
X188458027Y-195093328D01*
X188458027Y-195093328D02*
X188672313Y-195164757D01*
X188672313Y-195164757D02*
X188815170Y-195307614D01*
X188815170Y-195307614D02*
X188886599Y-195450471D01*
X188886599Y-195450471D02*
X188958027Y-195736185D01*
X188958027Y-195736185D02*
X188958027Y-195950471D01*
X188958027Y-195950471D02*
X188886599Y-196236185D01*
X188886599Y-196236185D02*
X188815170Y-196379042D01*
X188815170Y-196379042D02*
X188672313Y-196521900D01*
X188672313Y-196521900D02*
X188458027Y-196593328D01*
X188458027Y-196593328D02*
X188100884Y-196593328D01*
X189600884Y-196450471D02*
X189672313Y-196521900D01*
X189672313Y-196521900D02*
X189600884Y-196593328D01*
X189600884Y-196593328D02*
X189529456Y-196521900D01*
X189529456Y-196521900D02*
X189600884Y-196450471D01*
X189600884Y-196450471D02*
X189600884Y-196593328D01*
X190243742Y-196164757D02*
X190958028Y-196164757D01*
X190100885Y-196593328D02*
X190600885Y-195093328D01*
X190600885Y-195093328D02*
X191100885Y-196593328D01*
X191600884Y-196450471D02*
X191672313Y-196521900D01*
X191672313Y-196521900D02*
X191600884Y-196593328D01*
X191600884Y-196593328D02*
X191529456Y-196521900D01*
X191529456Y-196521900D02*
X191600884Y-196450471D01*
X191600884Y-196450471D02*
X191600884Y-196593328D01*
X193529456Y-196593328D02*
X193815170Y-196593328D01*
X193815170Y-196593328D02*
X193958027Y-196521900D01*
X193958027Y-196521900D02*
X194029456Y-196450471D01*
X194029456Y-196450471D02*
X194172313Y-196236185D01*
X194172313Y-196236185D02*
X194243742Y-195950471D01*
X194243742Y-195950471D02*
X194243742Y-195379042D01*
X194243742Y-195379042D02*
X194172313Y-195236185D01*
X194172313Y-195236185D02*
X194100885Y-195164757D01*
X194100885Y-195164757D02*
X193958027Y-195093328D01*
X193958027Y-195093328D02*
X193672313Y-195093328D01*
X193672313Y-195093328D02*
X193529456Y-195164757D01*
X193529456Y-195164757D02*
X193458027Y-195236185D01*
X193458027Y-195236185D02*
X193386599Y-195379042D01*
X193386599Y-195379042D02*
X193386599Y-195736185D01*
X193386599Y-195736185D02*
X193458027Y-195879042D01*
X193458027Y-195879042D02*
X193529456Y-195950471D01*
X193529456Y-195950471D02*
X193672313Y-196021900D01*
X193672313Y-196021900D02*
X193958027Y-196021900D01*
X193958027Y-196021900D02*
X194100885Y-195950471D01*
X194100885Y-195950471D02*
X194172313Y-195879042D01*
X194172313Y-195879042D02*
X194243742Y-195736185D01*
X194886598Y-196450471D02*
X194958027Y-196521900D01*
X194958027Y-196521900D02*
X194886598Y-196593328D01*
X194886598Y-196593328D02*
X194815170Y-196521900D01*
X194815170Y-196521900D02*
X194886598Y-196450471D01*
X194886598Y-196450471D02*
X194886598Y-196593328D01*
X195886599Y-195093328D02*
X196029456Y-195093328D01*
X196029456Y-195093328D02*
X196172313Y-195164757D01*
X196172313Y-195164757D02*
X196243742Y-195236185D01*
X196243742Y-195236185D02*
X196315170Y-195379042D01*
X196315170Y-195379042D02*
X196386599Y-195664757D01*
X196386599Y-195664757D02*
X196386599Y-196021900D01*
X196386599Y-196021900D02*
X196315170Y-196307614D01*
X196315170Y-196307614D02*
X196243742Y-196450471D01*
X196243742Y-196450471D02*
X196172313Y-196521900D01*
X196172313Y-196521900D02*
X196029456Y-196593328D01*
X196029456Y-196593328D02*
X195886599Y-196593328D01*
X195886599Y-196593328D02*
X195743742Y-196521900D01*
X195743742Y-196521900D02*
X195672313Y-196450471D01*
X195672313Y-196450471D02*
X195600884Y-196307614D01*
X195600884Y-196307614D02*
X195529456Y-196021900D01*
X195529456Y-196021900D02*
X195529456Y-195664757D01*
X195529456Y-195664757D02*
X195600884Y-195379042D01*
X195600884Y-195379042D02*
X195672313Y-195236185D01*
X195672313Y-195236185D02*
X195743742Y-195164757D01*
X195743742Y-195164757D02*
X195886599Y-195093328D01*
X197029455Y-196450471D02*
X197100884Y-196521900D01*
X197100884Y-196521900D02*
X197029455Y-196593328D01*
X197029455Y-196593328D02*
X196958027Y-196521900D01*
X196958027Y-196521900D02*
X197029455Y-196450471D01*
X197029455Y-196450471D02*
X197029455Y-196593328D01*
X198029456Y-195093328D02*
X198172313Y-195093328D01*
X198172313Y-195093328D02*
X198315170Y-195164757D01*
X198315170Y-195164757D02*
X198386599Y-195236185D01*
X198386599Y-195236185D02*
X198458027Y-195379042D01*
X198458027Y-195379042D02*
X198529456Y-195664757D01*
X198529456Y-195664757D02*
X198529456Y-196021900D01*
X198529456Y-196021900D02*
X198458027Y-196307614D01*
X198458027Y-196307614D02*
X198386599Y-196450471D01*
X198386599Y-196450471D02*
X198315170Y-196521900D01*
X198315170Y-196521900D02*
X198172313Y-196593328D01*
X198172313Y-196593328D02*
X198029456Y-196593328D01*
X198029456Y-196593328D02*
X197886599Y-196521900D01*
X197886599Y-196521900D02*
X197815170Y-196450471D01*
X197815170Y-196450471D02*
X197743741Y-196307614D01*
X197743741Y-196307614D02*
X197672313Y-196021900D01*
X197672313Y-196021900D02*
X197672313Y-195664757D01*
X197672313Y-195664757D02*
X197743741Y-195379042D01*
X197743741Y-195379042D02*
X197815170Y-195236185D01*
X197815170Y-195236185D02*
X197886599Y-195164757D01*
X197886599Y-195164757D02*
X198029456Y-195093328D01*
D10*
D11*
X177002200Y-191507200D02*
X285002200Y-191507200D01*
D10*
D12*
X264413853Y-193785528D02*
X263913853Y-193071242D01*
X263556710Y-193785528D02*
X263556710Y-192285528D01*
X263556710Y-192285528D02*
X264128139Y-192285528D01*
X264128139Y-192285528D02*
X264270996Y-192356957D01*
X264270996Y-192356957D02*
X264342425Y-192428385D01*
X264342425Y-192428385D02*
X264413853Y-192571242D01*
X264413853Y-192571242D02*
X264413853Y-192785528D01*
X264413853Y-192785528D02*
X264342425Y-192928385D01*
X264342425Y-192928385D02*
X264270996Y-192999814D01*
X264270996Y-192999814D02*
X264128139Y-193071242D01*
X264128139Y-193071242D02*
X263556710Y-193071242D01*
X265628139Y-193714100D02*
X265485282Y-193785528D01*
X265485282Y-193785528D02*
X265199568Y-193785528D01*
X265199568Y-193785528D02*
X265056710Y-193714100D01*
X265056710Y-193714100D02*
X264985282Y-193571242D01*
X264985282Y-193571242D02*
X264985282Y-192999814D01*
X264985282Y-192999814D02*
X265056710Y-192856957D01*
X265056710Y-192856957D02*
X265199568Y-192785528D01*
X265199568Y-192785528D02*
X265485282Y-192785528D01*
X265485282Y-192785528D02*
X265628139Y-192856957D01*
X265628139Y-192856957D02*
X265699568Y-192999814D01*
X265699568Y-192999814D02*
X265699568Y-193142671D01*
X265699568Y-193142671D02*
X264985282Y-193285528D01*
X266199567Y-192785528D02*
X266556710Y-193785528D01*
X266556710Y-193785528D02*
X266913853Y-192785528D01*
X267485281Y-193642671D02*
X267556710Y-193714100D01*
X267556710Y-193714100D02*
X267485281Y-193785528D01*
X267485281Y-193785528D02*
X267413853Y-193714100D01*
X267413853Y-193714100D02*
X267485281Y-193642671D01*
X267485281Y-193642671D02*
X267485281Y-193785528D01*
X267485281Y-192856957D02*
X267556710Y-192928385D01*
X267556710Y-192928385D02*
X267485281Y-192999814D01*
X267485281Y-192999814D02*
X267413853Y-192928385D01*
X267413853Y-192928385D02*
X267485281Y-192856957D01*
X267485281Y-192856957D02*
X267485281Y-192999814D01*
D10*
D11*
X178386598Y-193721900D02*
X178600884Y-193793328D01*
X178600884Y-193793328D02*
X178958026Y-193793328D01*
X178958026Y-193793328D02*
X179100884Y-193721900D01*
X179100884Y-193721900D02*
X179172312Y-193650471D01*
X179172312Y-193650471D02*
X179243741Y-193507614D01*
X179243741Y-193507614D02*
X179243741Y-193364757D01*
X179243741Y-193364757D02*
X179172312Y-193221900D01*
X179172312Y-193221900D02*
X179100884Y-193150471D01*
X179100884Y-193150471D02*
X178958026Y-193079042D01*
X178958026Y-193079042D02*
X178672312Y-193007614D01*
X178672312Y-193007614D02*
X178529455Y-192936185D01*
X178529455Y-192936185D02*
X178458026Y-192864757D01*
X178458026Y-192864757D02*
X178386598Y-192721900D01*
X178386598Y-192721900D02*
X178386598Y-192579042D01*
X178386598Y-192579042D02*
X178458026Y-192436185D01*
X178458026Y-192436185D02*
X178529455Y-192364757D01*
X178529455Y-192364757D02*
X178672312Y-192293328D01*
X178672312Y-192293328D02*
X179029455Y-192293328D01*
X179029455Y-192293328D02*
X179243741Y-192364757D01*
X179886597Y-193793328D02*
X179886597Y-192793328D01*
X179886597Y-192293328D02*
X179815169Y-192364757D01*
X179815169Y-192364757D02*
X179886597Y-192436185D01*
X179886597Y-192436185D02*
X179958026Y-192364757D01*
X179958026Y-192364757D02*
X179886597Y-192293328D01*
X179886597Y-192293328D02*
X179886597Y-192436185D01*
X180458026Y-192793328D02*
X181243741Y-192793328D01*
X181243741Y-192793328D02*
X180458026Y-193793328D01*
X180458026Y-193793328D02*
X181243741Y-193793328D01*
X182386598Y-193721900D02*
X182243741Y-193793328D01*
X182243741Y-193793328D02*
X181958027Y-193793328D01*
X181958027Y-193793328D02*
X181815169Y-193721900D01*
X181815169Y-193721900D02*
X181743741Y-193579042D01*
X181743741Y-193579042D02*
X181743741Y-193007614D01*
X181743741Y-193007614D02*
X181815169Y-192864757D01*
X181815169Y-192864757D02*
X181958027Y-192793328D01*
X181958027Y-192793328D02*
X182243741Y-192793328D01*
X182243741Y-192793328D02*
X182386598Y-192864757D01*
X182386598Y-192864757D02*
X182458027Y-193007614D01*
X182458027Y-193007614D02*
X182458027Y-193150471D01*
X182458027Y-193150471D02*
X181743741Y-193293328D01*
X183100883Y-193650471D02*
X183172312Y-193721900D01*
X183172312Y-193721900D02*
X183100883Y-193793328D01*
X183100883Y-193793328D02*
X183029455Y-193721900D01*
X183029455Y-193721900D02*
X183100883Y-193650471D01*
X183100883Y-193650471D02*
X183100883Y-193793328D01*
X183100883Y-192864757D02*
X183172312Y-192936185D01*
X183172312Y-192936185D02*
X183100883Y-193007614D01*
X183100883Y-193007614D02*
X183029455Y-192936185D01*
X183029455Y-192936185D02*
X183100883Y-192864757D01*
X183100883Y-192864757D02*
X183100883Y-193007614D01*
X184886598Y-193364757D02*
X185600884Y-193364757D01*
X184743741Y-193793328D02*
X185243741Y-192293328D01*
X185243741Y-192293328D02*
X185743741Y-193793328D01*
X186886598Y-192793328D02*
X186886598Y-193793328D01*
X186529455Y-192221900D02*
X186172312Y-193293328D01*
X186172312Y-193293328D02*
X187100883Y-193293328D01*
D10*
D11*
X263458026Y-196593328D02*
X263458026Y-195093328D01*
X264815170Y-196593328D02*
X264815170Y-195093328D01*
X264815170Y-196521900D02*
X264672312Y-196593328D01*
X264672312Y-196593328D02*
X264386598Y-196593328D01*
X264386598Y-196593328D02*
X264243741Y-196521900D01*
X264243741Y-196521900D02*
X264172312Y-196450471D01*
X264172312Y-196450471D02*
X264100884Y-196307614D01*
X264100884Y-196307614D02*
X264100884Y-195879042D01*
X264100884Y-195879042D02*
X264172312Y-195736185D01*
X264172312Y-195736185D02*
X264243741Y-195664757D01*
X264243741Y-195664757D02*
X264386598Y-195593328D01*
X264386598Y-195593328D02*
X264672312Y-195593328D01*
X264672312Y-195593328D02*
X264815170Y-195664757D01*
X265529455Y-196450471D02*
X265600884Y-196521900D01*
X265600884Y-196521900D02*
X265529455Y-196593328D01*
X265529455Y-196593328D02*
X265458027Y-196521900D01*
X265458027Y-196521900D02*
X265529455Y-196450471D01*
X265529455Y-196450471D02*
X265529455Y-196593328D01*
X265529455Y-195664757D02*
X265600884Y-195736185D01*
X265600884Y-195736185D02*
X265529455Y-195807614D01*
X265529455Y-195807614D02*
X265458027Y-195736185D01*
X265458027Y-195736185D02*
X265529455Y-195664757D01*
X265529455Y-195664757D02*
X265529455Y-195807614D01*
X268029456Y-195593328D02*
X268029456Y-196593328D01*
X267672313Y-195021900D02*
X267315170Y-196093328D01*
X267315170Y-196093328D02*
X268243741Y-196093328D01*
X269886598Y-195021900D02*
X268600884Y-196950471D01*
X270600884Y-195736185D02*
X270458027Y-195664757D01*
X270458027Y-195664757D02*
X270386598Y-195593328D01*
X270386598Y-195593328D02*
X270315170Y-195450471D01*
X270315170Y-195450471D02*
X270315170Y-195379042D01*
X270315170Y-195379042D02*
X270386598Y-195236185D01*
X270386598Y-195236185D02*
X270458027Y-195164757D01*
X270458027Y-195164757D02*
X270600884Y-195093328D01*
X270600884Y-195093328D02*
X270886598Y-195093328D01*
X270886598Y-195093328D02*
X271029456Y-195164757D01*
X271029456Y-195164757D02*
X271100884Y-195236185D01*
X271100884Y-195236185D02*
X271172313Y-195379042D01*
X271172313Y-195379042D02*
X271172313Y-195450471D01*
X271172313Y-195450471D02*
X271100884Y-195593328D01*
X271100884Y-195593328D02*
X271029456Y-195664757D01*
X271029456Y-195664757D02*
X270886598Y-195736185D01*
X270886598Y-195736185D02*
X270600884Y-195736185D01*
X270600884Y-195736185D02*
X270458027Y-195807614D01*
X270458027Y-195807614D02*
X270386598Y-195879042D01*
X270386598Y-195879042D02*
X270315170Y-196021900D01*
X270315170Y-196021900D02*
X270315170Y-196307614D01*
X270315170Y-196307614D02*
X270386598Y-196450471D01*
X270386598Y-196450471D02*
X270458027Y-196521900D01*
X270458027Y-196521900D02*
X270600884Y-196593328D01*
X270600884Y-196593328D02*
X270886598Y-196593328D01*
X270886598Y-196593328D02*
X271029456Y-196521900D01*
X271029456Y-196521900D02*
X271100884Y-196450471D01*
X271100884Y-196450471D02*
X271172313Y-196307614D01*
X271172313Y-196307614D02*
X271172313Y-196021900D01*
X271172313Y-196021900D02*
X271100884Y-195879042D01*
X271100884Y-195879042D02*
X271029456Y-195807614D01*
X271029456Y-195807614D02*
X270886598Y-195736185D01*
D10*
D11*
X177002200Y-187507200D02*
X285002200Y-187507200D01*
D10*
D13*
X178693928Y-188211638D02*
X179836785Y-188211638D01*
X179015357Y-190211638D02*
X179265357Y-188211638D01*
X180253452Y-190211638D02*
X180420119Y-188878304D01*
X180503452Y-188211638D02*
X180396309Y-188306876D01*
X180396309Y-188306876D02*
X180479643Y-188402114D01*
X180479643Y-188402114D02*
X180586786Y-188306876D01*
X180586786Y-188306876D02*
X180503452Y-188211638D01*
X180503452Y-188211638D02*
X180479643Y-188402114D01*
X181086786Y-188878304D02*
X181848690Y-188878304D01*
X181455833Y-188211638D02*
X181241548Y-189925923D01*
X181241548Y-189925923D02*
X181312976Y-190116400D01*
X181312976Y-190116400D02*
X181491548Y-190211638D01*
X181491548Y-190211638D02*
X181682024Y-190211638D01*
X182634405Y-190211638D02*
X182455833Y-190116400D01*
X182455833Y-190116400D02*
X182384405Y-189925923D01*
X182384405Y-189925923D02*
X182598690Y-188211638D01*
X184170119Y-190116400D02*
X183967738Y-190211638D01*
X183967738Y-190211638D02*
X183586785Y-190211638D01*
X183586785Y-190211638D02*
X183408214Y-190116400D01*
X183408214Y-190116400D02*
X183336785Y-189925923D01*
X183336785Y-189925923D02*
X183432024Y-189164019D01*
X183432024Y-189164019D02*
X183551071Y-188973542D01*
X183551071Y-188973542D02*
X183753452Y-188878304D01*
X183753452Y-188878304D02*
X184134404Y-188878304D01*
X184134404Y-188878304D02*
X184312976Y-188973542D01*
X184312976Y-188973542D02*
X184384404Y-189164019D01*
X184384404Y-189164019D02*
X184360595Y-189354495D01*
X184360595Y-189354495D02*
X183384404Y-189544971D01*
X185134405Y-190021161D02*
X185217738Y-190116400D01*
X185217738Y-190116400D02*
X185110595Y-190211638D01*
X185110595Y-190211638D02*
X185027262Y-190116400D01*
X185027262Y-190116400D02*
X185134405Y-190021161D01*
X185134405Y-190021161D02*
X185110595Y-190211638D01*
X185265357Y-188973542D02*
X185348690Y-189068780D01*
X185348690Y-189068780D02*
X185241548Y-189164019D01*
X185241548Y-189164019D02*
X185158214Y-189068780D01*
X185158214Y-189068780D02*
X185265357Y-188973542D01*
X185265357Y-188973542D02*
X185241548Y-189164019D01*
D10*
D11*
X178958026Y-185607614D02*
X178458026Y-185607614D01*
X178458026Y-186393328D02*
X178458026Y-184893328D01*
X178458026Y-184893328D02*
X179172312Y-184893328D01*
X179743740Y-186393328D02*
X179743740Y-185393328D01*
X179743740Y-184893328D02*
X179672312Y-184964757D01*
X179672312Y-184964757D02*
X179743740Y-185036185D01*
X179743740Y-185036185D02*
X179815169Y-184964757D01*
X179815169Y-184964757D02*
X179743740Y-184893328D01*
X179743740Y-184893328D02*
X179743740Y-185036185D01*
X180672312Y-186393328D02*
X180529455Y-186321900D01*
X180529455Y-186321900D02*
X180458026Y-186179042D01*
X180458026Y-186179042D02*
X180458026Y-184893328D01*
X181815169Y-186321900D02*
X181672312Y-186393328D01*
X181672312Y-186393328D02*
X181386598Y-186393328D01*
X181386598Y-186393328D02*
X181243740Y-186321900D01*
X181243740Y-186321900D02*
X181172312Y-186179042D01*
X181172312Y-186179042D02*
X181172312Y-185607614D01*
X181172312Y-185607614D02*
X181243740Y-185464757D01*
X181243740Y-185464757D02*
X181386598Y-185393328D01*
X181386598Y-185393328D02*
X181672312Y-185393328D01*
X181672312Y-185393328D02*
X181815169Y-185464757D01*
X181815169Y-185464757D02*
X181886598Y-185607614D01*
X181886598Y-185607614D02*
X181886598Y-185750471D01*
X181886598Y-185750471D02*
X181172312Y-185893328D01*
X182529454Y-186250471D02*
X182600883Y-186321900D01*
X182600883Y-186321900D02*
X182529454Y-186393328D01*
X182529454Y-186393328D02*
X182458026Y-186321900D01*
X182458026Y-186321900D02*
X182529454Y-186250471D01*
X182529454Y-186250471D02*
X182529454Y-186393328D01*
X182529454Y-185464757D02*
X182600883Y-185536185D01*
X182600883Y-185536185D02*
X182529454Y-185607614D01*
X182529454Y-185607614D02*
X182458026Y-185536185D01*
X182458026Y-185536185D02*
X182529454Y-185464757D01*
X182529454Y-185464757D02*
X182529454Y-185607614D01*
X184315169Y-186321900D02*
X184529455Y-186393328D01*
X184529455Y-186393328D02*
X184886597Y-186393328D01*
X184886597Y-186393328D02*
X185029455Y-186321900D01*
X185029455Y-186321900D02*
X185100883Y-186250471D01*
X185100883Y-186250471D02*
X185172312Y-186107614D01*
X185172312Y-186107614D02*
X185172312Y-185964757D01*
X185172312Y-185964757D02*
X185100883Y-185821900D01*
X185100883Y-185821900D02*
X185029455Y-185750471D01*
X185029455Y-185750471D02*
X184886597Y-185679042D01*
X184886597Y-185679042D02*
X184600883Y-185607614D01*
X184600883Y-185607614D02*
X184458026Y-185536185D01*
X184458026Y-185536185D02*
X184386597Y-185464757D01*
X184386597Y-185464757D02*
X184315169Y-185321900D01*
X184315169Y-185321900D02*
X184315169Y-185179042D01*
X184315169Y-185179042D02*
X184386597Y-185036185D01*
X184386597Y-185036185D02*
X184458026Y-184964757D01*
X184458026Y-184964757D02*
X184600883Y-184893328D01*
X184600883Y-184893328D02*
X184958026Y-184893328D01*
X184958026Y-184893328D02*
X185172312Y-184964757D01*
X186029454Y-186393328D02*
X185886597Y-186321900D01*
X185886597Y-186321900D02*
X185815168Y-186250471D01*
X185815168Y-186250471D02*
X185743740Y-186107614D01*
X185743740Y-186107614D02*
X185743740Y-185679042D01*
X185743740Y-185679042D02*
X185815168Y-185536185D01*
X185815168Y-185536185D02*
X185886597Y-185464757D01*
X185886597Y-185464757D02*
X186029454Y-185393328D01*
X186029454Y-185393328D02*
X186243740Y-185393328D01*
X186243740Y-185393328D02*
X186386597Y-185464757D01*
X186386597Y-185464757D02*
X186458026Y-185536185D01*
X186458026Y-185536185D02*
X186529454Y-185679042D01*
X186529454Y-185679042D02*
X186529454Y-186107614D01*
X186529454Y-186107614D02*
X186458026Y-186250471D01*
X186458026Y-186250471D02*
X186386597Y-186321900D01*
X186386597Y-186321900D02*
X186243740Y-186393328D01*
X186243740Y-186393328D02*
X186029454Y-186393328D01*
X187172311Y-185393328D02*
X187172311Y-186393328D01*
X187172311Y-185536185D02*
X187243740Y-185464757D01*
X187243740Y-185464757D02*
X187386597Y-185393328D01*
X187386597Y-185393328D02*
X187600883Y-185393328D01*
X187600883Y-185393328D02*
X187743740Y-185464757D01*
X187743740Y-185464757D02*
X187815169Y-185607614D01*
X187815169Y-185607614D02*
X187815169Y-186393328D01*
X189172312Y-186393328D02*
X189172312Y-184893328D01*
X189172312Y-186321900D02*
X189029454Y-186393328D01*
X189029454Y-186393328D02*
X188743740Y-186393328D01*
X188743740Y-186393328D02*
X188600883Y-186321900D01*
X188600883Y-186321900D02*
X188529454Y-186250471D01*
X188529454Y-186250471D02*
X188458026Y-186107614D01*
X188458026Y-186107614D02*
X188458026Y-185679042D01*
X188458026Y-185679042D02*
X188529454Y-185536185D01*
X188529454Y-185536185D02*
X188600883Y-185464757D01*
X188600883Y-185464757D02*
X188743740Y-185393328D01*
X188743740Y-185393328D02*
X189029454Y-185393328D01*
X189029454Y-185393328D02*
X189172312Y-185464757D01*
X190529455Y-186393328D02*
X190529455Y-185607614D01*
X190529455Y-185607614D02*
X190458026Y-185464757D01*
X190458026Y-185464757D02*
X190315169Y-185393328D01*
X190315169Y-185393328D02*
X190029455Y-185393328D01*
X190029455Y-185393328D02*
X189886597Y-185464757D01*
X190529455Y-186321900D02*
X190386597Y-186393328D01*
X190386597Y-186393328D02*
X190029455Y-186393328D01*
X190029455Y-186393328D02*
X189886597Y-186321900D01*
X189886597Y-186321900D02*
X189815169Y-186179042D01*
X189815169Y-186179042D02*
X189815169Y-186036185D01*
X189815169Y-186036185D02*
X189886597Y-185893328D01*
X189886597Y-185893328D02*
X190029455Y-185821900D01*
X190029455Y-185821900D02*
X190386597Y-185821900D01*
X190386597Y-185821900D02*
X190529455Y-185750471D01*
X190886598Y-186536185D02*
X192029455Y-186536185D01*
X192243740Y-185393328D02*
X192529455Y-186393328D01*
X192529455Y-186393328D02*
X192815169Y-185679042D01*
X192815169Y-185679042D02*
X193100883Y-186393328D01*
X193100883Y-186393328D02*
X193386597Y-185393328D01*
X193600884Y-186536185D02*
X194743741Y-186536185D01*
X195743741Y-186321900D02*
X195600883Y-186393328D01*
X195600883Y-186393328D02*
X195315169Y-186393328D01*
X195315169Y-186393328D02*
X195172312Y-186321900D01*
X195172312Y-186321900D02*
X195100883Y-186250471D01*
X195100883Y-186250471D02*
X195029455Y-186107614D01*
X195029455Y-186107614D02*
X195029455Y-185679042D01*
X195029455Y-185679042D02*
X195100883Y-185536185D01*
X195100883Y-185536185D02*
X195172312Y-185464757D01*
X195172312Y-185464757D02*
X195315169Y-185393328D01*
X195315169Y-185393328D02*
X195600883Y-185393328D01*
X195600883Y-185393328D02*
X195743741Y-185464757D01*
X196243740Y-185393328D02*
X197029455Y-185393328D01*
X197029455Y-185393328D02*
X196243740Y-186393328D01*
X196243740Y-186393328D02*
X197029455Y-186393328D01*
X197600883Y-186250471D02*
X197672312Y-186321900D01*
X197672312Y-186321900D02*
X197600883Y-186393328D01*
X197600883Y-186393328D02*
X197529455Y-186321900D01*
X197529455Y-186321900D02*
X197600883Y-186250471D01*
X197600883Y-186250471D02*
X197600883Y-186393328D01*
X198315169Y-186393328D02*
X198315169Y-184893328D01*
X198458027Y-185821900D02*
X198886598Y-186393328D01*
X198886598Y-185393328D02*
X198315169Y-185964757D01*
X199529455Y-186393328D02*
X199529455Y-185393328D01*
X199529455Y-184893328D02*
X199458027Y-184964757D01*
X199458027Y-184964757D02*
X199529455Y-185036185D01*
X199529455Y-185036185D02*
X199600884Y-184964757D01*
X199600884Y-184964757D02*
X199529455Y-184893328D01*
X199529455Y-184893328D02*
X199529455Y-185036185D01*
X200886599Y-186321900D02*
X200743741Y-186393328D01*
X200743741Y-186393328D02*
X200458027Y-186393328D01*
X200458027Y-186393328D02*
X200315170Y-186321900D01*
X200315170Y-186321900D02*
X200243741Y-186250471D01*
X200243741Y-186250471D02*
X200172313Y-186107614D01*
X200172313Y-186107614D02*
X200172313Y-185679042D01*
X200172313Y-185679042D02*
X200243741Y-185536185D01*
X200243741Y-185536185D02*
X200315170Y-185464757D01*
X200315170Y-185464757D02*
X200458027Y-185393328D01*
X200458027Y-185393328D02*
X200743741Y-185393328D01*
X200743741Y-185393328D02*
X200886599Y-185464757D01*
X202172313Y-186393328D02*
X202172313Y-185607614D01*
X202172313Y-185607614D02*
X202100884Y-185464757D01*
X202100884Y-185464757D02*
X201958027Y-185393328D01*
X201958027Y-185393328D02*
X201672313Y-185393328D01*
X201672313Y-185393328D02*
X201529455Y-185464757D01*
X202172313Y-186321900D02*
X202029455Y-186393328D01*
X202029455Y-186393328D02*
X201672313Y-186393328D01*
X201672313Y-186393328D02*
X201529455Y-186321900D01*
X201529455Y-186321900D02*
X201458027Y-186179042D01*
X201458027Y-186179042D02*
X201458027Y-186036185D01*
X201458027Y-186036185D02*
X201529455Y-185893328D01*
X201529455Y-185893328D02*
X201672313Y-185821900D01*
X201672313Y-185821900D02*
X202029455Y-185821900D01*
X202029455Y-185821900D02*
X202172313Y-185750471D01*
X203529456Y-186393328D02*
X203529456Y-184893328D01*
X203529456Y-186321900D02*
X203386598Y-186393328D01*
X203386598Y-186393328D02*
X203100884Y-186393328D01*
X203100884Y-186393328D02*
X202958027Y-186321900D01*
X202958027Y-186321900D02*
X202886598Y-186250471D01*
X202886598Y-186250471D02*
X202815170Y-186107614D01*
X202815170Y-186107614D02*
X202815170Y-185679042D01*
X202815170Y-185679042D02*
X202886598Y-185536185D01*
X202886598Y-185536185D02*
X202958027Y-185464757D01*
X202958027Y-185464757D02*
X203100884Y-185393328D01*
X203100884Y-185393328D02*
X203386598Y-185393328D01*
X203386598Y-185393328D02*
X203529456Y-185464757D01*
X204172313Y-185036185D02*
X204243741Y-184964757D01*
X204243741Y-184964757D02*
X204386599Y-184893328D01*
X204386599Y-184893328D02*
X204743741Y-184893328D01*
X204743741Y-184893328D02*
X204886599Y-184964757D01*
X204886599Y-184964757D02*
X204958027Y-185036185D01*
X204958027Y-185036185D02*
X205029456Y-185179042D01*
X205029456Y-185179042D02*
X205029456Y-185321900D01*
X205029456Y-185321900D02*
X204958027Y-185536185D01*
X204958027Y-185536185D02*
X204100884Y-186393328D01*
X204100884Y-186393328D02*
X205029456Y-186393328D01*
X205315170Y-186536185D02*
X206458027Y-186536185D01*
X206815169Y-185393328D02*
X206815169Y-186893328D01*
X206815169Y-185464757D02*
X206958027Y-185393328D01*
X206958027Y-185393328D02*
X207243741Y-185393328D01*
X207243741Y-185393328D02*
X207386598Y-185464757D01*
X207386598Y-185464757D02*
X207458027Y-185536185D01*
X207458027Y-185536185D02*
X207529455Y-185679042D01*
X207529455Y-185679042D02*
X207529455Y-186107614D01*
X207529455Y-186107614D02*
X207458027Y-186250471D01*
X207458027Y-186250471D02*
X207386598Y-186321900D01*
X207386598Y-186321900D02*
X207243741Y-186393328D01*
X207243741Y-186393328D02*
X206958027Y-186393328D01*
X206958027Y-186393328D02*
X206815169Y-186321900D01*
X208815170Y-186321900D02*
X208672312Y-186393328D01*
X208672312Y-186393328D02*
X208386598Y-186393328D01*
X208386598Y-186393328D02*
X208243741Y-186321900D01*
X208243741Y-186321900D02*
X208172312Y-186250471D01*
X208172312Y-186250471D02*
X208100884Y-186107614D01*
X208100884Y-186107614D02*
X208100884Y-185679042D01*
X208100884Y-185679042D02*
X208172312Y-185536185D01*
X208172312Y-185536185D02*
X208243741Y-185464757D01*
X208243741Y-185464757D02*
X208386598Y-185393328D01*
X208386598Y-185393328D02*
X208672312Y-185393328D01*
X208672312Y-185393328D02*
X208815170Y-185464757D01*
X209458026Y-186393328D02*
X209458026Y-184893328D01*
X209458026Y-185464757D02*
X209600884Y-185393328D01*
X209600884Y-185393328D02*
X209886598Y-185393328D01*
X209886598Y-185393328D02*
X210029455Y-185464757D01*
X210029455Y-185464757D02*
X210100884Y-185536185D01*
X210100884Y-185536185D02*
X210172312Y-185679042D01*
X210172312Y-185679042D02*
X210172312Y-186107614D01*
X210172312Y-186107614D02*
X210100884Y-186250471D01*
X210100884Y-186250471D02*
X210029455Y-186321900D01*
X210029455Y-186321900D02*
X209886598Y-186393328D01*
X209886598Y-186393328D02*
X209600884Y-186393328D01*
X209600884Y-186393328D02*
X209458026Y-186321900D01*
X210815169Y-186250471D02*
X210886598Y-186321900D01*
X210886598Y-186321900D02*
X210815169Y-186393328D01*
X210815169Y-186393328D02*
X210743741Y-186321900D01*
X210743741Y-186321900D02*
X210815169Y-186250471D01*
X210815169Y-186250471D02*
X210815169Y-186393328D01*
X211529455Y-186393328D02*
X211529455Y-184893328D01*
X211672313Y-185821900D02*
X212100884Y-186393328D01*
X212100884Y-185393328D02*
X211529455Y-185964757D01*
X212743741Y-186393328D02*
X212743741Y-185393328D01*
X212743741Y-184893328D02*
X212672313Y-184964757D01*
X212672313Y-184964757D02*
X212743741Y-185036185D01*
X212743741Y-185036185D02*
X212815170Y-184964757D01*
X212815170Y-184964757D02*
X212743741Y-184893328D01*
X212743741Y-184893328D02*
X212743741Y-185036185D01*
X214100885Y-186321900D02*
X213958027Y-186393328D01*
X213958027Y-186393328D02*
X213672313Y-186393328D01*
X213672313Y-186393328D02*
X213529456Y-186321900D01*
X213529456Y-186321900D02*
X213458027Y-186250471D01*
X213458027Y-186250471D02*
X213386599Y-186107614D01*
X213386599Y-186107614D02*
X213386599Y-185679042D01*
X213386599Y-185679042D02*
X213458027Y-185536185D01*
X213458027Y-185536185D02*
X213529456Y-185464757D01*
X213529456Y-185464757D02*
X213672313Y-185393328D01*
X213672313Y-185393328D02*
X213958027Y-185393328D01*
X213958027Y-185393328D02*
X214100885Y-185464757D01*
X215386599Y-186393328D02*
X215386599Y-185607614D01*
X215386599Y-185607614D02*
X215315170Y-185464757D01*
X215315170Y-185464757D02*
X215172313Y-185393328D01*
X215172313Y-185393328D02*
X214886599Y-185393328D01*
X214886599Y-185393328D02*
X214743741Y-185464757D01*
X215386599Y-186321900D02*
X215243741Y-186393328D01*
X215243741Y-186393328D02*
X214886599Y-186393328D01*
X214886599Y-186393328D02*
X214743741Y-186321900D01*
X214743741Y-186321900D02*
X214672313Y-186179042D01*
X214672313Y-186179042D02*
X214672313Y-186036185D01*
X214672313Y-186036185D02*
X214743741Y-185893328D01*
X214743741Y-185893328D02*
X214886599Y-185821900D01*
X214886599Y-185821900D02*
X215243741Y-185821900D01*
X215243741Y-185821900D02*
X215386599Y-185750471D01*
X216743742Y-186393328D02*
X216743742Y-184893328D01*
X216743742Y-186321900D02*
X216600884Y-186393328D01*
X216600884Y-186393328D02*
X216315170Y-186393328D01*
X216315170Y-186393328D02*
X216172313Y-186321900D01*
X216172313Y-186321900D02*
X216100884Y-186250471D01*
X216100884Y-186250471D02*
X216029456Y-186107614D01*
X216029456Y-186107614D02*
X216029456Y-185679042D01*
X216029456Y-185679042D02*
X216100884Y-185536185D01*
X216100884Y-185536185D02*
X216172313Y-185464757D01*
X216172313Y-185464757D02*
X216315170Y-185393328D01*
X216315170Y-185393328D02*
X216600884Y-185393328D01*
X216600884Y-185393328D02*
X216743742Y-185464757D01*
X217100885Y-186536185D02*
X218243742Y-186536185D01*
X218600884Y-185393328D02*
X218600884Y-186893328D01*
X218600884Y-185464757D02*
X218743742Y-185393328D01*
X218743742Y-185393328D02*
X219029456Y-185393328D01*
X219029456Y-185393328D02*
X219172313Y-185464757D01*
X219172313Y-185464757D02*
X219243742Y-185536185D01*
X219243742Y-185536185D02*
X219315170Y-185679042D01*
X219315170Y-185679042D02*
X219315170Y-186107614D01*
X219315170Y-186107614D02*
X219243742Y-186250471D01*
X219243742Y-186250471D02*
X219172313Y-186321900D01*
X219172313Y-186321900D02*
X219029456Y-186393328D01*
X219029456Y-186393328D02*
X218743742Y-186393328D01*
X218743742Y-186393328D02*
X218600884Y-186321900D01*
X220600885Y-186321900D02*
X220458027Y-186393328D01*
X220458027Y-186393328D02*
X220172313Y-186393328D01*
X220172313Y-186393328D02*
X220029456Y-186321900D01*
X220029456Y-186321900D02*
X219958027Y-186250471D01*
X219958027Y-186250471D02*
X219886599Y-186107614D01*
X219886599Y-186107614D02*
X219886599Y-185679042D01*
X219886599Y-185679042D02*
X219958027Y-185536185D01*
X219958027Y-185536185D02*
X220029456Y-185464757D01*
X220029456Y-185464757D02*
X220172313Y-185393328D01*
X220172313Y-185393328D02*
X220458027Y-185393328D01*
X220458027Y-185393328D02*
X220600885Y-185464757D01*
X221243741Y-186393328D02*
X221243741Y-184893328D01*
X221243741Y-185464757D02*
X221386599Y-185393328D01*
X221386599Y-185393328D02*
X221672313Y-185393328D01*
X221672313Y-185393328D02*
X221815170Y-185464757D01*
X221815170Y-185464757D02*
X221886599Y-185536185D01*
X221886599Y-185536185D02*
X221958027Y-185679042D01*
X221958027Y-185679042D02*
X221958027Y-186107614D01*
X221958027Y-186107614D02*
X221886599Y-186250471D01*
X221886599Y-186250471D02*
X221815170Y-186321900D01*
X221815170Y-186321900D02*
X221672313Y-186393328D01*
X221672313Y-186393328D02*
X221386599Y-186393328D01*
X221386599Y-186393328D02*
X221243741Y-186321900D01*
D10*
D11*
X177002200Y-181507200D02*
X285002200Y-181507200D01*
D10*
D11*
X178386598Y-183621900D02*
X178600884Y-183693328D01*
X178600884Y-183693328D02*
X178958026Y-183693328D01*
X178958026Y-183693328D02*
X179100884Y-183621900D01*
X179100884Y-183621900D02*
X179172312Y-183550471D01*
X179172312Y-183550471D02*
X179243741Y-183407614D01*
X179243741Y-183407614D02*
X179243741Y-183264757D01*
X179243741Y-183264757D02*
X179172312Y-183121900D01*
X179172312Y-183121900D02*
X179100884Y-183050471D01*
X179100884Y-183050471D02*
X178958026Y-182979042D01*
X178958026Y-182979042D02*
X178672312Y-182907614D01*
X178672312Y-182907614D02*
X178529455Y-182836185D01*
X178529455Y-182836185D02*
X178458026Y-182764757D01*
X178458026Y-182764757D02*
X178386598Y-182621900D01*
X178386598Y-182621900D02*
X178386598Y-182479042D01*
X178386598Y-182479042D02*
X178458026Y-182336185D01*
X178458026Y-182336185D02*
X178529455Y-182264757D01*
X178529455Y-182264757D02*
X178672312Y-182193328D01*
X178672312Y-182193328D02*
X179029455Y-182193328D01*
X179029455Y-182193328D02*
X179243741Y-182264757D01*
X179886597Y-183693328D02*
X179886597Y-182193328D01*
X180529455Y-183693328D02*
X180529455Y-182907614D01*
X180529455Y-182907614D02*
X180458026Y-182764757D01*
X180458026Y-182764757D02*
X180315169Y-182693328D01*
X180315169Y-182693328D02*
X180100883Y-182693328D01*
X180100883Y-182693328D02*
X179958026Y-182764757D01*
X179958026Y-182764757D02*
X179886597Y-182836185D01*
X181815169Y-183621900D02*
X181672312Y-183693328D01*
X181672312Y-183693328D02*
X181386598Y-183693328D01*
X181386598Y-183693328D02*
X181243740Y-183621900D01*
X181243740Y-183621900D02*
X181172312Y-183479042D01*
X181172312Y-183479042D02*
X181172312Y-182907614D01*
X181172312Y-182907614D02*
X181243740Y-182764757D01*
X181243740Y-182764757D02*
X181386598Y-182693328D01*
X181386598Y-182693328D02*
X181672312Y-182693328D01*
X181672312Y-182693328D02*
X181815169Y-182764757D01*
X181815169Y-182764757D02*
X181886598Y-182907614D01*
X181886598Y-182907614D02*
X181886598Y-183050471D01*
X181886598Y-183050471D02*
X181172312Y-183193328D01*
X183100883Y-183621900D02*
X182958026Y-183693328D01*
X182958026Y-183693328D02*
X182672312Y-183693328D01*
X182672312Y-183693328D02*
X182529454Y-183621900D01*
X182529454Y-183621900D02*
X182458026Y-183479042D01*
X182458026Y-183479042D02*
X182458026Y-182907614D01*
X182458026Y-182907614D02*
X182529454Y-182764757D01*
X182529454Y-182764757D02*
X182672312Y-182693328D01*
X182672312Y-182693328D02*
X182958026Y-182693328D01*
X182958026Y-182693328D02*
X183100883Y-182764757D01*
X183100883Y-182764757D02*
X183172312Y-182907614D01*
X183172312Y-182907614D02*
X183172312Y-183050471D01*
X183172312Y-183050471D02*
X182458026Y-183193328D01*
X183600883Y-182693328D02*
X184172311Y-182693328D01*
X183815168Y-182193328D02*
X183815168Y-183479042D01*
X183815168Y-183479042D02*
X183886597Y-183621900D01*
X183886597Y-183621900D02*
X184029454Y-183693328D01*
X184029454Y-183693328D02*
X184172311Y-183693328D01*
X184672311Y-183550471D02*
X184743740Y-183621900D01*
X184743740Y-183621900D02*
X184672311Y-183693328D01*
X184672311Y-183693328D02*
X184600883Y-183621900D01*
X184600883Y-183621900D02*
X184672311Y-183550471D01*
X184672311Y-183550471D02*
X184672311Y-183693328D01*
X184672311Y-182764757D02*
X184743740Y-182836185D01*
X184743740Y-182836185D02*
X184672311Y-182907614D01*
X184672311Y-182907614D02*
X184600883Y-182836185D01*
X184600883Y-182836185D02*
X184672311Y-182764757D01*
X184672311Y-182764757D02*
X184672311Y-182907614D01*
D10*
D11*
X197002200Y-191507200D02*
X197002200Y-194507200D01*
D10*
D11*
X261002200Y-191507200D02*
X261002200Y-198007200D01*
X138018570Y-106734819D02*
X138018570Y-105734819D01*
X137542380Y-106734819D02*
X137542380Y-105734819D01*
X137542380Y-105734819D02*
X136970952Y-106734819D01*
X136970952Y-106734819D02*
X136970952Y-105734819D01*
X136494761Y-106734819D02*
X136494761Y-105734819D01*
X136494761Y-105734819D02*
X136113809Y-105734819D01*
X136113809Y-105734819D02*
X136018571Y-105782438D01*
X136018571Y-105782438D02*
X135970952Y-105830057D01*
X135970952Y-105830057D02*
X135923333Y-105925295D01*
X135923333Y-105925295D02*
X135923333Y-106068152D01*
X135923333Y-106068152D02*
X135970952Y-106163390D01*
X135970952Y-106163390D02*
X136018571Y-106211009D01*
X136018571Y-106211009D02*
X136113809Y-106258628D01*
X136113809Y-106258628D02*
X136494761Y-106258628D01*
X135494761Y-105734819D02*
X135494761Y-106544342D01*
X135494761Y-106544342D02*
X135447142Y-106639580D01*
X135447142Y-106639580D02*
X135399523Y-106687200D01*
X135399523Y-106687200D02*
X135304285Y-106734819D01*
X135304285Y-106734819D02*
X135113809Y-106734819D01*
X135113809Y-106734819D02*
X135018571Y-106687200D01*
X135018571Y-106687200D02*
X134970952Y-106639580D01*
X134970952Y-106639580D02*
X134923333Y-106544342D01*
X134923333Y-106544342D02*
X134923333Y-105734819D01*
X134589999Y-105734819D02*
X134018571Y-105734819D01*
X134304285Y-106734819D02*
X134304285Y-105734819D01*
X137161904Y-98654819D02*
X136590476Y-98654819D01*
X136876190Y-99654819D02*
X136876190Y-98654819D01*
X136257142Y-99654819D02*
X136257142Y-98654819D01*
X136257142Y-98654819D02*
X135876190Y-98654819D01*
X135876190Y-98654819D02*
X135780952Y-98702438D01*
X135780952Y-98702438D02*
X135733333Y-98750057D01*
X135733333Y-98750057D02*
X135685714Y-98845295D01*
X135685714Y-98845295D02*
X135685714Y-98988152D01*
X135685714Y-98988152D02*
X135733333Y-99083390D01*
X135733333Y-99083390D02*
X135780952Y-99131009D01*
X135780952Y-99131009D02*
X135876190Y-99178628D01*
X135876190Y-99178628D02*
X136257142Y-99178628D01*
X134733333Y-99654819D02*
X135304761Y-99654819D01*
X135019047Y-99654819D02*
X135019047Y-98654819D01*
X135019047Y-98654819D02*
X135114285Y-98797676D01*
X135114285Y-98797676D02*
X135209523Y-98892914D01*
X135209523Y-98892914D02*
X135304761Y-98940533D01*
X148494819Y-97663333D02*
X148018628Y-97330000D01*
X148494819Y-97091905D02*
X147494819Y-97091905D01*
X147494819Y-97091905D02*
X147494819Y-97472857D01*
X147494819Y-97472857D02*
X147542438Y-97568095D01*
X147542438Y-97568095D02*
X147590057Y-97615714D01*
X147590057Y-97615714D02*
X147685295Y-97663333D01*
X147685295Y-97663333D02*
X147828152Y-97663333D01*
X147828152Y-97663333D02*
X147923390Y-97615714D01*
X147923390Y-97615714D02*
X147971009Y-97568095D01*
X147971009Y-97568095D02*
X148018628Y-97472857D01*
X148018628Y-97472857D02*
X148018628Y-97091905D01*
X147494819Y-97996667D02*
X147494819Y-98615714D01*
X147494819Y-98615714D02*
X147875771Y-98282381D01*
X147875771Y-98282381D02*
X147875771Y-98425238D01*
X147875771Y-98425238D02*
X147923390Y-98520476D01*
X147923390Y-98520476D02*
X147971009Y-98568095D01*
X147971009Y-98568095D02*
X148066247Y-98615714D01*
X148066247Y-98615714D02*
X148304342Y-98615714D01*
X148304342Y-98615714D02*
X148399580Y-98568095D01*
X148399580Y-98568095D02*
X148447200Y-98520476D01*
X148447200Y-98520476D02*
X148494819Y-98425238D01*
X148494819Y-98425238D02*
X148494819Y-98139524D01*
X148494819Y-98139524D02*
X148447200Y-98044286D01*
X148447200Y-98044286D02*
X148399580Y-97996667D01*
X150344819Y-95833333D02*
X149868628Y-95500000D01*
X150344819Y-95261905D02*
X149344819Y-95261905D01*
X149344819Y-95261905D02*
X149344819Y-95642857D01*
X149344819Y-95642857D02*
X149392438Y-95738095D01*
X149392438Y-95738095D02*
X149440057Y-95785714D01*
X149440057Y-95785714D02*
X149535295Y-95833333D01*
X149535295Y-95833333D02*
X149678152Y-95833333D01*
X149678152Y-95833333D02*
X149773390Y-95785714D01*
X149773390Y-95785714D02*
X149821009Y-95738095D01*
X149821009Y-95738095D02*
X149868628Y-95642857D01*
X149868628Y-95642857D02*
X149868628Y-95261905D01*
X149344819Y-96690476D02*
X149344819Y-96500000D01*
X149344819Y-96500000D02*
X149392438Y-96404762D01*
X149392438Y-96404762D02*
X149440057Y-96357143D01*
X149440057Y-96357143D02*
X149582914Y-96261905D01*
X149582914Y-96261905D02*
X149773390Y-96214286D01*
X149773390Y-96214286D02*
X150154342Y-96214286D01*
X150154342Y-96214286D02*
X150249580Y-96261905D01*
X150249580Y-96261905D02*
X150297200Y-96309524D01*
X150297200Y-96309524D02*
X150344819Y-96404762D01*
X150344819Y-96404762D02*
X150344819Y-96595238D01*
X150344819Y-96595238D02*
X150297200Y-96690476D01*
X150297200Y-96690476D02*
X150249580Y-96738095D01*
X150249580Y-96738095D02*
X150154342Y-96785714D01*
X150154342Y-96785714D02*
X149916247Y-96785714D01*
X149916247Y-96785714D02*
X149821009Y-96738095D01*
X149821009Y-96738095D02*
X149773390Y-96690476D01*
X149773390Y-96690476D02*
X149725771Y-96595238D01*
X149725771Y-96595238D02*
X149725771Y-96404762D01*
X149725771Y-96404762D02*
X149773390Y-96309524D01*
X149773390Y-96309524D02*
X149821009Y-96261905D01*
X149821009Y-96261905D02*
X149916247Y-96214286D01*
X147609580Y-95923333D02*
X147657200Y-95875714D01*
X147657200Y-95875714D02*
X147704819Y-95732857D01*
X147704819Y-95732857D02*
X147704819Y-95637619D01*
X147704819Y-95637619D02*
X147657200Y-95494762D01*
X147657200Y-95494762D02*
X147561961Y-95399524D01*
X147561961Y-95399524D02*
X147466723Y-95351905D01*
X147466723Y-95351905D02*
X147276247Y-95304286D01*
X147276247Y-95304286D02*
X147133390Y-95304286D01*
X147133390Y-95304286D02*
X146942914Y-95351905D01*
X146942914Y-95351905D02*
X146847676Y-95399524D01*
X146847676Y-95399524D02*
X146752438Y-95494762D01*
X146752438Y-95494762D02*
X146704819Y-95637619D01*
X146704819Y-95637619D02*
X146704819Y-95732857D01*
X146704819Y-95732857D02*
X146752438Y-95875714D01*
X146752438Y-95875714D02*
X146800057Y-95923333D01*
X147704819Y-96399524D02*
X147704819Y-96590000D01*
X147704819Y-96590000D02*
X147657200Y-96685238D01*
X147657200Y-96685238D02*
X147609580Y-96732857D01*
X147609580Y-96732857D02*
X147466723Y-96828095D01*
X147466723Y-96828095D02*
X147276247Y-96875714D01*
X147276247Y-96875714D02*
X146895295Y-96875714D01*
X146895295Y-96875714D02*
X146800057Y-96828095D01*
X146800057Y-96828095D02*
X146752438Y-96780476D01*
X146752438Y-96780476D02*
X146704819Y-96685238D01*
X146704819Y-96685238D02*
X146704819Y-96494762D01*
X146704819Y-96494762D02*
X146752438Y-96399524D01*
X146752438Y-96399524D02*
X146800057Y-96351905D01*
X146800057Y-96351905D02*
X146895295Y-96304286D01*
X146895295Y-96304286D02*
X147133390Y-96304286D01*
X147133390Y-96304286D02*
X147228628Y-96351905D01*
X147228628Y-96351905D02*
X147276247Y-96399524D01*
X147276247Y-96399524D02*
X147323866Y-96494762D01*
X147323866Y-96494762D02*
X147323866Y-96685238D01*
X147323866Y-96685238D02*
X147276247Y-96780476D01*
X147276247Y-96780476D02*
X147228628Y-96828095D01*
X147228628Y-96828095D02*
X147133390Y-96875714D01*
X145349580Y-95437142D02*
X145397200Y-95389523D01*
X145397200Y-95389523D02*
X145444819Y-95246666D01*
X145444819Y-95246666D02*
X145444819Y-95151428D01*
X145444819Y-95151428D02*
X145397200Y-95008571D01*
X145397200Y-95008571D02*
X145301961Y-94913333D01*
X145301961Y-94913333D02*
X145206723Y-94865714D01*
X145206723Y-94865714D02*
X145016247Y-94818095D01*
X145016247Y-94818095D02*
X144873390Y-94818095D01*
X144873390Y-94818095D02*
X144682914Y-94865714D01*
X144682914Y-94865714D02*
X144587676Y-94913333D01*
X144587676Y-94913333D02*
X144492438Y-95008571D01*
X144492438Y-95008571D02*
X144444819Y-95151428D01*
X144444819Y-95151428D02*
X144444819Y-95246666D01*
X144444819Y-95246666D02*
X144492438Y-95389523D01*
X144492438Y-95389523D02*
X144540057Y-95437142D01*
X145444819Y-96389523D02*
X145444819Y-95818095D01*
X145444819Y-96103809D02*
X144444819Y-96103809D01*
X144444819Y-96103809D02*
X144587676Y-96008571D01*
X144587676Y-96008571D02*
X144682914Y-95913333D01*
X144682914Y-95913333D02*
X144730533Y-95818095D01*
X144444819Y-96722857D02*
X144444819Y-97341904D01*
X144444819Y-97341904D02*
X144825771Y-97008571D01*
X144825771Y-97008571D02*
X144825771Y-97151428D01*
X144825771Y-97151428D02*
X144873390Y-97246666D01*
X144873390Y-97246666D02*
X144921009Y-97294285D01*
X144921009Y-97294285D02*
X145016247Y-97341904D01*
X145016247Y-97341904D02*
X145254342Y-97341904D01*
X145254342Y-97341904D02*
X145349580Y-97294285D01*
X145349580Y-97294285D02*
X145397200Y-97246666D01*
X145397200Y-97246666D02*
X145444819Y-97151428D01*
X145444819Y-97151428D02*
X145444819Y-96865714D01*
X145444819Y-96865714D02*
X145397200Y-96770476D01*
X145397200Y-96770476D02*
X145349580Y-96722857D01*
X149799580Y-95457142D02*
X149847200Y-95409523D01*
X149847200Y-95409523D02*
X149894819Y-95266666D01*
X149894819Y-95266666D02*
X149894819Y-95171428D01*
X149894819Y-95171428D02*
X149847200Y-95028571D01*
X149847200Y-95028571D02*
X149751961Y-94933333D01*
X149751961Y-94933333D02*
X149656723Y-94885714D01*
X149656723Y-94885714D02*
X149466247Y-94838095D01*
X149466247Y-94838095D02*
X149323390Y-94838095D01*
X149323390Y-94838095D02*
X149132914Y-94885714D01*
X149132914Y-94885714D02*
X149037676Y-94933333D01*
X149037676Y-94933333D02*
X148942438Y-95028571D01*
X148942438Y-95028571D02*
X148894819Y-95171428D01*
X148894819Y-95171428D02*
X148894819Y-95266666D01*
X148894819Y-95266666D02*
X148942438Y-95409523D01*
X148942438Y-95409523D02*
X148990057Y-95457142D01*
X149894819Y-96409523D02*
X149894819Y-95838095D01*
X149894819Y-96123809D02*
X148894819Y-96123809D01*
X148894819Y-96123809D02*
X149037676Y-96028571D01*
X149037676Y-96028571D02*
X149132914Y-95933333D01*
X149132914Y-95933333D02*
X149180533Y-95838095D01*
X149228152Y-97266666D02*
X149894819Y-97266666D01*
X148847200Y-97028571D02*
X149561485Y-96790476D01*
X149561485Y-96790476D02*
X149561485Y-97409523D01*
D14*
%TO.C,TP1*%
X134100000Y-100300000D02*
X134100000Y-103700000D01*
X134100000Y-103700000D02*
X137500000Y-103700000D01*
X137500000Y-100300000D02*
X134100000Y-100300000D01*
X137500000Y-103700000D02*
X137500000Y-100300000D01*
%TO.C,R3*%
X148955000Y-97602936D02*
X148955000Y-98057064D01*
X150425000Y-97602936D02*
X150425000Y-98057064D01*
%TO.C,R6*%
X150855000Y-95772936D02*
X150855000Y-96227064D01*
X152325000Y-95772936D02*
X152325000Y-96227064D01*
%TO.C,C9*%
X145015000Y-96351252D02*
X145015000Y-95828748D01*
X146485000Y-96351252D02*
X146485000Y-95828748D01*
%TO.C,C13*%
X142380000Y-97191252D02*
X142380000Y-95768748D01*
X144200000Y-97191252D02*
X144200000Y-95768748D01*
%TO.C,C14*%
X147005000Y-96361252D02*
X147005000Y-95838748D01*
X148475000Y-96361252D02*
X148475000Y-95838748D01*
%TD*%
M02*
