M48
; DRILL file {KiCad 9.0.5} date 2025-10-21T17:57:36+0200
; FORMAT={-:-/ absolute / metric / decimal}
; #@! TF.CreationDate,2025-10-21T17:57:36+02:00
; #@! TF.GenerationSoftware,Kicad,Pcbnew,9.0.5
; #@! TF.FileFunction,Plated,1,2,PTH
FMAT,2
METRIC
; #@! TA.AperFunction,Plated,PTH,ViaDrill
T1C0.300
; #@! TA.AperFunction,Plated,PTH,ViaDrill
T2C0.500
; #@! TA.AperFunction,Plated,PTH,ComponentDrill
T3C0.500
; #@! TA.AperFunction,Plated,PTH,ViaDrill
T4C0.600
; #@! TA.AperFunction,Plated,PTH,ComponentDrill
T5C0.600
; #@! TA.AperFunction,Plated,PTH,ViaDrill
T6C0.700
; #@! TA.AperFunction,Plated,PTH,ComponentDrill
T7C0.700
; #@! TA.AperFunction,Plated,PTH,ComponentDrill
T8C0.750
; #@! TA.AperFunction,Plated,PTH,ComponentDrill
T9C0.762
; #@! TA.AperFunction,Plated,PTH,ComponentDrill
T10C0.800
; #@! TA.AperFunction,Plated,PTH,ComponentDrill
T11C0.900
; #@! TA.AperFunction,Plated,PTH,ComponentDrill
T12C1.000
; #@! TA.AperFunction,Plated,PTH,ComponentDrill
T13C1.100
; #@! TA.AperFunction,Plated,PTH,ComponentDrill
T14C1.200
; #@! TA.AperFunction,Plated,PTH,ComponentDrill
T15C1.250
; #@! TA.AperFunction,Plated,PTH,ComponentDrill
T16C1.700
%
G90
G05
T1
X194.548Y-92.05
X194.65Y-87.6
T2
X91.95Y-89.75
X95.85Y-76.9
X106.75Y-77.2
X107.2Y-127.8
X107.2Y-130.1
X107.6Y-70.55
X129.469Y-74.55
X129.489Y-66.28
X129.499Y-63.47
X129.509Y-69.28
X129.529Y-60.62
X129.569Y-71.9
X149.554Y-57.394
X149.554Y-76.694
X158.8Y-100.155
X158.8Y-102.655
X159.61Y-95.285
X159.63Y-96.665
X159.64Y-94.075
X160.401Y-76.199
X161.0Y-86.15
X161.25Y-96.65
X162.32Y-71.35
X164.1Y-74.42
X164.1Y-77.18
X164.65Y-101.8
X164.793Y-94.192
X164.81Y-97.055
X164.835Y-90.3
X165.33Y-105.465
X165.91Y-70.51
X166.45Y-92.3
X166.84Y-101.445
X167.87Y-102.385
X168.15Y-92.3
X168.52Y-70.5
X170.41Y-102.3
X171.0Y-70.5
X171.4Y-121.1
X171.9Y-103.6
X172.25Y-93.75
X172.35Y-90.6
X172.45Y-96.9
X172.45Y-98.5
X173.55Y-108.75
X173.65Y-96.9
X173.65Y-98.5
X174.85Y-96.9
X174.85Y-98.5
X175.05Y-76.45
X176.05Y-96.915
X176.05Y-108.8
X176.1Y-98.5
X176.8Y-74.9
X177.25Y-91.0
X177.91Y-98.755
X177.95Y-96.45
X178.65Y-93.95
X179.3Y-91.0
X180.7Y-79.75
X181.17Y-98.755
X181.25Y-96.45
X181.35Y-91.05
X181.45Y-93.95
X182.4Y-97.6
X182.413Y-99.667
X182.6Y-79.75
X183.4Y-91.05
X183.55Y-96.45
X183.55Y-98.7
X183.55Y-100.7
X184.1Y-93.95
X184.65Y-97.6
X186.0Y-96.5
X186.75Y-93.95
T3
X60.2Y-62.9
X60.2Y-64.9
X60.2Y-66.9
X60.2Y-75.6
X60.2Y-77.6
X60.2Y-79.6
X170.412Y-78.65
X170.412Y-83.725
X173.012Y-83.75
X173.53Y-102.685
X175.512Y-78.65
X175.512Y-83.75
X176.07Y-102.685
X180.775Y-71.675
X180.775Y-76.75
X182.05Y-85.5
X182.05Y-88.0
X182.075Y-82.9
X183.375Y-76.775
X185.875Y-71.675
X185.875Y-76.775
X187.15Y-82.9
X187.15Y-88.0
T4
X63.5Y-60.45
X63.5Y-70.7
X161.5Y-68.35
X178.5Y-104.3
X189.3Y-74.5
X196.7Y-81.9
X199.9Y-69.4
T5
X96.1Y-55.78
X97.1Y-66.68
X101.1Y-66.68
X105.1Y-66.68
X106.04Y-55.82
X176.4Y-87.7
X194.5Y-69.5
X194.5Y-73.5
X194.5Y-77.5
X194.62Y-106.3
X194.62Y-110.3
X194.62Y-114.3
X195.55Y-98.0
X195.55Y-101.35
X195.6Y-94.65
X196.2Y-89.9
X205.36Y-68.56
X205.4Y-78.5
X205.48Y-105.36
X205.52Y-115.3
T6
X189.85Y-80.2
T7
X166.848Y-112.995
X166.848Y-115.535
X166.848Y-118.075
T8
X143.319Y-63.75
X143.319Y-65.75
X143.319Y-67.75
X143.319Y-69.75
X143.319Y-71.75
X145.319Y-63.75
X145.319Y-65.75
X145.319Y-67.75
X145.319Y-69.75
X145.319Y-71.75
X166.5Y-61.35
X166.5Y-63.35
X168.5Y-61.35
X168.5Y-63.35
X170.5Y-61.35
X170.5Y-63.35
X172.5Y-61.35
X172.5Y-63.35
X174.5Y-61.35
X174.5Y-63.35
T9
X59.9Y-85.35
X59.9Y-99.55
X82.7Y-85.35
X82.7Y-88.25
X82.7Y-96.55
X82.7Y-99.55
X83.75Y-102.3
X83.75Y-120.3
X86.25Y-102.3
X86.25Y-120.3
T10
X72.0Y-127.75
X72.0Y-130.05
X72.0Y-140.05
X72.0Y-142.35
X94.0Y-73.671
X94.0Y-76.171
X96.4Y-140.05
X96.4Y-142.35
X96.6Y-127.75
X96.6Y-130.05
X97.147Y-84.15
X100.647Y-84.15
X109.95Y-81.347
X109.95Y-85.147
X111.375Y-71.08
X113.875Y-71.08
X160.679Y-104.85
X163.179Y-104.85
X164.646Y-87.117
X165.429Y-80.3
X166.414Y-85.349
X167.929Y-80.3
X169.695Y-87.65
X172.195Y-87.65
X180.197Y-111.5
X181.5Y-103.045
X181.5Y-105.545
X183.697Y-111.5
X186.4Y-103.071
X186.4Y-105.571
X188.529Y-69.55
X191.029Y-69.55
X199.4Y-74.66
X199.4Y-77.2
X199.4Y-79.74
X201.25Y-87.05
X201.25Y-89.05
X201.25Y-91.05
X201.25Y-93.05
X201.25Y-95.05
X201.25Y-97.05
X203.75Y-87.05
X203.75Y-89.05
X203.75Y-91.05
X203.75Y-93.05
X203.75Y-95.05
X203.75Y-97.05
T11
X67.43Y-57.0
X69.97Y-57.0
X154.83Y-57.0
X157.37Y-57.0
X163.18Y-57.0
X165.72Y-57.0
X168.18Y-57.0
X170.72Y-57.0
X173.18Y-57.0
X175.72Y-57.0
X178.15Y-57.0
X180.69Y-57.0
T12
X68.315Y-65.824
X70.815Y-65.824
X77.435Y-90.95
X77.435Y-93.45
X86.3Y-71.55
X86.3Y-74.05
T13
X60.2Y-60.4
X60.2Y-69.4
X60.2Y-73.1
X60.2Y-82.1
X77.63Y-68.95
X77.63Y-79.11
X88.7Y-82.22
X88.7Y-92.38
T14
X166.838Y-121.657
X166.848Y-109.264
T15
X199.05Y-99.15
X205.85Y-84.95
T16
X85.75Y-108.8
X85.75Y-113.8
M30
