%TF.GenerationSoftware,KiCad,Pcbnew,9.0.5*%
%TF.CreationDate,2025-10-21T17:57:34+02:00*%
%TF.ProjectId,TUNER_KT0936MB9,54554e45-525f-44b5-9430-3933364d4239,rev?*%
%TF.SameCoordinates,Original*%
%TF.FileFunction,Soldermask,Top*%
%TF.FilePolarity,Negative*%
%FSLAX46Y46*%
G04 Gerber Fmt 4.6, Leading zero omitted, Abs format (unit mm)*
G04 Created by KiCad (PCBNEW 9.0.5) date 2025-10-21 17:57:34*
%MOMM*%
%LPD*%
G01*
G04 APERTURE LIST*
G04 Aperture macros list*
%AMRoundRect*
0 Rectangle with rounded corners*
0 $1 Rounding radius*
0 $2 $3 $4 $5 $6 $7 $8 $9 X,Y pos of 4 corners*
0 Add a 4 corners polygon primitive as box body*
4,1,4,$2,$3,$4,$5,$6,$7,$8,$9,$2,$3,0*
0 Add four circle primitives for the rounded corners*
1,1,$1+$1,$2,$3*
1,1,$1+$1,$4,$5*
1,1,$1+$1,$6,$7*
1,1,$1+$1,$8,$9*
0 Add four rect primitives between the rounded corners*
20,1,$1+$1,$2,$3,$4,$5,0*
20,1,$1+$1,$4,$5,$6,$7,0*
20,1,$1+$1,$6,$7,$8,$9,0*
20,1,$1+$1,$8,$9,$2,$3,0*%
G04 Aperture macros list end*
%ADD10RoundRect,0.250000X-0.550000X0.550000X-0.550000X-0.550000X0.550000X-0.550000X0.550000X0.550000X0*%
%ADD11C,1.600000*%
%ADD12RoundRect,0.250000X0.550000X0.550000X-0.550000X0.550000X-0.550000X-0.550000X0.550000X-0.550000X0*%
%ADD13RoundRect,0.250000X0.000000X-0.777817X0.777817X0.000000X0.000000X0.777817X-0.777817X0.000000X0*%
%ADD14RoundRect,0.250000X-0.550000X-0.550000X0.550000X-0.550000X0.550000X0.550000X-0.550000X0.550000X0*%
%ADD15O,2.200000X1.500000*%
%ADD16C,2.600000*%
%ADD17RoundRect,0.250000X0.625000X-0.312500X0.625000X0.312500X-0.625000X0.312500X-0.625000X-0.312500X0*%
%ADD18R,1.800000X1.800000*%
%ADD19C,1.800000*%
%ADD20RoundRect,0.250000X-0.250000X-0.475000X0.250000X-0.475000X0.250000X0.475000X-0.250000X0.475000X0*%
%ADD21RoundRect,0.218750X0.218750X0.381250X-0.218750X0.381250X-0.218750X-0.381250X0.218750X-0.381250X0*%
%ADD22C,2.200000*%
%ADD23C,1.000000*%
%ADD24RoundRect,0.250000X-0.312500X-0.625000X0.312500X-0.625000X0.312500X0.625000X-0.312500X0.625000X0*%
%ADD25RoundRect,0.300000X-0.600000X-1.000000X0.600000X-1.000000X0.600000X1.000000X-0.600000X1.000000X0*%
%ADD26C,2.500000*%
%ADD27R,2.000000X2.000000*%
%ADD28RoundRect,0.250000X0.450000X-0.262500X0.450000X0.262500X-0.450000X0.262500X-0.450000X-0.262500X0*%
%ADD29RoundRect,0.250000X0.325000X0.650000X-0.325000X0.650000X-0.325000X-0.650000X0.325000X-0.650000X0*%
%ADD30RoundRect,0.162500X0.825000X0.162500X-0.825000X0.162500X-0.825000X-0.162500X0.825000X-0.162500X0*%
%ADD31O,2.500000X1.800000*%
%ADD32RoundRect,0.250000X0.650000X-0.325000X0.650000X0.325000X-0.650000X0.325000X-0.650000X-0.325000X0*%
%ADD33O,1.800000X1.200000*%
%ADD34O,1.000000X1.800000*%
%ADD35RoundRect,0.250000X0.262500X0.450000X-0.262500X0.450000X-0.262500X-0.450000X0.262500X-0.450000X0*%
%ADD36RoundRect,0.150000X-0.150000X0.850000X-0.150000X-0.850000X0.150000X-0.850000X0.150000X0.850000X0*%
%ADD37RoundRect,0.250000X-0.475000X0.250000X-0.475000X-0.250000X0.475000X-0.250000X0.475000X0.250000X0*%
%ADD38RoundRect,0.249999X0.850001X-0.850001X0.850001X0.850001X-0.850001X0.850001X-0.850001X-0.850001X0*%
%ADD39RoundRect,0.250000X0.250000X0.475000X-0.250000X0.475000X-0.250000X-0.475000X0.250000X-0.475000X0*%
%ADD40RoundRect,0.150000X-0.825000X-0.150000X0.825000X-0.150000X0.825000X0.150000X-0.825000X0.150000X0*%
%ADD41RoundRect,0.250000X-0.625000X0.312500X-0.625000X-0.312500X0.625000X-0.312500X0.625000X0.312500X0*%
%ADD42O,1.200000X1.700000*%
%ADD43RoundRect,0.250000X-0.325000X-0.650000X0.325000X-0.650000X0.325000X0.650000X-0.325000X0.650000X0*%
%ADD44RoundRect,0.250000X-0.262500X-0.450000X0.262500X-0.450000X0.262500X0.450000X-0.262500X0.450000X0*%
%ADD45O,1.700000X1.200000*%
%ADD46O,1.200000X1.200000*%
%ADD47RoundRect,0.250000X0.312500X0.625000X-0.312500X0.625000X-0.312500X-0.625000X0.312500X-0.625000X0*%
%ADD48RoundRect,0.218750X-0.381250X0.218750X-0.381250X-0.218750X0.381250X-0.218750X0.381250X0.218750X0*%
%ADD49C,1.440000*%
%ADD50RoundRect,0.249999X-0.850001X0.850001X-0.850001X-0.850001X0.850001X-0.850001X0.850001X0.850001X0*%
%ADD51C,1.524000*%
%ADD52C,3.200000*%
%ADD53RoundRect,0.250000X-0.450000X0.262500X-0.450000X-0.262500X0.450000X-0.262500X0.450000X0.262500X0*%
%ADD54C,1.500000*%
%ADD55R,3.400000X1.500000*%
%ADD56R,2.500000X1.500000*%
%ADD57RoundRect,0.250000X-0.650000X0.325000X-0.650000X-0.325000X0.650000X-0.325000X0.650000X0.325000X0*%
%ADD58RoundRect,0.150000X0.150000X-0.587500X0.150000X0.587500X-0.150000X0.587500X-0.150000X-0.587500X0*%
%ADD59RoundRect,0.250000X-0.750000X0.600000X-0.750000X-0.600000X0.750000X-0.600000X0.750000X0.600000X0*%
%ADD60O,2.000000X1.700000*%
%ADD61RoundRect,0.300000X1.000000X-0.600000X1.000000X0.600000X-1.000000X0.600000X-1.000000X-0.600000X0*%
%ADD62RoundRect,0.250000X-0.600000X-0.750000X0.600000X-0.750000X0.600000X0.750000X-0.600000X0.750000X0*%
%ADD63O,1.700000X2.000000*%
%ADD64RoundRect,0.250000X0.750000X-0.600000X0.750000X0.600000X-0.750000X0.600000X-0.750000X-0.600000X0*%
%ADD65R,2.100000X3.000000*%
G04 APERTURE END LIST*
D10*
%TO.C,C34*%
X94000000Y-73671144D03*
D11*
X94000000Y-76171144D03*
%TD*%
D12*
%TO.C,C33*%
X167928856Y-80300000D03*
D11*
X165428856Y-80300000D03*
%TD*%
D12*
%TO.C,C32*%
X163178856Y-104850000D03*
D11*
X160678856Y-104850000D03*
%TD*%
D12*
%TO.C,C31*%
X191028856Y-69550000D03*
D11*
X188528856Y-69550000D03*
%TD*%
D13*
%TO.C,C30*%
X164645938Y-87116515D03*
D11*
X166413705Y-85348748D03*
%TD*%
D10*
%TO.C,C29*%
X186400000Y-103071144D03*
D11*
X186400000Y-105571144D03*
%TD*%
D14*
%TO.C,C13*%
X169694888Y-87650000D03*
D11*
X172194888Y-87650000D03*
%TD*%
D10*
%TO.C,C11*%
X181500000Y-103044888D03*
D11*
X181500000Y-105544888D03*
%TD*%
D15*
%TO.C,SW2*%
X60200000Y-75600000D03*
X60200000Y-77600000D03*
X60200000Y-79600000D03*
D16*
X60200000Y-73100000D03*
X60200000Y-82100000D03*
%TD*%
D14*
%TO.C,H2*%
X195550000Y-98000000D03*
%TD*%
D17*
%TO.C,R7*%
X65370000Y-72392500D03*
X65370000Y-69467500D03*
%TD*%
D18*
%TO.C,D5*%
X173180000Y-57000000D03*
D19*
X175720000Y-57000000D03*
%TD*%
D20*
%TO.C,C18*%
X165340000Y-103975000D03*
X167240000Y-103975000D03*
%TD*%
D21*
%TO.C,FB4*%
X169462500Y-90400000D03*
X167337500Y-90400000D03*
%TD*%
D22*
%TO.C,H9*%
X195000000Y-58000000D03*
%TD*%
D23*
%TO.C,L5*%
X170412500Y-78650000D03*
X175512500Y-83750000D03*
X175512500Y-78650000D03*
X170412500Y-83725000D03*
X173012500Y-83750000D03*
%TD*%
D24*
%TO.C,R34*%
X136206250Y-71900000D03*
X139131250Y-71900000D03*
%TD*%
D25*
%TO.C,RV1*%
X97100000Y-66680000D03*
X101100000Y-66680000D03*
X105100000Y-66680000D03*
D26*
X96100000Y-55780000D03*
X106040000Y-55820000D03*
%TD*%
D18*
%TO.C,D6*%
X168180000Y-57000000D03*
D19*
X170720000Y-57000000D03*
%TD*%
D27*
%TO.C,M2*%
X59900000Y-99550000D03*
X59900000Y-85350000D03*
X82700000Y-99550000D03*
X82700000Y-96550000D03*
X82700000Y-88250000D03*
X82700000Y-85350000D03*
%TD*%
D28*
%TO.C,R23*%
X170200000Y-76012500D03*
X170200000Y-74187500D03*
%TD*%
D29*
%TO.C,C20*%
X168375000Y-74400000D03*
X165425000Y-74400000D03*
%TD*%
D28*
%TO.C,R2*%
X98900000Y-70812500D03*
X98900000Y-68987500D03*
%TD*%
D24*
%TO.C,R18*%
X130836250Y-60600000D03*
X133761250Y-60600000D03*
%TD*%
D30*
%TO.C,U1*%
X104937500Y-77385000D03*
X104937500Y-76115000D03*
X104937500Y-74845000D03*
X104937500Y-73575000D03*
X99862500Y-73575000D03*
X99862500Y-74845000D03*
X99862500Y-76115000D03*
X99862500Y-77385000D03*
%TD*%
D22*
%TO.C,H14*%
X63000000Y-125000000D03*
%TD*%
D31*
%TO.C,SW1*%
X166847927Y-112994882D03*
X166847927Y-115534882D03*
X166847927Y-118074882D03*
D16*
X166847927Y-109264337D03*
X166837707Y-121657390D03*
%TD*%
D24*
%TO.C,R8*%
X67975000Y-62100000D03*
X70900000Y-62100000D03*
%TD*%
D32*
%TO.C,C4*%
X107540000Y-74835000D03*
X107540000Y-71885000D03*
%TD*%
D33*
%TO.C,SW5*%
X203750000Y-97050000D03*
X203750000Y-95050000D03*
X203750000Y-93050000D03*
X203750000Y-91050000D03*
X203750000Y-89050000D03*
D34*
X203750000Y-87050000D03*
D33*
X201250000Y-97050000D03*
X201250000Y-95050000D03*
X201250000Y-93050000D03*
X201250000Y-91050000D03*
X201250000Y-89050000D03*
D34*
X201250000Y-87050000D03*
D26*
X205850000Y-84950000D03*
X199050000Y-99150000D03*
%TD*%
D35*
%TO.C,R22*%
X172062500Y-72100000D03*
X170237500Y-72100000D03*
%TD*%
D24*
%TO.C,R21*%
X130806250Y-69250000D03*
X133731250Y-69250000D03*
%TD*%
%TO.C,R19*%
X130806250Y-63460000D03*
X133731250Y-63460000D03*
%TD*%
D18*
%TO.C,D3*%
X154830000Y-57000000D03*
D19*
X157370000Y-57000000D03*
%TD*%
D17*
%TO.C,R37*%
X149550000Y-75412500D03*
X149550000Y-72487500D03*
%TD*%
D36*
%TO.C,U2*%
X176760000Y-95135000D03*
X175490000Y-95135000D03*
X174220000Y-95135000D03*
X172950000Y-95135000D03*
X171680000Y-95135000D03*
X170410000Y-95135000D03*
X169140000Y-95135000D03*
X167870000Y-95135000D03*
X167870000Y-100135000D03*
X169140000Y-100135000D03*
X170410000Y-100135000D03*
X171680000Y-100135000D03*
X172950000Y-100135000D03*
X174220000Y-100135000D03*
X175490000Y-100135000D03*
X176760000Y-100135000D03*
%TD*%
D29*
%TO.C,C3*%
X103775000Y-69300000D03*
X100825000Y-69300000D03*
%TD*%
D10*
%TO.C,C1*%
X109950000Y-81347349D03*
D11*
X109950000Y-85147349D03*
%TD*%
D24*
%TO.C,R33*%
X130856250Y-74500000D03*
X133781250Y-74500000D03*
%TD*%
%TO.C,R32*%
X136206250Y-74500000D03*
X139131250Y-74500000D03*
%TD*%
D37*
%TO.C,C24*%
X179550000Y-87700000D03*
X179550000Y-89600000D03*
%TD*%
D29*
%TO.C,C27*%
X69575000Y-130100000D03*
X66625000Y-130100000D03*
%TD*%
D22*
%TO.C,H13*%
X119000000Y-87000000D03*
%TD*%
D17*
%TO.C,R9*%
X156400000Y-64762500D03*
X156400000Y-61837500D03*
%TD*%
D38*
%TO.C,D2*%
X77630000Y-79110000D03*
D22*
X77630000Y-68950000D03*
%TD*%
D39*
%TO.C,C23*%
X179450000Y-79750000D03*
X177550000Y-79750000D03*
%TD*%
D23*
%TO.C,Y1*%
X173530000Y-102685000D03*
X176070000Y-102685000D03*
%TD*%
D18*
%TO.C,D8*%
X67430000Y-57000000D03*
D19*
X69970000Y-57000000D03*
%TD*%
D15*
%TO.C,SW3*%
X60200000Y-62900000D03*
X60200000Y-64900000D03*
X60200000Y-66900000D03*
D16*
X60200000Y-60400000D03*
X60200000Y-69400000D03*
%TD*%
D17*
%TO.C,R17*%
X161600000Y-66550000D03*
X161600000Y-63625000D03*
%TD*%
D22*
%TO.C,H3*%
X120000000Y-58000000D03*
%TD*%
D32*
%TO.C,C2*%
X97400000Y-76875000D03*
X97400000Y-73925000D03*
%TD*%
D14*
%TO.C,H6*%
X196200000Y-89900000D03*
%TD*%
D40*
%TO.C,Q1*%
X68440000Y-75610000D03*
X68440000Y-76880000D03*
X68440000Y-78150000D03*
X68440000Y-79420000D03*
X73390000Y-79420000D03*
X73390000Y-78150000D03*
X73390000Y-76880000D03*
X73390000Y-75610000D03*
%TD*%
D41*
%TO.C,R38*%
X149557526Y-63252446D03*
X149557526Y-66177446D03*
%TD*%
D28*
%TO.C,R11*%
X169000000Y-105575000D03*
X169000000Y-103750000D03*
%TD*%
D14*
%TO.C,H4*%
X195600000Y-94650000D03*
%TD*%
D42*
%TO.C,J5*%
X143318750Y-71750000D03*
X143318750Y-69750000D03*
X143318750Y-67750000D03*
X143318750Y-65750000D03*
X143318750Y-63750000D03*
X145318750Y-71750000D03*
X145318750Y-69750000D03*
X145318750Y-67750000D03*
X145318750Y-65750000D03*
X145318750Y-63750000D03*
%TD*%
D43*
%TO.C,C28*%
X102850000Y-130100000D03*
X105800000Y-130100000D03*
%TD*%
D29*
%TO.C,C14*%
X168375000Y-77100000D03*
X165425000Y-77100000D03*
%TD*%
%TO.C,C15*%
X177575000Y-69250000D03*
X174625000Y-69250000D03*
%TD*%
D24*
%TO.C,R24*%
X136156250Y-60650000D03*
X139081250Y-60650000D03*
%TD*%
D14*
%TO.C,C26*%
X180197349Y-111500000D03*
D11*
X183697349Y-111500000D03*
%TD*%
D18*
%TO.C,D4*%
X178150000Y-57000000D03*
D19*
X180690000Y-57000000D03*
%TD*%
D17*
%TO.C,R4*%
X65440000Y-79742500D03*
X65440000Y-76817500D03*
%TD*%
D24*
%TO.C,R20*%
X130806250Y-66330000D03*
X133731250Y-66330000D03*
%TD*%
D44*
%TO.C,R29*%
X117187500Y-71100000D03*
X119012500Y-71100000D03*
%TD*%
D24*
%TO.C,R26*%
X136156250Y-63500000D03*
X139081250Y-63500000D03*
%TD*%
D45*
%TO.C,J6*%
X174500000Y-63350000D03*
X172500000Y-63350000D03*
X170500000Y-63350000D03*
X168500000Y-63350000D03*
X166500000Y-63350000D03*
X174500000Y-61350000D03*
X172500000Y-61350000D03*
X170500000Y-61350000D03*
D46*
X168500000Y-61350000D03*
X166500000Y-61350000D03*
%TD*%
D43*
%TO.C,C19*%
X102825000Y-127800000D03*
X105775000Y-127800000D03*
%TD*%
D14*
%TO.C,H5*%
X195550000Y-101350000D03*
%TD*%
D41*
%TO.C,R10*%
X158500000Y-71337500D03*
X158500000Y-74262500D03*
%TD*%
%TO.C,R39*%
X149538005Y-58697256D03*
X149538005Y-61622256D03*
%TD*%
D35*
%TO.C,R25*%
X173762500Y-76450000D03*
X171937500Y-76450000D03*
%TD*%
D47*
%TO.C,R1*%
X103762500Y-71600000D03*
X100837500Y-71600000D03*
%TD*%
D23*
%TO.C,L3*%
X187150000Y-82900000D03*
X182050000Y-88000000D03*
X187150000Y-88000000D03*
X182075000Y-82900000D03*
X182050000Y-85500000D03*
%TD*%
D17*
%TO.C,R36*%
X149553535Y-70806159D03*
X149553535Y-67881159D03*
%TD*%
D21*
%TO.C,FB1*%
X101262500Y-127800000D03*
X99137500Y-127800000D03*
%TD*%
D29*
%TO.C,C8*%
X96275000Y-89750000D03*
X93325000Y-89750000D03*
%TD*%
D48*
%TO.C,FB2*%
X178510000Y-100692500D03*
X178510000Y-102817500D03*
%TD*%
D24*
%TO.C,R35*%
X130856250Y-71800000D03*
X133781250Y-71800000D03*
%TD*%
D49*
%TO.C,RV4*%
X199400000Y-79740000D03*
X199400000Y-77200000D03*
X199400000Y-74660000D03*
%TD*%
D17*
%TO.C,R16*%
X171050000Y-69112500D03*
X171050000Y-66187500D03*
%TD*%
D43*
%TO.C,C12*%
X169375000Y-92300000D03*
X172325000Y-92300000D03*
%TD*%
D22*
%TO.C,H11*%
X149000000Y-87000000D03*
%TD*%
%TO.C,H10*%
X195000000Y-148000000D03*
%TD*%
D50*
%TO.C,D1*%
X88700000Y-82220000D03*
D22*
X88700000Y-92380000D03*
%TD*%
D17*
%TO.C,R13*%
X165900000Y-69112500D03*
X165900000Y-66187500D03*
%TD*%
D51*
%TO.C,M1*%
X83750000Y-120300000D03*
X86250000Y-120300000D03*
D52*
X85750000Y-113800000D03*
X85750000Y-108800000D03*
D51*
X83750000Y-102300000D03*
X86250000Y-102300000D03*
%TD*%
D32*
%TO.C,C10*%
X179600000Y-99475000D03*
X179600000Y-96525000D03*
%TD*%
D22*
%TO.C,H12*%
X134000000Y-148000000D03*
%TD*%
D53*
%TO.C,R3*%
X164850000Y-98687500D03*
X164850000Y-100512500D03*
%TD*%
D22*
%TO.C,H8*%
X63000000Y-148000000D03*
%TD*%
D14*
%TO.C,C9*%
X97147349Y-84150000D03*
D11*
X100647349Y-84150000D03*
%TD*%
D54*
%TO.C,J2*%
X84575000Y-64175000D03*
D55*
X87575000Y-56475000D03*
D56*
X80925000Y-56475000D03*
X80925000Y-59175000D03*
X80925000Y-64275000D03*
X88225000Y-62975000D03*
D55*
X87775000Y-65175000D03*
%TD*%
D21*
%TO.C,FB3*%
X168462500Y-72150000D03*
X166337500Y-72150000D03*
%TD*%
D24*
%TO.C,R27*%
X136136250Y-66330000D03*
X139061250Y-66330000D03*
%TD*%
D14*
%TO.C,H1*%
X176400000Y-87700000D03*
%TD*%
D57*
%TO.C,C25*%
X196700000Y-83225000D03*
X196700000Y-86175000D03*
%TD*%
D58*
%TO.C,Q3*%
X173650000Y-74475000D03*
X175550000Y-74475000D03*
X174600000Y-72600000D03*
%TD*%
D37*
%TO.C,C17*%
X174250000Y-90100000D03*
X174250000Y-92000000D03*
%TD*%
D20*
%TO.C,C16*%
X183900000Y-79750000D03*
X185800000Y-79750000D03*
%TD*%
D17*
%TO.C,R14*%
X168500000Y-69112500D03*
X168500000Y-66187500D03*
%TD*%
D12*
%TO.C,C7*%
X113875113Y-71080000D03*
D11*
X111375113Y-71080000D03*
%TD*%
D28*
%TO.C,R6*%
X171400000Y-119900000D03*
X171400000Y-118075000D03*
%TD*%
D59*
%TO.C,J1*%
X86300000Y-71550000D03*
D60*
X86300000Y-74050000D03*
%TD*%
D40*
%TO.C,Q2*%
X68335000Y-68695000D03*
X68335000Y-69965000D03*
X68335000Y-71235000D03*
X68335000Y-72505000D03*
X73285000Y-72505000D03*
X73285000Y-71235000D03*
X73285000Y-69965000D03*
X73285000Y-68695000D03*
%TD*%
D18*
%TO.C,D7*%
X163180000Y-57000000D03*
D19*
X165720000Y-57000000D03*
%TD*%
D22*
%TO.C,H7*%
X75000000Y-58000000D03*
%TD*%
D23*
%TO.C,L4*%
X180775000Y-71675000D03*
X185875000Y-76775000D03*
X185875000Y-71675000D03*
X180775000Y-76750000D03*
X183375000Y-76775000D03*
%TD*%
D24*
%TO.C,R28*%
X136136250Y-69240000D03*
X139061250Y-69240000D03*
%TD*%
D22*
%TO.C,H15*%
X195000000Y-123900000D03*
%TD*%
D61*
%TO.C,RV3*%
X194620000Y-114300000D03*
X194620000Y-110300000D03*
X194620000Y-106300000D03*
D26*
X205520000Y-115300000D03*
X205480000Y-105360000D03*
%TD*%
D62*
%TO.C,J4*%
X68315457Y-65824438D03*
D63*
X70815457Y-65824438D03*
%TD*%
D61*
%TO.C,RV2*%
X194500000Y-77500000D03*
X194500000Y-73500000D03*
X194500000Y-69500000D03*
D26*
X205400000Y-78500000D03*
X205360000Y-68560000D03*
%TD*%
D64*
%TO.C,J3*%
X77435000Y-93450000D03*
D60*
X77435000Y-90950000D03*
%TD*%
D65*
%TO.C,M3*%
X72000000Y-127750000D03*
X72000000Y-130050000D03*
X72000000Y-140050000D03*
X72000000Y-142350000D03*
X96600000Y-127750000D03*
X96600000Y-130050000D03*
X96400000Y-140050000D03*
X96400000Y-142350000D03*
%TD*%
M02*
