%FSLAX45Y45*%
G04 Gerber Fmt 4.5, Leading zero omitted, Abs format (unit mm)*
G04 Created by KiCad (PCBNEW (6.0.4)) date 2022-04-19 23:10:41*
%MOMM*%
%LPD*%
G01*
G04 APERTURE LIST*
%TA.AperFunction,Profile*%
%ADD10C,0.150000*%
%TD*%
%ADD11C,0.200000*%
%ADD12C,0.075000*%
%ADD13C,0.080000*%
%ADD14C,0.100000*%
G04 APERTURE END LIST*
D10*
X9990000Y-6900000D02*
X12990000Y-6900000D01*
X12990000Y-6900000D02*
X12990000Y-9400000D01*
X12990000Y-9400000D02*
X9990000Y-9400000D01*
X9990000Y-9400000D02*
X9990000Y-6900000D01*
D11*
D12*
X11098500Y-8529500D02*
X11173500Y-8604500D01*
X11173500Y-8529500D02*
X11098500Y-8604500D01*
X11268500Y-8349500D02*
X11343500Y-8424500D01*
X11343500Y-8349500D02*
X11268500Y-8424500D01*
X11268500Y-8699500D02*
X11343500Y-8774500D01*
X11343500Y-8699500D02*
X11268500Y-8774500D01*
X11612500Y-8367500D02*
X11687500Y-8442500D01*
X11687500Y-8367500D02*
X11612500Y-8442500D01*
X11612500Y-8717500D02*
X11687500Y-8792500D01*
X11687500Y-8717500D02*
X11612500Y-8792500D01*
X11782500Y-8537500D02*
X11857500Y-8612500D01*
X11857500Y-8537500D02*
X11782500Y-8612500D01*
D13*
X10770000Y-7840000D02*
G75*
G03*
X10770000Y-7840000I-40000J0D01*
G01*
X11270000Y-7840000D02*
G75*
G03*
X11270000Y-7840000I-40000J0D01*
G01*
X11540000Y-7840000D02*
G75*
G03*
X11540000Y-7840000I-40000J0D01*
G01*
X12040000Y-7840000D02*
G75*
G03*
X12040000Y-7840000I-40000J0D01*
G01*
X12480000Y-7782000D02*
G75*
G03*
X12480000Y-7782000I-40000J0D01*
G01*
X12480000Y-8036000D02*
G75*
G03*
X12480000Y-8036000I-40000J0D01*
G01*
X12480000Y-8290000D02*
G75*
G03*
X12480000Y-8290000I-40000J0D01*
G01*
D14*
X10340000Y-7963500D02*
X10340000Y-8063500D01*
X10290000Y-8013500D02*
X10390000Y-8013500D01*
X10340000Y-8217500D02*
X10340000Y-8317500D01*
X10290000Y-8267500D02*
X10390000Y-8267500D01*
X11060000Y-7190000D02*
X11060000Y-7290000D01*
X11010000Y-7240000D02*
X11110000Y-7240000D01*
X11314000Y-7190000D02*
X11314000Y-7290000D01*
X11264000Y-7240000D02*
X11364000Y-7240000D01*
X11568000Y-7190000D02*
X11568000Y-7290000D01*
X11518000Y-7240000D02*
X11618000Y-7240000D01*
X11890000Y-8990000D02*
X11890000Y-9090000D01*
X11840000Y-9040000D02*
X11940000Y-9040000D01*
X12144000Y-8990000D02*
X12144000Y-9090000D01*
X12094000Y-9040000D02*
X12194000Y-9040000D01*
D11*
X10240119Y-9717976D02*
X10240119Y-9517976D01*
X10287738Y-9517976D01*
X10316310Y-9527500D01*
X10335357Y-9546548D01*
X10344881Y-9565595D01*
X10354405Y-9603690D01*
X10354405Y-9632262D01*
X10344881Y-9670357D01*
X10335357Y-9689405D01*
X10316310Y-9708452D01*
X10287738Y-9717976D01*
X10240119Y-9717976D01*
X10440119Y-9717976D02*
X10440119Y-9584643D01*
X10440119Y-9622738D02*
X10449643Y-9603690D01*
X10459167Y-9594167D01*
X10478214Y-9584643D01*
X10497262Y-9584643D01*
X10563929Y-9717976D02*
X10563929Y-9584643D01*
X10563929Y-9517976D02*
X10554405Y-9527500D01*
X10563929Y-9537024D01*
X10573452Y-9527500D01*
X10563929Y-9517976D01*
X10563929Y-9537024D01*
X10687738Y-9717976D02*
X10668690Y-9708452D01*
X10659167Y-9689405D01*
X10659167Y-9517976D01*
X10792500Y-9717976D02*
X10773452Y-9708452D01*
X10763929Y-9689405D01*
X10763929Y-9517976D01*
X11021071Y-9717976D02*
X11021071Y-9517976D01*
X11087738Y-9660833D01*
X11154405Y-9517976D01*
X11154405Y-9717976D01*
X11335357Y-9717976D02*
X11335357Y-9613214D01*
X11325833Y-9594167D01*
X11306786Y-9584643D01*
X11268690Y-9584643D01*
X11249643Y-9594167D01*
X11335357Y-9708452D02*
X11316309Y-9717976D01*
X11268690Y-9717976D01*
X11249643Y-9708452D01*
X11240119Y-9689405D01*
X11240119Y-9670357D01*
X11249643Y-9651310D01*
X11268690Y-9641786D01*
X11316309Y-9641786D01*
X11335357Y-9632262D01*
X11430595Y-9584643D02*
X11430595Y-9784643D01*
X11430595Y-9594167D02*
X11449643Y-9584643D01*
X11487738Y-9584643D01*
X11506786Y-9594167D01*
X11516309Y-9603690D01*
X11525833Y-9622738D01*
X11525833Y-9679881D01*
X11516309Y-9698929D01*
X11506786Y-9708452D01*
X11487738Y-9717976D01*
X11449643Y-9717976D01*
X11430595Y-9708452D01*
X11611548Y-9698929D02*
X11621071Y-9708452D01*
X11611548Y-9717976D01*
X11602024Y-9708452D01*
X11611548Y-9698929D01*
X11611548Y-9717976D01*
X11611548Y-9594167D02*
X11621071Y-9603690D01*
X11611548Y-9613214D01*
X11602024Y-9603690D01*
X11611548Y-9594167D01*
X11611548Y-9613214D01*
D12*
X9907500Y-10010000D02*
X9982500Y-10085000D01*
X9982500Y-10010000D02*
X9907500Y-10085000D01*
D11*
X10278214Y-9937976D02*
X10297262Y-9937976D01*
X10316310Y-9947500D01*
X10325833Y-9957024D01*
X10335357Y-9976071D01*
X10344881Y-10014167D01*
X10344881Y-10061786D01*
X10335357Y-10099881D01*
X10325833Y-10118929D01*
X10316310Y-10128452D01*
X10297262Y-10137976D01*
X10278214Y-10137976D01*
X10259167Y-10128452D01*
X10249643Y-10118929D01*
X10240119Y-10099881D01*
X10230595Y-10061786D01*
X10230595Y-10014167D01*
X10240119Y-9976071D01*
X10249643Y-9957024D01*
X10259167Y-9947500D01*
X10278214Y-9937976D01*
X10430595Y-10118929D02*
X10440119Y-10128452D01*
X10430595Y-10137976D01*
X10421071Y-10128452D01*
X10430595Y-10118929D01*
X10430595Y-10137976D01*
X10506786Y-9937976D02*
X10640119Y-9937976D01*
X10554405Y-10137976D01*
X10811548Y-9937976D02*
X10716310Y-9937976D01*
X10706786Y-10033214D01*
X10716310Y-10023690D01*
X10735357Y-10014167D01*
X10782976Y-10014167D01*
X10802024Y-10023690D01*
X10811548Y-10033214D01*
X10821071Y-10052262D01*
X10821071Y-10099881D01*
X10811548Y-10118929D01*
X10802024Y-10128452D01*
X10782976Y-10137976D01*
X10735357Y-10137976D01*
X10716310Y-10128452D01*
X10706786Y-10118929D01*
X10944881Y-9937976D02*
X10963929Y-9937976D01*
X10982976Y-9947500D01*
X10992500Y-9957024D01*
X11002024Y-9976071D01*
X11011548Y-10014167D01*
X11011548Y-10061786D01*
X11002024Y-10099881D01*
X10992500Y-10118929D01*
X10982976Y-10128452D01*
X10963929Y-10137976D01*
X10944881Y-10137976D01*
X10925833Y-10128452D01*
X10916310Y-10118929D01*
X10906786Y-10099881D01*
X10897262Y-10061786D01*
X10897262Y-10014167D01*
X10906786Y-9976071D01*
X10916310Y-9957024D01*
X10925833Y-9947500D01*
X10944881Y-9937976D01*
X11097262Y-10137976D02*
X11097262Y-10004643D01*
X11097262Y-10023690D02*
X11106786Y-10014167D01*
X11125833Y-10004643D01*
X11154405Y-10004643D01*
X11173452Y-10014167D01*
X11182976Y-10033214D01*
X11182976Y-10137976D01*
X11182976Y-10033214D02*
X11192500Y-10014167D01*
X11211548Y-10004643D01*
X11240119Y-10004643D01*
X11259167Y-10014167D01*
X11268690Y-10033214D01*
X11268690Y-10137976D01*
X11363928Y-10137976D02*
X11363928Y-10004643D01*
X11363928Y-10023690D02*
X11373452Y-10014167D01*
X11392500Y-10004643D01*
X11421071Y-10004643D01*
X11440119Y-10014167D01*
X11449643Y-10033214D01*
X11449643Y-10137976D01*
X11449643Y-10033214D02*
X11459167Y-10014167D01*
X11478214Y-10004643D01*
X11506786Y-10004643D01*
X11525833Y-10014167D01*
X11535357Y-10033214D01*
X11535357Y-10137976D01*
X11925833Y-9928452D02*
X11754405Y-10185595D01*
X12182976Y-9937976D02*
X12202024Y-9937976D01*
X12221071Y-9947500D01*
X12230595Y-9957024D01*
X12240119Y-9976071D01*
X12249643Y-10014167D01*
X12249643Y-10061786D01*
X12240119Y-10099881D01*
X12230595Y-10118929D01*
X12221071Y-10128452D01*
X12202024Y-10137976D01*
X12182976Y-10137976D01*
X12163928Y-10128452D01*
X12154405Y-10118929D01*
X12144881Y-10099881D01*
X12135357Y-10061786D01*
X12135357Y-10014167D01*
X12144881Y-9976071D01*
X12154405Y-9957024D01*
X12163928Y-9947500D01*
X12182976Y-9937976D01*
X12335357Y-10118929D02*
X12344881Y-10128452D01*
X12335357Y-10137976D01*
X12325833Y-10128452D01*
X12335357Y-10118929D01*
X12335357Y-10137976D01*
X12468690Y-9937976D02*
X12487738Y-9937976D01*
X12506786Y-9947500D01*
X12516309Y-9957024D01*
X12525833Y-9976071D01*
X12535357Y-10014167D01*
X12535357Y-10061786D01*
X12525833Y-10099881D01*
X12516309Y-10118929D01*
X12506786Y-10128452D01*
X12487738Y-10137976D01*
X12468690Y-10137976D01*
X12449643Y-10128452D01*
X12440119Y-10118929D01*
X12430595Y-10099881D01*
X12421071Y-10061786D01*
X12421071Y-10014167D01*
X12430595Y-9976071D01*
X12440119Y-9957024D01*
X12449643Y-9947500D01*
X12468690Y-9937976D01*
X12611548Y-9957024D02*
X12621071Y-9947500D01*
X12640119Y-9937976D01*
X12687738Y-9937976D01*
X12706786Y-9947500D01*
X12716309Y-9957024D01*
X12725833Y-9976071D01*
X12725833Y-9995119D01*
X12716309Y-10023690D01*
X12602024Y-10137976D01*
X12725833Y-10137976D01*
X12821071Y-10137976D02*
X12859167Y-10137976D01*
X12878214Y-10128452D01*
X12887738Y-10118929D01*
X12906786Y-10090357D01*
X12916309Y-10052262D01*
X12916309Y-9976071D01*
X12906786Y-9957024D01*
X12897262Y-9947500D01*
X12878214Y-9937976D01*
X12840119Y-9937976D01*
X12821071Y-9947500D01*
X12811548Y-9957024D01*
X12802024Y-9976071D01*
X12802024Y-10023690D01*
X12811548Y-10042738D01*
X12821071Y-10052262D01*
X12840119Y-10061786D01*
X12878214Y-10061786D01*
X12897262Y-10052262D01*
X12906786Y-10042738D01*
X12916309Y-10023690D01*
X13097262Y-9937976D02*
X13002024Y-9937976D01*
X12992500Y-10033214D01*
X13002024Y-10023690D01*
X13021071Y-10014167D01*
X13068690Y-10014167D01*
X13087738Y-10023690D01*
X13097262Y-10033214D01*
X13106786Y-10052262D01*
X13106786Y-10099881D01*
X13097262Y-10118929D01*
X13087738Y-10128452D01*
X13068690Y-10137976D01*
X13021071Y-10137976D01*
X13002024Y-10128452D01*
X12992500Y-10118929D01*
X13182976Y-9937976D02*
X13182976Y-9976071D01*
X13259167Y-9937976D02*
X13259167Y-9976071D01*
X13554405Y-10214167D02*
X13544881Y-10204643D01*
X13525833Y-10176071D01*
X13516309Y-10157024D01*
X13506786Y-10128452D01*
X13497262Y-10080833D01*
X13497262Y-10042738D01*
X13506786Y-9995119D01*
X13516309Y-9966548D01*
X13525833Y-9947500D01*
X13544881Y-9918929D01*
X13554405Y-9909405D01*
X13716309Y-9937976D02*
X13678214Y-9937976D01*
X13659167Y-9947500D01*
X13649643Y-9957024D01*
X13630595Y-9985595D01*
X13621071Y-10023690D01*
X13621071Y-10099881D01*
X13630595Y-10118929D01*
X13640119Y-10128452D01*
X13659167Y-10137976D01*
X13697262Y-10137976D01*
X13716309Y-10128452D01*
X13725833Y-10118929D01*
X13735357Y-10099881D01*
X13735357Y-10052262D01*
X13725833Y-10033214D01*
X13716309Y-10023690D01*
X13697262Y-10014167D01*
X13659167Y-10014167D01*
X13640119Y-10023690D01*
X13630595Y-10033214D01*
X13621071Y-10052262D01*
X13973452Y-10137976D02*
X13973452Y-9937976D01*
X14059167Y-10137976D02*
X14059167Y-10033214D01*
X14049643Y-10014167D01*
X14030595Y-10004643D01*
X14002024Y-10004643D01*
X13982976Y-10014167D01*
X13973452Y-10023690D01*
X14182976Y-10137976D02*
X14163928Y-10128452D01*
X14154405Y-10118929D01*
X14144881Y-10099881D01*
X14144881Y-10042738D01*
X14154405Y-10023690D01*
X14163928Y-10014167D01*
X14182976Y-10004643D01*
X14211548Y-10004643D01*
X14230595Y-10014167D01*
X14240119Y-10023690D01*
X14249643Y-10042738D01*
X14249643Y-10099881D01*
X14240119Y-10118929D01*
X14230595Y-10128452D01*
X14211548Y-10137976D01*
X14182976Y-10137976D01*
X14363928Y-10137976D02*
X14344881Y-10128452D01*
X14335357Y-10109405D01*
X14335357Y-9937976D01*
X14516309Y-10128452D02*
X14497262Y-10137976D01*
X14459167Y-10137976D01*
X14440119Y-10128452D01*
X14430595Y-10109405D01*
X14430595Y-10033214D01*
X14440119Y-10014167D01*
X14459167Y-10004643D01*
X14497262Y-10004643D01*
X14516309Y-10014167D01*
X14525833Y-10033214D01*
X14525833Y-10052262D01*
X14430595Y-10071310D01*
X14602024Y-10128452D02*
X14621071Y-10137976D01*
X14659167Y-10137976D01*
X14678214Y-10128452D01*
X14687738Y-10109405D01*
X14687738Y-10099881D01*
X14678214Y-10080833D01*
X14659167Y-10071310D01*
X14630595Y-10071310D01*
X14611548Y-10061786D01*
X14602024Y-10042738D01*
X14602024Y-10033214D01*
X14611548Y-10014167D01*
X14630595Y-10004643D01*
X14659167Y-10004643D01*
X14678214Y-10014167D01*
X14754405Y-10214167D02*
X14763928Y-10204643D01*
X14782976Y-10176071D01*
X14792500Y-10157024D01*
X14802024Y-10128452D01*
X14811548Y-10080833D01*
X14811548Y-10042738D01*
X14802024Y-9995119D01*
X14792500Y-9966548D01*
X14782976Y-9947500D01*
X14763928Y-9918929D01*
X14754405Y-9909405D01*
D13*
X9982500Y-10311500D02*
G75*
G03*
X9982500Y-10311500I-40000J0D01*
G01*
D11*
X10278214Y-10201976D02*
X10297262Y-10201976D01*
X10316310Y-10211500D01*
X10325833Y-10221024D01*
X10335357Y-10240071D01*
X10344881Y-10278167D01*
X10344881Y-10325786D01*
X10335357Y-10363881D01*
X10325833Y-10382929D01*
X10316310Y-10392452D01*
X10297262Y-10401976D01*
X10278214Y-10401976D01*
X10259167Y-10392452D01*
X10249643Y-10382929D01*
X10240119Y-10363881D01*
X10230595Y-10325786D01*
X10230595Y-10278167D01*
X10240119Y-10240071D01*
X10249643Y-10221024D01*
X10259167Y-10211500D01*
X10278214Y-10201976D01*
X10430595Y-10382929D02*
X10440119Y-10392452D01*
X10430595Y-10401976D01*
X10421071Y-10392452D01*
X10430595Y-10382929D01*
X10430595Y-10401976D01*
X10554405Y-10287690D02*
X10535357Y-10278167D01*
X10525833Y-10268643D01*
X10516310Y-10249595D01*
X10516310Y-10240071D01*
X10525833Y-10221024D01*
X10535357Y-10211500D01*
X10554405Y-10201976D01*
X10592500Y-10201976D01*
X10611548Y-10211500D01*
X10621071Y-10221024D01*
X10630595Y-10240071D01*
X10630595Y-10249595D01*
X10621071Y-10268643D01*
X10611548Y-10278167D01*
X10592500Y-10287690D01*
X10554405Y-10287690D01*
X10535357Y-10297214D01*
X10525833Y-10306738D01*
X10516310Y-10325786D01*
X10516310Y-10363881D01*
X10525833Y-10382929D01*
X10535357Y-10392452D01*
X10554405Y-10401976D01*
X10592500Y-10401976D01*
X10611548Y-10392452D01*
X10621071Y-10382929D01*
X10630595Y-10363881D01*
X10630595Y-10325786D01*
X10621071Y-10306738D01*
X10611548Y-10297214D01*
X10592500Y-10287690D01*
X10754405Y-10201976D02*
X10773452Y-10201976D01*
X10792500Y-10211500D01*
X10802024Y-10221024D01*
X10811548Y-10240071D01*
X10821071Y-10278167D01*
X10821071Y-10325786D01*
X10811548Y-10363881D01*
X10802024Y-10382929D01*
X10792500Y-10392452D01*
X10773452Y-10401976D01*
X10754405Y-10401976D01*
X10735357Y-10392452D01*
X10725833Y-10382929D01*
X10716310Y-10363881D01*
X10706786Y-10325786D01*
X10706786Y-10278167D01*
X10716310Y-10240071D01*
X10725833Y-10221024D01*
X10735357Y-10211500D01*
X10754405Y-10201976D01*
X10944881Y-10201976D02*
X10963929Y-10201976D01*
X10982976Y-10211500D01*
X10992500Y-10221024D01*
X11002024Y-10240071D01*
X11011548Y-10278167D01*
X11011548Y-10325786D01*
X11002024Y-10363881D01*
X10992500Y-10382929D01*
X10982976Y-10392452D01*
X10963929Y-10401976D01*
X10944881Y-10401976D01*
X10925833Y-10392452D01*
X10916310Y-10382929D01*
X10906786Y-10363881D01*
X10897262Y-10325786D01*
X10897262Y-10278167D01*
X10906786Y-10240071D01*
X10916310Y-10221024D01*
X10925833Y-10211500D01*
X10944881Y-10201976D01*
X11097262Y-10401976D02*
X11097262Y-10268643D01*
X11097262Y-10287690D02*
X11106786Y-10278167D01*
X11125833Y-10268643D01*
X11154405Y-10268643D01*
X11173452Y-10278167D01*
X11182976Y-10297214D01*
X11182976Y-10401976D01*
X11182976Y-10297214D02*
X11192500Y-10278167D01*
X11211548Y-10268643D01*
X11240119Y-10268643D01*
X11259167Y-10278167D01*
X11268690Y-10297214D01*
X11268690Y-10401976D01*
X11363928Y-10401976D02*
X11363928Y-10268643D01*
X11363928Y-10287690D02*
X11373452Y-10278167D01*
X11392500Y-10268643D01*
X11421071Y-10268643D01*
X11440119Y-10278167D01*
X11449643Y-10297214D01*
X11449643Y-10401976D01*
X11449643Y-10297214D02*
X11459167Y-10278167D01*
X11478214Y-10268643D01*
X11506786Y-10268643D01*
X11525833Y-10278167D01*
X11535357Y-10297214D01*
X11535357Y-10401976D01*
X11925833Y-10192452D02*
X11754405Y-10449595D01*
X12182976Y-10201976D02*
X12202024Y-10201976D01*
X12221071Y-10211500D01*
X12230595Y-10221024D01*
X12240119Y-10240071D01*
X12249643Y-10278167D01*
X12249643Y-10325786D01*
X12240119Y-10363881D01*
X12230595Y-10382929D01*
X12221071Y-10392452D01*
X12202024Y-10401976D01*
X12182976Y-10401976D01*
X12163928Y-10392452D01*
X12154405Y-10382929D01*
X12144881Y-10363881D01*
X12135357Y-10325786D01*
X12135357Y-10278167D01*
X12144881Y-10240071D01*
X12154405Y-10221024D01*
X12163928Y-10211500D01*
X12182976Y-10201976D01*
X12335357Y-10382929D02*
X12344881Y-10392452D01*
X12335357Y-10401976D01*
X12325833Y-10392452D01*
X12335357Y-10382929D01*
X12335357Y-10401976D01*
X12468690Y-10201976D02*
X12487738Y-10201976D01*
X12506786Y-10211500D01*
X12516309Y-10221024D01*
X12525833Y-10240071D01*
X12535357Y-10278167D01*
X12535357Y-10325786D01*
X12525833Y-10363881D01*
X12516309Y-10382929D01*
X12506786Y-10392452D01*
X12487738Y-10401976D01*
X12468690Y-10401976D01*
X12449643Y-10392452D01*
X12440119Y-10382929D01*
X12430595Y-10363881D01*
X12421071Y-10325786D01*
X12421071Y-10278167D01*
X12430595Y-10240071D01*
X12440119Y-10221024D01*
X12449643Y-10211500D01*
X12468690Y-10201976D01*
X12602024Y-10201976D02*
X12725833Y-10201976D01*
X12659167Y-10278167D01*
X12687738Y-10278167D01*
X12706786Y-10287690D01*
X12716309Y-10297214D01*
X12725833Y-10316262D01*
X12725833Y-10363881D01*
X12716309Y-10382929D01*
X12706786Y-10392452D01*
X12687738Y-10401976D01*
X12630595Y-10401976D01*
X12611548Y-10392452D01*
X12602024Y-10382929D01*
X12916309Y-10401976D02*
X12802024Y-10401976D01*
X12859167Y-10401976D02*
X12859167Y-10201976D01*
X12840119Y-10230548D01*
X12821071Y-10249595D01*
X12802024Y-10259119D01*
X13097262Y-10201976D02*
X13002024Y-10201976D01*
X12992500Y-10297214D01*
X13002024Y-10287690D01*
X13021071Y-10278167D01*
X13068690Y-10278167D01*
X13087738Y-10287690D01*
X13097262Y-10297214D01*
X13106786Y-10316262D01*
X13106786Y-10363881D01*
X13097262Y-10382929D01*
X13087738Y-10392452D01*
X13068690Y-10401976D01*
X13021071Y-10401976D01*
X13002024Y-10392452D01*
X12992500Y-10382929D01*
X13182976Y-10201976D02*
X13182976Y-10240071D01*
X13259167Y-10201976D02*
X13259167Y-10240071D01*
X13554405Y-10478167D02*
X13544881Y-10468643D01*
X13525833Y-10440071D01*
X13516309Y-10421024D01*
X13506786Y-10392452D01*
X13497262Y-10344833D01*
X13497262Y-10306738D01*
X13506786Y-10259119D01*
X13516309Y-10230548D01*
X13525833Y-10211500D01*
X13544881Y-10182929D01*
X13554405Y-10173405D01*
X13611548Y-10201976D02*
X13744881Y-10201976D01*
X13659167Y-10401976D01*
X13973452Y-10401976D02*
X13973452Y-10201976D01*
X14059167Y-10401976D02*
X14059167Y-10297214D01*
X14049643Y-10278167D01*
X14030595Y-10268643D01*
X14002024Y-10268643D01*
X13982976Y-10278167D01*
X13973452Y-10287690D01*
X14182976Y-10401976D02*
X14163928Y-10392452D01*
X14154405Y-10382929D01*
X14144881Y-10363881D01*
X14144881Y-10306738D01*
X14154405Y-10287690D01*
X14163928Y-10278167D01*
X14182976Y-10268643D01*
X14211548Y-10268643D01*
X14230595Y-10278167D01*
X14240119Y-10287690D01*
X14249643Y-10306738D01*
X14249643Y-10363881D01*
X14240119Y-10382929D01*
X14230595Y-10392452D01*
X14211548Y-10401976D01*
X14182976Y-10401976D01*
X14363928Y-10401976D02*
X14344881Y-10392452D01*
X14335357Y-10373405D01*
X14335357Y-10201976D01*
X14516309Y-10392452D02*
X14497262Y-10401976D01*
X14459167Y-10401976D01*
X14440119Y-10392452D01*
X14430595Y-10373405D01*
X14430595Y-10297214D01*
X14440119Y-10278167D01*
X14459167Y-10268643D01*
X14497262Y-10268643D01*
X14516309Y-10278167D01*
X14525833Y-10297214D01*
X14525833Y-10316262D01*
X14430595Y-10335310D01*
X14602024Y-10392452D02*
X14621071Y-10401976D01*
X14659167Y-10401976D01*
X14678214Y-10392452D01*
X14687738Y-10373405D01*
X14687738Y-10363881D01*
X14678214Y-10344833D01*
X14659167Y-10335310D01*
X14630595Y-10335310D01*
X14611548Y-10325786D01*
X14602024Y-10306738D01*
X14602024Y-10297214D01*
X14611548Y-10278167D01*
X14630595Y-10268643D01*
X14659167Y-10268643D01*
X14678214Y-10278167D01*
X14754405Y-10478167D02*
X14763928Y-10468643D01*
X14782976Y-10440071D01*
X14792500Y-10421024D01*
X14802024Y-10392452D01*
X14811548Y-10344833D01*
X14811548Y-10306738D01*
X14802024Y-10259119D01*
X14792500Y-10230548D01*
X14782976Y-10211500D01*
X14763928Y-10182929D01*
X14754405Y-10173405D01*
D14*
X9932500Y-10525500D02*
X9932500Y-10625500D01*
X9882500Y-10575500D02*
X9982500Y-10575500D01*
D11*
X10344881Y-10665976D02*
X10230595Y-10665976D01*
X10287738Y-10665976D02*
X10287738Y-10465976D01*
X10268690Y-10494548D01*
X10249643Y-10513595D01*
X10230595Y-10523119D01*
X10430595Y-10646929D02*
X10440119Y-10656452D01*
X10430595Y-10665976D01*
X10421071Y-10656452D01*
X10430595Y-10646929D01*
X10430595Y-10665976D01*
X10563929Y-10465976D02*
X10582976Y-10465976D01*
X10602024Y-10475500D01*
X10611548Y-10485024D01*
X10621071Y-10504071D01*
X10630595Y-10542167D01*
X10630595Y-10589786D01*
X10621071Y-10627881D01*
X10611548Y-10646929D01*
X10602024Y-10656452D01*
X10582976Y-10665976D01*
X10563929Y-10665976D01*
X10544881Y-10656452D01*
X10535357Y-10646929D01*
X10525833Y-10627881D01*
X10516310Y-10589786D01*
X10516310Y-10542167D01*
X10525833Y-10504071D01*
X10535357Y-10485024D01*
X10544881Y-10475500D01*
X10563929Y-10465976D01*
X10754405Y-10465976D02*
X10773452Y-10465976D01*
X10792500Y-10475500D01*
X10802024Y-10485024D01*
X10811548Y-10504071D01*
X10821071Y-10542167D01*
X10821071Y-10589786D01*
X10811548Y-10627881D01*
X10802024Y-10646929D01*
X10792500Y-10656452D01*
X10773452Y-10665976D01*
X10754405Y-10665976D01*
X10735357Y-10656452D01*
X10725833Y-10646929D01*
X10716310Y-10627881D01*
X10706786Y-10589786D01*
X10706786Y-10542167D01*
X10716310Y-10504071D01*
X10725833Y-10485024D01*
X10735357Y-10475500D01*
X10754405Y-10465976D01*
X10944881Y-10465976D02*
X10963929Y-10465976D01*
X10982976Y-10475500D01*
X10992500Y-10485024D01*
X11002024Y-10504071D01*
X11011548Y-10542167D01*
X11011548Y-10589786D01*
X11002024Y-10627881D01*
X10992500Y-10646929D01*
X10982976Y-10656452D01*
X10963929Y-10665976D01*
X10944881Y-10665976D01*
X10925833Y-10656452D01*
X10916310Y-10646929D01*
X10906786Y-10627881D01*
X10897262Y-10589786D01*
X10897262Y-10542167D01*
X10906786Y-10504071D01*
X10916310Y-10485024D01*
X10925833Y-10475500D01*
X10944881Y-10465976D01*
X11097262Y-10665976D02*
X11097262Y-10532643D01*
X11097262Y-10551690D02*
X11106786Y-10542167D01*
X11125833Y-10532643D01*
X11154405Y-10532643D01*
X11173452Y-10542167D01*
X11182976Y-10561214D01*
X11182976Y-10665976D01*
X11182976Y-10561214D02*
X11192500Y-10542167D01*
X11211548Y-10532643D01*
X11240119Y-10532643D01*
X11259167Y-10542167D01*
X11268690Y-10561214D01*
X11268690Y-10665976D01*
X11363928Y-10665976D02*
X11363928Y-10532643D01*
X11363928Y-10551690D02*
X11373452Y-10542167D01*
X11392500Y-10532643D01*
X11421071Y-10532643D01*
X11440119Y-10542167D01*
X11449643Y-10561214D01*
X11449643Y-10665976D01*
X11449643Y-10561214D02*
X11459167Y-10542167D01*
X11478214Y-10532643D01*
X11506786Y-10532643D01*
X11525833Y-10542167D01*
X11535357Y-10561214D01*
X11535357Y-10665976D01*
X11925833Y-10456452D02*
X11754405Y-10713595D01*
X12182976Y-10465976D02*
X12202024Y-10465976D01*
X12221071Y-10475500D01*
X12230595Y-10485024D01*
X12240119Y-10504071D01*
X12249643Y-10542167D01*
X12249643Y-10589786D01*
X12240119Y-10627881D01*
X12230595Y-10646929D01*
X12221071Y-10656452D01*
X12202024Y-10665976D01*
X12182976Y-10665976D01*
X12163928Y-10656452D01*
X12154405Y-10646929D01*
X12144881Y-10627881D01*
X12135357Y-10589786D01*
X12135357Y-10542167D01*
X12144881Y-10504071D01*
X12154405Y-10485024D01*
X12163928Y-10475500D01*
X12182976Y-10465976D01*
X12335357Y-10646929D02*
X12344881Y-10656452D01*
X12335357Y-10665976D01*
X12325833Y-10656452D01*
X12335357Y-10646929D01*
X12335357Y-10665976D01*
X12468690Y-10465976D02*
X12487738Y-10465976D01*
X12506786Y-10475500D01*
X12516309Y-10485024D01*
X12525833Y-10504071D01*
X12535357Y-10542167D01*
X12535357Y-10589786D01*
X12525833Y-10627881D01*
X12516309Y-10646929D01*
X12506786Y-10656452D01*
X12487738Y-10665976D01*
X12468690Y-10665976D01*
X12449643Y-10656452D01*
X12440119Y-10646929D01*
X12430595Y-10627881D01*
X12421071Y-10589786D01*
X12421071Y-10542167D01*
X12430595Y-10504071D01*
X12440119Y-10485024D01*
X12449643Y-10475500D01*
X12468690Y-10465976D01*
X12602024Y-10465976D02*
X12725833Y-10465976D01*
X12659167Y-10542167D01*
X12687738Y-10542167D01*
X12706786Y-10551690D01*
X12716309Y-10561214D01*
X12725833Y-10580262D01*
X12725833Y-10627881D01*
X12716309Y-10646929D01*
X12706786Y-10656452D01*
X12687738Y-10665976D01*
X12630595Y-10665976D01*
X12611548Y-10656452D01*
X12602024Y-10646929D01*
X12821071Y-10665976D02*
X12859167Y-10665976D01*
X12878214Y-10656452D01*
X12887738Y-10646929D01*
X12906786Y-10618357D01*
X12916309Y-10580262D01*
X12916309Y-10504071D01*
X12906786Y-10485024D01*
X12897262Y-10475500D01*
X12878214Y-10465976D01*
X12840119Y-10465976D01*
X12821071Y-10475500D01*
X12811548Y-10485024D01*
X12802024Y-10504071D01*
X12802024Y-10551690D01*
X12811548Y-10570738D01*
X12821071Y-10580262D01*
X12840119Y-10589786D01*
X12878214Y-10589786D01*
X12897262Y-10580262D01*
X12906786Y-10570738D01*
X12916309Y-10551690D01*
X13087738Y-10532643D02*
X13087738Y-10665976D01*
X13040119Y-10456452D02*
X12992500Y-10599310D01*
X13116309Y-10599310D01*
X13182976Y-10465976D02*
X13182976Y-10504071D01*
X13259167Y-10465976D02*
X13259167Y-10504071D01*
X13554405Y-10742167D02*
X13544881Y-10732643D01*
X13525833Y-10704071D01*
X13516309Y-10685024D01*
X13506786Y-10656452D01*
X13497262Y-10608833D01*
X13497262Y-10570738D01*
X13506786Y-10523119D01*
X13516309Y-10494548D01*
X13525833Y-10475500D01*
X13544881Y-10446929D01*
X13554405Y-10437405D01*
X13611548Y-10465976D02*
X13744881Y-10465976D01*
X13659167Y-10665976D01*
X13973452Y-10665976D02*
X13973452Y-10465976D01*
X14059167Y-10665976D02*
X14059167Y-10561214D01*
X14049643Y-10542167D01*
X14030595Y-10532643D01*
X14002024Y-10532643D01*
X13982976Y-10542167D01*
X13973452Y-10551690D01*
X14182976Y-10665976D02*
X14163928Y-10656452D01*
X14154405Y-10646929D01*
X14144881Y-10627881D01*
X14144881Y-10570738D01*
X14154405Y-10551690D01*
X14163928Y-10542167D01*
X14182976Y-10532643D01*
X14211548Y-10532643D01*
X14230595Y-10542167D01*
X14240119Y-10551690D01*
X14249643Y-10570738D01*
X14249643Y-10627881D01*
X14240119Y-10646929D01*
X14230595Y-10656452D01*
X14211548Y-10665976D01*
X14182976Y-10665976D01*
X14363928Y-10665976D02*
X14344881Y-10656452D01*
X14335357Y-10637405D01*
X14335357Y-10465976D01*
X14516309Y-10656452D02*
X14497262Y-10665976D01*
X14459167Y-10665976D01*
X14440119Y-10656452D01*
X14430595Y-10637405D01*
X14430595Y-10561214D01*
X14440119Y-10542167D01*
X14459167Y-10532643D01*
X14497262Y-10532643D01*
X14516309Y-10542167D01*
X14525833Y-10561214D01*
X14525833Y-10580262D01*
X14430595Y-10599310D01*
X14602024Y-10656452D02*
X14621071Y-10665976D01*
X14659167Y-10665976D01*
X14678214Y-10656452D01*
X14687738Y-10637405D01*
X14687738Y-10627881D01*
X14678214Y-10608833D01*
X14659167Y-10599310D01*
X14630595Y-10599310D01*
X14611548Y-10589786D01*
X14602024Y-10570738D01*
X14602024Y-10561214D01*
X14611548Y-10542167D01*
X14630595Y-10532643D01*
X14659167Y-10532643D01*
X14678214Y-10542167D01*
X14754405Y-10742167D02*
X14763928Y-10732643D01*
X14782976Y-10704071D01*
X14792500Y-10685024D01*
X14802024Y-10656452D01*
X14811548Y-10608833D01*
X14811548Y-10570738D01*
X14802024Y-10523119D01*
X14792500Y-10494548D01*
X14782976Y-10475500D01*
X14763928Y-10446929D01*
X14754405Y-10437405D01*
M02*
