G04 #@! TF.GenerationSoftware,KiCad,Pcbnew,(6.0.4)*
G04 #@! TF.CreationDate,2022-04-19T23:10:38+02:00*
G04 #@! TF.ProjectId,Wt_rnik_oscyloskopowy_JFET,5774f372-6e69-46b5-9f6f-7363796c6f73,rev?*
G04 #@! TF.SameCoordinates,Original*
G04 #@! TF.FileFunction,Legend,Bot*
G04 #@! TF.FilePolarity,Positive*
%FSLAX46Y46*%
G04 Gerber Fmt 4.6, Leading zero omitted, Abs format (unit mm)*
G04 Created by KiCad (PCBNEW (6.0.4)) date 2022-04-19 23:10:38*
%MOMM*%
%LPD*%
G01*
G04 APERTURE LIST*
%ADD10C,0.150000*%
%ADD11C,0.120000*%
G04 APERTURE END LIST*
D10*
G04 #@! TO.C,R3*
X122166666Y-87752380D02*
X122500000Y-87276190D01*
X122738095Y-87752380D02*
X122738095Y-86752380D01*
X122357142Y-86752380D01*
X122261904Y-86800000D01*
X122214285Y-86847619D01*
X122166666Y-86942857D01*
X122166666Y-87085714D01*
X122214285Y-87180952D01*
X122261904Y-87228571D01*
X122357142Y-87276190D01*
X122738095Y-87276190D01*
X121833333Y-86752380D02*
X121214285Y-86752380D01*
X121547619Y-87133333D01*
X121404761Y-87133333D01*
X121309523Y-87180952D01*
X121261904Y-87228571D01*
X121214285Y-87323809D01*
X121214285Y-87561904D01*
X121261904Y-87657142D01*
X121309523Y-87704761D01*
X121404761Y-87752380D01*
X121690476Y-87752380D01*
X121785714Y-87704761D01*
X121833333Y-87657142D01*
G04 #@! TO.C,R2*
X115166666Y-92052380D02*
X115500000Y-91576190D01*
X115738095Y-92052380D02*
X115738095Y-91052380D01*
X115357142Y-91052380D01*
X115261904Y-91100000D01*
X115214285Y-91147619D01*
X115166666Y-91242857D01*
X115166666Y-91385714D01*
X115214285Y-91480952D01*
X115261904Y-91528571D01*
X115357142Y-91576190D01*
X115738095Y-91576190D01*
X114785714Y-91147619D02*
X114738095Y-91100000D01*
X114642857Y-91052380D01*
X114404761Y-91052380D01*
X114309523Y-91100000D01*
X114261904Y-91147619D01*
X114214285Y-91242857D01*
X114214285Y-91338095D01*
X114261904Y-91480952D01*
X114833333Y-92052380D01*
X114214285Y-92052380D01*
G04 #@! TO.C,R1*
X109852380Y-84433333D02*
X109376190Y-84100000D01*
X109852380Y-83861904D02*
X108852380Y-83861904D01*
X108852380Y-84242857D01*
X108900000Y-84338095D01*
X108947619Y-84385714D01*
X109042857Y-84433333D01*
X109185714Y-84433333D01*
X109280952Y-84385714D01*
X109328571Y-84338095D01*
X109376190Y-84242857D01*
X109376190Y-83861904D01*
X109852380Y-85385714D02*
X109852380Y-84814285D01*
X109852380Y-85100000D02*
X108852380Y-85100000D01*
X108995238Y-85004761D01*
X109090476Y-84909523D01*
X109138095Y-84814285D01*
G04 #@! TO.C,C2*
X111066666Y-82357142D02*
X111114285Y-82404761D01*
X111257142Y-82452380D01*
X111352380Y-82452380D01*
X111495238Y-82404761D01*
X111590476Y-82309523D01*
X111638095Y-82214285D01*
X111685714Y-82023809D01*
X111685714Y-81880952D01*
X111638095Y-81690476D01*
X111590476Y-81595238D01*
X111495238Y-81500000D01*
X111352380Y-81452380D01*
X111257142Y-81452380D01*
X111114285Y-81500000D01*
X111066666Y-81547619D01*
X110685714Y-81547619D02*
X110638095Y-81500000D01*
X110542857Y-81452380D01*
X110304761Y-81452380D01*
X110209523Y-81500000D01*
X110161904Y-81547619D01*
X110114285Y-81642857D01*
X110114285Y-81738095D01*
X110161904Y-81880952D01*
X110733333Y-82452380D01*
X110114285Y-82452380D01*
G04 #@! TO.C,C3*
X117766666Y-79877142D02*
X117814285Y-79924761D01*
X117957142Y-79972380D01*
X118052380Y-79972380D01*
X118195238Y-79924761D01*
X118290476Y-79829523D01*
X118338095Y-79734285D01*
X118385714Y-79543809D01*
X118385714Y-79400952D01*
X118338095Y-79210476D01*
X118290476Y-79115238D01*
X118195238Y-79020000D01*
X118052380Y-78972380D01*
X117957142Y-78972380D01*
X117814285Y-79020000D01*
X117766666Y-79067619D01*
X117433333Y-78972380D02*
X116814285Y-78972380D01*
X117147619Y-79353333D01*
X117004761Y-79353333D01*
X116909523Y-79400952D01*
X116861904Y-79448571D01*
X116814285Y-79543809D01*
X116814285Y-79781904D01*
X116861904Y-79877142D01*
X116909523Y-79924761D01*
X117004761Y-79972380D01*
X117290476Y-79972380D01*
X117385714Y-79924761D01*
X117433333Y-79877142D01*
D11*
G04 #@! TO.C,R3*
X121772936Y-84865000D02*
X122227064Y-84865000D01*
X121772936Y-86335000D02*
X122227064Y-86335000D01*
G04 #@! TO.C,R2*
X115272936Y-89165000D02*
X115727064Y-89165000D01*
X115272936Y-90635000D02*
X115727064Y-90635000D01*
G04 #@! TO.C,R1*
X108335000Y-85627064D02*
X108335000Y-85172936D01*
X106865000Y-85627064D02*
X106865000Y-85172936D01*
G04 #@! TO.C,C2*
X113538748Y-81935000D02*
X114061252Y-81935000D01*
X113538748Y-80465000D02*
X114061252Y-80465000D01*
G04 #@! TO.C,C3*
X118561252Y-81935000D02*
X118038748Y-81935000D01*
X118561252Y-80465000D02*
X118038748Y-80465000D01*
G04 #@! TD*
M02*
