%FSLAX45Y45*%
G04 Gerber Fmt 4.5, Leading zero omitted, Abs format (unit mm)*
G04 Created by KiCad (PCBNEW (6.0.4)) date 2022-04-19 23:10:41*
%MOMM*%
%LPD*%
G01*
G04 APERTURE LIST*
%TA.AperFunction,Profile*%
%ADD10C,0.150000*%
%TD*%
%ADD11C,0.200000*%
%ADD12C,0.250000*%
G04 APERTURE END LIST*
D10*
X9990000Y-6900000D02*
X12990000Y-6900000D01*
X12990000Y-6900000D02*
X12990000Y-9400000D01*
X12990000Y-9400000D02*
X9990000Y-9400000D01*
X9990000Y-9400000D02*
X9990000Y-6900000D01*
D11*
D12*
X10195000Y-7195000D02*
X10445000Y-7445000D01*
X10445000Y-7195000D02*
X10195000Y-7445000D01*
X10195000Y-8845000D02*
X10445000Y-9095000D01*
X10445000Y-8845000D02*
X10195000Y-9095000D01*
X12515000Y-7185000D02*
X12765000Y-7435000D01*
X12765000Y-7185000D02*
X12515000Y-7435000D01*
X12515000Y-8845000D02*
X12765000Y-9095000D01*
X12765000Y-8845000D02*
X12515000Y-9095000D01*
D11*
X10240119Y-9717976D02*
X10240119Y-9517976D01*
X10287738Y-9517976D01*
X10316310Y-9527500D01*
X10335357Y-9546548D01*
X10344881Y-9565595D01*
X10354405Y-9603690D01*
X10354405Y-9632262D01*
X10344881Y-9670357D01*
X10335357Y-9689405D01*
X10316310Y-9708452D01*
X10287738Y-9717976D01*
X10240119Y-9717976D01*
X10440119Y-9717976D02*
X10440119Y-9584643D01*
X10440119Y-9622738D02*
X10449643Y-9603690D01*
X10459167Y-9594167D01*
X10478214Y-9584643D01*
X10497262Y-9584643D01*
X10563929Y-9717976D02*
X10563929Y-9584643D01*
X10563929Y-9517976D02*
X10554405Y-9527500D01*
X10563929Y-9537024D01*
X10573452Y-9527500D01*
X10563929Y-9517976D01*
X10563929Y-9537024D01*
X10687738Y-9717976D02*
X10668690Y-9708452D01*
X10659167Y-9689405D01*
X10659167Y-9517976D01*
X10792500Y-9717976D02*
X10773452Y-9708452D01*
X10763929Y-9689405D01*
X10763929Y-9517976D01*
X11021071Y-9717976D02*
X11021071Y-9517976D01*
X11087738Y-9660833D01*
X11154405Y-9517976D01*
X11154405Y-9717976D01*
X11335357Y-9717976D02*
X11335357Y-9613214D01*
X11325833Y-9594167D01*
X11306786Y-9584643D01*
X11268690Y-9584643D01*
X11249643Y-9594167D01*
X11335357Y-9708452D02*
X11316309Y-9717976D01*
X11268690Y-9717976D01*
X11249643Y-9708452D01*
X11240119Y-9689405D01*
X11240119Y-9670357D01*
X11249643Y-9651310D01*
X11268690Y-9641786D01*
X11316309Y-9641786D01*
X11335357Y-9632262D01*
X11430595Y-9584643D02*
X11430595Y-9784643D01*
X11430595Y-9594167D02*
X11449643Y-9584643D01*
X11487738Y-9584643D01*
X11506786Y-9594167D01*
X11516309Y-9603690D01*
X11525833Y-9622738D01*
X11525833Y-9679881D01*
X11516309Y-9698929D01*
X11506786Y-9708452D01*
X11487738Y-9717976D01*
X11449643Y-9717976D01*
X11430595Y-9708452D01*
X11611548Y-9698929D02*
X11621071Y-9708452D01*
X11611548Y-9717976D01*
X11602024Y-9708452D01*
X11611548Y-9698929D01*
X11611548Y-9717976D01*
X11611548Y-9594167D02*
X11621071Y-9603690D01*
X11611548Y-9613214D01*
X11602024Y-9603690D01*
X11611548Y-9594167D01*
X11611548Y-9613214D01*
X9782500Y-9947500D02*
X9982500Y-10147500D01*
X9982500Y-9947500D02*
X9782500Y-10147500D01*
X10230595Y-9957024D02*
X10240119Y-9947500D01*
X10259167Y-9937976D01*
X10306786Y-9937976D01*
X10325833Y-9947500D01*
X10335357Y-9957024D01*
X10344881Y-9976071D01*
X10344881Y-9995119D01*
X10335357Y-10023690D01*
X10221071Y-10137976D01*
X10344881Y-10137976D01*
X10430595Y-10118929D02*
X10440119Y-10128452D01*
X10430595Y-10137976D01*
X10421071Y-10128452D01*
X10430595Y-10118929D01*
X10430595Y-10137976D01*
X10621071Y-9937976D02*
X10525833Y-9937976D01*
X10516310Y-10033214D01*
X10525833Y-10023690D01*
X10544881Y-10014167D01*
X10592500Y-10014167D01*
X10611548Y-10023690D01*
X10621071Y-10033214D01*
X10630595Y-10052262D01*
X10630595Y-10099881D01*
X10621071Y-10118929D01*
X10611548Y-10128452D01*
X10592500Y-10137976D01*
X10544881Y-10137976D01*
X10525833Y-10128452D01*
X10516310Y-10118929D01*
X10754405Y-9937976D02*
X10773452Y-9937976D01*
X10792500Y-9947500D01*
X10802024Y-9957024D01*
X10811548Y-9976071D01*
X10821071Y-10014167D01*
X10821071Y-10061786D01*
X10811548Y-10099881D01*
X10802024Y-10118929D01*
X10792500Y-10128452D01*
X10773452Y-10137976D01*
X10754405Y-10137976D01*
X10735357Y-10128452D01*
X10725833Y-10118929D01*
X10716310Y-10099881D01*
X10706786Y-10061786D01*
X10706786Y-10014167D01*
X10716310Y-9976071D01*
X10725833Y-9957024D01*
X10735357Y-9947500D01*
X10754405Y-9937976D01*
X10944881Y-9937976D02*
X10963929Y-9937976D01*
X10982976Y-9947500D01*
X10992500Y-9957024D01*
X11002024Y-9976071D01*
X11011548Y-10014167D01*
X11011548Y-10061786D01*
X11002024Y-10099881D01*
X10992500Y-10118929D01*
X10982976Y-10128452D01*
X10963929Y-10137976D01*
X10944881Y-10137976D01*
X10925833Y-10128452D01*
X10916310Y-10118929D01*
X10906786Y-10099881D01*
X10897262Y-10061786D01*
X10897262Y-10014167D01*
X10906786Y-9976071D01*
X10916310Y-9957024D01*
X10925833Y-9947500D01*
X10944881Y-9937976D01*
X11097262Y-10137976D02*
X11097262Y-10004643D01*
X11097262Y-10023690D02*
X11106786Y-10014167D01*
X11125833Y-10004643D01*
X11154405Y-10004643D01*
X11173452Y-10014167D01*
X11182976Y-10033214D01*
X11182976Y-10137976D01*
X11182976Y-10033214D02*
X11192500Y-10014167D01*
X11211548Y-10004643D01*
X11240119Y-10004643D01*
X11259167Y-10014167D01*
X11268690Y-10033214D01*
X11268690Y-10137976D01*
X11363928Y-10137976D02*
X11363928Y-10004643D01*
X11363928Y-10023690D02*
X11373452Y-10014167D01*
X11392500Y-10004643D01*
X11421071Y-10004643D01*
X11440119Y-10014167D01*
X11449643Y-10033214D01*
X11449643Y-10137976D01*
X11449643Y-10033214D02*
X11459167Y-10014167D01*
X11478214Y-10004643D01*
X11506786Y-10004643D01*
X11525833Y-10014167D01*
X11535357Y-10033214D01*
X11535357Y-10137976D01*
X11925833Y-9928452D02*
X11754405Y-10185595D01*
X12182976Y-9937976D02*
X12202024Y-9937976D01*
X12221071Y-9947500D01*
X12230595Y-9957024D01*
X12240119Y-9976071D01*
X12249643Y-10014167D01*
X12249643Y-10061786D01*
X12240119Y-10099881D01*
X12230595Y-10118929D01*
X12221071Y-10128452D01*
X12202024Y-10137976D01*
X12182976Y-10137976D01*
X12163928Y-10128452D01*
X12154405Y-10118929D01*
X12144881Y-10099881D01*
X12135357Y-10061786D01*
X12135357Y-10014167D01*
X12144881Y-9976071D01*
X12154405Y-9957024D01*
X12163928Y-9947500D01*
X12182976Y-9937976D01*
X12335357Y-10118929D02*
X12344881Y-10128452D01*
X12335357Y-10137976D01*
X12325833Y-10128452D01*
X12335357Y-10118929D01*
X12335357Y-10137976D01*
X12468690Y-9937976D02*
X12487738Y-9937976D01*
X12506786Y-9947500D01*
X12516309Y-9957024D01*
X12525833Y-9976071D01*
X12535357Y-10014167D01*
X12535357Y-10061786D01*
X12525833Y-10099881D01*
X12516309Y-10118929D01*
X12506786Y-10128452D01*
X12487738Y-10137976D01*
X12468690Y-10137976D01*
X12449643Y-10128452D01*
X12440119Y-10118929D01*
X12430595Y-10099881D01*
X12421071Y-10061786D01*
X12421071Y-10014167D01*
X12430595Y-9976071D01*
X12440119Y-9957024D01*
X12449643Y-9947500D01*
X12468690Y-9937976D01*
X12630595Y-10137976D02*
X12668690Y-10137976D01*
X12687738Y-10128452D01*
X12697262Y-10118929D01*
X12716309Y-10090357D01*
X12725833Y-10052262D01*
X12725833Y-9976071D01*
X12716309Y-9957024D01*
X12706786Y-9947500D01*
X12687738Y-9937976D01*
X12649643Y-9937976D01*
X12630595Y-9947500D01*
X12621071Y-9957024D01*
X12611548Y-9976071D01*
X12611548Y-10023690D01*
X12621071Y-10042738D01*
X12630595Y-10052262D01*
X12649643Y-10061786D01*
X12687738Y-10061786D01*
X12706786Y-10052262D01*
X12716309Y-10042738D01*
X12725833Y-10023690D01*
X12840119Y-10023690D02*
X12821071Y-10014167D01*
X12811548Y-10004643D01*
X12802024Y-9985595D01*
X12802024Y-9976071D01*
X12811548Y-9957024D01*
X12821071Y-9947500D01*
X12840119Y-9937976D01*
X12878214Y-9937976D01*
X12897262Y-9947500D01*
X12906786Y-9957024D01*
X12916309Y-9976071D01*
X12916309Y-9985595D01*
X12906786Y-10004643D01*
X12897262Y-10014167D01*
X12878214Y-10023690D01*
X12840119Y-10023690D01*
X12821071Y-10033214D01*
X12811548Y-10042738D01*
X12802024Y-10061786D01*
X12802024Y-10099881D01*
X12811548Y-10118929D01*
X12821071Y-10128452D01*
X12840119Y-10137976D01*
X12878214Y-10137976D01*
X12897262Y-10128452D01*
X12906786Y-10118929D01*
X12916309Y-10099881D01*
X12916309Y-10061786D01*
X12906786Y-10042738D01*
X12897262Y-10033214D01*
X12878214Y-10023690D01*
X13087738Y-10004643D02*
X13087738Y-10137976D01*
X13040119Y-9928452D02*
X12992500Y-10071310D01*
X13116309Y-10071310D01*
X13182976Y-9937976D02*
X13182976Y-9976071D01*
X13259167Y-9937976D02*
X13259167Y-9976071D01*
X13554405Y-10214167D02*
X13544881Y-10204643D01*
X13525833Y-10176071D01*
X13516309Y-10157024D01*
X13506786Y-10128452D01*
X13497262Y-10080833D01*
X13497262Y-10042738D01*
X13506786Y-9995119D01*
X13516309Y-9966548D01*
X13525833Y-9947500D01*
X13544881Y-9918929D01*
X13554405Y-9909405D01*
X13716309Y-10004643D02*
X13716309Y-10137976D01*
X13668690Y-9928452D02*
X13621071Y-10071310D01*
X13744881Y-10071310D01*
X13973452Y-10137976D02*
X13973452Y-9937976D01*
X14059167Y-10137976D02*
X14059167Y-10033214D01*
X14049643Y-10014167D01*
X14030595Y-10004643D01*
X14002024Y-10004643D01*
X13982976Y-10014167D01*
X13973452Y-10023690D01*
X14182976Y-10137976D02*
X14163928Y-10128452D01*
X14154405Y-10118929D01*
X14144881Y-10099881D01*
X14144881Y-10042738D01*
X14154405Y-10023690D01*
X14163928Y-10014167D01*
X14182976Y-10004643D01*
X14211548Y-10004643D01*
X14230595Y-10014167D01*
X14240119Y-10023690D01*
X14249643Y-10042738D01*
X14249643Y-10099881D01*
X14240119Y-10118929D01*
X14230595Y-10128452D01*
X14211548Y-10137976D01*
X14182976Y-10137976D01*
X14363928Y-10137976D02*
X14344881Y-10128452D01*
X14335357Y-10109405D01*
X14335357Y-9937976D01*
X14516309Y-10128452D02*
X14497262Y-10137976D01*
X14459167Y-10137976D01*
X14440119Y-10128452D01*
X14430595Y-10109405D01*
X14430595Y-10033214D01*
X14440119Y-10014167D01*
X14459167Y-10004643D01*
X14497262Y-10004643D01*
X14516309Y-10014167D01*
X14525833Y-10033214D01*
X14525833Y-10052262D01*
X14430595Y-10071310D01*
X14602024Y-10128452D02*
X14621071Y-10137976D01*
X14659167Y-10137976D01*
X14678214Y-10128452D01*
X14687738Y-10109405D01*
X14687738Y-10099881D01*
X14678214Y-10080833D01*
X14659167Y-10071310D01*
X14630595Y-10071310D01*
X14611548Y-10061786D01*
X14602024Y-10042738D01*
X14602024Y-10033214D01*
X14611548Y-10014167D01*
X14630595Y-10004643D01*
X14659167Y-10004643D01*
X14678214Y-10014167D01*
X14754405Y-10214167D02*
X14763928Y-10204643D01*
X14782976Y-10176071D01*
X14792500Y-10157024D01*
X14802024Y-10128452D01*
X14811548Y-10080833D01*
X14811548Y-10042738D01*
X14802024Y-9995119D01*
X14792500Y-9966548D01*
X14782976Y-9947500D01*
X14763928Y-9918929D01*
X14754405Y-9909405D01*
X15116309Y-10214167D02*
X15106786Y-10204643D01*
X15087738Y-10176071D01*
X15078214Y-10157024D01*
X15068690Y-10128452D01*
X15059167Y-10080833D01*
X15059167Y-10042738D01*
X15068690Y-9995119D01*
X15078214Y-9966548D01*
X15087738Y-9947500D01*
X15106786Y-9918929D01*
X15116309Y-9909405D01*
X15192500Y-10004643D02*
X15192500Y-10137976D01*
X15192500Y-10023690D02*
X15202024Y-10014167D01*
X15221071Y-10004643D01*
X15249643Y-10004643D01*
X15268690Y-10014167D01*
X15278214Y-10033214D01*
X15278214Y-10137976D01*
X15402024Y-10137976D02*
X15382976Y-10128452D01*
X15373452Y-10118929D01*
X15363928Y-10099881D01*
X15363928Y-10042738D01*
X15373452Y-10023690D01*
X15382976Y-10014167D01*
X15402024Y-10004643D01*
X15430595Y-10004643D01*
X15449643Y-10014167D01*
X15459167Y-10023690D01*
X15468690Y-10042738D01*
X15468690Y-10099881D01*
X15459167Y-10118929D01*
X15449643Y-10128452D01*
X15430595Y-10137976D01*
X15402024Y-10137976D01*
X15525833Y-10004643D02*
X15602024Y-10004643D01*
X15554405Y-9937976D02*
X15554405Y-10109405D01*
X15563928Y-10128452D01*
X15582976Y-10137976D01*
X15602024Y-10137976D01*
X15821071Y-10004643D02*
X15821071Y-10204643D01*
X15821071Y-10014167D02*
X15840119Y-10004643D01*
X15878214Y-10004643D01*
X15897262Y-10014167D01*
X15906786Y-10023690D01*
X15916309Y-10042738D01*
X15916309Y-10099881D01*
X15906786Y-10118929D01*
X15897262Y-10128452D01*
X15878214Y-10137976D01*
X15840119Y-10137976D01*
X15821071Y-10128452D01*
X16030595Y-10137976D02*
X16011548Y-10128452D01*
X16002024Y-10109405D01*
X16002024Y-9937976D01*
X16192500Y-10137976D02*
X16192500Y-10033214D01*
X16182976Y-10014167D01*
X16163928Y-10004643D01*
X16125833Y-10004643D01*
X16106786Y-10014167D01*
X16192500Y-10128452D02*
X16173452Y-10137976D01*
X16125833Y-10137976D01*
X16106786Y-10128452D01*
X16097262Y-10109405D01*
X16097262Y-10090357D01*
X16106786Y-10071310D01*
X16125833Y-10061786D01*
X16173452Y-10061786D01*
X16192500Y-10052262D01*
X16259167Y-10004643D02*
X16335357Y-10004643D01*
X16287738Y-9937976D02*
X16287738Y-10109405D01*
X16297262Y-10128452D01*
X16316309Y-10137976D01*
X16335357Y-10137976D01*
X16478214Y-10128452D02*
X16459167Y-10137976D01*
X16421071Y-10137976D01*
X16402024Y-10128452D01*
X16392500Y-10109405D01*
X16392500Y-10033214D01*
X16402024Y-10014167D01*
X16421071Y-10004643D01*
X16459167Y-10004643D01*
X16478214Y-10014167D01*
X16487738Y-10033214D01*
X16487738Y-10052262D01*
X16392500Y-10071310D01*
X16659167Y-10137976D02*
X16659167Y-9937976D01*
X16659167Y-10128452D02*
X16640119Y-10137976D01*
X16602024Y-10137976D01*
X16582976Y-10128452D01*
X16573452Y-10118929D01*
X16563928Y-10099881D01*
X16563928Y-10042738D01*
X16573452Y-10023690D01*
X16582976Y-10014167D01*
X16602024Y-10004643D01*
X16640119Y-10004643D01*
X16659167Y-10014167D01*
X16735357Y-10214167D02*
X16744881Y-10204643D01*
X16763928Y-10176071D01*
X16773452Y-10157024D01*
X16782976Y-10128452D01*
X16792500Y-10080833D01*
X16792500Y-10042738D01*
X16782976Y-9995119D01*
X16773452Y-9966548D01*
X16763928Y-9947500D01*
X16744881Y-9918929D01*
X16735357Y-9909405D01*
M02*
