G04 #@! TF.GenerationSoftware,KiCad,Pcbnew,(6.0.4)*
G04 #@! TF.CreationDate,2022-04-19T23:10:38+02:00*
G04 #@! TF.ProjectId,Wt_rnik_oscyloskopowy_JFET,5774f372-6e69-46b5-9f6f-7363796c6f73,rev?*
G04 #@! TF.SameCoordinates,Original*
G04 #@! TF.FileFunction,Copper,L1,Top*
G04 #@! TF.FilePolarity,Positive*
%FSLAX46Y46*%
G04 Gerber Fmt 4.6, Leading zero omitted, Abs format (unit mm)*
G04 Created by KiCad (PCBNEW (6.0.4)) date 2022-04-19 23:10:38*
%MOMM*%
%LPD*%
G01*
G04 APERTURE LIST*
G04 #@! TA.AperFunction,ComponentPad*
%ADD10R,1.700000X1.700000*%
G04 #@! TD*
G04 #@! TA.AperFunction,ComponentPad*
%ADD11O,1.700000X1.700000*%
G04 #@! TD*
G04 #@! TA.AperFunction,ComponentPad*
%ADD12C,1.440000*%
G04 #@! TD*
G04 #@! TA.AperFunction,ComponentPad*
%ADD13R,1.600000X1.600000*%
G04 #@! TD*
G04 #@! TA.AperFunction,ComponentPad*
%ADD14C,1.600000*%
G04 #@! TD*
G04 #@! TA.AperFunction,ComponentPad*
%ADD15C,2.000000*%
G04 #@! TD*
G04 APERTURE END LIST*
D10*
G04 #@! TO.P,J1,1,Pin_1*
G04 #@! TO.N,+15V*
X110600000Y-72400000D03*
D11*
G04 #@! TO.P,J1,2,Pin_2*
G04 #@! TO.N,GND*
X113140000Y-72400000D03*
G04 #@! TO.P,J1,3,Pin_3*
G04 #@! TO.N,-15V*
X115680000Y-72400000D03*
G04 #@! TD*
D12*
G04 #@! TO.P,RV1,1,1*
G04 #@! TO.N,Net-(R3-Pad2)*
X124400000Y-82900000D03*
G04 #@! TO.P,RV1,2,2*
G04 #@! TO.N,-15V*
X124400000Y-80360000D03*
G04 #@! TO.P,RV1,3,3*
X124400000Y-77820000D03*
G04 #@! TD*
D13*
G04 #@! TO.P,C4,1*
G04 #@! TO.N,GND*
X115000000Y-78400000D03*
D14*
G04 #@! TO.P,C4,2*
G04 #@! TO.N,-15V*
X120000000Y-78400000D03*
G04 #@! TD*
D13*
G04 #@! TO.P,C1,1*
G04 #@! TO.N,+15V*
X107300000Y-78400000D03*
D14*
G04 #@! TO.P,C1,2*
G04 #@! TO.N,GND*
X112300000Y-78400000D03*
G04 #@! TD*
D15*
G04 #@! TO.P,Q1,1,G*
G04 #@! TO.N,Net-(J2-Pad1)*
X113060000Y-87370000D03*
G04 #@! TO.P,Q1,2,S*
G04 #@! TO.N,Net-(Q1-Pad2)*
X111360000Y-85670000D03*
G04 #@! TO.P,Q1,3,D*
G04 #@! TO.N,+15V*
X113060000Y-83870000D03*
G04 #@! TD*
D10*
G04 #@! TO.P,J2,1,Pin_1*
G04 #@! TO.N,Net-(J2-Pad1)*
X103400000Y-82675000D03*
D11*
G04 #@! TO.P,J2,2,Pin_2*
G04 #@! TO.N,GND*
X103400000Y-80135000D03*
G04 #@! TD*
D15*
G04 #@! TO.P,Q2,1,G*
G04 #@! TO.N,-15V*
X116500000Y-84050000D03*
G04 #@! TO.P,Q2,2,S*
G04 #@! TO.N,Net-(Q2-Pad2)*
X118200000Y-85750000D03*
G04 #@! TO.P,Q2,3,D*
G04 #@! TO.N,Net-(J3-Pad1)*
X116500000Y-87550000D03*
G04 #@! TD*
D10*
G04 #@! TO.P,J3,1,Pin_1*
G04 #@! TO.N,Net-(J3-Pad1)*
X118900000Y-90400000D03*
D11*
G04 #@! TO.P,J3,2,Pin_2*
G04 #@! TO.N,GND*
X121440000Y-90400000D03*
G04 #@! TD*
G04 #@! TA.AperFunction,Conductor*
G04 #@! TO.N,GND*
G36*
X129333621Y-69528502D02*
G01*
X129380114Y-69582158D01*
X129391500Y-69634500D01*
X129391500Y-93365500D01*
X129371498Y-93433621D01*
X129317842Y-93480114D01*
X129265500Y-93491500D01*
X100534500Y-93491500D01*
X100466379Y-93471498D01*
X100419886Y-93417842D01*
X100408500Y-93365500D01*
X100408500Y-89807655D01*
X101439858Y-89807655D01*
X101475104Y-90066638D01*
X101476412Y-90071124D01*
X101476412Y-90071126D01*
X101492956Y-90127885D01*
X101548243Y-90317567D01*
X101657668Y-90554928D01*
X101660231Y-90558837D01*
X101798410Y-90769596D01*
X101798414Y-90769601D01*
X101800976Y-90773509D01*
X101975018Y-90968506D01*
X102175970Y-91135637D01*
X102179973Y-91138066D01*
X102395422Y-91268804D01*
X102395426Y-91268806D01*
X102399419Y-91271229D01*
X102640455Y-91372303D01*
X102893783Y-91436641D01*
X102898434Y-91437109D01*
X102898438Y-91437110D01*
X103091308Y-91456531D01*
X103110867Y-91458500D01*
X103266354Y-91458500D01*
X103268679Y-91458327D01*
X103268685Y-91458327D01*
X103456000Y-91444407D01*
X103456004Y-91444406D01*
X103460652Y-91444061D01*
X103465200Y-91443032D01*
X103465206Y-91443031D01*
X103651601Y-91400853D01*
X103715577Y-91386377D01*
X103751769Y-91372303D01*
X103942496Y-91298134D01*
X117541500Y-91298134D01*
X117548255Y-91360316D01*
X117599385Y-91496705D01*
X117686739Y-91613261D01*
X117803295Y-91700615D01*
X117939684Y-91751745D01*
X118001866Y-91758500D01*
X119798134Y-91758500D01*
X119860316Y-91751745D01*
X119996705Y-91700615D01*
X120113261Y-91613261D01*
X120200615Y-91496705D01*
X120206172Y-91481883D01*
X120244798Y-91378848D01*
X120287440Y-91322084D01*
X120354001Y-91297384D01*
X120423350Y-91312592D01*
X120458017Y-91340580D01*
X120483218Y-91369673D01*
X120490580Y-91376883D01*
X120654434Y-91512916D01*
X120662881Y-91518831D01*
X120846756Y-91626279D01*
X120856042Y-91630729D01*
X121055001Y-91706703D01*
X121064899Y-91709579D01*
X121168250Y-91730606D01*
X121182299Y-91729410D01*
X121186000Y-91719065D01*
X121186000Y-91718517D01*
X121694000Y-91718517D01*
X121698064Y-91732359D01*
X121711478Y-91734393D01*
X121718184Y-91733534D01*
X121728262Y-91731392D01*
X121932255Y-91670191D01*
X121941842Y-91666433D01*
X122133095Y-91572739D01*
X122141945Y-91567464D01*
X122315328Y-91443792D01*
X122323200Y-91437139D01*
X122474052Y-91286812D01*
X122480730Y-91278965D01*
X122605003Y-91106020D01*
X122610313Y-91097183D01*
X122704670Y-90906267D01*
X122708469Y-90896672D01*
X122770377Y-90692910D01*
X122772555Y-90682837D01*
X122773986Y-90671962D01*
X122771775Y-90657778D01*
X122758617Y-90654000D01*
X121712115Y-90654000D01*
X121696876Y-90658475D01*
X121695671Y-90659865D01*
X121694000Y-90667548D01*
X121694000Y-91718517D01*
X121186000Y-91718517D01*
X121186000Y-90127885D01*
X121694000Y-90127885D01*
X121698475Y-90143124D01*
X121699865Y-90144329D01*
X121707548Y-90146000D01*
X122758344Y-90146000D01*
X122771875Y-90142027D01*
X122773180Y-90132947D01*
X122731214Y-89965875D01*
X122727894Y-89956124D01*
X122663339Y-89807655D01*
X124639858Y-89807655D01*
X124675104Y-90066638D01*
X124676412Y-90071124D01*
X124676412Y-90071126D01*
X124692956Y-90127885D01*
X124748243Y-90317567D01*
X124857668Y-90554928D01*
X124860231Y-90558837D01*
X124998410Y-90769596D01*
X124998414Y-90769601D01*
X125000976Y-90773509D01*
X125175018Y-90968506D01*
X125375970Y-91135637D01*
X125379973Y-91138066D01*
X125595422Y-91268804D01*
X125595426Y-91268806D01*
X125599419Y-91271229D01*
X125840455Y-91372303D01*
X126093783Y-91436641D01*
X126098434Y-91437109D01*
X126098438Y-91437110D01*
X126291308Y-91456531D01*
X126310867Y-91458500D01*
X126466354Y-91458500D01*
X126468679Y-91458327D01*
X126468685Y-91458327D01*
X126656000Y-91444407D01*
X126656004Y-91444406D01*
X126660652Y-91444061D01*
X126665200Y-91443032D01*
X126665206Y-91443031D01*
X126851601Y-91400853D01*
X126915577Y-91386377D01*
X126951769Y-91372303D01*
X127154824Y-91293340D01*
X127154827Y-91293339D01*
X127159177Y-91291647D01*
X127167637Y-91286812D01*
X127243196Y-91243626D01*
X127386098Y-91161951D01*
X127591357Y-91000138D01*
X127770443Y-90809763D01*
X127919424Y-90595009D01*
X128035025Y-90360593D01*
X128114707Y-90111665D01*
X128156721Y-89853693D01*
X128160142Y-89592345D01*
X128124896Y-89333362D01*
X128110473Y-89283877D01*
X128053068Y-89086932D01*
X128051757Y-89082433D01*
X128046225Y-89070432D01*
X127967716Y-88900135D01*
X127942332Y-88845072D01*
X127860420Y-88720135D01*
X127801590Y-88630404D01*
X127801586Y-88630399D01*
X127799024Y-88626491D01*
X127624982Y-88431494D01*
X127424030Y-88264363D01*
X127371338Y-88232389D01*
X127204578Y-88131196D01*
X127204574Y-88131194D01*
X127200581Y-88128771D01*
X126959545Y-88027697D01*
X126706217Y-87963359D01*
X126701566Y-87962891D01*
X126701562Y-87962890D01*
X126492271Y-87941816D01*
X126489133Y-87941500D01*
X126333646Y-87941500D01*
X126331321Y-87941673D01*
X126331315Y-87941673D01*
X126144000Y-87955593D01*
X126143996Y-87955594D01*
X126139348Y-87955939D01*
X126134800Y-87956968D01*
X126134794Y-87956969D01*
X125948399Y-87999147D01*
X125884423Y-88013623D01*
X125880071Y-88015315D01*
X125880069Y-88015316D01*
X125645176Y-88106660D01*
X125645173Y-88106661D01*
X125640823Y-88108353D01*
X125413902Y-88238049D01*
X125208643Y-88399862D01*
X125029557Y-88590237D01*
X124880576Y-88804991D01*
X124878510Y-88809181D01*
X124878508Y-88809184D01*
X124789212Y-88990260D01*
X124764975Y-89039407D01*
X124763553Y-89043850D01*
X124763552Y-89043852D01*
X124753245Y-89076051D01*
X124685293Y-89288335D01*
X124643279Y-89546307D01*
X124639858Y-89807655D01*
X122663339Y-89807655D01*
X122642972Y-89760814D01*
X122638105Y-89751739D01*
X122522426Y-89572926D01*
X122516136Y-89564757D01*
X122372806Y-89407240D01*
X122365273Y-89400215D01*
X122198139Y-89268222D01*
X122189552Y-89262517D01*
X122003117Y-89159599D01*
X121993705Y-89155369D01*
X121792959Y-89084280D01*
X121782988Y-89081646D01*
X121711837Y-89068972D01*
X121698540Y-89070432D01*
X121694000Y-89084989D01*
X121694000Y-90127885D01*
X121186000Y-90127885D01*
X121186000Y-89083102D01*
X121182082Y-89069758D01*
X121167806Y-89067771D01*
X121129324Y-89073660D01*
X121119288Y-89076051D01*
X120916868Y-89142212D01*
X120907359Y-89146209D01*
X120718463Y-89244542D01*
X120709738Y-89250036D01*
X120539433Y-89377905D01*
X120531726Y-89384748D01*
X120454478Y-89465584D01*
X120392954Y-89501014D01*
X120322042Y-89497557D01*
X120264255Y-89456311D01*
X120245402Y-89422763D01*
X120203767Y-89311703D01*
X120200615Y-89303295D01*
X120113261Y-89186739D01*
X119996705Y-89099385D01*
X119860316Y-89048255D01*
X119798134Y-89041500D01*
X118001866Y-89041500D01*
X117939684Y-89048255D01*
X117803295Y-89099385D01*
X117686739Y-89186739D01*
X117599385Y-89303295D01*
X117548255Y-89439684D01*
X117541500Y-89501866D01*
X117541500Y-91298134D01*
X103942496Y-91298134D01*
X103954824Y-91293340D01*
X103954827Y-91293339D01*
X103959177Y-91291647D01*
X103967637Y-91286812D01*
X104043196Y-91243626D01*
X104186098Y-91161951D01*
X104391357Y-91000138D01*
X104570443Y-90809763D01*
X104719424Y-90595009D01*
X104835025Y-90360593D01*
X104914707Y-90111665D01*
X104956721Y-89853693D01*
X104960142Y-89592345D01*
X104924896Y-89333362D01*
X104910473Y-89283877D01*
X104853068Y-89086932D01*
X104851757Y-89082433D01*
X104846225Y-89070432D01*
X104767716Y-88900135D01*
X104742332Y-88845072D01*
X104660420Y-88720135D01*
X104601590Y-88630404D01*
X104601586Y-88630399D01*
X104599024Y-88626491D01*
X104424982Y-88431494D01*
X104224030Y-88264363D01*
X104171338Y-88232389D01*
X104004578Y-88131196D01*
X104004574Y-88131194D01*
X104000581Y-88128771D01*
X103759545Y-88027697D01*
X103506217Y-87963359D01*
X103501566Y-87962891D01*
X103501562Y-87962890D01*
X103292271Y-87941816D01*
X103289133Y-87941500D01*
X103133646Y-87941500D01*
X103131321Y-87941673D01*
X103131315Y-87941673D01*
X102944000Y-87955593D01*
X102943996Y-87955594D01*
X102939348Y-87955939D01*
X102934800Y-87956968D01*
X102934794Y-87956969D01*
X102748399Y-87999147D01*
X102684423Y-88013623D01*
X102680071Y-88015315D01*
X102680069Y-88015316D01*
X102445176Y-88106660D01*
X102445173Y-88106661D01*
X102440823Y-88108353D01*
X102213902Y-88238049D01*
X102008643Y-88399862D01*
X101829557Y-88590237D01*
X101680576Y-88804991D01*
X101678510Y-88809181D01*
X101678508Y-88809184D01*
X101589212Y-88990260D01*
X101564975Y-89039407D01*
X101563553Y-89043850D01*
X101563552Y-89043852D01*
X101553245Y-89076051D01*
X101485293Y-89288335D01*
X101443279Y-89546307D01*
X101439858Y-89807655D01*
X100408500Y-89807655D01*
X100408500Y-85670000D01*
X109846835Y-85670000D01*
X109865465Y-85906711D01*
X109866619Y-85911518D01*
X109866620Y-85911524D01*
X109900894Y-86054283D01*
X109920895Y-86137594D01*
X109922788Y-86142165D01*
X109922789Y-86142167D01*
X109952039Y-86212782D01*
X110011760Y-86356963D01*
X110014346Y-86361183D01*
X110133241Y-86555202D01*
X110133245Y-86555208D01*
X110135824Y-86559416D01*
X110290031Y-86739969D01*
X110470584Y-86894176D01*
X110474792Y-86896755D01*
X110474798Y-86896759D01*
X110668817Y-87015654D01*
X110673037Y-87018240D01*
X110677607Y-87020133D01*
X110677611Y-87020135D01*
X110859932Y-87095654D01*
X110892406Y-87109105D01*
X110972609Y-87128360D01*
X111118476Y-87163380D01*
X111118482Y-87163381D01*
X111123289Y-87164535D01*
X111360000Y-87183165D01*
X111364930Y-87182777D01*
X111364941Y-87182777D01*
X111415722Y-87178780D01*
X111485202Y-87193375D01*
X111535762Y-87243217D01*
X111551220Y-87314278D01*
X111547223Y-87365059D01*
X111547223Y-87365070D01*
X111546835Y-87370000D01*
X111565465Y-87606711D01*
X111620895Y-87837594D01*
X111622788Y-87842165D01*
X111622789Y-87842167D01*
X111699638Y-88027697D01*
X111711760Y-88056963D01*
X111714346Y-88061183D01*
X111833241Y-88255202D01*
X111833245Y-88255208D01*
X111835824Y-88259416D01*
X111990031Y-88439969D01*
X112170584Y-88594176D01*
X112174792Y-88596755D01*
X112174798Y-88596759D01*
X112229702Y-88630404D01*
X112373037Y-88718240D01*
X112377607Y-88720133D01*
X112377611Y-88720135D01*
X112587833Y-88807211D01*
X112592406Y-88809105D01*
X112672609Y-88828360D01*
X112818476Y-88863380D01*
X112818482Y-88863381D01*
X112823289Y-88864535D01*
X113060000Y-88883165D01*
X113296711Y-88864535D01*
X113301518Y-88863381D01*
X113301524Y-88863380D01*
X113447391Y-88828360D01*
X113527594Y-88809105D01*
X113532167Y-88807211D01*
X113742389Y-88720135D01*
X113742393Y-88720133D01*
X113746963Y-88718240D01*
X113890298Y-88630404D01*
X113945202Y-88596759D01*
X113945208Y-88596755D01*
X113949416Y-88594176D01*
X114129969Y-88439969D01*
X114284176Y-88259416D01*
X114286755Y-88255208D01*
X114286759Y-88255202D01*
X114405654Y-88061183D01*
X114408240Y-88056963D01*
X114420363Y-88027697D01*
X114497211Y-87842167D01*
X114497212Y-87842165D01*
X114499105Y-87837594D01*
X114554535Y-87606711D01*
X114558998Y-87550000D01*
X114986835Y-87550000D01*
X115005465Y-87786711D01*
X115006619Y-87791518D01*
X115006620Y-87791524D01*
X115041640Y-87937391D01*
X115060895Y-88017594D01*
X115062788Y-88022165D01*
X115062789Y-88022167D01*
X115106946Y-88128771D01*
X115151760Y-88236963D01*
X115154346Y-88241183D01*
X115273241Y-88435202D01*
X115273245Y-88435208D01*
X115275824Y-88439416D01*
X115430031Y-88619969D01*
X115610584Y-88774176D01*
X115614792Y-88776755D01*
X115614798Y-88776759D01*
X115758669Y-88864923D01*
X115813037Y-88898240D01*
X115817607Y-88900133D01*
X115817611Y-88900135D01*
X116027833Y-88987211D01*
X116032406Y-88989105D01*
X116112609Y-89008360D01*
X116258476Y-89043380D01*
X116258482Y-89043381D01*
X116263289Y-89044535D01*
X116500000Y-89063165D01*
X116736711Y-89044535D01*
X116741518Y-89043381D01*
X116741524Y-89043380D01*
X116887391Y-89008360D01*
X116967594Y-88989105D01*
X116972167Y-88987211D01*
X117182389Y-88900135D01*
X117182393Y-88900133D01*
X117186963Y-88898240D01*
X117241331Y-88864923D01*
X117385202Y-88776759D01*
X117385208Y-88776755D01*
X117389416Y-88774176D01*
X117569969Y-88619969D01*
X117724176Y-88439416D01*
X117726755Y-88435208D01*
X117726759Y-88435202D01*
X117845654Y-88241183D01*
X117848240Y-88236963D01*
X117893055Y-88128771D01*
X117937211Y-88022167D01*
X117937212Y-88022165D01*
X117939105Y-88017594D01*
X117958360Y-87937391D01*
X117993380Y-87791524D01*
X117993381Y-87791518D01*
X117994535Y-87786711D01*
X118013165Y-87550000D01*
X118000860Y-87393654D01*
X118015456Y-87324174D01*
X118065298Y-87273615D01*
X118136358Y-87258156D01*
X118200000Y-87263165D01*
X118436711Y-87244535D01*
X118441518Y-87243381D01*
X118441524Y-87243380D01*
X118587391Y-87208360D01*
X118667594Y-87189105D01*
X118681935Y-87183165D01*
X118882389Y-87100135D01*
X118882393Y-87100133D01*
X118886963Y-87098240D01*
X118920264Y-87077833D01*
X119085202Y-86976759D01*
X119085208Y-86976755D01*
X119089416Y-86974176D01*
X119269969Y-86819969D01*
X119424176Y-86639416D01*
X119426755Y-86635208D01*
X119426759Y-86635202D01*
X119545654Y-86441183D01*
X119548240Y-86436963D01*
X119583272Y-86352389D01*
X119637211Y-86222167D01*
X119637212Y-86222165D01*
X119639105Y-86217594D01*
X119664721Y-86110895D01*
X119693380Y-85991524D01*
X119693381Y-85991518D01*
X119694535Y-85986711D01*
X119713165Y-85750000D01*
X119694535Y-85513289D01*
X119689007Y-85490260D01*
X119640260Y-85287218D01*
X119639105Y-85282406D01*
X119611456Y-85215654D01*
X119550135Y-85067611D01*
X119550133Y-85067607D01*
X119548240Y-85063037D01*
X119496630Y-84978817D01*
X119426759Y-84864798D01*
X119426755Y-84864792D01*
X119424176Y-84860584D01*
X119269969Y-84680031D01*
X119089416Y-84525824D01*
X119085208Y-84523245D01*
X119085202Y-84523241D01*
X118891183Y-84404346D01*
X118886963Y-84401760D01*
X118882393Y-84399867D01*
X118882389Y-84399865D01*
X118672167Y-84312789D01*
X118672165Y-84312788D01*
X118667594Y-84310895D01*
X118546309Y-84281777D01*
X118441524Y-84256620D01*
X118441518Y-84256619D01*
X118436711Y-84255465D01*
X118200000Y-84236835D01*
X118195070Y-84237223D01*
X118195059Y-84237223D01*
X118144278Y-84241220D01*
X118074798Y-84226625D01*
X118024238Y-84176783D01*
X118008780Y-84105722D01*
X118012777Y-84054941D01*
X118012777Y-84054930D01*
X118013165Y-84050000D01*
X117994535Y-83813289D01*
X117939105Y-83582406D01*
X117936672Y-83576531D01*
X117850135Y-83367611D01*
X117850133Y-83367607D01*
X117848240Y-83363037D01*
X117819702Y-83316467D01*
X117726759Y-83164798D01*
X117726755Y-83164792D01*
X117724176Y-83160584D01*
X117569969Y-82980031D01*
X117476265Y-82900000D01*
X123166807Y-82900000D01*
X123185542Y-83114142D01*
X123241178Y-83321777D01*
X123243500Y-83326757D01*
X123243501Y-83326759D01*
X123276644Y-83397833D01*
X123332024Y-83516596D01*
X123455319Y-83692681D01*
X123607319Y-83844681D01*
X123783403Y-83967976D01*
X123788381Y-83970297D01*
X123788384Y-83970299D01*
X123969900Y-84054941D01*
X123978223Y-84058822D01*
X123983531Y-84060244D01*
X123983533Y-84060245D01*
X124180543Y-84113034D01*
X124180545Y-84113034D01*
X124185858Y-84114458D01*
X124400000Y-84133193D01*
X124614142Y-84114458D01*
X124619455Y-84113034D01*
X124619457Y-84113034D01*
X124816467Y-84060245D01*
X124816469Y-84060244D01*
X124821777Y-84058822D01*
X124830100Y-84054941D01*
X125011616Y-83970299D01*
X125011619Y-83970297D01*
X125016597Y-83967976D01*
X125192681Y-83844681D01*
X125344681Y-83692681D01*
X125467976Y-83516596D01*
X125523357Y-83397833D01*
X125556499Y-83326759D01*
X125556500Y-83326757D01*
X125558822Y-83321777D01*
X125614458Y-83114142D01*
X125633193Y-82900000D01*
X125614458Y-82685858D01*
X125558822Y-82478223D01*
X125537636Y-82432789D01*
X125470299Y-82288385D01*
X125470297Y-82288382D01*
X125467976Y-82283404D01*
X125344681Y-82107319D01*
X125192681Y-81955319D01*
X125016597Y-81832024D01*
X125011619Y-81829703D01*
X125011616Y-81829701D01*
X124828247Y-81744195D01*
X124774962Y-81697278D01*
X124755501Y-81629000D01*
X124776043Y-81561041D01*
X124828247Y-81515805D01*
X125011616Y-81430299D01*
X125011619Y-81430297D01*
X125016597Y-81427976D01*
X125192681Y-81304681D01*
X125344681Y-81152681D01*
X125467976Y-80976596D01*
X125531197Y-80841020D01*
X125556499Y-80786759D01*
X125556500Y-80786757D01*
X125558822Y-80781777D01*
X125614458Y-80574142D01*
X125633193Y-80360000D01*
X125614458Y-80145858D01*
X125558822Y-79938223D01*
X125556499Y-79933241D01*
X125470299Y-79748385D01*
X125470297Y-79748382D01*
X125467976Y-79743404D01*
X125344681Y-79567319D01*
X125192681Y-79415319D01*
X125016597Y-79292024D01*
X125011619Y-79289703D01*
X125011616Y-79289701D01*
X124828247Y-79204195D01*
X124774962Y-79157278D01*
X124755501Y-79089000D01*
X124776043Y-79021041D01*
X124828247Y-78975805D01*
X125011616Y-78890299D01*
X125011619Y-78890297D01*
X125016597Y-78887976D01*
X125192681Y-78764681D01*
X125344681Y-78612681D01*
X125467976Y-78436596D01*
X125483659Y-78402965D01*
X125556499Y-78246759D01*
X125556500Y-78246757D01*
X125558822Y-78241777D01*
X125589340Y-78127885D01*
X125613034Y-78039457D01*
X125613034Y-78039455D01*
X125614458Y-78034142D01*
X125633193Y-77820000D01*
X125614458Y-77605858D01*
X125600919Y-77555331D01*
X125560245Y-77403533D01*
X125560244Y-77403531D01*
X125558822Y-77398223D01*
X125556499Y-77393241D01*
X125470299Y-77208385D01*
X125470297Y-77208382D01*
X125467976Y-77203404D01*
X125344681Y-77027319D01*
X125192681Y-76875319D01*
X125016597Y-76752024D01*
X125011619Y-76749703D01*
X125011616Y-76749701D01*
X124826759Y-76663501D01*
X124826758Y-76663500D01*
X124821777Y-76661178D01*
X124816469Y-76659756D01*
X124816467Y-76659755D01*
X124619457Y-76606966D01*
X124619455Y-76606966D01*
X124614142Y-76605542D01*
X124400000Y-76586807D01*
X124185858Y-76605542D01*
X124180545Y-76606966D01*
X124180543Y-76606966D01*
X123983533Y-76659755D01*
X123983531Y-76659756D01*
X123978223Y-76661178D01*
X123973243Y-76663500D01*
X123973241Y-76663501D01*
X123788385Y-76749701D01*
X123788382Y-76749703D01*
X123783404Y-76752024D01*
X123607319Y-76875319D01*
X123455319Y-77027319D01*
X123332024Y-77203404D01*
X123329703Y-77208382D01*
X123329701Y-77208385D01*
X123243501Y-77393241D01*
X123241178Y-77398223D01*
X123239756Y-77403531D01*
X123239755Y-77403533D01*
X123199081Y-77555331D01*
X123185542Y-77605858D01*
X123166807Y-77820000D01*
X123185542Y-78034142D01*
X123186966Y-78039455D01*
X123186966Y-78039457D01*
X123210661Y-78127885D01*
X123241178Y-78241777D01*
X123243500Y-78246757D01*
X123243501Y-78246759D01*
X123316342Y-78402965D01*
X123332024Y-78436596D01*
X123455319Y-78612681D01*
X123607319Y-78764681D01*
X123783403Y-78887976D01*
X123788381Y-78890297D01*
X123788384Y-78890299D01*
X123971753Y-78975805D01*
X124025038Y-79022722D01*
X124044499Y-79091000D01*
X124023957Y-79158959D01*
X123971753Y-79204195D01*
X123788385Y-79289701D01*
X123788382Y-79289703D01*
X123783404Y-79292024D01*
X123607319Y-79415319D01*
X123455319Y-79567319D01*
X123332024Y-79743404D01*
X123329703Y-79748382D01*
X123329701Y-79748385D01*
X123243501Y-79933241D01*
X123241178Y-79938223D01*
X123185542Y-80145858D01*
X123166807Y-80360000D01*
X123185542Y-80574142D01*
X123241178Y-80781777D01*
X123243500Y-80786757D01*
X123243501Y-80786759D01*
X123268804Y-80841020D01*
X123332024Y-80976596D01*
X123455319Y-81152681D01*
X123607319Y-81304681D01*
X123783403Y-81427976D01*
X123788381Y-81430297D01*
X123788384Y-81430299D01*
X123971753Y-81515805D01*
X124025038Y-81562722D01*
X124044499Y-81631000D01*
X124023957Y-81698959D01*
X123971753Y-81744195D01*
X123788385Y-81829701D01*
X123788382Y-81829703D01*
X123783404Y-81832024D01*
X123607319Y-81955319D01*
X123455319Y-82107319D01*
X123332024Y-82283404D01*
X123329703Y-82288382D01*
X123329701Y-82288385D01*
X123262364Y-82432789D01*
X123241178Y-82478223D01*
X123185542Y-82685858D01*
X123166807Y-82900000D01*
X117476265Y-82900000D01*
X117389416Y-82825824D01*
X117385208Y-82823245D01*
X117385202Y-82823241D01*
X117191183Y-82704346D01*
X117186963Y-82701760D01*
X117182393Y-82699867D01*
X117182389Y-82699865D01*
X116972167Y-82612789D01*
X116972165Y-82612788D01*
X116967594Y-82610895D01*
X116887391Y-82591640D01*
X116741524Y-82556620D01*
X116741518Y-82556619D01*
X116736711Y-82555465D01*
X116500000Y-82536835D01*
X116263289Y-82555465D01*
X116258482Y-82556619D01*
X116258476Y-82556620D01*
X116112609Y-82591640D01*
X116032406Y-82610895D01*
X116027835Y-82612788D01*
X116027833Y-82612789D01*
X115817611Y-82699865D01*
X115817607Y-82699867D01*
X115813037Y-82701760D01*
X115808817Y-82704346D01*
X115614798Y-82823241D01*
X115614792Y-82823245D01*
X115610584Y-82825824D01*
X115430031Y-82980031D01*
X115275824Y-83160584D01*
X115273245Y-83164792D01*
X115273241Y-83164798D01*
X115180298Y-83316467D01*
X115151760Y-83363037D01*
X115149867Y-83367607D01*
X115149865Y-83367611D01*
X115063328Y-83576531D01*
X115060895Y-83582406D01*
X115005465Y-83813289D01*
X114986835Y-84050000D01*
X115005465Y-84286711D01*
X115006619Y-84291518D01*
X115006620Y-84291524D01*
X115041640Y-84437391D01*
X115060895Y-84517594D01*
X115062788Y-84522165D01*
X115062789Y-84522167D01*
X115093713Y-84596823D01*
X115151760Y-84736963D01*
X115154346Y-84741183D01*
X115273241Y-84935202D01*
X115273245Y-84935208D01*
X115275824Y-84939416D01*
X115430031Y-85119969D01*
X115610584Y-85274176D01*
X115614792Y-85276755D01*
X115614798Y-85276759D01*
X115780263Y-85378156D01*
X115813037Y-85398240D01*
X115817607Y-85400133D01*
X115817611Y-85400135D01*
X115923932Y-85444174D01*
X116032406Y-85489105D01*
X116112609Y-85508360D01*
X116258476Y-85543380D01*
X116258482Y-85543381D01*
X116263289Y-85544535D01*
X116500000Y-85563165D01*
X116504930Y-85562777D01*
X116504941Y-85562777D01*
X116555722Y-85558780D01*
X116625202Y-85573375D01*
X116675762Y-85623217D01*
X116691220Y-85694278D01*
X116687223Y-85745059D01*
X116687223Y-85745070D01*
X116686835Y-85750000D01*
X116687223Y-85754930D01*
X116699140Y-85906346D01*
X116684544Y-85975826D01*
X116634702Y-86026385D01*
X116563642Y-86041844D01*
X116504930Y-86037223D01*
X116500000Y-86036835D01*
X116263289Y-86055465D01*
X116258482Y-86056619D01*
X116258476Y-86056620D01*
X116112609Y-86091640D01*
X116032406Y-86110895D01*
X116027835Y-86112788D01*
X116027833Y-86112789D01*
X115817611Y-86199865D01*
X115817607Y-86199867D01*
X115813037Y-86201760D01*
X115808817Y-86204346D01*
X115614798Y-86323241D01*
X115614792Y-86323245D01*
X115610584Y-86325824D01*
X115430031Y-86480031D01*
X115275824Y-86660584D01*
X115273245Y-86664792D01*
X115273241Y-86664798D01*
X115180454Y-86816213D01*
X115151760Y-86863037D01*
X115149867Y-86867607D01*
X115149865Y-86867611D01*
X115107055Y-86970965D01*
X115060895Y-87082406D01*
X115057094Y-87098240D01*
X115014990Y-87273615D01*
X115005465Y-87313289D01*
X114986835Y-87550000D01*
X114558998Y-87550000D01*
X114573165Y-87370000D01*
X114554535Y-87133289D01*
X114549007Y-87110260D01*
X114516335Y-86974176D01*
X114499105Y-86902406D01*
X114481050Y-86858817D01*
X114410135Y-86687611D01*
X114410133Y-86687607D01*
X114408240Y-86683037D01*
X114392177Y-86656825D01*
X114286759Y-86484798D01*
X114286755Y-86484792D01*
X114284176Y-86480584D01*
X114129969Y-86300031D01*
X113949416Y-86145824D01*
X113945208Y-86143245D01*
X113945202Y-86143241D01*
X113751183Y-86024346D01*
X113746963Y-86021760D01*
X113742393Y-86019867D01*
X113742389Y-86019865D01*
X113532167Y-85932789D01*
X113532165Y-85932788D01*
X113527594Y-85930895D01*
X113406309Y-85901777D01*
X113301524Y-85876620D01*
X113301518Y-85876619D01*
X113296711Y-85875465D01*
X113060000Y-85856835D01*
X113055070Y-85857223D01*
X113055059Y-85857223D01*
X113004278Y-85861220D01*
X112934798Y-85846625D01*
X112884238Y-85796783D01*
X112868780Y-85725722D01*
X112872777Y-85674941D01*
X112872777Y-85674930D01*
X112873165Y-85670000D01*
X112860860Y-85513654D01*
X112875456Y-85444174D01*
X112925298Y-85393615D01*
X112996358Y-85378156D01*
X113060000Y-85383165D01*
X113296711Y-85364535D01*
X113301518Y-85363381D01*
X113301524Y-85363380D01*
X113447391Y-85328360D01*
X113527594Y-85309105D01*
X113532167Y-85307211D01*
X113742389Y-85220135D01*
X113742393Y-85220133D01*
X113746963Y-85218240D01*
X113780264Y-85197833D01*
X113945202Y-85096759D01*
X113945208Y-85096755D01*
X113949416Y-85094176D01*
X114129969Y-84939969D01*
X114284176Y-84759416D01*
X114286755Y-84755208D01*
X114286759Y-84755202D01*
X114405654Y-84561183D01*
X114408240Y-84556963D01*
X114426541Y-84512782D01*
X114497211Y-84342167D01*
X114497212Y-84342165D01*
X114499105Y-84337594D01*
X114524721Y-84230895D01*
X114553380Y-84111524D01*
X114553381Y-84111518D01*
X114554535Y-84106711D01*
X114573165Y-83870000D01*
X114554535Y-83633289D01*
X114543475Y-83587218D01*
X114500260Y-83407218D01*
X114499105Y-83402406D01*
X114408240Y-83183037D01*
X114362663Y-83108662D01*
X114286759Y-82984798D01*
X114286755Y-82984792D01*
X114284176Y-82980584D01*
X114129969Y-82800031D01*
X113949416Y-82645824D01*
X113945208Y-82643245D01*
X113945202Y-82643241D01*
X113751183Y-82524346D01*
X113746963Y-82521760D01*
X113742393Y-82519867D01*
X113742389Y-82519865D01*
X113532167Y-82432789D01*
X113532165Y-82432788D01*
X113527594Y-82430895D01*
X113447391Y-82411640D01*
X113301524Y-82376620D01*
X113301518Y-82376619D01*
X113296711Y-82375465D01*
X113060000Y-82356835D01*
X112823289Y-82375465D01*
X112818482Y-82376619D01*
X112818476Y-82376620D01*
X112672609Y-82411640D01*
X112592406Y-82430895D01*
X112587835Y-82432788D01*
X112587833Y-82432789D01*
X112377611Y-82519865D01*
X112377607Y-82519867D01*
X112373037Y-82521760D01*
X112368817Y-82524346D01*
X112174798Y-82643241D01*
X112174792Y-82643245D01*
X112170584Y-82645824D01*
X111990031Y-82800031D01*
X111835824Y-82980584D01*
X111833245Y-82984792D01*
X111833241Y-82984798D01*
X111757337Y-83108662D01*
X111711760Y-83183037D01*
X111620895Y-83402406D01*
X111619740Y-83407218D01*
X111576526Y-83587218D01*
X111565465Y-83633289D01*
X111546835Y-83870000D01*
X111547223Y-83874930D01*
X111559140Y-84026346D01*
X111544544Y-84095826D01*
X111494702Y-84146385D01*
X111423642Y-84161844D01*
X111364930Y-84157223D01*
X111360000Y-84156835D01*
X111123289Y-84175465D01*
X111118482Y-84176619D01*
X111118476Y-84176620D01*
X110972609Y-84211640D01*
X110892406Y-84230895D01*
X110887835Y-84232788D01*
X110887833Y-84232789D01*
X110677611Y-84319865D01*
X110677607Y-84319867D01*
X110673037Y-84321760D01*
X110668817Y-84324346D01*
X110474798Y-84443241D01*
X110474792Y-84443245D01*
X110470584Y-84445824D01*
X110290031Y-84600031D01*
X110135824Y-84780584D01*
X110133245Y-84784792D01*
X110133241Y-84784798D01*
X110036186Y-84943177D01*
X110011760Y-84983037D01*
X110009867Y-84987607D01*
X110009865Y-84987611D01*
X109922789Y-85197833D01*
X109920895Y-85202406D01*
X109903665Y-85274176D01*
X109873425Y-85400135D01*
X109865465Y-85433289D01*
X109846835Y-85670000D01*
X100408500Y-85670000D01*
X100408500Y-83573134D01*
X102041500Y-83573134D01*
X102048255Y-83635316D01*
X102099385Y-83771705D01*
X102186739Y-83888261D01*
X102303295Y-83975615D01*
X102439684Y-84026745D01*
X102501866Y-84033500D01*
X104298134Y-84033500D01*
X104360316Y-84026745D01*
X104496705Y-83975615D01*
X104613261Y-83888261D01*
X104700615Y-83771705D01*
X104751745Y-83635316D01*
X104758500Y-83573134D01*
X104758500Y-81776866D01*
X104751745Y-81714684D01*
X104700615Y-81578295D01*
X104613261Y-81461739D01*
X104496705Y-81374385D01*
X104377687Y-81329767D01*
X104320923Y-81287125D01*
X104296223Y-81220564D01*
X104311430Y-81151215D01*
X104332977Y-81122535D01*
X104434052Y-81021812D01*
X104440730Y-81013965D01*
X104565003Y-80841020D01*
X104570313Y-80832183D01*
X104664670Y-80641267D01*
X104668469Y-80631672D01*
X104730377Y-80427910D01*
X104732555Y-80417837D01*
X104733986Y-80406962D01*
X104731775Y-80392778D01*
X104718617Y-80389000D01*
X102083225Y-80389000D01*
X102069694Y-80392973D01*
X102068257Y-80402966D01*
X102098565Y-80537446D01*
X102101645Y-80547275D01*
X102181770Y-80744603D01*
X102186413Y-80753794D01*
X102297694Y-80935388D01*
X102303777Y-80943699D01*
X102443213Y-81104667D01*
X102450577Y-81111879D01*
X102455522Y-81115985D01*
X102495156Y-81174889D01*
X102496653Y-81245870D01*
X102459537Y-81306392D01*
X102419264Y-81330910D01*
X102311705Y-81371232D01*
X102311704Y-81371233D01*
X102303295Y-81374385D01*
X102186739Y-81461739D01*
X102099385Y-81578295D01*
X102048255Y-81714684D01*
X102041500Y-81776866D01*
X102041500Y-83573134D01*
X100408500Y-83573134D01*
X100408500Y-79869183D01*
X102064389Y-79869183D01*
X102065912Y-79877607D01*
X102078292Y-79881000D01*
X103127885Y-79881000D01*
X103143124Y-79876525D01*
X103144329Y-79875135D01*
X103146000Y-79867452D01*
X103146000Y-79862885D01*
X103654000Y-79862885D01*
X103658475Y-79878124D01*
X103659865Y-79879329D01*
X103667548Y-79881000D01*
X104718344Y-79881000D01*
X104731875Y-79877027D01*
X104733180Y-79867947D01*
X104691214Y-79700875D01*
X104687894Y-79691124D01*
X104602972Y-79495814D01*
X104598105Y-79486739D01*
X104482426Y-79307926D01*
X104476136Y-79299757D01*
X104429163Y-79248134D01*
X105991500Y-79248134D01*
X105998255Y-79310316D01*
X106049385Y-79446705D01*
X106136739Y-79563261D01*
X106253295Y-79650615D01*
X106389684Y-79701745D01*
X106451866Y-79708500D01*
X108148134Y-79708500D01*
X108210316Y-79701745D01*
X108346705Y-79650615D01*
X108463261Y-79563261D01*
X108521119Y-79486062D01*
X111578493Y-79486062D01*
X111587789Y-79498077D01*
X111638994Y-79533931D01*
X111648489Y-79539414D01*
X111845947Y-79631490D01*
X111856239Y-79635236D01*
X112066688Y-79691625D01*
X112077481Y-79693528D01*
X112294525Y-79712517D01*
X112305475Y-79712517D01*
X112522519Y-79693528D01*
X112533312Y-79691625D01*
X112743761Y-79635236D01*
X112754053Y-79631490D01*
X112951511Y-79539414D01*
X112961006Y-79533931D01*
X113013048Y-79497491D01*
X113021424Y-79487012D01*
X113014356Y-79473566D01*
X112312812Y-78772022D01*
X112298868Y-78764408D01*
X112297035Y-78764539D01*
X112290420Y-78768790D01*
X111584923Y-79474287D01*
X111578493Y-79486062D01*
X108521119Y-79486062D01*
X108550615Y-79446705D01*
X108601745Y-79310316D01*
X108608500Y-79248134D01*
X108608500Y-78405475D01*
X110987483Y-78405475D01*
X111006472Y-78622519D01*
X111008375Y-78633312D01*
X111064764Y-78843761D01*
X111068510Y-78854053D01*
X111160586Y-79051511D01*
X111166069Y-79061006D01*
X111202509Y-79113048D01*
X111212988Y-79121424D01*
X111226434Y-79114356D01*
X111927978Y-78412812D01*
X111934356Y-78401132D01*
X112664408Y-78401132D01*
X112664539Y-78402965D01*
X112668790Y-78409580D01*
X113374287Y-79115077D01*
X113386062Y-79121507D01*
X113398077Y-79112211D01*
X113433931Y-79061006D01*
X113439414Y-79051511D01*
X113451806Y-79024935D01*
X113498723Y-78971650D01*
X113567000Y-78952189D01*
X113634960Y-78972731D01*
X113681026Y-79026753D01*
X113692001Y-79078185D01*
X113692001Y-79244669D01*
X113692371Y-79251490D01*
X113697895Y-79302352D01*
X113701521Y-79317604D01*
X113746676Y-79438054D01*
X113755214Y-79453649D01*
X113831715Y-79555724D01*
X113844276Y-79568285D01*
X113946351Y-79644786D01*
X113961946Y-79653324D01*
X114082394Y-79698478D01*
X114097649Y-79702105D01*
X114148514Y-79707631D01*
X114155328Y-79708000D01*
X114727885Y-79708000D01*
X114743124Y-79703525D01*
X114744329Y-79702135D01*
X114746000Y-79694452D01*
X114746000Y-79689884D01*
X115254000Y-79689884D01*
X115258475Y-79705123D01*
X115259865Y-79706328D01*
X115267548Y-79707999D01*
X115844669Y-79707999D01*
X115851490Y-79707629D01*
X115902352Y-79702105D01*
X115917604Y-79698479D01*
X116038054Y-79653324D01*
X116053649Y-79644786D01*
X116155724Y-79568285D01*
X116168285Y-79555724D01*
X116244786Y-79453649D01*
X116253324Y-79438054D01*
X116298478Y-79317606D01*
X116302105Y-79302351D01*
X116307631Y-79251486D01*
X116308000Y-79244672D01*
X116308000Y-78672115D01*
X116303525Y-78656876D01*
X116302135Y-78655671D01*
X116294452Y-78654000D01*
X115272115Y-78654000D01*
X115256876Y-78658475D01*
X115255671Y-78659865D01*
X115254000Y-78667548D01*
X115254000Y-79689884D01*
X114746000Y-79689884D01*
X114746000Y-78400000D01*
X118686502Y-78400000D01*
X118706457Y-78628087D01*
X118707881Y-78633400D01*
X118707881Y-78633402D01*
X118756982Y-78816646D01*
X118765716Y-78849243D01*
X118768039Y-78854224D01*
X118768039Y-78854225D01*
X118860151Y-79051762D01*
X118860154Y-79051767D01*
X118862477Y-79056749D01*
X118886460Y-79091000D01*
X118963608Y-79201178D01*
X118993802Y-79244300D01*
X119155700Y-79406198D01*
X119160208Y-79409355D01*
X119160211Y-79409357D01*
X119201195Y-79438054D01*
X119343251Y-79537523D01*
X119348233Y-79539846D01*
X119348238Y-79539849D01*
X119544765Y-79631490D01*
X119550757Y-79634284D01*
X119556065Y-79635706D01*
X119556067Y-79635707D01*
X119766598Y-79692119D01*
X119766600Y-79692119D01*
X119771913Y-79693543D01*
X120000000Y-79713498D01*
X120228087Y-79693543D01*
X120233400Y-79692119D01*
X120233402Y-79692119D01*
X120443933Y-79635707D01*
X120443935Y-79635706D01*
X120449243Y-79634284D01*
X120455235Y-79631490D01*
X120651762Y-79539849D01*
X120651767Y-79539846D01*
X120656749Y-79537523D01*
X120798805Y-79438054D01*
X120839789Y-79409357D01*
X120839792Y-79409355D01*
X120844300Y-79406198D01*
X121006198Y-79244300D01*
X121036393Y-79201178D01*
X121113540Y-79091000D01*
X121137523Y-79056749D01*
X121139846Y-79051767D01*
X121139849Y-79051762D01*
X121231961Y-78854225D01*
X121231961Y-78854224D01*
X121234284Y-78849243D01*
X121243019Y-78816646D01*
X121292119Y-78633402D01*
X121292119Y-78633400D01*
X121293543Y-78628087D01*
X121313498Y-78400000D01*
X121293543Y-78171913D01*
X121285028Y-78140135D01*
X121235707Y-77956067D01*
X121235706Y-77956065D01*
X121234284Y-77950757D01*
X121185683Y-77846531D01*
X121139849Y-77748238D01*
X121139846Y-77748233D01*
X121137523Y-77743251D01*
X121041319Y-77605858D01*
X121009357Y-77560211D01*
X121009355Y-77560208D01*
X121006198Y-77555700D01*
X120844300Y-77393802D01*
X120839792Y-77390645D01*
X120839789Y-77390643D01*
X120713920Y-77302509D01*
X120656749Y-77262477D01*
X120651767Y-77260154D01*
X120651762Y-77260151D01*
X120454225Y-77168039D01*
X120454224Y-77168039D01*
X120449243Y-77165716D01*
X120443935Y-77164294D01*
X120443933Y-77164293D01*
X120233402Y-77107881D01*
X120233400Y-77107881D01*
X120228087Y-77106457D01*
X120000000Y-77086502D01*
X119771913Y-77106457D01*
X119766600Y-77107881D01*
X119766598Y-77107881D01*
X119556067Y-77164293D01*
X119556065Y-77164294D01*
X119550757Y-77165716D01*
X119545776Y-77168039D01*
X119545775Y-77168039D01*
X119348238Y-77260151D01*
X119348233Y-77260154D01*
X119343251Y-77262477D01*
X119286080Y-77302509D01*
X119160211Y-77390643D01*
X119160208Y-77390645D01*
X119155700Y-77393802D01*
X118993802Y-77555700D01*
X118990645Y-77560208D01*
X118990643Y-77560211D01*
X118958681Y-77605858D01*
X118862477Y-77743251D01*
X118860154Y-77748233D01*
X118860151Y-77748238D01*
X118814317Y-77846531D01*
X118765716Y-77950757D01*
X118764294Y-77956065D01*
X118764293Y-77956067D01*
X118714972Y-78140135D01*
X118706457Y-78171913D01*
X118686502Y-78400000D01*
X114746000Y-78400000D01*
X114746000Y-78127885D01*
X115254000Y-78127885D01*
X115258475Y-78143124D01*
X115259865Y-78144329D01*
X115267548Y-78146000D01*
X116289884Y-78146000D01*
X116305123Y-78141525D01*
X116306328Y-78140135D01*
X116307999Y-78132452D01*
X116307999Y-77555331D01*
X116307629Y-77548510D01*
X116302105Y-77497648D01*
X116298479Y-77482396D01*
X116253324Y-77361946D01*
X116244786Y-77346351D01*
X116168285Y-77244276D01*
X116155724Y-77231715D01*
X116053649Y-77155214D01*
X116038054Y-77146676D01*
X115917606Y-77101522D01*
X115902351Y-77097895D01*
X115851486Y-77092369D01*
X115844672Y-77092000D01*
X115272115Y-77092000D01*
X115256876Y-77096475D01*
X115255671Y-77097865D01*
X115254000Y-77105548D01*
X115254000Y-78127885D01*
X114746000Y-78127885D01*
X114746000Y-77110116D01*
X114741525Y-77094877D01*
X114740135Y-77093672D01*
X114732452Y-77092001D01*
X114155331Y-77092001D01*
X114148510Y-77092371D01*
X114097648Y-77097895D01*
X114082396Y-77101521D01*
X113961946Y-77146676D01*
X113946351Y-77155214D01*
X113844276Y-77231715D01*
X113831715Y-77244276D01*
X113755214Y-77346351D01*
X113746676Y-77361946D01*
X113701522Y-77482394D01*
X113697895Y-77497649D01*
X113692369Y-77548514D01*
X113692000Y-77555328D01*
X113692000Y-77721813D01*
X113671998Y-77789934D01*
X113618342Y-77836427D01*
X113548068Y-77846531D01*
X113483488Y-77817037D01*
X113451805Y-77775062D01*
X113439416Y-77748493D01*
X113433931Y-77738994D01*
X113397491Y-77686952D01*
X113387012Y-77678576D01*
X113373566Y-77685644D01*
X112672022Y-78387188D01*
X112664408Y-78401132D01*
X111934356Y-78401132D01*
X111935592Y-78398868D01*
X111935461Y-78397035D01*
X111931210Y-78390420D01*
X111225713Y-77684923D01*
X111213938Y-77678493D01*
X111201923Y-77687789D01*
X111166069Y-77738994D01*
X111160586Y-77748489D01*
X111068510Y-77945947D01*
X111064764Y-77956239D01*
X111008375Y-78166688D01*
X111006472Y-78177481D01*
X110987483Y-78394525D01*
X110987483Y-78405475D01*
X108608500Y-78405475D01*
X108608500Y-77551866D01*
X108601745Y-77489684D01*
X108550615Y-77353295D01*
X108520407Y-77312988D01*
X111578576Y-77312988D01*
X111585644Y-77326434D01*
X112287188Y-78027978D01*
X112301132Y-78035592D01*
X112302965Y-78035461D01*
X112309580Y-78031210D01*
X113015077Y-77325713D01*
X113021507Y-77313938D01*
X113012211Y-77301923D01*
X112961006Y-77266069D01*
X112951511Y-77260586D01*
X112754053Y-77168510D01*
X112743761Y-77164764D01*
X112533312Y-77108375D01*
X112522519Y-77106472D01*
X112305475Y-77087483D01*
X112294525Y-77087483D01*
X112077481Y-77106472D01*
X112066688Y-77108375D01*
X111856239Y-77164764D01*
X111845947Y-77168510D01*
X111648489Y-77260586D01*
X111638994Y-77266069D01*
X111586952Y-77302509D01*
X111578576Y-77312988D01*
X108520407Y-77312988D01*
X108463261Y-77236739D01*
X108346705Y-77149385D01*
X108210316Y-77098255D01*
X108148134Y-77091500D01*
X106451866Y-77091500D01*
X106389684Y-77098255D01*
X106253295Y-77149385D01*
X106136739Y-77236739D01*
X106049385Y-77353295D01*
X105998255Y-77489684D01*
X105991500Y-77551866D01*
X105991500Y-79248134D01*
X104429163Y-79248134D01*
X104332806Y-79142240D01*
X104325273Y-79135215D01*
X104158139Y-79003222D01*
X104149552Y-78997517D01*
X103963117Y-78894599D01*
X103953705Y-78890369D01*
X103752959Y-78819280D01*
X103742988Y-78816646D01*
X103671837Y-78803972D01*
X103658540Y-78805432D01*
X103654000Y-78819989D01*
X103654000Y-79862885D01*
X103146000Y-79862885D01*
X103146000Y-78818102D01*
X103142082Y-78804758D01*
X103127806Y-78802771D01*
X103089324Y-78808660D01*
X103079288Y-78811051D01*
X102876868Y-78877212D01*
X102867359Y-78881209D01*
X102678463Y-78979542D01*
X102669738Y-78985036D01*
X102499433Y-79112905D01*
X102491726Y-79119748D01*
X102344590Y-79273717D01*
X102338104Y-79281727D01*
X102218098Y-79457649D01*
X102213000Y-79466623D01*
X102123338Y-79659783D01*
X102119775Y-79669470D01*
X102064389Y-79869183D01*
X100408500Y-79869183D01*
X100408500Y-73307655D01*
X101439858Y-73307655D01*
X101475104Y-73566638D01*
X101476412Y-73571124D01*
X101476412Y-73571126D01*
X101490262Y-73618642D01*
X101548243Y-73817567D01*
X101657668Y-74054928D01*
X101660231Y-74058837D01*
X101798410Y-74269596D01*
X101798414Y-74269601D01*
X101800976Y-74273509D01*
X101975018Y-74468506D01*
X102175970Y-74635637D01*
X102179973Y-74638066D01*
X102395422Y-74768804D01*
X102395426Y-74768806D01*
X102399419Y-74771229D01*
X102640455Y-74872303D01*
X102893783Y-74936641D01*
X102898434Y-74937109D01*
X102898438Y-74937110D01*
X103091308Y-74956531D01*
X103110867Y-74958500D01*
X103266354Y-74958500D01*
X103268679Y-74958327D01*
X103268685Y-74958327D01*
X103456000Y-74944407D01*
X103456004Y-74944406D01*
X103460652Y-74944061D01*
X103465200Y-74943032D01*
X103465206Y-74943031D01*
X103651601Y-74900853D01*
X103715577Y-74886377D01*
X103751769Y-74872303D01*
X103954824Y-74793340D01*
X103954827Y-74793339D01*
X103959177Y-74791647D01*
X104186098Y-74661951D01*
X104391357Y-74500138D01*
X104570443Y-74309763D01*
X104719424Y-74095009D01*
X104766844Y-73998851D01*
X104832960Y-73864781D01*
X104832961Y-73864778D01*
X104835025Y-73860593D01*
X104865695Y-73764781D01*
X104913280Y-73616123D01*
X104914707Y-73611665D01*
X104956721Y-73353693D01*
X104957448Y-73298134D01*
X109241500Y-73298134D01*
X109248255Y-73360316D01*
X109299385Y-73496705D01*
X109386739Y-73613261D01*
X109503295Y-73700615D01*
X109639684Y-73751745D01*
X109701866Y-73758500D01*
X111498134Y-73758500D01*
X111560316Y-73751745D01*
X111696705Y-73700615D01*
X111813261Y-73613261D01*
X111900615Y-73496705D01*
X111944798Y-73378848D01*
X111987440Y-73322084D01*
X112054001Y-73297384D01*
X112123350Y-73312592D01*
X112158017Y-73340580D01*
X112183218Y-73369673D01*
X112190580Y-73376883D01*
X112354434Y-73512916D01*
X112362881Y-73518831D01*
X112546756Y-73626279D01*
X112556042Y-73630729D01*
X112755001Y-73706703D01*
X112764899Y-73709579D01*
X112868250Y-73730606D01*
X112882299Y-73729410D01*
X112886000Y-73719065D01*
X112886000Y-73718517D01*
X113394000Y-73718517D01*
X113398064Y-73732359D01*
X113411478Y-73734393D01*
X113418184Y-73733534D01*
X113428262Y-73731392D01*
X113632255Y-73670191D01*
X113641842Y-73666433D01*
X113833095Y-73572739D01*
X113841945Y-73567464D01*
X114015328Y-73443792D01*
X114023200Y-73437139D01*
X114174052Y-73286812D01*
X114180730Y-73278965D01*
X114308022Y-73101819D01*
X114309279Y-73102722D01*
X114356373Y-73059362D01*
X114426311Y-73047145D01*
X114491751Y-73074678D01*
X114519579Y-73106511D01*
X114579987Y-73205088D01*
X114726250Y-73373938D01*
X114898126Y-73516632D01*
X115091000Y-73629338D01*
X115299692Y-73709030D01*
X115304760Y-73710061D01*
X115304763Y-73710062D01*
X115362561Y-73721821D01*
X115518597Y-73753567D01*
X115523772Y-73753757D01*
X115523774Y-73753757D01*
X115736673Y-73761564D01*
X115736677Y-73761564D01*
X115741837Y-73761753D01*
X115746957Y-73761097D01*
X115746959Y-73761097D01*
X115958288Y-73734025D01*
X115958289Y-73734025D01*
X115963416Y-73733368D01*
X115968366Y-73731883D01*
X116172429Y-73670661D01*
X116172434Y-73670659D01*
X116177384Y-73669174D01*
X116377994Y-73570896D01*
X116559860Y-73441173D01*
X116718096Y-73283489D01*
X116739507Y-73253693D01*
X116772588Y-73207655D01*
X124639858Y-73207655D01*
X124675104Y-73466638D01*
X124676412Y-73471124D01*
X124676412Y-73471126D01*
X124689676Y-73516632D01*
X124748243Y-73717567D01*
X124750203Y-73721820D01*
X124750204Y-73721821D01*
X124764839Y-73753567D01*
X124857668Y-73954928D01*
X124860231Y-73958837D01*
X124998410Y-74169596D01*
X124998414Y-74169601D01*
X125000976Y-74173509D01*
X125175018Y-74368506D01*
X125375970Y-74535637D01*
X125379973Y-74538066D01*
X125595422Y-74668804D01*
X125595426Y-74668806D01*
X125599419Y-74671229D01*
X125840455Y-74772303D01*
X126093783Y-74836641D01*
X126098434Y-74837109D01*
X126098438Y-74837110D01*
X126291308Y-74856531D01*
X126310867Y-74858500D01*
X126466354Y-74858500D01*
X126468679Y-74858327D01*
X126468685Y-74858327D01*
X126656000Y-74844407D01*
X126656004Y-74844406D01*
X126660652Y-74844061D01*
X126665200Y-74843032D01*
X126665206Y-74843031D01*
X126902531Y-74789329D01*
X126915577Y-74786377D01*
X126948814Y-74773452D01*
X127154824Y-74693340D01*
X127154827Y-74693339D01*
X127159177Y-74691647D01*
X127386098Y-74561951D01*
X127591357Y-74400138D01*
X127770443Y-74209763D01*
X127919424Y-73995009D01*
X127941284Y-73950682D01*
X128032960Y-73764781D01*
X128032961Y-73764778D01*
X128035025Y-73760593D01*
X128043530Y-73734025D01*
X128113280Y-73516123D01*
X128114707Y-73511665D01*
X128156721Y-73253693D01*
X128159265Y-73059362D01*
X128160081Y-72997022D01*
X128160081Y-72997019D01*
X128160142Y-72992345D01*
X128124896Y-72733362D01*
X128110473Y-72683877D01*
X128083027Y-72589715D01*
X128051757Y-72482433D01*
X127942332Y-72245072D01*
X127876440Y-72144570D01*
X127801590Y-72030404D01*
X127801586Y-72030399D01*
X127799024Y-72026491D01*
X127624982Y-71831494D01*
X127424030Y-71664363D01*
X127331728Y-71608353D01*
X127204578Y-71531196D01*
X127204574Y-71531194D01*
X127200581Y-71528771D01*
X126959545Y-71427697D01*
X126706217Y-71363359D01*
X126701566Y-71362891D01*
X126701562Y-71362890D01*
X126492271Y-71341816D01*
X126489133Y-71341500D01*
X126333646Y-71341500D01*
X126331321Y-71341673D01*
X126331315Y-71341673D01*
X126144000Y-71355593D01*
X126143996Y-71355594D01*
X126139348Y-71355939D01*
X126134800Y-71356968D01*
X126134794Y-71356969D01*
X126012031Y-71384748D01*
X125884423Y-71413623D01*
X125880071Y-71415315D01*
X125880069Y-71415316D01*
X125645176Y-71506660D01*
X125645173Y-71506661D01*
X125640823Y-71508353D01*
X125413902Y-71638049D01*
X125208643Y-71799862D01*
X125029557Y-71990237D01*
X124937456Y-72122999D01*
X124903226Y-72172342D01*
X124880576Y-72204991D01*
X124878510Y-72209181D01*
X124878508Y-72209184D01*
X124800833Y-72366695D01*
X124764975Y-72439407D01*
X124763553Y-72443850D01*
X124763552Y-72443852D01*
X124732965Y-72539407D01*
X124685293Y-72688335D01*
X124643279Y-72946307D01*
X124643218Y-72950980D01*
X124641232Y-73102722D01*
X124639858Y-73207655D01*
X116772588Y-73207655D01*
X116845435Y-73106277D01*
X116848453Y-73102077D01*
X116850952Y-73097022D01*
X116945136Y-72906453D01*
X116945137Y-72906451D01*
X116947430Y-72901811D01*
X116998609Y-72733362D01*
X117010865Y-72693023D01*
X117010865Y-72693021D01*
X117012370Y-72688069D01*
X117041529Y-72466590D01*
X117042193Y-72439407D01*
X117043074Y-72403365D01*
X117043074Y-72403361D01*
X117043156Y-72400000D01*
X117024852Y-72177361D01*
X116970431Y-71960702D01*
X116881354Y-71755840D01*
X116841906Y-71694862D01*
X116762822Y-71572617D01*
X116762820Y-71572614D01*
X116760014Y-71568277D01*
X116609670Y-71403051D01*
X116605619Y-71399852D01*
X116605615Y-71399848D01*
X116438414Y-71267800D01*
X116438410Y-71267798D01*
X116434359Y-71264598D01*
X116398028Y-71244542D01*
X116382136Y-71235769D01*
X116238789Y-71156638D01*
X116233920Y-71154914D01*
X116233916Y-71154912D01*
X116033087Y-71083795D01*
X116033083Y-71083794D01*
X116028212Y-71082069D01*
X116023119Y-71081162D01*
X116023116Y-71081161D01*
X115813373Y-71043800D01*
X115813367Y-71043799D01*
X115808284Y-71042894D01*
X115734452Y-71041992D01*
X115590081Y-71040228D01*
X115590079Y-71040228D01*
X115584911Y-71040165D01*
X115364091Y-71073955D01*
X115151756Y-71143357D01*
X114953607Y-71246507D01*
X114949474Y-71249610D01*
X114949471Y-71249612D01*
X114796440Y-71364511D01*
X114774965Y-71380635D01*
X114728265Y-71429504D01*
X114635132Y-71526962D01*
X114620629Y-71542138D01*
X114617715Y-71546410D01*
X114617714Y-71546411D01*
X114512898Y-71700066D01*
X114457987Y-71745069D01*
X114387462Y-71753240D01*
X114323715Y-71721986D01*
X114303018Y-71697502D01*
X114222426Y-71572926D01*
X114216136Y-71564757D01*
X114072806Y-71407240D01*
X114065273Y-71400215D01*
X113898139Y-71268222D01*
X113889552Y-71262517D01*
X113703117Y-71159599D01*
X113693705Y-71155369D01*
X113492959Y-71084280D01*
X113482988Y-71081646D01*
X113411837Y-71068972D01*
X113398540Y-71070432D01*
X113394000Y-71084989D01*
X113394000Y-73718517D01*
X112886000Y-73718517D01*
X112886000Y-71083102D01*
X112882082Y-71069758D01*
X112867806Y-71067771D01*
X112829324Y-71073660D01*
X112819288Y-71076051D01*
X112616868Y-71142212D01*
X112607359Y-71146209D01*
X112418463Y-71244542D01*
X112409738Y-71250036D01*
X112239433Y-71377905D01*
X112231726Y-71384748D01*
X112154478Y-71465584D01*
X112092954Y-71501014D01*
X112022042Y-71497557D01*
X111964255Y-71456311D01*
X111945402Y-71422763D01*
X111903767Y-71311703D01*
X111900615Y-71303295D01*
X111813261Y-71186739D01*
X111696705Y-71099385D01*
X111560316Y-71048255D01*
X111498134Y-71041500D01*
X109701866Y-71041500D01*
X109639684Y-71048255D01*
X109503295Y-71099385D01*
X109386739Y-71186739D01*
X109299385Y-71303295D01*
X109248255Y-71439684D01*
X109241500Y-71501866D01*
X109241500Y-73298134D01*
X104957448Y-73298134D01*
X104960018Y-73101819D01*
X104960081Y-73097022D01*
X104960081Y-73097019D01*
X104960142Y-73092345D01*
X104924896Y-72833362D01*
X104917399Y-72807639D01*
X104903902Y-72761336D01*
X104851757Y-72582433D01*
X104742332Y-72345072D01*
X104632376Y-72177361D01*
X104601590Y-72130404D01*
X104601586Y-72130399D01*
X104599024Y-72126491D01*
X104424982Y-71931494D01*
X104224030Y-71764363D01*
X104118072Y-71700066D01*
X104004578Y-71631196D01*
X104004574Y-71631194D01*
X104000581Y-71628771D01*
X103759545Y-71527697D01*
X103506217Y-71463359D01*
X103501566Y-71462891D01*
X103501562Y-71462890D01*
X103292271Y-71441816D01*
X103289133Y-71441500D01*
X103133646Y-71441500D01*
X103131321Y-71441673D01*
X103131315Y-71441673D01*
X102944000Y-71455593D01*
X102943996Y-71455594D01*
X102939348Y-71455939D01*
X102934800Y-71456968D01*
X102934794Y-71456969D01*
X102755424Y-71497557D01*
X102684423Y-71513623D01*
X102680071Y-71515315D01*
X102680069Y-71515316D01*
X102445176Y-71606660D01*
X102445173Y-71606661D01*
X102440823Y-71608353D01*
X102213902Y-71738049D01*
X102008643Y-71899862D01*
X101829557Y-72090237D01*
X101680576Y-72304991D01*
X101678510Y-72309181D01*
X101678508Y-72309184D01*
X101590853Y-72486932D01*
X101564975Y-72539407D01*
X101563553Y-72543850D01*
X101563552Y-72543852D01*
X101486720Y-72783877D01*
X101485293Y-72788335D01*
X101443279Y-73046307D01*
X101443218Y-73050980D01*
X101439983Y-73298134D01*
X101439858Y-73307655D01*
X100408500Y-73307655D01*
X100408500Y-69634500D01*
X100428502Y-69566379D01*
X100482158Y-69519886D01*
X100534500Y-69508500D01*
X129265500Y-69508500D01*
X129333621Y-69528502D01*
G37*
G04 #@! TD.AperFunction*
G04 #@! TD*
M02*
