G04 #@! TF.GenerationSoftware,KiCad,Pcbnew,(6.0.4)*
G04 #@! TF.CreationDate,2022-04-19T23:10:38+02:00*
G04 #@! TF.ProjectId,Wt_rnik_oscyloskopowy_JFET,5774f372-6e69-46b5-9f6f-7363796c6f73,rev?*
G04 #@! TF.SameCoordinates,Original*
G04 #@! TF.FileFunction,Legend,Top*
G04 #@! TF.FilePolarity,Positive*
%FSLAX46Y46*%
G04 Gerber Fmt 4.6, Leading zero omitted, Abs format (unit mm)*
G04 Created by KiCad (PCBNEW (6.0.4)) date 2022-04-19 23:10:38*
%MOMM*%
%LPD*%
G01*
G04 APERTURE LIST*
%ADD10C,0.200000*%
%ADD11C,0.250000*%
%ADD12C,0.150000*%
%ADD13C,0.120000*%
G04 APERTURE END LIST*
D10*
X100657142Y-78707142D02*
X101857142Y-78707142D01*
X100657142Y-79421428D02*
X101857142Y-79421428D01*
X100657142Y-80278571D01*
X101857142Y-80278571D01*
X100657142Y-80992857D02*
X101857142Y-80992857D01*
X101857142Y-81564285D01*
X101800000Y-81707142D01*
X101742857Y-81778571D01*
X101628571Y-81850000D01*
X101457142Y-81850000D01*
X101342857Y-81778571D01*
X101285714Y-81707142D01*
X101228571Y-81564285D01*
X101228571Y-80992857D01*
X101857142Y-82492857D02*
X100885714Y-82492857D01*
X100771428Y-82564285D01*
X100714285Y-82635714D01*
X100657142Y-82778571D01*
X100657142Y-83064285D01*
X100714285Y-83207142D01*
X100771428Y-83278571D01*
X100885714Y-83350000D01*
X101857142Y-83350000D01*
X101857142Y-83850000D02*
X101857142Y-84707142D01*
X100657142Y-84278571D02*
X101857142Y-84278571D01*
D11*
X108290476Y-89041595D02*
X108480952Y-89041595D01*
X108576190Y-89103500D01*
X108671428Y-89227309D01*
X108719047Y-89474928D01*
X108719047Y-89908261D01*
X108671428Y-90155880D01*
X108576190Y-90279690D01*
X108480952Y-90341595D01*
X108290476Y-90341595D01*
X108195238Y-90279690D01*
X108100000Y-90155880D01*
X108052380Y-89908261D01*
X108052380Y-89474928D01*
X108100000Y-89227309D01*
X108195238Y-89103500D01*
X108290476Y-89041595D01*
X109100000Y-90279690D02*
X109242857Y-90341595D01*
X109480952Y-90341595D01*
X109576190Y-90279690D01*
X109623809Y-90217785D01*
X109671428Y-90093976D01*
X109671428Y-89970166D01*
X109623809Y-89846357D01*
X109576190Y-89784452D01*
X109480952Y-89722547D01*
X109290476Y-89660642D01*
X109195238Y-89598738D01*
X109147619Y-89536833D01*
X109100000Y-89413023D01*
X109100000Y-89289214D01*
X109147619Y-89165404D01*
X109195238Y-89103500D01*
X109290476Y-89041595D01*
X109528571Y-89041595D01*
X109671428Y-89103500D01*
X110671428Y-90217785D02*
X110623809Y-90279690D01*
X110480952Y-90341595D01*
X110385714Y-90341595D01*
X110242857Y-90279690D01*
X110147619Y-90155880D01*
X110100000Y-90032071D01*
X110052380Y-89784452D01*
X110052380Y-89598738D01*
X110100000Y-89351119D01*
X110147619Y-89227309D01*
X110242857Y-89103500D01*
X110385714Y-89041595D01*
X110480952Y-89041595D01*
X110623809Y-89103500D01*
X110671428Y-89165404D01*
X111100000Y-90217785D02*
X111147619Y-90279690D01*
X111100000Y-90341595D01*
X111052380Y-90279690D01*
X111100000Y-90217785D01*
X111100000Y-90341595D01*
X106361904Y-91753642D02*
X106028571Y-91753642D01*
X106028571Y-92434595D02*
X106028571Y-91134595D01*
X106504761Y-91134595D01*
X107076190Y-91134595D02*
X107266666Y-91134595D01*
X107361904Y-91196500D01*
X107457142Y-91320309D01*
X107504761Y-91567928D01*
X107504761Y-92001261D01*
X107457142Y-92248880D01*
X107361904Y-92372690D01*
X107266666Y-92434595D01*
X107076190Y-92434595D01*
X106980952Y-92372690D01*
X106885714Y-92248880D01*
X106838095Y-92001261D01*
X106838095Y-91567928D01*
X106885714Y-91320309D01*
X106980952Y-91196500D01*
X107076190Y-91134595D01*
X108409523Y-92434595D02*
X107933333Y-92434595D01*
X107933333Y-91134595D01*
X109219047Y-92434595D02*
X108742857Y-92434595D01*
X108742857Y-91134595D01*
X109742857Y-91134595D02*
X109933333Y-91134595D01*
X110028571Y-91196500D01*
X110123809Y-91320309D01*
X110171428Y-91567928D01*
X110171428Y-92001261D01*
X110123809Y-92248880D01*
X110028571Y-92372690D01*
X109933333Y-92434595D01*
X109742857Y-92434595D01*
X109647619Y-92372690D01*
X109552380Y-92248880D01*
X109504761Y-92001261D01*
X109504761Y-91567928D01*
X109552380Y-91320309D01*
X109647619Y-91196500D01*
X109742857Y-91134595D01*
X110504761Y-91134595D02*
X110742857Y-92434595D01*
X110933333Y-91506023D01*
X111123809Y-92434595D01*
X111361904Y-91134595D01*
X111742857Y-91753642D02*
X112076190Y-91753642D01*
X112219047Y-92434595D02*
X111742857Y-92434595D01*
X111742857Y-91134595D01*
X112219047Y-91134595D01*
X113219047Y-92434595D02*
X112885714Y-91815547D01*
X112647619Y-92434595D02*
X112647619Y-91134595D01*
X113028571Y-91134595D01*
X113123809Y-91196500D01*
X113171428Y-91258404D01*
X113219047Y-91382214D01*
X113219047Y-91567928D01*
X113171428Y-91691738D01*
X113123809Y-91753642D01*
X113028571Y-91815547D01*
X112647619Y-91815547D01*
D10*
X116492857Y-92042857D02*
X116778571Y-92042857D01*
X116921428Y-92100000D01*
X117064285Y-92214285D01*
X117135714Y-92442857D01*
X117135714Y-92842857D01*
X117064285Y-93071428D01*
X116921428Y-93185714D01*
X116778571Y-93242857D01*
X116492857Y-93242857D01*
X116350000Y-93185714D01*
X116207142Y-93071428D01*
X116135714Y-92842857D01*
X116135714Y-92442857D01*
X116207142Y-92214285D01*
X116350000Y-92100000D01*
X116492857Y-92042857D01*
X117778571Y-92042857D02*
X117778571Y-93014285D01*
X117850000Y-93128571D01*
X117921428Y-93185714D01*
X118064285Y-93242857D01*
X118350000Y-93242857D01*
X118492857Y-93185714D01*
X118564285Y-93128571D01*
X118635714Y-93014285D01*
X118635714Y-92042857D01*
X119135714Y-92042857D02*
X119992857Y-92042857D01*
X119564285Y-93242857D02*
X119564285Y-92042857D01*
X120492857Y-93242857D02*
X120492857Y-92042857D01*
X121064285Y-92042857D01*
X121207142Y-92100000D01*
X121278571Y-92157142D01*
X121350000Y-92271428D01*
X121350000Y-92442857D01*
X121278571Y-92557142D01*
X121207142Y-92614285D01*
X121064285Y-92671428D01*
X120492857Y-92671428D01*
X121992857Y-92042857D02*
X121992857Y-93014285D01*
X122064285Y-93128571D01*
X122135714Y-93185714D01*
X122278571Y-93242857D01*
X122564285Y-93242857D01*
X122707142Y-93185714D01*
X122778571Y-93128571D01*
X122850000Y-93014285D01*
X122850000Y-92042857D01*
X123350000Y-92042857D02*
X124207142Y-92042857D01*
X123778571Y-93242857D02*
X123778571Y-92042857D01*
X119147619Y-70128571D02*
X118385714Y-70128571D01*
X117385714Y-69747619D02*
X117957142Y-69747619D01*
X117671428Y-69747619D02*
X117671428Y-70747619D01*
X117766666Y-70604761D01*
X117861904Y-70509523D01*
X117957142Y-70461904D01*
X116480952Y-70747619D02*
X116957142Y-70747619D01*
X117004761Y-70271428D01*
X116957142Y-70319047D01*
X116861904Y-70366666D01*
X116623809Y-70366666D01*
X116528571Y-70319047D01*
X116480952Y-70271428D01*
X116433333Y-70176190D01*
X116433333Y-69938095D01*
X116480952Y-69842857D01*
X116528571Y-69795238D01*
X116623809Y-69747619D01*
X116861904Y-69747619D01*
X116957142Y-69795238D01*
X117004761Y-69842857D01*
X116147619Y-70747619D02*
X115814285Y-69747619D01*
X115480952Y-70747619D01*
X113861904Y-70700000D02*
X113957142Y-70747619D01*
X114100000Y-70747619D01*
X114242857Y-70700000D01*
X114338095Y-70604761D01*
X114385714Y-70509523D01*
X114433333Y-70319047D01*
X114433333Y-70176190D01*
X114385714Y-69985714D01*
X114338095Y-69890476D01*
X114242857Y-69795238D01*
X114100000Y-69747619D01*
X114004761Y-69747619D01*
X113861904Y-69795238D01*
X113814285Y-69842857D01*
X113814285Y-70176190D01*
X114004761Y-70176190D01*
X113385714Y-69747619D02*
X113385714Y-70747619D01*
X112814285Y-69747619D01*
X112814285Y-70747619D01*
X112338095Y-69747619D02*
X112338095Y-70747619D01*
X112100000Y-70747619D01*
X111957142Y-70700000D01*
X111861904Y-70604761D01*
X111814285Y-70509523D01*
X111766666Y-70319047D01*
X111766666Y-70176190D01*
X111814285Y-69985714D01*
X111861904Y-69890476D01*
X111957142Y-69795238D01*
X112100000Y-69747619D01*
X112338095Y-69747619D01*
X110576190Y-70128571D02*
X109814285Y-70128571D01*
X110195238Y-69747619D02*
X110195238Y-70509523D01*
X108814285Y-69747619D02*
X109385714Y-69747619D01*
X109100000Y-69747619D02*
X109100000Y-70747619D01*
X109195238Y-70604761D01*
X109290476Y-70509523D01*
X109385714Y-70461904D01*
X107909523Y-70747619D02*
X108385714Y-70747619D01*
X108433333Y-70271428D01*
X108385714Y-70319047D01*
X108290476Y-70366666D01*
X108052380Y-70366666D01*
X107957142Y-70319047D01*
X107909523Y-70271428D01*
X107861904Y-70176190D01*
X107861904Y-69938095D01*
X107909523Y-69842857D01*
X107957142Y-69795238D01*
X108052380Y-69747619D01*
X108290476Y-69747619D01*
X108385714Y-69795238D01*
X108433333Y-69842857D01*
X107576190Y-70747619D02*
X107242857Y-69747619D01*
X106909523Y-70747619D01*
D12*
G04 #@! TO.C,J1*
X107722380Y-72733333D02*
X108436666Y-72733333D01*
X108579523Y-72780952D01*
X108674761Y-72876190D01*
X108722380Y-73019047D01*
X108722380Y-73114285D01*
X108722380Y-71733333D02*
X108722380Y-72304761D01*
X108722380Y-72019047D02*
X107722380Y-72019047D01*
X107865238Y-72114285D01*
X107960476Y-72209523D01*
X108008095Y-72304761D01*
G04 #@! TO.C,RV1*
X123152380Y-80895238D02*
X122676190Y-81228571D01*
X123152380Y-81466666D02*
X122152380Y-81466666D01*
X122152380Y-81085714D01*
X122200000Y-80990476D01*
X122247619Y-80942857D01*
X122342857Y-80895238D01*
X122485714Y-80895238D01*
X122580952Y-80942857D01*
X122628571Y-80990476D01*
X122676190Y-81085714D01*
X122676190Y-81466666D01*
X122152380Y-80609523D02*
X123152380Y-80276190D01*
X122152380Y-79942857D01*
X123152380Y-79085714D02*
X123152380Y-79657142D01*
X123152380Y-79371428D02*
X122152380Y-79371428D01*
X122295238Y-79466666D01*
X122390476Y-79561904D01*
X122438095Y-79657142D01*
G04 #@! TO.C,C4*
X117333333Y-75007142D02*
X117285714Y-75054761D01*
X117142857Y-75102380D01*
X117047619Y-75102380D01*
X116904761Y-75054761D01*
X116809523Y-74959523D01*
X116761904Y-74864285D01*
X116714285Y-74673809D01*
X116714285Y-74530952D01*
X116761904Y-74340476D01*
X116809523Y-74245238D01*
X116904761Y-74150000D01*
X117047619Y-74102380D01*
X117142857Y-74102380D01*
X117285714Y-74150000D01*
X117333333Y-74197619D01*
X118190476Y-74435714D02*
X118190476Y-75102380D01*
X117952380Y-74054761D02*
X117714285Y-74769047D01*
X118333333Y-74769047D01*
G04 #@! TO.C,C1*
X109633333Y-75007142D02*
X109585714Y-75054761D01*
X109442857Y-75102380D01*
X109347619Y-75102380D01*
X109204761Y-75054761D01*
X109109523Y-74959523D01*
X109061904Y-74864285D01*
X109014285Y-74673809D01*
X109014285Y-74530952D01*
X109061904Y-74340476D01*
X109109523Y-74245238D01*
X109204761Y-74150000D01*
X109347619Y-74102380D01*
X109442857Y-74102380D01*
X109585714Y-74150000D01*
X109633333Y-74197619D01*
X110585714Y-75102380D02*
X110014285Y-75102380D01*
X110300000Y-75102380D02*
X110300000Y-74102380D01*
X110204761Y-74245238D01*
X110109523Y-74340476D01*
X110014285Y-74388095D01*
G04 #@! TO.C,Q1*
X110047619Y-85795238D02*
X110000000Y-85890476D01*
X109904761Y-85985714D01*
X109761904Y-86128571D01*
X109714285Y-86223809D01*
X109714285Y-86319047D01*
X109952380Y-86271428D02*
X109904761Y-86366666D01*
X109809523Y-86461904D01*
X109619047Y-86509523D01*
X109285714Y-86509523D01*
X109095238Y-86461904D01*
X109000000Y-86366666D01*
X108952380Y-86271428D01*
X108952380Y-86080952D01*
X109000000Y-85985714D01*
X109095238Y-85890476D01*
X109285714Y-85842857D01*
X109619047Y-85842857D01*
X109809523Y-85890476D01*
X109904761Y-85985714D01*
X109952380Y-86080952D01*
X109952380Y-86271428D01*
X109952380Y-84890476D02*
X109952380Y-85461904D01*
X109952380Y-85176190D02*
X108952380Y-85176190D01*
X109095238Y-85271428D01*
X109190476Y-85366666D01*
X109238095Y-85461904D01*
G04 #@! TO.C,J2*
X103166666Y-84952380D02*
X103166666Y-85666666D01*
X103119047Y-85809523D01*
X103023809Y-85904761D01*
X102880952Y-85952380D01*
X102785714Y-85952380D01*
X103595238Y-85047619D02*
X103642857Y-85000000D01*
X103738095Y-84952380D01*
X103976190Y-84952380D01*
X104071428Y-85000000D01*
X104119047Y-85047619D01*
X104166666Y-85142857D01*
X104166666Y-85238095D01*
X104119047Y-85380952D01*
X103547619Y-85952380D01*
X104166666Y-85952380D01*
G04 #@! TO.C,Q2*
X120607619Y-85815238D02*
X120560000Y-85910476D01*
X120464761Y-86005714D01*
X120321904Y-86148571D01*
X120274285Y-86243809D01*
X120274285Y-86339047D01*
X120512380Y-86291428D02*
X120464761Y-86386666D01*
X120369523Y-86481904D01*
X120179047Y-86529523D01*
X119845714Y-86529523D01*
X119655238Y-86481904D01*
X119560000Y-86386666D01*
X119512380Y-86291428D01*
X119512380Y-86100952D01*
X119560000Y-86005714D01*
X119655238Y-85910476D01*
X119845714Y-85862857D01*
X120179047Y-85862857D01*
X120369523Y-85910476D01*
X120464761Y-86005714D01*
X120512380Y-86100952D01*
X120512380Y-86291428D01*
X119607619Y-85481904D02*
X119560000Y-85434285D01*
X119512380Y-85339047D01*
X119512380Y-85100952D01*
X119560000Y-85005714D01*
X119607619Y-84958095D01*
X119702857Y-84910476D01*
X119798095Y-84910476D01*
X119940952Y-84958095D01*
X120512380Y-85529523D01*
X120512380Y-84910476D01*
G04 #@! TO.C,J3*
X119866666Y-87352380D02*
X119866666Y-88066666D01*
X119819047Y-88209523D01*
X119723809Y-88304761D01*
X119580952Y-88352380D01*
X119485714Y-88352380D01*
X120247619Y-87352380D02*
X120866666Y-87352380D01*
X120533333Y-87733333D01*
X120676190Y-87733333D01*
X120771428Y-87780952D01*
X120819047Y-87828571D01*
X120866666Y-87923809D01*
X120866666Y-88161904D01*
X120819047Y-88257142D01*
X120771428Y-88304761D01*
X120676190Y-88352380D01*
X120390476Y-88352380D01*
X120295238Y-88304761D01*
X120247619Y-88257142D01*
D13*
G04 #@! TO.C,J1*
X111870000Y-73730000D02*
X117010000Y-73730000D01*
X109270000Y-73730000D02*
X109270000Y-72400000D01*
X117010000Y-73730000D02*
X117010000Y-71070000D01*
X110600000Y-73730000D02*
X109270000Y-73730000D01*
X111870000Y-73730000D02*
X111870000Y-71070000D01*
X111870000Y-71070000D02*
X117010000Y-71070000D01*
G04 #@! TO.C,RV1*
X126680000Y-83835000D02*
X124894000Y-83835000D01*
X126680000Y-76885000D02*
X124894000Y-76885000D01*
X121940000Y-76885000D02*
X121940000Y-83835000D01*
X123904000Y-83835000D02*
X121940000Y-83835000D01*
X123904000Y-76885000D02*
X121940000Y-76885000D01*
X126680000Y-76885000D02*
X126680000Y-83835000D01*
G04 #@! TO.C,C4*
X114695225Y-76925000D02*
X115195225Y-76925000D01*
X114945225Y-76675000D02*
X114945225Y-77175000D01*
X115104003Y-79460000D02*
G75*
G03*
X119895997Y-79460000I2395997J1060001D01*
G01*
X119895997Y-77340000D02*
G75*
G03*
X115104003Y-77340000I-2395997J-1060001D01*
G01*
G04 #@! TO.C,C1*
X106995225Y-76925000D02*
X107495225Y-76925000D01*
X107245225Y-76675000D02*
X107245225Y-77175000D01*
X107404003Y-79460000D02*
G75*
G03*
X112195997Y-79460000I2395997J1060001D01*
G01*
X112195997Y-77340000D02*
G75*
G03*
X107404003Y-77340000I-2395997J-1060001D01*
G01*
G04 #@! TO.C,Q1*
X114910000Y-87500000D02*
X114910000Y-83900000D01*
X110459999Y-85700000D02*
G75*
G03*
X114898478Y-87538478I2600001J0D01*
G01*
X114898478Y-83861522D02*
G75*
G03*
X110460000Y-85700000I-1838478J-1838478D01*
G01*
G04 #@! TO.C,J2*
X104730000Y-82675000D02*
X104730000Y-84005000D01*
X104730000Y-81405000D02*
X104730000Y-78805000D01*
X104730000Y-81405000D02*
X102070000Y-81405000D01*
X102070000Y-81405000D02*
X102070000Y-78805000D01*
X104730000Y-78805000D02*
X102070000Y-78805000D01*
X104730000Y-84005000D02*
X103400000Y-84005000D01*
G04 #@! TO.C,Q2*
X114650000Y-83920000D02*
X114650000Y-87520000D01*
X119100001Y-85720000D02*
G75*
G03*
X114661522Y-83881522I-2600001J0D01*
G01*
X114661522Y-87558478D02*
G75*
G03*
X119100000Y-85720000I1838478J1838478D01*
G01*
G04 #@! TO.C,J3*
X120170000Y-91730000D02*
X122770000Y-91730000D01*
X118900000Y-91730000D02*
X117570000Y-91730000D01*
X117570000Y-91730000D02*
X117570000Y-90400000D01*
X120170000Y-89070000D02*
X122770000Y-89070000D01*
X120170000Y-91730000D02*
X120170000Y-89070000D01*
X122770000Y-91730000D02*
X122770000Y-89070000D01*
G04 #@! TD*
M02*
