%TF.GenerationSoftware,KiCad,Pcbnew,9.0.5*%
%TF.CreationDate,2025-10-18T12:32:35+02:00*%
%TF.ProjectId,LogicAnalyzer V6.0,4c6f6769-6341-46e6-916c-797a65722056,rev?*%
%TF.SameCoordinates,Original*%
%TF.FileFunction,Copper,L3,Inr*%
%TF.FilePolarity,Positive*%
%FSLAX46Y46*%
G04 Gerber Fmt 4.6, Leading zero omitted, Abs format (unit mm)*
G04 Created by KiCad (PCBNEW 9.0.5) date 2025-10-18 12:32:35*
%MOMM*%
%LPD*%
G01*
G04 APERTURE LIST*
G04 Aperture macros list*
%AMRoundRect*
0 Rectangle with rounded corners*
0 $1 Rounding radius*
0 $2 $3 $4 $5 $6 $7 $8 $9 X,Y pos of 4 corners*
0 Add a 4 corners polygon primitive as box body*
4,1,4,$2,$3,$4,$5,$6,$7,$8,$9,$2,$3,0*
0 Add four circle primitives for the rounded corners*
1,1,$1+$1,$2,$3*
1,1,$1+$1,$4,$5*
1,1,$1+$1,$6,$7*
1,1,$1+$1,$8,$9*
0 Add four rect primitives between the rounded corners*
20,1,$1+$1,$2,$3,$4,$5,0*
20,1,$1+$1,$4,$5,$6,$7,0*
20,1,$1+$1,$6,$7,$8,$9,0*
20,1,$1+$1,$8,$9,$2,$3,0*%
G04 Aperture macros list end*
%TA.AperFunction,ComponentPad*%
%ADD10C,1.900000*%
%TD*%
%TA.AperFunction,ComponentPad*%
%ADD11C,3.500000*%
%TD*%
%TA.AperFunction,ComponentPad*%
%ADD12C,0.800000*%
%TD*%
%TA.AperFunction,ComponentPad*%
%ADD13C,5.000000*%
%TD*%
%TA.AperFunction,ComponentPad*%
%ADD14RoundRect,0.250000X0.550000X-0.550000X0.550000X0.550000X-0.550000X0.550000X-0.550000X-0.550000X0*%
%TD*%
%TA.AperFunction,ComponentPad*%
%ADD15C,1.600000*%
%TD*%
%TA.AperFunction,ComponentPad*%
%ADD16R,1.700000X1.700000*%
%TD*%
%TA.AperFunction,ComponentPad*%
%ADD17C,1.700000*%
%TD*%
%TA.AperFunction,ComponentPad*%
%ADD18RoundRect,0.250000X-0.550000X0.550000X-0.550000X-0.550000X0.550000X-0.550000X0.550000X0.550000X0*%
%TD*%
%TA.AperFunction,ComponentPad*%
%ADD19RoundRect,0.250000X0.550000X0.550000X-0.550000X0.550000X-0.550000X-0.550000X0.550000X-0.550000X0*%
%TD*%
%TA.AperFunction,ComponentPad*%
%ADD20RoundRect,0.250000X-0.550000X-0.550000X0.550000X-0.550000X0.550000X0.550000X-0.550000X0.550000X0*%
%TD*%
%TA.AperFunction,ViaPad*%
%ADD21C,0.600000*%
%TD*%
%TA.AperFunction,ViaPad*%
%ADD22C,1.200000*%
%TD*%
G04 APERTURE END LIST*
D10*
%TO.N,Net-(FB6-Pad2)*%
%TO.C,SW1*%
X111830000Y-67350000D03*
%TO.N,Net-(FB5-Pad2)*%
X111830000Y-65050000D03*
%TO.N,/POWER_1v8*%
X111830000Y-62650000D03*
%TO.N,/POWER_2v5*%
X111830000Y-60350000D03*
%TO.N,/POWER_3v3*%
X111830000Y-58050000D03*
%TO.N,/POWER_5v*%
X111830000Y-55750000D03*
%TO.N,Net-(FB6-Pad2)*%
X111830000Y-53550000D03*
D11*
%TO.N,GND*%
X106630000Y-71050000D03*
X106530000Y-49450000D03*
%TD*%
D12*
%TO.N,GND*%
%TO.C,H3*%
X160125000Y-50000000D03*
X160674175Y-48674175D03*
X160674175Y-51325825D03*
X162000000Y-48125000D03*
D13*
X162000000Y-50000000D03*
D12*
X162000000Y-51875000D03*
X163325825Y-48674175D03*
X163325825Y-51325825D03*
X163875000Y-50000000D03*
%TD*%
D14*
%TO.N,Net-(U7-VBUS)*%
%TO.C,C30*%
X161780000Y-82998856D03*
D15*
%TO.N,GND*%
X161780000Y-80498856D03*
%TD*%
D16*
%TO.N,GND*%
%TO.C,J1*%
X121380000Y-55000000D03*
D17*
%TO.N,unconnected-(J1-Pad2)*%
X123920000Y-55000000D03*
%TO.N,/EXT_CHAIN*%
X126460000Y-55000000D03*
%TD*%
D16*
%TO.N,GND*%
%TO.C,J5*%
X115500000Y-134435000D03*
D17*
X112960000Y-134435000D03*
%TO.N,/DIN12*%
X115500000Y-131895000D03*
%TO.N,/DIN13*%
X112960000Y-131895000D03*
%TO.N,/DIN11*%
X115500000Y-129355000D03*
%TO.N,/DIN14*%
X112960000Y-129355000D03*
%TO.N,/DIN10*%
X115500000Y-126815000D03*
%TO.N,/DIN15*%
X112960000Y-126815000D03*
%TO.N,/DIN9*%
X115500000Y-124275000D03*
%TO.N,/DIN16*%
X112960000Y-124275000D03*
%TO.N,/DIN8*%
X115500000Y-121735000D03*
%TO.N,/DIN17*%
X112960000Y-121735000D03*
%TO.N,/DIN7*%
X115500000Y-119195000D03*
%TO.N,/DIN18*%
X112960000Y-119195000D03*
%TO.N,/DIN6*%
X115500000Y-116655000D03*
%TO.N,/DIN19*%
X112960000Y-116655000D03*
%TO.N,/DIN5*%
X115500000Y-114115000D03*
%TO.N,/DIN20*%
X112960000Y-114115000D03*
%TO.N,/DIN4*%
X115500000Y-111575000D03*
%TO.N,/DIN21*%
X112960000Y-111575000D03*
%TO.N,/DIN3*%
X115500000Y-109035000D03*
%TO.N,/DIN22*%
X112960000Y-109035000D03*
%TO.N,/DIN2*%
X115500000Y-106495000D03*
%TO.N,/DIN23*%
X112960000Y-106495000D03*
%TO.N,/DIN1*%
X115500000Y-103955000D03*
%TO.N,/DIN24*%
X112960000Y-103955000D03*
%TO.N,GND*%
X115500000Y-101415000D03*
X112960000Y-101415000D03*
%TD*%
D18*
%TO.N,/POWER_5v*%
%TO.C,C24*%
X140960000Y-72731144D03*
D15*
%TO.N,GND*%
X140960000Y-75231144D03*
%TD*%
D16*
%TO.N,GND*%
%TO.C,J3*%
X137380000Y-55000000D03*
D17*
%TO.N,unconnected-(J3-Pad2)*%
X139920000Y-55000000D03*
%TO.N,/EXT_CHAIN*%
X142460000Y-55000000D03*
%TD*%
D14*
%TO.N,Net-(U12-VO)*%
%TO.C,C21*%
X132640000Y-73358856D03*
D15*
%TO.N,GND*%
X132640000Y-70858856D03*
%TD*%
D12*
%TO.N,GND*%
%TO.C,H2*%
X130075000Y-50000000D03*
X130624175Y-48674175D03*
X130624175Y-51325825D03*
X131950000Y-48125000D03*
D13*
X131950000Y-50000000D03*
D12*
X131950000Y-51875000D03*
X133275825Y-48674175D03*
X133275825Y-51325825D03*
X133825000Y-50000000D03*
%TD*%
%TO.N,GND*%
%TO.C,H4*%
X160125000Y-74870000D03*
X160674175Y-73544175D03*
X160674175Y-76195825D03*
X162000000Y-72995000D03*
D13*
X162000000Y-74870000D03*
D12*
X162000000Y-76745000D03*
X163325825Y-73544175D03*
X163325825Y-76195825D03*
X163875000Y-74870000D03*
%TD*%
D14*
%TO.N,/POWER_5v*%
%TO.C,C19*%
X140050000Y-83208856D03*
D15*
%TO.N,GND*%
X140050000Y-80708856D03*
%TD*%
D12*
%TO.N,GND*%
%TO.C,H5*%
X161715000Y-140880000D03*
X162264175Y-139554175D03*
X162264175Y-142205825D03*
X163590000Y-139005000D03*
D13*
X163590000Y-140880000D03*
D12*
X163590000Y-142755000D03*
X164915825Y-139554175D03*
X164915825Y-142205825D03*
X165465000Y-140880000D03*
%TD*%
%TO.N,GND*%
%TO.C,H6*%
X104125000Y-140000000D03*
X104674175Y-138674175D03*
X104674175Y-141325825D03*
X106000000Y-138125000D03*
D13*
X106000000Y-140000000D03*
D12*
X106000000Y-141875000D03*
X107325825Y-138674175D03*
X107325825Y-141325825D03*
X107875000Y-140000000D03*
%TD*%
D16*
%TO.N,GND*%
%TO.C,J4*%
X115500000Y-95920000D03*
D17*
X112960000Y-95920000D03*
%TO.N,/EXT_VREF*%
X115500000Y-93380000D03*
X112960000Y-93380000D03*
%TO.N,/EXT_TRIG*%
X115500000Y-90840000D03*
X112960000Y-90840000D03*
%TO.N,/POWER_5v*%
X115500000Y-88300000D03*
X112960000Y-88300000D03*
%TO.N,/POWER_3v3*%
X115500000Y-85760000D03*
X112960000Y-85760000D03*
%TO.N,/POWER_2v5*%
X115500000Y-83220000D03*
X112960000Y-83220000D03*
%TO.N,/POWER_1v8*%
X115500000Y-80680000D03*
X112960000Y-80680000D03*
%TO.N,GND*%
X115500000Y-78140000D03*
X112960000Y-78140000D03*
X115500000Y-75600000D03*
X112960000Y-75600000D03*
%TD*%
D14*
%TO.N,/POWER_5v*%
%TO.C,C22*%
X129520000Y-66148856D03*
D15*
%TO.N,GND*%
X129520000Y-63648856D03*
%TD*%
D12*
%TO.N,GND*%
%TO.C,H1*%
X114425000Y-50000000D03*
X114974175Y-48674175D03*
X114974175Y-51325825D03*
X116300000Y-48125000D03*
D13*
X116300000Y-50000000D03*
D12*
X116300000Y-51875000D03*
X117625825Y-48674175D03*
X117625825Y-51325825D03*
X118175000Y-50000000D03*
%TD*%
D19*
%TO.N,Net-(U11-VO)*%
%TO.C,C23*%
X121450000Y-72180000D03*
D15*
%TO.N,GND*%
X118950000Y-72180000D03*
%TD*%
D20*
%TO.N,/POWER_3v3_F*%
%TO.C,C20*%
X130331144Y-89090000D03*
D15*
%TO.N,GND*%
X132831144Y-89090000D03*
%TD*%
D21*
%TO.N,GND*%
X138280000Y-119610000D03*
X159030000Y-85290000D03*
X121050000Y-93150000D03*
X142530000Y-119610000D03*
X125490000Y-131900000D03*
X121000000Y-123940000D03*
X120960000Y-108130000D03*
X125500000Y-93090000D03*
X122200000Y-130450000D03*
X158510000Y-131240000D03*
X135400000Y-70500000D03*
X142540000Y-106860000D03*
X121010000Y-131940000D03*
X125490000Y-100610000D03*
X125470000Y-91090000D03*
X131800000Y-139700000D03*
X120410000Y-60300000D03*
X122200000Y-122300000D03*
X143890000Y-70410000D03*
X120970000Y-115900000D03*
X128900000Y-60300000D03*
X121000000Y-100600000D03*
X134800000Y-68150000D03*
X125490000Y-123910000D03*
X123361217Y-87609000D03*
X142525000Y-132300000D03*
X142530000Y-94220000D03*
X122200000Y-106730000D03*
X125375000Y-140925000D03*
X162700000Y-106920000D03*
X129390000Y-82850000D03*
X138370000Y-94200000D03*
X138325000Y-132325000D03*
X125480000Y-115910000D03*
X122220000Y-138410000D03*
X136310000Y-85240000D03*
X122180000Y-99290000D03*
X162720000Y-94210000D03*
X162690000Y-132350000D03*
X126450000Y-70420000D03*
X138310000Y-106940000D03*
X158490000Y-94160000D03*
X137700000Y-85700000D03*
X145660000Y-81070000D03*
X128260000Y-71200000D03*
X122210000Y-114380000D03*
X121040000Y-91100000D03*
X120700000Y-139700000D03*
X119350000Y-68140000D03*
X125480000Y-108120000D03*
D22*
%TO.N,/POWER_3v3*%
X113760000Y-61500000D03*
X113790000Y-63860000D03*
%TO.N,/EXT_CHAIN*%
X148080000Y-84510000D03*
X148060000Y-81470000D03*
%TO.N,/POWER_5v*%
X145370000Y-68250000D03*
D21*
%TO.N,/DIN14*%
X118200000Y-134960000D03*
%TO.N,/DIN20*%
X120630000Y-118490000D03*
%TO.N,/DIN18*%
X120640000Y-119797500D03*
%TO.N,/DIN21*%
X123740000Y-104910000D03*
%TO.N,/DIN19*%
X123890000Y-119150000D03*
%TO.N,/DIN16*%
X119860000Y-132280000D03*
%TO.N,/DIN17*%
X123880000Y-120450000D03*
%TO.N,/DIN22*%
X120710000Y-104260000D03*
%TO.N,/DIN15*%
X123930000Y-135320000D03*
%TO.N,/DIN24*%
X120710000Y-102970000D03*
%TO.N,/DIN23*%
X123730000Y-103630000D03*
%TO.N,/DIN13*%
X123930000Y-136620000D03*
%TO.N,/DOUT16*%
X157530000Y-132910000D03*
X129670000Y-134669000D03*
%TO.N,/DOUT15*%
X159560000Y-138940000D03*
X130660000Y-135300000D03*
%TO.N,/DOUT14*%
X129600000Y-135969000D03*
X129600000Y-137260000D03*
%TO.N,/DOUT22*%
X157520000Y-112000000D03*
X130450000Y-104360000D03*
%TO.N,/DOUT24*%
X130440000Y-102960000D03*
X157490000Y-104360000D03*
%TO.N,/DOUT21*%
X157530000Y-117120000D03*
X130440000Y-105800000D03*
%TO.N,/DOUT23*%
X131470000Y-103660000D03*
X157510000Y-109470000D03*
%TO.N,/DOUT18*%
X129830000Y-119881000D03*
X157510000Y-127270000D03*
%TO.N,/DOUT20*%
X129820000Y-118480000D03*
X157530000Y-122150000D03*
%TO.N,/DOUT17*%
X129850000Y-121140000D03*
X157540000Y-129800000D03*
%TO.N,/DOUT19*%
X130730000Y-119170000D03*
X157520000Y-124730000D03*
D22*
%TO.N,/POWER_2v5*%
X115180000Y-65480000D03*
%TO.N,Net-(FB5-Pad2)*%
X117590000Y-92130000D03*
%TO.N,Net-(FB6-Pad2)*%
X120440000Y-89220000D03*
%TD*%
%TA.AperFunction,Conductor*%
%TO.N,GND*%
G36*
X166442539Y-44850185D02*
G01*
X166488294Y-44902989D01*
X166499500Y-44954500D01*
X166499500Y-143705500D01*
X166479815Y-143772539D01*
X166427011Y-143818294D01*
X166375500Y-143829500D01*
X102624500Y-143829500D01*
X102557461Y-143809815D01*
X102511706Y-143757011D01*
X102500500Y-143705500D01*
X102500500Y-139008995D01*
X158859499Y-139008995D01*
X158886418Y-139144322D01*
X158886421Y-139144332D01*
X158939221Y-139271804D01*
X158939228Y-139271817D01*
X159015885Y-139386541D01*
X159015888Y-139386545D01*
X159113454Y-139484111D01*
X159113458Y-139484114D01*
X159228182Y-139560771D01*
X159228195Y-139560778D01*
X159355667Y-139613578D01*
X159355672Y-139613580D01*
X159355676Y-139613580D01*
X159355677Y-139613581D01*
X159491004Y-139640500D01*
X159491007Y-139640500D01*
X159628995Y-139640500D01*
X159720041Y-139622389D01*
X159764328Y-139613580D01*
X159891811Y-139560775D01*
X160006542Y-139484114D01*
X160104114Y-139386542D01*
X160180775Y-139271811D01*
X160233580Y-139144328D01*
X160260500Y-139008993D01*
X160260500Y-138871007D01*
X160260500Y-138871004D01*
X160233581Y-138735677D01*
X160233580Y-138735676D01*
X160233580Y-138735672D01*
X160233578Y-138735667D01*
X160180778Y-138608195D01*
X160180771Y-138608182D01*
X160104114Y-138493458D01*
X160104111Y-138493454D01*
X160006545Y-138395888D01*
X160006541Y-138395885D01*
X159891817Y-138319228D01*
X159891804Y-138319221D01*
X159764332Y-138266421D01*
X159764322Y-138266418D01*
X159628995Y-138239500D01*
X159628993Y-138239500D01*
X159491007Y-138239500D01*
X159491005Y-138239500D01*
X159355677Y-138266418D01*
X159355667Y-138266421D01*
X159228195Y-138319221D01*
X159228182Y-138319228D01*
X159113458Y-138395885D01*
X159113454Y-138395888D01*
X159015888Y-138493454D01*
X159015885Y-138493458D01*
X158939228Y-138608182D01*
X158939221Y-138608195D01*
X158886421Y-138735667D01*
X158886418Y-138735677D01*
X158859500Y-138871004D01*
X158859500Y-138871007D01*
X158859500Y-139008993D01*
X158859500Y-139008995D01*
X158859499Y-139008995D01*
X102500500Y-139008995D01*
X102500500Y-135028995D01*
X117499499Y-135028995D01*
X117526418Y-135164322D01*
X117526421Y-135164332D01*
X117579221Y-135291804D01*
X117579228Y-135291817D01*
X117655885Y-135406541D01*
X117655888Y-135406545D01*
X117753454Y-135504111D01*
X117753458Y-135504114D01*
X117868182Y-135580771D01*
X117868195Y-135580778D01*
X117991384Y-135631804D01*
X117995672Y-135633580D01*
X117995676Y-135633580D01*
X117995677Y-135633581D01*
X118131004Y-135660500D01*
X118131007Y-135660500D01*
X118268995Y-135660500D01*
X118386184Y-135637189D01*
X118404328Y-135633580D01*
X118531811Y-135580775D01*
X118646542Y-135504114D01*
X118744114Y-135406542D01*
X118755839Y-135388995D01*
X123229499Y-135388995D01*
X123256418Y-135524322D01*
X123256421Y-135524332D01*
X123309221Y-135651804D01*
X123309228Y-135651817D01*
X123385885Y-135766541D01*
X123385888Y-135766545D01*
X123483454Y-135864111D01*
X123483458Y-135864114D01*
X123487624Y-135866898D01*
X123532429Y-135920510D01*
X123541136Y-135989835D01*
X123510981Y-136052863D01*
X123487624Y-136073102D01*
X123483458Y-136075885D01*
X123483454Y-136075888D01*
X123385888Y-136173454D01*
X123385885Y-136173458D01*
X123309228Y-136288182D01*
X123309221Y-136288195D01*
X123256421Y-136415667D01*
X123256418Y-136415677D01*
X123229500Y-136551004D01*
X123229500Y-136551007D01*
X123229500Y-136688993D01*
X123229500Y-136688995D01*
X123229499Y-136688995D01*
X123256418Y-136824322D01*
X123256421Y-136824332D01*
X123309221Y-136951804D01*
X123309228Y-136951817D01*
X123385885Y-137066541D01*
X123385888Y-137066545D01*
X123483454Y-137164111D01*
X123483458Y-137164114D01*
X123598182Y-137240771D01*
X123598195Y-137240778D01*
X123725667Y-137293578D01*
X123725672Y-137293580D01*
X123725676Y-137293580D01*
X123725677Y-137293581D01*
X123861004Y-137320500D01*
X123861007Y-137320500D01*
X123998995Y-137320500D01*
X124090041Y-137302389D01*
X124134328Y-137293580D01*
X124261811Y-137240775D01*
X124376542Y-137164114D01*
X124474114Y-137066542D01*
X124550775Y-136951811D01*
X124557224Y-136936243D01*
X124603578Y-136824332D01*
X124603580Y-136824328D01*
X124625151Y-136715886D01*
X124630500Y-136688995D01*
X124630500Y-136551004D01*
X124603581Y-136415677D01*
X124603580Y-136415676D01*
X124603580Y-136415672D01*
X124557225Y-136303760D01*
X124550778Y-136288195D01*
X124550771Y-136288182D01*
X124474114Y-136173458D01*
X124474111Y-136173454D01*
X124376545Y-136075888D01*
X124376541Y-136075885D01*
X124372380Y-136073105D01*
X124343035Y-136037995D01*
X128899499Y-136037995D01*
X128926418Y-136173322D01*
X128926421Y-136173332D01*
X128979221Y-136300804D01*
X128979228Y-136300817D01*
X129055885Y-136415541D01*
X129055888Y-136415545D01*
X129153454Y-136513111D01*
X129158166Y-136516978D01*
X129156872Y-136518554D01*
X129195697Y-136565017D01*
X129204400Y-136634343D01*
X129174241Y-136697368D01*
X129157818Y-136711598D01*
X129158166Y-136712022D01*
X129153454Y-136715888D01*
X129055888Y-136813454D01*
X129055885Y-136813458D01*
X128979228Y-136928182D01*
X128979221Y-136928195D01*
X128926421Y-137055667D01*
X128926418Y-137055677D01*
X128899500Y-137191004D01*
X128899500Y-137191007D01*
X128899500Y-137328993D01*
X128899500Y-137328995D01*
X128899499Y-137328995D01*
X128926418Y-137464322D01*
X128926421Y-137464332D01*
X128979221Y-137591804D01*
X128979228Y-137591817D01*
X129055885Y-137706541D01*
X129055888Y-137706545D01*
X129153454Y-137804111D01*
X129153458Y-137804114D01*
X129268182Y-137880771D01*
X129268195Y-137880778D01*
X129380380Y-137927246D01*
X129395672Y-137933580D01*
X129395676Y-137933580D01*
X129395677Y-137933581D01*
X129531004Y-137960500D01*
X129531007Y-137960500D01*
X129668995Y-137960500D01*
X129760041Y-137942389D01*
X129804328Y-137933580D01*
X129931811Y-137880775D01*
X130046542Y-137804114D01*
X130144114Y-137706542D01*
X130220775Y-137591811D01*
X130273580Y-137464328D01*
X130300500Y-137328993D01*
X130300500Y-137191007D01*
X130300500Y-137191004D01*
X130273581Y-137055677D01*
X130273580Y-137055676D01*
X130273580Y-137055672D01*
X130230557Y-136951804D01*
X130220778Y-136928195D01*
X130220771Y-136928182D01*
X130144114Y-136813458D01*
X130144111Y-136813454D01*
X130046545Y-136715888D01*
X130041834Y-136712022D01*
X130043130Y-136710442D01*
X130004311Y-136664004D01*
X129995595Y-136594680D01*
X130025742Y-136531649D01*
X130031264Y-136525884D01*
X130039510Y-136517812D01*
X130046542Y-136513114D01*
X130055943Y-136503713D01*
X143649500Y-136503713D01*
X143649500Y-136716287D01*
X143682754Y-136926243D01*
X143724808Y-137055672D01*
X143748444Y-137128414D01*
X143844951Y-137317820D01*
X143969890Y-137489786D01*
X144120213Y-137640109D01*
X144292179Y-137765048D01*
X144292181Y-137765049D01*
X144292184Y-137765051D01*
X144481588Y-137861557D01*
X144683757Y-137927246D01*
X144893713Y-137960500D01*
X144893714Y-137960500D01*
X145106286Y-137960500D01*
X145106287Y-137960500D01*
X145316243Y-137927246D01*
X145518412Y-137861557D01*
X145707816Y-137765051D01*
X145729789Y-137749086D01*
X145879786Y-137640109D01*
X145879788Y-137640106D01*
X145879792Y-137640104D01*
X146030104Y-137489792D01*
X146030106Y-137489788D01*
X146030109Y-137489786D01*
X146155048Y-137317820D01*
X146155047Y-137317820D01*
X146155051Y-137317816D01*
X146251557Y-137128412D01*
X146317246Y-136926243D01*
X146350500Y-136716287D01*
X146350500Y-136513713D01*
X154659500Y-136513713D01*
X154659500Y-136726286D01*
X154691169Y-136926239D01*
X154692754Y-136936243D01*
X154755194Y-137128414D01*
X154758444Y-137138414D01*
X154854951Y-137327820D01*
X154979890Y-137499786D01*
X155130213Y-137650109D01*
X155302179Y-137775048D01*
X155302181Y-137775049D01*
X155302184Y-137775051D01*
X155491588Y-137871557D01*
X155693757Y-137937246D01*
X155903713Y-137970500D01*
X155903714Y-137970500D01*
X156116286Y-137970500D01*
X156116287Y-137970500D01*
X156326243Y-137937246D01*
X156528412Y-137871557D01*
X156717816Y-137775051D01*
X156739789Y-137759086D01*
X156889786Y-137650109D01*
X156889788Y-137650106D01*
X156889792Y-137650104D01*
X157040104Y-137499792D01*
X157040106Y-137499788D01*
X157040109Y-137499786D01*
X157165048Y-137327820D01*
X157165047Y-137327820D01*
X157165051Y-137327816D01*
X157261557Y-137138412D01*
X157327246Y-136936243D01*
X157360500Y-136726287D01*
X157360500Y-136513713D01*
X157327246Y-136303757D01*
X157261557Y-136101588D01*
X157165051Y-135912184D01*
X157165049Y-135912181D01*
X157165048Y-135912179D01*
X157040109Y-135740213D01*
X156889786Y-135589890D01*
X156717820Y-135464951D01*
X156528414Y-135368444D01*
X156528413Y-135368443D01*
X156528412Y-135368443D01*
X156326243Y-135302754D01*
X156326241Y-135302753D01*
X156326240Y-135302753D01*
X156164957Y-135277208D01*
X156116287Y-135269500D01*
X155903713Y-135269500D01*
X155855042Y-135277208D01*
X155693760Y-135302753D01*
X155491585Y-135368444D01*
X155302179Y-135464951D01*
X155130213Y-135589890D01*
X154979890Y-135740213D01*
X154854951Y-135912179D01*
X154758444Y-136101585D01*
X154692753Y-136303760D01*
X154659500Y-136513713D01*
X146350500Y-136513713D01*
X146350500Y-136503713D01*
X146317246Y-136293757D01*
X146251557Y-136091588D01*
X146155051Y-135902184D01*
X146155049Y-135902181D01*
X146155048Y-135902179D01*
X146030109Y-135730213D01*
X145879786Y-135579890D01*
X145707820Y-135454951D01*
X145518414Y-135358444D01*
X145518413Y-135358443D01*
X145518412Y-135358443D01*
X145316243Y-135292754D01*
X145316241Y-135292753D01*
X145316240Y-135292753D01*
X145150527Y-135266507D01*
X145106287Y-135259500D01*
X144893713Y-135259500D01*
X144849473Y-135266507D01*
X144683760Y-135292753D01*
X144481585Y-135358444D01*
X144292179Y-135454951D01*
X144120213Y-135579890D01*
X143969890Y-135730213D01*
X143844951Y-135902179D01*
X143748444Y-136091585D01*
X143682753Y-136293760D01*
X143649500Y-136503713D01*
X130055943Y-136503713D01*
X130144114Y-136415542D01*
X130220775Y-136300811D01*
X130273580Y-136173328D01*
X130293516Y-136073105D01*
X130294723Y-136067037D01*
X130327108Y-136005126D01*
X130387823Y-135970552D01*
X130449679Y-135972485D01*
X130449698Y-135972392D01*
X130450260Y-135972503D01*
X130452342Y-135972569D01*
X130455665Y-135973577D01*
X130455672Y-135973580D01*
X130455678Y-135973581D01*
X130455681Y-135973582D01*
X130591004Y-136000500D01*
X130591007Y-136000500D01*
X130728995Y-136000500D01*
X130820041Y-135982389D01*
X130864328Y-135973580D01*
X130991811Y-135920775D01*
X131106542Y-135844114D01*
X131204114Y-135746542D01*
X131280775Y-135631811D01*
X131333580Y-135504328D01*
X131349382Y-135424886D01*
X131360500Y-135368995D01*
X131360500Y-135231004D01*
X131333581Y-135095677D01*
X131333580Y-135095676D01*
X131333580Y-135095672D01*
X131294290Y-135000817D01*
X131280778Y-134968195D01*
X131280771Y-134968182D01*
X131204114Y-134853458D01*
X131204111Y-134853454D01*
X131106545Y-134755888D01*
X131106541Y-134755885D01*
X130991817Y-134679228D01*
X130991804Y-134679221D01*
X130864332Y-134626421D01*
X130864322Y-134626418D01*
X130728995Y-134599500D01*
X130728993Y-134599500D01*
X130591007Y-134599500D01*
X130500411Y-134617520D01*
X130430820Y-134611291D01*
X130375643Y-134568428D01*
X130354604Y-134520095D01*
X130343580Y-134464672D01*
X130291620Y-134339228D01*
X130290778Y-134337195D01*
X130290771Y-134337182D01*
X130214114Y-134222458D01*
X130214111Y-134222454D01*
X130116545Y-134124888D01*
X130116541Y-134124885D01*
X130001817Y-134048228D01*
X130001804Y-134048221D01*
X129874332Y-133995421D01*
X129874322Y-133995418D01*
X129738995Y-133968500D01*
X129738993Y-133968500D01*
X129601007Y-133968500D01*
X129601005Y-133968500D01*
X129465677Y-133995418D01*
X129465667Y-133995421D01*
X129338195Y-134048221D01*
X129338182Y-134048228D01*
X129223458Y-134124885D01*
X129223454Y-134124888D01*
X129125888Y-134222454D01*
X129125885Y-134222458D01*
X129049228Y-134337182D01*
X129049221Y-134337195D01*
X128996421Y-134464667D01*
X128996418Y-134464677D01*
X128969500Y-134600004D01*
X128969500Y-134600007D01*
X128969500Y-134737993D01*
X128969500Y-134737995D01*
X128969499Y-134737995D01*
X128996418Y-134873322D01*
X128996421Y-134873332D01*
X129049221Y-135000804D01*
X129049228Y-135000817D01*
X129125885Y-135115541D01*
X129125888Y-135115545D01*
X129215527Y-135205184D01*
X129249012Y-135266507D01*
X129244028Y-135336199D01*
X129202156Y-135392132D01*
X129196738Y-135395967D01*
X129153454Y-135424888D01*
X129055888Y-135522454D01*
X129055885Y-135522458D01*
X128979228Y-135637182D01*
X128979221Y-135637195D01*
X128926421Y-135764667D01*
X128926418Y-135764677D01*
X128899500Y-135900004D01*
X128899500Y-135900007D01*
X128899500Y-136037993D01*
X128899500Y-136037995D01*
X128899499Y-136037995D01*
X124343035Y-136037995D01*
X124327572Y-136019495D01*
X124318862Y-135950171D01*
X124349013Y-135887142D01*
X124356279Y-135879704D01*
X124363789Y-135872634D01*
X124376542Y-135864114D01*
X124474114Y-135766542D01*
X124550775Y-135651811D01*
X124603580Y-135524328D01*
X124617380Y-135454951D01*
X124630500Y-135388995D01*
X124630500Y-135251004D01*
X124603581Y-135115677D01*
X124603580Y-135115676D01*
X124603580Y-135115672D01*
X124595294Y-135095667D01*
X124550778Y-134988195D01*
X124550771Y-134988182D01*
X124474114Y-134873458D01*
X124474111Y-134873454D01*
X124376545Y-134775888D01*
X124376541Y-134775885D01*
X124261817Y-134699228D01*
X124261804Y-134699221D01*
X124134332Y-134646421D01*
X124134322Y-134646418D01*
X123998995Y-134619500D01*
X123998993Y-134619500D01*
X123861007Y-134619500D01*
X123861005Y-134619500D01*
X123725677Y-134646418D01*
X123725667Y-134646421D01*
X123598195Y-134699221D01*
X123598182Y-134699228D01*
X123483458Y-134775885D01*
X123483454Y-134775888D01*
X123385888Y-134873454D01*
X123385885Y-134873458D01*
X123309228Y-134988182D01*
X123309221Y-134988195D01*
X123256421Y-135115667D01*
X123256418Y-135115677D01*
X123229500Y-135251004D01*
X123229500Y-135251007D01*
X123229500Y-135388993D01*
X123229500Y-135388995D01*
X123229499Y-135388995D01*
X118755839Y-135388995D01*
X118820775Y-135291811D01*
X118830017Y-135269500D01*
X118859855Y-135197463D01*
X118859855Y-135197462D01*
X118873580Y-135164328D01*
X118900500Y-135028993D01*
X118900500Y-134891007D01*
X118900500Y-134891004D01*
X118873581Y-134755677D01*
X118873580Y-134755676D01*
X118873580Y-134755672D01*
X118850199Y-134699225D01*
X118820778Y-134628195D01*
X118820771Y-134628182D01*
X118744114Y-134513458D01*
X118744111Y-134513454D01*
X118646545Y-134415888D01*
X118646541Y-134415885D01*
X118531817Y-134339228D01*
X118531804Y-134339221D01*
X118404332Y-134286421D01*
X118404322Y-134286418D01*
X118268995Y-134259500D01*
X118268993Y-134259500D01*
X118131007Y-134259500D01*
X118131005Y-134259500D01*
X117995677Y-134286418D01*
X117995667Y-134286421D01*
X117868195Y-134339221D01*
X117868182Y-134339228D01*
X117753458Y-134415885D01*
X117753454Y-134415888D01*
X117655888Y-134513454D01*
X117655885Y-134513458D01*
X117579228Y-134628182D01*
X117579221Y-134628195D01*
X117526421Y-134755667D01*
X117526418Y-134755677D01*
X117499500Y-134891004D01*
X117499500Y-134891007D01*
X117499500Y-135028993D01*
X117499500Y-135028995D01*
X117499499Y-135028995D01*
X102500500Y-135028995D01*
X102500500Y-103856577D01*
X111709500Y-103856577D01*
X111709500Y-104053422D01*
X111740290Y-104247826D01*
X111801117Y-104435029D01*
X111874061Y-104578189D01*
X111890476Y-104610405D01*
X112006172Y-104769646D01*
X112145354Y-104908828D01*
X112304595Y-105024524D01*
X112381098Y-105063504D01*
X112481213Y-105114515D01*
X112532009Y-105162489D01*
X112548804Y-105230310D01*
X112526267Y-105296445D01*
X112481213Y-105335485D01*
X112304594Y-105425476D01*
X112213741Y-105491485D01*
X112145354Y-105541172D01*
X112145352Y-105541174D01*
X112145351Y-105541174D01*
X112006174Y-105680351D01*
X112006174Y-105680352D01*
X112006172Y-105680354D01*
X111969370Y-105731007D01*
X111890476Y-105839594D01*
X111801117Y-106014970D01*
X111740290Y-106202173D01*
X111709500Y-106396577D01*
X111709500Y-106593422D01*
X111740290Y-106787826D01*
X111801117Y-106975029D01*
X111890475Y-107150403D01*
X111890476Y-107150405D01*
X112006172Y-107309646D01*
X112145354Y-107448828D01*
X112304595Y-107564524D01*
X112427992Y-107627397D01*
X112481213Y-107654515D01*
X112532009Y-107702489D01*
X112548804Y-107770310D01*
X112526267Y-107836445D01*
X112481213Y-107875485D01*
X112304594Y-107965476D01*
X112213741Y-108031485D01*
X112145354Y-108081172D01*
X112145352Y-108081174D01*
X112145351Y-108081174D01*
X112006174Y-108220351D01*
X112006174Y-108220352D01*
X112006172Y-108220354D01*
X111956485Y-108288741D01*
X111890476Y-108379594D01*
X111801117Y-108554970D01*
X111740290Y-108742173D01*
X111709500Y-108936577D01*
X111709500Y-109133422D01*
X111740290Y-109327826D01*
X111801117Y-109515029D01*
X111882281Y-109674322D01*
X111890476Y-109690405D01*
X112006172Y-109849646D01*
X112145354Y-109988828D01*
X112304595Y-110104524D01*
X112427992Y-110167397D01*
X112481213Y-110194515D01*
X112532009Y-110242489D01*
X112548804Y-110310310D01*
X112526267Y-110376445D01*
X112481213Y-110415485D01*
X112304594Y-110505476D01*
X112213741Y-110571485D01*
X112145354Y-110621172D01*
X112145352Y-110621174D01*
X112145351Y-110621174D01*
X112006174Y-110760351D01*
X112006174Y-110760352D01*
X112006172Y-110760354D01*
X111956485Y-110828741D01*
X111890476Y-110919594D01*
X111801117Y-111094970D01*
X111740290Y-111282173D01*
X111709500Y-111476577D01*
X111709500Y-111673422D01*
X111740290Y-111867826D01*
X111801117Y-112055029D01*
X111877186Y-112204322D01*
X111890476Y-112230405D01*
X112006172Y-112389646D01*
X112145354Y-112528828D01*
X112304595Y-112644524D01*
X112361621Y-112673580D01*
X112481213Y-112734515D01*
X112532009Y-112782489D01*
X112548804Y-112850310D01*
X112526267Y-112916445D01*
X112481213Y-112955485D01*
X112304594Y-113045476D01*
X112213741Y-113111485D01*
X112145354Y-113161172D01*
X112145352Y-113161174D01*
X112145351Y-113161174D01*
X112006174Y-113300351D01*
X112006174Y-113300352D01*
X112006172Y-113300354D01*
X111956485Y-113368741D01*
X111890476Y-113459594D01*
X111801117Y-113634970D01*
X111740290Y-113822173D01*
X111709500Y-114016577D01*
X111709500Y-114213422D01*
X111740290Y-114407826D01*
X111801117Y-114595029D01*
X111890475Y-114770403D01*
X111890476Y-114770405D01*
X112006172Y-114929646D01*
X112145354Y-115068828D01*
X112304595Y-115184524D01*
X112427992Y-115247397D01*
X112481213Y-115274515D01*
X112532009Y-115322489D01*
X112548804Y-115390310D01*
X112526267Y-115456445D01*
X112481213Y-115495485D01*
X112304594Y-115585476D01*
X112213741Y-115651485D01*
X112145354Y-115701172D01*
X112145352Y-115701174D01*
X112145351Y-115701174D01*
X112006174Y-115840351D01*
X112006174Y-115840352D01*
X112006172Y-115840354D01*
X111956485Y-115908741D01*
X111890476Y-115999594D01*
X111801117Y-116174970D01*
X111740290Y-116362173D01*
X111709500Y-116556577D01*
X111709500Y-116753422D01*
X111740290Y-116947826D01*
X111801117Y-117135029D01*
X111890475Y-117310403D01*
X111890476Y-117310405D01*
X112006172Y-117469646D01*
X112145354Y-117608828D01*
X112304595Y-117724524D01*
X112412492Y-117779500D01*
X112481213Y-117814515D01*
X112532009Y-117862489D01*
X112548804Y-117930310D01*
X112526267Y-117996445D01*
X112481213Y-118035485D01*
X112304594Y-118125476D01*
X112259561Y-118158195D01*
X112145354Y-118241172D01*
X112145352Y-118241174D01*
X112145351Y-118241174D01*
X112006174Y-118380351D01*
X112006174Y-118380352D01*
X112006172Y-118380354D01*
X111976638Y-118421004D01*
X111890476Y-118539594D01*
X111801117Y-118714970D01*
X111740290Y-118902173D01*
X111709500Y-119096577D01*
X111709500Y-119293422D01*
X111740290Y-119487826D01*
X111801117Y-119675029D01*
X111886999Y-119843581D01*
X111890476Y-119850405D01*
X112006172Y-120009646D01*
X112145354Y-120148828D01*
X112304595Y-120264524D01*
X112427992Y-120327397D01*
X112481213Y-120354515D01*
X112532009Y-120402489D01*
X112548804Y-120470310D01*
X112526267Y-120536445D01*
X112481213Y-120575485D01*
X112304594Y-120665476D01*
X112266081Y-120693458D01*
X112145354Y-120781172D01*
X112145352Y-120781174D01*
X112145351Y-120781174D01*
X112006174Y-120920351D01*
X112006174Y-120920352D01*
X112006172Y-120920354D01*
X111956485Y-120988741D01*
X111890476Y-121079594D01*
X111801117Y-121254970D01*
X111740290Y-121442173D01*
X111709500Y-121636577D01*
X111709500Y-121833422D01*
X111740290Y-122027826D01*
X111801117Y-122215029D01*
X111872091Y-122354322D01*
X111890476Y-122390405D01*
X112006172Y-122549646D01*
X112145354Y-122688828D01*
X112304595Y-122804524D01*
X112341991Y-122823578D01*
X112481213Y-122894515D01*
X112532009Y-122942489D01*
X112548804Y-123010310D01*
X112526267Y-123076445D01*
X112481213Y-123115485D01*
X112304594Y-123205476D01*
X112213741Y-123271485D01*
X112145354Y-123321172D01*
X112145352Y-123321174D01*
X112145351Y-123321174D01*
X112006174Y-123460351D01*
X112006174Y-123460352D01*
X112006172Y-123460354D01*
X111956485Y-123528741D01*
X111890476Y-123619594D01*
X111801117Y-123794970D01*
X111740290Y-123982173D01*
X111709500Y-124176577D01*
X111709500Y-124373422D01*
X111740290Y-124567826D01*
X111801117Y-124755029D01*
X111890475Y-124930403D01*
X111890476Y-124930405D01*
X112006172Y-125089646D01*
X112145354Y-125228828D01*
X112304595Y-125344524D01*
X112420496Y-125403578D01*
X112481213Y-125434515D01*
X112532009Y-125482489D01*
X112548804Y-125550310D01*
X112526267Y-125616445D01*
X112481213Y-125655485D01*
X112304594Y-125745476D01*
X112213741Y-125811485D01*
X112145354Y-125861172D01*
X112145352Y-125861174D01*
X112145351Y-125861174D01*
X112006174Y-126000351D01*
X112006174Y-126000352D01*
X112006172Y-126000354D01*
X111956485Y-126068741D01*
X111890476Y-126159594D01*
X111801117Y-126334970D01*
X111740290Y-126522173D01*
X111709500Y-126716577D01*
X111709500Y-126913422D01*
X111740290Y-127107826D01*
X111801117Y-127295029D01*
X111890475Y-127470403D01*
X111890476Y-127470405D01*
X112006172Y-127629646D01*
X112145354Y-127768828D01*
X112304595Y-127884524D01*
X112420496Y-127943578D01*
X112481213Y-127974515D01*
X112532009Y-128022489D01*
X112548804Y-128090310D01*
X112526267Y-128156445D01*
X112481213Y-128195485D01*
X112304594Y-128285476D01*
X112213741Y-128351485D01*
X112145354Y-128401172D01*
X112145352Y-128401174D01*
X112145351Y-128401174D01*
X112006174Y-128540351D01*
X112006174Y-128540352D01*
X112006172Y-128540354D01*
X111956485Y-128608741D01*
X111890476Y-128699594D01*
X111801117Y-128874970D01*
X111740290Y-129062173D01*
X111709500Y-129256577D01*
X111709500Y-129453422D01*
X111740290Y-129647826D01*
X111801117Y-129835029D01*
X111818423Y-129868993D01*
X111890476Y-130010405D01*
X112006172Y-130169646D01*
X112145354Y-130308828D01*
X112304595Y-130424524D01*
X112427992Y-130487397D01*
X112481213Y-130514515D01*
X112532009Y-130562489D01*
X112548804Y-130630310D01*
X112526267Y-130696445D01*
X112481213Y-130735485D01*
X112304594Y-130825476D01*
X112213741Y-130891485D01*
X112145354Y-130941172D01*
X112145352Y-130941174D01*
X112145351Y-130941174D01*
X112006174Y-131080351D01*
X112006174Y-131080352D01*
X112006172Y-131080354D01*
X111956485Y-131148741D01*
X111890476Y-131239594D01*
X111801117Y-131414970D01*
X111740290Y-131602173D01*
X111709500Y-131796577D01*
X111709500Y-131993422D01*
X111740290Y-132187826D01*
X111801117Y-132375029D01*
X111856805Y-132484322D01*
X111890476Y-132550405D01*
X112006172Y-132709646D01*
X112145354Y-132848828D01*
X112304595Y-132964524D01*
X112335950Y-132980500D01*
X112479970Y-133053882D01*
X112479972Y-133053882D01*
X112479975Y-133053884D01*
X112580317Y-133086487D01*
X112667173Y-133114709D01*
X112861578Y-133145500D01*
X112861583Y-133145500D01*
X113058422Y-133145500D01*
X113252826Y-133114709D01*
X113254017Y-133114322D01*
X113440025Y-133053884D01*
X113615405Y-132964524D01*
X113774646Y-132848828D01*
X113913828Y-132709646D01*
X114029524Y-132550405D01*
X114063195Y-132484322D01*
X114119515Y-132373787D01*
X114167489Y-132322990D01*
X114235310Y-132306195D01*
X114301445Y-132328732D01*
X114340485Y-132373787D01*
X114430474Y-132550403D01*
X114465234Y-132598246D01*
X114546172Y-132709646D01*
X114685354Y-132848828D01*
X114844595Y-132964524D01*
X114875950Y-132980500D01*
X115019970Y-133053882D01*
X115019972Y-133053882D01*
X115019975Y-133053884D01*
X115120317Y-133086487D01*
X115207173Y-133114709D01*
X115401578Y-133145500D01*
X115401583Y-133145500D01*
X115598422Y-133145500D01*
X115792826Y-133114709D01*
X115794017Y-133114322D01*
X115980025Y-133053884D01*
X116155405Y-132964524D01*
X116314646Y-132848828D01*
X116453828Y-132709646D01*
X116569524Y-132550405D01*
X116658884Y-132375025D01*
X116667342Y-132348995D01*
X119159499Y-132348995D01*
X119186418Y-132484322D01*
X119186421Y-132484332D01*
X119239221Y-132611804D01*
X119239228Y-132611817D01*
X119315885Y-132726541D01*
X119315888Y-132726545D01*
X119413454Y-132824111D01*
X119413458Y-132824114D01*
X119528182Y-132900771D01*
X119528195Y-132900778D01*
X119655667Y-132953578D01*
X119655672Y-132953580D01*
X119655676Y-132953580D01*
X119655677Y-132953581D01*
X119791004Y-132980500D01*
X119791007Y-132980500D01*
X119928995Y-132980500D01*
X119936561Y-132978995D01*
X156829499Y-132978995D01*
X156856418Y-133114322D01*
X156856421Y-133114332D01*
X156909221Y-133241804D01*
X156909228Y-133241817D01*
X156985885Y-133356541D01*
X156985888Y-133356545D01*
X157083454Y-133454111D01*
X157083458Y-133454114D01*
X157198182Y-133530771D01*
X157198195Y-133530778D01*
X157325667Y-133583578D01*
X157325672Y-133583580D01*
X157325676Y-133583580D01*
X157325677Y-133583581D01*
X157461004Y-133610500D01*
X157461007Y-133610500D01*
X157598995Y-133610500D01*
X157690041Y-133592389D01*
X157734328Y-133583580D01*
X157861811Y-133530775D01*
X157976542Y-133454114D01*
X158074114Y-133356542D01*
X158150775Y-133241811D01*
X158203580Y-133114328D01*
X158215604Y-133053882D01*
X158230500Y-132978995D01*
X158230500Y-132841004D01*
X158203581Y-132705677D01*
X158203580Y-132705676D01*
X158203580Y-132705672D01*
X158203578Y-132705667D01*
X158150778Y-132578195D01*
X158150771Y-132578182D01*
X158074114Y-132463458D01*
X158074111Y-132463454D01*
X157976545Y-132365888D01*
X157976541Y-132365885D01*
X157861817Y-132289228D01*
X157861804Y-132289221D01*
X157734332Y-132236421D01*
X157734322Y-132236418D01*
X157598995Y-132209500D01*
X157598993Y-132209500D01*
X157461007Y-132209500D01*
X157461005Y-132209500D01*
X157325677Y-132236418D01*
X157325667Y-132236421D01*
X157198195Y-132289221D01*
X157198182Y-132289228D01*
X157083458Y-132365885D01*
X157083454Y-132365888D01*
X156985888Y-132463454D01*
X156985885Y-132463458D01*
X156909228Y-132578182D01*
X156909221Y-132578195D01*
X156856421Y-132705667D01*
X156856418Y-132705677D01*
X156829500Y-132841004D01*
X156829500Y-132841007D01*
X156829500Y-132978993D01*
X156829500Y-132978995D01*
X156829499Y-132978995D01*
X119936561Y-132978995D01*
X120020041Y-132962389D01*
X120064328Y-132953580D01*
X120191811Y-132900775D01*
X120306542Y-132824114D01*
X120306545Y-132824111D01*
X120383423Y-132747234D01*
X120404111Y-132726545D01*
X120404114Y-132726542D01*
X120480775Y-132611811D01*
X120533580Y-132484328D01*
X120555568Y-132373787D01*
X120560500Y-132348995D01*
X120560500Y-132211004D01*
X120533581Y-132075677D01*
X120533580Y-132075676D01*
X120533580Y-132075672D01*
X120499509Y-131993417D01*
X120480778Y-131948195D01*
X120480771Y-131948182D01*
X120404114Y-131833458D01*
X120404111Y-131833454D01*
X120306545Y-131735888D01*
X120306541Y-131735885D01*
X120191817Y-131659228D01*
X120191804Y-131659221D01*
X120064332Y-131606421D01*
X120064322Y-131606418D01*
X119928995Y-131579500D01*
X119928993Y-131579500D01*
X119791007Y-131579500D01*
X119791005Y-131579500D01*
X119655677Y-131606418D01*
X119655667Y-131606421D01*
X119528195Y-131659221D01*
X119528182Y-131659228D01*
X119413458Y-131735885D01*
X119413454Y-131735888D01*
X119315888Y-131833454D01*
X119315885Y-131833458D01*
X119239228Y-131948182D01*
X119239221Y-131948195D01*
X119186421Y-132075667D01*
X119186418Y-132075677D01*
X119159500Y-132211004D01*
X119159500Y-132211007D01*
X119159500Y-132348993D01*
X119159500Y-132348995D01*
X119159499Y-132348995D01*
X116667342Y-132348995D01*
X116719709Y-132187826D01*
X116729193Y-132127941D01*
X116750500Y-131993422D01*
X116750500Y-131796577D01*
X116719709Y-131602173D01*
X116658882Y-131414970D01*
X116569523Y-131239594D01*
X116453828Y-131080354D01*
X116314646Y-130941172D01*
X116235025Y-130883324D01*
X116155403Y-130825474D01*
X115978787Y-130735485D01*
X115927990Y-130687511D01*
X115911195Y-130619690D01*
X115933732Y-130553555D01*
X115978787Y-130514515D01*
X116155403Y-130424525D01*
X116155402Y-130424525D01*
X116155405Y-130424524D01*
X116314646Y-130308828D01*
X116453828Y-130169646D01*
X116569524Y-130010405D01*
X116641576Y-129868995D01*
X156839499Y-129868995D01*
X156866418Y-130004322D01*
X156866421Y-130004332D01*
X156919221Y-130131804D01*
X156919228Y-130131817D01*
X156995885Y-130246541D01*
X156995888Y-130246545D01*
X157093454Y-130344111D01*
X157093458Y-130344114D01*
X157208182Y-130420771D01*
X157208195Y-130420778D01*
X157335667Y-130473578D01*
X157335672Y-130473580D01*
X157335676Y-130473580D01*
X157335677Y-130473581D01*
X157471004Y-130500500D01*
X157471007Y-130500500D01*
X157608995Y-130500500D01*
X157700041Y-130482389D01*
X157744328Y-130473580D01*
X157862760Y-130424524D01*
X157871804Y-130420778D01*
X157871804Y-130420777D01*
X157871811Y-130420775D01*
X157986542Y-130344114D01*
X158084114Y-130246542D01*
X158160775Y-130131811D01*
X158213580Y-130004328D01*
X158240500Y-129868993D01*
X158240500Y-129731007D01*
X158240500Y-129731004D01*
X158213581Y-129595677D01*
X158213580Y-129595676D01*
X158213580Y-129595672D01*
X158213578Y-129595667D01*
X158160778Y-129468195D01*
X158160771Y-129468182D01*
X158084114Y-129353458D01*
X158084111Y-129353454D01*
X157986545Y-129255888D01*
X157986541Y-129255885D01*
X157871817Y-129179228D01*
X157871804Y-129179221D01*
X157744332Y-129126421D01*
X157744322Y-129126418D01*
X157608995Y-129099500D01*
X157608993Y-129099500D01*
X157471007Y-129099500D01*
X157471005Y-129099500D01*
X157335677Y-129126418D01*
X157335667Y-129126421D01*
X157208195Y-129179221D01*
X157208182Y-129179228D01*
X157093458Y-129255885D01*
X157093454Y-129255888D01*
X156995888Y-129353454D01*
X156995885Y-129353458D01*
X156919228Y-129468182D01*
X156919221Y-129468195D01*
X156866421Y-129595667D01*
X156866418Y-129595677D01*
X156839500Y-129731004D01*
X156839500Y-129731007D01*
X156839500Y-129868993D01*
X156839500Y-129868995D01*
X156839499Y-129868995D01*
X116641576Y-129868995D01*
X116658884Y-129835025D01*
X116719709Y-129647826D01*
X116750500Y-129453422D01*
X116750500Y-129256577D01*
X116719709Y-129062173D01*
X116658882Y-128874970D01*
X116569523Y-128699594D01*
X116453828Y-128540354D01*
X116314646Y-128401172D01*
X116235025Y-128343324D01*
X116155403Y-128285474D01*
X115978787Y-128195485D01*
X115927990Y-128147511D01*
X115911195Y-128079690D01*
X115933732Y-128013555D01*
X115978787Y-127974515D01*
X116155403Y-127884525D01*
X116155402Y-127884525D01*
X116155405Y-127884524D01*
X116314646Y-127768828D01*
X116453828Y-127629646D01*
X116569524Y-127470405D01*
X116636480Y-127338995D01*
X156809499Y-127338995D01*
X156836418Y-127474322D01*
X156836421Y-127474332D01*
X156889221Y-127601804D01*
X156889228Y-127601817D01*
X156965885Y-127716541D01*
X156965888Y-127716545D01*
X157063454Y-127814111D01*
X157063458Y-127814114D01*
X157178182Y-127890771D01*
X157178195Y-127890778D01*
X157305667Y-127943578D01*
X157305672Y-127943580D01*
X157305676Y-127943580D01*
X157305677Y-127943581D01*
X157441004Y-127970500D01*
X157441007Y-127970500D01*
X157578995Y-127970500D01*
X157670041Y-127952389D01*
X157714328Y-127943580D01*
X157841811Y-127890775D01*
X157956542Y-127814114D01*
X158054114Y-127716542D01*
X158130775Y-127601811D01*
X158183580Y-127474328D01*
X158210500Y-127338993D01*
X158210500Y-127201007D01*
X158210500Y-127201004D01*
X158183581Y-127065677D01*
X158183580Y-127065676D01*
X158183580Y-127065672D01*
X158183578Y-127065667D01*
X158130778Y-126938195D01*
X158130771Y-126938182D01*
X158054114Y-126823458D01*
X158054111Y-126823454D01*
X157956545Y-126725888D01*
X157956541Y-126725885D01*
X157841817Y-126649228D01*
X157841804Y-126649221D01*
X157714332Y-126596421D01*
X157714322Y-126596418D01*
X157578995Y-126569500D01*
X157578993Y-126569500D01*
X157441007Y-126569500D01*
X157441005Y-126569500D01*
X157305677Y-126596418D01*
X157305667Y-126596421D01*
X157178195Y-126649221D01*
X157178182Y-126649228D01*
X157063458Y-126725885D01*
X157063454Y-126725888D01*
X156965888Y-126823454D01*
X156965885Y-126823458D01*
X156889228Y-126938182D01*
X156889221Y-126938195D01*
X156836421Y-127065667D01*
X156836418Y-127065677D01*
X156809500Y-127201004D01*
X156809500Y-127201007D01*
X156809500Y-127338993D01*
X156809500Y-127338995D01*
X156809499Y-127338995D01*
X116636480Y-127338995D01*
X116658884Y-127295025D01*
X116686830Y-127209015D01*
X116703863Y-127156596D01*
X116703863Y-127156595D01*
X116719708Y-127107830D01*
X116719708Y-127107829D01*
X116719709Y-127107826D01*
X116746578Y-126938182D01*
X116750500Y-126913422D01*
X116750500Y-126716577D01*
X116719709Y-126522173D01*
X116658882Y-126334970D01*
X116569523Y-126159594D01*
X116453828Y-126000354D01*
X116314646Y-125861172D01*
X116235025Y-125803324D01*
X116155403Y-125745474D01*
X115978787Y-125655485D01*
X115927990Y-125607511D01*
X115911195Y-125539690D01*
X115933732Y-125473555D01*
X115978787Y-125434515D01*
X116155403Y-125344525D01*
X116155402Y-125344525D01*
X116155405Y-125344524D01*
X116314646Y-125228828D01*
X116453828Y-125089646D01*
X116569524Y-124930405D01*
X116636480Y-124798995D01*
X156819499Y-124798995D01*
X156846418Y-124934322D01*
X156846421Y-124934332D01*
X156899221Y-125061804D01*
X156899228Y-125061817D01*
X156975885Y-125176541D01*
X156975888Y-125176545D01*
X157073454Y-125274111D01*
X157073458Y-125274114D01*
X157188182Y-125350771D01*
X157188195Y-125350778D01*
X157315667Y-125403578D01*
X157315672Y-125403580D01*
X157315676Y-125403580D01*
X157315677Y-125403581D01*
X157451004Y-125430500D01*
X157451007Y-125430500D01*
X157588995Y-125430500D01*
X157680041Y-125412389D01*
X157724328Y-125403580D01*
X157851811Y-125350775D01*
X157966542Y-125274114D01*
X158064114Y-125176542D01*
X158140775Y-125061811D01*
X158193580Y-124934328D01*
X158220500Y-124798993D01*
X158220500Y-124661007D01*
X158220500Y-124661004D01*
X158193581Y-124525677D01*
X158193580Y-124525676D01*
X158193580Y-124525672D01*
X158193578Y-124525667D01*
X158140778Y-124398195D01*
X158140771Y-124398182D01*
X158064114Y-124283458D01*
X158064111Y-124283454D01*
X157966545Y-124185888D01*
X157966541Y-124185885D01*
X157851817Y-124109228D01*
X157851804Y-124109221D01*
X157724332Y-124056421D01*
X157724322Y-124056418D01*
X157588995Y-124029500D01*
X157588993Y-124029500D01*
X157451007Y-124029500D01*
X157451005Y-124029500D01*
X157315677Y-124056418D01*
X157315667Y-124056421D01*
X157188195Y-124109221D01*
X157188182Y-124109228D01*
X157073458Y-124185885D01*
X157073454Y-124185888D01*
X156975888Y-124283454D01*
X156975885Y-124283458D01*
X156899228Y-124398182D01*
X156899221Y-124398195D01*
X156846421Y-124525667D01*
X156846418Y-124525677D01*
X156819500Y-124661004D01*
X156819500Y-124661007D01*
X156819500Y-124798993D01*
X156819500Y-124798995D01*
X156819499Y-124798995D01*
X116636480Y-124798995D01*
X116658884Y-124755025D01*
X116686830Y-124669015D01*
X116703863Y-124616596D01*
X116703863Y-124616595D01*
X116719708Y-124567830D01*
X116719708Y-124567829D01*
X116719709Y-124567826D01*
X116746578Y-124398182D01*
X116750500Y-124373422D01*
X116750500Y-124176577D01*
X116719709Y-123982173D01*
X116658882Y-123794970D01*
X116569523Y-123619594D01*
X116453828Y-123460354D01*
X116314646Y-123321172D01*
X116235025Y-123263324D01*
X116155403Y-123205474D01*
X115978787Y-123115485D01*
X115927990Y-123067511D01*
X115911195Y-122999690D01*
X115933732Y-122933555D01*
X115978787Y-122894515D01*
X116155403Y-122804525D01*
X116155402Y-122804525D01*
X116155405Y-122804524D01*
X116314646Y-122688828D01*
X116453828Y-122549646D01*
X116569524Y-122390405D01*
X116656861Y-122218995D01*
X156829499Y-122218995D01*
X156856418Y-122354322D01*
X156856421Y-122354332D01*
X156909221Y-122481804D01*
X156909228Y-122481817D01*
X156985885Y-122596541D01*
X156985888Y-122596545D01*
X157083454Y-122694111D01*
X157083458Y-122694114D01*
X157198182Y-122770771D01*
X157198195Y-122770778D01*
X157325667Y-122823578D01*
X157325672Y-122823580D01*
X157325676Y-122823580D01*
X157325677Y-122823581D01*
X157461004Y-122850500D01*
X157461007Y-122850500D01*
X157598995Y-122850500D01*
X157690041Y-122832389D01*
X157734328Y-122823580D01*
X157861811Y-122770775D01*
X157976542Y-122694114D01*
X158074114Y-122596542D01*
X158150775Y-122481811D01*
X158203580Y-122354328D01*
X158230500Y-122218993D01*
X158230500Y-122081007D01*
X158230500Y-122081004D01*
X158203581Y-121945677D01*
X158203580Y-121945676D01*
X158203580Y-121945672D01*
X158203578Y-121945667D01*
X158150778Y-121818195D01*
X158150771Y-121818182D01*
X158074114Y-121703458D01*
X158074111Y-121703454D01*
X157976545Y-121605888D01*
X157976541Y-121605885D01*
X157861817Y-121529228D01*
X157861804Y-121529221D01*
X157734332Y-121476421D01*
X157734322Y-121476418D01*
X157598995Y-121449500D01*
X157598993Y-121449500D01*
X157461007Y-121449500D01*
X157461005Y-121449500D01*
X157325677Y-121476418D01*
X157325667Y-121476421D01*
X157198195Y-121529221D01*
X157198182Y-121529228D01*
X157083458Y-121605885D01*
X157083454Y-121605888D01*
X156985888Y-121703454D01*
X156985885Y-121703458D01*
X156909228Y-121818182D01*
X156909221Y-121818195D01*
X156856421Y-121945667D01*
X156856418Y-121945677D01*
X156829500Y-122081004D01*
X156829500Y-122081007D01*
X156829500Y-122218993D01*
X156829500Y-122218995D01*
X156829499Y-122218995D01*
X116656861Y-122218995D01*
X116658884Y-122215025D01*
X116691034Y-122116075D01*
X116716860Y-122036596D01*
X116718154Y-122032610D01*
X116719709Y-122027826D01*
X116735572Y-121927666D01*
X116750500Y-121833422D01*
X116750500Y-121636577D01*
X116719709Y-121442173D01*
X116658882Y-121254970D01*
X116569523Y-121079594D01*
X116563113Y-121070771D01*
X116453828Y-120920354D01*
X116314646Y-120781172D01*
X116193919Y-120693458D01*
X116155403Y-120665474D01*
X115978787Y-120575485D01*
X115927990Y-120527511D01*
X115925881Y-120518995D01*
X123179499Y-120518995D01*
X123206418Y-120654322D01*
X123206421Y-120654332D01*
X123259221Y-120781804D01*
X123259228Y-120781817D01*
X123335885Y-120896541D01*
X123335888Y-120896545D01*
X123433454Y-120994111D01*
X123433458Y-120994114D01*
X123548182Y-121070771D01*
X123548195Y-121070778D01*
X123675667Y-121123578D01*
X123675672Y-121123580D01*
X123675676Y-121123580D01*
X123675677Y-121123581D01*
X123811004Y-121150500D01*
X123811007Y-121150500D01*
X123948995Y-121150500D01*
X124040041Y-121132389D01*
X124084328Y-121123580D01*
X124211811Y-121070775D01*
X124326542Y-120994114D01*
X124424114Y-120896542D01*
X124500775Y-120781811D01*
X124553580Y-120654328D01*
X124566275Y-120590505D01*
X124580500Y-120518995D01*
X124580500Y-120381004D01*
X124553581Y-120245677D01*
X124553580Y-120245676D01*
X124553580Y-120245672D01*
X124513465Y-120148825D01*
X124500778Y-120118195D01*
X124500771Y-120118182D01*
X124424114Y-120003458D01*
X124424111Y-120003454D01*
X124326545Y-119905888D01*
X124321834Y-119902022D01*
X124322748Y-119900907D01*
X124282568Y-119852825D01*
X124273864Y-119783500D01*
X124304021Y-119720473D01*
X124327378Y-119700236D01*
X124336542Y-119694114D01*
X124434114Y-119596542D01*
X124510775Y-119481811D01*
X124563580Y-119354328D01*
X124581010Y-119266702D01*
X124590500Y-119218995D01*
X124590500Y-119081004D01*
X124563581Y-118945677D01*
X124563580Y-118945676D01*
X124563580Y-118945672D01*
X124563578Y-118945667D01*
X124510778Y-118818195D01*
X124510771Y-118818182D01*
X124434114Y-118703458D01*
X124434111Y-118703454D01*
X124336545Y-118605888D01*
X124336541Y-118605885D01*
X124251400Y-118548995D01*
X129119499Y-118548995D01*
X129146418Y-118684322D01*
X129146421Y-118684332D01*
X129199221Y-118811804D01*
X129199228Y-118811817D01*
X129275885Y-118926541D01*
X129275888Y-118926545D01*
X129373454Y-119024111D01*
X129373462Y-119024117D01*
X129458201Y-119080738D01*
X129503007Y-119134350D01*
X129511714Y-119203675D01*
X129481560Y-119266702D01*
X129458203Y-119286941D01*
X129383460Y-119336883D01*
X129383454Y-119336888D01*
X129285888Y-119434454D01*
X129285885Y-119434458D01*
X129209228Y-119549182D01*
X129209221Y-119549195D01*
X129156421Y-119676667D01*
X129156418Y-119676677D01*
X129129500Y-119812004D01*
X129129500Y-119812007D01*
X129129500Y-119949993D01*
X129129500Y-119949995D01*
X129129499Y-119949995D01*
X129156418Y-120085322D01*
X129156421Y-120085332D01*
X129209221Y-120212804D01*
X129209228Y-120212817D01*
X129285885Y-120327541D01*
X129285888Y-120327545D01*
X129387765Y-120429422D01*
X129386691Y-120430495D01*
X129421815Y-120482058D01*
X129423685Y-120551903D01*
X129391497Y-120607846D01*
X129305885Y-120693458D01*
X129229228Y-120808182D01*
X129229221Y-120808195D01*
X129176421Y-120935667D01*
X129176418Y-120935677D01*
X129149500Y-121071004D01*
X129149500Y-121071007D01*
X129149500Y-121208993D01*
X129149500Y-121208995D01*
X129149499Y-121208995D01*
X129176418Y-121344322D01*
X129176421Y-121344332D01*
X129229221Y-121471804D01*
X129229228Y-121471817D01*
X129305885Y-121586541D01*
X129305888Y-121586545D01*
X129403454Y-121684111D01*
X129403458Y-121684114D01*
X129518182Y-121760771D01*
X129518195Y-121760778D01*
X129645667Y-121813578D01*
X129645672Y-121813580D01*
X129645676Y-121813580D01*
X129645677Y-121813581D01*
X129781004Y-121840500D01*
X129781007Y-121840500D01*
X129918995Y-121840500D01*
X130031192Y-121818182D01*
X130054328Y-121813580D01*
X130181811Y-121760775D01*
X130296542Y-121684114D01*
X130394114Y-121586542D01*
X130470775Y-121471811D01*
X130480017Y-121449500D01*
X130523578Y-121344332D01*
X130523580Y-121344328D01*
X130550500Y-121208993D01*
X130550500Y-121071007D01*
X130550500Y-121071004D01*
X130523581Y-120935677D01*
X130523580Y-120935676D01*
X130523580Y-120935672D01*
X130507372Y-120896542D01*
X130470778Y-120808195D01*
X130470771Y-120808182D01*
X130394114Y-120693458D01*
X130394111Y-120693454D01*
X130292235Y-120591578D01*
X130293307Y-120590505D01*
X130258183Y-120538937D01*
X130256315Y-120469093D01*
X130288501Y-120413154D01*
X130374114Y-120327542D01*
X130450775Y-120212811D01*
X130503580Y-120085328D01*
X130526591Y-119969643D01*
X130558974Y-119907737D01*
X130619690Y-119873163D01*
X130654915Y-119870802D01*
X130654915Y-119870500D01*
X130659427Y-119870500D01*
X130660367Y-119870437D01*
X130661006Y-119870500D01*
X130661007Y-119870500D01*
X130798995Y-119870500D01*
X130890041Y-119852389D01*
X130934328Y-119843580D01*
X131061811Y-119790775D01*
X131176542Y-119714114D01*
X131274114Y-119616542D01*
X131350775Y-119501811D01*
X131403580Y-119374328D01*
X131419674Y-119293417D01*
X131430500Y-119238995D01*
X131430500Y-119101004D01*
X131403581Y-118965677D01*
X131403580Y-118965676D01*
X131403580Y-118965672D01*
X131387372Y-118926542D01*
X131350778Y-118838195D01*
X131350771Y-118838182D01*
X131274114Y-118723458D01*
X131274111Y-118723454D01*
X131176545Y-118625888D01*
X131176541Y-118625885D01*
X131061817Y-118549228D01*
X131061804Y-118549221D01*
X130934332Y-118496421D01*
X130934322Y-118496418D01*
X130798995Y-118469500D01*
X130798993Y-118469500D01*
X130661007Y-118469500D01*
X130660997Y-118469500D01*
X130658647Y-118469968D01*
X130657392Y-118469855D01*
X130654942Y-118470097D01*
X130654896Y-118469632D01*
X130589056Y-118463735D01*
X130533882Y-118420867D01*
X130512849Y-118372540D01*
X130493581Y-118275679D01*
X130493581Y-118275677D01*
X130493580Y-118275672D01*
X130444920Y-118158195D01*
X130440778Y-118148195D01*
X130440771Y-118148182D01*
X130364114Y-118033458D01*
X130364111Y-118033454D01*
X130266545Y-117935888D01*
X130266541Y-117935885D01*
X130151817Y-117859228D01*
X130151804Y-117859221D01*
X130024332Y-117806421D01*
X130024322Y-117806418D01*
X129888995Y-117779500D01*
X129888993Y-117779500D01*
X129751007Y-117779500D01*
X129751005Y-117779500D01*
X129615677Y-117806418D01*
X129615667Y-117806421D01*
X129488195Y-117859221D01*
X129488182Y-117859228D01*
X129373458Y-117935885D01*
X129373454Y-117935888D01*
X129275888Y-118033454D01*
X129275885Y-118033458D01*
X129199228Y-118148182D01*
X129199221Y-118148195D01*
X129146421Y-118275667D01*
X129146418Y-118275677D01*
X129119500Y-118411004D01*
X129119500Y-118411007D01*
X129119500Y-118548993D01*
X129119500Y-118548995D01*
X129119499Y-118548995D01*
X124251400Y-118548995D01*
X124221817Y-118529228D01*
X124221804Y-118529221D01*
X124198276Y-118519476D01*
X124094332Y-118476421D01*
X124094322Y-118476418D01*
X123958995Y-118449500D01*
X123958993Y-118449500D01*
X123821007Y-118449500D01*
X123821005Y-118449500D01*
X123685677Y-118476418D01*
X123685667Y-118476421D01*
X123558195Y-118529221D01*
X123558182Y-118529228D01*
X123443458Y-118605885D01*
X123443454Y-118605888D01*
X123345888Y-118703454D01*
X123345885Y-118703458D01*
X123269228Y-118818182D01*
X123269221Y-118818195D01*
X123216421Y-118945667D01*
X123216418Y-118945677D01*
X123189500Y-119081004D01*
X123189500Y-119081007D01*
X123189500Y-119218993D01*
X123189500Y-119218995D01*
X123189499Y-119218995D01*
X123216418Y-119354322D01*
X123216421Y-119354332D01*
X123269221Y-119481804D01*
X123269228Y-119481817D01*
X123345885Y-119596541D01*
X123345888Y-119596545D01*
X123443454Y-119694111D01*
X123448166Y-119697978D01*
X123447250Y-119699093D01*
X123487428Y-119747168D01*
X123496137Y-119816493D01*
X123465982Y-119879521D01*
X123442624Y-119899761D01*
X123433458Y-119905885D01*
X123433454Y-119905888D01*
X123335888Y-120003454D01*
X123335885Y-120003458D01*
X123259228Y-120118182D01*
X123259221Y-120118195D01*
X123206421Y-120245667D01*
X123206418Y-120245677D01*
X123179500Y-120381004D01*
X123179500Y-120381007D01*
X123179500Y-120518993D01*
X123179500Y-120518995D01*
X123179499Y-120518995D01*
X115925881Y-120518995D01*
X115911195Y-120459690D01*
X115933732Y-120393555D01*
X115978787Y-120354515D01*
X116155403Y-120264525D01*
X116155402Y-120264525D01*
X116155405Y-120264524D01*
X116314646Y-120148828D01*
X116453828Y-120009646D01*
X116569524Y-119850405D01*
X116658884Y-119675025D01*
X116719709Y-119487826D01*
X116728162Y-119434454D01*
X116750500Y-119293422D01*
X116750500Y-119096577D01*
X116719709Y-118902173D01*
X116658882Y-118714970D01*
X116603300Y-118605885D01*
X116579409Y-118558995D01*
X119929499Y-118558995D01*
X119956418Y-118694322D01*
X119956421Y-118694332D01*
X120009221Y-118821804D01*
X120009228Y-118821817D01*
X120085885Y-118936541D01*
X120085888Y-118936545D01*
X120183456Y-119034113D01*
X120188232Y-119037304D01*
X120198233Y-119043986D01*
X120243040Y-119097597D01*
X120251749Y-119166922D01*
X120221596Y-119229950D01*
X120198244Y-119250187D01*
X120193459Y-119253384D01*
X120193454Y-119253388D01*
X120095888Y-119350954D01*
X120095885Y-119350958D01*
X120019228Y-119465682D01*
X120019221Y-119465695D01*
X119966421Y-119593167D01*
X119966418Y-119593177D01*
X119939500Y-119728504D01*
X119939500Y-119728507D01*
X119939500Y-119866493D01*
X119939500Y-119866495D01*
X119939499Y-119866495D01*
X119966418Y-120001822D01*
X119966421Y-120001832D01*
X120019221Y-120129304D01*
X120019228Y-120129317D01*
X120095885Y-120244041D01*
X120095888Y-120244045D01*
X120193454Y-120341611D01*
X120193458Y-120341614D01*
X120308182Y-120418271D01*
X120308195Y-120418278D01*
X120373916Y-120445500D01*
X120435672Y-120471080D01*
X120435676Y-120471080D01*
X120435677Y-120471081D01*
X120571004Y-120498000D01*
X120571007Y-120498000D01*
X120708995Y-120498000D01*
X120800041Y-120479889D01*
X120844328Y-120471080D01*
X120971811Y-120418275D01*
X121086542Y-120341614D01*
X121100616Y-120327540D01*
X121140923Y-120287234D01*
X121184111Y-120244045D01*
X121184114Y-120244042D01*
X121260775Y-120129311D01*
X121313580Y-120001828D01*
X121332664Y-119905886D01*
X121340500Y-119866495D01*
X121340500Y-119728504D01*
X121313581Y-119593177D01*
X121313580Y-119593176D01*
X121313580Y-119593172D01*
X121275740Y-119501817D01*
X121260778Y-119465695D01*
X121260771Y-119465682D01*
X121184114Y-119350958D01*
X121184111Y-119350954D01*
X121086545Y-119253388D01*
X121086540Y-119253384D01*
X121071765Y-119243512D01*
X121026959Y-119189900D01*
X121018250Y-119120575D01*
X121048404Y-119057548D01*
X121071764Y-119037306D01*
X121076542Y-119034114D01*
X121174114Y-118936542D01*
X121250775Y-118821811D01*
X121303580Y-118694328D01*
X121321172Y-118605888D01*
X121330500Y-118558995D01*
X121330500Y-118421004D01*
X121303581Y-118285677D01*
X121303580Y-118285676D01*
X121303580Y-118285672D01*
X121299436Y-118275667D01*
X121250778Y-118158195D01*
X121250771Y-118158182D01*
X121174114Y-118043458D01*
X121174111Y-118043454D01*
X121076545Y-117945888D01*
X121076541Y-117945885D01*
X120961817Y-117869228D01*
X120961804Y-117869221D01*
X120834332Y-117816421D01*
X120834322Y-117816418D01*
X120698995Y-117789500D01*
X120698993Y-117789500D01*
X120561007Y-117789500D01*
X120561005Y-117789500D01*
X120425677Y-117816418D01*
X120425667Y-117816421D01*
X120298195Y-117869221D01*
X120298182Y-117869228D01*
X120183458Y-117945885D01*
X120183454Y-117945888D01*
X120085888Y-118043454D01*
X120085885Y-118043458D01*
X120009228Y-118158182D01*
X120009221Y-118158195D01*
X119956421Y-118285667D01*
X119956418Y-118285677D01*
X119929500Y-118421004D01*
X119929500Y-118421007D01*
X119929500Y-118558993D01*
X119929500Y-118558995D01*
X119929499Y-118558995D01*
X116579409Y-118558995D01*
X116569524Y-118539595D01*
X116453828Y-118380354D01*
X116314646Y-118241172D01*
X116200439Y-118158195D01*
X116155403Y-118125474D01*
X115978787Y-118035485D01*
X115927990Y-117987511D01*
X115911195Y-117919690D01*
X115933732Y-117853555D01*
X115978787Y-117814515D01*
X116155403Y-117724525D01*
X116155402Y-117724525D01*
X116155405Y-117724524D01*
X116314646Y-117608828D01*
X116453828Y-117469646D01*
X116569524Y-117310405D01*
X116631385Y-117188995D01*
X156829499Y-117188995D01*
X156856418Y-117324322D01*
X156856421Y-117324332D01*
X156909221Y-117451804D01*
X156909228Y-117451817D01*
X156985885Y-117566541D01*
X156985888Y-117566545D01*
X157083454Y-117664111D01*
X157083458Y-117664114D01*
X157198182Y-117740771D01*
X157198195Y-117740778D01*
X157315822Y-117789500D01*
X157325672Y-117793580D01*
X157325676Y-117793580D01*
X157325677Y-117793581D01*
X157461004Y-117820500D01*
X157461007Y-117820500D01*
X157598995Y-117820500D01*
X157690041Y-117802389D01*
X157734328Y-117793580D01*
X157861811Y-117740775D01*
X157976542Y-117664114D01*
X158074114Y-117566542D01*
X158150775Y-117451811D01*
X158203580Y-117324328D01*
X158230500Y-117188993D01*
X158230500Y-117051007D01*
X158230500Y-117051004D01*
X158203581Y-116915677D01*
X158203580Y-116915676D01*
X158203580Y-116915672D01*
X158203578Y-116915667D01*
X158150778Y-116788195D01*
X158150771Y-116788182D01*
X158074114Y-116673458D01*
X158074111Y-116673454D01*
X157976545Y-116575888D01*
X157976541Y-116575885D01*
X157861817Y-116499228D01*
X157861804Y-116499221D01*
X157734332Y-116446421D01*
X157734322Y-116446418D01*
X157598995Y-116419500D01*
X157598993Y-116419500D01*
X157461007Y-116419500D01*
X157461005Y-116419500D01*
X157325677Y-116446418D01*
X157325667Y-116446421D01*
X157198195Y-116499221D01*
X157198182Y-116499228D01*
X157083458Y-116575885D01*
X157083454Y-116575888D01*
X156985888Y-116673454D01*
X156985885Y-116673458D01*
X156909228Y-116788182D01*
X156909221Y-116788195D01*
X156856421Y-116915667D01*
X156856418Y-116915677D01*
X156829500Y-117051004D01*
X156829500Y-117051007D01*
X156829500Y-117188993D01*
X156829500Y-117188995D01*
X156829499Y-117188995D01*
X116631385Y-117188995D01*
X116658884Y-117135025D01*
X116719709Y-116947826D01*
X116724802Y-116915672D01*
X116750500Y-116753422D01*
X116750500Y-116556577D01*
X116719709Y-116362173D01*
X116658882Y-116174970D01*
X116569523Y-115999594D01*
X116453828Y-115840354D01*
X116314646Y-115701172D01*
X116235025Y-115643324D01*
X116155403Y-115585474D01*
X115978787Y-115495485D01*
X115927990Y-115447511D01*
X115911195Y-115379690D01*
X115933732Y-115313555D01*
X115978787Y-115274515D01*
X116155403Y-115184525D01*
X116155402Y-115184525D01*
X116155405Y-115184524D01*
X116314646Y-115068828D01*
X116453828Y-114929646D01*
X116569524Y-114770405D01*
X116658884Y-114595025D01*
X116719709Y-114407826D01*
X116750500Y-114213422D01*
X116750500Y-114016577D01*
X116719709Y-113822173D01*
X116658882Y-113634970D01*
X116569523Y-113459594D01*
X116453828Y-113300354D01*
X116314646Y-113161172D01*
X116235025Y-113103324D01*
X116155403Y-113045474D01*
X115978787Y-112955485D01*
X115927990Y-112907511D01*
X115911195Y-112839690D01*
X115933732Y-112773555D01*
X115978787Y-112734515D01*
X116155403Y-112644525D01*
X116155402Y-112644525D01*
X116155405Y-112644524D01*
X116314646Y-112528828D01*
X116453828Y-112389646D01*
X116569524Y-112230405D01*
X116651766Y-112068995D01*
X156819499Y-112068995D01*
X156846418Y-112204322D01*
X156846421Y-112204332D01*
X156899221Y-112331804D01*
X156899228Y-112331817D01*
X156975885Y-112446541D01*
X156975888Y-112446545D01*
X157073454Y-112544111D01*
X157073458Y-112544114D01*
X157188182Y-112620771D01*
X157188195Y-112620778D01*
X157315667Y-112673578D01*
X157315672Y-112673580D01*
X157315676Y-112673580D01*
X157315677Y-112673581D01*
X157451004Y-112700500D01*
X157451007Y-112700500D01*
X157588995Y-112700500D01*
X157680041Y-112682389D01*
X157724328Y-112673580D01*
X157851811Y-112620775D01*
X157966542Y-112544114D01*
X158064114Y-112446542D01*
X158140775Y-112331811D01*
X158193580Y-112204328D01*
X158220500Y-112068993D01*
X158220500Y-111931007D01*
X158220500Y-111931004D01*
X158193581Y-111795677D01*
X158193580Y-111795676D01*
X158193580Y-111795672D01*
X158142941Y-111673417D01*
X158140778Y-111668195D01*
X158140771Y-111668182D01*
X158064114Y-111553458D01*
X158064111Y-111553454D01*
X157966545Y-111455888D01*
X157966541Y-111455885D01*
X157851817Y-111379228D01*
X157851804Y-111379221D01*
X157724332Y-111326421D01*
X157724322Y-111326418D01*
X157588995Y-111299500D01*
X157588993Y-111299500D01*
X157451007Y-111299500D01*
X157451005Y-111299500D01*
X157315677Y-111326418D01*
X157315667Y-111326421D01*
X157188195Y-111379221D01*
X157188182Y-111379228D01*
X157073458Y-111455885D01*
X157073454Y-111455888D01*
X156975888Y-111553454D01*
X156975885Y-111553458D01*
X156899228Y-111668182D01*
X156899221Y-111668195D01*
X156846421Y-111795667D01*
X156846418Y-111795677D01*
X156819500Y-111931004D01*
X156819500Y-111931007D01*
X156819500Y-112068993D01*
X156819500Y-112068995D01*
X156819499Y-112068995D01*
X116651766Y-112068995D01*
X116658884Y-112055025D01*
X116719709Y-111867826D01*
X116735572Y-111767666D01*
X116750500Y-111673422D01*
X116750500Y-111476577D01*
X116719709Y-111282173D01*
X116658882Y-111094970D01*
X116569523Y-110919594D01*
X116453828Y-110760354D01*
X116314646Y-110621172D01*
X116235025Y-110563324D01*
X116155403Y-110505474D01*
X115978787Y-110415485D01*
X115927990Y-110367511D01*
X115911195Y-110299690D01*
X115933732Y-110233555D01*
X115978787Y-110194515D01*
X116155403Y-110104525D01*
X116155402Y-110104525D01*
X116155405Y-110104524D01*
X116314646Y-109988828D01*
X116453828Y-109849646D01*
X116569524Y-109690405D01*
X116646671Y-109538995D01*
X156809499Y-109538995D01*
X156836418Y-109674322D01*
X156836421Y-109674332D01*
X156889221Y-109801804D01*
X156889228Y-109801817D01*
X156965885Y-109916541D01*
X156965888Y-109916545D01*
X157063454Y-110014111D01*
X157063458Y-110014114D01*
X157178182Y-110090771D01*
X157178195Y-110090778D01*
X157305667Y-110143578D01*
X157305672Y-110143580D01*
X157305676Y-110143580D01*
X157305677Y-110143581D01*
X157441004Y-110170500D01*
X157441007Y-110170500D01*
X157578995Y-110170500D01*
X157670041Y-110152389D01*
X157714328Y-110143580D01*
X157841811Y-110090775D01*
X157956542Y-110014114D01*
X158054114Y-109916542D01*
X158130775Y-109801811D01*
X158183580Y-109674328D01*
X158210500Y-109538993D01*
X158210500Y-109401007D01*
X158210500Y-109401004D01*
X158183581Y-109265677D01*
X158183580Y-109265676D01*
X158183580Y-109265672D01*
X158183578Y-109265667D01*
X158130778Y-109138195D01*
X158130771Y-109138182D01*
X158054114Y-109023458D01*
X158054111Y-109023454D01*
X157956545Y-108925888D01*
X157956541Y-108925885D01*
X157841817Y-108849228D01*
X157841804Y-108849221D01*
X157714332Y-108796421D01*
X157714322Y-108796418D01*
X157578995Y-108769500D01*
X157578993Y-108769500D01*
X157441007Y-108769500D01*
X157441005Y-108769500D01*
X157305677Y-108796418D01*
X157305667Y-108796421D01*
X157178195Y-108849221D01*
X157178182Y-108849228D01*
X157063458Y-108925885D01*
X157063454Y-108925888D01*
X156965888Y-109023454D01*
X156965885Y-109023458D01*
X156889228Y-109138182D01*
X156889221Y-109138195D01*
X156836421Y-109265667D01*
X156836418Y-109265677D01*
X156809500Y-109401004D01*
X156809500Y-109401007D01*
X156809500Y-109538993D01*
X156809500Y-109538995D01*
X156809499Y-109538995D01*
X116646671Y-109538995D01*
X116658884Y-109515025D01*
X116719709Y-109327826D01*
X116750500Y-109133422D01*
X116750500Y-108936577D01*
X116719709Y-108742173D01*
X116658882Y-108554970D01*
X116569523Y-108379594D01*
X116453828Y-108220354D01*
X116314646Y-108081172D01*
X116235025Y-108023324D01*
X116155403Y-107965474D01*
X115978787Y-107875485D01*
X115927990Y-107827511D01*
X115911195Y-107759690D01*
X115933732Y-107693555D01*
X115978787Y-107654515D01*
X116155403Y-107564525D01*
X116155402Y-107564525D01*
X116155405Y-107564524D01*
X116314646Y-107448828D01*
X116453828Y-107309646D01*
X116569524Y-107150405D01*
X116658884Y-106975025D01*
X116719709Y-106787826D01*
X116750500Y-106593422D01*
X116750500Y-106396577D01*
X116719709Y-106202173D01*
X116658882Y-106014970D01*
X116569523Y-105839594D01*
X116453828Y-105680354D01*
X116314646Y-105541172D01*
X116235025Y-105483324D01*
X116155403Y-105425474D01*
X115978787Y-105335485D01*
X115927990Y-105287511D01*
X115911195Y-105219690D01*
X115933732Y-105153555D01*
X115978787Y-105114515D01*
X116155403Y-105024525D01*
X116155402Y-105024525D01*
X116155405Y-105024524D01*
X116314646Y-104908828D01*
X116453828Y-104769646D01*
X116569524Y-104610405D01*
X116658884Y-104435025D01*
X116719709Y-104247826D01*
X116730435Y-104180104D01*
X116750500Y-104053422D01*
X116750500Y-103856577D01*
X116719709Y-103662173D01*
X116675791Y-103527009D01*
X116658884Y-103474975D01*
X116658882Y-103474972D01*
X116658882Y-103474970D01*
X116584093Y-103328189D01*
X116569524Y-103299595D01*
X116453828Y-103140354D01*
X116352469Y-103038995D01*
X120009499Y-103038995D01*
X120036418Y-103174322D01*
X120036421Y-103174332D01*
X120089221Y-103301804D01*
X120089228Y-103301817D01*
X120165885Y-103416541D01*
X120165888Y-103416545D01*
X120263454Y-103514111D01*
X120268166Y-103517978D01*
X120266707Y-103519754D01*
X120304946Y-103565511D01*
X120313653Y-103634836D01*
X120283498Y-103697863D01*
X120267747Y-103711511D01*
X120268166Y-103712022D01*
X120263454Y-103715888D01*
X120165888Y-103813454D01*
X120165885Y-103813458D01*
X120089228Y-103928182D01*
X120089221Y-103928195D01*
X120036421Y-104055667D01*
X120036418Y-104055677D01*
X120009500Y-104191004D01*
X120009500Y-104191007D01*
X120009500Y-104328993D01*
X120009500Y-104328995D01*
X120009499Y-104328995D01*
X120036418Y-104464322D01*
X120036421Y-104464332D01*
X120089221Y-104591804D01*
X120089228Y-104591817D01*
X120165885Y-104706541D01*
X120165888Y-104706545D01*
X120263454Y-104804111D01*
X120263458Y-104804114D01*
X120378182Y-104880771D01*
X120378195Y-104880778D01*
X120445915Y-104908828D01*
X120505672Y-104933580D01*
X120505676Y-104933580D01*
X120505677Y-104933581D01*
X120641004Y-104960500D01*
X120641007Y-104960500D01*
X120778995Y-104960500D01*
X120870041Y-104942389D01*
X120914328Y-104933580D01*
X121041811Y-104880775D01*
X121156542Y-104804114D01*
X121254114Y-104706542D01*
X121330775Y-104591811D01*
X121383580Y-104464328D01*
X121403161Y-104365888D01*
X121410500Y-104328995D01*
X121410500Y-104191004D01*
X121383581Y-104055677D01*
X121383580Y-104055676D01*
X121383580Y-104055672D01*
X121372193Y-104028182D01*
X121330778Y-103928195D01*
X121330771Y-103928182D01*
X121254114Y-103813458D01*
X121254111Y-103813454D01*
X121156545Y-103715888D01*
X121151834Y-103712022D01*
X121153296Y-103710240D01*
X121143893Y-103698995D01*
X123029499Y-103698995D01*
X123056418Y-103834322D01*
X123056421Y-103834332D01*
X123109221Y-103961804D01*
X123109228Y-103961817D01*
X123185885Y-104076541D01*
X123185888Y-104076545D01*
X123283454Y-104174111D01*
X123288166Y-104177978D01*
X123286420Y-104180104D01*
X123323621Y-104224685D01*
X123332278Y-104294017D01*
X123302076Y-104357022D01*
X123297571Y-104361772D01*
X123195885Y-104463458D01*
X123119228Y-104578182D01*
X123119221Y-104578195D01*
X123066421Y-104705667D01*
X123066418Y-104705677D01*
X123039500Y-104841004D01*
X123039500Y-104841007D01*
X123039500Y-104978993D01*
X123039500Y-104978995D01*
X123039499Y-104978995D01*
X123066418Y-105114322D01*
X123066421Y-105114332D01*
X123119221Y-105241804D01*
X123119228Y-105241817D01*
X123195885Y-105356541D01*
X123195888Y-105356545D01*
X123293454Y-105454111D01*
X123293458Y-105454114D01*
X123408182Y-105530771D01*
X123408195Y-105530778D01*
X123535667Y-105583578D01*
X123535672Y-105583580D01*
X123535676Y-105583580D01*
X123535677Y-105583581D01*
X123671004Y-105610500D01*
X123671007Y-105610500D01*
X123808995Y-105610500D01*
X123900041Y-105592389D01*
X123944328Y-105583580D01*
X124071811Y-105530775D01*
X124186542Y-105454114D01*
X124284114Y-105356542D01*
X124360775Y-105241811D01*
X124413580Y-105114328D01*
X124431443Y-105024524D01*
X124440500Y-104978995D01*
X124440500Y-104841004D01*
X124413581Y-104705677D01*
X124413580Y-104705676D01*
X124413580Y-104705672D01*
X124407836Y-104691804D01*
X124360778Y-104578195D01*
X124360771Y-104578182D01*
X124284114Y-104463458D01*
X124284111Y-104463454D01*
X124186545Y-104365888D01*
X124181834Y-104362022D01*
X124183570Y-104359906D01*
X124146348Y-104315247D01*
X124137733Y-104245910D01*
X124167972Y-104182923D01*
X124172429Y-104178226D01*
X124176538Y-104174116D01*
X124176542Y-104174114D01*
X124274114Y-104076542D01*
X124350775Y-103961811D01*
X124403580Y-103834328D01*
X124417084Y-103766441D01*
X124430500Y-103698995D01*
X124430500Y-103561004D01*
X124403581Y-103425677D01*
X124403580Y-103425676D01*
X124403580Y-103425672D01*
X124403578Y-103425667D01*
X124350778Y-103298195D01*
X124350771Y-103298182D01*
X124274114Y-103183458D01*
X124274111Y-103183454D01*
X124176545Y-103085888D01*
X124176541Y-103085885D01*
X124091400Y-103028995D01*
X129739499Y-103028995D01*
X129766418Y-103164322D01*
X129766421Y-103164332D01*
X129819221Y-103291804D01*
X129819228Y-103291817D01*
X129895885Y-103406541D01*
X129895888Y-103406545D01*
X129993454Y-103504111D01*
X129993458Y-103504114D01*
X130077453Y-103560238D01*
X130122258Y-103613850D01*
X130130965Y-103683175D01*
X130100811Y-103746202D01*
X130077454Y-103766441D01*
X130003460Y-103815883D01*
X130003454Y-103815888D01*
X129905888Y-103913454D01*
X129905885Y-103913458D01*
X129829228Y-104028182D01*
X129829221Y-104028195D01*
X129776421Y-104155667D01*
X129776418Y-104155677D01*
X129749500Y-104291004D01*
X129749500Y-104291007D01*
X129749500Y-104428993D01*
X129749500Y-104428995D01*
X129749499Y-104428995D01*
X129776418Y-104564322D01*
X129776421Y-104564332D01*
X129829221Y-104691804D01*
X129829228Y-104691817D01*
X129905885Y-104806541D01*
X129905888Y-104806545D01*
X130003454Y-104904111D01*
X130003458Y-104904114D01*
X130107385Y-104973557D01*
X130152190Y-105027170D01*
X130160897Y-105096495D01*
X130130742Y-105159522D01*
X130107385Y-105179761D01*
X129993458Y-105255885D01*
X129993454Y-105255888D01*
X129895888Y-105353454D01*
X129895885Y-105353458D01*
X129819228Y-105468182D01*
X129819221Y-105468195D01*
X129766421Y-105595667D01*
X129766418Y-105595677D01*
X129739500Y-105731004D01*
X129739500Y-105731007D01*
X129739500Y-105868993D01*
X129739500Y-105868995D01*
X129739499Y-105868995D01*
X129766418Y-106004322D01*
X129766421Y-106004332D01*
X129819221Y-106131804D01*
X129819228Y-106131817D01*
X129895885Y-106246541D01*
X129895888Y-106246545D01*
X129993454Y-106344111D01*
X129993458Y-106344114D01*
X130108182Y-106420771D01*
X130108195Y-106420778D01*
X130235667Y-106473578D01*
X130235672Y-106473580D01*
X130235676Y-106473580D01*
X130235677Y-106473581D01*
X130371004Y-106500500D01*
X130371007Y-106500500D01*
X130508995Y-106500500D01*
X130600041Y-106482389D01*
X130644328Y-106473580D01*
X130771811Y-106420775D01*
X130886542Y-106344114D01*
X130984114Y-106246542D01*
X131060775Y-106131811D01*
X131113580Y-106004328D01*
X131140500Y-105868993D01*
X131140500Y-105731007D01*
X131140500Y-105731004D01*
X131113581Y-105595677D01*
X131113580Y-105595676D01*
X131113580Y-105595672D01*
X131108571Y-105583578D01*
X131060778Y-105468195D01*
X131060771Y-105468182D01*
X130984114Y-105353458D01*
X130984111Y-105353454D01*
X130886545Y-105255888D01*
X130886541Y-105255885D01*
X130782614Y-105186442D01*
X130737809Y-105132829D01*
X130729102Y-105063504D01*
X130759257Y-105000477D01*
X130782615Y-104980238D01*
X130826926Y-104950629D01*
X130896542Y-104904114D01*
X130994114Y-104806542D01*
X131070775Y-104691811D01*
X131123580Y-104564328D01*
X131143471Y-104464332D01*
X131148949Y-104436792D01*
X131153028Y-104428995D01*
X156789499Y-104428995D01*
X156816418Y-104564322D01*
X156816421Y-104564332D01*
X156869221Y-104691804D01*
X156869228Y-104691817D01*
X156945885Y-104806541D01*
X156945888Y-104806545D01*
X157043454Y-104904111D01*
X157043458Y-104904114D01*
X157158182Y-104980771D01*
X157158195Y-104980778D01*
X157263811Y-105024525D01*
X157285672Y-105033580D01*
X157285676Y-105033580D01*
X157285677Y-105033581D01*
X157421004Y-105060500D01*
X157421007Y-105060500D01*
X157558995Y-105060500D01*
X157650041Y-105042389D01*
X157694328Y-105033580D01*
X157821811Y-104980775D01*
X157936542Y-104904114D01*
X158034114Y-104806542D01*
X158110775Y-104691811D01*
X158163580Y-104564328D01*
X158183471Y-104464332D01*
X158190500Y-104428995D01*
X158190500Y-104291004D01*
X158163581Y-104155677D01*
X158163580Y-104155676D01*
X158163580Y-104155672D01*
X158143230Y-104106542D01*
X158110778Y-104028195D01*
X158110771Y-104028182D01*
X158034114Y-103913458D01*
X158034111Y-103913454D01*
X157936545Y-103815888D01*
X157936541Y-103815885D01*
X157821817Y-103739228D01*
X157821804Y-103739221D01*
X157694332Y-103686421D01*
X157694322Y-103686418D01*
X157558995Y-103659500D01*
X157558993Y-103659500D01*
X157421007Y-103659500D01*
X157421005Y-103659500D01*
X157285677Y-103686418D01*
X157285667Y-103686421D01*
X157158195Y-103739221D01*
X157158182Y-103739228D01*
X157043458Y-103815885D01*
X157043454Y-103815888D01*
X156945888Y-103913454D01*
X156945885Y-103913458D01*
X156869228Y-104028182D01*
X156869221Y-104028195D01*
X156816421Y-104155667D01*
X156816418Y-104155677D01*
X156789500Y-104291004D01*
X156789500Y-104291007D01*
X156789500Y-104428993D01*
X156789500Y-104428995D01*
X156789499Y-104428995D01*
X131153028Y-104428995D01*
X131181334Y-104374881D01*
X131242049Y-104340307D01*
X131294757Y-104339366D01*
X131401002Y-104360499D01*
X131401005Y-104360500D01*
X131401007Y-104360500D01*
X131538995Y-104360500D01*
X131645240Y-104339366D01*
X131674328Y-104333580D01*
X131801811Y-104280775D01*
X131916542Y-104204114D01*
X131916545Y-104204111D01*
X131923423Y-104197234D01*
X132014111Y-104106545D01*
X132014114Y-104106542D01*
X132090775Y-103991811D01*
X132143580Y-103864328D01*
X132168466Y-103739221D01*
X132170500Y-103728995D01*
X132170500Y-103591004D01*
X132143581Y-103455677D01*
X132143580Y-103455676D01*
X132143580Y-103455672D01*
X132127372Y-103416542D01*
X132090778Y-103328195D01*
X132090771Y-103328182D01*
X132014114Y-103213458D01*
X132014111Y-103213454D01*
X131916545Y-103115888D01*
X131916541Y-103115885D01*
X131801817Y-103039228D01*
X131801804Y-103039221D01*
X131674332Y-102986421D01*
X131674322Y-102986418D01*
X131538995Y-102959500D01*
X131538993Y-102959500D01*
X131401007Y-102959500D01*
X131401002Y-102959500D01*
X131285137Y-102982547D01*
X131215545Y-102976320D01*
X131160368Y-102933457D01*
X131139329Y-102885121D01*
X131113581Y-102755679D01*
X131113581Y-102755677D01*
X131113580Y-102755672D01*
X131064920Y-102638195D01*
X131060778Y-102628195D01*
X131060771Y-102628182D01*
X130984114Y-102513458D01*
X130984111Y-102513454D01*
X130886545Y-102415888D01*
X130886541Y-102415885D01*
X130771817Y-102339228D01*
X130771804Y-102339221D01*
X130644332Y-102286421D01*
X130644322Y-102286418D01*
X130508995Y-102259500D01*
X130508993Y-102259500D01*
X130371007Y-102259500D01*
X130371005Y-102259500D01*
X130235677Y-102286418D01*
X130235667Y-102286421D01*
X130108195Y-102339221D01*
X130108182Y-102339228D01*
X129993458Y-102415885D01*
X129993454Y-102415888D01*
X129895888Y-102513454D01*
X129895885Y-102513458D01*
X129819228Y-102628182D01*
X129819221Y-102628195D01*
X129766421Y-102755667D01*
X129766418Y-102755677D01*
X129739500Y-102891004D01*
X129739500Y-102891007D01*
X129739500Y-103028993D01*
X129739500Y-103028995D01*
X129739499Y-103028995D01*
X124091400Y-103028995D01*
X124061817Y-103009228D01*
X124061804Y-103009221D01*
X124038276Y-102999476D01*
X123934332Y-102956421D01*
X123934322Y-102956418D01*
X123798995Y-102929500D01*
X123798993Y-102929500D01*
X123661007Y-102929500D01*
X123661005Y-102929500D01*
X123525677Y-102956418D01*
X123525667Y-102956421D01*
X123398195Y-103009221D01*
X123398182Y-103009228D01*
X123283458Y-103085885D01*
X123283454Y-103085888D01*
X123185888Y-103183454D01*
X123185885Y-103183458D01*
X123109228Y-103298182D01*
X123109221Y-103298195D01*
X123056421Y-103425667D01*
X123056418Y-103425677D01*
X123029500Y-103561004D01*
X123029500Y-103561007D01*
X123029500Y-103698993D01*
X123029500Y-103698995D01*
X123029499Y-103698995D01*
X121143893Y-103698995D01*
X121115066Y-103664519D01*
X121106341Y-103595196D01*
X121136479Y-103532161D01*
X121142708Y-103525709D01*
X121150667Y-103518039D01*
X121156542Y-103514114D01*
X121254114Y-103416542D01*
X121330775Y-103301811D01*
X121383580Y-103174328D01*
X121401172Y-103085888D01*
X121410500Y-103038995D01*
X121410500Y-102901004D01*
X121383581Y-102765677D01*
X121383580Y-102765676D01*
X121383580Y-102765672D01*
X121370996Y-102735291D01*
X121330778Y-102638195D01*
X121330771Y-102638182D01*
X121254114Y-102523458D01*
X121254111Y-102523454D01*
X121156545Y-102425888D01*
X121156541Y-102425885D01*
X121041817Y-102349228D01*
X121041804Y-102349221D01*
X120914332Y-102296421D01*
X120914322Y-102296418D01*
X120778995Y-102269500D01*
X120778993Y-102269500D01*
X120641007Y-102269500D01*
X120641005Y-102269500D01*
X120505677Y-102296418D01*
X120505667Y-102296421D01*
X120378195Y-102349221D01*
X120378182Y-102349228D01*
X120263458Y-102425885D01*
X120263454Y-102425888D01*
X120165888Y-102523454D01*
X120165885Y-102523458D01*
X120089228Y-102638182D01*
X120089221Y-102638195D01*
X120036421Y-102765667D01*
X120036418Y-102765677D01*
X120009500Y-102901004D01*
X120009500Y-102901007D01*
X120009500Y-103038993D01*
X120009500Y-103038995D01*
X120009499Y-103038995D01*
X116352469Y-103038995D01*
X116314646Y-103001172D01*
X116155405Y-102885476D01*
X116154708Y-102885121D01*
X115980029Y-102796117D01*
X115792826Y-102735290D01*
X115598422Y-102704500D01*
X115598417Y-102704500D01*
X115401583Y-102704500D01*
X115401578Y-102704500D01*
X115207173Y-102735290D01*
X115019970Y-102796117D01*
X114844594Y-102885476D01*
X114784001Y-102929500D01*
X114685354Y-103001172D01*
X114685352Y-103001174D01*
X114685351Y-103001174D01*
X114546174Y-103140351D01*
X114546174Y-103140352D01*
X114546172Y-103140354D01*
X114514858Y-103183454D01*
X114430476Y-103299594D01*
X114340485Y-103476213D01*
X114292511Y-103527009D01*
X114224690Y-103543804D01*
X114158555Y-103521267D01*
X114119515Y-103476213D01*
X114044093Y-103328189D01*
X114029524Y-103299595D01*
X113913828Y-103140354D01*
X113774646Y-103001172D01*
X113615405Y-102885476D01*
X113614708Y-102885121D01*
X113440029Y-102796117D01*
X113252826Y-102735290D01*
X113058422Y-102704500D01*
X113058417Y-102704500D01*
X112861583Y-102704500D01*
X112861578Y-102704500D01*
X112667173Y-102735290D01*
X112479970Y-102796117D01*
X112304594Y-102885476D01*
X112244001Y-102929500D01*
X112145354Y-103001172D01*
X112145352Y-103001174D01*
X112145351Y-103001174D01*
X112006174Y-103140351D01*
X112006174Y-103140352D01*
X112006172Y-103140354D01*
X111974858Y-103183454D01*
X111890476Y-103299594D01*
X111801117Y-103474970D01*
X111740290Y-103662173D01*
X111709500Y-103856577D01*
X102500500Y-103856577D01*
X102500500Y-80581577D01*
X111709500Y-80581577D01*
X111709500Y-80778422D01*
X111740290Y-80972826D01*
X111801117Y-81160029D01*
X111877059Y-81309072D01*
X111890476Y-81335405D01*
X112006172Y-81494646D01*
X112145354Y-81633828D01*
X112304595Y-81749524D01*
X112427992Y-81812397D01*
X112481213Y-81839515D01*
X112532009Y-81887489D01*
X112548804Y-81955310D01*
X112526267Y-82021445D01*
X112481213Y-82060485D01*
X112304594Y-82150476D01*
X112252316Y-82188459D01*
X112145354Y-82266172D01*
X112145352Y-82266174D01*
X112145351Y-82266174D01*
X112006174Y-82405351D01*
X112006174Y-82405352D01*
X112006172Y-82405354D01*
X111986775Y-82432052D01*
X111890476Y-82564594D01*
X111801117Y-82739970D01*
X111740290Y-82927173D01*
X111709500Y-83121577D01*
X111709500Y-83318422D01*
X111740290Y-83512826D01*
X111801117Y-83700029D01*
X111864560Y-83824542D01*
X111890476Y-83875405D01*
X112006172Y-84034646D01*
X112145354Y-84173828D01*
X112304595Y-84289524D01*
X112427992Y-84352397D01*
X112481213Y-84379515D01*
X112532009Y-84427489D01*
X112548804Y-84495310D01*
X112526267Y-84561445D01*
X112481213Y-84600485D01*
X112304594Y-84690476D01*
X112213741Y-84756485D01*
X112145354Y-84806172D01*
X112145352Y-84806174D01*
X112145351Y-84806174D01*
X112006174Y-84945351D01*
X112006174Y-84945352D01*
X112006172Y-84945354D01*
X111978152Y-84983920D01*
X111890476Y-85104594D01*
X111801117Y-85279970D01*
X111740290Y-85467173D01*
X111709500Y-85661577D01*
X111709500Y-85858422D01*
X111740290Y-86052826D01*
X111801117Y-86240029D01*
X111890475Y-86415403D01*
X111890476Y-86415405D01*
X112006172Y-86574646D01*
X112145354Y-86713828D01*
X112304595Y-86829524D01*
X112427992Y-86892397D01*
X112481213Y-86919515D01*
X112532009Y-86967489D01*
X112548804Y-87035310D01*
X112526267Y-87101445D01*
X112481213Y-87140485D01*
X112304594Y-87230476D01*
X112213741Y-87296485D01*
X112145354Y-87346172D01*
X112145352Y-87346174D01*
X112145351Y-87346174D01*
X112006174Y-87485351D01*
X112006174Y-87485352D01*
X112006172Y-87485354D01*
X111956485Y-87553741D01*
X111890476Y-87644594D01*
X111801117Y-87819970D01*
X111740290Y-88007173D01*
X111709500Y-88201577D01*
X111709500Y-88398422D01*
X111740290Y-88592826D01*
X111801117Y-88780029D01*
X111876599Y-88928170D01*
X111890476Y-88955405D01*
X112006172Y-89114646D01*
X112145354Y-89253828D01*
X112304595Y-89369524D01*
X112367519Y-89401585D01*
X112481213Y-89459515D01*
X112532009Y-89507489D01*
X112548804Y-89575310D01*
X112526267Y-89641445D01*
X112481213Y-89680485D01*
X112304594Y-89770476D01*
X112213741Y-89836485D01*
X112145354Y-89886172D01*
X112145352Y-89886174D01*
X112145351Y-89886174D01*
X112006174Y-90025351D01*
X112006174Y-90025352D01*
X112006172Y-90025354D01*
X111956485Y-90093741D01*
X111890476Y-90184594D01*
X111801117Y-90359970D01*
X111740290Y-90547173D01*
X111709500Y-90741577D01*
X111709500Y-90938422D01*
X111740290Y-91132826D01*
X111801117Y-91320029D01*
X111875730Y-91466464D01*
X111890476Y-91495405D01*
X112006172Y-91654646D01*
X112145354Y-91793828D01*
X112304595Y-91909524D01*
X112427992Y-91972397D01*
X112481213Y-91999515D01*
X112532009Y-92047489D01*
X112548804Y-92115310D01*
X112526267Y-92181445D01*
X112481213Y-92220485D01*
X112304594Y-92310476D01*
X112213741Y-92376485D01*
X112145354Y-92426172D01*
X112145352Y-92426174D01*
X112145351Y-92426174D01*
X112006174Y-92565351D01*
X112006174Y-92565352D01*
X112006172Y-92565354D01*
X111978152Y-92603920D01*
X111890476Y-92724594D01*
X111801117Y-92899970D01*
X111740290Y-93087173D01*
X111709500Y-93281577D01*
X111709500Y-93478422D01*
X111740290Y-93672826D01*
X111801117Y-93860029D01*
X111890475Y-94035403D01*
X111890476Y-94035405D01*
X112006172Y-94194646D01*
X112145354Y-94333828D01*
X112304595Y-94449524D01*
X112387455Y-94491743D01*
X112479970Y-94538882D01*
X112479972Y-94538882D01*
X112479975Y-94538884D01*
X112580317Y-94571487D01*
X112667173Y-94599709D01*
X112861578Y-94630500D01*
X112861583Y-94630500D01*
X113058422Y-94630500D01*
X113252826Y-94599709D01*
X113440025Y-94538884D01*
X113615405Y-94449524D01*
X113774646Y-94333828D01*
X113913828Y-94194646D01*
X114029524Y-94035405D01*
X114118884Y-93860025D01*
X114119515Y-93858787D01*
X114167489Y-93807990D01*
X114235310Y-93791195D01*
X114301445Y-93813732D01*
X114340485Y-93858787D01*
X114430474Y-94035403D01*
X114465234Y-94083246D01*
X114546172Y-94194646D01*
X114685354Y-94333828D01*
X114844595Y-94449524D01*
X114927455Y-94491743D01*
X115019970Y-94538882D01*
X115019972Y-94538882D01*
X115019975Y-94538884D01*
X115120317Y-94571487D01*
X115207173Y-94599709D01*
X115401578Y-94630500D01*
X115401583Y-94630500D01*
X115598422Y-94630500D01*
X115792826Y-94599709D01*
X115980025Y-94538884D01*
X116155405Y-94449524D01*
X116314646Y-94333828D01*
X116453828Y-94194646D01*
X116569524Y-94035405D01*
X116658884Y-93860025D01*
X116719709Y-93672826D01*
X116750500Y-93478422D01*
X116750500Y-93281577D01*
X116719709Y-93087173D01*
X116696787Y-93016628D01*
X116680754Y-92967286D01*
X116678759Y-92897448D01*
X116714839Y-92837615D01*
X116777540Y-92806786D01*
X116846954Y-92814750D01*
X116886367Y-92841289D01*
X116952214Y-92907136D01*
X116952218Y-92907139D01*
X117116079Y-93016628D01*
X117116092Y-93016635D01*
X117286388Y-93087173D01*
X117298165Y-93092051D01*
X117298169Y-93092051D01*
X117298170Y-93092052D01*
X117491456Y-93130500D01*
X117491459Y-93130500D01*
X117688543Y-93130500D01*
X117818582Y-93104632D01*
X117881835Y-93092051D01*
X118063914Y-93016632D01*
X118227782Y-92907139D01*
X118367139Y-92767782D01*
X118476632Y-92603914D01*
X118552051Y-92421835D01*
X118574202Y-92310474D01*
X118590500Y-92228543D01*
X118590500Y-92031456D01*
X118552052Y-91838170D01*
X118552051Y-91838169D01*
X118552051Y-91838165D01*
X118514402Y-91747272D01*
X118476635Y-91656092D01*
X118476628Y-91656079D01*
X118367139Y-91492218D01*
X118367136Y-91492214D01*
X118227785Y-91352863D01*
X118227781Y-91352860D01*
X118063920Y-91243371D01*
X118063907Y-91243364D01*
X117881839Y-91167950D01*
X117881829Y-91167947D01*
X117688543Y-91129500D01*
X117688541Y-91129500D01*
X117491459Y-91129500D01*
X117491457Y-91129500D01*
X117298170Y-91167947D01*
X117298160Y-91167950D01*
X117116092Y-91243364D01*
X117116079Y-91243371D01*
X116952218Y-91352860D01*
X116867114Y-91437964D01*
X116805790Y-91471448D01*
X116736099Y-91466464D01*
X116680165Y-91424592D01*
X116655749Y-91359127D01*
X116661501Y-91311970D01*
X116719709Y-91132826D01*
X116728860Y-91075048D01*
X116750500Y-90938422D01*
X116750500Y-90741577D01*
X116719709Y-90547173D01*
X116691487Y-90460317D01*
X116658884Y-90359975D01*
X116658882Y-90359972D01*
X116658882Y-90359970D01*
X116569523Y-90184594D01*
X116567676Y-90182052D01*
X116453828Y-90025354D01*
X116314646Y-89886172D01*
X116214915Y-89813713D01*
X116155403Y-89770474D01*
X115978787Y-89680485D01*
X115927990Y-89632511D01*
X115911195Y-89564690D01*
X115933732Y-89498555D01*
X115978787Y-89459515D01*
X116155403Y-89369525D01*
X116155402Y-89369525D01*
X116155405Y-89369524D01*
X116225574Y-89318543D01*
X119439499Y-89318543D01*
X119477947Y-89511829D01*
X119477950Y-89511839D01*
X119553364Y-89693907D01*
X119553371Y-89693920D01*
X119662860Y-89857781D01*
X119662863Y-89857785D01*
X119802214Y-89997136D01*
X119802218Y-89997139D01*
X119966079Y-90106628D01*
X119966092Y-90106635D01*
X120090298Y-90158082D01*
X120148165Y-90182051D01*
X120148169Y-90182051D01*
X120148170Y-90182052D01*
X120341456Y-90220500D01*
X120341459Y-90220500D01*
X120538543Y-90220500D01*
X120668582Y-90194632D01*
X120731835Y-90182051D01*
X120913914Y-90106632D01*
X121077782Y-89997139D01*
X121217139Y-89857782D01*
X121326632Y-89693914D01*
X121402051Y-89511835D01*
X121440500Y-89318541D01*
X121440500Y-89121459D01*
X121440500Y-89121456D01*
X121402052Y-88928170D01*
X121402051Y-88928169D01*
X121402051Y-88928165D01*
X121340690Y-88780025D01*
X121326635Y-88746092D01*
X121326628Y-88746079D01*
X121217139Y-88582218D01*
X121217136Y-88582214D01*
X121109220Y-88474298D01*
X129130644Y-88474298D01*
X129130644Y-89705701D01*
X129133545Y-89742567D01*
X129133546Y-89742573D01*
X129179398Y-89900393D01*
X129179399Y-89900396D01*
X129263061Y-90041862D01*
X129263067Y-90041870D01*
X129379273Y-90158076D01*
X129379277Y-90158079D01*
X129379279Y-90158081D01*
X129520746Y-90241744D01*
X129562368Y-90253836D01*
X129678570Y-90287597D01*
X129678573Y-90287597D01*
X129678575Y-90287598D01*
X129715450Y-90290500D01*
X129715458Y-90290500D01*
X130946830Y-90290500D01*
X130946838Y-90290500D01*
X130983713Y-90287598D01*
X130983715Y-90287597D01*
X130983717Y-90287597D01*
X131025335Y-90275505D01*
X131141542Y-90241744D01*
X131283009Y-90158081D01*
X131399225Y-90041865D01*
X131482888Y-89900398D01*
X131508073Y-89813713D01*
X143639500Y-89813713D01*
X143639500Y-90026286D01*
X143670260Y-90220500D01*
X143672754Y-90236243D01*
X143735321Y-90428804D01*
X143738444Y-90438414D01*
X143834951Y-90627820D01*
X143959890Y-90799786D01*
X144110213Y-90950109D01*
X144282179Y-91075048D01*
X144282181Y-91075049D01*
X144282184Y-91075051D01*
X144471588Y-91171557D01*
X144673757Y-91237246D01*
X144883713Y-91270500D01*
X144883714Y-91270500D01*
X145096286Y-91270500D01*
X145096287Y-91270500D01*
X145306243Y-91237246D01*
X145508412Y-91171557D01*
X145697816Y-91075051D01*
X145719789Y-91059086D01*
X145869786Y-90950109D01*
X145869788Y-90950106D01*
X145869792Y-90950104D01*
X146020104Y-90799792D01*
X146020106Y-90799788D01*
X146020109Y-90799786D01*
X146145048Y-90627820D01*
X146145047Y-90627820D01*
X146145051Y-90627816D01*
X146241557Y-90438412D01*
X146307246Y-90236243D01*
X146340500Y-90026287D01*
X146340500Y-89813713D01*
X154669500Y-89813713D01*
X154669500Y-90026286D01*
X154700260Y-90220500D01*
X154702754Y-90236243D01*
X154765321Y-90428804D01*
X154768444Y-90438414D01*
X154864951Y-90627820D01*
X154989890Y-90799786D01*
X155140213Y-90950109D01*
X155312179Y-91075048D01*
X155312181Y-91075049D01*
X155312184Y-91075051D01*
X155501588Y-91171557D01*
X155703757Y-91237246D01*
X155913713Y-91270500D01*
X155913714Y-91270500D01*
X156126286Y-91270500D01*
X156126287Y-91270500D01*
X156336243Y-91237246D01*
X156538412Y-91171557D01*
X156727816Y-91075051D01*
X156749789Y-91059086D01*
X156899786Y-90950109D01*
X156899788Y-90950106D01*
X156899792Y-90950104D01*
X157050104Y-90799792D01*
X157050106Y-90799788D01*
X157050109Y-90799786D01*
X157175048Y-90627820D01*
X157175047Y-90627820D01*
X157175051Y-90627816D01*
X157271557Y-90438412D01*
X157337246Y-90236243D01*
X157370500Y-90026287D01*
X157370500Y-89813713D01*
X157337246Y-89603757D01*
X157271557Y-89401588D01*
X157175051Y-89212184D01*
X157175049Y-89212181D01*
X157175048Y-89212179D01*
X157050109Y-89040213D01*
X156899786Y-88889890D01*
X156727820Y-88764951D01*
X156538414Y-88668444D01*
X156538413Y-88668443D01*
X156538412Y-88668443D01*
X156336243Y-88602754D01*
X156336241Y-88602753D01*
X156336240Y-88602753D01*
X156174957Y-88577208D01*
X156126287Y-88569500D01*
X155913713Y-88569500D01*
X155865042Y-88577208D01*
X155703760Y-88602753D01*
X155501585Y-88668444D01*
X155312179Y-88764951D01*
X155140213Y-88889890D01*
X154989890Y-89040213D01*
X154864951Y-89212179D01*
X154768444Y-89401585D01*
X154702753Y-89603760D01*
X154669500Y-89813713D01*
X146340500Y-89813713D01*
X146307246Y-89603757D01*
X146241557Y-89401588D01*
X146145051Y-89212184D01*
X146145049Y-89212181D01*
X146145048Y-89212179D01*
X146020109Y-89040213D01*
X145869786Y-88889890D01*
X145697820Y-88764951D01*
X145508414Y-88668444D01*
X145508413Y-88668443D01*
X145508412Y-88668443D01*
X145306243Y-88602754D01*
X145306241Y-88602753D01*
X145306240Y-88602753D01*
X145144957Y-88577208D01*
X145096287Y-88569500D01*
X144883713Y-88569500D01*
X144835042Y-88577208D01*
X144673760Y-88602753D01*
X144471585Y-88668444D01*
X144282179Y-88764951D01*
X144110213Y-88889890D01*
X143959890Y-89040213D01*
X143834951Y-89212179D01*
X143738444Y-89401585D01*
X143672753Y-89603760D01*
X143639500Y-89813713D01*
X131508073Y-89813713D01*
X131528742Y-89742569D01*
X131531644Y-89705694D01*
X131531644Y-88474306D01*
X131528742Y-88437431D01*
X131517407Y-88398417D01*
X131482889Y-88279606D01*
X131482888Y-88279603D01*
X131482888Y-88279602D01*
X131399225Y-88138135D01*
X131399223Y-88138133D01*
X131399220Y-88138129D01*
X131283014Y-88021923D01*
X131283006Y-88021917D01*
X131141540Y-87938255D01*
X131141537Y-87938254D01*
X130983717Y-87892402D01*
X130983711Y-87892401D01*
X130946845Y-87889500D01*
X130946838Y-87889500D01*
X129715450Y-87889500D01*
X129715442Y-87889500D01*
X129678576Y-87892401D01*
X129678570Y-87892402D01*
X129520750Y-87938254D01*
X129520747Y-87938255D01*
X129379281Y-88021917D01*
X129379273Y-88021923D01*
X129263067Y-88138129D01*
X129263061Y-88138137D01*
X129179399Y-88279603D01*
X129179398Y-88279606D01*
X129133546Y-88437426D01*
X129133545Y-88437432D01*
X129130644Y-88474298D01*
X121109220Y-88474298D01*
X121077785Y-88442863D01*
X121077781Y-88442860D01*
X120913920Y-88333371D01*
X120913907Y-88333364D01*
X120731839Y-88257950D01*
X120731829Y-88257947D01*
X120538543Y-88219500D01*
X120538541Y-88219500D01*
X120341459Y-88219500D01*
X120341457Y-88219500D01*
X120148170Y-88257947D01*
X120148160Y-88257950D01*
X119966092Y-88333364D01*
X119966079Y-88333371D01*
X119802218Y-88442860D01*
X119802214Y-88442863D01*
X119662863Y-88582214D01*
X119662860Y-88582218D01*
X119553371Y-88746079D01*
X119553364Y-88746092D01*
X119477950Y-88928160D01*
X119477947Y-88928170D01*
X119439500Y-89121456D01*
X119439500Y-89121459D01*
X119439500Y-89318541D01*
X119439500Y-89318543D01*
X119439499Y-89318543D01*
X116225574Y-89318543D01*
X116314646Y-89253828D01*
X116453828Y-89114646D01*
X116569524Y-88955405D01*
X116658884Y-88780025D01*
X116719709Y-88592826D01*
X116721390Y-88582214D01*
X116750500Y-88398422D01*
X116750500Y-88201577D01*
X116719709Y-88007173D01*
X116658882Y-87819970D01*
X116569523Y-87644594D01*
X116453828Y-87485354D01*
X116314646Y-87346172D01*
X116235025Y-87288324D01*
X116155403Y-87230474D01*
X115978787Y-87140485D01*
X115927990Y-87092511D01*
X115911195Y-87024690D01*
X115933732Y-86958555D01*
X115978787Y-86919515D01*
X116155403Y-86829525D01*
X116155402Y-86829525D01*
X116155405Y-86829524D01*
X116314646Y-86713828D01*
X116453828Y-86574646D01*
X116569524Y-86415405D01*
X116658884Y-86240025D01*
X116719709Y-86052826D01*
X116750500Y-85858422D01*
X116750500Y-85661577D01*
X116719709Y-85467173D01*
X116673925Y-85326267D01*
X116658884Y-85279975D01*
X116658882Y-85279972D01*
X116658882Y-85279970D01*
X116591530Y-85147785D01*
X116569524Y-85104595D01*
X116453828Y-84945354D01*
X116314646Y-84806172D01*
X116235025Y-84748324D01*
X116155403Y-84690474D01*
X115994602Y-84608543D01*
X147079499Y-84608543D01*
X147117947Y-84801829D01*
X147117950Y-84801839D01*
X147193364Y-84983907D01*
X147193371Y-84983920D01*
X147302860Y-85147781D01*
X147302863Y-85147785D01*
X147442214Y-85287136D01*
X147442218Y-85287139D01*
X147606079Y-85396628D01*
X147606092Y-85396635D01*
X147776388Y-85467173D01*
X147788165Y-85472051D01*
X147788169Y-85472051D01*
X147788170Y-85472052D01*
X147981456Y-85510500D01*
X147981459Y-85510500D01*
X148178543Y-85510500D01*
X148308582Y-85484632D01*
X148371835Y-85472051D01*
X148553914Y-85396632D01*
X148717782Y-85287139D01*
X148857139Y-85147782D01*
X148966632Y-84983914D01*
X149042051Y-84801835D01*
X149080500Y-84608541D01*
X149080500Y-84411459D01*
X149080500Y-84411456D01*
X149042052Y-84218170D01*
X149042051Y-84218169D01*
X149042051Y-84218165D01*
X149018256Y-84160718D01*
X148966635Y-84036092D01*
X148966628Y-84036079D01*
X148857139Y-83872218D01*
X148857136Y-83872214D01*
X148717785Y-83732863D01*
X148717781Y-83732860D01*
X148553920Y-83623371D01*
X148553907Y-83623364D01*
X148371839Y-83547950D01*
X148371829Y-83547947D01*
X148178543Y-83509500D01*
X148178541Y-83509500D01*
X147981459Y-83509500D01*
X147981457Y-83509500D01*
X147788170Y-83547947D01*
X147788160Y-83547950D01*
X147606092Y-83623364D01*
X147606079Y-83623371D01*
X147442218Y-83732860D01*
X147442214Y-83732863D01*
X147302863Y-83872214D01*
X147302860Y-83872218D01*
X147193371Y-84036079D01*
X147193364Y-84036092D01*
X147117950Y-84218160D01*
X147117947Y-84218170D01*
X147079500Y-84411456D01*
X147079500Y-84411459D01*
X147079500Y-84608541D01*
X147079500Y-84608543D01*
X147079499Y-84608543D01*
X115994602Y-84608543D01*
X115978787Y-84600485D01*
X115927990Y-84552511D01*
X115911195Y-84484690D01*
X115933732Y-84418555D01*
X115978787Y-84379515D01*
X116155403Y-84289525D01*
X116155402Y-84289525D01*
X116155405Y-84289524D01*
X116314646Y-84173828D01*
X116453828Y-84034646D01*
X116569524Y-83875405D01*
X116658884Y-83700025D01*
X116719709Y-83512826D01*
X116720236Y-83509500D01*
X116750500Y-83318422D01*
X116750500Y-83121577D01*
X116719709Y-82927173D01*
X116658882Y-82739970D01*
X116611522Y-82647022D01*
X116611521Y-82647020D01*
X116584076Y-82593154D01*
X138849500Y-82593154D01*
X138849500Y-83824557D01*
X138852401Y-83861423D01*
X138852402Y-83861429D01*
X138898254Y-84019249D01*
X138898255Y-84019252D01*
X138898256Y-84019254D01*
X138908214Y-84036092D01*
X138981917Y-84160718D01*
X138981923Y-84160726D01*
X139098129Y-84276932D01*
X139098133Y-84276935D01*
X139098135Y-84276937D01*
X139239602Y-84360600D01*
X139281224Y-84372692D01*
X139397426Y-84406453D01*
X139397429Y-84406453D01*
X139397431Y-84406454D01*
X139434306Y-84409356D01*
X139434314Y-84409356D01*
X140665686Y-84409356D01*
X140665694Y-84409356D01*
X140702569Y-84406454D01*
X140702571Y-84406453D01*
X140702573Y-84406453D01*
X140744191Y-84394361D01*
X140860398Y-84360600D01*
X141001865Y-84276937D01*
X141118081Y-84160721D01*
X141201744Y-84019254D01*
X141235505Y-83903047D01*
X141247597Y-83861429D01*
X141247598Y-83861423D01*
X141250499Y-83824557D01*
X141250500Y-83824550D01*
X141250500Y-82593162D01*
X141247598Y-82556287D01*
X141201744Y-82398458D01*
X141118081Y-82256991D01*
X141118079Y-82256989D01*
X141118076Y-82256985D01*
X141001870Y-82140779D01*
X141001862Y-82140773D01*
X140860396Y-82057111D01*
X140860393Y-82057110D01*
X140702573Y-82011258D01*
X140702567Y-82011257D01*
X140665701Y-82008356D01*
X140665694Y-82008356D01*
X139434306Y-82008356D01*
X139434298Y-82008356D01*
X139397432Y-82011257D01*
X139397426Y-82011258D01*
X139239606Y-82057110D01*
X139239603Y-82057111D01*
X139098137Y-82140773D01*
X139098129Y-82140779D01*
X138981923Y-82256985D01*
X138981917Y-82256993D01*
X138898255Y-82398459D01*
X138898254Y-82398462D01*
X138852402Y-82556282D01*
X138852401Y-82556288D01*
X138849500Y-82593154D01*
X116584076Y-82593154D01*
X116569525Y-82564596D01*
X116552144Y-82540674D01*
X116453828Y-82405354D01*
X116314646Y-82266172D01*
X116207684Y-82188459D01*
X116155403Y-82150474D01*
X115978787Y-82060485D01*
X115927990Y-82012511D01*
X115911195Y-81944690D01*
X115933732Y-81878555D01*
X115978787Y-81839515D01*
X116155403Y-81749525D01*
X116155402Y-81749525D01*
X116155405Y-81749524D01*
X116314646Y-81633828D01*
X116379931Y-81568543D01*
X147059499Y-81568543D01*
X147097947Y-81761829D01*
X147097950Y-81761839D01*
X147173364Y-81943907D01*
X147173371Y-81943920D01*
X147282860Y-82107781D01*
X147282863Y-82107785D01*
X147422214Y-82247136D01*
X147422218Y-82247139D01*
X147586079Y-82356628D01*
X147586092Y-82356635D01*
X147703707Y-82405352D01*
X147768165Y-82432051D01*
X147768169Y-82432051D01*
X147768170Y-82432052D01*
X147961456Y-82470500D01*
X147961459Y-82470500D01*
X148158543Y-82470500D01*
X148288582Y-82444632D01*
X148351835Y-82432051D01*
X148469884Y-82383154D01*
X160579500Y-82383154D01*
X160579500Y-83614557D01*
X160582401Y-83651423D01*
X160582402Y-83651429D01*
X160628254Y-83809249D01*
X160628255Y-83809252D01*
X160711917Y-83950718D01*
X160711923Y-83950726D01*
X160828129Y-84066932D01*
X160828133Y-84066935D01*
X160828135Y-84066937D01*
X160969602Y-84150600D01*
X161004428Y-84160718D01*
X161127426Y-84196453D01*
X161127429Y-84196453D01*
X161127431Y-84196454D01*
X161164306Y-84199356D01*
X161164314Y-84199356D01*
X162395686Y-84199356D01*
X162395694Y-84199356D01*
X162432569Y-84196454D01*
X162432571Y-84196453D01*
X162432573Y-84196453D01*
X162510447Y-84173828D01*
X162590398Y-84150600D01*
X162731865Y-84066937D01*
X162848081Y-83950721D01*
X162931744Y-83809254D01*
X162977598Y-83651425D01*
X162980500Y-83614550D01*
X162980500Y-82383162D01*
X162977598Y-82346287D01*
X162951655Y-82256993D01*
X162931745Y-82188462D01*
X162931744Y-82188459D01*
X162931744Y-82188458D01*
X162848081Y-82046991D01*
X162848079Y-82046989D01*
X162848076Y-82046985D01*
X162731870Y-81930779D01*
X162731862Y-81930773D01*
X162590396Y-81847111D01*
X162590393Y-81847110D01*
X162432573Y-81801258D01*
X162432567Y-81801257D01*
X162395701Y-81798356D01*
X162395694Y-81798356D01*
X161164306Y-81798356D01*
X161164298Y-81798356D01*
X161127432Y-81801257D01*
X161127426Y-81801258D01*
X160969606Y-81847110D01*
X160969603Y-81847111D01*
X160828137Y-81930773D01*
X160828129Y-81930779D01*
X160711923Y-82046985D01*
X160711917Y-82046993D01*
X160628255Y-82188459D01*
X160628254Y-82188462D01*
X160582402Y-82346282D01*
X160582401Y-82346288D01*
X160579500Y-82383154D01*
X148469884Y-82383154D01*
X148533914Y-82356632D01*
X148549404Y-82346282D01*
X148652157Y-82277625D01*
X148683046Y-82256985D01*
X148697782Y-82247139D01*
X148837139Y-82107782D01*
X148946632Y-81943914D01*
X149022051Y-81761835D01*
X149034632Y-81698582D01*
X149060500Y-81568543D01*
X149060500Y-81371456D01*
X149022052Y-81178170D01*
X149022051Y-81178169D01*
X149022051Y-81178165D01*
X149014537Y-81160025D01*
X148946635Y-80996092D01*
X148946628Y-80996079D01*
X148837139Y-80832218D01*
X148837136Y-80832214D01*
X148697785Y-80692863D01*
X148697781Y-80692860D01*
X148533920Y-80583371D01*
X148533907Y-80583364D01*
X148351839Y-80507950D01*
X148351829Y-80507947D01*
X148158543Y-80469500D01*
X148158541Y-80469500D01*
X147961459Y-80469500D01*
X147961457Y-80469500D01*
X147768170Y-80507947D01*
X147768160Y-80507950D01*
X147586092Y-80583364D01*
X147586079Y-80583371D01*
X147422218Y-80692860D01*
X147422214Y-80692863D01*
X147282863Y-80832214D01*
X147282860Y-80832218D01*
X147173371Y-80996079D01*
X147173364Y-80996092D01*
X147097950Y-81178160D01*
X147097947Y-81178170D01*
X147059500Y-81371456D01*
X147059500Y-81371459D01*
X147059500Y-81568541D01*
X147059500Y-81568543D01*
X147059499Y-81568543D01*
X116379931Y-81568543D01*
X116453828Y-81494646D01*
X116569524Y-81335405D01*
X116658884Y-81160025D01*
X116719709Y-80972826D01*
X116741979Y-80832218D01*
X116750500Y-80778422D01*
X116750500Y-80581577D01*
X116719709Y-80387173D01*
X116658882Y-80199970D01*
X116569523Y-80024594D01*
X116453828Y-79865354D01*
X116314646Y-79726172D01*
X116155405Y-79610476D01*
X115980029Y-79521117D01*
X115792826Y-79460290D01*
X115598422Y-79429500D01*
X115598417Y-79429500D01*
X115401583Y-79429500D01*
X115401578Y-79429500D01*
X115207173Y-79460290D01*
X115019970Y-79521117D01*
X114844594Y-79610476D01*
X114753741Y-79676485D01*
X114685354Y-79726172D01*
X114685352Y-79726174D01*
X114685351Y-79726174D01*
X114546174Y-79865351D01*
X114546174Y-79865352D01*
X114546172Y-79865354D01*
X114496485Y-79933741D01*
X114430476Y-80024594D01*
X114340485Y-80201213D01*
X114292511Y-80252009D01*
X114224690Y-80268804D01*
X114158555Y-80246267D01*
X114119515Y-80201213D01*
X114029523Y-80024594D01*
X113913828Y-79865354D01*
X113774646Y-79726172D01*
X113615405Y-79610476D01*
X113440029Y-79521117D01*
X113252826Y-79460290D01*
X113058422Y-79429500D01*
X113058417Y-79429500D01*
X112861583Y-79429500D01*
X112861578Y-79429500D01*
X112667173Y-79460290D01*
X112479970Y-79521117D01*
X112304594Y-79610476D01*
X112213741Y-79676485D01*
X112145354Y-79726172D01*
X112145352Y-79726174D01*
X112145351Y-79726174D01*
X112006174Y-79865351D01*
X112006174Y-79865352D01*
X112006172Y-79865354D01*
X111956485Y-79933741D01*
X111890476Y-80024594D01*
X111801117Y-80199970D01*
X111740290Y-80387173D01*
X111709500Y-80581577D01*
X102500500Y-80581577D01*
X102500500Y-71564298D01*
X120249500Y-71564298D01*
X120249500Y-72795701D01*
X120252401Y-72832567D01*
X120252402Y-72832573D01*
X120298254Y-72990393D01*
X120298255Y-72990396D01*
X120381917Y-73131862D01*
X120381923Y-73131870D01*
X120498129Y-73248076D01*
X120498133Y-73248079D01*
X120498135Y-73248081D01*
X120639602Y-73331744D01*
X120681224Y-73343836D01*
X120797426Y-73377597D01*
X120797429Y-73377597D01*
X120797431Y-73377598D01*
X120834306Y-73380500D01*
X120834314Y-73380500D01*
X122065686Y-73380500D01*
X122065694Y-73380500D01*
X122102569Y-73377598D01*
X122102571Y-73377597D01*
X122102573Y-73377597D01*
X122144191Y-73365505D01*
X122260398Y-73331744D01*
X122401865Y-73248081D01*
X122518081Y-73131865D01*
X122601744Y-72990398D01*
X122647598Y-72832569D01*
X122650500Y-72795694D01*
X122650500Y-72743154D01*
X131439500Y-72743154D01*
X131439500Y-73974557D01*
X131442401Y-74011423D01*
X131442402Y-74011429D01*
X131488254Y-74169249D01*
X131488255Y-74169252D01*
X131571917Y-74310718D01*
X131571923Y-74310726D01*
X131688129Y-74426932D01*
X131688133Y-74426935D01*
X131688135Y-74426937D01*
X131829602Y-74510600D01*
X131871224Y-74522692D01*
X131987426Y-74556453D01*
X131987429Y-74556453D01*
X131987431Y-74556454D01*
X132024306Y-74559356D01*
X132024314Y-74559356D01*
X133255686Y-74559356D01*
X133255694Y-74559356D01*
X133292569Y-74556454D01*
X133292571Y-74556453D01*
X133292573Y-74556453D01*
X133334191Y-74544361D01*
X133450398Y-74510600D01*
X133591865Y-74426937D01*
X133708081Y-74310721D01*
X133791744Y-74169254D01*
X133837598Y-74011425D01*
X133840500Y-73974550D01*
X133840500Y-72743162D01*
X133837598Y-72706287D01*
X133791744Y-72548458D01*
X133708081Y-72406991D01*
X133708079Y-72406989D01*
X133708076Y-72406985D01*
X133591870Y-72290779D01*
X133591862Y-72290773D01*
X133549774Y-72265882D01*
X133450398Y-72207112D01*
X133450397Y-72207111D01*
X133450396Y-72207111D01*
X133450393Y-72207110D01*
X133292573Y-72161258D01*
X133292567Y-72161257D01*
X133255701Y-72158356D01*
X133255694Y-72158356D01*
X132024306Y-72158356D01*
X132024298Y-72158356D01*
X131987432Y-72161257D01*
X131987426Y-72161258D01*
X131829606Y-72207110D01*
X131829603Y-72207111D01*
X131688137Y-72290773D01*
X131688129Y-72290779D01*
X131571923Y-72406985D01*
X131571917Y-72406993D01*
X131488255Y-72548459D01*
X131488254Y-72548462D01*
X131442402Y-72706282D01*
X131442401Y-72706288D01*
X131439500Y-72743154D01*
X122650500Y-72743154D01*
X122650500Y-72115442D01*
X139759500Y-72115442D01*
X139759500Y-73346845D01*
X139762401Y-73383711D01*
X139762402Y-73383717D01*
X139808254Y-73541537D01*
X139808255Y-73541540D01*
X139891917Y-73683006D01*
X139891923Y-73683014D01*
X140008129Y-73799220D01*
X140008133Y-73799223D01*
X140008135Y-73799225D01*
X140149602Y-73882888D01*
X140191224Y-73894980D01*
X140307426Y-73928741D01*
X140307429Y-73928741D01*
X140307431Y-73928742D01*
X140344306Y-73931644D01*
X140344314Y-73931644D01*
X141575686Y-73931644D01*
X141575694Y-73931644D01*
X141612569Y-73928742D01*
X141612571Y-73928741D01*
X141612573Y-73928741D01*
X141654191Y-73916649D01*
X141770398Y-73882888D01*
X141911865Y-73799225D01*
X142028081Y-73683009D01*
X142111744Y-73541542D01*
X142157598Y-73383713D01*
X142160500Y-73346838D01*
X142160500Y-72115450D01*
X142157598Y-72078575D01*
X142111744Y-71920746D01*
X142028081Y-71779279D01*
X142028079Y-71779277D01*
X142028076Y-71779273D01*
X141911870Y-71663067D01*
X141911862Y-71663061D01*
X141770396Y-71579399D01*
X141770393Y-71579398D01*
X141612573Y-71533546D01*
X141612567Y-71533545D01*
X141575701Y-71530644D01*
X141575694Y-71530644D01*
X140344306Y-71530644D01*
X140344298Y-71530644D01*
X140307432Y-71533545D01*
X140307426Y-71533546D01*
X140149606Y-71579398D01*
X140149603Y-71579399D01*
X140008137Y-71663061D01*
X140008129Y-71663067D01*
X139891923Y-71779273D01*
X139891917Y-71779281D01*
X139808255Y-71920747D01*
X139808254Y-71920750D01*
X139762402Y-72078570D01*
X139762401Y-72078576D01*
X139759500Y-72115442D01*
X122650500Y-72115442D01*
X122650500Y-71564306D01*
X122647598Y-71527431D01*
X122601744Y-71369602D01*
X122518081Y-71228135D01*
X122518079Y-71228133D01*
X122518076Y-71228129D01*
X122401870Y-71111923D01*
X122401862Y-71111917D01*
X122260396Y-71028255D01*
X122260393Y-71028254D01*
X122102573Y-70982402D01*
X122102567Y-70982401D01*
X122065701Y-70979500D01*
X122065694Y-70979500D01*
X120834306Y-70979500D01*
X120834298Y-70979500D01*
X120797432Y-70982401D01*
X120797426Y-70982402D01*
X120639606Y-71028254D01*
X120639603Y-71028255D01*
X120498137Y-71111917D01*
X120498129Y-71111923D01*
X120381923Y-71228129D01*
X120381917Y-71228137D01*
X120298255Y-71369603D01*
X120298254Y-71369606D01*
X120252402Y-71527426D01*
X120252401Y-71527432D01*
X120249500Y-71564298D01*
X102500500Y-71564298D01*
X102500500Y-53443713D01*
X110479500Y-53443713D01*
X110479500Y-53656287D01*
X110512754Y-53866243D01*
X110571217Y-54046174D01*
X110578444Y-54068414D01*
X110674951Y-54257820D01*
X110799890Y-54429786D01*
X110932423Y-54562319D01*
X110965908Y-54623642D01*
X110960924Y-54693334D01*
X110932423Y-54737681D01*
X110799894Y-54870209D01*
X110799890Y-54870213D01*
X110674951Y-55042179D01*
X110578444Y-55231585D01*
X110512753Y-55433760D01*
X110505425Y-55480029D01*
X110479500Y-55643713D01*
X110479500Y-55856287D01*
X110512754Y-56066243D01*
X110562618Y-56219709D01*
X110578444Y-56268414D01*
X110674951Y-56457820D01*
X110799890Y-56629786D01*
X110950208Y-56780104D01*
X110977156Y-56799683D01*
X111019821Y-56855013D01*
X111025799Y-56924627D01*
X110993192Y-56986421D01*
X110977156Y-57000317D01*
X110950208Y-57019895D01*
X110799890Y-57170213D01*
X110674951Y-57342179D01*
X110578444Y-57531585D01*
X110512753Y-57733760D01*
X110479500Y-57943713D01*
X110479500Y-58156286D01*
X110512753Y-58366239D01*
X110578444Y-58568414D01*
X110674951Y-58757820D01*
X110799890Y-58929786D01*
X110950208Y-59080104D01*
X110977156Y-59099683D01*
X111019821Y-59155013D01*
X111025799Y-59224627D01*
X110993192Y-59286421D01*
X110977156Y-59300317D01*
X110950208Y-59319895D01*
X110799890Y-59470213D01*
X110674951Y-59642179D01*
X110578444Y-59831585D01*
X110512753Y-60033760D01*
X110479500Y-60243713D01*
X110479500Y-60456286D01*
X110504378Y-60613364D01*
X110512754Y-60666243D01*
X110576430Y-60862218D01*
X110578444Y-60868414D01*
X110674951Y-61057820D01*
X110799890Y-61229786D01*
X110950208Y-61380104D01*
X110977156Y-61399683D01*
X111019821Y-61455013D01*
X111025799Y-61524627D01*
X110993192Y-61586421D01*
X110977156Y-61600317D01*
X110950208Y-61619895D01*
X110799890Y-61770213D01*
X110674951Y-61942179D01*
X110578444Y-62131585D01*
X110512753Y-62333760D01*
X110479500Y-62543713D01*
X110479500Y-62756286D01*
X110512395Y-62963981D01*
X110512754Y-62966243D01*
X110571276Y-63146355D01*
X110578444Y-63168414D01*
X110674951Y-63357820D01*
X110799890Y-63529786D01*
X110950209Y-63680105D01*
X110950214Y-63680109D01*
X111045973Y-63749682D01*
X111088639Y-63805012D01*
X111094618Y-63874625D01*
X111062013Y-63936420D01*
X111045973Y-63950318D01*
X110950214Y-64019890D01*
X110950209Y-64019894D01*
X110799890Y-64170213D01*
X110674951Y-64342179D01*
X110578444Y-64531585D01*
X110512753Y-64733760D01*
X110495576Y-64842214D01*
X110479500Y-64943713D01*
X110479500Y-65156287D01*
X110512754Y-65366243D01*
X110555008Y-65496288D01*
X110578444Y-65568414D01*
X110674951Y-65757820D01*
X110799890Y-65929786D01*
X110950208Y-66080104D01*
X110977156Y-66099683D01*
X111019821Y-66155013D01*
X111025799Y-66224627D01*
X110993192Y-66286421D01*
X110977156Y-66300317D01*
X110950208Y-66319895D01*
X110799890Y-66470213D01*
X110674951Y-66642179D01*
X110578444Y-66831585D01*
X110512753Y-67033760D01*
X110502148Y-67100718D01*
X110479500Y-67243713D01*
X110479500Y-67456287D01*
X110489534Y-67519644D01*
X110504196Y-67612214D01*
X110512754Y-67666243D01*
X110548446Y-67776092D01*
X110578444Y-67868414D01*
X110674951Y-68057820D01*
X110799890Y-68229786D01*
X110950213Y-68380109D01*
X111122179Y-68505048D01*
X111122181Y-68505049D01*
X111122184Y-68505051D01*
X111311588Y-68601557D01*
X111513757Y-68667246D01*
X111723713Y-68700500D01*
X111723714Y-68700500D01*
X111936286Y-68700500D01*
X111936287Y-68700500D01*
X112146243Y-68667246D01*
X112348412Y-68601557D01*
X112537816Y-68505051D01*
X112559789Y-68489086D01*
X112709786Y-68380109D01*
X112709788Y-68380106D01*
X112709792Y-68380104D01*
X112741353Y-68348543D01*
X144369499Y-68348543D01*
X144407947Y-68541829D01*
X144407950Y-68541839D01*
X144483364Y-68723907D01*
X144483371Y-68723920D01*
X144592860Y-68887781D01*
X144592863Y-68887785D01*
X144732214Y-69027136D01*
X144732218Y-69027139D01*
X144896079Y-69136628D01*
X144896092Y-69136635D01*
X145078160Y-69212049D01*
X145078165Y-69212051D01*
X145078169Y-69212051D01*
X145078170Y-69212052D01*
X145271456Y-69250500D01*
X145271459Y-69250500D01*
X145468543Y-69250500D01*
X145598582Y-69224632D01*
X145661835Y-69212051D01*
X145843914Y-69136632D01*
X146007782Y-69027139D01*
X146147139Y-68887782D01*
X146256632Y-68723914D01*
X146332051Y-68541835D01*
X146370500Y-68348541D01*
X146370500Y-68151459D01*
X146370500Y-68151456D01*
X146332052Y-67958170D01*
X146332051Y-67958169D01*
X146332051Y-67958165D01*
X146294875Y-67868414D01*
X146256635Y-67776092D01*
X146256628Y-67776079D01*
X146147139Y-67612218D01*
X146147136Y-67612214D01*
X146007785Y-67472863D01*
X146007781Y-67472860D01*
X145843920Y-67363371D01*
X145843907Y-67363364D01*
X145661839Y-67287950D01*
X145661829Y-67287947D01*
X145468543Y-67249500D01*
X145468541Y-67249500D01*
X145271459Y-67249500D01*
X145271457Y-67249500D01*
X145078170Y-67287947D01*
X145078160Y-67287950D01*
X144896092Y-67363364D01*
X144896079Y-67363371D01*
X144732218Y-67472860D01*
X144732214Y-67472863D01*
X144592863Y-67612214D01*
X144592860Y-67612218D01*
X144483371Y-67776079D01*
X144483364Y-67776092D01*
X144407950Y-67958160D01*
X144407947Y-67958170D01*
X144369500Y-68151456D01*
X144369500Y-68151459D01*
X144369500Y-68348541D01*
X144369500Y-68348543D01*
X144369499Y-68348543D01*
X112741353Y-68348543D01*
X112860104Y-68229792D01*
X112985051Y-68057816D01*
X113081557Y-67868412D01*
X113147246Y-67666243D01*
X113180500Y-67456287D01*
X113180500Y-67243713D01*
X113147246Y-67033757D01*
X113081557Y-66831588D01*
X112985051Y-66642184D01*
X112985049Y-66642181D01*
X112985048Y-66642179D01*
X112860109Y-66470213D01*
X112709788Y-66319892D01*
X112682847Y-66300319D01*
X112640180Y-66244989D01*
X112634201Y-66175376D01*
X112666806Y-66113581D01*
X112682847Y-66099681D01*
X112709788Y-66080107D01*
X112709788Y-66080106D01*
X112709792Y-66080104D01*
X112860104Y-65929792D01*
X112860106Y-65929788D01*
X112860109Y-65929786D01*
X112985048Y-65757820D01*
X112985047Y-65757820D01*
X112985051Y-65757816D01*
X113081557Y-65568412D01*
X113147246Y-65366243D01*
X113180500Y-65156287D01*
X113180500Y-64943713D01*
X113172211Y-64891379D01*
X113181165Y-64822088D01*
X113226161Y-64768636D01*
X113292913Y-64747996D01*
X113342134Y-64757421D01*
X113498165Y-64822051D01*
X113498169Y-64822051D01*
X113498170Y-64822052D01*
X113691456Y-64860500D01*
X113691459Y-64860500D01*
X113888543Y-64860500D01*
X114018582Y-64834632D01*
X114081835Y-64822051D01*
X114166689Y-64786903D01*
X114236154Y-64779435D01*
X114298633Y-64810709D01*
X114334286Y-64870798D01*
X114331793Y-64940623D01*
X114317242Y-64970353D01*
X114293372Y-65006078D01*
X114293364Y-65006092D01*
X114217950Y-65188160D01*
X114217947Y-65188170D01*
X114179500Y-65381456D01*
X114179500Y-65381459D01*
X114179500Y-65578541D01*
X114179500Y-65578543D01*
X114179499Y-65578543D01*
X114217947Y-65771829D01*
X114217950Y-65771839D01*
X114293364Y-65953907D01*
X114293371Y-65953920D01*
X114402860Y-66117781D01*
X114402863Y-66117785D01*
X114542214Y-66257136D01*
X114542218Y-66257139D01*
X114706079Y-66366628D01*
X114706092Y-66366635D01*
X114888160Y-66442049D01*
X114888165Y-66442051D01*
X114888169Y-66442051D01*
X114888170Y-66442052D01*
X115081456Y-66480500D01*
X115081459Y-66480500D01*
X115278543Y-66480500D01*
X115408582Y-66454632D01*
X115471835Y-66442051D01*
X115653914Y-66366632D01*
X115817782Y-66257139D01*
X115957139Y-66117782D01*
X116066632Y-65953914D01*
X116142051Y-65771835D01*
X116180500Y-65578541D01*
X116180500Y-65533154D01*
X128319500Y-65533154D01*
X128319500Y-66764557D01*
X128322401Y-66801423D01*
X128322402Y-66801429D01*
X128368254Y-66959249D01*
X128368255Y-66959252D01*
X128451917Y-67100718D01*
X128451923Y-67100726D01*
X128568129Y-67216932D01*
X128568133Y-67216935D01*
X128568135Y-67216937D01*
X128709602Y-67300600D01*
X128751224Y-67312692D01*
X128867426Y-67346453D01*
X128867429Y-67346453D01*
X128867431Y-67346454D01*
X128904306Y-67349356D01*
X128904314Y-67349356D01*
X130135686Y-67349356D01*
X130135694Y-67349356D01*
X130172569Y-67346454D01*
X130172571Y-67346453D01*
X130172573Y-67346453D01*
X130214191Y-67334361D01*
X130330398Y-67300600D01*
X130471865Y-67216937D01*
X130588081Y-67100721D01*
X130671744Y-66959254D01*
X130717598Y-66801425D01*
X130720500Y-66764550D01*
X130720500Y-65533162D01*
X130717598Y-65496287D01*
X130671744Y-65338458D01*
X130588081Y-65196991D01*
X130588079Y-65196989D01*
X130588076Y-65196985D01*
X130471870Y-65080779D01*
X130471862Y-65080773D01*
X130330396Y-64997111D01*
X130330393Y-64997110D01*
X130172573Y-64951258D01*
X130172567Y-64951257D01*
X130135701Y-64948356D01*
X130135694Y-64948356D01*
X128904306Y-64948356D01*
X128904298Y-64948356D01*
X128867432Y-64951257D01*
X128867426Y-64951258D01*
X128709606Y-64997110D01*
X128709603Y-64997111D01*
X128568137Y-65080773D01*
X128568129Y-65080779D01*
X128451923Y-65196985D01*
X128451917Y-65196993D01*
X128368255Y-65338459D01*
X128368254Y-65338462D01*
X128322402Y-65496282D01*
X128322401Y-65496288D01*
X128319500Y-65533154D01*
X116180500Y-65533154D01*
X116180500Y-65381459D01*
X116180500Y-65381456D01*
X116142052Y-65188170D01*
X116142051Y-65188169D01*
X116142051Y-65188165D01*
X116128847Y-65156287D01*
X116066635Y-65006092D01*
X116066628Y-65006079D01*
X115957139Y-64842218D01*
X115957136Y-64842214D01*
X115817785Y-64702863D01*
X115817781Y-64702860D01*
X115653920Y-64593371D01*
X115653907Y-64593364D01*
X115471839Y-64517950D01*
X115471829Y-64517947D01*
X115278543Y-64479500D01*
X115278541Y-64479500D01*
X115081459Y-64479500D01*
X115081457Y-64479500D01*
X114888170Y-64517947D01*
X114888160Y-64517950D01*
X114803313Y-64553095D01*
X114733844Y-64560564D01*
X114671365Y-64529288D01*
X114635713Y-64469199D01*
X114638207Y-64399374D01*
X114652759Y-64369643D01*
X114671106Y-64342184D01*
X114676632Y-64333914D01*
X114752051Y-64151835D01*
X114790500Y-63958541D01*
X114790500Y-63761459D01*
X114790500Y-63761456D01*
X114752052Y-63568170D01*
X114752051Y-63568169D01*
X114752051Y-63568165D01*
X114736154Y-63529786D01*
X114676635Y-63386092D01*
X114676628Y-63386079D01*
X114567139Y-63222218D01*
X114567136Y-63222214D01*
X114427785Y-63082863D01*
X114427781Y-63082860D01*
X114263920Y-62973371D01*
X114263907Y-62973364D01*
X114081839Y-62897950D01*
X114081829Y-62897947D01*
X113888543Y-62859500D01*
X113888541Y-62859500D01*
X113691459Y-62859500D01*
X113691457Y-62859500D01*
X113498170Y-62897947D01*
X113498160Y-62897950D01*
X113338746Y-62963981D01*
X113269277Y-62971450D01*
X113206798Y-62940174D01*
X113171146Y-62880085D01*
X113168821Y-62830022D01*
X113180500Y-62756285D01*
X113180500Y-62543712D01*
X113180118Y-62538862D01*
X113182255Y-62538693D01*
X113190009Y-62478293D01*
X113234959Y-62424802D01*
X113301693Y-62404105D01*
X113351022Y-62413530D01*
X113468160Y-62462049D01*
X113468165Y-62462051D01*
X113468169Y-62462051D01*
X113468170Y-62462052D01*
X113661456Y-62500500D01*
X113661459Y-62500500D01*
X113858543Y-62500500D01*
X113988582Y-62474632D01*
X114051835Y-62462051D01*
X114233914Y-62386632D01*
X114397782Y-62277139D01*
X114537139Y-62137782D01*
X114646632Y-61973914D01*
X114722051Y-61791835D01*
X114742855Y-61687249D01*
X114760500Y-61598543D01*
X114760500Y-61401456D01*
X114722052Y-61208170D01*
X114722051Y-61208169D01*
X114722051Y-61208165D01*
X114659775Y-61057816D01*
X114646635Y-61026092D01*
X114646628Y-61026079D01*
X114537139Y-60862218D01*
X114537136Y-60862214D01*
X114397785Y-60722863D01*
X114397781Y-60722860D01*
X114233920Y-60613371D01*
X114233907Y-60613364D01*
X114051839Y-60537950D01*
X114051829Y-60537947D01*
X113858543Y-60499500D01*
X113858541Y-60499500D01*
X113661459Y-60499500D01*
X113661457Y-60499500D01*
X113468170Y-60537947D01*
X113468160Y-60537950D01*
X113351022Y-60586470D01*
X113281553Y-60593939D01*
X113219074Y-60562663D01*
X113183422Y-60502574D01*
X113181519Y-60461248D01*
X113180118Y-60461138D01*
X113180500Y-60456287D01*
X113180500Y-60243713D01*
X113147246Y-60033760D01*
X113147246Y-60033757D01*
X113081557Y-59831588D01*
X112985051Y-59642184D01*
X112985049Y-59642181D01*
X112985048Y-59642179D01*
X112860109Y-59470213D01*
X112709788Y-59319892D01*
X112682847Y-59300319D01*
X112640180Y-59244989D01*
X112634201Y-59175376D01*
X112666806Y-59113581D01*
X112682847Y-59099681D01*
X112709788Y-59080107D01*
X112709788Y-59080106D01*
X112709792Y-59080104D01*
X112860104Y-58929792D01*
X112860106Y-58929788D01*
X112860109Y-58929786D01*
X112985048Y-58757820D01*
X112985047Y-58757820D01*
X112985051Y-58757816D01*
X113081557Y-58568412D01*
X113147246Y-58366243D01*
X113180500Y-58156287D01*
X113180500Y-57943713D01*
X113147246Y-57733757D01*
X113081557Y-57531588D01*
X112985051Y-57342184D01*
X112985049Y-57342181D01*
X112985048Y-57342179D01*
X112860109Y-57170213D01*
X112709788Y-57019892D01*
X112682847Y-57000319D01*
X112640180Y-56944989D01*
X112634201Y-56875376D01*
X112666806Y-56813581D01*
X112682847Y-56799681D01*
X112709788Y-56780107D01*
X112709788Y-56780106D01*
X112709792Y-56780104D01*
X112860104Y-56629792D01*
X112860106Y-56629788D01*
X112860109Y-56629786D01*
X112985048Y-56457820D01*
X112985047Y-56457820D01*
X112985051Y-56457816D01*
X113081557Y-56268412D01*
X113147246Y-56066243D01*
X113180500Y-55856287D01*
X113180500Y-55643713D01*
X113147246Y-55433757D01*
X113081557Y-55231588D01*
X112985051Y-55042184D01*
X112985049Y-55042181D01*
X112985048Y-55042179D01*
X112932314Y-54969596D01*
X112882895Y-54901577D01*
X122669500Y-54901577D01*
X122669500Y-55098422D01*
X122700290Y-55292826D01*
X122761117Y-55480029D01*
X122844519Y-55643713D01*
X122850476Y-55655405D01*
X122966172Y-55814646D01*
X123105354Y-55953828D01*
X123264595Y-56069524D01*
X123347455Y-56111743D01*
X123439970Y-56158882D01*
X123439972Y-56158882D01*
X123439975Y-56158884D01*
X123540317Y-56191487D01*
X123627173Y-56219709D01*
X123821578Y-56250500D01*
X123821583Y-56250500D01*
X124018422Y-56250500D01*
X124212826Y-56219709D01*
X124400025Y-56158884D01*
X124575405Y-56069524D01*
X124734646Y-55953828D01*
X124873828Y-55814646D01*
X124989524Y-55655405D01*
X125078884Y-55480025D01*
X125079515Y-55478787D01*
X125127489Y-55427990D01*
X125195310Y-55411195D01*
X125261445Y-55433732D01*
X125300485Y-55478787D01*
X125390474Y-55655403D01*
X125425234Y-55703246D01*
X125506172Y-55814646D01*
X125645354Y-55953828D01*
X125804595Y-56069524D01*
X125887455Y-56111743D01*
X125979970Y-56158882D01*
X125979972Y-56158882D01*
X125979975Y-56158884D01*
X126080317Y-56191487D01*
X126167173Y-56219709D01*
X126361578Y-56250500D01*
X126361583Y-56250500D01*
X126558422Y-56250500D01*
X126752826Y-56219709D01*
X126940025Y-56158884D01*
X127115405Y-56069524D01*
X127274646Y-55953828D01*
X127413828Y-55814646D01*
X127529524Y-55655405D01*
X127618884Y-55480025D01*
X127679709Y-55292826D01*
X127689409Y-55231585D01*
X127710500Y-55098422D01*
X127710500Y-54901577D01*
X138669500Y-54901577D01*
X138669500Y-55098422D01*
X138700290Y-55292826D01*
X138761117Y-55480029D01*
X138844519Y-55643713D01*
X138850476Y-55655405D01*
X138966172Y-55814646D01*
X139105354Y-55953828D01*
X139264595Y-56069524D01*
X139347455Y-56111743D01*
X139439970Y-56158882D01*
X139439972Y-56158882D01*
X139439975Y-56158884D01*
X139540317Y-56191487D01*
X139627173Y-56219709D01*
X139821578Y-56250500D01*
X139821583Y-56250500D01*
X140018422Y-56250500D01*
X140212826Y-56219709D01*
X140400025Y-56158884D01*
X140575405Y-56069524D01*
X140734646Y-55953828D01*
X140873828Y-55814646D01*
X140989524Y-55655405D01*
X141078884Y-55480025D01*
X141079515Y-55478787D01*
X141127489Y-55427990D01*
X141195310Y-55411195D01*
X141261445Y-55433732D01*
X141300485Y-55478787D01*
X141390474Y-55655403D01*
X141425234Y-55703246D01*
X141506172Y-55814646D01*
X141645354Y-55953828D01*
X141804595Y-56069524D01*
X141887455Y-56111743D01*
X141979970Y-56158882D01*
X141979972Y-56158882D01*
X141979975Y-56158884D01*
X142080317Y-56191487D01*
X142167173Y-56219709D01*
X142361578Y-56250500D01*
X142361583Y-56250500D01*
X142558422Y-56250500D01*
X142752826Y-56219709D01*
X142940025Y-56158884D01*
X143115405Y-56069524D01*
X143274646Y-55953828D01*
X143413828Y-55814646D01*
X143529524Y-55655405D01*
X143618884Y-55480025D01*
X143679709Y-55292826D01*
X143689409Y-55231585D01*
X143710500Y-55098422D01*
X143710500Y-54901577D01*
X143679709Y-54707173D01*
X143618882Y-54519970D01*
X143529523Y-54344594D01*
X143413828Y-54185354D01*
X143274646Y-54046172D01*
X143115405Y-53930476D01*
X142940029Y-53841117D01*
X142752826Y-53780290D01*
X142558422Y-53749500D01*
X142558417Y-53749500D01*
X142361583Y-53749500D01*
X142361578Y-53749500D01*
X142167173Y-53780290D01*
X141979970Y-53841117D01*
X141804594Y-53930476D01*
X141713741Y-53996485D01*
X141645354Y-54046172D01*
X141645352Y-54046174D01*
X141645351Y-54046174D01*
X141506174Y-54185351D01*
X141506174Y-54185352D01*
X141506172Y-54185354D01*
X141456485Y-54253741D01*
X141390476Y-54344594D01*
X141300485Y-54521213D01*
X141252511Y-54572009D01*
X141184690Y-54588804D01*
X141118555Y-54566267D01*
X141079515Y-54521213D01*
X140989523Y-54344594D01*
X140873828Y-54185354D01*
X140734646Y-54046172D01*
X140575405Y-53930476D01*
X140400029Y-53841117D01*
X140212826Y-53780290D01*
X140018422Y-53749500D01*
X140018417Y-53749500D01*
X139821583Y-53749500D01*
X139821578Y-53749500D01*
X139627173Y-53780290D01*
X139439970Y-53841117D01*
X139264594Y-53930476D01*
X139173741Y-53996485D01*
X139105354Y-54046172D01*
X139105352Y-54046174D01*
X139105351Y-54046174D01*
X138966174Y-54185351D01*
X138966174Y-54185352D01*
X138966172Y-54185354D01*
X138916485Y-54253741D01*
X138850476Y-54344594D01*
X138761117Y-54519970D01*
X138700290Y-54707173D01*
X138669500Y-54901577D01*
X127710500Y-54901577D01*
X127679709Y-54707173D01*
X127618882Y-54519970D01*
X127529523Y-54344594D01*
X127413828Y-54185354D01*
X127274646Y-54046172D01*
X127115405Y-53930476D01*
X126940029Y-53841117D01*
X126752826Y-53780290D01*
X126558422Y-53749500D01*
X126558417Y-53749500D01*
X126361583Y-53749500D01*
X126361578Y-53749500D01*
X126167173Y-53780290D01*
X125979970Y-53841117D01*
X125804594Y-53930476D01*
X125713741Y-53996485D01*
X125645354Y-54046172D01*
X125645352Y-54046174D01*
X125645351Y-54046174D01*
X125506174Y-54185351D01*
X125506174Y-54185352D01*
X125506172Y-54185354D01*
X125456485Y-54253741D01*
X125390476Y-54344594D01*
X125300485Y-54521213D01*
X125252511Y-54572009D01*
X125184690Y-54588804D01*
X125118555Y-54566267D01*
X125079515Y-54521213D01*
X124989523Y-54344594D01*
X124873828Y-54185354D01*
X124734646Y-54046172D01*
X124575405Y-53930476D01*
X124400029Y-53841117D01*
X124212826Y-53780290D01*
X124018422Y-53749500D01*
X124018417Y-53749500D01*
X123821583Y-53749500D01*
X123821578Y-53749500D01*
X123627173Y-53780290D01*
X123439970Y-53841117D01*
X123264594Y-53930476D01*
X123173741Y-53996485D01*
X123105354Y-54046172D01*
X123105352Y-54046174D01*
X123105351Y-54046174D01*
X122966174Y-54185351D01*
X122966174Y-54185352D01*
X122966172Y-54185354D01*
X122916485Y-54253741D01*
X122850476Y-54344594D01*
X122761117Y-54519970D01*
X122700290Y-54707173D01*
X122669500Y-54901577D01*
X112882895Y-54901577D01*
X112860109Y-54870214D01*
X112860105Y-54870209D01*
X112727577Y-54737681D01*
X112694092Y-54676358D01*
X112699076Y-54606666D01*
X112727577Y-54562319D01*
X112769926Y-54519970D01*
X112860104Y-54429792D01*
X112860106Y-54429788D01*
X112860109Y-54429786D01*
X112985048Y-54257820D01*
X112985047Y-54257820D01*
X112985051Y-54257816D01*
X113081557Y-54068412D01*
X113147246Y-53866243D01*
X113180500Y-53656287D01*
X113180500Y-53443713D01*
X113147246Y-53233757D01*
X113081557Y-53031588D01*
X112985051Y-52842184D01*
X112985049Y-52842181D01*
X112985048Y-52842179D01*
X112860109Y-52670213D01*
X112709786Y-52519890D01*
X112537820Y-52394951D01*
X112348414Y-52298444D01*
X112348413Y-52298443D01*
X112348412Y-52298443D01*
X112146243Y-52232754D01*
X112146241Y-52232753D01*
X112146240Y-52232753D01*
X111984957Y-52207208D01*
X111936287Y-52199500D01*
X111723713Y-52199500D01*
X111675042Y-52207208D01*
X111513760Y-52232753D01*
X111311585Y-52298444D01*
X111122179Y-52394951D01*
X110950213Y-52519890D01*
X110799890Y-52670213D01*
X110674951Y-52842179D01*
X110578444Y-53031585D01*
X110512753Y-53233760D01*
X110479500Y-53443713D01*
X102500500Y-53443713D01*
X102500500Y-44954500D01*
X102520185Y-44887461D01*
X102572989Y-44841706D01*
X102624500Y-44830500D01*
X166375500Y-44830500D01*
X166442539Y-44850185D01*
G37*
%TD.AperFunction*%
%TD*%
M02*
