M48
; DRILL file {KiCad 9.0.5} date 2025-10-18T12:32:47+0200
; FORMAT={-:-/ absolute / metric / decimal}
; #@! TF.CreationDate,2025-10-18T12:32:47+02:00
; #@! TF.GenerationSoftware,Kicad,Pcbnew,9.0.5
; #@! TF.FileFunction,Plated,1,4,PTH
FMAT,2
METRIC
; #@! TA.AperFunction,Plated,PTH,ViaDrill
T1C0.300
; #@! TA.AperFunction,Plated,PTH,ComponentDrill
T2C0.500
; #@! TA.AperFunction,Plated,PTH,ViaDrill
T3C0.700
; #@! TA.AperFunction,Plated,PTH,ComponentDrill
T4C0.800
; #@! TA.AperFunction,Plated,PTH,ComponentDrill
T5C1.000
; #@! TA.AperFunction,Plated,PTH,ComponentDrill
T6C1.200
; #@! TA.AperFunction,Plated,PTH,ComponentDrill
T7C2.500
%
G90
G05
T1
X118.2Y-134.96
X119.35Y-68.14
X119.86Y-132.28
X120.41Y-60.3
X120.63Y-118.49
X120.64Y-119.797
X120.7Y-139.7
X120.71Y-102.97
X120.71Y-104.26
X120.96Y-108.13
X120.97Y-115.9
X121.0Y-100.6
X121.0Y-123.94
X121.01Y-131.94
X121.04Y-91.1
X121.05Y-93.15
X122.18Y-99.29
X122.2Y-106.73
X122.2Y-122.3
X122.2Y-130.45
X122.21Y-114.38
X122.22Y-138.41
X123.361Y-87.609
X123.73Y-103.63
X123.74Y-104.91
X123.88Y-120.45
X123.89Y-119.15
X123.93Y-135.32
X123.93Y-136.62
X125.375Y-140.925
X125.47Y-91.09
X125.48Y-108.12
X125.48Y-115.91
X125.49Y-100.61
X125.49Y-123.91
X125.49Y-131.9
X125.5Y-93.09
X126.45Y-70.42
X128.26Y-71.2
X128.9Y-60.3
X129.39Y-82.85
X129.6Y-135.969
X129.6Y-137.26
X129.67Y-134.669
X129.82Y-118.48
X129.83Y-119.881
X129.85Y-121.14
X130.44Y-102.96
X130.44Y-105.8
X130.45Y-104.36
X130.66Y-135.3
X130.73Y-119.17
X131.47Y-103.66
X131.8Y-139.7
X134.8Y-68.15
X135.4Y-70.5
X136.31Y-85.24
X137.7Y-85.7
X138.28Y-119.61
X138.31Y-106.94
X138.325Y-132.325
X138.37Y-94.2
X142.525Y-132.3
X142.53Y-94.22
X142.53Y-119.61
X142.54Y-106.86
X143.89Y-70.41
X145.66Y-81.07
X157.49Y-104.36
X157.51Y-109.47
X157.51Y-127.27
X157.52Y-112.0
X157.52Y-124.73
X157.53Y-117.12
X157.53Y-122.15
X157.53Y-132.91
X157.54Y-129.8
X158.49Y-94.16
X158.51Y-131.24
X159.03Y-85.29
X159.56Y-138.94
X162.69Y-132.35
X162.7Y-106.92
X162.72Y-94.21
T2
X104.125Y-140.0
X104.674Y-138.674
X104.674Y-141.326
X106.0Y-138.125
X106.0Y-141.875
X107.326Y-138.674
X107.326Y-141.326
X107.875Y-140.0
X114.425Y-50.0
X114.974Y-48.674
X114.974Y-51.326
X116.3Y-48.125
X116.3Y-51.875
X117.626Y-48.674
X117.626Y-51.326
X118.175Y-50.0
X130.075Y-50.0
X130.624Y-48.674
X130.624Y-51.326
X131.95Y-48.125
X131.95Y-51.875
X133.276Y-48.674
X133.276Y-51.326
X133.825Y-50.0
X160.125Y-50.0
X160.125Y-74.87
X160.674Y-48.674
X160.674Y-51.326
X160.674Y-73.544
X160.674Y-76.196
X161.715Y-140.88
X162.0Y-48.125
X162.0Y-51.875
X162.0Y-72.995
X162.0Y-76.745
X162.264Y-139.554
X162.264Y-142.206
X163.326Y-48.674
X163.326Y-51.326
X163.326Y-73.544
X163.326Y-76.196
X163.59Y-139.005
X163.59Y-142.755
X163.875Y-50.0
X163.875Y-74.87
X164.916Y-139.554
X164.916Y-142.206
X165.465Y-140.88
T3
X113.76Y-61.5
X113.79Y-63.86
X115.18Y-65.48
X117.59Y-92.13
X120.44Y-89.22
X145.37Y-68.25
X148.06Y-81.47
X148.08Y-84.51
T4
X118.95Y-72.18
X121.45Y-72.18
X129.52Y-63.649
X129.52Y-66.149
X130.331Y-89.09
X132.64Y-70.859
X132.64Y-73.359
X132.831Y-89.09
X140.05Y-80.709
X140.05Y-83.209
X140.96Y-72.731
X140.96Y-75.231
X161.78Y-80.499
X161.78Y-82.999
T5
X111.83Y-53.55
X111.83Y-55.75
X111.83Y-58.05
X111.83Y-60.35
X111.83Y-62.65
X111.83Y-65.05
X111.83Y-67.35
X112.96Y-75.6
X112.96Y-78.14
X112.96Y-80.68
X112.96Y-83.22
X112.96Y-85.76
X112.96Y-88.3
X112.96Y-90.84
X112.96Y-93.38
X112.96Y-95.92
X112.96Y-101.415
X112.96Y-103.955
X112.96Y-106.495
X112.96Y-109.035
X112.96Y-111.575
X112.96Y-114.115
X112.96Y-116.655
X112.96Y-119.195
X112.96Y-121.735
X112.96Y-124.275
X112.96Y-126.815
X112.96Y-129.355
X112.96Y-131.895
X112.96Y-134.435
X115.5Y-75.6
X115.5Y-78.14
X115.5Y-80.68
X115.5Y-83.22
X115.5Y-85.76
X115.5Y-88.3
X115.5Y-90.84
X115.5Y-93.38
X115.5Y-95.92
X115.5Y-101.415
X115.5Y-103.955
X115.5Y-106.495
X115.5Y-109.035
X115.5Y-111.575
X115.5Y-114.115
X115.5Y-116.655
X115.5Y-119.195
X115.5Y-121.735
X115.5Y-124.275
X115.5Y-126.815
X115.5Y-129.355
X115.5Y-131.895
X115.5Y-134.435
X121.38Y-55.0
X123.92Y-55.0
X126.46Y-55.0
X137.38Y-55.0
X139.92Y-55.0
X142.46Y-55.0
T6
X106.53Y-49.45
X106.63Y-71.05
T7
X106.0Y-140.0
X116.3Y-50.0
X131.95Y-50.0
X162.0Y-50.0
X162.0Y-74.87
X163.59Y-140.88
M30
