%TF.GenerationSoftware,KiCad,Pcbnew,9.0.5*%
%TF.CreationDate,2025-10-18T12:32:36+02:00*%
%TF.ProjectId,LogicAnalyzer V6.0,4c6f6769-6341-46e6-916c-797a65722056,rev?*%
%TF.SameCoordinates,Original*%
%TF.FileFunction,Legend,Top*%
%TF.FilePolarity,Positive*%
%FSLAX46Y46*%
G04 Gerber Fmt 4.6, Leading zero omitted, Abs format (unit mm)*
G04 Created by KiCad (PCBNEW 9.0.5) date 2025-10-18 12:32:36*
%MOMM*%
%LPD*%
G01*
G04 APERTURE LIST*
%ADD10C,0.200000*%
%ADD11C,0.300000*%
%ADD12C,0.250000*%
%ADD13C,0.150000*%
%ADD14C,0.120000*%
%ADD15C,0.254000*%
%ADD16C,0.400000*%
%ADD17C,0.500000*%
G04 APERTURE END LIST*
D10*
X163930552Y-69080326D02*
X164930552Y-69080326D01*
X163978171Y-69080326D02*
X163930552Y-68985088D01*
X163930552Y-68985088D02*
X163930552Y-68794612D01*
X163930552Y-68794612D02*
X163978171Y-68699374D01*
X163978171Y-68699374D02*
X164025790Y-68651755D01*
X164025790Y-68651755D02*
X164121028Y-68604136D01*
X164121028Y-68604136D02*
X164406742Y-68604136D01*
X164406742Y-68604136D02*
X164501980Y-68651755D01*
X164501980Y-68651755D02*
X164549600Y-68699374D01*
X164549600Y-68699374D02*
X164597219Y-68794612D01*
X164597219Y-68794612D02*
X164597219Y-68985088D01*
X164597219Y-68985088D02*
X164549600Y-69080326D01*
X164549600Y-67746993D02*
X164597219Y-67842231D01*
X164597219Y-67842231D02*
X164597219Y-68032707D01*
X164597219Y-68032707D02*
X164549600Y-68127945D01*
X164549600Y-68127945D02*
X164501980Y-68175564D01*
X164501980Y-68175564D02*
X164406742Y-68223183D01*
X164406742Y-68223183D02*
X164121028Y-68223183D01*
X164121028Y-68223183D02*
X164025790Y-68175564D01*
X164025790Y-68175564D02*
X163978171Y-68127945D01*
X163978171Y-68127945D02*
X163930552Y-68032707D01*
X163930552Y-68032707D02*
X163930552Y-67842231D01*
X163930552Y-67842231D02*
X163978171Y-67746993D01*
X164597219Y-67318421D02*
X163597219Y-67318421D01*
X163978171Y-67318421D02*
X163930552Y-67223183D01*
X163930552Y-67223183D02*
X163930552Y-67032707D01*
X163930552Y-67032707D02*
X163978171Y-66937469D01*
X163978171Y-66937469D02*
X164025790Y-66889850D01*
X164025790Y-66889850D02*
X164121028Y-66842231D01*
X164121028Y-66842231D02*
X164406742Y-66842231D01*
X164406742Y-66842231D02*
X164501980Y-66889850D01*
X164501980Y-66889850D02*
X164549600Y-66937469D01*
X164549600Y-66937469D02*
X164597219Y-67032707D01*
X164597219Y-67032707D02*
X164597219Y-67223183D01*
X164597219Y-67223183D02*
X164549600Y-67318421D01*
X164597219Y-65651754D02*
X163930552Y-65651754D01*
X164025790Y-65651754D02*
X163978171Y-65604135D01*
X163978171Y-65604135D02*
X163930552Y-65508897D01*
X163930552Y-65508897D02*
X163930552Y-65366040D01*
X163930552Y-65366040D02*
X163978171Y-65270802D01*
X163978171Y-65270802D02*
X164073409Y-65223183D01*
X164073409Y-65223183D02*
X164597219Y-65223183D01*
X164073409Y-65223183D02*
X163978171Y-65175564D01*
X163978171Y-65175564D02*
X163930552Y-65080326D01*
X163930552Y-65080326D02*
X163930552Y-64937469D01*
X163930552Y-64937469D02*
X163978171Y-64842230D01*
X163978171Y-64842230D02*
X164073409Y-64794611D01*
X164073409Y-64794611D02*
X164597219Y-64794611D01*
X164597219Y-63889850D02*
X164073409Y-63889850D01*
X164073409Y-63889850D02*
X163978171Y-63937469D01*
X163978171Y-63937469D02*
X163930552Y-64032707D01*
X163930552Y-64032707D02*
X163930552Y-64223183D01*
X163930552Y-64223183D02*
X163978171Y-64318421D01*
X164549600Y-63889850D02*
X164597219Y-63985088D01*
X164597219Y-63985088D02*
X164597219Y-64223183D01*
X164597219Y-64223183D02*
X164549600Y-64318421D01*
X164549600Y-64318421D02*
X164454361Y-64366040D01*
X164454361Y-64366040D02*
X164359123Y-64366040D01*
X164359123Y-64366040D02*
X164263885Y-64318421D01*
X164263885Y-64318421D02*
X164216266Y-64223183D01*
X164216266Y-64223183D02*
X164216266Y-63985088D01*
X164216266Y-63985088D02*
X164168647Y-63889850D01*
X164597219Y-62985088D02*
X163597219Y-62985088D01*
X164549600Y-62985088D02*
X164597219Y-63080326D01*
X164597219Y-63080326D02*
X164597219Y-63270802D01*
X164597219Y-63270802D02*
X164549600Y-63366040D01*
X164549600Y-63366040D02*
X164501980Y-63413659D01*
X164501980Y-63413659D02*
X164406742Y-63461278D01*
X164406742Y-63461278D02*
X164121028Y-63461278D01*
X164121028Y-63461278D02*
X164025790Y-63413659D01*
X164025790Y-63413659D02*
X163978171Y-63366040D01*
X163978171Y-63366040D02*
X163930552Y-63270802D01*
X163930552Y-63270802D02*
X163930552Y-63080326D01*
X163930552Y-63080326D02*
X163978171Y-62985088D01*
X164549600Y-62127945D02*
X164597219Y-62223183D01*
X164597219Y-62223183D02*
X164597219Y-62413659D01*
X164597219Y-62413659D02*
X164549600Y-62508897D01*
X164549600Y-62508897D02*
X164454361Y-62556516D01*
X164454361Y-62556516D02*
X164073409Y-62556516D01*
X164073409Y-62556516D02*
X163978171Y-62508897D01*
X163978171Y-62508897D02*
X163930552Y-62413659D01*
X163930552Y-62413659D02*
X163930552Y-62223183D01*
X163930552Y-62223183D02*
X163978171Y-62127945D01*
X163978171Y-62127945D02*
X164073409Y-62080326D01*
X164073409Y-62080326D02*
X164168647Y-62080326D01*
X164168647Y-62080326D02*
X164263885Y-62556516D01*
X164597219Y-60889849D02*
X163597219Y-60889849D01*
X163978171Y-60889849D02*
X163930552Y-60794611D01*
X163930552Y-60794611D02*
X163930552Y-60604135D01*
X163930552Y-60604135D02*
X163978171Y-60508897D01*
X163978171Y-60508897D02*
X164025790Y-60461278D01*
X164025790Y-60461278D02*
X164121028Y-60413659D01*
X164121028Y-60413659D02*
X164406742Y-60413659D01*
X164406742Y-60413659D02*
X164501980Y-60461278D01*
X164501980Y-60461278D02*
X164549600Y-60508897D01*
X164549600Y-60508897D02*
X164597219Y-60604135D01*
X164597219Y-60604135D02*
X164597219Y-60794611D01*
X164597219Y-60794611D02*
X164549600Y-60889849D01*
X163930552Y-60080325D02*
X164597219Y-59842230D01*
X163930552Y-59604135D02*
X164597219Y-59842230D01*
X164597219Y-59842230D02*
X164835314Y-59937468D01*
X164835314Y-59937468D02*
X164882933Y-59985087D01*
X164882933Y-59985087D02*
X164930552Y-60080325D01*
X164121028Y-57842230D02*
X164073409Y-57889849D01*
X164073409Y-57889849D02*
X164025790Y-57985087D01*
X164025790Y-57985087D02*
X164025790Y-58080325D01*
X164025790Y-58080325D02*
X164073409Y-58175563D01*
X164073409Y-58175563D02*
X164121028Y-58223182D01*
X164121028Y-58223182D02*
X164216266Y-58270801D01*
X164216266Y-58270801D02*
X164311504Y-58270801D01*
X164311504Y-58270801D02*
X164406742Y-58223182D01*
X164406742Y-58223182D02*
X164454361Y-58175563D01*
X164454361Y-58175563D02*
X164501980Y-58080325D01*
X164501980Y-58080325D02*
X164501980Y-57985087D01*
X164501980Y-57985087D02*
X164454361Y-57889849D01*
X164454361Y-57889849D02*
X164406742Y-57842230D01*
X164025790Y-57842230D02*
X164406742Y-57842230D01*
X164406742Y-57842230D02*
X164454361Y-57794611D01*
X164454361Y-57794611D02*
X164454361Y-57746992D01*
X164454361Y-57746992D02*
X164406742Y-57651753D01*
X164406742Y-57651753D02*
X164311504Y-57604134D01*
X164311504Y-57604134D02*
X164073409Y-57604134D01*
X164073409Y-57604134D02*
X163930552Y-57699373D01*
X163930552Y-57699373D02*
X163835314Y-57842230D01*
X163835314Y-57842230D02*
X163787695Y-58032706D01*
X163787695Y-58032706D02*
X163835314Y-58223182D01*
X163835314Y-58223182D02*
X163930552Y-58366039D01*
X163930552Y-58366039D02*
X164073409Y-58461277D01*
X164073409Y-58461277D02*
X164263885Y-58508896D01*
X164263885Y-58508896D02*
X164454361Y-58461277D01*
X164454361Y-58461277D02*
X164597219Y-58366039D01*
X164597219Y-58366039D02*
X164692457Y-58223182D01*
X164692457Y-58223182D02*
X164740076Y-58032706D01*
X164740076Y-58032706D02*
X164692457Y-57842230D01*
X164692457Y-57842230D02*
X164597219Y-57699373D01*
X164597219Y-57175563D02*
X163930552Y-57175563D01*
X164025790Y-57175563D02*
X163978171Y-57127944D01*
X163978171Y-57127944D02*
X163930552Y-57032706D01*
X163930552Y-57032706D02*
X163930552Y-56889849D01*
X163930552Y-56889849D02*
X163978171Y-56794611D01*
X163978171Y-56794611D02*
X164073409Y-56746992D01*
X164073409Y-56746992D02*
X164597219Y-56746992D01*
X164073409Y-56746992D02*
X163978171Y-56699373D01*
X163978171Y-56699373D02*
X163930552Y-56604135D01*
X163930552Y-56604135D02*
X163930552Y-56461278D01*
X163930552Y-56461278D02*
X163978171Y-56366039D01*
X163978171Y-56366039D02*
X164073409Y-56318420D01*
X164073409Y-56318420D02*
X164597219Y-56318420D01*
X164549600Y-55889849D02*
X164597219Y-55794611D01*
X164597219Y-55794611D02*
X164597219Y-55604135D01*
X164597219Y-55604135D02*
X164549600Y-55508897D01*
X164549600Y-55508897D02*
X164454361Y-55461278D01*
X164454361Y-55461278D02*
X164406742Y-55461278D01*
X164406742Y-55461278D02*
X164311504Y-55508897D01*
X164311504Y-55508897D02*
X164263885Y-55604135D01*
X164263885Y-55604135D02*
X164263885Y-55746992D01*
X164263885Y-55746992D02*
X164216266Y-55842230D01*
X164216266Y-55842230D02*
X164121028Y-55889849D01*
X164121028Y-55889849D02*
X164073409Y-55889849D01*
X164073409Y-55889849D02*
X163978171Y-55842230D01*
X163978171Y-55842230D02*
X163930552Y-55746992D01*
X163930552Y-55746992D02*
X163930552Y-55604135D01*
X163930552Y-55604135D02*
X163978171Y-55508897D01*
X121122054Y-84486266D02*
X121731578Y-84486266D01*
X121426816Y-84867219D02*
X121426816Y-84105314D01*
X122036339Y-83867219D02*
X122531577Y-83867219D01*
X122531577Y-83867219D02*
X122264911Y-84248171D01*
X122264911Y-84248171D02*
X122379196Y-84248171D01*
X122379196Y-84248171D02*
X122455387Y-84295790D01*
X122455387Y-84295790D02*
X122493482Y-84343409D01*
X122493482Y-84343409D02*
X122531577Y-84438647D01*
X122531577Y-84438647D02*
X122531577Y-84676742D01*
X122531577Y-84676742D02*
X122493482Y-84771980D01*
X122493482Y-84771980D02*
X122455387Y-84819600D01*
X122455387Y-84819600D02*
X122379196Y-84867219D01*
X122379196Y-84867219D02*
X122150625Y-84867219D01*
X122150625Y-84867219D02*
X122074434Y-84819600D01*
X122074434Y-84819600D02*
X122036339Y-84771980D01*
X122874435Y-84771980D02*
X122912530Y-84819600D01*
X122912530Y-84819600D02*
X122874435Y-84867219D01*
X122874435Y-84867219D02*
X122836339Y-84819600D01*
X122836339Y-84819600D02*
X122874435Y-84771980D01*
X122874435Y-84771980D02*
X122874435Y-84867219D01*
X123179196Y-83867219D02*
X123674434Y-83867219D01*
X123674434Y-83867219D02*
X123407768Y-84248171D01*
X123407768Y-84248171D02*
X123522053Y-84248171D01*
X123522053Y-84248171D02*
X123598244Y-84295790D01*
X123598244Y-84295790D02*
X123636339Y-84343409D01*
X123636339Y-84343409D02*
X123674434Y-84438647D01*
X123674434Y-84438647D02*
X123674434Y-84676742D01*
X123674434Y-84676742D02*
X123636339Y-84771980D01*
X123636339Y-84771980D02*
X123598244Y-84819600D01*
X123598244Y-84819600D02*
X123522053Y-84867219D01*
X123522053Y-84867219D02*
X123293482Y-84867219D01*
X123293482Y-84867219D02*
X123217291Y-84819600D01*
X123217291Y-84819600D02*
X123179196Y-84771980D01*
X123903006Y-83867219D02*
X124169673Y-84867219D01*
X124169673Y-84867219D02*
X124436339Y-83867219D01*
D11*
X152780828Y-75281203D02*
X152780828Y-75995489D01*
X152780828Y-75995489D02*
X151280828Y-75995489D01*
X152780828Y-74566917D02*
X152709400Y-74709774D01*
X152709400Y-74709774D02*
X152637971Y-74781203D01*
X152637971Y-74781203D02*
X152495114Y-74852631D01*
X152495114Y-74852631D02*
X152066542Y-74852631D01*
X152066542Y-74852631D02*
X151923685Y-74781203D01*
X151923685Y-74781203D02*
X151852257Y-74709774D01*
X151852257Y-74709774D02*
X151780828Y-74566917D01*
X151780828Y-74566917D02*
X151780828Y-74352631D01*
X151780828Y-74352631D02*
X151852257Y-74209774D01*
X151852257Y-74209774D02*
X151923685Y-74138346D01*
X151923685Y-74138346D02*
X152066542Y-74066917D01*
X152066542Y-74066917D02*
X152495114Y-74066917D01*
X152495114Y-74066917D02*
X152637971Y-74138346D01*
X152637971Y-74138346D02*
X152709400Y-74209774D01*
X152709400Y-74209774D02*
X152780828Y-74352631D01*
X152780828Y-74352631D02*
X152780828Y-74566917D01*
X151780828Y-72781203D02*
X152995114Y-72781203D01*
X152995114Y-72781203D02*
X153137971Y-72852631D01*
X153137971Y-72852631D02*
X153209400Y-72924060D01*
X153209400Y-72924060D02*
X153280828Y-73066917D01*
X153280828Y-73066917D02*
X153280828Y-73281203D01*
X153280828Y-73281203D02*
X153209400Y-73424060D01*
X152709400Y-72781203D02*
X152780828Y-72924060D01*
X152780828Y-72924060D02*
X152780828Y-73209774D01*
X152780828Y-73209774D02*
X152709400Y-73352631D01*
X152709400Y-73352631D02*
X152637971Y-73424060D01*
X152637971Y-73424060D02*
X152495114Y-73495488D01*
X152495114Y-73495488D02*
X152066542Y-73495488D01*
X152066542Y-73495488D02*
X151923685Y-73424060D01*
X151923685Y-73424060D02*
X151852257Y-73352631D01*
X151852257Y-73352631D02*
X151780828Y-73209774D01*
X151780828Y-73209774D02*
X151780828Y-72924060D01*
X151780828Y-72924060D02*
X151852257Y-72781203D01*
X152780828Y-72066917D02*
X151780828Y-72066917D01*
X151280828Y-72066917D02*
X151352257Y-72138345D01*
X151352257Y-72138345D02*
X151423685Y-72066917D01*
X151423685Y-72066917D02*
X151352257Y-71995488D01*
X151352257Y-71995488D02*
X151280828Y-72066917D01*
X151280828Y-72066917D02*
X151423685Y-72066917D01*
X152709400Y-70709774D02*
X152780828Y-70852631D01*
X152780828Y-70852631D02*
X152780828Y-71138345D01*
X152780828Y-71138345D02*
X152709400Y-71281202D01*
X152709400Y-71281202D02*
X152637971Y-71352631D01*
X152637971Y-71352631D02*
X152495114Y-71424059D01*
X152495114Y-71424059D02*
X152066542Y-71424059D01*
X152066542Y-71424059D02*
X151923685Y-71352631D01*
X151923685Y-71352631D02*
X151852257Y-71281202D01*
X151852257Y-71281202D02*
X151780828Y-71138345D01*
X151780828Y-71138345D02*
X151780828Y-70852631D01*
X151780828Y-70852631D02*
X151852257Y-70709774D01*
X152352257Y-70138345D02*
X152352257Y-69424060D01*
X152780828Y-70281202D02*
X151280828Y-69781202D01*
X151280828Y-69781202D02*
X152780828Y-69281202D01*
X151780828Y-68781203D02*
X152780828Y-68781203D01*
X151923685Y-68781203D02*
X151852257Y-68709774D01*
X151852257Y-68709774D02*
X151780828Y-68566917D01*
X151780828Y-68566917D02*
X151780828Y-68352631D01*
X151780828Y-68352631D02*
X151852257Y-68209774D01*
X151852257Y-68209774D02*
X151995114Y-68138346D01*
X151995114Y-68138346D02*
X152780828Y-68138346D01*
X152780828Y-66781203D02*
X151995114Y-66781203D01*
X151995114Y-66781203D02*
X151852257Y-66852631D01*
X151852257Y-66852631D02*
X151780828Y-66995488D01*
X151780828Y-66995488D02*
X151780828Y-67281203D01*
X151780828Y-67281203D02*
X151852257Y-67424060D01*
X152709400Y-66781203D02*
X152780828Y-66924060D01*
X152780828Y-66924060D02*
X152780828Y-67281203D01*
X152780828Y-67281203D02*
X152709400Y-67424060D01*
X152709400Y-67424060D02*
X152566542Y-67495488D01*
X152566542Y-67495488D02*
X152423685Y-67495488D01*
X152423685Y-67495488D02*
X152280828Y-67424060D01*
X152280828Y-67424060D02*
X152209400Y-67281203D01*
X152209400Y-67281203D02*
X152209400Y-66924060D01*
X152209400Y-66924060D02*
X152137971Y-66781203D01*
X152780828Y-65852631D02*
X152709400Y-65995488D01*
X152709400Y-65995488D02*
X152566542Y-66066917D01*
X152566542Y-66066917D02*
X151280828Y-66066917D01*
X151780828Y-65424060D02*
X152780828Y-65066917D01*
X151780828Y-64709774D02*
X152780828Y-65066917D01*
X152780828Y-65066917D02*
X153137971Y-65209774D01*
X153137971Y-65209774D02*
X153209400Y-65281203D01*
X153209400Y-65281203D02*
X153280828Y-65424060D01*
X151780828Y-64281203D02*
X151780828Y-63495489D01*
X151780828Y-63495489D02*
X152780828Y-64281203D01*
X152780828Y-64281203D02*
X152780828Y-63495489D01*
X152709400Y-62352631D02*
X152780828Y-62495488D01*
X152780828Y-62495488D02*
X152780828Y-62781203D01*
X152780828Y-62781203D02*
X152709400Y-62924060D01*
X152709400Y-62924060D02*
X152566542Y-62995488D01*
X152566542Y-62995488D02*
X151995114Y-62995488D01*
X151995114Y-62995488D02*
X151852257Y-62924060D01*
X151852257Y-62924060D02*
X151780828Y-62781203D01*
X151780828Y-62781203D02*
X151780828Y-62495488D01*
X151780828Y-62495488D02*
X151852257Y-62352631D01*
X151852257Y-62352631D02*
X151995114Y-62281203D01*
X151995114Y-62281203D02*
X152137971Y-62281203D01*
X152137971Y-62281203D02*
X152280828Y-62995488D01*
X152780828Y-61638346D02*
X151780828Y-61638346D01*
X152066542Y-61638346D02*
X151923685Y-61566917D01*
X151923685Y-61566917D02*
X151852257Y-61495489D01*
X151852257Y-61495489D02*
X151780828Y-61352631D01*
X151780828Y-61352631D02*
X151780828Y-61209774D01*
X151780828Y-59709775D02*
X152780828Y-59352632D01*
X152780828Y-59352632D02*
X151780828Y-58995489D01*
X152709400Y-57852632D02*
X152780828Y-57995489D01*
X152780828Y-57995489D02*
X152780828Y-58281204D01*
X152780828Y-58281204D02*
X152709400Y-58424061D01*
X152709400Y-58424061D02*
X152566542Y-58495489D01*
X152566542Y-58495489D02*
X151995114Y-58495489D01*
X151995114Y-58495489D02*
X151852257Y-58424061D01*
X151852257Y-58424061D02*
X151780828Y-58281204D01*
X151780828Y-58281204D02*
X151780828Y-57995489D01*
X151780828Y-57995489D02*
X151852257Y-57852632D01*
X151852257Y-57852632D02*
X151995114Y-57781204D01*
X151995114Y-57781204D02*
X152137971Y-57781204D01*
X152137971Y-57781204D02*
X152280828Y-58495489D01*
X152780828Y-57138347D02*
X151780828Y-57138347D01*
X152066542Y-57138347D02*
X151923685Y-57066918D01*
X151923685Y-57066918D02*
X151852257Y-56995490D01*
X151852257Y-56995490D02*
X151780828Y-56852632D01*
X151780828Y-56852632D02*
X151780828Y-56709775D01*
X152637971Y-56209776D02*
X152709400Y-56138347D01*
X152709400Y-56138347D02*
X152780828Y-56209776D01*
X152780828Y-56209776D02*
X152709400Y-56281204D01*
X152709400Y-56281204D02*
X152637971Y-56209776D01*
X152637971Y-56209776D02*
X152780828Y-56209776D01*
X151280828Y-54852633D02*
X151280828Y-55138347D01*
X151280828Y-55138347D02*
X151352257Y-55281204D01*
X151352257Y-55281204D02*
X151423685Y-55352633D01*
X151423685Y-55352633D02*
X151637971Y-55495490D01*
X151637971Y-55495490D02*
X151923685Y-55566918D01*
X151923685Y-55566918D02*
X152495114Y-55566918D01*
X152495114Y-55566918D02*
X152637971Y-55495490D01*
X152637971Y-55495490D02*
X152709400Y-55424061D01*
X152709400Y-55424061D02*
X152780828Y-55281204D01*
X152780828Y-55281204D02*
X152780828Y-54995490D01*
X152780828Y-54995490D02*
X152709400Y-54852633D01*
X152709400Y-54852633D02*
X152637971Y-54781204D01*
X152637971Y-54781204D02*
X152495114Y-54709775D01*
X152495114Y-54709775D02*
X152137971Y-54709775D01*
X152137971Y-54709775D02*
X151995114Y-54781204D01*
X151995114Y-54781204D02*
X151923685Y-54852633D01*
X151923685Y-54852633D02*
X151852257Y-54995490D01*
X151852257Y-54995490D02*
X151852257Y-55281204D01*
X151852257Y-55281204D02*
X151923685Y-55424061D01*
X151923685Y-55424061D02*
X151995114Y-55495490D01*
X151995114Y-55495490D02*
X152137971Y-55566918D01*
X152637971Y-54066919D02*
X152709400Y-53995490D01*
X152709400Y-53995490D02*
X152780828Y-54066919D01*
X152780828Y-54066919D02*
X152709400Y-54138347D01*
X152709400Y-54138347D02*
X152637971Y-54066919D01*
X152637971Y-54066919D02*
X152780828Y-54066919D01*
X151280828Y-53066918D02*
X151280828Y-52924061D01*
X151280828Y-52924061D02*
X151352257Y-52781204D01*
X151352257Y-52781204D02*
X151423685Y-52709776D01*
X151423685Y-52709776D02*
X151566542Y-52638347D01*
X151566542Y-52638347D02*
X151852257Y-52566918D01*
X151852257Y-52566918D02*
X152209400Y-52566918D01*
X152209400Y-52566918D02*
X152495114Y-52638347D01*
X152495114Y-52638347D02*
X152637971Y-52709776D01*
X152637971Y-52709776D02*
X152709400Y-52781204D01*
X152709400Y-52781204D02*
X152780828Y-52924061D01*
X152780828Y-52924061D02*
X152780828Y-53066918D01*
X152780828Y-53066918D02*
X152709400Y-53209776D01*
X152709400Y-53209776D02*
X152637971Y-53281204D01*
X152637971Y-53281204D02*
X152495114Y-53352633D01*
X152495114Y-53352633D02*
X152209400Y-53424061D01*
X152209400Y-53424061D02*
X151852257Y-53424061D01*
X151852257Y-53424061D02*
X151566542Y-53352633D01*
X151566542Y-53352633D02*
X151423685Y-53281204D01*
X151423685Y-53281204D02*
X151352257Y-53209776D01*
X151352257Y-53209776D02*
X151280828Y-53066918D01*
D10*
X121122054Y-80686266D02*
X121731578Y-80686266D01*
X121426816Y-81067219D02*
X121426816Y-80305314D01*
X122531577Y-81067219D02*
X122074434Y-81067219D01*
X122303006Y-81067219D02*
X122303006Y-80067219D01*
X122303006Y-80067219D02*
X122226815Y-80210076D01*
X122226815Y-80210076D02*
X122150625Y-80305314D01*
X122150625Y-80305314D02*
X122074434Y-80352933D01*
X122874435Y-80971980D02*
X122912530Y-81019600D01*
X122912530Y-81019600D02*
X122874435Y-81067219D01*
X122874435Y-81067219D02*
X122836339Y-81019600D01*
X122836339Y-81019600D02*
X122874435Y-80971980D01*
X122874435Y-80971980D02*
X122874435Y-81067219D01*
X123369672Y-80495790D02*
X123293482Y-80448171D01*
X123293482Y-80448171D02*
X123255387Y-80400552D01*
X123255387Y-80400552D02*
X123217291Y-80305314D01*
X123217291Y-80305314D02*
X123217291Y-80257695D01*
X123217291Y-80257695D02*
X123255387Y-80162457D01*
X123255387Y-80162457D02*
X123293482Y-80114838D01*
X123293482Y-80114838D02*
X123369672Y-80067219D01*
X123369672Y-80067219D02*
X123522053Y-80067219D01*
X123522053Y-80067219D02*
X123598244Y-80114838D01*
X123598244Y-80114838D02*
X123636339Y-80162457D01*
X123636339Y-80162457D02*
X123674434Y-80257695D01*
X123674434Y-80257695D02*
X123674434Y-80305314D01*
X123674434Y-80305314D02*
X123636339Y-80400552D01*
X123636339Y-80400552D02*
X123598244Y-80448171D01*
X123598244Y-80448171D02*
X123522053Y-80495790D01*
X123522053Y-80495790D02*
X123369672Y-80495790D01*
X123369672Y-80495790D02*
X123293482Y-80543409D01*
X123293482Y-80543409D02*
X123255387Y-80591028D01*
X123255387Y-80591028D02*
X123217291Y-80686266D01*
X123217291Y-80686266D02*
X123217291Y-80876742D01*
X123217291Y-80876742D02*
X123255387Y-80971980D01*
X123255387Y-80971980D02*
X123293482Y-81019600D01*
X123293482Y-81019600D02*
X123369672Y-81067219D01*
X123369672Y-81067219D02*
X123522053Y-81067219D01*
X123522053Y-81067219D02*
X123598244Y-81019600D01*
X123598244Y-81019600D02*
X123636339Y-80971980D01*
X123636339Y-80971980D02*
X123674434Y-80876742D01*
X123674434Y-80876742D02*
X123674434Y-80686266D01*
X123674434Y-80686266D02*
X123636339Y-80591028D01*
X123636339Y-80591028D02*
X123598244Y-80543409D01*
X123598244Y-80543409D02*
X123522053Y-80495790D01*
X123903006Y-80067219D02*
X124169673Y-81067219D01*
X124169673Y-81067219D02*
X124436339Y-80067219D01*
D12*
X155344675Y-67759523D02*
X154344675Y-67759523D01*
X154725627Y-67759523D02*
X154678008Y-67664285D01*
X154678008Y-67664285D02*
X154678008Y-67473809D01*
X154678008Y-67473809D02*
X154725627Y-67378571D01*
X154725627Y-67378571D02*
X154773246Y-67330952D01*
X154773246Y-67330952D02*
X154868484Y-67283333D01*
X154868484Y-67283333D02*
X155154198Y-67283333D01*
X155154198Y-67283333D02*
X155249436Y-67330952D01*
X155249436Y-67330952D02*
X155297056Y-67378571D01*
X155297056Y-67378571D02*
X155344675Y-67473809D01*
X155344675Y-67473809D02*
X155344675Y-67664285D01*
X155344675Y-67664285D02*
X155297056Y-67759523D01*
X154678008Y-66949999D02*
X155344675Y-66711904D01*
X154678008Y-66473809D02*
X155344675Y-66711904D01*
X155344675Y-66711904D02*
X155582770Y-66807142D01*
X155582770Y-66807142D02*
X155630389Y-66854761D01*
X155630389Y-66854761D02*
X155678008Y-66949999D01*
X154678008Y-64902380D02*
X155487532Y-64902380D01*
X155487532Y-64902380D02*
X155582770Y-64949999D01*
X155582770Y-64949999D02*
X155630389Y-64997618D01*
X155630389Y-64997618D02*
X155678008Y-65092856D01*
X155678008Y-65092856D02*
X155678008Y-65235713D01*
X155678008Y-65235713D02*
X155630389Y-65330951D01*
X155297056Y-64902380D02*
X155344675Y-64997618D01*
X155344675Y-64997618D02*
X155344675Y-65188094D01*
X155344675Y-65188094D02*
X155297056Y-65283332D01*
X155297056Y-65283332D02*
X155249436Y-65330951D01*
X155249436Y-65330951D02*
X155154198Y-65378570D01*
X155154198Y-65378570D02*
X154868484Y-65378570D01*
X154868484Y-65378570D02*
X154773246Y-65330951D01*
X154773246Y-65330951D02*
X154725627Y-65283332D01*
X154725627Y-65283332D02*
X154678008Y-65188094D01*
X154678008Y-65188094D02*
X154678008Y-64997618D01*
X154678008Y-64997618D02*
X154725627Y-64902380D01*
X154678008Y-63997618D02*
X155344675Y-63997618D01*
X154678008Y-64426189D02*
X155201817Y-64426189D01*
X155201817Y-64426189D02*
X155297056Y-64378570D01*
X155297056Y-64378570D02*
X155344675Y-64283332D01*
X155344675Y-64283332D02*
X155344675Y-64140475D01*
X155344675Y-64140475D02*
X155297056Y-64045237D01*
X155297056Y-64045237D02*
X155249436Y-63997618D01*
X155297056Y-63569046D02*
X155344675Y-63473808D01*
X155344675Y-63473808D02*
X155344675Y-63283332D01*
X155344675Y-63283332D02*
X155297056Y-63188094D01*
X155297056Y-63188094D02*
X155201817Y-63140475D01*
X155201817Y-63140475D02*
X155154198Y-63140475D01*
X155154198Y-63140475D02*
X155058960Y-63188094D01*
X155058960Y-63188094D02*
X155011341Y-63283332D01*
X155011341Y-63283332D02*
X155011341Y-63426189D01*
X155011341Y-63426189D02*
X154963722Y-63521427D01*
X154963722Y-63521427D02*
X154868484Y-63569046D01*
X154868484Y-63569046D02*
X154820865Y-63569046D01*
X154820865Y-63569046D02*
X154725627Y-63521427D01*
X154725627Y-63521427D02*
X154678008Y-63426189D01*
X154678008Y-63426189D02*
X154678008Y-63283332D01*
X154678008Y-63283332D02*
X154725627Y-63188094D01*
X155344675Y-62711903D02*
X154678008Y-62711903D01*
X154773246Y-62711903D02*
X154725627Y-62664284D01*
X154725627Y-62664284D02*
X154678008Y-62569046D01*
X154678008Y-62569046D02*
X154678008Y-62426189D01*
X154678008Y-62426189D02*
X154725627Y-62330951D01*
X154725627Y-62330951D02*
X154820865Y-62283332D01*
X154820865Y-62283332D02*
X155344675Y-62283332D01*
X154820865Y-62283332D02*
X154725627Y-62235713D01*
X154725627Y-62235713D02*
X154678008Y-62140475D01*
X154678008Y-62140475D02*
X154678008Y-61997618D01*
X154678008Y-61997618D02*
X154725627Y-61902379D01*
X154725627Y-61902379D02*
X154820865Y-61854760D01*
X154820865Y-61854760D02*
X155344675Y-61854760D01*
X155344675Y-60949999D02*
X154820865Y-60949999D01*
X154820865Y-60949999D02*
X154725627Y-60997618D01*
X154725627Y-60997618D02*
X154678008Y-61092856D01*
X154678008Y-61092856D02*
X154678008Y-61283332D01*
X154678008Y-61283332D02*
X154725627Y-61378570D01*
X155297056Y-60949999D02*
X155344675Y-61045237D01*
X155344675Y-61045237D02*
X155344675Y-61283332D01*
X155344675Y-61283332D02*
X155297056Y-61378570D01*
X155297056Y-61378570D02*
X155201817Y-61426189D01*
X155201817Y-61426189D02*
X155106579Y-61426189D01*
X155106579Y-61426189D02*
X155011341Y-61378570D01*
X155011341Y-61378570D02*
X154963722Y-61283332D01*
X154963722Y-61283332D02*
X154963722Y-61045237D01*
X154963722Y-61045237D02*
X154916103Y-60949999D01*
X154678008Y-60473808D02*
X155344675Y-60473808D01*
X154773246Y-60473808D02*
X154725627Y-60426189D01*
X154725627Y-60426189D02*
X154678008Y-60330951D01*
X154678008Y-60330951D02*
X154678008Y-60188094D01*
X154678008Y-60188094D02*
X154725627Y-60092856D01*
X154725627Y-60092856D02*
X154820865Y-60045237D01*
X154820865Y-60045237D02*
X155344675Y-60045237D01*
X155344675Y-59569046D02*
X154344675Y-59569046D01*
X154725627Y-59569046D02*
X154678008Y-59473808D01*
X154678008Y-59473808D02*
X154678008Y-59283332D01*
X154678008Y-59283332D02*
X154725627Y-59188094D01*
X154725627Y-59188094D02*
X154773246Y-59140475D01*
X154773246Y-59140475D02*
X154868484Y-59092856D01*
X154868484Y-59092856D02*
X155154198Y-59092856D01*
X155154198Y-59092856D02*
X155249436Y-59140475D01*
X155249436Y-59140475D02*
X155297056Y-59188094D01*
X155297056Y-59188094D02*
X155344675Y-59283332D01*
X155344675Y-59283332D02*
X155344675Y-59473808D01*
X155344675Y-59473808D02*
X155297056Y-59569046D01*
X156954619Y-79854762D02*
X155954619Y-79854762D01*
X156954619Y-79426191D02*
X156430809Y-79426191D01*
X156430809Y-79426191D02*
X156335571Y-79473810D01*
X156335571Y-79473810D02*
X156287952Y-79569048D01*
X156287952Y-79569048D02*
X156287952Y-79711905D01*
X156287952Y-79711905D02*
X156335571Y-79807143D01*
X156335571Y-79807143D02*
X156383190Y-79854762D01*
X156287952Y-79092857D02*
X156287952Y-78711905D01*
X155954619Y-78950000D02*
X156811761Y-78950000D01*
X156811761Y-78950000D02*
X156907000Y-78902381D01*
X156907000Y-78902381D02*
X156954619Y-78807143D01*
X156954619Y-78807143D02*
X156954619Y-78711905D01*
X156287952Y-78521428D02*
X156287952Y-78140476D01*
X155954619Y-78378571D02*
X156811761Y-78378571D01*
X156811761Y-78378571D02*
X156907000Y-78330952D01*
X156907000Y-78330952D02*
X156954619Y-78235714D01*
X156954619Y-78235714D02*
X156954619Y-78140476D01*
X156287952Y-77807142D02*
X157287952Y-77807142D01*
X156335571Y-77807142D02*
X156287952Y-77711904D01*
X156287952Y-77711904D02*
X156287952Y-77521428D01*
X156287952Y-77521428D02*
X156335571Y-77426190D01*
X156335571Y-77426190D02*
X156383190Y-77378571D01*
X156383190Y-77378571D02*
X156478428Y-77330952D01*
X156478428Y-77330952D02*
X156764142Y-77330952D01*
X156764142Y-77330952D02*
X156859380Y-77378571D01*
X156859380Y-77378571D02*
X156907000Y-77426190D01*
X156907000Y-77426190D02*
X156954619Y-77521428D01*
X156954619Y-77521428D02*
X156954619Y-77711904D01*
X156954619Y-77711904D02*
X156907000Y-77807142D01*
X156907000Y-76949999D02*
X156954619Y-76854761D01*
X156954619Y-76854761D02*
X156954619Y-76664285D01*
X156954619Y-76664285D02*
X156907000Y-76569047D01*
X156907000Y-76569047D02*
X156811761Y-76521428D01*
X156811761Y-76521428D02*
X156764142Y-76521428D01*
X156764142Y-76521428D02*
X156668904Y-76569047D01*
X156668904Y-76569047D02*
X156621285Y-76664285D01*
X156621285Y-76664285D02*
X156621285Y-76807142D01*
X156621285Y-76807142D02*
X156573666Y-76902380D01*
X156573666Y-76902380D02*
X156478428Y-76949999D01*
X156478428Y-76949999D02*
X156430809Y-76949999D01*
X156430809Y-76949999D02*
X156335571Y-76902380D01*
X156335571Y-76902380D02*
X156287952Y-76807142D01*
X156287952Y-76807142D02*
X156287952Y-76664285D01*
X156287952Y-76664285D02*
X156335571Y-76569047D01*
X156859380Y-76092856D02*
X156907000Y-76045237D01*
X156907000Y-76045237D02*
X156954619Y-76092856D01*
X156954619Y-76092856D02*
X156907000Y-76140475D01*
X156907000Y-76140475D02*
X156859380Y-76092856D01*
X156859380Y-76092856D02*
X156954619Y-76092856D01*
X156335571Y-76092856D02*
X156383190Y-76045237D01*
X156383190Y-76045237D02*
X156430809Y-76092856D01*
X156430809Y-76092856D02*
X156383190Y-76140475D01*
X156383190Y-76140475D02*
X156335571Y-76092856D01*
X156335571Y-76092856D02*
X156430809Y-76092856D01*
X155907000Y-74902381D02*
X157192714Y-75759523D01*
X155907000Y-73854762D02*
X157192714Y-74711904D01*
X156287952Y-73092857D02*
X157097476Y-73092857D01*
X157097476Y-73092857D02*
X157192714Y-73140476D01*
X157192714Y-73140476D02*
X157240333Y-73188095D01*
X157240333Y-73188095D02*
X157287952Y-73283333D01*
X157287952Y-73283333D02*
X157287952Y-73426190D01*
X157287952Y-73426190D02*
X157240333Y-73521428D01*
X156907000Y-73092857D02*
X156954619Y-73188095D01*
X156954619Y-73188095D02*
X156954619Y-73378571D01*
X156954619Y-73378571D02*
X156907000Y-73473809D01*
X156907000Y-73473809D02*
X156859380Y-73521428D01*
X156859380Y-73521428D02*
X156764142Y-73569047D01*
X156764142Y-73569047D02*
X156478428Y-73569047D01*
X156478428Y-73569047D02*
X156383190Y-73521428D01*
X156383190Y-73521428D02*
X156335571Y-73473809D01*
X156335571Y-73473809D02*
X156287952Y-73378571D01*
X156287952Y-73378571D02*
X156287952Y-73188095D01*
X156287952Y-73188095D02*
X156335571Y-73092857D01*
X156954619Y-72616666D02*
X156287952Y-72616666D01*
X155954619Y-72616666D02*
X156002238Y-72664285D01*
X156002238Y-72664285D02*
X156049857Y-72616666D01*
X156049857Y-72616666D02*
X156002238Y-72569047D01*
X156002238Y-72569047D02*
X155954619Y-72616666D01*
X155954619Y-72616666D02*
X156049857Y-72616666D01*
X156287952Y-72283333D02*
X156287952Y-71902381D01*
X155954619Y-72140476D02*
X156811761Y-72140476D01*
X156811761Y-72140476D02*
X156907000Y-72092857D01*
X156907000Y-72092857D02*
X156954619Y-71997619D01*
X156954619Y-71997619D02*
X156954619Y-71902381D01*
X156954619Y-71569047D02*
X155954619Y-71569047D01*
X156954619Y-71140476D02*
X156430809Y-71140476D01*
X156430809Y-71140476D02*
X156335571Y-71188095D01*
X156335571Y-71188095D02*
X156287952Y-71283333D01*
X156287952Y-71283333D02*
X156287952Y-71426190D01*
X156287952Y-71426190D02*
X156335571Y-71521428D01*
X156335571Y-71521428D02*
X156383190Y-71569047D01*
X156287952Y-70235714D02*
X156954619Y-70235714D01*
X156287952Y-70664285D02*
X156811761Y-70664285D01*
X156811761Y-70664285D02*
X156907000Y-70616666D01*
X156907000Y-70616666D02*
X156954619Y-70521428D01*
X156954619Y-70521428D02*
X156954619Y-70378571D01*
X156954619Y-70378571D02*
X156907000Y-70283333D01*
X156907000Y-70283333D02*
X156859380Y-70235714D01*
X156954619Y-69759523D02*
X155954619Y-69759523D01*
X156335571Y-69759523D02*
X156287952Y-69664285D01*
X156287952Y-69664285D02*
X156287952Y-69473809D01*
X156287952Y-69473809D02*
X156335571Y-69378571D01*
X156335571Y-69378571D02*
X156383190Y-69330952D01*
X156383190Y-69330952D02*
X156478428Y-69283333D01*
X156478428Y-69283333D02*
X156764142Y-69283333D01*
X156764142Y-69283333D02*
X156859380Y-69330952D01*
X156859380Y-69330952D02*
X156907000Y-69378571D01*
X156907000Y-69378571D02*
X156954619Y-69473809D01*
X156954619Y-69473809D02*
X156954619Y-69664285D01*
X156954619Y-69664285D02*
X156907000Y-69759523D01*
X156859380Y-68854761D02*
X156907000Y-68807142D01*
X156907000Y-68807142D02*
X156954619Y-68854761D01*
X156954619Y-68854761D02*
X156907000Y-68902380D01*
X156907000Y-68902380D02*
X156859380Y-68854761D01*
X156859380Y-68854761D02*
X156954619Y-68854761D01*
X156907000Y-67950000D02*
X156954619Y-68045238D01*
X156954619Y-68045238D02*
X156954619Y-68235714D01*
X156954619Y-68235714D02*
X156907000Y-68330952D01*
X156907000Y-68330952D02*
X156859380Y-68378571D01*
X156859380Y-68378571D02*
X156764142Y-68426190D01*
X156764142Y-68426190D02*
X156478428Y-68426190D01*
X156478428Y-68426190D02*
X156383190Y-68378571D01*
X156383190Y-68378571D02*
X156335571Y-68330952D01*
X156335571Y-68330952D02*
X156287952Y-68235714D01*
X156287952Y-68235714D02*
X156287952Y-68045238D01*
X156287952Y-68045238D02*
X156335571Y-67950000D01*
X156954619Y-67378571D02*
X156907000Y-67473809D01*
X156907000Y-67473809D02*
X156859380Y-67521428D01*
X156859380Y-67521428D02*
X156764142Y-67569047D01*
X156764142Y-67569047D02*
X156478428Y-67569047D01*
X156478428Y-67569047D02*
X156383190Y-67521428D01*
X156383190Y-67521428D02*
X156335571Y-67473809D01*
X156335571Y-67473809D02*
X156287952Y-67378571D01*
X156287952Y-67378571D02*
X156287952Y-67235714D01*
X156287952Y-67235714D02*
X156335571Y-67140476D01*
X156335571Y-67140476D02*
X156383190Y-67092857D01*
X156383190Y-67092857D02*
X156478428Y-67045238D01*
X156478428Y-67045238D02*
X156764142Y-67045238D01*
X156764142Y-67045238D02*
X156859380Y-67092857D01*
X156859380Y-67092857D02*
X156907000Y-67140476D01*
X156907000Y-67140476D02*
X156954619Y-67235714D01*
X156954619Y-67235714D02*
X156954619Y-67378571D01*
X156954619Y-66616666D02*
X156287952Y-66616666D01*
X156383190Y-66616666D02*
X156335571Y-66569047D01*
X156335571Y-66569047D02*
X156287952Y-66473809D01*
X156287952Y-66473809D02*
X156287952Y-66330952D01*
X156287952Y-66330952D02*
X156335571Y-66235714D01*
X156335571Y-66235714D02*
X156430809Y-66188095D01*
X156430809Y-66188095D02*
X156954619Y-66188095D01*
X156430809Y-66188095D02*
X156335571Y-66140476D01*
X156335571Y-66140476D02*
X156287952Y-66045238D01*
X156287952Y-66045238D02*
X156287952Y-65902381D01*
X156287952Y-65902381D02*
X156335571Y-65807142D01*
X156335571Y-65807142D02*
X156430809Y-65759523D01*
X156430809Y-65759523D02*
X156954619Y-65759523D01*
X155907000Y-64569048D02*
X157192714Y-65426190D01*
X156287952Y-63807143D02*
X157097476Y-63807143D01*
X157097476Y-63807143D02*
X157192714Y-63854762D01*
X157192714Y-63854762D02*
X157240333Y-63902381D01*
X157240333Y-63902381D02*
X157287952Y-63997619D01*
X157287952Y-63997619D02*
X157287952Y-64140476D01*
X157287952Y-64140476D02*
X157240333Y-64235714D01*
X156907000Y-63807143D02*
X156954619Y-63902381D01*
X156954619Y-63902381D02*
X156954619Y-64092857D01*
X156954619Y-64092857D02*
X156907000Y-64188095D01*
X156907000Y-64188095D02*
X156859380Y-64235714D01*
X156859380Y-64235714D02*
X156764142Y-64283333D01*
X156764142Y-64283333D02*
X156478428Y-64283333D01*
X156478428Y-64283333D02*
X156383190Y-64235714D01*
X156383190Y-64235714D02*
X156335571Y-64188095D01*
X156335571Y-64188095D02*
X156287952Y-64092857D01*
X156287952Y-64092857D02*
X156287952Y-63902381D01*
X156287952Y-63902381D02*
X156335571Y-63807143D01*
X156287952Y-62902381D02*
X156954619Y-62902381D01*
X156287952Y-63330952D02*
X156811761Y-63330952D01*
X156811761Y-63330952D02*
X156907000Y-63283333D01*
X156907000Y-63283333D02*
X156954619Y-63188095D01*
X156954619Y-63188095D02*
X156954619Y-63045238D01*
X156954619Y-63045238D02*
X156907000Y-62950000D01*
X156907000Y-62950000D02*
X156859380Y-62902381D01*
X156907000Y-62473809D02*
X156954619Y-62378571D01*
X156954619Y-62378571D02*
X156954619Y-62188095D01*
X156954619Y-62188095D02*
X156907000Y-62092857D01*
X156907000Y-62092857D02*
X156811761Y-62045238D01*
X156811761Y-62045238D02*
X156764142Y-62045238D01*
X156764142Y-62045238D02*
X156668904Y-62092857D01*
X156668904Y-62092857D02*
X156621285Y-62188095D01*
X156621285Y-62188095D02*
X156621285Y-62330952D01*
X156621285Y-62330952D02*
X156573666Y-62426190D01*
X156573666Y-62426190D02*
X156478428Y-62473809D01*
X156478428Y-62473809D02*
X156430809Y-62473809D01*
X156430809Y-62473809D02*
X156335571Y-62426190D01*
X156335571Y-62426190D02*
X156287952Y-62330952D01*
X156287952Y-62330952D02*
X156287952Y-62188095D01*
X156287952Y-62188095D02*
X156335571Y-62092857D01*
X156954619Y-61616666D02*
X156287952Y-61616666D01*
X156383190Y-61616666D02*
X156335571Y-61569047D01*
X156335571Y-61569047D02*
X156287952Y-61473809D01*
X156287952Y-61473809D02*
X156287952Y-61330952D01*
X156287952Y-61330952D02*
X156335571Y-61235714D01*
X156335571Y-61235714D02*
X156430809Y-61188095D01*
X156430809Y-61188095D02*
X156954619Y-61188095D01*
X156430809Y-61188095D02*
X156335571Y-61140476D01*
X156335571Y-61140476D02*
X156287952Y-61045238D01*
X156287952Y-61045238D02*
X156287952Y-60902381D01*
X156287952Y-60902381D02*
X156335571Y-60807142D01*
X156335571Y-60807142D02*
X156430809Y-60759523D01*
X156430809Y-60759523D02*
X156954619Y-60759523D01*
X156954619Y-59854762D02*
X156430809Y-59854762D01*
X156430809Y-59854762D02*
X156335571Y-59902381D01*
X156335571Y-59902381D02*
X156287952Y-59997619D01*
X156287952Y-59997619D02*
X156287952Y-60188095D01*
X156287952Y-60188095D02*
X156335571Y-60283333D01*
X156907000Y-59854762D02*
X156954619Y-59950000D01*
X156954619Y-59950000D02*
X156954619Y-60188095D01*
X156954619Y-60188095D02*
X156907000Y-60283333D01*
X156907000Y-60283333D02*
X156811761Y-60330952D01*
X156811761Y-60330952D02*
X156716523Y-60330952D01*
X156716523Y-60330952D02*
X156621285Y-60283333D01*
X156621285Y-60283333D02*
X156573666Y-60188095D01*
X156573666Y-60188095D02*
X156573666Y-59950000D01*
X156573666Y-59950000D02*
X156526047Y-59854762D01*
X156287952Y-59378571D02*
X156954619Y-59378571D01*
X156383190Y-59378571D02*
X156335571Y-59330952D01*
X156335571Y-59330952D02*
X156287952Y-59235714D01*
X156287952Y-59235714D02*
X156287952Y-59092857D01*
X156287952Y-59092857D02*
X156335571Y-58997619D01*
X156335571Y-58997619D02*
X156430809Y-58950000D01*
X156430809Y-58950000D02*
X156954619Y-58950000D01*
X156954619Y-58473809D02*
X155954619Y-58473809D01*
X156335571Y-58473809D02*
X156287952Y-58378571D01*
X156287952Y-58378571D02*
X156287952Y-58188095D01*
X156287952Y-58188095D02*
X156335571Y-58092857D01*
X156335571Y-58092857D02*
X156383190Y-58045238D01*
X156383190Y-58045238D02*
X156478428Y-57997619D01*
X156478428Y-57997619D02*
X156764142Y-57997619D01*
X156764142Y-57997619D02*
X156859380Y-58045238D01*
X156859380Y-58045238D02*
X156907000Y-58092857D01*
X156907000Y-58092857D02*
X156954619Y-58188095D01*
X156954619Y-58188095D02*
X156954619Y-58378571D01*
X156954619Y-58378571D02*
X156907000Y-58473809D01*
X155907000Y-56854762D02*
X157192714Y-57711904D01*
X156954619Y-56378571D02*
X156907000Y-56473809D01*
X156907000Y-56473809D02*
X156811761Y-56521428D01*
X156811761Y-56521428D02*
X155954619Y-56521428D01*
X156954619Y-55854761D02*
X156907000Y-55949999D01*
X156907000Y-55949999D02*
X156859380Y-55997618D01*
X156859380Y-55997618D02*
X156764142Y-56045237D01*
X156764142Y-56045237D02*
X156478428Y-56045237D01*
X156478428Y-56045237D02*
X156383190Y-55997618D01*
X156383190Y-55997618D02*
X156335571Y-55949999D01*
X156335571Y-55949999D02*
X156287952Y-55854761D01*
X156287952Y-55854761D02*
X156287952Y-55711904D01*
X156287952Y-55711904D02*
X156335571Y-55616666D01*
X156335571Y-55616666D02*
X156383190Y-55569047D01*
X156383190Y-55569047D02*
X156478428Y-55521428D01*
X156478428Y-55521428D02*
X156764142Y-55521428D01*
X156764142Y-55521428D02*
X156859380Y-55569047D01*
X156859380Y-55569047D02*
X156907000Y-55616666D01*
X156907000Y-55616666D02*
X156954619Y-55711904D01*
X156954619Y-55711904D02*
X156954619Y-55854761D01*
X156287952Y-54664285D02*
X157097476Y-54664285D01*
X157097476Y-54664285D02*
X157192714Y-54711904D01*
X157192714Y-54711904D02*
X157240333Y-54759523D01*
X157240333Y-54759523D02*
X157287952Y-54854761D01*
X157287952Y-54854761D02*
X157287952Y-54997618D01*
X157287952Y-54997618D02*
X157240333Y-55092856D01*
X156907000Y-54664285D02*
X156954619Y-54759523D01*
X156954619Y-54759523D02*
X156954619Y-54949999D01*
X156954619Y-54949999D02*
X156907000Y-55045237D01*
X156907000Y-55045237D02*
X156859380Y-55092856D01*
X156859380Y-55092856D02*
X156764142Y-55140475D01*
X156764142Y-55140475D02*
X156478428Y-55140475D01*
X156478428Y-55140475D02*
X156383190Y-55092856D01*
X156383190Y-55092856D02*
X156335571Y-55045237D01*
X156335571Y-55045237D02*
X156287952Y-54949999D01*
X156287952Y-54949999D02*
X156287952Y-54759523D01*
X156287952Y-54759523D02*
X156335571Y-54664285D01*
X156954619Y-54188094D02*
X156287952Y-54188094D01*
X155954619Y-54188094D02*
X156002238Y-54235713D01*
X156002238Y-54235713D02*
X156049857Y-54188094D01*
X156049857Y-54188094D02*
X156002238Y-54140475D01*
X156002238Y-54140475D02*
X155954619Y-54188094D01*
X155954619Y-54188094D02*
X156049857Y-54188094D01*
X156907000Y-53283333D02*
X156954619Y-53378571D01*
X156954619Y-53378571D02*
X156954619Y-53569047D01*
X156954619Y-53569047D02*
X156907000Y-53664285D01*
X156907000Y-53664285D02*
X156859380Y-53711904D01*
X156859380Y-53711904D02*
X156764142Y-53759523D01*
X156764142Y-53759523D02*
X156478428Y-53759523D01*
X156478428Y-53759523D02*
X156383190Y-53711904D01*
X156383190Y-53711904D02*
X156335571Y-53664285D01*
X156335571Y-53664285D02*
X156287952Y-53569047D01*
X156287952Y-53569047D02*
X156287952Y-53378571D01*
X156287952Y-53378571D02*
X156335571Y-53283333D01*
X156954619Y-52426190D02*
X156430809Y-52426190D01*
X156430809Y-52426190D02*
X156335571Y-52473809D01*
X156335571Y-52473809D02*
X156287952Y-52569047D01*
X156287952Y-52569047D02*
X156287952Y-52759523D01*
X156287952Y-52759523D02*
X156335571Y-52854761D01*
X156907000Y-52426190D02*
X156954619Y-52521428D01*
X156954619Y-52521428D02*
X156954619Y-52759523D01*
X156954619Y-52759523D02*
X156907000Y-52854761D01*
X156907000Y-52854761D02*
X156811761Y-52902380D01*
X156811761Y-52902380D02*
X156716523Y-52902380D01*
X156716523Y-52902380D02*
X156621285Y-52854761D01*
X156621285Y-52854761D02*
X156573666Y-52759523D01*
X156573666Y-52759523D02*
X156573666Y-52521428D01*
X156573666Y-52521428D02*
X156526047Y-52426190D01*
X156287952Y-51949999D02*
X156954619Y-51949999D01*
X156383190Y-51949999D02*
X156335571Y-51902380D01*
X156335571Y-51902380D02*
X156287952Y-51807142D01*
X156287952Y-51807142D02*
X156287952Y-51664285D01*
X156287952Y-51664285D02*
X156335571Y-51569047D01*
X156335571Y-51569047D02*
X156430809Y-51521428D01*
X156430809Y-51521428D02*
X156954619Y-51521428D01*
X156954619Y-50616666D02*
X156430809Y-50616666D01*
X156430809Y-50616666D02*
X156335571Y-50664285D01*
X156335571Y-50664285D02*
X156287952Y-50759523D01*
X156287952Y-50759523D02*
X156287952Y-50949999D01*
X156287952Y-50949999D02*
X156335571Y-51045237D01*
X156907000Y-50616666D02*
X156954619Y-50711904D01*
X156954619Y-50711904D02*
X156954619Y-50949999D01*
X156954619Y-50949999D02*
X156907000Y-51045237D01*
X156907000Y-51045237D02*
X156811761Y-51092856D01*
X156811761Y-51092856D02*
X156716523Y-51092856D01*
X156716523Y-51092856D02*
X156621285Y-51045237D01*
X156621285Y-51045237D02*
X156573666Y-50949999D01*
X156573666Y-50949999D02*
X156573666Y-50711904D01*
X156573666Y-50711904D02*
X156526047Y-50616666D01*
X156954619Y-49997618D02*
X156907000Y-50092856D01*
X156907000Y-50092856D02*
X156811761Y-50140475D01*
X156811761Y-50140475D02*
X155954619Y-50140475D01*
X156287952Y-49711903D02*
X156954619Y-49473808D01*
X156287952Y-49235713D02*
X156954619Y-49473808D01*
X156954619Y-49473808D02*
X157192714Y-49569046D01*
X157192714Y-49569046D02*
X157240333Y-49616665D01*
X157240333Y-49616665D02*
X157287952Y-49711903D01*
X156287952Y-48949998D02*
X156287952Y-48426189D01*
X156287952Y-48426189D02*
X156954619Y-48949998D01*
X156954619Y-48949998D02*
X156954619Y-48426189D01*
X156907000Y-47664284D02*
X156954619Y-47759522D01*
X156954619Y-47759522D02*
X156954619Y-47949998D01*
X156954619Y-47949998D02*
X156907000Y-48045236D01*
X156907000Y-48045236D02*
X156811761Y-48092855D01*
X156811761Y-48092855D02*
X156430809Y-48092855D01*
X156430809Y-48092855D02*
X156335571Y-48045236D01*
X156335571Y-48045236D02*
X156287952Y-47949998D01*
X156287952Y-47949998D02*
X156287952Y-47759522D01*
X156287952Y-47759522D02*
X156335571Y-47664284D01*
X156335571Y-47664284D02*
X156430809Y-47616665D01*
X156430809Y-47616665D02*
X156526047Y-47616665D01*
X156526047Y-47616665D02*
X156621285Y-48092855D01*
X156954619Y-47188093D02*
X156287952Y-47188093D01*
X156478428Y-47188093D02*
X156383190Y-47140474D01*
X156383190Y-47140474D02*
X156335571Y-47092855D01*
X156335571Y-47092855D02*
X156287952Y-46997617D01*
X156287952Y-46997617D02*
X156287952Y-46902379D01*
D10*
X157455714Y-81327219D02*
X156998571Y-81327219D01*
X157227143Y-81327219D02*
X157227143Y-80327219D01*
X157227143Y-80327219D02*
X157150952Y-80470076D01*
X157150952Y-80470076D02*
X157074762Y-80565314D01*
X157074762Y-80565314D02*
X156998571Y-80612933D01*
X157760476Y-81041504D02*
X158141429Y-81041504D01*
X157684286Y-81327219D02*
X157950953Y-80327219D01*
X157950953Y-80327219D02*
X158217619Y-81327219D01*
X151422054Y-83086266D02*
X152031578Y-83086266D01*
X151726816Y-83467219D02*
X151726816Y-82705314D01*
X152793482Y-82467219D02*
X152412530Y-82467219D01*
X152412530Y-82467219D02*
X152374434Y-82943409D01*
X152374434Y-82943409D02*
X152412530Y-82895790D01*
X152412530Y-82895790D02*
X152488720Y-82848171D01*
X152488720Y-82848171D02*
X152679196Y-82848171D01*
X152679196Y-82848171D02*
X152755387Y-82895790D01*
X152755387Y-82895790D02*
X152793482Y-82943409D01*
X152793482Y-82943409D02*
X152831577Y-83038647D01*
X152831577Y-83038647D02*
X152831577Y-83276742D01*
X152831577Y-83276742D02*
X152793482Y-83371980D01*
X152793482Y-83371980D02*
X152755387Y-83419600D01*
X152755387Y-83419600D02*
X152679196Y-83467219D01*
X152679196Y-83467219D02*
X152488720Y-83467219D01*
X152488720Y-83467219D02*
X152412530Y-83419600D01*
X152412530Y-83419600D02*
X152374434Y-83371980D01*
X153060149Y-82467219D02*
X153326816Y-83467219D01*
X153326816Y-83467219D02*
X153593482Y-82467219D01*
X121122054Y-83186266D02*
X121731578Y-83186266D01*
X121426816Y-83567219D02*
X121426816Y-82805314D01*
X122074434Y-82662457D02*
X122112530Y-82614838D01*
X122112530Y-82614838D02*
X122188720Y-82567219D01*
X122188720Y-82567219D02*
X122379196Y-82567219D01*
X122379196Y-82567219D02*
X122455387Y-82614838D01*
X122455387Y-82614838D02*
X122493482Y-82662457D01*
X122493482Y-82662457D02*
X122531577Y-82757695D01*
X122531577Y-82757695D02*
X122531577Y-82852933D01*
X122531577Y-82852933D02*
X122493482Y-82995790D01*
X122493482Y-82995790D02*
X122036339Y-83567219D01*
X122036339Y-83567219D02*
X122531577Y-83567219D01*
X122874435Y-83471980D02*
X122912530Y-83519600D01*
X122912530Y-83519600D02*
X122874435Y-83567219D01*
X122874435Y-83567219D02*
X122836339Y-83519600D01*
X122836339Y-83519600D02*
X122874435Y-83471980D01*
X122874435Y-83471980D02*
X122874435Y-83567219D01*
X123636339Y-82567219D02*
X123255387Y-82567219D01*
X123255387Y-82567219D02*
X123217291Y-83043409D01*
X123217291Y-83043409D02*
X123255387Y-82995790D01*
X123255387Y-82995790D02*
X123331577Y-82948171D01*
X123331577Y-82948171D02*
X123522053Y-82948171D01*
X123522053Y-82948171D02*
X123598244Y-82995790D01*
X123598244Y-82995790D02*
X123636339Y-83043409D01*
X123636339Y-83043409D02*
X123674434Y-83138647D01*
X123674434Y-83138647D02*
X123674434Y-83376742D01*
X123674434Y-83376742D02*
X123636339Y-83471980D01*
X123636339Y-83471980D02*
X123598244Y-83519600D01*
X123598244Y-83519600D02*
X123522053Y-83567219D01*
X123522053Y-83567219D02*
X123331577Y-83567219D01*
X123331577Y-83567219D02*
X123255387Y-83519600D01*
X123255387Y-83519600D02*
X123217291Y-83471980D01*
X123903006Y-82567219D02*
X124169673Y-83567219D01*
X124169673Y-83567219D02*
X124436339Y-82567219D01*
D13*
X128172319Y-80958094D02*
X128981842Y-80958094D01*
X128981842Y-80958094D02*
X129077080Y-80910475D01*
X129077080Y-80910475D02*
X129124700Y-80862856D01*
X129124700Y-80862856D02*
X129172319Y-80767618D01*
X129172319Y-80767618D02*
X129172319Y-80577142D01*
X129172319Y-80577142D02*
X129124700Y-80481904D01*
X129124700Y-80481904D02*
X129077080Y-80434285D01*
X129077080Y-80434285D02*
X128981842Y-80386666D01*
X128981842Y-80386666D02*
X128172319Y-80386666D01*
X129172319Y-79386666D02*
X129172319Y-79958094D01*
X129172319Y-79672380D02*
X128172319Y-79672380D01*
X128172319Y-79672380D02*
X128315176Y-79767618D01*
X128315176Y-79767618D02*
X128410414Y-79862856D01*
X128410414Y-79862856D02*
X128458033Y-79958094D01*
X128172319Y-79053332D02*
X128172319Y-78434285D01*
X128172319Y-78434285D02*
X128553271Y-78767618D01*
X128553271Y-78767618D02*
X128553271Y-78624761D01*
X128553271Y-78624761D02*
X128600890Y-78529523D01*
X128600890Y-78529523D02*
X128648509Y-78481904D01*
X128648509Y-78481904D02*
X128743747Y-78434285D01*
X128743747Y-78434285D02*
X128981842Y-78434285D01*
X128981842Y-78434285D02*
X129077080Y-78481904D01*
X129077080Y-78481904D02*
X129124700Y-78529523D01*
X129124700Y-78529523D02*
X129172319Y-78624761D01*
X129172319Y-78624761D02*
X129172319Y-78910475D01*
X129172319Y-78910475D02*
X129124700Y-79005713D01*
X129124700Y-79005713D02*
X129077080Y-79053332D01*
D10*
X130744742Y-121693482D02*
X131716171Y-121693482D01*
X131716171Y-121693482D02*
X131830457Y-121645863D01*
X131830457Y-121645863D02*
X131887600Y-121598244D01*
X131887600Y-121598244D02*
X131944742Y-121503006D01*
X131944742Y-121503006D02*
X131944742Y-121312530D01*
X131944742Y-121312530D02*
X131887600Y-121217292D01*
X131887600Y-121217292D02*
X131830457Y-121169673D01*
X131830457Y-121169673D02*
X131716171Y-121122054D01*
X131716171Y-121122054D02*
X130744742Y-121122054D01*
X130744742Y-120169673D02*
X130744742Y-120645863D01*
X130744742Y-120645863D02*
X131316171Y-120693482D01*
X131316171Y-120693482D02*
X131259028Y-120645863D01*
X131259028Y-120645863D02*
X131201885Y-120550625D01*
X131201885Y-120550625D02*
X131201885Y-120312530D01*
X131201885Y-120312530D02*
X131259028Y-120217292D01*
X131259028Y-120217292D02*
X131316171Y-120169673D01*
X131316171Y-120169673D02*
X131430457Y-120122054D01*
X131430457Y-120122054D02*
X131716171Y-120122054D01*
X131716171Y-120122054D02*
X131830457Y-120169673D01*
X131830457Y-120169673D02*
X131887600Y-120217292D01*
X131887600Y-120217292D02*
X131944742Y-120312530D01*
X131944742Y-120312530D02*
X131944742Y-120550625D01*
X131944742Y-120550625D02*
X131887600Y-120645863D01*
X131887600Y-120645863D02*
X131830457Y-120693482D01*
D13*
X155226666Y-80841009D02*
X154893333Y-80841009D01*
X154893333Y-81364819D02*
X154893333Y-80364819D01*
X154893333Y-80364819D02*
X155369523Y-80364819D01*
X156274285Y-81364819D02*
X155702857Y-81364819D01*
X155988571Y-81364819D02*
X155988571Y-80364819D01*
X155988571Y-80364819D02*
X155893333Y-80507676D01*
X155893333Y-80507676D02*
X155798095Y-80602914D01*
X155798095Y-80602914D02*
X155702857Y-80650533D01*
X119893333Y-108489580D02*
X119845714Y-108537200D01*
X119845714Y-108537200D02*
X119702857Y-108584819D01*
X119702857Y-108584819D02*
X119607619Y-108584819D01*
X119607619Y-108584819D02*
X119464762Y-108537200D01*
X119464762Y-108537200D02*
X119369524Y-108441961D01*
X119369524Y-108441961D02*
X119321905Y-108346723D01*
X119321905Y-108346723D02*
X119274286Y-108156247D01*
X119274286Y-108156247D02*
X119274286Y-108013390D01*
X119274286Y-108013390D02*
X119321905Y-107822914D01*
X119321905Y-107822914D02*
X119369524Y-107727676D01*
X119369524Y-107727676D02*
X119464762Y-107632438D01*
X119464762Y-107632438D02*
X119607619Y-107584819D01*
X119607619Y-107584819D02*
X119702857Y-107584819D01*
X119702857Y-107584819D02*
X119845714Y-107632438D01*
X119845714Y-107632438D02*
X119893333Y-107680057D01*
X120274286Y-107680057D02*
X120321905Y-107632438D01*
X120321905Y-107632438D02*
X120417143Y-107584819D01*
X120417143Y-107584819D02*
X120655238Y-107584819D01*
X120655238Y-107584819D02*
X120750476Y-107632438D01*
X120750476Y-107632438D02*
X120798095Y-107680057D01*
X120798095Y-107680057D02*
X120845714Y-107775295D01*
X120845714Y-107775295D02*
X120845714Y-107870533D01*
X120845714Y-107870533D02*
X120798095Y-108013390D01*
X120798095Y-108013390D02*
X120226667Y-108584819D01*
X120226667Y-108584819D02*
X120845714Y-108584819D01*
X143087142Y-79779580D02*
X143039523Y-79827200D01*
X143039523Y-79827200D02*
X142896666Y-79874819D01*
X142896666Y-79874819D02*
X142801428Y-79874819D01*
X142801428Y-79874819D02*
X142658571Y-79827200D01*
X142658571Y-79827200D02*
X142563333Y-79731961D01*
X142563333Y-79731961D02*
X142515714Y-79636723D01*
X142515714Y-79636723D02*
X142468095Y-79446247D01*
X142468095Y-79446247D02*
X142468095Y-79303390D01*
X142468095Y-79303390D02*
X142515714Y-79112914D01*
X142515714Y-79112914D02*
X142563333Y-79017676D01*
X142563333Y-79017676D02*
X142658571Y-78922438D01*
X142658571Y-78922438D02*
X142801428Y-78874819D01*
X142801428Y-78874819D02*
X142896666Y-78874819D01*
X142896666Y-78874819D02*
X143039523Y-78922438D01*
X143039523Y-78922438D02*
X143087142Y-78970057D01*
X144039523Y-79874819D02*
X143468095Y-79874819D01*
X143753809Y-79874819D02*
X143753809Y-78874819D01*
X143753809Y-78874819D02*
X143658571Y-79017676D01*
X143658571Y-79017676D02*
X143563333Y-79112914D01*
X143563333Y-79112914D02*
X143468095Y-79160533D01*
X144372857Y-78874819D02*
X145039523Y-78874819D01*
X145039523Y-78874819D02*
X144610952Y-79874819D01*
X118516666Y-79281009D02*
X118183333Y-79281009D01*
X118183333Y-79804819D02*
X118183333Y-78804819D01*
X118183333Y-78804819D02*
X118659523Y-78804819D01*
X119373809Y-79281009D02*
X119516666Y-79328628D01*
X119516666Y-79328628D02*
X119564285Y-79376247D01*
X119564285Y-79376247D02*
X119611904Y-79471485D01*
X119611904Y-79471485D02*
X119611904Y-79614342D01*
X119611904Y-79614342D02*
X119564285Y-79709580D01*
X119564285Y-79709580D02*
X119516666Y-79757200D01*
X119516666Y-79757200D02*
X119421428Y-79804819D01*
X119421428Y-79804819D02*
X119040476Y-79804819D01*
X119040476Y-79804819D02*
X119040476Y-78804819D01*
X119040476Y-78804819D02*
X119373809Y-78804819D01*
X119373809Y-78804819D02*
X119469047Y-78852438D01*
X119469047Y-78852438D02*
X119516666Y-78900057D01*
X119516666Y-78900057D02*
X119564285Y-78995295D01*
X119564285Y-78995295D02*
X119564285Y-79090533D01*
X119564285Y-79090533D02*
X119516666Y-79185771D01*
X119516666Y-79185771D02*
X119469047Y-79233390D01*
X119469047Y-79233390D02*
X119373809Y-79281009D01*
X119373809Y-79281009D02*
X119040476Y-79281009D01*
X119945238Y-78804819D02*
X120564285Y-78804819D01*
X120564285Y-78804819D02*
X120230952Y-79185771D01*
X120230952Y-79185771D02*
X120373809Y-79185771D01*
X120373809Y-79185771D02*
X120469047Y-79233390D01*
X120469047Y-79233390D02*
X120516666Y-79281009D01*
X120516666Y-79281009D02*
X120564285Y-79376247D01*
X120564285Y-79376247D02*
X120564285Y-79614342D01*
X120564285Y-79614342D02*
X120516666Y-79709580D01*
X120516666Y-79709580D02*
X120469047Y-79757200D01*
X120469047Y-79757200D02*
X120373809Y-79804819D01*
X120373809Y-79804819D02*
X120088095Y-79804819D01*
X120088095Y-79804819D02*
X119992857Y-79757200D01*
X119992857Y-79757200D02*
X119945238Y-79709580D01*
X129167142Y-141709580D02*
X129119523Y-141757200D01*
X129119523Y-141757200D02*
X128976666Y-141804819D01*
X128976666Y-141804819D02*
X128881428Y-141804819D01*
X128881428Y-141804819D02*
X128738571Y-141757200D01*
X128738571Y-141757200D02*
X128643333Y-141661961D01*
X128643333Y-141661961D02*
X128595714Y-141566723D01*
X128595714Y-141566723D02*
X128548095Y-141376247D01*
X128548095Y-141376247D02*
X128548095Y-141233390D01*
X128548095Y-141233390D02*
X128595714Y-141042914D01*
X128595714Y-141042914D02*
X128643333Y-140947676D01*
X128643333Y-140947676D02*
X128738571Y-140852438D01*
X128738571Y-140852438D02*
X128881428Y-140804819D01*
X128881428Y-140804819D02*
X128976666Y-140804819D01*
X128976666Y-140804819D02*
X129119523Y-140852438D01*
X129119523Y-140852438D02*
X129167142Y-140900057D01*
X129548095Y-140900057D02*
X129595714Y-140852438D01*
X129595714Y-140852438D02*
X129690952Y-140804819D01*
X129690952Y-140804819D02*
X129929047Y-140804819D01*
X129929047Y-140804819D02*
X130024285Y-140852438D01*
X130024285Y-140852438D02*
X130071904Y-140900057D01*
X130071904Y-140900057D02*
X130119523Y-140995295D01*
X130119523Y-140995295D02*
X130119523Y-141090533D01*
X130119523Y-141090533D02*
X130071904Y-141233390D01*
X130071904Y-141233390D02*
X129500476Y-141804819D01*
X129500476Y-141804819D02*
X130119523Y-141804819D01*
X130452857Y-140804819D02*
X131119523Y-140804819D01*
X131119523Y-140804819D02*
X130690952Y-141804819D01*
X144847142Y-70799580D02*
X144799523Y-70847200D01*
X144799523Y-70847200D02*
X144656666Y-70894819D01*
X144656666Y-70894819D02*
X144561428Y-70894819D01*
X144561428Y-70894819D02*
X144418571Y-70847200D01*
X144418571Y-70847200D02*
X144323333Y-70751961D01*
X144323333Y-70751961D02*
X144275714Y-70656723D01*
X144275714Y-70656723D02*
X144228095Y-70466247D01*
X144228095Y-70466247D02*
X144228095Y-70323390D01*
X144228095Y-70323390D02*
X144275714Y-70132914D01*
X144275714Y-70132914D02*
X144323333Y-70037676D01*
X144323333Y-70037676D02*
X144418571Y-69942438D01*
X144418571Y-69942438D02*
X144561428Y-69894819D01*
X144561428Y-69894819D02*
X144656666Y-69894819D01*
X144656666Y-69894819D02*
X144799523Y-69942438D01*
X144799523Y-69942438D02*
X144847142Y-69990057D01*
X145799523Y-70894819D02*
X145228095Y-70894819D01*
X145513809Y-70894819D02*
X145513809Y-69894819D01*
X145513809Y-69894819D02*
X145418571Y-70037676D01*
X145418571Y-70037676D02*
X145323333Y-70132914D01*
X145323333Y-70132914D02*
X145228095Y-70180533D01*
X146704285Y-69894819D02*
X146228095Y-69894819D01*
X146228095Y-69894819D02*
X146180476Y-70371009D01*
X146180476Y-70371009D02*
X146228095Y-70323390D01*
X146228095Y-70323390D02*
X146323333Y-70275771D01*
X146323333Y-70275771D02*
X146561428Y-70275771D01*
X146561428Y-70275771D02*
X146656666Y-70323390D01*
X146656666Y-70323390D02*
X146704285Y-70371009D01*
X146704285Y-70371009D02*
X146751904Y-70466247D01*
X146751904Y-70466247D02*
X146751904Y-70704342D01*
X146751904Y-70704342D02*
X146704285Y-70799580D01*
X146704285Y-70799580D02*
X146656666Y-70847200D01*
X146656666Y-70847200D02*
X146561428Y-70894819D01*
X146561428Y-70894819D02*
X146323333Y-70894819D01*
X146323333Y-70894819D02*
X146228095Y-70847200D01*
X146228095Y-70847200D02*
X146180476Y-70799580D01*
X111256667Y-70587200D02*
X111399524Y-70634819D01*
X111399524Y-70634819D02*
X111637619Y-70634819D01*
X111637619Y-70634819D02*
X111732857Y-70587200D01*
X111732857Y-70587200D02*
X111780476Y-70539580D01*
X111780476Y-70539580D02*
X111828095Y-70444342D01*
X111828095Y-70444342D02*
X111828095Y-70349104D01*
X111828095Y-70349104D02*
X111780476Y-70253866D01*
X111780476Y-70253866D02*
X111732857Y-70206247D01*
X111732857Y-70206247D02*
X111637619Y-70158628D01*
X111637619Y-70158628D02*
X111447143Y-70111009D01*
X111447143Y-70111009D02*
X111351905Y-70063390D01*
X111351905Y-70063390D02*
X111304286Y-70015771D01*
X111304286Y-70015771D02*
X111256667Y-69920533D01*
X111256667Y-69920533D02*
X111256667Y-69825295D01*
X111256667Y-69825295D02*
X111304286Y-69730057D01*
X111304286Y-69730057D02*
X111351905Y-69682438D01*
X111351905Y-69682438D02*
X111447143Y-69634819D01*
X111447143Y-69634819D02*
X111685238Y-69634819D01*
X111685238Y-69634819D02*
X111828095Y-69682438D01*
X112161429Y-69634819D02*
X112399524Y-70634819D01*
X112399524Y-70634819D02*
X112590000Y-69920533D01*
X112590000Y-69920533D02*
X112780476Y-70634819D01*
X112780476Y-70634819D02*
X113018572Y-69634819D01*
X113923333Y-70634819D02*
X113351905Y-70634819D01*
X113637619Y-70634819D02*
X113637619Y-69634819D01*
X113637619Y-69634819D02*
X113542381Y-69777676D01*
X113542381Y-69777676D02*
X113447143Y-69872914D01*
X113447143Y-69872914D02*
X113351905Y-69920533D01*
X118224819Y-66238094D02*
X119034342Y-66238094D01*
X119034342Y-66238094D02*
X119129580Y-66190475D01*
X119129580Y-66190475D02*
X119177200Y-66142856D01*
X119177200Y-66142856D02*
X119224819Y-66047618D01*
X119224819Y-66047618D02*
X119224819Y-65857142D01*
X119224819Y-65857142D02*
X119177200Y-65761904D01*
X119177200Y-65761904D02*
X119129580Y-65714285D01*
X119129580Y-65714285D02*
X119034342Y-65666666D01*
X119034342Y-65666666D02*
X118224819Y-65666666D01*
X119224819Y-64666666D02*
X119224819Y-65238094D01*
X119224819Y-64952380D02*
X118224819Y-64952380D01*
X118224819Y-64952380D02*
X118367676Y-65047618D01*
X118367676Y-65047618D02*
X118462914Y-65142856D01*
X118462914Y-65142856D02*
X118510533Y-65238094D01*
X119224819Y-63714285D02*
X119224819Y-64285713D01*
X119224819Y-63999999D02*
X118224819Y-63999999D01*
X118224819Y-63999999D02*
X118367676Y-64095237D01*
X118367676Y-64095237D02*
X118462914Y-64190475D01*
X118462914Y-64190475D02*
X118510533Y-64285713D01*
X130994819Y-58576666D02*
X130518628Y-58909999D01*
X130994819Y-59148094D02*
X129994819Y-59148094D01*
X129994819Y-59148094D02*
X129994819Y-58767142D01*
X129994819Y-58767142D02*
X130042438Y-58671904D01*
X130042438Y-58671904D02*
X130090057Y-58624285D01*
X130090057Y-58624285D02*
X130185295Y-58576666D01*
X130185295Y-58576666D02*
X130328152Y-58576666D01*
X130328152Y-58576666D02*
X130423390Y-58624285D01*
X130423390Y-58624285D02*
X130471009Y-58671904D01*
X130471009Y-58671904D02*
X130518628Y-58767142D01*
X130518628Y-58767142D02*
X130518628Y-59148094D01*
X130090057Y-58195713D02*
X130042438Y-58148094D01*
X130042438Y-58148094D02*
X129994819Y-58052856D01*
X129994819Y-58052856D02*
X129994819Y-57814761D01*
X129994819Y-57814761D02*
X130042438Y-57719523D01*
X130042438Y-57719523D02*
X130090057Y-57671904D01*
X130090057Y-57671904D02*
X130185295Y-57624285D01*
X130185295Y-57624285D02*
X130280533Y-57624285D01*
X130280533Y-57624285D02*
X130423390Y-57671904D01*
X130423390Y-57671904D02*
X130994819Y-58243332D01*
X130994819Y-58243332D02*
X130994819Y-57624285D01*
D10*
X163193866Y-113833482D02*
X164327200Y-113833482D01*
X164327200Y-113833482D02*
X164460533Y-113785863D01*
X164460533Y-113785863D02*
X164527200Y-113738244D01*
X164527200Y-113738244D02*
X164593866Y-113643006D01*
X164593866Y-113643006D02*
X164593866Y-113452530D01*
X164593866Y-113452530D02*
X164527200Y-113357292D01*
X164527200Y-113357292D02*
X164460533Y-113309673D01*
X164460533Y-113309673D02*
X164327200Y-113262054D01*
X164327200Y-113262054D02*
X163193866Y-113262054D01*
X163193866Y-112881101D02*
X163193866Y-112214435D01*
X163193866Y-112214435D02*
X164593866Y-112643006D01*
D13*
X126533333Y-141709580D02*
X126485714Y-141757200D01*
X126485714Y-141757200D02*
X126342857Y-141804819D01*
X126342857Y-141804819D02*
X126247619Y-141804819D01*
X126247619Y-141804819D02*
X126104762Y-141757200D01*
X126104762Y-141757200D02*
X126009524Y-141661961D01*
X126009524Y-141661961D02*
X125961905Y-141566723D01*
X125961905Y-141566723D02*
X125914286Y-141376247D01*
X125914286Y-141376247D02*
X125914286Y-141233390D01*
X125914286Y-141233390D02*
X125961905Y-141042914D01*
X125961905Y-141042914D02*
X126009524Y-140947676D01*
X126009524Y-140947676D02*
X126104762Y-140852438D01*
X126104762Y-140852438D02*
X126247619Y-140804819D01*
X126247619Y-140804819D02*
X126342857Y-140804819D01*
X126342857Y-140804819D02*
X126485714Y-140852438D01*
X126485714Y-140852438D02*
X126533333Y-140900057D01*
X126866667Y-140804819D02*
X127533333Y-140804819D01*
X127533333Y-140804819D02*
X127104762Y-141804819D01*
X129853333Y-132269580D02*
X129805714Y-132317200D01*
X129805714Y-132317200D02*
X129662857Y-132364819D01*
X129662857Y-132364819D02*
X129567619Y-132364819D01*
X129567619Y-132364819D02*
X129424762Y-132317200D01*
X129424762Y-132317200D02*
X129329524Y-132221961D01*
X129329524Y-132221961D02*
X129281905Y-132126723D01*
X129281905Y-132126723D02*
X129234286Y-131936247D01*
X129234286Y-131936247D02*
X129234286Y-131793390D01*
X129234286Y-131793390D02*
X129281905Y-131602914D01*
X129281905Y-131602914D02*
X129329524Y-131507676D01*
X129329524Y-131507676D02*
X129424762Y-131412438D01*
X129424762Y-131412438D02*
X129567619Y-131364819D01*
X129567619Y-131364819D02*
X129662857Y-131364819D01*
X129662857Y-131364819D02*
X129805714Y-131412438D01*
X129805714Y-131412438D02*
X129853333Y-131460057D01*
X130424762Y-131793390D02*
X130329524Y-131745771D01*
X130329524Y-131745771D02*
X130281905Y-131698152D01*
X130281905Y-131698152D02*
X130234286Y-131602914D01*
X130234286Y-131602914D02*
X130234286Y-131555295D01*
X130234286Y-131555295D02*
X130281905Y-131460057D01*
X130281905Y-131460057D02*
X130329524Y-131412438D01*
X130329524Y-131412438D02*
X130424762Y-131364819D01*
X130424762Y-131364819D02*
X130615238Y-131364819D01*
X130615238Y-131364819D02*
X130710476Y-131412438D01*
X130710476Y-131412438D02*
X130758095Y-131460057D01*
X130758095Y-131460057D02*
X130805714Y-131555295D01*
X130805714Y-131555295D02*
X130805714Y-131602914D01*
X130805714Y-131602914D02*
X130758095Y-131698152D01*
X130758095Y-131698152D02*
X130710476Y-131745771D01*
X130710476Y-131745771D02*
X130615238Y-131793390D01*
X130615238Y-131793390D02*
X130424762Y-131793390D01*
X130424762Y-131793390D02*
X130329524Y-131841009D01*
X130329524Y-131841009D02*
X130281905Y-131888628D01*
X130281905Y-131888628D02*
X130234286Y-131983866D01*
X130234286Y-131983866D02*
X130234286Y-132174342D01*
X130234286Y-132174342D02*
X130281905Y-132269580D01*
X130281905Y-132269580D02*
X130329524Y-132317200D01*
X130329524Y-132317200D02*
X130424762Y-132364819D01*
X130424762Y-132364819D02*
X130615238Y-132364819D01*
X130615238Y-132364819D02*
X130710476Y-132317200D01*
X130710476Y-132317200D02*
X130758095Y-132269580D01*
X130758095Y-132269580D02*
X130805714Y-132174342D01*
X130805714Y-132174342D02*
X130805714Y-131983866D01*
X130805714Y-131983866D02*
X130758095Y-131888628D01*
X130758095Y-131888628D02*
X130710476Y-131841009D01*
X130710476Y-131841009D02*
X130615238Y-131793390D01*
X161217142Y-78959580D02*
X161169523Y-79007200D01*
X161169523Y-79007200D02*
X161026666Y-79054819D01*
X161026666Y-79054819D02*
X160931428Y-79054819D01*
X160931428Y-79054819D02*
X160788571Y-79007200D01*
X160788571Y-79007200D02*
X160693333Y-78911961D01*
X160693333Y-78911961D02*
X160645714Y-78816723D01*
X160645714Y-78816723D02*
X160598095Y-78626247D01*
X160598095Y-78626247D02*
X160598095Y-78483390D01*
X160598095Y-78483390D02*
X160645714Y-78292914D01*
X160645714Y-78292914D02*
X160693333Y-78197676D01*
X160693333Y-78197676D02*
X160788571Y-78102438D01*
X160788571Y-78102438D02*
X160931428Y-78054819D01*
X160931428Y-78054819D02*
X161026666Y-78054819D01*
X161026666Y-78054819D02*
X161169523Y-78102438D01*
X161169523Y-78102438D02*
X161217142Y-78150057D01*
X161550476Y-78054819D02*
X162169523Y-78054819D01*
X162169523Y-78054819D02*
X161836190Y-78435771D01*
X161836190Y-78435771D02*
X161979047Y-78435771D01*
X161979047Y-78435771D02*
X162074285Y-78483390D01*
X162074285Y-78483390D02*
X162121904Y-78531009D01*
X162121904Y-78531009D02*
X162169523Y-78626247D01*
X162169523Y-78626247D02*
X162169523Y-78864342D01*
X162169523Y-78864342D02*
X162121904Y-78959580D01*
X162121904Y-78959580D02*
X162074285Y-79007200D01*
X162074285Y-79007200D02*
X161979047Y-79054819D01*
X161979047Y-79054819D02*
X161693333Y-79054819D01*
X161693333Y-79054819D02*
X161598095Y-79007200D01*
X161598095Y-79007200D02*
X161550476Y-78959580D01*
X162788571Y-78054819D02*
X162883809Y-78054819D01*
X162883809Y-78054819D02*
X162979047Y-78102438D01*
X162979047Y-78102438D02*
X163026666Y-78150057D01*
X163026666Y-78150057D02*
X163074285Y-78245295D01*
X163074285Y-78245295D02*
X163121904Y-78435771D01*
X163121904Y-78435771D02*
X163121904Y-78673866D01*
X163121904Y-78673866D02*
X163074285Y-78864342D01*
X163074285Y-78864342D02*
X163026666Y-78959580D01*
X163026666Y-78959580D02*
X162979047Y-79007200D01*
X162979047Y-79007200D02*
X162883809Y-79054819D01*
X162883809Y-79054819D02*
X162788571Y-79054819D01*
X162788571Y-79054819D02*
X162693333Y-79007200D01*
X162693333Y-79007200D02*
X162645714Y-78959580D01*
X162645714Y-78959580D02*
X162598095Y-78864342D01*
X162598095Y-78864342D02*
X162550476Y-78673866D01*
X162550476Y-78673866D02*
X162550476Y-78435771D01*
X162550476Y-78435771D02*
X162598095Y-78245295D01*
X162598095Y-78245295D02*
X162645714Y-78150057D01*
X162645714Y-78150057D02*
X162693333Y-78102438D01*
X162693333Y-78102438D02*
X162788571Y-78054819D01*
X118304819Y-53473333D02*
X119019104Y-53473333D01*
X119019104Y-53473333D02*
X119161961Y-53520952D01*
X119161961Y-53520952D02*
X119257200Y-53616190D01*
X119257200Y-53616190D02*
X119304819Y-53759047D01*
X119304819Y-53759047D02*
X119304819Y-53854285D01*
X119304819Y-52473333D02*
X119304819Y-53044761D01*
X119304819Y-52759047D02*
X118304819Y-52759047D01*
X118304819Y-52759047D02*
X118447676Y-52854285D01*
X118447676Y-52854285D02*
X118542914Y-52949523D01*
X118542914Y-52949523D02*
X118590533Y-53044761D01*
X119773333Y-124389580D02*
X119725714Y-124437200D01*
X119725714Y-124437200D02*
X119582857Y-124484819D01*
X119582857Y-124484819D02*
X119487619Y-124484819D01*
X119487619Y-124484819D02*
X119344762Y-124437200D01*
X119344762Y-124437200D02*
X119249524Y-124341961D01*
X119249524Y-124341961D02*
X119201905Y-124246723D01*
X119201905Y-124246723D02*
X119154286Y-124056247D01*
X119154286Y-124056247D02*
X119154286Y-123913390D01*
X119154286Y-123913390D02*
X119201905Y-123722914D01*
X119201905Y-123722914D02*
X119249524Y-123627676D01*
X119249524Y-123627676D02*
X119344762Y-123532438D01*
X119344762Y-123532438D02*
X119487619Y-123484819D01*
X119487619Y-123484819D02*
X119582857Y-123484819D01*
X119582857Y-123484819D02*
X119725714Y-123532438D01*
X119725714Y-123532438D02*
X119773333Y-123580057D01*
X120630476Y-123484819D02*
X120440000Y-123484819D01*
X120440000Y-123484819D02*
X120344762Y-123532438D01*
X120344762Y-123532438D02*
X120297143Y-123580057D01*
X120297143Y-123580057D02*
X120201905Y-123722914D01*
X120201905Y-123722914D02*
X120154286Y-123913390D01*
X120154286Y-123913390D02*
X120154286Y-124294342D01*
X120154286Y-124294342D02*
X120201905Y-124389580D01*
X120201905Y-124389580D02*
X120249524Y-124437200D01*
X120249524Y-124437200D02*
X120344762Y-124484819D01*
X120344762Y-124484819D02*
X120535238Y-124484819D01*
X120535238Y-124484819D02*
X120630476Y-124437200D01*
X120630476Y-124437200D02*
X120678095Y-124389580D01*
X120678095Y-124389580D02*
X120725714Y-124294342D01*
X120725714Y-124294342D02*
X120725714Y-124056247D01*
X120725714Y-124056247D02*
X120678095Y-123961009D01*
X120678095Y-123961009D02*
X120630476Y-123913390D01*
X120630476Y-123913390D02*
X120535238Y-123865771D01*
X120535238Y-123865771D02*
X120344762Y-123865771D01*
X120344762Y-123865771D02*
X120249524Y-123913390D01*
X120249524Y-123913390D02*
X120201905Y-123961009D01*
X120201905Y-123961009D02*
X120154286Y-124056247D01*
X119873333Y-116239580D02*
X119825714Y-116287200D01*
X119825714Y-116287200D02*
X119682857Y-116334819D01*
X119682857Y-116334819D02*
X119587619Y-116334819D01*
X119587619Y-116334819D02*
X119444762Y-116287200D01*
X119444762Y-116287200D02*
X119349524Y-116191961D01*
X119349524Y-116191961D02*
X119301905Y-116096723D01*
X119301905Y-116096723D02*
X119254286Y-115906247D01*
X119254286Y-115906247D02*
X119254286Y-115763390D01*
X119254286Y-115763390D02*
X119301905Y-115572914D01*
X119301905Y-115572914D02*
X119349524Y-115477676D01*
X119349524Y-115477676D02*
X119444762Y-115382438D01*
X119444762Y-115382438D02*
X119587619Y-115334819D01*
X119587619Y-115334819D02*
X119682857Y-115334819D01*
X119682857Y-115334819D02*
X119825714Y-115382438D01*
X119825714Y-115382438D02*
X119873333Y-115430057D01*
X120206667Y-115334819D02*
X120825714Y-115334819D01*
X120825714Y-115334819D02*
X120492381Y-115715771D01*
X120492381Y-115715771D02*
X120635238Y-115715771D01*
X120635238Y-115715771D02*
X120730476Y-115763390D01*
X120730476Y-115763390D02*
X120778095Y-115811009D01*
X120778095Y-115811009D02*
X120825714Y-115906247D01*
X120825714Y-115906247D02*
X120825714Y-116144342D01*
X120825714Y-116144342D02*
X120778095Y-116239580D01*
X120778095Y-116239580D02*
X120730476Y-116287200D01*
X120730476Y-116287200D02*
X120635238Y-116334819D01*
X120635238Y-116334819D02*
X120349524Y-116334819D01*
X120349524Y-116334819D02*
X120254286Y-116287200D01*
X120254286Y-116287200D02*
X120206667Y-116239580D01*
X120393333Y-100969580D02*
X120345714Y-101017200D01*
X120345714Y-101017200D02*
X120202857Y-101064819D01*
X120202857Y-101064819D02*
X120107619Y-101064819D01*
X120107619Y-101064819D02*
X119964762Y-101017200D01*
X119964762Y-101017200D02*
X119869524Y-100921961D01*
X119869524Y-100921961D02*
X119821905Y-100826723D01*
X119821905Y-100826723D02*
X119774286Y-100636247D01*
X119774286Y-100636247D02*
X119774286Y-100493390D01*
X119774286Y-100493390D02*
X119821905Y-100302914D01*
X119821905Y-100302914D02*
X119869524Y-100207676D01*
X119869524Y-100207676D02*
X119964762Y-100112438D01*
X119964762Y-100112438D02*
X120107619Y-100064819D01*
X120107619Y-100064819D02*
X120202857Y-100064819D01*
X120202857Y-100064819D02*
X120345714Y-100112438D01*
X120345714Y-100112438D02*
X120393333Y-100160057D01*
X121345714Y-101064819D02*
X120774286Y-101064819D01*
X121060000Y-101064819D02*
X121060000Y-100064819D01*
X121060000Y-100064819D02*
X120964762Y-100207676D01*
X120964762Y-100207676D02*
X120869524Y-100302914D01*
X120869524Y-100302914D02*
X120774286Y-100350533D01*
X134097142Y-87259580D02*
X134049523Y-87307200D01*
X134049523Y-87307200D02*
X133906666Y-87354819D01*
X133906666Y-87354819D02*
X133811428Y-87354819D01*
X133811428Y-87354819D02*
X133668571Y-87307200D01*
X133668571Y-87307200D02*
X133573333Y-87211961D01*
X133573333Y-87211961D02*
X133525714Y-87116723D01*
X133525714Y-87116723D02*
X133478095Y-86926247D01*
X133478095Y-86926247D02*
X133478095Y-86783390D01*
X133478095Y-86783390D02*
X133525714Y-86592914D01*
X133525714Y-86592914D02*
X133573333Y-86497676D01*
X133573333Y-86497676D02*
X133668571Y-86402438D01*
X133668571Y-86402438D02*
X133811428Y-86354819D01*
X133811428Y-86354819D02*
X133906666Y-86354819D01*
X133906666Y-86354819D02*
X134049523Y-86402438D01*
X134049523Y-86402438D02*
X134097142Y-86450057D01*
X135049523Y-87354819D02*
X134478095Y-87354819D01*
X134763809Y-87354819D02*
X134763809Y-86354819D01*
X134763809Y-86354819D02*
X134668571Y-86497676D01*
X134668571Y-86497676D02*
X134573333Y-86592914D01*
X134573333Y-86592914D02*
X134478095Y-86640533D01*
X135620952Y-86783390D02*
X135525714Y-86735771D01*
X135525714Y-86735771D02*
X135478095Y-86688152D01*
X135478095Y-86688152D02*
X135430476Y-86592914D01*
X135430476Y-86592914D02*
X135430476Y-86545295D01*
X135430476Y-86545295D02*
X135478095Y-86450057D01*
X135478095Y-86450057D02*
X135525714Y-86402438D01*
X135525714Y-86402438D02*
X135620952Y-86354819D01*
X135620952Y-86354819D02*
X135811428Y-86354819D01*
X135811428Y-86354819D02*
X135906666Y-86402438D01*
X135906666Y-86402438D02*
X135954285Y-86450057D01*
X135954285Y-86450057D02*
X136001904Y-86545295D01*
X136001904Y-86545295D02*
X136001904Y-86592914D01*
X136001904Y-86592914D02*
X135954285Y-86688152D01*
X135954285Y-86688152D02*
X135906666Y-86735771D01*
X135906666Y-86735771D02*
X135811428Y-86783390D01*
X135811428Y-86783390D02*
X135620952Y-86783390D01*
X135620952Y-86783390D02*
X135525714Y-86831009D01*
X135525714Y-86831009D02*
X135478095Y-86878628D01*
X135478095Y-86878628D02*
X135430476Y-86973866D01*
X135430476Y-86973866D02*
X135430476Y-87164342D01*
X135430476Y-87164342D02*
X135478095Y-87259580D01*
X135478095Y-87259580D02*
X135525714Y-87307200D01*
X135525714Y-87307200D02*
X135620952Y-87354819D01*
X135620952Y-87354819D02*
X135811428Y-87354819D01*
X135811428Y-87354819D02*
X135906666Y-87307200D01*
X135906666Y-87307200D02*
X135954285Y-87259580D01*
X135954285Y-87259580D02*
X136001904Y-87164342D01*
X136001904Y-87164342D02*
X136001904Y-86973866D01*
X136001904Y-86973866D02*
X135954285Y-86878628D01*
X135954285Y-86878628D02*
X135906666Y-86831009D01*
X135906666Y-86831009D02*
X135811428Y-86783390D01*
X136737142Y-72529580D02*
X136689523Y-72577200D01*
X136689523Y-72577200D02*
X136546666Y-72624819D01*
X136546666Y-72624819D02*
X136451428Y-72624819D01*
X136451428Y-72624819D02*
X136308571Y-72577200D01*
X136308571Y-72577200D02*
X136213333Y-72481961D01*
X136213333Y-72481961D02*
X136165714Y-72386723D01*
X136165714Y-72386723D02*
X136118095Y-72196247D01*
X136118095Y-72196247D02*
X136118095Y-72053390D01*
X136118095Y-72053390D02*
X136165714Y-71862914D01*
X136165714Y-71862914D02*
X136213333Y-71767676D01*
X136213333Y-71767676D02*
X136308571Y-71672438D01*
X136308571Y-71672438D02*
X136451428Y-71624819D01*
X136451428Y-71624819D02*
X136546666Y-71624819D01*
X136546666Y-71624819D02*
X136689523Y-71672438D01*
X136689523Y-71672438D02*
X136737142Y-71720057D01*
X137689523Y-72624819D02*
X137118095Y-72624819D01*
X137403809Y-72624819D02*
X137403809Y-71624819D01*
X137403809Y-71624819D02*
X137308571Y-71767676D01*
X137308571Y-71767676D02*
X137213333Y-71862914D01*
X137213333Y-71862914D02*
X137118095Y-71910533D01*
X138546666Y-71624819D02*
X138356190Y-71624819D01*
X138356190Y-71624819D02*
X138260952Y-71672438D01*
X138260952Y-71672438D02*
X138213333Y-71720057D01*
X138213333Y-71720057D02*
X138118095Y-71862914D01*
X138118095Y-71862914D02*
X138070476Y-72053390D01*
X138070476Y-72053390D02*
X138070476Y-72434342D01*
X138070476Y-72434342D02*
X138118095Y-72529580D01*
X138118095Y-72529580D02*
X138165714Y-72577200D01*
X138165714Y-72577200D02*
X138260952Y-72624819D01*
X138260952Y-72624819D02*
X138451428Y-72624819D01*
X138451428Y-72624819D02*
X138546666Y-72577200D01*
X138546666Y-72577200D02*
X138594285Y-72529580D01*
X138594285Y-72529580D02*
X138641904Y-72434342D01*
X138641904Y-72434342D02*
X138641904Y-72196247D01*
X138641904Y-72196247D02*
X138594285Y-72101009D01*
X138594285Y-72101009D02*
X138546666Y-72053390D01*
X138546666Y-72053390D02*
X138451428Y-72005771D01*
X138451428Y-72005771D02*
X138260952Y-72005771D01*
X138260952Y-72005771D02*
X138165714Y-72053390D01*
X138165714Y-72053390D02*
X138118095Y-72101009D01*
X138118095Y-72101009D02*
X138070476Y-72196247D01*
D10*
X112156666Y-136594742D02*
X112156666Y-137451885D01*
X112156666Y-137451885D02*
X112109047Y-137623314D01*
X112109047Y-137623314D02*
X112013809Y-137737600D01*
X112013809Y-137737600D02*
X111870952Y-137794742D01*
X111870952Y-137794742D02*
X111775714Y-137794742D01*
X113109047Y-136594742D02*
X112632857Y-136594742D01*
X112632857Y-136594742D02*
X112585238Y-137166171D01*
X112585238Y-137166171D02*
X112632857Y-137109028D01*
X112632857Y-137109028D02*
X112728095Y-137051885D01*
X112728095Y-137051885D02*
X112966190Y-137051885D01*
X112966190Y-137051885D02*
X113061428Y-137109028D01*
X113061428Y-137109028D02*
X113109047Y-137166171D01*
X113109047Y-137166171D02*
X113156666Y-137280457D01*
X113156666Y-137280457D02*
X113156666Y-137566171D01*
X113156666Y-137566171D02*
X113109047Y-137680457D01*
X113109047Y-137680457D02*
X113061428Y-137737600D01*
X113061428Y-137737600D02*
X112966190Y-137794742D01*
X112966190Y-137794742D02*
X112728095Y-137794742D01*
X112728095Y-137794742D02*
X112632857Y-137737600D01*
X112632857Y-137737600D02*
X112585238Y-137680457D01*
X129751342Y-97923482D02*
X130722771Y-97923482D01*
X130722771Y-97923482D02*
X130837057Y-97875863D01*
X130837057Y-97875863D02*
X130894200Y-97828244D01*
X130894200Y-97828244D02*
X130951342Y-97733006D01*
X130951342Y-97733006D02*
X130951342Y-97542530D01*
X130951342Y-97542530D02*
X130894200Y-97447292D01*
X130894200Y-97447292D02*
X130837057Y-97399673D01*
X130837057Y-97399673D02*
X130722771Y-97352054D01*
X130722771Y-97352054D02*
X129751342Y-97352054D01*
X130951342Y-96352054D02*
X130951342Y-96923482D01*
X130951342Y-96637768D02*
X129751342Y-96637768D01*
X129751342Y-96637768D02*
X129922771Y-96733006D01*
X129922771Y-96733006D02*
X130037057Y-96828244D01*
X130037057Y-96828244D02*
X130094200Y-96923482D01*
D13*
X144669580Y-74532857D02*
X144717200Y-74580476D01*
X144717200Y-74580476D02*
X144764819Y-74723333D01*
X144764819Y-74723333D02*
X144764819Y-74818571D01*
X144764819Y-74818571D02*
X144717200Y-74961428D01*
X144717200Y-74961428D02*
X144621961Y-75056666D01*
X144621961Y-75056666D02*
X144526723Y-75104285D01*
X144526723Y-75104285D02*
X144336247Y-75151904D01*
X144336247Y-75151904D02*
X144193390Y-75151904D01*
X144193390Y-75151904D02*
X144002914Y-75104285D01*
X144002914Y-75104285D02*
X143907676Y-75056666D01*
X143907676Y-75056666D02*
X143812438Y-74961428D01*
X143812438Y-74961428D02*
X143764819Y-74818571D01*
X143764819Y-74818571D02*
X143764819Y-74723333D01*
X143764819Y-74723333D02*
X143812438Y-74580476D01*
X143812438Y-74580476D02*
X143860057Y-74532857D01*
X143860057Y-74151904D02*
X143812438Y-74104285D01*
X143812438Y-74104285D02*
X143764819Y-74009047D01*
X143764819Y-74009047D02*
X143764819Y-73770952D01*
X143764819Y-73770952D02*
X143812438Y-73675714D01*
X143812438Y-73675714D02*
X143860057Y-73628095D01*
X143860057Y-73628095D02*
X143955295Y-73580476D01*
X143955295Y-73580476D02*
X144050533Y-73580476D01*
X144050533Y-73580476D02*
X144193390Y-73628095D01*
X144193390Y-73628095D02*
X144764819Y-74199523D01*
X144764819Y-74199523D02*
X144764819Y-73580476D01*
X144098152Y-72723333D02*
X144764819Y-72723333D01*
X143717200Y-72961428D02*
X144431485Y-73199523D01*
X144431485Y-73199523D02*
X144431485Y-72580476D01*
X134434819Y-53533333D02*
X135149104Y-53533333D01*
X135149104Y-53533333D02*
X135291961Y-53580952D01*
X135291961Y-53580952D02*
X135387200Y-53676190D01*
X135387200Y-53676190D02*
X135434819Y-53819047D01*
X135434819Y-53819047D02*
X135434819Y-53914285D01*
X134434819Y-53152380D02*
X134434819Y-52533333D01*
X134434819Y-52533333D02*
X134815771Y-52866666D01*
X134815771Y-52866666D02*
X134815771Y-52723809D01*
X134815771Y-52723809D02*
X134863390Y-52628571D01*
X134863390Y-52628571D02*
X134911009Y-52580952D01*
X134911009Y-52580952D02*
X135006247Y-52533333D01*
X135006247Y-52533333D02*
X135244342Y-52533333D01*
X135244342Y-52533333D02*
X135339580Y-52580952D01*
X135339580Y-52580952D02*
X135387200Y-52628571D01*
X135387200Y-52628571D02*
X135434819Y-52723809D01*
X135434819Y-52723809D02*
X135434819Y-53009523D01*
X135434819Y-53009523D02*
X135387200Y-53104761D01*
X135387200Y-53104761D02*
X135339580Y-53152380D01*
X129499580Y-72751713D02*
X129547200Y-72799332D01*
X129547200Y-72799332D02*
X129594819Y-72942189D01*
X129594819Y-72942189D02*
X129594819Y-73037427D01*
X129594819Y-73037427D02*
X129547200Y-73180284D01*
X129547200Y-73180284D02*
X129451961Y-73275522D01*
X129451961Y-73275522D02*
X129356723Y-73323141D01*
X129356723Y-73323141D02*
X129166247Y-73370760D01*
X129166247Y-73370760D02*
X129023390Y-73370760D01*
X129023390Y-73370760D02*
X128832914Y-73323141D01*
X128832914Y-73323141D02*
X128737676Y-73275522D01*
X128737676Y-73275522D02*
X128642438Y-73180284D01*
X128642438Y-73180284D02*
X128594819Y-73037427D01*
X128594819Y-73037427D02*
X128594819Y-72942189D01*
X128594819Y-72942189D02*
X128642438Y-72799332D01*
X128642438Y-72799332D02*
X128690057Y-72751713D01*
X128690057Y-72370760D02*
X128642438Y-72323141D01*
X128642438Y-72323141D02*
X128594819Y-72227903D01*
X128594819Y-72227903D02*
X128594819Y-71989808D01*
X128594819Y-71989808D02*
X128642438Y-71894570D01*
X128642438Y-71894570D02*
X128690057Y-71846951D01*
X128690057Y-71846951D02*
X128785295Y-71799332D01*
X128785295Y-71799332D02*
X128880533Y-71799332D01*
X128880533Y-71799332D02*
X129023390Y-71846951D01*
X129023390Y-71846951D02*
X129594819Y-72418379D01*
X129594819Y-72418379D02*
X129594819Y-71799332D01*
X129594819Y-70846951D02*
X129594819Y-71418379D01*
X129594819Y-71132665D02*
X128594819Y-71132665D01*
X128594819Y-71132665D02*
X128737676Y-71227903D01*
X128737676Y-71227903D02*
X128832914Y-71323141D01*
X128832914Y-71323141D02*
X128880533Y-71418379D01*
X123991905Y-60214819D02*
X123991905Y-59214819D01*
X123991905Y-59214819D02*
X124230000Y-59214819D01*
X124230000Y-59214819D02*
X124372857Y-59262438D01*
X124372857Y-59262438D02*
X124468095Y-59357676D01*
X124468095Y-59357676D02*
X124515714Y-59452914D01*
X124515714Y-59452914D02*
X124563333Y-59643390D01*
X124563333Y-59643390D02*
X124563333Y-59786247D01*
X124563333Y-59786247D02*
X124515714Y-59976723D01*
X124515714Y-59976723D02*
X124468095Y-60071961D01*
X124468095Y-60071961D02*
X124372857Y-60167200D01*
X124372857Y-60167200D02*
X124230000Y-60214819D01*
X124230000Y-60214819D02*
X123991905Y-60214819D01*
X125515714Y-60214819D02*
X124944286Y-60214819D01*
X125230000Y-60214819D02*
X125230000Y-59214819D01*
X125230000Y-59214819D02*
X125134762Y-59357676D01*
X125134762Y-59357676D02*
X125039524Y-59452914D01*
X125039524Y-59452914D02*
X124944286Y-59500533D01*
D10*
X129751342Y-129024982D02*
X130722771Y-129024982D01*
X130722771Y-129024982D02*
X130837057Y-128977363D01*
X130837057Y-128977363D02*
X130894200Y-128929744D01*
X130894200Y-128929744D02*
X130951342Y-128834506D01*
X130951342Y-128834506D02*
X130951342Y-128644030D01*
X130951342Y-128644030D02*
X130894200Y-128548792D01*
X130894200Y-128548792D02*
X130837057Y-128501173D01*
X130837057Y-128501173D02*
X130722771Y-128453554D01*
X130722771Y-128453554D02*
X129751342Y-128453554D01*
X129751342Y-128072601D02*
X129751342Y-127453554D01*
X129751342Y-127453554D02*
X130208485Y-127786887D01*
X130208485Y-127786887D02*
X130208485Y-127644030D01*
X130208485Y-127644030D02*
X130265628Y-127548792D01*
X130265628Y-127548792D02*
X130322771Y-127501173D01*
X130322771Y-127501173D02*
X130437057Y-127453554D01*
X130437057Y-127453554D02*
X130722771Y-127453554D01*
X130722771Y-127453554D02*
X130837057Y-127501173D01*
X130837057Y-127501173D02*
X130894200Y-127548792D01*
X130894200Y-127548792D02*
X130951342Y-127644030D01*
X130951342Y-127644030D02*
X130951342Y-127929744D01*
X130951342Y-127929744D02*
X130894200Y-128024982D01*
X130894200Y-128024982D02*
X130837057Y-128072601D01*
D13*
X129757142Y-124329580D02*
X129709523Y-124377200D01*
X129709523Y-124377200D02*
X129566666Y-124424819D01*
X129566666Y-124424819D02*
X129471428Y-124424819D01*
X129471428Y-124424819D02*
X129328571Y-124377200D01*
X129328571Y-124377200D02*
X129233333Y-124281961D01*
X129233333Y-124281961D02*
X129185714Y-124186723D01*
X129185714Y-124186723D02*
X129138095Y-123996247D01*
X129138095Y-123996247D02*
X129138095Y-123853390D01*
X129138095Y-123853390D02*
X129185714Y-123662914D01*
X129185714Y-123662914D02*
X129233333Y-123567676D01*
X129233333Y-123567676D02*
X129328571Y-123472438D01*
X129328571Y-123472438D02*
X129471428Y-123424819D01*
X129471428Y-123424819D02*
X129566666Y-123424819D01*
X129566666Y-123424819D02*
X129709523Y-123472438D01*
X129709523Y-123472438D02*
X129757142Y-123520057D01*
X130709523Y-124424819D02*
X130138095Y-124424819D01*
X130423809Y-124424819D02*
X130423809Y-123424819D01*
X130423809Y-123424819D02*
X130328571Y-123567676D01*
X130328571Y-123567676D02*
X130233333Y-123662914D01*
X130233333Y-123662914D02*
X130138095Y-123710533D01*
X131661904Y-124424819D02*
X131090476Y-124424819D01*
X131376190Y-124424819D02*
X131376190Y-123424819D01*
X131376190Y-123424819D02*
X131280952Y-123567676D01*
X131280952Y-123567676D02*
X131185714Y-123662914D01*
X131185714Y-123662914D02*
X131090476Y-123710533D01*
X118011009Y-93153333D02*
X118011009Y-93486666D01*
X118534819Y-93486666D02*
X117534819Y-93486666D01*
X117534819Y-93486666D02*
X117534819Y-93010476D01*
X118011009Y-92296190D02*
X118058628Y-92153333D01*
X118058628Y-92153333D02*
X118106247Y-92105714D01*
X118106247Y-92105714D02*
X118201485Y-92058095D01*
X118201485Y-92058095D02*
X118344342Y-92058095D01*
X118344342Y-92058095D02*
X118439580Y-92105714D01*
X118439580Y-92105714D02*
X118487200Y-92153333D01*
X118487200Y-92153333D02*
X118534819Y-92248571D01*
X118534819Y-92248571D02*
X118534819Y-92629523D01*
X118534819Y-92629523D02*
X117534819Y-92629523D01*
X117534819Y-92629523D02*
X117534819Y-92296190D01*
X117534819Y-92296190D02*
X117582438Y-92200952D01*
X117582438Y-92200952D02*
X117630057Y-92153333D01*
X117630057Y-92153333D02*
X117725295Y-92105714D01*
X117725295Y-92105714D02*
X117820533Y-92105714D01*
X117820533Y-92105714D02*
X117915771Y-92153333D01*
X117915771Y-92153333D02*
X117963390Y-92200952D01*
X117963390Y-92200952D02*
X118011009Y-92296190D01*
X118011009Y-92296190D02*
X118011009Y-92629523D01*
X117534819Y-91153333D02*
X117534819Y-91629523D01*
X117534819Y-91629523D02*
X118011009Y-91677142D01*
X118011009Y-91677142D02*
X117963390Y-91629523D01*
X117963390Y-91629523D02*
X117915771Y-91534285D01*
X117915771Y-91534285D02*
X117915771Y-91296190D01*
X117915771Y-91296190D02*
X117963390Y-91200952D01*
X117963390Y-91200952D02*
X118011009Y-91153333D01*
X118011009Y-91153333D02*
X118106247Y-91105714D01*
X118106247Y-91105714D02*
X118344342Y-91105714D01*
X118344342Y-91105714D02*
X118439580Y-91153333D01*
X118439580Y-91153333D02*
X118487200Y-91200952D01*
X118487200Y-91200952D02*
X118534819Y-91296190D01*
X118534819Y-91296190D02*
X118534819Y-91534285D01*
X118534819Y-91534285D02*
X118487200Y-91629523D01*
X118487200Y-91629523D02*
X118439580Y-91677142D01*
X118566666Y-84481009D02*
X118233333Y-84481009D01*
X118233333Y-85004819D02*
X118233333Y-84004819D01*
X118233333Y-84004819D02*
X118709523Y-84004819D01*
X119423809Y-84481009D02*
X119566666Y-84528628D01*
X119566666Y-84528628D02*
X119614285Y-84576247D01*
X119614285Y-84576247D02*
X119661904Y-84671485D01*
X119661904Y-84671485D02*
X119661904Y-84814342D01*
X119661904Y-84814342D02*
X119614285Y-84909580D01*
X119614285Y-84909580D02*
X119566666Y-84957200D01*
X119566666Y-84957200D02*
X119471428Y-85004819D01*
X119471428Y-85004819D02*
X119090476Y-85004819D01*
X119090476Y-85004819D02*
X119090476Y-84004819D01*
X119090476Y-84004819D02*
X119423809Y-84004819D01*
X119423809Y-84004819D02*
X119519047Y-84052438D01*
X119519047Y-84052438D02*
X119566666Y-84100057D01*
X119566666Y-84100057D02*
X119614285Y-84195295D01*
X119614285Y-84195295D02*
X119614285Y-84290533D01*
X119614285Y-84290533D02*
X119566666Y-84385771D01*
X119566666Y-84385771D02*
X119519047Y-84433390D01*
X119519047Y-84433390D02*
X119423809Y-84481009D01*
X119423809Y-84481009D02*
X119090476Y-84481009D01*
X120614285Y-85004819D02*
X120042857Y-85004819D01*
X120328571Y-85004819D02*
X120328571Y-84004819D01*
X120328571Y-84004819D02*
X120233333Y-84147676D01*
X120233333Y-84147676D02*
X120138095Y-84242914D01*
X120138095Y-84242914D02*
X120042857Y-84290533D01*
D10*
X129751342Y-113063482D02*
X130722771Y-113063482D01*
X130722771Y-113063482D02*
X130837057Y-113015863D01*
X130837057Y-113015863D02*
X130894200Y-112968244D01*
X130894200Y-112968244D02*
X130951342Y-112873006D01*
X130951342Y-112873006D02*
X130951342Y-112682530D01*
X130951342Y-112682530D02*
X130894200Y-112587292D01*
X130894200Y-112587292D02*
X130837057Y-112539673D01*
X130837057Y-112539673D02*
X130722771Y-112492054D01*
X130722771Y-112492054D02*
X129751342Y-112492054D01*
X129751342Y-111587292D02*
X129751342Y-111777768D01*
X129751342Y-111777768D02*
X129808485Y-111873006D01*
X129808485Y-111873006D02*
X129865628Y-111920625D01*
X129865628Y-111920625D02*
X130037057Y-112015863D01*
X130037057Y-112015863D02*
X130265628Y-112063482D01*
X130265628Y-112063482D02*
X130722771Y-112063482D01*
X130722771Y-112063482D02*
X130837057Y-112015863D01*
X130837057Y-112015863D02*
X130894200Y-111968244D01*
X130894200Y-111968244D02*
X130951342Y-111873006D01*
X130951342Y-111873006D02*
X130951342Y-111682530D01*
X130951342Y-111682530D02*
X130894200Y-111587292D01*
X130894200Y-111587292D02*
X130837057Y-111539673D01*
X130837057Y-111539673D02*
X130722771Y-111492054D01*
X130722771Y-111492054D02*
X130437057Y-111492054D01*
X130437057Y-111492054D02*
X130322771Y-111539673D01*
X130322771Y-111539673D02*
X130265628Y-111587292D01*
X130265628Y-111587292D02*
X130208485Y-111682530D01*
X130208485Y-111682530D02*
X130208485Y-111873006D01*
X130208485Y-111873006D02*
X130265628Y-111968244D01*
X130265628Y-111968244D02*
X130322771Y-112015863D01*
X130322771Y-112015863D02*
X130437057Y-112063482D01*
D13*
X117757142Y-90459580D02*
X117709523Y-90507200D01*
X117709523Y-90507200D02*
X117566666Y-90554819D01*
X117566666Y-90554819D02*
X117471428Y-90554819D01*
X117471428Y-90554819D02*
X117328571Y-90507200D01*
X117328571Y-90507200D02*
X117233333Y-90411961D01*
X117233333Y-90411961D02*
X117185714Y-90316723D01*
X117185714Y-90316723D02*
X117138095Y-90126247D01*
X117138095Y-90126247D02*
X117138095Y-89983390D01*
X117138095Y-89983390D02*
X117185714Y-89792914D01*
X117185714Y-89792914D02*
X117233333Y-89697676D01*
X117233333Y-89697676D02*
X117328571Y-89602438D01*
X117328571Y-89602438D02*
X117471428Y-89554819D01*
X117471428Y-89554819D02*
X117566666Y-89554819D01*
X117566666Y-89554819D02*
X117709523Y-89602438D01*
X117709523Y-89602438D02*
X117757142Y-89650057D01*
X118090476Y-89554819D02*
X118709523Y-89554819D01*
X118709523Y-89554819D02*
X118376190Y-89935771D01*
X118376190Y-89935771D02*
X118519047Y-89935771D01*
X118519047Y-89935771D02*
X118614285Y-89983390D01*
X118614285Y-89983390D02*
X118661904Y-90031009D01*
X118661904Y-90031009D02*
X118709523Y-90126247D01*
X118709523Y-90126247D02*
X118709523Y-90364342D01*
X118709523Y-90364342D02*
X118661904Y-90459580D01*
X118661904Y-90459580D02*
X118614285Y-90507200D01*
X118614285Y-90507200D02*
X118519047Y-90554819D01*
X118519047Y-90554819D02*
X118233333Y-90554819D01*
X118233333Y-90554819D02*
X118138095Y-90507200D01*
X118138095Y-90507200D02*
X118090476Y-90459580D01*
X119042857Y-89554819D02*
X119709523Y-89554819D01*
X119709523Y-89554819D02*
X119280952Y-90554819D01*
X139277142Y-85809580D02*
X139229523Y-85857200D01*
X139229523Y-85857200D02*
X139086666Y-85904819D01*
X139086666Y-85904819D02*
X138991428Y-85904819D01*
X138991428Y-85904819D02*
X138848571Y-85857200D01*
X138848571Y-85857200D02*
X138753333Y-85761961D01*
X138753333Y-85761961D02*
X138705714Y-85666723D01*
X138705714Y-85666723D02*
X138658095Y-85476247D01*
X138658095Y-85476247D02*
X138658095Y-85333390D01*
X138658095Y-85333390D02*
X138705714Y-85142914D01*
X138705714Y-85142914D02*
X138753333Y-85047676D01*
X138753333Y-85047676D02*
X138848571Y-84952438D01*
X138848571Y-84952438D02*
X138991428Y-84904819D01*
X138991428Y-84904819D02*
X139086666Y-84904819D01*
X139086666Y-84904819D02*
X139229523Y-84952438D01*
X139229523Y-84952438D02*
X139277142Y-85000057D01*
X140229523Y-85904819D02*
X139658095Y-85904819D01*
X139943809Y-85904819D02*
X139943809Y-84904819D01*
X139943809Y-84904819D02*
X139848571Y-85047676D01*
X139848571Y-85047676D02*
X139753333Y-85142914D01*
X139753333Y-85142914D02*
X139658095Y-85190533D01*
X140705714Y-85904819D02*
X140896190Y-85904819D01*
X140896190Y-85904819D02*
X140991428Y-85857200D01*
X140991428Y-85857200D02*
X141039047Y-85809580D01*
X141039047Y-85809580D02*
X141134285Y-85666723D01*
X141134285Y-85666723D02*
X141181904Y-85476247D01*
X141181904Y-85476247D02*
X141181904Y-85095295D01*
X141181904Y-85095295D02*
X141134285Y-85000057D01*
X141134285Y-85000057D02*
X141086666Y-84952438D01*
X141086666Y-84952438D02*
X140991428Y-84904819D01*
X140991428Y-84904819D02*
X140800952Y-84904819D01*
X140800952Y-84904819D02*
X140705714Y-84952438D01*
X140705714Y-84952438D02*
X140658095Y-85000057D01*
X140658095Y-85000057D02*
X140610476Y-85095295D01*
X140610476Y-85095295D02*
X140610476Y-85333390D01*
X140610476Y-85333390D02*
X140658095Y-85428628D01*
X140658095Y-85428628D02*
X140705714Y-85476247D01*
X140705714Y-85476247D02*
X140800952Y-85523866D01*
X140800952Y-85523866D02*
X140991428Y-85523866D01*
X140991428Y-85523866D02*
X141086666Y-85476247D01*
X141086666Y-85476247D02*
X141134285Y-85428628D01*
X141134285Y-85428628D02*
X141181904Y-85333390D01*
X122077142Y-141739580D02*
X122029523Y-141787200D01*
X122029523Y-141787200D02*
X121886666Y-141834819D01*
X121886666Y-141834819D02*
X121791428Y-141834819D01*
X121791428Y-141834819D02*
X121648571Y-141787200D01*
X121648571Y-141787200D02*
X121553333Y-141691961D01*
X121553333Y-141691961D02*
X121505714Y-141596723D01*
X121505714Y-141596723D02*
X121458095Y-141406247D01*
X121458095Y-141406247D02*
X121458095Y-141263390D01*
X121458095Y-141263390D02*
X121505714Y-141072914D01*
X121505714Y-141072914D02*
X121553333Y-140977676D01*
X121553333Y-140977676D02*
X121648571Y-140882438D01*
X121648571Y-140882438D02*
X121791428Y-140834819D01*
X121791428Y-140834819D02*
X121886666Y-140834819D01*
X121886666Y-140834819D02*
X122029523Y-140882438D01*
X122029523Y-140882438D02*
X122077142Y-140930057D01*
X122410476Y-140834819D02*
X123029523Y-140834819D01*
X123029523Y-140834819D02*
X122696190Y-141215771D01*
X122696190Y-141215771D02*
X122839047Y-141215771D01*
X122839047Y-141215771D02*
X122934285Y-141263390D01*
X122934285Y-141263390D02*
X122981904Y-141311009D01*
X122981904Y-141311009D02*
X123029523Y-141406247D01*
X123029523Y-141406247D02*
X123029523Y-141644342D01*
X123029523Y-141644342D02*
X122981904Y-141739580D01*
X122981904Y-141739580D02*
X122934285Y-141787200D01*
X122934285Y-141787200D02*
X122839047Y-141834819D01*
X122839047Y-141834819D02*
X122553333Y-141834819D01*
X122553333Y-141834819D02*
X122458095Y-141787200D01*
X122458095Y-141787200D02*
X122410476Y-141739580D01*
X123600952Y-141263390D02*
X123505714Y-141215771D01*
X123505714Y-141215771D02*
X123458095Y-141168152D01*
X123458095Y-141168152D02*
X123410476Y-141072914D01*
X123410476Y-141072914D02*
X123410476Y-141025295D01*
X123410476Y-141025295D02*
X123458095Y-140930057D01*
X123458095Y-140930057D02*
X123505714Y-140882438D01*
X123505714Y-140882438D02*
X123600952Y-140834819D01*
X123600952Y-140834819D02*
X123791428Y-140834819D01*
X123791428Y-140834819D02*
X123886666Y-140882438D01*
X123886666Y-140882438D02*
X123934285Y-140930057D01*
X123934285Y-140930057D02*
X123981904Y-141025295D01*
X123981904Y-141025295D02*
X123981904Y-141072914D01*
X123981904Y-141072914D02*
X123934285Y-141168152D01*
X123934285Y-141168152D02*
X123886666Y-141215771D01*
X123886666Y-141215771D02*
X123791428Y-141263390D01*
X123791428Y-141263390D02*
X123600952Y-141263390D01*
X123600952Y-141263390D02*
X123505714Y-141311009D01*
X123505714Y-141311009D02*
X123458095Y-141358628D01*
X123458095Y-141358628D02*
X123410476Y-141453866D01*
X123410476Y-141453866D02*
X123410476Y-141644342D01*
X123410476Y-141644342D02*
X123458095Y-141739580D01*
X123458095Y-141739580D02*
X123505714Y-141787200D01*
X123505714Y-141787200D02*
X123600952Y-141834819D01*
X123600952Y-141834819D02*
X123791428Y-141834819D01*
X123791428Y-141834819D02*
X123886666Y-141787200D01*
X123886666Y-141787200D02*
X123934285Y-141739580D01*
X123934285Y-141739580D02*
X123981904Y-141644342D01*
X123981904Y-141644342D02*
X123981904Y-141453866D01*
X123981904Y-141453866D02*
X123934285Y-141358628D01*
X123934285Y-141358628D02*
X123886666Y-141311009D01*
X123886666Y-141311009D02*
X123791428Y-141263390D01*
X124457142Y-87859580D02*
X124409523Y-87907200D01*
X124409523Y-87907200D02*
X124266666Y-87954819D01*
X124266666Y-87954819D02*
X124171428Y-87954819D01*
X124171428Y-87954819D02*
X124028571Y-87907200D01*
X124028571Y-87907200D02*
X123933333Y-87811961D01*
X123933333Y-87811961D02*
X123885714Y-87716723D01*
X123885714Y-87716723D02*
X123838095Y-87526247D01*
X123838095Y-87526247D02*
X123838095Y-87383390D01*
X123838095Y-87383390D02*
X123885714Y-87192914D01*
X123885714Y-87192914D02*
X123933333Y-87097676D01*
X123933333Y-87097676D02*
X124028571Y-87002438D01*
X124028571Y-87002438D02*
X124171428Y-86954819D01*
X124171428Y-86954819D02*
X124266666Y-86954819D01*
X124266666Y-86954819D02*
X124409523Y-87002438D01*
X124409523Y-87002438D02*
X124457142Y-87050057D01*
X124838095Y-87050057D02*
X124885714Y-87002438D01*
X124885714Y-87002438D02*
X124980952Y-86954819D01*
X124980952Y-86954819D02*
X125219047Y-86954819D01*
X125219047Y-86954819D02*
X125314285Y-87002438D01*
X125314285Y-87002438D02*
X125361904Y-87050057D01*
X125361904Y-87050057D02*
X125409523Y-87145295D01*
X125409523Y-87145295D02*
X125409523Y-87240533D01*
X125409523Y-87240533D02*
X125361904Y-87383390D01*
X125361904Y-87383390D02*
X124790476Y-87954819D01*
X124790476Y-87954819D02*
X125409523Y-87954819D01*
X126266666Y-86954819D02*
X126076190Y-86954819D01*
X126076190Y-86954819D02*
X125980952Y-87002438D01*
X125980952Y-87002438D02*
X125933333Y-87050057D01*
X125933333Y-87050057D02*
X125838095Y-87192914D01*
X125838095Y-87192914D02*
X125790476Y-87383390D01*
X125790476Y-87383390D02*
X125790476Y-87764342D01*
X125790476Y-87764342D02*
X125838095Y-87859580D01*
X125838095Y-87859580D02*
X125885714Y-87907200D01*
X125885714Y-87907200D02*
X125980952Y-87954819D01*
X125980952Y-87954819D02*
X126171428Y-87954819D01*
X126171428Y-87954819D02*
X126266666Y-87907200D01*
X126266666Y-87907200D02*
X126314285Y-87859580D01*
X126314285Y-87859580D02*
X126361904Y-87764342D01*
X126361904Y-87764342D02*
X126361904Y-87526247D01*
X126361904Y-87526247D02*
X126314285Y-87431009D01*
X126314285Y-87431009D02*
X126266666Y-87383390D01*
X126266666Y-87383390D02*
X126171428Y-87335771D01*
X126171428Y-87335771D02*
X125980952Y-87335771D01*
X125980952Y-87335771D02*
X125885714Y-87383390D01*
X125885714Y-87383390D02*
X125838095Y-87431009D01*
X125838095Y-87431009D02*
X125790476Y-87526247D01*
X142896666Y-84481009D02*
X142563333Y-84481009D01*
X142563333Y-85004819D02*
X142563333Y-84004819D01*
X142563333Y-84004819D02*
X143039523Y-84004819D01*
X143753809Y-84481009D02*
X143896666Y-84528628D01*
X143896666Y-84528628D02*
X143944285Y-84576247D01*
X143944285Y-84576247D02*
X143991904Y-84671485D01*
X143991904Y-84671485D02*
X143991904Y-84814342D01*
X143991904Y-84814342D02*
X143944285Y-84909580D01*
X143944285Y-84909580D02*
X143896666Y-84957200D01*
X143896666Y-84957200D02*
X143801428Y-85004819D01*
X143801428Y-85004819D02*
X143420476Y-85004819D01*
X143420476Y-85004819D02*
X143420476Y-84004819D01*
X143420476Y-84004819D02*
X143753809Y-84004819D01*
X143753809Y-84004819D02*
X143849047Y-84052438D01*
X143849047Y-84052438D02*
X143896666Y-84100057D01*
X143896666Y-84100057D02*
X143944285Y-84195295D01*
X143944285Y-84195295D02*
X143944285Y-84290533D01*
X143944285Y-84290533D02*
X143896666Y-84385771D01*
X143896666Y-84385771D02*
X143849047Y-84433390D01*
X143849047Y-84433390D02*
X143753809Y-84481009D01*
X143753809Y-84481009D02*
X143420476Y-84481009D01*
X144849047Y-84338152D02*
X144849047Y-85004819D01*
X144610952Y-83957200D02*
X144372857Y-84671485D01*
X144372857Y-84671485D02*
X144991904Y-84671485D01*
X126727142Y-89699580D02*
X126679523Y-89747200D01*
X126679523Y-89747200D02*
X126536666Y-89794819D01*
X126536666Y-89794819D02*
X126441428Y-89794819D01*
X126441428Y-89794819D02*
X126298571Y-89747200D01*
X126298571Y-89747200D02*
X126203333Y-89651961D01*
X126203333Y-89651961D02*
X126155714Y-89556723D01*
X126155714Y-89556723D02*
X126108095Y-89366247D01*
X126108095Y-89366247D02*
X126108095Y-89223390D01*
X126108095Y-89223390D02*
X126155714Y-89032914D01*
X126155714Y-89032914D02*
X126203333Y-88937676D01*
X126203333Y-88937676D02*
X126298571Y-88842438D01*
X126298571Y-88842438D02*
X126441428Y-88794819D01*
X126441428Y-88794819D02*
X126536666Y-88794819D01*
X126536666Y-88794819D02*
X126679523Y-88842438D01*
X126679523Y-88842438D02*
X126727142Y-88890057D01*
X127108095Y-88890057D02*
X127155714Y-88842438D01*
X127155714Y-88842438D02*
X127250952Y-88794819D01*
X127250952Y-88794819D02*
X127489047Y-88794819D01*
X127489047Y-88794819D02*
X127584285Y-88842438D01*
X127584285Y-88842438D02*
X127631904Y-88890057D01*
X127631904Y-88890057D02*
X127679523Y-88985295D01*
X127679523Y-88985295D02*
X127679523Y-89080533D01*
X127679523Y-89080533D02*
X127631904Y-89223390D01*
X127631904Y-89223390D02*
X127060476Y-89794819D01*
X127060476Y-89794819D02*
X127679523Y-89794819D01*
X128250952Y-89223390D02*
X128155714Y-89175771D01*
X128155714Y-89175771D02*
X128108095Y-89128152D01*
X128108095Y-89128152D02*
X128060476Y-89032914D01*
X128060476Y-89032914D02*
X128060476Y-88985295D01*
X128060476Y-88985295D02*
X128108095Y-88890057D01*
X128108095Y-88890057D02*
X128155714Y-88842438D01*
X128155714Y-88842438D02*
X128250952Y-88794819D01*
X128250952Y-88794819D02*
X128441428Y-88794819D01*
X128441428Y-88794819D02*
X128536666Y-88842438D01*
X128536666Y-88842438D02*
X128584285Y-88890057D01*
X128584285Y-88890057D02*
X128631904Y-88985295D01*
X128631904Y-88985295D02*
X128631904Y-89032914D01*
X128631904Y-89032914D02*
X128584285Y-89128152D01*
X128584285Y-89128152D02*
X128536666Y-89175771D01*
X128536666Y-89175771D02*
X128441428Y-89223390D01*
X128441428Y-89223390D02*
X128250952Y-89223390D01*
X128250952Y-89223390D02*
X128155714Y-89271009D01*
X128155714Y-89271009D02*
X128108095Y-89318628D01*
X128108095Y-89318628D02*
X128060476Y-89413866D01*
X128060476Y-89413866D02*
X128060476Y-89604342D01*
X128060476Y-89604342D02*
X128108095Y-89699580D01*
X128108095Y-89699580D02*
X128155714Y-89747200D01*
X128155714Y-89747200D02*
X128250952Y-89794819D01*
X128250952Y-89794819D02*
X128441428Y-89794819D01*
X128441428Y-89794819D02*
X128536666Y-89747200D01*
X128536666Y-89747200D02*
X128584285Y-89699580D01*
X128584285Y-89699580D02*
X128631904Y-89604342D01*
X128631904Y-89604342D02*
X128631904Y-89413866D01*
X128631904Y-89413866D02*
X128584285Y-89318628D01*
X128584285Y-89318628D02*
X128536666Y-89271009D01*
X128536666Y-89271009D02*
X128441428Y-89223390D01*
X119327142Y-94869580D02*
X119279523Y-94917200D01*
X119279523Y-94917200D02*
X119136666Y-94964819D01*
X119136666Y-94964819D02*
X119041428Y-94964819D01*
X119041428Y-94964819D02*
X118898571Y-94917200D01*
X118898571Y-94917200D02*
X118803333Y-94821961D01*
X118803333Y-94821961D02*
X118755714Y-94726723D01*
X118755714Y-94726723D02*
X118708095Y-94536247D01*
X118708095Y-94536247D02*
X118708095Y-94393390D01*
X118708095Y-94393390D02*
X118755714Y-94202914D01*
X118755714Y-94202914D02*
X118803333Y-94107676D01*
X118803333Y-94107676D02*
X118898571Y-94012438D01*
X118898571Y-94012438D02*
X119041428Y-93964819D01*
X119041428Y-93964819D02*
X119136666Y-93964819D01*
X119136666Y-93964819D02*
X119279523Y-94012438D01*
X119279523Y-94012438D02*
X119327142Y-94060057D01*
X119660476Y-93964819D02*
X120279523Y-93964819D01*
X120279523Y-93964819D02*
X119946190Y-94345771D01*
X119946190Y-94345771D02*
X120089047Y-94345771D01*
X120089047Y-94345771D02*
X120184285Y-94393390D01*
X120184285Y-94393390D02*
X120231904Y-94441009D01*
X120231904Y-94441009D02*
X120279523Y-94536247D01*
X120279523Y-94536247D02*
X120279523Y-94774342D01*
X120279523Y-94774342D02*
X120231904Y-94869580D01*
X120231904Y-94869580D02*
X120184285Y-94917200D01*
X120184285Y-94917200D02*
X120089047Y-94964819D01*
X120089047Y-94964819D02*
X119803333Y-94964819D01*
X119803333Y-94964819D02*
X119708095Y-94917200D01*
X119708095Y-94917200D02*
X119660476Y-94869580D01*
X121231904Y-94964819D02*
X120660476Y-94964819D01*
X120946190Y-94964819D02*
X120946190Y-93964819D01*
X120946190Y-93964819D02*
X120850952Y-94107676D01*
X120850952Y-94107676D02*
X120755714Y-94202914D01*
X120755714Y-94202914D02*
X120660476Y-94250533D01*
X118966666Y-87731009D02*
X118633333Y-87731009D01*
X118633333Y-88254819D02*
X118633333Y-87254819D01*
X118633333Y-87254819D02*
X119109523Y-87254819D01*
X119823809Y-87731009D02*
X119966666Y-87778628D01*
X119966666Y-87778628D02*
X120014285Y-87826247D01*
X120014285Y-87826247D02*
X120061904Y-87921485D01*
X120061904Y-87921485D02*
X120061904Y-88064342D01*
X120061904Y-88064342D02*
X120014285Y-88159580D01*
X120014285Y-88159580D02*
X119966666Y-88207200D01*
X119966666Y-88207200D02*
X119871428Y-88254819D01*
X119871428Y-88254819D02*
X119490476Y-88254819D01*
X119490476Y-88254819D02*
X119490476Y-87254819D01*
X119490476Y-87254819D02*
X119823809Y-87254819D01*
X119823809Y-87254819D02*
X119919047Y-87302438D01*
X119919047Y-87302438D02*
X119966666Y-87350057D01*
X119966666Y-87350057D02*
X120014285Y-87445295D01*
X120014285Y-87445295D02*
X120014285Y-87540533D01*
X120014285Y-87540533D02*
X119966666Y-87635771D01*
X119966666Y-87635771D02*
X119919047Y-87683390D01*
X119919047Y-87683390D02*
X119823809Y-87731009D01*
X119823809Y-87731009D02*
X119490476Y-87731009D01*
X120919047Y-87254819D02*
X120728571Y-87254819D01*
X120728571Y-87254819D02*
X120633333Y-87302438D01*
X120633333Y-87302438D02*
X120585714Y-87350057D01*
X120585714Y-87350057D02*
X120490476Y-87492914D01*
X120490476Y-87492914D02*
X120442857Y-87683390D01*
X120442857Y-87683390D02*
X120442857Y-88064342D01*
X120442857Y-88064342D02*
X120490476Y-88159580D01*
X120490476Y-88159580D02*
X120538095Y-88207200D01*
X120538095Y-88207200D02*
X120633333Y-88254819D01*
X120633333Y-88254819D02*
X120823809Y-88254819D01*
X120823809Y-88254819D02*
X120919047Y-88207200D01*
X120919047Y-88207200D02*
X120966666Y-88159580D01*
X120966666Y-88159580D02*
X121014285Y-88064342D01*
X121014285Y-88064342D02*
X121014285Y-87826247D01*
X121014285Y-87826247D02*
X120966666Y-87731009D01*
X120966666Y-87731009D02*
X120919047Y-87683390D01*
X120919047Y-87683390D02*
X120823809Y-87635771D01*
X120823809Y-87635771D02*
X120633333Y-87635771D01*
X120633333Y-87635771D02*
X120538095Y-87683390D01*
X120538095Y-87683390D02*
X120490476Y-87731009D01*
X120490476Y-87731009D02*
X120442857Y-87826247D01*
X123777142Y-72469580D02*
X123729523Y-72517200D01*
X123729523Y-72517200D02*
X123586666Y-72564819D01*
X123586666Y-72564819D02*
X123491428Y-72564819D01*
X123491428Y-72564819D02*
X123348571Y-72517200D01*
X123348571Y-72517200D02*
X123253333Y-72421961D01*
X123253333Y-72421961D02*
X123205714Y-72326723D01*
X123205714Y-72326723D02*
X123158095Y-72136247D01*
X123158095Y-72136247D02*
X123158095Y-71993390D01*
X123158095Y-71993390D02*
X123205714Y-71802914D01*
X123205714Y-71802914D02*
X123253333Y-71707676D01*
X123253333Y-71707676D02*
X123348571Y-71612438D01*
X123348571Y-71612438D02*
X123491428Y-71564819D01*
X123491428Y-71564819D02*
X123586666Y-71564819D01*
X123586666Y-71564819D02*
X123729523Y-71612438D01*
X123729523Y-71612438D02*
X123777142Y-71660057D01*
X124729523Y-72564819D02*
X124158095Y-72564819D01*
X124443809Y-72564819D02*
X124443809Y-71564819D01*
X124443809Y-71564819D02*
X124348571Y-71707676D01*
X124348571Y-71707676D02*
X124253333Y-71802914D01*
X124253333Y-71802914D02*
X124158095Y-71850533D01*
X125586666Y-71898152D02*
X125586666Y-72564819D01*
X125348571Y-71517200D02*
X125110476Y-72231485D01*
X125110476Y-72231485D02*
X125729523Y-72231485D01*
X160187142Y-87259580D02*
X160139523Y-87307200D01*
X160139523Y-87307200D02*
X159996666Y-87354819D01*
X159996666Y-87354819D02*
X159901428Y-87354819D01*
X159901428Y-87354819D02*
X159758571Y-87307200D01*
X159758571Y-87307200D02*
X159663333Y-87211961D01*
X159663333Y-87211961D02*
X159615714Y-87116723D01*
X159615714Y-87116723D02*
X159568095Y-86926247D01*
X159568095Y-86926247D02*
X159568095Y-86783390D01*
X159568095Y-86783390D02*
X159615714Y-86592914D01*
X159615714Y-86592914D02*
X159663333Y-86497676D01*
X159663333Y-86497676D02*
X159758571Y-86402438D01*
X159758571Y-86402438D02*
X159901428Y-86354819D01*
X159901428Y-86354819D02*
X159996666Y-86354819D01*
X159996666Y-86354819D02*
X160139523Y-86402438D01*
X160139523Y-86402438D02*
X160187142Y-86450057D01*
X160568095Y-86450057D02*
X160615714Y-86402438D01*
X160615714Y-86402438D02*
X160710952Y-86354819D01*
X160710952Y-86354819D02*
X160949047Y-86354819D01*
X160949047Y-86354819D02*
X161044285Y-86402438D01*
X161044285Y-86402438D02*
X161091904Y-86450057D01*
X161091904Y-86450057D02*
X161139523Y-86545295D01*
X161139523Y-86545295D02*
X161139523Y-86640533D01*
X161139523Y-86640533D02*
X161091904Y-86783390D01*
X161091904Y-86783390D02*
X160520476Y-87354819D01*
X160520476Y-87354819D02*
X161139523Y-87354819D01*
X161615714Y-87354819D02*
X161806190Y-87354819D01*
X161806190Y-87354819D02*
X161901428Y-87307200D01*
X161901428Y-87307200D02*
X161949047Y-87259580D01*
X161949047Y-87259580D02*
X162044285Y-87116723D01*
X162044285Y-87116723D02*
X162091904Y-86926247D01*
X162091904Y-86926247D02*
X162091904Y-86545295D01*
X162091904Y-86545295D02*
X162044285Y-86450057D01*
X162044285Y-86450057D02*
X161996666Y-86402438D01*
X161996666Y-86402438D02*
X161901428Y-86354819D01*
X161901428Y-86354819D02*
X161710952Y-86354819D01*
X161710952Y-86354819D02*
X161615714Y-86402438D01*
X161615714Y-86402438D02*
X161568095Y-86450057D01*
X161568095Y-86450057D02*
X161520476Y-86545295D01*
X161520476Y-86545295D02*
X161520476Y-86783390D01*
X161520476Y-86783390D02*
X161568095Y-86878628D01*
X161568095Y-86878628D02*
X161615714Y-86926247D01*
X161615714Y-86926247D02*
X161710952Y-86973866D01*
X161710952Y-86973866D02*
X161901428Y-86973866D01*
X161901428Y-86973866D02*
X161996666Y-86926247D01*
X161996666Y-86926247D02*
X162044285Y-86878628D01*
X162044285Y-86878628D02*
X162091904Y-86783390D01*
X130117142Y-116309580D02*
X130069523Y-116357200D01*
X130069523Y-116357200D02*
X129926666Y-116404819D01*
X129926666Y-116404819D02*
X129831428Y-116404819D01*
X129831428Y-116404819D02*
X129688571Y-116357200D01*
X129688571Y-116357200D02*
X129593333Y-116261961D01*
X129593333Y-116261961D02*
X129545714Y-116166723D01*
X129545714Y-116166723D02*
X129498095Y-115976247D01*
X129498095Y-115976247D02*
X129498095Y-115833390D01*
X129498095Y-115833390D02*
X129545714Y-115642914D01*
X129545714Y-115642914D02*
X129593333Y-115547676D01*
X129593333Y-115547676D02*
X129688571Y-115452438D01*
X129688571Y-115452438D02*
X129831428Y-115404819D01*
X129831428Y-115404819D02*
X129926666Y-115404819D01*
X129926666Y-115404819D02*
X130069523Y-115452438D01*
X130069523Y-115452438D02*
X130117142Y-115500057D01*
X131069523Y-116404819D02*
X130498095Y-116404819D01*
X130783809Y-116404819D02*
X130783809Y-115404819D01*
X130783809Y-115404819D02*
X130688571Y-115547676D01*
X130688571Y-115547676D02*
X130593333Y-115642914D01*
X130593333Y-115642914D02*
X130498095Y-115690533D01*
X131450476Y-115500057D02*
X131498095Y-115452438D01*
X131498095Y-115452438D02*
X131593333Y-115404819D01*
X131593333Y-115404819D02*
X131831428Y-115404819D01*
X131831428Y-115404819D02*
X131926666Y-115452438D01*
X131926666Y-115452438D02*
X131974285Y-115500057D01*
X131974285Y-115500057D02*
X132021904Y-115595295D01*
X132021904Y-115595295D02*
X132021904Y-115690533D01*
X132021904Y-115690533D02*
X131974285Y-115833390D01*
X131974285Y-115833390D02*
X131402857Y-116404819D01*
X131402857Y-116404819D02*
X132021904Y-116404819D01*
X130279580Y-69832857D02*
X130327200Y-69880476D01*
X130327200Y-69880476D02*
X130374819Y-70023333D01*
X130374819Y-70023333D02*
X130374819Y-70118571D01*
X130374819Y-70118571D02*
X130327200Y-70261428D01*
X130327200Y-70261428D02*
X130231961Y-70356666D01*
X130231961Y-70356666D02*
X130136723Y-70404285D01*
X130136723Y-70404285D02*
X129946247Y-70451904D01*
X129946247Y-70451904D02*
X129803390Y-70451904D01*
X129803390Y-70451904D02*
X129612914Y-70404285D01*
X129612914Y-70404285D02*
X129517676Y-70356666D01*
X129517676Y-70356666D02*
X129422438Y-70261428D01*
X129422438Y-70261428D02*
X129374819Y-70118571D01*
X129374819Y-70118571D02*
X129374819Y-70023333D01*
X129374819Y-70023333D02*
X129422438Y-69880476D01*
X129422438Y-69880476D02*
X129470057Y-69832857D01*
X130374819Y-68880476D02*
X130374819Y-69451904D01*
X130374819Y-69166190D02*
X129374819Y-69166190D01*
X129374819Y-69166190D02*
X129517676Y-69261428D01*
X129517676Y-69261428D02*
X129612914Y-69356666D01*
X129612914Y-69356666D02*
X129660533Y-69451904D01*
X129374819Y-68547142D02*
X129374819Y-67928095D01*
X129374819Y-67928095D02*
X129755771Y-68261428D01*
X129755771Y-68261428D02*
X129755771Y-68118571D01*
X129755771Y-68118571D02*
X129803390Y-68023333D01*
X129803390Y-68023333D02*
X129851009Y-67975714D01*
X129851009Y-67975714D02*
X129946247Y-67928095D01*
X129946247Y-67928095D02*
X130184342Y-67928095D01*
X130184342Y-67928095D02*
X130279580Y-67975714D01*
X130279580Y-67975714D02*
X130327200Y-68023333D01*
X130327200Y-68023333D02*
X130374819Y-68118571D01*
X130374819Y-68118571D02*
X130374819Y-68404285D01*
X130374819Y-68404285D02*
X130327200Y-68499523D01*
X130327200Y-68499523D02*
X130279580Y-68547142D01*
D10*
X130544742Y-137493482D02*
X131516171Y-137493482D01*
X131516171Y-137493482D02*
X131630457Y-137445863D01*
X131630457Y-137445863D02*
X131687600Y-137398244D01*
X131687600Y-137398244D02*
X131744742Y-137303006D01*
X131744742Y-137303006D02*
X131744742Y-137112530D01*
X131744742Y-137112530D02*
X131687600Y-137017292D01*
X131687600Y-137017292D02*
X131630457Y-136969673D01*
X131630457Y-136969673D02*
X131516171Y-136922054D01*
X131516171Y-136922054D02*
X130544742Y-136922054D01*
X130659028Y-136493482D02*
X130601885Y-136445863D01*
X130601885Y-136445863D02*
X130544742Y-136350625D01*
X130544742Y-136350625D02*
X130544742Y-136112530D01*
X130544742Y-136112530D02*
X130601885Y-136017292D01*
X130601885Y-136017292D02*
X130659028Y-135969673D01*
X130659028Y-135969673D02*
X130773314Y-135922054D01*
X130773314Y-135922054D02*
X130887600Y-135922054D01*
X130887600Y-135922054D02*
X131059028Y-135969673D01*
X131059028Y-135969673D02*
X131744742Y-136541101D01*
X131744742Y-136541101D02*
X131744742Y-135922054D01*
D13*
X119214819Y-58636666D02*
X118738628Y-58969999D01*
X119214819Y-59208094D02*
X118214819Y-59208094D01*
X118214819Y-59208094D02*
X118214819Y-58827142D01*
X118214819Y-58827142D02*
X118262438Y-58731904D01*
X118262438Y-58731904D02*
X118310057Y-58684285D01*
X118310057Y-58684285D02*
X118405295Y-58636666D01*
X118405295Y-58636666D02*
X118548152Y-58636666D01*
X118548152Y-58636666D02*
X118643390Y-58684285D01*
X118643390Y-58684285D02*
X118691009Y-58731904D01*
X118691009Y-58731904D02*
X118738628Y-58827142D01*
X118738628Y-58827142D02*
X118738628Y-59208094D01*
X119214819Y-57684285D02*
X119214819Y-58255713D01*
X119214819Y-57969999D02*
X118214819Y-57969999D01*
X118214819Y-57969999D02*
X118357676Y-58065237D01*
X118357676Y-58065237D02*
X118452914Y-58160475D01*
X118452914Y-58160475D02*
X118500533Y-58255713D01*
X133604819Y-66238094D02*
X134414342Y-66238094D01*
X134414342Y-66238094D02*
X134509580Y-66190475D01*
X134509580Y-66190475D02*
X134557200Y-66142856D01*
X134557200Y-66142856D02*
X134604819Y-66047618D01*
X134604819Y-66047618D02*
X134604819Y-65857142D01*
X134604819Y-65857142D02*
X134557200Y-65761904D01*
X134557200Y-65761904D02*
X134509580Y-65714285D01*
X134509580Y-65714285D02*
X134414342Y-65666666D01*
X134414342Y-65666666D02*
X133604819Y-65666666D01*
X134604819Y-64666666D02*
X134604819Y-65238094D01*
X134604819Y-64952380D02*
X133604819Y-64952380D01*
X133604819Y-64952380D02*
X133747676Y-65047618D01*
X133747676Y-65047618D02*
X133842914Y-65142856D01*
X133842914Y-65142856D02*
X133890533Y-65238094D01*
X133700057Y-64285713D02*
X133652438Y-64238094D01*
X133652438Y-64238094D02*
X133604819Y-64142856D01*
X133604819Y-64142856D02*
X133604819Y-63904761D01*
X133604819Y-63904761D02*
X133652438Y-63809523D01*
X133652438Y-63809523D02*
X133700057Y-63761904D01*
X133700057Y-63761904D02*
X133795295Y-63714285D01*
X133795295Y-63714285D02*
X133890533Y-63714285D01*
X133890533Y-63714285D02*
X134033390Y-63761904D01*
X134033390Y-63761904D02*
X134604819Y-64333332D01*
X134604819Y-64333332D02*
X134604819Y-63714285D01*
X118556666Y-81921009D02*
X118223333Y-81921009D01*
X118223333Y-82444819D02*
X118223333Y-81444819D01*
X118223333Y-81444819D02*
X118699523Y-81444819D01*
X119413809Y-81921009D02*
X119556666Y-81968628D01*
X119556666Y-81968628D02*
X119604285Y-82016247D01*
X119604285Y-82016247D02*
X119651904Y-82111485D01*
X119651904Y-82111485D02*
X119651904Y-82254342D01*
X119651904Y-82254342D02*
X119604285Y-82349580D01*
X119604285Y-82349580D02*
X119556666Y-82397200D01*
X119556666Y-82397200D02*
X119461428Y-82444819D01*
X119461428Y-82444819D02*
X119080476Y-82444819D01*
X119080476Y-82444819D02*
X119080476Y-81444819D01*
X119080476Y-81444819D02*
X119413809Y-81444819D01*
X119413809Y-81444819D02*
X119509047Y-81492438D01*
X119509047Y-81492438D02*
X119556666Y-81540057D01*
X119556666Y-81540057D02*
X119604285Y-81635295D01*
X119604285Y-81635295D02*
X119604285Y-81730533D01*
X119604285Y-81730533D02*
X119556666Y-81825771D01*
X119556666Y-81825771D02*
X119509047Y-81873390D01*
X119509047Y-81873390D02*
X119413809Y-81921009D01*
X119413809Y-81921009D02*
X119080476Y-81921009D01*
X120032857Y-81540057D02*
X120080476Y-81492438D01*
X120080476Y-81492438D02*
X120175714Y-81444819D01*
X120175714Y-81444819D02*
X120413809Y-81444819D01*
X120413809Y-81444819D02*
X120509047Y-81492438D01*
X120509047Y-81492438D02*
X120556666Y-81540057D01*
X120556666Y-81540057D02*
X120604285Y-81635295D01*
X120604285Y-81635295D02*
X120604285Y-81730533D01*
X120604285Y-81730533D02*
X120556666Y-81873390D01*
X120556666Y-81873390D02*
X119985238Y-82444819D01*
X119985238Y-82444819D02*
X120604285Y-82444819D01*
X138059580Y-86656666D02*
X138107200Y-86704285D01*
X138107200Y-86704285D02*
X138154819Y-86847142D01*
X138154819Y-86847142D02*
X138154819Y-86942380D01*
X138154819Y-86942380D02*
X138107200Y-87085237D01*
X138107200Y-87085237D02*
X138011961Y-87180475D01*
X138011961Y-87180475D02*
X137916723Y-87228094D01*
X137916723Y-87228094D02*
X137726247Y-87275713D01*
X137726247Y-87275713D02*
X137583390Y-87275713D01*
X137583390Y-87275713D02*
X137392914Y-87228094D01*
X137392914Y-87228094D02*
X137297676Y-87180475D01*
X137297676Y-87180475D02*
X137202438Y-87085237D01*
X137202438Y-87085237D02*
X137154819Y-86942380D01*
X137154819Y-86942380D02*
X137154819Y-86847142D01*
X137154819Y-86847142D02*
X137202438Y-86704285D01*
X137202438Y-86704285D02*
X137250057Y-86656666D01*
X137154819Y-85751904D02*
X137154819Y-86228094D01*
X137154819Y-86228094D02*
X137631009Y-86275713D01*
X137631009Y-86275713D02*
X137583390Y-86228094D01*
X137583390Y-86228094D02*
X137535771Y-86132856D01*
X137535771Y-86132856D02*
X137535771Y-85894761D01*
X137535771Y-85894761D02*
X137583390Y-85799523D01*
X137583390Y-85799523D02*
X137631009Y-85751904D01*
X137631009Y-85751904D02*
X137726247Y-85704285D01*
X137726247Y-85704285D02*
X137964342Y-85704285D01*
X137964342Y-85704285D02*
X138059580Y-85751904D01*
X138059580Y-85751904D02*
X138107200Y-85799523D01*
X138107200Y-85799523D02*
X138154819Y-85894761D01*
X138154819Y-85894761D02*
X138154819Y-86132856D01*
X138154819Y-86132856D02*
X138107200Y-86228094D01*
X138107200Y-86228094D02*
X138059580Y-86275713D01*
X120413333Y-132359580D02*
X120365714Y-132407200D01*
X120365714Y-132407200D02*
X120222857Y-132454819D01*
X120222857Y-132454819D02*
X120127619Y-132454819D01*
X120127619Y-132454819D02*
X119984762Y-132407200D01*
X119984762Y-132407200D02*
X119889524Y-132311961D01*
X119889524Y-132311961D02*
X119841905Y-132216723D01*
X119841905Y-132216723D02*
X119794286Y-132026247D01*
X119794286Y-132026247D02*
X119794286Y-131883390D01*
X119794286Y-131883390D02*
X119841905Y-131692914D01*
X119841905Y-131692914D02*
X119889524Y-131597676D01*
X119889524Y-131597676D02*
X119984762Y-131502438D01*
X119984762Y-131502438D02*
X120127619Y-131454819D01*
X120127619Y-131454819D02*
X120222857Y-131454819D01*
X120222857Y-131454819D02*
X120365714Y-131502438D01*
X120365714Y-131502438D02*
X120413333Y-131550057D01*
X121270476Y-131788152D02*
X121270476Y-132454819D01*
X121032381Y-131407200D02*
X120794286Y-132121485D01*
X120794286Y-132121485D02*
X121413333Y-132121485D01*
X129767142Y-108559580D02*
X129719523Y-108607200D01*
X129719523Y-108607200D02*
X129576666Y-108654819D01*
X129576666Y-108654819D02*
X129481428Y-108654819D01*
X129481428Y-108654819D02*
X129338571Y-108607200D01*
X129338571Y-108607200D02*
X129243333Y-108511961D01*
X129243333Y-108511961D02*
X129195714Y-108416723D01*
X129195714Y-108416723D02*
X129148095Y-108226247D01*
X129148095Y-108226247D02*
X129148095Y-108083390D01*
X129148095Y-108083390D02*
X129195714Y-107892914D01*
X129195714Y-107892914D02*
X129243333Y-107797676D01*
X129243333Y-107797676D02*
X129338571Y-107702438D01*
X129338571Y-107702438D02*
X129481428Y-107654819D01*
X129481428Y-107654819D02*
X129576666Y-107654819D01*
X129576666Y-107654819D02*
X129719523Y-107702438D01*
X129719523Y-107702438D02*
X129767142Y-107750057D01*
X130719523Y-108654819D02*
X130148095Y-108654819D01*
X130433809Y-108654819D02*
X130433809Y-107654819D01*
X130433809Y-107654819D02*
X130338571Y-107797676D01*
X130338571Y-107797676D02*
X130243333Y-107892914D01*
X130243333Y-107892914D02*
X130148095Y-107940533D01*
X131338571Y-107654819D02*
X131433809Y-107654819D01*
X131433809Y-107654819D02*
X131529047Y-107702438D01*
X131529047Y-107702438D02*
X131576666Y-107750057D01*
X131576666Y-107750057D02*
X131624285Y-107845295D01*
X131624285Y-107845295D02*
X131671904Y-108035771D01*
X131671904Y-108035771D02*
X131671904Y-108273866D01*
X131671904Y-108273866D02*
X131624285Y-108464342D01*
X131624285Y-108464342D02*
X131576666Y-108559580D01*
X131576666Y-108559580D02*
X131529047Y-108607200D01*
X131529047Y-108607200D02*
X131433809Y-108654819D01*
X131433809Y-108654819D02*
X131338571Y-108654819D01*
X131338571Y-108654819D02*
X131243333Y-108607200D01*
X131243333Y-108607200D02*
X131195714Y-108559580D01*
X131195714Y-108559580D02*
X131148095Y-108464342D01*
X131148095Y-108464342D02*
X131100476Y-108273866D01*
X131100476Y-108273866D02*
X131100476Y-108035771D01*
X131100476Y-108035771D02*
X131148095Y-107845295D01*
X131148095Y-107845295D02*
X131195714Y-107750057D01*
X131195714Y-107750057D02*
X131243333Y-107702438D01*
X131243333Y-107702438D02*
X131338571Y-107654819D01*
X113496666Y-98374819D02*
X113496666Y-99089104D01*
X113496666Y-99089104D02*
X113449047Y-99231961D01*
X113449047Y-99231961D02*
X113353809Y-99327200D01*
X113353809Y-99327200D02*
X113210952Y-99374819D01*
X113210952Y-99374819D02*
X113115714Y-99374819D01*
X114401428Y-98708152D02*
X114401428Y-99374819D01*
X114163333Y-98327200D02*
X113925238Y-99041485D01*
X113925238Y-99041485D02*
X114544285Y-99041485D01*
X129697142Y-93449580D02*
X129649523Y-93497200D01*
X129649523Y-93497200D02*
X129506666Y-93544819D01*
X129506666Y-93544819D02*
X129411428Y-93544819D01*
X129411428Y-93544819D02*
X129268571Y-93497200D01*
X129268571Y-93497200D02*
X129173333Y-93401961D01*
X129173333Y-93401961D02*
X129125714Y-93306723D01*
X129125714Y-93306723D02*
X129078095Y-93116247D01*
X129078095Y-93116247D02*
X129078095Y-92973390D01*
X129078095Y-92973390D02*
X129125714Y-92782914D01*
X129125714Y-92782914D02*
X129173333Y-92687676D01*
X129173333Y-92687676D02*
X129268571Y-92592438D01*
X129268571Y-92592438D02*
X129411428Y-92544819D01*
X129411428Y-92544819D02*
X129506666Y-92544819D01*
X129506666Y-92544819D02*
X129649523Y-92592438D01*
X129649523Y-92592438D02*
X129697142Y-92640057D01*
X130078095Y-92640057D02*
X130125714Y-92592438D01*
X130125714Y-92592438D02*
X130220952Y-92544819D01*
X130220952Y-92544819D02*
X130459047Y-92544819D01*
X130459047Y-92544819D02*
X130554285Y-92592438D01*
X130554285Y-92592438D02*
X130601904Y-92640057D01*
X130601904Y-92640057D02*
X130649523Y-92735295D01*
X130649523Y-92735295D02*
X130649523Y-92830533D01*
X130649523Y-92830533D02*
X130601904Y-92973390D01*
X130601904Y-92973390D02*
X130030476Y-93544819D01*
X130030476Y-93544819D02*
X130649523Y-93544819D01*
X131554285Y-92544819D02*
X131078095Y-92544819D01*
X131078095Y-92544819D02*
X131030476Y-93021009D01*
X131030476Y-93021009D02*
X131078095Y-92973390D01*
X131078095Y-92973390D02*
X131173333Y-92925771D01*
X131173333Y-92925771D02*
X131411428Y-92925771D01*
X131411428Y-92925771D02*
X131506666Y-92973390D01*
X131506666Y-92973390D02*
X131554285Y-93021009D01*
X131554285Y-93021009D02*
X131601904Y-93116247D01*
X131601904Y-93116247D02*
X131601904Y-93354342D01*
X131601904Y-93354342D02*
X131554285Y-93449580D01*
X131554285Y-93449580D02*
X131506666Y-93497200D01*
X131506666Y-93497200D02*
X131411428Y-93544819D01*
X131411428Y-93544819D02*
X131173333Y-93544819D01*
X131173333Y-93544819D02*
X131078095Y-93497200D01*
X131078095Y-93497200D02*
X131030476Y-93449580D01*
X129683333Y-100949580D02*
X129635714Y-100997200D01*
X129635714Y-100997200D02*
X129492857Y-101044819D01*
X129492857Y-101044819D02*
X129397619Y-101044819D01*
X129397619Y-101044819D02*
X129254762Y-100997200D01*
X129254762Y-100997200D02*
X129159524Y-100901961D01*
X129159524Y-100901961D02*
X129111905Y-100806723D01*
X129111905Y-100806723D02*
X129064286Y-100616247D01*
X129064286Y-100616247D02*
X129064286Y-100473390D01*
X129064286Y-100473390D02*
X129111905Y-100282914D01*
X129111905Y-100282914D02*
X129159524Y-100187676D01*
X129159524Y-100187676D02*
X129254762Y-100092438D01*
X129254762Y-100092438D02*
X129397619Y-100044819D01*
X129397619Y-100044819D02*
X129492857Y-100044819D01*
X129492857Y-100044819D02*
X129635714Y-100092438D01*
X129635714Y-100092438D02*
X129683333Y-100140057D01*
X130159524Y-101044819D02*
X130350000Y-101044819D01*
X130350000Y-101044819D02*
X130445238Y-100997200D01*
X130445238Y-100997200D02*
X130492857Y-100949580D01*
X130492857Y-100949580D02*
X130588095Y-100806723D01*
X130588095Y-100806723D02*
X130635714Y-100616247D01*
X130635714Y-100616247D02*
X130635714Y-100235295D01*
X130635714Y-100235295D02*
X130588095Y-100140057D01*
X130588095Y-100140057D02*
X130540476Y-100092438D01*
X130540476Y-100092438D02*
X130445238Y-100044819D01*
X130445238Y-100044819D02*
X130254762Y-100044819D01*
X130254762Y-100044819D02*
X130159524Y-100092438D01*
X130159524Y-100092438D02*
X130111905Y-100140057D01*
X130111905Y-100140057D02*
X130064286Y-100235295D01*
X130064286Y-100235295D02*
X130064286Y-100473390D01*
X130064286Y-100473390D02*
X130111905Y-100568628D01*
X130111905Y-100568628D02*
X130159524Y-100616247D01*
X130159524Y-100616247D02*
X130254762Y-100663866D01*
X130254762Y-100663866D02*
X130445238Y-100663866D01*
X130445238Y-100663866D02*
X130540476Y-100616247D01*
X130540476Y-100616247D02*
X130588095Y-100568628D01*
X130588095Y-100568628D02*
X130635714Y-100473390D01*
X128757142Y-61989580D02*
X128709523Y-62037200D01*
X128709523Y-62037200D02*
X128566666Y-62084819D01*
X128566666Y-62084819D02*
X128471428Y-62084819D01*
X128471428Y-62084819D02*
X128328571Y-62037200D01*
X128328571Y-62037200D02*
X128233333Y-61941961D01*
X128233333Y-61941961D02*
X128185714Y-61846723D01*
X128185714Y-61846723D02*
X128138095Y-61656247D01*
X128138095Y-61656247D02*
X128138095Y-61513390D01*
X128138095Y-61513390D02*
X128185714Y-61322914D01*
X128185714Y-61322914D02*
X128233333Y-61227676D01*
X128233333Y-61227676D02*
X128328571Y-61132438D01*
X128328571Y-61132438D02*
X128471428Y-61084819D01*
X128471428Y-61084819D02*
X128566666Y-61084819D01*
X128566666Y-61084819D02*
X128709523Y-61132438D01*
X128709523Y-61132438D02*
X128757142Y-61180057D01*
X129138095Y-61180057D02*
X129185714Y-61132438D01*
X129185714Y-61132438D02*
X129280952Y-61084819D01*
X129280952Y-61084819D02*
X129519047Y-61084819D01*
X129519047Y-61084819D02*
X129614285Y-61132438D01*
X129614285Y-61132438D02*
X129661904Y-61180057D01*
X129661904Y-61180057D02*
X129709523Y-61275295D01*
X129709523Y-61275295D02*
X129709523Y-61370533D01*
X129709523Y-61370533D02*
X129661904Y-61513390D01*
X129661904Y-61513390D02*
X129090476Y-62084819D01*
X129090476Y-62084819D02*
X129709523Y-62084819D01*
X130090476Y-61180057D02*
X130138095Y-61132438D01*
X130138095Y-61132438D02*
X130233333Y-61084819D01*
X130233333Y-61084819D02*
X130471428Y-61084819D01*
X130471428Y-61084819D02*
X130566666Y-61132438D01*
X130566666Y-61132438D02*
X130614285Y-61180057D01*
X130614285Y-61180057D02*
X130661904Y-61275295D01*
X130661904Y-61275295D02*
X130661904Y-61370533D01*
X130661904Y-61370533D02*
X130614285Y-61513390D01*
X130614285Y-61513390D02*
X130042857Y-62084819D01*
X130042857Y-62084819D02*
X130661904Y-62084819D01*
D10*
X131044742Y-105993482D02*
X132016171Y-105993482D01*
X132016171Y-105993482D02*
X132130457Y-105945863D01*
X132130457Y-105945863D02*
X132187600Y-105898244D01*
X132187600Y-105898244D02*
X132244742Y-105803006D01*
X132244742Y-105803006D02*
X132244742Y-105612530D01*
X132244742Y-105612530D02*
X132187600Y-105517292D01*
X132187600Y-105517292D02*
X132130457Y-105469673D01*
X132130457Y-105469673D02*
X132016171Y-105422054D01*
X132016171Y-105422054D02*
X131044742Y-105422054D01*
X131444742Y-104517292D02*
X132244742Y-104517292D01*
X130987600Y-104755387D02*
X131844742Y-104993482D01*
X131844742Y-104993482D02*
X131844742Y-104374435D01*
D13*
X119557142Y-76039580D02*
X119509523Y-76087200D01*
X119509523Y-76087200D02*
X119366666Y-76134819D01*
X119366666Y-76134819D02*
X119271428Y-76134819D01*
X119271428Y-76134819D02*
X119128571Y-76087200D01*
X119128571Y-76087200D02*
X119033333Y-75991961D01*
X119033333Y-75991961D02*
X118985714Y-75896723D01*
X118985714Y-75896723D02*
X118938095Y-75706247D01*
X118938095Y-75706247D02*
X118938095Y-75563390D01*
X118938095Y-75563390D02*
X118985714Y-75372914D01*
X118985714Y-75372914D02*
X119033333Y-75277676D01*
X119033333Y-75277676D02*
X119128571Y-75182438D01*
X119128571Y-75182438D02*
X119271428Y-75134819D01*
X119271428Y-75134819D02*
X119366666Y-75134819D01*
X119366666Y-75134819D02*
X119509523Y-75182438D01*
X119509523Y-75182438D02*
X119557142Y-75230057D01*
X119938095Y-75230057D02*
X119985714Y-75182438D01*
X119985714Y-75182438D02*
X120080952Y-75134819D01*
X120080952Y-75134819D02*
X120319047Y-75134819D01*
X120319047Y-75134819D02*
X120414285Y-75182438D01*
X120414285Y-75182438D02*
X120461904Y-75230057D01*
X120461904Y-75230057D02*
X120509523Y-75325295D01*
X120509523Y-75325295D02*
X120509523Y-75420533D01*
X120509523Y-75420533D02*
X120461904Y-75563390D01*
X120461904Y-75563390D02*
X119890476Y-76134819D01*
X119890476Y-76134819D02*
X120509523Y-76134819D01*
X120842857Y-75134819D02*
X121461904Y-75134819D01*
X121461904Y-75134819D02*
X121128571Y-75515771D01*
X121128571Y-75515771D02*
X121271428Y-75515771D01*
X121271428Y-75515771D02*
X121366666Y-75563390D01*
X121366666Y-75563390D02*
X121414285Y-75611009D01*
X121414285Y-75611009D02*
X121461904Y-75706247D01*
X121461904Y-75706247D02*
X121461904Y-75944342D01*
X121461904Y-75944342D02*
X121414285Y-76039580D01*
X121414285Y-76039580D02*
X121366666Y-76087200D01*
X121366666Y-76087200D02*
X121271428Y-76134819D01*
X121271428Y-76134819D02*
X120985714Y-76134819D01*
X120985714Y-76134819D02*
X120890476Y-76087200D01*
X120890476Y-76087200D02*
X120842857Y-76039580D01*
X134867142Y-89499580D02*
X134819523Y-89547200D01*
X134819523Y-89547200D02*
X134676666Y-89594819D01*
X134676666Y-89594819D02*
X134581428Y-89594819D01*
X134581428Y-89594819D02*
X134438571Y-89547200D01*
X134438571Y-89547200D02*
X134343333Y-89451961D01*
X134343333Y-89451961D02*
X134295714Y-89356723D01*
X134295714Y-89356723D02*
X134248095Y-89166247D01*
X134248095Y-89166247D02*
X134248095Y-89023390D01*
X134248095Y-89023390D02*
X134295714Y-88832914D01*
X134295714Y-88832914D02*
X134343333Y-88737676D01*
X134343333Y-88737676D02*
X134438571Y-88642438D01*
X134438571Y-88642438D02*
X134581428Y-88594819D01*
X134581428Y-88594819D02*
X134676666Y-88594819D01*
X134676666Y-88594819D02*
X134819523Y-88642438D01*
X134819523Y-88642438D02*
X134867142Y-88690057D01*
X135248095Y-88690057D02*
X135295714Y-88642438D01*
X135295714Y-88642438D02*
X135390952Y-88594819D01*
X135390952Y-88594819D02*
X135629047Y-88594819D01*
X135629047Y-88594819D02*
X135724285Y-88642438D01*
X135724285Y-88642438D02*
X135771904Y-88690057D01*
X135771904Y-88690057D02*
X135819523Y-88785295D01*
X135819523Y-88785295D02*
X135819523Y-88880533D01*
X135819523Y-88880533D02*
X135771904Y-89023390D01*
X135771904Y-89023390D02*
X135200476Y-89594819D01*
X135200476Y-89594819D02*
X135819523Y-89594819D01*
X136438571Y-88594819D02*
X136533809Y-88594819D01*
X136533809Y-88594819D02*
X136629047Y-88642438D01*
X136629047Y-88642438D02*
X136676666Y-88690057D01*
X136676666Y-88690057D02*
X136724285Y-88785295D01*
X136724285Y-88785295D02*
X136771904Y-88975771D01*
X136771904Y-88975771D02*
X136771904Y-89213866D01*
X136771904Y-89213866D02*
X136724285Y-89404342D01*
X136724285Y-89404342D02*
X136676666Y-89499580D01*
X136676666Y-89499580D02*
X136629047Y-89547200D01*
X136629047Y-89547200D02*
X136533809Y-89594819D01*
X136533809Y-89594819D02*
X136438571Y-89594819D01*
X136438571Y-89594819D02*
X136343333Y-89547200D01*
X136343333Y-89547200D02*
X136295714Y-89499580D01*
X136295714Y-89499580D02*
X136248095Y-89404342D01*
X136248095Y-89404342D02*
X136200476Y-89213866D01*
X136200476Y-89213866D02*
X136200476Y-88975771D01*
X136200476Y-88975771D02*
X136248095Y-88785295D01*
X136248095Y-88785295D02*
X136295714Y-88690057D01*
X136295714Y-88690057D02*
X136343333Y-88642438D01*
X136343333Y-88642438D02*
X136438571Y-88594819D01*
D14*
%TO.C,U13*%
X129807500Y-77810000D02*
X131067500Y-77810000D01*
X129807500Y-81570000D02*
X129807500Y-77810000D01*
X136627500Y-77810000D02*
X135367500Y-77810000D01*
X136627500Y-81570000D02*
X136627500Y-77810000D01*
X129907500Y-82850000D02*
X129577500Y-83090000D01*
X129577500Y-82610000D01*
X129907500Y-82850000D01*
G36*
X129907500Y-82850000D02*
G01*
X129577500Y-83090000D01*
X129577500Y-82610000D01*
X129907500Y-82850000D01*
G37*
D15*
%TO.C,U5*%
X122750000Y-117412500D02*
X122750000Y-117297500D01*
X122750000Y-122297500D02*
X122750000Y-122181500D01*
X123399000Y-117282500D02*
X122750000Y-117282500D01*
X123399000Y-117282500D02*
X124314000Y-117282500D01*
X125685000Y-117282500D02*
X126600000Y-117282500D01*
X126600000Y-117282500D02*
X127250000Y-117282500D01*
X127250000Y-117297500D02*
X127250000Y-117412500D01*
X127250000Y-122181500D02*
X127250000Y-122297500D01*
X127250000Y-122297500D02*
X122750000Y-122297500D01*
D16*
X122200000Y-117047500D02*
G75*
G02*
X121800000Y-117047500I-200000J0D01*
G01*
X121800000Y-117047500D02*
G75*
G02*
X122200000Y-117047500I200000J0D01*
G01*
D15*
X125686000Y-117282500D02*
G75*
G02*
X124314000Y-117282500I-686000J0D01*
G01*
D14*
%TO.C,F1*%
X157372064Y-82160000D02*
X156167936Y-82160000D01*
X157372064Y-83980000D02*
X156167936Y-83980000D01*
%TO.C,C2*%
X122728748Y-107405000D02*
X123251252Y-107405000D01*
X122728748Y-108875000D02*
X123251252Y-108875000D01*
%TO.C,C17*%
X143941252Y-80345000D02*
X143418748Y-80345000D01*
X143941252Y-81815000D02*
X143418748Y-81815000D01*
%TO.C,FB3*%
X119799622Y-80120000D02*
X119000378Y-80120000D01*
X119799622Y-81240000D02*
X119000378Y-81240000D01*
%TO.C,C27*%
X130071252Y-138935000D02*
X129548748Y-138935000D01*
X130071252Y-140405000D02*
X129548748Y-140405000D01*
%TO.C,C15*%
X142251252Y-69685000D02*
X141728748Y-69685000D01*
X142251252Y-71155000D02*
X141728748Y-71155000D01*
%TO.C,SW1*%
X98630000Y-61750000D02*
X102630000Y-61750000D01*
X102630000Y-58750000D01*
X98630000Y-58750000D01*
X98630000Y-61750000D01*
X102630000Y-71250000D02*
X110630000Y-71250000D01*
X110630000Y-49250000D01*
X102630000Y-49250000D01*
X102630000Y-71250000D01*
%TO.C,U11*%
X119860000Y-63090000D02*
X121120000Y-63090000D01*
X119860000Y-66850000D02*
X119860000Y-63090000D01*
X126680000Y-63090000D02*
X125420000Y-63090000D01*
X126680000Y-66850000D02*
X126680000Y-63090000D01*
X119960000Y-68130000D02*
X119630000Y-68370000D01*
X119630000Y-67890000D01*
X119960000Y-68130000D01*
G36*
X119960000Y-68130000D02*
G01*
X119630000Y-68370000D01*
X119630000Y-67890000D01*
X119960000Y-68130000D01*
G37*
%TO.C,R2*%
X128155000Y-58182936D02*
X128155000Y-58637064D01*
X129625000Y-58182936D02*
X129625000Y-58637064D01*
D15*
%TO.C,U7*%
X140013000Y-87763000D02*
X140013000Y-88102000D01*
X140013000Y-90164000D02*
X140013000Y-90642000D01*
X140013000Y-92704000D02*
X140013000Y-93182000D01*
X140013000Y-95244000D02*
X140013000Y-95722000D01*
X140013000Y-97784000D02*
X140013000Y-98262000D01*
X140013000Y-100324000D02*
X140013000Y-100802000D01*
X140013000Y-102864000D02*
X140013000Y-103342000D01*
X140013000Y-105404000D02*
X140013000Y-105882000D01*
X140013000Y-107944000D02*
X140013000Y-108422000D01*
X140013000Y-110484000D02*
X140013000Y-110962000D01*
X140013000Y-113024000D02*
X140013000Y-113502000D01*
X140013000Y-115564000D02*
X140013000Y-116042000D01*
X140013000Y-118104000D02*
X140013000Y-118582000D01*
X140013000Y-120644000D02*
X140013000Y-121122000D01*
X140013000Y-123184000D02*
X140013000Y-123662000D01*
X140013000Y-125724000D02*
X140013000Y-126202000D01*
X140013000Y-128264000D02*
X140013000Y-128742000D01*
X140013000Y-130804000D02*
X140013000Y-131282000D01*
X140013000Y-133344000D02*
X140013000Y-133822000D01*
X140013000Y-135884000D02*
X140013000Y-136362000D01*
X140013000Y-138424000D02*
X140013000Y-138763000D01*
X140013000Y-138763000D02*
X146941000Y-138763000D01*
X146512000Y-86863000D02*
X146512000Y-86463000D01*
X146704000Y-86863000D02*
X146704000Y-87737000D01*
X146704000Y-87737000D02*
X146678000Y-87763000D01*
X149004000Y-138763000D02*
X149481000Y-138763000D01*
X151544000Y-138763000D02*
X152021000Y-138763000D01*
X154084000Y-138763000D02*
X161013000Y-138763000D01*
X154315000Y-86863000D02*
X154315000Y-87763000D01*
X154512000Y-86463000D02*
X146512000Y-86463000D01*
X154512000Y-86463000D02*
X154512000Y-86863000D01*
X154512000Y-86863000D02*
X146512000Y-86863000D01*
X161013000Y-87763000D02*
X140013000Y-87763000D01*
X161013000Y-88102000D02*
X161013000Y-87763000D01*
X161013000Y-90642000D02*
X161013000Y-90164000D01*
X161013000Y-93182000D02*
X161013000Y-92704000D01*
X161013000Y-95722000D02*
X161013000Y-95244000D01*
X161013000Y-98262000D02*
X161013000Y-97784000D01*
X161013000Y-100802000D02*
X161013000Y-100324000D01*
X161013000Y-103342000D02*
X161013000Y-102864000D01*
X161013000Y-105882000D02*
X161013000Y-105404000D01*
X161013000Y-108422000D02*
X161013000Y-107944000D01*
X161013000Y-110962000D02*
X161013000Y-110484000D01*
X161013000Y-113502000D02*
X161013000Y-113024000D01*
X161013000Y-116042000D02*
X161013000Y-115564000D01*
X161013000Y-118582000D02*
X161013000Y-118104000D01*
X161013000Y-121122000D02*
X161013000Y-120644000D01*
X161013000Y-123662000D02*
X161013000Y-123184000D01*
X161013000Y-126202000D02*
X161013000Y-125724000D01*
X161013000Y-128742000D02*
X161013000Y-128264000D01*
X161013000Y-131282000D02*
X161013000Y-130804000D01*
X161013000Y-133822000D02*
X161013000Y-133344000D01*
X161013000Y-136362000D02*
X161013000Y-135884000D01*
X161013000Y-138763000D02*
X161013000Y-138424000D01*
D17*
X138262000Y-89113000D02*
G75*
G02*
X137762000Y-89113000I-250000J0D01*
G01*
X137762000Y-89113000D02*
G75*
G02*
X138262000Y-89113000I250000J0D01*
G01*
D15*
X145812000Y-89913000D02*
G75*
G02*
X144212000Y-89913000I-800000J0D01*
G01*
X144212000Y-89913000D02*
G75*
G02*
X145812000Y-89913000I800000J0D01*
G01*
X146412000Y-89913000D02*
G75*
G02*
X143612000Y-89913000I-1400000J0D01*
G01*
X143612000Y-89913000D02*
G75*
G02*
X146412000Y-89913000I1400000J0D01*
G01*
X145812000Y-136613000D02*
G75*
G02*
X144212000Y-136613000I-800000J0D01*
G01*
X144212000Y-136613000D02*
G75*
G02*
X145812000Y-136613000I800000J0D01*
G01*
X146412000Y-136613000D02*
G75*
G02*
X143612000Y-136613000I-1400000J0D01*
G01*
X143612000Y-136613000D02*
G75*
G02*
X146412000Y-136613000I1400000J0D01*
G01*
X156812000Y-89913000D02*
G75*
G02*
X155212000Y-89913000I-800000J0D01*
G01*
X155212000Y-89913000D02*
G75*
G02*
X156812000Y-89913000I800000J0D01*
G01*
X157412000Y-89913000D02*
G75*
G02*
X154612000Y-89913000I-1400000J0D01*
G01*
X154612000Y-89913000D02*
G75*
G02*
X157412000Y-89913000I1400000J0D01*
G01*
X156812000Y-136613000D02*
G75*
G02*
X155212000Y-136613000I-800000J0D01*
G01*
X155212000Y-136613000D02*
G75*
G02*
X156812000Y-136613000I800000J0D01*
G01*
X157412000Y-136613000D02*
G75*
G02*
X154612000Y-136613000I-1400000J0D01*
G01*
X154612000Y-136613000D02*
G75*
G02*
X157412000Y-136613000I1400000J0D01*
G01*
D14*
%TO.C,C7*%
X126561252Y-138935000D02*
X126038748Y-138935000D01*
X126561252Y-140405000D02*
X126038748Y-140405000D01*
%TO.C,C8*%
X127761252Y-131115000D02*
X127238748Y-131115000D01*
X127761252Y-132585000D02*
X127238748Y-132585000D01*
%TO.C,C30*%
X160220000Y-84061144D02*
X160670000Y-84061144D01*
X160445000Y-84286144D02*
X160445000Y-83836144D01*
X160720000Y-83868597D02*
G75*
G02*
X162840000Y-83868597I1060000J2119741D01*
G01*
%TO.C,J1*%
X120000000Y-50850000D02*
X120000000Y-53610000D01*
X120000000Y-53610000D02*
X127840000Y-53610000D01*
X120110000Y-56270000D02*
X120110000Y-55000000D01*
X120950000Y-53840000D02*
X120950000Y-53610000D01*
X121380000Y-56270000D02*
X120110000Y-56270000D01*
X121810000Y-53840000D02*
X121810000Y-53610000D01*
X122650000Y-53610000D02*
X122650000Y-50850000D01*
X123490000Y-44850000D02*
X124350000Y-44850000D01*
X123490000Y-50850000D02*
X123490000Y-44850000D01*
X123490000Y-53922642D02*
X123490000Y-53610000D01*
X124350000Y-44850000D02*
X124350000Y-50850000D01*
X124350000Y-53922642D02*
X124350000Y-53610000D01*
X125190000Y-53610000D02*
X125190000Y-50850000D01*
X126030000Y-44850000D02*
X126890000Y-44850000D01*
X126030000Y-50850000D02*
X126030000Y-44850000D01*
X126030000Y-53922642D02*
X126030000Y-53610000D01*
X126890000Y-44850000D02*
X126890000Y-50850000D01*
X126890000Y-53922642D02*
X126890000Y-53610000D01*
X127840000Y-50850000D02*
X120000000Y-50850000D01*
X127840000Y-53610000D02*
X127840000Y-50850000D01*
X120950000Y-50850000D02*
X121810000Y-50850000D01*
X121810000Y-44850000D01*
X120950000Y-44850000D01*
X120950000Y-50850000D01*
G36*
X120950000Y-50850000D02*
G01*
X121810000Y-50850000D01*
X121810000Y-44850000D01*
X120950000Y-44850000D01*
X120950000Y-50850000D01*
G37*
%TO.C,C6*%
X122738748Y-123205000D02*
X123261252Y-123205000D01*
X122738748Y-124675000D02*
X123261252Y-124675000D01*
%TO.C,C3*%
X122738748Y-115155000D02*
X123261252Y-115155000D01*
X122738748Y-116625000D02*
X123261252Y-116625000D01*
%TO.C,C1*%
X122738748Y-99845000D02*
X123261252Y-99845000D01*
X122738748Y-101315000D02*
X123261252Y-101315000D01*
%TO.C,C18*%
X134561252Y-84495000D02*
X134038748Y-84495000D01*
X134561252Y-85965000D02*
X134038748Y-85965000D01*
%TO.C,C16*%
X137098748Y-69725000D02*
X137621252Y-69725000D01*
X137098748Y-71195000D02*
X137621252Y-71195000D01*
%TO.C,J5*%
X102810000Y-100985000D02*
X108810000Y-100985000D01*
X102810000Y-101845000D02*
X102810000Y-100985000D01*
X102810000Y-103525000D02*
X108810000Y-103525000D01*
X102810000Y-104385000D02*
X102810000Y-103525000D01*
X102810000Y-106065000D02*
X108810000Y-106065000D01*
X102810000Y-106925000D02*
X102810000Y-106065000D01*
X102810000Y-108605000D02*
X108810000Y-108605000D01*
X102810000Y-109465000D02*
X102810000Y-108605000D01*
X102810000Y-111145000D02*
X108810000Y-111145000D01*
X102810000Y-112005000D02*
X102810000Y-111145000D01*
X102810000Y-113685000D02*
X108810000Y-113685000D01*
X102810000Y-114545000D02*
X102810000Y-113685000D01*
X102810000Y-116225000D02*
X108810000Y-116225000D01*
X102810000Y-117085000D02*
X102810000Y-116225000D01*
X102810000Y-118765000D02*
X108810000Y-118765000D01*
X102810000Y-119625000D02*
X102810000Y-118765000D01*
X102810000Y-121305000D02*
X108810000Y-121305000D01*
X102810000Y-122165000D02*
X102810000Y-121305000D01*
X102810000Y-123845000D02*
X108810000Y-123845000D01*
X102810000Y-124705000D02*
X102810000Y-123845000D01*
X102810000Y-126385000D02*
X108810000Y-126385000D01*
X102810000Y-127245000D02*
X102810000Y-126385000D01*
X102810000Y-128925000D02*
X108810000Y-128925000D01*
X102810000Y-129785000D02*
X102810000Y-128925000D01*
X102810000Y-131465000D02*
X108810000Y-131465000D01*
X102810000Y-132325000D02*
X102810000Y-131465000D01*
X108810000Y-100035000D02*
X108810000Y-135815000D01*
X108810000Y-101845000D02*
X102810000Y-101845000D01*
X108810000Y-104385000D02*
X102810000Y-104385000D01*
X108810000Y-106925000D02*
X102810000Y-106925000D01*
X108810000Y-109465000D02*
X102810000Y-109465000D01*
X108810000Y-112005000D02*
X102810000Y-112005000D01*
X108810000Y-114545000D02*
X102810000Y-114545000D01*
X108810000Y-117085000D02*
X102810000Y-117085000D01*
X108810000Y-119625000D02*
X102810000Y-119625000D01*
X108810000Y-122165000D02*
X102810000Y-122165000D01*
X108810000Y-124705000D02*
X102810000Y-124705000D01*
X108810000Y-127245000D02*
X102810000Y-127245000D01*
X108810000Y-129785000D02*
X102810000Y-129785000D01*
X108810000Y-132325000D02*
X102810000Y-132325000D01*
X108810000Y-135815000D02*
X111570000Y-135815000D01*
X111570000Y-100035000D02*
X108810000Y-100035000D01*
X111570000Y-102685000D02*
X108810000Y-102685000D01*
X111570000Y-105225000D02*
X108810000Y-105225000D01*
X111570000Y-107765000D02*
X108810000Y-107765000D01*
X111570000Y-110305000D02*
X108810000Y-110305000D01*
X111570000Y-112845000D02*
X108810000Y-112845000D01*
X111570000Y-115385000D02*
X108810000Y-115385000D01*
X111570000Y-117925000D02*
X108810000Y-117925000D01*
X111570000Y-120465000D02*
X108810000Y-120465000D01*
X111570000Y-123005000D02*
X108810000Y-123005000D01*
X111570000Y-125545000D02*
X108810000Y-125545000D01*
X111570000Y-128085000D02*
X108810000Y-128085000D01*
X111570000Y-130625000D02*
X108810000Y-130625000D01*
X111570000Y-133165000D02*
X108810000Y-133165000D01*
X111570000Y-135815000D02*
X111570000Y-100035000D01*
X111882642Y-100985000D02*
X111570000Y-100985000D01*
X111882642Y-101845000D02*
X111570000Y-101845000D01*
X111882642Y-103525000D02*
X111570000Y-103525000D01*
X111882642Y-104385000D02*
X111570000Y-104385000D01*
X111882642Y-106065000D02*
X111570000Y-106065000D01*
X111882642Y-106925000D02*
X111570000Y-106925000D01*
X111882642Y-108605000D02*
X111570000Y-108605000D01*
X111882642Y-109465000D02*
X111570000Y-109465000D01*
X111882642Y-111145000D02*
X111570000Y-111145000D01*
X111882642Y-112005000D02*
X111570000Y-112005000D01*
X111882642Y-113685000D02*
X111570000Y-113685000D01*
X111882642Y-114545000D02*
X111570000Y-114545000D01*
X111882642Y-116225000D02*
X111570000Y-116225000D01*
X111882642Y-117085000D02*
X111570000Y-117085000D01*
X111882642Y-118765000D02*
X111570000Y-118765000D01*
X111882642Y-119625000D02*
X111570000Y-119625000D01*
X111882642Y-121305000D02*
X111570000Y-121305000D01*
X111882642Y-122165000D02*
X111570000Y-122165000D01*
X111882642Y-123845000D02*
X111570000Y-123845000D01*
X111882642Y-124705000D02*
X111570000Y-124705000D01*
X111882642Y-126385000D02*
X111570000Y-126385000D01*
X111882642Y-127245000D02*
X111570000Y-127245000D01*
X111882642Y-128925000D02*
X111570000Y-128925000D01*
X111882642Y-129785000D02*
X111570000Y-129785000D01*
X111882642Y-131465000D02*
X111570000Y-131465000D01*
X111882642Y-132325000D02*
X111570000Y-132325000D01*
X111882642Y-134005000D02*
X111570000Y-134005000D01*
X111882642Y-134865000D02*
X111570000Y-134865000D01*
X114340000Y-134005000D02*
X114037358Y-134005000D01*
X114340000Y-134865000D02*
X114037358Y-134865000D01*
X114422642Y-100985000D02*
X114037358Y-100985000D01*
X114422642Y-101845000D02*
X114037358Y-101845000D01*
X114422642Y-103525000D02*
X114037358Y-103525000D01*
X114422642Y-104385000D02*
X114037358Y-104385000D01*
X114422642Y-106065000D02*
X114037358Y-106065000D01*
X114422642Y-106925000D02*
X114037358Y-106925000D01*
X114422642Y-108605000D02*
X114037358Y-108605000D01*
X114422642Y-109465000D02*
X114037358Y-109465000D01*
X114422642Y-111145000D02*
X114037358Y-111145000D01*
X114422642Y-112005000D02*
X114037358Y-112005000D01*
X114422642Y-113685000D02*
X114037358Y-113685000D01*
X114422642Y-114545000D02*
X114037358Y-114545000D01*
X114422642Y-116225000D02*
X114037358Y-116225000D01*
X114422642Y-117085000D02*
X114037358Y-117085000D01*
X114422642Y-118765000D02*
X114037358Y-118765000D01*
X114422642Y-119625000D02*
X114037358Y-119625000D01*
X114422642Y-121305000D02*
X114037358Y-121305000D01*
X114422642Y-122165000D02*
X114037358Y-122165000D01*
X114422642Y-123845000D02*
X114037358Y-123845000D01*
X114422642Y-124705000D02*
X114037358Y-124705000D01*
X114422642Y-126385000D02*
X114037358Y-126385000D01*
X114422642Y-127245000D02*
X114037358Y-127245000D01*
X114422642Y-128925000D02*
X114037358Y-128925000D01*
X114422642Y-129785000D02*
X114037358Y-129785000D01*
X114422642Y-131465000D02*
X114037358Y-131465000D01*
X114422642Y-132325000D02*
X114037358Y-132325000D01*
X116770000Y-134435000D02*
X116770000Y-135705000D01*
X116770000Y-135705000D02*
X115500000Y-135705000D01*
X108810000Y-134865000D02*
X102810000Y-134865000D01*
X102810000Y-134005000D01*
X108810000Y-134005000D01*
X108810000Y-134865000D01*
G36*
X108810000Y-134865000D02*
G01*
X102810000Y-134865000D01*
X102810000Y-134005000D01*
X108810000Y-134005000D01*
X108810000Y-134865000D01*
G37*
D15*
%TO.C,U1*%
X122750000Y-94402500D02*
X122750000Y-94287500D01*
X122750000Y-99287500D02*
X122750000Y-99171500D01*
X123399000Y-94272500D02*
X122750000Y-94272500D01*
X123399000Y-94272500D02*
X124314000Y-94272500D01*
X125685000Y-94272500D02*
X126600000Y-94272500D01*
X126600000Y-94272500D02*
X127250000Y-94272500D01*
X127250000Y-94287500D02*
X127250000Y-94402500D01*
X127250000Y-99171500D02*
X127250000Y-99287500D01*
X127250000Y-99287500D02*
X122750000Y-99287500D01*
D16*
X122200000Y-94037500D02*
G75*
G02*
X121800000Y-94037500I-200000J0D01*
G01*
X121800000Y-94037500D02*
G75*
G02*
X122200000Y-94037500I200000J0D01*
G01*
D15*
X125686000Y-94272500D02*
G75*
G02*
X124314000Y-94272500I-686000J0D01*
G01*
D14*
%TO.C,C24*%
X142295000Y-71443856D02*
X142295000Y-71893856D01*
X142520000Y-71668856D02*
X142070000Y-71668856D01*
X142020000Y-71861403D02*
G75*
G02*
X139900000Y-71861403I-1060000J-2119741D01*
G01*
%TO.C,J3*%
X136000000Y-50850000D02*
X136000000Y-53610000D01*
X136000000Y-53610000D02*
X143840000Y-53610000D01*
X136110000Y-56270000D02*
X136110000Y-55000000D01*
X136950000Y-53840000D02*
X136950000Y-53610000D01*
X137380000Y-56270000D02*
X136110000Y-56270000D01*
X137810000Y-53840000D02*
X137810000Y-53610000D01*
X138650000Y-53610000D02*
X138650000Y-50850000D01*
X139490000Y-44850000D02*
X140350000Y-44850000D01*
X139490000Y-50850000D02*
X139490000Y-44850000D01*
X139490000Y-53922642D02*
X139490000Y-53610000D01*
X140350000Y-44850000D02*
X140350000Y-50850000D01*
X140350000Y-53922642D02*
X140350000Y-53610000D01*
X141190000Y-53610000D02*
X141190000Y-50850000D01*
X142030000Y-44850000D02*
X142890000Y-44850000D01*
X142030000Y-50850000D02*
X142030000Y-44850000D01*
X142030000Y-53922642D02*
X142030000Y-53610000D01*
X142890000Y-44850000D02*
X142890000Y-50850000D01*
X142890000Y-53922642D02*
X142890000Y-53610000D01*
X143840000Y-50850000D02*
X136000000Y-50850000D01*
X143840000Y-53610000D02*
X143840000Y-50850000D01*
X136950000Y-50850000D02*
X137810000Y-50850000D01*
X137810000Y-44850000D01*
X136950000Y-44850000D01*
X136950000Y-50850000D01*
G36*
X136950000Y-50850000D02*
G01*
X137810000Y-50850000D01*
X137810000Y-44850000D01*
X136950000Y-44850000D01*
X136950000Y-50850000D01*
G37*
%TO.C,C21*%
X131080000Y-74421144D02*
X131530000Y-74421144D01*
X131305000Y-74646144D02*
X131305000Y-74196144D01*
X131580000Y-74228597D02*
G75*
G02*
X133700000Y-74228597I1060000J2119741D01*
G01*
%TO.C,D1*%
X122120000Y-56750000D02*
X122120000Y-58970000D01*
X122120000Y-58970000D02*
X126530000Y-58970000D01*
X126530000Y-56750000D02*
X122120000Y-56750000D01*
D15*
%TO.C,U3*%
X122750000Y-125504000D02*
X122750000Y-125389000D01*
X122750000Y-130389000D02*
X122750000Y-130273000D01*
X123399000Y-125374000D02*
X122750000Y-125374000D01*
X123399000Y-125374000D02*
X124314000Y-125374000D01*
X125685000Y-125374000D02*
X126600000Y-125374000D01*
X126600000Y-125374000D02*
X127250000Y-125374000D01*
X127250000Y-125389000D02*
X127250000Y-125504000D01*
X127250000Y-130273000D02*
X127250000Y-130389000D01*
X127250000Y-130389000D02*
X122750000Y-130389000D01*
D16*
X122200000Y-125139000D02*
G75*
G02*
X121800000Y-125139000I-200000J0D01*
G01*
X121800000Y-125139000D02*
G75*
G02*
X122200000Y-125139000I200000J0D01*
G01*
D15*
X125686000Y-125374000D02*
G75*
G02*
X124314000Y-125374000I-686000J0D01*
G01*
D14*
%TO.C,C11*%
X127761252Y-123165000D02*
X127238748Y-123165000D01*
X127761252Y-124635000D02*
X127238748Y-124635000D01*
%TO.C,FB5*%
X119070000Y-92719622D02*
X119070000Y-91920378D01*
X120190000Y-92719622D02*
X120190000Y-91920378D01*
%TO.C,FB1*%
X119799622Y-85220000D02*
X119000378Y-85220000D01*
X119799622Y-86340000D02*
X119000378Y-86340000D01*
D15*
%TO.C,U6*%
X122750000Y-109542500D02*
X122750000Y-109427500D01*
X122750000Y-114427500D02*
X122750000Y-114311500D01*
X123399000Y-109412500D02*
X122750000Y-109412500D01*
X123399000Y-109412500D02*
X124314000Y-109412500D01*
X125685000Y-109412500D02*
X126600000Y-109412500D01*
X126600000Y-109412500D02*
X127250000Y-109412500D01*
X127250000Y-109427500D02*
X127250000Y-109542500D01*
X127250000Y-114311500D02*
X127250000Y-114427500D01*
X127250000Y-114427500D02*
X122750000Y-114427500D01*
D16*
X122200000Y-109177500D02*
G75*
G02*
X121800000Y-109177500I-200000J0D01*
G01*
X121800000Y-109177500D02*
G75*
G02*
X122200000Y-109177500I200000J0D01*
G01*
D15*
X125686000Y-109412500D02*
G75*
G02*
X124314000Y-109412500I-686000J0D01*
G01*
D14*
%TO.C,C37*%
X123261252Y-90385000D02*
X122738748Y-90385000D01*
X123261252Y-91855000D02*
X122738748Y-91855000D01*
%TO.C,C19*%
X138490000Y-84271144D02*
X138940000Y-84271144D01*
X138715000Y-84496144D02*
X138715000Y-84046144D01*
X138990000Y-84078597D02*
G75*
G02*
X141110000Y-84078597I1060000J2119741D01*
G01*
%TO.C,C38*%
X122981252Y-138965000D02*
X122458748Y-138965000D01*
X122981252Y-140435000D02*
X122458748Y-140435000D01*
%TO.C,C26*%
X121395000Y-86911252D02*
X121395000Y-86388748D01*
X122865000Y-86911252D02*
X122865000Y-86388748D01*
%TO.C,FB4*%
X144129622Y-82440000D02*
X143330378Y-82440000D01*
X144129622Y-83560000D02*
X143330378Y-83560000D01*
%TO.C,C28*%
X127238748Y-90315000D02*
X127761252Y-90315000D01*
X127238748Y-91785000D02*
X127761252Y-91785000D01*
%TO.C,C31*%
X123261252Y-92405000D02*
X122738748Y-92405000D01*
X123261252Y-93875000D02*
X122738748Y-93875000D01*
%TO.C,FB6*%
X123369622Y-88650000D02*
X122570378Y-88650000D01*
X123369622Y-89770000D02*
X122570378Y-89770000D01*
%TO.C,C14*%
X124681252Y-69695000D02*
X124158748Y-69695000D01*
X124681252Y-71165000D02*
X124158748Y-71165000D01*
%TO.C,C29*%
X160628748Y-84555000D02*
X161151252Y-84555000D01*
X160628748Y-86025000D02*
X161151252Y-86025000D01*
%TO.C,C12*%
X127761252Y-115155000D02*
X127238748Y-115155000D01*
X127761252Y-116625000D02*
X127238748Y-116625000D01*
%TO.C,C13*%
X127505000Y-68928748D02*
X127505000Y-69451252D01*
X128975000Y-68928748D02*
X128975000Y-69451252D01*
D15*
%TO.C,U2*%
X122750000Y-133584000D02*
X122750000Y-133469000D01*
X122750000Y-138469000D02*
X122750000Y-138353000D01*
X123399000Y-133454000D02*
X122750000Y-133454000D01*
X123399000Y-133454000D02*
X124314000Y-133454000D01*
X125685000Y-133454000D02*
X126600000Y-133454000D01*
X126600000Y-133454000D02*
X127250000Y-133454000D01*
X127250000Y-133469000D02*
X127250000Y-133584000D01*
X127250000Y-138353000D02*
X127250000Y-138469000D01*
X127250000Y-138469000D02*
X122750000Y-138469000D01*
D16*
X122200000Y-133219000D02*
G75*
G02*
X121800000Y-133219000I-200000J0D01*
G01*
X121800000Y-133219000D02*
G75*
G02*
X122200000Y-133219000I200000J0D01*
G01*
D15*
X125686000Y-133454000D02*
G75*
G02*
X124314000Y-133454000I-686000J0D01*
G01*
D14*
%TO.C,R1*%
X119675000Y-58697064D02*
X119675000Y-58242936D01*
X121145000Y-58697064D02*
X121145000Y-58242936D01*
%TO.C,U12*%
X135240000Y-63090000D02*
X136500000Y-63090000D01*
X135240000Y-66850000D02*
X135240000Y-63090000D01*
X142060000Y-63090000D02*
X140800000Y-63090000D01*
X142060000Y-66850000D02*
X142060000Y-63090000D01*
X135340000Y-68130000D02*
X135010000Y-68370000D01*
X135010000Y-67890000D01*
X135340000Y-68130000D01*
G36*
X135340000Y-68130000D02*
G01*
X135010000Y-68370000D01*
X135010000Y-67890000D01*
X135340000Y-68130000D01*
G37*
%TO.C,FB2*%
X119769622Y-82690000D02*
X118970378Y-82690000D01*
X119769622Y-83810000D02*
X118970378Y-83810000D01*
%TO.C,C5*%
X136965000Y-83538748D02*
X136965000Y-84061252D01*
X138435000Y-83538748D02*
X138435000Y-84061252D01*
%TO.C,C4*%
X122738748Y-131225000D02*
X123261252Y-131225000D01*
X122738748Y-132695000D02*
X123261252Y-132695000D01*
%TO.C,C10*%
X127761252Y-107385000D02*
X127238748Y-107385000D01*
X127761252Y-108855000D02*
X127238748Y-108855000D01*
%TO.C,J4*%
X102810000Y-75170000D02*
X108810000Y-75170000D01*
X102810000Y-76030000D02*
X102810000Y-75170000D01*
X102810000Y-77710000D02*
X108810000Y-77710000D01*
X102810000Y-78570000D02*
X102810000Y-77710000D01*
X102810000Y-80250000D02*
X108810000Y-80250000D01*
X102810000Y-81110000D02*
X102810000Y-80250000D01*
X102810000Y-82790000D02*
X108810000Y-82790000D01*
X102810000Y-83650000D02*
X102810000Y-82790000D01*
X102810000Y-85330000D02*
X108810000Y-85330000D01*
X102810000Y-86190000D02*
X102810000Y-85330000D01*
X102810000Y-87870000D02*
X108810000Y-87870000D01*
X102810000Y-88730000D02*
X102810000Y-87870000D01*
X102810000Y-90410000D02*
X108810000Y-90410000D01*
X102810000Y-91270000D02*
X102810000Y-90410000D01*
X102810000Y-92950000D02*
X108810000Y-92950000D01*
X102810000Y-93810000D02*
X102810000Y-92950000D01*
X108810000Y-74220000D02*
X108810000Y-97300000D01*
X108810000Y-76030000D02*
X102810000Y-76030000D01*
X108810000Y-78570000D02*
X102810000Y-78570000D01*
X108810000Y-81110000D02*
X102810000Y-81110000D01*
X108810000Y-83650000D02*
X102810000Y-83650000D01*
X108810000Y-86190000D02*
X102810000Y-86190000D01*
X108810000Y-88730000D02*
X102810000Y-88730000D01*
X108810000Y-91270000D02*
X102810000Y-91270000D01*
X108810000Y-93810000D02*
X102810000Y-93810000D01*
X108810000Y-97300000D02*
X111570000Y-97300000D01*
X111570000Y-74220000D02*
X108810000Y-74220000D01*
X111570000Y-76870000D02*
X108810000Y-76870000D01*
X111570000Y-79410000D02*
X108810000Y-79410000D01*
X111570000Y-81950000D02*
X108810000Y-81950000D01*
X111570000Y-84490000D02*
X108810000Y-84490000D01*
X111570000Y-87030000D02*
X108810000Y-87030000D01*
X111570000Y-89570000D02*
X108810000Y-89570000D01*
X111570000Y-92110000D02*
X108810000Y-92110000D01*
X111570000Y-94650000D02*
X108810000Y-94650000D01*
X111570000Y-97300000D02*
X111570000Y-74220000D01*
X111882642Y-75170000D02*
X111570000Y-75170000D01*
X111882642Y-76030000D02*
X111570000Y-76030000D01*
X111882642Y-77710000D02*
X111570000Y-77710000D01*
X111882642Y-78570000D02*
X111570000Y-78570000D01*
X111882642Y-80250000D02*
X111570000Y-80250000D01*
X111882642Y-81110000D02*
X111570000Y-81110000D01*
X111882642Y-82790000D02*
X111570000Y-82790000D01*
X111882642Y-83650000D02*
X111570000Y-83650000D01*
X111882642Y-85330000D02*
X111570000Y-85330000D01*
X111882642Y-86190000D02*
X111570000Y-86190000D01*
X111882642Y-87870000D02*
X111570000Y-87870000D01*
X111882642Y-88730000D02*
X111570000Y-88730000D01*
X111882642Y-90410000D02*
X111570000Y-90410000D01*
X111882642Y-91270000D02*
X111570000Y-91270000D01*
X111882642Y-92950000D02*
X111570000Y-92950000D01*
X111882642Y-93810000D02*
X111570000Y-93810000D01*
X111882642Y-95490000D02*
X111570000Y-95490000D01*
X111882642Y-96350000D02*
X111570000Y-96350000D01*
X114340000Y-95490000D02*
X114037358Y-95490000D01*
X114340000Y-96350000D02*
X114037358Y-96350000D01*
X114422642Y-75170000D02*
X114037358Y-75170000D01*
X114422642Y-76030000D02*
X114037358Y-76030000D01*
X114422642Y-77710000D02*
X114037358Y-77710000D01*
X114422642Y-78570000D02*
X114037358Y-78570000D01*
X114422642Y-80250000D02*
X114037358Y-80250000D01*
X114422642Y-81110000D02*
X114037358Y-81110000D01*
X114422642Y-82790000D02*
X114037358Y-82790000D01*
X114422642Y-83650000D02*
X114037358Y-83650000D01*
X114422642Y-85330000D02*
X114037358Y-85330000D01*
X114422642Y-86190000D02*
X114037358Y-86190000D01*
X114422642Y-87870000D02*
X114037358Y-87870000D01*
X114422642Y-88730000D02*
X114037358Y-88730000D01*
X114422642Y-90410000D02*
X114037358Y-90410000D01*
X114422642Y-91270000D02*
X114037358Y-91270000D01*
X114422642Y-92950000D02*
X114037358Y-92950000D01*
X114422642Y-93810000D02*
X114037358Y-93810000D01*
X116770000Y-95920000D02*
X116770000Y-97190000D01*
X116770000Y-97190000D02*
X115500000Y-97190000D01*
X108810000Y-96350000D02*
X102810000Y-96350000D01*
X102810000Y-95490000D01*
X108810000Y-95490000D01*
X108810000Y-96350000D01*
G36*
X108810000Y-96350000D02*
G01*
X102810000Y-96350000D01*
X102810000Y-95490000D01*
X108810000Y-95490000D01*
X108810000Y-96350000D01*
G37*
%TO.C,C25*%
X127761252Y-92335000D02*
X127238748Y-92335000D01*
X127761252Y-93805000D02*
X127238748Y-93805000D01*
%TO.C,C9*%
X127761252Y-99855000D02*
X127238748Y-99855000D01*
X127761252Y-101325000D02*
X127238748Y-101325000D01*
%TO.C,C22*%
X127960000Y-67211144D02*
X128410000Y-67211144D01*
X128185000Y-67436144D02*
X128185000Y-66986144D01*
X128460000Y-67018597D02*
G75*
G02*
X130580000Y-67018597I1060000J2119741D01*
G01*
D15*
%TO.C,U4*%
X122750000Y-101882500D02*
X122750000Y-101767500D01*
X122750000Y-106767500D02*
X122750000Y-106651500D01*
X123399000Y-101752500D02*
X122750000Y-101752500D01*
X123399000Y-101752500D02*
X124314000Y-101752500D01*
X125685000Y-101752500D02*
X126600000Y-101752500D01*
X126600000Y-101752500D02*
X127250000Y-101752500D01*
X127250000Y-101767500D02*
X127250000Y-101882500D01*
X127250000Y-106651500D02*
X127250000Y-106767500D01*
X127250000Y-106767500D02*
X122750000Y-106767500D01*
D16*
X122200000Y-101517500D02*
G75*
G02*
X121800000Y-101517500I-200000J0D01*
G01*
X121800000Y-101517500D02*
G75*
G02*
X122200000Y-101517500I200000J0D01*
G01*
D15*
X125686000Y-101752500D02*
G75*
G02*
X124314000Y-101752500I-686000J0D01*
G01*
D14*
%TO.C,C23*%
X122512288Y-73740000D02*
X122512288Y-73290000D01*
X122737288Y-73515000D02*
X122287288Y-73515000D01*
X122319741Y-73240000D02*
G75*
G02*
X122319741Y-71120000I-2119741J1060000D01*
G01*
%TO.C,C20*%
X129043856Y-87755000D02*
X129493856Y-87755000D01*
X129268856Y-87530000D02*
X129268856Y-87980000D01*
X129461403Y-88030000D02*
G75*
G02*
X129461403Y-90150000I2119741J-1060000D01*
G01*
%TD*%
M02*
