M48
; DRILL file {KiCad 9.0.5} date 2025-10-20T18:48:50+0200
; FORMAT={-:-/ absolute / metric / decimal}
; #@! TF.CreationDate,2025-10-20T18:48:50+02:00
; #@! TF.GenerationSoftware,Kicad,Pcbnew,9.0.5
; #@! TF.FileFunction,Plated,1,2,PTH
FMAT,2
METRIC
; #@! TA.AperFunction,Plated,PTH,ViaDrill
T1C0.500
; #@! TA.AperFunction,Plated,PTH,ComponentDrill
T2C0.600
; #@! TA.AperFunction,Plated,PTH,ComponentDrill
T3C0.700
; #@! TA.AperFunction,Plated,PTH,ComponentDrill
T4C0.750
; #@! TA.AperFunction,Plated,PTH,ComponentDrill
T5C0.762
; #@! TA.AperFunction,Plated,PTH,ComponentDrill
T6C0.800
; #@! TA.AperFunction,Plated,PTH,ComponentDrill
T7C0.950
; #@! TA.AperFunction,Plated,PTH,ComponentDrill
T8C1.100
; #@! TA.AperFunction,Plated,PTH,ComponentDrill
T9C1.150
; #@! TA.AperFunction,Plated,PTH,ComponentDrill
T10C1.190
; #@! TA.AperFunction,Plated,PTH,ComponentDrill
T11C1.300
; #@! TA.AperFunction,Plated,PTH,ComponentDrill
T12C1.700
%
G90
G05
T1
X88.9Y-95.5
X92.8Y-95.5
X94.5Y-113.7
X134.3Y-78.55
X137.8Y-77.1
X151.8Y-82.7
X153.2Y-91.8
X169.2Y-99.3
X182.0Y-108.4
X212.0Y-118.2
T2
X102.392Y-78.65
X103.392Y-89.55
X105.392Y-89.55
X107.392Y-89.55
X109.392Y-89.55
X111.392Y-89.55
X112.332Y-78.69
T3
X102.938Y-100.72
X102.938Y-105.72
X141.542Y-123.62
X141.542Y-127.07
X173.942Y-86.12
X178.942Y-86.12
X179.457Y-118.21
X179.457Y-123.21
X216.992Y-107.47
X221.992Y-107.47
T4
X160.43Y-83.63
X162.43Y-83.63
X164.43Y-83.63
X166.43Y-83.63
X211.5Y-91.45
X213.5Y-91.45
X215.5Y-91.45
T5
X82.843Y-91.82
X85.242Y-111.32
X85.343Y-91.82
X87.742Y-111.32
X95.843Y-91.82
X96.442Y-111.32
X98.343Y-91.82
X98.843Y-111.32
X121.542Y-91.42
X124.093Y-91.44
X126.642Y-91.42
X129.192Y-91.43
X131.743Y-91.38
X134.243Y-91.44
X136.743Y-91.42
X139.292Y-91.42
X141.843Y-91.42
X148.942Y-78.12
X148.942Y-80.62
X148.942Y-83.22
X148.942Y-85.72
X148.942Y-88.32
X148.942Y-90.82
X187.412Y-77.85
X187.412Y-100.65
X190.412Y-100.65
X198.712Y-100.65
X201.612Y-77.85
X201.612Y-100.65
X205.183Y-101.87
X205.183Y-104.37
X223.182Y-101.87
X223.182Y-104.37
T6
X82.742Y-111.32
X154.292Y-78.365
X154.292Y-80.865
X166.4Y-90.855
X166.4Y-93.355
X179.27Y-110.585
X179.27Y-113.085
X184.377Y-113.25
X184.377Y-115.55
X184.577Y-125.55
X184.577Y-127.85
X208.977Y-113.25
X208.977Y-115.55
X208.977Y-125.55
X208.977Y-127.85
X211.88Y-107.815
X211.88Y-110.315
T7
X87.8Y-79.3
X90.3Y-79.3
X92.8Y-79.3
X95.3Y-79.3
T8
X183.732Y-91.5
X183.732Y-101.66
X188.11Y-107.94
X198.27Y-107.94
T9
X203.07Y-109.55
T10
X175.91Y-80.63
X178.45Y-80.63
X180.99Y-80.63
X183.53Y-80.63
X193.332Y-96.34
X195.873Y-96.34
T11
X85.1Y-87.1
X88.1Y-87.1
X92.9Y-87.1
X95.9Y-87.1
T12
X211.683Y-103.87
X216.682Y-103.87
M30
