%TF.GenerationSoftware,KiCad,Pcbnew,9.0.5*%
%TF.CreationDate,2025-10-20T18:48:48+02:00*%
%TF.ProjectId,yoradio-2,796f7261-6469-46f2-9d32-2e6b69636164,rev?*%
%TF.SameCoordinates,Original*%
%TF.FileFunction,Soldermask,Bot*%
%TF.FilePolarity,Negative*%
%FSLAX46Y46*%
G04 Gerber Fmt 4.6, Leading zero omitted, Abs format (unit mm)*
G04 Created by KiCad (PCBNEW 9.0.5) date 2025-10-20 18:48:48*
%MOMM*%
%LPD*%
G01*
G04 APERTURE LIST*
G04 Aperture macros list*
%AMRoundRect*
0 Rectangle with rounded corners*
0 $1 Rounding radius*
0 $2 $3 $4 $5 $6 $7 $8 $9 X,Y pos of 4 corners*
0 Add a 4 corners polygon primitive as box body*
4,1,4,$2,$3,$4,$5,$6,$7,$8,$9,$2,$3,0*
0 Add four circle primitives for the rounded corners*
1,1,$1+$1,$2,$3*
1,1,$1+$1,$4,$5*
1,1,$1+$1,$6,$7*
1,1,$1+$1,$8,$9*
0 Add four rect primitives between the rounded corners*
20,1,$1+$1,$2,$3,$4,$5,0*
20,1,$1+$1,$4,$5,$6,$7,0*
20,1,$1+$1,$6,$7,$8,$9,0*
20,1,$1+$1,$8,$9,$2,$3,0*%
G04 Aperture macros list end*
%ADD10R,2.000000X2.000000*%
%ADD11C,2.500000*%
%ADD12R,1.800000X1.800000*%
%ADD13R,2.000000X1.524000*%
%ADD14C,1.524000*%
%ADD15C,3.200000*%
%ADD16R,1.600000X1.600000*%
%ADD17C,1.600000*%
%ADD18RoundRect,0.249999X0.850001X0.850001X-0.850001X0.850001X-0.850001X-0.850001X0.850001X-0.850001X0*%
%ADD19C,2.200000*%
%ADD20RoundRect,0.250000X-0.825000X-0.825000X0.825000X-0.825000X0.825000X0.825000X-0.825000X0.825000X0*%
%ADD21R,2.100000X3.000000*%
%ADD22RoundRect,0.283333X-0.566667X-1.016667X0.566667X-1.016667X0.566667X1.016667X-0.566667X1.016667X0*%
%ADD23RoundRect,0.249999X-0.850001X0.850001X-0.850001X-0.850001X0.850001X-0.850001X0.850001X0.850001X0*%
%ADD24RoundRect,0.250000X0.550000X-0.550000X0.550000X0.550000X-0.550000X0.550000X-0.550000X-0.550000X0*%
%ADD25RoundRect,0.250000X0.412500X0.650000X-0.412500X0.650000X-0.412500X-0.650000X0.412500X-0.650000X0*%
%ADD26C,2.600000*%
%ADD27RoundRect,0.150000X0.150000X-0.587500X0.150000X0.587500X-0.150000X0.587500X-0.150000X-0.587500X0*%
%ADD28RoundRect,0.250000X0.650000X-0.412500X0.650000X0.412500X-0.650000X0.412500X-0.650000X-0.412500X0*%
%ADD29RoundRect,0.250000X-0.650000X0.412500X-0.650000X-0.412500X0.650000X-0.412500X0.650000X0.412500X0*%
%ADD30RoundRect,0.250000X0.350000X0.625000X-0.350000X0.625000X-0.350000X-0.625000X0.350000X-0.625000X0*%
%ADD31O,1.200000X1.750000*%
%ADD32RoundRect,0.250000X0.312500X0.625000X-0.312500X0.625000X-0.312500X-0.625000X0.312500X-0.625000X0*%
%ADD33RoundRect,0.250000X-0.620000X-0.845000X0.620000X-0.845000X0.620000X0.845000X-0.620000X0.845000X0*%
%ADD34O,1.740000X2.190000*%
%ADD35RoundRect,0.250000X-0.350000X-0.450000X0.350000X-0.450000X0.350000X0.450000X-0.350000X0.450000X0*%
%ADD36RoundRect,0.250000X0.600000X0.725000X-0.600000X0.725000X-0.600000X-0.725000X0.600000X-0.725000X0*%
%ADD37O,1.700000X1.950000*%
%ADD38RoundRect,0.218750X-0.218750X-0.381250X0.218750X-0.381250X0.218750X0.381250X-0.218750X0.381250X0*%
%ADD39RoundRect,0.250000X-0.312500X-0.625000X0.312500X-0.625000X0.312500X0.625000X-0.312500X0.625000X0*%
%ADD40RoundRect,0.250000X-0.350000X-0.625000X0.350000X-0.625000X0.350000X0.625000X-0.350000X0.625000X0*%
%ADD41RoundRect,0.150000X-0.825000X-0.150000X0.825000X-0.150000X0.825000X0.150000X-0.825000X0.150000X0*%
%ADD42C,1.500000*%
%ADD43R,3.400000X1.500000*%
%ADD44R,2.500000X1.500000*%
G04 APERTURE END LIST*
D10*
%TO.C,M4*%
X187412500Y-77850000D03*
X201612500Y-77850000D03*
X187412500Y-100650000D03*
X190412500Y-100650000D03*
X198712500Y-100650000D03*
X201612500Y-100650000D03*
%TD*%
D11*
%TO.C,M6*%
X141542500Y-123620000D03*
X141542500Y-127070000D03*
%TD*%
D12*
%TO.C,M1*%
X82742500Y-111320000D03*
X85242500Y-111320000D03*
X87742500Y-111320000D03*
D13*
X98842500Y-111320000D03*
X96442500Y-111320000D03*
X82842500Y-91820000D03*
X85342500Y-91820000D03*
X95842500Y-91820000D03*
X98342500Y-91820000D03*
%TD*%
D11*
%TO.C,H4*%
X133491380Y-98286205D03*
%TD*%
%TO.C,C14*%
X178942500Y-86120000D03*
X173942500Y-86120000D03*
%TD*%
%TO.C,H1*%
X80000000Y-126000000D03*
%TD*%
%TO.C,C2*%
X102937500Y-105720000D03*
X102937500Y-100720000D03*
%TD*%
%TO.C,H7*%
X150000000Y-126000000D03*
%TD*%
D14*
%TO.C,M5*%
X205182500Y-101870000D03*
X205182500Y-104370000D03*
D15*
X211682500Y-103870000D03*
X216682500Y-103870000D03*
D14*
X223182500Y-101870000D03*
X223182500Y-104370000D03*
%TD*%
D11*
%TO.C,H6*%
X153000000Y-103000000D03*
%TD*%
D16*
%TO.C,C3*%
X154292500Y-78364888D03*
D17*
X154292500Y-80864888D03*
%TD*%
D11*
%TO.C,C6*%
X216992500Y-107470000D03*
X221992500Y-107470000D03*
%TD*%
D18*
%TO.C,D1*%
X198270000Y-107940000D03*
D19*
X188110000Y-107940000D03*
%TD*%
D11*
%TO.C,H2*%
X80000000Y-82000000D03*
%TD*%
%TO.C,H5*%
X230000000Y-82000000D03*
%TD*%
D20*
%TO.C,J7*%
X203070000Y-109550000D03*
%TD*%
D16*
%TO.C,C7*%
X179270000Y-113085113D03*
D17*
X179270000Y-110585113D03*
%TD*%
D21*
%TO.C,M3*%
X208977500Y-115550000D03*
X208977500Y-113250000D03*
X208977500Y-127850000D03*
X208977500Y-125550000D03*
X184377500Y-115550000D03*
X184377500Y-113250000D03*
X184577500Y-127850000D03*
X184577500Y-125550000D03*
%TD*%
D16*
%TO.C,C8*%
X166400000Y-93355113D03*
D17*
X166400000Y-90855113D03*
%TD*%
D11*
%TO.C,C9*%
X179457500Y-118210000D03*
X179457500Y-123210000D03*
%TD*%
D14*
%TO.C,M2*%
X141842500Y-91420000D03*
X139292500Y-91420000D03*
X136742500Y-91420000D03*
X134242500Y-91440000D03*
X131742500Y-91380000D03*
X129192500Y-91430000D03*
X126642500Y-91420000D03*
X124092500Y-91440000D03*
X121542500Y-91420000D03*
X148942500Y-90820000D03*
X148942500Y-88320000D03*
X148942500Y-85720000D03*
X148942500Y-83220000D03*
X148942500Y-80620000D03*
X148942500Y-78120000D03*
%TD*%
D11*
%TO.C,H3*%
X230000000Y-126000000D03*
%TD*%
D22*
%TO.C,RV1*%
X103392500Y-89550000D03*
X105392500Y-89550000D03*
X107392500Y-89550000D03*
X109392500Y-89550000D03*
X111392500Y-89550000D03*
D11*
X102392500Y-78650000D03*
X112332500Y-78690000D03*
%TD*%
D23*
%TO.C,D2*%
X183732500Y-91500000D03*
D19*
X183732500Y-101660000D03*
%TD*%
D24*
%TO.C,C13*%
X211880000Y-110315113D03*
D17*
X211880000Y-107815113D03*
%TD*%
D25*
%TO.C,C1*%
X99055000Y-113670000D03*
X95930000Y-113670000D03*
%TD*%
D26*
%TO.C,L1*%
X85100000Y-87100000D03*
X88100000Y-87100000D03*
%TD*%
D27*
%TO.C,Q2*%
X161100000Y-91800000D03*
X163000000Y-91800000D03*
X162050000Y-89925000D03*
%TD*%
D28*
%TO.C,C11*%
X88940000Y-94002500D03*
X88940000Y-90877500D03*
%TD*%
D29*
%TO.C,C12*%
X92800000Y-90875000D03*
X92800000Y-94000000D03*
%TD*%
D30*
%TO.C,J2*%
X166430000Y-83630000D03*
D31*
X164430000Y-83630000D03*
X162430000Y-83630000D03*
X160430000Y-83630000D03*
%TD*%
D32*
%TO.C,R6*%
X158162500Y-91800000D03*
X155237500Y-91800000D03*
%TD*%
D33*
%TO.C,J6*%
X175910000Y-80630000D03*
D34*
X178450000Y-80630000D03*
X180990000Y-80630000D03*
X183530000Y-80630000D03*
%TD*%
D35*
%TO.C,R5*%
X209500000Y-96100000D03*
X211500000Y-96100000D03*
%TD*%
D36*
%TO.C,J1*%
X95300000Y-79300000D03*
D37*
X92800000Y-79300000D03*
X90300000Y-79300000D03*
X87800000Y-79300000D03*
%TD*%
D29*
%TO.C,C4*%
X151842500Y-78157500D03*
X151842500Y-81282500D03*
%TD*%
D35*
%TO.C,R1*%
X122492500Y-83370000D03*
X124492500Y-83370000D03*
%TD*%
D38*
%TO.C,FB1*%
X157467500Y-78340000D03*
X159592500Y-78340000D03*
%TD*%
D35*
%TO.C,R2*%
X122492500Y-81070000D03*
X124492500Y-81070000D03*
%TD*%
D39*
%TO.C,R4*%
X168437500Y-91300000D03*
X171362500Y-91300000D03*
%TD*%
%TO.C,R3*%
X168437500Y-88900000D03*
X171362500Y-88900000D03*
%TD*%
D29*
%TO.C,C15*%
X169200000Y-94737500D03*
X169200000Y-97862500D03*
%TD*%
D26*
%TO.C,L2*%
X95900000Y-87100000D03*
X92900000Y-87100000D03*
%TD*%
D40*
%TO.C,J5*%
X211500000Y-91450000D03*
D31*
X213500000Y-91450000D03*
X215500000Y-91450000D03*
%TD*%
D29*
%TO.C,C5*%
X212020000Y-113637500D03*
X212020000Y-116762500D03*
%TD*%
D33*
%TO.C,J4*%
X193332500Y-96340000D03*
D34*
X195872500Y-96340000D03*
%TD*%
D41*
%TO.C,Q1*%
X173717500Y-96675000D03*
X173717500Y-95405000D03*
X173717500Y-94135000D03*
X173717500Y-92865000D03*
X178667500Y-92865000D03*
X178667500Y-94135000D03*
X178667500Y-95405000D03*
X178667500Y-96675000D03*
%TD*%
D42*
%TO.C,J3*%
X134142500Y-86270000D03*
D43*
X131142500Y-78570000D03*
D44*
X137792500Y-78570000D03*
X137792500Y-81270000D03*
X137792500Y-86370000D03*
X130492500Y-85070000D03*
D43*
X130942500Y-87270000D03*
%TD*%
D28*
%TO.C,C10*%
X182000000Y-112952500D03*
X182000000Y-109827500D03*
%TD*%
M02*
