%TF.GenerationSoftware,KiCad,Pcbnew,9.0.5*%
%TF.CreationDate,2025-10-20T18:48:47+02:00*%
%TF.ProjectId,yoradio-2,796f7261-6469-46f2-9d32-2e6b69636164,rev?*%
%TF.SameCoordinates,Original*%
%TF.FileFunction,Copper,L2,Bot*%
%TF.FilePolarity,Positive*%
%FSLAX46Y46*%
G04 Gerber Fmt 4.6, Leading zero omitted, Abs format (unit mm)*
G04 Created by KiCad (PCBNEW 9.0.5) date 2025-10-20 18:48:47*
%MOMM*%
%LPD*%
G01*
G04 APERTURE LIST*
G04 Aperture macros list*
%AMRoundRect*
0 Rectangle with rounded corners*
0 $1 Rounding radius*
0 $2 $3 $4 $5 $6 $7 $8 $9 X,Y pos of 4 corners*
0 Add a 4 corners polygon primitive as box body*
4,1,4,$2,$3,$4,$5,$6,$7,$8,$9,$2,$3,0*
0 Add four circle primitives for the rounded corners*
1,1,$1+$1,$2,$3*
1,1,$1+$1,$4,$5*
1,1,$1+$1,$6,$7*
1,1,$1+$1,$8,$9*
0 Add four rect primitives between the rounded corners*
20,1,$1+$1,$2,$3,$4,$5,0*
20,1,$1+$1,$4,$5,$6,$7,0*
20,1,$1+$1,$6,$7,$8,$9,0*
20,1,$1+$1,$8,$9,$2,$3,0*%
G04 Aperture macros list end*
%TA.AperFunction,ComponentPad*%
%ADD10R,2.000000X2.000000*%
%TD*%
%TA.AperFunction,ComponentPad*%
%ADD11C,2.500000*%
%TD*%
%TA.AperFunction,ComponentPad*%
%ADD12R,1.800000X1.800000*%
%TD*%
%TA.AperFunction,ComponentPad*%
%ADD13R,2.000000X1.524000*%
%TD*%
%TA.AperFunction,ComponentPad*%
%ADD14C,1.524000*%
%TD*%
%TA.AperFunction,ComponentPad*%
%ADD15C,3.200000*%
%TD*%
%TA.AperFunction,ComponentPad*%
%ADD16R,1.600000X1.600000*%
%TD*%
%TA.AperFunction,ComponentPad*%
%ADD17C,1.600000*%
%TD*%
%TA.AperFunction,ComponentPad*%
%ADD18RoundRect,0.249999X0.850001X0.850001X-0.850001X0.850001X-0.850001X-0.850001X0.850001X-0.850001X0*%
%TD*%
%TA.AperFunction,ComponentPad*%
%ADD19C,2.200000*%
%TD*%
%TA.AperFunction,ComponentPad*%
%ADD20RoundRect,0.250000X-0.825000X-0.825000X0.825000X-0.825000X0.825000X0.825000X-0.825000X0.825000X0*%
%TD*%
%TA.AperFunction,ComponentPad*%
%ADD21R,2.100000X3.000000*%
%TD*%
%TA.AperFunction,ComponentPad*%
%ADD22RoundRect,0.283333X-0.566667X-1.016667X0.566667X-1.016667X0.566667X1.016667X-0.566667X1.016667X0*%
%TD*%
%TA.AperFunction,ComponentPad*%
%ADD23RoundRect,0.249999X-0.850001X0.850001X-0.850001X-0.850001X0.850001X-0.850001X0.850001X0.850001X0*%
%TD*%
%TA.AperFunction,ComponentPad*%
%ADD24RoundRect,0.250000X0.550000X-0.550000X0.550000X0.550000X-0.550000X0.550000X-0.550000X-0.550000X0*%
%TD*%
%TA.AperFunction,SMDPad,CuDef*%
%ADD25RoundRect,0.250000X0.412500X0.650000X-0.412500X0.650000X-0.412500X-0.650000X0.412500X-0.650000X0*%
%TD*%
%TA.AperFunction,ComponentPad*%
%ADD26C,2.600000*%
%TD*%
%TA.AperFunction,SMDPad,CuDef*%
%ADD27RoundRect,0.150000X0.150000X-0.587500X0.150000X0.587500X-0.150000X0.587500X-0.150000X-0.587500X0*%
%TD*%
%TA.AperFunction,SMDPad,CuDef*%
%ADD28RoundRect,0.250000X0.650000X-0.412500X0.650000X0.412500X-0.650000X0.412500X-0.650000X-0.412500X0*%
%TD*%
%TA.AperFunction,SMDPad,CuDef*%
%ADD29RoundRect,0.250000X-0.650000X0.412500X-0.650000X-0.412500X0.650000X-0.412500X0.650000X0.412500X0*%
%TD*%
%TA.AperFunction,ComponentPad*%
%ADD30RoundRect,0.250000X0.350000X0.625000X-0.350000X0.625000X-0.350000X-0.625000X0.350000X-0.625000X0*%
%TD*%
%TA.AperFunction,ComponentPad*%
%ADD31O,1.200000X1.750000*%
%TD*%
%TA.AperFunction,SMDPad,CuDef*%
%ADD32RoundRect,0.250000X0.312500X0.625000X-0.312500X0.625000X-0.312500X-0.625000X0.312500X-0.625000X0*%
%TD*%
%TA.AperFunction,ComponentPad*%
%ADD33RoundRect,0.250000X-0.620000X-0.845000X0.620000X-0.845000X0.620000X0.845000X-0.620000X0.845000X0*%
%TD*%
%TA.AperFunction,ComponentPad*%
%ADD34O,1.740000X2.190000*%
%TD*%
%TA.AperFunction,SMDPad,CuDef*%
%ADD35RoundRect,0.250000X-0.350000X-0.450000X0.350000X-0.450000X0.350000X0.450000X-0.350000X0.450000X0*%
%TD*%
%TA.AperFunction,ComponentPad*%
%ADD36RoundRect,0.250000X0.600000X0.725000X-0.600000X0.725000X-0.600000X-0.725000X0.600000X-0.725000X0*%
%TD*%
%TA.AperFunction,ComponentPad*%
%ADD37O,1.700000X1.950000*%
%TD*%
%TA.AperFunction,SMDPad,CuDef*%
%ADD38RoundRect,0.218750X-0.218750X-0.381250X0.218750X-0.381250X0.218750X0.381250X-0.218750X0.381250X0*%
%TD*%
%TA.AperFunction,SMDPad,CuDef*%
%ADD39RoundRect,0.250000X-0.312500X-0.625000X0.312500X-0.625000X0.312500X0.625000X-0.312500X0.625000X0*%
%TD*%
%TA.AperFunction,ComponentPad*%
%ADD40RoundRect,0.250000X-0.350000X-0.625000X0.350000X-0.625000X0.350000X0.625000X-0.350000X0.625000X0*%
%TD*%
%TA.AperFunction,SMDPad,CuDef*%
%ADD41RoundRect,0.150000X-0.825000X-0.150000X0.825000X-0.150000X0.825000X0.150000X-0.825000X0.150000X0*%
%TD*%
%TA.AperFunction,SMDPad,CuDef*%
%ADD42R,3.400000X1.500000*%
%TD*%
%TA.AperFunction,SMDPad,CuDef*%
%ADD43R,2.500000X1.500000*%
%TD*%
%TA.AperFunction,ViaPad*%
%ADD44C,1.200000*%
%TD*%
%TA.AperFunction,Conductor*%
%ADD45C,1.500000*%
%TD*%
%TA.AperFunction,Conductor*%
%ADD46C,1.000000*%
%TD*%
%TA.AperFunction,Conductor*%
%ADD47C,0.500000*%
%TD*%
%TA.AperFunction,Conductor*%
%ADD48C,0.700000*%
%TD*%
G04 APERTURE END LIST*
D10*
%TO.P,M4,1,__GND-*%
%TO.N,GND*%
X187412500Y-77850000D03*
%TO.P,M4,2,Vin_5V*%
%TO.N,BATT+CHARGER*%
X201612500Y-77850000D03*
%TO.P,M4,3,OUT-*%
%TO.N,GND*%
X187412500Y-100650000D03*
%TO.P,M4,4,BATTERY-*%
%TO.N,Net-(J4-Pin_1)*%
X190412500Y-100650000D03*
%TO.P,M4,5,___BATTERY+*%
%TO.N,Net-(J4-Pin_2)*%
X198712500Y-100650000D03*
%TO.P,M4,6,___OUT+*%
%TO.N,/BAT_OUT+*%
X201612500Y-100650000D03*
%TD*%
D11*
%TO.P,M6,1,+BATT*%
%TO.N,Net-(J4-Pin_2)*%
X141542500Y-123620000D03*
%TO.P,M6,2,-BATT*%
%TO.N,Net-(J4-Pin_1)*%
X141542500Y-127070000D03*
%TD*%
D12*
%TO.P,M1,1,L_in*%
%TO.N,Net-(M1-L_in)*%
X82742500Y-111320000D03*
%TO.P,M1,2,GND_A*%
%TO.N,GND*%
X85242500Y-111320000D03*
%TO.P,M1,3,R_in*%
%TO.N,Net-(M1-R_in)*%
X87742500Y-111320000D03*
D13*
%TO.P,M1,4,VCC*%
%TO.N,+5V*%
X98842500Y-111320000D03*
%TO.P,M1,5,GND*%
%TO.N,GND*%
X96442500Y-111320000D03*
%TO.P,M1,6,L_OUT-*%
%TO.N,Net-(J1-Pin_4)*%
X82842500Y-91820000D03*
%TO.P,M1,7,L_OUT+*%
%TO.N,Net-(M1-L_OUT+)*%
X85342500Y-91820000D03*
%TO.P,M1,8,R_OUT+*%
%TO.N,Net-(M1-R_OUT+)*%
X95842500Y-91820000D03*
%TO.P,M1,9,R_OUT-*%
%TO.N,Net-(J1-Pin_1)*%
X98342500Y-91820000D03*
%TD*%
D11*
%TO.P,C14,1*%
%TO.N,+5VA*%
X178942500Y-86120000D03*
%TO.P,C14,2*%
%TO.N,GND*%
X173942500Y-86120000D03*
%TD*%
%TO.P,C2,1*%
%TO.N,+5V*%
X102937500Y-105720000D03*
%TO.P,C2,2*%
%TO.N,GND*%
X102937500Y-100720000D03*
%TD*%
D14*
%TO.P,M5,1,Vcc*%
%TO.N,+USB_C*%
X205182500Y-101870000D03*
X205182500Y-104370000D03*
D15*
X211682500Y-103870000D03*
%TO.P,M5,2,GND*%
%TO.N,GND*%
X216682500Y-103870000D03*
D14*
X223182500Y-101870000D03*
X223182500Y-104370000D03*
%TD*%
D16*
%TO.P,C3,1*%
%TO.N,Net-(M2-Vin)*%
X154292500Y-78364888D03*
D17*
%TO.P,C3,2*%
%TO.N,GND*%
X154292500Y-80864888D03*
%TD*%
D11*
%TO.P,C6,1*%
%TO.N,/BAT_OUT+*%
X216992500Y-107470000D03*
%TO.P,C6,2*%
%TO.N,GND*%
X221992500Y-107470000D03*
%TD*%
D18*
%TO.P,D1,1,K*%
%TO.N,/BAT_OUT+*%
X198270000Y-107940000D03*
D19*
%TO.P,D1,2,A*%
%TO.N,+USB_C*%
X188110000Y-107940000D03*
%TD*%
D20*
%TO.P,J7,1,Pin_1*%
%TO.N,/ENABLE*%
X203070000Y-109550000D03*
%TD*%
D16*
%TO.P,C7,1*%
%TO.N,+5V*%
X179270000Y-113085113D03*
D17*
%TO.P,C7,2*%
%TO.N,GND*%
X179270000Y-110585113D03*
%TD*%
D21*
%TO.P,M3,1,Vin*%
%TO.N,/BAT_OUT+*%
X208977500Y-115550000D03*
X208977500Y-113250000D03*
%TO.P,M3,2,GND*%
%TO.N,GND*%
X208977500Y-127850000D03*
X208977500Y-125550000D03*
%TO.P,M3,5,OUT*%
%TO.N,+5V*%
X184377500Y-115550000D03*
X184377500Y-113250000D03*
%TO.P,M3,6,GND*%
%TO.N,GND*%
X184577500Y-127850000D03*
X184577500Y-125550000D03*
%TD*%
D16*
%TO.P,C8,1*%
%TO.N,+5V*%
X166400000Y-93355113D03*
D17*
%TO.P,C8,2*%
%TO.N,GND*%
X166400000Y-90855113D03*
%TD*%
D11*
%TO.P,C9,1*%
%TO.N,+5V*%
X179457500Y-118210000D03*
%TO.P,C9,2*%
%TO.N,GND*%
X179457500Y-123210000D03*
%TD*%
D14*
%TO.P,M2,1,FLT*%
%TO.N,unconnected-(M2-FLT-Pad1)*%
X141842500Y-91420000D03*
%TO.P,M2,2,DEMP*%
%TO.N,unconnected-(M2-DEMP-Pad2)*%
X139292500Y-91420000D03*
%TO.P,M2,3,XSMT*%
%TO.N,unconnected-(M2-XSMT-Pad3)*%
X136742500Y-91420000D03*
%TO.P,M2,4,FMT*%
%TO.N,unconnected-(M2-FMT-Pad4)*%
X134242500Y-91440000D03*
%TO.P,M2,5,A3V3*%
%TO.N,unconnected-(M2-A3V3-Pad5)*%
X131742500Y-91380000D03*
%TO.P,M2,6,AGND*%
%TO.N,GND*%
X129192500Y-91430000D03*
%TO.P,M2,7,Rout*%
%TO.N,Net-(M2-Rout)*%
X126642500Y-91420000D03*
%TO.P,M2,8,AGND*%
%TO.N,GND*%
X124092500Y-91440000D03*
%TO.P,M2,9,Lout*%
%TO.N,Net-(M2-Lout)*%
X121542500Y-91420000D03*
%TO.P,M2,10,SCK*%
%TO.N,GND*%
X148942500Y-90820000D03*
%TO.P,M2,11,BCK*%
%TO.N,Net-(J2-Pin_2)*%
X148942500Y-88320000D03*
%TO.P,M2,12,Din*%
%TO.N,Net-(J2-Pin_3)*%
X148942500Y-85720000D03*
%TO.P,M2,13,LCK*%
%TO.N,Net-(J2-Pin_4)*%
X148942500Y-83220000D03*
%TO.P,M2,14,GND*%
%TO.N,GND*%
X148942500Y-80620000D03*
%TO.P,M2,15,Vin*%
%TO.N,Net-(M2-Vin)*%
X148942500Y-78120000D03*
%TD*%
D22*
%TO.P,RV1,1,GND*%
%TO.N,GND*%
X103392500Y-89550000D03*
%TO.P,RV1,2,L_slider*%
%TO.N,Net-(M1-L_in)*%
X105392500Y-89550000D03*
%TO.P,RV1,3,R_slider*%
%TO.N,Net-(M1-R_in)*%
X107392500Y-89550000D03*
%TO.P,RV1,4,R_input*%
%TO.N,Net-(RV1-R_input)*%
X109392500Y-89550000D03*
%TO.P,RV1,5,L_input*%
%TO.N,Net-(RV1-L_input)*%
X111392500Y-89550000D03*
D11*
%TO.P,RV1,6,GND*%
%TO.N,GND*%
X102392500Y-78650000D03*
X112332500Y-78690000D03*
%TD*%
D23*
%TO.P,D2,1,K*%
%TO.N,BATT+CHARGER*%
X183732500Y-91500000D03*
D19*
%TO.P,D2,2,A*%
%TO.N,+USB_C*%
X183732500Y-101660000D03*
%TD*%
D24*
%TO.P,C13,1*%
%TO.N,/BAT_OUT+*%
X211880000Y-110315113D03*
D17*
%TO.P,C13,2*%
%TO.N,GND*%
X211880000Y-107815113D03*
%TD*%
D25*
%TO.P,C1,1*%
%TO.N,+5V*%
X99055000Y-113670000D03*
%TO.P,C1,2*%
%TO.N,GND*%
X95930000Y-113670000D03*
%TD*%
D26*
%TO.P,L1,1*%
%TO.N,Net-(M1-L_OUT+)*%
X85100000Y-87100000D03*
%TO.P,L1,2*%
%TO.N,Net-(J1-Pin_3)*%
X88100000Y-87100000D03*
%TD*%
D27*
%TO.P,Q2,1,B*%
%TO.N,Net-(Q2-B)*%
X161100000Y-91800000D03*
%TO.P,Q2,2,E*%
%TO.N,+5V*%
X163000000Y-91800000D03*
%TO.P,Q2,3,C*%
%TO.N,Net-(Q2-C)*%
X162050000Y-89925000D03*
%TD*%
D28*
%TO.P,C11,1*%
%TO.N,GND*%
X88940000Y-94002500D03*
%TO.P,C11,2*%
%TO.N,Net-(J1-Pin_3)*%
X88940000Y-90877500D03*
%TD*%
D29*
%TO.P,C12,1*%
%TO.N,Net-(J1-Pin_2)*%
X92800000Y-90875000D03*
%TO.P,C12,2*%
%TO.N,GND*%
X92800000Y-94000000D03*
%TD*%
D30*
%TO.P,J2,1,Pin_1*%
%TO.N,GND*%
X166430000Y-83630000D03*
D31*
%TO.P,J2,2,Pin_2*%
%TO.N,Net-(J2-Pin_2)*%
X164430000Y-83630000D03*
%TO.P,J2,3,Pin_3*%
%TO.N,Net-(J2-Pin_3)*%
X162430000Y-83630000D03*
%TO.P,J2,4,Pin_4*%
%TO.N,Net-(J2-Pin_4)*%
X160430000Y-83630000D03*
%TD*%
D32*
%TO.P,R6,1*%
%TO.N,Net-(Q2-B)*%
X158162500Y-91800000D03*
%TO.P,R6,2*%
%TO.N,Net-(J3-PadG)*%
X155237500Y-91800000D03*
%TD*%
D33*
%TO.P,J6,1,Pin_1*%
%TO.N,+5VA*%
X175910000Y-80630000D03*
D34*
%TO.P,J6,2,Pin_2*%
X178450000Y-80630000D03*
%TO.P,J6,3,Pin_3*%
%TO.N,GND*%
X180990000Y-80630000D03*
%TO.P,J6,4,Pin_4*%
X183530000Y-80630000D03*
%TD*%
D35*
%TO.P,R5,1*%
%TO.N,/BAT_OUT+*%
X209500000Y-96100000D03*
%TO.P,R5,2*%
%TO.N,Net-(J5-Pin_1)*%
X211500000Y-96100000D03*
%TD*%
D36*
%TO.P,J1,1,Pin_1*%
%TO.N,Net-(J1-Pin_1)*%
X95300000Y-79300000D03*
D37*
%TO.P,J1,2,Pin_2*%
%TO.N,Net-(J1-Pin_2)*%
X92800000Y-79300000D03*
%TO.P,J1,3,Pin_3*%
%TO.N,Net-(J1-Pin_3)*%
X90300000Y-79300000D03*
%TO.P,J1,4,Pin_4*%
%TO.N,Net-(J1-Pin_4)*%
X87800000Y-79300000D03*
%TD*%
D29*
%TO.P,C4,1*%
%TO.N,Net-(M2-Vin)*%
X151842500Y-78157500D03*
%TO.P,C4,2*%
%TO.N,GND*%
X151842500Y-81282500D03*
%TD*%
D35*
%TO.P,R1,1*%
%TO.N,Net-(RV1-L_input)*%
X122492500Y-83370000D03*
%TO.P,R1,2*%
%TO.N,Net-(J3-PadT1)*%
X124492500Y-83370000D03*
%TD*%
D38*
%TO.P,FB1,1*%
%TO.N,Net-(M2-Vin)*%
X157467500Y-78340000D03*
%TO.P,FB1,2*%
%TO.N,+5VA*%
X159592500Y-78340000D03*
%TD*%
D35*
%TO.P,R2,1*%
%TO.N,Net-(RV1-R_input)*%
X122492500Y-81070000D03*
%TO.P,R2,2*%
%TO.N,Net-(J3-PadS1)*%
X124492500Y-81070000D03*
%TD*%
D39*
%TO.P,R4,1*%
%TO.N,GND*%
X168437500Y-91300000D03*
%TO.P,R4,2*%
%TO.N,Net-(Q1-G)*%
X171362500Y-91300000D03*
%TD*%
%TO.P,R3,1*%
%TO.N,Net-(Q2-C)*%
X168437500Y-88900000D03*
%TO.P,R3,2*%
%TO.N,Net-(Q1-G)*%
X171362500Y-88900000D03*
%TD*%
D29*
%TO.P,C15,1*%
%TO.N,+5V*%
X169200000Y-94737500D03*
%TO.P,C15,2*%
%TO.N,GND*%
X169200000Y-97862500D03*
%TD*%
D26*
%TO.P,L2,1*%
%TO.N,Net-(M1-R_OUT+)*%
X95900000Y-87100000D03*
%TO.P,L2,2*%
%TO.N,Net-(J1-Pin_2)*%
X92900000Y-87100000D03*
%TD*%
D40*
%TO.P,J5,1,Pin_1*%
%TO.N,Net-(J5-Pin_1)*%
X211500000Y-91450000D03*
D31*
%TO.P,J5,2,Pin_2*%
%TO.N,/ENABLE*%
X213500000Y-91450000D03*
%TO.P,J5,3,Pin_3*%
%TO.N,GND*%
X215500000Y-91450000D03*
%TD*%
D29*
%TO.P,C5,1*%
%TO.N,/BAT_OUT+*%
X212020000Y-113637500D03*
%TO.P,C5,2*%
%TO.N,GND*%
X212020000Y-116762500D03*
%TD*%
D33*
%TO.P,J4,1,Pin_1*%
%TO.N,Net-(J4-Pin_1)*%
X193332500Y-96340000D03*
D34*
%TO.P,J4,2,Pin_2*%
%TO.N,Net-(J4-Pin_2)*%
X195872500Y-96340000D03*
%TD*%
D41*
%TO.P,Q1,1,S*%
%TO.N,+5V*%
X173717500Y-96675000D03*
%TO.P,Q1,2,S*%
X173717500Y-95405000D03*
%TO.P,Q1,3,S*%
X173717500Y-94135000D03*
%TO.P,Q1,4,G*%
%TO.N,Net-(Q1-G)*%
X173717500Y-92865000D03*
%TO.P,Q1,5,D*%
%TO.N,+5VA*%
X178667500Y-92865000D03*
%TO.P,Q1,6,D*%
X178667500Y-94135000D03*
%TO.P,Q1,7,D*%
X178667500Y-95405000D03*
%TO.P,Q1,8,D*%
X178667500Y-96675000D03*
%TD*%
D42*
%TO.P,J3,G*%
%TO.N,Net-(J3-PadG)*%
X131142500Y-78570000D03*
D43*
%TO.P,J3,H,Housing*%
%TO.N,GND*%
X137792500Y-78570000D03*
%TO.P,J3,S1*%
%TO.N,Net-(J3-PadS1)*%
X137792500Y-81270000D03*
%TO.P,J3,SN1*%
%TO.N,Net-(M2-Rout)*%
X137792500Y-86370000D03*
%TO.P,J3,T1*%
%TO.N,Net-(J3-PadT1)*%
X130492500Y-85070000D03*
D42*
%TO.P,J3,TN1*%
%TO.N,Net-(M2-Lout)*%
X130942500Y-87270000D03*
%TD*%
D28*
%TO.P,C10,1*%
%TO.N,+5V*%
X182000000Y-112952500D03*
%TO.P,C10,2*%
%TO.N,GND*%
X182000000Y-109827500D03*
%TD*%
D44*
%TO.N,GND*%
X137800000Y-77100000D03*
X94500000Y-113700000D03*
X92800000Y-95500000D03*
X88900000Y-95500000D03*
X151800000Y-82700000D03*
X182000000Y-108400000D03*
X212000000Y-118200000D03*
X169200000Y-99300000D03*
%TO.N,Net-(J3-PadG)*%
X134300000Y-78550000D03*
X153200000Y-91800000D03*
%TD*%
D45*
%TO.N,+5V*%
X173717500Y-94405000D02*
X173717500Y-96211129D01*
X102592500Y-106370000D02*
X132492500Y-106370000D01*
X163182500Y-107482500D02*
X163182500Y-94420000D01*
X173717500Y-94690000D02*
X173397500Y-94370000D01*
D46*
X99155000Y-113870000D02*
X99155000Y-111632500D01*
D45*
X179457500Y-113092500D02*
X179520000Y-113030000D01*
D46*
X171247500Y-94135000D02*
X173717500Y-94135000D01*
D45*
X173702500Y-94390000D02*
X173717500Y-94405000D01*
X98842500Y-111320000D02*
X102592500Y-107570000D01*
X102592500Y-107570000D02*
X102592500Y-106370000D01*
X184377500Y-113030000D02*
X179520000Y-113030000D01*
D46*
X171212500Y-94170000D02*
X171247500Y-94135000D01*
X99155000Y-111632500D02*
X98842500Y-111320000D01*
D45*
X168760000Y-113060000D02*
X163182500Y-107482500D01*
X163182500Y-94420000D02*
X163132500Y-94370000D01*
X161900000Y-94370000D02*
X157292500Y-94370000D01*
X184377500Y-115550000D02*
X184377500Y-113030000D01*
D46*
X171212500Y-94170000D02*
X168692500Y-94170000D01*
D45*
X173397500Y-94370000D02*
X163132500Y-94370000D01*
X179270000Y-113085113D02*
X179244887Y-113060000D01*
X173717500Y-96211129D02*
X173736207Y-96229836D01*
X163132500Y-94370000D02*
X161900000Y-94370000D01*
X132492500Y-106370000D02*
X144492500Y-94370000D01*
X179244887Y-113060000D02*
X168760000Y-113060000D01*
X144492500Y-94370000D02*
X157292500Y-94370000D01*
X179457500Y-118210000D02*
X179457500Y-113092500D01*
D47*
X163000000Y-91608750D02*
X163000000Y-94191250D01*
D45*
%TO.N,+USB_C*%
X205682500Y-103870000D02*
X205182500Y-104370000D01*
X205182500Y-101870000D02*
X205182500Y-104370000D01*
X205182500Y-104370000D02*
X191680000Y-104370000D01*
X187970000Y-108040000D02*
X183767500Y-103837500D01*
X191680000Y-104370000D02*
X188010000Y-108040000D01*
X211682500Y-103870000D02*
X205682500Y-103870000D01*
X183740000Y-103837500D02*
X183732500Y-103830000D01*
X183767500Y-103837500D02*
X183740000Y-103837500D01*
X183732500Y-103830000D02*
X183732500Y-101660000D01*
X188010000Y-108040000D02*
X187970000Y-108040000D01*
X211792500Y-103720000D02*
X211772500Y-103740000D01*
D46*
%TO.N,Net-(J1-Pin_2)*%
X92800000Y-90815000D02*
X92800000Y-87200000D01*
%TO.N,Net-(J1-Pin_3)*%
X88992500Y-87992500D02*
X88100000Y-87100000D01*
X88992500Y-90825000D02*
X88992500Y-87992500D01*
X88940000Y-90877500D02*
X88992500Y-90825000D01*
D47*
%TO.N,Net-(J2-Pin_3)*%
X149292500Y-86070000D02*
X161592500Y-86070000D01*
X161592500Y-86070000D02*
X162430000Y-85232500D01*
X162430000Y-85232500D02*
X162430000Y-83630000D01*
X148942500Y-85720000D02*
X149292500Y-86070000D01*
%TO.N,Net-(J2-Pin_4)*%
X151882500Y-84770000D02*
X150332500Y-83220000D01*
X150332500Y-83220000D02*
X148942500Y-83220000D01*
X159590000Y-84770000D02*
X151882500Y-84770000D01*
X160390000Y-83970000D02*
X159590000Y-84770000D01*
X160192500Y-84170000D02*
X160192500Y-84167500D01*
X160192500Y-84167500D02*
X160390000Y-83970000D01*
%TO.N,Net-(J2-Pin_2)*%
X150782500Y-88320000D02*
X148942500Y-88320000D01*
X151732500Y-87370000D02*
X150782500Y-88320000D01*
X164430000Y-83630000D02*
X164430000Y-85932500D01*
X162992500Y-87370000D02*
X151732500Y-87370000D01*
X164430000Y-85932500D02*
X162992500Y-87370000D01*
D45*
%TO.N,Net-(J4-Pin_2)*%
X198712500Y-97802500D02*
X197250000Y-96340000D01*
X197250000Y-96340000D02*
X195872500Y-96340000D01*
X198712500Y-100650000D02*
X198712500Y-97802500D01*
%TO.N,Net-(J4-Pin_1)*%
X190412500Y-100650000D02*
X190412500Y-98127500D01*
X192200000Y-96340000D02*
X193332500Y-96340000D01*
X190412500Y-98127500D02*
X192200000Y-96340000D01*
D48*
%TO.N,Net-(M1-R_in)*%
X107392500Y-92270000D02*
X107392500Y-89550000D01*
X88392500Y-111270000D02*
X107392500Y-92270000D01*
X87692500Y-111270000D02*
X88392500Y-111270000D01*
X87742500Y-111320000D02*
X87692500Y-111270000D01*
%TO.N,Net-(M1-L_in)*%
X88382500Y-108930000D02*
X105392500Y-91920000D01*
X83332500Y-108930000D02*
X88382500Y-108930000D01*
X82742500Y-111320000D02*
X82592500Y-111170000D01*
X82592500Y-109670000D02*
X83332500Y-108930000D01*
X82592500Y-111170000D02*
X82592500Y-109670000D01*
X105392500Y-91920000D02*
X105392500Y-89550000D01*
D47*
%TO.N,Net-(M2-Lout)*%
X121542500Y-88120000D02*
X122392500Y-87270000D01*
X121542500Y-88120000D02*
X121542500Y-91420000D01*
X122392500Y-87270000D02*
X130942500Y-87270000D01*
%TO.N,Net-(M2-Rout)*%
X126642500Y-89520000D02*
X126642500Y-89620000D01*
X126642500Y-89620000D02*
X126642500Y-91420000D01*
X137792500Y-86370000D02*
X137792500Y-87770000D01*
X127092500Y-89070000D02*
X126642500Y-89520000D01*
X137792500Y-87770000D02*
X136492500Y-89070000D01*
X136492500Y-89070000D02*
X127092500Y-89070000D01*
D45*
%TO.N,BATT+CHARGER*%
X191530000Y-77670000D02*
X187480000Y-81720000D01*
X187480000Y-87752500D02*
X183732500Y-91500000D01*
X201592500Y-77670000D02*
X191530000Y-77670000D01*
X187480000Y-81720000D02*
X187480000Y-87752500D01*
D46*
X183722500Y-91490000D02*
X183732500Y-91500000D01*
%TO.N,+5VA*%
X175910000Y-80630000D02*
X175002500Y-80630000D01*
D45*
X178682500Y-85860000D02*
X178942500Y-86120000D01*
X178450000Y-85627500D02*
X178942500Y-86120000D01*
X175910000Y-80630000D02*
X178450000Y-80630000D01*
D46*
X175002500Y-80630000D02*
X172752500Y-78380000D01*
D45*
X178942500Y-86120000D02*
X178942500Y-96220000D01*
D46*
X172752500Y-78380000D02*
X159662500Y-78380000D01*
D45*
X178450000Y-80630000D02*
X178450000Y-85627500D01*
D46*
X178942500Y-86120000D02*
X178752500Y-85930000D01*
D47*
%TO.N,Net-(Q1-G)*%
X171362500Y-91300000D02*
X172152500Y-91300000D01*
X172152500Y-91300000D02*
X173717500Y-92865000D01*
X171362500Y-88900000D02*
X171362500Y-91300000D01*
D48*
%TO.N,Net-(J3-PadT1)*%
X130492500Y-85070000D02*
X126192500Y-85070000D01*
X126192500Y-85070000D02*
X124492500Y-83370000D01*
%TO.N,Net-(J3-PadS1)*%
X136842500Y-81320000D02*
X136742500Y-81220000D01*
X137592500Y-81070000D02*
X137792500Y-81270000D01*
X124492500Y-81070000D02*
X137592500Y-81070000D01*
D45*
%TO.N,/BAT_OUT+*%
X209012500Y-115515000D02*
X208977500Y-115550000D01*
X198270000Y-114480000D02*
X199340000Y-115550000D01*
X217902500Y-107470000D02*
X216992500Y-107470000D01*
D46*
X211880000Y-109990000D02*
X211880000Y-112812500D01*
D45*
X218252500Y-98815000D02*
X220422500Y-100985000D01*
X220422500Y-104950000D02*
X217902500Y-107470000D01*
D46*
X211880000Y-112812500D02*
X211442500Y-113250000D01*
D47*
X209200000Y-98715000D02*
X209100000Y-98815000D01*
D45*
X208977500Y-113250000D02*
X211442500Y-113250000D01*
X199340000Y-115550000D02*
X208977500Y-115550000D01*
X211442500Y-113250000D02*
X213612500Y-113250000D01*
X198270000Y-107940000D02*
X198270000Y-114480000D01*
X209100000Y-98815000D02*
X218252500Y-98815000D01*
X201592500Y-100470000D02*
X203247500Y-98815000D01*
X203247500Y-98815000D02*
X209100000Y-98815000D01*
X213612500Y-113250000D02*
X216992500Y-109870000D01*
X220422500Y-100985000D02*
X220422500Y-104950000D01*
X216992500Y-109870000D02*
X216992500Y-107470000D01*
D48*
X209500000Y-96092500D02*
X209500000Y-98707500D01*
%TO.N,Net-(RV1-L_input)*%
X122492500Y-83370000D02*
X117572500Y-83370000D01*
X117572500Y-83370000D02*
X111392500Y-89550000D01*
%TO.N,Net-(RV1-R_input)*%
X109392500Y-89550000D02*
X109392500Y-88250000D01*
X109392500Y-88250000D02*
X116572500Y-81070000D01*
X116572500Y-81070000D02*
X122492500Y-81070000D01*
%TO.N,Net-(J5-Pin_1)*%
X211500000Y-95800000D02*
X211500000Y-91500000D01*
D46*
%TO.N,Net-(M2-Vin)*%
X154712500Y-78340000D02*
X156990000Y-78340000D01*
X148942500Y-78120000D02*
X154492500Y-78120000D01*
D47*
%TO.N,Net-(J3-PadG)*%
X153200000Y-91800000D02*
X155237500Y-91800000D01*
X134280000Y-78570000D02*
X131142500Y-78570000D01*
X134300000Y-78550000D02*
X134280000Y-78570000D01*
%TO.N,Net-(Q2-B)*%
X161012500Y-91800000D02*
X158162500Y-91800000D01*
X161050000Y-91837500D02*
X161012500Y-91800000D01*
%TO.N,Net-(Q2-C)*%
X168437500Y-88900000D02*
X163062500Y-88900000D01*
X162050000Y-89912500D02*
X162050000Y-89925000D01*
X163062500Y-88900000D02*
X162050000Y-89912500D01*
%TD*%
%TA.AperFunction,Conductor*%
%TO.N,GND*%
G36*
X190877250Y-76390185D02*
G01*
X190923005Y-76442989D01*
X190932949Y-76512147D01*
X190903924Y-76575703D01*
X190878364Y-76597374D01*
X190878537Y-76597612D01*
X190875370Y-76599912D01*
X190874995Y-76600231D01*
X190874594Y-76600476D01*
X190783741Y-76666485D01*
X190715354Y-76716172D01*
X190715352Y-76716174D01*
X190715351Y-76716174D01*
X186526174Y-80905351D01*
X186526174Y-80905352D01*
X186526172Y-80905354D01*
X186484387Y-80962866D01*
X186410476Y-81064594D01*
X186321117Y-81239971D01*
X186321116Y-81239973D01*
X186321116Y-81239974D01*
X186275265Y-81381089D01*
X186267920Y-81403694D01*
X186260290Y-81427175D01*
X186229500Y-81621577D01*
X186229500Y-87183164D01*
X186209815Y-87250203D01*
X186193181Y-87270845D01*
X183600845Y-89863181D01*
X183539522Y-89896666D01*
X183513164Y-89899500D01*
X182832482Y-89899500D01*
X182729703Y-89910000D01*
X182729702Y-89910001D01*
X182647169Y-89937349D01*
X182563167Y-89965185D01*
X182563162Y-89965187D01*
X182413842Y-90057289D01*
X182289789Y-90181342D01*
X182197687Y-90330662D01*
X182197685Y-90330667D01*
X182170575Y-90412480D01*
X182142501Y-90497202D01*
X182142501Y-90497203D01*
X182142500Y-90497203D01*
X182132000Y-90599982D01*
X182132000Y-92400017D01*
X182142500Y-92502796D01*
X182197685Y-92669332D01*
X182197687Y-92669337D01*
X182203787Y-92679227D01*
X182289788Y-92818656D01*
X182413844Y-92942712D01*
X182563165Y-93034814D01*
X182729702Y-93089999D01*
X182832490Y-93100500D01*
X182832495Y-93100500D01*
X184632505Y-93100500D01*
X184632510Y-93100500D01*
X184735298Y-93089999D01*
X184901835Y-93034814D01*
X185051156Y-92942712D01*
X185175212Y-92818656D01*
X185267314Y-92669335D01*
X185322499Y-92502798D01*
X185333000Y-92400010D01*
X185333000Y-91719336D01*
X185352685Y-91652297D01*
X185369319Y-91631655D01*
X186900974Y-90100000D01*
X188433828Y-88567146D01*
X188549524Y-88407905D01*
X188556330Y-88394548D01*
X188556650Y-88393920D01*
X188556651Y-88393917D01*
X188579872Y-88348343D01*
X188638884Y-88232525D01*
X188692383Y-88067873D01*
X188699709Y-88045327D01*
X188720092Y-87916630D01*
X188730500Y-87850922D01*
X188730500Y-82289336D01*
X188750185Y-82222297D01*
X188766819Y-82201655D01*
X189086572Y-81881902D01*
X228499500Y-81881902D01*
X228499500Y-82118097D01*
X228536446Y-82351368D01*
X228609433Y-82575996D01*
X228705068Y-82763689D01*
X228716657Y-82786433D01*
X228855483Y-82977510D01*
X229022490Y-83144517D01*
X229213567Y-83283343D01*
X229312991Y-83334002D01*
X229424003Y-83390566D01*
X229424005Y-83390566D01*
X229424008Y-83390568D01*
X229544412Y-83429689D01*
X229648631Y-83463553D01*
X229881903Y-83500500D01*
X229881908Y-83500500D01*
X230118097Y-83500500D01*
X230351368Y-83463553D01*
X230575992Y-83390568D01*
X230786433Y-83283343D01*
X230977510Y-83144517D01*
X231144517Y-82977510D01*
X231283343Y-82786433D01*
X231390568Y-82575992D01*
X231463553Y-82351368D01*
X231473378Y-82289336D01*
X231500500Y-82118097D01*
X231500500Y-81881902D01*
X231463553Y-81648631D01*
X231420663Y-81516632D01*
X231390568Y-81424008D01*
X231390566Y-81424005D01*
X231390566Y-81424003D01*
X231296798Y-81239974D01*
X231283343Y-81213567D01*
X231144517Y-81022490D01*
X230977510Y-80855483D01*
X230786433Y-80716657D01*
X230772999Y-80709812D01*
X230575996Y-80609433D01*
X230351368Y-80536446D01*
X230118097Y-80499500D01*
X230118092Y-80499500D01*
X229881908Y-80499500D01*
X229881903Y-80499500D01*
X229648631Y-80536446D01*
X229424003Y-80609433D01*
X229213566Y-80716657D01*
X229132578Y-80775499D01*
X229022490Y-80855483D01*
X229022488Y-80855485D01*
X229022487Y-80855485D01*
X228855485Y-81022487D01*
X228855485Y-81022488D01*
X228855483Y-81022490D01*
X228824893Y-81064594D01*
X228716657Y-81213566D01*
X228609433Y-81424003D01*
X228536446Y-81648631D01*
X228499500Y-81881902D01*
X189086572Y-81881902D01*
X192011655Y-78956819D01*
X192072978Y-78923334D01*
X192099336Y-78920500D01*
X200018520Y-78920500D01*
X200085559Y-78940185D01*
X200131314Y-78992989D01*
X200134702Y-79001167D01*
X200168702Y-79092328D01*
X200168706Y-79092335D01*
X200254952Y-79207544D01*
X200254955Y-79207547D01*
X200370164Y-79293793D01*
X200370171Y-79293797D01*
X200505017Y-79344091D01*
X200505016Y-79344091D01*
X200511944Y-79344835D01*
X200564627Y-79350500D01*
X202660372Y-79350499D01*
X202719983Y-79344091D01*
X202854831Y-79293796D01*
X202970046Y-79207546D01*
X203056296Y-79092331D01*
X203106591Y-78957483D01*
X203113000Y-78897873D01*
X203112999Y-76802128D01*
X203106591Y-76742517D01*
X203056296Y-76607669D01*
X203027207Y-76568811D01*
X203002790Y-76503347D01*
X203017642Y-76435074D01*
X203067047Y-76385668D01*
X203126474Y-76370500D01*
X234868000Y-76370500D01*
X234935039Y-76390185D01*
X234980794Y-76442989D01*
X234992000Y-76494500D01*
X234992000Y-130245500D01*
X234972315Y-130312539D01*
X234919511Y-130358294D01*
X234868000Y-130369500D01*
X76117000Y-130369500D01*
X76049961Y-130349815D01*
X76004206Y-130297011D01*
X75993000Y-130245500D01*
X75993000Y-125881902D01*
X78499500Y-125881902D01*
X78499500Y-126118097D01*
X78536446Y-126351368D01*
X78609433Y-126575996D01*
X78716657Y-126786433D01*
X78855483Y-126977510D01*
X79022490Y-127144517D01*
X79213567Y-127283343D01*
X79312991Y-127334002D01*
X79424003Y-127390566D01*
X79424005Y-127390566D01*
X79424008Y-127390568D01*
X79544412Y-127429689D01*
X79648631Y-127463553D01*
X79881903Y-127500500D01*
X79881908Y-127500500D01*
X80118097Y-127500500D01*
X80351368Y-127463553D01*
X80575992Y-127390568D01*
X80786433Y-127283343D01*
X80977510Y-127144517D01*
X81144517Y-126977510D01*
X81283343Y-126786433D01*
X81390568Y-126575992D01*
X81463553Y-126351368D01*
X81472620Y-126294123D01*
X81500500Y-126118097D01*
X81500500Y-125881902D01*
X81463553Y-125648631D01*
X81390566Y-125424003D01*
X81293813Y-125234116D01*
X81283343Y-125213567D01*
X81144517Y-125022490D01*
X80977510Y-124855483D01*
X80786433Y-124716657D01*
X80575996Y-124609433D01*
X80351368Y-124536446D01*
X80118097Y-124499500D01*
X80118092Y-124499500D01*
X79881908Y-124499500D01*
X79881903Y-124499500D01*
X79648631Y-124536446D01*
X79424003Y-124609433D01*
X79213566Y-124716657D01*
X79130979Y-124776661D01*
X79022490Y-124855483D01*
X79022488Y-124855485D01*
X79022487Y-124855485D01*
X78855485Y-125022487D01*
X78855485Y-125022488D01*
X78855483Y-125022490D01*
X78814709Y-125078611D01*
X78716657Y-125213566D01*
X78609433Y-125424003D01*
X78536446Y-125648631D01*
X78499500Y-125881902D01*
X75993000Y-125881902D01*
X75993000Y-123505258D01*
X139792000Y-123505258D01*
X139792000Y-123734741D01*
X139816946Y-123924215D01*
X139821952Y-123962238D01*
X139821953Y-123962240D01*
X139881342Y-124183887D01*
X139969150Y-124395876D01*
X139969157Y-124395890D01*
X140083892Y-124594617D01*
X140223581Y-124776661D01*
X140223589Y-124776670D01*
X140385830Y-124938911D01*
X140385838Y-124938918D01*
X140567882Y-125078607D01*
X140567885Y-125078608D01*
X140567888Y-125078611D01*
X140766612Y-125193344D01*
X140856167Y-125230439D01*
X140910570Y-125274280D01*
X140932635Y-125340574D01*
X140915356Y-125408273D01*
X140864219Y-125455884D01*
X140856167Y-125459561D01*
X140766618Y-125496653D01*
X140766609Y-125496657D01*
X140567882Y-125611392D01*
X140385838Y-125751081D01*
X140223581Y-125913338D01*
X140083892Y-126095382D01*
X139969157Y-126294109D01*
X139969150Y-126294123D01*
X139881342Y-126506112D01*
X139821953Y-126727759D01*
X139821951Y-126727770D01*
X139792000Y-126955258D01*
X139792000Y-127184741D01*
X139804982Y-127283342D01*
X139821952Y-127412238D01*
X139881342Y-127633887D01*
X139969150Y-127845876D01*
X139969157Y-127845890D01*
X140083892Y-128044617D01*
X140223581Y-128226661D01*
X140223589Y-128226670D01*
X140385830Y-128388911D01*
X140385838Y-128388918D01*
X140567882Y-128528607D01*
X140567885Y-128528608D01*
X140567888Y-128528611D01*
X140766612Y-128643344D01*
X140766617Y-128643346D01*
X140766623Y-128643349D01*
X140857980Y-128681190D01*
X140978613Y-128731158D01*
X141200262Y-128790548D01*
X141427766Y-128820500D01*
X141427773Y-128820500D01*
X141657227Y-128820500D01*
X141657234Y-128820500D01*
X141884738Y-128790548D01*
X142106387Y-128731158D01*
X142318388Y-128643344D01*
X142517112Y-128528611D01*
X142699161Y-128388919D01*
X142699165Y-128388914D01*
X142699170Y-128388911D01*
X142861411Y-128226670D01*
X142861414Y-128226665D01*
X142861419Y-128226661D01*
X143001111Y-128044612D01*
X143115844Y-127845888D01*
X143203658Y-127633887D01*
X143263048Y-127412238D01*
X143293000Y-127184734D01*
X143293000Y-126955266D01*
X143263048Y-126727762D01*
X143203658Y-126506113D01*
X143115844Y-126294112D01*
X143001111Y-126095388D01*
X143001108Y-126095385D01*
X143001107Y-126095382D01*
X142891488Y-125952526D01*
X142861419Y-125913339D01*
X142861413Y-125913333D01*
X142861410Y-125913329D01*
X142829983Y-125881902D01*
X148499500Y-125881902D01*
X148499500Y-126118097D01*
X148536446Y-126351368D01*
X148609433Y-126575996D01*
X148716657Y-126786433D01*
X148855483Y-126977510D01*
X149022490Y-127144517D01*
X149213567Y-127283343D01*
X149312991Y-127334002D01*
X149424003Y-127390566D01*
X149424005Y-127390566D01*
X149424008Y-127390568D01*
X149544412Y-127429689D01*
X149648631Y-127463553D01*
X149881903Y-127500500D01*
X149881908Y-127500500D01*
X150118097Y-127500500D01*
X150351368Y-127463553D01*
X150575992Y-127390568D01*
X150786433Y-127283343D01*
X150977510Y-127144517D01*
X151144517Y-126977510D01*
X151283343Y-126786433D01*
X151390568Y-126575992D01*
X151463553Y-126351368D01*
X151472620Y-126294123D01*
X151500500Y-126118097D01*
X151500500Y-125881902D01*
X228499500Y-125881902D01*
X228499500Y-126118097D01*
X228536446Y-126351368D01*
X228609433Y-126575996D01*
X228716657Y-126786433D01*
X228855483Y-126977510D01*
X229022490Y-127144517D01*
X229213567Y-127283343D01*
X229312991Y-127334002D01*
X229424003Y-127390566D01*
X229424005Y-127390566D01*
X229424008Y-127390568D01*
X229544412Y-127429689D01*
X229648631Y-127463553D01*
X229881903Y-127500500D01*
X229881908Y-127500500D01*
X230118097Y-127500500D01*
X230351368Y-127463553D01*
X230575992Y-127390568D01*
X230786433Y-127283343D01*
X230977510Y-127144517D01*
X231144517Y-126977510D01*
X231283343Y-126786433D01*
X231390568Y-126575992D01*
X231463553Y-126351368D01*
X231472620Y-126294123D01*
X231500500Y-126118097D01*
X231500500Y-125881902D01*
X231463553Y-125648631D01*
X231390566Y-125424003D01*
X231293813Y-125234116D01*
X231283343Y-125213567D01*
X231144517Y-125022490D01*
X230977510Y-124855483D01*
X230786433Y-124716657D01*
X230575996Y-124609433D01*
X230351368Y-124536446D01*
X230118097Y-124499500D01*
X230118092Y-124499500D01*
X229881908Y-124499500D01*
X229881903Y-124499500D01*
X229648631Y-124536446D01*
X229424003Y-124609433D01*
X229213566Y-124716657D01*
X229130979Y-124776661D01*
X229022490Y-124855483D01*
X229022488Y-124855485D01*
X229022487Y-124855485D01*
X228855485Y-125022487D01*
X228855485Y-125022488D01*
X228855483Y-125022490D01*
X228814709Y-125078611D01*
X228716657Y-125213566D01*
X228609433Y-125424003D01*
X228536446Y-125648631D01*
X228499500Y-125881902D01*
X151500500Y-125881902D01*
X151463553Y-125648631D01*
X151390566Y-125424003D01*
X151293813Y-125234116D01*
X151283343Y-125213567D01*
X151144517Y-125022490D01*
X150977510Y-124855483D01*
X150786433Y-124716657D01*
X150575996Y-124609433D01*
X150351368Y-124536446D01*
X150118097Y-124499500D01*
X150118092Y-124499500D01*
X149881908Y-124499500D01*
X149881903Y-124499500D01*
X149648631Y-124536446D01*
X149424003Y-124609433D01*
X149213566Y-124716657D01*
X149130979Y-124776661D01*
X149022490Y-124855483D01*
X149022488Y-124855485D01*
X149022487Y-124855485D01*
X148855485Y-125022487D01*
X148855485Y-125022488D01*
X148855483Y-125022490D01*
X148814709Y-125078611D01*
X148716657Y-125213566D01*
X148609433Y-125424003D01*
X148536446Y-125648631D01*
X148499500Y-125881902D01*
X142829983Y-125881902D01*
X142699170Y-125751089D01*
X142699161Y-125751081D01*
X142517117Y-125611392D01*
X142318390Y-125496657D01*
X142318376Y-125496650D01*
X142228833Y-125459561D01*
X142174429Y-125415721D01*
X142152364Y-125349427D01*
X142169643Y-125281727D01*
X142220780Y-125234116D01*
X142228833Y-125230439D01*
X142318376Y-125193349D01*
X142318376Y-125193348D01*
X142318388Y-125193344D01*
X142517112Y-125078611D01*
X142699161Y-124938919D01*
X142699165Y-124938914D01*
X142699170Y-124938911D01*
X142861411Y-124776670D01*
X142861414Y-124776665D01*
X142861419Y-124776661D01*
X143001111Y-124594612D01*
X143115844Y-124395888D01*
X143203658Y-124183887D01*
X143263048Y-123962238D01*
X143293000Y-123734734D01*
X143293000Y-123505266D01*
X143263048Y-123277762D01*
X143203658Y-123056113D01*
X143115844Y-122844112D01*
X143001111Y-122645388D01*
X143001108Y-122645385D01*
X143001107Y-122645382D01*
X142861418Y-122463338D01*
X142861411Y-122463330D01*
X142699170Y-122301089D01*
X142699161Y-122301081D01*
X142517117Y-122161392D01*
X142318390Y-122046657D01*
X142318376Y-122046650D01*
X142106387Y-121958842D01*
X141884738Y-121899452D01*
X141846715Y-121894446D01*
X141657241Y-121869500D01*
X141657234Y-121869500D01*
X141427766Y-121869500D01*
X141427758Y-121869500D01*
X141211215Y-121898009D01*
X141200262Y-121899452D01*
X141106576Y-121924554D01*
X140978612Y-121958842D01*
X140766623Y-122046650D01*
X140766609Y-122046657D01*
X140567882Y-122161392D01*
X140385838Y-122301081D01*
X140223581Y-122463338D01*
X140083892Y-122645382D01*
X139969157Y-122844109D01*
X139969150Y-122844123D01*
X139881342Y-123056112D01*
X139821953Y-123277759D01*
X139821951Y-123277770D01*
X139792000Y-123505258D01*
X75993000Y-123505258D01*
X75993000Y-118249480D01*
X104311224Y-118249480D01*
X104311224Y-118490519D01*
X104348928Y-118728575D01*
X104423412Y-118957810D01*
X104494063Y-119096469D01*
X104532835Y-119172564D01*
X104674508Y-119367559D01*
X104844941Y-119537992D01*
X105039936Y-119679665D01*
X105141402Y-119731364D01*
X105254689Y-119789087D01*
X105254691Y-119789087D01*
X105254694Y-119789089D01*
X105377567Y-119829013D01*
X105483924Y-119863571D01*
X105721981Y-119901276D01*
X105721986Y-119901276D01*
X105963019Y-119901276D01*
X106201075Y-119863571D01*
X106430306Y-119789089D01*
X106645064Y-119679665D01*
X106840059Y-119537992D01*
X107010492Y-119367559D01*
X107152165Y-119172564D01*
X107261589Y-118957806D01*
X107336071Y-118728575D01*
X107364000Y-118552240D01*
X107373776Y-118490519D01*
X107373776Y-118401810D01*
X140240751Y-118401810D01*
X140240751Y-118638189D01*
X140277729Y-118871661D01*
X140350772Y-119096469D01*
X140350773Y-119096472D01*
X140395686Y-119184617D01*
X140458089Y-119307088D01*
X140597030Y-119498324D01*
X140764176Y-119665470D01*
X140955412Y-119804411D01*
X141058712Y-119857045D01*
X141166027Y-119911726D01*
X141166030Y-119911727D01*
X141278434Y-119948248D01*
X141390840Y-119984771D01*
X141624310Y-120021749D01*
X141624311Y-120021749D01*
X141860689Y-120021749D01*
X141860690Y-120021749D01*
X142094160Y-119984771D01*
X142318972Y-119911726D01*
X142529588Y-119804411D01*
X142720824Y-119665470D01*
X142887970Y-119498324D01*
X143026911Y-119307088D01*
X143134226Y-119096472D01*
X143207271Y-118871660D01*
X143244249Y-118638190D01*
X143244249Y-118401810D01*
X143207271Y-118168340D01*
X143156287Y-118011425D01*
X143134227Y-117943530D01*
X143134226Y-117943527D01*
X143079545Y-117836212D01*
X143026911Y-117732912D01*
X142887970Y-117541676D01*
X142720824Y-117374530D01*
X142529588Y-117235589D01*
X142529182Y-117235382D01*
X142318972Y-117128273D01*
X142318969Y-117128272D01*
X142094161Y-117055229D01*
X141977425Y-117036740D01*
X141860690Y-117018251D01*
X141624310Y-117018251D01*
X141546486Y-117030577D01*
X141390838Y-117055229D01*
X141166030Y-117128272D01*
X141166027Y-117128273D01*
X140955411Y-117235589D01*
X140764173Y-117374532D01*
X140597032Y-117541673D01*
X140458089Y-117732911D01*
X140350773Y-117943527D01*
X140350772Y-117943530D01*
X140277729Y-118168338D01*
X140240751Y-118401810D01*
X107373776Y-118401810D01*
X107373776Y-118249480D01*
X107336071Y-118011424D01*
X107261587Y-117782189D01*
X107152164Y-117567435D01*
X107139859Y-117550499D01*
X107010492Y-117372441D01*
X106840059Y-117202008D01*
X106645064Y-117060335D01*
X106635043Y-117055229D01*
X106430310Y-116950912D01*
X106201075Y-116876428D01*
X105963019Y-116838724D01*
X105963014Y-116838724D01*
X105721986Y-116838724D01*
X105721981Y-116838724D01*
X105483924Y-116876428D01*
X105254689Y-116950912D01*
X105039935Y-117060335D01*
X104928683Y-117141165D01*
X104844941Y-117202008D01*
X104844939Y-117202010D01*
X104844938Y-117202010D01*
X104674510Y-117372438D01*
X104674510Y-117372439D01*
X104674508Y-117372441D01*
X104672989Y-117374532D01*
X104532835Y-117567435D01*
X104423412Y-117782189D01*
X104348928Y-118011424D01*
X104311224Y-118249480D01*
X75993000Y-118249480D01*
X75993000Y-110372135D01*
X81342000Y-110372135D01*
X81342000Y-112267870D01*
X81342001Y-112267876D01*
X81348408Y-112327483D01*
X81398702Y-112462328D01*
X81398706Y-112462335D01*
X81484952Y-112577544D01*
X81484955Y-112577547D01*
X81600164Y-112663793D01*
X81600171Y-112663797D01*
X81735017Y-112714091D01*
X81735016Y-112714091D01*
X81741944Y-112714835D01*
X81794627Y-112720500D01*
X83690372Y-112720499D01*
X83749983Y-112714091D01*
X83884831Y-112663796D01*
X84000046Y-112577546D01*
X84086296Y-112462331D01*
X84136591Y-112327483D01*
X84143000Y-112267873D01*
X84142999Y-110372128D01*
X84136591Y-110312517D01*
X84094794Y-110200454D01*
X84086297Y-110177671D01*
X84086293Y-110177664D01*
X84000047Y-110062455D01*
X84000044Y-110062452D01*
X83921650Y-110003766D01*
X83879779Y-109947832D01*
X83874795Y-109878141D01*
X83908281Y-109816818D01*
X83969604Y-109783334D01*
X83995961Y-109780500D01*
X86489039Y-109780500D01*
X86556078Y-109800185D01*
X86601833Y-109852989D01*
X86611777Y-109922147D01*
X86582752Y-109985703D01*
X86563350Y-110003766D01*
X86484955Y-110062452D01*
X86484952Y-110062455D01*
X86398706Y-110177664D01*
X86398702Y-110177671D01*
X86348408Y-110312517D01*
X86342001Y-110372116D01*
X86342001Y-110372123D01*
X86342000Y-110372135D01*
X86342000Y-112267870D01*
X86342001Y-112267876D01*
X86348408Y-112327483D01*
X86398702Y-112462328D01*
X86398706Y-112462335D01*
X86484952Y-112577544D01*
X86484955Y-112577547D01*
X86600164Y-112663793D01*
X86600171Y-112663797D01*
X86735017Y-112714091D01*
X86735016Y-112714091D01*
X86741944Y-112714835D01*
X86794627Y-112720500D01*
X88690372Y-112720499D01*
X88749983Y-112714091D01*
X88884831Y-112663796D01*
X89000046Y-112577546D01*
X89086296Y-112462331D01*
X89136591Y-112327483D01*
X89143000Y-112267873D01*
X89142999Y-111773649D01*
X89162683Y-111706611D01*
X89179313Y-111685974D01*
X90355152Y-110510135D01*
X97342000Y-110510135D01*
X97342000Y-112129870D01*
X97342001Y-112129876D01*
X97348408Y-112189483D01*
X97398702Y-112324328D01*
X97398706Y-112324335D01*
X97484952Y-112439544D01*
X97484955Y-112439547D01*
X97600164Y-112525793D01*
X97600171Y-112525797D01*
X97624744Y-112534962D01*
X97735017Y-112576091D01*
X97794627Y-112582500D01*
X97825120Y-112582499D01*
X97892158Y-112602182D01*
X97937915Y-112654984D01*
X97947860Y-112724142D01*
X97942828Y-112745502D01*
X97902501Y-112867200D01*
X97902500Y-112867204D01*
X97892000Y-112969983D01*
X97892000Y-114370001D01*
X97892001Y-114370018D01*
X97902500Y-114472796D01*
X97902501Y-114472799D01*
X97957685Y-114639331D01*
X97957687Y-114639336D01*
X97992569Y-114695888D01*
X98049788Y-114788656D01*
X98173844Y-114912712D01*
X98323166Y-115004814D01*
X98489703Y-115059999D01*
X98592491Y-115070500D01*
X99517508Y-115070499D01*
X99517516Y-115070498D01*
X99517519Y-115070498D01*
X99573802Y-115064748D01*
X99620297Y-115059999D01*
X99786834Y-115004814D01*
X99936156Y-114912712D01*
X100060212Y-114788656D01*
X100152314Y-114639334D01*
X100207499Y-114472797D01*
X100218000Y-114370009D01*
X100217999Y-112969992D01*
X100207499Y-112867203D01*
X100206759Y-112864970D01*
X100161794Y-112729273D01*
X100161343Y-112726480D01*
X100160523Y-112725204D01*
X100155500Y-112690269D01*
X100155500Y-112534962D01*
X100175185Y-112467923D01*
X100194806Y-112446848D01*
X100193775Y-112445817D01*
X100200042Y-112439548D01*
X100200046Y-112439546D01*
X100286296Y-112324331D01*
X100336591Y-112189483D01*
X100343000Y-112129873D01*
X100342999Y-111639334D01*
X100362683Y-111572296D01*
X100379313Y-111551659D01*
X103546328Y-108384646D01*
X103662024Y-108225405D01*
X103751384Y-108050026D01*
X103812209Y-107862826D01*
X103820221Y-107812240D01*
X103834023Y-107725102D01*
X103863952Y-107661967D01*
X103923264Y-107625036D01*
X103956496Y-107620500D01*
X132590922Y-107620500D01*
X132785326Y-107589709D01*
X132800637Y-107584734D01*
X132972526Y-107528884D01*
X133147905Y-107439524D01*
X133307146Y-107323828D01*
X137749072Y-102881902D01*
X151499500Y-102881902D01*
X151499500Y-103118097D01*
X151536446Y-103351368D01*
X151609433Y-103575996D01*
X151689088Y-103732326D01*
X151716657Y-103786433D01*
X151855483Y-103977510D01*
X152022490Y-104144517D01*
X152213567Y-104283343D01*
X152312991Y-104334002D01*
X152424003Y-104390566D01*
X152424005Y-104390566D01*
X152424008Y-104390568D01*
X152544412Y-104429689D01*
X152648631Y-104463553D01*
X152881903Y-104500500D01*
X152881908Y-104500500D01*
X153118097Y-104500500D01*
X153351368Y-104463553D01*
X153400152Y-104447702D01*
X153575992Y-104390568D01*
X153786433Y-104283343D01*
X153977510Y-104144517D01*
X154144517Y-103977510D01*
X154283343Y-103786433D01*
X154390568Y-103575992D01*
X154463553Y-103351368D01*
X154471613Y-103300478D01*
X154500500Y-103118097D01*
X154500500Y-102881902D01*
X154463553Y-102648631D01*
X154413797Y-102495500D01*
X154390568Y-102424008D01*
X154390566Y-102424005D01*
X154390566Y-102424003D01*
X154334002Y-102312991D01*
X154283343Y-102213567D01*
X154144517Y-102022490D01*
X153977510Y-101855483D01*
X153786433Y-101716657D01*
X153749587Y-101697883D01*
X153575996Y-101609433D01*
X153351368Y-101536446D01*
X153118097Y-101499500D01*
X153118092Y-101499500D01*
X152881908Y-101499500D01*
X152881903Y-101499500D01*
X152648631Y-101536446D01*
X152424003Y-101609433D01*
X152213566Y-101716657D01*
X152118177Y-101785962D01*
X152022490Y-101855483D01*
X152022488Y-101855485D01*
X152022487Y-101855485D01*
X151855485Y-102022487D01*
X151855485Y-102022488D01*
X151855483Y-102022490D01*
X151803678Y-102093793D01*
X151716657Y-102213566D01*
X151609433Y-102424003D01*
X151536446Y-102648631D01*
X151499500Y-102881902D01*
X137749072Y-102881902D01*
X144974156Y-95656819D01*
X145035479Y-95623334D01*
X145061837Y-95620500D01*
X157194083Y-95620500D01*
X161801583Y-95620500D01*
X161808000Y-95620500D01*
X161875039Y-95640185D01*
X161920794Y-95692989D01*
X161932000Y-95744500D01*
X161932000Y-107580922D01*
X161962790Y-107775326D01*
X162023617Y-107962530D01*
X162112976Y-108137905D01*
X162228672Y-108297146D01*
X167945354Y-114013828D01*
X168104595Y-114129524D01*
X168187454Y-114171742D01*
X168279969Y-114218882D01*
X168279971Y-114218882D01*
X168279974Y-114218884D01*
X168353146Y-114242659D01*
X168410160Y-114261184D01*
X168467173Y-114279709D01*
X168661578Y-114310500D01*
X168661583Y-114310500D01*
X178083000Y-114310500D01*
X178150039Y-114330185D01*
X178195794Y-114382989D01*
X178207000Y-114434500D01*
X178207000Y-116933557D01*
X178187315Y-117000596D01*
X178170681Y-117021238D01*
X178138581Y-117053338D01*
X177998892Y-117235382D01*
X177884157Y-117434109D01*
X177884150Y-117434123D01*
X177796342Y-117646112D01*
X177736953Y-117867759D01*
X177736951Y-117867770D01*
X177707000Y-118095258D01*
X177707000Y-118324741D01*
X177728826Y-118490514D01*
X177736952Y-118552238D01*
X177759983Y-118638190D01*
X177796342Y-118773887D01*
X177884150Y-118985876D01*
X177884157Y-118985890D01*
X177998892Y-119184617D01*
X178138581Y-119366661D01*
X178138589Y-119366670D01*
X178300830Y-119528911D01*
X178300838Y-119528918D01*
X178482882Y-119668607D01*
X178482885Y-119668608D01*
X178482888Y-119668611D01*
X178681612Y-119783344D01*
X178681617Y-119783346D01*
X178681623Y-119783349D01*
X178732472Y-119804411D01*
X178893613Y-119871158D01*
X179115262Y-119930548D01*
X179342766Y-119960500D01*
X179342773Y-119960500D01*
X179572227Y-119960500D01*
X179572234Y-119960500D01*
X179799738Y-119930548D01*
X180021387Y-119871158D01*
X180233388Y-119783344D01*
X180432112Y-119668611D01*
X180614161Y-119528919D01*
X180614165Y-119528914D01*
X180614170Y-119528911D01*
X180776411Y-119366670D01*
X180776414Y-119366665D01*
X180776419Y-119366661D01*
X180916111Y-119184612D01*
X181030844Y-118985888D01*
X181118658Y-118773887D01*
X181178048Y-118552238D01*
X181208000Y-118324734D01*
X181208000Y-118095266D01*
X181178048Y-117867762D01*
X181118658Y-117646113D01*
X181068690Y-117525480D01*
X181030849Y-117434123D01*
X181030846Y-117434117D01*
X181030844Y-117434112D01*
X180916111Y-117235388D01*
X180916108Y-117235385D01*
X180916107Y-117235382D01*
X180776418Y-117053338D01*
X180776411Y-117053330D01*
X180744319Y-117021238D01*
X180710834Y-116959915D01*
X180708000Y-116933557D01*
X180708000Y-114404500D01*
X180727685Y-114337461D01*
X180780489Y-114291706D01*
X180832000Y-114280500D01*
X182703000Y-114280500D01*
X182770039Y-114300185D01*
X182815794Y-114352989D01*
X182827000Y-114404500D01*
X182827000Y-117097870D01*
X182827001Y-117097876D01*
X182833408Y-117157483D01*
X182883702Y-117292328D01*
X182883706Y-117292335D01*
X182969952Y-117407544D01*
X182969955Y-117407547D01*
X183085164Y-117493793D01*
X183085171Y-117493797D01*
X183220017Y-117544091D01*
X183220016Y-117544091D01*
X183226944Y-117544835D01*
X183279627Y-117550500D01*
X185475372Y-117550499D01*
X185534983Y-117544091D01*
X185669831Y-117493796D01*
X185785046Y-117407546D01*
X185871296Y-117292331D01*
X185921591Y-117157483D01*
X185928000Y-117097873D01*
X185927999Y-114797879D01*
X185928000Y-114797873D01*
X185927999Y-111702128D01*
X185921591Y-111642517D01*
X185920404Y-111639335D01*
X185871297Y-111507671D01*
X185871293Y-111507664D01*
X185785047Y-111392455D01*
X185785044Y-111392452D01*
X185669835Y-111306206D01*
X185669828Y-111306202D01*
X185534982Y-111255908D01*
X185534983Y-111255908D01*
X185475383Y-111249501D01*
X185475381Y-111249500D01*
X185475373Y-111249500D01*
X185475364Y-111249500D01*
X183279629Y-111249500D01*
X183279623Y-111249501D01*
X183220016Y-111255908D01*
X183085171Y-111306202D01*
X183085164Y-111306206D01*
X182969955Y-111392452D01*
X182969952Y-111392455D01*
X182883706Y-111507664D01*
X182883702Y-111507671D01*
X182833410Y-111642513D01*
X182833409Y-111642517D01*
X182830587Y-111668758D01*
X182803851Y-111733306D01*
X182746459Y-111773154D01*
X182707299Y-111779500D01*
X179421582Y-111779500D01*
X179398931Y-111783087D01*
X179379536Y-111784613D01*
X178422129Y-111784613D01*
X178422123Y-111784614D01*
X178362518Y-111791021D01*
X178343843Y-111797986D01*
X178333935Y-111801682D01*
X178290603Y-111809500D01*
X169329336Y-111809500D01*
X169262297Y-111789815D01*
X169241655Y-111773181D01*
X164469319Y-107000845D01*
X164435834Y-106939522D01*
X164433000Y-106913164D01*
X164433000Y-101534038D01*
X182132000Y-101534038D01*
X182132000Y-101785962D01*
X182163062Y-101982077D01*
X182171410Y-102034785D01*
X182249260Y-102274383D01*
X182355081Y-102482066D01*
X182363630Y-102498845D01*
X182458319Y-102629173D01*
X182481798Y-102694976D01*
X182482000Y-102702056D01*
X182482000Y-103928422D01*
X182512790Y-104122826D01*
X182573617Y-104310030D01*
X182635778Y-104432026D01*
X182662976Y-104485405D01*
X182778672Y-104644646D01*
X182925355Y-104791329D01*
X182938689Y-104801017D01*
X183018023Y-104858656D01*
X183032819Y-104871293D01*
X186562801Y-108401275D01*
X186593051Y-108450637D01*
X186626760Y-108554383D01*
X186741132Y-108778848D01*
X186889201Y-108982649D01*
X186889205Y-108982654D01*
X187067345Y-109160794D01*
X187067350Y-109160798D01*
X187213709Y-109267133D01*
X187271155Y-109308870D01*
X187414184Y-109381747D01*
X187495616Y-109423239D01*
X187495618Y-109423239D01*
X187495621Y-109423241D01*
X187735215Y-109501090D01*
X187984038Y-109540500D01*
X187984039Y-109540500D01*
X188235961Y-109540500D01*
X188235962Y-109540500D01*
X188484785Y-109501090D01*
X188724379Y-109423241D01*
X188726978Y-109421917D01*
X188730048Y-109420352D01*
X188948845Y-109308870D01*
X189152656Y-109160793D01*
X189330793Y-108982656D01*
X189478870Y-108778845D01*
X189593241Y-108554379D01*
X189671090Y-108314785D01*
X189696290Y-108155672D01*
X189726219Y-108092539D01*
X189731064Y-108087408D01*
X192161656Y-105656819D01*
X192222979Y-105623334D01*
X192249337Y-105620500D01*
X204997617Y-105620500D01*
X205017015Y-105622027D01*
X205083139Y-105632500D01*
X205083140Y-105632500D01*
X205281860Y-105632500D01*
X205281861Y-105632500D01*
X205478136Y-105601413D01*
X205667132Y-105540005D01*
X205844194Y-105449787D01*
X206004964Y-105332981D01*
X206145481Y-105192464D01*
X206151293Y-105184463D01*
X206160629Y-105171615D01*
X206215959Y-105128949D01*
X206260947Y-105120500D01*
X209933270Y-105120500D01*
X210000309Y-105140185D01*
X210031646Y-105169014D01*
X210099870Y-105257926D01*
X210099876Y-105257933D01*
X210294566Y-105452623D01*
X210294572Y-105452628D01*
X210513021Y-105620249D01*
X210666278Y-105708732D01*
X210751471Y-105757919D01*
X210751476Y-105757921D01*
X210751479Y-105757923D01*
X211005868Y-105863295D01*
X211271834Y-105934560D01*
X211544826Y-105970500D01*
X211544833Y-105970500D01*
X211820167Y-105970500D01*
X211820174Y-105970500D01*
X212093166Y-105934560D01*
X212359132Y-105863295D01*
X212613521Y-105757923D01*
X212851979Y-105620249D01*
X213070428Y-105452628D01*
X213265128Y-105257928D01*
X213432749Y-105039479D01*
X213570423Y-104801021D01*
X213675795Y-104546632D01*
X213747060Y-104280666D01*
X213783000Y-104007674D01*
X213783000Y-103732326D01*
X213747060Y-103459334D01*
X213675795Y-103193368D01*
X213570423Y-102938979D01*
X213570421Y-102938976D01*
X213570419Y-102938971D01*
X213484037Y-102789355D01*
X213432749Y-102700521D01*
X213314957Y-102547011D01*
X213265129Y-102482073D01*
X213265123Y-102482066D01*
X213070433Y-102287376D01*
X213070426Y-102287370D01*
X212851983Y-102119754D01*
X212851982Y-102119753D01*
X212851979Y-102119751D01*
X212739621Y-102054881D01*
X212613528Y-101982080D01*
X212613517Y-101982075D01*
X212359130Y-101876704D01*
X212226149Y-101841072D01*
X212093166Y-101805440D01*
X212093160Y-101805439D01*
X212093155Y-101805438D01*
X211820184Y-101769501D01*
X211820179Y-101769500D01*
X211820174Y-101769500D01*
X211544826Y-101769500D01*
X211544820Y-101769500D01*
X211544815Y-101769501D01*
X211271844Y-101805438D01*
X211271837Y-101805439D01*
X211271834Y-101805440D01*
X211215625Y-101820500D01*
X211005869Y-101876704D01*
X210751482Y-101982075D01*
X210751471Y-101982080D01*
X210513016Y-102119754D01*
X210294573Y-102287370D01*
X210294566Y-102287376D01*
X210099876Y-102482066D01*
X210099870Y-102482073D01*
X210031646Y-102570986D01*
X209975218Y-102612189D01*
X209933270Y-102619500D01*
X206557000Y-102619500D01*
X206489961Y-102599815D01*
X206444206Y-102547011D01*
X206433000Y-102495500D01*
X206433000Y-102054881D01*
X206434527Y-102035483D01*
X206436586Y-102022487D01*
X206445000Y-101969361D01*
X206445000Y-101770639D01*
X206413913Y-101574364D01*
X206352505Y-101385368D01*
X206352505Y-101385367D01*
X206262286Y-101208305D01*
X206145481Y-101047536D01*
X206004964Y-100907019D01*
X205844194Y-100790213D01*
X205803221Y-100769336D01*
X205667132Y-100699994D01*
X205667129Y-100699993D01*
X205478137Y-100638587D01*
X205344051Y-100617350D01*
X205281861Y-100607500D01*
X205083139Y-100607500D01*
X205020987Y-100617344D01*
X204886862Y-100638587D01*
X204697870Y-100699993D01*
X204697867Y-100699994D01*
X204520805Y-100790213D01*
X204360033Y-100907021D01*
X204219521Y-101047533D01*
X204102713Y-101208305D01*
X204012494Y-101385367D01*
X204012493Y-101385370D01*
X203951087Y-101574362D01*
X203931523Y-101697883D01*
X203920000Y-101770639D01*
X203920000Y-101969361D01*
X203928414Y-102022487D01*
X203930473Y-102035483D01*
X203932000Y-102054881D01*
X203932000Y-102995500D01*
X203912315Y-103062539D01*
X203859511Y-103108294D01*
X203808000Y-103119500D01*
X191581578Y-103119500D01*
X191387173Y-103150290D01*
X191199969Y-103211117D01*
X191024591Y-103300478D01*
X190865360Y-103416165D01*
X190865355Y-103416169D01*
X188077680Y-106203844D01*
X188016357Y-106237329D01*
X187946665Y-106232345D01*
X187902318Y-106203844D01*
X185019319Y-103320845D01*
X184985834Y-103259522D01*
X184983000Y-103233164D01*
X184983000Y-102702056D01*
X185002685Y-102635017D01*
X185006663Y-102629196D01*
X185101370Y-102498845D01*
X185215741Y-102274379D01*
X185293590Y-102034785D01*
X185333000Y-101785962D01*
X185333000Y-101534038D01*
X185293590Y-101285215D01*
X185215741Y-101045621D01*
X185215739Y-101045618D01*
X185215739Y-101045616D01*
X185174247Y-100964184D01*
X185101370Y-100821155D01*
X185015015Y-100702297D01*
X184953298Y-100617350D01*
X184953294Y-100617345D01*
X184775154Y-100439205D01*
X184775149Y-100439201D01*
X184571348Y-100291132D01*
X184571347Y-100291131D01*
X184571345Y-100291130D01*
X184501247Y-100255413D01*
X184346883Y-100176760D01*
X184107285Y-100098910D01*
X184020629Y-100085185D01*
X183858462Y-100059500D01*
X183606538Y-100059500D01*
X183568656Y-100065500D01*
X183357714Y-100098910D01*
X183118116Y-100176760D01*
X182893651Y-100291132D01*
X182689850Y-100439201D01*
X182689845Y-100439205D01*
X182511705Y-100617345D01*
X182511701Y-100617350D01*
X182363632Y-100821151D01*
X182249260Y-101045616D01*
X182171410Y-101285214D01*
X182137470Y-101499500D01*
X182132000Y-101534038D01*
X164433000Y-101534038D01*
X164433000Y-99602135D01*
X188912000Y-99602135D01*
X188912000Y-101697870D01*
X188912001Y-101697876D01*
X188918408Y-101757483D01*
X188968702Y-101892328D01*
X188968706Y-101892335D01*
X189054952Y-102007544D01*
X189054955Y-102007547D01*
X189170164Y-102093793D01*
X189170171Y-102093797D01*
X189305017Y-102144091D01*
X189305016Y-102144091D01*
X189311944Y-102144835D01*
X189364627Y-102150500D01*
X191460372Y-102150499D01*
X191519983Y-102144091D01*
X191654831Y-102093796D01*
X191770046Y-102007546D01*
X191856296Y-101892331D01*
X191906591Y-101757483D01*
X191913000Y-101697873D01*
X191912999Y-99602128D01*
X191906591Y-99542517D01*
X191856296Y-99407669D01*
X191856295Y-99407668D01*
X191856293Y-99407664D01*
X191770048Y-99292457D01*
X191770046Y-99292454D01*
X191731659Y-99263717D01*
X191712688Y-99249515D01*
X191670818Y-99193581D01*
X191663000Y-99150249D01*
X191663000Y-98696836D01*
X191682685Y-98629797D01*
X191699319Y-98609155D01*
X192024319Y-98284155D01*
X192373256Y-97935217D01*
X192434577Y-97901734D01*
X192499935Y-97905193D01*
X192559703Y-97924999D01*
X192662491Y-97935500D01*
X194002508Y-97935499D01*
X194008999Y-97934836D01*
X194020395Y-97933671D01*
X194105297Y-97924999D01*
X194271834Y-97869814D01*
X194421156Y-97777712D01*
X194545212Y-97653656D01*
X194637314Y-97504334D01*
X194637317Y-97504322D01*
X194637629Y-97503657D01*
X194637969Y-97503269D01*
X194641105Y-97498187D01*
X194641973Y-97498722D01*
X194683799Y-97451216D01*
X194750991Y-97432060D01*
X194817873Y-97452272D01*
X194837695Y-97468375D01*
X194979679Y-97610359D01*
X195154201Y-97737157D01*
X195346411Y-97835092D01*
X195551574Y-97901754D01*
X195631473Y-97914408D01*
X195764634Y-97935500D01*
X195764639Y-97935500D01*
X195980366Y-97935500D01*
X196098730Y-97916752D01*
X196193426Y-97901754D01*
X196398589Y-97835092D01*
X196590799Y-97737157D01*
X196671858Y-97678262D01*
X196737664Y-97654782D01*
X196805718Y-97670607D01*
X196832425Y-97690899D01*
X197425681Y-98284155D01*
X197459166Y-98345478D01*
X197462000Y-98371836D01*
X197462000Y-99150249D01*
X197442315Y-99217288D01*
X197412312Y-99249515D01*
X197354957Y-99292451D01*
X197354951Y-99292457D01*
X197268706Y-99407664D01*
X197268702Y-99407671D01*
X197218408Y-99542517D01*
X197212001Y-99602116D01*
X197212001Y-99602123D01*
X197212000Y-99602135D01*
X197212000Y-101697870D01*
X197212001Y-101697876D01*
X197218408Y-101757483D01*
X197268702Y-101892328D01*
X197268706Y-101892335D01*
X197354952Y-102007544D01*
X197354955Y-102007547D01*
X197470164Y-102093793D01*
X197470171Y-102093797D01*
X197605017Y-102144091D01*
X197605016Y-102144091D01*
X197611944Y-102144835D01*
X197664627Y-102150500D01*
X199760372Y-102150499D01*
X199819983Y-102144091D01*
X199954831Y-102093796D01*
X200070046Y-102007546D01*
X200070048Y-102007542D01*
X200074819Y-102002773D01*
X200136142Y-101969288D01*
X200205834Y-101974272D01*
X200250181Y-102002773D01*
X200254955Y-102007547D01*
X200370164Y-102093793D01*
X200370171Y-102093797D01*
X200505017Y-102144091D01*
X200505016Y-102144091D01*
X200511944Y-102144835D01*
X200564627Y-102150500D01*
X202660372Y-102150499D01*
X202719983Y-102144091D01*
X202854831Y-102093796D01*
X202970046Y-102007546D01*
X203056296Y-101892331D01*
X203106591Y-101757483D01*
X203113000Y-101697873D01*
X203112999Y-100769335D01*
X203132683Y-100702297D01*
X203149318Y-100681655D01*
X203729155Y-100101819D01*
X203790478Y-100068334D01*
X203816836Y-100065500D01*
X209001583Y-100065500D01*
X217683164Y-100065500D01*
X217750203Y-100085185D01*
X217770845Y-100101819D01*
X219135681Y-101466655D01*
X219169166Y-101527978D01*
X219172000Y-101554336D01*
X219172000Y-104380663D01*
X219152315Y-104447702D01*
X219135681Y-104468344D01*
X217783827Y-105820197D01*
X217722504Y-105853682D01*
X217652812Y-105848698D01*
X217648712Y-105847084D01*
X217556387Y-105808842D01*
X217556385Y-105808841D01*
X217556384Y-105808841D01*
X217490535Y-105791197D01*
X217334738Y-105749452D01*
X217296715Y-105744446D01*
X217107241Y-105719500D01*
X217107234Y-105719500D01*
X216877766Y-105719500D01*
X216877758Y-105719500D01*
X216661215Y-105748009D01*
X216650262Y-105749452D01*
X216618644Y-105757924D01*
X216428612Y-105808842D01*
X216216623Y-105896650D01*
X216216609Y-105896657D01*
X216017882Y-106011392D01*
X215835838Y-106151081D01*
X215673581Y-106313338D01*
X215533892Y-106495382D01*
X215419157Y-106694109D01*
X215419150Y-106694123D01*
X215331342Y-106906112D01*
X215271953Y-107127759D01*
X215271951Y-107127770D01*
X215242000Y-107355258D01*
X215242000Y-107584741D01*
X215252168Y-107661967D01*
X215271952Y-107812238D01*
X215315430Y-107974501D01*
X215331342Y-108033887D01*
X215419150Y-108245876D01*
X215419157Y-108245890D01*
X215425193Y-108256344D01*
X215508868Y-108401275D01*
X215533892Y-108444617D01*
X215673581Y-108626661D01*
X215673588Y-108626669D01*
X215705680Y-108658760D01*
X215739166Y-108720082D01*
X215742000Y-108746442D01*
X215742000Y-109300664D01*
X215722315Y-109367703D01*
X215705681Y-109388345D01*
X213130845Y-111963181D01*
X213103917Y-111977884D01*
X213078099Y-111994477D01*
X213071898Y-111995368D01*
X213069522Y-111996666D01*
X213043164Y-111999500D01*
X213004500Y-111999500D01*
X212937461Y-111979815D01*
X212891706Y-111927011D01*
X212880500Y-111875500D01*
X212880500Y-111527343D01*
X212900185Y-111460304D01*
X212916819Y-111439662D01*
X212964029Y-111392452D01*
X213022712Y-111333769D01*
X213114814Y-111184447D01*
X213169999Y-111017910D01*
X213180500Y-110915122D01*
X213180499Y-109715105D01*
X213169999Y-109612316D01*
X213114814Y-109445779D01*
X213022712Y-109296457D01*
X212898656Y-109172401D01*
X212749334Y-109080299D01*
X212582797Y-109025114D01*
X212582795Y-109025113D01*
X212480016Y-109014613D01*
X212480009Y-109014613D01*
X212117003Y-109014613D01*
X212092812Y-109012230D01*
X212057220Y-109005150D01*
X211978543Y-108989500D01*
X211978541Y-108989500D01*
X211781459Y-108989500D01*
X211781454Y-108989500D01*
X211667184Y-109012230D01*
X211642993Y-109014613D01*
X211279998Y-109014613D01*
X211279980Y-109014614D01*
X211177203Y-109025113D01*
X211177200Y-109025114D01*
X211010668Y-109080298D01*
X211010663Y-109080300D01*
X210861342Y-109172402D01*
X210737289Y-109296455D01*
X210645187Y-109445776D01*
X210645186Y-109445779D01*
X210590001Y-109612316D01*
X210590001Y-109612317D01*
X210590000Y-109612317D01*
X210579500Y-109715096D01*
X210579500Y-110915114D01*
X210579501Y-110915131D01*
X210590000Y-111017909D01*
X210590001Y-111017912D01*
X210645185Y-111184444D01*
X210645187Y-111184449D01*
X210737289Y-111333770D01*
X210843181Y-111439662D01*
X210876666Y-111500985D01*
X210879500Y-111527343D01*
X210879500Y-111875500D01*
X210876949Y-111884185D01*
X210878238Y-111893147D01*
X210867259Y-111917187D01*
X210859815Y-111942539D01*
X210852974Y-111948466D01*
X210849213Y-111956703D01*
X210826978Y-111970992D01*
X210807011Y-111988294D01*
X210796496Y-111990581D01*
X210790435Y-111994477D01*
X210755500Y-111999500D01*
X210651999Y-111999500D01*
X210584960Y-111979815D01*
X210539205Y-111927011D01*
X210527999Y-111875500D01*
X210527999Y-111702129D01*
X210527998Y-111702123D01*
X210527997Y-111702116D01*
X210521591Y-111642517D01*
X210520404Y-111639335D01*
X210471297Y-111507671D01*
X210471293Y-111507664D01*
X210385047Y-111392455D01*
X210385044Y-111392452D01*
X210269835Y-111306206D01*
X210269828Y-111306202D01*
X210134982Y-111255908D01*
X210134983Y-111255908D01*
X210075383Y-111249501D01*
X210075381Y-111249500D01*
X210075373Y-111249500D01*
X210075364Y-111249500D01*
X207879629Y-111249500D01*
X207879623Y-111249501D01*
X207820016Y-111255908D01*
X207685171Y-111306202D01*
X207685164Y-111306206D01*
X207569955Y-111392452D01*
X207569952Y-111392455D01*
X207483706Y-111507664D01*
X207483702Y-111507671D01*
X207433408Y-111642517D01*
X207428737Y-111685969D01*
X207427001Y-111702123D01*
X207427000Y-111702135D01*
X207427000Y-114175500D01*
X207407315Y-114242539D01*
X207354511Y-114288294D01*
X207303000Y-114299500D01*
X199909336Y-114299500D01*
X199842297Y-114279815D01*
X199821655Y-114263181D01*
X199556819Y-113998345D01*
X199523334Y-113937022D01*
X199520500Y-113910664D01*
X199520500Y-109493957D01*
X199540185Y-109426918D01*
X199579407Y-109388416D01*
X199588656Y-109382712D01*
X199712712Y-109258656D01*
X199804814Y-109109335D01*
X199859999Y-108942798D01*
X199870500Y-108840010D01*
X199870500Y-108674983D01*
X201494500Y-108674983D01*
X201494500Y-110425001D01*
X201494501Y-110425018D01*
X201505000Y-110527796D01*
X201505001Y-110527799D01*
X201556976Y-110684646D01*
X201560186Y-110694334D01*
X201652288Y-110843656D01*
X201776344Y-110967712D01*
X201925666Y-111059814D01*
X202092203Y-111114999D01*
X202194991Y-111125500D01*
X203945008Y-111125499D01*
X204047797Y-111114999D01*
X204214334Y-111059814D01*
X204363656Y-110967712D01*
X204487712Y-110843656D01*
X204579814Y-110694334D01*
X204634999Y-110527797D01*
X204645500Y-110425009D01*
X204645499Y-108674992D01*
X204634999Y-108572203D01*
X204579814Y-108405666D01*
X204487712Y-108256344D01*
X204363656Y-108132288D01*
X204230294Y-108050030D01*
X204214336Y-108040187D01*
X204214331Y-108040185D01*
X204195325Y-108033887D01*
X204047797Y-107985001D01*
X204047795Y-107985000D01*
X203945010Y-107974500D01*
X202194998Y-107974500D01*
X202194981Y-107974501D01*
X202092203Y-107985000D01*
X202092200Y-107985001D01*
X201925668Y-108040185D01*
X201925663Y-108040187D01*
X201776342Y-108132289D01*
X201652289Y-108256342D01*
X201560187Y-108405663D01*
X201560185Y-108405668D01*
X201547279Y-108444617D01*
X201505001Y-108572203D01*
X201505001Y-108572204D01*
X201505000Y-108572204D01*
X201494500Y-108674983D01*
X199870500Y-108674983D01*
X199870500Y-107039990D01*
X199859999Y-106937202D01*
X199804814Y-106770665D01*
X199712712Y-106621344D01*
X199588656Y-106497288D01*
X199439335Y-106405186D01*
X199272798Y-106350001D01*
X199272796Y-106350000D01*
X199170017Y-106339500D01*
X199170010Y-106339500D01*
X197369990Y-106339500D01*
X197369982Y-106339500D01*
X197267203Y-106350000D01*
X197267202Y-106350001D01*
X197184669Y-106377349D01*
X197100667Y-106405185D01*
X197100662Y-106405187D01*
X196951342Y-106497289D01*
X196827289Y-106621342D01*
X196735187Y-106770662D01*
X196735186Y-106770665D01*
X196680001Y-106937202D01*
X196680001Y-106937203D01*
X196680000Y-106937203D01*
X196669500Y-107039982D01*
X196669500Y-108840017D01*
X196680000Y-108942796D01*
X196707278Y-109025114D01*
X196735186Y-109109335D01*
X196827288Y-109258656D01*
X196951344Y-109382712D01*
X196960591Y-109388416D01*
X197007318Y-109440360D01*
X197019500Y-109493957D01*
X197019500Y-114578422D01*
X197050290Y-114772826D01*
X197111117Y-114960030D01*
X197167405Y-115070500D01*
X197200476Y-115135405D01*
X197316172Y-115294646D01*
X198386172Y-116364646D01*
X198525354Y-116503828D01*
X198684595Y-116619524D01*
X198767455Y-116661743D01*
X198859970Y-116708882D01*
X198859972Y-116708882D01*
X198859975Y-116708884D01*
X198960317Y-116741487D01*
X199047173Y-116769709D01*
X199241578Y-116800500D01*
X199241583Y-116800500D01*
X199241584Y-116800500D01*
X199438417Y-116800500D01*
X207303001Y-116800500D01*
X207370040Y-116820185D01*
X207415795Y-116872989D01*
X207427001Y-116924500D01*
X207427001Y-117097876D01*
X207433408Y-117157483D01*
X207483702Y-117292328D01*
X207483706Y-117292335D01*
X207569952Y-117407544D01*
X207569955Y-117407547D01*
X207685164Y-117493793D01*
X207685171Y-117493797D01*
X207820017Y-117544091D01*
X207820016Y-117544091D01*
X207826944Y-117544835D01*
X207879627Y-117550500D01*
X210075372Y-117550499D01*
X210134983Y-117544091D01*
X210269831Y-117493796D01*
X210385046Y-117407546D01*
X210471296Y-117292331D01*
X210521591Y-117157483D01*
X210528000Y-117097873D01*
X210527999Y-114797879D01*
X210528000Y-114797873D01*
X210528000Y-114624499D01*
X210547685Y-114557460D01*
X210600489Y-114511705D01*
X210600502Y-114511703D01*
X210652000Y-114500500D01*
X210707769Y-114500500D01*
X210774808Y-114520185D01*
X210795450Y-114536818D01*
X210901344Y-114642712D01*
X211050666Y-114734814D01*
X211217203Y-114789999D01*
X211319991Y-114800500D01*
X212720008Y-114800499D01*
X212822797Y-114789999D01*
X212989334Y-114734814D01*
X213138656Y-114642712D01*
X213244550Y-114536818D01*
X213305873Y-114503334D01*
X213332231Y-114500500D01*
X213710922Y-114500500D01*
X213905326Y-114469709D01*
X214092526Y-114408884D01*
X214267905Y-114319524D01*
X214427146Y-114203828D01*
X217946328Y-110684646D01*
X218062024Y-110525405D01*
X218151384Y-110350026D01*
X218212209Y-110162826D01*
X218219992Y-110113686D01*
X218219992Y-110113685D01*
X218243000Y-109968422D01*
X218243000Y-108764309D01*
X218262685Y-108697270D01*
X218315489Y-108651515D01*
X218328666Y-108646383D01*
X218382526Y-108628884D01*
X218557905Y-108539524D01*
X218717146Y-108423828D01*
X221376328Y-105764646D01*
X221492024Y-105605405D01*
X221581384Y-105430026D01*
X221642209Y-105242826D01*
X221673000Y-105048422D01*
X221673000Y-100886577D01*
X221642209Y-100692173D01*
X221581382Y-100504970D01*
X221492023Y-100329594D01*
X221376328Y-100170354D01*
X221237146Y-100031172D01*
X219067146Y-97861172D01*
X218907905Y-97745476D01*
X218891566Y-97737151D01*
X218732530Y-97656117D01*
X218545326Y-97595290D01*
X218350922Y-97564500D01*
X218350917Y-97564500D01*
X210474500Y-97564500D01*
X210407461Y-97544815D01*
X210361706Y-97492011D01*
X210350500Y-97440500D01*
X210350500Y-97162230D01*
X210359144Y-97132789D01*
X210365668Y-97102803D01*
X210369422Y-97097787D01*
X210370185Y-97095191D01*
X210386819Y-97074549D01*
X210412319Y-97049049D01*
X210473642Y-97015564D01*
X210543334Y-97020548D01*
X210587681Y-97049049D01*
X210681344Y-97142712D01*
X210830666Y-97234814D01*
X210997203Y-97289999D01*
X211099991Y-97300500D01*
X211900008Y-97300499D01*
X211900016Y-97300498D01*
X211900019Y-97300498D01*
X211956302Y-97294748D01*
X212002797Y-97289999D01*
X212169334Y-97234814D01*
X212318656Y-97142712D01*
X212442712Y-97018656D01*
X212534814Y-96869334D01*
X212589999Y-96702797D01*
X212600500Y-96600009D01*
X212600499Y-95599992D01*
X212589999Y-95497203D01*
X212534814Y-95330666D01*
X212442712Y-95181344D01*
X212386819Y-95125451D01*
X212353334Y-95064128D01*
X212350500Y-95037770D01*
X212350500Y-92687230D01*
X212357225Y-92664326D01*
X212359612Y-92640575D01*
X212367844Y-92628160D01*
X212370185Y-92620191D01*
X212377410Y-92610097D01*
X212381812Y-92604555D01*
X212442712Y-92543656D01*
X212486177Y-92473187D01*
X212490759Y-92467420D01*
X212513539Y-92451367D01*
X212534258Y-92432732D01*
X212541705Y-92431519D01*
X212547873Y-92427174D01*
X212575713Y-92425985D01*
X212603220Y-92421509D01*
X212610140Y-92424515D01*
X212617679Y-92424194D01*
X212641742Y-92438246D01*
X212667303Y-92449352D01*
X212675530Y-92456872D01*
X212783072Y-92564414D01*
X212923212Y-92666232D01*
X213077555Y-92744873D01*
X213242299Y-92798402D01*
X213413389Y-92825500D01*
X213413390Y-92825500D01*
X213586610Y-92825500D01*
X213586611Y-92825500D01*
X213757701Y-92798402D01*
X213922445Y-92744873D01*
X214076788Y-92666232D01*
X214216928Y-92564414D01*
X214339414Y-92441928D01*
X214441232Y-92301788D01*
X214519873Y-92147445D01*
X214573402Y-91982701D01*
X214600500Y-91811611D01*
X214600500Y-91088389D01*
X214573402Y-90917299D01*
X214519873Y-90752555D01*
X214441232Y-90598212D01*
X214339414Y-90458072D01*
X214216928Y-90335586D01*
X214076788Y-90233768D01*
X214030130Y-90209995D01*
X213922447Y-90155128D01*
X213922446Y-90155127D01*
X213922445Y-90155127D01*
X213757701Y-90101598D01*
X213757699Y-90101597D01*
X213757698Y-90101597D01*
X213626271Y-90080781D01*
X213586611Y-90074500D01*
X213413389Y-90074500D01*
X213373728Y-90080781D01*
X213242302Y-90101597D01*
X213077552Y-90155128D01*
X212923211Y-90233768D01*
X212783073Y-90335585D01*
X212675530Y-90443128D01*
X212614207Y-90476612D01*
X212544515Y-90471628D01*
X212488582Y-90429756D01*
X212482310Y-90420543D01*
X212478886Y-90414992D01*
X212442712Y-90356344D01*
X212318656Y-90232288D01*
X212193559Y-90155128D01*
X212169336Y-90140187D01*
X212169331Y-90140185D01*
X212159864Y-90137048D01*
X212002797Y-90085001D01*
X212002795Y-90085000D01*
X211900010Y-90074500D01*
X211099998Y-90074500D01*
X211099980Y-90074501D01*
X210997203Y-90085000D01*
X210997200Y-90085001D01*
X210830668Y-90140185D01*
X210830663Y-90140187D01*
X210681342Y-90232289D01*
X210557289Y-90356342D01*
X210465187Y-90505663D01*
X210465185Y-90505668D01*
X210447999Y-90557533D01*
X210410001Y-90672203D01*
X210410001Y-90672204D01*
X210410000Y-90672204D01*
X210399500Y-90774983D01*
X210399500Y-92125001D01*
X210399501Y-92125018D01*
X210410000Y-92227796D01*
X210410001Y-92227799D01*
X210465185Y-92394331D01*
X210465187Y-92394336D01*
X210483604Y-92424194D01*
X210541284Y-92517710D01*
X210557289Y-92543657D01*
X210613181Y-92599549D01*
X210646666Y-92660872D01*
X210649500Y-92687230D01*
X210649500Y-95037770D01*
X210640855Y-95067210D01*
X210634332Y-95097197D01*
X210630577Y-95102212D01*
X210629815Y-95104809D01*
X210613181Y-95125451D01*
X210587681Y-95150951D01*
X210526358Y-95184436D01*
X210456666Y-95179452D01*
X210412319Y-95150951D01*
X210318657Y-95057289D01*
X210318656Y-95057288D01*
X210169334Y-94965186D01*
X210002797Y-94910001D01*
X210002795Y-94910000D01*
X209900010Y-94899500D01*
X209099998Y-94899500D01*
X209099980Y-94899501D01*
X208997203Y-94910000D01*
X208997200Y-94910001D01*
X208830668Y-94965185D01*
X208830663Y-94965187D01*
X208681342Y-95057289D01*
X208557289Y-95181342D01*
X208465187Y-95330663D01*
X208465186Y-95330666D01*
X208410001Y-95497203D01*
X208410001Y-95497204D01*
X208410000Y-95497204D01*
X208399500Y-95599983D01*
X208399500Y-96600001D01*
X208399501Y-96600019D01*
X208410000Y-96702796D01*
X208410001Y-96702799D01*
X208437474Y-96785705D01*
X208465186Y-96869334D01*
X208547546Y-97002862D01*
X208557289Y-97018657D01*
X208613181Y-97074549D01*
X208646666Y-97135872D01*
X208649500Y-97162230D01*
X208649500Y-97440500D01*
X208629815Y-97507539D01*
X208577011Y-97553294D01*
X208525500Y-97564500D01*
X203149078Y-97564500D01*
X202954672Y-97595291D01*
X202893848Y-97615053D01*
X202893848Y-97615054D01*
X202850603Y-97629105D01*
X202767470Y-97656117D01*
X202634299Y-97723972D01*
X202592095Y-97745476D01*
X202592094Y-97745477D01*
X202584196Y-97751215D01*
X202584191Y-97751217D01*
X202432852Y-97861173D01*
X202432851Y-97861174D01*
X201180843Y-99113181D01*
X201119520Y-99146666D01*
X201093162Y-99149500D01*
X200564629Y-99149500D01*
X200564623Y-99149501D01*
X200505016Y-99155908D01*
X200370171Y-99206202D01*
X200370164Y-99206206D01*
X200254953Y-99292454D01*
X200250177Y-99297230D01*
X200248870Y-99297943D01*
X200248127Y-99299233D01*
X200218307Y-99314630D01*
X200188853Y-99330712D01*
X200187368Y-99330605D01*
X200186045Y-99331289D01*
X200152634Y-99328120D01*
X200119161Y-99325725D01*
X200117489Y-99324787D01*
X200116487Y-99324692D01*
X200111712Y-99321544D01*
X200085910Y-99307064D01*
X200073953Y-99297673D01*
X200070046Y-99292454D01*
X200011559Y-99248671D01*
X200010410Y-99247768D01*
X199990927Y-99220444D01*
X199970818Y-99193581D01*
X199970494Y-99191789D01*
X199969846Y-99190880D01*
X199969668Y-99187212D01*
X199963000Y-99150249D01*
X199963000Y-97704083D01*
X199960912Y-97690899D01*
X199945769Y-97595291D01*
X199932209Y-97509673D01*
X199892908Y-97388720D01*
X199878078Y-97343076D01*
X199871385Y-97322477D01*
X199871383Y-97322474D01*
X199866482Y-97312854D01*
X199782024Y-97147095D01*
X199666328Y-96987854D01*
X199527146Y-96848672D01*
X198064646Y-95386172D01*
X197905405Y-95270476D01*
X197730030Y-95181117D01*
X197542826Y-95120290D01*
X197348422Y-95089500D01*
X197348417Y-95089500D01*
X196832944Y-95089500D01*
X196765905Y-95069815D01*
X196760076Y-95065830D01*
X196590799Y-94942843D01*
X196505733Y-94899500D01*
X196398591Y-94844909D01*
X196398590Y-94844908D01*
X196398589Y-94844908D01*
X196193426Y-94778246D01*
X196193424Y-94778245D01*
X196193422Y-94778245D01*
X195980366Y-94744500D01*
X195980361Y-94744500D01*
X195764639Y-94744500D01*
X195764634Y-94744500D01*
X195551577Y-94778245D01*
X195346408Y-94844909D01*
X195154200Y-94942843D01*
X194979680Y-95069640D01*
X194837695Y-95211625D01*
X194776372Y-95245109D01*
X194706680Y-95240125D01*
X194650747Y-95198253D01*
X194637632Y-95176348D01*
X194637315Y-95175669D01*
X194637314Y-95175668D01*
X194637314Y-95175666D01*
X194545212Y-95026344D01*
X194421156Y-94902288D01*
X194271834Y-94810186D01*
X194105297Y-94755001D01*
X194105295Y-94755000D01*
X194002510Y-94744500D01*
X192662498Y-94744500D01*
X192662481Y-94744501D01*
X192559703Y-94755000D01*
X192559700Y-94755001D01*
X192393168Y-94810185D01*
X192393163Y-94810187D01*
X192243842Y-94902289D01*
X192119787Y-95026344D01*
X192108481Y-95044675D01*
X192056532Y-95091399D01*
X192022341Y-95102050D01*
X191907173Y-95120290D01*
X191719969Y-95181117D01*
X191544591Y-95270478D01*
X191385360Y-95386165D01*
X191385355Y-95386169D01*
X189458674Y-97312851D01*
X189458672Y-97312854D01*
X189436711Y-97343081D01*
X189342976Y-97472094D01*
X189253616Y-97647472D01*
X189250807Y-97656115D01*
X189250808Y-97656116D01*
X189192791Y-97834669D01*
X189192791Y-97834672D01*
X189162000Y-98029077D01*
X189162000Y-99150249D01*
X189142315Y-99217288D01*
X189112312Y-99249515D01*
X189054957Y-99292451D01*
X189054951Y-99292457D01*
X188968706Y-99407664D01*
X188968702Y-99407671D01*
X188918408Y-99542517D01*
X188912001Y-99602116D01*
X188912001Y-99602123D01*
X188912000Y-99602135D01*
X164433000Y-99602135D01*
X164433000Y-95744500D01*
X164452685Y-95677461D01*
X164505489Y-95631706D01*
X164557000Y-95620500D01*
X167907770Y-95620500D01*
X167974809Y-95640185D01*
X167995451Y-95656819D01*
X168081344Y-95742712D01*
X168230666Y-95834814D01*
X168397203Y-95889999D01*
X168499991Y-95900500D01*
X169900008Y-95900499D01*
X170002797Y-95889999D01*
X170169334Y-95834814D01*
X170318656Y-95742712D01*
X170404549Y-95656819D01*
X170465872Y-95623334D01*
X170492230Y-95620500D01*
X172141031Y-95620500D01*
X172208070Y-95640185D01*
X172253825Y-95692989D01*
X172260107Y-95709905D01*
X172290754Y-95815393D01*
X172290755Y-95815396D01*
X172374417Y-95956862D01*
X172379202Y-95963031D01*
X172376756Y-95964927D01*
X172403357Y-96013642D01*
X172398373Y-96083334D01*
X172377569Y-96115703D01*
X172379202Y-96116969D01*
X172374417Y-96123137D01*
X172290755Y-96264603D01*
X172290754Y-96264606D01*
X172244902Y-96422426D01*
X172244901Y-96422432D01*
X172242000Y-96459298D01*
X172242000Y-96890701D01*
X172244901Y-96927567D01*
X172244902Y-96927573D01*
X172290754Y-97085393D01*
X172290755Y-97085396D01*
X172374417Y-97226862D01*
X172374423Y-97226870D01*
X172490629Y-97343076D01*
X172490633Y-97343079D01*
X172490635Y-97343081D01*
X172632102Y-97426744D01*
X172650400Y-97432060D01*
X172789926Y-97472597D01*
X172789929Y-97472597D01*
X172789931Y-97472598D01*
X172826806Y-97475500D01*
X173597500Y-97475500D01*
X173616895Y-97477026D01*
X173628864Y-97478922D01*
X173637789Y-97480336D01*
X173637791Y-97480336D01*
X173834626Y-97480336D01*
X173843550Y-97478922D01*
X173855519Y-97477026D01*
X173874915Y-97475500D01*
X174608186Y-97475500D01*
X174608194Y-97475500D01*
X174645069Y-97472598D01*
X174645071Y-97472597D01*
X174645073Y-97472597D01*
X174715031Y-97452272D01*
X174802898Y-97426744D01*
X174944365Y-97343081D01*
X175060581Y-97226865D01*
X175144244Y-97085398D01*
X175190098Y-96927569D01*
X175193000Y-96890694D01*
X175193000Y-96459306D01*
X175190098Y-96422431D01*
X175144244Y-96264602D01*
X175060581Y-96123135D01*
X175060578Y-96123132D01*
X175055798Y-96116969D01*
X175058250Y-96115066D01*
X175031655Y-96066421D01*
X175036604Y-95996726D01*
X175057440Y-95964304D01*
X175055798Y-95963031D01*
X175060575Y-95956870D01*
X175060581Y-95956865D01*
X175144244Y-95815398D01*
X175190098Y-95657569D01*
X175193000Y-95620694D01*
X175193000Y-95189306D01*
X175190098Y-95152431D01*
X175180760Y-95120291D01*
X175144245Y-94994606D01*
X175144244Y-94994603D01*
X175144244Y-94994602D01*
X175060581Y-94853135D01*
X175060578Y-94853132D01*
X175055798Y-94846969D01*
X175058250Y-94845066D01*
X175031655Y-94796421D01*
X175036604Y-94726726D01*
X175057440Y-94694304D01*
X175055798Y-94693031D01*
X175060575Y-94686870D01*
X175060581Y-94686865D01*
X175144244Y-94545398D01*
X175190098Y-94387569D01*
X175193000Y-94350694D01*
X175193000Y-93919306D01*
X175190098Y-93882431D01*
X175144244Y-93724602D01*
X175060581Y-93583135D01*
X175060578Y-93583132D01*
X175055798Y-93576969D01*
X175058250Y-93575066D01*
X175031655Y-93526421D01*
X175036604Y-93456726D01*
X175057440Y-93424304D01*
X175055798Y-93423031D01*
X175060575Y-93416870D01*
X175060581Y-93416865D01*
X175144244Y-93275398D01*
X175190098Y-93117569D01*
X175193000Y-93080694D01*
X175193000Y-92649306D01*
X175190098Y-92612431D01*
X175189802Y-92611413D01*
X175150173Y-92475009D01*
X175144244Y-92454602D01*
X175060581Y-92313135D01*
X175060579Y-92313133D01*
X175060576Y-92313129D01*
X174944370Y-92196923D01*
X174944362Y-92196917D01*
X174860709Y-92147445D01*
X174802898Y-92113256D01*
X174802897Y-92113255D01*
X174802896Y-92113255D01*
X174802893Y-92113254D01*
X174645073Y-92067402D01*
X174645067Y-92067401D01*
X174608201Y-92064500D01*
X174608194Y-92064500D01*
X174029729Y-92064500D01*
X173962690Y-92044815D01*
X173942048Y-92028181D01*
X172630921Y-90717052D01*
X172630920Y-90717051D01*
X172606080Y-90700454D01*
X172543777Y-90658825D01*
X172507995Y-90634916D01*
X172507993Y-90634915D01*
X172507990Y-90634913D01*
X172491293Y-90627997D01*
X172436891Y-90584155D01*
X172416420Y-90528817D01*
X172416415Y-90528819D01*
X172416407Y-90528782D01*
X172415390Y-90526033D01*
X172414999Y-90522203D01*
X172359814Y-90355666D01*
X172267712Y-90206344D01*
X172249049Y-90187681D01*
X172215564Y-90126358D01*
X172220548Y-90056666D01*
X172249049Y-90012319D01*
X172267712Y-89993656D01*
X172359814Y-89844334D01*
X172414999Y-89677797D01*
X172425500Y-89575009D01*
X172425499Y-88224992D01*
X172422325Y-88193925D01*
X172414999Y-88122203D01*
X172414998Y-88122200D01*
X172408453Y-88102450D01*
X172359814Y-87955666D01*
X172267712Y-87806344D01*
X172143656Y-87682288D01*
X172043481Y-87620500D01*
X171994336Y-87590187D01*
X171994331Y-87590185D01*
X171992862Y-87589698D01*
X171827797Y-87535001D01*
X171827795Y-87535000D01*
X171725010Y-87524500D01*
X170999998Y-87524500D01*
X170999980Y-87524501D01*
X170897203Y-87535000D01*
X170897200Y-87535001D01*
X170730668Y-87590185D01*
X170730663Y-87590187D01*
X170581342Y-87682289D01*
X170457289Y-87806342D01*
X170365187Y-87955663D01*
X170365186Y-87955666D01*
X170310001Y-88122203D01*
X170310001Y-88122204D01*
X170310000Y-88122204D01*
X170299500Y-88224983D01*
X170299500Y-89575001D01*
X170299501Y-89575018D01*
X170310000Y-89677796D01*
X170310001Y-89677799D01*
X170347730Y-89791656D01*
X170365186Y-89844334D01*
X170439728Y-89965187D01*
X170457289Y-89993657D01*
X170475951Y-90012319D01*
X170509436Y-90073642D01*
X170504452Y-90143334D01*
X170475951Y-90187681D01*
X170457289Y-90206342D01*
X170365187Y-90355663D01*
X170365186Y-90355666D01*
X170310001Y-90522203D01*
X170310001Y-90522204D01*
X170310000Y-90522204D01*
X170299500Y-90624983D01*
X170299500Y-91975001D01*
X170299501Y-91975018D01*
X170310000Y-92077796D01*
X170310001Y-92077799D01*
X170365185Y-92244331D01*
X170365187Y-92244336D01*
X170376370Y-92262466D01*
X170457288Y-92393656D01*
X170581344Y-92517712D01*
X170730666Y-92609814D01*
X170897203Y-92664999D01*
X170999991Y-92675500D01*
X171725008Y-92675499D01*
X171725016Y-92675498D01*
X171725019Y-92675498D01*
X171785379Y-92669332D01*
X171827797Y-92664999D01*
X171994334Y-92609814D01*
X172052904Y-92573687D01*
X172120296Y-92555248D01*
X172186959Y-92576171D01*
X172231729Y-92629813D01*
X172242000Y-92679227D01*
X172242000Y-92995500D01*
X172222315Y-93062539D01*
X172169511Y-93108294D01*
X172118000Y-93119500D01*
X167824499Y-93119500D01*
X167757460Y-93099815D01*
X167711705Y-93047011D01*
X167700499Y-92995500D01*
X167700499Y-92507242D01*
X167700498Y-92507236D01*
X167700497Y-92507229D01*
X167695299Y-92458870D01*
X167694091Y-92447629D01*
X167643797Y-92312784D01*
X167643793Y-92312777D01*
X167557547Y-92197568D01*
X167557544Y-92197565D01*
X167442335Y-92111319D01*
X167442328Y-92111315D01*
X167307482Y-92061021D01*
X167307483Y-92061021D01*
X167247883Y-92054614D01*
X167247881Y-92054613D01*
X167247873Y-92054613D01*
X167247864Y-92054613D01*
X165552129Y-92054613D01*
X165552123Y-92054614D01*
X165492516Y-92061021D01*
X165357671Y-92111315D01*
X165357664Y-92111319D01*
X165242455Y-92197565D01*
X165242452Y-92197568D01*
X165156206Y-92312777D01*
X165156202Y-92312784D01*
X165105908Y-92447630D01*
X165099501Y-92507229D01*
X165099501Y-92507236D01*
X165099500Y-92507248D01*
X165099500Y-92995500D01*
X165079815Y-93062539D01*
X165027011Y-93108294D01*
X164975500Y-93119500D01*
X163874500Y-93119500D01*
X163807461Y-93099815D01*
X163761706Y-93047011D01*
X163750500Y-92995500D01*
X163750500Y-92669828D01*
X163755424Y-92635233D01*
X163797597Y-92490073D01*
X163797598Y-92490067D01*
X163798782Y-92475018D01*
X163800500Y-92453194D01*
X163800500Y-91146806D01*
X163797598Y-91109931D01*
X163791339Y-91088389D01*
X163758981Y-90977011D01*
X163751744Y-90952102D01*
X163668081Y-90810635D01*
X163668079Y-90810633D01*
X163668076Y-90810629D01*
X163551870Y-90694423D01*
X163551862Y-90694417D01*
X163473681Y-90648181D01*
X163410398Y-90610756D01*
X163410397Y-90610755D01*
X163410396Y-90610755D01*
X163410393Y-90610754D01*
X163252573Y-90564902D01*
X163252567Y-90564901D01*
X163215701Y-90562000D01*
X163215694Y-90562000D01*
X162974500Y-90562000D01*
X162965814Y-90559449D01*
X162956853Y-90560738D01*
X162932812Y-90549759D01*
X162907461Y-90542315D01*
X162901533Y-90535474D01*
X162893297Y-90531713D01*
X162879007Y-90509478D01*
X162861706Y-90489511D01*
X162859418Y-90478996D01*
X162855523Y-90472935D01*
X162850500Y-90438000D01*
X162850500Y-90224729D01*
X162870185Y-90157690D01*
X162886819Y-90137048D01*
X163337048Y-89686819D01*
X163398371Y-89653334D01*
X163424729Y-89650500D01*
X167286415Y-89650500D01*
X167353454Y-89670185D01*
X167399209Y-89722989D01*
X167404118Y-89735489D01*
X167440186Y-89844334D01*
X167532288Y-89993656D01*
X167656344Y-90117712D01*
X167805666Y-90209814D01*
X167972203Y-90264999D01*
X168074991Y-90275500D01*
X168800008Y-90275499D01*
X168800016Y-90275498D01*
X168800019Y-90275498D01*
X168856302Y-90269748D01*
X168902797Y-90264999D01*
X169069334Y-90209814D01*
X169218656Y-90117712D01*
X169342712Y-89993656D01*
X169434814Y-89844334D01*
X169489999Y-89677797D01*
X169500500Y-89575009D01*
X169500499Y-88224992D01*
X169497325Y-88193925D01*
X169489999Y-88122203D01*
X169489998Y-88122200D01*
X169483453Y-88102450D01*
X169434814Y-87955666D01*
X169342712Y-87806344D01*
X169218656Y-87682288D01*
X169118481Y-87620500D01*
X169069336Y-87590187D01*
X169069331Y-87590185D01*
X169067862Y-87589698D01*
X168902797Y-87535001D01*
X168902795Y-87535000D01*
X168800010Y-87524500D01*
X168074998Y-87524500D01*
X168074980Y-87524501D01*
X167972203Y-87535000D01*
X167972200Y-87535001D01*
X167805668Y-87590185D01*
X167805663Y-87590187D01*
X167656342Y-87682289D01*
X167532289Y-87806342D01*
X167440187Y-87955663D01*
X167440186Y-87955666D01*
X167406668Y-88056819D01*
X167404121Y-88064504D01*
X167364348Y-88121949D01*
X167299833Y-88148772D01*
X167286415Y-88149500D01*
X163573730Y-88149500D01*
X163506691Y-88129815D01*
X163460936Y-88077011D01*
X163450992Y-88007853D01*
X163480017Y-87944297D01*
X163486049Y-87937819D01*
X165012947Y-86410921D01*
X165012952Y-86410916D01*
X165041266Y-86368541D01*
X165073357Y-86320513D01*
X165073359Y-86320508D01*
X165073365Y-86320500D01*
X165095084Y-86287995D01*
X165151658Y-86151413D01*
X165166619Y-86076202D01*
X165180500Y-86006420D01*
X165180500Y-84762204D01*
X165200185Y-84695165D01*
X165216819Y-84674523D01*
X165229953Y-84661389D01*
X165269414Y-84621928D01*
X165371232Y-84481788D01*
X165449873Y-84327445D01*
X165503402Y-84162701D01*
X165530500Y-83991611D01*
X165530500Y-83268389D01*
X165503402Y-83097299D01*
X165449873Y-82932555D01*
X165371232Y-82778212D01*
X165269414Y-82638072D01*
X165146928Y-82515586D01*
X165006788Y-82413768D01*
X164852445Y-82335127D01*
X164687701Y-82281598D01*
X164687699Y-82281597D01*
X164687698Y-82281597D01*
X164556271Y-82260781D01*
X164516611Y-82254500D01*
X164343389Y-82254500D01*
X164303728Y-82260781D01*
X164172302Y-82281597D01*
X164007552Y-82335128D01*
X163853211Y-82413768D01*
X163784353Y-82463797D01*
X163713072Y-82515586D01*
X163713070Y-82515588D01*
X163713069Y-82515588D01*
X163590588Y-82638069D01*
X163590581Y-82638078D01*
X163530317Y-82721023D01*
X163474987Y-82763689D01*
X163405374Y-82769667D01*
X163343579Y-82737061D01*
X163329683Y-82721023D01*
X163269418Y-82638078D01*
X163269414Y-82638072D01*
X163146928Y-82515586D01*
X163006788Y-82413768D01*
X162852445Y-82335127D01*
X162687701Y-82281598D01*
X162687699Y-82281597D01*
X162687698Y-82281597D01*
X162556271Y-82260781D01*
X162516611Y-82254500D01*
X162343389Y-82254500D01*
X162303728Y-82260781D01*
X162172302Y-82281597D01*
X162007552Y-82335128D01*
X161853211Y-82413768D01*
X161784353Y-82463797D01*
X161713072Y-82515586D01*
X161713070Y-82515588D01*
X161713069Y-82515588D01*
X161590588Y-82638069D01*
X161590581Y-82638078D01*
X161530317Y-82721023D01*
X161474987Y-82763689D01*
X161405374Y-82769667D01*
X161343579Y-82737061D01*
X161329683Y-82721023D01*
X161269418Y-82638078D01*
X161269414Y-82638072D01*
X161146928Y-82515586D01*
X161006788Y-82413768D01*
X160852445Y-82335127D01*
X160687701Y-82281598D01*
X160687699Y-82281597D01*
X160687698Y-82281597D01*
X160556271Y-82260781D01*
X160516611Y-82254500D01*
X160343389Y-82254500D01*
X160303728Y-82260781D01*
X160172302Y-82281597D01*
X160007552Y-82335128D01*
X159853211Y-82413768D01*
X159784353Y-82463797D01*
X159713072Y-82515586D01*
X159713070Y-82515588D01*
X159713069Y-82515588D01*
X159590588Y-82638069D01*
X159590588Y-82638070D01*
X159590586Y-82638072D01*
X159590582Y-82638078D01*
X159488768Y-82778211D01*
X159410128Y-82932552D01*
X159356597Y-83097302D01*
X159329500Y-83268389D01*
X159329500Y-83895500D01*
X159309815Y-83962539D01*
X159257011Y-84008294D01*
X159205500Y-84019500D01*
X152244730Y-84019500D01*
X152177691Y-83999815D01*
X152157049Y-83983181D01*
X150810921Y-82637052D01*
X150810914Y-82637046D01*
X150737229Y-82587812D01*
X150737229Y-82587813D01*
X150687991Y-82554913D01*
X150551417Y-82498343D01*
X150551407Y-82498340D01*
X150406420Y-82469500D01*
X150406418Y-82469500D01*
X150020947Y-82469500D01*
X149953908Y-82449815D01*
X149920629Y-82418386D01*
X149917274Y-82413768D01*
X149905481Y-82397536D01*
X149764964Y-82257019D01*
X149604194Y-82140213D01*
X149579208Y-82127482D01*
X149427132Y-82049994D01*
X149427129Y-82049993D01*
X149238137Y-81988587D01*
X149139998Y-81973043D01*
X149041861Y-81957500D01*
X148843139Y-81957500D01*
X148777714Y-81967862D01*
X148646862Y-81988587D01*
X148457870Y-82049993D01*
X148457867Y-82049994D01*
X148280805Y-82140213D01*
X148120033Y-82257021D01*
X147979521Y-82397533D01*
X147862713Y-82558305D01*
X147772494Y-82735367D01*
X147772493Y-82735370D01*
X147711087Y-82924362D01*
X147680000Y-83120639D01*
X147680000Y-83319360D01*
X147711087Y-83515637D01*
X147772493Y-83704629D01*
X147772494Y-83704632D01*
X147831023Y-83819500D01*
X147862713Y-83881694D01*
X147979519Y-84042464D01*
X148120036Y-84182981D01*
X148280806Y-84299787D01*
X148318610Y-84319049D01*
X148398028Y-84359515D01*
X148448824Y-84407490D01*
X148465619Y-84475311D01*
X148443081Y-84541446D01*
X148398028Y-84580485D01*
X148280805Y-84640213D01*
X148120033Y-84757021D01*
X147979521Y-84897533D01*
X147862713Y-85058305D01*
X147772494Y-85235367D01*
X147772493Y-85235370D01*
X147711087Y-85424362D01*
X147680000Y-85620639D01*
X147680000Y-85819360D01*
X147711087Y-86015637D01*
X147772493Y-86204629D01*
X147772494Y-86204632D01*
X147856011Y-86368541D01*
X147862713Y-86381694D01*
X147979519Y-86542464D01*
X148120036Y-86682981D01*
X148280806Y-86799787D01*
X148343527Y-86831745D01*
X148457867Y-86890005D01*
X148457870Y-86890006D01*
X148494996Y-86902069D01*
X148552672Y-86941507D01*
X148579870Y-87005865D01*
X148567955Y-87074711D01*
X148520711Y-87126187D01*
X148494996Y-87137931D01*
X148457870Y-87149993D01*
X148457867Y-87149994D01*
X148280805Y-87240213D01*
X148120033Y-87357021D01*
X147979521Y-87497533D01*
X147862713Y-87658305D01*
X147772494Y-87835367D01*
X147772493Y-87835370D01*
X147711087Y-88024362D01*
X147694754Y-88127485D01*
X147680000Y-88220639D01*
X147680000Y-88419361D01*
X147685896Y-88456587D01*
X147711087Y-88615637D01*
X147772493Y-88804629D01*
X147772494Y-88804632D01*
X147858901Y-88974213D01*
X147862713Y-88981694D01*
X147979519Y-89142464D01*
X148120036Y-89282981D01*
X148280806Y-89399787D01*
X148367649Y-89444035D01*
X148457867Y-89490005D01*
X148457870Y-89490006D01*
X148552366Y-89520709D01*
X148646864Y-89551413D01*
X148843139Y-89582500D01*
X148843140Y-89582500D01*
X149041860Y-89582500D01*
X149041861Y-89582500D01*
X149238136Y-89551413D01*
X149427132Y-89490005D01*
X149604194Y-89399787D01*
X149764964Y-89282981D01*
X149905481Y-89142464D01*
X149920629Y-89121613D01*
X149975960Y-89078949D01*
X150020947Y-89070500D01*
X150856420Y-89070500D01*
X150953962Y-89051096D01*
X151001413Y-89041658D01*
X151137995Y-88985084D01*
X151223112Y-88928211D01*
X151260916Y-88902952D01*
X152007049Y-88156819D01*
X152068372Y-88123334D01*
X152094730Y-88120500D01*
X162481270Y-88120500D01*
X162548309Y-88140185D01*
X162594064Y-88192989D01*
X162604008Y-88262147D01*
X162574983Y-88325703D01*
X162568951Y-88332181D01*
X162250452Y-88650681D01*
X162189129Y-88684166D01*
X162162771Y-88687000D01*
X161834298Y-88687000D01*
X161797432Y-88689901D01*
X161797426Y-88689902D01*
X161639606Y-88735754D01*
X161639603Y-88735755D01*
X161498137Y-88819417D01*
X161498129Y-88819423D01*
X161381923Y-88935629D01*
X161381917Y-88935637D01*
X161298255Y-89077103D01*
X161298254Y-89077106D01*
X161252402Y-89234926D01*
X161252401Y-89234932D01*
X161249500Y-89271798D01*
X161249500Y-90438000D01*
X161229815Y-90505039D01*
X161177011Y-90550794D01*
X161125500Y-90562000D01*
X160884298Y-90562000D01*
X160847432Y-90564901D01*
X160847426Y-90564902D01*
X160689606Y-90610754D01*
X160689603Y-90610755D01*
X160548137Y-90694417D01*
X160548129Y-90694423D01*
X160431923Y-90810629D01*
X160431917Y-90810637D01*
X160348255Y-90952103D01*
X160348254Y-90952105D01*
X160345933Y-90960096D01*
X160308326Y-91018982D01*
X160244853Y-91048187D01*
X160226857Y-91049500D01*
X159313585Y-91049500D01*
X159246546Y-91029815D01*
X159200791Y-90977011D01*
X159195879Y-90964504D01*
X159159814Y-90855666D01*
X159067712Y-90706344D01*
X158943656Y-90582288D01*
X158846234Y-90522198D01*
X158794336Y-90490187D01*
X158794331Y-90490185D01*
X158792297Y-90489511D01*
X158627797Y-90435001D01*
X158627795Y-90435000D01*
X158525010Y-90424500D01*
X157799998Y-90424500D01*
X157799980Y-90424501D01*
X157697203Y-90435000D01*
X157697200Y-90435001D01*
X157530668Y-90490185D01*
X157530663Y-90490187D01*
X157381342Y-90582289D01*
X157257289Y-90706342D01*
X157165187Y-90855663D01*
X157165185Y-90855668D01*
X157144763Y-90917299D01*
X157110001Y-91022203D01*
X157110001Y-91022204D01*
X157110000Y-91022204D01*
X157099500Y-91124983D01*
X157099500Y-92475001D01*
X157099501Y-92475018D01*
X157110000Y-92577796D01*
X157110001Y-92577799D01*
X157164158Y-92741231D01*
X157165186Y-92744334D01*
X157246720Y-92876523D01*
X157257289Y-92893657D01*
X157271451Y-92907819D01*
X157304936Y-92969142D01*
X157299952Y-93038834D01*
X157258080Y-93094767D01*
X157192616Y-93119184D01*
X157183770Y-93119500D01*
X156216230Y-93119500D01*
X156149191Y-93099815D01*
X156103436Y-93047011D01*
X156093492Y-92977853D01*
X156122517Y-92914297D01*
X156128549Y-92907819D01*
X156133410Y-92902958D01*
X156142712Y-92893656D01*
X156234814Y-92744334D01*
X156289999Y-92577797D01*
X156300500Y-92475009D01*
X156300499Y-91124992D01*
X156289999Y-91022203D01*
X156234814Y-90855666D01*
X156142712Y-90706344D01*
X156018656Y-90582288D01*
X155921234Y-90522198D01*
X155869336Y-90490187D01*
X155869331Y-90490185D01*
X155867297Y-90489511D01*
X155702797Y-90435001D01*
X155702795Y-90435000D01*
X155600010Y-90424500D01*
X154874998Y-90424500D01*
X154874980Y-90424501D01*
X154772203Y-90435000D01*
X154772200Y-90435001D01*
X154605668Y-90490185D01*
X154605663Y-90490187D01*
X154456342Y-90582289D01*
X154332289Y-90706342D01*
X154240187Y-90855663D01*
X154240185Y-90855668D01*
X154230291Y-90885528D01*
X154205419Y-90960588D01*
X154204121Y-90964504D01*
X154190250Y-90984536D01*
X154180128Y-91006703D01*
X154170715Y-91012751D01*
X154164348Y-91021949D01*
X154141848Y-91031303D01*
X154121350Y-91044477D01*
X154104249Y-91046935D01*
X154099833Y-91048772D01*
X154086415Y-91049500D01*
X154057204Y-91049500D01*
X153990165Y-91029815D01*
X153969523Y-91013181D01*
X153916930Y-90960588D01*
X153916928Y-90960586D01*
X153776788Y-90858768D01*
X153622445Y-90780127D01*
X153457701Y-90726598D01*
X153457699Y-90726597D01*
X153457698Y-90726597D01*
X153326271Y-90705781D01*
X153286611Y-90699500D01*
X153113389Y-90699500D01*
X153073728Y-90705781D01*
X152942302Y-90726597D01*
X152942299Y-90726598D01*
X152783163Y-90778305D01*
X152777552Y-90780128D01*
X152623211Y-90858768D01*
X152554196Y-90908911D01*
X152483072Y-90960586D01*
X152483070Y-90960588D01*
X152483069Y-90960588D01*
X152360588Y-91083069D01*
X152360588Y-91083070D01*
X152360586Y-91083072D01*
X152341072Y-91109931D01*
X152258768Y-91223211D01*
X152180128Y-91377552D01*
X152126597Y-91542302D01*
X152115980Y-91609336D01*
X152099500Y-91713389D01*
X152099500Y-91886611D01*
X152102203Y-91903675D01*
X152124062Y-92041694D01*
X152126598Y-92057701D01*
X152180127Y-92222445D01*
X152258768Y-92376788D01*
X152360586Y-92516928D01*
X152483072Y-92639414D01*
X152623212Y-92741232D01*
X152777555Y-92819873D01*
X152942299Y-92873402D01*
X152942307Y-92873403D01*
X152947039Y-92874540D01*
X152946638Y-92876206D01*
X153003067Y-92902958D01*
X153039997Y-92962271D01*
X153038997Y-93032133D01*
X153000386Y-93090365D01*
X152936421Y-93118478D01*
X152920532Y-93119500D01*
X144394078Y-93119500D01*
X144199673Y-93150290D01*
X144012469Y-93211117D01*
X143837091Y-93300478D01*
X143677860Y-93416165D01*
X143677855Y-93416169D01*
X132010845Y-105083181D01*
X131949522Y-105116666D01*
X131923164Y-105119500D01*
X104666346Y-105119500D01*
X104599307Y-105099815D01*
X104553552Y-105047011D01*
X104551785Y-105042952D01*
X104510849Y-104944123D01*
X104510846Y-104944117D01*
X104510844Y-104944112D01*
X104396111Y-104745388D01*
X104396108Y-104745385D01*
X104396107Y-104745382D01*
X104256418Y-104563338D01*
X104256411Y-104563330D01*
X104094170Y-104401089D01*
X104094161Y-104401081D01*
X103912117Y-104261392D01*
X103713390Y-104146657D01*
X103713376Y-104146650D01*
X103501387Y-104058842D01*
X103279738Y-103999452D01*
X103241715Y-103994446D01*
X103052241Y-103969500D01*
X103052234Y-103969500D01*
X102822766Y-103969500D01*
X102822758Y-103969500D01*
X102606215Y-103998009D01*
X102595262Y-103999452D01*
X102501576Y-104024554D01*
X102373612Y-104058842D01*
X102161623Y-104146650D01*
X102161609Y-104146657D01*
X101962882Y-104261392D01*
X101780838Y-104401081D01*
X101618581Y-104563338D01*
X101478892Y-104745382D01*
X101364157Y-104944109D01*
X101364150Y-104944123D01*
X101276342Y-105156112D01*
X101216953Y-105377759D01*
X101216951Y-105377770D01*
X101187000Y-105605258D01*
X101187000Y-105834741D01*
X101204874Y-105970498D01*
X101216952Y-106062238D01*
X101276342Y-106283887D01*
X101303728Y-106350001D01*
X101332561Y-106419610D01*
X101342000Y-106467063D01*
X101342000Y-107000663D01*
X101322315Y-107067702D01*
X101305681Y-107088344D01*
X98372843Y-110021181D01*
X98311520Y-110054666D01*
X98285162Y-110057500D01*
X97794629Y-110057500D01*
X97794623Y-110057501D01*
X97735016Y-110063908D01*
X97600171Y-110114202D01*
X97600164Y-110114206D01*
X97484955Y-110200452D01*
X97484952Y-110200455D01*
X97398706Y-110315664D01*
X97398702Y-110315671D01*
X97348408Y-110450517D01*
X97342001Y-110510116D01*
X97342000Y-110510135D01*
X90355152Y-110510135D01*
X102697181Y-98168107D01*
X131990880Y-98168107D01*
X131990880Y-98404302D01*
X132027826Y-98637573D01*
X132100813Y-98862201D01*
X132208037Y-99072638D01*
X132346863Y-99263715D01*
X132513870Y-99430722D01*
X132704947Y-99569548D01*
X132768879Y-99602123D01*
X132915383Y-99676771D01*
X132915385Y-99676771D01*
X132915388Y-99676773D01*
X133035792Y-99715894D01*
X133140011Y-99749758D01*
X133373283Y-99786705D01*
X133373288Y-99786705D01*
X133609477Y-99786705D01*
X133842748Y-99749758D01*
X134067372Y-99676773D01*
X134277813Y-99569548D01*
X134468890Y-99430722D01*
X134635897Y-99263715D01*
X134774723Y-99072638D01*
X134881948Y-98862197D01*
X134954933Y-98637573D01*
X134959434Y-98609155D01*
X134991880Y-98404302D01*
X134991880Y-98168107D01*
X134954933Y-97934836D01*
X134893406Y-97745477D01*
X134881948Y-97710213D01*
X134881946Y-97710210D01*
X134881946Y-97710208D01*
X134823392Y-97595290D01*
X134774723Y-97499772D01*
X134635897Y-97308695D01*
X134468890Y-97141688D01*
X134277813Y-97002862D01*
X134248354Y-96987852D01*
X134067376Y-96895638D01*
X133842748Y-96822651D01*
X133609477Y-96785705D01*
X133609472Y-96785705D01*
X133373288Y-96785705D01*
X133373283Y-96785705D01*
X133140011Y-96822651D01*
X132915383Y-96895638D01*
X132704946Y-97002862D01*
X132680604Y-97020548D01*
X132513870Y-97141688D01*
X132513868Y-97141690D01*
X132513867Y-97141690D01*
X132346865Y-97308692D01*
X132346865Y-97308693D01*
X132346863Y-97308695D01*
X132291500Y-97384895D01*
X132208037Y-97499771D01*
X132100813Y-97710208D01*
X132027826Y-97934836D01*
X131990880Y-98168107D01*
X102697181Y-98168107D01*
X108053127Y-92812162D01*
X108146204Y-92672863D01*
X108156547Y-92647894D01*
X108199723Y-92543656D01*
X108210316Y-92518082D01*
X108210546Y-92516930D01*
X108242999Y-92353771D01*
X108243000Y-92353768D01*
X108243000Y-91382579D01*
X108245729Y-91373284D01*
X108244448Y-91363682D01*
X108255412Y-91340306D01*
X108262685Y-91315540D01*
X108270796Y-91307510D01*
X108274120Y-91300425D01*
X108301027Y-91277586D01*
X108301411Y-91277345D01*
X108326527Y-91261562D01*
X108393764Y-91242562D01*
X108458472Y-91261562D01*
X108483589Y-91277345D01*
X108483591Y-91277346D01*
X108505011Y-91284841D01*
X108650310Y-91335683D01*
X108650313Y-91335683D01*
X108650315Y-91335684D01*
X108716061Y-91343091D01*
X108781807Y-91350499D01*
X108781808Y-91350500D01*
X108781812Y-91350500D01*
X110003192Y-91350500D01*
X110003192Y-91350499D01*
X110096208Y-91340019D01*
X110134684Y-91335684D01*
X110134685Y-91335683D01*
X110134690Y-91335683D01*
X110301411Y-91277345D01*
X110326527Y-91261562D01*
X110393764Y-91242562D01*
X110458472Y-91261562D01*
X110483589Y-91277345D01*
X110483591Y-91277346D01*
X110505011Y-91284841D01*
X110650310Y-91335683D01*
X110650313Y-91335683D01*
X110650315Y-91335684D01*
X110716061Y-91343091D01*
X110781807Y-91350499D01*
X110781808Y-91350500D01*
X110781812Y-91350500D01*
X112003192Y-91350500D01*
X112003192Y-91350499D01*
X112096208Y-91340019D01*
X112134684Y-91335684D01*
X112134685Y-91335683D01*
X112134690Y-91335683D01*
X112301411Y-91277345D01*
X112450971Y-91183370D01*
X112575870Y-91058471D01*
X112669845Y-90908911D01*
X112728183Y-90742190D01*
X112729080Y-90734235D01*
X112740270Y-90634913D01*
X112743000Y-90610688D01*
X112743000Y-89453651D01*
X112762685Y-89386612D01*
X112779319Y-89365970D01*
X117888470Y-84256819D01*
X117949793Y-84223334D01*
X117976151Y-84220500D01*
X121438542Y-84220500D01*
X121505581Y-84240185D01*
X121544080Y-84279402D01*
X121549788Y-84288656D01*
X121673844Y-84412712D01*
X121823166Y-84504814D01*
X121989703Y-84559999D01*
X122092491Y-84570500D01*
X122892508Y-84570499D01*
X122892516Y-84570498D01*
X122892519Y-84570498D01*
X122948802Y-84564748D01*
X122995297Y-84559999D01*
X123161834Y-84504814D01*
X123311156Y-84412712D01*
X123404819Y-84319049D01*
X123466142Y-84285564D01*
X123535834Y-84290548D01*
X123580181Y-84319049D01*
X123673844Y-84412712D01*
X123823166Y-84504814D01*
X123989703Y-84559999D01*
X124092491Y-84570500D01*
X124438848Y-84570499D01*
X124505887Y-84590183D01*
X124526529Y-84606818D01*
X125650331Y-85730620D01*
X125650334Y-85730622D01*
X125650338Y-85730626D01*
X125789637Y-85823704D01*
X125896269Y-85867872D01*
X125944418Y-85887816D01*
X126057429Y-85910295D01*
X126108728Y-85920499D01*
X126108732Y-85920500D01*
X126108733Y-85920500D01*
X126276267Y-85920500D01*
X128659709Y-85920500D01*
X128674033Y-85924706D01*
X128688944Y-85923996D01*
X128706878Y-85934350D01*
X128726748Y-85940185D01*
X128737534Y-85952050D01*
X128749452Y-85958931D01*
X128761972Y-85978931D01*
X128769925Y-85987680D01*
X128773309Y-85994245D01*
X128798704Y-86062331D01*
X128829878Y-86103974D01*
X128834624Y-86113180D01*
X128839355Y-86137729D01*
X128848092Y-86161155D01*
X128845853Y-86171446D01*
X128847846Y-86181788D01*
X128838555Y-86204995D01*
X128833240Y-86229428D01*
X128823676Y-86244310D01*
X128798703Y-86277669D01*
X128798702Y-86277671D01*
X128748408Y-86412517D01*
X128746626Y-86420062D01*
X128744353Y-86419525D01*
X128722071Y-86473312D01*
X128664677Y-86513157D01*
X128625524Y-86519500D01*
X122318576Y-86519500D01*
X122289742Y-86525234D01*
X122289743Y-86525235D01*
X122173592Y-86548339D01*
X122173586Y-86548341D01*
X122093951Y-86581328D01*
X122037001Y-86604917D01*
X121965115Y-86652951D01*
X121914082Y-86687049D01*
X121914079Y-86687052D01*
X120959550Y-87641580D01*
X120959544Y-87641588D01*
X120910312Y-87715268D01*
X120910313Y-87715269D01*
X120877421Y-87764496D01*
X120877414Y-87764508D01*
X120820842Y-87901086D01*
X120820840Y-87901092D01*
X120792000Y-88046079D01*
X120792000Y-90341553D01*
X120772315Y-90408592D01*
X120740887Y-90441869D01*
X120730626Y-90449324D01*
X120720034Y-90457020D01*
X120579521Y-90597533D01*
X120462713Y-90758305D01*
X120372494Y-90935367D01*
X120372493Y-90935370D01*
X120311087Y-91124362D01*
X120280000Y-91320639D01*
X120280000Y-91519360D01*
X120311087Y-91715637D01*
X120372493Y-91904629D01*
X120372494Y-91904632D01*
X120452180Y-92061022D01*
X120462713Y-92081694D01*
X120579519Y-92242464D01*
X120720036Y-92382981D01*
X120880806Y-92499787D01*
X120966903Y-92543656D01*
X121057867Y-92590005D01*
X121057870Y-92590006D01*
X121126892Y-92612432D01*
X121246864Y-92651413D01*
X121443139Y-92682500D01*
X121443140Y-92682500D01*
X121641860Y-92682500D01*
X121641861Y-92682500D01*
X121838136Y-92651413D01*
X122027132Y-92590005D01*
X122204194Y-92499787D01*
X122364964Y-92382981D01*
X122505481Y-92242464D01*
X122622287Y-92081694D01*
X122712505Y-91904632D01*
X122773913Y-91715636D01*
X122805000Y-91519361D01*
X122805000Y-91320639D01*
X122773913Y-91124364D01*
X122743192Y-91029815D01*
X122712506Y-90935370D01*
X122712505Y-90935367D01*
X122633405Y-90780127D01*
X122622287Y-90758306D01*
X122505481Y-90597536D01*
X122364964Y-90457019D01*
X122344113Y-90441870D01*
X122301449Y-90386540D01*
X122293000Y-90341553D01*
X122293000Y-88482229D01*
X122312685Y-88415190D01*
X122329319Y-88394548D01*
X122667048Y-88056819D01*
X122728371Y-88023334D01*
X122754729Y-88020500D01*
X128625523Y-88020500D01*
X128692562Y-88040185D01*
X128738317Y-88092989D01*
X128743897Y-88107572D01*
X128747515Y-88119171D01*
X128748409Y-88127483D01*
X128758797Y-88155336D01*
X128759807Y-88158572D01*
X128760339Y-88190258D01*
X128762599Y-88221860D01*
X128760921Y-88224932D01*
X128760980Y-88228432D01*
X128744298Y-88255372D01*
X128729113Y-88283182D01*
X128726041Y-88284859D01*
X128724198Y-88287836D01*
X128695599Y-88301481D01*
X128667789Y-88316667D01*
X128662605Y-88317224D01*
X128661139Y-88317924D01*
X128658823Y-88317630D01*
X128641433Y-88319500D01*
X127018580Y-88319500D01*
X126873592Y-88348340D01*
X126873582Y-88348343D01*
X126737011Y-88404912D01*
X126736998Y-88404919D01*
X126648886Y-88463795D01*
X126614081Y-88487050D01*
X126614078Y-88487053D01*
X126059550Y-89041580D01*
X126059544Y-89041588D01*
X126010312Y-89115268D01*
X126010313Y-89115269D01*
X125977421Y-89164496D01*
X125977414Y-89164508D01*
X125920842Y-89301086D01*
X125920840Y-89301092D01*
X125892000Y-89446079D01*
X125892000Y-90341553D01*
X125872315Y-90408592D01*
X125840887Y-90441869D01*
X125830626Y-90449324D01*
X125820034Y-90457020D01*
X125679521Y-90597533D01*
X125562713Y-90758305D01*
X125472494Y-90935367D01*
X125472493Y-90935370D01*
X125411087Y-91124362D01*
X125380000Y-91320639D01*
X125380000Y-91519360D01*
X125411087Y-91715637D01*
X125472493Y-91904629D01*
X125472494Y-91904632D01*
X125552180Y-92061022D01*
X125562713Y-92081694D01*
X125679519Y-92242464D01*
X125820036Y-92382981D01*
X125980806Y-92499787D01*
X126066903Y-92543656D01*
X126157867Y-92590005D01*
X126157870Y-92590006D01*
X126226892Y-92612432D01*
X126346864Y-92651413D01*
X126543139Y-92682500D01*
X126543140Y-92682500D01*
X126741860Y-92682500D01*
X126741861Y-92682500D01*
X126938136Y-92651413D01*
X127127132Y-92590005D01*
X127304194Y-92499787D01*
X127464964Y-92382981D01*
X127605481Y-92242464D01*
X127722287Y-92081694D01*
X127812505Y-91904632D01*
X127873913Y-91715636D01*
X127905000Y-91519361D01*
X127905000Y-91320639D01*
X127898665Y-91280639D01*
X130480000Y-91280639D01*
X130480000Y-91479360D01*
X130511087Y-91675637D01*
X130572493Y-91864629D01*
X130572494Y-91864632D01*
X130656754Y-92029999D01*
X130662713Y-92041694D01*
X130779519Y-92202464D01*
X130920036Y-92342981D01*
X131080806Y-92459787D01*
X131159308Y-92499786D01*
X131257867Y-92550005D01*
X131257870Y-92550006D01*
X131343401Y-92577796D01*
X131446864Y-92611413D01*
X131643139Y-92642500D01*
X131643140Y-92642500D01*
X131841860Y-92642500D01*
X131841861Y-92642500D01*
X132038136Y-92611413D01*
X132227132Y-92550005D01*
X132404194Y-92459787D01*
X132564964Y-92342981D01*
X132705481Y-92202464D01*
X132822287Y-92041694D01*
X132866730Y-91954469D01*
X132914703Y-91903675D01*
X132982524Y-91886880D01*
X133048659Y-91909417D01*
X133087698Y-91954470D01*
X133162713Y-92101694D01*
X133279519Y-92262464D01*
X133420036Y-92402981D01*
X133580806Y-92519787D01*
X133649191Y-92554631D01*
X133757867Y-92610005D01*
X133757870Y-92610006D01*
X133835512Y-92635233D01*
X133946864Y-92671413D01*
X134143139Y-92702500D01*
X134143140Y-92702500D01*
X134341860Y-92702500D01*
X134341861Y-92702500D01*
X134538136Y-92671413D01*
X134727132Y-92610005D01*
X134904194Y-92519787D01*
X135064964Y-92402981D01*
X135205481Y-92262464D01*
X135322287Y-92101694D01*
X135387111Y-91974469D01*
X135435084Y-91923675D01*
X135502905Y-91906880D01*
X135569040Y-91929417D01*
X135608079Y-91974470D01*
X135662713Y-92081694D01*
X135779519Y-92242464D01*
X135920036Y-92382981D01*
X136080806Y-92499787D01*
X136166903Y-92543656D01*
X136257867Y-92590005D01*
X136257870Y-92590006D01*
X136326892Y-92612432D01*
X136446864Y-92651413D01*
X136643139Y-92682500D01*
X136643140Y-92682500D01*
X136841860Y-92682500D01*
X136841861Y-92682500D01*
X137038136Y-92651413D01*
X137227132Y-92590005D01*
X137404194Y-92499787D01*
X137564964Y-92382981D01*
X137705481Y-92242464D01*
X137822287Y-92081694D01*
X137907015Y-91915405D01*
X137954990Y-91864610D01*
X138022811Y-91847815D01*
X138088946Y-91870352D01*
X138127984Y-91915405D01*
X138212713Y-92081694D01*
X138329519Y-92242464D01*
X138470036Y-92382981D01*
X138630806Y-92499787D01*
X138716903Y-92543656D01*
X138807867Y-92590005D01*
X138807870Y-92590006D01*
X138876892Y-92612432D01*
X138996864Y-92651413D01*
X139193139Y-92682500D01*
X139193140Y-92682500D01*
X139391860Y-92682500D01*
X139391861Y-92682500D01*
X139588136Y-92651413D01*
X139777132Y-92590005D01*
X139954194Y-92499787D01*
X140114964Y-92382981D01*
X140255481Y-92242464D01*
X140372287Y-92081694D01*
X140457015Y-91915405D01*
X140504990Y-91864610D01*
X140572811Y-91847815D01*
X140638946Y-91870352D01*
X140677984Y-91915405D01*
X140762713Y-92081694D01*
X140879519Y-92242464D01*
X141020036Y-92382981D01*
X141180806Y-92499787D01*
X141266903Y-92543656D01*
X141357867Y-92590005D01*
X141357870Y-92590006D01*
X141426892Y-92612432D01*
X141546864Y-92651413D01*
X141743139Y-92682500D01*
X141743140Y-92682500D01*
X141941860Y-92682500D01*
X141941861Y-92682500D01*
X142138136Y-92651413D01*
X142327132Y-92590005D01*
X142504194Y-92499787D01*
X142664964Y-92382981D01*
X142805481Y-92242464D01*
X142922287Y-92081694D01*
X143012505Y-91904632D01*
X143073913Y-91715636D01*
X143105000Y-91519361D01*
X143105000Y-91320639D01*
X143073913Y-91124364D01*
X143043192Y-91029815D01*
X143012506Y-90935370D01*
X143012505Y-90935367D01*
X142933405Y-90780127D01*
X142922287Y-90758306D01*
X142805481Y-90597536D01*
X142664964Y-90457019D01*
X142504194Y-90340213D01*
X142485449Y-90330662D01*
X142327132Y-90249994D01*
X142327129Y-90249993D01*
X142138137Y-90188587D01*
X142039998Y-90173043D01*
X141941861Y-90157500D01*
X141743139Y-90157500D01*
X141677714Y-90167862D01*
X141546862Y-90188587D01*
X141357870Y-90249993D01*
X141357867Y-90249994D01*
X141180805Y-90340213D01*
X141020033Y-90457021D01*
X140879521Y-90597533D01*
X140762713Y-90758305D01*
X140677985Y-90924593D01*
X140630010Y-90975389D01*
X140562189Y-90992184D01*
X140496054Y-90969646D01*
X140457015Y-90924593D01*
X140383405Y-90780127D01*
X140372287Y-90758306D01*
X140255481Y-90597536D01*
X140114964Y-90457019D01*
X139954194Y-90340213D01*
X139935449Y-90330662D01*
X139777132Y-90249994D01*
X139777129Y-90249993D01*
X139588137Y-90188587D01*
X139489998Y-90173043D01*
X139391861Y-90157500D01*
X139193139Y-90157500D01*
X139127714Y-90167862D01*
X138996862Y-90188587D01*
X138807870Y-90249993D01*
X138807867Y-90249994D01*
X138630805Y-90340213D01*
X138470033Y-90457021D01*
X138329521Y-90597533D01*
X138212713Y-90758305D01*
X138127985Y-90924593D01*
X138080010Y-90975389D01*
X138012189Y-90992184D01*
X137946054Y-90969646D01*
X137907015Y-90924593D01*
X137833405Y-90780127D01*
X137822287Y-90758306D01*
X137705481Y-90597536D01*
X137564964Y-90457019D01*
X137404194Y-90340213D01*
X137385449Y-90330662D01*
X137227132Y-90249994D01*
X137227129Y-90249993D01*
X137038137Y-90188587D01*
X136939998Y-90173043D01*
X136841861Y-90157500D01*
X136643139Y-90157500D01*
X136577714Y-90167862D01*
X136446862Y-90188587D01*
X136257870Y-90249993D01*
X136257867Y-90249994D01*
X136080805Y-90340213D01*
X135920033Y-90457021D01*
X135779521Y-90597533D01*
X135662711Y-90758307D01*
X135597888Y-90885529D01*
X135549914Y-90936324D01*
X135482093Y-90953119D01*
X135415958Y-90930581D01*
X135376920Y-90885529D01*
X135322287Y-90778306D01*
X135205481Y-90617536D01*
X135064964Y-90477019D01*
X134904194Y-90360213D01*
X134855865Y-90335588D01*
X134727132Y-90269994D01*
X134727129Y-90269993D01*
X134538137Y-90208587D01*
X134406141Y-90187681D01*
X134341861Y-90177500D01*
X134143139Y-90177500D01*
X134078859Y-90187681D01*
X133946862Y-90208587D01*
X133757870Y-90269993D01*
X133757867Y-90269994D01*
X133580805Y-90360213D01*
X133420033Y-90477021D01*
X133279521Y-90617533D01*
X133162711Y-90778308D01*
X133118269Y-90865529D01*
X133070294Y-90916325D01*
X133002473Y-90933119D01*
X132936338Y-90910581D01*
X132897301Y-90865529D01*
X132822287Y-90718306D01*
X132705481Y-90557536D01*
X132564964Y-90417019D01*
X132404194Y-90300213D01*
X132227132Y-90209994D01*
X132227129Y-90209993D01*
X132038137Y-90148587D01*
X131897788Y-90126358D01*
X131841861Y-90117500D01*
X131643139Y-90117500D01*
X131587212Y-90126358D01*
X131446862Y-90148587D01*
X131257870Y-90209993D01*
X131257867Y-90209994D01*
X131080805Y-90300213D01*
X130920033Y-90417021D01*
X130779521Y-90557533D01*
X130662713Y-90718305D01*
X130572494Y-90895367D01*
X130572493Y-90895370D01*
X130511087Y-91084362D01*
X130480000Y-91280639D01*
X127898665Y-91280639D01*
X127873913Y-91124364D01*
X127843192Y-91029815D01*
X127812506Y-90935370D01*
X127812505Y-90935367D01*
X127733405Y-90780127D01*
X127722287Y-90758306D01*
X127605481Y-90597536D01*
X127464964Y-90457019D01*
X127444113Y-90441870D01*
X127401449Y-90386540D01*
X127393000Y-90341553D01*
X127393000Y-89944500D01*
X127412685Y-89877461D01*
X127465489Y-89831706D01*
X127517000Y-89820500D01*
X136566420Y-89820500D01*
X136685015Y-89796909D01*
X136711413Y-89791658D01*
X136847995Y-89735084D01*
X136897229Y-89702186D01*
X136903764Y-89697820D01*
X136933734Y-89677795D01*
X136970916Y-89652952D01*
X138375452Y-88248415D01*
X138411866Y-88193917D01*
X138457584Y-88125495D01*
X138483522Y-88062876D01*
X138514159Y-87988912D01*
X138543000Y-87843917D01*
X138543000Y-87744499D01*
X138562685Y-87677460D01*
X138615489Y-87631705D01*
X138667000Y-87620499D01*
X139090371Y-87620499D01*
X139090372Y-87620499D01*
X139149983Y-87614091D01*
X139284831Y-87563796D01*
X139400046Y-87477546D01*
X139486296Y-87362331D01*
X139536591Y-87227483D01*
X139543000Y-87167873D01*
X139542999Y-85572128D01*
X139536591Y-85512517D01*
X139529259Y-85492860D01*
X139486297Y-85377671D01*
X139486293Y-85377664D01*
X139400047Y-85262455D01*
X139400044Y-85262452D01*
X139284835Y-85176206D01*
X139284828Y-85176202D01*
X139149982Y-85125908D01*
X139149983Y-85125908D01*
X139090383Y-85119501D01*
X139090381Y-85119500D01*
X139090373Y-85119500D01*
X139090364Y-85119500D01*
X136494629Y-85119500D01*
X136494623Y-85119501D01*
X136435016Y-85125908D01*
X136300171Y-85176202D01*
X136300164Y-85176206D01*
X136184955Y-85262452D01*
X136184952Y-85262455D01*
X136098706Y-85377664D01*
X136098702Y-85377671D01*
X136048408Y-85512517D01*
X136042001Y-85572116D01*
X136042001Y-85572123D01*
X136042000Y-85572135D01*
X136042000Y-87167870D01*
X136042001Y-87167876D01*
X136048408Y-87227483D01*
X136098702Y-87362328D01*
X136098706Y-87362335D01*
X136184952Y-87477544D01*
X136184955Y-87477547D01*
X136300164Y-87563793D01*
X136300171Y-87563797D01*
X136315462Y-87569500D01*
X136435017Y-87614091D01*
X136494627Y-87620500D01*
X136581270Y-87620499D01*
X136648307Y-87640183D01*
X136694063Y-87692986D01*
X136704007Y-87762145D01*
X136674983Y-87825701D01*
X136668950Y-87832180D01*
X136217951Y-88283181D01*
X136156628Y-88316666D01*
X136130270Y-88319500D01*
X133243567Y-88319500D01*
X133176528Y-88299815D01*
X133130773Y-88247011D01*
X133120829Y-88177853D01*
X133127385Y-88152168D01*
X133136590Y-88127485D01*
X133136591Y-88127483D01*
X133140443Y-88091658D01*
X133143000Y-88067873D01*
X133142999Y-86983388D01*
X133162684Y-86916351D01*
X133215487Y-86870596D01*
X133284646Y-86860652D01*
X133348202Y-86889677D01*
X133362855Y-86904728D01*
X133365366Y-86907788D01*
X133504714Y-87047136D01*
X133504718Y-87047139D01*
X133668579Y-87156628D01*
X133668592Y-87156635D01*
X133732640Y-87183164D01*
X133850665Y-87232051D01*
X133850669Y-87232051D01*
X133850670Y-87232052D01*
X134043956Y-87270500D01*
X134043959Y-87270500D01*
X134241043Y-87270500D01*
X134421892Y-87234526D01*
X134434335Y-87232051D01*
X134575155Y-87173721D01*
X134616407Y-87156635D01*
X134616407Y-87156634D01*
X134616414Y-87156632D01*
X134780282Y-87047139D01*
X134919639Y-86907782D01*
X135029132Y-86743914D01*
X135104551Y-86561835D01*
X135132859Y-86419525D01*
X135143000Y-86368543D01*
X135143000Y-86171456D01*
X135104552Y-85978170D01*
X135104551Y-85978169D01*
X135104551Y-85978165D01*
X135088819Y-85940185D01*
X135029135Y-85796092D01*
X135029128Y-85796079D01*
X134919639Y-85632218D01*
X134919636Y-85632214D01*
X134780285Y-85492863D01*
X134780281Y-85492860D01*
X134616420Y-85383371D01*
X134616407Y-85383364D01*
X134434339Y-85307950D01*
X134434329Y-85307947D01*
X134241043Y-85269500D01*
X134241041Y-85269500D01*
X134043959Y-85269500D01*
X134043957Y-85269500D01*
X133850670Y-85307947D01*
X133850660Y-85307950D01*
X133668592Y-85383364D01*
X133668579Y-85383371D01*
X133504718Y-85492860D01*
X133504714Y-85492863D01*
X133365363Y-85632214D01*
X133365360Y-85632218D01*
X133255871Y-85796079D01*
X133255864Y-85796092D01*
X133180450Y-85978160D01*
X133180447Y-85978170D01*
X133163552Y-86063108D01*
X133131167Y-86125019D01*
X133070451Y-86159593D01*
X133000681Y-86155853D01*
X132967624Y-86138183D01*
X132884830Y-86076203D01*
X132884828Y-86076202D01*
X132749982Y-86025908D01*
X132749983Y-86025908D01*
X132690383Y-86019501D01*
X132690381Y-86019500D01*
X132690373Y-86019500D01*
X132690365Y-86019500D01*
X132364744Y-86019500D01*
X132297705Y-85999815D01*
X132251950Y-85947011D01*
X132241454Y-85882247D01*
X132243000Y-85867873D01*
X132242999Y-84272128D01*
X132236591Y-84212517D01*
X132231853Y-84199815D01*
X132186297Y-84077671D01*
X132186293Y-84077664D01*
X132100047Y-83962455D01*
X132100044Y-83962452D01*
X131984835Y-83876206D01*
X131984828Y-83876202D01*
X131849982Y-83825908D01*
X131849983Y-83825908D01*
X131790383Y-83819501D01*
X131790381Y-83819500D01*
X131790373Y-83819500D01*
X131790364Y-83819500D01*
X129194629Y-83819500D01*
X129194623Y-83819501D01*
X129135016Y-83825908D01*
X129000171Y-83876202D01*
X129000164Y-83876206D01*
X128884955Y-83962452D01*
X128884952Y-83962455D01*
X128798706Y-84077664D01*
X128798702Y-84077671D01*
X128775891Y-84138833D01*
X128734020Y-84194767D01*
X128668556Y-84219184D01*
X128659709Y-84219500D01*
X126596150Y-84219500D01*
X126529111Y-84199815D01*
X126508469Y-84183181D01*
X125629318Y-83304029D01*
X125595833Y-83242706D01*
X125592999Y-83216348D01*
X125592999Y-82869998D01*
X125592998Y-82869981D01*
X125582499Y-82767203D01*
X125582498Y-82767200D01*
X125572511Y-82737061D01*
X125527314Y-82600666D01*
X125435212Y-82451344D01*
X125311156Y-82327288D01*
X125308319Y-82325538D01*
X125306783Y-82323830D01*
X125305489Y-82322807D01*
X125305663Y-82322585D01*
X125261596Y-82273594D01*
X125250372Y-82204632D01*
X125278213Y-82140549D01*
X125285119Y-82132939D01*
X125295605Y-82122303D01*
X125311156Y-82112712D01*
X125435212Y-81988656D01*
X125448294Y-81967445D01*
X125458161Y-81957439D01*
X125476916Y-81947025D01*
X125492868Y-81932678D01*
X125509609Y-81928873D01*
X125519246Y-81923523D01*
X125530082Y-81924221D01*
X125546458Y-81920500D01*
X135918001Y-81920500D01*
X135985040Y-81940185D01*
X136030795Y-81992989D01*
X136042001Y-82044500D01*
X136042001Y-82067876D01*
X136048408Y-82127483D01*
X136098702Y-82262328D01*
X136098706Y-82262335D01*
X136184952Y-82377544D01*
X136184955Y-82377547D01*
X136300164Y-82463793D01*
X136300171Y-82463797D01*
X136435017Y-82514091D01*
X136435016Y-82514091D01*
X136441944Y-82514835D01*
X136494627Y-82520500D01*
X139090372Y-82520499D01*
X139149983Y-82514091D01*
X139284831Y-82463796D01*
X139400046Y-82377546D01*
X139486296Y-82262331D01*
X139536591Y-82127483D01*
X139543000Y-82067873D01*
X139542999Y-80472128D01*
X139536591Y-80412517D01*
X139535419Y-80409376D01*
X139486297Y-80277671D01*
X139486293Y-80277664D01*
X139400047Y-80162455D01*
X139400044Y-80162452D01*
X139284835Y-80076206D01*
X139284828Y-80076202D01*
X139149982Y-80025908D01*
X139149983Y-80025908D01*
X139090383Y-80019501D01*
X139090381Y-80019500D01*
X139090373Y-80019500D01*
X139090364Y-80019500D01*
X136494629Y-80019500D01*
X136494623Y-80019501D01*
X136435016Y-80025908D01*
X136300171Y-80076202D01*
X136300164Y-80076206D01*
X136184957Y-80162451D01*
X136184951Y-80162457D01*
X136179448Y-80169809D01*
X136123515Y-80211681D01*
X136080180Y-80219500D01*
X125546458Y-80219500D01*
X125479419Y-80199815D01*
X125440920Y-80160598D01*
X125435212Y-80151344D01*
X125311157Y-80027289D01*
X125311156Y-80027288D01*
X125161834Y-79935186D01*
X124995297Y-79880001D01*
X124995295Y-79880000D01*
X124892510Y-79869500D01*
X124092498Y-79869500D01*
X124092480Y-79869501D01*
X123989703Y-79880000D01*
X123989700Y-79880001D01*
X123823168Y-79935185D01*
X123823163Y-79935187D01*
X123673842Y-80027289D01*
X123580181Y-80120951D01*
X123518858Y-80154436D01*
X123449166Y-80149452D01*
X123404819Y-80120951D01*
X123311157Y-80027289D01*
X123311156Y-80027288D01*
X123161834Y-79935186D01*
X122995297Y-79880001D01*
X122995295Y-79880000D01*
X122892510Y-79869500D01*
X122092498Y-79869500D01*
X122092480Y-79869501D01*
X121989703Y-79880000D01*
X121989700Y-79880001D01*
X121823168Y-79935185D01*
X121823163Y-79935187D01*
X121673842Y-80027289D01*
X121549787Y-80151344D01*
X121544080Y-80160598D01*
X121492132Y-80207322D01*
X121438542Y-80219500D01*
X116488728Y-80219500D01*
X116324425Y-80252182D01*
X116324417Y-80252184D01*
X116169635Y-80316297D01*
X116169629Y-80316301D01*
X116030338Y-80409373D01*
X116030334Y-80409376D01*
X108731873Y-87707837D01*
X108729429Y-87711496D01*
X108675815Y-87756299D01*
X108653933Y-87763489D01*
X108650320Y-87764313D01*
X108483587Y-87822655D01*
X108483585Y-87822656D01*
X108458470Y-87838437D01*
X108391233Y-87857436D01*
X108326530Y-87838437D01*
X108301414Y-87822656D01*
X108301412Y-87822655D01*
X108135227Y-87764505D01*
X108134690Y-87764317D01*
X108134689Y-87764316D01*
X108134684Y-87764315D01*
X108003192Y-87749500D01*
X108003188Y-87749500D01*
X106781812Y-87749500D01*
X106781808Y-87749500D01*
X106650315Y-87764315D01*
X106483587Y-87822655D01*
X106483585Y-87822656D01*
X106458470Y-87838437D01*
X106391233Y-87857436D01*
X106326530Y-87838437D01*
X106301414Y-87822656D01*
X106301412Y-87822655D01*
X106135227Y-87764505D01*
X106134690Y-87764317D01*
X106134689Y-87764316D01*
X106134684Y-87764315D01*
X106003192Y-87749500D01*
X106003188Y-87749500D01*
X104781812Y-87749500D01*
X104781808Y-87749500D01*
X104650315Y-87764315D01*
X104483587Y-87822655D01*
X104334028Y-87916630D01*
X104209130Y-88041528D01*
X104115155Y-88191087D01*
X104056815Y-88357815D01*
X104042000Y-88489307D01*
X104042000Y-90610692D01*
X104056815Y-90742184D01*
X104115155Y-90908912D01*
X104186339Y-91022200D01*
X104209130Y-91058471D01*
X104334029Y-91183370D01*
X104483589Y-91277345D01*
X104483591Y-91277345D01*
X104483972Y-91277585D01*
X104490390Y-91284841D01*
X104499203Y-91288866D01*
X104513160Y-91310584D01*
X104530263Y-91329920D01*
X104532746Y-91341060D01*
X104536977Y-91347644D01*
X104542000Y-91382579D01*
X104542000Y-91516349D01*
X104522315Y-91583388D01*
X104505681Y-91604030D01*
X88066530Y-108043181D01*
X88005207Y-108076666D01*
X87978849Y-108079500D01*
X83248728Y-108079500D01*
X83084425Y-108112182D01*
X83084413Y-108112185D01*
X83039083Y-108130962D01*
X82929643Y-108176292D01*
X82929630Y-108176299D01*
X82790338Y-108269372D01*
X82790334Y-108269375D01*
X81931875Y-109127834D01*
X81931872Y-109127838D01*
X81838797Y-109267133D01*
X81838796Y-109267136D01*
X81821510Y-109308869D01*
X81821510Y-109308870D01*
X81774684Y-109421917D01*
X81774682Y-109421925D01*
X81742000Y-109586228D01*
X81742000Y-109837209D01*
X81722315Y-109904248D01*
X81669511Y-109950003D01*
X81661333Y-109953391D01*
X81600171Y-109976202D01*
X81600164Y-109976206D01*
X81484955Y-110062452D01*
X81484952Y-110062455D01*
X81398706Y-110177664D01*
X81398702Y-110177671D01*
X81348408Y-110312517D01*
X81342001Y-110372116D01*
X81342001Y-110372123D01*
X81342000Y-110372135D01*
X75993000Y-110372135D01*
X75993000Y-91010135D01*
X81342000Y-91010135D01*
X81342000Y-92629870D01*
X81342001Y-92629876D01*
X81348408Y-92689483D01*
X81398702Y-92824328D01*
X81398706Y-92824335D01*
X81484952Y-92939544D01*
X81484955Y-92939547D01*
X81600164Y-93025793D01*
X81600171Y-93025797D01*
X81735017Y-93076091D01*
X81735016Y-93076091D01*
X81741944Y-93076835D01*
X81794627Y-93082500D01*
X83890372Y-93082499D01*
X83949983Y-93076091D01*
X84049169Y-93039096D01*
X84118858Y-93034113D01*
X84135819Y-93039092D01*
X84235017Y-93076091D01*
X84294627Y-93082500D01*
X86390372Y-93082499D01*
X86449983Y-93076091D01*
X86584831Y-93025796D01*
X86700046Y-92939546D01*
X86786296Y-92824331D01*
X86836591Y-92689483D01*
X86843000Y-92629873D01*
X86842999Y-91010128D01*
X86837621Y-90960096D01*
X86836591Y-90950516D01*
X86786297Y-90815671D01*
X86786293Y-90815664D01*
X86700047Y-90700455D01*
X86700044Y-90700452D01*
X86584835Y-90614206D01*
X86584828Y-90614202D01*
X86449982Y-90563908D01*
X86449983Y-90563908D01*
X86390383Y-90557501D01*
X86390381Y-90557500D01*
X86390373Y-90557500D01*
X86390364Y-90557500D01*
X84294629Y-90557500D01*
X84294623Y-90557501D01*
X84235015Y-90563909D01*
X84135832Y-90600901D01*
X84066140Y-90605885D01*
X84049168Y-90600901D01*
X83949985Y-90563909D01*
X83949983Y-90563908D01*
X83890383Y-90557501D01*
X83890381Y-90557500D01*
X83890373Y-90557500D01*
X83890364Y-90557500D01*
X81794629Y-90557500D01*
X81794623Y-90557501D01*
X81735016Y-90563908D01*
X81600171Y-90614202D01*
X81600164Y-90614206D01*
X81484955Y-90700452D01*
X81484952Y-90700455D01*
X81398706Y-90815664D01*
X81398702Y-90815671D01*
X81348408Y-90950517D01*
X81345560Y-90977011D01*
X81342001Y-91010123D01*
X81342000Y-91010135D01*
X75993000Y-91010135D01*
X75993000Y-86981995D01*
X83299500Y-86981995D01*
X83299500Y-87218004D01*
X83299501Y-87218020D01*
X83322990Y-87396442D01*
X83330307Y-87452014D01*
X83355034Y-87544297D01*
X83391394Y-87679993D01*
X83481714Y-87898045D01*
X83481719Y-87898056D01*
X83504677Y-87937819D01*
X83599727Y-88102450D01*
X83599729Y-88102453D01*
X83599730Y-88102454D01*
X83743406Y-88289697D01*
X83743412Y-88289704D01*
X83910295Y-88456587D01*
X83910302Y-88456593D01*
X83999499Y-88525036D01*
X84097550Y-88600273D01*
X84207385Y-88663686D01*
X84301943Y-88718280D01*
X84301948Y-88718282D01*
X84301951Y-88718284D01*
X84520007Y-88808606D01*
X84747986Y-88869693D01*
X84981989Y-88900500D01*
X84981996Y-88900500D01*
X85218004Y-88900500D01*
X85218011Y-88900500D01*
X85452014Y-88869693D01*
X85679993Y-88808606D01*
X85898049Y-88718284D01*
X86102450Y-88600273D01*
X86289699Y-88456592D01*
X86456592Y-88289699D01*
X86501624Y-88231012D01*
X86558051Y-88189809D01*
X86627797Y-88185654D01*
X86688718Y-88219866D01*
X86698376Y-88231012D01*
X86743406Y-88289697D01*
X86743412Y-88289704D01*
X86910295Y-88456587D01*
X86910302Y-88456593D01*
X86999499Y-88525036D01*
X87097550Y-88600273D01*
X87207385Y-88663686D01*
X87301943Y-88718280D01*
X87301948Y-88718282D01*
X87301951Y-88718284D01*
X87520007Y-88808606D01*
X87747986Y-88869693D01*
X87884187Y-88887624D01*
X87948081Y-88915889D01*
X87986553Y-88974213D01*
X87992000Y-89010562D01*
X87992000Y-89697820D01*
X87972315Y-89764859D01*
X87933098Y-89803357D01*
X87884653Y-89833239D01*
X87821342Y-89872289D01*
X87697289Y-89996342D01*
X87605187Y-90145663D01*
X87605185Y-90145668D01*
X87590963Y-90188587D01*
X87550001Y-90312203D01*
X87550001Y-90312204D01*
X87550000Y-90312204D01*
X87539500Y-90414983D01*
X87539500Y-91340001D01*
X87539501Y-91340019D01*
X87550000Y-91442796D01*
X87550001Y-91442799D01*
X87605185Y-91609331D01*
X87605187Y-91609336D01*
X87625996Y-91643073D01*
X87697288Y-91758656D01*
X87821344Y-91882712D01*
X87970666Y-91974814D01*
X88137203Y-92029999D01*
X88239991Y-92040500D01*
X89640008Y-92040499D01*
X89742797Y-92029999D01*
X89909334Y-91974814D01*
X90058656Y-91882712D01*
X90182712Y-91758656D01*
X90274814Y-91609334D01*
X90329999Y-91442797D01*
X90340500Y-91340009D01*
X90340499Y-90414992D01*
X90340242Y-90412480D01*
X90329999Y-90312203D01*
X90329998Y-90312200D01*
X90317836Y-90275498D01*
X90274814Y-90145666D01*
X90182712Y-89996344D01*
X90058656Y-89872288D01*
X90058655Y-89872287D01*
X90051902Y-89868122D01*
X90005178Y-89816173D01*
X89993000Y-89762584D01*
X89993000Y-88097175D01*
X89993001Y-88097154D01*
X89993001Y-87893957D01*
X89993000Y-87893955D01*
X89984439Y-87850917D01*
X89954552Y-87700665D01*
X89879132Y-87518586D01*
X89879130Y-87518584D01*
X89878033Y-87515934D01*
X89869655Y-87452295D01*
X89869691Y-87452021D01*
X89869693Y-87452014D01*
X89900500Y-87218011D01*
X89900500Y-86981995D01*
X91099500Y-86981995D01*
X91099500Y-87218004D01*
X91099501Y-87218020D01*
X91122990Y-87396442D01*
X91130307Y-87452014D01*
X91155034Y-87544297D01*
X91191394Y-87679993D01*
X91281714Y-87898045D01*
X91281719Y-87898056D01*
X91304677Y-87937819D01*
X91399727Y-88102450D01*
X91399729Y-88102453D01*
X91399730Y-88102454D01*
X91543406Y-88289697D01*
X91543412Y-88289704D01*
X91710299Y-88456591D01*
X91730056Y-88471751D01*
X91750985Y-88487810D01*
X91792188Y-88544236D01*
X91799500Y-88586186D01*
X91799500Y-89727701D01*
X91779815Y-89794740D01*
X91740598Y-89833239D01*
X91681344Y-89869787D01*
X91557289Y-89993842D01*
X91465187Y-90143163D01*
X91465185Y-90143168D01*
X91444251Y-90206344D01*
X91410001Y-90309703D01*
X91410001Y-90309704D01*
X91410000Y-90309704D01*
X91399500Y-90412483D01*
X91399500Y-91337501D01*
X91399501Y-91337519D01*
X91410000Y-91440296D01*
X91410001Y-91440299D01*
X91465185Y-91606831D01*
X91465187Y-91606836D01*
X91487538Y-91643073D01*
X91557288Y-91756156D01*
X91681344Y-91880212D01*
X91830666Y-91972314D01*
X91997203Y-92027499D01*
X92099991Y-92038000D01*
X93500008Y-92037999D01*
X93602797Y-92027499D01*
X93769334Y-91972314D01*
X93918656Y-91880212D01*
X94042712Y-91756156D01*
X94112462Y-91643071D01*
X94164408Y-91596348D01*
X94233371Y-91585125D01*
X94297453Y-91612968D01*
X94336310Y-91671037D01*
X94342000Y-91708169D01*
X94342000Y-92629870D01*
X94342001Y-92629876D01*
X94348408Y-92689483D01*
X94398702Y-92824328D01*
X94398706Y-92824335D01*
X94484952Y-92939544D01*
X94484955Y-92939547D01*
X94600164Y-93025793D01*
X94600171Y-93025797D01*
X94735017Y-93076091D01*
X94735016Y-93076091D01*
X94741944Y-93076835D01*
X94794627Y-93082500D01*
X96890372Y-93082499D01*
X96949983Y-93076091D01*
X97049169Y-93039096D01*
X97118858Y-93034113D01*
X97135819Y-93039092D01*
X97235017Y-93076091D01*
X97294627Y-93082500D01*
X99390372Y-93082499D01*
X99449983Y-93076091D01*
X99584831Y-93025796D01*
X99700046Y-92939546D01*
X99786296Y-92824331D01*
X99836591Y-92689483D01*
X99843000Y-92629873D01*
X99842999Y-91010128D01*
X99837621Y-90960096D01*
X99836591Y-90950516D01*
X99786297Y-90815671D01*
X99786293Y-90815664D01*
X99700047Y-90700455D01*
X99700044Y-90700452D01*
X99584835Y-90614206D01*
X99584828Y-90614202D01*
X99449982Y-90563908D01*
X99449983Y-90563908D01*
X99390383Y-90557501D01*
X99390381Y-90557500D01*
X99390373Y-90557500D01*
X99390364Y-90557500D01*
X97294629Y-90557500D01*
X97294623Y-90557501D01*
X97235015Y-90563909D01*
X97135832Y-90600901D01*
X97066140Y-90605885D01*
X97049168Y-90600901D01*
X96949985Y-90563909D01*
X96949983Y-90563908D01*
X96890383Y-90557501D01*
X96890381Y-90557500D01*
X96890373Y-90557500D01*
X96890364Y-90557500D01*
X94794629Y-90557500D01*
X94794623Y-90557501D01*
X94735016Y-90563908D01*
X94600171Y-90614202D01*
X94600164Y-90614206D01*
X94484955Y-90700452D01*
X94423765Y-90782191D01*
X94367831Y-90824061D01*
X94298139Y-90829045D01*
X94236817Y-90795559D01*
X94203332Y-90734235D01*
X94200499Y-90707879D01*
X94200499Y-90412498D01*
X94200498Y-90412480D01*
X94189999Y-90309703D01*
X94189998Y-90309700D01*
X94178665Y-90275499D01*
X94134814Y-90143166D01*
X94042712Y-89993844D01*
X93918656Y-89869788D01*
X93918655Y-89869787D01*
X93859402Y-89833239D01*
X93812678Y-89781291D01*
X93800500Y-89727701D01*
X93800500Y-88730725D01*
X93820185Y-88663686D01*
X93862501Y-88623337D01*
X93875840Y-88615636D01*
X93902450Y-88600273D01*
X94089699Y-88456592D01*
X94256592Y-88289699D01*
X94301624Y-88231012D01*
X94358051Y-88189809D01*
X94427797Y-88185654D01*
X94488718Y-88219866D01*
X94498376Y-88231012D01*
X94543406Y-88289697D01*
X94543412Y-88289704D01*
X94710295Y-88456587D01*
X94710302Y-88456593D01*
X94799499Y-88525036D01*
X94897550Y-88600273D01*
X95007385Y-88663686D01*
X95101943Y-88718280D01*
X95101948Y-88718282D01*
X95101951Y-88718284D01*
X95320007Y-88808606D01*
X95547986Y-88869693D01*
X95781989Y-88900500D01*
X95781996Y-88900500D01*
X96018004Y-88900500D01*
X96018011Y-88900500D01*
X96252014Y-88869693D01*
X96479993Y-88808606D01*
X96698049Y-88718284D01*
X96902450Y-88600273D01*
X97089699Y-88456592D01*
X97256592Y-88289699D01*
X97400273Y-88102450D01*
X97518284Y-87898049D01*
X97608606Y-87679993D01*
X97669693Y-87452014D01*
X97700500Y-87218011D01*
X97700500Y-86981989D01*
X97669693Y-86747986D01*
X97608606Y-86520007D01*
X97518284Y-86301951D01*
X97518282Y-86301948D01*
X97518280Y-86301943D01*
X97462095Y-86204629D01*
X97400273Y-86097550D01*
X97279523Y-85940185D01*
X97256593Y-85910302D01*
X97256587Y-85910295D01*
X97089704Y-85743412D01*
X97089697Y-85743406D01*
X96902454Y-85599730D01*
X96902453Y-85599729D01*
X96902450Y-85599727D01*
X96820957Y-85552677D01*
X96698056Y-85481719D01*
X96698045Y-85481714D01*
X96479993Y-85391394D01*
X96303535Y-85344112D01*
X96252014Y-85330307D01*
X96252013Y-85330306D01*
X96252010Y-85330306D01*
X96018020Y-85299501D01*
X96018017Y-85299500D01*
X96018011Y-85299500D01*
X95781989Y-85299500D01*
X95781983Y-85299500D01*
X95781979Y-85299501D01*
X95547989Y-85330306D01*
X95320006Y-85391394D01*
X95101954Y-85481714D01*
X95101943Y-85481719D01*
X94897545Y-85599730D01*
X94710302Y-85743406D01*
X94710295Y-85743412D01*
X94543412Y-85910295D01*
X94498376Y-85968988D01*
X94441948Y-86010190D01*
X94372202Y-86014345D01*
X94311282Y-85980133D01*
X94301624Y-85968988D01*
X94288627Y-85952050D01*
X94256592Y-85910301D01*
X94256590Y-85910299D01*
X94256587Y-85910295D01*
X94089704Y-85743412D01*
X94089697Y-85743406D01*
X93902454Y-85599730D01*
X93902453Y-85599729D01*
X93902450Y-85599727D01*
X93820957Y-85552677D01*
X93698056Y-85481719D01*
X93698045Y-85481714D01*
X93479993Y-85391394D01*
X93303535Y-85344112D01*
X93252014Y-85330307D01*
X93252013Y-85330306D01*
X93252010Y-85330306D01*
X93018020Y-85299501D01*
X93018017Y-85299500D01*
X93018011Y-85299500D01*
X92781989Y-85299500D01*
X92781983Y-85299500D01*
X92781979Y-85299501D01*
X92547989Y-85330306D01*
X92320006Y-85391394D01*
X92101954Y-85481714D01*
X92101943Y-85481719D01*
X91897545Y-85599730D01*
X91710302Y-85743406D01*
X91710295Y-85743412D01*
X91543412Y-85910295D01*
X91543406Y-85910302D01*
X91399730Y-86097545D01*
X91281719Y-86301943D01*
X91281714Y-86301954D01*
X91191394Y-86520006D01*
X91130306Y-86747989D01*
X91099501Y-86981979D01*
X91099500Y-86981995D01*
X89900500Y-86981995D01*
X89900500Y-86981989D01*
X89869693Y-86747986D01*
X89808606Y-86520007D01*
X89718284Y-86301951D01*
X89718282Y-86301948D01*
X89718280Y-86301943D01*
X89662095Y-86204629D01*
X89600273Y-86097550D01*
X89479523Y-85940185D01*
X89456593Y-85910302D01*
X89456587Y-85910295D01*
X89289704Y-85743412D01*
X89289697Y-85743406D01*
X89102454Y-85599730D01*
X89102453Y-85599729D01*
X89102450Y-85599727D01*
X89020957Y-85552677D01*
X88898056Y-85481719D01*
X88898045Y-85481714D01*
X88679993Y-85391394D01*
X88503535Y-85344112D01*
X88452014Y-85330307D01*
X88452013Y-85330306D01*
X88452010Y-85330306D01*
X88218020Y-85299501D01*
X88218017Y-85299500D01*
X88218011Y-85299500D01*
X87981989Y-85299500D01*
X87981983Y-85299500D01*
X87981979Y-85299501D01*
X87747989Y-85330306D01*
X87520006Y-85391394D01*
X87301954Y-85481714D01*
X87301943Y-85481719D01*
X87097545Y-85599730D01*
X86910302Y-85743406D01*
X86910295Y-85743412D01*
X86743412Y-85910295D01*
X86698376Y-85968988D01*
X86641948Y-86010190D01*
X86572202Y-86014345D01*
X86511282Y-85980133D01*
X86501624Y-85968988D01*
X86488627Y-85952050D01*
X86456592Y-85910301D01*
X86456590Y-85910299D01*
X86456587Y-85910295D01*
X86289704Y-85743412D01*
X86289697Y-85743406D01*
X86102454Y-85599730D01*
X86102453Y-85599729D01*
X86102450Y-85599727D01*
X86020957Y-85552677D01*
X85898056Y-85481719D01*
X85898045Y-85481714D01*
X85679993Y-85391394D01*
X85503535Y-85344112D01*
X85452014Y-85330307D01*
X85452013Y-85330306D01*
X85452010Y-85330306D01*
X85218020Y-85299501D01*
X85218017Y-85299500D01*
X85218011Y-85299500D01*
X84981989Y-85299500D01*
X84981983Y-85299500D01*
X84981979Y-85299501D01*
X84747989Y-85330306D01*
X84520006Y-85391394D01*
X84301954Y-85481714D01*
X84301943Y-85481719D01*
X84097545Y-85599730D01*
X83910302Y-85743406D01*
X83910295Y-85743412D01*
X83743412Y-85910295D01*
X83743406Y-85910302D01*
X83599730Y-86097545D01*
X83481719Y-86301943D01*
X83481714Y-86301954D01*
X83391394Y-86520006D01*
X83330306Y-86747989D01*
X83299501Y-86981979D01*
X83299500Y-86981995D01*
X75993000Y-86981995D01*
X75993000Y-81881902D01*
X78499500Y-81881902D01*
X78499500Y-82118097D01*
X78536446Y-82351368D01*
X78609433Y-82575996D01*
X78705068Y-82763689D01*
X78716657Y-82786433D01*
X78855483Y-82977510D01*
X79022490Y-83144517D01*
X79213567Y-83283343D01*
X79312991Y-83334002D01*
X79424003Y-83390566D01*
X79424005Y-83390566D01*
X79424008Y-83390568D01*
X79544412Y-83429689D01*
X79648631Y-83463553D01*
X79881903Y-83500500D01*
X79881908Y-83500500D01*
X80118097Y-83500500D01*
X80351368Y-83463553D01*
X80575992Y-83390568D01*
X80786433Y-83283343D01*
X80977510Y-83144517D01*
X81144517Y-82977510D01*
X81283343Y-82786433D01*
X81390568Y-82575992D01*
X81463553Y-82351368D01*
X81473378Y-82289336D01*
X81500500Y-82118097D01*
X81500500Y-81881902D01*
X81463553Y-81648631D01*
X81420663Y-81516632D01*
X81390568Y-81424008D01*
X81390566Y-81424005D01*
X81390566Y-81424003D01*
X81296798Y-81239974D01*
X81283343Y-81213567D01*
X81144517Y-81022490D01*
X80977510Y-80855483D01*
X80786433Y-80716657D01*
X80772999Y-80709812D01*
X80575996Y-80609433D01*
X80351368Y-80536446D01*
X80118097Y-80499500D01*
X80118092Y-80499500D01*
X79881908Y-80499500D01*
X79881903Y-80499500D01*
X79648631Y-80536446D01*
X79424003Y-80609433D01*
X79213566Y-80716657D01*
X79132578Y-80775499D01*
X79022490Y-80855483D01*
X79022488Y-80855485D01*
X79022487Y-80855485D01*
X78855485Y-81022487D01*
X78855485Y-81022488D01*
X78855483Y-81022490D01*
X78824893Y-81064594D01*
X78716657Y-81213566D01*
X78609433Y-81424003D01*
X78536446Y-81648631D01*
X78499500Y-81881902D01*
X75993000Y-81881902D01*
X75993000Y-79068713D01*
X86449500Y-79068713D01*
X86449500Y-79531287D01*
X86459534Y-79594644D01*
X86470739Y-79665388D01*
X86482754Y-79741243D01*
X86545770Y-79935186D01*
X86548444Y-79943414D01*
X86644951Y-80132820D01*
X86769890Y-80304786D01*
X86920213Y-80455109D01*
X87092179Y-80580048D01*
X87092181Y-80580049D01*
X87092184Y-80580051D01*
X87281588Y-80676557D01*
X87483757Y-80742246D01*
X87693713Y-80775500D01*
X87693714Y-80775500D01*
X87906286Y-80775500D01*
X87906287Y-80775500D01*
X88116243Y-80742246D01*
X88318412Y-80676557D01*
X88507816Y-80580051D01*
X88618686Y-80499500D01*
X88679786Y-80455109D01*
X88679788Y-80455106D01*
X88679792Y-80455104D01*
X88830104Y-80304792D01*
X88949683Y-80140204D01*
X89005011Y-80097540D01*
X89074624Y-80091561D01*
X89136420Y-80124166D01*
X89150313Y-80140199D01*
X89250190Y-80277669D01*
X89269896Y-80304792D01*
X89420213Y-80455109D01*
X89592179Y-80580048D01*
X89592181Y-80580049D01*
X89592184Y-80580051D01*
X89781588Y-80676557D01*
X89983757Y-80742246D01*
X90193713Y-80775500D01*
X90193714Y-80775500D01*
X90406286Y-80775500D01*
X90406287Y-80775500D01*
X90616243Y-80742246D01*
X90818412Y-80676557D01*
X91007816Y-80580051D01*
X91118686Y-80499500D01*
X91179786Y-80455109D01*
X91179788Y-80455106D01*
X91179792Y-80455104D01*
X91330104Y-80304792D01*
X91449683Y-80140204D01*
X91505011Y-80097540D01*
X91574624Y-80091561D01*
X91636420Y-80124166D01*
X91650313Y-80140199D01*
X91750190Y-80277669D01*
X91769896Y-80304792D01*
X91920213Y-80455109D01*
X92092179Y-80580048D01*
X92092181Y-80580049D01*
X92092184Y-80580051D01*
X92281588Y-80676557D01*
X92483757Y-80742246D01*
X92693713Y-80775500D01*
X92693714Y-80775500D01*
X92906286Y-80775500D01*
X92906287Y-80775500D01*
X93116243Y-80742246D01*
X93318412Y-80676557D01*
X93507816Y-80580051D01*
X93656359Y-80472129D01*
X93679784Y-80455110D01*
X93679784Y-80455109D01*
X93679792Y-80455104D01*
X93818604Y-80316291D01*
X93879923Y-80282809D01*
X93949615Y-80287793D01*
X94005549Y-80329664D01*
X94011821Y-80338878D01*
X94015185Y-80344333D01*
X94015186Y-80344334D01*
X94107288Y-80493656D01*
X94231344Y-80617712D01*
X94380666Y-80709814D01*
X94547203Y-80764999D01*
X94649991Y-80775500D01*
X95950008Y-80775499D01*
X96052797Y-80764999D01*
X96219334Y-80709814D01*
X96368656Y-80617712D01*
X96492712Y-80493656D01*
X96584814Y-80344334D01*
X96639999Y-80177797D01*
X96650500Y-80075009D01*
X96650499Y-78524992D01*
X96639999Y-78422203D01*
X96584814Y-78255666D01*
X96492712Y-78106344D01*
X96368656Y-77982288D01*
X96219334Y-77890186D01*
X96052797Y-77835001D01*
X96052795Y-77835000D01*
X95950010Y-77824500D01*
X94649998Y-77824500D01*
X94649981Y-77824501D01*
X94547203Y-77835000D01*
X94547200Y-77835001D01*
X94380668Y-77890185D01*
X94380663Y-77890187D01*
X94231342Y-77982289D01*
X94107289Y-78106342D01*
X94011821Y-78261121D01*
X93959873Y-78307845D01*
X93890910Y-78319068D01*
X93826828Y-78291224D01*
X93818601Y-78283705D01*
X93679786Y-78144890D01*
X93507820Y-78019951D01*
X93318414Y-77923444D01*
X93318413Y-77923443D01*
X93318412Y-77923443D01*
X93116243Y-77857754D01*
X93116241Y-77857753D01*
X93116240Y-77857753D01*
X92954957Y-77832208D01*
X92906287Y-77824500D01*
X92693713Y-77824500D01*
X92645042Y-77832208D01*
X92483760Y-77857753D01*
X92281585Y-77923444D01*
X92092179Y-78019951D01*
X91920213Y-78144890D01*
X91769894Y-78295209D01*
X91769890Y-78295214D01*
X91650318Y-78459793D01*
X91594989Y-78502459D01*
X91525375Y-78508438D01*
X91463580Y-78475833D01*
X91449682Y-78459793D01*
X91330109Y-78295214D01*
X91330105Y-78295209D01*
X91179786Y-78144890D01*
X91007820Y-78019951D01*
X90818414Y-77923444D01*
X90818413Y-77923443D01*
X90818412Y-77923443D01*
X90616243Y-77857754D01*
X90616241Y-77857753D01*
X90616240Y-77857753D01*
X90454957Y-77832208D01*
X90406287Y-77824500D01*
X90193713Y-77824500D01*
X90145042Y-77832208D01*
X89983760Y-77857753D01*
X89781585Y-77923444D01*
X89592179Y-78019951D01*
X89420213Y-78144890D01*
X89269894Y-78295209D01*
X89269890Y-78295214D01*
X89150318Y-78459793D01*
X89094989Y-78502459D01*
X89025375Y-78508438D01*
X88963580Y-78475833D01*
X88949682Y-78459793D01*
X88830109Y-78295214D01*
X88830105Y-78295209D01*
X88679786Y-78144890D01*
X88507820Y-78019951D01*
X88318414Y-77923444D01*
X88318413Y-77923443D01*
X88318412Y-77923443D01*
X88116243Y-77857754D01*
X88116241Y-77857753D01*
X88116240Y-77857753D01*
X87954957Y-77832208D01*
X87906287Y-77824500D01*
X87693713Y-77824500D01*
X87645042Y-77832208D01*
X87483760Y-77857753D01*
X87281585Y-77923444D01*
X87092179Y-78019951D01*
X86920213Y-78144890D01*
X86769890Y-78295213D01*
X86644951Y-78467179D01*
X86548444Y-78656585D01*
X86482753Y-78858760D01*
X86460198Y-79001167D01*
X86449500Y-79068713D01*
X75993000Y-79068713D01*
X75993000Y-77772135D01*
X128942000Y-77772135D01*
X128942000Y-79367870D01*
X128942001Y-79367876D01*
X128948408Y-79427483D01*
X128998702Y-79562328D01*
X128998706Y-79562335D01*
X129084952Y-79677544D01*
X129084955Y-79677547D01*
X129200164Y-79763793D01*
X129200171Y-79763797D01*
X129335017Y-79814091D01*
X129335016Y-79814091D01*
X129341944Y-79814835D01*
X129394627Y-79820500D01*
X132890372Y-79820499D01*
X132949983Y-79814091D01*
X133084831Y-79763796D01*
X133200046Y-79677546D01*
X133286296Y-79562331D01*
X133336591Y-79427483D01*
X133336591Y-79427481D01*
X133336738Y-79426858D01*
X133336738Y-79426853D01*
X133336742Y-79426843D01*
X133338374Y-79419938D01*
X133339747Y-79420262D01*
X133350369Y-79397003D01*
X133362929Y-79366688D01*
X133364811Y-79365381D01*
X133365763Y-79363297D01*
X133393361Y-79345560D01*
X133420323Y-79326843D01*
X133423216Y-79326374D01*
X133424541Y-79325523D01*
X133459476Y-79320500D01*
X133462796Y-79320500D01*
X133529835Y-79340185D01*
X133550477Y-79356819D01*
X133583072Y-79389414D01*
X133723212Y-79491232D01*
X133877555Y-79569873D01*
X134042299Y-79623402D01*
X134213389Y-79650500D01*
X134213390Y-79650500D01*
X134386610Y-79650500D01*
X134386611Y-79650500D01*
X134557701Y-79623402D01*
X134722445Y-79569873D01*
X134876788Y-79491232D01*
X135016928Y-79389414D01*
X135139414Y-79266928D01*
X135241232Y-79126788D01*
X135319873Y-78972445D01*
X135373402Y-78807701D01*
X135400500Y-78636611D01*
X135400500Y-78463389D01*
X135373402Y-78292299D01*
X135319873Y-78127555D01*
X135265398Y-78020639D01*
X147680000Y-78020639D01*
X147680000Y-78219361D01*
X147686614Y-78261121D01*
X147711087Y-78415637D01*
X147772493Y-78604629D01*
X147772494Y-78604632D01*
X147856331Y-78769168D01*
X147862713Y-78781694D01*
X147979519Y-78942464D01*
X148120036Y-79082981D01*
X148280806Y-79199787D01*
X148345682Y-79232843D01*
X148457867Y-79290005D01*
X148457870Y-79290006D01*
X148538932Y-79316344D01*
X148646864Y-79351413D01*
X148843139Y-79382500D01*
X148843140Y-79382500D01*
X149041860Y-79382500D01*
X149041861Y-79382500D01*
X149238136Y-79351413D01*
X149427132Y-79290005D01*
X149604194Y-79199787D01*
X149680728Y-79144181D01*
X149746533Y-79120702D01*
X149753613Y-79120500D01*
X150630270Y-79120500D01*
X150697309Y-79140185D01*
X150717951Y-79156819D01*
X150723844Y-79162712D01*
X150873166Y-79254814D01*
X151039703Y-79309999D01*
X151142491Y-79320500D01*
X152542508Y-79320499D01*
X152645297Y-79309999D01*
X152811834Y-79254814D01*
X152829676Y-79243808D01*
X152897066Y-79225367D01*
X152963731Y-79246288D01*
X153008501Y-79299929D01*
X153010956Y-79306013D01*
X153048702Y-79407216D01*
X153048706Y-79407223D01*
X153134952Y-79522432D01*
X153134955Y-79522435D01*
X153250164Y-79608681D01*
X153250171Y-79608685D01*
X153385017Y-79658979D01*
X153385016Y-79658979D01*
X153391944Y-79659723D01*
X153444627Y-79665388D01*
X155140372Y-79665387D01*
X155199983Y-79658979D01*
X155334831Y-79608684D01*
X155450046Y-79522434D01*
X155536296Y-79407219D01*
X155536297Y-79407213D01*
X155537467Y-79405075D01*
X155539197Y-79403344D01*
X155541612Y-79400119D01*
X155542075Y-79400466D01*
X155586872Y-79355669D01*
X155646300Y-79340500D01*
X156847481Y-79340500D01*
X156912579Y-79358962D01*
X156942713Y-79377549D01*
X157102315Y-79430436D01*
X157200826Y-79440500D01*
X157200831Y-79440500D01*
X157734169Y-79440500D01*
X157734174Y-79440500D01*
X157832685Y-79430436D01*
X157992287Y-79377549D01*
X158135391Y-79289281D01*
X158254281Y-79170391D01*
X158342549Y-79027287D01*
X158395436Y-78867685D01*
X158405500Y-78769174D01*
X158405500Y-77910826D01*
X158405499Y-77910818D01*
X158654500Y-77910818D01*
X158654500Y-78769181D01*
X158664563Y-78867683D01*
X158717450Y-79027284D01*
X158717455Y-79027295D01*
X158805716Y-79170387D01*
X158805719Y-79170391D01*
X158924608Y-79289280D01*
X158924612Y-79289283D01*
X159067704Y-79377544D01*
X159067707Y-79377545D01*
X159067713Y-79377549D01*
X159227315Y-79430436D01*
X159325826Y-79440500D01*
X159325831Y-79440500D01*
X159859169Y-79440500D01*
X159859174Y-79440500D01*
X159957685Y-79430436D01*
X160089387Y-79386793D01*
X160128391Y-79380500D01*
X172286718Y-79380500D01*
X172353757Y-79400185D01*
X172374399Y-79416819D01*
X174364715Y-81407137D01*
X174364716Y-81407138D01*
X174364719Y-81407140D01*
X174490847Y-81491416D01*
X174535651Y-81545026D01*
X174545314Y-81581915D01*
X174550001Y-81627797D01*
X174550001Y-81627799D01*
X174605185Y-81794331D01*
X174605186Y-81794334D01*
X174697288Y-81943656D01*
X174821344Y-82067712D01*
X174970666Y-82159814D01*
X175137203Y-82214999D01*
X175239991Y-82225500D01*
X176580008Y-82225499D01*
X176682797Y-82214999D01*
X176849334Y-82159814D01*
X176998656Y-82067712D01*
X176998657Y-82067710D01*
X177004803Y-82063920D01*
X177005464Y-82064993D01*
X177063372Y-82041625D01*
X177132015Y-82054658D01*
X177182715Y-82102733D01*
X177199500Y-82165030D01*
X177199500Y-85529083D01*
X177199500Y-85725917D01*
X177207711Y-85777762D01*
X177212675Y-85809105D01*
X177213140Y-85844687D01*
X177192000Y-86005265D01*
X177192000Y-86234741D01*
X177211348Y-86381694D01*
X177221952Y-86462238D01*
X177264090Y-86619500D01*
X177281342Y-86683887D01*
X177369150Y-86895876D01*
X177369157Y-86895890D01*
X177418866Y-86981989D01*
X177480410Y-87088587D01*
X177483892Y-87094617D01*
X177623581Y-87276661D01*
X177623588Y-87276669D01*
X177655680Y-87308760D01*
X177689166Y-87370082D01*
X177692000Y-87396442D01*
X177692000Y-91988225D01*
X177672315Y-92055264D01*
X177619511Y-92101019D01*
X177602597Y-92107301D01*
X177582103Y-92113255D01*
X177440637Y-92196917D01*
X177440629Y-92196923D01*
X177324423Y-92313129D01*
X177324417Y-92313137D01*
X177240755Y-92454603D01*
X177240754Y-92454606D01*
X177194902Y-92612426D01*
X177194901Y-92612432D01*
X177192000Y-92649298D01*
X177192000Y-93080701D01*
X177194901Y-93117567D01*
X177194902Y-93117573D01*
X177240754Y-93275393D01*
X177240755Y-93275396D01*
X177324417Y-93416862D01*
X177329202Y-93423031D01*
X177326756Y-93424927D01*
X177353357Y-93473642D01*
X177348373Y-93543334D01*
X177327569Y-93575703D01*
X177329202Y-93576969D01*
X177324417Y-93583137D01*
X177240755Y-93724603D01*
X177240754Y-93724606D01*
X177194902Y-93882426D01*
X177194901Y-93882432D01*
X177192000Y-93919298D01*
X177192000Y-94350701D01*
X177194901Y-94387567D01*
X177194902Y-94387573D01*
X177240754Y-94545393D01*
X177240755Y-94545396D01*
X177324417Y-94686862D01*
X177329202Y-94693031D01*
X177326756Y-94694927D01*
X177353357Y-94743642D01*
X177348373Y-94813334D01*
X177327569Y-94845703D01*
X177329202Y-94846969D01*
X177324417Y-94853137D01*
X177240755Y-94994603D01*
X177240754Y-94994606D01*
X177194902Y-95152426D01*
X177194901Y-95152432D01*
X177192000Y-95189298D01*
X177192000Y-95620701D01*
X177194901Y-95657567D01*
X177194902Y-95657573D01*
X177240754Y-95815393D01*
X177240755Y-95815396D01*
X177324417Y-95956862D01*
X177329202Y-95963031D01*
X177326756Y-95964927D01*
X177353357Y-96013642D01*
X177348373Y-96083334D01*
X177327569Y-96115703D01*
X177329202Y-96116969D01*
X177324417Y-96123137D01*
X177240755Y-96264603D01*
X177240754Y-96264606D01*
X177194902Y-96422426D01*
X177194901Y-96422432D01*
X177192000Y-96459298D01*
X177192000Y-96890701D01*
X177194901Y-96927567D01*
X177194902Y-96927573D01*
X177240754Y-97085393D01*
X177240755Y-97085396D01*
X177324417Y-97226862D01*
X177324423Y-97226870D01*
X177440629Y-97343076D01*
X177440633Y-97343079D01*
X177440635Y-97343081D01*
X177582102Y-97426744D01*
X177600400Y-97432060D01*
X177739926Y-97472597D01*
X177739929Y-97472597D01*
X177739931Y-97472598D01*
X177776806Y-97475500D01*
X177776814Y-97475500D01*
X179558186Y-97475500D01*
X179558194Y-97475500D01*
X179595069Y-97472598D01*
X179595071Y-97472597D01*
X179595073Y-97472597D01*
X179665031Y-97452272D01*
X179752898Y-97426744D01*
X179894365Y-97343081D01*
X180010581Y-97226865D01*
X180094244Y-97085398D01*
X180140098Y-96927569D01*
X180143000Y-96890694D01*
X180143000Y-96591584D01*
X180149069Y-96553266D01*
X180149389Y-96552280D01*
X180162209Y-96512826D01*
X180176527Y-96422426D01*
X180193000Y-96318422D01*
X180193000Y-87396442D01*
X180212685Y-87329403D01*
X180229320Y-87308760D01*
X180261411Y-87276669D01*
X180261419Y-87276661D01*
X180401111Y-87094612D01*
X180515844Y-86895888D01*
X180603658Y-86683887D01*
X180663048Y-86462238D01*
X180693000Y-86234734D01*
X180693000Y-86005266D01*
X180663048Y-85777762D01*
X180603658Y-85556113D01*
X180532106Y-85383371D01*
X180515849Y-85344123D01*
X180515846Y-85344117D01*
X180515844Y-85344112D01*
X180401111Y-85145388D01*
X180401108Y-85145385D01*
X180401107Y-85145382D01*
X180261418Y-84963338D01*
X180261411Y-84963330D01*
X180099170Y-84801089D01*
X180099161Y-84801081D01*
X179917117Y-84661392D01*
X179762500Y-84572124D01*
X179714284Y-84521557D01*
X179700500Y-84464737D01*
X179700500Y-81449309D01*
X179714014Y-81393017D01*
X179720092Y-81381089D01*
X179786754Y-81175926D01*
X179811056Y-81022488D01*
X179820500Y-80962866D01*
X179820500Y-80297133D01*
X179795644Y-80140206D01*
X179786754Y-80084074D01*
X179720092Y-79878911D01*
X179622157Y-79686701D01*
X179495359Y-79512179D01*
X179342821Y-79359641D01*
X179168299Y-79232843D01*
X178976089Y-79134908D01*
X178770926Y-79068246D01*
X178770924Y-79068245D01*
X178770922Y-79068245D01*
X178557866Y-79034500D01*
X178557861Y-79034500D01*
X178342139Y-79034500D01*
X178342134Y-79034500D01*
X178129077Y-79068245D01*
X177923908Y-79134909D01*
X177731700Y-79232843D01*
X177654022Y-79289280D01*
X177562439Y-79355818D01*
X177496636Y-79379298D01*
X177489556Y-79379500D01*
X177230874Y-79379500D01*
X177163835Y-79359815D01*
X177125336Y-79320598D01*
X177122712Y-79316344D01*
X176998657Y-79192289D01*
X176998656Y-79192288D01*
X176905628Y-79134908D01*
X176849336Y-79100187D01*
X176849331Y-79100185D01*
X176847862Y-79099698D01*
X176682797Y-79045001D01*
X176682795Y-79045000D01*
X176580010Y-79034500D01*
X175239998Y-79034500D01*
X175239981Y-79034501D01*
X175137203Y-79045000D01*
X175137200Y-79045001D01*
X175022596Y-79082978D01*
X174980881Y-79096801D01*
X174911054Y-79099203D01*
X174854197Y-79066776D01*
X173536709Y-77749289D01*
X173536706Y-77749285D01*
X173536706Y-77749286D01*
X173529639Y-77742219D01*
X173529639Y-77742218D01*
X173390282Y-77602861D01*
X173390281Y-77602860D01*
X173390280Y-77602859D01*
X173226420Y-77493371D01*
X173226407Y-77493364D01*
X173072263Y-77429516D01*
X173072257Y-77429514D01*
X173062966Y-77425666D01*
X173044336Y-77417949D01*
X172907442Y-77390719D01*
X172905364Y-77390305D01*
X172905357Y-77390304D01*
X172851042Y-77379500D01*
X172851041Y-77379500D01*
X160277368Y-77379500D01*
X160212271Y-77361038D01*
X160117289Y-77302452D01*
X160117288Y-77302451D01*
X160037486Y-77276007D01*
X159957685Y-77249564D01*
X159957683Y-77249563D01*
X159859181Y-77239500D01*
X159859174Y-77239500D01*
X159325826Y-77239500D01*
X159325818Y-77239500D01*
X159227316Y-77249563D01*
X159227315Y-77249564D01*
X159148219Y-77275773D01*
X159067715Y-77302450D01*
X159067704Y-77302455D01*
X158924612Y-77390716D01*
X158924608Y-77390719D01*
X158805719Y-77509608D01*
X158805716Y-77509612D01*
X158717455Y-77652704D01*
X158717451Y-77652713D01*
X158664564Y-77812315D01*
X158664564Y-77812316D01*
X158664563Y-77812316D01*
X158654500Y-77910818D01*
X158405499Y-77910818D01*
X158395436Y-77812315D01*
X158342549Y-77652713D01*
X158342545Y-77652707D01*
X158342544Y-77652704D01*
X158254283Y-77509612D01*
X158254280Y-77509608D01*
X158135391Y-77390719D01*
X158135387Y-77390716D01*
X157992295Y-77302455D01*
X157992289Y-77302452D01*
X157992287Y-77302451D01*
X157832685Y-77249564D01*
X157832683Y-77249563D01*
X157734181Y-77239500D01*
X157734174Y-77239500D01*
X157200826Y-77239500D01*
X157200818Y-77239500D01*
X157102316Y-77249563D01*
X157102315Y-77249564D01*
X156942714Y-77302450D01*
X156942708Y-77302453D01*
X156912579Y-77321038D01*
X156847481Y-77339500D01*
X155611049Y-77339500D01*
X155544010Y-77319815D01*
X155511783Y-77289811D01*
X155450047Y-77207343D01*
X155450044Y-77207340D01*
X155334835Y-77121094D01*
X155334828Y-77121090D01*
X155199982Y-77070796D01*
X155199983Y-77070796D01*
X155140383Y-77064389D01*
X155140381Y-77064388D01*
X155140373Y-77064388D01*
X155140364Y-77064388D01*
X153444629Y-77064388D01*
X153444623Y-77064389D01*
X153385016Y-77070796D01*
X153275398Y-77111682D01*
X153232065Y-77119500D01*
X152943164Y-77119500D01*
X152878068Y-77101039D01*
X152811840Y-77060189D01*
X152811835Y-77060187D01*
X152811834Y-77060186D01*
X152645297Y-77005001D01*
X152645295Y-77005000D01*
X152542510Y-76994500D01*
X151142498Y-76994500D01*
X151142481Y-76994501D01*
X151039703Y-77005000D01*
X151039700Y-77005001D01*
X150873168Y-77060185D01*
X150873159Y-77060189D01*
X150806932Y-77101039D01*
X150741836Y-77119500D01*
X149753613Y-77119500D01*
X149686574Y-77099815D01*
X149680736Y-77095824D01*
X149604194Y-77040213D01*
X149427132Y-76949994D01*
X149427129Y-76949993D01*
X149238137Y-76888587D01*
X149139998Y-76873043D01*
X149041861Y-76857500D01*
X148843139Y-76857500D01*
X148777714Y-76867862D01*
X148646862Y-76888587D01*
X148457870Y-76949993D01*
X148457867Y-76949994D01*
X148280805Y-77040213D01*
X148120033Y-77157021D01*
X147979521Y-77297533D01*
X147862713Y-77458305D01*
X147772494Y-77635367D01*
X147772493Y-77635370D01*
X147711087Y-77824362D01*
X147686074Y-77982288D01*
X147680000Y-78020639D01*
X135265398Y-78020639D01*
X135265047Y-78019951D01*
X135241233Y-77973213D01*
X135205073Y-77923444D01*
X135139414Y-77833072D01*
X135016928Y-77710586D01*
X134876788Y-77608768D01*
X134722445Y-77530127D01*
X134557701Y-77476598D01*
X134557699Y-77476597D01*
X134557698Y-77476597D01*
X134426271Y-77455781D01*
X134386611Y-77449500D01*
X134213389Y-77449500D01*
X134173728Y-77455781D01*
X134042302Y-77476597D01*
X133877552Y-77530128D01*
X133723211Y-77608768D01*
X133662739Y-77652704D01*
X133583072Y-77710586D01*
X133583070Y-77710588D01*
X133583068Y-77710589D01*
X133539458Y-77754199D01*
X133478135Y-77787683D01*
X133408443Y-77782698D01*
X133352510Y-77740826D01*
X133335596Y-77709850D01*
X133286297Y-77577671D01*
X133286293Y-77577664D01*
X133200047Y-77462455D01*
X133200044Y-77462452D01*
X133084835Y-77376206D01*
X133084828Y-77376202D01*
X132949982Y-77325908D01*
X132949983Y-77325908D01*
X132890383Y-77319501D01*
X132890381Y-77319500D01*
X132890373Y-77319500D01*
X132890364Y-77319500D01*
X129394629Y-77319500D01*
X129394623Y-77319501D01*
X129335016Y-77325908D01*
X129200171Y-77376202D01*
X129200164Y-77376206D01*
X129084955Y-77462452D01*
X129084952Y-77462455D01*
X128998706Y-77577664D01*
X128998702Y-77577671D01*
X128948408Y-77712517D01*
X128942001Y-77772116D01*
X128942000Y-77772135D01*
X75993000Y-77772135D01*
X75993000Y-76494500D01*
X76012685Y-76427461D01*
X76065489Y-76381706D01*
X76117000Y-76370500D01*
X190810211Y-76370500D01*
X190877250Y-76390185D01*
G37*
%TD.AperFunction*%
%TD*%
M02*
