%TF.GenerationSoftware,KiCad,Pcbnew,9.0.5*%
%TF.CreationDate,2025-10-20T01:08:57+02:00*%
%TF.ProjectId,T_umik-do-sondy-w-cz,5442756d-696b-42d6-946f-2d736f6e6479,rev?*%
%TF.SameCoordinates,Original*%
%TF.FileFunction,Copper,L3,Inr*%
%TF.FilePolarity,Positive*%
%FSLAX46Y46*%
G04 Gerber Fmt 4.6, Leading zero omitted, Abs format (unit mm)*
G04 Created by KiCad (PCBNEW 9.0.5) date 2025-10-20 01:08:57*
%MOMM*%
%LPD*%
G01*
G04 APERTURE LIST*
%TA.AperFunction,ComponentPad*%
%ADD10C,3.000000*%
%TD*%
%TA.AperFunction,ComponentPad*%
%ADD11C,1.000000*%
%TD*%
%TA.AperFunction,ViaPad*%
%ADD12C,1.000000*%
%TD*%
G04 APERTURE END LIST*
D10*
%TO.N,GND*%
%TO.C,L2*%
X128100000Y-73200000D03*
X133100000Y-68200000D03*
%TD*%
%TO.N,Net-(L1-Pad1)*%
%TO.C,L1*%
X118410000Y-69750000D03*
X121910000Y-72250000D03*
%TD*%
D11*
%TO.N,GND*%
%TO.C,J1*%
X107500000Y-66340000D03*
X107500000Y-75100000D03*
%TD*%
D12*
%TO.N,GND*%
X108900000Y-73800000D03*
X115200000Y-74000000D03*
X100890000Y-66360000D03*
X100910000Y-75070000D03*
%TD*%
%TA.AperFunction,Conductor*%
%TO.N,GND*%
G36*
X139242539Y-62120185D02*
G01*
X139288294Y-62172989D01*
X139299500Y-62224500D01*
X139299500Y-78975500D01*
X139279815Y-79042539D01*
X139227011Y-79088294D01*
X139175500Y-79099500D01*
X100424500Y-79099500D01*
X100357461Y-79079815D01*
X100311706Y-79027011D01*
X100300500Y-78975500D01*
X100300500Y-72118872D01*
X119909500Y-72118872D01*
X119909500Y-72381127D01*
X119936123Y-72583339D01*
X119943730Y-72641116D01*
X120011602Y-72894418D01*
X120011605Y-72894428D01*
X120111953Y-73136690D01*
X120111958Y-73136700D01*
X120243075Y-73363803D01*
X120402718Y-73571851D01*
X120402726Y-73571860D01*
X120588140Y-73757274D01*
X120588148Y-73757281D01*
X120796196Y-73916924D01*
X121023299Y-74048041D01*
X121023309Y-74048046D01*
X121265571Y-74148394D01*
X121265581Y-74148398D01*
X121518884Y-74216270D01*
X121778880Y-74250500D01*
X121778887Y-74250500D01*
X122041113Y-74250500D01*
X122041120Y-74250500D01*
X122301116Y-74216270D01*
X122554419Y-74148398D01*
X122796697Y-74048043D01*
X123023803Y-73916924D01*
X123231851Y-73757282D01*
X123231855Y-73757277D01*
X123231860Y-73757274D01*
X123417274Y-73571860D01*
X123417277Y-73571855D01*
X123417282Y-73571851D01*
X123576924Y-73363803D01*
X123708043Y-73136697D01*
X123808398Y-72894419D01*
X123876270Y-72641116D01*
X123910500Y-72381120D01*
X123910500Y-72118880D01*
X123876270Y-71858884D01*
X123808398Y-71605581D01*
X123730254Y-71416924D01*
X123708046Y-71363309D01*
X123708041Y-71363299D01*
X123576924Y-71136196D01*
X123417281Y-70928148D01*
X123417274Y-70928140D01*
X123231860Y-70742726D01*
X123231851Y-70742718D01*
X123023803Y-70583075D01*
X122796700Y-70451958D01*
X122796690Y-70451953D01*
X122554428Y-70351605D01*
X122554421Y-70351603D01*
X122554419Y-70351602D01*
X122301116Y-70283730D01*
X122243339Y-70276123D01*
X122041127Y-70249500D01*
X122041120Y-70249500D01*
X121778880Y-70249500D01*
X121778872Y-70249500D01*
X121547772Y-70279926D01*
X121518884Y-70283730D01*
X121265581Y-70351602D01*
X121265571Y-70351605D01*
X121023309Y-70451953D01*
X121023299Y-70451958D01*
X120796196Y-70583075D01*
X120588148Y-70742718D01*
X120402718Y-70928148D01*
X120243075Y-71136196D01*
X120111958Y-71363299D01*
X120111953Y-71363309D01*
X120011605Y-71605571D01*
X120011602Y-71605581D01*
X119981944Y-71716269D01*
X119943730Y-71858885D01*
X119909500Y-72118872D01*
X100300500Y-72118872D01*
X100300500Y-69618872D01*
X116409500Y-69618872D01*
X116409500Y-69881127D01*
X116436123Y-70083339D01*
X116443730Y-70141116D01*
X116500130Y-70351605D01*
X116511602Y-70394418D01*
X116511605Y-70394428D01*
X116611953Y-70636690D01*
X116611958Y-70636700D01*
X116743075Y-70863803D01*
X116902718Y-71071851D01*
X116902726Y-71071860D01*
X117088140Y-71257274D01*
X117088148Y-71257281D01*
X117296196Y-71416924D01*
X117523299Y-71548041D01*
X117523309Y-71548046D01*
X117765571Y-71648394D01*
X117765581Y-71648398D01*
X118018884Y-71716270D01*
X118278880Y-71750500D01*
X118278887Y-71750500D01*
X118541113Y-71750500D01*
X118541120Y-71750500D01*
X118801116Y-71716270D01*
X119054419Y-71648398D01*
X119296697Y-71548043D01*
X119523803Y-71416924D01*
X119731851Y-71257282D01*
X119731855Y-71257277D01*
X119731860Y-71257274D01*
X119917274Y-71071860D01*
X119917277Y-71071855D01*
X119917282Y-71071851D01*
X120076924Y-70863803D01*
X120208043Y-70636697D01*
X120308398Y-70394419D01*
X120376270Y-70141116D01*
X120410500Y-69881120D01*
X120410500Y-69618880D01*
X120376270Y-69358884D01*
X120308398Y-69105581D01*
X120308394Y-69105571D01*
X120208046Y-68863309D01*
X120208041Y-68863299D01*
X120076924Y-68636196D01*
X119917281Y-68428148D01*
X119917274Y-68428140D01*
X119731860Y-68242726D01*
X119731851Y-68242718D01*
X119523803Y-68083075D01*
X119296700Y-67951958D01*
X119296690Y-67951953D01*
X119054428Y-67851605D01*
X119054421Y-67851603D01*
X119054419Y-67851602D01*
X118801116Y-67783730D01*
X118743339Y-67776123D01*
X118541127Y-67749500D01*
X118541120Y-67749500D01*
X118278880Y-67749500D01*
X118278872Y-67749500D01*
X118047772Y-67779926D01*
X118018884Y-67783730D01*
X117765581Y-67851602D01*
X117765571Y-67851605D01*
X117523309Y-67951953D01*
X117523299Y-67951958D01*
X117296196Y-68083075D01*
X117088148Y-68242718D01*
X116902718Y-68428148D01*
X116743075Y-68636196D01*
X116611958Y-68863299D01*
X116611953Y-68863309D01*
X116511605Y-69105571D01*
X116511602Y-69105581D01*
X116443730Y-69358885D01*
X116409500Y-69618872D01*
X100300500Y-69618872D01*
X100300500Y-62224500D01*
X100320185Y-62157461D01*
X100372989Y-62111706D01*
X100424500Y-62100500D01*
X139175500Y-62100500D01*
X139242539Y-62120185D01*
G37*
%TD.AperFunction*%
%TD*%
M02*
