M48
; DRILL file {KiCad (6.0.5)} date Tue May 10 18:56:43 2022
; FORMAT={-:-/ absolute / metric / decimal}
; #@! TF.CreationDate,2022-05-10T18:56:43+02:00
; #@! TF.GenerationSoftware,Kicad,Pcbnew,(6.0.5)
; #@! TF.FileFunction,Plated,1,2,PTH
FMAT,2
METRIC
; #@! TA.AperFunction,Plated,PTH,ViaDrill
T1C0.400
; #@! TA.AperFunction,Plated,PTH,ComponentDrill
T2C0.750
; #@! TA.AperFunction,Plated,PTH,ComponentDrill
T3C1.000
; #@! TA.AperFunction,Plated,PTH,ComponentDrill
T4C1.200
; #@! TA.AperFunction,Plated,PTH,ComponentDrill
T5C2.500
%
G90
G05
T1
X152.2Y-98.1
X152.25Y-89.9
X155.0Y-97.7
X155.05Y-89.6
T2
X147.6Y-111.05
X149.6Y-111.05
X155.5Y-112.15
X157.5Y-112.15
X159.55Y-91.595
X159.55Y-101.755
T3
X138.94Y-82.3
X141.48Y-82.3
X144.02Y-82.3
X146.56Y-82.3
X149.1Y-82.3
X151.64Y-82.3
X154.18Y-82.3
X156.72Y-82.3
X159.26Y-82.3
X161.8Y-82.3
T4
X142.0Y-101.4
X154.7Y-101.4
X166.2Y-88.25
X166.2Y-100.95
T5
X121.0Y-112.7
X121.0Y-119.7
X132.1Y-104.6
X132.1Y-109.662
X132.1Y-114.7
X172.7Y-104.7
X172.7Y-109.762
X172.7Y-114.8
X183.3Y-112.7
X183.3Y-119.7
T0
M30
