%FSLAX45Y45*%
G04 Gerber Fmt 4.5, Leading zero omitted, Abs format (unit mm)*
G04 Created by KiCad (PCBNEW (6.0.5)) date 2022-05-10 18:56:44*
%MOMM*%
%LPD*%
G01*
G04 APERTURE LIST*
%TA.AperFunction,Profile*%
%ADD10C,0.100000*%
%TD*%
%ADD11C,0.200000*%
G04 APERTURE END LIST*
D10*
X11720000Y-7730000D02*
X18720000Y-7730000D01*
X18720000Y-7730000D02*
X18720000Y-12330000D01*
X18720000Y-12330000D02*
X11720000Y-12330000D01*
X11720000Y-12330000D02*
X11720000Y-7730000D01*
D11*
X11972619Y-12645476D02*
X11972619Y-12445476D01*
X12020238Y-12445476D01*
X12048809Y-12455000D01*
X12067857Y-12474048D01*
X12077381Y-12493095D01*
X12086905Y-12531190D01*
X12086905Y-12559762D01*
X12077381Y-12597857D01*
X12067857Y-12616905D01*
X12048809Y-12635952D01*
X12020238Y-12645476D01*
X11972619Y-12645476D01*
X12172619Y-12645476D02*
X12172619Y-12512143D01*
X12172619Y-12550238D02*
X12182143Y-12531190D01*
X12191667Y-12521667D01*
X12210714Y-12512143D01*
X12229762Y-12512143D01*
X12296428Y-12645476D02*
X12296428Y-12512143D01*
X12296428Y-12445476D02*
X12286905Y-12455000D01*
X12296428Y-12464524D01*
X12305952Y-12455000D01*
X12296428Y-12445476D01*
X12296428Y-12464524D01*
X12420238Y-12645476D02*
X12401190Y-12635952D01*
X12391667Y-12616905D01*
X12391667Y-12445476D01*
X12525000Y-12645476D02*
X12505952Y-12635952D01*
X12496428Y-12616905D01*
X12496428Y-12445476D01*
X12753571Y-12645476D02*
X12753571Y-12445476D01*
X12820238Y-12588333D01*
X12886905Y-12445476D01*
X12886905Y-12645476D01*
X13067857Y-12645476D02*
X13067857Y-12540714D01*
X13058333Y-12521667D01*
X13039286Y-12512143D01*
X13001190Y-12512143D01*
X12982143Y-12521667D01*
X13067857Y-12635952D02*
X13048809Y-12645476D01*
X13001190Y-12645476D01*
X12982143Y-12635952D01*
X12972619Y-12616905D01*
X12972619Y-12597857D01*
X12982143Y-12578809D01*
X13001190Y-12569286D01*
X13048809Y-12569286D01*
X13067857Y-12559762D01*
X13163095Y-12512143D02*
X13163095Y-12712143D01*
X13163095Y-12521667D02*
X13182143Y-12512143D01*
X13220238Y-12512143D01*
X13239286Y-12521667D01*
X13248809Y-12531190D01*
X13258333Y-12550238D01*
X13258333Y-12607381D01*
X13248809Y-12626428D01*
X13239286Y-12635952D01*
X13220238Y-12645476D01*
X13182143Y-12645476D01*
X13163095Y-12635952D01*
X13344048Y-12626428D02*
X13353571Y-12635952D01*
X13344048Y-12645476D01*
X13334524Y-12635952D01*
X13344048Y-12626428D01*
X13344048Y-12645476D01*
X13344048Y-12521667D02*
X13353571Y-12531190D01*
X13344048Y-12540714D01*
X13334524Y-12531190D01*
X13344048Y-12521667D01*
X13344048Y-12540714D01*
M02*
