%TF.GenerationSoftware,KiCad,Pcbnew,7.0.9*%
%TF.CreationDate,2023-11-29T13:30:09+01:00*%
%TF.ProjectId,Wzmacniacz r__nicowy do PW3015 ver.3,577a6d61-636e-4696-9163-7a2072f37c6e,rev?*%
%TF.SameCoordinates,Original*%
%TF.FileFunction,Drillmap*%
%TF.FilePolarity,Positive*%
%FSLAX45Y45*%
G04 Gerber Fmt 4.5, Leading zero omitted, Abs format (unit mm)*
G04 Created by KiCad (PCBNEW 7.0.9) date 2023-11-29 13:30:09*
%MOMM*%
%LPD*%
G01*
G04 APERTURE LIST*
%ADD10C,0.100000*%
%ADD11C,0.200000*%
G04 APERTURE END LIST*
D10*
X16400000Y-9000000D02*
X19900000Y-9000000D01*
X19900000Y-11300000D01*
X16400000Y-11300000D01*
X16400000Y-9000000D01*
D11*
X16655777Y-11616484D02*
X16655777Y-11416484D01*
X16655777Y-11416484D02*
X16703396Y-11416484D01*
X16703396Y-11416484D02*
X16731967Y-11426008D01*
X16731967Y-11426008D02*
X16751015Y-11445055D01*
X16751015Y-11445055D02*
X16760539Y-11464103D01*
X16760539Y-11464103D02*
X16770062Y-11502198D01*
X16770062Y-11502198D02*
X16770062Y-11530769D01*
X16770062Y-11530769D02*
X16760539Y-11568865D01*
X16760539Y-11568865D02*
X16751015Y-11587912D01*
X16751015Y-11587912D02*
X16731967Y-11606960D01*
X16731967Y-11606960D02*
X16703396Y-11616484D01*
X16703396Y-11616484D02*
X16655777Y-11616484D01*
X16855777Y-11616484D02*
X16855777Y-11483150D01*
X16855777Y-11521246D02*
X16865301Y-11502198D01*
X16865301Y-11502198D02*
X16874824Y-11492674D01*
X16874824Y-11492674D02*
X16893872Y-11483150D01*
X16893872Y-11483150D02*
X16912920Y-11483150D01*
X16979586Y-11616484D02*
X16979586Y-11483150D01*
X16979586Y-11416484D02*
X16970063Y-11426008D01*
X16970063Y-11426008D02*
X16979586Y-11435531D01*
X16979586Y-11435531D02*
X16989110Y-11426008D01*
X16989110Y-11426008D02*
X16979586Y-11416484D01*
X16979586Y-11416484D02*
X16979586Y-11435531D01*
X17103396Y-11616484D02*
X17084348Y-11606960D01*
X17084348Y-11606960D02*
X17074824Y-11587912D01*
X17074824Y-11587912D02*
X17074824Y-11416484D01*
X17208158Y-11616484D02*
X17189110Y-11606960D01*
X17189110Y-11606960D02*
X17179586Y-11587912D01*
X17179586Y-11587912D02*
X17179586Y-11416484D01*
X17436729Y-11616484D02*
X17436729Y-11416484D01*
X17436729Y-11416484D02*
X17503396Y-11559341D01*
X17503396Y-11559341D02*
X17570063Y-11416484D01*
X17570063Y-11416484D02*
X17570063Y-11616484D01*
X17751015Y-11616484D02*
X17751015Y-11511722D01*
X17751015Y-11511722D02*
X17741491Y-11492674D01*
X17741491Y-11492674D02*
X17722444Y-11483150D01*
X17722444Y-11483150D02*
X17684348Y-11483150D01*
X17684348Y-11483150D02*
X17665301Y-11492674D01*
X17751015Y-11606960D02*
X17731967Y-11616484D01*
X17731967Y-11616484D02*
X17684348Y-11616484D01*
X17684348Y-11616484D02*
X17665301Y-11606960D01*
X17665301Y-11606960D02*
X17655777Y-11587912D01*
X17655777Y-11587912D02*
X17655777Y-11568865D01*
X17655777Y-11568865D02*
X17665301Y-11549817D01*
X17665301Y-11549817D02*
X17684348Y-11540293D01*
X17684348Y-11540293D02*
X17731967Y-11540293D01*
X17731967Y-11540293D02*
X17751015Y-11530769D01*
X17846253Y-11483150D02*
X17846253Y-11683150D01*
X17846253Y-11492674D02*
X17865301Y-11483150D01*
X17865301Y-11483150D02*
X17903396Y-11483150D01*
X17903396Y-11483150D02*
X17922444Y-11492674D01*
X17922444Y-11492674D02*
X17931967Y-11502198D01*
X17931967Y-11502198D02*
X17941491Y-11521246D01*
X17941491Y-11521246D02*
X17941491Y-11578388D01*
X17941491Y-11578388D02*
X17931967Y-11597436D01*
X17931967Y-11597436D02*
X17922444Y-11606960D01*
X17922444Y-11606960D02*
X17903396Y-11616484D01*
X17903396Y-11616484D02*
X17865301Y-11616484D01*
X17865301Y-11616484D02*
X17846253Y-11606960D01*
X18027205Y-11597436D02*
X18036729Y-11606960D01*
X18036729Y-11606960D02*
X18027205Y-11616484D01*
X18027205Y-11616484D02*
X18017682Y-11606960D01*
X18017682Y-11606960D02*
X18027205Y-11597436D01*
X18027205Y-11597436D02*
X18027205Y-11616484D01*
X18027205Y-11492674D02*
X18036729Y-11502198D01*
X18036729Y-11502198D02*
X18027205Y-11511722D01*
X18027205Y-11511722D02*
X18017682Y-11502198D01*
X18017682Y-11502198D02*
X18027205Y-11492674D01*
X18027205Y-11492674D02*
X18027205Y-11511722D01*
M02*
