%TF.GenerationSoftware,KiCad,Pcbnew,7.0.9*%
%TF.CreationDate,2023-11-29T13:30:04+01:00*%
%TF.ProjectId,Wzmacniacz r__nicowy do PW3015 ver.3,577a6d61-636e-4696-9163-7a2072f37c6e,rev?*%
%TF.SameCoordinates,Original*%
%TF.FileFunction,Copper,L2,Bot*%
%TF.FilePolarity,Positive*%
%FSLAX46Y46*%
G04 Gerber Fmt 4.6, Leading zero omitted, Abs format (unit mm)*
G04 Created by KiCad (PCBNEW 7.0.9) date 2023-11-29 13:30:04*
%MOMM*%
%LPD*%
G01*
G04 APERTURE LIST*
G04 Aperture macros list*
%AMRoundRect*
0 Rectangle with rounded corners*
0 $1 Rounding radius*
0 $2 $3 $4 $5 $6 $7 $8 $9 X,Y pos of 4 corners*
0 Add a 4 corners polygon primitive as box body*
4,1,4,$2,$3,$4,$5,$6,$7,$8,$9,$2,$3,0*
0 Add four circle primitives for the rounded corners*
1,1,$1+$1,$2,$3*
1,1,$1+$1,$4,$5*
1,1,$1+$1,$6,$7*
1,1,$1+$1,$8,$9*
0 Add four rect primitives between the rounded corners*
20,1,$1+$1,$2,$3,$4,$5,0*
20,1,$1+$1,$4,$5,$6,$7,0*
20,1,$1+$1,$6,$7,$8,$9,0*
20,1,$1+$1,$8,$9,$2,$3,0*%
G04 Aperture macros list end*
%TA.AperFunction,ComponentPad*%
%ADD10R,2.300000X2.300000*%
%TD*%
%TA.AperFunction,ComponentPad*%
%ADD11O,2.300000X2.300000*%
%TD*%
%TA.AperFunction,ComponentPad*%
%ADD12R,2.000000X2.000000*%
%TD*%
%TA.AperFunction,ComponentPad*%
%ADD13C,2.000000*%
%TD*%
%TA.AperFunction,ComponentPad*%
%ADD14C,2.300000*%
%TD*%
%TA.AperFunction,ComponentPad*%
%ADD15R,2.200000X2.200000*%
%TD*%
%TA.AperFunction,ComponentPad*%
%ADD16C,2.200000*%
%TD*%
%TA.AperFunction,ComponentPad*%
%ADD17R,2.500000X2.500000*%
%TD*%
%TA.AperFunction,ComponentPad*%
%ADD18C,2.500000*%
%TD*%
%TA.AperFunction,SMDPad,CuDef*%
%ADD19RoundRect,0.250000X0.400000X0.625000X-0.400000X0.625000X-0.400000X-0.625000X0.400000X-0.625000X0*%
%TD*%
%TA.AperFunction,SMDPad,CuDef*%
%ADD20RoundRect,0.250000X0.625000X-0.400000X0.625000X0.400000X-0.625000X0.400000X-0.625000X-0.400000X0*%
%TD*%
%TA.AperFunction,SMDPad,CuDef*%
%ADD21RoundRect,0.150000X0.150000X-0.587500X0.150000X0.587500X-0.150000X0.587500X-0.150000X-0.587500X0*%
%TD*%
%TA.AperFunction,SMDPad,CuDef*%
%ADD22RoundRect,0.250000X-0.400000X-0.625000X0.400000X-0.625000X0.400000X0.625000X-0.400000X0.625000X0*%
%TD*%
%TA.AperFunction,SMDPad,CuDef*%
%ADD23RoundRect,0.250000X-0.475000X0.337500X-0.475000X-0.337500X0.475000X-0.337500X0.475000X0.337500X0*%
%TD*%
%TA.AperFunction,Conductor*%
%ADD24C,1.000000*%
%TD*%
G04 APERTURE END LIST*
D10*
%TO.P,D2,1,K*%
%TO.N,Net-(D2-K)*%
X185285000Y-94500000D03*
D11*
%TO.P,D2,2,A*%
%TO.N,GND*%
X192905000Y-94500000D03*
%TD*%
D10*
%TO.P,J2,1,Pin_1*%
%TO.N,GND*%
X196200000Y-94575000D03*
%TD*%
D12*
%TO.P,C8,1*%
%TO.N,Net-(D1-A)*%
X181382323Y-107500000D03*
D13*
%TO.P,C8,2*%
%TO.N,GND*%
X188882323Y-107500000D03*
%TD*%
D10*
%TO.P,C4,1*%
%TO.N,Net-(D2-K)*%
X191500000Y-101700000D03*
D14*
%TO.P,C4,2*%
%TO.N,GND*%
X196500000Y-101700000D03*
%TD*%
D15*
%TO.P,Q2,1,C*%
%TO.N,Net-(Q2-C)*%
X182360000Y-99740000D03*
D14*
%TO.P,Q2,2,B*%
%TO.N,Net-(D2-K)*%
X184900000Y-97200000D03*
%TO.P,Q2,3,E*%
%TO.N,Net-(Q2-E)*%
X187440000Y-99740000D03*
%TD*%
D15*
%TO.P,D1,1,K*%
%TO.N,Net-(D1-K)*%
X176500000Y-106100000D03*
D16*
%TO.P,D1,2,A*%
%TO.N,Net-(D1-A)*%
X176500000Y-108640000D03*
%TD*%
D17*
%TO.P,J3,1,Pin_1*%
%TO.N,Net-(J3-Pin_1)*%
X166275000Y-94375000D03*
D18*
%TO.P,J3,3,Pin_3*%
%TO.N,Net-(J3-Pin_3)*%
X171355000Y-94375000D03*
%TD*%
D17*
%TO.P,C2,1*%
%TO.N,Net-(D1-A)*%
X177600000Y-102800000D03*
D18*
%TO.P,C2,2*%
%TO.N,Net-(Q9-B)*%
X177600000Y-97800000D03*
%TD*%
D19*
%TO.P,R1,1*%
%TO.N,Net-(D1-A)*%
X169250000Y-107100000D03*
%TO.P,R1,2*%
%TO.N,Net-(Q1-E)*%
X166150000Y-107100000D03*
%TD*%
D20*
%TO.P,R3,1*%
%TO.N,Net-(Q9-B)*%
X174000000Y-99550000D03*
%TO.P,R3,2*%
%TO.N,GND*%
X174000000Y-96450000D03*
%TD*%
D21*
%TO.P,Q1,1,B*%
%TO.N,Net-(D1-K)*%
X167900000Y-104400000D03*
%TO.P,Q1,2,E*%
%TO.N,Net-(Q1-E)*%
X166000000Y-104400000D03*
%TO.P,Q1,3,C*%
%TO.N,Net-(Q1-C)*%
X166950000Y-102525000D03*
%TD*%
D22*
%TO.P,R10,1*%
%TO.N,Net-(Q2-C)*%
X186350000Y-104700000D03*
%TO.P,R10,2*%
%TO.N,Net-(D2-K)*%
X189450000Y-104700000D03*
%TD*%
D21*
%TO.P,Q9,1,B*%
%TO.N,Net-(Q9-B)*%
X167850000Y-100175000D03*
%TO.P,Q9,2,E*%
%TO.N,Net-(Q1-C)*%
X165950000Y-100175000D03*
%TO.P,Q9,3,C*%
%TO.N,Net-(J3-Pin_1)*%
X166900000Y-98300000D03*
%TD*%
D20*
%TO.P,R2,1*%
%TO.N,Net-(D1-K)*%
X171100000Y-103350000D03*
%TO.P,R2,2*%
%TO.N,Net-(Q9-B)*%
X171100000Y-100250000D03*
%TD*%
D22*
%TO.P,R11,1*%
%TO.N,Net-(D1-A)*%
X180950000Y-102800000D03*
%TO.P,R11,2*%
%TO.N,Net-(Q2-E)*%
X184050000Y-102800000D03*
%TD*%
%TO.P,R4,1*%
%TO.N,Net-(J3-Pin_3)*%
X179450000Y-95000000D03*
%TO.P,R4,2*%
%TO.N,Net-(Q2-C)*%
X182550000Y-95000000D03*
%TD*%
D23*
%TO.P,C9,1*%
%TO.N,Net-(D1-A)*%
X171900000Y-106062500D03*
%TO.P,C9,2*%
%TO.N,GND*%
X171900000Y-108137500D03*
%TD*%
D24*
%TO.N,Net-(D1-A)*%
X180950000Y-107067677D02*
X180950000Y-102800000D01*
X181382323Y-107500000D02*
X180950000Y-107067677D01*
X180242323Y-108640000D02*
X181382323Y-107500000D01*
X176500000Y-108640000D02*
X180242323Y-108640000D01*
X172352500Y-106062500D02*
X171900000Y-106062500D01*
X177600000Y-102800000D02*
X180950000Y-102800000D01*
X176500000Y-108640000D02*
X174930000Y-108640000D01*
X174930000Y-108640000D02*
X172352500Y-106062500D01*
X170287500Y-106062500D02*
X171900000Y-106062500D01*
X169250000Y-107100000D02*
X170287500Y-106062500D01*
%TO.N,Net-(Q9-B)*%
X177600000Y-97800000D02*
X177600000Y-98000000D01*
X175350000Y-100250000D02*
X171100000Y-100250000D01*
X167850000Y-100175000D02*
X171025000Y-100175000D01*
X177600000Y-98000000D02*
X175350000Y-100250000D01*
X171025000Y-100175000D02*
X171100000Y-100250000D01*
%TO.N,Net-(D2-K)*%
X189450000Y-103750000D02*
X191500000Y-101700000D01*
X184900000Y-97200000D02*
X184900000Y-94885000D01*
X189450000Y-104700000D02*
X189450000Y-103750000D01*
X184900000Y-94885000D02*
X185285000Y-94500000D01*
X191500000Y-99800000D02*
X191500000Y-101700000D01*
X185500000Y-97800000D02*
X189500000Y-97800000D01*
X189500000Y-97800000D02*
X191500000Y-99800000D01*
X184900000Y-97200000D02*
X185500000Y-97800000D01*
%TO.N,Net-(D1-K)*%
X176500000Y-106100000D02*
X173750000Y-103350000D01*
X173750000Y-103350000D02*
X171100000Y-103350000D01*
X167900000Y-104400000D02*
X170050000Y-104400000D01*
X170050000Y-104400000D02*
X171100000Y-103350000D01*
%TO.N,Net-(Q1-E)*%
X166150000Y-104550000D02*
X166000000Y-104400000D01*
X166150000Y-107100000D02*
X166150000Y-104550000D01*
%TO.N,Net-(Q1-C)*%
X165950000Y-100175000D02*
X165950000Y-101525000D01*
X165950000Y-101525000D02*
X166950000Y-102525000D01*
%TO.N,Net-(Q2-E)*%
X184050000Y-102800000D02*
X184380000Y-102800000D01*
X184380000Y-102800000D02*
X187440000Y-99740000D01*
%TO.N,Net-(J3-Pin_3)*%
X178650000Y-94200000D02*
X179450000Y-95000000D01*
X171355000Y-94375000D02*
X171530000Y-94200000D01*
X171530000Y-94200000D02*
X178650000Y-94200000D01*
%TO.N,Net-(J3-Pin_1)*%
X166900000Y-95000000D02*
X166275000Y-94375000D01*
X166900000Y-98300000D02*
X166900000Y-95000000D01*
%TO.N,Net-(Q2-C)*%
X182550000Y-99550000D02*
X182360000Y-99740000D01*
X182360000Y-103960000D02*
X183100000Y-104700000D01*
X183100000Y-104700000D02*
X186350000Y-104700000D01*
X182550000Y-95000000D02*
X182550000Y-99550000D01*
X182360000Y-99740000D02*
X182360000Y-103960000D01*
%TD*%
%TA.AperFunction,Conductor*%
%TO.N,GND*%
G36*
X198942539Y-90020185D02*
G01*
X198988294Y-90072989D01*
X198999500Y-90124500D01*
X198999500Y-112875500D01*
X198979815Y-112942539D01*
X198927011Y-112988294D01*
X198875500Y-112999500D01*
X164124500Y-112999500D01*
X164057461Y-112979815D01*
X164011706Y-112927011D01*
X164000500Y-112875500D01*
X164000500Y-103624000D01*
X164020185Y-103556961D01*
X164072989Y-103511206D01*
X164124500Y-103500000D01*
X165098240Y-103500000D01*
X165165279Y-103519685D01*
X165211034Y-103572489D01*
X165220978Y-103641647D01*
X165217316Y-103658595D01*
X165202402Y-103709926D01*
X165202401Y-103709932D01*
X165199500Y-103746804D01*
X165199500Y-103759111D01*
X165179815Y-103826150D01*
X165175448Y-103832503D01*
X165133352Y-103889829D01*
X165133349Y-103889835D01*
X165048397Y-104074725D01*
X165048393Y-104074737D01*
X165002396Y-104272945D01*
X164997242Y-104476358D01*
X165033140Y-104676648D01*
X165033142Y-104676654D01*
X165108622Y-104865615D01*
X165108627Y-104865623D01*
X165129035Y-104896588D01*
X165149492Y-104963396D01*
X165149500Y-104964826D01*
X165149500Y-105983804D01*
X165131039Y-106048900D01*
X165065189Y-106155659D01*
X165065186Y-106155666D01*
X165010001Y-106322203D01*
X165010001Y-106322204D01*
X165010000Y-106322204D01*
X164999500Y-106424983D01*
X164999500Y-107775001D01*
X164999501Y-107775018D01*
X165010000Y-107877796D01*
X165010001Y-107877799D01*
X165065185Y-108044331D01*
X165065186Y-108044334D01*
X165157288Y-108193656D01*
X165281344Y-108317712D01*
X165430666Y-108409814D01*
X165597203Y-108464999D01*
X165699991Y-108475500D01*
X166600008Y-108475499D01*
X166600016Y-108475498D01*
X166600019Y-108475498D01*
X166656302Y-108469748D01*
X166702797Y-108464999D01*
X166869334Y-108409814D01*
X167018656Y-108317712D01*
X167142712Y-108193656D01*
X167234814Y-108044334D01*
X167289999Y-107877797D01*
X167300500Y-107775009D01*
X167300499Y-106424992D01*
X167289999Y-106322203D01*
X167234814Y-106155666D01*
X167226665Y-106142455D01*
X167168961Y-106048900D01*
X167150500Y-105983804D01*
X167150500Y-105605395D01*
X167170185Y-105538356D01*
X167222989Y-105492601D01*
X167292147Y-105482657D01*
X167340496Y-105503171D01*
X167341420Y-105501610D01*
X167382034Y-105525628D01*
X167489602Y-105589244D01*
X167531224Y-105601336D01*
X167647426Y-105635097D01*
X167647429Y-105635097D01*
X167647431Y-105635098D01*
X167659722Y-105636065D01*
X167684304Y-105638000D01*
X167684306Y-105638000D01*
X168115696Y-105638000D01*
X168134131Y-105636549D01*
X168152569Y-105635098D01*
X168152571Y-105635097D01*
X168152573Y-105635097D01*
X168194191Y-105623005D01*
X168310398Y-105589244D01*
X168451865Y-105505581D01*
X168520628Y-105436817D01*
X168581949Y-105403334D01*
X168608308Y-105400500D01*
X169235217Y-105400500D01*
X169302256Y-105420185D01*
X169348011Y-105472989D01*
X169357955Y-105542147D01*
X169328930Y-105605703D01*
X169322906Y-105612172D01*
X169275539Y-105659540D01*
X169246897Y-105688182D01*
X169185573Y-105721666D01*
X169159216Y-105724500D01*
X168799998Y-105724500D01*
X168799980Y-105724501D01*
X168697203Y-105735000D01*
X168697200Y-105735001D01*
X168530668Y-105790185D01*
X168530663Y-105790187D01*
X168381342Y-105882289D01*
X168257289Y-106006342D01*
X168165187Y-106155663D01*
X168165186Y-106155666D01*
X168110001Y-106322203D01*
X168110001Y-106322204D01*
X168110000Y-106322204D01*
X168099500Y-106424983D01*
X168099500Y-107775001D01*
X168099501Y-107775018D01*
X168110000Y-107877796D01*
X168110001Y-107877799D01*
X168165185Y-108044331D01*
X168165186Y-108044334D01*
X168257288Y-108193656D01*
X168381344Y-108317712D01*
X168530666Y-108409814D01*
X168697203Y-108464999D01*
X168799991Y-108475500D01*
X169700008Y-108475499D01*
X169700016Y-108475498D01*
X169700019Y-108475498D01*
X169756302Y-108469748D01*
X169802797Y-108464999D01*
X169969334Y-108409814D01*
X170118656Y-108317712D01*
X170242712Y-108193656D01*
X170334814Y-108044334D01*
X170389999Y-107877797D01*
X170400500Y-107775009D01*
X170400499Y-107415781D01*
X170420183Y-107348743D01*
X170436809Y-107328110D01*
X170665603Y-107099316D01*
X170726925Y-107065834D01*
X170753283Y-107063000D01*
X171035134Y-107063000D01*
X171100231Y-107081461D01*
X171105666Y-107084814D01*
X171272203Y-107139999D01*
X171374991Y-107150500D01*
X171974216Y-107150499D01*
X172041255Y-107170183D01*
X172061897Y-107186818D01*
X174213566Y-109338487D01*
X174274941Y-109403053D01*
X174274944Y-109403055D01*
X174274945Y-109403056D01*
X174325295Y-109438101D01*
X174329047Y-109440929D01*
X174376592Y-109479697D01*
X174376595Y-109479698D01*
X174376597Y-109479700D01*
X174407039Y-109495601D01*
X174413753Y-109499668D01*
X174441947Y-109519292D01*
X174441953Y-109519296D01*
X174498331Y-109543490D01*
X174502569Y-109545502D01*
X174556951Y-109573909D01*
X174589973Y-109583356D01*
X174597365Y-109585989D01*
X174628940Y-109599539D01*
X174628941Y-109599540D01*
X174642054Y-109602234D01*
X174689055Y-109611892D01*
X174693595Y-109613006D01*
X174752582Y-109629886D01*
X174786841Y-109632494D01*
X174794609Y-109633585D01*
X174828255Y-109640500D01*
X174828259Y-109640500D01*
X174889601Y-109640500D01*
X174894308Y-109640678D01*
X174921597Y-109642757D01*
X174955475Y-109645337D01*
X174955475Y-109645336D01*
X174955476Y-109645337D01*
X174989559Y-109640996D01*
X174997389Y-109640500D01*
X175192547Y-109640500D01*
X175259586Y-109660185D01*
X175286833Y-109683965D01*
X175364776Y-109775224D01*
X175556343Y-109938838D01*
X175556346Y-109938839D01*
X175771140Y-110070466D01*
X176003889Y-110166873D01*
X176248852Y-110225683D01*
X176500000Y-110245449D01*
X176751148Y-110225683D01*
X176996111Y-110166873D01*
X177228859Y-110070466D01*
X177443659Y-109938836D01*
X177635224Y-109775224D01*
X177713164Y-109683967D01*
X177771669Y-109645775D01*
X177807453Y-109640500D01*
X180229607Y-109640500D01*
X180318681Y-109642757D01*
X180318681Y-109642756D01*
X180318686Y-109642757D01*
X180379076Y-109631932D01*
X180383735Y-109631280D01*
X180425930Y-109626988D01*
X180444761Y-109625074D01*
X180477550Y-109614786D01*
X180485163Y-109612918D01*
X180518976Y-109606858D01*
X180575944Y-109584101D01*
X180580376Y-109582524D01*
X180638911Y-109564159D01*
X180668950Y-109547484D01*
X180676031Y-109544122D01*
X180707940Y-109531377D01*
X180759177Y-109497608D01*
X180763174Y-109495187D01*
X180816825Y-109465409D01*
X180842891Y-109443030D01*
X180849166Y-109438300D01*
X180849468Y-109438101D01*
X180877842Y-109419402D01*
X180921240Y-109376002D01*
X180924659Y-109372834D01*
X180971218Y-109332866D01*
X180992254Y-109305688D01*
X180997424Y-109299818D01*
X181260425Y-109036818D01*
X181321748Y-109003333D01*
X181348106Y-109000499D01*
X182430194Y-109000499D01*
X182430195Y-109000499D01*
X182489806Y-108994091D01*
X182624654Y-108943796D01*
X182739869Y-108857546D01*
X182826119Y-108742331D01*
X182876414Y-108607483D01*
X182882823Y-108547873D01*
X182882822Y-106452128D01*
X182876414Y-106392517D01*
X182850187Y-106322200D01*
X182826120Y-106257671D01*
X182826116Y-106257664D01*
X182739870Y-106142455D01*
X182739867Y-106142452D01*
X182624658Y-106056206D01*
X182624651Y-106056202D01*
X182489805Y-106005908D01*
X182489806Y-106005908D01*
X182430206Y-105999501D01*
X182430204Y-105999500D01*
X182430196Y-105999500D01*
X182430188Y-105999500D01*
X182074500Y-105999500D01*
X182007461Y-105979815D01*
X181961706Y-105927011D01*
X181950500Y-105875500D01*
X181950500Y-105264782D01*
X181970185Y-105197743D01*
X182022989Y-105151988D01*
X182092147Y-105142044D01*
X182155703Y-105171069D01*
X182162181Y-105177101D01*
X182383548Y-105398468D01*
X182444941Y-105463053D01*
X182444944Y-105463055D01*
X182444947Y-105463058D01*
X182466127Y-105477799D01*
X182495303Y-105498106D01*
X182499044Y-105500926D01*
X182546593Y-105539698D01*
X182577045Y-105555604D01*
X182583758Y-105559672D01*
X182611951Y-105579295D01*
X182668329Y-105603489D01*
X182672578Y-105605507D01*
X182726951Y-105633909D01*
X182754489Y-105641788D01*
X182759974Y-105643358D01*
X182767368Y-105645990D01*
X182798942Y-105659540D01*
X182798945Y-105659540D01*
X182798946Y-105659541D01*
X182859022Y-105671887D01*
X182863600Y-105673010D01*
X182877501Y-105676987D01*
X182922582Y-105689887D01*
X182956839Y-105692495D01*
X182964614Y-105693586D01*
X182998255Y-105700500D01*
X182998259Y-105700500D01*
X183059598Y-105700500D01*
X183064304Y-105700678D01*
X183099062Y-105703325D01*
X183125475Y-105705337D01*
X183125475Y-105705336D01*
X183125476Y-105705337D01*
X183159559Y-105700996D01*
X183167389Y-105700500D01*
X185230622Y-105700500D01*
X185297661Y-105720185D01*
X185336159Y-105759401D01*
X185357288Y-105793656D01*
X185481344Y-105917712D01*
X185630666Y-106009814D01*
X185797203Y-106064999D01*
X185899991Y-106075500D01*
X186800008Y-106075499D01*
X186800016Y-106075498D01*
X186800019Y-106075498D01*
X186856302Y-106069748D01*
X186902797Y-106064999D01*
X187069334Y-106009814D01*
X187218656Y-105917712D01*
X187342712Y-105793656D01*
X187434814Y-105644334D01*
X187489999Y-105477797D01*
X187500500Y-105375009D01*
X187500499Y-104024992D01*
X187489999Y-103922203D01*
X187434814Y-103755666D01*
X187342712Y-103606344D01*
X187218656Y-103482288D01*
X187101417Y-103409975D01*
X187069336Y-103390187D01*
X187069331Y-103390185D01*
X187034801Y-103378743D01*
X186902797Y-103335001D01*
X186902795Y-103335000D01*
X186800010Y-103324500D01*
X185899998Y-103324500D01*
X185899980Y-103324501D01*
X185797203Y-103335000D01*
X185797200Y-103335001D01*
X185630668Y-103390185D01*
X185630663Y-103390187D01*
X185481345Y-103482287D01*
X185412180Y-103551452D01*
X185350856Y-103584936D01*
X185281165Y-103579951D01*
X185225231Y-103538080D01*
X185200815Y-103472615D01*
X185200499Y-103463794D01*
X185200499Y-103445779D01*
X185220184Y-103378743D01*
X185236813Y-103358106D01*
X187176456Y-101418463D01*
X187237777Y-101384980D01*
X187273857Y-101382528D01*
X187440000Y-101395604D01*
X187698994Y-101375221D01*
X187951610Y-101314573D01*
X188191628Y-101215154D01*
X188413140Y-101079412D01*
X188610689Y-100910689D01*
X188779412Y-100713140D01*
X188915154Y-100491628D01*
X189014573Y-100251610D01*
X189075221Y-99998994D01*
X189095604Y-99740000D01*
X189075221Y-99481006D01*
X189014573Y-99228390D01*
X188915154Y-98988372D01*
X188915150Y-98988366D01*
X188912946Y-98984040D01*
X188914134Y-98983434D01*
X188897471Y-98921854D01*
X188918582Y-98855250D01*
X188972350Y-98810632D01*
X189021443Y-98800500D01*
X189034217Y-98800500D01*
X189101256Y-98820185D01*
X189121898Y-98836819D01*
X190177802Y-99892723D01*
X190211287Y-99954046D01*
X190206303Y-100023738D01*
X190164431Y-100079671D01*
X190133455Y-100096586D01*
X190107670Y-100106203D01*
X190107664Y-100106206D01*
X189992455Y-100192452D01*
X189992452Y-100192455D01*
X189906206Y-100307664D01*
X189906202Y-100307671D01*
X189855908Y-100442517D01*
X189849501Y-100502116D01*
X189849501Y-100502123D01*
X189849500Y-100502135D01*
X189849500Y-101884216D01*
X189829815Y-101951255D01*
X189813181Y-101971897D01*
X188751532Y-103033546D01*
X188686946Y-103094942D01*
X188651899Y-103145294D01*
X188649062Y-103149056D01*
X188610302Y-103196592D01*
X188610299Y-103196597D01*
X188594392Y-103227047D01*
X188590324Y-103233761D01*
X188570702Y-103261954D01*
X188546509Y-103318330D01*
X188544488Y-103322584D01*
X188516091Y-103376951D01*
X188516090Y-103376952D01*
X188506640Y-103409975D01*
X188504007Y-103417371D01*
X188490459Y-103448943D01*
X188478113Y-103509019D01*
X188476990Y-103513595D01*
X188460114Y-103572577D01*
X188460110Y-103572595D01*
X188459863Y-103575845D01*
X188459116Y-103578139D01*
X188459003Y-103578775D01*
X188458915Y-103578759D01*
X188441761Y-103631515D01*
X188365190Y-103755659D01*
X188365185Y-103755668D01*
X188346616Y-103811706D01*
X188310001Y-103922203D01*
X188310001Y-103922204D01*
X188310000Y-103922204D01*
X188299500Y-104024983D01*
X188299500Y-105375001D01*
X188299501Y-105375018D01*
X188310000Y-105477796D01*
X188310001Y-105477799D01*
X188365185Y-105644331D01*
X188365187Y-105644336D01*
X188393283Y-105689887D01*
X188457288Y-105793656D01*
X188581344Y-105917712D01*
X188730666Y-106009814D01*
X188897203Y-106064999D01*
X188999991Y-106075500D01*
X189900008Y-106075499D01*
X189900016Y-106075498D01*
X189900019Y-106075498D01*
X189956302Y-106069748D01*
X190002797Y-106064999D01*
X190169334Y-106009814D01*
X190318656Y-105917712D01*
X190442712Y-105793656D01*
X190534814Y-105644334D01*
X190589999Y-105477797D01*
X190600500Y-105375009D01*
X190600499Y-104065781D01*
X190620184Y-103998743D01*
X190636814Y-103978105D01*
X191228101Y-103386817D01*
X191289424Y-103353333D01*
X191315782Y-103350499D01*
X192697871Y-103350499D01*
X192697872Y-103350499D01*
X192757483Y-103344091D01*
X192892331Y-103293796D01*
X193007546Y-103207546D01*
X193093796Y-103092331D01*
X193144091Y-102957483D01*
X193150500Y-102897873D01*
X193150499Y-100502128D01*
X193144091Y-100442517D01*
X193093796Y-100307669D01*
X193093795Y-100307668D01*
X193093793Y-100307664D01*
X193007547Y-100192455D01*
X193007544Y-100192452D01*
X192892335Y-100106206D01*
X192892328Y-100106202D01*
X192757482Y-100055908D01*
X192757483Y-100055908D01*
X192697883Y-100049501D01*
X192697881Y-100049500D01*
X192697873Y-100049500D01*
X192697865Y-100049500D01*
X192624500Y-100049500D01*
X192557461Y-100029815D01*
X192511706Y-99977011D01*
X192500500Y-99925500D01*
X192500500Y-99812698D01*
X192502757Y-99723641D01*
X192502756Y-99723640D01*
X192502757Y-99723637D01*
X192491933Y-99663249D01*
X192491280Y-99658587D01*
X192485513Y-99601875D01*
X192485074Y-99597562D01*
X192474784Y-99564768D01*
X192472917Y-99557155D01*
X192472232Y-99553334D01*
X192466858Y-99523347D01*
X192444100Y-99466374D01*
X192442521Y-99461938D01*
X192433775Y-99434063D01*
X192424159Y-99403412D01*
X192424158Y-99403410D01*
X192424157Y-99403407D01*
X192407488Y-99373378D01*
X192404117Y-99366278D01*
X192391378Y-99334386D01*
X192391377Y-99334383D01*
X192357620Y-99283163D01*
X192355180Y-99279134D01*
X192332511Y-99238294D01*
X192325409Y-99225498D01*
X192325407Y-99225495D01*
X192303033Y-99199434D01*
X192298302Y-99193159D01*
X192297893Y-99192539D01*
X192279402Y-99164481D01*
X192236012Y-99121091D01*
X192232822Y-99117648D01*
X192192867Y-99071106D01*
X192192863Y-99071102D01*
X192165698Y-99050074D01*
X192159803Y-99044882D01*
X190216451Y-97101531D01*
X190155061Y-97036949D01*
X190155060Y-97036948D01*
X190155059Y-97036947D01*
X190127204Y-97017559D01*
X190104709Y-97001902D01*
X190100946Y-96999064D01*
X190053413Y-96960305D01*
X190053406Y-96960300D01*
X190022959Y-96944397D01*
X190016251Y-96940334D01*
X189988049Y-96920705D01*
X189988046Y-96920703D01*
X189988045Y-96920703D01*
X189988041Y-96920701D01*
X189931680Y-96896514D01*
X189927424Y-96894493D01*
X189873057Y-96866094D01*
X189873050Y-96866091D01*
X189873049Y-96866091D01*
X189867008Y-96864362D01*
X189840030Y-96856642D01*
X189832630Y-96854008D01*
X189801057Y-96840459D01*
X189801058Y-96840459D01*
X189740966Y-96828109D01*
X189736391Y-96826986D01*
X189677420Y-96810113D01*
X189677425Y-96810113D01*
X189643158Y-96807503D01*
X189635380Y-96806412D01*
X189601742Y-96799500D01*
X189601741Y-96799500D01*
X189540402Y-96799500D01*
X189535695Y-96799321D01*
X189530121Y-96798896D01*
X189474524Y-96794662D01*
X189454589Y-96797201D01*
X189440440Y-96799003D01*
X189432611Y-96799500D01*
X186599002Y-96799500D01*
X186531963Y-96779815D01*
X186486208Y-96727011D01*
X186478428Y-96704445D01*
X186474575Y-96688397D01*
X186474574Y-96688395D01*
X186474573Y-96688390D01*
X186375154Y-96448372D01*
X186328178Y-96371714D01*
X186308308Y-96339288D01*
X186290064Y-96271843D01*
X186311181Y-96205240D01*
X186364953Y-96160627D01*
X186414036Y-96150499D01*
X186482871Y-96150499D01*
X186482872Y-96150499D01*
X186542483Y-96144091D01*
X186677331Y-96093796D01*
X186792546Y-96007546D01*
X186878796Y-95892331D01*
X186929091Y-95757483D01*
X186935500Y-95697873D01*
X186935499Y-93302128D01*
X186929091Y-93242517D01*
X186928323Y-93240459D01*
X186878797Y-93107671D01*
X186878793Y-93107664D01*
X186792547Y-92992455D01*
X186792544Y-92992452D01*
X186677335Y-92906206D01*
X186677328Y-92906202D01*
X186542482Y-92855908D01*
X186542483Y-92855908D01*
X186482883Y-92849501D01*
X186482881Y-92849500D01*
X186482873Y-92849500D01*
X186482864Y-92849500D01*
X184087129Y-92849500D01*
X184087123Y-92849501D01*
X184027516Y-92855908D01*
X183892671Y-92906202D01*
X183892664Y-92906206D01*
X183777455Y-92992452D01*
X183777452Y-92992455D01*
X183691206Y-93107664D01*
X183691202Y-93107671D01*
X183640908Y-93242517D01*
X183635103Y-93296514D01*
X183634501Y-93302123D01*
X183634500Y-93302135D01*
X183634500Y-93698770D01*
X183614815Y-93765809D01*
X183562011Y-93811564D01*
X183492853Y-93821508D01*
X183429297Y-93792483D01*
X183422819Y-93786451D01*
X183418657Y-93782289D01*
X183418656Y-93782288D01*
X183269334Y-93690186D01*
X183102797Y-93635001D01*
X183102795Y-93635000D01*
X183000010Y-93624500D01*
X182099998Y-93624500D01*
X182099980Y-93624501D01*
X181997203Y-93635000D01*
X181997200Y-93635001D01*
X181830668Y-93690185D01*
X181830663Y-93690187D01*
X181681342Y-93782289D01*
X181557289Y-93906342D01*
X181465187Y-94055663D01*
X181465186Y-94055666D01*
X181410001Y-94222203D01*
X181410001Y-94222204D01*
X181410000Y-94222204D01*
X181399500Y-94324983D01*
X181399500Y-95675001D01*
X181399501Y-95675018D01*
X181410000Y-95777796D01*
X181410001Y-95777799D01*
X181465185Y-95944331D01*
X181465187Y-95944336D01*
X181473962Y-95958562D01*
X181531039Y-96051099D01*
X181549500Y-96116195D01*
X181549500Y-98015500D01*
X181529815Y-98082539D01*
X181477011Y-98128294D01*
X181425501Y-98139500D01*
X181212130Y-98139500D01*
X181212123Y-98139501D01*
X181152516Y-98145908D01*
X181017671Y-98196202D01*
X181017664Y-98196206D01*
X180902455Y-98282452D01*
X180902452Y-98282455D01*
X180816206Y-98397664D01*
X180816202Y-98397671D01*
X180765908Y-98532517D01*
X180759501Y-98592116D01*
X180759500Y-98592135D01*
X180759500Y-100887870D01*
X180759501Y-100887876D01*
X180765908Y-100947483D01*
X180816202Y-101082328D01*
X180816206Y-101082335D01*
X180902452Y-101197544D01*
X180902455Y-101197547D01*
X180907380Y-101201234D01*
X180949251Y-101257168D01*
X180954235Y-101326859D01*
X180920749Y-101388182D01*
X180859426Y-101421666D01*
X180833069Y-101424500D01*
X180499999Y-101424500D01*
X180499980Y-101424501D01*
X180397203Y-101435000D01*
X180397200Y-101435001D01*
X180230668Y-101490185D01*
X180230663Y-101490187D01*
X180081342Y-101582289D01*
X179957289Y-101706342D01*
X179936161Y-101740597D01*
X179884213Y-101787321D01*
X179830622Y-101799500D01*
X179474499Y-101799500D01*
X179407460Y-101779815D01*
X179361705Y-101727011D01*
X179350499Y-101675500D01*
X179350499Y-101502129D01*
X179350498Y-101502123D01*
X179350497Y-101502116D01*
X179344091Y-101442517D01*
X179341287Y-101435000D01*
X179293797Y-101307671D01*
X179293793Y-101307664D01*
X179207547Y-101192455D01*
X179207544Y-101192452D01*
X179092335Y-101106206D01*
X179092328Y-101106202D01*
X178957482Y-101055908D01*
X178957483Y-101055908D01*
X178897883Y-101049501D01*
X178897881Y-101049500D01*
X178897873Y-101049500D01*
X178897864Y-101049500D01*
X176302129Y-101049500D01*
X176302121Y-101049501D01*
X176274335Y-101052488D01*
X176205575Y-101040080D01*
X176154440Y-100992469D01*
X176137162Y-100924769D01*
X176159229Y-100858475D01*
X176173396Y-100841523D01*
X177428101Y-99586819D01*
X177489424Y-99553334D01*
X177515782Y-99550500D01*
X177731182Y-99550500D01*
X177990615Y-99511396D01*
X178241323Y-99434063D01*
X178477704Y-99320228D01*
X178694479Y-99172433D01*
X178843733Y-99033945D01*
X178886801Y-98993985D01*
X178886801Y-98993983D01*
X178886805Y-98993981D01*
X179050386Y-98788857D01*
X179181568Y-98561643D01*
X179277420Y-98317416D01*
X179335802Y-98061630D01*
X179355408Y-97800000D01*
X179335802Y-97538370D01*
X179277420Y-97282584D01*
X179181568Y-97038357D01*
X179050386Y-96811143D01*
X178886805Y-96606019D01*
X178886803Y-96606017D01*
X178886799Y-96606012D01*
X178886796Y-96606009D01*
X178865101Y-96585879D01*
X178829346Y-96525851D01*
X178831721Y-96456022D01*
X178871472Y-96398562D01*
X178935978Y-96371714D01*
X178962041Y-96371623D01*
X178999991Y-96375500D01*
X179900008Y-96375499D01*
X179900016Y-96375498D01*
X179900019Y-96375498D01*
X179956302Y-96369748D01*
X180002797Y-96364999D01*
X180169334Y-96309814D01*
X180318656Y-96217712D01*
X180442712Y-96093656D01*
X180534814Y-95944334D01*
X180589999Y-95777797D01*
X180600500Y-95675009D01*
X180600499Y-94324992D01*
X180589999Y-94222203D01*
X180534814Y-94055666D01*
X180442712Y-93906344D01*
X180318656Y-93782288D01*
X180169334Y-93690186D01*
X180002797Y-93635001D01*
X180002795Y-93635000D01*
X179900016Y-93624500D01*
X179900009Y-93624500D01*
X179540782Y-93624500D01*
X179473743Y-93604815D01*
X179453105Y-93588185D01*
X179366452Y-93501532D01*
X179305059Y-93436947D01*
X179277204Y-93417559D01*
X179254709Y-93401902D01*
X179250946Y-93399064D01*
X179203413Y-93360305D01*
X179203406Y-93360300D01*
X179172959Y-93344397D01*
X179166251Y-93340334D01*
X179138049Y-93320705D01*
X179138046Y-93320703D01*
X179138045Y-93320703D01*
X179138041Y-93320701D01*
X179081680Y-93296514D01*
X179077424Y-93294493D01*
X179023057Y-93266094D01*
X179023050Y-93266091D01*
X179023049Y-93266091D01*
X179017008Y-93264362D01*
X178990030Y-93256642D01*
X178982630Y-93254008D01*
X178951057Y-93240459D01*
X178951058Y-93240459D01*
X178890966Y-93228109D01*
X178886391Y-93226986D01*
X178827420Y-93210113D01*
X178827425Y-93210113D01*
X178793158Y-93207503D01*
X178785380Y-93206412D01*
X178751742Y-93199500D01*
X178751741Y-93199500D01*
X178690402Y-93199500D01*
X178685695Y-93199321D01*
X178680121Y-93198896D01*
X178624524Y-93194662D01*
X178604589Y-93197201D01*
X178590440Y-93199003D01*
X178582611Y-93199500D01*
X172710390Y-93199500D01*
X172643351Y-93179815D01*
X172626049Y-93166399D01*
X172449479Y-93002567D01*
X172434643Y-92992452D01*
X172232704Y-92854772D01*
X172232700Y-92854770D01*
X172232697Y-92854768D01*
X172232696Y-92854767D01*
X171996325Y-92740938D01*
X171996327Y-92740938D01*
X171745623Y-92663606D01*
X171745619Y-92663605D01*
X171745615Y-92663604D01*
X171620823Y-92644794D01*
X171486187Y-92624500D01*
X171486182Y-92624500D01*
X171223818Y-92624500D01*
X171223812Y-92624500D01*
X171062247Y-92648853D01*
X170964385Y-92663604D01*
X170964382Y-92663605D01*
X170964376Y-92663606D01*
X170713673Y-92740938D01*
X170477303Y-92854767D01*
X170477302Y-92854768D01*
X170260520Y-93002567D01*
X170068198Y-93181014D01*
X169904614Y-93386143D01*
X169773432Y-93613356D01*
X169677582Y-93857578D01*
X169677576Y-93857597D01*
X169619197Y-94113374D01*
X169619196Y-94113379D01*
X169599592Y-94374995D01*
X169599592Y-94375004D01*
X169619196Y-94636620D01*
X169619197Y-94636625D01*
X169677576Y-94892402D01*
X169677578Y-94892411D01*
X169677580Y-94892416D01*
X169773432Y-95136643D01*
X169904614Y-95363857D01*
X170036736Y-95529533D01*
X170068198Y-95568985D01*
X170244408Y-95732482D01*
X170260521Y-95747433D01*
X170477296Y-95895228D01*
X170477301Y-95895230D01*
X170477302Y-95895231D01*
X170477303Y-95895232D01*
X170579270Y-95944336D01*
X170713673Y-96009061D01*
X170713674Y-96009061D01*
X170713677Y-96009063D01*
X170964385Y-96086396D01*
X171223818Y-96125500D01*
X171486182Y-96125500D01*
X171745615Y-96086396D01*
X171996323Y-96009063D01*
X172232704Y-95895228D01*
X172449479Y-95747433D01*
X172641805Y-95568981D01*
X172805386Y-95363857D01*
X172863904Y-95262499D01*
X172914471Y-95214285D01*
X172971291Y-95200500D01*
X178175500Y-95200500D01*
X178242539Y-95220185D01*
X178288294Y-95272989D01*
X178299500Y-95324500D01*
X178299500Y-95675001D01*
X178299501Y-95675019D01*
X178310000Y-95777796D01*
X178310001Y-95777799D01*
X178365185Y-95944331D01*
X178365189Y-95944340D01*
X178389999Y-95984563D01*
X178408439Y-96051955D01*
X178387516Y-96118619D01*
X178333874Y-96163388D01*
X178264543Y-96172049D01*
X178245871Y-96166929D01*
X178245756Y-96167305D01*
X178241326Y-96165938D01*
X178241323Y-96165937D01*
X178089452Y-96119091D01*
X177990623Y-96088606D01*
X177990619Y-96088605D01*
X177990615Y-96088604D01*
X177859180Y-96068793D01*
X177731187Y-96049500D01*
X177731182Y-96049500D01*
X177468818Y-96049500D01*
X177468812Y-96049500D01*
X177307247Y-96073853D01*
X177209385Y-96088604D01*
X177209382Y-96088605D01*
X177209376Y-96088606D01*
X176958673Y-96165938D01*
X176722303Y-96279767D01*
X176722302Y-96279768D01*
X176505520Y-96427567D01*
X176313198Y-96606014D01*
X176149614Y-96811143D01*
X176018432Y-97038356D01*
X175922582Y-97282578D01*
X175922576Y-97282597D01*
X175864197Y-97538374D01*
X175864196Y-97538379D01*
X175844592Y-97799995D01*
X175844592Y-97800004D01*
X175864197Y-98061628D01*
X175897124Y-98205890D01*
X175892851Y-98275629D01*
X175863914Y-98321164D01*
X175437719Y-98747359D01*
X175376396Y-98780844D01*
X175306704Y-98775860D01*
X175250771Y-98733988D01*
X175244509Y-98724789D01*
X175217712Y-98681344D01*
X175093656Y-98557288D01*
X174944334Y-98465186D01*
X174777797Y-98410001D01*
X174777795Y-98410000D01*
X174675010Y-98399500D01*
X173324998Y-98399500D01*
X173324981Y-98399501D01*
X173222203Y-98410000D01*
X173222200Y-98410001D01*
X173055668Y-98465185D01*
X173055663Y-98465187D01*
X172906342Y-98557289D01*
X172782289Y-98681342D01*
X172690187Y-98830663D01*
X172690185Y-98830668D01*
X172662349Y-98914670D01*
X172635001Y-98997203D01*
X172635001Y-98997204D01*
X172635000Y-98997204D01*
X172624500Y-99099983D01*
X172624500Y-99125500D01*
X172604815Y-99192539D01*
X172552011Y-99238294D01*
X172500500Y-99249500D01*
X172216196Y-99249500D01*
X172151100Y-99231039D01*
X172044340Y-99165189D01*
X172044335Y-99165187D01*
X172044334Y-99165186D01*
X171877797Y-99110001D01*
X171877795Y-99110000D01*
X171775010Y-99099500D01*
X170424998Y-99099500D01*
X170424981Y-99099501D01*
X170322203Y-99110000D01*
X170322200Y-99110001D01*
X170148810Y-99167458D01*
X170148204Y-99165631D01*
X170108202Y-99174500D01*
X168558308Y-99174500D01*
X168491269Y-99154815D01*
X168470631Y-99138185D01*
X168401865Y-99069419D01*
X168260398Y-98985756D01*
X168260397Y-98985755D01*
X168260396Y-98985755D01*
X168260393Y-98985754D01*
X168102573Y-98939902D01*
X168102567Y-98939901D01*
X168065696Y-98937000D01*
X168065694Y-98937000D01*
X167903523Y-98937000D01*
X167836484Y-98917315D01*
X167790729Y-98864511D01*
X167780785Y-98795353D01*
X167789573Y-98764099D01*
X167859539Y-98601060D01*
X167859538Y-98601060D01*
X167859540Y-98601058D01*
X167900500Y-98401741D01*
X167900500Y-95999833D01*
X167920185Y-95932794D01*
X167925225Y-95925533D01*
X167968796Y-95867331D01*
X168019091Y-95732483D01*
X168025500Y-95672873D01*
X168025499Y-93077128D01*
X168019091Y-93017517D01*
X168009743Y-92992455D01*
X167968797Y-92882671D01*
X167968793Y-92882664D01*
X167882547Y-92767455D01*
X167882544Y-92767452D01*
X167767335Y-92681206D01*
X167767328Y-92681202D01*
X167632482Y-92630908D01*
X167632483Y-92630908D01*
X167572883Y-92624501D01*
X167572881Y-92624500D01*
X167572873Y-92624500D01*
X167572864Y-92624500D01*
X164977129Y-92624500D01*
X164977123Y-92624501D01*
X164917516Y-92630908D01*
X164782671Y-92681202D01*
X164782664Y-92681206D01*
X164667455Y-92767452D01*
X164667452Y-92767455D01*
X164581206Y-92882664D01*
X164581202Y-92882671D01*
X164530908Y-93017517D01*
X164524501Y-93077116D01*
X164524501Y-93077123D01*
X164524500Y-93077135D01*
X164524500Y-95672870D01*
X164524501Y-95672876D01*
X164530908Y-95732483D01*
X164581202Y-95867328D01*
X164581206Y-95867335D01*
X164667452Y-95982544D01*
X164667455Y-95982547D01*
X164782664Y-96068793D01*
X164782671Y-96068797D01*
X164917517Y-96119091D01*
X164917516Y-96119091D01*
X164924444Y-96119835D01*
X164977127Y-96125500D01*
X165775500Y-96125499D01*
X165842539Y-96145183D01*
X165888294Y-96197987D01*
X165899500Y-96249499D01*
X165899500Y-98350743D01*
X165914925Y-98502439D01*
X165975837Y-98696579D01*
X165975840Y-98696585D01*
X165975841Y-98696588D01*
X166007054Y-98752824D01*
X166022377Y-98820991D01*
X165998414Y-98886622D01*
X165942771Y-98928879D01*
X165898635Y-98937000D01*
X165734304Y-98937000D01*
X165697432Y-98939901D01*
X165697426Y-98939902D01*
X165539606Y-98985754D01*
X165539603Y-98985755D01*
X165398137Y-99069417D01*
X165398129Y-99069423D01*
X165281923Y-99185629D01*
X165281917Y-99185637D01*
X165198255Y-99327103D01*
X165198254Y-99327106D01*
X165152402Y-99484926D01*
X165152401Y-99484932D01*
X165149500Y-99521804D01*
X165149500Y-99534836D01*
X165129815Y-99601875D01*
X165127275Y-99605672D01*
X165070707Y-99686947D01*
X164990459Y-99873943D01*
X164949500Y-100073258D01*
X164949500Y-100576000D01*
X164929815Y-100643039D01*
X164877011Y-100688794D01*
X164825500Y-100700000D01*
X164124500Y-100700000D01*
X164057461Y-100680315D01*
X164011706Y-100627511D01*
X164000500Y-100576000D01*
X164000500Y-90124500D01*
X164020185Y-90057461D01*
X164072989Y-90011706D01*
X164124500Y-90000500D01*
X198875500Y-90000500D01*
X198942539Y-90020185D01*
G37*
%TD.AperFunction*%
%TD*%
M02*
