%TF.GenerationSoftware,KiCad,Pcbnew,7.0.9*%
%TF.CreationDate,2023-11-29T13:30:04+01:00*%
%TF.ProjectId,Wzmacniacz r__nicowy do PW3015 ver.3,577a6d61-636e-4696-9163-7a2072f37c6e,rev?*%
%TF.SameCoordinates,Original*%
%TF.FileFunction,Legend,Top*%
%TF.FilePolarity,Positive*%
%FSLAX46Y46*%
G04 Gerber Fmt 4.6, Leading zero omitted, Abs format (unit mm)*
G04 Created by KiCad (PCBNEW 7.0.9) date 2023-11-29 13:30:04*
%MOMM*%
%LPD*%
G01*
G04 APERTURE LIST*
%ADD10C,0.300000*%
%ADD11C,0.150000*%
%ADD12C,0.120000*%
G04 APERTURE END LIST*
D10*
X176445489Y-90699171D02*
X176445489Y-92199171D01*
X175731203Y-90699171D02*
X175731203Y-92199171D01*
X175731203Y-92199171D02*
X174874060Y-90699171D01*
X174874060Y-90699171D02*
X174874060Y-92199171D01*
X174159774Y-91270600D02*
X173016917Y-91270600D01*
X173588345Y-90699171D02*
X173588345Y-91842028D01*
X197659774Y-92127742D02*
X197802632Y-92199171D01*
X197802632Y-92199171D02*
X198016917Y-92199171D01*
X198016917Y-92199171D02*
X198231203Y-92127742D01*
X198231203Y-92127742D02*
X198374060Y-91984885D01*
X198374060Y-91984885D02*
X198445489Y-91842028D01*
X198445489Y-91842028D02*
X198516917Y-91556314D01*
X198516917Y-91556314D02*
X198516917Y-91342028D01*
X198516917Y-91342028D02*
X198445489Y-91056314D01*
X198445489Y-91056314D02*
X198374060Y-90913457D01*
X198374060Y-90913457D02*
X198231203Y-90770600D01*
X198231203Y-90770600D02*
X198016917Y-90699171D01*
X198016917Y-90699171D02*
X197874060Y-90699171D01*
X197874060Y-90699171D02*
X197659774Y-90770600D01*
X197659774Y-90770600D02*
X197588346Y-90842028D01*
X197588346Y-90842028D02*
X197588346Y-91342028D01*
X197588346Y-91342028D02*
X197874060Y-91342028D01*
X196945489Y-90699171D02*
X196945489Y-92199171D01*
X196945489Y-92199171D02*
X196088346Y-90699171D01*
X196088346Y-90699171D02*
X196088346Y-92199171D01*
X195374060Y-90699171D02*
X195374060Y-92199171D01*
X195374060Y-92199171D02*
X195016917Y-92199171D01*
X195016917Y-92199171D02*
X194802631Y-92127742D01*
X194802631Y-92127742D02*
X194659774Y-91984885D01*
X194659774Y-91984885D02*
X194588345Y-91842028D01*
X194588345Y-91842028D02*
X194516917Y-91556314D01*
X194516917Y-91556314D02*
X194516917Y-91342028D01*
X194516917Y-91342028D02*
X194588345Y-91056314D01*
X194588345Y-91056314D02*
X194659774Y-90913457D01*
X194659774Y-90913457D02*
X194802631Y-90770600D01*
X194802631Y-90770600D02*
X195016917Y-90699171D01*
X195016917Y-90699171D02*
X195374060Y-90699171D01*
D11*
X188261905Y-97054819D02*
X188261905Y-96054819D01*
X188261905Y-96054819D02*
X188500000Y-96054819D01*
X188500000Y-96054819D02*
X188642857Y-96102438D01*
X188642857Y-96102438D02*
X188738095Y-96197676D01*
X188738095Y-96197676D02*
X188785714Y-96292914D01*
X188785714Y-96292914D02*
X188833333Y-96483390D01*
X188833333Y-96483390D02*
X188833333Y-96626247D01*
X188833333Y-96626247D02*
X188785714Y-96816723D01*
X188785714Y-96816723D02*
X188738095Y-96911961D01*
X188738095Y-96911961D02*
X188642857Y-97007200D01*
X188642857Y-97007200D02*
X188500000Y-97054819D01*
X188500000Y-97054819D02*
X188261905Y-97054819D01*
X189214286Y-96150057D02*
X189261905Y-96102438D01*
X189261905Y-96102438D02*
X189357143Y-96054819D01*
X189357143Y-96054819D02*
X189595238Y-96054819D01*
X189595238Y-96054819D02*
X189690476Y-96102438D01*
X189690476Y-96102438D02*
X189738095Y-96150057D01*
X189738095Y-96150057D02*
X189785714Y-96245295D01*
X189785714Y-96245295D02*
X189785714Y-96340533D01*
X189785714Y-96340533D02*
X189738095Y-96483390D01*
X189738095Y-96483390D02*
X189166667Y-97054819D01*
X189166667Y-97054819D02*
X189785714Y-97054819D01*
X183238095Y-95054819D02*
X183238095Y-94054819D01*
X183809523Y-95054819D02*
X183380952Y-94483390D01*
X183809523Y-94054819D02*
X183238095Y-94626247D01*
X197454819Y-97333333D02*
X198169104Y-97333333D01*
X198169104Y-97333333D02*
X198311961Y-97380952D01*
X198311961Y-97380952D02*
X198407200Y-97476190D01*
X198407200Y-97476190D02*
X198454819Y-97619047D01*
X198454819Y-97619047D02*
X198454819Y-97714285D01*
X197550057Y-96904761D02*
X197502438Y-96857142D01*
X197502438Y-96857142D02*
X197454819Y-96761904D01*
X197454819Y-96761904D02*
X197454819Y-96523809D01*
X197454819Y-96523809D02*
X197502438Y-96428571D01*
X197502438Y-96428571D02*
X197550057Y-96380952D01*
X197550057Y-96380952D02*
X197645295Y-96333333D01*
X197645295Y-96333333D02*
X197740533Y-96333333D01*
X197740533Y-96333333D02*
X197883390Y-96380952D01*
X197883390Y-96380952D02*
X198454819Y-96952380D01*
X198454819Y-96952380D02*
X198454819Y-96333333D01*
X179015656Y-111459580D02*
X178968037Y-111507200D01*
X178968037Y-111507200D02*
X178825180Y-111554819D01*
X178825180Y-111554819D02*
X178729942Y-111554819D01*
X178729942Y-111554819D02*
X178587085Y-111507200D01*
X178587085Y-111507200D02*
X178491847Y-111411961D01*
X178491847Y-111411961D02*
X178444228Y-111316723D01*
X178444228Y-111316723D02*
X178396609Y-111126247D01*
X178396609Y-111126247D02*
X178396609Y-110983390D01*
X178396609Y-110983390D02*
X178444228Y-110792914D01*
X178444228Y-110792914D02*
X178491847Y-110697676D01*
X178491847Y-110697676D02*
X178587085Y-110602438D01*
X178587085Y-110602438D02*
X178729942Y-110554819D01*
X178729942Y-110554819D02*
X178825180Y-110554819D01*
X178825180Y-110554819D02*
X178968037Y-110602438D01*
X178968037Y-110602438D02*
X179015656Y-110650057D01*
X179587085Y-110983390D02*
X179491847Y-110935771D01*
X179491847Y-110935771D02*
X179444228Y-110888152D01*
X179444228Y-110888152D02*
X179396609Y-110792914D01*
X179396609Y-110792914D02*
X179396609Y-110745295D01*
X179396609Y-110745295D02*
X179444228Y-110650057D01*
X179444228Y-110650057D02*
X179491847Y-110602438D01*
X179491847Y-110602438D02*
X179587085Y-110554819D01*
X179587085Y-110554819D02*
X179777561Y-110554819D01*
X179777561Y-110554819D02*
X179872799Y-110602438D01*
X179872799Y-110602438D02*
X179920418Y-110650057D01*
X179920418Y-110650057D02*
X179968037Y-110745295D01*
X179968037Y-110745295D02*
X179968037Y-110792914D01*
X179968037Y-110792914D02*
X179920418Y-110888152D01*
X179920418Y-110888152D02*
X179872799Y-110935771D01*
X179872799Y-110935771D02*
X179777561Y-110983390D01*
X179777561Y-110983390D02*
X179587085Y-110983390D01*
X179587085Y-110983390D02*
X179491847Y-111031009D01*
X179491847Y-111031009D02*
X179444228Y-111078628D01*
X179444228Y-111078628D02*
X179396609Y-111173866D01*
X179396609Y-111173866D02*
X179396609Y-111364342D01*
X179396609Y-111364342D02*
X179444228Y-111459580D01*
X179444228Y-111459580D02*
X179491847Y-111507200D01*
X179491847Y-111507200D02*
X179587085Y-111554819D01*
X179587085Y-111554819D02*
X179777561Y-111554819D01*
X179777561Y-111554819D02*
X179872799Y-111507200D01*
X179872799Y-111507200D02*
X179920418Y-111459580D01*
X179920418Y-111459580D02*
X179968037Y-111364342D01*
X179968037Y-111364342D02*
X179968037Y-111173866D01*
X179968037Y-111173866D02*
X179920418Y-111078628D01*
X179920418Y-111078628D02*
X179872799Y-111031009D01*
X179872799Y-111031009D02*
X179777561Y-110983390D01*
X193833333Y-108359580D02*
X193785714Y-108407200D01*
X193785714Y-108407200D02*
X193642857Y-108454819D01*
X193642857Y-108454819D02*
X193547619Y-108454819D01*
X193547619Y-108454819D02*
X193404762Y-108407200D01*
X193404762Y-108407200D02*
X193309524Y-108311961D01*
X193309524Y-108311961D02*
X193261905Y-108216723D01*
X193261905Y-108216723D02*
X193214286Y-108026247D01*
X193214286Y-108026247D02*
X193214286Y-107883390D01*
X193214286Y-107883390D02*
X193261905Y-107692914D01*
X193261905Y-107692914D02*
X193309524Y-107597676D01*
X193309524Y-107597676D02*
X193404762Y-107502438D01*
X193404762Y-107502438D02*
X193547619Y-107454819D01*
X193547619Y-107454819D02*
X193642857Y-107454819D01*
X193642857Y-107454819D02*
X193785714Y-107502438D01*
X193785714Y-107502438D02*
X193833333Y-107550057D01*
X194690476Y-107788152D02*
X194690476Y-108454819D01*
X194452381Y-107407200D02*
X194214286Y-108121485D01*
X194214286Y-108121485D02*
X194833333Y-108121485D01*
X181104761Y-97750057D02*
X181009523Y-97702438D01*
X181009523Y-97702438D02*
X180914285Y-97607200D01*
X180914285Y-97607200D02*
X180771428Y-97464342D01*
X180771428Y-97464342D02*
X180676190Y-97416723D01*
X180676190Y-97416723D02*
X180580952Y-97416723D01*
X180628571Y-97654819D02*
X180533333Y-97607200D01*
X180533333Y-97607200D02*
X180438095Y-97511961D01*
X180438095Y-97511961D02*
X180390476Y-97321485D01*
X180390476Y-97321485D02*
X180390476Y-96988152D01*
X180390476Y-96988152D02*
X180438095Y-96797676D01*
X180438095Y-96797676D02*
X180533333Y-96702438D01*
X180533333Y-96702438D02*
X180628571Y-96654819D01*
X180628571Y-96654819D02*
X180819047Y-96654819D01*
X180819047Y-96654819D02*
X180914285Y-96702438D01*
X180914285Y-96702438D02*
X181009523Y-96797676D01*
X181009523Y-96797676D02*
X181057142Y-96988152D01*
X181057142Y-96988152D02*
X181057142Y-97321485D01*
X181057142Y-97321485D02*
X181009523Y-97511961D01*
X181009523Y-97511961D02*
X180914285Y-97607200D01*
X180914285Y-97607200D02*
X180819047Y-97654819D01*
X180819047Y-97654819D02*
X180628571Y-97654819D01*
X181438095Y-96750057D02*
X181485714Y-96702438D01*
X181485714Y-96702438D02*
X181580952Y-96654819D01*
X181580952Y-96654819D02*
X181819047Y-96654819D01*
X181819047Y-96654819D02*
X181914285Y-96702438D01*
X181914285Y-96702438D02*
X181961904Y-96750057D01*
X181961904Y-96750057D02*
X182009523Y-96845295D01*
X182009523Y-96845295D02*
X182009523Y-96940533D01*
X182009523Y-96940533D02*
X181961904Y-97083390D01*
X181961904Y-97083390D02*
X181390476Y-97654819D01*
X181390476Y-97654819D02*
X182009523Y-97654819D01*
X172454819Y-108138094D02*
X171454819Y-108138094D01*
X171454819Y-108138094D02*
X171454819Y-107899999D01*
X171454819Y-107899999D02*
X171502438Y-107757142D01*
X171502438Y-107757142D02*
X171597676Y-107661904D01*
X171597676Y-107661904D02*
X171692914Y-107614285D01*
X171692914Y-107614285D02*
X171883390Y-107566666D01*
X171883390Y-107566666D02*
X172026247Y-107566666D01*
X172026247Y-107566666D02*
X172216723Y-107614285D01*
X172216723Y-107614285D02*
X172311961Y-107661904D01*
X172311961Y-107661904D02*
X172407200Y-107757142D01*
X172407200Y-107757142D02*
X172454819Y-107899999D01*
X172454819Y-107899999D02*
X172454819Y-108138094D01*
X172454819Y-106614285D02*
X172454819Y-107185713D01*
X172454819Y-106899999D02*
X171454819Y-106899999D01*
X171454819Y-106899999D02*
X171597676Y-106995237D01*
X171597676Y-106995237D02*
X171692914Y-107090475D01*
X171692914Y-107090475D02*
X171740533Y-107185713D01*
X168454819Y-95833333D02*
X169169104Y-95833333D01*
X169169104Y-95833333D02*
X169311961Y-95880952D01*
X169311961Y-95880952D02*
X169407200Y-95976190D01*
X169407200Y-95976190D02*
X169454819Y-96119047D01*
X169454819Y-96119047D02*
X169454819Y-96214285D01*
X168454819Y-95452380D02*
X168454819Y-94833333D01*
X168454819Y-94833333D02*
X168835771Y-95166666D01*
X168835771Y-95166666D02*
X168835771Y-95023809D01*
X168835771Y-95023809D02*
X168883390Y-94928571D01*
X168883390Y-94928571D02*
X168931009Y-94880952D01*
X168931009Y-94880952D02*
X169026247Y-94833333D01*
X169026247Y-94833333D02*
X169264342Y-94833333D01*
X169264342Y-94833333D02*
X169359580Y-94880952D01*
X169359580Y-94880952D02*
X169407200Y-94928571D01*
X169407200Y-94928571D02*
X169454819Y-95023809D01*
X169454819Y-95023809D02*
X169454819Y-95309523D01*
X169454819Y-95309523D02*
X169407200Y-95404761D01*
X169407200Y-95404761D02*
X169359580Y-95452380D01*
X173359580Y-100666666D02*
X173407200Y-100714285D01*
X173407200Y-100714285D02*
X173454819Y-100857142D01*
X173454819Y-100857142D02*
X173454819Y-100952380D01*
X173454819Y-100952380D02*
X173407200Y-101095237D01*
X173407200Y-101095237D02*
X173311961Y-101190475D01*
X173311961Y-101190475D02*
X173216723Y-101238094D01*
X173216723Y-101238094D02*
X173026247Y-101285713D01*
X173026247Y-101285713D02*
X172883390Y-101285713D01*
X172883390Y-101285713D02*
X172692914Y-101238094D01*
X172692914Y-101238094D02*
X172597676Y-101190475D01*
X172597676Y-101190475D02*
X172502438Y-101095237D01*
X172502438Y-101095237D02*
X172454819Y-100952380D01*
X172454819Y-100952380D02*
X172454819Y-100857142D01*
X172454819Y-100857142D02*
X172502438Y-100714285D01*
X172502438Y-100714285D02*
X172550057Y-100666666D01*
X172550057Y-100285713D02*
X172502438Y-100238094D01*
X172502438Y-100238094D02*
X172454819Y-100142856D01*
X172454819Y-100142856D02*
X172454819Y-99904761D01*
X172454819Y-99904761D02*
X172502438Y-99809523D01*
X172502438Y-99809523D02*
X172550057Y-99761904D01*
X172550057Y-99761904D02*
X172645295Y-99714285D01*
X172645295Y-99714285D02*
X172740533Y-99714285D01*
X172740533Y-99714285D02*
X172883390Y-99761904D01*
X172883390Y-99761904D02*
X173454819Y-100333332D01*
X173454819Y-100333332D02*
X173454819Y-99714285D01*
D12*
%TO.C,D2*%
X186275000Y-94500000D02*
X187455000Y-94500000D01*
X187455000Y-93580000D02*
X187455000Y-95420000D01*
X187455000Y-95420000D02*
X190735000Y-95420000D01*
X187911000Y-93580000D02*
X187911000Y-95420000D01*
X188031000Y-93580000D02*
X188031000Y-95420000D01*
X188151000Y-93580000D02*
X188151000Y-95420000D01*
X190735000Y-93580000D02*
X187455000Y-93580000D01*
X190735000Y-95420000D02*
X190735000Y-93580000D01*
X191915000Y-94500000D02*
X190735000Y-94500000D01*
%TO.C,J2*%
X194930000Y-95845000D02*
X194930000Y-94575000D01*
X196200000Y-95845000D02*
X194930000Y-95845000D01*
X195820000Y-93465000D02*
X195820000Y-93135000D01*
X196580000Y-93465000D02*
X196580000Y-93135000D01*
X194870000Y-93135000D02*
X197530000Y-93135000D01*
X197530000Y-93135000D02*
X197530000Y-90475000D01*
X194870000Y-90475000D02*
X194870000Y-93135000D01*
X195820000Y-90475000D02*
X195820000Y-84475000D01*
X195880000Y-90475000D02*
X195880000Y-84475000D01*
X196000000Y-90475000D02*
X196000000Y-84475000D01*
X196120000Y-90475000D02*
X196120000Y-84475000D01*
X196240000Y-90475000D02*
X196240000Y-84475000D01*
X196360000Y-90475000D02*
X196360000Y-84475000D01*
X196480000Y-90475000D02*
X196480000Y-84475000D01*
X197530000Y-90475000D02*
X194870000Y-90475000D01*
X195820000Y-84475000D02*
X196580000Y-84475000D01*
X196580000Y-84475000D02*
X196580000Y-90475000D01*
%TO.C,C8*%
X179652677Y-104625000D02*
X180652677Y-104625000D01*
X180152677Y-104125000D02*
X180152677Y-105125000D01*
X185132323Y-102420000D02*
X185132323Y-112580000D01*
X185172323Y-102420000D02*
X185172323Y-112580000D01*
X185212323Y-102420000D02*
X185212323Y-112580000D01*
X185252323Y-102421000D02*
X185252323Y-112579000D01*
X185292323Y-102422000D02*
X185292323Y-112578000D01*
X185332323Y-102423000D02*
X185332323Y-112577000D01*
X185372323Y-102425000D02*
X185372323Y-112575000D01*
X185412323Y-102427000D02*
X185412323Y-112573000D01*
X185452323Y-102430000D02*
X185452323Y-112570000D01*
X185492323Y-102432000D02*
X185492323Y-112568000D01*
X185532323Y-102435000D02*
X185532323Y-112565000D01*
X185572323Y-102438000D02*
X185572323Y-112562000D01*
X185612323Y-102442000D02*
X185612323Y-112558000D01*
X185652323Y-102446000D02*
X185652323Y-112554000D01*
X185692323Y-102450000D02*
X185692323Y-112550000D01*
X185732323Y-102455000D02*
X185732323Y-112545000D01*
X185772323Y-102460000D02*
X185772323Y-112540000D01*
X185812323Y-102465000D02*
X185812323Y-112535000D01*
X185853323Y-102470000D02*
X185853323Y-112530000D01*
X185893323Y-102476000D02*
X185893323Y-112524000D01*
X185933323Y-102482000D02*
X185933323Y-112518000D01*
X185973323Y-102489000D02*
X185973323Y-112511000D01*
X186013323Y-102496000D02*
X186013323Y-112504000D01*
X186053323Y-102503000D02*
X186053323Y-112497000D01*
X186093323Y-102510000D02*
X186093323Y-112490000D01*
X186133323Y-102518000D02*
X186133323Y-112482000D01*
X186173323Y-102526000D02*
X186173323Y-112474000D01*
X186213323Y-102535000D02*
X186213323Y-112465000D01*
X186253323Y-102544000D02*
X186253323Y-112456000D01*
X186293323Y-102553000D02*
X186293323Y-112447000D01*
X186333323Y-102562000D02*
X186333323Y-112438000D01*
X186373323Y-102572000D02*
X186373323Y-112428000D01*
X186413323Y-102582000D02*
X186413323Y-112418000D01*
X186453323Y-102593000D02*
X186453323Y-112407000D01*
X186493323Y-102603000D02*
X186493323Y-112397000D01*
X186533323Y-102615000D02*
X186533323Y-112385000D01*
X186573323Y-102626000D02*
X186573323Y-112374000D01*
X186613323Y-102638000D02*
X186613323Y-112362000D01*
X186653323Y-102650000D02*
X186653323Y-112350000D01*
X186693323Y-102663000D02*
X186693323Y-112337000D01*
X186733323Y-102676000D02*
X186733323Y-112324000D01*
X186773323Y-102689000D02*
X186773323Y-112311000D01*
X186813323Y-102703000D02*
X186813323Y-112297000D01*
X186853323Y-102717000D02*
X186853323Y-112283000D01*
X186893323Y-102732000D02*
X186893323Y-112268000D01*
X186933323Y-102746000D02*
X186933323Y-112254000D01*
X186973323Y-102762000D02*
X186973323Y-112238000D01*
X187013323Y-102777000D02*
X187013323Y-112223000D01*
X187053323Y-102793000D02*
X187053323Y-112207000D01*
X187093323Y-102810000D02*
X187093323Y-112190000D01*
X187133323Y-102826000D02*
X187133323Y-112174000D01*
X187173323Y-102843000D02*
X187173323Y-112157000D01*
X187213323Y-102861000D02*
X187213323Y-112139000D01*
X187253323Y-102879000D02*
X187253323Y-112121000D01*
X187293323Y-102897000D02*
X187293323Y-112103000D01*
X187333323Y-102916000D02*
X187333323Y-112084000D01*
X187373323Y-102936000D02*
X187373323Y-112064000D01*
X187413323Y-102955000D02*
X187413323Y-112045000D01*
X187453323Y-102975000D02*
X187453323Y-112025000D01*
X187493323Y-102996000D02*
X187493323Y-112004000D01*
X187533323Y-103017000D02*
X187533323Y-111983000D01*
X187573323Y-103038000D02*
X187573323Y-111962000D01*
X187613323Y-103060000D02*
X187613323Y-111940000D01*
X187653323Y-103083000D02*
X187653323Y-106259000D01*
X187653323Y-108741000D02*
X187653323Y-111917000D01*
X187693323Y-103105000D02*
X187693323Y-106259000D01*
X187693323Y-108741000D02*
X187693323Y-111895000D01*
X187733323Y-103129000D02*
X187733323Y-106259000D01*
X187733323Y-108741000D02*
X187733323Y-111871000D01*
X187773323Y-103153000D02*
X187773323Y-106259000D01*
X187773323Y-108741000D02*
X187773323Y-111847000D01*
X187813323Y-103177000D02*
X187813323Y-106259000D01*
X187813323Y-108741000D02*
X187813323Y-111823000D01*
X187853323Y-103202000D02*
X187853323Y-106259000D01*
X187853323Y-108741000D02*
X187853323Y-111798000D01*
X187893323Y-103227000D02*
X187893323Y-106259000D01*
X187893323Y-108741000D02*
X187893323Y-111773000D01*
X187933323Y-103253000D02*
X187933323Y-106259000D01*
X187933323Y-108741000D02*
X187933323Y-111747000D01*
X187973323Y-103279000D02*
X187973323Y-106259000D01*
X187973323Y-108741000D02*
X187973323Y-111721000D01*
X188013323Y-103306000D02*
X188013323Y-106259000D01*
X188013323Y-108741000D02*
X188013323Y-111694000D01*
X188053323Y-103334000D02*
X188053323Y-106259000D01*
X188053323Y-108741000D02*
X188053323Y-111666000D01*
X188093323Y-103362000D02*
X188093323Y-106259000D01*
X188093323Y-108741000D02*
X188093323Y-111638000D01*
X188133323Y-103390000D02*
X188133323Y-106259000D01*
X188133323Y-108741000D02*
X188133323Y-111610000D01*
X188173323Y-103420000D02*
X188173323Y-106259000D01*
X188173323Y-108741000D02*
X188173323Y-111580000D01*
X188213323Y-103450000D02*
X188213323Y-106259000D01*
X188213323Y-108741000D02*
X188213323Y-111550000D01*
X188253323Y-103480000D02*
X188253323Y-106259000D01*
X188253323Y-108741000D02*
X188253323Y-111520000D01*
X188293323Y-103511000D02*
X188293323Y-106259000D01*
X188293323Y-108741000D02*
X188293323Y-111489000D01*
X188333323Y-103543000D02*
X188333323Y-106259000D01*
X188333323Y-108741000D02*
X188333323Y-111457000D01*
X188373323Y-103575000D02*
X188373323Y-106259000D01*
X188373323Y-108741000D02*
X188373323Y-111425000D01*
X188413323Y-103608000D02*
X188413323Y-106259000D01*
X188413323Y-108741000D02*
X188413323Y-111392000D01*
X188453323Y-103642000D02*
X188453323Y-106259000D01*
X188453323Y-108741000D02*
X188453323Y-111358000D01*
X188493323Y-103676000D02*
X188493323Y-106259000D01*
X188493323Y-108741000D02*
X188493323Y-111324000D01*
X188533323Y-103711000D02*
X188533323Y-106259000D01*
X188533323Y-108741000D02*
X188533323Y-111289000D01*
X188573323Y-103747000D02*
X188573323Y-106259000D01*
X188573323Y-108741000D02*
X188573323Y-111253000D01*
X188613323Y-103784000D02*
X188613323Y-106259000D01*
X188613323Y-108741000D02*
X188613323Y-111216000D01*
X188653323Y-103821000D02*
X188653323Y-106259000D01*
X188653323Y-108741000D02*
X188653323Y-111179000D01*
X188693323Y-103860000D02*
X188693323Y-106259000D01*
X188693323Y-108741000D02*
X188693323Y-111140000D01*
X188733323Y-103899000D02*
X188733323Y-106259000D01*
X188733323Y-108741000D02*
X188733323Y-111101000D01*
X188773323Y-103939000D02*
X188773323Y-106259000D01*
X188773323Y-108741000D02*
X188773323Y-111061000D01*
X188813323Y-103980000D02*
X188813323Y-106259000D01*
X188813323Y-108741000D02*
X188813323Y-111020000D01*
X188853323Y-104022000D02*
X188853323Y-106259000D01*
X188853323Y-108741000D02*
X188853323Y-110978000D01*
X188893323Y-104064000D02*
X188893323Y-106259000D01*
X188893323Y-108741000D02*
X188893323Y-110936000D01*
X188933323Y-104108000D02*
X188933323Y-106259000D01*
X188933323Y-108741000D02*
X188933323Y-110892000D01*
X188973323Y-104153000D02*
X188973323Y-106259000D01*
X188973323Y-108741000D02*
X188973323Y-110847000D01*
X189013323Y-104199000D02*
X189013323Y-106259000D01*
X189013323Y-108741000D02*
X189013323Y-110801000D01*
X189053323Y-104246000D02*
X189053323Y-106259000D01*
X189053323Y-108741000D02*
X189053323Y-110754000D01*
X189093323Y-104294000D02*
X189093323Y-106259000D01*
X189093323Y-108741000D02*
X189093323Y-110706000D01*
X189133323Y-104344000D02*
X189133323Y-106259000D01*
X189133323Y-108741000D02*
X189133323Y-110656000D01*
X189173323Y-104394000D02*
X189173323Y-106259000D01*
X189173323Y-108741000D02*
X189173323Y-110606000D01*
X189213323Y-104446000D02*
X189213323Y-106259000D01*
X189213323Y-108741000D02*
X189213323Y-110554000D01*
X189253323Y-104500000D02*
X189253323Y-106259000D01*
X189253323Y-108741000D02*
X189253323Y-110500000D01*
X189293323Y-104555000D02*
X189293323Y-106259000D01*
X189293323Y-108741000D02*
X189293323Y-110445000D01*
X189333323Y-104611000D02*
X189333323Y-106259000D01*
X189333323Y-108741000D02*
X189333323Y-110389000D01*
X189373323Y-104670000D02*
X189373323Y-106259000D01*
X189373323Y-108741000D02*
X189373323Y-110330000D01*
X189413323Y-104730000D02*
X189413323Y-106259000D01*
X189413323Y-108741000D02*
X189413323Y-110270000D01*
X189453323Y-104791000D02*
X189453323Y-106259000D01*
X189453323Y-108741000D02*
X189453323Y-110209000D01*
X189493323Y-104855000D02*
X189493323Y-106259000D01*
X189493323Y-108741000D02*
X189493323Y-110145000D01*
X189533323Y-104921000D02*
X189533323Y-106259000D01*
X189533323Y-108741000D02*
X189533323Y-110079000D01*
X189573323Y-104990000D02*
X189573323Y-106259000D01*
X189573323Y-108741000D02*
X189573323Y-110010000D01*
X189613323Y-105061000D02*
X189613323Y-106259000D01*
X189613323Y-108741000D02*
X189613323Y-109939000D01*
X189653323Y-105135000D02*
X189653323Y-106259000D01*
X189653323Y-108741000D02*
X189653323Y-109865000D01*
X189693323Y-105211000D02*
X189693323Y-106259000D01*
X189693323Y-108741000D02*
X189693323Y-109789000D01*
X189733323Y-105291000D02*
X189733323Y-106259000D01*
X189733323Y-108741000D02*
X189733323Y-109709000D01*
X189773323Y-105375000D02*
X189773323Y-106259000D01*
X189773323Y-108741000D02*
X189773323Y-109625000D01*
X189813323Y-105463000D02*
X189813323Y-106259000D01*
X189813323Y-108741000D02*
X189813323Y-109537000D01*
X189853323Y-105556000D02*
X189853323Y-106259000D01*
X189853323Y-108741000D02*
X189853323Y-109444000D01*
X189893323Y-105654000D02*
X189893323Y-106259000D01*
X189893323Y-108741000D02*
X189893323Y-109346000D01*
X189933323Y-105758000D02*
X189933323Y-106259000D01*
X189933323Y-108741000D02*
X189933323Y-109242000D01*
X189973323Y-105870000D02*
X189973323Y-106259000D01*
X189973323Y-108741000D02*
X189973323Y-109130000D01*
X190013323Y-105990000D02*
X190013323Y-106259000D01*
X190013323Y-108741000D02*
X190013323Y-109010000D01*
X190053323Y-106122000D02*
X190053323Y-106259000D01*
X190053323Y-108741000D02*
X190053323Y-108878000D01*
X190133323Y-106438000D02*
X190133323Y-108562000D01*
X190173323Y-106638000D02*
X190173323Y-108362000D01*
X190213323Y-106901000D02*
X190213323Y-108099000D01*
X180169783Y-108760000D02*
G75*
G03*
X180169783Y-106240000I4962540J1260000D01*
G01*
%TO.C,C4*%
X188520354Y-98825000D02*
X189520354Y-98825000D01*
X189020354Y-98325000D02*
X189020354Y-99325000D01*
X194000000Y-96620000D02*
X194000000Y-106780000D01*
X194040000Y-96620000D02*
X194040000Y-106780000D01*
X194080000Y-96620000D02*
X194080000Y-106780000D01*
X194120000Y-96621000D02*
X194120000Y-106779000D01*
X194160000Y-96622000D02*
X194160000Y-106778000D01*
X194200000Y-96623000D02*
X194200000Y-106777000D01*
X194240000Y-96625000D02*
X194240000Y-106775000D01*
X194280000Y-96627000D02*
X194280000Y-106773000D01*
X194320000Y-96630000D02*
X194320000Y-106770000D01*
X194360000Y-96632000D02*
X194360000Y-106768000D01*
X194400000Y-96635000D02*
X194400000Y-106765000D01*
X194440000Y-96638000D02*
X194440000Y-106762000D01*
X194480000Y-96642000D02*
X194480000Y-106758000D01*
X194520000Y-96646000D02*
X194520000Y-106754000D01*
X194560000Y-96650000D02*
X194560000Y-106750000D01*
X194600000Y-96655000D02*
X194600000Y-106745000D01*
X194640000Y-96660000D02*
X194640000Y-106740000D01*
X194680000Y-96665000D02*
X194680000Y-106735000D01*
X194721000Y-96670000D02*
X194721000Y-106730000D01*
X194761000Y-96676000D02*
X194761000Y-106724000D01*
X194801000Y-96682000D02*
X194801000Y-106718000D01*
X194841000Y-96689000D02*
X194841000Y-106711000D01*
X194881000Y-96696000D02*
X194881000Y-106704000D01*
X194921000Y-96703000D02*
X194921000Y-106697000D01*
X194961000Y-96710000D02*
X194961000Y-106690000D01*
X195001000Y-96718000D02*
X195001000Y-106682000D01*
X195041000Y-96726000D02*
X195041000Y-106674000D01*
X195081000Y-96735000D02*
X195081000Y-106665000D01*
X195121000Y-96744000D02*
X195121000Y-106656000D01*
X195161000Y-96753000D02*
X195161000Y-106647000D01*
X195201000Y-96762000D02*
X195201000Y-106638000D01*
X195241000Y-96772000D02*
X195241000Y-106628000D01*
X195281000Y-96782000D02*
X195281000Y-100459000D01*
X195281000Y-102941000D02*
X195281000Y-106618000D01*
X195321000Y-96793000D02*
X195321000Y-100459000D01*
X195321000Y-102941000D02*
X195321000Y-106607000D01*
X195361000Y-96803000D02*
X195361000Y-100459000D01*
X195361000Y-102941000D02*
X195361000Y-106597000D01*
X195401000Y-96815000D02*
X195401000Y-100459000D01*
X195401000Y-102941000D02*
X195401000Y-106585000D01*
X195441000Y-96826000D02*
X195441000Y-100459000D01*
X195441000Y-102941000D02*
X195441000Y-106574000D01*
X195481000Y-96838000D02*
X195481000Y-100459000D01*
X195481000Y-102941000D02*
X195481000Y-106562000D01*
X195521000Y-96850000D02*
X195521000Y-100459000D01*
X195521000Y-102941000D02*
X195521000Y-106550000D01*
X195561000Y-96863000D02*
X195561000Y-100459000D01*
X195561000Y-102941000D02*
X195561000Y-106537000D01*
X195601000Y-96876000D02*
X195601000Y-100459000D01*
X195601000Y-102941000D02*
X195601000Y-106524000D01*
X195641000Y-96889000D02*
X195641000Y-100459000D01*
X195641000Y-102941000D02*
X195641000Y-106511000D01*
X195681000Y-96903000D02*
X195681000Y-100459000D01*
X195681000Y-102941000D02*
X195681000Y-106497000D01*
X195721000Y-96917000D02*
X195721000Y-100459000D01*
X195721000Y-102941000D02*
X195721000Y-106483000D01*
X195761000Y-96932000D02*
X195761000Y-100459000D01*
X195761000Y-102941000D02*
X195761000Y-106468000D01*
X195801000Y-96946000D02*
X195801000Y-100459000D01*
X195801000Y-102941000D02*
X195801000Y-106454000D01*
X195841000Y-96962000D02*
X195841000Y-100459000D01*
X195841000Y-102941000D02*
X195841000Y-106438000D01*
X195881000Y-96977000D02*
X195881000Y-100459000D01*
X195881000Y-102941000D02*
X195881000Y-106423000D01*
X195921000Y-96993000D02*
X195921000Y-100459000D01*
X195921000Y-102941000D02*
X195921000Y-106407000D01*
X195961000Y-97010000D02*
X195961000Y-100459000D01*
X195961000Y-102941000D02*
X195961000Y-106390000D01*
X196001000Y-97026000D02*
X196001000Y-100459000D01*
X196001000Y-102941000D02*
X196001000Y-106374000D01*
X196041000Y-97043000D02*
X196041000Y-100459000D01*
X196041000Y-102941000D02*
X196041000Y-106357000D01*
X196081000Y-97061000D02*
X196081000Y-100459000D01*
X196081000Y-102941000D02*
X196081000Y-106339000D01*
X196121000Y-97079000D02*
X196121000Y-100459000D01*
X196121000Y-102941000D02*
X196121000Y-106321000D01*
X196161000Y-97097000D02*
X196161000Y-100459000D01*
X196161000Y-102941000D02*
X196161000Y-106303000D01*
X196201000Y-97116000D02*
X196201000Y-100459000D01*
X196201000Y-102941000D02*
X196201000Y-106284000D01*
X196241000Y-97136000D02*
X196241000Y-100459000D01*
X196241000Y-102941000D02*
X196241000Y-106264000D01*
X196281000Y-97155000D02*
X196281000Y-100459000D01*
X196281000Y-102941000D02*
X196281000Y-106245000D01*
X196321000Y-97175000D02*
X196321000Y-100459000D01*
X196321000Y-102941000D02*
X196321000Y-106225000D01*
X196361000Y-97196000D02*
X196361000Y-100459000D01*
X196361000Y-102941000D02*
X196361000Y-106204000D01*
X196401000Y-97217000D02*
X196401000Y-100459000D01*
X196401000Y-102941000D02*
X196401000Y-106183000D01*
X196441000Y-97238000D02*
X196441000Y-100459000D01*
X196441000Y-102941000D02*
X196441000Y-106162000D01*
X196481000Y-97260000D02*
X196481000Y-100459000D01*
X196481000Y-102941000D02*
X196481000Y-106140000D01*
X196521000Y-97283000D02*
X196521000Y-100459000D01*
X196521000Y-102941000D02*
X196521000Y-106117000D01*
X196561000Y-97305000D02*
X196561000Y-100459000D01*
X196561000Y-102941000D02*
X196561000Y-106095000D01*
X196601000Y-97329000D02*
X196601000Y-100459000D01*
X196601000Y-102941000D02*
X196601000Y-106071000D01*
X196641000Y-97353000D02*
X196641000Y-100459000D01*
X196641000Y-102941000D02*
X196641000Y-106047000D01*
X196681000Y-97377000D02*
X196681000Y-100459000D01*
X196681000Y-102941000D02*
X196681000Y-106023000D01*
X196721000Y-97402000D02*
X196721000Y-100459000D01*
X196721000Y-102941000D02*
X196721000Y-105998000D01*
X196761000Y-97427000D02*
X196761000Y-100459000D01*
X196761000Y-102941000D02*
X196761000Y-105973000D01*
X196801000Y-97453000D02*
X196801000Y-100459000D01*
X196801000Y-102941000D02*
X196801000Y-105947000D01*
X196841000Y-97479000D02*
X196841000Y-100459000D01*
X196841000Y-102941000D02*
X196841000Y-105921000D01*
X196881000Y-97506000D02*
X196881000Y-100459000D01*
X196881000Y-102941000D02*
X196881000Y-105894000D01*
X196921000Y-97534000D02*
X196921000Y-100459000D01*
X196921000Y-102941000D02*
X196921000Y-105866000D01*
X196961000Y-97562000D02*
X196961000Y-100459000D01*
X196961000Y-102941000D02*
X196961000Y-105838000D01*
X197001000Y-97590000D02*
X197001000Y-100459000D01*
X197001000Y-102941000D02*
X197001000Y-105810000D01*
X197041000Y-97620000D02*
X197041000Y-100459000D01*
X197041000Y-102941000D02*
X197041000Y-105780000D01*
X197081000Y-97650000D02*
X197081000Y-100459000D01*
X197081000Y-102941000D02*
X197081000Y-105750000D01*
X197121000Y-97680000D02*
X197121000Y-100459000D01*
X197121000Y-102941000D02*
X197121000Y-105720000D01*
X197161000Y-97711000D02*
X197161000Y-100459000D01*
X197161000Y-102941000D02*
X197161000Y-105689000D01*
X197201000Y-97743000D02*
X197201000Y-100459000D01*
X197201000Y-102941000D02*
X197201000Y-105657000D01*
X197241000Y-97775000D02*
X197241000Y-100459000D01*
X197241000Y-102941000D02*
X197241000Y-105625000D01*
X197281000Y-97808000D02*
X197281000Y-100459000D01*
X197281000Y-102941000D02*
X197281000Y-105592000D01*
X197321000Y-97842000D02*
X197321000Y-100459000D01*
X197321000Y-102941000D02*
X197321000Y-105558000D01*
X197361000Y-97876000D02*
X197361000Y-100459000D01*
X197361000Y-102941000D02*
X197361000Y-105524000D01*
X197401000Y-97911000D02*
X197401000Y-100459000D01*
X197401000Y-102941000D02*
X197401000Y-105489000D01*
X197441000Y-97947000D02*
X197441000Y-100459000D01*
X197441000Y-102941000D02*
X197441000Y-105453000D01*
X197481000Y-97984000D02*
X197481000Y-100459000D01*
X197481000Y-102941000D02*
X197481000Y-105416000D01*
X197521000Y-98021000D02*
X197521000Y-100459000D01*
X197521000Y-102941000D02*
X197521000Y-105379000D01*
X197561000Y-98060000D02*
X197561000Y-100459000D01*
X197561000Y-102941000D02*
X197561000Y-105340000D01*
X197601000Y-98099000D02*
X197601000Y-100459000D01*
X197601000Y-102941000D02*
X197601000Y-105301000D01*
X197641000Y-98139000D02*
X197641000Y-100459000D01*
X197641000Y-102941000D02*
X197641000Y-105261000D01*
X197681000Y-98180000D02*
X197681000Y-100459000D01*
X197681000Y-102941000D02*
X197681000Y-105220000D01*
X197721000Y-98222000D02*
X197721000Y-100459000D01*
X197721000Y-102941000D02*
X197721000Y-105178000D01*
X197761000Y-98264000D02*
X197761000Y-105136000D01*
X197801000Y-98308000D02*
X197801000Y-105092000D01*
X197841000Y-98353000D02*
X197841000Y-105047000D01*
X197881000Y-98399000D02*
X197881000Y-105001000D01*
X197921000Y-98446000D02*
X197921000Y-104954000D01*
X197961000Y-98494000D02*
X197961000Y-104906000D01*
X198001000Y-98544000D02*
X198001000Y-104856000D01*
X198041000Y-98594000D02*
X198041000Y-104806000D01*
X198081000Y-98646000D02*
X198081000Y-104754000D01*
X198121000Y-98700000D02*
X198121000Y-104700000D01*
X198161000Y-98755000D02*
X198161000Y-104645000D01*
X198201000Y-98811000D02*
X198201000Y-104589000D01*
X198241000Y-98870000D02*
X198241000Y-104530000D01*
X198281000Y-98930000D02*
X198281000Y-104470000D01*
X198321000Y-98991000D02*
X198321000Y-104409000D01*
X198361000Y-99055000D02*
X198361000Y-104345000D01*
X198401000Y-99121000D02*
X198401000Y-104279000D01*
X198441000Y-99190000D02*
X198441000Y-104210000D01*
X198481000Y-99261000D02*
X198481000Y-104139000D01*
X198521000Y-99335000D02*
X198521000Y-104065000D01*
X198561000Y-99411000D02*
X198561000Y-103989000D01*
X198601000Y-99491000D02*
X198601000Y-103909000D01*
X198641000Y-99575000D02*
X198641000Y-103825000D01*
X198681000Y-99663000D02*
X198681000Y-103737000D01*
X198721000Y-99756000D02*
X198721000Y-103644000D01*
X198761000Y-99854000D02*
X198761000Y-103546000D01*
X198801000Y-99958000D02*
X198801000Y-103442000D01*
X198841000Y-100070000D02*
X198841000Y-103330000D01*
X198881000Y-100190000D02*
X198881000Y-103210000D01*
X198921000Y-100322000D02*
X198921000Y-103078000D01*
X198961000Y-100470000D02*
X198961000Y-102930000D01*
X199001000Y-100638000D02*
X199001000Y-102762000D01*
X199041000Y-100838000D02*
X199041000Y-102562000D01*
X199081000Y-101101000D02*
X199081000Y-102299000D01*
X199120000Y-101700000D02*
G75*
G03*
X199120000Y-101700000I-5120000J0D01*
G01*
%TO.C,Q2*%
X183100000Y-101590000D02*
X186700000Y-101590000D01*
X183760000Y-97390001D02*
G75*
G03*
X182532802Y-98636158I1140000J-2349999D01*
G01*
X182575817Y-100862795D02*
G75*
G03*
X183100001Y-101589999I2324183J1122795D01*
G01*
X187255457Y-98641629D02*
G75*
G03*
X186010000Y-97390000I-2355457J-1098371D01*
G01*
X186699999Y-101589999D02*
G75*
G03*
X187224183Y-100862795I-1799999J1849999D01*
G01*
%TO.C,D1*%
X178045000Y-104810000D02*
X174955000Y-104810000D01*
X176499538Y-110359999D02*
G75*
G03*
X178044830Y-104810001I462J2989999D01*
G01*
X174955170Y-104810000D02*
G75*
G03*
X176500462Y-110360000I1544830J-2560000D01*
G01*
X179000000Y-107370000D02*
G75*
G03*
X179000000Y-107370000I-2500000J0D01*
G01*
%TO.C,J3*%
X165005000Y-95645000D02*
X165005000Y-94375000D01*
X166275000Y-95645000D02*
X165005000Y-95645000D01*
X170975000Y-93332071D02*
X170975000Y-92935000D01*
X171735000Y-93332071D02*
X171735000Y-92935000D01*
X165895000Y-93265000D02*
X165895000Y-92935000D01*
X166655000Y-93265000D02*
X166655000Y-92935000D01*
X164945000Y-92935000D02*
X172685000Y-92935000D01*
X167545000Y-92935000D02*
X167545000Y-90275000D01*
X170085000Y-92935000D02*
X170085000Y-90275000D01*
X172685000Y-92935000D02*
X172685000Y-90275000D01*
X164945000Y-90275000D02*
X164945000Y-92935000D01*
X165895000Y-90275000D02*
X165895000Y-84275000D01*
X165955000Y-90275000D02*
X165955000Y-84275000D01*
X166075000Y-90275000D02*
X166075000Y-84275000D01*
X166195000Y-90275000D02*
X166195000Y-84275000D01*
X166315000Y-90275000D02*
X166315000Y-84275000D01*
X166435000Y-90275000D02*
X166435000Y-84275000D01*
X166555000Y-90275000D02*
X166555000Y-84275000D01*
X170975000Y-90275000D02*
X170975000Y-84275000D01*
X172685000Y-90275000D02*
X164945000Y-90275000D01*
X165895000Y-84275000D02*
X166655000Y-84275000D01*
X166655000Y-84275000D02*
X166655000Y-90275000D01*
X170975000Y-84275000D02*
X171735000Y-84275000D01*
X171735000Y-84275000D02*
X171735000Y-90275000D01*
%TO.C,C2*%
X175985000Y-103372262D02*
X175985000Y-102822262D01*
X175710000Y-103097262D02*
X176260000Y-103097262D01*
X176540000Y-97632924D02*
G75*
G03*
X176540000Y-102967076I1060000J-2667076D01*
G01*
X178660000Y-102967076D02*
G75*
G03*
X178660000Y-97632924I-1060000J2667076D01*
G01*
%TD*%
M02*
