%FSLAX45Y45*%
G04 Gerber Fmt 4.5, Leading zero omitted, Abs format (unit mm)*
G04 Created by KiCad (PCBNEW (6.0.4)) date 2022-04-20 18:40:48*
%MOMM*%
%LPD*%
G01*
G04 APERTURE LIST*
%TA.AperFunction,Profile*%
%ADD10C,0.100000*%
%TD*%
%ADD11C,0.200000*%
%ADD12C,0.075000*%
%ADD13C,0.076200*%
%ADD14C,0.080000*%
%ADD15C,0.090000*%
%ADD16C,0.095000*%
G04 APERTURE END LIST*
D10*
X10000000Y-6740000D02*
X16000000Y-6740000D01*
X16000000Y-6740000D02*
X16000000Y-12740000D01*
X16000000Y-12740000D02*
X10000000Y-12740000D01*
X10000000Y-12740000D02*
X10000000Y-6740000D01*
D11*
D12*
X10922500Y-9172500D02*
X10997500Y-9247500D01*
X10997500Y-9172500D02*
X10922500Y-9247500D01*
X11102500Y-9342500D02*
X11177500Y-9417500D01*
X11177500Y-9342500D02*
X11102500Y-9417500D01*
X11272500Y-9172500D02*
X11347500Y-9247500D01*
X11347500Y-9172500D02*
X11272500Y-9247500D01*
X11982500Y-9182500D02*
X12057500Y-9257500D01*
X12057500Y-9182500D02*
X11982500Y-9257500D01*
X12162500Y-9352500D02*
X12237500Y-9427500D01*
X12237500Y-9352500D02*
X12162500Y-9427500D01*
X12332500Y-9182500D02*
X12407500Y-9257500D01*
X12407500Y-9182500D02*
X12332500Y-9257500D01*
X13702500Y-9252500D02*
X13777500Y-9327500D01*
X13777500Y-9252500D02*
X13702500Y-9327500D01*
X13872500Y-9082500D02*
X13947500Y-9157500D01*
X13947500Y-9082500D02*
X13872500Y-9157500D01*
X14052500Y-9252500D02*
X14127500Y-9327500D01*
X14127500Y-9252500D02*
X14052500Y-9327500D01*
X14732500Y-9252500D02*
X14807500Y-9327500D01*
X14807500Y-9252500D02*
X14732500Y-9327500D01*
X14902500Y-9082500D02*
X14977500Y-9157500D01*
X14977500Y-9082500D02*
X14902500Y-9157500D01*
X15082500Y-9252500D02*
X15157500Y-9327500D01*
X15157500Y-9252500D02*
X15082500Y-9327500D01*
D13*
X10768100Y-11250000D02*
G75*
G03*
X10768100Y-11250000I-38100J0D01*
G01*
X10768100Y-11650000D02*
G75*
G03*
X10768100Y-11650000I-38100J0D01*
G01*
X11428100Y-11250000D02*
G75*
G03*
X11428100Y-11250000I-38100J0D01*
G01*
X11428100Y-11650000D02*
G75*
G03*
X11428100Y-11650000I-38100J0D01*
G01*
X12088100Y-11250000D02*
G75*
G03*
X12088100Y-11250000I-38100J0D01*
G01*
X12088100Y-11650000D02*
G75*
G03*
X12088100Y-11650000I-38100J0D01*
G01*
X12748100Y-11250000D02*
G75*
G03*
X12748100Y-11250000I-38100J0D01*
G01*
X12748100Y-11650000D02*
G75*
G03*
X12748100Y-11650000I-38100J0D01*
G01*
X13378100Y-11250000D02*
G75*
G03*
X13378100Y-11250000I-38100J0D01*
G01*
X13378100Y-11650000D02*
G75*
G03*
X13378100Y-11650000I-38100J0D01*
G01*
X14038100Y-11250000D02*
G75*
G03*
X14038100Y-11250000I-38100J0D01*
G01*
X14038100Y-11650000D02*
G75*
G03*
X14038100Y-11650000I-38100J0D01*
G01*
X14658100Y-11250000D02*
G75*
G03*
X14658100Y-11250000I-38100J0D01*
G01*
X14658100Y-11650000D02*
G75*
G03*
X14658100Y-11650000I-38100J0D01*
G01*
X15318100Y-11250000D02*
G75*
G03*
X15318100Y-11250000I-38100J0D01*
G01*
X15318100Y-11650000D02*
G75*
G03*
X15318100Y-11650000I-38100J0D01*
G01*
D14*
X10600000Y-8078000D02*
X10600000Y-8158000D01*
X10560000Y-8118000D02*
X10640000Y-8118000D01*
X10600000Y-9602000D02*
X10600000Y-9682000D01*
X10560000Y-9642000D02*
X10640000Y-9642000D01*
X11670000Y-8088000D02*
X11670000Y-8168000D01*
X11630000Y-8128000D02*
X11710000Y-8128000D01*
X11670000Y-9612000D02*
X11670000Y-9692000D01*
X11630000Y-9652000D02*
X11710000Y-9652000D01*
X14410000Y-8088000D02*
X14410000Y-8168000D01*
X14370000Y-8128000D02*
X14450000Y-8128000D01*
X14410000Y-9612000D02*
X14410000Y-9692000D01*
X14370000Y-9652000D02*
X14450000Y-9652000D01*
X15430000Y-8086000D02*
X15430000Y-8166000D01*
X15390000Y-8126000D02*
X15470000Y-8126000D01*
X15430000Y-9610000D02*
X15430000Y-9690000D01*
X15390000Y-9650000D02*
X15470000Y-9650000D01*
D15*
X10954320Y-7551820D02*
X10954320Y-7488180D01*
X10890680Y-7488180D01*
X10890680Y-7551820D01*
X10954320Y-7551820D01*
X11208320Y-7551820D02*
X11208320Y-7488180D01*
X11144680Y-7488180D01*
X11144680Y-7551820D01*
X11208320Y-7551820D01*
X12254320Y-7541820D02*
X12254320Y-7478180D01*
X12190680Y-7478180D01*
X12190680Y-7541820D01*
X12254320Y-7541820D01*
X12508320Y-7541820D02*
X12508320Y-7478180D01*
X12444680Y-7478180D01*
X12444680Y-7541820D01*
X12508320Y-7541820D01*
X13564320Y-7541820D02*
X13564320Y-7478180D01*
X13500680Y-7478180D01*
X13500680Y-7541820D01*
X13564320Y-7541820D01*
X13818320Y-7541820D02*
X13818320Y-7478180D01*
X13754680Y-7478180D01*
X13754680Y-7541820D01*
X13818320Y-7541820D01*
X14844320Y-7541820D02*
X14844320Y-7478180D01*
X14780680Y-7478180D01*
X14780680Y-7541820D01*
X14844320Y-7541820D01*
X15098320Y-7541820D02*
X15098320Y-7478180D01*
X15034680Y-7478180D01*
X15034680Y-7541820D01*
X15098320Y-7541820D01*
D16*
X11875000Y-10427500D02*
X11922500Y-10380000D01*
X11875000Y-10332500D01*
X11827500Y-10380000D01*
X11875000Y-10427500D01*
X12125000Y-10427500D02*
X12172500Y-10380000D01*
X12125000Y-10332500D01*
X12077500Y-10380000D01*
X12125000Y-10427500D01*
X12375000Y-10427500D02*
X12422500Y-10380000D01*
X12375000Y-10332500D01*
X12327500Y-10380000D01*
X12375000Y-10427500D01*
X12625000Y-10427500D02*
X12672500Y-10380000D01*
X12625000Y-10332500D01*
X12577500Y-10380000D01*
X12625000Y-10427500D01*
X12875000Y-10427500D02*
X12922500Y-10380000D01*
X12875000Y-10332500D01*
X12827500Y-10380000D01*
X12875000Y-10427500D01*
X13125000Y-10427500D02*
X13172500Y-10380000D01*
X13125000Y-10332500D01*
X13077500Y-10380000D01*
X13125000Y-10427500D01*
X13375000Y-10427500D02*
X13422500Y-10380000D01*
X13375000Y-10332500D01*
X13327500Y-10380000D01*
X13375000Y-10427500D01*
X13625000Y-10427500D02*
X13672500Y-10380000D01*
X13625000Y-10332500D01*
X13577500Y-10380000D01*
X13625000Y-10427500D01*
X13875000Y-10427500D02*
X13922500Y-10380000D01*
X13875000Y-10332500D01*
X13827500Y-10380000D01*
X13875000Y-10427500D01*
X14125000Y-10427500D02*
X14172500Y-10380000D01*
X14125000Y-10332500D01*
X14077500Y-10380000D01*
X14125000Y-10427500D01*
D11*
X10252619Y-13055476D02*
X10252619Y-12855476D01*
X10300238Y-12855476D01*
X10328810Y-12865000D01*
X10347857Y-12884048D01*
X10357381Y-12903095D01*
X10366905Y-12941190D01*
X10366905Y-12969762D01*
X10357381Y-13007857D01*
X10347857Y-13026905D01*
X10328810Y-13045952D01*
X10300238Y-13055476D01*
X10252619Y-13055476D01*
X10452619Y-13055476D02*
X10452619Y-12922143D01*
X10452619Y-12960238D02*
X10462143Y-12941190D01*
X10471667Y-12931667D01*
X10490714Y-12922143D01*
X10509762Y-12922143D01*
X10576429Y-13055476D02*
X10576429Y-12922143D01*
X10576429Y-12855476D02*
X10566905Y-12865000D01*
X10576429Y-12874524D01*
X10585952Y-12865000D01*
X10576429Y-12855476D01*
X10576429Y-12874524D01*
X10700238Y-13055476D02*
X10681190Y-13045952D01*
X10671667Y-13026905D01*
X10671667Y-12855476D01*
X10805000Y-13055476D02*
X10785952Y-13045952D01*
X10776429Y-13026905D01*
X10776429Y-12855476D01*
X11033571Y-13055476D02*
X11033571Y-12855476D01*
X11100238Y-12998333D01*
X11166905Y-12855476D01*
X11166905Y-13055476D01*
X11347857Y-13055476D02*
X11347857Y-12950714D01*
X11338333Y-12931667D01*
X11319286Y-12922143D01*
X11281190Y-12922143D01*
X11262143Y-12931667D01*
X11347857Y-13045952D02*
X11328809Y-13055476D01*
X11281190Y-13055476D01*
X11262143Y-13045952D01*
X11252619Y-13026905D01*
X11252619Y-13007857D01*
X11262143Y-12988809D01*
X11281190Y-12979286D01*
X11328809Y-12979286D01*
X11347857Y-12969762D01*
X11443095Y-12922143D02*
X11443095Y-13122143D01*
X11443095Y-12931667D02*
X11462143Y-12922143D01*
X11500238Y-12922143D01*
X11519286Y-12931667D01*
X11528809Y-12941190D01*
X11538333Y-12960238D01*
X11538333Y-13017381D01*
X11528809Y-13036428D01*
X11519286Y-13045952D01*
X11500238Y-13055476D01*
X11462143Y-13055476D01*
X11443095Y-13045952D01*
X11624048Y-13036428D02*
X11633571Y-13045952D01*
X11624048Y-13055476D01*
X11614524Y-13045952D01*
X11624048Y-13036428D01*
X11624048Y-13055476D01*
X11624048Y-12931667D02*
X11633571Y-12941190D01*
X11624048Y-12950714D01*
X11614524Y-12941190D01*
X11624048Y-12931667D01*
X11624048Y-12950714D01*
D12*
X9920000Y-13347500D02*
X9995000Y-13422500D01*
X9995000Y-13347500D02*
X9920000Y-13422500D01*
D11*
X10290714Y-13275476D02*
X10309762Y-13275476D01*
X10328810Y-13285000D01*
X10338333Y-13294524D01*
X10347857Y-13313571D01*
X10357381Y-13351667D01*
X10357381Y-13399286D01*
X10347857Y-13437381D01*
X10338333Y-13456428D01*
X10328810Y-13465952D01*
X10309762Y-13475476D01*
X10290714Y-13475476D01*
X10271667Y-13465952D01*
X10262143Y-13456428D01*
X10252619Y-13437381D01*
X10243095Y-13399286D01*
X10243095Y-13351667D01*
X10252619Y-13313571D01*
X10262143Y-13294524D01*
X10271667Y-13285000D01*
X10290714Y-13275476D01*
X10443095Y-13456428D02*
X10452619Y-13465952D01*
X10443095Y-13475476D01*
X10433571Y-13465952D01*
X10443095Y-13456428D01*
X10443095Y-13475476D01*
X10519286Y-13275476D02*
X10652619Y-13275476D01*
X10566905Y-13475476D01*
X10824048Y-13275476D02*
X10728810Y-13275476D01*
X10719286Y-13370714D01*
X10728810Y-13361190D01*
X10747857Y-13351667D01*
X10795476Y-13351667D01*
X10814524Y-13361190D01*
X10824048Y-13370714D01*
X10833571Y-13389762D01*
X10833571Y-13437381D01*
X10824048Y-13456428D01*
X10814524Y-13465952D01*
X10795476Y-13475476D01*
X10747857Y-13475476D01*
X10728810Y-13465952D01*
X10719286Y-13456428D01*
X10957381Y-13275476D02*
X10976429Y-13275476D01*
X10995476Y-13285000D01*
X11005000Y-13294524D01*
X11014524Y-13313571D01*
X11024048Y-13351667D01*
X11024048Y-13399286D01*
X11014524Y-13437381D01*
X11005000Y-13456428D01*
X10995476Y-13465952D01*
X10976429Y-13475476D01*
X10957381Y-13475476D01*
X10938333Y-13465952D01*
X10928810Y-13456428D01*
X10919286Y-13437381D01*
X10909762Y-13399286D01*
X10909762Y-13351667D01*
X10919286Y-13313571D01*
X10928810Y-13294524D01*
X10938333Y-13285000D01*
X10957381Y-13275476D01*
X11109762Y-13475476D02*
X11109762Y-13342143D01*
X11109762Y-13361190D02*
X11119286Y-13351667D01*
X11138333Y-13342143D01*
X11166905Y-13342143D01*
X11185952Y-13351667D01*
X11195476Y-13370714D01*
X11195476Y-13475476D01*
X11195476Y-13370714D02*
X11205000Y-13351667D01*
X11224048Y-13342143D01*
X11252619Y-13342143D01*
X11271667Y-13351667D01*
X11281190Y-13370714D01*
X11281190Y-13475476D01*
X11376428Y-13475476D02*
X11376428Y-13342143D01*
X11376428Y-13361190D02*
X11385952Y-13351667D01*
X11405000Y-13342143D01*
X11433571Y-13342143D01*
X11452619Y-13351667D01*
X11462143Y-13370714D01*
X11462143Y-13475476D01*
X11462143Y-13370714D02*
X11471667Y-13351667D01*
X11490714Y-13342143D01*
X11519286Y-13342143D01*
X11538333Y-13351667D01*
X11547857Y-13370714D01*
X11547857Y-13475476D01*
X11938333Y-13265952D02*
X11766905Y-13523095D01*
X12195476Y-13275476D02*
X12214524Y-13275476D01*
X12233571Y-13285000D01*
X12243095Y-13294524D01*
X12252619Y-13313571D01*
X12262143Y-13351667D01*
X12262143Y-13399286D01*
X12252619Y-13437381D01*
X12243095Y-13456428D01*
X12233571Y-13465952D01*
X12214524Y-13475476D01*
X12195476Y-13475476D01*
X12176428Y-13465952D01*
X12166905Y-13456428D01*
X12157381Y-13437381D01*
X12147857Y-13399286D01*
X12147857Y-13351667D01*
X12157381Y-13313571D01*
X12166905Y-13294524D01*
X12176428Y-13285000D01*
X12195476Y-13275476D01*
X12347857Y-13456428D02*
X12357381Y-13465952D01*
X12347857Y-13475476D01*
X12338333Y-13465952D01*
X12347857Y-13456428D01*
X12347857Y-13475476D01*
X12481190Y-13275476D02*
X12500238Y-13275476D01*
X12519286Y-13285000D01*
X12528809Y-13294524D01*
X12538333Y-13313571D01*
X12547857Y-13351667D01*
X12547857Y-13399286D01*
X12538333Y-13437381D01*
X12528809Y-13456428D01*
X12519286Y-13465952D01*
X12500238Y-13475476D01*
X12481190Y-13475476D01*
X12462143Y-13465952D01*
X12452619Y-13456428D01*
X12443095Y-13437381D01*
X12433571Y-13399286D01*
X12433571Y-13351667D01*
X12443095Y-13313571D01*
X12452619Y-13294524D01*
X12462143Y-13285000D01*
X12481190Y-13275476D01*
X12624048Y-13294524D02*
X12633571Y-13285000D01*
X12652619Y-13275476D01*
X12700238Y-13275476D01*
X12719286Y-13285000D01*
X12728809Y-13294524D01*
X12738333Y-13313571D01*
X12738333Y-13332619D01*
X12728809Y-13361190D01*
X12614524Y-13475476D01*
X12738333Y-13475476D01*
X12833571Y-13475476D02*
X12871667Y-13475476D01*
X12890714Y-13465952D01*
X12900238Y-13456428D01*
X12919286Y-13427857D01*
X12928809Y-13389762D01*
X12928809Y-13313571D01*
X12919286Y-13294524D01*
X12909762Y-13285000D01*
X12890714Y-13275476D01*
X12852619Y-13275476D01*
X12833571Y-13285000D01*
X12824048Y-13294524D01*
X12814524Y-13313571D01*
X12814524Y-13361190D01*
X12824048Y-13380238D01*
X12833571Y-13389762D01*
X12852619Y-13399286D01*
X12890714Y-13399286D01*
X12909762Y-13389762D01*
X12919286Y-13380238D01*
X12928809Y-13361190D01*
X13109762Y-13275476D02*
X13014524Y-13275476D01*
X13005000Y-13370714D01*
X13014524Y-13361190D01*
X13033571Y-13351667D01*
X13081190Y-13351667D01*
X13100238Y-13361190D01*
X13109762Y-13370714D01*
X13119286Y-13389762D01*
X13119286Y-13437381D01*
X13109762Y-13456428D01*
X13100238Y-13465952D01*
X13081190Y-13475476D01*
X13033571Y-13475476D01*
X13014524Y-13465952D01*
X13005000Y-13456428D01*
X13195476Y-13275476D02*
X13195476Y-13313571D01*
X13271667Y-13275476D02*
X13271667Y-13313571D01*
X13566905Y-13551667D02*
X13557381Y-13542143D01*
X13538333Y-13513571D01*
X13528809Y-13494524D01*
X13519286Y-13465952D01*
X13509762Y-13418333D01*
X13509762Y-13380238D01*
X13519286Y-13332619D01*
X13528809Y-13304048D01*
X13538333Y-13285000D01*
X13557381Y-13256428D01*
X13566905Y-13246905D01*
X13747857Y-13475476D02*
X13633571Y-13475476D01*
X13690714Y-13475476D02*
X13690714Y-13275476D01*
X13671667Y-13304048D01*
X13652619Y-13323095D01*
X13633571Y-13332619D01*
X13824048Y-13294524D02*
X13833571Y-13285000D01*
X13852619Y-13275476D01*
X13900238Y-13275476D01*
X13919286Y-13285000D01*
X13928809Y-13294524D01*
X13938333Y-13313571D01*
X13938333Y-13332619D01*
X13928809Y-13361190D01*
X13814524Y-13475476D01*
X13938333Y-13475476D01*
X14176428Y-13475476D02*
X14176428Y-13275476D01*
X14262143Y-13475476D02*
X14262143Y-13370714D01*
X14252619Y-13351667D01*
X14233571Y-13342143D01*
X14205000Y-13342143D01*
X14185952Y-13351667D01*
X14176428Y-13361190D01*
X14385952Y-13475476D02*
X14366905Y-13465952D01*
X14357381Y-13456428D01*
X14347857Y-13437381D01*
X14347857Y-13380238D01*
X14357381Y-13361190D01*
X14366905Y-13351667D01*
X14385952Y-13342143D01*
X14414524Y-13342143D01*
X14433571Y-13351667D01*
X14443095Y-13361190D01*
X14452619Y-13380238D01*
X14452619Y-13437381D01*
X14443095Y-13456428D01*
X14433571Y-13465952D01*
X14414524Y-13475476D01*
X14385952Y-13475476D01*
X14566905Y-13475476D02*
X14547857Y-13465952D01*
X14538333Y-13446905D01*
X14538333Y-13275476D01*
X14719286Y-13465952D02*
X14700238Y-13475476D01*
X14662143Y-13475476D01*
X14643095Y-13465952D01*
X14633571Y-13446905D01*
X14633571Y-13370714D01*
X14643095Y-13351667D01*
X14662143Y-13342143D01*
X14700238Y-13342143D01*
X14719286Y-13351667D01*
X14728809Y-13370714D01*
X14728809Y-13389762D01*
X14633571Y-13408809D01*
X14805000Y-13465952D02*
X14824048Y-13475476D01*
X14862143Y-13475476D01*
X14881190Y-13465952D01*
X14890714Y-13446905D01*
X14890714Y-13437381D01*
X14881190Y-13418333D01*
X14862143Y-13408809D01*
X14833571Y-13408809D01*
X14814524Y-13399286D01*
X14805000Y-13380238D01*
X14805000Y-13370714D01*
X14814524Y-13351667D01*
X14833571Y-13342143D01*
X14862143Y-13342143D01*
X14881190Y-13351667D01*
X14957381Y-13551667D02*
X14966905Y-13542143D01*
X14985952Y-13513571D01*
X14995476Y-13494524D01*
X15005000Y-13465952D01*
X15014524Y-13418333D01*
X15014524Y-13380238D01*
X15005000Y-13332619D01*
X14995476Y-13304048D01*
X14985952Y-13285000D01*
X14966905Y-13256428D01*
X14957381Y-13246905D01*
D13*
X9995000Y-13649000D02*
G75*
G03*
X9995000Y-13649000I-38100J0D01*
G01*
D11*
X10290714Y-13539476D02*
X10309762Y-13539476D01*
X10328810Y-13549000D01*
X10338333Y-13558524D01*
X10347857Y-13577571D01*
X10357381Y-13615667D01*
X10357381Y-13663286D01*
X10347857Y-13701381D01*
X10338333Y-13720428D01*
X10328810Y-13729952D01*
X10309762Y-13739476D01*
X10290714Y-13739476D01*
X10271667Y-13729952D01*
X10262143Y-13720428D01*
X10252619Y-13701381D01*
X10243095Y-13663286D01*
X10243095Y-13615667D01*
X10252619Y-13577571D01*
X10262143Y-13558524D01*
X10271667Y-13549000D01*
X10290714Y-13539476D01*
X10443095Y-13720428D02*
X10452619Y-13729952D01*
X10443095Y-13739476D01*
X10433571Y-13729952D01*
X10443095Y-13720428D01*
X10443095Y-13739476D01*
X10519286Y-13539476D02*
X10652619Y-13539476D01*
X10566905Y-13739476D01*
X10814524Y-13539476D02*
X10776429Y-13539476D01*
X10757381Y-13549000D01*
X10747857Y-13558524D01*
X10728810Y-13587095D01*
X10719286Y-13625190D01*
X10719286Y-13701381D01*
X10728810Y-13720428D01*
X10738333Y-13729952D01*
X10757381Y-13739476D01*
X10795476Y-13739476D01*
X10814524Y-13729952D01*
X10824048Y-13720428D01*
X10833571Y-13701381D01*
X10833571Y-13653762D01*
X10824048Y-13634714D01*
X10814524Y-13625190D01*
X10795476Y-13615667D01*
X10757381Y-13615667D01*
X10738333Y-13625190D01*
X10728810Y-13634714D01*
X10719286Y-13653762D01*
X10909762Y-13558524D02*
X10919286Y-13549000D01*
X10938333Y-13539476D01*
X10985952Y-13539476D01*
X11005000Y-13549000D01*
X11014524Y-13558524D01*
X11024048Y-13577571D01*
X11024048Y-13596619D01*
X11014524Y-13625190D01*
X10900238Y-13739476D01*
X11024048Y-13739476D01*
X11109762Y-13739476D02*
X11109762Y-13606143D01*
X11109762Y-13625190D02*
X11119286Y-13615667D01*
X11138333Y-13606143D01*
X11166905Y-13606143D01*
X11185952Y-13615667D01*
X11195476Y-13634714D01*
X11195476Y-13739476D01*
X11195476Y-13634714D02*
X11205000Y-13615667D01*
X11224048Y-13606143D01*
X11252619Y-13606143D01*
X11271667Y-13615667D01*
X11281190Y-13634714D01*
X11281190Y-13739476D01*
X11376428Y-13739476D02*
X11376428Y-13606143D01*
X11376428Y-13625190D02*
X11385952Y-13615667D01*
X11405000Y-13606143D01*
X11433571Y-13606143D01*
X11452619Y-13615667D01*
X11462143Y-13634714D01*
X11462143Y-13739476D01*
X11462143Y-13634714D02*
X11471667Y-13615667D01*
X11490714Y-13606143D01*
X11519286Y-13606143D01*
X11538333Y-13615667D01*
X11547857Y-13634714D01*
X11547857Y-13739476D01*
X11938333Y-13529952D02*
X11766905Y-13787095D01*
X12195476Y-13539476D02*
X12214524Y-13539476D01*
X12233571Y-13549000D01*
X12243095Y-13558524D01*
X12252619Y-13577571D01*
X12262143Y-13615667D01*
X12262143Y-13663286D01*
X12252619Y-13701381D01*
X12243095Y-13720428D01*
X12233571Y-13729952D01*
X12214524Y-13739476D01*
X12195476Y-13739476D01*
X12176428Y-13729952D01*
X12166905Y-13720428D01*
X12157381Y-13701381D01*
X12147857Y-13663286D01*
X12147857Y-13615667D01*
X12157381Y-13577571D01*
X12166905Y-13558524D01*
X12176428Y-13549000D01*
X12195476Y-13539476D01*
X12347857Y-13720428D02*
X12357381Y-13729952D01*
X12347857Y-13739476D01*
X12338333Y-13729952D01*
X12347857Y-13720428D01*
X12347857Y-13739476D01*
X12481190Y-13539476D02*
X12500238Y-13539476D01*
X12519286Y-13549000D01*
X12528809Y-13558524D01*
X12538333Y-13577571D01*
X12547857Y-13615667D01*
X12547857Y-13663286D01*
X12538333Y-13701381D01*
X12528809Y-13720428D01*
X12519286Y-13729952D01*
X12500238Y-13739476D01*
X12481190Y-13739476D01*
X12462143Y-13729952D01*
X12452619Y-13720428D01*
X12443095Y-13701381D01*
X12433571Y-13663286D01*
X12433571Y-13615667D01*
X12443095Y-13577571D01*
X12452619Y-13558524D01*
X12462143Y-13549000D01*
X12481190Y-13539476D01*
X12614524Y-13539476D02*
X12738333Y-13539476D01*
X12671667Y-13615667D01*
X12700238Y-13615667D01*
X12719286Y-13625190D01*
X12728809Y-13634714D01*
X12738333Y-13653762D01*
X12738333Y-13701381D01*
X12728809Y-13720428D01*
X12719286Y-13729952D01*
X12700238Y-13739476D01*
X12643095Y-13739476D01*
X12624048Y-13729952D01*
X12614524Y-13720428D01*
X12862143Y-13539476D02*
X12881190Y-13539476D01*
X12900238Y-13549000D01*
X12909762Y-13558524D01*
X12919286Y-13577571D01*
X12928809Y-13615667D01*
X12928809Y-13663286D01*
X12919286Y-13701381D01*
X12909762Y-13720428D01*
X12900238Y-13729952D01*
X12881190Y-13739476D01*
X12862143Y-13739476D01*
X12843095Y-13729952D01*
X12833571Y-13720428D01*
X12824048Y-13701381D01*
X12814524Y-13663286D01*
X12814524Y-13615667D01*
X12824048Y-13577571D01*
X12833571Y-13558524D01*
X12843095Y-13549000D01*
X12862143Y-13539476D01*
X13052619Y-13539476D02*
X13071667Y-13539476D01*
X13090714Y-13549000D01*
X13100238Y-13558524D01*
X13109762Y-13577571D01*
X13119286Y-13615667D01*
X13119286Y-13663286D01*
X13109762Y-13701381D01*
X13100238Y-13720428D01*
X13090714Y-13729952D01*
X13071667Y-13739476D01*
X13052619Y-13739476D01*
X13033571Y-13729952D01*
X13024048Y-13720428D01*
X13014524Y-13701381D01*
X13005000Y-13663286D01*
X13005000Y-13615667D01*
X13014524Y-13577571D01*
X13024048Y-13558524D01*
X13033571Y-13549000D01*
X13052619Y-13539476D01*
X13195476Y-13539476D02*
X13195476Y-13577571D01*
X13271667Y-13539476D02*
X13271667Y-13577571D01*
X13566905Y-13815667D02*
X13557381Y-13806143D01*
X13538333Y-13777571D01*
X13528809Y-13758524D01*
X13519286Y-13729952D01*
X13509762Y-13682333D01*
X13509762Y-13644238D01*
X13519286Y-13596619D01*
X13528809Y-13568048D01*
X13538333Y-13549000D01*
X13557381Y-13520428D01*
X13566905Y-13510905D01*
X13747857Y-13739476D02*
X13633571Y-13739476D01*
X13690714Y-13739476D02*
X13690714Y-13539476D01*
X13671667Y-13568048D01*
X13652619Y-13587095D01*
X13633571Y-13596619D01*
X13919286Y-13539476D02*
X13881190Y-13539476D01*
X13862143Y-13549000D01*
X13852619Y-13558524D01*
X13833571Y-13587095D01*
X13824048Y-13625190D01*
X13824048Y-13701381D01*
X13833571Y-13720428D01*
X13843095Y-13729952D01*
X13862143Y-13739476D01*
X13900238Y-13739476D01*
X13919286Y-13729952D01*
X13928809Y-13720428D01*
X13938333Y-13701381D01*
X13938333Y-13653762D01*
X13928809Y-13634714D01*
X13919286Y-13625190D01*
X13900238Y-13615667D01*
X13862143Y-13615667D01*
X13843095Y-13625190D01*
X13833571Y-13634714D01*
X13824048Y-13653762D01*
X14176428Y-13739476D02*
X14176428Y-13539476D01*
X14262143Y-13739476D02*
X14262143Y-13634714D01*
X14252619Y-13615667D01*
X14233571Y-13606143D01*
X14205000Y-13606143D01*
X14185952Y-13615667D01*
X14176428Y-13625190D01*
X14385952Y-13739476D02*
X14366905Y-13729952D01*
X14357381Y-13720428D01*
X14347857Y-13701381D01*
X14347857Y-13644238D01*
X14357381Y-13625190D01*
X14366905Y-13615667D01*
X14385952Y-13606143D01*
X14414524Y-13606143D01*
X14433571Y-13615667D01*
X14443095Y-13625190D01*
X14452619Y-13644238D01*
X14452619Y-13701381D01*
X14443095Y-13720428D01*
X14433571Y-13729952D01*
X14414524Y-13739476D01*
X14385952Y-13739476D01*
X14566905Y-13739476D02*
X14547857Y-13729952D01*
X14538333Y-13710905D01*
X14538333Y-13539476D01*
X14719286Y-13729952D02*
X14700238Y-13739476D01*
X14662143Y-13739476D01*
X14643095Y-13729952D01*
X14633571Y-13710905D01*
X14633571Y-13634714D01*
X14643095Y-13615667D01*
X14662143Y-13606143D01*
X14700238Y-13606143D01*
X14719286Y-13615667D01*
X14728809Y-13634714D01*
X14728809Y-13653762D01*
X14633571Y-13672809D01*
X14805000Y-13729952D02*
X14824048Y-13739476D01*
X14862143Y-13739476D01*
X14881190Y-13729952D01*
X14890714Y-13710905D01*
X14890714Y-13701381D01*
X14881190Y-13682333D01*
X14862143Y-13672809D01*
X14833571Y-13672809D01*
X14814524Y-13663286D01*
X14805000Y-13644238D01*
X14805000Y-13634714D01*
X14814524Y-13615667D01*
X14833571Y-13606143D01*
X14862143Y-13606143D01*
X14881190Y-13615667D01*
X14957381Y-13815667D02*
X14966905Y-13806143D01*
X14985952Y-13777571D01*
X14995476Y-13758524D01*
X15005000Y-13729952D01*
X15014524Y-13682333D01*
X15014524Y-13644238D01*
X15005000Y-13596619D01*
X14995476Y-13568048D01*
X14985952Y-13549000D01*
X14966905Y-13520428D01*
X14957381Y-13510905D01*
D14*
X9955000Y-13873000D02*
X9955000Y-13953000D01*
X9915000Y-13913000D02*
X9995000Y-13913000D01*
D11*
X10290714Y-13803476D02*
X10309762Y-13803476D01*
X10328810Y-13813000D01*
X10338333Y-13822524D01*
X10347857Y-13841571D01*
X10357381Y-13879667D01*
X10357381Y-13927286D01*
X10347857Y-13965381D01*
X10338333Y-13984428D01*
X10328810Y-13993952D01*
X10309762Y-14003476D01*
X10290714Y-14003476D01*
X10271667Y-13993952D01*
X10262143Y-13984428D01*
X10252619Y-13965381D01*
X10243095Y-13927286D01*
X10243095Y-13879667D01*
X10252619Y-13841571D01*
X10262143Y-13822524D01*
X10271667Y-13813000D01*
X10290714Y-13803476D01*
X10443095Y-13984428D02*
X10452619Y-13993952D01*
X10443095Y-14003476D01*
X10433571Y-13993952D01*
X10443095Y-13984428D01*
X10443095Y-14003476D01*
X10566905Y-13889190D02*
X10547857Y-13879667D01*
X10538333Y-13870143D01*
X10528810Y-13851095D01*
X10528810Y-13841571D01*
X10538333Y-13822524D01*
X10547857Y-13813000D01*
X10566905Y-13803476D01*
X10605000Y-13803476D01*
X10624048Y-13813000D01*
X10633571Y-13822524D01*
X10643095Y-13841571D01*
X10643095Y-13851095D01*
X10633571Y-13870143D01*
X10624048Y-13879667D01*
X10605000Y-13889190D01*
X10566905Y-13889190D01*
X10547857Y-13898714D01*
X10538333Y-13908238D01*
X10528810Y-13927286D01*
X10528810Y-13965381D01*
X10538333Y-13984428D01*
X10547857Y-13993952D01*
X10566905Y-14003476D01*
X10605000Y-14003476D01*
X10624048Y-13993952D01*
X10633571Y-13984428D01*
X10643095Y-13965381D01*
X10643095Y-13927286D01*
X10633571Y-13908238D01*
X10624048Y-13898714D01*
X10605000Y-13889190D01*
X10766905Y-13803476D02*
X10785952Y-13803476D01*
X10805000Y-13813000D01*
X10814524Y-13822524D01*
X10824048Y-13841571D01*
X10833571Y-13879667D01*
X10833571Y-13927286D01*
X10824048Y-13965381D01*
X10814524Y-13984428D01*
X10805000Y-13993952D01*
X10785952Y-14003476D01*
X10766905Y-14003476D01*
X10747857Y-13993952D01*
X10738333Y-13984428D01*
X10728810Y-13965381D01*
X10719286Y-13927286D01*
X10719286Y-13879667D01*
X10728810Y-13841571D01*
X10738333Y-13822524D01*
X10747857Y-13813000D01*
X10766905Y-13803476D01*
X10957381Y-13803476D02*
X10976429Y-13803476D01*
X10995476Y-13813000D01*
X11005000Y-13822524D01*
X11014524Y-13841571D01*
X11024048Y-13879667D01*
X11024048Y-13927286D01*
X11014524Y-13965381D01*
X11005000Y-13984428D01*
X10995476Y-13993952D01*
X10976429Y-14003476D01*
X10957381Y-14003476D01*
X10938333Y-13993952D01*
X10928810Y-13984428D01*
X10919286Y-13965381D01*
X10909762Y-13927286D01*
X10909762Y-13879667D01*
X10919286Y-13841571D01*
X10928810Y-13822524D01*
X10938333Y-13813000D01*
X10957381Y-13803476D01*
X11109762Y-14003476D02*
X11109762Y-13870143D01*
X11109762Y-13889190D02*
X11119286Y-13879667D01*
X11138333Y-13870143D01*
X11166905Y-13870143D01*
X11185952Y-13879667D01*
X11195476Y-13898714D01*
X11195476Y-14003476D01*
X11195476Y-13898714D02*
X11205000Y-13879667D01*
X11224048Y-13870143D01*
X11252619Y-13870143D01*
X11271667Y-13879667D01*
X11281190Y-13898714D01*
X11281190Y-14003476D01*
X11376428Y-14003476D02*
X11376428Y-13870143D01*
X11376428Y-13889190D02*
X11385952Y-13879667D01*
X11405000Y-13870143D01*
X11433571Y-13870143D01*
X11452619Y-13879667D01*
X11462143Y-13898714D01*
X11462143Y-14003476D01*
X11462143Y-13898714D02*
X11471667Y-13879667D01*
X11490714Y-13870143D01*
X11519286Y-13870143D01*
X11538333Y-13879667D01*
X11547857Y-13898714D01*
X11547857Y-14003476D01*
X11938333Y-13793952D02*
X11766905Y-14051095D01*
X12195476Y-13803476D02*
X12214524Y-13803476D01*
X12233571Y-13813000D01*
X12243095Y-13822524D01*
X12252619Y-13841571D01*
X12262143Y-13879667D01*
X12262143Y-13927286D01*
X12252619Y-13965381D01*
X12243095Y-13984428D01*
X12233571Y-13993952D01*
X12214524Y-14003476D01*
X12195476Y-14003476D01*
X12176428Y-13993952D01*
X12166905Y-13984428D01*
X12157381Y-13965381D01*
X12147857Y-13927286D01*
X12147857Y-13879667D01*
X12157381Y-13841571D01*
X12166905Y-13822524D01*
X12176428Y-13813000D01*
X12195476Y-13803476D01*
X12347857Y-13984428D02*
X12357381Y-13993952D01*
X12347857Y-14003476D01*
X12338333Y-13993952D01*
X12347857Y-13984428D01*
X12347857Y-14003476D01*
X12481190Y-13803476D02*
X12500238Y-13803476D01*
X12519286Y-13813000D01*
X12528809Y-13822524D01*
X12538333Y-13841571D01*
X12547857Y-13879667D01*
X12547857Y-13927286D01*
X12538333Y-13965381D01*
X12528809Y-13984428D01*
X12519286Y-13993952D01*
X12500238Y-14003476D01*
X12481190Y-14003476D01*
X12462143Y-13993952D01*
X12452619Y-13984428D01*
X12443095Y-13965381D01*
X12433571Y-13927286D01*
X12433571Y-13879667D01*
X12443095Y-13841571D01*
X12452619Y-13822524D01*
X12462143Y-13813000D01*
X12481190Y-13803476D01*
X12614524Y-13803476D02*
X12738333Y-13803476D01*
X12671667Y-13879667D01*
X12700238Y-13879667D01*
X12719286Y-13889190D01*
X12728809Y-13898714D01*
X12738333Y-13917762D01*
X12738333Y-13965381D01*
X12728809Y-13984428D01*
X12719286Y-13993952D01*
X12700238Y-14003476D01*
X12643095Y-14003476D01*
X12624048Y-13993952D01*
X12614524Y-13984428D01*
X12928809Y-14003476D02*
X12814524Y-14003476D01*
X12871667Y-14003476D02*
X12871667Y-13803476D01*
X12852619Y-13832048D01*
X12833571Y-13851095D01*
X12814524Y-13860619D01*
X13109762Y-13803476D02*
X13014524Y-13803476D01*
X13005000Y-13898714D01*
X13014524Y-13889190D01*
X13033571Y-13879667D01*
X13081190Y-13879667D01*
X13100238Y-13889190D01*
X13109762Y-13898714D01*
X13119286Y-13917762D01*
X13119286Y-13965381D01*
X13109762Y-13984428D01*
X13100238Y-13993952D01*
X13081190Y-14003476D01*
X13033571Y-14003476D01*
X13014524Y-13993952D01*
X13005000Y-13984428D01*
X13195476Y-13803476D02*
X13195476Y-13841571D01*
X13271667Y-13803476D02*
X13271667Y-13841571D01*
X13566905Y-14079667D02*
X13557381Y-14070143D01*
X13538333Y-14041571D01*
X13528809Y-14022524D01*
X13519286Y-13993952D01*
X13509762Y-13946333D01*
X13509762Y-13908238D01*
X13519286Y-13860619D01*
X13528809Y-13832048D01*
X13538333Y-13813000D01*
X13557381Y-13784428D01*
X13566905Y-13774905D01*
X13671667Y-13889190D02*
X13652619Y-13879667D01*
X13643095Y-13870143D01*
X13633571Y-13851095D01*
X13633571Y-13841571D01*
X13643095Y-13822524D01*
X13652619Y-13813000D01*
X13671667Y-13803476D01*
X13709762Y-13803476D01*
X13728809Y-13813000D01*
X13738333Y-13822524D01*
X13747857Y-13841571D01*
X13747857Y-13851095D01*
X13738333Y-13870143D01*
X13728809Y-13879667D01*
X13709762Y-13889190D01*
X13671667Y-13889190D01*
X13652619Y-13898714D01*
X13643095Y-13908238D01*
X13633571Y-13927286D01*
X13633571Y-13965381D01*
X13643095Y-13984428D01*
X13652619Y-13993952D01*
X13671667Y-14003476D01*
X13709762Y-14003476D01*
X13728809Y-13993952D01*
X13738333Y-13984428D01*
X13747857Y-13965381D01*
X13747857Y-13927286D01*
X13738333Y-13908238D01*
X13728809Y-13898714D01*
X13709762Y-13889190D01*
X13985952Y-14003476D02*
X13985952Y-13803476D01*
X14071667Y-14003476D02*
X14071667Y-13898714D01*
X14062143Y-13879667D01*
X14043095Y-13870143D01*
X14014524Y-13870143D01*
X13995476Y-13879667D01*
X13985952Y-13889190D01*
X14195476Y-14003476D02*
X14176428Y-13993952D01*
X14166905Y-13984428D01*
X14157381Y-13965381D01*
X14157381Y-13908238D01*
X14166905Y-13889190D01*
X14176428Y-13879667D01*
X14195476Y-13870143D01*
X14224048Y-13870143D01*
X14243095Y-13879667D01*
X14252619Y-13889190D01*
X14262143Y-13908238D01*
X14262143Y-13965381D01*
X14252619Y-13984428D01*
X14243095Y-13993952D01*
X14224048Y-14003476D01*
X14195476Y-14003476D01*
X14376428Y-14003476D02*
X14357381Y-13993952D01*
X14347857Y-13974905D01*
X14347857Y-13803476D01*
X14528809Y-13993952D02*
X14509762Y-14003476D01*
X14471667Y-14003476D01*
X14452619Y-13993952D01*
X14443095Y-13974905D01*
X14443095Y-13898714D01*
X14452619Y-13879667D01*
X14471667Y-13870143D01*
X14509762Y-13870143D01*
X14528809Y-13879667D01*
X14538333Y-13898714D01*
X14538333Y-13917762D01*
X14443095Y-13936809D01*
X14614524Y-13993952D02*
X14633571Y-14003476D01*
X14671667Y-14003476D01*
X14690714Y-13993952D01*
X14700238Y-13974905D01*
X14700238Y-13965381D01*
X14690714Y-13946333D01*
X14671667Y-13936809D01*
X14643095Y-13936809D01*
X14624048Y-13927286D01*
X14614524Y-13908238D01*
X14614524Y-13898714D01*
X14624048Y-13879667D01*
X14643095Y-13870143D01*
X14671667Y-13870143D01*
X14690714Y-13879667D01*
X14766905Y-14079667D02*
X14776428Y-14070143D01*
X14795476Y-14041571D01*
X14805000Y-14022524D01*
X14814524Y-13993952D01*
X14824048Y-13946333D01*
X14824048Y-13908238D01*
X14814524Y-13860619D01*
X14805000Y-13832048D01*
X14795476Y-13813000D01*
X14776428Y-13784428D01*
X14766905Y-13774905D01*
D15*
X9981820Y-14208820D02*
X9981820Y-14145180D01*
X9918180Y-14145180D01*
X9918180Y-14208820D01*
X9981820Y-14208820D01*
D11*
X10290714Y-14067476D02*
X10309762Y-14067476D01*
X10328810Y-14077000D01*
X10338333Y-14086524D01*
X10347857Y-14105571D01*
X10357381Y-14143667D01*
X10357381Y-14191286D01*
X10347857Y-14229381D01*
X10338333Y-14248428D01*
X10328810Y-14257952D01*
X10309762Y-14267476D01*
X10290714Y-14267476D01*
X10271667Y-14257952D01*
X10262143Y-14248428D01*
X10252619Y-14229381D01*
X10243095Y-14191286D01*
X10243095Y-14143667D01*
X10252619Y-14105571D01*
X10262143Y-14086524D01*
X10271667Y-14077000D01*
X10290714Y-14067476D01*
X10443095Y-14248428D02*
X10452619Y-14257952D01*
X10443095Y-14267476D01*
X10433571Y-14257952D01*
X10443095Y-14248428D01*
X10443095Y-14267476D01*
X10547857Y-14267476D02*
X10585952Y-14267476D01*
X10605000Y-14257952D01*
X10614524Y-14248428D01*
X10633571Y-14219857D01*
X10643095Y-14181762D01*
X10643095Y-14105571D01*
X10633571Y-14086524D01*
X10624048Y-14077000D01*
X10605000Y-14067476D01*
X10566905Y-14067476D01*
X10547857Y-14077000D01*
X10538333Y-14086524D01*
X10528810Y-14105571D01*
X10528810Y-14153190D01*
X10538333Y-14172238D01*
X10547857Y-14181762D01*
X10566905Y-14191286D01*
X10605000Y-14191286D01*
X10624048Y-14181762D01*
X10633571Y-14172238D01*
X10643095Y-14153190D01*
X10766905Y-14067476D02*
X10785952Y-14067476D01*
X10805000Y-14077000D01*
X10814524Y-14086524D01*
X10824048Y-14105571D01*
X10833571Y-14143667D01*
X10833571Y-14191286D01*
X10824048Y-14229381D01*
X10814524Y-14248428D01*
X10805000Y-14257952D01*
X10785952Y-14267476D01*
X10766905Y-14267476D01*
X10747857Y-14257952D01*
X10738333Y-14248428D01*
X10728810Y-14229381D01*
X10719286Y-14191286D01*
X10719286Y-14143667D01*
X10728810Y-14105571D01*
X10738333Y-14086524D01*
X10747857Y-14077000D01*
X10766905Y-14067476D01*
X10957381Y-14067476D02*
X10976429Y-14067476D01*
X10995476Y-14077000D01*
X11005000Y-14086524D01*
X11014524Y-14105571D01*
X11024048Y-14143667D01*
X11024048Y-14191286D01*
X11014524Y-14229381D01*
X11005000Y-14248428D01*
X10995476Y-14257952D01*
X10976429Y-14267476D01*
X10957381Y-14267476D01*
X10938333Y-14257952D01*
X10928810Y-14248428D01*
X10919286Y-14229381D01*
X10909762Y-14191286D01*
X10909762Y-14143667D01*
X10919286Y-14105571D01*
X10928810Y-14086524D01*
X10938333Y-14077000D01*
X10957381Y-14067476D01*
X11109762Y-14267476D02*
X11109762Y-14134143D01*
X11109762Y-14153190D02*
X11119286Y-14143667D01*
X11138333Y-14134143D01*
X11166905Y-14134143D01*
X11185952Y-14143667D01*
X11195476Y-14162714D01*
X11195476Y-14267476D01*
X11195476Y-14162714D02*
X11205000Y-14143667D01*
X11224048Y-14134143D01*
X11252619Y-14134143D01*
X11271667Y-14143667D01*
X11281190Y-14162714D01*
X11281190Y-14267476D01*
X11376428Y-14267476D02*
X11376428Y-14134143D01*
X11376428Y-14153190D02*
X11385952Y-14143667D01*
X11405000Y-14134143D01*
X11433571Y-14134143D01*
X11452619Y-14143667D01*
X11462143Y-14162714D01*
X11462143Y-14267476D01*
X11462143Y-14162714D02*
X11471667Y-14143667D01*
X11490714Y-14134143D01*
X11519286Y-14134143D01*
X11538333Y-14143667D01*
X11547857Y-14162714D01*
X11547857Y-14267476D01*
X11938333Y-14057952D02*
X11766905Y-14315095D01*
X12195476Y-14067476D02*
X12214524Y-14067476D01*
X12233571Y-14077000D01*
X12243095Y-14086524D01*
X12252619Y-14105571D01*
X12262143Y-14143667D01*
X12262143Y-14191286D01*
X12252619Y-14229381D01*
X12243095Y-14248428D01*
X12233571Y-14257952D01*
X12214524Y-14267476D01*
X12195476Y-14267476D01*
X12176428Y-14257952D01*
X12166905Y-14248428D01*
X12157381Y-14229381D01*
X12147857Y-14191286D01*
X12147857Y-14143667D01*
X12157381Y-14105571D01*
X12166905Y-14086524D01*
X12176428Y-14077000D01*
X12195476Y-14067476D01*
X12347857Y-14248428D02*
X12357381Y-14257952D01*
X12347857Y-14267476D01*
X12338333Y-14257952D01*
X12347857Y-14248428D01*
X12347857Y-14267476D01*
X12481190Y-14067476D02*
X12500238Y-14067476D01*
X12519286Y-14077000D01*
X12528809Y-14086524D01*
X12538333Y-14105571D01*
X12547857Y-14143667D01*
X12547857Y-14191286D01*
X12538333Y-14229381D01*
X12528809Y-14248428D01*
X12519286Y-14257952D01*
X12500238Y-14267476D01*
X12481190Y-14267476D01*
X12462143Y-14257952D01*
X12452619Y-14248428D01*
X12443095Y-14229381D01*
X12433571Y-14191286D01*
X12433571Y-14143667D01*
X12443095Y-14105571D01*
X12452619Y-14086524D01*
X12462143Y-14077000D01*
X12481190Y-14067476D01*
X12614524Y-14067476D02*
X12738333Y-14067476D01*
X12671667Y-14143667D01*
X12700238Y-14143667D01*
X12719286Y-14153190D01*
X12728809Y-14162714D01*
X12738333Y-14181762D01*
X12738333Y-14229381D01*
X12728809Y-14248428D01*
X12719286Y-14257952D01*
X12700238Y-14267476D01*
X12643095Y-14267476D01*
X12624048Y-14257952D01*
X12614524Y-14248428D01*
X12919286Y-14067476D02*
X12824048Y-14067476D01*
X12814524Y-14162714D01*
X12824048Y-14153190D01*
X12843095Y-14143667D01*
X12890714Y-14143667D01*
X12909762Y-14153190D01*
X12919286Y-14162714D01*
X12928809Y-14181762D01*
X12928809Y-14229381D01*
X12919286Y-14248428D01*
X12909762Y-14257952D01*
X12890714Y-14267476D01*
X12843095Y-14267476D01*
X12824048Y-14257952D01*
X12814524Y-14248428D01*
X13100238Y-14134143D02*
X13100238Y-14267476D01*
X13052619Y-14057952D02*
X13005000Y-14200809D01*
X13128809Y-14200809D01*
X13195476Y-14067476D02*
X13195476Y-14105571D01*
X13271667Y-14067476D02*
X13271667Y-14105571D01*
X13566905Y-14343667D02*
X13557381Y-14334143D01*
X13538333Y-14305571D01*
X13528809Y-14286524D01*
X13519286Y-14257952D01*
X13509762Y-14210333D01*
X13509762Y-14172238D01*
X13519286Y-14124619D01*
X13528809Y-14096048D01*
X13538333Y-14077000D01*
X13557381Y-14048428D01*
X13566905Y-14038905D01*
X13671667Y-14153190D02*
X13652619Y-14143667D01*
X13643095Y-14134143D01*
X13633571Y-14115095D01*
X13633571Y-14105571D01*
X13643095Y-14086524D01*
X13652619Y-14077000D01*
X13671667Y-14067476D01*
X13709762Y-14067476D01*
X13728809Y-14077000D01*
X13738333Y-14086524D01*
X13747857Y-14105571D01*
X13747857Y-14115095D01*
X13738333Y-14134143D01*
X13728809Y-14143667D01*
X13709762Y-14153190D01*
X13671667Y-14153190D01*
X13652619Y-14162714D01*
X13643095Y-14172238D01*
X13633571Y-14191286D01*
X13633571Y-14229381D01*
X13643095Y-14248428D01*
X13652619Y-14257952D01*
X13671667Y-14267476D01*
X13709762Y-14267476D01*
X13728809Y-14257952D01*
X13738333Y-14248428D01*
X13747857Y-14229381D01*
X13747857Y-14191286D01*
X13738333Y-14172238D01*
X13728809Y-14162714D01*
X13709762Y-14153190D01*
X13985952Y-14267476D02*
X13985952Y-14067476D01*
X14071667Y-14267476D02*
X14071667Y-14162714D01*
X14062143Y-14143667D01*
X14043095Y-14134143D01*
X14014524Y-14134143D01*
X13995476Y-14143667D01*
X13985952Y-14153190D01*
X14195476Y-14267476D02*
X14176428Y-14257952D01*
X14166905Y-14248428D01*
X14157381Y-14229381D01*
X14157381Y-14172238D01*
X14166905Y-14153190D01*
X14176428Y-14143667D01*
X14195476Y-14134143D01*
X14224048Y-14134143D01*
X14243095Y-14143667D01*
X14252619Y-14153190D01*
X14262143Y-14172238D01*
X14262143Y-14229381D01*
X14252619Y-14248428D01*
X14243095Y-14257952D01*
X14224048Y-14267476D01*
X14195476Y-14267476D01*
X14376428Y-14267476D02*
X14357381Y-14257952D01*
X14347857Y-14238905D01*
X14347857Y-14067476D01*
X14528809Y-14257952D02*
X14509762Y-14267476D01*
X14471667Y-14267476D01*
X14452619Y-14257952D01*
X14443095Y-14238905D01*
X14443095Y-14162714D01*
X14452619Y-14143667D01*
X14471667Y-14134143D01*
X14509762Y-14134143D01*
X14528809Y-14143667D01*
X14538333Y-14162714D01*
X14538333Y-14181762D01*
X14443095Y-14200809D01*
X14614524Y-14257952D02*
X14633571Y-14267476D01*
X14671667Y-14267476D01*
X14690714Y-14257952D01*
X14700238Y-14238905D01*
X14700238Y-14229381D01*
X14690714Y-14210333D01*
X14671667Y-14200809D01*
X14643095Y-14200809D01*
X14624048Y-14191286D01*
X14614524Y-14172238D01*
X14614524Y-14162714D01*
X14624048Y-14143667D01*
X14643095Y-14134143D01*
X14671667Y-14134143D01*
X14690714Y-14143667D01*
X14766905Y-14343667D02*
X14776428Y-14334143D01*
X14795476Y-14305571D01*
X14805000Y-14286524D01*
X14814524Y-14257952D01*
X14824048Y-14210333D01*
X14824048Y-14172238D01*
X14814524Y-14124619D01*
X14805000Y-14096048D01*
X14795476Y-14077000D01*
X14776428Y-14048428D01*
X14766905Y-14038905D01*
D16*
X9947500Y-14488500D02*
X9995000Y-14441000D01*
X9947500Y-14393500D01*
X9900000Y-14441000D01*
X9947500Y-14488500D01*
D11*
X10290714Y-14331476D02*
X10309762Y-14331476D01*
X10328810Y-14341000D01*
X10338333Y-14350524D01*
X10347857Y-14369571D01*
X10357381Y-14407667D01*
X10357381Y-14455286D01*
X10347857Y-14493381D01*
X10338333Y-14512428D01*
X10328810Y-14521952D01*
X10309762Y-14531476D01*
X10290714Y-14531476D01*
X10271667Y-14521952D01*
X10262143Y-14512428D01*
X10252619Y-14493381D01*
X10243095Y-14455286D01*
X10243095Y-14407667D01*
X10252619Y-14369571D01*
X10262143Y-14350524D01*
X10271667Y-14341000D01*
X10290714Y-14331476D01*
X10443095Y-14512428D02*
X10452619Y-14521952D01*
X10443095Y-14531476D01*
X10433571Y-14521952D01*
X10443095Y-14512428D01*
X10443095Y-14531476D01*
X10547857Y-14531476D02*
X10585952Y-14531476D01*
X10605000Y-14521952D01*
X10614524Y-14512428D01*
X10633571Y-14483857D01*
X10643095Y-14445762D01*
X10643095Y-14369571D01*
X10633571Y-14350524D01*
X10624048Y-14341000D01*
X10605000Y-14331476D01*
X10566905Y-14331476D01*
X10547857Y-14341000D01*
X10538333Y-14350524D01*
X10528810Y-14369571D01*
X10528810Y-14417190D01*
X10538333Y-14436238D01*
X10547857Y-14445762D01*
X10566905Y-14455286D01*
X10605000Y-14455286D01*
X10624048Y-14445762D01*
X10633571Y-14436238D01*
X10643095Y-14417190D01*
X10824048Y-14331476D02*
X10728810Y-14331476D01*
X10719286Y-14426714D01*
X10728810Y-14417190D01*
X10747857Y-14407667D01*
X10795476Y-14407667D01*
X10814524Y-14417190D01*
X10824048Y-14426714D01*
X10833571Y-14445762D01*
X10833571Y-14493381D01*
X10824048Y-14512428D01*
X10814524Y-14521952D01*
X10795476Y-14531476D01*
X10747857Y-14531476D01*
X10728810Y-14521952D01*
X10719286Y-14512428D01*
X10957381Y-14331476D02*
X10976429Y-14331476D01*
X10995476Y-14341000D01*
X11005000Y-14350524D01*
X11014524Y-14369571D01*
X11024048Y-14407667D01*
X11024048Y-14455286D01*
X11014524Y-14493381D01*
X11005000Y-14512428D01*
X10995476Y-14521952D01*
X10976429Y-14531476D01*
X10957381Y-14531476D01*
X10938333Y-14521952D01*
X10928810Y-14512428D01*
X10919286Y-14493381D01*
X10909762Y-14455286D01*
X10909762Y-14407667D01*
X10919286Y-14369571D01*
X10928810Y-14350524D01*
X10938333Y-14341000D01*
X10957381Y-14331476D01*
X11109762Y-14531476D02*
X11109762Y-14398143D01*
X11109762Y-14417190D02*
X11119286Y-14407667D01*
X11138333Y-14398143D01*
X11166905Y-14398143D01*
X11185952Y-14407667D01*
X11195476Y-14426714D01*
X11195476Y-14531476D01*
X11195476Y-14426714D02*
X11205000Y-14407667D01*
X11224048Y-14398143D01*
X11252619Y-14398143D01*
X11271667Y-14407667D01*
X11281190Y-14426714D01*
X11281190Y-14531476D01*
X11376428Y-14531476D02*
X11376428Y-14398143D01*
X11376428Y-14417190D02*
X11385952Y-14407667D01*
X11405000Y-14398143D01*
X11433571Y-14398143D01*
X11452619Y-14407667D01*
X11462143Y-14426714D01*
X11462143Y-14531476D01*
X11462143Y-14426714D02*
X11471667Y-14407667D01*
X11490714Y-14398143D01*
X11519286Y-14398143D01*
X11538333Y-14407667D01*
X11547857Y-14426714D01*
X11547857Y-14531476D01*
X11938333Y-14321952D02*
X11766905Y-14579095D01*
X12195476Y-14331476D02*
X12214524Y-14331476D01*
X12233571Y-14341000D01*
X12243095Y-14350524D01*
X12252619Y-14369571D01*
X12262143Y-14407667D01*
X12262143Y-14455286D01*
X12252619Y-14493381D01*
X12243095Y-14512428D01*
X12233571Y-14521952D01*
X12214524Y-14531476D01*
X12195476Y-14531476D01*
X12176428Y-14521952D01*
X12166905Y-14512428D01*
X12157381Y-14493381D01*
X12147857Y-14455286D01*
X12147857Y-14407667D01*
X12157381Y-14369571D01*
X12166905Y-14350524D01*
X12176428Y-14341000D01*
X12195476Y-14331476D01*
X12347857Y-14512428D02*
X12357381Y-14521952D01*
X12347857Y-14531476D01*
X12338333Y-14521952D01*
X12347857Y-14512428D01*
X12347857Y-14531476D01*
X12481190Y-14331476D02*
X12500238Y-14331476D01*
X12519286Y-14341000D01*
X12528809Y-14350524D01*
X12538333Y-14369571D01*
X12547857Y-14407667D01*
X12547857Y-14455286D01*
X12538333Y-14493381D01*
X12528809Y-14512428D01*
X12519286Y-14521952D01*
X12500238Y-14531476D01*
X12481190Y-14531476D01*
X12462143Y-14521952D01*
X12452619Y-14512428D01*
X12443095Y-14493381D01*
X12433571Y-14455286D01*
X12433571Y-14407667D01*
X12443095Y-14369571D01*
X12452619Y-14350524D01*
X12462143Y-14341000D01*
X12481190Y-14331476D01*
X12614524Y-14331476D02*
X12738333Y-14331476D01*
X12671667Y-14407667D01*
X12700238Y-14407667D01*
X12719286Y-14417190D01*
X12728809Y-14426714D01*
X12738333Y-14445762D01*
X12738333Y-14493381D01*
X12728809Y-14512428D01*
X12719286Y-14521952D01*
X12700238Y-14531476D01*
X12643095Y-14531476D01*
X12624048Y-14521952D01*
X12614524Y-14512428D01*
X12805000Y-14331476D02*
X12938333Y-14331476D01*
X12852619Y-14531476D01*
X13100238Y-14398143D02*
X13100238Y-14531476D01*
X13052619Y-14321952D02*
X13005000Y-14464809D01*
X13128809Y-14464809D01*
X13195476Y-14331476D02*
X13195476Y-14369571D01*
X13271667Y-14331476D02*
X13271667Y-14369571D01*
X13566905Y-14607667D02*
X13557381Y-14598143D01*
X13538333Y-14569571D01*
X13528809Y-14550524D01*
X13519286Y-14521952D01*
X13509762Y-14474333D01*
X13509762Y-14436238D01*
X13519286Y-14388619D01*
X13528809Y-14360048D01*
X13538333Y-14341000D01*
X13557381Y-14312428D01*
X13566905Y-14302905D01*
X13747857Y-14531476D02*
X13633571Y-14531476D01*
X13690714Y-14531476D02*
X13690714Y-14331476D01*
X13671667Y-14360048D01*
X13652619Y-14379095D01*
X13633571Y-14388619D01*
X13871667Y-14331476D02*
X13890714Y-14331476D01*
X13909762Y-14341000D01*
X13919286Y-14350524D01*
X13928809Y-14369571D01*
X13938333Y-14407667D01*
X13938333Y-14455286D01*
X13928809Y-14493381D01*
X13919286Y-14512428D01*
X13909762Y-14521952D01*
X13890714Y-14531476D01*
X13871667Y-14531476D01*
X13852619Y-14521952D01*
X13843095Y-14512428D01*
X13833571Y-14493381D01*
X13824048Y-14455286D01*
X13824048Y-14407667D01*
X13833571Y-14369571D01*
X13843095Y-14350524D01*
X13852619Y-14341000D01*
X13871667Y-14331476D01*
X14176428Y-14531476D02*
X14176428Y-14331476D01*
X14262143Y-14531476D02*
X14262143Y-14426714D01*
X14252619Y-14407667D01*
X14233571Y-14398143D01*
X14205000Y-14398143D01*
X14185952Y-14407667D01*
X14176428Y-14417190D01*
X14385952Y-14531476D02*
X14366905Y-14521952D01*
X14357381Y-14512428D01*
X14347857Y-14493381D01*
X14347857Y-14436238D01*
X14357381Y-14417190D01*
X14366905Y-14407667D01*
X14385952Y-14398143D01*
X14414524Y-14398143D01*
X14433571Y-14407667D01*
X14443095Y-14417190D01*
X14452619Y-14436238D01*
X14452619Y-14493381D01*
X14443095Y-14512428D01*
X14433571Y-14521952D01*
X14414524Y-14531476D01*
X14385952Y-14531476D01*
X14566905Y-14531476D02*
X14547857Y-14521952D01*
X14538333Y-14502905D01*
X14538333Y-14331476D01*
X14719286Y-14521952D02*
X14700238Y-14531476D01*
X14662143Y-14531476D01*
X14643095Y-14521952D01*
X14633571Y-14502905D01*
X14633571Y-14426714D01*
X14643095Y-14407667D01*
X14662143Y-14398143D01*
X14700238Y-14398143D01*
X14719286Y-14407667D01*
X14728809Y-14426714D01*
X14728809Y-14445762D01*
X14633571Y-14464809D01*
X14805000Y-14521952D02*
X14824048Y-14531476D01*
X14862143Y-14531476D01*
X14881190Y-14521952D01*
X14890714Y-14502905D01*
X14890714Y-14493381D01*
X14881190Y-14474333D01*
X14862143Y-14464809D01*
X14833571Y-14464809D01*
X14814524Y-14455286D01*
X14805000Y-14436238D01*
X14805000Y-14426714D01*
X14814524Y-14407667D01*
X14833571Y-14398143D01*
X14862143Y-14398143D01*
X14881190Y-14407667D01*
X14957381Y-14607667D02*
X14966905Y-14598143D01*
X14985952Y-14569571D01*
X14995476Y-14550524D01*
X15005000Y-14521952D01*
X15014524Y-14474333D01*
X15014524Y-14436238D01*
X15005000Y-14388619D01*
X14995476Y-14360048D01*
X14985952Y-14341000D01*
X14966905Y-14312428D01*
X14957381Y-14302905D01*
M02*
