G04 #@! TF.GenerationSoftware,KiCad,Pcbnew,(6.0.4)*
G04 #@! TF.CreationDate,2022-04-20T18:40:44+02:00*
G04 #@! TF.ProjectId,P_ytka_prze__cznika_NE068,50427974-6b61-45f7-9072-7a654205637a,rev?*
G04 #@! TF.SameCoordinates,Original*
G04 #@! TF.FileFunction,Copper,L1,Top*
G04 #@! TF.FilePolarity,Positive*
%FSLAX46Y46*%
G04 Gerber Fmt 4.6, Leading zero omitted, Abs format (unit mm)*
G04 Created by KiCad (PCBNEW (6.0.4)) date 2022-04-20 18:40:44*
%MOMM*%
%LPD*%
G01*
G04 APERTURE LIST*
G04 Aperture macros list*
%AMRoundRect*
0 Rectangle with rounded corners*
0 $1 Rounding radius*
0 $2 $3 $4 $5 $6 $7 $8 $9 X,Y pos of 4 corners*
0 Add a 4 corners polygon primitive as box body*
4,1,4,$2,$3,$4,$5,$6,$7,$8,$9,$2,$3,0*
0 Add four circle primitives for the rounded corners*
1,1,$1+$1,$2,$3*
1,1,$1+$1,$4,$5*
1,1,$1+$1,$6,$7*
1,1,$1+$1,$8,$9*
0 Add four rect primitives between the rounded corners*
20,1,$1+$1,$2,$3,$4,$5,0*
20,1,$1+$1,$4,$5,$6,$7,0*
20,1,$1+$1,$6,$7,$8,$9,0*
20,1,$1+$1,$8,$9,$2,$3,0*%
G04 Aperture macros list end*
G04 #@! TA.AperFunction,ComponentPad*
%ADD10R,1.800000X1.800000*%
G04 #@! TD*
G04 #@! TA.AperFunction,ComponentPad*
%ADD11C,1.800000*%
G04 #@! TD*
G04 #@! TA.AperFunction,ComponentPad*
%ADD12C,1.600000*%
G04 #@! TD*
G04 #@! TA.AperFunction,ComponentPad*
%ADD13O,1.600000X1.600000*%
G04 #@! TD*
G04 #@! TA.AperFunction,ComponentPad*
%ADD14C,2.500000*%
G04 #@! TD*
G04 #@! TA.AperFunction,ComponentPad*
%ADD15C,2.000000*%
G04 #@! TD*
G04 #@! TA.AperFunction,ComponentPad*
%ADD16RoundRect,0.308824X-0.741176X-1.091176X0.741176X-1.091176X0.741176X1.091176X-0.741176X1.091176X0*%
G04 #@! TD*
G04 #@! TA.AperFunction,ComponentPad*
%ADD17O,2.200000X2.800000*%
G04 #@! TD*
G04 APERTURE END LIST*
D10*
G04 #@! TO.P,D3,1,K*
G04 #@! TO.N,GND*
X135325000Y-75100000D03*
D11*
G04 #@! TO.P,D3,2,A*
G04 #@! TO.N,Net-(D3-Pad2)*
X137865000Y-75100000D03*
G04 #@! TD*
D12*
G04 #@! TO.P,R1,1*
G04 #@! TO.N,Net-(R1-Pad1)*
X106000000Y-96420000D03*
D13*
G04 #@! TO.P,R1,2*
G04 #@! TO.N,Net-(D1-Pad2)*
X106000000Y-81180000D03*
G04 #@! TD*
D14*
G04 #@! TO.P,SW2,1,1*
G04 #@! TO.N,Net-(Q2-Pad1)*
X127100000Y-116500000D03*
G04 #@! TO.P,SW2,2,2*
X120500000Y-116500000D03*
G04 #@! TO.P,SW2,3,K*
G04 #@! TO.N,Net-(J1-Pad2)*
X127100000Y-112500000D03*
G04 #@! TO.P,SW2,4,A*
X120500000Y-112500000D03*
G04 #@! TD*
D10*
G04 #@! TO.P,D1,1,K*
G04 #@! TO.N,GND*
X109225000Y-75200000D03*
D11*
G04 #@! TO.P,D1,2,A*
G04 #@! TO.N,Net-(D1-Pad2)*
X111765000Y-75200000D03*
G04 #@! TD*
D12*
G04 #@! TO.P,R2,1*
G04 #@! TO.N,Net-(R2-Pad1)*
X116700000Y-96520000D03*
D13*
G04 #@! TO.P,R2,2*
G04 #@! TO.N,Net-(D2-Pad2)*
X116700000Y-81280000D03*
G04 #@! TD*
D15*
G04 #@! TO.P,Q1,1,C*
G04 #@! TO.N,Net-(Q2-Pad1)*
X113100000Y-92100000D03*
G04 #@! TO.P,Q1,2,B*
G04 #@! TO.N,Net-(J1-Pad7)*
X111400000Y-93800000D03*
G04 #@! TO.P,Q1,3,E*
G04 #@! TO.N,Net-(R1-Pad1)*
X109600000Y-92100000D03*
G04 #@! TD*
D10*
G04 #@! TO.P,D4,1,K*
G04 #@! TO.N,GND*
X148125000Y-75100000D03*
D11*
G04 #@! TO.P,D4,2,A*
G04 #@! TO.N,Net-(D4-Pad2)*
X150665000Y-75100000D03*
G04 #@! TD*
D12*
G04 #@! TO.P,R4,1*
G04 #@! TO.N,Net-(R4-Pad1)*
X154300000Y-96500000D03*
D13*
G04 #@! TO.P,R4,2*
G04 #@! TO.N,Net-(D4-Pad2)*
X154300000Y-81260000D03*
G04 #@! TD*
D14*
G04 #@! TO.P,SW1,1,1*
G04 #@! TO.N,Net-(Q2-Pad1)*
X113900000Y-116500000D03*
G04 #@! TO.P,SW1,2,2*
X107300000Y-116500000D03*
G04 #@! TO.P,SW1,3,K*
G04 #@! TO.N,Net-(J1-Pad1)*
X113900000Y-112500000D03*
G04 #@! TO.P,SW1,4,A*
X107300000Y-112500000D03*
G04 #@! TD*
D15*
G04 #@! TO.P,Q4,1,C*
G04 #@! TO.N,Net-(Q2-Pad1)*
X147700000Y-92900000D03*
G04 #@! TO.P,Q4,2,B*
G04 #@! TO.N,Net-(Q4-Pad2)*
X149400000Y-91200000D03*
G04 #@! TO.P,Q4,3,E*
G04 #@! TO.N,Net-(R4-Pad1)*
X151200000Y-92900000D03*
G04 #@! TD*
D12*
G04 #@! TO.P,R3,1*
G04 #@! TO.N,Net-(R3-Pad1)*
X144100000Y-96520000D03*
D13*
G04 #@! TO.P,R3,2*
G04 #@! TO.N,Net-(D3-Pad2)*
X144100000Y-81280000D03*
G04 #@! TD*
D15*
G04 #@! TO.P,Q3,1,C*
G04 #@! TO.N,Net-(Q2-Pad1)*
X137400000Y-92900000D03*
G04 #@! TO.P,Q3,2,B*
G04 #@! TO.N,Net-(Q3-Pad2)*
X139100000Y-91200000D03*
G04 #@! TO.P,Q3,3,E*
G04 #@! TO.N,Net-(R3-Pad1)*
X140900000Y-92900000D03*
G04 #@! TD*
D14*
G04 #@! TO.P,SW4,1,1*
G04 #@! TO.N,Net-(Q2-Pad1)*
X152800000Y-116500000D03*
G04 #@! TO.P,SW4,2,2*
X146200000Y-116500000D03*
G04 #@! TO.P,SW4,3,K*
G04 #@! TO.N,Net-(SW4-Pad3)*
X152800000Y-112500000D03*
G04 #@! TO.P,SW4,4,A*
X146200000Y-112500000D03*
G04 #@! TD*
D10*
G04 #@! TO.P,D2,1,K*
G04 #@! TO.N,GND*
X122225000Y-75100000D03*
D11*
G04 #@! TO.P,D2,2,A*
G04 #@! TO.N,Net-(D2-Pad2)*
X124765000Y-75100000D03*
G04 #@! TD*
D16*
G04 #@! TO.P,J1,1,Pin_1*
G04 #@! TO.N,Net-(J1-Pad1)*
X118750000Y-103800000D03*
D17*
G04 #@! TO.P,J1,2,Pin_2*
G04 #@! TO.N,Net-(J1-Pad2)*
X121250000Y-103800000D03*
G04 #@! TO.P,J1,3,Pin_3*
G04 #@! TO.N,Net-(SW3-Pad3)*
X123750000Y-103800000D03*
G04 #@! TO.P,J1,4,Pin_4*
G04 #@! TO.N,Net-(SW4-Pad3)*
X126250000Y-103800000D03*
G04 #@! TO.P,J1,5,Pin_5*
G04 #@! TO.N,GND*
X128750000Y-103800000D03*
G04 #@! TO.P,J1,6,Pin_6*
G04 #@! TO.N,Net-(Q2-Pad1)*
X131250000Y-103800000D03*
G04 #@! TO.P,J1,7,Pin_7*
G04 #@! TO.N,Net-(J1-Pad7)*
X133750000Y-103800000D03*
G04 #@! TO.P,J1,8,Pin_8*
G04 #@! TO.N,Net-(Q2-Pad2)*
X136250000Y-103800000D03*
G04 #@! TO.P,J1,9,Pin_9*
G04 #@! TO.N,Net-(Q3-Pad2)*
X138750000Y-103800000D03*
G04 #@! TO.P,J1,10,Pin_10*
G04 #@! TO.N,Net-(Q4-Pad2)*
X141250000Y-103800000D03*
G04 #@! TD*
D15*
G04 #@! TO.P,Q2,1,C*
G04 #@! TO.N,Net-(Q2-Pad1)*
X123700000Y-92200000D03*
G04 #@! TO.P,Q2,2,B*
G04 #@! TO.N,Net-(Q2-Pad2)*
X122000000Y-93900000D03*
G04 #@! TO.P,Q2,3,E*
G04 #@! TO.N,Net-(R2-Pad1)*
X120200000Y-92200000D03*
G04 #@! TD*
D14*
G04 #@! TO.P,SW3,1,1*
G04 #@! TO.N,Net-(Q2-Pad1)*
X140000000Y-116500000D03*
G04 #@! TO.P,SW3,2,2*
X133400000Y-116500000D03*
G04 #@! TO.P,SW3,3,K*
G04 #@! TO.N,Net-(SW3-Pad3)*
X140000000Y-112500000D03*
G04 #@! TO.P,SW3,4,A*
X133400000Y-112500000D03*
G04 #@! TD*
M02*
