M48
; DRILL file {KiCad (6.0.4)} date Wed Apr 20 18:40:47 2022
; FORMAT={-:-/ absolute / metric / decimal}
; #@! TF.CreationDate,2022-04-20T18:40:47+02:00
; #@! TF.GenerationSoftware,Kicad,Pcbnew,(6.0.4)
; #@! TF.FileFunction,Plated,1,2,PTH
FMAT,2
METRIC
; #@! TA.AperFunction,Plated,PTH,ComponentDrill
T1C0.750
; #@! TA.AperFunction,Plated,PTH,ComponentDrill
T2C0.762
; #@! TA.AperFunction,Plated,PTH,ComponentDrill
T3C0.800
; #@! TA.AperFunction,Plated,PTH,ComponentDrill
T4C0.900
; #@! TA.AperFunction,Plated,PTH,ComponentDrill
T5C0.950
%
G90
G05
T1
X109.6Y-92.1
X111.4Y-93.8
X113.1Y-92.1
X120.2Y-92.2
X122.0Y-93.9
X123.7Y-92.2
X137.4Y-92.9
X139.1Y-91.2
X140.9Y-92.9
X147.7Y-92.9
X149.4Y-91.2
X151.2Y-92.9
T2
X107.3Y-112.5
X107.3Y-116.5
X113.9Y-112.5
X113.9Y-116.5
X120.5Y-112.5
X120.5Y-116.5
X127.1Y-112.5
X127.1Y-116.5
X133.4Y-112.5
X133.4Y-116.5
X140.0Y-112.5
X140.0Y-116.5
X146.2Y-112.5
X146.2Y-116.5
X152.8Y-112.5
X152.8Y-116.5
T3
X106.0Y-81.18
X106.0Y-96.42
X116.7Y-81.28
X116.7Y-96.52
X144.1Y-81.28
X144.1Y-96.52
X154.3Y-81.26
X154.3Y-96.5
T4
X109.225Y-75.2
X111.765Y-75.2
X122.225Y-75.1
X124.765Y-75.1
X135.325Y-75.1
X137.865Y-75.1
X148.125Y-75.1
X150.665Y-75.1
T5
X118.75Y-103.8
X121.25Y-103.8
X123.75Y-103.8
X126.25Y-103.8
X128.75Y-103.8
X131.25Y-103.8
X133.75Y-103.8
X136.25Y-103.8
X138.75Y-103.8
X141.25Y-103.8
T0
M30
