G04 #@! TF.GenerationSoftware,KiCad,Pcbnew,(5.1.10)-1*
G04 #@! TF.CreationDate,2021-11-16T12:52:47+01:00*
G04 #@! TF.ProjectId,colpitts-k_1v5,636f6c70-6974-4747-932d-6b5f3176352e,2*
G04 #@! TF.SameCoordinates,Original*
G04 #@! TF.FileFunction,Copper,L1,Top*
G04 #@! TF.FilePolarity,Positive*
%FSLAX46Y46*%
G04 Gerber Fmt 4.6, Leading zero omitted, Abs format (unit mm)*
G04 Created by KiCad (PCBNEW (5.1.10)-1) date 2021-11-16 12:52:47*
%MOMM*%
%LPD*%
G01*
G04 APERTURE LIST*
G04 #@! TA.AperFunction,NonConductor*
%ADD10C,0.203200*%
G04 #@! TD*
G04 #@! TA.AperFunction,Profile*
%ADD11C,0.254000*%
G04 #@! TD*
G04 #@! TA.AperFunction,ComponentPad*
%ADD12R,1.752600X1.752600*%
G04 #@! TD*
G04 #@! TA.AperFunction,SMDPad,CuDef*
%ADD13R,1.270000X1.143000*%
G04 #@! TD*
G04 #@! TA.AperFunction,SMDPad,CuDef*
%ADD14R,1.778000X1.524000*%
G04 #@! TD*
G04 #@! TA.AperFunction,ComponentPad*
%ADD15C,3.505200*%
G04 #@! TD*
G04 #@! TA.AperFunction,SMDPad,CuDef*
%ADD16R,1.143000X1.270000*%
G04 #@! TD*
G04 #@! TA.AperFunction,SMDPad,CuDef*
%ADD17R,2.300000X1.600000*%
G04 #@! TD*
G04 #@! TA.AperFunction,ComponentPad*
%ADD18C,2.540000*%
G04 #@! TD*
G04 #@! TA.AperFunction,ComponentPad*
%ADD19C,1.778000*%
G04 #@! TD*
G04 #@! TA.AperFunction,SMDPad,CuDef*
%ADD20R,1.651000X1.651000*%
G04 #@! TD*
G04 #@! TA.AperFunction,ComponentPad*
%ADD21C,2.286000*%
G04 #@! TD*
G04 #@! TA.AperFunction,SMDPad,CuDef*
%ADD22R,0.762000X0.685800*%
G04 #@! TD*
G04 #@! TA.AperFunction,SMDPad,CuDef*
%ADD23R,1.778000X1.778000*%
G04 #@! TD*
G04 #@! TA.AperFunction,ComponentPad*
%ADD24C,1.905000*%
G04 #@! TD*
G04 #@! TA.AperFunction,Conductor*
%ADD25C,0.609600*%
G04 #@! TD*
G04 #@! TA.AperFunction,Conductor*
%ADD26C,1.778000*%
G04 #@! TD*
G04 #@! TA.AperFunction,Conductor*
%ADD27C,1.016000*%
G04 #@! TD*
G04 #@! TA.AperFunction,Conductor*
%ADD28C,0.254000*%
G04 #@! TD*
G04 #@! TA.AperFunction,Conductor*
%ADD29C,0.100000*%
G04 #@! TD*
G04 APERTURE END LIST*
D10*
X84376380Y-163551809D02*
X83360380Y-163890476D01*
X84376380Y-164229142D01*
X83360380Y-165100000D02*
X83360380Y-164519428D01*
X83360380Y-164809714D02*
X84376380Y-164809714D01*
X84231238Y-164712952D01*
X84134476Y-164616190D01*
X84086095Y-164519428D01*
X83457142Y-165535428D02*
X83408761Y-165583809D01*
X83360380Y-165535428D01*
X83408761Y-165487047D01*
X83457142Y-165535428D01*
X83360380Y-165535428D01*
X84376380Y-166503047D02*
X84376380Y-166019238D01*
X83892571Y-165970857D01*
X83940952Y-166019238D01*
X83989333Y-166116000D01*
X83989333Y-166357904D01*
X83940952Y-166454666D01*
X83892571Y-166503047D01*
X83795809Y-166551428D01*
X83553904Y-166551428D01*
X83457142Y-166503047D01*
X83408761Y-166454666D01*
X83360380Y-166357904D01*
X83360380Y-166116000D01*
X83408761Y-166019238D01*
X83457142Y-165970857D01*
X120922142Y-123365380D02*
X120970523Y-123317000D01*
X121067285Y-123268619D01*
X121309190Y-123268619D01*
X121405952Y-123317000D01*
X121454333Y-123365380D01*
X121502714Y-123462142D01*
X121502714Y-123558904D01*
X121454333Y-123704047D01*
X120873761Y-124284619D01*
X121502714Y-124284619D01*
X122470333Y-124284619D02*
X121889761Y-124284619D01*
X122180047Y-124284619D02*
X122180047Y-123268619D01*
X122083285Y-123413761D01*
X121986523Y-123510523D01*
X121889761Y-123558904D01*
X122857380Y-123365380D02*
X122905761Y-123317000D01*
X123002523Y-123268619D01*
X123244428Y-123268619D01*
X123341190Y-123317000D01*
X123389571Y-123365380D01*
X123437952Y-123462142D01*
X123437952Y-123558904D01*
X123389571Y-123704047D01*
X122809000Y-124284619D01*
X123437952Y-124284619D01*
X124357190Y-123268619D02*
X123873380Y-123268619D01*
X123825000Y-123752428D01*
X123873380Y-123704047D01*
X123970142Y-123655666D01*
X124212047Y-123655666D01*
X124308809Y-123704047D01*
X124357190Y-123752428D01*
X124405571Y-123849190D01*
X124405571Y-124091095D01*
X124357190Y-124187857D01*
X124308809Y-124236238D01*
X124212047Y-124284619D01*
X123970142Y-124284619D01*
X123873380Y-124236238D01*
X123825000Y-124187857D01*
X124744238Y-124284619D02*
X125276428Y-123607285D01*
X124744238Y-123607285D02*
X125276428Y-124284619D01*
X126195666Y-124284619D02*
X125615095Y-124284619D01*
X125905380Y-124284619D02*
X125905380Y-123268619D01*
X125808619Y-123413761D01*
X125711857Y-123510523D01*
X125615095Y-123558904D01*
X126534333Y-123268619D02*
X127211666Y-123268619D01*
X126776238Y-124284619D01*
X127792238Y-123268619D02*
X127889000Y-123268619D01*
X127985761Y-123317000D01*
X128034142Y-123365380D01*
X128082523Y-123462142D01*
X128130904Y-123655666D01*
X128130904Y-123897571D01*
X128082523Y-124091095D01*
X128034142Y-124187857D01*
X127985761Y-124236238D01*
X127889000Y-124284619D01*
X127792238Y-124284619D01*
X127695476Y-124236238D01*
X127647095Y-124187857D01*
X127598714Y-124091095D01*
X127550333Y-123897571D01*
X127550333Y-123655666D01*
X127598714Y-123462142D01*
X127647095Y-123365380D01*
X127695476Y-123317000D01*
X127792238Y-123268619D01*
X128759857Y-123268619D02*
X128856619Y-123268619D01*
X128953380Y-123317000D01*
X129001761Y-123365380D01*
X129050142Y-123462142D01*
X129098523Y-123655666D01*
X129098523Y-123897571D01*
X129050142Y-124091095D01*
X129001761Y-124187857D01*
X128953380Y-124236238D01*
X128856619Y-124284619D01*
X128759857Y-124284619D01*
X128663095Y-124236238D01*
X128614714Y-124187857D01*
X128566333Y-124091095D01*
X128517952Y-123897571D01*
X128517952Y-123655666D01*
X128566333Y-123462142D01*
X128614714Y-123365380D01*
X128663095Y-123317000D01*
X128759857Y-123268619D01*
X129533952Y-124284619D02*
X129533952Y-123607285D01*
X129533952Y-123704047D02*
X129582333Y-123655666D01*
X129679095Y-123607285D01*
X129824238Y-123607285D01*
X129921000Y-123655666D01*
X129969380Y-123752428D01*
X129969380Y-124284619D01*
X129969380Y-123752428D02*
X130017761Y-123655666D01*
X130114523Y-123607285D01*
X130259666Y-123607285D01*
X130356428Y-123655666D01*
X130404809Y-123752428D01*
X130404809Y-124284619D01*
X131033761Y-124284619D02*
X130937000Y-124236238D01*
X130888619Y-124139476D01*
X130888619Y-123268619D01*
X131372428Y-124236238D02*
X131469190Y-124284619D01*
X131662714Y-124284619D01*
X131759476Y-124236238D01*
X131807857Y-124139476D01*
X131807857Y-124091095D01*
X131759476Y-123994333D01*
X131662714Y-123945952D01*
X131517571Y-123945952D01*
X131420809Y-123897571D01*
X131372428Y-123800809D01*
X131372428Y-123752428D01*
X131420809Y-123655666D01*
X131517571Y-123607285D01*
X131662714Y-123607285D01*
X131759476Y-123655666D01*
X133271380Y-125838857D02*
X133271380Y-125355047D01*
X132787571Y-125306666D01*
X132835952Y-125355047D01*
X132884333Y-125451809D01*
X132884333Y-125693714D01*
X132835952Y-125790476D01*
X132787571Y-125838857D01*
X132690809Y-125887238D01*
X132448904Y-125887238D01*
X132352142Y-125838857D01*
X132303761Y-125790476D01*
X132255380Y-125693714D01*
X132255380Y-125451809D01*
X132303761Y-125355047D01*
X132352142Y-125306666D01*
X132932714Y-126758095D02*
X132255380Y-126758095D01*
X133319761Y-126516190D02*
X132594047Y-126274285D01*
X132594047Y-126903238D01*
X132255380Y-127193523D02*
X132932714Y-127725714D01*
X132932714Y-127193523D02*
X132255380Y-127725714D01*
X132932714Y-128548190D02*
X132255380Y-128548190D01*
X133319761Y-128306285D02*
X132594047Y-128064380D01*
X132594047Y-128693333D01*
X133271380Y-128983619D02*
X133271380Y-129612571D01*
X132884333Y-129273904D01*
X132884333Y-129419047D01*
X132835952Y-129515809D01*
X132787571Y-129564190D01*
X132690809Y-129612571D01*
X132448904Y-129612571D01*
X132352142Y-129564190D01*
X132303761Y-129515809D01*
X132255380Y-129419047D01*
X132255380Y-129128761D01*
X132303761Y-129032000D01*
X132352142Y-128983619D01*
X132352142Y-130048000D02*
X132303761Y-130096380D01*
X132255380Y-130048000D01*
X132303761Y-129999619D01*
X132352142Y-130048000D01*
X132255380Y-130048000D01*
X133174619Y-130483428D02*
X133223000Y-130531809D01*
X133271380Y-130628571D01*
X133271380Y-130870476D01*
X133223000Y-130967238D01*
X133174619Y-131015619D01*
X133077857Y-131064000D01*
X132981095Y-131064000D01*
X132835952Y-131015619D01*
X132255380Y-130435047D01*
X132255380Y-131064000D01*
X132255380Y-131499428D02*
X132932714Y-131499428D01*
X132835952Y-131499428D02*
X132884333Y-131547809D01*
X132932714Y-131644571D01*
X132932714Y-131789714D01*
X132884333Y-131886476D01*
X132787571Y-131934857D01*
X132255380Y-131934857D01*
X132787571Y-131934857D02*
X132884333Y-131983238D01*
X132932714Y-132080000D01*
X132932714Y-132225142D01*
X132884333Y-132321904D01*
X132787571Y-132370285D01*
X132255380Y-132370285D01*
X132255380Y-132854095D02*
X132932714Y-132854095D01*
X132835952Y-132854095D02*
X132884333Y-132902476D01*
X132932714Y-132999238D01*
X132932714Y-133144380D01*
X132884333Y-133241142D01*
X132787571Y-133289523D01*
X132255380Y-133289523D01*
X132787571Y-133289523D02*
X132884333Y-133337904D01*
X132932714Y-133434666D01*
X132932714Y-133579809D01*
X132884333Y-133676571D01*
X132787571Y-133724952D01*
X132255380Y-133724952D01*
X122845285Y-128572380D02*
X122264714Y-128572380D01*
X122555000Y-127556380D02*
X122555000Y-128572380D01*
X99453095Y-151589619D02*
X99453095Y-152412095D01*
X99501476Y-152508857D01*
X99549857Y-152557238D01*
X99646619Y-152605619D01*
X99840142Y-152605619D01*
X99936904Y-152557238D01*
X99985285Y-152508857D01*
X100033666Y-152412095D01*
X100033666Y-151589619D01*
X100517476Y-152073428D02*
X100856142Y-152073428D01*
X101001285Y-152605619D02*
X100517476Y-152605619D01*
X100517476Y-151589619D01*
X101001285Y-151589619D01*
X78147333Y-135333619D02*
X78727904Y-135333619D01*
X78437619Y-136349619D02*
X78437619Y-135333619D01*
X79647142Y-136349619D02*
X79308476Y-135865809D01*
X79066571Y-136349619D02*
X79066571Y-135333619D01*
X79453619Y-135333619D01*
X79550380Y-135382000D01*
X79598761Y-135430380D01*
X79647142Y-135527142D01*
X79647142Y-135672285D01*
X79598761Y-135769047D01*
X79550380Y-135817428D01*
X79453619Y-135865809D01*
X79066571Y-135865809D01*
X80082571Y-136349619D02*
X80082571Y-135333619D01*
X80663142Y-136349619D01*
X80663142Y-135333619D01*
X81340476Y-135333619D02*
X81534000Y-135333619D01*
X81630761Y-135382000D01*
X81727523Y-135478761D01*
X81775904Y-135672285D01*
X81775904Y-136010952D01*
X81727523Y-136204476D01*
X81630761Y-136301238D01*
X81534000Y-136349619D01*
X81340476Y-136349619D01*
X81243714Y-136301238D01*
X81146952Y-136204476D01*
X81098571Y-136010952D01*
X81098571Y-135672285D01*
X81146952Y-135478761D01*
X81243714Y-135382000D01*
X81340476Y-135333619D01*
X88228714Y-150065619D02*
X88228714Y-150888095D01*
X88277095Y-150984857D01*
X88325476Y-151033238D01*
X88422238Y-151081619D01*
X88615761Y-151081619D01*
X88712523Y-151033238D01*
X88760904Y-150984857D01*
X88809285Y-150888095D01*
X88809285Y-150065619D01*
X89293095Y-151081619D02*
X89293095Y-150065619D01*
X89873666Y-151081619D02*
X89438238Y-150501047D01*
X89873666Y-150065619D02*
X89293095Y-150646190D01*
X79550380Y-151982714D02*
X78727904Y-151982714D01*
X78631142Y-152031095D01*
X78582761Y-152079476D01*
X78534380Y-152176238D01*
X78534380Y-152369761D01*
X78582761Y-152466523D01*
X78631142Y-152514904D01*
X78727904Y-152563285D01*
X79550380Y-152563285D01*
X79066571Y-153385761D02*
X79018190Y-153530904D01*
X78969809Y-153579285D01*
X78873047Y-153627666D01*
X78727904Y-153627666D01*
X78631142Y-153579285D01*
X78582761Y-153530904D01*
X78534380Y-153434142D01*
X78534380Y-153047095D01*
X79550380Y-153047095D01*
X79550380Y-153385761D01*
X79502000Y-153482523D01*
X79453619Y-153530904D01*
X79356857Y-153579285D01*
X79260095Y-153579285D01*
X79163333Y-153530904D01*
X79114952Y-153482523D01*
X79066571Y-153385761D01*
X79066571Y-153047095D01*
X100505380Y-160667095D02*
X99682904Y-160667095D01*
X99586142Y-160715476D01*
X99537761Y-160763857D01*
X99489380Y-160860619D01*
X99489380Y-161054142D01*
X99537761Y-161150904D01*
X99586142Y-161199285D01*
X99682904Y-161247666D01*
X100505380Y-161247666D01*
X100021571Y-161731476D02*
X100021571Y-162070142D01*
X99489380Y-162215285D02*
X99489380Y-161731476D01*
X100505380Y-161731476D01*
X100505380Y-162215285D01*
X99489380Y-162650714D02*
X100505380Y-162650714D01*
X100505380Y-162892619D01*
X100457000Y-163037761D01*
X100360238Y-163134523D01*
X100263476Y-163182904D01*
X100069952Y-163231285D01*
X99924809Y-163231285D01*
X99731285Y-163182904D01*
X99634523Y-163134523D01*
X99537761Y-163037761D01*
X99489380Y-162892619D01*
X99489380Y-162650714D01*
X99586142Y-164247285D02*
X99537761Y-164198904D01*
X99489380Y-164053761D01*
X99489380Y-163957000D01*
X99537761Y-163811857D01*
X99634523Y-163715095D01*
X99731285Y-163666714D01*
X99924809Y-163618333D01*
X100069952Y-163618333D01*
X100263476Y-163666714D01*
X100360238Y-163715095D01*
X100457000Y-163811857D01*
X100505380Y-163957000D01*
X100505380Y-164053761D01*
X100457000Y-164198904D01*
X100408619Y-164247285D01*
X86535380Y-156669619D02*
X86535380Y-155653619D01*
X87019190Y-156137428D02*
X87357857Y-156137428D01*
X87503000Y-156669619D02*
X87019190Y-156669619D01*
X87019190Y-155653619D01*
X87503000Y-155653619D01*
X103813428Y-152224619D02*
X103813428Y-151208619D01*
X104297238Y-152224619D02*
X104297238Y-151208619D01*
X104877809Y-152224619D01*
X104877809Y-151208619D01*
X105361619Y-151837571D02*
X106135714Y-151837571D01*
X106958190Y-151692428D02*
X106619523Y-151692428D01*
X106619523Y-152224619D02*
X106619523Y-151208619D01*
X107103333Y-151208619D01*
X98697142Y-146261666D02*
X98648761Y-146213285D01*
X98600380Y-146068142D01*
X98600380Y-145971380D01*
X98648761Y-145826238D01*
X98745523Y-145729476D01*
X98842285Y-145681095D01*
X99035809Y-145632714D01*
X99180952Y-145632714D01*
X99374476Y-145681095D01*
X99471238Y-145729476D01*
X99568000Y-145826238D01*
X99616380Y-145971380D01*
X99616380Y-146068142D01*
X99568000Y-146213285D01*
X99519619Y-146261666D01*
X98600380Y-147277666D02*
X99084190Y-146939000D01*
X98600380Y-146697095D02*
X99616380Y-146697095D01*
X99616380Y-147084142D01*
X99568000Y-147180904D01*
X99519619Y-147229285D01*
X99422857Y-147277666D01*
X99277714Y-147277666D01*
X99180952Y-147229285D01*
X99132571Y-147180904D01*
X99084190Y-147084142D01*
X99084190Y-146697095D01*
X98600380Y-148245285D02*
X98600380Y-147664714D01*
X98600380Y-147955000D02*
X99616380Y-147955000D01*
X99471238Y-147858238D01*
X99374476Y-147761476D01*
X99326095Y-147664714D01*
X101938666Y-134601857D02*
X101890285Y-134650238D01*
X101745142Y-134698619D01*
X101648380Y-134698619D01*
X101503238Y-134650238D01*
X101406476Y-134553476D01*
X101358095Y-134456714D01*
X101309714Y-134263190D01*
X101309714Y-134118047D01*
X101358095Y-133924523D01*
X101406476Y-133827761D01*
X101503238Y-133731000D01*
X101648380Y-133682619D01*
X101745142Y-133682619D01*
X101890285Y-133731000D01*
X101938666Y-133779380D01*
X102954666Y-134698619D02*
X102616000Y-134214809D01*
X102374095Y-134698619D02*
X102374095Y-133682619D01*
X102761142Y-133682619D01*
X102857904Y-133731000D01*
X102906285Y-133779380D01*
X102954666Y-133876142D01*
X102954666Y-134021285D01*
X102906285Y-134118047D01*
X102857904Y-134166428D01*
X102761142Y-134214809D01*
X102374095Y-134214809D01*
X103341714Y-133779380D02*
X103390095Y-133731000D01*
X103486857Y-133682619D01*
X103728761Y-133682619D01*
X103825523Y-133731000D01*
X103873904Y-133779380D01*
X103922285Y-133876142D01*
X103922285Y-133972904D01*
X103873904Y-134118047D01*
X103293333Y-134698619D01*
X103922285Y-134698619D01*
X101503238Y-141937619D02*
X102083809Y-141937619D01*
X101793523Y-142953619D02*
X101793523Y-141937619D01*
X103003047Y-142953619D02*
X102664380Y-142469809D01*
X102422476Y-142953619D02*
X102422476Y-141937619D01*
X102809523Y-141937619D01*
X102906285Y-141986000D01*
X102954666Y-142034380D01*
X103003047Y-142131142D01*
X103003047Y-142276285D01*
X102954666Y-142373047D01*
X102906285Y-142421428D01*
X102809523Y-142469809D01*
X102422476Y-142469809D01*
X103438476Y-142953619D02*
X103438476Y-141937619D01*
X103922285Y-142953619D02*
X103922285Y-141937619D01*
X104260952Y-142663333D01*
X104599619Y-141937619D01*
X104599619Y-142953619D01*
X106686047Y-127459619D02*
X106105476Y-127459619D01*
X106395761Y-127459619D02*
X106395761Y-126443619D01*
X106299000Y-126588761D01*
X106202238Y-126685523D01*
X106105476Y-126733904D01*
X107073095Y-126540380D02*
X107121476Y-126492000D01*
X107218238Y-126443619D01*
X107460142Y-126443619D01*
X107556904Y-126492000D01*
X107605285Y-126540380D01*
X107653666Y-126637142D01*
X107653666Y-126733904D01*
X107605285Y-126879047D01*
X107024714Y-127459619D01*
X107653666Y-127459619D01*
X107943952Y-126443619D02*
X108282619Y-127459619D01*
X108621285Y-126443619D01*
X118400285Y-128191380D02*
X117819714Y-128191380D01*
X118110000Y-127175380D02*
X118110000Y-128191380D01*
X121539000Y-133555619D02*
X121732523Y-133555619D01*
X121829285Y-133604000D01*
X121926047Y-133700761D01*
X121974428Y-133894285D01*
X121974428Y-134232952D01*
X121926047Y-134426476D01*
X121829285Y-134523238D01*
X121732523Y-134571619D01*
X121539000Y-134571619D01*
X121442238Y-134523238D01*
X121345476Y-134426476D01*
X121297095Y-134232952D01*
X121297095Y-133894285D01*
X121345476Y-133700761D01*
X121442238Y-133604000D01*
X121539000Y-133555619D01*
X122409857Y-133555619D02*
X122409857Y-134378095D01*
X122458238Y-134474857D01*
X122506619Y-134523238D01*
X122603380Y-134571619D01*
X122796904Y-134571619D01*
X122893666Y-134523238D01*
X122942047Y-134474857D01*
X122990428Y-134378095D01*
X122990428Y-133555619D01*
X123329095Y-133555619D02*
X123909666Y-133555619D01*
X123619380Y-134571619D02*
X123619380Y-133555619D01*
X109353047Y-166932428D02*
X109498190Y-166980809D01*
X109546571Y-167029190D01*
X109594952Y-167125952D01*
X109594952Y-167271095D01*
X109546571Y-167367857D01*
X109498190Y-167416238D01*
X109401428Y-167464619D01*
X109014380Y-167464619D01*
X109014380Y-166448619D01*
X109353047Y-166448619D01*
X109449809Y-166497000D01*
X109498190Y-166545380D01*
X109546571Y-166642142D01*
X109546571Y-166738904D01*
X109498190Y-166835666D01*
X109449809Y-166884047D01*
X109353047Y-166932428D01*
X109014380Y-166932428D01*
X110030380Y-166448619D02*
X110030380Y-167271095D01*
X110078761Y-167367857D01*
X110127142Y-167416238D01*
X110223904Y-167464619D01*
X110417428Y-167464619D01*
X110514190Y-167416238D01*
X110562571Y-167367857D01*
X110610952Y-167271095D01*
X110610952Y-166448619D01*
X111675333Y-167464619D02*
X111336666Y-166980809D01*
X111094761Y-167464619D02*
X111094761Y-166448619D01*
X111481809Y-166448619D01*
X111578571Y-166497000D01*
X111626952Y-166545380D01*
X111675333Y-166642142D01*
X111675333Y-166787285D01*
X111626952Y-166884047D01*
X111578571Y-166932428D01*
X111481809Y-166980809D01*
X111094761Y-166980809D01*
X112110761Y-167464619D02*
X112110761Y-166448619D01*
X112352666Y-166448619D01*
X112497809Y-166497000D01*
X112594571Y-166593761D01*
X112642952Y-166690523D01*
X112691333Y-166884047D01*
X112691333Y-167029190D01*
X112642952Y-167222714D01*
X112594571Y-167319476D01*
X112497809Y-167416238D01*
X112352666Y-167464619D01*
X112110761Y-167464619D01*
X113175142Y-167416238D02*
X113175142Y-167464619D01*
X113126761Y-167561380D01*
X113078380Y-167609761D01*
X114916857Y-167464619D02*
X114336285Y-167464619D01*
X114626571Y-167464619D02*
X114626571Y-166448619D01*
X114529809Y-166593761D01*
X114433047Y-166690523D01*
X114336285Y-166738904D01*
X115787714Y-166448619D02*
X115594190Y-166448619D01*
X115497428Y-166497000D01*
X115449047Y-166545380D01*
X115352285Y-166690523D01*
X115303904Y-166884047D01*
X115303904Y-167271095D01*
X115352285Y-167367857D01*
X115400666Y-167416238D01*
X115497428Y-167464619D01*
X115690952Y-167464619D01*
X115787714Y-167416238D01*
X115836095Y-167367857D01*
X115884476Y-167271095D01*
X115884476Y-167029190D01*
X115836095Y-166932428D01*
X115787714Y-166884047D01*
X115690952Y-166835666D01*
X115497428Y-166835666D01*
X115400666Y-166884047D01*
X115352285Y-166932428D01*
X115303904Y-167029190D01*
X116319904Y-167077571D02*
X117094000Y-167077571D01*
X118110000Y-167464619D02*
X117529428Y-167464619D01*
X117819714Y-167464619D02*
X117819714Y-166448619D01*
X117722952Y-166593761D01*
X117626190Y-166690523D01*
X117529428Y-166738904D01*
X119077619Y-167464619D02*
X118497047Y-167464619D01*
X118787333Y-167464619D02*
X118787333Y-166448619D01*
X118690571Y-166593761D01*
X118593809Y-166690523D01*
X118497047Y-166738904D01*
X119513047Y-167077571D02*
X120287142Y-167077571D01*
X120722571Y-166545380D02*
X120770952Y-166497000D01*
X120867714Y-166448619D01*
X121109619Y-166448619D01*
X121206380Y-166497000D01*
X121254761Y-166545380D01*
X121303142Y-166642142D01*
X121303142Y-166738904D01*
X121254761Y-166884047D01*
X120674190Y-167464619D01*
X121303142Y-167464619D01*
X121932095Y-166448619D02*
X122028857Y-166448619D01*
X122125619Y-166497000D01*
X122174000Y-166545380D01*
X122222380Y-166642142D01*
X122270761Y-166835666D01*
X122270761Y-167077571D01*
X122222380Y-167271095D01*
X122174000Y-167367857D01*
X122125619Y-167416238D01*
X122028857Y-167464619D01*
X121932095Y-167464619D01*
X121835333Y-167416238D01*
X121786952Y-167367857D01*
X121738571Y-167271095D01*
X121690190Y-167077571D01*
X121690190Y-166835666D01*
X121738571Y-166642142D01*
X121786952Y-166545380D01*
X121835333Y-166497000D01*
X121932095Y-166448619D01*
X122657809Y-166545380D02*
X122706190Y-166497000D01*
X122802952Y-166448619D01*
X123044857Y-166448619D01*
X123141619Y-166497000D01*
X123190000Y-166545380D01*
X123238380Y-166642142D01*
X123238380Y-166738904D01*
X123190000Y-166884047D01*
X122609428Y-167464619D01*
X123238380Y-167464619D01*
X124206000Y-167464619D02*
X123625428Y-167464619D01*
X123915714Y-167464619D02*
X123915714Y-166448619D01*
X123818952Y-166593761D01*
X123722190Y-166690523D01*
X123625428Y-166738904D01*
X110689571Y-165462857D02*
X110641190Y-165511238D01*
X110496047Y-165559619D01*
X110399285Y-165559619D01*
X110254142Y-165511238D01*
X110157380Y-165414476D01*
X110109000Y-165317714D01*
X110060619Y-165124190D01*
X110060619Y-164979047D01*
X110109000Y-164785523D01*
X110157380Y-164688761D01*
X110254142Y-164592000D01*
X110399285Y-164543619D01*
X110496047Y-164543619D01*
X110641190Y-164592000D01*
X110689571Y-164640380D01*
X111318523Y-164543619D02*
X111512047Y-164543619D01*
X111608809Y-164592000D01*
X111705571Y-164688761D01*
X111753952Y-164882285D01*
X111753952Y-165220952D01*
X111705571Y-165414476D01*
X111608809Y-165511238D01*
X111512047Y-165559619D01*
X111318523Y-165559619D01*
X111221761Y-165511238D01*
X111125000Y-165414476D01*
X111076619Y-165220952D01*
X111076619Y-164882285D01*
X111125000Y-164688761D01*
X111221761Y-164592000D01*
X111318523Y-164543619D01*
X112673190Y-165559619D02*
X112189380Y-165559619D01*
X112189380Y-164543619D01*
X113011857Y-165559619D02*
X113011857Y-164543619D01*
X113398904Y-164543619D01*
X113495666Y-164592000D01*
X113544047Y-164640380D01*
X113592428Y-164737142D01*
X113592428Y-164882285D01*
X113544047Y-164979047D01*
X113495666Y-165027428D01*
X113398904Y-165075809D01*
X113011857Y-165075809D01*
X114027857Y-165559619D02*
X114027857Y-164543619D01*
X114366523Y-164543619D02*
X114947095Y-164543619D01*
X114656809Y-165559619D02*
X114656809Y-164543619D01*
X115140619Y-164543619D02*
X115721190Y-164543619D01*
X115430904Y-165559619D02*
X115430904Y-164543619D01*
X116011476Y-165511238D02*
X116156619Y-165559619D01*
X116398523Y-165559619D01*
X116495285Y-165511238D01*
X116543666Y-165462857D01*
X116592047Y-165366095D01*
X116592047Y-165269333D01*
X116543666Y-165172571D01*
X116495285Y-165124190D01*
X116398523Y-165075809D01*
X116205000Y-165027428D01*
X116108238Y-164979047D01*
X116059857Y-164930666D01*
X116011476Y-164833904D01*
X116011476Y-164737142D01*
X116059857Y-164640380D01*
X116108238Y-164592000D01*
X116205000Y-164543619D01*
X116446904Y-164543619D01*
X116592047Y-164592000D01*
X117027476Y-165172571D02*
X117801571Y-165172571D01*
X118285380Y-165559619D02*
X118285380Y-164543619D01*
X118865952Y-165559619D02*
X118430523Y-164979047D01*
X118865952Y-164543619D02*
X118285380Y-165124190D01*
X119059476Y-165656380D02*
X119833571Y-165656380D01*
X120607666Y-165559619D02*
X120027095Y-165559619D01*
X120317380Y-165559619D02*
X120317380Y-164543619D01*
X120220619Y-164688761D01*
X120123857Y-164785523D01*
X120027095Y-164833904D01*
X120946333Y-164882285D02*
X121188238Y-165559619D01*
X121430142Y-164882285D01*
X122301000Y-164543619D02*
X121817190Y-164543619D01*
X121768809Y-165027428D01*
X121817190Y-164979047D01*
X121913952Y-164930666D01*
X122155857Y-164930666D01*
X122252619Y-164979047D01*
X122301000Y-165027428D01*
X122349380Y-165124190D01*
X122349380Y-165366095D01*
X122301000Y-165462857D01*
X122252619Y-165511238D01*
X122155857Y-165559619D01*
X121913952Y-165559619D01*
X121817190Y-165511238D01*
X121768809Y-165462857D01*
X122845285Y-161211380D02*
X122264714Y-161211380D01*
X122555000Y-160195380D02*
X122555000Y-161211380D01*
D11*
X74930000Y-125095000D02*
X131445000Y-125095000D01*
X74930000Y-168275000D02*
X74930000Y-125095000D01*
X131445000Y-168275000D02*
X74930000Y-168275000D01*
X131445000Y-125095000D02*
X131445000Y-168275000D01*
D12*
X108585000Y-134620000D03*
X108585000Y-141605000D03*
X116205000Y-133985000D03*
X119380000Y-132715000D03*
X113665000Y-133985000D03*
X127635000Y-133985000D03*
X127635000Y-151765000D03*
X127635000Y-147955000D03*
X117475000Y-156210000D03*
X114300000Y-156210000D03*
D13*
X109855000Y-151507000D03*
X109855000Y-153793000D03*
X90170000Y-139823000D03*
X90170000Y-142109000D03*
G04 #@! TA.AperFunction,ComponentPad*
G36*
G01*
X82931000Y-136207500D02*
X82931000Y-134810500D01*
G75*
G02*
X83375500Y-134366000I444500J0D01*
G01*
X84264500Y-134366000D01*
G75*
G02*
X84709000Y-134810500I0J-444500D01*
G01*
X84709000Y-136207500D01*
G75*
G02*
X84264500Y-136652000I-444500J0D01*
G01*
X83375500Y-136652000D01*
G75*
G02*
X82931000Y-136207500I0J444500D01*
G01*
G37*
G04 #@! TD.AperFunction*
G04 #@! TA.AperFunction,ComponentPad*
G36*
G01*
X98679000Y-158940500D02*
X98679000Y-157543500D01*
G75*
G02*
X99123500Y-157099000I444500J0D01*
G01*
X100012500Y-157099000D01*
G75*
G02*
X100457000Y-157543500I0J-444500D01*
G01*
X100457000Y-158940500D01*
G75*
G02*
X100012500Y-159385000I-444500J0D01*
G01*
X99123500Y-159385000D01*
G75*
G02*
X98679000Y-158940500I0J444500D01*
G01*
G37*
G04 #@! TD.AperFunction*
G04 #@! TA.AperFunction,ComponentPad*
G36*
G01*
X96139000Y-152590500D02*
X96139000Y-151193500D01*
G75*
G02*
X96583500Y-150749000I444500J0D01*
G01*
X97472500Y-150749000D01*
G75*
G02*
X97917000Y-151193500I0J-444500D01*
G01*
X97917000Y-152590500D01*
G75*
G02*
X97472500Y-153035000I-444500J0D01*
G01*
X96583500Y-153035000D01*
G75*
G02*
X96139000Y-152590500I0J444500D01*
G01*
G37*
G04 #@! TD.AperFunction*
G04 #@! TA.AperFunction,ComponentPad*
G36*
G01*
X88773000Y-148653500D02*
X88773000Y-147256500D01*
G75*
G02*
X89217500Y-146812000I444500J0D01*
G01*
X90106500Y-146812000D01*
G75*
G02*
X90551000Y-147256500I0J-444500D01*
G01*
X90551000Y-148653500D01*
G75*
G02*
X90106500Y-149098000I-444500J0D01*
G01*
X89217500Y-149098000D01*
G75*
G02*
X88773000Y-148653500I0J444500D01*
G01*
G37*
G04 #@! TD.AperFunction*
D12*
X83693000Y-160782000D03*
X119380000Y-160020000D03*
X114935000Y-160020000D03*
X110490000Y-160020000D03*
X94615000Y-131445000D03*
X86360000Y-132334000D03*
X88900000Y-131445000D03*
X80645000Y-144145000D03*
X85725000Y-146050000D03*
X82550000Y-146050000D03*
X76835000Y-149860000D03*
X77470000Y-158115000D03*
X86360000Y-165735000D03*
X89535000Y-165735000D03*
X93345000Y-165735000D03*
X97155000Y-164465000D03*
X109855000Y-156210000D03*
X119380000Y-137160000D03*
X108585000Y-138430000D03*
X99060000Y-133985000D03*
X99060000Y-131445000D03*
G04 #@! TA.AperFunction,SMDPad,CuDef*
G36*
G01*
X122110500Y-129286000D02*
X122999500Y-129286000D01*
G75*
G02*
X123444000Y-129730500I0J-444500D01*
G01*
X123444000Y-131889500D01*
G75*
G02*
X122999500Y-132334000I-444500J0D01*
G01*
X122110500Y-132334000D01*
G75*
G02*
X121666000Y-131889500I0J444500D01*
G01*
X121666000Y-129730500D01*
G75*
G02*
X122110500Y-129286000I444500J0D01*
G01*
G37*
G04 #@! TD.AperFunction*
G04 #@! TA.AperFunction,SMDPad,CuDef*
G36*
G01*
X122110500Y-135128000D02*
X122999500Y-135128000D01*
G75*
G02*
X123444000Y-135572500I0J-444500D01*
G01*
X123444000Y-137731500D01*
G75*
G02*
X122999500Y-138176000I-444500J0D01*
G01*
X122110500Y-138176000D01*
G75*
G02*
X121666000Y-137731500I0J444500D01*
G01*
X121666000Y-135572500D01*
G75*
G02*
X122110500Y-135128000I444500J0D01*
G01*
G37*
G04 #@! TD.AperFunction*
D14*
X95250000Y-144681000D03*
X95250000Y-148681000D03*
G04 #@! TA.AperFunction,SMDPad,CuDef*
G36*
G01*
X107569000Y-148780500D02*
X107569000Y-149669500D01*
G75*
G02*
X107124500Y-150114000I-444500J0D01*
G01*
X104965500Y-150114000D01*
G75*
G02*
X104521000Y-149669500I0J444500D01*
G01*
X104521000Y-148780500D01*
G75*
G02*
X104965500Y-148336000I444500J0D01*
G01*
X107124500Y-148336000D01*
G75*
G02*
X107569000Y-148780500I0J-444500D01*
G01*
G37*
G04 #@! TD.AperFunction*
D12*
X118110000Y-130175000D03*
D15*
X78740000Y-164465000D03*
X127635000Y-164465000D03*
X127635000Y-128905000D03*
X78740000Y-128905000D03*
D13*
X92456000Y-142744000D03*
X92456000Y-145030000D03*
X92456000Y-140458000D03*
X92456000Y-138172000D03*
X80645000Y-159508000D03*
X80645000Y-157222000D03*
D16*
X79252000Y-149860000D03*
X81538000Y-149860000D03*
D13*
X86360000Y-148467000D03*
X86360000Y-150753000D03*
X94615000Y-133727000D03*
X94615000Y-136013000D03*
X88900000Y-133727000D03*
X88900000Y-136013000D03*
D17*
X100013000Y-140335000D03*
X95313000Y-140335000D03*
D13*
X96393000Y-162175000D03*
X96393000Y-159889000D03*
D16*
X111637000Y-141605000D03*
X113923000Y-141605000D03*
X109732000Y-149225000D03*
X112018000Y-149225000D03*
D13*
X106045000Y-138553000D03*
X106045000Y-136267000D03*
X116205000Y-138688000D03*
X116205000Y-136402000D03*
X122555000Y-144268000D03*
X122555000Y-141982000D03*
D18*
X127635000Y-137160000D03*
X127635000Y-140589000D03*
X127635000Y-144018000D03*
X111125000Y-128905000D03*
X114554000Y-128905000D03*
D19*
X87634000Y-138585000D03*
X87634000Y-143585000D03*
X83951000Y-143585000D03*
X83951000Y-138585000D03*
D20*
X81280000Y-153035000D03*
D21*
X89535000Y-158195000D03*
X87035000Y-160695000D03*
X89535000Y-163195000D03*
D22*
X91125000Y-153289000D03*
X93025000Y-153289000D03*
X92075000Y-151003000D03*
X118745000Y-144907000D03*
X119695000Y-147193000D03*
X117795000Y-147193000D03*
D13*
X83820000Y-153158000D03*
X83820000Y-150872000D03*
X83820000Y-155952000D03*
X83820000Y-158238000D03*
X80645000Y-141728000D03*
X80645000Y-139442000D03*
D16*
X86237000Y-153035000D03*
X88523000Y-153035000D03*
D13*
X93345000Y-157603000D03*
X93345000Y-155317000D03*
X93345000Y-161032000D03*
X93345000Y-163318000D03*
X96393000Y-157611000D03*
X96393000Y-155325000D03*
X113665000Y-144522000D03*
X113665000Y-146808000D03*
X114300000Y-153793000D03*
X114300000Y-151507000D03*
D16*
X116463000Y-149225000D03*
X114177000Y-149225000D03*
D13*
X117475000Y-140712000D03*
X117475000Y-142998000D03*
D16*
X122932000Y-151765000D03*
X125218000Y-151765000D03*
D13*
X119380000Y-149602000D03*
X119380000Y-151888000D03*
D23*
X102235000Y-136525000D03*
X102870000Y-140335000D03*
X99060000Y-144145000D03*
D24*
X103505000Y-131405000D03*
X103505000Y-128905000D03*
D13*
X107315000Y-146808000D03*
X107315000Y-144522000D03*
X109855000Y-146808000D03*
X109855000Y-144522000D03*
X122555000Y-147062000D03*
X122555000Y-149348000D03*
D16*
X120527000Y-139700000D03*
X122813000Y-139700000D03*
D25*
X106235500Y-154940000D02*
X106235500Y-158877000D01*
D26*
X106235500Y-158877000D02*
X106172000Y-158877000D01*
X106235500Y-156908500D02*
X106172000Y-156908500D01*
X106235500Y-154940000D02*
X106172000Y-154940000D01*
X103695500Y-158877000D02*
X103632000Y-158877000D01*
X103695500Y-156908500D02*
X103632000Y-156908500D01*
X103695500Y-154940000D02*
X103632000Y-154940000D01*
D25*
X103695500Y-154940000D02*
X103695500Y-158877000D01*
D26*
X102171500Y-164401500D02*
X102108000Y-164401500D01*
X102171500Y-166370000D02*
X102108000Y-166370000D01*
X102171500Y-162433000D02*
X102108000Y-162433000D01*
D25*
X102171500Y-162433000D02*
X102171500Y-166370000D01*
X124396500Y-154813000D02*
X124396500Y-158750000D01*
D26*
X124396500Y-156781500D02*
X124333000Y-156781500D01*
X124396500Y-158750000D02*
X124333000Y-158750000D01*
X124396500Y-154813000D02*
X124333000Y-154813000D01*
X126936500Y-156781500D02*
X126873000Y-156781500D01*
D25*
X126936500Y-154813000D02*
X126936500Y-158750000D01*
D26*
X126936500Y-154813000D02*
X126873000Y-154813000D01*
X126936500Y-158750000D02*
X126873000Y-158750000D01*
X129476500Y-156781500D02*
X129413000Y-156781500D01*
D25*
X129476500Y-154813000D02*
X129476500Y-158750000D01*
D26*
X129476500Y-158750000D02*
X129413000Y-158750000D01*
X129476500Y-154813000D02*
X129413000Y-154813000D01*
X84328000Y-126428500D02*
X84328000Y-126492000D01*
X86296500Y-126428500D02*
X86296500Y-126492000D01*
D25*
X84328000Y-126428500D02*
X88265000Y-126428500D01*
D26*
X88265000Y-126428500D02*
X88265000Y-126492000D01*
X93281500Y-126428500D02*
X93281500Y-126492000D01*
X95250000Y-126428500D02*
X95250000Y-126492000D01*
D25*
X91313000Y-126428500D02*
X95250000Y-126428500D01*
D26*
X91313000Y-126428500D02*
X91313000Y-126492000D01*
D25*
X98298000Y-126428500D02*
X102235000Y-126428500D01*
D26*
X100266500Y-126428500D02*
X100266500Y-126492000D01*
X102235000Y-126428500D02*
X102235000Y-126492000D01*
X98298000Y-126428500D02*
X98298000Y-126492000D01*
X107251500Y-162433000D02*
X107188000Y-162433000D01*
D25*
X107251500Y-162433000D02*
X107251500Y-166370000D01*
D26*
X107251500Y-166370000D02*
X107188000Y-166370000D01*
X107251500Y-164401500D02*
X107188000Y-164401500D01*
D25*
X104711500Y-162433000D02*
X104711500Y-166370000D01*
D26*
X104711500Y-166370000D02*
X104648000Y-166370000D01*
X104711500Y-162433000D02*
X104648000Y-162433000D01*
X104711500Y-164401500D02*
X104648000Y-164401500D01*
D25*
X93214000Y-142744000D02*
X92075000Y-142744000D01*
X95151000Y-144681000D02*
X93214000Y-142744000D01*
X95250000Y-144681000D02*
X95151000Y-144681000D01*
X92456000Y-140712000D02*
X92456000Y-142744000D01*
X92452000Y-140335000D02*
X92075000Y-140712000D01*
X95313000Y-140335000D02*
X92452000Y-140335000D01*
X96520000Y-146685000D02*
X92583000Y-146685000D01*
X99060000Y-144145000D02*
X96520000Y-146685000D01*
D27*
X89662000Y-147955000D02*
X92202000Y-147955000D01*
D25*
X92456000Y-146812000D02*
X92583000Y-146685000D01*
X92456000Y-150622000D02*
X92456000Y-146812000D01*
X92075000Y-151003000D02*
X92456000Y-150622000D01*
D27*
X92329000Y-145030000D02*
X89920000Y-145030000D01*
D25*
X92456000Y-145411000D02*
X92075000Y-145030000D01*
X92456000Y-146558000D02*
X92456000Y-145411000D01*
X92583000Y-146685000D02*
X92456000Y-146558000D01*
D27*
X87634000Y-143585000D02*
X87761000Y-143585000D01*
X87634000Y-143887000D02*
X87634000Y-143585000D01*
X88777000Y-145030000D02*
X87634000Y-143887000D01*
X89920000Y-145030000D02*
X88777000Y-145030000D01*
D25*
X90043000Y-144907000D02*
X89920000Y-145030000D01*
X90043000Y-142109000D02*
X90043000Y-144907000D01*
X86237000Y-150876000D02*
X86360000Y-150753000D01*
X86237000Y-153035000D02*
X86237000Y-150876000D01*
X83820000Y-155952000D02*
X83820000Y-153158000D01*
X83943000Y-153035000D02*
X83820000Y-153158000D01*
X86237000Y-153035000D02*
X83943000Y-153035000D01*
X81403000Y-153158000D02*
X81280000Y-153035000D01*
X83820000Y-153158000D02*
X81403000Y-153158000D01*
X81280000Y-156329000D02*
X80387000Y-157222000D01*
X80387000Y-157222000D02*
X80645000Y-157222000D01*
X81280000Y-153035000D02*
X81280000Y-156329000D01*
X90871000Y-153035000D02*
X88523000Y-153035000D01*
X91125000Y-153289000D02*
X90871000Y-153035000D01*
X116463000Y-149225000D02*
X116463000Y-148525000D01*
X116463000Y-148525000D02*
X117795000Y-147193000D01*
X102870000Y-140335000D02*
X100013000Y-140335000D01*
D27*
X118150000Y-130135000D02*
X118110000Y-130175000D01*
X99100000Y-131405000D02*
X99060000Y-131445000D01*
X99100000Y-133945000D02*
X99060000Y-133985000D01*
X108625000Y-138390000D02*
X108585000Y-138430000D01*
X119420000Y-137120000D02*
X119380000Y-137160000D01*
X109895000Y-156170000D02*
X109855000Y-156210000D01*
X97195000Y-164425000D02*
X97155000Y-164465000D01*
X93385000Y-165695000D02*
X93345000Y-165735000D01*
X89575000Y-165695000D02*
X89535000Y-165735000D01*
X86400000Y-165695000D02*
X86360000Y-165735000D01*
X77510000Y-158075000D02*
X77470000Y-158115000D01*
X76875000Y-149820000D02*
X76835000Y-149860000D01*
X82590000Y-146010000D02*
X82550000Y-146050000D01*
X85765000Y-146010000D02*
X85725000Y-146050000D01*
X80685000Y-144105000D02*
X80645000Y-144145000D01*
X88940000Y-131405000D02*
X88900000Y-131445000D01*
X108462000Y-138553000D02*
X108585000Y-138430000D01*
X106045000Y-138553000D02*
X108462000Y-138553000D01*
X94655000Y-131405000D02*
X94615000Y-131445000D01*
X103505000Y-131405000D02*
X94655000Y-131405000D01*
X94615000Y-133727000D02*
X94615000Y-131445000D01*
X99060000Y-133985000D02*
X99060000Y-131445000D01*
X88900000Y-133727000D02*
X88900000Y-131445000D01*
X86360000Y-146685000D02*
X85725000Y-146050000D01*
X86360000Y-148467000D02*
X86360000Y-146685000D01*
X82550000Y-146050000D02*
X80645000Y-144145000D01*
X80645000Y-144145000D02*
X80645000Y-141728000D01*
X84205000Y-145665000D02*
X83820000Y-146050000D01*
X83947000Y-143585000D02*
X83947000Y-145665000D01*
X83820000Y-146050000D02*
X82550000Y-146050000D01*
X85725000Y-146050000D02*
X83820000Y-146050000D01*
X89535000Y-163195000D02*
X89535000Y-165735000D01*
X93345000Y-163318000D02*
X93345000Y-165735000D01*
X87035000Y-160695000D02*
X86400000Y-160695000D01*
X86360000Y-160735000D02*
X86360000Y-165735000D01*
X86400000Y-160695000D02*
X86360000Y-160735000D01*
X83820000Y-160020000D02*
X83820000Y-158238000D01*
X77470000Y-160020000D02*
X77470000Y-158115000D01*
X80010000Y-160020000D02*
X77470000Y-160020000D01*
X77470000Y-158115000D02*
X76835000Y-157480000D01*
X76835000Y-157480000D02*
X76835000Y-149860000D01*
X76835000Y-149860000D02*
X79252000Y-149860000D01*
X80645000Y-159508000D02*
X80645000Y-160020000D01*
X80645000Y-160020000D02*
X80010000Y-160020000D01*
X83820000Y-160020000D02*
X80645000Y-160020000D01*
X114300000Y-156210000D02*
X114300000Y-158750000D01*
X117475000Y-160020000D02*
X117475000Y-156210000D01*
X93345000Y-165735000D02*
X86360000Y-165735000D01*
X93345000Y-164465000D02*
X93345000Y-165735000D01*
X97155000Y-164465000D02*
X93345000Y-164465000D01*
X83693000Y-160147000D02*
X83820000Y-160020000D01*
X83693000Y-160782000D02*
X83693000Y-160147000D01*
X83780000Y-160695000D02*
X83693000Y-160782000D01*
X87035000Y-160695000D02*
X83780000Y-160695000D01*
X87753000Y-133727000D02*
X88900000Y-133727000D01*
X86360000Y-132334000D02*
X87753000Y-133727000D01*
X86360000Y-132715000D02*
X86360000Y-132334000D01*
X96393000Y-162175000D02*
X96393000Y-164465000D01*
X115824000Y-130175000D02*
X118110000Y-130175000D01*
X114554000Y-128905000D02*
X115824000Y-130175000D01*
X114340000Y-156170000D02*
X114300000Y-156210000D01*
X117515000Y-156170000D02*
X117475000Y-156210000D01*
X127675000Y-147915000D02*
X127635000Y-147955000D01*
X127675000Y-151725000D02*
X127635000Y-151765000D01*
X127675000Y-133945000D02*
X127635000Y-133985000D01*
X119420000Y-132675000D02*
X119380000Y-132715000D01*
X116245000Y-133945000D02*
X116205000Y-133985000D01*
X108625000Y-141565000D02*
X108585000Y-141605000D01*
X120527000Y-139700000D02*
X120527000Y-139577000D01*
X120527000Y-139577000D02*
X119380000Y-138430000D01*
X119380000Y-138430000D02*
X119380000Y-132715000D01*
X116205000Y-136402000D02*
X116205000Y-133985000D01*
X119380000Y-130175000D02*
X118110000Y-130175000D01*
X122555000Y-131445000D02*
X119380000Y-131445000D01*
X119380000Y-131445000D02*
X119380000Y-130175000D01*
X119380000Y-132715000D02*
X119380000Y-131445000D01*
X111637000Y-141605000D02*
X108585000Y-141605000D01*
X108585000Y-138430000D02*
X108585000Y-141605000D01*
X114554000Y-133604000D02*
X114935000Y-133985000D01*
X114554000Y-128905000D02*
X114554000Y-133604000D01*
X114935000Y-133985000D02*
X113665000Y-133985000D01*
X116205000Y-133985000D02*
X114935000Y-133985000D01*
X108585000Y-138430000D02*
X108585000Y-134620000D01*
X114300000Y-156210000D02*
X114300000Y-153793000D01*
X109855000Y-156210000D02*
X109855000Y-153793000D01*
X127635000Y-144018000D02*
X127635000Y-151765000D01*
X125218000Y-151765000D02*
X127635000Y-151765000D01*
X127635000Y-137160000D02*
X127635000Y-133985000D01*
X125095000Y-131445000D02*
X122555000Y-131445000D01*
X127635000Y-133985000D02*
X125095000Y-131445000D01*
X109855000Y-159385000D02*
X110490000Y-160020000D01*
X109855000Y-156210000D02*
X109855000Y-159385000D01*
D25*
X113665000Y-144522000D02*
X113923000Y-144522000D01*
D27*
X95127000Y-136525000D02*
X94615000Y-136013000D01*
X102235000Y-136525000D02*
X95127000Y-136525000D01*
X91952000Y-136013000D02*
X88900000Y-136013000D01*
X94615000Y-136013000D02*
X91952000Y-136013000D01*
X105787000Y-136525000D02*
X106045000Y-136267000D01*
X102235000Y-136525000D02*
X105787000Y-136525000D01*
D25*
X92075000Y-136136000D02*
X92075000Y-128905000D01*
D27*
X103505000Y-128905000D02*
X92075000Y-128905000D01*
X83820000Y-150872000D02*
X83820000Y-150495000D01*
X83185000Y-149860000D02*
X81538000Y-149860000D01*
X83820000Y-150495000D02*
X83185000Y-149860000D01*
X81538000Y-148848000D02*
X81538000Y-149860000D01*
X76835000Y-144145000D02*
X81538000Y-148848000D01*
X76835000Y-134620000D02*
X76835000Y-144145000D01*
X78105000Y-133350000D02*
X76835000Y-134620000D01*
X80645000Y-133350000D02*
X78105000Y-133350000D01*
X85090000Y-128905000D02*
X80645000Y-133350000D01*
X92075000Y-128905000D02*
X85090000Y-128905000D01*
X109855000Y-128905000D02*
X103505000Y-128905000D01*
X111125000Y-130175000D02*
X109855000Y-128905000D01*
X88011000Y-136902000D02*
X88900000Y-136013000D01*
X87761000Y-138585000D02*
X88011000Y-138335000D01*
D25*
X87860000Y-138684000D02*
X87761000Y-138585000D01*
X89535000Y-138684000D02*
X87860000Y-138684000D01*
X90043000Y-139192000D02*
X89535000Y-138684000D01*
X90043000Y-139823000D02*
X90043000Y-139192000D01*
D27*
X92329000Y-138172000D02*
X92456000Y-138172000D01*
X92456000Y-136271000D02*
X92714000Y-136013000D01*
X92456000Y-138172000D02*
X92456000Y-136271000D01*
X87630000Y-137283000D02*
X88011000Y-136902000D01*
X87630000Y-138430000D02*
X87630000Y-137283000D01*
D25*
X113665000Y-141863000D02*
X113665000Y-144522000D01*
X113923000Y-141605000D02*
X113665000Y-141863000D01*
D27*
X111125000Y-130175000D02*
X111125000Y-128905000D01*
X115828000Y-139065000D02*
X116205000Y-138688000D01*
X111125000Y-137160000D02*
X113030000Y-139065000D01*
X111125000Y-130175000D02*
X111125000Y-137160000D01*
X113923000Y-139323000D02*
X113665000Y-139065000D01*
X113923000Y-141605000D02*
X113923000Y-139323000D01*
X113665000Y-139065000D02*
X115828000Y-139065000D01*
X113030000Y-139065000D02*
X113665000Y-139065000D01*
X117475000Y-139958000D02*
X116205000Y-138688000D01*
X117475000Y-140712000D02*
X117475000Y-139958000D01*
D25*
X96393000Y-159643000D02*
X96393000Y-159889000D01*
X96393000Y-159889000D02*
X96393000Y-157611000D01*
X99187000Y-158623000D02*
X96393000Y-158623000D01*
X99568000Y-158242000D02*
X99187000Y-158623000D01*
X109855000Y-149348000D02*
X109732000Y-149225000D01*
X109855000Y-151507000D02*
X109855000Y-149348000D01*
X109855000Y-149102000D02*
X109732000Y-149225000D01*
X109855000Y-146808000D02*
X109855000Y-149102000D01*
X113665000Y-149102000D02*
X113665000Y-146808000D01*
X113788000Y-149225000D02*
X113665000Y-149102000D01*
X114177000Y-149225000D02*
X113788000Y-149225000D01*
X112018000Y-149225000D02*
X114177000Y-149225000D01*
X114300000Y-149348000D02*
X114177000Y-149225000D01*
X114300000Y-151507000D02*
X114300000Y-149348000D01*
X122555000Y-147062000D02*
X122555000Y-144268000D01*
X122555000Y-139958000D02*
X122813000Y-139700000D01*
X122555000Y-141982000D02*
X122555000Y-139958000D01*
X122813000Y-136148000D02*
X122555000Y-135890000D01*
X122813000Y-139700000D02*
X122813000Y-136148000D01*
D27*
X124460000Y-139700000D02*
X122813000Y-139700000D01*
X125349000Y-140589000D02*
X124460000Y-139700000D01*
X127635000Y-140589000D02*
X125349000Y-140589000D01*
D25*
X84205000Y-138585000D02*
X80800000Y-138585000D01*
X80645000Y-138740000D02*
X80800000Y-138585000D01*
X80645000Y-139442000D02*
X80645000Y-138740000D01*
X84205000Y-138585000D02*
X83820000Y-138200000D01*
D27*
X83820000Y-138200000D02*
X83820000Y-135509000D01*
D25*
X96393000Y-153670000D02*
X96393000Y-155325000D01*
D27*
X95250000Y-150495000D02*
X97155000Y-152400000D01*
D25*
X95250000Y-148681000D02*
X95250000Y-150495000D01*
X97155000Y-152908000D02*
X96393000Y-153670000D01*
X97155000Y-152400000D02*
X97155000Y-152908000D01*
X93349000Y-155321000D02*
X96393000Y-155321000D01*
X93345000Y-155317000D02*
X93349000Y-155321000D01*
X93345000Y-153609000D02*
X93025000Y-153289000D01*
X93345000Y-155317000D02*
X93345000Y-153609000D01*
X93345000Y-158750000D02*
X93345000Y-157603000D01*
D27*
X89535000Y-158195000D02*
X90725000Y-159385000D01*
X90725000Y-159385000D02*
X93345000Y-159385000D01*
D25*
X93345000Y-159385000D02*
X93345000Y-158750000D01*
X93345000Y-161032000D02*
X93345000Y-159385000D01*
X118745000Y-144268000D02*
X117475000Y-142998000D01*
X118745000Y-144907000D02*
X118745000Y-144268000D01*
X119380000Y-147508000D02*
X119695000Y-147193000D01*
X119380000Y-149602000D02*
X119380000Y-147508000D01*
X106045000Y-148078000D02*
X107315000Y-146808000D01*
X106045000Y-149225000D02*
X106045000Y-148078000D01*
X107315000Y-144522000D02*
X109855000Y-144522000D01*
X122809000Y-151888000D02*
X122932000Y-151765000D01*
X119380000Y-151888000D02*
X122809000Y-151888000D01*
X122555000Y-151388000D02*
X122932000Y-151765000D01*
X122555000Y-149348000D02*
X122555000Y-151388000D01*
D28*
X121329304Y-163068000D02*
X109347000Y-163068000D01*
X109347000Y-158242000D01*
X121329304Y-158242000D01*
X121329304Y-163068000D01*
G04 #@! TA.AperFunction,Conductor*
D29*
G36*
X121329304Y-163068000D02*
G01*
X109347000Y-163068000D01*
X109347000Y-158242000D01*
X121329304Y-158242000D01*
X121329304Y-163068000D01*
G37*
G04 #@! TD.AperFunction*
M02*
