%TF.GenerationSoftware,KiCad,Pcbnew,9.0.5*%
%TF.CreationDate,2025-10-18T11:17:35+02:00*%
%TF.ProjectId,Source_VAS,536f7572-6365-45f5-9641-532e6b696361,rev?*%
%TF.SameCoordinates,Original*%
%TF.FileFunction,Copper,L1,Top*%
%TF.FilePolarity,Positive*%
%FSLAX46Y46*%
G04 Gerber Fmt 4.6, Leading zero omitted, Abs format (unit mm)*
G04 Created by KiCad (PCBNEW 9.0.5) date 2025-10-18 11:17:35*
%MOMM*%
%LPD*%
G01*
G04 APERTURE LIST*
G04 Aperture macros list*
%AMRoundRect*
0 Rectangle with rounded corners*
0 $1 Rounding radius*
0 $2 $3 $4 $5 $6 $7 $8 $9 X,Y pos of 4 corners*
0 Add a 4 corners polygon primitive as box body*
4,1,4,$2,$3,$4,$5,$6,$7,$8,$9,$2,$3,0*
0 Add four circle primitives for the rounded corners*
1,1,$1+$1,$2,$3*
1,1,$1+$1,$4,$5*
1,1,$1+$1,$6,$7*
1,1,$1+$1,$8,$9*
0 Add four rect primitives between the rounded corners*
20,1,$1+$1,$2,$3,$4,$5,0*
20,1,$1+$1,$4,$5,$6,$7,0*
20,1,$1+$1,$6,$7,$8,$9,0*
20,1,$1+$1,$8,$9,$2,$3,0*%
G04 Aperture macros list end*
%TA.AperFunction,ComponentPad*%
%ADD10RoundRect,0.250000X-0.825000X-0.825000X0.825000X-0.825000X0.825000X0.825000X-0.825000X0.825000X0*%
%TD*%
%TA.AperFunction,ComponentPad*%
%ADD11C,2.000000*%
%TD*%
%TA.AperFunction,ViaPad*%
%ADD12C,0.800000*%
%TD*%
%TA.AperFunction,Conductor*%
%ADD13C,0.500000*%
%TD*%
G04 APERTURE END LIST*
D10*
%TO.P,H1,1,1*%
%TO.N,GND*%
X122700000Y-74400000D03*
%TD*%
D11*
%TO.P,J1,1,Pin_1*%
%TO.N,Net-(J1-Pin_1)*%
X118940000Y-74440000D03*
%TO.P,J1,2,Pin_2*%
%TO.N,Net-(J1-Pin_2)*%
X116400000Y-74440000D03*
%TO.P,J1,3,Pin_3*%
%TO.N,Net-(J1-Pin_3)*%
X113860000Y-74440000D03*
%TD*%
D12*
%TO.N,Net-(Q1-C)*%
X122850000Y-67000000D03*
X118300000Y-69900000D03*
%TD*%
D13*
%TO.N,Net-(Q1-C)*%
X122850000Y-67000000D02*
X121200000Y-67000000D01*
X121200000Y-67000000D02*
X118300000Y-69900000D01*
%TD*%
%TA.AperFunction,Conductor*%
%TO.N,GND*%
G36*
X122535766Y-65902804D02*
G01*
X122543843Y-65901527D01*
X122568800Y-65912503D01*
X122594959Y-65920185D01*
X122600313Y-65926364D01*
X122607800Y-65929657D01*
X122622862Y-65952387D01*
X122640714Y-65972989D01*
X122641877Y-65981082D01*
X122646395Y-65987899D01*
X122646777Y-66015161D01*
X122650658Y-66042147D01*
X122647261Y-66049585D01*
X122647376Y-66057762D01*
X122632958Y-66080903D01*
X122621633Y-66105703D01*
X122614143Y-66111103D01*
X122610430Y-66117064D01*
X122581009Y-66136560D01*
X122578223Y-66137879D01*
X122423453Y-66201987D01*
X122376051Y-66233659D01*
X122367819Y-66237560D01*
X122314730Y-66249500D01*
X121126080Y-66249500D01*
X120981092Y-66278340D01*
X120981082Y-66278343D01*
X120844511Y-66334912D01*
X120844498Y-66334919D01*
X120721584Y-66417048D01*
X120721580Y-66417051D01*
X118147807Y-68990823D01*
X118086484Y-69024308D01*
X118084319Y-69024759D01*
X118037337Y-69034104D01*
X118037331Y-69034106D01*
X117873459Y-69101983D01*
X117873446Y-69101990D01*
X117725965Y-69200535D01*
X117725961Y-69200538D01*
X117600538Y-69325961D01*
X117600535Y-69325965D01*
X117501990Y-69473446D01*
X117501983Y-69473459D01*
X117434106Y-69637332D01*
X117434103Y-69637341D01*
X117399500Y-69811304D01*
X117399500Y-69988695D01*
X117434103Y-70162658D01*
X117434106Y-70162667D01*
X117501983Y-70326540D01*
X117501990Y-70326553D01*
X117600535Y-70474034D01*
X117600538Y-70474038D01*
X117725961Y-70599461D01*
X117725965Y-70599464D01*
X117873446Y-70698009D01*
X117873459Y-70698016D01*
X117996363Y-70748923D01*
X118037334Y-70765894D01*
X118037336Y-70765894D01*
X118037341Y-70765896D01*
X118211304Y-70800499D01*
X118211307Y-70800500D01*
X118211309Y-70800500D01*
X118388693Y-70800500D01*
X118388694Y-70800499D01*
X118446682Y-70788964D01*
X118562658Y-70765896D01*
X118562661Y-70765894D01*
X118562666Y-70765894D01*
X118726547Y-70698013D01*
X118874035Y-70599464D01*
X118999464Y-70474035D01*
X119098013Y-70326547D01*
X119165894Y-70162666D01*
X119175240Y-70115678D01*
X119207624Y-70053770D01*
X119209120Y-70052246D01*
X121474548Y-67786819D01*
X121535871Y-67753334D01*
X121562229Y-67750500D01*
X122314730Y-67750500D01*
X122381769Y-67770185D01*
X122383622Y-67771399D01*
X122423447Y-67798010D01*
X122423450Y-67798011D01*
X122423453Y-67798013D01*
X122587334Y-67865894D01*
X122587336Y-67865894D01*
X122587341Y-67865896D01*
X122761304Y-67900499D01*
X122761307Y-67900500D01*
X122761309Y-67900500D01*
X122938693Y-67900500D01*
X122938694Y-67900499D01*
X122996682Y-67888964D01*
X123112658Y-67865896D01*
X123112661Y-67865894D01*
X123112666Y-67865894D01*
X123276547Y-67798013D01*
X123424035Y-67699464D01*
X123549464Y-67574035D01*
X123648013Y-67426547D01*
X123715894Y-67262666D01*
X123750500Y-67088691D01*
X123750500Y-66911309D01*
X123750500Y-66911306D01*
X123750499Y-66911304D01*
X123715896Y-66737341D01*
X123715893Y-66737332D01*
X123648016Y-66573459D01*
X123648009Y-66573446D01*
X123549464Y-66425965D01*
X123549461Y-66425961D01*
X123424038Y-66300538D01*
X123424034Y-66300535D01*
X123276553Y-66201990D01*
X123276541Y-66201983D01*
X123144718Y-66147382D01*
X123124627Y-66139060D01*
X123070224Y-66095221D01*
X123048159Y-66028927D01*
X123065438Y-65961227D01*
X123116575Y-65913617D01*
X123172080Y-65900500D01*
X124375500Y-65900500D01*
X124442539Y-65920185D01*
X124488294Y-65972989D01*
X124499500Y-66024500D01*
X124499500Y-73363043D01*
X124479815Y-73430082D01*
X124427011Y-73475837D01*
X124357853Y-73485781D01*
X124294297Y-73456756D01*
X124257794Y-73402047D01*
X124209358Y-73255880D01*
X124209356Y-73255875D01*
X124117315Y-73106654D01*
X123993345Y-72982684D01*
X123844124Y-72890643D01*
X123844119Y-72890641D01*
X123677697Y-72835494D01*
X123677690Y-72835493D01*
X123574986Y-72825000D01*
X122950000Y-72825000D01*
X122950000Y-73880384D01*
X122921942Y-73864185D01*
X122775700Y-73825000D01*
X122624300Y-73825000D01*
X122478058Y-73864185D01*
X122450000Y-73880384D01*
X122450000Y-72825000D01*
X121825028Y-72825000D01*
X121825012Y-72825001D01*
X121722302Y-72835494D01*
X121555880Y-72890641D01*
X121555875Y-72890643D01*
X121406654Y-72982684D01*
X121282684Y-73106654D01*
X121190643Y-73255875D01*
X121190641Y-73255880D01*
X121135494Y-73422302D01*
X121135493Y-73422309D01*
X121125000Y-73525013D01*
X121125000Y-74150000D01*
X122180384Y-74150000D01*
X122164185Y-74178058D01*
X122125000Y-74324300D01*
X122125000Y-74475700D01*
X122164185Y-74621942D01*
X122180384Y-74650000D01*
X121125001Y-74650000D01*
X121125001Y-75274986D01*
X121135494Y-75377697D01*
X121190641Y-75544119D01*
X121190643Y-75544124D01*
X121282684Y-75693345D01*
X121377158Y-75787819D01*
X121410643Y-75849142D01*
X121405659Y-75918834D01*
X121363787Y-75974767D01*
X121298323Y-75999184D01*
X121289477Y-75999500D01*
X119700942Y-75999500D01*
X119633903Y-75979815D01*
X119588148Y-75927011D01*
X119578204Y-75857853D01*
X119607229Y-75794297D01*
X119644647Y-75765015D01*
X119726433Y-75723343D01*
X119917510Y-75584517D01*
X120084517Y-75417510D01*
X120223343Y-75226433D01*
X120330568Y-75015992D01*
X120403553Y-74791368D01*
X120409621Y-74753058D01*
X120440500Y-74558097D01*
X120440500Y-74321902D01*
X120403553Y-74088631D01*
X120355222Y-73939885D01*
X120330568Y-73864008D01*
X120330566Y-73864005D01*
X120330566Y-73864003D01*
X120236331Y-73679058D01*
X120223343Y-73653567D01*
X120209999Y-73635201D01*
X120180612Y-73594752D01*
X120180610Y-73594750D01*
X120129943Y-73525013D01*
X120084517Y-73462490D01*
X119917510Y-73295483D01*
X119726433Y-73156657D01*
X119628297Y-73106654D01*
X119515996Y-73049433D01*
X119291368Y-72976446D01*
X119058097Y-72939500D01*
X119058092Y-72939500D01*
X118821908Y-72939500D01*
X118821903Y-72939500D01*
X118588631Y-72976446D01*
X118364003Y-73049433D01*
X118153566Y-73156657D01*
X118044550Y-73235862D01*
X117962490Y-73295483D01*
X117962488Y-73295485D01*
X117962487Y-73295485D01*
X117795484Y-73462488D01*
X117770318Y-73497127D01*
X117714987Y-73539792D01*
X117645374Y-73545771D01*
X117583579Y-73513165D01*
X117569682Y-73497127D01*
X117554214Y-73475837D01*
X117544517Y-73462490D01*
X117377510Y-73295483D01*
X117186433Y-73156657D01*
X117088297Y-73106654D01*
X116975996Y-73049433D01*
X116751368Y-72976446D01*
X116518097Y-72939500D01*
X116518092Y-72939500D01*
X116281908Y-72939500D01*
X116281903Y-72939500D01*
X116048631Y-72976446D01*
X115824003Y-73049433D01*
X115613566Y-73156657D01*
X115504550Y-73235862D01*
X115422490Y-73295483D01*
X115422488Y-73295485D01*
X115422487Y-73295485D01*
X115255484Y-73462488D01*
X115230318Y-73497127D01*
X115174987Y-73539792D01*
X115105374Y-73545771D01*
X115043579Y-73513165D01*
X115029682Y-73497127D01*
X115014214Y-73475837D01*
X115004517Y-73462490D01*
X114837510Y-73295483D01*
X114646433Y-73156657D01*
X114548297Y-73106654D01*
X114435996Y-73049433D01*
X114211368Y-72976446D01*
X113978097Y-72939500D01*
X113978092Y-72939500D01*
X113741908Y-72939500D01*
X113741903Y-72939500D01*
X113508631Y-72976446D01*
X113284003Y-73049433D01*
X113073566Y-73156657D01*
X112964550Y-73235862D01*
X112882490Y-73295483D01*
X112882488Y-73295485D01*
X112882487Y-73295485D01*
X112715485Y-73462487D01*
X112715485Y-73462488D01*
X112715483Y-73462490D01*
X112670057Y-73525013D01*
X112576657Y-73653566D01*
X112534985Y-73735353D01*
X112487010Y-73786149D01*
X112419189Y-73802944D01*
X112353054Y-73780407D01*
X112309603Y-73725691D01*
X112300500Y-73679058D01*
X112300500Y-66024500D01*
X112320185Y-65957461D01*
X112372989Y-65911706D01*
X112424500Y-65900500D01*
X122527920Y-65900500D01*
X122535766Y-65902804D01*
G37*
%TD.AperFunction*%
%TD*%
%TA.AperFunction,NonConductor*%
G36*
X124430858Y-75325997D02*
G01*
X124482058Y-75373540D01*
X124499500Y-75436954D01*
X124499500Y-75875500D01*
X124479815Y-75942539D01*
X124427011Y-75988294D01*
X124375500Y-75999500D01*
X124110523Y-75999500D01*
X124043484Y-75979815D01*
X123997729Y-75927011D01*
X123987785Y-75857853D01*
X124016810Y-75794297D01*
X124022842Y-75787819D01*
X124117315Y-75693345D01*
X124209356Y-75544124D01*
X124209358Y-75544119D01*
X124257794Y-75397950D01*
X124297566Y-75340505D01*
X124362082Y-75313682D01*
X124430858Y-75325997D01*
G37*
%TD.AperFunction*%
%TA.AperFunction,NonConductor*%
G36*
X117756420Y-75366833D02*
G01*
X117770315Y-75382870D01*
X117795483Y-75417510D01*
X117962490Y-75584517D01*
X118153567Y-75723343D01*
X118235353Y-75765015D01*
X118286149Y-75812990D01*
X118302944Y-75880811D01*
X118280407Y-75946946D01*
X118225691Y-75990397D01*
X118179058Y-75999500D01*
X117160942Y-75999500D01*
X117093903Y-75979815D01*
X117048148Y-75927011D01*
X117038204Y-75857853D01*
X117067229Y-75794297D01*
X117104647Y-75765015D01*
X117186433Y-75723343D01*
X117377510Y-75584517D01*
X117544517Y-75417510D01*
X117569682Y-75382872D01*
X117625011Y-75340207D01*
X117694625Y-75334228D01*
X117756420Y-75366833D01*
G37*
%TD.AperFunction*%
%TA.AperFunction,NonConductor*%
G36*
X115216420Y-75366833D02*
G01*
X115230315Y-75382870D01*
X115255483Y-75417510D01*
X115422490Y-75584517D01*
X115613567Y-75723343D01*
X115695353Y-75765015D01*
X115746149Y-75812990D01*
X115762944Y-75880811D01*
X115740407Y-75946946D01*
X115685691Y-75990397D01*
X115639058Y-75999500D01*
X114620942Y-75999500D01*
X114553903Y-75979815D01*
X114508148Y-75927011D01*
X114498204Y-75857853D01*
X114527229Y-75794297D01*
X114564647Y-75765015D01*
X114646433Y-75723343D01*
X114837510Y-75584517D01*
X115004517Y-75417510D01*
X115029682Y-75382872D01*
X115085011Y-75340207D01*
X115154625Y-75334228D01*
X115216420Y-75366833D01*
G37*
%TD.AperFunction*%
%TA.AperFunction,NonConductor*%
G36*
X112505703Y-75107228D02*
G01*
X112534985Y-75144647D01*
X112576655Y-75226431D01*
X112590000Y-75244798D01*
X112715483Y-75417510D01*
X112882490Y-75584517D01*
X113073567Y-75723343D01*
X113155353Y-75765015D01*
X113206149Y-75812990D01*
X113222944Y-75880811D01*
X113200407Y-75946946D01*
X113145691Y-75990397D01*
X113099058Y-75999500D01*
X112424500Y-75999500D01*
X112357461Y-75979815D01*
X112311706Y-75927011D01*
X112300500Y-75875500D01*
X112300500Y-75200941D01*
X112320185Y-75133902D01*
X112372989Y-75088147D01*
X112442147Y-75078203D01*
X112505703Y-75107228D01*
G37*
%TD.AperFunction*%
M02*
