G04 #@! TF.GenerationSoftware,KiCad,Pcbnew,(6.0.5)*
G04 #@! TF.CreationDate,2022-05-08T20:16:57+02:00*
G04 #@! TF.ProjectId,Zasilacz_5V_impulsowy,5a617369-6c61-4637-9a5f-35565f696d70,rev?*
G04 #@! TF.SameCoordinates,Original*
G04 #@! TF.FileFunction,Legend,Bot*
G04 #@! TF.FilePolarity,Positive*
%FSLAX46Y46*%
G04 Gerber Fmt 4.6, Leading zero omitted, Abs format (unit mm)*
G04 Created by KiCad (PCBNEW (6.0.5)) date 2022-05-08 20:16:57*
%MOMM*%
%LPD*%
G01*
G04 APERTURE LIST*
%ADD10C,0.150000*%
%ADD11C,0.120000*%
G04 APERTURE END LIST*
D10*
G04 #@! TO.C,C1*
X111311226Y-113677381D02*
X111317095Y-113610294D01*
X111261746Y-113470250D01*
X111200529Y-113397294D01*
X111072223Y-113318468D01*
X110938049Y-113306729D01*
X110834483Y-113331469D01*
X110657961Y-113417426D01*
X110548526Y-113509253D01*
X110433222Y-113668167D01*
X110390874Y-113765863D01*
X110379136Y-113900037D01*
X110434484Y-114040081D01*
X110495702Y-114113038D01*
X110624007Y-114191864D01*
X110691094Y-114197733D01*
X111996361Y-114345730D02*
X111629054Y-113907990D01*
X111812707Y-114126860D02*
X111046663Y-114769647D01*
X111094880Y-114604864D01*
X111106619Y-114470690D01*
X111081879Y-114367124D01*
G04 #@! TO.C,R6*
X130652380Y-101633333D02*
X130176190Y-101300000D01*
X130652380Y-101061904D02*
X129652380Y-101061904D01*
X129652380Y-101442857D01*
X129700000Y-101538095D01*
X129747619Y-101585714D01*
X129842857Y-101633333D01*
X129985714Y-101633333D01*
X130080952Y-101585714D01*
X130128571Y-101538095D01*
X130176190Y-101442857D01*
X130176190Y-101061904D01*
X129652380Y-102490476D02*
X129652380Y-102300000D01*
X129700000Y-102204761D01*
X129747619Y-102157142D01*
X129890476Y-102061904D01*
X130080952Y-102014285D01*
X130461904Y-102014285D01*
X130557142Y-102061904D01*
X130604761Y-102109523D01*
X130652380Y-102204761D01*
X130652380Y-102395238D01*
X130604761Y-102490476D01*
X130557142Y-102538095D01*
X130461904Y-102585714D01*
X130223809Y-102585714D01*
X130128571Y-102538095D01*
X130080952Y-102490476D01*
X130033333Y-102395238D01*
X130033333Y-102204761D01*
X130080952Y-102109523D01*
X130128571Y-102061904D01*
X130223809Y-102014285D01*
G04 #@! TO.C,R7*
X108711339Y-127472380D02*
X108985148Y-126996190D01*
X109282767Y-127472380D02*
X109157767Y-126472380D01*
X108776815Y-126472380D01*
X108687529Y-126520000D01*
X108645863Y-126567619D01*
X108610148Y-126662857D01*
X108628005Y-126805714D01*
X108687529Y-126900952D01*
X108741101Y-126948571D01*
X108842291Y-126996190D01*
X109223244Y-126996190D01*
X108253005Y-126472380D02*
X107586339Y-126472380D01*
X108139910Y-127472380D01*
G04 #@! TO.C,R3*
X126802380Y-122933333D02*
X126326190Y-122600000D01*
X126802380Y-122361904D02*
X125802380Y-122361904D01*
X125802380Y-122742857D01*
X125850000Y-122838095D01*
X125897619Y-122885714D01*
X125992857Y-122933333D01*
X126135714Y-122933333D01*
X126230952Y-122885714D01*
X126278571Y-122838095D01*
X126326190Y-122742857D01*
X126326190Y-122361904D01*
X125802380Y-123266666D02*
X125802380Y-123885714D01*
X126183333Y-123552380D01*
X126183333Y-123695238D01*
X126230952Y-123790476D01*
X126278571Y-123838095D01*
X126373809Y-123885714D01*
X126611904Y-123885714D01*
X126707142Y-123838095D01*
X126754761Y-123790476D01*
X126802380Y-123695238D01*
X126802380Y-123409523D01*
X126754761Y-123314285D01*
X126707142Y-123266666D01*
G04 #@! TO.C,R1*
X120566666Y-109852380D02*
X120900000Y-109376190D01*
X121138095Y-109852380D02*
X121138095Y-108852380D01*
X120757142Y-108852380D01*
X120661904Y-108900000D01*
X120614285Y-108947619D01*
X120566666Y-109042857D01*
X120566666Y-109185714D01*
X120614285Y-109280952D01*
X120661904Y-109328571D01*
X120757142Y-109376190D01*
X121138095Y-109376190D01*
X119614285Y-109852380D02*
X120185714Y-109852380D01*
X119900000Y-109852380D02*
X119900000Y-108852380D01*
X119995238Y-108995238D01*
X120090476Y-109090476D01*
X120185714Y-109138095D01*
G04 #@! TO.C,C2*
X120366666Y-116057142D02*
X120414285Y-116104761D01*
X120557142Y-116152380D01*
X120652380Y-116152380D01*
X120795238Y-116104761D01*
X120890476Y-116009523D01*
X120938095Y-115914285D01*
X120985714Y-115723809D01*
X120985714Y-115580952D01*
X120938095Y-115390476D01*
X120890476Y-115295238D01*
X120795238Y-115200000D01*
X120652380Y-115152380D01*
X120557142Y-115152380D01*
X120414285Y-115200000D01*
X120366666Y-115247619D01*
X119985714Y-115247619D02*
X119938095Y-115200000D01*
X119842857Y-115152380D01*
X119604761Y-115152380D01*
X119509523Y-115200000D01*
X119461904Y-115247619D01*
X119414285Y-115342857D01*
X119414285Y-115438095D01*
X119461904Y-115580952D01*
X120033333Y-116152380D01*
X119414285Y-116152380D01*
G04 #@! TO.C,R5*
X126852380Y-119733333D02*
X126376190Y-119400000D01*
X126852380Y-119161904D02*
X125852380Y-119161904D01*
X125852380Y-119542857D01*
X125900000Y-119638095D01*
X125947619Y-119685714D01*
X126042857Y-119733333D01*
X126185714Y-119733333D01*
X126280952Y-119685714D01*
X126328571Y-119638095D01*
X126376190Y-119542857D01*
X126376190Y-119161904D01*
X125852380Y-120638095D02*
X125852380Y-120161904D01*
X126328571Y-120114285D01*
X126280952Y-120161904D01*
X126233333Y-120257142D01*
X126233333Y-120495238D01*
X126280952Y-120590476D01*
X126328571Y-120638095D01*
X126423809Y-120685714D01*
X126661904Y-120685714D01*
X126757142Y-120638095D01*
X126804761Y-120590476D01*
X126852380Y-120495238D01*
X126852380Y-120257142D01*
X126804761Y-120161904D01*
X126757142Y-120114285D01*
G04 #@! TO.C,R9*
X105102380Y-118833333D02*
X104626190Y-118500000D01*
X105102380Y-118261904D02*
X104102380Y-118261904D01*
X104102380Y-118642857D01*
X104150000Y-118738095D01*
X104197619Y-118785714D01*
X104292857Y-118833333D01*
X104435714Y-118833333D01*
X104530952Y-118785714D01*
X104578571Y-118738095D01*
X104626190Y-118642857D01*
X104626190Y-118261904D01*
X105102380Y-119309523D02*
X105102380Y-119500000D01*
X105054761Y-119595238D01*
X105007142Y-119642857D01*
X104864285Y-119738095D01*
X104673809Y-119785714D01*
X104292857Y-119785714D01*
X104197619Y-119738095D01*
X104150000Y-119690476D01*
X104102380Y-119595238D01*
X104102380Y-119404761D01*
X104150000Y-119309523D01*
X104197619Y-119261904D01*
X104292857Y-119214285D01*
X104530952Y-119214285D01*
X104626190Y-119261904D01*
X104673809Y-119309523D01*
X104721428Y-119404761D01*
X104721428Y-119595238D01*
X104673809Y-119690476D01*
X104626190Y-119738095D01*
X104530952Y-119785714D01*
G04 #@! TO.C,C7*
X131366666Y-120657142D02*
X131414285Y-120704761D01*
X131557142Y-120752380D01*
X131652380Y-120752380D01*
X131795238Y-120704761D01*
X131890476Y-120609523D01*
X131938095Y-120514285D01*
X131985714Y-120323809D01*
X131985714Y-120180952D01*
X131938095Y-119990476D01*
X131890476Y-119895238D01*
X131795238Y-119800000D01*
X131652380Y-119752380D01*
X131557142Y-119752380D01*
X131414285Y-119800000D01*
X131366666Y-119847619D01*
X131033333Y-119752380D02*
X130366666Y-119752380D01*
X130795238Y-120752380D01*
D11*
G04 #@! TO.C,C1*
X107446954Y-107216364D02*
X109839189Y-110078210D01*
X110370058Y-109632758D02*
X109308320Y-110523662D01*
X115345234Y-115561942D02*
X114370825Y-116379568D01*
X117018326Y-118700868D02*
X114781425Y-116035034D01*
X116865066Y-114286651D02*
X111889890Y-108357467D01*
X114370825Y-116379568D02*
X112850993Y-117654858D01*
X109395649Y-110450384D02*
X107875817Y-111725674D01*
X112850993Y-117654858D02*
X107875817Y-111725674D01*
X111889890Y-108357467D02*
X110370058Y-109632758D01*
X116865066Y-114286651D02*
X115345234Y-115561942D01*
G04 #@! TO.C,R6*
X127665000Y-102027064D02*
X127665000Y-101572936D01*
X129135000Y-102027064D02*
X129135000Y-101572936D01*
G04 #@! TO.C,R7*
X107722936Y-126110000D02*
X109177064Y-126110000D01*
X107722936Y-124290000D02*
X109177064Y-124290000D01*
G04 #@! TO.C,R3*
X128735000Y-122872936D02*
X128735000Y-123327064D01*
X127265000Y-122872936D02*
X127265000Y-123327064D01*
G04 #@! TO.C,R1*
X121123737Y-108045000D02*
X119676263Y-108045000D01*
X121123737Y-110755000D02*
X119676263Y-110755000D01*
G04 #@! TO.C,C2*
X121111252Y-114560000D02*
X119688748Y-114560000D01*
X121111252Y-111840000D02*
X119688748Y-111840000D01*
G04 #@! TO.C,R5*
X128735000Y-119372936D02*
X128735000Y-119827064D01*
X127265000Y-119372936D02*
X127265000Y-119827064D01*
G04 #@! TO.C,R9*
X103735000Y-119227064D02*
X103735000Y-118772936D01*
X102265000Y-119227064D02*
X102265000Y-118772936D01*
G04 #@! TO.C,C7*
X130588748Y-117240000D02*
X132011252Y-117240000D01*
X130588748Y-119060000D02*
X132011252Y-119060000D01*
G04 #@! TD*
M02*
