M48
; DRILL file {KiCad (6.0.5)} date Sun May  8 20:17:05 2022
; FORMAT={-:-/ absolute / metric / decimal}
; #@! TF.CreationDate,2022-05-08T20:17:05+02:00
; #@! TF.GenerationSoftware,Kicad,Pcbnew,(6.0.5)
; #@! TF.FileFunction,Plated,1,2,PTH
FMAT,2
METRIC
; #@! TA.AperFunction,Plated,PTH,ViaDrill
T1C0.400
; #@! TA.AperFunction,Plated,PTH,ComponentDrill
T2C0.700
; #@! TA.AperFunction,Plated,PTH,ComponentDrill
T3C0.750
; #@! TA.AperFunction,Plated,PTH,ComponentDrill
T4C0.762
; #@! TA.AperFunction,Plated,PTH,ComponentDrill
T5C0.800
; #@! TA.AperFunction,Plated,PTH,ComponentDrill
T6C0.900
; #@! TA.AperFunction,Plated,PTH,ComponentDrill
T7C0.920
; #@! TA.AperFunction,Plated,PTH,ComponentDrill
T8C1.000
; #@! TA.AperFunction,Plated,PTH,ComponentDrill
T9C1.100
; #@! TA.AperFunction,Plated,PTH,ComponentDrill
T10C1.200
; #@! TA.AperFunction,Plated,PTH,ComponentDrill
T11C2.000
%
G90
G05
T1
X105.95Y-122.0
T2
X114.66Y-128.6
X119.74Y-128.6
T3
X98.42Y-121.97
X100.82Y-119.77
X103.52Y-121.97
T4
X109.75Y-106.45
X109.75Y-109.75
X109.85Y-116.15
X109.85Y-119.45
X119.85Y-106.45
X119.85Y-119.45
T5
X83.2Y-123.76
X83.2Y-128.84
X86.7Y-123.6
X94.2Y-125.4
X99.305Y-126.7
X101.805Y-126.7
X104.48Y-125.735
X104.48Y-128.275
X108.126Y-122.6
X112.1Y-125.735
X112.1Y-128.275
X113.126Y-122.6
X114.29Y-125.7
X114.8Y-122.8
X119.8Y-122.8
X121.91Y-125.7
X128.618Y-105.0
X129.3Y-113.5
X131.118Y-105.0
X131.8Y-113.5
T6
X124.235Y-97.3
X126.775Y-97.3
T7
X124.7Y-118.95
X124.7Y-121.45
X124.7Y-123.45
X124.7Y-125.95
T8
X100.75Y-98.6
X102.3Y-107.0
X102.3Y-110.14
X102.3Y-113.3
X106.772Y-106.412
X108.25Y-98.6
X117.738Y-119.403
X125.01Y-110.1
X132.63Y-110.1
T9
X83.62Y-116.6
X83.62Y-120.4
X83.72Y-108.8
X83.72Y-112.8
X93.78Y-116.6
X93.78Y-120.4
X93.88Y-108.8
X93.88Y-112.8
X107.25Y-101.37
X107.25Y-111.53
X118.36Y-102.545
X120.9Y-102.545
X123.44Y-102.545
T10
X86.1Y-128.9
X87.285Y-100.6
X92.285Y-100.6
X95.0Y-128.9
X98.64Y-96.99
X98.64Y-104.61
X99.06Y-116.2
X104.14Y-116.2
X111.1Y-96.4
X111.1Y-103.2
T11
X127.41Y-115.88
X127.41Y-129.02
T0
M30
