%FSLAX45Y45*%
G04 Gerber Fmt 4.5, Leading zero omitted, Abs format (unit mm)*
G04 Created by KiCad (PCBNEW (6.0.5)) date 2022-05-08 20:17:06*
%MOMM*%
%LPD*%
G01*
G04 APERTURE LIST*
%TA.AperFunction,Profile*%
%ADD10C,0.100000*%
%TD*%
%ADD11C,0.200000*%
%ADD12C,0.040000*%
%ADD13C,0.070000*%
%ADD14C,0.075000*%
%ADD15C,0.076200*%
%ADD16C,0.080000*%
%ADD17C,0.090000*%
%ADD18C,0.092000*%
%ADD19C,0.100000*%
%ADD20C,0.110000*%
%ADD21C,0.120000*%
G04 APERTURE END LIST*
D10*
X8000000Y-9500000D02*
X13400000Y-9500000D01*
X13400000Y-9500000D02*
X13400000Y-13130000D01*
X13400000Y-13130000D02*
X8000000Y-13130000D01*
X8000000Y-13130000D02*
X8000000Y-9500000D01*
D11*
D12*
X10575000Y-12180000D02*
X10615000Y-12220000D01*
X10615000Y-12180000D02*
X10575000Y-12220000D01*
D13*
X11501000Y-12860000D02*
G75*
G03*
X11501000Y-12860000I-35000J0D01*
G01*
X12009000Y-12860000D02*
G75*
G03*
X12009000Y-12860000I-35000J0D01*
G01*
D14*
X9842000Y-12159500D02*
X9842000Y-12234500D01*
X9804500Y-12197000D02*
X9879500Y-12197000D01*
X10082000Y-11939500D02*
X10082000Y-12014500D01*
X10044500Y-11977000D02*
X10119500Y-11977000D01*
X10352000Y-12159500D02*
X10352000Y-12234500D01*
X10314500Y-12197000D02*
X10389500Y-12197000D01*
D15*
X11001941Y-10671941D02*
X11001941Y-10618059D01*
X10948059Y-10618059D01*
X10948059Y-10671941D01*
X11001941Y-10671941D01*
X11001941Y-11001941D02*
X11001941Y-10948059D01*
X10948059Y-10948059D01*
X10948059Y-11001941D01*
X11001941Y-11001941D01*
X11011941Y-11641941D02*
X11011941Y-11588059D01*
X10958059Y-11588059D01*
X10958059Y-11641941D01*
X11011941Y-11641941D01*
X11011941Y-11971941D02*
X11011941Y-11918059D01*
X10958059Y-11918059D01*
X10958059Y-11971941D01*
X11011941Y-11971941D01*
X12011941Y-10671941D02*
X12011941Y-10618059D01*
X11958059Y-10618059D01*
X11958059Y-10671941D01*
X12011941Y-10671941D01*
X12011941Y-11971941D02*
X12011941Y-11918059D01*
X11958059Y-11918059D01*
X11958059Y-11971941D01*
X12011941Y-11971941D01*
D16*
X8320000Y-12416000D02*
X8360000Y-12376000D01*
X8320000Y-12336000D01*
X8280000Y-12376000D01*
X8320000Y-12416000D01*
X8320000Y-12924000D02*
X8360000Y-12884000D01*
X8320000Y-12844000D01*
X8280000Y-12884000D01*
X8320000Y-12924000D01*
X8670000Y-12400000D02*
X8710000Y-12360000D01*
X8670000Y-12320000D01*
X8630000Y-12360000D01*
X8670000Y-12400000D01*
X9420000Y-12580000D02*
X9460000Y-12540000D01*
X9420000Y-12500000D01*
X9380000Y-12540000D01*
X9420000Y-12580000D01*
X9930511Y-12710000D02*
X9970511Y-12670000D01*
X9930511Y-12630000D01*
X9890511Y-12670000D01*
X9930511Y-12710000D01*
X10180511Y-12710000D02*
X10220511Y-12670000D01*
X10180511Y-12630000D01*
X10140511Y-12670000D01*
X10180511Y-12710000D01*
X10448000Y-12613500D02*
X10488000Y-12573500D01*
X10448000Y-12533500D01*
X10408000Y-12573500D01*
X10448000Y-12613500D01*
X10448000Y-12867500D02*
X10488000Y-12827500D01*
X10448000Y-12787500D01*
X10408000Y-12827500D01*
X10448000Y-12867500D01*
X10812569Y-12300000D02*
X10852569Y-12260000D01*
X10812569Y-12220000D01*
X10772569Y-12260000D01*
X10812569Y-12300000D01*
X11210000Y-12613500D02*
X11250000Y-12573500D01*
X11210000Y-12533500D01*
X11170000Y-12573500D01*
X11210000Y-12613500D01*
X11210000Y-12867500D02*
X11250000Y-12827500D01*
X11210000Y-12787500D01*
X11170000Y-12827500D01*
X11210000Y-12867500D01*
X11312569Y-12300000D02*
X11352569Y-12260000D01*
X11312569Y-12220000D01*
X11272569Y-12260000D01*
X11312569Y-12300000D01*
X11429000Y-12610000D02*
X11469000Y-12570000D01*
X11429000Y-12530000D01*
X11389000Y-12570000D01*
X11429000Y-12610000D01*
X11480000Y-12320000D02*
X11520000Y-12280000D01*
X11480000Y-12240000D01*
X11440000Y-12280000D01*
X11480000Y-12320000D01*
X11980000Y-12320000D02*
X12020000Y-12280000D01*
X11980000Y-12240000D01*
X11940000Y-12280000D01*
X11980000Y-12320000D01*
X12191000Y-12610000D02*
X12231000Y-12570000D01*
X12191000Y-12530000D01*
X12151000Y-12570000D01*
X12191000Y-12610000D01*
X12861762Y-10540000D02*
X12901762Y-10500000D01*
X12861762Y-10460000D01*
X12821762Y-10500000D01*
X12861762Y-10540000D01*
X12930000Y-11390000D02*
X12970000Y-11350000D01*
X12930000Y-11310000D01*
X12890000Y-11350000D01*
X12930000Y-11390000D01*
X13111762Y-10540000D02*
X13151762Y-10500000D01*
X13111762Y-10460000D01*
X13071762Y-10500000D01*
X13111762Y-10540000D01*
X13180000Y-11390000D02*
X13220000Y-11350000D01*
X13180000Y-11310000D01*
X13140000Y-11350000D01*
X13180000Y-11390000D01*
D17*
X12378500Y-9685000D02*
X12468500Y-9775000D01*
X12468500Y-9685000D02*
X12378500Y-9775000D01*
X12468500Y-9730000D02*
G75*
G03*
X12468500Y-9730000I-45000J0D01*
G01*
X12632500Y-9685000D02*
X12722500Y-9775000D01*
X12722500Y-9685000D02*
X12632500Y-9775000D01*
X12722500Y-9730000D02*
G75*
G03*
X12722500Y-9730000I-45000J0D01*
G01*
D18*
X12424000Y-11849000D02*
X12516000Y-11941000D01*
X12516000Y-11849000D02*
X12424000Y-11941000D01*
X12470000Y-11849000D02*
X12470000Y-11941000D01*
X12424000Y-11895000D02*
X12516000Y-11895000D01*
X12424000Y-12099000D02*
X12516000Y-12191000D01*
X12516000Y-12099000D02*
X12424000Y-12191000D01*
X12470000Y-12099000D02*
X12470000Y-12191000D01*
X12424000Y-12145000D02*
X12516000Y-12145000D01*
X12424000Y-12299000D02*
X12516000Y-12391000D01*
X12516000Y-12299000D02*
X12424000Y-12391000D01*
X12470000Y-12299000D02*
X12470000Y-12391000D01*
X12424000Y-12345000D02*
X12516000Y-12345000D01*
X12424000Y-12549000D02*
X12516000Y-12641000D01*
X12516000Y-12549000D02*
X12424000Y-12641000D01*
X12470000Y-12549000D02*
X12470000Y-12641000D01*
X12424000Y-12595000D02*
X12516000Y-12595000D01*
D19*
X10025000Y-9810000D02*
X10125000Y-9910000D01*
X10125000Y-9810000D02*
X10025000Y-9910000D01*
X10110356Y-9895356D02*
X10110356Y-9824644D01*
X10039644Y-9824644D01*
X10039644Y-9895356D01*
X10110356Y-9895356D01*
X10180000Y-10650000D02*
X10280000Y-10750000D01*
X10280000Y-10650000D02*
X10180000Y-10750000D01*
X10265356Y-10735356D02*
X10265356Y-10664644D01*
X10194644Y-10664644D01*
X10194644Y-10735356D01*
X10265356Y-10735356D01*
X10180000Y-10964000D02*
X10280000Y-11064000D01*
X10280000Y-10964000D02*
X10180000Y-11064000D01*
X10265356Y-11049356D02*
X10265356Y-10978644D01*
X10194644Y-10978644D01*
X10194644Y-11049356D01*
X10265356Y-11049356D01*
X10180000Y-11280000D02*
X10280000Y-11380000D01*
X10280000Y-11280000D02*
X10180000Y-11380000D01*
X10265356Y-11365356D02*
X10265356Y-11294644D01*
X10194644Y-11294644D01*
X10194644Y-11365356D01*
X10265356Y-11365356D01*
X10627203Y-10591202D02*
X10727203Y-10691202D01*
X10727203Y-10591202D02*
X10627203Y-10691202D01*
X10712558Y-10676558D02*
X10712558Y-10605846D01*
X10641847Y-10605846D01*
X10641847Y-10676558D01*
X10712558Y-10676558D01*
X10775000Y-9810000D02*
X10875000Y-9910000D01*
X10875000Y-9810000D02*
X10775000Y-9910000D01*
X10860356Y-9895356D02*
X10860356Y-9824644D01*
X10789644Y-9824644D01*
X10789644Y-9895356D01*
X10860356Y-9895356D01*
X11723772Y-11890263D02*
X11823772Y-11990263D01*
X11823772Y-11890263D02*
X11723772Y-11990263D01*
X11809127Y-11975619D02*
X11809127Y-11904908D01*
X11738416Y-11904908D01*
X11738416Y-11975619D01*
X11809127Y-11975619D01*
X12451000Y-10960000D02*
X12551000Y-11060000D01*
X12551000Y-10960000D02*
X12451000Y-11060000D01*
X12536356Y-11045356D02*
X12536356Y-10974644D01*
X12465644Y-10974644D01*
X12465644Y-11045356D01*
X12536356Y-11045356D01*
X13213000Y-10960000D02*
X13313000Y-11060000D01*
X13313000Y-10960000D02*
X13213000Y-11060000D01*
X13298356Y-11045356D02*
X13298356Y-10974644D01*
X13227644Y-10974644D01*
X13227644Y-11045356D01*
X13298356Y-11045356D01*
D20*
X8307000Y-11605000D02*
X8417000Y-11715000D01*
X8417000Y-11605000D02*
X8307000Y-11715000D01*
X8362000Y-11715000D02*
X8417000Y-11660000D01*
X8362000Y-11605000D01*
X8307000Y-11660000D01*
X8362000Y-11715000D01*
X8307000Y-11985000D02*
X8417000Y-12095000D01*
X8417000Y-11985000D02*
X8307000Y-12095000D01*
X8362000Y-12095000D02*
X8417000Y-12040000D01*
X8362000Y-11985000D01*
X8307000Y-12040000D01*
X8362000Y-12095000D01*
X8317000Y-10825000D02*
X8427000Y-10935000D01*
X8427000Y-10825000D02*
X8317000Y-10935000D01*
X8372000Y-10935000D02*
X8427000Y-10880000D01*
X8372000Y-10825000D01*
X8317000Y-10880000D01*
X8372000Y-10935000D01*
X8317000Y-11225000D02*
X8427000Y-11335000D01*
X8427000Y-11225000D02*
X8317000Y-11335000D01*
X8372000Y-11335000D02*
X8427000Y-11280000D01*
X8372000Y-11225000D01*
X8317000Y-11280000D01*
X8372000Y-11335000D01*
X9323000Y-11605000D02*
X9433000Y-11715000D01*
X9433000Y-11605000D02*
X9323000Y-11715000D01*
X9378000Y-11715000D02*
X9433000Y-11660000D01*
X9378000Y-11605000D01*
X9323000Y-11660000D01*
X9378000Y-11715000D01*
X9323000Y-11985000D02*
X9433000Y-12095000D01*
X9433000Y-11985000D02*
X9323000Y-12095000D01*
X9378000Y-12095000D02*
X9433000Y-12040000D01*
X9378000Y-11985000D01*
X9323000Y-12040000D01*
X9378000Y-12095000D01*
X9333000Y-10825000D02*
X9443000Y-10935000D01*
X9443000Y-10825000D02*
X9333000Y-10935000D01*
X9388000Y-10935000D02*
X9443000Y-10880000D01*
X9388000Y-10825000D01*
X9333000Y-10880000D01*
X9388000Y-10935000D01*
X9333000Y-11225000D02*
X9443000Y-11335000D01*
X9443000Y-11225000D02*
X9333000Y-11335000D01*
X9388000Y-11335000D02*
X9443000Y-11280000D01*
X9388000Y-11225000D01*
X9333000Y-11280000D01*
X9388000Y-11335000D01*
X10670000Y-10082000D02*
X10780000Y-10192000D01*
X10780000Y-10082000D02*
X10670000Y-10192000D01*
X10725000Y-10192000D02*
X10780000Y-10137000D01*
X10725000Y-10082000D01*
X10670000Y-10137000D01*
X10725000Y-10192000D01*
X10670000Y-11098000D02*
X10780000Y-11208000D01*
X10780000Y-11098000D02*
X10670000Y-11208000D01*
X10725000Y-11208000D02*
X10780000Y-11153000D01*
X10725000Y-11098000D01*
X10670000Y-11153000D01*
X10725000Y-11208000D01*
X11781000Y-10199500D02*
X11891000Y-10309500D01*
X11891000Y-10199500D02*
X11781000Y-10309500D01*
X11836000Y-10309500D02*
X11891000Y-10254500D01*
X11836000Y-10199500D01*
X11781000Y-10254500D01*
X11836000Y-10309500D01*
X12035000Y-10199500D02*
X12145000Y-10309500D01*
X12145000Y-10199500D02*
X12035000Y-10309500D01*
X12090000Y-10309500D02*
X12145000Y-10254500D01*
X12090000Y-10199500D01*
X12035000Y-10254500D01*
X12090000Y-10309500D01*
X12289000Y-10199500D02*
X12399000Y-10309500D01*
X12399000Y-10199500D02*
X12289000Y-10309500D01*
X12344000Y-10309500D02*
X12399000Y-10254500D01*
X12344000Y-10199500D01*
X12289000Y-10254500D01*
X12344000Y-10309500D01*
D21*
X8610000Y-12830000D02*
X8610000Y-12950000D01*
X8550000Y-12890000D02*
X8670000Y-12890000D01*
X8670000Y-12890000D02*
G75*
G03*
X8670000Y-12890000I-60000J0D01*
G01*
X8728479Y-10000000D02*
X8728479Y-10120000D01*
X8668479Y-10060000D02*
X8788479Y-10060000D01*
X8788479Y-10060000D02*
G75*
G03*
X8788479Y-10060000I-60000J0D01*
G01*
X9228479Y-10000000D02*
X9228479Y-10120000D01*
X9168479Y-10060000D02*
X9288479Y-10060000D01*
X9288479Y-10060000D02*
G75*
G03*
X9288479Y-10060000I-60000J0D01*
G01*
X9500000Y-12830000D02*
X9500000Y-12950000D01*
X9440000Y-12890000D02*
X9560000Y-12890000D01*
X9560000Y-12890000D02*
G75*
G03*
X9560000Y-12890000I-60000J0D01*
G01*
X9864000Y-9639000D02*
X9864000Y-9759000D01*
X9804000Y-9699000D02*
X9924000Y-9699000D01*
X9924000Y-9699000D02*
G75*
G03*
X9924000Y-9699000I-60000J0D01*
G01*
X9864000Y-10401000D02*
X9864000Y-10521000D01*
X9804000Y-10461000D02*
X9924000Y-10461000D01*
X9924000Y-10461000D02*
G75*
G03*
X9924000Y-10461000I-60000J0D01*
G01*
X9906000Y-11560000D02*
X9906000Y-11680000D01*
X9846000Y-11620000D02*
X9966000Y-11620000D01*
X9966000Y-11620000D02*
G75*
G03*
X9966000Y-11620000I-60000J0D01*
G01*
X10414000Y-11560000D02*
X10414000Y-11680000D01*
X10354000Y-11620000D02*
X10474000Y-11620000D01*
X10474000Y-11620000D02*
G75*
G03*
X10474000Y-11620000I-60000J0D01*
G01*
X11110000Y-9580000D02*
X11110000Y-9700000D01*
X11050000Y-9640000D02*
X11170000Y-9640000D01*
X11170000Y-9640000D02*
G75*
G03*
X11170000Y-9640000I-60000J0D01*
G01*
X11110000Y-10260000D02*
X11110000Y-10380000D01*
X11050000Y-10320000D02*
X11170000Y-10320000D01*
X11170000Y-10320000D02*
G75*
G03*
X11170000Y-10320000I-60000J0D01*
G01*
D11*
X12811711Y-11658711D02*
X12811711Y-11517289D01*
X12670289Y-11517289D01*
X12670289Y-11658711D01*
X12811711Y-11658711D01*
X12841000Y-11588000D02*
G75*
G03*
X12841000Y-11588000I-100000J0D01*
G01*
X12811711Y-12972711D02*
X12811711Y-12831289D01*
X12670289Y-12831289D01*
X12670289Y-12972711D01*
X12811711Y-12972711D01*
X12841000Y-12902000D02*
G75*
G03*
X12841000Y-12902000I-100000J0D01*
G01*
X8252619Y-13445476D02*
X8252619Y-13245476D01*
X8300238Y-13245476D01*
X8328809Y-13255000D01*
X8347857Y-13274048D01*
X8357381Y-13293095D01*
X8366905Y-13331190D01*
X8366905Y-13359762D01*
X8357381Y-13397857D01*
X8347857Y-13416905D01*
X8328809Y-13435952D01*
X8300238Y-13445476D01*
X8252619Y-13445476D01*
X8452619Y-13445476D02*
X8452619Y-13312143D01*
X8452619Y-13350238D02*
X8462143Y-13331190D01*
X8471667Y-13321667D01*
X8490714Y-13312143D01*
X8509762Y-13312143D01*
X8576429Y-13445476D02*
X8576429Y-13312143D01*
X8576429Y-13245476D02*
X8566905Y-13255000D01*
X8576429Y-13264524D01*
X8585952Y-13255000D01*
X8576429Y-13245476D01*
X8576429Y-13264524D01*
X8700238Y-13445476D02*
X8681190Y-13435952D01*
X8671667Y-13416905D01*
X8671667Y-13245476D01*
X8805000Y-13445476D02*
X8785952Y-13435952D01*
X8776429Y-13416905D01*
X8776429Y-13245476D01*
X9033571Y-13445476D02*
X9033571Y-13245476D01*
X9100238Y-13388333D01*
X9166905Y-13245476D01*
X9166905Y-13445476D01*
X9347857Y-13445476D02*
X9347857Y-13340714D01*
X9338333Y-13321667D01*
X9319286Y-13312143D01*
X9281190Y-13312143D01*
X9262143Y-13321667D01*
X9347857Y-13435952D02*
X9328810Y-13445476D01*
X9281190Y-13445476D01*
X9262143Y-13435952D01*
X9252619Y-13416905D01*
X9252619Y-13397857D01*
X9262143Y-13378809D01*
X9281190Y-13369286D01*
X9328810Y-13369286D01*
X9347857Y-13359762D01*
X9443095Y-13312143D02*
X9443095Y-13512143D01*
X9443095Y-13321667D02*
X9462143Y-13312143D01*
X9500238Y-13312143D01*
X9519286Y-13321667D01*
X9528810Y-13331190D01*
X9538333Y-13350238D01*
X9538333Y-13407381D01*
X9528810Y-13426428D01*
X9519286Y-13435952D01*
X9500238Y-13445476D01*
X9462143Y-13445476D01*
X9443095Y-13435952D01*
X9624048Y-13426428D02*
X9633571Y-13435952D01*
X9624048Y-13445476D01*
X9614524Y-13435952D01*
X9624048Y-13426428D01*
X9624048Y-13445476D01*
X9624048Y-13321667D02*
X9633571Y-13331190D01*
X9624048Y-13340714D01*
X9614524Y-13331190D01*
X9624048Y-13321667D01*
X9624048Y-13340714D01*
D12*
X7955000Y-13755000D02*
X7995000Y-13795000D01*
X7995000Y-13755000D02*
X7955000Y-13795000D01*
D11*
X8290714Y-13665476D02*
X8309762Y-13665476D01*
X8328809Y-13675000D01*
X8338333Y-13684524D01*
X8347857Y-13703571D01*
X8357381Y-13741667D01*
X8357381Y-13789286D01*
X8347857Y-13827381D01*
X8338333Y-13846428D01*
X8328809Y-13855952D01*
X8309762Y-13865476D01*
X8290714Y-13865476D01*
X8271667Y-13855952D01*
X8262143Y-13846428D01*
X8252619Y-13827381D01*
X8243095Y-13789286D01*
X8243095Y-13741667D01*
X8252619Y-13703571D01*
X8262143Y-13684524D01*
X8271667Y-13675000D01*
X8290714Y-13665476D01*
X8443095Y-13846428D02*
X8452619Y-13855952D01*
X8443095Y-13865476D01*
X8433571Y-13855952D01*
X8443095Y-13846428D01*
X8443095Y-13865476D01*
X8624048Y-13732143D02*
X8624048Y-13865476D01*
X8576429Y-13655952D02*
X8528810Y-13798809D01*
X8652619Y-13798809D01*
X8766905Y-13665476D02*
X8785952Y-13665476D01*
X8805000Y-13675000D01*
X8814524Y-13684524D01*
X8824048Y-13703571D01*
X8833571Y-13741667D01*
X8833571Y-13789286D01*
X8824048Y-13827381D01*
X8814524Y-13846428D01*
X8805000Y-13855952D01*
X8785952Y-13865476D01*
X8766905Y-13865476D01*
X8747857Y-13855952D01*
X8738333Y-13846428D01*
X8728810Y-13827381D01*
X8719286Y-13789286D01*
X8719286Y-13741667D01*
X8728810Y-13703571D01*
X8738333Y-13684524D01*
X8747857Y-13675000D01*
X8766905Y-13665476D01*
X8957381Y-13665476D02*
X8976429Y-13665476D01*
X8995476Y-13675000D01*
X9005000Y-13684524D01*
X9014524Y-13703571D01*
X9024048Y-13741667D01*
X9024048Y-13789286D01*
X9014524Y-13827381D01*
X9005000Y-13846428D01*
X8995476Y-13855952D01*
X8976429Y-13865476D01*
X8957381Y-13865476D01*
X8938333Y-13855952D01*
X8928810Y-13846428D01*
X8919286Y-13827381D01*
X8909762Y-13789286D01*
X8909762Y-13741667D01*
X8919286Y-13703571D01*
X8928810Y-13684524D01*
X8938333Y-13675000D01*
X8957381Y-13665476D01*
X9109762Y-13865476D02*
X9109762Y-13732143D01*
X9109762Y-13751190D02*
X9119286Y-13741667D01*
X9138333Y-13732143D01*
X9166905Y-13732143D01*
X9185952Y-13741667D01*
X9195476Y-13760714D01*
X9195476Y-13865476D01*
X9195476Y-13760714D02*
X9205000Y-13741667D01*
X9224048Y-13732143D01*
X9252619Y-13732143D01*
X9271667Y-13741667D01*
X9281190Y-13760714D01*
X9281190Y-13865476D01*
X9376429Y-13865476D02*
X9376429Y-13732143D01*
X9376429Y-13751190D02*
X9385952Y-13741667D01*
X9405000Y-13732143D01*
X9433571Y-13732143D01*
X9452619Y-13741667D01*
X9462143Y-13760714D01*
X9462143Y-13865476D01*
X9462143Y-13760714D02*
X9471667Y-13741667D01*
X9490714Y-13732143D01*
X9519286Y-13732143D01*
X9538333Y-13741667D01*
X9547857Y-13760714D01*
X9547857Y-13865476D01*
X9938333Y-13655952D02*
X9766905Y-13913095D01*
X10195476Y-13665476D02*
X10214524Y-13665476D01*
X10233571Y-13675000D01*
X10243095Y-13684524D01*
X10252619Y-13703571D01*
X10262143Y-13741667D01*
X10262143Y-13789286D01*
X10252619Y-13827381D01*
X10243095Y-13846428D01*
X10233571Y-13855952D01*
X10214524Y-13865476D01*
X10195476Y-13865476D01*
X10176429Y-13855952D01*
X10166905Y-13846428D01*
X10157381Y-13827381D01*
X10147857Y-13789286D01*
X10147857Y-13741667D01*
X10157381Y-13703571D01*
X10166905Y-13684524D01*
X10176429Y-13675000D01*
X10195476Y-13665476D01*
X10347857Y-13846428D02*
X10357381Y-13855952D01*
X10347857Y-13865476D01*
X10338333Y-13855952D01*
X10347857Y-13846428D01*
X10347857Y-13865476D01*
X10481190Y-13665476D02*
X10500238Y-13665476D01*
X10519286Y-13675000D01*
X10528810Y-13684524D01*
X10538333Y-13703571D01*
X10547857Y-13741667D01*
X10547857Y-13789286D01*
X10538333Y-13827381D01*
X10528810Y-13846428D01*
X10519286Y-13855952D01*
X10500238Y-13865476D01*
X10481190Y-13865476D01*
X10462143Y-13855952D01*
X10452619Y-13846428D01*
X10443095Y-13827381D01*
X10433571Y-13789286D01*
X10433571Y-13741667D01*
X10443095Y-13703571D01*
X10452619Y-13684524D01*
X10462143Y-13675000D01*
X10481190Y-13665476D01*
X10738333Y-13865476D02*
X10624048Y-13865476D01*
X10681190Y-13865476D02*
X10681190Y-13665476D01*
X10662143Y-13694048D01*
X10643095Y-13713095D01*
X10624048Y-13722619D01*
X10919286Y-13665476D02*
X10824048Y-13665476D01*
X10814524Y-13760714D01*
X10824048Y-13751190D01*
X10843095Y-13741667D01*
X10890714Y-13741667D01*
X10909762Y-13751190D01*
X10919286Y-13760714D01*
X10928810Y-13779762D01*
X10928810Y-13827381D01*
X10919286Y-13846428D01*
X10909762Y-13855952D01*
X10890714Y-13865476D01*
X10843095Y-13865476D01*
X10824048Y-13855952D01*
X10814524Y-13846428D01*
X10995476Y-13665476D02*
X11128810Y-13665476D01*
X11043095Y-13865476D01*
X11195476Y-13665476D02*
X11195476Y-13703571D01*
X11271667Y-13665476D02*
X11271667Y-13703571D01*
X11566905Y-13941667D02*
X11557381Y-13932143D01*
X11538333Y-13903571D01*
X11528809Y-13884524D01*
X11519286Y-13855952D01*
X11509762Y-13808333D01*
X11509762Y-13770238D01*
X11519286Y-13722619D01*
X11528809Y-13694048D01*
X11538333Y-13675000D01*
X11557381Y-13646428D01*
X11566905Y-13636905D01*
X11747857Y-13865476D02*
X11633571Y-13865476D01*
X11690714Y-13865476D02*
X11690714Y-13665476D01*
X11671667Y-13694048D01*
X11652619Y-13713095D01*
X11633571Y-13722619D01*
X11985952Y-13865476D02*
X11985952Y-13665476D01*
X12071667Y-13865476D02*
X12071667Y-13760714D01*
X12062143Y-13741667D01*
X12043095Y-13732143D01*
X12014524Y-13732143D01*
X11995476Y-13741667D01*
X11985952Y-13751190D01*
X12195476Y-13865476D02*
X12176428Y-13855952D01*
X12166905Y-13846428D01*
X12157381Y-13827381D01*
X12157381Y-13770238D01*
X12166905Y-13751190D01*
X12176428Y-13741667D01*
X12195476Y-13732143D01*
X12224048Y-13732143D01*
X12243095Y-13741667D01*
X12252619Y-13751190D01*
X12262143Y-13770238D01*
X12262143Y-13827381D01*
X12252619Y-13846428D01*
X12243095Y-13855952D01*
X12224048Y-13865476D01*
X12195476Y-13865476D01*
X12376428Y-13865476D02*
X12357381Y-13855952D01*
X12347857Y-13836905D01*
X12347857Y-13665476D01*
X12528809Y-13855952D02*
X12509762Y-13865476D01*
X12471667Y-13865476D01*
X12452619Y-13855952D01*
X12443095Y-13836905D01*
X12443095Y-13760714D01*
X12452619Y-13741667D01*
X12471667Y-13732143D01*
X12509762Y-13732143D01*
X12528809Y-13741667D01*
X12538333Y-13760714D01*
X12538333Y-13779762D01*
X12443095Y-13798809D01*
X12605000Y-13941667D02*
X12614524Y-13932143D01*
X12633571Y-13903571D01*
X12643095Y-13884524D01*
X12652619Y-13855952D01*
X12662143Y-13808333D01*
X12662143Y-13770238D01*
X12652619Y-13722619D01*
X12643095Y-13694048D01*
X12633571Y-13675000D01*
X12614524Y-13646428D01*
X12605000Y-13636905D01*
D13*
X7995000Y-14039000D02*
G75*
G03*
X7995000Y-14039000I-35000J0D01*
G01*
D11*
X8290714Y-13929476D02*
X8309762Y-13929476D01*
X8328809Y-13939000D01*
X8338333Y-13948524D01*
X8347857Y-13967571D01*
X8357381Y-14005667D01*
X8357381Y-14053286D01*
X8347857Y-14091381D01*
X8338333Y-14110428D01*
X8328809Y-14119952D01*
X8309762Y-14129476D01*
X8290714Y-14129476D01*
X8271667Y-14119952D01*
X8262143Y-14110428D01*
X8252619Y-14091381D01*
X8243095Y-14053286D01*
X8243095Y-14005667D01*
X8252619Y-13967571D01*
X8262143Y-13948524D01*
X8271667Y-13939000D01*
X8290714Y-13929476D01*
X8443095Y-14110428D02*
X8452619Y-14119952D01*
X8443095Y-14129476D01*
X8433571Y-14119952D01*
X8443095Y-14110428D01*
X8443095Y-14129476D01*
X8519286Y-13929476D02*
X8652619Y-13929476D01*
X8566905Y-14129476D01*
X8766905Y-13929476D02*
X8785952Y-13929476D01*
X8805000Y-13939000D01*
X8814524Y-13948524D01*
X8824048Y-13967571D01*
X8833571Y-14005667D01*
X8833571Y-14053286D01*
X8824048Y-14091381D01*
X8814524Y-14110428D01*
X8805000Y-14119952D01*
X8785952Y-14129476D01*
X8766905Y-14129476D01*
X8747857Y-14119952D01*
X8738333Y-14110428D01*
X8728810Y-14091381D01*
X8719286Y-14053286D01*
X8719286Y-14005667D01*
X8728810Y-13967571D01*
X8738333Y-13948524D01*
X8747857Y-13939000D01*
X8766905Y-13929476D01*
X8957381Y-13929476D02*
X8976429Y-13929476D01*
X8995476Y-13939000D01*
X9005000Y-13948524D01*
X9014524Y-13967571D01*
X9024048Y-14005667D01*
X9024048Y-14053286D01*
X9014524Y-14091381D01*
X9005000Y-14110428D01*
X8995476Y-14119952D01*
X8976429Y-14129476D01*
X8957381Y-14129476D01*
X8938333Y-14119952D01*
X8928810Y-14110428D01*
X8919286Y-14091381D01*
X8909762Y-14053286D01*
X8909762Y-14005667D01*
X8919286Y-13967571D01*
X8928810Y-13948524D01*
X8938333Y-13939000D01*
X8957381Y-13929476D01*
X9109762Y-14129476D02*
X9109762Y-13996143D01*
X9109762Y-14015190D02*
X9119286Y-14005667D01*
X9138333Y-13996143D01*
X9166905Y-13996143D01*
X9185952Y-14005667D01*
X9195476Y-14024714D01*
X9195476Y-14129476D01*
X9195476Y-14024714D02*
X9205000Y-14005667D01*
X9224048Y-13996143D01*
X9252619Y-13996143D01*
X9271667Y-14005667D01*
X9281190Y-14024714D01*
X9281190Y-14129476D01*
X9376429Y-14129476D02*
X9376429Y-13996143D01*
X9376429Y-14015190D02*
X9385952Y-14005667D01*
X9405000Y-13996143D01*
X9433571Y-13996143D01*
X9452619Y-14005667D01*
X9462143Y-14024714D01*
X9462143Y-14129476D01*
X9462143Y-14024714D02*
X9471667Y-14005667D01*
X9490714Y-13996143D01*
X9519286Y-13996143D01*
X9538333Y-14005667D01*
X9547857Y-14024714D01*
X9547857Y-14129476D01*
X9938333Y-13919952D02*
X9766905Y-14177095D01*
X10195476Y-13929476D02*
X10214524Y-13929476D01*
X10233571Y-13939000D01*
X10243095Y-13948524D01*
X10252619Y-13967571D01*
X10262143Y-14005667D01*
X10262143Y-14053286D01*
X10252619Y-14091381D01*
X10243095Y-14110428D01*
X10233571Y-14119952D01*
X10214524Y-14129476D01*
X10195476Y-14129476D01*
X10176429Y-14119952D01*
X10166905Y-14110428D01*
X10157381Y-14091381D01*
X10147857Y-14053286D01*
X10147857Y-14005667D01*
X10157381Y-13967571D01*
X10166905Y-13948524D01*
X10176429Y-13939000D01*
X10195476Y-13929476D01*
X10347857Y-14110428D02*
X10357381Y-14119952D01*
X10347857Y-14129476D01*
X10338333Y-14119952D01*
X10347857Y-14110428D01*
X10347857Y-14129476D01*
X10481190Y-13929476D02*
X10500238Y-13929476D01*
X10519286Y-13939000D01*
X10528810Y-13948524D01*
X10538333Y-13967571D01*
X10547857Y-14005667D01*
X10547857Y-14053286D01*
X10538333Y-14091381D01*
X10528810Y-14110428D01*
X10519286Y-14119952D01*
X10500238Y-14129476D01*
X10481190Y-14129476D01*
X10462143Y-14119952D01*
X10452619Y-14110428D01*
X10443095Y-14091381D01*
X10433571Y-14053286D01*
X10433571Y-14005667D01*
X10443095Y-13967571D01*
X10452619Y-13948524D01*
X10462143Y-13939000D01*
X10481190Y-13929476D01*
X10624048Y-13948524D02*
X10633571Y-13939000D01*
X10652619Y-13929476D01*
X10700238Y-13929476D01*
X10719286Y-13939000D01*
X10728810Y-13948524D01*
X10738333Y-13967571D01*
X10738333Y-13986619D01*
X10728810Y-14015190D01*
X10614524Y-14129476D01*
X10738333Y-14129476D01*
X10805000Y-13929476D02*
X10938333Y-13929476D01*
X10852619Y-14129476D01*
X11100238Y-13929476D02*
X11062143Y-13929476D01*
X11043095Y-13939000D01*
X11033571Y-13948524D01*
X11014524Y-13977095D01*
X11005000Y-14015190D01*
X11005000Y-14091381D01*
X11014524Y-14110428D01*
X11024048Y-14119952D01*
X11043095Y-14129476D01*
X11081190Y-14129476D01*
X11100238Y-14119952D01*
X11109762Y-14110428D01*
X11119286Y-14091381D01*
X11119286Y-14043762D01*
X11109762Y-14024714D01*
X11100238Y-14015190D01*
X11081190Y-14005667D01*
X11043095Y-14005667D01*
X11024048Y-14015190D01*
X11014524Y-14024714D01*
X11005000Y-14043762D01*
X11195476Y-13929476D02*
X11195476Y-13967571D01*
X11271667Y-13929476D02*
X11271667Y-13967571D01*
X11566905Y-14205667D02*
X11557381Y-14196143D01*
X11538333Y-14167571D01*
X11528809Y-14148524D01*
X11519286Y-14119952D01*
X11509762Y-14072333D01*
X11509762Y-14034238D01*
X11519286Y-13986619D01*
X11528809Y-13958048D01*
X11538333Y-13939000D01*
X11557381Y-13910428D01*
X11566905Y-13900905D01*
X11633571Y-13948524D02*
X11643095Y-13939000D01*
X11662143Y-13929476D01*
X11709762Y-13929476D01*
X11728809Y-13939000D01*
X11738333Y-13948524D01*
X11747857Y-13967571D01*
X11747857Y-13986619D01*
X11738333Y-14015190D01*
X11624048Y-14129476D01*
X11747857Y-14129476D01*
X11985952Y-14129476D02*
X11985952Y-13929476D01*
X12071667Y-14129476D02*
X12071667Y-14024714D01*
X12062143Y-14005667D01*
X12043095Y-13996143D01*
X12014524Y-13996143D01*
X11995476Y-14005667D01*
X11985952Y-14015190D01*
X12195476Y-14129476D02*
X12176428Y-14119952D01*
X12166905Y-14110428D01*
X12157381Y-14091381D01*
X12157381Y-14034238D01*
X12166905Y-14015190D01*
X12176428Y-14005667D01*
X12195476Y-13996143D01*
X12224048Y-13996143D01*
X12243095Y-14005667D01*
X12252619Y-14015190D01*
X12262143Y-14034238D01*
X12262143Y-14091381D01*
X12252619Y-14110428D01*
X12243095Y-14119952D01*
X12224048Y-14129476D01*
X12195476Y-14129476D01*
X12376428Y-14129476D02*
X12357381Y-14119952D01*
X12347857Y-14100905D01*
X12347857Y-13929476D01*
X12528809Y-14119952D02*
X12509762Y-14129476D01*
X12471667Y-14129476D01*
X12452619Y-14119952D01*
X12443095Y-14100905D01*
X12443095Y-14024714D01*
X12452619Y-14005667D01*
X12471667Y-13996143D01*
X12509762Y-13996143D01*
X12528809Y-14005667D01*
X12538333Y-14024714D01*
X12538333Y-14043762D01*
X12443095Y-14062809D01*
X12614524Y-14119952D02*
X12633571Y-14129476D01*
X12671667Y-14129476D01*
X12690714Y-14119952D01*
X12700238Y-14100905D01*
X12700238Y-14091381D01*
X12690714Y-14072333D01*
X12671667Y-14062809D01*
X12643095Y-14062809D01*
X12624048Y-14053286D01*
X12614524Y-14034238D01*
X12614524Y-14024714D01*
X12624048Y-14005667D01*
X12643095Y-13996143D01*
X12671667Y-13996143D01*
X12690714Y-14005667D01*
X12766905Y-14205667D02*
X12776428Y-14196143D01*
X12795476Y-14167571D01*
X12805000Y-14148524D01*
X12814524Y-14119952D01*
X12824048Y-14072333D01*
X12824048Y-14034238D01*
X12814524Y-13986619D01*
X12805000Y-13958048D01*
X12795476Y-13939000D01*
X12776428Y-13910428D01*
X12766905Y-13900905D01*
D14*
X7957500Y-14265500D02*
X7957500Y-14340500D01*
X7920000Y-14303000D02*
X7995000Y-14303000D01*
D11*
X8290714Y-14193476D02*
X8309762Y-14193476D01*
X8328809Y-14203000D01*
X8338333Y-14212524D01*
X8347857Y-14231571D01*
X8357381Y-14269667D01*
X8357381Y-14317286D01*
X8347857Y-14355381D01*
X8338333Y-14374428D01*
X8328809Y-14383952D01*
X8309762Y-14393476D01*
X8290714Y-14393476D01*
X8271667Y-14383952D01*
X8262143Y-14374428D01*
X8252619Y-14355381D01*
X8243095Y-14317286D01*
X8243095Y-14269667D01*
X8252619Y-14231571D01*
X8262143Y-14212524D01*
X8271667Y-14203000D01*
X8290714Y-14193476D01*
X8443095Y-14374428D02*
X8452619Y-14383952D01*
X8443095Y-14393476D01*
X8433571Y-14383952D01*
X8443095Y-14374428D01*
X8443095Y-14393476D01*
X8519286Y-14193476D02*
X8652619Y-14193476D01*
X8566905Y-14393476D01*
X8824048Y-14193476D02*
X8728810Y-14193476D01*
X8719286Y-14288714D01*
X8728810Y-14279190D01*
X8747857Y-14269667D01*
X8795476Y-14269667D01*
X8814524Y-14279190D01*
X8824048Y-14288714D01*
X8833571Y-14307762D01*
X8833571Y-14355381D01*
X8824048Y-14374428D01*
X8814524Y-14383952D01*
X8795476Y-14393476D01*
X8747857Y-14393476D01*
X8728810Y-14383952D01*
X8719286Y-14374428D01*
X8957381Y-14193476D02*
X8976429Y-14193476D01*
X8995476Y-14203000D01*
X9005000Y-14212524D01*
X9014524Y-14231571D01*
X9024048Y-14269667D01*
X9024048Y-14317286D01*
X9014524Y-14355381D01*
X9005000Y-14374428D01*
X8995476Y-14383952D01*
X8976429Y-14393476D01*
X8957381Y-14393476D01*
X8938333Y-14383952D01*
X8928810Y-14374428D01*
X8919286Y-14355381D01*
X8909762Y-14317286D01*
X8909762Y-14269667D01*
X8919286Y-14231571D01*
X8928810Y-14212524D01*
X8938333Y-14203000D01*
X8957381Y-14193476D01*
X9109762Y-14393476D02*
X9109762Y-14260143D01*
X9109762Y-14279190D02*
X9119286Y-14269667D01*
X9138333Y-14260143D01*
X9166905Y-14260143D01*
X9185952Y-14269667D01*
X9195476Y-14288714D01*
X9195476Y-14393476D01*
X9195476Y-14288714D02*
X9205000Y-14269667D01*
X9224048Y-14260143D01*
X9252619Y-14260143D01*
X9271667Y-14269667D01*
X9281190Y-14288714D01*
X9281190Y-14393476D01*
X9376429Y-14393476D02*
X9376429Y-14260143D01*
X9376429Y-14279190D02*
X9385952Y-14269667D01*
X9405000Y-14260143D01*
X9433571Y-14260143D01*
X9452619Y-14269667D01*
X9462143Y-14288714D01*
X9462143Y-14393476D01*
X9462143Y-14288714D02*
X9471667Y-14269667D01*
X9490714Y-14260143D01*
X9519286Y-14260143D01*
X9538333Y-14269667D01*
X9547857Y-14288714D01*
X9547857Y-14393476D01*
X9938333Y-14183952D02*
X9766905Y-14441095D01*
X10195476Y-14193476D02*
X10214524Y-14193476D01*
X10233571Y-14203000D01*
X10243095Y-14212524D01*
X10252619Y-14231571D01*
X10262143Y-14269667D01*
X10262143Y-14317286D01*
X10252619Y-14355381D01*
X10243095Y-14374428D01*
X10233571Y-14383952D01*
X10214524Y-14393476D01*
X10195476Y-14393476D01*
X10176429Y-14383952D01*
X10166905Y-14374428D01*
X10157381Y-14355381D01*
X10147857Y-14317286D01*
X10147857Y-14269667D01*
X10157381Y-14231571D01*
X10166905Y-14212524D01*
X10176429Y-14203000D01*
X10195476Y-14193476D01*
X10347857Y-14374428D02*
X10357381Y-14383952D01*
X10347857Y-14393476D01*
X10338333Y-14383952D01*
X10347857Y-14374428D01*
X10347857Y-14393476D01*
X10481190Y-14193476D02*
X10500238Y-14193476D01*
X10519286Y-14203000D01*
X10528810Y-14212524D01*
X10538333Y-14231571D01*
X10547857Y-14269667D01*
X10547857Y-14317286D01*
X10538333Y-14355381D01*
X10528810Y-14374428D01*
X10519286Y-14383952D01*
X10500238Y-14393476D01*
X10481190Y-14393476D01*
X10462143Y-14383952D01*
X10452619Y-14374428D01*
X10443095Y-14355381D01*
X10433571Y-14317286D01*
X10433571Y-14269667D01*
X10443095Y-14231571D01*
X10452619Y-14212524D01*
X10462143Y-14203000D01*
X10481190Y-14193476D01*
X10624048Y-14212524D02*
X10633571Y-14203000D01*
X10652619Y-14193476D01*
X10700238Y-14193476D01*
X10719286Y-14203000D01*
X10728810Y-14212524D01*
X10738333Y-14231571D01*
X10738333Y-14250619D01*
X10728810Y-14279190D01*
X10614524Y-14393476D01*
X10738333Y-14393476D01*
X10833571Y-14393476D02*
X10871667Y-14393476D01*
X10890714Y-14383952D01*
X10900238Y-14374428D01*
X10919286Y-14345857D01*
X10928810Y-14307762D01*
X10928810Y-14231571D01*
X10919286Y-14212524D01*
X10909762Y-14203000D01*
X10890714Y-14193476D01*
X10852619Y-14193476D01*
X10833571Y-14203000D01*
X10824048Y-14212524D01*
X10814524Y-14231571D01*
X10814524Y-14279190D01*
X10824048Y-14298238D01*
X10833571Y-14307762D01*
X10852619Y-14317286D01*
X10890714Y-14317286D01*
X10909762Y-14307762D01*
X10919286Y-14298238D01*
X10928810Y-14279190D01*
X11109762Y-14193476D02*
X11014524Y-14193476D01*
X11005000Y-14288714D01*
X11014524Y-14279190D01*
X11033571Y-14269667D01*
X11081190Y-14269667D01*
X11100238Y-14279190D01*
X11109762Y-14288714D01*
X11119286Y-14307762D01*
X11119286Y-14355381D01*
X11109762Y-14374428D01*
X11100238Y-14383952D01*
X11081190Y-14393476D01*
X11033571Y-14393476D01*
X11014524Y-14383952D01*
X11005000Y-14374428D01*
X11195476Y-14193476D02*
X11195476Y-14231571D01*
X11271667Y-14193476D02*
X11271667Y-14231571D01*
X11566905Y-14469667D02*
X11557381Y-14460143D01*
X11538333Y-14431571D01*
X11528809Y-14412524D01*
X11519286Y-14383952D01*
X11509762Y-14336333D01*
X11509762Y-14298238D01*
X11519286Y-14250619D01*
X11528809Y-14222048D01*
X11538333Y-14203000D01*
X11557381Y-14174428D01*
X11566905Y-14164905D01*
X11624048Y-14193476D02*
X11747857Y-14193476D01*
X11681190Y-14269667D01*
X11709762Y-14269667D01*
X11728809Y-14279190D01*
X11738333Y-14288714D01*
X11747857Y-14307762D01*
X11747857Y-14355381D01*
X11738333Y-14374428D01*
X11728809Y-14383952D01*
X11709762Y-14393476D01*
X11652619Y-14393476D01*
X11633571Y-14383952D01*
X11624048Y-14374428D01*
X11985952Y-14393476D02*
X11985952Y-14193476D01*
X12071667Y-14393476D02*
X12071667Y-14288714D01*
X12062143Y-14269667D01*
X12043095Y-14260143D01*
X12014524Y-14260143D01*
X11995476Y-14269667D01*
X11985952Y-14279190D01*
X12195476Y-14393476D02*
X12176428Y-14383952D01*
X12166905Y-14374428D01*
X12157381Y-14355381D01*
X12157381Y-14298238D01*
X12166905Y-14279190D01*
X12176428Y-14269667D01*
X12195476Y-14260143D01*
X12224048Y-14260143D01*
X12243095Y-14269667D01*
X12252619Y-14279190D01*
X12262143Y-14298238D01*
X12262143Y-14355381D01*
X12252619Y-14374428D01*
X12243095Y-14383952D01*
X12224048Y-14393476D01*
X12195476Y-14393476D01*
X12376428Y-14393476D02*
X12357381Y-14383952D01*
X12347857Y-14364905D01*
X12347857Y-14193476D01*
X12528809Y-14383952D02*
X12509762Y-14393476D01*
X12471667Y-14393476D01*
X12452619Y-14383952D01*
X12443095Y-14364905D01*
X12443095Y-14288714D01*
X12452619Y-14269667D01*
X12471667Y-14260143D01*
X12509762Y-14260143D01*
X12528809Y-14269667D01*
X12538333Y-14288714D01*
X12538333Y-14307762D01*
X12443095Y-14326809D01*
X12614524Y-14383952D02*
X12633571Y-14393476D01*
X12671667Y-14393476D01*
X12690714Y-14383952D01*
X12700238Y-14364905D01*
X12700238Y-14355381D01*
X12690714Y-14336333D01*
X12671667Y-14326809D01*
X12643095Y-14326809D01*
X12624048Y-14317286D01*
X12614524Y-14298238D01*
X12614524Y-14288714D01*
X12624048Y-14269667D01*
X12643095Y-14260143D01*
X12671667Y-14260143D01*
X12690714Y-14269667D01*
X12766905Y-14469667D02*
X12776428Y-14460143D01*
X12795476Y-14431571D01*
X12805000Y-14412524D01*
X12814524Y-14383952D01*
X12824048Y-14336333D01*
X12824048Y-14298238D01*
X12814524Y-14250619D01*
X12805000Y-14222048D01*
X12795476Y-14203000D01*
X12776428Y-14174428D01*
X12766905Y-14164905D01*
D15*
X7983841Y-14593941D02*
X7983841Y-14540059D01*
X7929959Y-14540059D01*
X7929959Y-14593941D01*
X7983841Y-14593941D01*
D11*
X8290714Y-14457476D02*
X8309762Y-14457476D01*
X8328809Y-14467000D01*
X8338333Y-14476524D01*
X8347857Y-14495571D01*
X8357381Y-14533667D01*
X8357381Y-14581286D01*
X8347857Y-14619381D01*
X8338333Y-14638428D01*
X8328809Y-14647952D01*
X8309762Y-14657476D01*
X8290714Y-14657476D01*
X8271667Y-14647952D01*
X8262143Y-14638428D01*
X8252619Y-14619381D01*
X8243095Y-14581286D01*
X8243095Y-14533667D01*
X8252619Y-14495571D01*
X8262143Y-14476524D01*
X8271667Y-14467000D01*
X8290714Y-14457476D01*
X8443095Y-14638428D02*
X8452619Y-14647952D01*
X8443095Y-14657476D01*
X8433571Y-14647952D01*
X8443095Y-14638428D01*
X8443095Y-14657476D01*
X8519286Y-14457476D02*
X8652619Y-14457476D01*
X8566905Y-14657476D01*
X8814524Y-14457476D02*
X8776429Y-14457476D01*
X8757381Y-14467000D01*
X8747857Y-14476524D01*
X8728810Y-14505095D01*
X8719286Y-14543190D01*
X8719286Y-14619381D01*
X8728810Y-14638428D01*
X8738333Y-14647952D01*
X8757381Y-14657476D01*
X8795476Y-14657476D01*
X8814524Y-14647952D01*
X8824048Y-14638428D01*
X8833571Y-14619381D01*
X8833571Y-14571762D01*
X8824048Y-14552714D01*
X8814524Y-14543190D01*
X8795476Y-14533667D01*
X8757381Y-14533667D01*
X8738333Y-14543190D01*
X8728810Y-14552714D01*
X8719286Y-14571762D01*
X8909762Y-14476524D02*
X8919286Y-14467000D01*
X8938333Y-14457476D01*
X8985952Y-14457476D01*
X9005000Y-14467000D01*
X9014524Y-14476524D01*
X9024048Y-14495571D01*
X9024048Y-14514619D01*
X9014524Y-14543190D01*
X8900238Y-14657476D01*
X9024048Y-14657476D01*
X9109762Y-14657476D02*
X9109762Y-14524143D01*
X9109762Y-14543190D02*
X9119286Y-14533667D01*
X9138333Y-14524143D01*
X9166905Y-14524143D01*
X9185952Y-14533667D01*
X9195476Y-14552714D01*
X9195476Y-14657476D01*
X9195476Y-14552714D02*
X9205000Y-14533667D01*
X9224048Y-14524143D01*
X9252619Y-14524143D01*
X9271667Y-14533667D01*
X9281190Y-14552714D01*
X9281190Y-14657476D01*
X9376429Y-14657476D02*
X9376429Y-14524143D01*
X9376429Y-14543190D02*
X9385952Y-14533667D01*
X9405000Y-14524143D01*
X9433571Y-14524143D01*
X9452619Y-14533667D01*
X9462143Y-14552714D01*
X9462143Y-14657476D01*
X9462143Y-14552714D02*
X9471667Y-14533667D01*
X9490714Y-14524143D01*
X9519286Y-14524143D01*
X9538333Y-14533667D01*
X9547857Y-14552714D01*
X9547857Y-14657476D01*
X9938333Y-14447952D02*
X9766905Y-14705095D01*
X10195476Y-14457476D02*
X10214524Y-14457476D01*
X10233571Y-14467000D01*
X10243095Y-14476524D01*
X10252619Y-14495571D01*
X10262143Y-14533667D01*
X10262143Y-14581286D01*
X10252619Y-14619381D01*
X10243095Y-14638428D01*
X10233571Y-14647952D01*
X10214524Y-14657476D01*
X10195476Y-14657476D01*
X10176429Y-14647952D01*
X10166905Y-14638428D01*
X10157381Y-14619381D01*
X10147857Y-14581286D01*
X10147857Y-14533667D01*
X10157381Y-14495571D01*
X10166905Y-14476524D01*
X10176429Y-14467000D01*
X10195476Y-14457476D01*
X10347857Y-14638428D02*
X10357381Y-14647952D01*
X10347857Y-14657476D01*
X10338333Y-14647952D01*
X10347857Y-14638428D01*
X10347857Y-14657476D01*
X10481190Y-14457476D02*
X10500238Y-14457476D01*
X10519286Y-14467000D01*
X10528810Y-14476524D01*
X10538333Y-14495571D01*
X10547857Y-14533667D01*
X10547857Y-14581286D01*
X10538333Y-14619381D01*
X10528810Y-14638428D01*
X10519286Y-14647952D01*
X10500238Y-14657476D01*
X10481190Y-14657476D01*
X10462143Y-14647952D01*
X10452619Y-14638428D01*
X10443095Y-14619381D01*
X10433571Y-14581286D01*
X10433571Y-14533667D01*
X10443095Y-14495571D01*
X10452619Y-14476524D01*
X10462143Y-14467000D01*
X10481190Y-14457476D01*
X10614524Y-14457476D02*
X10738333Y-14457476D01*
X10671667Y-14533667D01*
X10700238Y-14533667D01*
X10719286Y-14543190D01*
X10728810Y-14552714D01*
X10738333Y-14571762D01*
X10738333Y-14619381D01*
X10728810Y-14638428D01*
X10719286Y-14647952D01*
X10700238Y-14657476D01*
X10643095Y-14657476D01*
X10624048Y-14647952D01*
X10614524Y-14638428D01*
X10862143Y-14457476D02*
X10881190Y-14457476D01*
X10900238Y-14467000D01*
X10909762Y-14476524D01*
X10919286Y-14495571D01*
X10928810Y-14533667D01*
X10928810Y-14581286D01*
X10919286Y-14619381D01*
X10909762Y-14638428D01*
X10900238Y-14647952D01*
X10881190Y-14657476D01*
X10862143Y-14657476D01*
X10843095Y-14647952D01*
X10833571Y-14638428D01*
X10824048Y-14619381D01*
X10814524Y-14581286D01*
X10814524Y-14533667D01*
X10824048Y-14495571D01*
X10833571Y-14476524D01*
X10843095Y-14467000D01*
X10862143Y-14457476D01*
X11052619Y-14457476D02*
X11071667Y-14457476D01*
X11090714Y-14467000D01*
X11100238Y-14476524D01*
X11109762Y-14495571D01*
X11119286Y-14533667D01*
X11119286Y-14581286D01*
X11109762Y-14619381D01*
X11100238Y-14638428D01*
X11090714Y-14647952D01*
X11071667Y-14657476D01*
X11052619Y-14657476D01*
X11033571Y-14647952D01*
X11024048Y-14638428D01*
X11014524Y-14619381D01*
X11005000Y-14581286D01*
X11005000Y-14533667D01*
X11014524Y-14495571D01*
X11024048Y-14476524D01*
X11033571Y-14467000D01*
X11052619Y-14457476D01*
X11195476Y-14457476D02*
X11195476Y-14495571D01*
X11271667Y-14457476D02*
X11271667Y-14495571D01*
X11566905Y-14733667D02*
X11557381Y-14724143D01*
X11538333Y-14695571D01*
X11528809Y-14676524D01*
X11519286Y-14647952D01*
X11509762Y-14600333D01*
X11509762Y-14562238D01*
X11519286Y-14514619D01*
X11528809Y-14486048D01*
X11538333Y-14467000D01*
X11557381Y-14438428D01*
X11566905Y-14428905D01*
X11728809Y-14457476D02*
X11690714Y-14457476D01*
X11671667Y-14467000D01*
X11662143Y-14476524D01*
X11643095Y-14505095D01*
X11633571Y-14543190D01*
X11633571Y-14619381D01*
X11643095Y-14638428D01*
X11652619Y-14647952D01*
X11671667Y-14657476D01*
X11709762Y-14657476D01*
X11728809Y-14647952D01*
X11738333Y-14638428D01*
X11747857Y-14619381D01*
X11747857Y-14571762D01*
X11738333Y-14552714D01*
X11728809Y-14543190D01*
X11709762Y-14533667D01*
X11671667Y-14533667D01*
X11652619Y-14543190D01*
X11643095Y-14552714D01*
X11633571Y-14571762D01*
X11985952Y-14657476D02*
X11985952Y-14457476D01*
X12071667Y-14657476D02*
X12071667Y-14552714D01*
X12062143Y-14533667D01*
X12043095Y-14524143D01*
X12014524Y-14524143D01*
X11995476Y-14533667D01*
X11985952Y-14543190D01*
X12195476Y-14657476D02*
X12176428Y-14647952D01*
X12166905Y-14638428D01*
X12157381Y-14619381D01*
X12157381Y-14562238D01*
X12166905Y-14543190D01*
X12176428Y-14533667D01*
X12195476Y-14524143D01*
X12224048Y-14524143D01*
X12243095Y-14533667D01*
X12252619Y-14543190D01*
X12262143Y-14562238D01*
X12262143Y-14619381D01*
X12252619Y-14638428D01*
X12243095Y-14647952D01*
X12224048Y-14657476D01*
X12195476Y-14657476D01*
X12376428Y-14657476D02*
X12357381Y-14647952D01*
X12347857Y-14628905D01*
X12347857Y-14457476D01*
X12528809Y-14647952D02*
X12509762Y-14657476D01*
X12471667Y-14657476D01*
X12452619Y-14647952D01*
X12443095Y-14628905D01*
X12443095Y-14552714D01*
X12452619Y-14533667D01*
X12471667Y-14524143D01*
X12509762Y-14524143D01*
X12528809Y-14533667D01*
X12538333Y-14552714D01*
X12538333Y-14571762D01*
X12443095Y-14590809D01*
X12614524Y-14647952D02*
X12633571Y-14657476D01*
X12671667Y-14657476D01*
X12690714Y-14647952D01*
X12700238Y-14628905D01*
X12700238Y-14619381D01*
X12690714Y-14600333D01*
X12671667Y-14590809D01*
X12643095Y-14590809D01*
X12624048Y-14581286D01*
X12614524Y-14562238D01*
X12614524Y-14552714D01*
X12624048Y-14533667D01*
X12643095Y-14524143D01*
X12671667Y-14524143D01*
X12690714Y-14533667D01*
X12766905Y-14733667D02*
X12776428Y-14724143D01*
X12795476Y-14695571D01*
X12805000Y-14676524D01*
X12814524Y-14647952D01*
X12824048Y-14600333D01*
X12824048Y-14562238D01*
X12814524Y-14514619D01*
X12805000Y-14486048D01*
X12795476Y-14467000D01*
X12776428Y-14438428D01*
X12766905Y-14428905D01*
D16*
X7955000Y-14871000D02*
X7995000Y-14831000D01*
X7955000Y-14791000D01*
X7915000Y-14831000D01*
X7955000Y-14871000D01*
D11*
X8290714Y-14721476D02*
X8309762Y-14721476D01*
X8328809Y-14731000D01*
X8338333Y-14740524D01*
X8347857Y-14759571D01*
X8357381Y-14797667D01*
X8357381Y-14845286D01*
X8347857Y-14883381D01*
X8338333Y-14902428D01*
X8328809Y-14911952D01*
X8309762Y-14921476D01*
X8290714Y-14921476D01*
X8271667Y-14911952D01*
X8262143Y-14902428D01*
X8252619Y-14883381D01*
X8243095Y-14845286D01*
X8243095Y-14797667D01*
X8252619Y-14759571D01*
X8262143Y-14740524D01*
X8271667Y-14731000D01*
X8290714Y-14721476D01*
X8443095Y-14902428D02*
X8452619Y-14911952D01*
X8443095Y-14921476D01*
X8433571Y-14911952D01*
X8443095Y-14902428D01*
X8443095Y-14921476D01*
X8566905Y-14807190D02*
X8547857Y-14797667D01*
X8538333Y-14788143D01*
X8528810Y-14769095D01*
X8528810Y-14759571D01*
X8538333Y-14740524D01*
X8547857Y-14731000D01*
X8566905Y-14721476D01*
X8605000Y-14721476D01*
X8624048Y-14731000D01*
X8633571Y-14740524D01*
X8643095Y-14759571D01*
X8643095Y-14769095D01*
X8633571Y-14788143D01*
X8624048Y-14797667D01*
X8605000Y-14807190D01*
X8566905Y-14807190D01*
X8547857Y-14816714D01*
X8538333Y-14826238D01*
X8528810Y-14845286D01*
X8528810Y-14883381D01*
X8538333Y-14902428D01*
X8547857Y-14911952D01*
X8566905Y-14921476D01*
X8605000Y-14921476D01*
X8624048Y-14911952D01*
X8633571Y-14902428D01*
X8643095Y-14883381D01*
X8643095Y-14845286D01*
X8633571Y-14826238D01*
X8624048Y-14816714D01*
X8605000Y-14807190D01*
X8766905Y-14721476D02*
X8785952Y-14721476D01*
X8805000Y-14731000D01*
X8814524Y-14740524D01*
X8824048Y-14759571D01*
X8833571Y-14797667D01*
X8833571Y-14845286D01*
X8824048Y-14883381D01*
X8814524Y-14902428D01*
X8805000Y-14911952D01*
X8785952Y-14921476D01*
X8766905Y-14921476D01*
X8747857Y-14911952D01*
X8738333Y-14902428D01*
X8728810Y-14883381D01*
X8719286Y-14845286D01*
X8719286Y-14797667D01*
X8728810Y-14759571D01*
X8738333Y-14740524D01*
X8747857Y-14731000D01*
X8766905Y-14721476D01*
X8957381Y-14721476D02*
X8976429Y-14721476D01*
X8995476Y-14731000D01*
X9005000Y-14740524D01*
X9014524Y-14759571D01*
X9024048Y-14797667D01*
X9024048Y-14845286D01*
X9014524Y-14883381D01*
X9005000Y-14902428D01*
X8995476Y-14911952D01*
X8976429Y-14921476D01*
X8957381Y-14921476D01*
X8938333Y-14911952D01*
X8928810Y-14902428D01*
X8919286Y-14883381D01*
X8909762Y-14845286D01*
X8909762Y-14797667D01*
X8919286Y-14759571D01*
X8928810Y-14740524D01*
X8938333Y-14731000D01*
X8957381Y-14721476D01*
X9109762Y-14921476D02*
X9109762Y-14788143D01*
X9109762Y-14807190D02*
X9119286Y-14797667D01*
X9138333Y-14788143D01*
X9166905Y-14788143D01*
X9185952Y-14797667D01*
X9195476Y-14816714D01*
X9195476Y-14921476D01*
X9195476Y-14816714D02*
X9205000Y-14797667D01*
X9224048Y-14788143D01*
X9252619Y-14788143D01*
X9271667Y-14797667D01*
X9281190Y-14816714D01*
X9281190Y-14921476D01*
X9376429Y-14921476D02*
X9376429Y-14788143D01*
X9376429Y-14807190D02*
X9385952Y-14797667D01*
X9405000Y-14788143D01*
X9433571Y-14788143D01*
X9452619Y-14797667D01*
X9462143Y-14816714D01*
X9462143Y-14921476D01*
X9462143Y-14816714D02*
X9471667Y-14797667D01*
X9490714Y-14788143D01*
X9519286Y-14788143D01*
X9538333Y-14797667D01*
X9547857Y-14816714D01*
X9547857Y-14921476D01*
X9938333Y-14711952D02*
X9766905Y-14969095D01*
X10195476Y-14721476D02*
X10214524Y-14721476D01*
X10233571Y-14731000D01*
X10243095Y-14740524D01*
X10252619Y-14759571D01*
X10262143Y-14797667D01*
X10262143Y-14845286D01*
X10252619Y-14883381D01*
X10243095Y-14902428D01*
X10233571Y-14911952D01*
X10214524Y-14921476D01*
X10195476Y-14921476D01*
X10176429Y-14911952D01*
X10166905Y-14902428D01*
X10157381Y-14883381D01*
X10147857Y-14845286D01*
X10147857Y-14797667D01*
X10157381Y-14759571D01*
X10166905Y-14740524D01*
X10176429Y-14731000D01*
X10195476Y-14721476D01*
X10347857Y-14902428D02*
X10357381Y-14911952D01*
X10347857Y-14921476D01*
X10338333Y-14911952D01*
X10347857Y-14902428D01*
X10347857Y-14921476D01*
X10481190Y-14721476D02*
X10500238Y-14721476D01*
X10519286Y-14731000D01*
X10528810Y-14740524D01*
X10538333Y-14759571D01*
X10547857Y-14797667D01*
X10547857Y-14845286D01*
X10538333Y-14883381D01*
X10528810Y-14902428D01*
X10519286Y-14911952D01*
X10500238Y-14921476D01*
X10481190Y-14921476D01*
X10462143Y-14911952D01*
X10452619Y-14902428D01*
X10443095Y-14883381D01*
X10433571Y-14845286D01*
X10433571Y-14797667D01*
X10443095Y-14759571D01*
X10452619Y-14740524D01*
X10462143Y-14731000D01*
X10481190Y-14721476D01*
X10614524Y-14721476D02*
X10738333Y-14721476D01*
X10671667Y-14797667D01*
X10700238Y-14797667D01*
X10719286Y-14807190D01*
X10728810Y-14816714D01*
X10738333Y-14835762D01*
X10738333Y-14883381D01*
X10728810Y-14902428D01*
X10719286Y-14911952D01*
X10700238Y-14921476D01*
X10643095Y-14921476D01*
X10624048Y-14911952D01*
X10614524Y-14902428D01*
X10928810Y-14921476D02*
X10814524Y-14921476D01*
X10871667Y-14921476D02*
X10871667Y-14721476D01*
X10852619Y-14750048D01*
X10833571Y-14769095D01*
X10814524Y-14778619D01*
X11109762Y-14721476D02*
X11014524Y-14721476D01*
X11005000Y-14816714D01*
X11014524Y-14807190D01*
X11033571Y-14797667D01*
X11081190Y-14797667D01*
X11100238Y-14807190D01*
X11109762Y-14816714D01*
X11119286Y-14835762D01*
X11119286Y-14883381D01*
X11109762Y-14902428D01*
X11100238Y-14911952D01*
X11081190Y-14921476D01*
X11033571Y-14921476D01*
X11014524Y-14911952D01*
X11005000Y-14902428D01*
X11195476Y-14721476D02*
X11195476Y-14759571D01*
X11271667Y-14721476D02*
X11271667Y-14759571D01*
X11566905Y-14997667D02*
X11557381Y-14988143D01*
X11538333Y-14959571D01*
X11528809Y-14940524D01*
X11519286Y-14911952D01*
X11509762Y-14864333D01*
X11509762Y-14826238D01*
X11519286Y-14778619D01*
X11528809Y-14750048D01*
X11538333Y-14731000D01*
X11557381Y-14702428D01*
X11566905Y-14692905D01*
X11633571Y-14740524D02*
X11643095Y-14731000D01*
X11662143Y-14721476D01*
X11709762Y-14721476D01*
X11728809Y-14731000D01*
X11738333Y-14740524D01*
X11747857Y-14759571D01*
X11747857Y-14778619D01*
X11738333Y-14807190D01*
X11624048Y-14921476D01*
X11747857Y-14921476D01*
X11871667Y-14721476D02*
X11890714Y-14721476D01*
X11909762Y-14731000D01*
X11919286Y-14740524D01*
X11928809Y-14759571D01*
X11938333Y-14797667D01*
X11938333Y-14845286D01*
X11928809Y-14883381D01*
X11919286Y-14902428D01*
X11909762Y-14911952D01*
X11890714Y-14921476D01*
X11871667Y-14921476D01*
X11852619Y-14911952D01*
X11843095Y-14902428D01*
X11833571Y-14883381D01*
X11824048Y-14845286D01*
X11824048Y-14797667D01*
X11833571Y-14759571D01*
X11843095Y-14740524D01*
X11852619Y-14731000D01*
X11871667Y-14721476D01*
X12176428Y-14921476D02*
X12176428Y-14721476D01*
X12262143Y-14921476D02*
X12262143Y-14816714D01*
X12252619Y-14797667D01*
X12233571Y-14788143D01*
X12205000Y-14788143D01*
X12185952Y-14797667D01*
X12176428Y-14807190D01*
X12385952Y-14921476D02*
X12366905Y-14911952D01*
X12357381Y-14902428D01*
X12347857Y-14883381D01*
X12347857Y-14826238D01*
X12357381Y-14807190D01*
X12366905Y-14797667D01*
X12385952Y-14788143D01*
X12414524Y-14788143D01*
X12433571Y-14797667D01*
X12443095Y-14807190D01*
X12452619Y-14826238D01*
X12452619Y-14883381D01*
X12443095Y-14902428D01*
X12433571Y-14911952D01*
X12414524Y-14921476D01*
X12385952Y-14921476D01*
X12566905Y-14921476D02*
X12547857Y-14911952D01*
X12538333Y-14892905D01*
X12538333Y-14721476D01*
X12719286Y-14911952D02*
X12700238Y-14921476D01*
X12662143Y-14921476D01*
X12643095Y-14911952D01*
X12633571Y-14892905D01*
X12633571Y-14816714D01*
X12643095Y-14797667D01*
X12662143Y-14788143D01*
X12700238Y-14788143D01*
X12719286Y-14797667D01*
X12728809Y-14816714D01*
X12728809Y-14835762D01*
X12633571Y-14854809D01*
X12805000Y-14911952D02*
X12824048Y-14921476D01*
X12862143Y-14921476D01*
X12881190Y-14911952D01*
X12890714Y-14892905D01*
X12890714Y-14883381D01*
X12881190Y-14864333D01*
X12862143Y-14854809D01*
X12833571Y-14854809D01*
X12814524Y-14845286D01*
X12805000Y-14826238D01*
X12805000Y-14816714D01*
X12814524Y-14797667D01*
X12833571Y-14788143D01*
X12862143Y-14788143D01*
X12881190Y-14797667D01*
X12957381Y-14997667D02*
X12966905Y-14988143D01*
X12985952Y-14959571D01*
X12995476Y-14940524D01*
X13005000Y-14911952D01*
X13014524Y-14864333D01*
X13014524Y-14826238D01*
X13005000Y-14778619D01*
X12995476Y-14750048D01*
X12985952Y-14731000D01*
X12966905Y-14702428D01*
X12957381Y-14692905D01*
D17*
X7905000Y-15050000D02*
X7995000Y-15140000D01*
X7995000Y-15050000D02*
X7905000Y-15140000D01*
X7995000Y-15095000D02*
G75*
G03*
X7995000Y-15095000I-45000J0D01*
G01*
D11*
X8290714Y-14985476D02*
X8309762Y-14985476D01*
X8328809Y-14995000D01*
X8338333Y-15004524D01*
X8347857Y-15023571D01*
X8357381Y-15061667D01*
X8357381Y-15109286D01*
X8347857Y-15147381D01*
X8338333Y-15166428D01*
X8328809Y-15175952D01*
X8309762Y-15185476D01*
X8290714Y-15185476D01*
X8271667Y-15175952D01*
X8262143Y-15166428D01*
X8252619Y-15147381D01*
X8243095Y-15109286D01*
X8243095Y-15061667D01*
X8252619Y-15023571D01*
X8262143Y-15004524D01*
X8271667Y-14995000D01*
X8290714Y-14985476D01*
X8443095Y-15166428D02*
X8452619Y-15175952D01*
X8443095Y-15185476D01*
X8433571Y-15175952D01*
X8443095Y-15166428D01*
X8443095Y-15185476D01*
X8547857Y-15185476D02*
X8585952Y-15185476D01*
X8605000Y-15175952D01*
X8614524Y-15166428D01*
X8633571Y-15137857D01*
X8643095Y-15099762D01*
X8643095Y-15023571D01*
X8633571Y-15004524D01*
X8624048Y-14995000D01*
X8605000Y-14985476D01*
X8566905Y-14985476D01*
X8547857Y-14995000D01*
X8538333Y-15004524D01*
X8528810Y-15023571D01*
X8528810Y-15071190D01*
X8538333Y-15090238D01*
X8547857Y-15099762D01*
X8566905Y-15109286D01*
X8605000Y-15109286D01*
X8624048Y-15099762D01*
X8633571Y-15090238D01*
X8643095Y-15071190D01*
X8766905Y-14985476D02*
X8785952Y-14985476D01*
X8805000Y-14995000D01*
X8814524Y-15004524D01*
X8824048Y-15023571D01*
X8833571Y-15061667D01*
X8833571Y-15109286D01*
X8824048Y-15147381D01*
X8814524Y-15166428D01*
X8805000Y-15175952D01*
X8785952Y-15185476D01*
X8766905Y-15185476D01*
X8747857Y-15175952D01*
X8738333Y-15166428D01*
X8728810Y-15147381D01*
X8719286Y-15109286D01*
X8719286Y-15061667D01*
X8728810Y-15023571D01*
X8738333Y-15004524D01*
X8747857Y-14995000D01*
X8766905Y-14985476D01*
X8957381Y-14985476D02*
X8976429Y-14985476D01*
X8995476Y-14995000D01*
X9005000Y-15004524D01*
X9014524Y-15023571D01*
X9024048Y-15061667D01*
X9024048Y-15109286D01*
X9014524Y-15147381D01*
X9005000Y-15166428D01*
X8995476Y-15175952D01*
X8976429Y-15185476D01*
X8957381Y-15185476D01*
X8938333Y-15175952D01*
X8928810Y-15166428D01*
X8919286Y-15147381D01*
X8909762Y-15109286D01*
X8909762Y-15061667D01*
X8919286Y-15023571D01*
X8928810Y-15004524D01*
X8938333Y-14995000D01*
X8957381Y-14985476D01*
X9109762Y-15185476D02*
X9109762Y-15052143D01*
X9109762Y-15071190D02*
X9119286Y-15061667D01*
X9138333Y-15052143D01*
X9166905Y-15052143D01*
X9185952Y-15061667D01*
X9195476Y-15080714D01*
X9195476Y-15185476D01*
X9195476Y-15080714D02*
X9205000Y-15061667D01*
X9224048Y-15052143D01*
X9252619Y-15052143D01*
X9271667Y-15061667D01*
X9281190Y-15080714D01*
X9281190Y-15185476D01*
X9376429Y-15185476D02*
X9376429Y-15052143D01*
X9376429Y-15071190D02*
X9385952Y-15061667D01*
X9405000Y-15052143D01*
X9433571Y-15052143D01*
X9452619Y-15061667D01*
X9462143Y-15080714D01*
X9462143Y-15185476D01*
X9462143Y-15080714D02*
X9471667Y-15061667D01*
X9490714Y-15052143D01*
X9519286Y-15052143D01*
X9538333Y-15061667D01*
X9547857Y-15080714D01*
X9547857Y-15185476D01*
X9938333Y-14975952D02*
X9766905Y-15233095D01*
X10195476Y-14985476D02*
X10214524Y-14985476D01*
X10233571Y-14995000D01*
X10243095Y-15004524D01*
X10252619Y-15023571D01*
X10262143Y-15061667D01*
X10262143Y-15109286D01*
X10252619Y-15147381D01*
X10243095Y-15166428D01*
X10233571Y-15175952D01*
X10214524Y-15185476D01*
X10195476Y-15185476D01*
X10176429Y-15175952D01*
X10166905Y-15166428D01*
X10157381Y-15147381D01*
X10147857Y-15109286D01*
X10147857Y-15061667D01*
X10157381Y-15023571D01*
X10166905Y-15004524D01*
X10176429Y-14995000D01*
X10195476Y-14985476D01*
X10347857Y-15166428D02*
X10357381Y-15175952D01*
X10347857Y-15185476D01*
X10338333Y-15175952D01*
X10347857Y-15166428D01*
X10347857Y-15185476D01*
X10481190Y-14985476D02*
X10500238Y-14985476D01*
X10519286Y-14995000D01*
X10528810Y-15004524D01*
X10538333Y-15023571D01*
X10547857Y-15061667D01*
X10547857Y-15109286D01*
X10538333Y-15147381D01*
X10528810Y-15166428D01*
X10519286Y-15175952D01*
X10500238Y-15185476D01*
X10481190Y-15185476D01*
X10462143Y-15175952D01*
X10452619Y-15166428D01*
X10443095Y-15147381D01*
X10433571Y-15109286D01*
X10433571Y-15061667D01*
X10443095Y-15023571D01*
X10452619Y-15004524D01*
X10462143Y-14995000D01*
X10481190Y-14985476D01*
X10614524Y-14985476D02*
X10738333Y-14985476D01*
X10671667Y-15061667D01*
X10700238Y-15061667D01*
X10719286Y-15071190D01*
X10728810Y-15080714D01*
X10738333Y-15099762D01*
X10738333Y-15147381D01*
X10728810Y-15166428D01*
X10719286Y-15175952D01*
X10700238Y-15185476D01*
X10643095Y-15185476D01*
X10624048Y-15175952D01*
X10614524Y-15166428D01*
X10919286Y-14985476D02*
X10824048Y-14985476D01*
X10814524Y-15080714D01*
X10824048Y-15071190D01*
X10843095Y-15061667D01*
X10890714Y-15061667D01*
X10909762Y-15071190D01*
X10919286Y-15080714D01*
X10928810Y-15099762D01*
X10928810Y-15147381D01*
X10919286Y-15166428D01*
X10909762Y-15175952D01*
X10890714Y-15185476D01*
X10843095Y-15185476D01*
X10824048Y-15175952D01*
X10814524Y-15166428D01*
X11100238Y-15052143D02*
X11100238Y-15185476D01*
X11052619Y-14975952D02*
X11005000Y-15118809D01*
X11128810Y-15118809D01*
X11195476Y-14985476D02*
X11195476Y-15023571D01*
X11271667Y-14985476D02*
X11271667Y-15023571D01*
X11566905Y-15261667D02*
X11557381Y-15252143D01*
X11538333Y-15223571D01*
X11528809Y-15204524D01*
X11519286Y-15175952D01*
X11509762Y-15128333D01*
X11509762Y-15090238D01*
X11519286Y-15042619D01*
X11528809Y-15014048D01*
X11538333Y-14995000D01*
X11557381Y-14966428D01*
X11566905Y-14956905D01*
X11633571Y-15004524D02*
X11643095Y-14995000D01*
X11662143Y-14985476D01*
X11709762Y-14985476D01*
X11728809Y-14995000D01*
X11738333Y-15004524D01*
X11747857Y-15023571D01*
X11747857Y-15042619D01*
X11738333Y-15071190D01*
X11624048Y-15185476D01*
X11747857Y-15185476D01*
X11985952Y-15185476D02*
X11985952Y-14985476D01*
X12071667Y-15185476D02*
X12071667Y-15080714D01*
X12062143Y-15061667D01*
X12043095Y-15052143D01*
X12014524Y-15052143D01*
X11995476Y-15061667D01*
X11985952Y-15071190D01*
X12195476Y-15185476D02*
X12176428Y-15175952D01*
X12166905Y-15166428D01*
X12157381Y-15147381D01*
X12157381Y-15090238D01*
X12166905Y-15071190D01*
X12176428Y-15061667D01*
X12195476Y-15052143D01*
X12224048Y-15052143D01*
X12243095Y-15061667D01*
X12252619Y-15071190D01*
X12262143Y-15090238D01*
X12262143Y-15147381D01*
X12252619Y-15166428D01*
X12243095Y-15175952D01*
X12224048Y-15185476D01*
X12195476Y-15185476D01*
X12376428Y-15185476D02*
X12357381Y-15175952D01*
X12347857Y-15156905D01*
X12347857Y-14985476D01*
X12528809Y-15175952D02*
X12509762Y-15185476D01*
X12471667Y-15185476D01*
X12452619Y-15175952D01*
X12443095Y-15156905D01*
X12443095Y-15080714D01*
X12452619Y-15061667D01*
X12471667Y-15052143D01*
X12509762Y-15052143D01*
X12528809Y-15061667D01*
X12538333Y-15080714D01*
X12538333Y-15099762D01*
X12443095Y-15118809D01*
X12614524Y-15175952D02*
X12633571Y-15185476D01*
X12671667Y-15185476D01*
X12690714Y-15175952D01*
X12700238Y-15156905D01*
X12700238Y-15147381D01*
X12690714Y-15128333D01*
X12671667Y-15118809D01*
X12643095Y-15118809D01*
X12624048Y-15109286D01*
X12614524Y-15090238D01*
X12614524Y-15080714D01*
X12624048Y-15061667D01*
X12643095Y-15052143D01*
X12671667Y-15052143D01*
X12690714Y-15061667D01*
X12766905Y-15261667D02*
X12776428Y-15252143D01*
X12795476Y-15223571D01*
X12805000Y-15204524D01*
X12814524Y-15175952D01*
X12824048Y-15128333D01*
X12824048Y-15090238D01*
X12814524Y-15042619D01*
X12805000Y-15014048D01*
X12795476Y-14995000D01*
X12776428Y-14966428D01*
X12766905Y-14956905D01*
D18*
X7903000Y-15313000D02*
X7995000Y-15405000D01*
X7995000Y-15313000D02*
X7903000Y-15405000D01*
X7949000Y-15313000D02*
X7949000Y-15405000D01*
X7903000Y-15359000D02*
X7995000Y-15359000D01*
D11*
X8290714Y-15249476D02*
X8309762Y-15249476D01*
X8328809Y-15259000D01*
X8338333Y-15268524D01*
X8347857Y-15287571D01*
X8357381Y-15325667D01*
X8357381Y-15373286D01*
X8347857Y-15411381D01*
X8338333Y-15430428D01*
X8328809Y-15439952D01*
X8309762Y-15449476D01*
X8290714Y-15449476D01*
X8271667Y-15439952D01*
X8262143Y-15430428D01*
X8252619Y-15411381D01*
X8243095Y-15373286D01*
X8243095Y-15325667D01*
X8252619Y-15287571D01*
X8262143Y-15268524D01*
X8271667Y-15259000D01*
X8290714Y-15249476D01*
X8443095Y-15430428D02*
X8452619Y-15439952D01*
X8443095Y-15449476D01*
X8433571Y-15439952D01*
X8443095Y-15430428D01*
X8443095Y-15449476D01*
X8547857Y-15449476D02*
X8585952Y-15449476D01*
X8605000Y-15439952D01*
X8614524Y-15430428D01*
X8633571Y-15401857D01*
X8643095Y-15363762D01*
X8643095Y-15287571D01*
X8633571Y-15268524D01*
X8624048Y-15259000D01*
X8605000Y-15249476D01*
X8566905Y-15249476D01*
X8547857Y-15259000D01*
X8538333Y-15268524D01*
X8528810Y-15287571D01*
X8528810Y-15335190D01*
X8538333Y-15354238D01*
X8547857Y-15363762D01*
X8566905Y-15373286D01*
X8605000Y-15373286D01*
X8624048Y-15363762D01*
X8633571Y-15354238D01*
X8643095Y-15335190D01*
X8719286Y-15268524D02*
X8728810Y-15259000D01*
X8747857Y-15249476D01*
X8795476Y-15249476D01*
X8814524Y-15259000D01*
X8824048Y-15268524D01*
X8833571Y-15287571D01*
X8833571Y-15306619D01*
X8824048Y-15335190D01*
X8709762Y-15449476D01*
X8833571Y-15449476D01*
X8957381Y-15249476D02*
X8976429Y-15249476D01*
X8995476Y-15259000D01*
X9005000Y-15268524D01*
X9014524Y-15287571D01*
X9024048Y-15325667D01*
X9024048Y-15373286D01*
X9014524Y-15411381D01*
X9005000Y-15430428D01*
X8995476Y-15439952D01*
X8976429Y-15449476D01*
X8957381Y-15449476D01*
X8938333Y-15439952D01*
X8928810Y-15430428D01*
X8919286Y-15411381D01*
X8909762Y-15373286D01*
X8909762Y-15325667D01*
X8919286Y-15287571D01*
X8928810Y-15268524D01*
X8938333Y-15259000D01*
X8957381Y-15249476D01*
X9109762Y-15449476D02*
X9109762Y-15316143D01*
X9109762Y-15335190D02*
X9119286Y-15325667D01*
X9138333Y-15316143D01*
X9166905Y-15316143D01*
X9185952Y-15325667D01*
X9195476Y-15344714D01*
X9195476Y-15449476D01*
X9195476Y-15344714D02*
X9205000Y-15325667D01*
X9224048Y-15316143D01*
X9252619Y-15316143D01*
X9271667Y-15325667D01*
X9281190Y-15344714D01*
X9281190Y-15449476D01*
X9376429Y-15449476D02*
X9376429Y-15316143D01*
X9376429Y-15335190D02*
X9385952Y-15325667D01*
X9405000Y-15316143D01*
X9433571Y-15316143D01*
X9452619Y-15325667D01*
X9462143Y-15344714D01*
X9462143Y-15449476D01*
X9462143Y-15344714D02*
X9471667Y-15325667D01*
X9490714Y-15316143D01*
X9519286Y-15316143D01*
X9538333Y-15325667D01*
X9547857Y-15344714D01*
X9547857Y-15449476D01*
X9938333Y-15239952D02*
X9766905Y-15497095D01*
X10195476Y-15249476D02*
X10214524Y-15249476D01*
X10233571Y-15259000D01*
X10243095Y-15268524D01*
X10252619Y-15287571D01*
X10262143Y-15325667D01*
X10262143Y-15373286D01*
X10252619Y-15411381D01*
X10243095Y-15430428D01*
X10233571Y-15439952D01*
X10214524Y-15449476D01*
X10195476Y-15449476D01*
X10176429Y-15439952D01*
X10166905Y-15430428D01*
X10157381Y-15411381D01*
X10147857Y-15373286D01*
X10147857Y-15325667D01*
X10157381Y-15287571D01*
X10166905Y-15268524D01*
X10176429Y-15259000D01*
X10195476Y-15249476D01*
X10347857Y-15430428D02*
X10357381Y-15439952D01*
X10347857Y-15449476D01*
X10338333Y-15439952D01*
X10347857Y-15430428D01*
X10347857Y-15449476D01*
X10481190Y-15249476D02*
X10500238Y-15249476D01*
X10519286Y-15259000D01*
X10528810Y-15268524D01*
X10538333Y-15287571D01*
X10547857Y-15325667D01*
X10547857Y-15373286D01*
X10538333Y-15411381D01*
X10528810Y-15430428D01*
X10519286Y-15439952D01*
X10500238Y-15449476D01*
X10481190Y-15449476D01*
X10462143Y-15439952D01*
X10452619Y-15430428D01*
X10443095Y-15411381D01*
X10433571Y-15373286D01*
X10433571Y-15325667D01*
X10443095Y-15287571D01*
X10452619Y-15268524D01*
X10462143Y-15259000D01*
X10481190Y-15249476D01*
X10614524Y-15249476D02*
X10738333Y-15249476D01*
X10671667Y-15325667D01*
X10700238Y-15325667D01*
X10719286Y-15335190D01*
X10728810Y-15344714D01*
X10738333Y-15363762D01*
X10738333Y-15411381D01*
X10728810Y-15430428D01*
X10719286Y-15439952D01*
X10700238Y-15449476D01*
X10643095Y-15449476D01*
X10624048Y-15439952D01*
X10614524Y-15430428D01*
X10909762Y-15249476D02*
X10871667Y-15249476D01*
X10852619Y-15259000D01*
X10843095Y-15268524D01*
X10824048Y-15297095D01*
X10814524Y-15335190D01*
X10814524Y-15411381D01*
X10824048Y-15430428D01*
X10833571Y-15439952D01*
X10852619Y-15449476D01*
X10890714Y-15449476D01*
X10909762Y-15439952D01*
X10919286Y-15430428D01*
X10928810Y-15411381D01*
X10928810Y-15363762D01*
X10919286Y-15344714D01*
X10909762Y-15335190D01*
X10890714Y-15325667D01*
X10852619Y-15325667D01*
X10833571Y-15335190D01*
X10824048Y-15344714D01*
X10814524Y-15363762D01*
X11005000Y-15268524D02*
X11014524Y-15259000D01*
X11033571Y-15249476D01*
X11081190Y-15249476D01*
X11100238Y-15259000D01*
X11109762Y-15268524D01*
X11119286Y-15287571D01*
X11119286Y-15306619D01*
X11109762Y-15335190D01*
X10995476Y-15449476D01*
X11119286Y-15449476D01*
X11195476Y-15249476D02*
X11195476Y-15287571D01*
X11271667Y-15249476D02*
X11271667Y-15287571D01*
X11566905Y-15525667D02*
X11557381Y-15516143D01*
X11538333Y-15487571D01*
X11528809Y-15468524D01*
X11519286Y-15439952D01*
X11509762Y-15392333D01*
X11509762Y-15354238D01*
X11519286Y-15306619D01*
X11528809Y-15278048D01*
X11538333Y-15259000D01*
X11557381Y-15230428D01*
X11566905Y-15220905D01*
X11728809Y-15316143D02*
X11728809Y-15449476D01*
X11681190Y-15239952D02*
X11633571Y-15382809D01*
X11757381Y-15382809D01*
X11985952Y-15449476D02*
X11985952Y-15249476D01*
X12071667Y-15449476D02*
X12071667Y-15344714D01*
X12062143Y-15325667D01*
X12043095Y-15316143D01*
X12014524Y-15316143D01*
X11995476Y-15325667D01*
X11985952Y-15335190D01*
X12195476Y-15449476D02*
X12176428Y-15439952D01*
X12166905Y-15430428D01*
X12157381Y-15411381D01*
X12157381Y-15354238D01*
X12166905Y-15335190D01*
X12176428Y-15325667D01*
X12195476Y-15316143D01*
X12224048Y-15316143D01*
X12243095Y-15325667D01*
X12252619Y-15335190D01*
X12262143Y-15354238D01*
X12262143Y-15411381D01*
X12252619Y-15430428D01*
X12243095Y-15439952D01*
X12224048Y-15449476D01*
X12195476Y-15449476D01*
X12376428Y-15449476D02*
X12357381Y-15439952D01*
X12347857Y-15420905D01*
X12347857Y-15249476D01*
X12528809Y-15439952D02*
X12509762Y-15449476D01*
X12471667Y-15449476D01*
X12452619Y-15439952D01*
X12443095Y-15420905D01*
X12443095Y-15344714D01*
X12452619Y-15325667D01*
X12471667Y-15316143D01*
X12509762Y-15316143D01*
X12528809Y-15325667D01*
X12538333Y-15344714D01*
X12538333Y-15363762D01*
X12443095Y-15382809D01*
X12614524Y-15439952D02*
X12633571Y-15449476D01*
X12671667Y-15449476D01*
X12690714Y-15439952D01*
X12700238Y-15420905D01*
X12700238Y-15411381D01*
X12690714Y-15392333D01*
X12671667Y-15382809D01*
X12643095Y-15382809D01*
X12624048Y-15373286D01*
X12614524Y-15354238D01*
X12614524Y-15344714D01*
X12624048Y-15325667D01*
X12643095Y-15316143D01*
X12671667Y-15316143D01*
X12690714Y-15325667D01*
X12766905Y-15525667D02*
X12776428Y-15516143D01*
X12795476Y-15487571D01*
X12805000Y-15468524D01*
X12814524Y-15439952D01*
X12824048Y-15392333D01*
X12824048Y-15354238D01*
X12814524Y-15306619D01*
X12805000Y-15278048D01*
X12795476Y-15259000D01*
X12776428Y-15230428D01*
X12766905Y-15220905D01*
D19*
X7895000Y-15573000D02*
X7995000Y-15673000D01*
X7995000Y-15573000D02*
X7895000Y-15673000D01*
X7980356Y-15658356D02*
X7980356Y-15587644D01*
X7909644Y-15587644D01*
X7909644Y-15658356D01*
X7980356Y-15658356D01*
D11*
X8357381Y-15713476D02*
X8243095Y-15713476D01*
X8300238Y-15713476D02*
X8300238Y-15513476D01*
X8281190Y-15542048D01*
X8262143Y-15561095D01*
X8243095Y-15570619D01*
X8443095Y-15694428D02*
X8452619Y-15703952D01*
X8443095Y-15713476D01*
X8433571Y-15703952D01*
X8443095Y-15694428D01*
X8443095Y-15713476D01*
X8576429Y-15513476D02*
X8595476Y-15513476D01*
X8614524Y-15523000D01*
X8624048Y-15532524D01*
X8633571Y-15551571D01*
X8643095Y-15589667D01*
X8643095Y-15637286D01*
X8633571Y-15675381D01*
X8624048Y-15694428D01*
X8614524Y-15703952D01*
X8595476Y-15713476D01*
X8576429Y-15713476D01*
X8557381Y-15703952D01*
X8547857Y-15694428D01*
X8538333Y-15675381D01*
X8528810Y-15637286D01*
X8528810Y-15589667D01*
X8538333Y-15551571D01*
X8547857Y-15532524D01*
X8557381Y-15523000D01*
X8576429Y-15513476D01*
X8766905Y-15513476D02*
X8785952Y-15513476D01*
X8805000Y-15523000D01*
X8814524Y-15532524D01*
X8824048Y-15551571D01*
X8833571Y-15589667D01*
X8833571Y-15637286D01*
X8824048Y-15675381D01*
X8814524Y-15694428D01*
X8805000Y-15703952D01*
X8785952Y-15713476D01*
X8766905Y-15713476D01*
X8747857Y-15703952D01*
X8738333Y-15694428D01*
X8728810Y-15675381D01*
X8719286Y-15637286D01*
X8719286Y-15589667D01*
X8728810Y-15551571D01*
X8738333Y-15532524D01*
X8747857Y-15523000D01*
X8766905Y-15513476D01*
X8957381Y-15513476D02*
X8976429Y-15513476D01*
X8995476Y-15523000D01*
X9005000Y-15532524D01*
X9014524Y-15551571D01*
X9024048Y-15589667D01*
X9024048Y-15637286D01*
X9014524Y-15675381D01*
X9005000Y-15694428D01*
X8995476Y-15703952D01*
X8976429Y-15713476D01*
X8957381Y-15713476D01*
X8938333Y-15703952D01*
X8928810Y-15694428D01*
X8919286Y-15675381D01*
X8909762Y-15637286D01*
X8909762Y-15589667D01*
X8919286Y-15551571D01*
X8928810Y-15532524D01*
X8938333Y-15523000D01*
X8957381Y-15513476D01*
X9109762Y-15713476D02*
X9109762Y-15580143D01*
X9109762Y-15599190D02*
X9119286Y-15589667D01*
X9138333Y-15580143D01*
X9166905Y-15580143D01*
X9185952Y-15589667D01*
X9195476Y-15608714D01*
X9195476Y-15713476D01*
X9195476Y-15608714D02*
X9205000Y-15589667D01*
X9224048Y-15580143D01*
X9252619Y-15580143D01*
X9271667Y-15589667D01*
X9281190Y-15608714D01*
X9281190Y-15713476D01*
X9376429Y-15713476D02*
X9376429Y-15580143D01*
X9376429Y-15599190D02*
X9385952Y-15589667D01*
X9405000Y-15580143D01*
X9433571Y-15580143D01*
X9452619Y-15589667D01*
X9462143Y-15608714D01*
X9462143Y-15713476D01*
X9462143Y-15608714D02*
X9471667Y-15589667D01*
X9490714Y-15580143D01*
X9519286Y-15580143D01*
X9538333Y-15589667D01*
X9547857Y-15608714D01*
X9547857Y-15713476D01*
X9938333Y-15503952D02*
X9766905Y-15761095D01*
X10195476Y-15513476D02*
X10214524Y-15513476D01*
X10233571Y-15523000D01*
X10243095Y-15532524D01*
X10252619Y-15551571D01*
X10262143Y-15589667D01*
X10262143Y-15637286D01*
X10252619Y-15675381D01*
X10243095Y-15694428D01*
X10233571Y-15703952D01*
X10214524Y-15713476D01*
X10195476Y-15713476D01*
X10176429Y-15703952D01*
X10166905Y-15694428D01*
X10157381Y-15675381D01*
X10147857Y-15637286D01*
X10147857Y-15589667D01*
X10157381Y-15551571D01*
X10166905Y-15532524D01*
X10176429Y-15523000D01*
X10195476Y-15513476D01*
X10347857Y-15694428D02*
X10357381Y-15703952D01*
X10347857Y-15713476D01*
X10338333Y-15703952D01*
X10347857Y-15694428D01*
X10347857Y-15713476D01*
X10481190Y-15513476D02*
X10500238Y-15513476D01*
X10519286Y-15523000D01*
X10528810Y-15532524D01*
X10538333Y-15551571D01*
X10547857Y-15589667D01*
X10547857Y-15637286D01*
X10538333Y-15675381D01*
X10528810Y-15694428D01*
X10519286Y-15703952D01*
X10500238Y-15713476D01*
X10481190Y-15713476D01*
X10462143Y-15703952D01*
X10452619Y-15694428D01*
X10443095Y-15675381D01*
X10433571Y-15637286D01*
X10433571Y-15589667D01*
X10443095Y-15551571D01*
X10452619Y-15532524D01*
X10462143Y-15523000D01*
X10481190Y-15513476D01*
X10614524Y-15513476D02*
X10738333Y-15513476D01*
X10671667Y-15589667D01*
X10700238Y-15589667D01*
X10719286Y-15599190D01*
X10728810Y-15608714D01*
X10738333Y-15627762D01*
X10738333Y-15675381D01*
X10728810Y-15694428D01*
X10719286Y-15703952D01*
X10700238Y-15713476D01*
X10643095Y-15713476D01*
X10624048Y-15703952D01*
X10614524Y-15694428D01*
X10833571Y-15713476D02*
X10871667Y-15713476D01*
X10890714Y-15703952D01*
X10900238Y-15694428D01*
X10919286Y-15665857D01*
X10928810Y-15627762D01*
X10928810Y-15551571D01*
X10919286Y-15532524D01*
X10909762Y-15523000D01*
X10890714Y-15513476D01*
X10852619Y-15513476D01*
X10833571Y-15523000D01*
X10824048Y-15532524D01*
X10814524Y-15551571D01*
X10814524Y-15599190D01*
X10824048Y-15618238D01*
X10833571Y-15627762D01*
X10852619Y-15637286D01*
X10890714Y-15637286D01*
X10909762Y-15627762D01*
X10919286Y-15618238D01*
X10928810Y-15599190D01*
X11100238Y-15580143D02*
X11100238Y-15713476D01*
X11052619Y-15503952D02*
X11005000Y-15646809D01*
X11128810Y-15646809D01*
X11195476Y-15513476D02*
X11195476Y-15551571D01*
X11271667Y-15513476D02*
X11271667Y-15551571D01*
X11566905Y-15789667D02*
X11557381Y-15780143D01*
X11538333Y-15751571D01*
X11528809Y-15732524D01*
X11519286Y-15703952D01*
X11509762Y-15656333D01*
X11509762Y-15618238D01*
X11519286Y-15570619D01*
X11528809Y-15542048D01*
X11538333Y-15523000D01*
X11557381Y-15494428D01*
X11566905Y-15484905D01*
X11652619Y-15713476D02*
X11690714Y-15713476D01*
X11709762Y-15703952D01*
X11719286Y-15694428D01*
X11738333Y-15665857D01*
X11747857Y-15627762D01*
X11747857Y-15551571D01*
X11738333Y-15532524D01*
X11728809Y-15523000D01*
X11709762Y-15513476D01*
X11671667Y-15513476D01*
X11652619Y-15523000D01*
X11643095Y-15532524D01*
X11633571Y-15551571D01*
X11633571Y-15599190D01*
X11643095Y-15618238D01*
X11652619Y-15627762D01*
X11671667Y-15637286D01*
X11709762Y-15637286D01*
X11728809Y-15627762D01*
X11738333Y-15618238D01*
X11747857Y-15599190D01*
X11985952Y-15713476D02*
X11985952Y-15513476D01*
X12071667Y-15713476D02*
X12071667Y-15608714D01*
X12062143Y-15589667D01*
X12043095Y-15580143D01*
X12014524Y-15580143D01*
X11995476Y-15589667D01*
X11985952Y-15599190D01*
X12195476Y-15713476D02*
X12176428Y-15703952D01*
X12166905Y-15694428D01*
X12157381Y-15675381D01*
X12157381Y-15618238D01*
X12166905Y-15599190D01*
X12176428Y-15589667D01*
X12195476Y-15580143D01*
X12224048Y-15580143D01*
X12243095Y-15589667D01*
X12252619Y-15599190D01*
X12262143Y-15618238D01*
X12262143Y-15675381D01*
X12252619Y-15694428D01*
X12243095Y-15703952D01*
X12224048Y-15713476D01*
X12195476Y-15713476D01*
X12376428Y-15713476D02*
X12357381Y-15703952D01*
X12347857Y-15684905D01*
X12347857Y-15513476D01*
X12528809Y-15703952D02*
X12509762Y-15713476D01*
X12471667Y-15713476D01*
X12452619Y-15703952D01*
X12443095Y-15684905D01*
X12443095Y-15608714D01*
X12452619Y-15589667D01*
X12471667Y-15580143D01*
X12509762Y-15580143D01*
X12528809Y-15589667D01*
X12538333Y-15608714D01*
X12538333Y-15627762D01*
X12443095Y-15646809D01*
X12614524Y-15703952D02*
X12633571Y-15713476D01*
X12671667Y-15713476D01*
X12690714Y-15703952D01*
X12700238Y-15684905D01*
X12700238Y-15675381D01*
X12690714Y-15656333D01*
X12671667Y-15646809D01*
X12643095Y-15646809D01*
X12624048Y-15637286D01*
X12614524Y-15618238D01*
X12614524Y-15608714D01*
X12624048Y-15589667D01*
X12643095Y-15580143D01*
X12671667Y-15580143D01*
X12690714Y-15589667D01*
X12766905Y-15789667D02*
X12776428Y-15780143D01*
X12795476Y-15751571D01*
X12805000Y-15732524D01*
X12814524Y-15703952D01*
X12824048Y-15656333D01*
X12824048Y-15618238D01*
X12814524Y-15570619D01*
X12805000Y-15542048D01*
X12795476Y-15523000D01*
X12776428Y-15494428D01*
X12766905Y-15484905D01*
D20*
X7885000Y-15832000D02*
X7995000Y-15942000D01*
X7995000Y-15832000D02*
X7885000Y-15942000D01*
X7940000Y-15942000D02*
X7995000Y-15887000D01*
X7940000Y-15832000D01*
X7885000Y-15887000D01*
X7940000Y-15942000D01*
D11*
X8357381Y-15977476D02*
X8243095Y-15977476D01*
X8300238Y-15977476D02*
X8300238Y-15777476D01*
X8281190Y-15806048D01*
X8262143Y-15825095D01*
X8243095Y-15834619D01*
X8443095Y-15958428D02*
X8452619Y-15967952D01*
X8443095Y-15977476D01*
X8433571Y-15967952D01*
X8443095Y-15958428D01*
X8443095Y-15977476D01*
X8643095Y-15977476D02*
X8528810Y-15977476D01*
X8585952Y-15977476D02*
X8585952Y-15777476D01*
X8566905Y-15806048D01*
X8547857Y-15825095D01*
X8528810Y-15834619D01*
X8766905Y-15777476D02*
X8785952Y-15777476D01*
X8805000Y-15787000D01*
X8814524Y-15796524D01*
X8824048Y-15815571D01*
X8833571Y-15853667D01*
X8833571Y-15901286D01*
X8824048Y-15939381D01*
X8814524Y-15958428D01*
X8805000Y-15967952D01*
X8785952Y-15977476D01*
X8766905Y-15977476D01*
X8747857Y-15967952D01*
X8738333Y-15958428D01*
X8728810Y-15939381D01*
X8719286Y-15901286D01*
X8719286Y-15853667D01*
X8728810Y-15815571D01*
X8738333Y-15796524D01*
X8747857Y-15787000D01*
X8766905Y-15777476D01*
X8957381Y-15777476D02*
X8976429Y-15777476D01*
X8995476Y-15787000D01*
X9005000Y-15796524D01*
X9014524Y-15815571D01*
X9024048Y-15853667D01*
X9024048Y-15901286D01*
X9014524Y-15939381D01*
X9005000Y-15958428D01*
X8995476Y-15967952D01*
X8976429Y-15977476D01*
X8957381Y-15977476D01*
X8938333Y-15967952D01*
X8928810Y-15958428D01*
X8919286Y-15939381D01*
X8909762Y-15901286D01*
X8909762Y-15853667D01*
X8919286Y-15815571D01*
X8928810Y-15796524D01*
X8938333Y-15787000D01*
X8957381Y-15777476D01*
X9109762Y-15977476D02*
X9109762Y-15844143D01*
X9109762Y-15863190D02*
X9119286Y-15853667D01*
X9138333Y-15844143D01*
X9166905Y-15844143D01*
X9185952Y-15853667D01*
X9195476Y-15872714D01*
X9195476Y-15977476D01*
X9195476Y-15872714D02*
X9205000Y-15853667D01*
X9224048Y-15844143D01*
X9252619Y-15844143D01*
X9271667Y-15853667D01*
X9281190Y-15872714D01*
X9281190Y-15977476D01*
X9376429Y-15977476D02*
X9376429Y-15844143D01*
X9376429Y-15863190D02*
X9385952Y-15853667D01*
X9405000Y-15844143D01*
X9433571Y-15844143D01*
X9452619Y-15853667D01*
X9462143Y-15872714D01*
X9462143Y-15977476D01*
X9462143Y-15872714D02*
X9471667Y-15853667D01*
X9490714Y-15844143D01*
X9519286Y-15844143D01*
X9538333Y-15853667D01*
X9547857Y-15872714D01*
X9547857Y-15977476D01*
X9938333Y-15767952D02*
X9766905Y-16025095D01*
X10195476Y-15777476D02*
X10214524Y-15777476D01*
X10233571Y-15787000D01*
X10243095Y-15796524D01*
X10252619Y-15815571D01*
X10262143Y-15853667D01*
X10262143Y-15901286D01*
X10252619Y-15939381D01*
X10243095Y-15958428D01*
X10233571Y-15967952D01*
X10214524Y-15977476D01*
X10195476Y-15977476D01*
X10176429Y-15967952D01*
X10166905Y-15958428D01*
X10157381Y-15939381D01*
X10147857Y-15901286D01*
X10147857Y-15853667D01*
X10157381Y-15815571D01*
X10166905Y-15796524D01*
X10176429Y-15787000D01*
X10195476Y-15777476D01*
X10347857Y-15958428D02*
X10357381Y-15967952D01*
X10347857Y-15977476D01*
X10338333Y-15967952D01*
X10347857Y-15958428D01*
X10347857Y-15977476D01*
X10481190Y-15777476D02*
X10500238Y-15777476D01*
X10519286Y-15787000D01*
X10528810Y-15796524D01*
X10538333Y-15815571D01*
X10547857Y-15853667D01*
X10547857Y-15901286D01*
X10538333Y-15939381D01*
X10528810Y-15958428D01*
X10519286Y-15967952D01*
X10500238Y-15977476D01*
X10481190Y-15977476D01*
X10462143Y-15967952D01*
X10452619Y-15958428D01*
X10443095Y-15939381D01*
X10433571Y-15901286D01*
X10433571Y-15853667D01*
X10443095Y-15815571D01*
X10452619Y-15796524D01*
X10462143Y-15787000D01*
X10481190Y-15777476D01*
X10719286Y-15844143D02*
X10719286Y-15977476D01*
X10671667Y-15767952D02*
X10624048Y-15910809D01*
X10747857Y-15910809D01*
X10805000Y-15777476D02*
X10928810Y-15777476D01*
X10862143Y-15853667D01*
X10890714Y-15853667D01*
X10909762Y-15863190D01*
X10919286Y-15872714D01*
X10928810Y-15891762D01*
X10928810Y-15939381D01*
X10919286Y-15958428D01*
X10909762Y-15967952D01*
X10890714Y-15977476D01*
X10833571Y-15977476D01*
X10814524Y-15967952D01*
X10805000Y-15958428D01*
X10995476Y-15777476D02*
X11119286Y-15777476D01*
X11052619Y-15853667D01*
X11081190Y-15853667D01*
X11100238Y-15863190D01*
X11109762Y-15872714D01*
X11119286Y-15891762D01*
X11119286Y-15939381D01*
X11109762Y-15958428D01*
X11100238Y-15967952D01*
X11081190Y-15977476D01*
X11024048Y-15977476D01*
X11005000Y-15967952D01*
X10995476Y-15958428D01*
X11195476Y-15777476D02*
X11195476Y-15815571D01*
X11271667Y-15777476D02*
X11271667Y-15815571D01*
X11566905Y-16053667D02*
X11557381Y-16044143D01*
X11538333Y-16015571D01*
X11528809Y-15996524D01*
X11519286Y-15967952D01*
X11509762Y-15920333D01*
X11509762Y-15882238D01*
X11519286Y-15834619D01*
X11528809Y-15806048D01*
X11538333Y-15787000D01*
X11557381Y-15758428D01*
X11566905Y-15748905D01*
X11747857Y-15977476D02*
X11633571Y-15977476D01*
X11690714Y-15977476D02*
X11690714Y-15777476D01*
X11671667Y-15806048D01*
X11652619Y-15825095D01*
X11633571Y-15834619D01*
X11814524Y-15777476D02*
X11938333Y-15777476D01*
X11871667Y-15853667D01*
X11900238Y-15853667D01*
X11919286Y-15863190D01*
X11928809Y-15872714D01*
X11938333Y-15891762D01*
X11938333Y-15939381D01*
X11928809Y-15958428D01*
X11919286Y-15967952D01*
X11900238Y-15977476D01*
X11843095Y-15977476D01*
X11824048Y-15967952D01*
X11814524Y-15958428D01*
X12176428Y-15977476D02*
X12176428Y-15777476D01*
X12262143Y-15977476D02*
X12262143Y-15872714D01*
X12252619Y-15853667D01*
X12233571Y-15844143D01*
X12205000Y-15844143D01*
X12185952Y-15853667D01*
X12176428Y-15863190D01*
X12385952Y-15977476D02*
X12366905Y-15967952D01*
X12357381Y-15958428D01*
X12347857Y-15939381D01*
X12347857Y-15882238D01*
X12357381Y-15863190D01*
X12366905Y-15853667D01*
X12385952Y-15844143D01*
X12414524Y-15844143D01*
X12433571Y-15853667D01*
X12443095Y-15863190D01*
X12452619Y-15882238D01*
X12452619Y-15939381D01*
X12443095Y-15958428D01*
X12433571Y-15967952D01*
X12414524Y-15977476D01*
X12385952Y-15977476D01*
X12566905Y-15977476D02*
X12547857Y-15967952D01*
X12538333Y-15948905D01*
X12538333Y-15777476D01*
X12719286Y-15967952D02*
X12700238Y-15977476D01*
X12662143Y-15977476D01*
X12643095Y-15967952D01*
X12633571Y-15948905D01*
X12633571Y-15872714D01*
X12643095Y-15853667D01*
X12662143Y-15844143D01*
X12700238Y-15844143D01*
X12719286Y-15853667D01*
X12728809Y-15872714D01*
X12728809Y-15891762D01*
X12633571Y-15910809D01*
X12805000Y-15967952D02*
X12824048Y-15977476D01*
X12862143Y-15977476D01*
X12881190Y-15967952D01*
X12890714Y-15948905D01*
X12890714Y-15939381D01*
X12881190Y-15920333D01*
X12862143Y-15910809D01*
X12833571Y-15910809D01*
X12814524Y-15901286D01*
X12805000Y-15882238D01*
X12805000Y-15872714D01*
X12814524Y-15853667D01*
X12833571Y-15844143D01*
X12862143Y-15844143D01*
X12881190Y-15853667D01*
X12957381Y-16053667D02*
X12966905Y-16044143D01*
X12985952Y-16015571D01*
X12995476Y-15996524D01*
X13005000Y-15967952D01*
X13014524Y-15920333D01*
X13014524Y-15882238D01*
X13005000Y-15834619D01*
X12995476Y-15806048D01*
X12985952Y-15787000D01*
X12966905Y-15758428D01*
X12957381Y-15748905D01*
D21*
X7935000Y-16091000D02*
X7935000Y-16211000D01*
X7875000Y-16151000D02*
X7995000Y-16151000D01*
X7995000Y-16151000D02*
G75*
G03*
X7995000Y-16151000I-60000J0D01*
G01*
D11*
X8357381Y-16241476D02*
X8243095Y-16241476D01*
X8300238Y-16241476D02*
X8300238Y-16041476D01*
X8281190Y-16070048D01*
X8262143Y-16089095D01*
X8243095Y-16098619D01*
X8443095Y-16222428D02*
X8452619Y-16231952D01*
X8443095Y-16241476D01*
X8433571Y-16231952D01*
X8443095Y-16222428D01*
X8443095Y-16241476D01*
X8528810Y-16060524D02*
X8538333Y-16051000D01*
X8557381Y-16041476D01*
X8605000Y-16041476D01*
X8624048Y-16051000D01*
X8633571Y-16060524D01*
X8643095Y-16079571D01*
X8643095Y-16098619D01*
X8633571Y-16127190D01*
X8519286Y-16241476D01*
X8643095Y-16241476D01*
X8766905Y-16041476D02*
X8785952Y-16041476D01*
X8805000Y-16051000D01*
X8814524Y-16060524D01*
X8824048Y-16079571D01*
X8833571Y-16117667D01*
X8833571Y-16165286D01*
X8824048Y-16203381D01*
X8814524Y-16222428D01*
X8805000Y-16231952D01*
X8785952Y-16241476D01*
X8766905Y-16241476D01*
X8747857Y-16231952D01*
X8738333Y-16222428D01*
X8728810Y-16203381D01*
X8719286Y-16165286D01*
X8719286Y-16117667D01*
X8728810Y-16079571D01*
X8738333Y-16060524D01*
X8747857Y-16051000D01*
X8766905Y-16041476D01*
X8957381Y-16041476D02*
X8976429Y-16041476D01*
X8995476Y-16051000D01*
X9005000Y-16060524D01*
X9014524Y-16079571D01*
X9024048Y-16117667D01*
X9024048Y-16165286D01*
X9014524Y-16203381D01*
X9005000Y-16222428D01*
X8995476Y-16231952D01*
X8976429Y-16241476D01*
X8957381Y-16241476D01*
X8938333Y-16231952D01*
X8928810Y-16222428D01*
X8919286Y-16203381D01*
X8909762Y-16165286D01*
X8909762Y-16117667D01*
X8919286Y-16079571D01*
X8928810Y-16060524D01*
X8938333Y-16051000D01*
X8957381Y-16041476D01*
X9109762Y-16241476D02*
X9109762Y-16108143D01*
X9109762Y-16127190D02*
X9119286Y-16117667D01*
X9138333Y-16108143D01*
X9166905Y-16108143D01*
X9185952Y-16117667D01*
X9195476Y-16136714D01*
X9195476Y-16241476D01*
X9195476Y-16136714D02*
X9205000Y-16117667D01*
X9224048Y-16108143D01*
X9252619Y-16108143D01*
X9271667Y-16117667D01*
X9281190Y-16136714D01*
X9281190Y-16241476D01*
X9376429Y-16241476D02*
X9376429Y-16108143D01*
X9376429Y-16127190D02*
X9385952Y-16117667D01*
X9405000Y-16108143D01*
X9433571Y-16108143D01*
X9452619Y-16117667D01*
X9462143Y-16136714D01*
X9462143Y-16241476D01*
X9462143Y-16136714D02*
X9471667Y-16117667D01*
X9490714Y-16108143D01*
X9519286Y-16108143D01*
X9538333Y-16117667D01*
X9547857Y-16136714D01*
X9547857Y-16241476D01*
X9938333Y-16031952D02*
X9766905Y-16289095D01*
X10195476Y-16041476D02*
X10214524Y-16041476D01*
X10233571Y-16051000D01*
X10243095Y-16060524D01*
X10252619Y-16079571D01*
X10262143Y-16117667D01*
X10262143Y-16165286D01*
X10252619Y-16203381D01*
X10243095Y-16222428D01*
X10233571Y-16231952D01*
X10214524Y-16241476D01*
X10195476Y-16241476D01*
X10176429Y-16231952D01*
X10166905Y-16222428D01*
X10157381Y-16203381D01*
X10147857Y-16165286D01*
X10147857Y-16117667D01*
X10157381Y-16079571D01*
X10166905Y-16060524D01*
X10176429Y-16051000D01*
X10195476Y-16041476D01*
X10347857Y-16222428D02*
X10357381Y-16231952D01*
X10347857Y-16241476D01*
X10338333Y-16231952D01*
X10347857Y-16222428D01*
X10347857Y-16241476D01*
X10481190Y-16041476D02*
X10500238Y-16041476D01*
X10519286Y-16051000D01*
X10528810Y-16060524D01*
X10538333Y-16079571D01*
X10547857Y-16117667D01*
X10547857Y-16165286D01*
X10538333Y-16203381D01*
X10528810Y-16222428D01*
X10519286Y-16231952D01*
X10500238Y-16241476D01*
X10481190Y-16241476D01*
X10462143Y-16231952D01*
X10452619Y-16222428D01*
X10443095Y-16203381D01*
X10433571Y-16165286D01*
X10433571Y-16117667D01*
X10443095Y-16079571D01*
X10452619Y-16060524D01*
X10462143Y-16051000D01*
X10481190Y-16041476D01*
X10719286Y-16108143D02*
X10719286Y-16241476D01*
X10671667Y-16031952D02*
X10624048Y-16174809D01*
X10747857Y-16174809D01*
X10805000Y-16041476D02*
X10938333Y-16041476D01*
X10852619Y-16241476D01*
X11005000Y-16060524D02*
X11014524Y-16051000D01*
X11033571Y-16041476D01*
X11081190Y-16041476D01*
X11100238Y-16051000D01*
X11109762Y-16060524D01*
X11119286Y-16079571D01*
X11119286Y-16098619D01*
X11109762Y-16127190D01*
X10995476Y-16241476D01*
X11119286Y-16241476D01*
X11195476Y-16041476D02*
X11195476Y-16079571D01*
X11271667Y-16041476D02*
X11271667Y-16079571D01*
X11566905Y-16317667D02*
X11557381Y-16308143D01*
X11538333Y-16279571D01*
X11528809Y-16260524D01*
X11519286Y-16231952D01*
X11509762Y-16184333D01*
X11509762Y-16146238D01*
X11519286Y-16098619D01*
X11528809Y-16070048D01*
X11538333Y-16051000D01*
X11557381Y-16022428D01*
X11566905Y-16012905D01*
X11747857Y-16241476D02*
X11633571Y-16241476D01*
X11690714Y-16241476D02*
X11690714Y-16041476D01*
X11671667Y-16070048D01*
X11652619Y-16089095D01*
X11633571Y-16098619D01*
X11871667Y-16041476D02*
X11890714Y-16041476D01*
X11909762Y-16051000D01*
X11919286Y-16060524D01*
X11928809Y-16079571D01*
X11938333Y-16117667D01*
X11938333Y-16165286D01*
X11928809Y-16203381D01*
X11919286Y-16222428D01*
X11909762Y-16231952D01*
X11890714Y-16241476D01*
X11871667Y-16241476D01*
X11852619Y-16231952D01*
X11843095Y-16222428D01*
X11833571Y-16203381D01*
X11824048Y-16165286D01*
X11824048Y-16117667D01*
X11833571Y-16079571D01*
X11843095Y-16060524D01*
X11852619Y-16051000D01*
X11871667Y-16041476D01*
X12176428Y-16241476D02*
X12176428Y-16041476D01*
X12262143Y-16241476D02*
X12262143Y-16136714D01*
X12252619Y-16117667D01*
X12233571Y-16108143D01*
X12205000Y-16108143D01*
X12185952Y-16117667D01*
X12176428Y-16127190D01*
X12385952Y-16241476D02*
X12366905Y-16231952D01*
X12357381Y-16222428D01*
X12347857Y-16203381D01*
X12347857Y-16146238D01*
X12357381Y-16127190D01*
X12366905Y-16117667D01*
X12385952Y-16108143D01*
X12414524Y-16108143D01*
X12433571Y-16117667D01*
X12443095Y-16127190D01*
X12452619Y-16146238D01*
X12452619Y-16203381D01*
X12443095Y-16222428D01*
X12433571Y-16231952D01*
X12414524Y-16241476D01*
X12385952Y-16241476D01*
X12566905Y-16241476D02*
X12547857Y-16231952D01*
X12538333Y-16212905D01*
X12538333Y-16041476D01*
X12719286Y-16231952D02*
X12700238Y-16241476D01*
X12662143Y-16241476D01*
X12643095Y-16231952D01*
X12633571Y-16212905D01*
X12633571Y-16136714D01*
X12643095Y-16117667D01*
X12662143Y-16108143D01*
X12700238Y-16108143D01*
X12719286Y-16117667D01*
X12728809Y-16136714D01*
X12728809Y-16155762D01*
X12633571Y-16174809D01*
X12805000Y-16231952D02*
X12824048Y-16241476D01*
X12862143Y-16241476D01*
X12881190Y-16231952D01*
X12890714Y-16212905D01*
X12890714Y-16203381D01*
X12881190Y-16184333D01*
X12862143Y-16174809D01*
X12833571Y-16174809D01*
X12814524Y-16165286D01*
X12805000Y-16146238D01*
X12805000Y-16136714D01*
X12814524Y-16117667D01*
X12833571Y-16108143D01*
X12862143Y-16108143D01*
X12881190Y-16117667D01*
X12957381Y-16317667D02*
X12966905Y-16308143D01*
X12985952Y-16279571D01*
X12995476Y-16260524D01*
X13005000Y-16231952D01*
X13014524Y-16184333D01*
X13014524Y-16146238D01*
X13005000Y-16098619D01*
X12995476Y-16070048D01*
X12985952Y-16051000D01*
X12966905Y-16022428D01*
X12957381Y-16012905D01*
X7965711Y-16485711D02*
X7965711Y-16344289D01*
X7824289Y-16344289D01*
X7824289Y-16485711D01*
X7965711Y-16485711D01*
X7995000Y-16415000D02*
G75*
G03*
X7995000Y-16415000I-100000J0D01*
G01*
X8243095Y-16324524D02*
X8252619Y-16315000D01*
X8271667Y-16305476D01*
X8319286Y-16305476D01*
X8338333Y-16315000D01*
X8347857Y-16324524D01*
X8357381Y-16343571D01*
X8357381Y-16362619D01*
X8347857Y-16391190D01*
X8233571Y-16505476D01*
X8357381Y-16505476D01*
X8443095Y-16486428D02*
X8452619Y-16495952D01*
X8443095Y-16505476D01*
X8433571Y-16495952D01*
X8443095Y-16486428D01*
X8443095Y-16505476D01*
X8576429Y-16305476D02*
X8595476Y-16305476D01*
X8614524Y-16315000D01*
X8624048Y-16324524D01*
X8633571Y-16343571D01*
X8643095Y-16381667D01*
X8643095Y-16429286D01*
X8633571Y-16467381D01*
X8624048Y-16486428D01*
X8614524Y-16495952D01*
X8595476Y-16505476D01*
X8576429Y-16505476D01*
X8557381Y-16495952D01*
X8547857Y-16486428D01*
X8538333Y-16467381D01*
X8528810Y-16429286D01*
X8528810Y-16381667D01*
X8538333Y-16343571D01*
X8547857Y-16324524D01*
X8557381Y-16315000D01*
X8576429Y-16305476D01*
X8766905Y-16305476D02*
X8785952Y-16305476D01*
X8805000Y-16315000D01*
X8814524Y-16324524D01*
X8824048Y-16343571D01*
X8833571Y-16381667D01*
X8833571Y-16429286D01*
X8824048Y-16467381D01*
X8814524Y-16486428D01*
X8805000Y-16495952D01*
X8785952Y-16505476D01*
X8766905Y-16505476D01*
X8747857Y-16495952D01*
X8738333Y-16486428D01*
X8728810Y-16467381D01*
X8719286Y-16429286D01*
X8719286Y-16381667D01*
X8728810Y-16343571D01*
X8738333Y-16324524D01*
X8747857Y-16315000D01*
X8766905Y-16305476D01*
X8957381Y-16305476D02*
X8976429Y-16305476D01*
X8995476Y-16315000D01*
X9005000Y-16324524D01*
X9014524Y-16343571D01*
X9024048Y-16381667D01*
X9024048Y-16429286D01*
X9014524Y-16467381D01*
X9005000Y-16486428D01*
X8995476Y-16495952D01*
X8976429Y-16505476D01*
X8957381Y-16505476D01*
X8938333Y-16495952D01*
X8928810Y-16486428D01*
X8919286Y-16467381D01*
X8909762Y-16429286D01*
X8909762Y-16381667D01*
X8919286Y-16343571D01*
X8928810Y-16324524D01*
X8938333Y-16315000D01*
X8957381Y-16305476D01*
X9109762Y-16505476D02*
X9109762Y-16372143D01*
X9109762Y-16391190D02*
X9119286Y-16381667D01*
X9138333Y-16372143D01*
X9166905Y-16372143D01*
X9185952Y-16381667D01*
X9195476Y-16400714D01*
X9195476Y-16505476D01*
X9195476Y-16400714D02*
X9205000Y-16381667D01*
X9224048Y-16372143D01*
X9252619Y-16372143D01*
X9271667Y-16381667D01*
X9281190Y-16400714D01*
X9281190Y-16505476D01*
X9376429Y-16505476D02*
X9376429Y-16372143D01*
X9376429Y-16391190D02*
X9385952Y-16381667D01*
X9405000Y-16372143D01*
X9433571Y-16372143D01*
X9452619Y-16381667D01*
X9462143Y-16400714D01*
X9462143Y-16505476D01*
X9462143Y-16400714D02*
X9471667Y-16381667D01*
X9490714Y-16372143D01*
X9519286Y-16372143D01*
X9538333Y-16381667D01*
X9547857Y-16400714D01*
X9547857Y-16505476D01*
X9938333Y-16295952D02*
X9766905Y-16553095D01*
X10195476Y-16305476D02*
X10214524Y-16305476D01*
X10233571Y-16315000D01*
X10243095Y-16324524D01*
X10252619Y-16343571D01*
X10262143Y-16381667D01*
X10262143Y-16429286D01*
X10252619Y-16467381D01*
X10243095Y-16486428D01*
X10233571Y-16495952D01*
X10214524Y-16505476D01*
X10195476Y-16505476D01*
X10176429Y-16495952D01*
X10166905Y-16486428D01*
X10157381Y-16467381D01*
X10147857Y-16429286D01*
X10147857Y-16381667D01*
X10157381Y-16343571D01*
X10166905Y-16324524D01*
X10176429Y-16315000D01*
X10195476Y-16305476D01*
X10347857Y-16486428D02*
X10357381Y-16495952D01*
X10347857Y-16505476D01*
X10338333Y-16495952D01*
X10347857Y-16486428D01*
X10347857Y-16505476D01*
X10481190Y-16305476D02*
X10500238Y-16305476D01*
X10519286Y-16315000D01*
X10528810Y-16324524D01*
X10538333Y-16343571D01*
X10547857Y-16381667D01*
X10547857Y-16429286D01*
X10538333Y-16467381D01*
X10528810Y-16486428D01*
X10519286Y-16495952D01*
X10500238Y-16505476D01*
X10481190Y-16505476D01*
X10462143Y-16495952D01*
X10452619Y-16486428D01*
X10443095Y-16467381D01*
X10433571Y-16429286D01*
X10433571Y-16381667D01*
X10443095Y-16343571D01*
X10452619Y-16324524D01*
X10462143Y-16315000D01*
X10481190Y-16305476D01*
X10614524Y-16305476D02*
X10747857Y-16305476D01*
X10662143Y-16505476D01*
X10852619Y-16391190D02*
X10833571Y-16381667D01*
X10824048Y-16372143D01*
X10814524Y-16353095D01*
X10814524Y-16343571D01*
X10824048Y-16324524D01*
X10833571Y-16315000D01*
X10852619Y-16305476D01*
X10890714Y-16305476D01*
X10909762Y-16315000D01*
X10919286Y-16324524D01*
X10928810Y-16343571D01*
X10928810Y-16353095D01*
X10919286Y-16372143D01*
X10909762Y-16381667D01*
X10890714Y-16391190D01*
X10852619Y-16391190D01*
X10833571Y-16400714D01*
X10824048Y-16410238D01*
X10814524Y-16429286D01*
X10814524Y-16467381D01*
X10824048Y-16486428D01*
X10833571Y-16495952D01*
X10852619Y-16505476D01*
X10890714Y-16505476D01*
X10909762Y-16495952D01*
X10919286Y-16486428D01*
X10928810Y-16467381D01*
X10928810Y-16429286D01*
X10919286Y-16410238D01*
X10909762Y-16400714D01*
X10890714Y-16391190D01*
X10995476Y-16305476D02*
X11128810Y-16305476D01*
X11043095Y-16505476D01*
X11195476Y-16305476D02*
X11195476Y-16343571D01*
X11271667Y-16305476D02*
X11271667Y-16343571D01*
X11566905Y-16581667D02*
X11557381Y-16572143D01*
X11538333Y-16543571D01*
X11528809Y-16524524D01*
X11519286Y-16495952D01*
X11509762Y-16448333D01*
X11509762Y-16410238D01*
X11519286Y-16362619D01*
X11528809Y-16334048D01*
X11538333Y-16315000D01*
X11557381Y-16286428D01*
X11566905Y-16276905D01*
X11633571Y-16324524D02*
X11643095Y-16315000D01*
X11662143Y-16305476D01*
X11709762Y-16305476D01*
X11728809Y-16315000D01*
X11738333Y-16324524D01*
X11747857Y-16343571D01*
X11747857Y-16362619D01*
X11738333Y-16391190D01*
X11624048Y-16505476D01*
X11747857Y-16505476D01*
X11985952Y-16505476D02*
X11985952Y-16305476D01*
X12071667Y-16505476D02*
X12071667Y-16400714D01*
X12062143Y-16381667D01*
X12043095Y-16372143D01*
X12014524Y-16372143D01*
X11995476Y-16381667D01*
X11985952Y-16391190D01*
X12195476Y-16505476D02*
X12176428Y-16495952D01*
X12166905Y-16486428D01*
X12157381Y-16467381D01*
X12157381Y-16410238D01*
X12166905Y-16391190D01*
X12176428Y-16381667D01*
X12195476Y-16372143D01*
X12224048Y-16372143D01*
X12243095Y-16381667D01*
X12252619Y-16391190D01*
X12262143Y-16410238D01*
X12262143Y-16467381D01*
X12252619Y-16486428D01*
X12243095Y-16495952D01*
X12224048Y-16505476D01*
X12195476Y-16505476D01*
X12376428Y-16505476D02*
X12357381Y-16495952D01*
X12347857Y-16476905D01*
X12347857Y-16305476D01*
X12528809Y-16495952D02*
X12509762Y-16505476D01*
X12471667Y-16505476D01*
X12452619Y-16495952D01*
X12443095Y-16476905D01*
X12443095Y-16400714D01*
X12452619Y-16381667D01*
X12471667Y-16372143D01*
X12509762Y-16372143D01*
X12528809Y-16381667D01*
X12538333Y-16400714D01*
X12538333Y-16419762D01*
X12443095Y-16438809D01*
X12614524Y-16495952D02*
X12633571Y-16505476D01*
X12671667Y-16505476D01*
X12690714Y-16495952D01*
X12700238Y-16476905D01*
X12700238Y-16467381D01*
X12690714Y-16448333D01*
X12671667Y-16438809D01*
X12643095Y-16438809D01*
X12624048Y-16429286D01*
X12614524Y-16410238D01*
X12614524Y-16400714D01*
X12624048Y-16381667D01*
X12643095Y-16372143D01*
X12671667Y-16372143D01*
X12690714Y-16381667D01*
X12766905Y-16581667D02*
X12776428Y-16572143D01*
X12795476Y-16543571D01*
X12805000Y-16524524D01*
X12814524Y-16495952D01*
X12824048Y-16448333D01*
X12824048Y-16410238D01*
X12814524Y-16362619D01*
X12805000Y-16334048D01*
X12795476Y-16315000D01*
X12776428Y-16286428D01*
X12766905Y-16276905D01*
M02*
