M48
; DRILL file {KiCad 9.0.5} date 2025-10-20T17:56:03+0200
; FORMAT={-:-/ absolute / metric / decimal}
; #@! TF.CreationDate,2025-10-20T17:56:03+02:00
; #@! TF.GenerationSoftware,Kicad,Pcbnew,9.0.5
; #@! TF.FileFunction,Plated,1,2,PTH
FMAT,2
METRIC
; #@! TA.AperFunction,Plated,PTH,ViaDrill
T1C0.600
; #@! TA.AperFunction,Plated,PTH,ComponentDrill
T2C0.750
; #@! TA.AperFunction,Plated,PTH,ComponentDrill
T3C0.762
; #@! TA.AperFunction,Plated,PTH,ViaDrill
T4C0.800
; #@! TA.AperFunction,Plated,PTH,ComponentDrill
T5C0.800
; #@! TA.AperFunction,Plated,PTH,ComponentDrill
T6C1.000
; #@! TA.AperFunction,Plated,PTH,ComponentDrill
T7C1.190
; #@! TA.AperFunction,Plated,PTH,ComponentDrill
T8C1.500
%
G90
G05
T1
X92.2Y-67.6
X95.6Y-67.6
X97.0Y-69.5
X106.375Y-93.425
X106.38Y-99.67
X116.83Y-84.76
X116.83Y-96.59
X120.6Y-94.0
X120.6Y-107.05
X129.7Y-82.2
X129.7Y-97.4
X132.8Y-82.2
X132.8Y-97.4
X152.3Y-78.2
X155.2Y-115.2
X158.3Y-115.2
X161.8Y-121.9
X167.5Y-87.9
X171.2Y-84.8
X171.6Y-119.2
T2
X164.3Y-103.4
X166.3Y-103.4
X168.3Y-103.4
X170.3Y-103.4
T3
X93.9Y-88.1
X93.9Y-90.6
X93.9Y-93.15
X93.9Y-95.7
X93.9Y-98.25
X93.95Y-70.2
X93.95Y-72.75
X93.95Y-75.3
X93.95Y-77.85
X93.95Y-80.4
X93.95Y-82.95
X93.95Y-85.5
X94.0Y-65.1
X94.0Y-67.65
X197.85Y-77.75
X197.85Y-80.45
X197.85Y-83.05
X197.85Y-85.55
T4
X111.47Y-106.42
X111.48Y-75.37
T5
X102.23Y-65.35
X102.23Y-70.35
X131.25Y-82.16
X131.25Y-84.7
X131.25Y-87.24
X131.25Y-89.76
X131.25Y-92.36
X131.25Y-94.86
X131.25Y-97.4
X131.25Y-99.94
X131.25Y-102.48
X131.25Y-105.02
X131.25Y-107.56
X131.25Y-110.1
X131.25Y-112.64
X131.25Y-115.18
X131.25Y-117.72
X131.25Y-120.26
X131.25Y-122.8
X131.25Y-125.337
X131.25Y-127.877
X151.76Y-73.03
X156.75Y-82.16
X156.75Y-84.7
X156.75Y-87.24
X156.75Y-89.78
X156.75Y-92.32
X156.75Y-94.86
X156.75Y-97.4
X156.75Y-99.94
X156.75Y-102.48
X156.75Y-105.02
X156.75Y-107.56
X156.75Y-110.1
X156.75Y-112.64
X156.75Y-115.18
X156.75Y-117.72
X156.75Y-120.26
X156.75Y-122.8
X156.75Y-125.34
X156.75Y-127.88
X156.76Y-73.03
X168.2Y-121.7
X168.2Y-126.7
X176.15Y-85.22
X176.15Y-90.22
T6
X206.65Y-79.25
X206.65Y-81.75
X206.65Y-84.25
X221.15Y-79.25
X221.15Y-84.25
T7
X173.74Y-124.28
X176.28Y-124.28
X178.82Y-124.28
X181.36Y-124.28
T8
X213.5Y-76.15G85X214.8Y-76.15
G05
X213.5Y-87.35G85X214.8Y-87.35
G05
M30
