%TF.GenerationSoftware,KiCad,Pcbnew,9.0.5*%
%TF.CreationDate,2025-10-20T17:55:57+02:00*%
%TF.ProjectId,yoradio-3,796f7261-6469-46f2-9d33-2e6b69636164,rev?*%
%TF.SameCoordinates,Original*%
%TF.FileFunction,Copper,L1,Top*%
%TF.FilePolarity,Positive*%
%FSLAX46Y46*%
G04 Gerber Fmt 4.6, Leading zero omitted, Abs format (unit mm)*
G04 Created by KiCad (PCBNEW 9.0.5) date 2025-10-20 17:55:57*
%MOMM*%
%LPD*%
G01*
G04 APERTURE LIST*
G04 Aperture macros list*
%AMRoundRect*
0 Rectangle with rounded corners*
0 $1 Rounding radius*
0 $2 $3 $4 $5 $6 $7 $8 $9 X,Y pos of 4 corners*
0 Add a 4 corners polygon primitive as box body*
4,1,4,$2,$3,$4,$5,$6,$7,$8,$9,$2,$3,0*
0 Add four circle primitives for the rounded corners*
1,1,$1+$1,$2,$3*
1,1,$1+$1,$4,$5*
1,1,$1+$1,$6,$7*
1,1,$1+$1,$8,$9*
0 Add four rect primitives between the rounded corners*
20,1,$1+$1,$2,$3,$4,$5,0*
20,1,$1+$1,$4,$5,$6,$7,0*
20,1,$1+$1,$6,$7,$8,$9,0*
20,1,$1+$1,$8,$9,$2,$3,0*%
G04 Aperture macros list end*
%TA.AperFunction,ComponentPad*%
%ADD10RoundRect,0.170455X1.129545X-0.579545X1.129545X0.579545X-1.129545X0.579545X-1.129545X-0.579545X0*%
%TD*%
%TA.AperFunction,ComponentPad*%
%ADD11R,2.500000X1.500000*%
%TD*%
%TA.AperFunction,ComponentPad*%
%ADD12RoundRect,0.217391X1.032609X-0.782609X1.032609X0.782609X-1.032609X0.782609X-1.032609X-0.782609X0*%
%TD*%
%TA.AperFunction,ComponentPad*%
%ADD13R,2.500000X2.000000*%
%TD*%
%TA.AperFunction,ComponentPad*%
%ADD14R,2.000000X2.000000*%
%TD*%
%TA.AperFunction,ComponentPad*%
%ADD15C,2.000000*%
%TD*%
%TA.AperFunction,ComponentPad*%
%ADD16R,3.200000X2.000000*%
%TD*%
%TA.AperFunction,ComponentPad*%
%ADD17R,2.000000X1.200000*%
%TD*%
%TA.AperFunction,ComponentPad*%
%ADD18O,2.000000X1.200000*%
%TD*%
%TA.AperFunction,ComponentPad*%
%ADD19R,1.600000X1.600000*%
%TD*%
%TA.AperFunction,ComponentPad*%
%ADD20C,1.600000*%
%TD*%
%TA.AperFunction,ComponentPad*%
%ADD21RoundRect,0.250000X0.350000X0.625000X-0.350000X0.625000X-0.350000X-0.625000X0.350000X-0.625000X0*%
%TD*%
%TA.AperFunction,ComponentPad*%
%ADD22O,1.200000X1.750000*%
%TD*%
%TA.AperFunction,ComponentPad*%
%ADD23RoundRect,0.250000X-0.620000X-0.845000X0.620000X-0.845000X0.620000X0.845000X-0.620000X0.845000X0*%
%TD*%
%TA.AperFunction,ComponentPad*%
%ADD24O,1.740000X2.190000*%
%TD*%
%TA.AperFunction,ViaPad*%
%ADD25C,1.200000*%
%TD*%
%TA.AperFunction,ViaPad*%
%ADD26C,1.500000*%
%TD*%
%TA.AperFunction,Conductor*%
%ADD27C,1.000000*%
%TD*%
%TA.AperFunction,Conductor*%
%ADD28C,0.500000*%
%TD*%
G04 APERTURE END LIST*
D10*
%TO.P,M1,1,Vcc*%
%TO.N,+5VA*%
X94000000Y-65100000D03*
D11*
%TO.P,M1,2,GND*%
%TO.N,GND*%
X94000000Y-67650000D03*
%TO.P,M1,3,CS*%
%TO.N,cs*%
X93950000Y-70200000D03*
%TO.P,M1,4,RESET*%
%TO.N,reset*%
X93950000Y-72750000D03*
%TO.P,M1,5,DC/RS*%
%TO.N,dc{slash}rs*%
X93950000Y-75300000D03*
%TO.P,M1,6,SDI(MOSI)*%
%TO.N,sdi(mosi)*%
X93950000Y-77850000D03*
%TO.P,M1,7,SCK*%
%TO.N,sck*%
X93950000Y-80400000D03*
%TO.P,M1,8,LED*%
%TO.N,led backlight*%
X93950000Y-82950000D03*
%TO.P,M1,9,SDO(MISO)*%
%TO.N,sdo(miso)*%
X93950000Y-85500000D03*
%TO.P,M1,10,T_CLK*%
%TO.N,unconnected-(M1-T_CLK-Pad10)*%
X93900000Y-88100000D03*
%TO.P,M1,11,T_CS*%
%TO.N,unconnected-(M1-T_CS-Pad11)*%
X93900000Y-90600000D03*
%TO.P,M1,12,T_DIN*%
%TO.N,unconnected-(M1-T_DIN-Pad12)*%
X93900000Y-93150000D03*
%TO.P,M1,13,T_DO*%
%TO.N,unconnected-(M1-T_DO-Pad13)*%
X93900000Y-95700000D03*
%TO.P,M1,14,T_IRQ*%
%TO.N,unconnected-(M1-T_IRQ-Pad14)*%
X93900000Y-98250000D03*
D12*
%TO.P,M1,A,SD_CS*%
%TO.N,sd(cs)*%
X197850000Y-77750000D03*
D13*
%TO.P,M1,B,SD_MOSI*%
%TO.N,sd(mosi)*%
X197850000Y-80450000D03*
%TO.P,M1,C,SD_MISO*%
%TO.N,sd(miso)*%
X197850000Y-83050000D03*
%TO.P,M1,D,SD_SCK*%
%TO.N,sd(sck)*%
X197850000Y-85550000D03*
%TD*%
D14*
%TO.P,SW1,A,A*%
%TO.N,Net-(U1-VDET_1{slash}GPIO34{slash}ADC1_CH6)*%
X206650000Y-79250000D03*
D15*
%TO.P,SW1,B,B*%
%TO.N,Net-(U1-SENSOR_VP{slash}GPIO36{slash}ADC1_CH0)*%
X206650000Y-84250000D03*
%TO.P,SW1,C,C*%
%TO.N,GND*%
X206650000Y-81750000D03*
D16*
%TO.P,SW1,MP,MP*%
X214150000Y-76150000D03*
X214150000Y-87350000D03*
D15*
%TO.P,SW1,S1,S1*%
%TO.N,Net-(U1-SENSOR_VN{slash}GPIO39{slash}ADC1_CH3)*%
X221150000Y-84250000D03*
%TO.P,SW1,S2,S2*%
%TO.N,GND*%
X221150000Y-79250000D03*
%TD*%
D17*
%TO.P,U1,1,3V3*%
%TO.N,+3.3V*%
X156750000Y-82160000D03*
D18*
%TO.P,U1,2,CHIP_PU*%
%TO.N,reset*%
X156750000Y-84700000D03*
%TO.P,U1,3,SENSOR_VP/GPIO36/ADC1_CH0*%
%TO.N,Net-(U1-SENSOR_VP{slash}GPIO36{slash}ADC1_CH0)*%
X156750000Y-87240000D03*
%TO.P,U1,4,SENSOR_VN/GPIO39/ADC1_CH3*%
%TO.N,Net-(U1-SENSOR_VN{slash}GPIO39{slash}ADC1_CH3)*%
X156750000Y-89780000D03*
%TO.P,U1,5,VDET_1/GPIO34/ADC1_CH6*%
%TO.N,Net-(U1-VDET_1{slash}GPIO34{slash}ADC1_CH6)*%
X156750000Y-92320000D03*
%TO.P,U1,6,VDET_2/GPIO35/ADC1_CH7*%
%TO.N,unconnected-(U1-VDET_2{slash}GPIO35{slash}ADC1_CH7-Pad6)*%
X156750000Y-94860000D03*
%TO.P,U1,7,32K_XP/GPIO32/ADC1_CH4*%
%TO.N,sd(cs)*%
X156750000Y-97400000D03*
%TO.P,U1,8,32K_XN/GPIO33/ADC1_CH5*%
%TO.N,unconnected-(U1-32K_XN{slash}GPIO33{slash}ADC1_CH5-Pad8)*%
X156750000Y-99940000D03*
%TO.P,U1,9,DAC_1/ADC2_CH8/GPIO25*%
%TO.N,Net-(J2-Pin_2)*%
X156750000Y-102480000D03*
%TO.P,U1,10,DAC_2/ADC2_CH9/GPIO26*%
%TO.N,Net-(J2-Pin_4)*%
X156750000Y-105020000D03*
%TO.P,U1,11,ADC2_CH7/GPIO27*%
%TO.N,Net-(J2-Pin_3)*%
X156750000Y-107560000D03*
%TO.P,U1,12,MTMS/GPIO14/ADC2_CH6*%
%TO.N,sd(sck)*%
X156750000Y-110100000D03*
%TO.P,U1,13,MTDI/GPIO12/ADC2_CH5*%
%TO.N,sd(miso)*%
X156750000Y-112640000D03*
%TO.P,U1,14,GND*%
%TO.N,GND*%
X156750000Y-115180000D03*
%TO.P,U1,15,MTCK/GPIO13/ADC2_CH4*%
%TO.N,sd(mosi)*%
X156750000Y-117720000D03*
%TO.P,U1,16,SD_DATA2/GPIO9*%
%TO.N,unconnected-(U1-SD_DATA2{slash}GPIO9-Pad16)*%
X156750000Y-120260000D03*
%TO.P,U1,17,SD_DATA3/GPIO10*%
%TO.N,unconnected-(U1-SD_DATA3{slash}GPIO10-Pad17)*%
X156750000Y-122800000D03*
%TO.P,U1,18,CMD*%
%TO.N,unconnected-(U1-CMD-Pad18)*%
X156750000Y-125340000D03*
%TO.P,U1,19,5V*%
%TO.N,+5VA*%
X156750000Y-127880000D03*
%TO.P,U1,20,SD_CLK/GPIO6*%
%TO.N,unconnected-(U1-SD_CLK{slash}GPIO6-Pad20)*%
X131250000Y-127877280D03*
%TO.P,U1,21,SD_DATA0/GPIO7*%
%TO.N,unconnected-(U1-SD_DATA0{slash}GPIO7-Pad21)*%
X131250000Y-125337280D03*
%TO.P,U1,22,SD_DATA1/GPIO8*%
%TO.N,unconnected-(U1-SD_DATA1{slash}GPIO8-Pad22)*%
X131250000Y-122800000D03*
%TO.P,U1,23,MTDO/GPIO15/ADC2_CH3*%
%TO.N,unconnected-(U1-MTDO{slash}GPIO15{slash}ADC2_CH3-Pad23)*%
X131250000Y-120260000D03*
%TO.P,U1,24,ADC2_CH2/GPIO2*%
%TO.N,unconnected-(U1-ADC2_CH2{slash}GPIO2-Pad24)*%
X131250000Y-117720000D03*
%TO.P,U1,25,GPIO0/BOOT/ADC2_CH1*%
%TO.N,unconnected-(U1-GPIO0{slash}BOOT{slash}ADC2_CH1-Pad25)*%
X131250000Y-115180000D03*
%TO.P,U1,26,ADC2_CH0/GPIO4*%
%TO.N,dc{slash}rs*%
X131250000Y-112640000D03*
%TO.P,U1,27,GPIO16*%
%TO.N,unconnected-(U1-GPIO16-Pad27)*%
X131250000Y-110100000D03*
%TO.P,U1,28,GPIO17*%
%TO.N,unconnected-(U1-GPIO17-Pad28)*%
X131250000Y-107560000D03*
%TO.P,U1,29,GPIO5*%
%TO.N,cs*%
X131250000Y-105020000D03*
%TO.P,U1,30,GPIO18*%
%TO.N,sck*%
X131250000Y-102480000D03*
%TO.P,U1,31,GPIO19*%
%TO.N,sdo(miso)*%
X131250000Y-99940000D03*
%TO.P,U1,32,GND*%
%TO.N,GND*%
X131250000Y-97400000D03*
%TO.P,U1,33,GPIO21*%
%TO.N,unconnected-(U1-GPIO21-Pad33)*%
X131250000Y-94860000D03*
%TO.P,U1,34,U0RXD/GPIO3*%
%TO.N,unconnected-(U1-U0RXD{slash}GPIO3-Pad34)*%
X131250000Y-92360000D03*
%TO.P,U1,35,U0TXD/GPIO1*%
%TO.N,unconnected-(U1-U0TXD{slash}GPIO1-Pad35)*%
X131250000Y-89760000D03*
%TO.P,U1,36,GPIO22*%
%TO.N,led backlight*%
X131250000Y-87240000D03*
%TO.P,U1,37,GPIO23*%
%TO.N,sdi(mosi)*%
X131250000Y-84700000D03*
%TO.P,U1,38,GND*%
%TO.N,GND*%
X131250000Y-82160000D03*
%TD*%
D19*
%TO.P,C6,1*%
%TO.N,+5VA*%
X168200000Y-126700000D03*
D20*
%TO.P,C6,2*%
%TO.N,GND*%
X168200000Y-121700000D03*
%TD*%
D19*
%TO.P,C2,1*%
%TO.N,+3.3V*%
X156760139Y-73030000D03*
D20*
%TO.P,C2,2*%
%TO.N,GND*%
X151760139Y-73030000D03*
%TD*%
D21*
%TO.P,J2,1,Pin_1*%
%TO.N,GND*%
X170300000Y-103400000D03*
D22*
%TO.P,J2,2,Pin_2*%
%TO.N,Net-(J2-Pin_2)*%
X168300000Y-103400000D03*
%TO.P,J2,3,Pin_3*%
%TO.N,Net-(J2-Pin_3)*%
X166300000Y-103400000D03*
%TO.P,J2,4,Pin_4*%
%TO.N,Net-(J2-Pin_4)*%
X164300000Y-103400000D03*
%TD*%
D19*
%TO.P,C11,1*%
%TO.N,+5VA*%
X102230000Y-65349862D03*
D20*
%TO.P,C11,2*%
%TO.N,GND*%
X102230000Y-70349862D03*
%TD*%
D19*
%TO.P,C9,1*%
%TO.N,+3.3V*%
X176150000Y-90220139D03*
D20*
%TO.P,C9,2*%
%TO.N,GND*%
X176150000Y-85220139D03*
%TD*%
D23*
%TO.P,J1,1,Pin_1*%
%TO.N,+5VA*%
X173740000Y-124280000D03*
D24*
%TO.P,J1,2,Pin_2*%
X176280000Y-124280000D03*
%TO.P,J1,3,Pin_3*%
%TO.N,GND*%
X178820000Y-124280000D03*
%TO.P,J1,4,Pin_4*%
X181360000Y-124280000D03*
%TD*%
D25*
%TO.N,GND*%
X167500000Y-87900000D03*
X158300000Y-115200000D03*
X171200000Y-84800000D03*
X95600000Y-67600000D03*
X129700000Y-97400000D03*
X152300000Y-78200000D03*
X171600000Y-119200000D03*
X132800000Y-82200000D03*
X97000000Y-69500000D03*
X155200000Y-115200000D03*
X129700000Y-82200000D03*
X132800000Y-97400000D03*
X92200000Y-67600000D03*
X161800000Y-121900000D03*
%TO.N,sck*%
X106375000Y-93425000D03*
X106380000Y-99670000D03*
%TO.N,sdi(mosi)*%
X116830000Y-96590000D03*
X116830000Y-84760000D03*
%TO.N,dc{slash}rs*%
X120600000Y-107050000D03*
X120600000Y-94000000D03*
D26*
%TO.N,+5VA*%
X111470000Y-106420000D03*
X111480000Y-75370000D03*
%TD*%
D27*
%TO.N,+3.3V*%
X159360000Y-82160000D02*
X156750000Y-82160000D01*
X167420139Y-90220139D02*
X159360000Y-82160000D01*
X156950139Y-73030000D02*
X157020139Y-73100000D01*
X156750000Y-73040139D02*
X156760139Y-73030000D01*
X156750000Y-82160000D02*
X156750000Y-73040139D01*
X156760139Y-73030000D02*
X156950139Y-73030000D01*
X175700000Y-90220139D02*
X167420139Y-90220139D01*
D28*
%TO.N,Net-(J2-Pin_2)*%
X168300000Y-102070000D02*
X167180000Y-100950000D01*
X162370000Y-102480000D02*
X156750000Y-102480000D01*
X167180000Y-100950000D02*
X163900000Y-100950000D01*
X168300000Y-103400000D02*
X168300000Y-102070000D01*
X163900000Y-100950000D02*
X162370000Y-102480000D01*
%TO.N,Net-(J2-Pin_3)*%
X166300000Y-105680000D02*
X164420000Y-107560000D01*
X164420000Y-107560000D02*
X156750000Y-107560000D01*
X166300000Y-103400000D02*
X166300000Y-103700000D01*
X166300000Y-103400000D02*
X166300000Y-105680000D01*
%TO.N,sck*%
X106380000Y-93430000D02*
X106375000Y-93425000D01*
X106380000Y-99670000D02*
X106380000Y-93430000D01*
%TO.N,sdi(mosi)*%
X116830000Y-84760000D02*
X116830000Y-96590000D01*
%TO.N,dc{slash}rs*%
X120600000Y-107050000D02*
X120600000Y-94000000D01*
D27*
%TO.N,+5VA*%
X176400000Y-124200000D02*
X176300000Y-124300000D01*
X111480000Y-75370000D02*
X111450000Y-75400000D01*
X111450000Y-106400000D02*
X111470000Y-106420000D01*
X156750000Y-127880000D02*
X156770000Y-127900000D01*
X170580069Y-124280000D02*
X176280000Y-124280000D01*
X156770000Y-127900000D02*
X166960069Y-127900000D01*
X166960069Y-127900000D02*
X170580069Y-124280000D01*
X111450000Y-75400000D02*
X111450000Y-106400000D01*
D28*
%TO.N,Net-(J2-Pin_4)*%
X162680000Y-105020000D02*
X156750000Y-105020000D01*
X164300000Y-103400000D02*
X162680000Y-105020000D01*
%TD*%
%TA.AperFunction,Conductor*%
%TO.N,GND*%
G36*
X230442539Y-49520185D02*
G01*
X230488294Y-49572989D01*
X230499500Y-49624500D01*
X230499500Y-128375500D01*
X230479815Y-128442539D01*
X230427011Y-128488294D01*
X230375500Y-128499500D01*
X168074851Y-128499500D01*
X168007812Y-128479815D01*
X167962057Y-128427011D01*
X167952113Y-128357853D01*
X167981138Y-128294297D01*
X167987170Y-128287819D01*
X168238170Y-128036818D01*
X168299493Y-128003333D01*
X168325851Y-128000499D01*
X169047871Y-128000499D01*
X169047872Y-128000499D01*
X169107483Y-127994091D01*
X169242331Y-127943796D01*
X169357546Y-127857546D01*
X169443796Y-127742331D01*
X169494091Y-127607483D01*
X169500500Y-127547873D01*
X169500499Y-126825849D01*
X169520183Y-126758811D01*
X169536813Y-126738174D01*
X170958170Y-125316819D01*
X171019493Y-125283334D01*
X171045851Y-125280500D01*
X172291356Y-125280500D01*
X172358395Y-125300185D01*
X172404150Y-125352989D01*
X172409060Y-125365492D01*
X172428412Y-125423890D01*
X172435185Y-125444331D01*
X172435187Y-125444336D01*
X172470069Y-125500888D01*
X172527288Y-125593656D01*
X172651344Y-125717712D01*
X172800666Y-125809814D01*
X172967203Y-125864999D01*
X173069991Y-125875500D01*
X174410008Y-125875499D01*
X174512797Y-125864999D01*
X174679334Y-125809814D01*
X174828656Y-125717712D01*
X174952712Y-125593656D01*
X175044814Y-125444334D01*
X175044817Y-125444322D01*
X175045129Y-125443657D01*
X175045469Y-125443269D01*
X175048605Y-125438187D01*
X175049473Y-125438722D01*
X175091299Y-125391216D01*
X175158491Y-125372060D01*
X175225373Y-125392272D01*
X175245195Y-125408375D01*
X175387179Y-125550359D01*
X175561701Y-125677157D01*
X175753911Y-125775092D01*
X175959074Y-125841754D01*
X176038973Y-125854408D01*
X176172134Y-125875500D01*
X176172139Y-125875500D01*
X176387866Y-125875500D01*
X176506230Y-125856752D01*
X176600926Y-125841754D01*
X176806089Y-125775092D01*
X176998299Y-125677157D01*
X177172821Y-125550359D01*
X177325359Y-125397821D01*
X177452157Y-125223299D01*
X177550092Y-125031089D01*
X177616754Y-124825926D01*
X177648883Y-124623072D01*
X177650500Y-124612866D01*
X177650500Y-123947133D01*
X177625047Y-123786433D01*
X177616754Y-123734074D01*
X177550092Y-123528911D01*
X177452157Y-123336701D01*
X177325359Y-123162179D01*
X177172821Y-123009641D01*
X176998299Y-122882843D01*
X176996452Y-122881902D01*
X185499500Y-122881902D01*
X185499500Y-123118097D01*
X185536446Y-123351368D01*
X185609433Y-123575996D01*
X185643177Y-123642221D01*
X185716657Y-123786433D01*
X185855483Y-123977510D01*
X186022490Y-124144517D01*
X186213567Y-124283343D01*
X186285760Y-124320127D01*
X186424003Y-124390566D01*
X186424005Y-124390566D01*
X186424008Y-124390568D01*
X186544412Y-124429689D01*
X186648631Y-124463553D01*
X186881903Y-124500500D01*
X186881908Y-124500500D01*
X187118097Y-124500500D01*
X187351368Y-124463553D01*
X187575992Y-124390568D01*
X187786433Y-124283343D01*
X187977510Y-124144517D01*
X188144517Y-123977510D01*
X188283343Y-123786433D01*
X188390568Y-123575992D01*
X188463553Y-123351368D01*
X188475051Y-123278772D01*
X188500500Y-123118097D01*
X188500500Y-122881902D01*
X223499500Y-122881902D01*
X223499500Y-123118097D01*
X223536446Y-123351368D01*
X223609433Y-123575996D01*
X223643177Y-123642221D01*
X223716657Y-123786433D01*
X223855483Y-123977510D01*
X224022490Y-124144517D01*
X224213567Y-124283343D01*
X224285760Y-124320127D01*
X224424003Y-124390566D01*
X224424005Y-124390566D01*
X224424008Y-124390568D01*
X224544412Y-124429689D01*
X224648631Y-124463553D01*
X224881903Y-124500500D01*
X224881908Y-124500500D01*
X225118097Y-124500500D01*
X225351368Y-124463553D01*
X225575992Y-124390568D01*
X225786433Y-124283343D01*
X225977510Y-124144517D01*
X226144517Y-123977510D01*
X226283343Y-123786433D01*
X226390568Y-123575992D01*
X226463553Y-123351368D01*
X226475051Y-123278772D01*
X226500500Y-123118097D01*
X226500500Y-122881902D01*
X226463553Y-122648631D01*
X226390566Y-122424003D01*
X226288257Y-122223212D01*
X226283343Y-122213567D01*
X226144517Y-122022490D01*
X225977510Y-121855483D01*
X225786433Y-121716657D01*
X225575996Y-121609433D01*
X225351368Y-121536446D01*
X225118097Y-121499500D01*
X225118092Y-121499500D01*
X224881908Y-121499500D01*
X224881903Y-121499500D01*
X224648631Y-121536446D01*
X224424003Y-121609433D01*
X224213566Y-121716657D01*
X224199884Y-121726598D01*
X224022490Y-121855483D01*
X224022488Y-121855485D01*
X224022487Y-121855485D01*
X223855485Y-122022487D01*
X223855485Y-122022488D01*
X223855483Y-122022490D01*
X223795862Y-122104550D01*
X223716657Y-122213566D01*
X223609433Y-122424003D01*
X223536446Y-122648631D01*
X223499500Y-122881902D01*
X188500500Y-122881902D01*
X188463553Y-122648631D01*
X188390566Y-122424003D01*
X188288257Y-122223212D01*
X188283343Y-122213567D01*
X188144517Y-122022490D01*
X187977510Y-121855483D01*
X187786433Y-121716657D01*
X187575996Y-121609433D01*
X187351368Y-121536446D01*
X187118097Y-121499500D01*
X187118092Y-121499500D01*
X186881908Y-121499500D01*
X186881903Y-121499500D01*
X186648631Y-121536446D01*
X186424003Y-121609433D01*
X186213566Y-121716657D01*
X186199884Y-121726598D01*
X186022490Y-121855483D01*
X186022488Y-121855485D01*
X186022487Y-121855485D01*
X185855485Y-122022487D01*
X185855485Y-122022488D01*
X185855483Y-122022490D01*
X185795862Y-122104550D01*
X185716657Y-122213566D01*
X185609433Y-122424003D01*
X185536446Y-122648631D01*
X185499500Y-122881902D01*
X176996452Y-122881902D01*
X176806089Y-122784908D01*
X176600926Y-122718246D01*
X176600924Y-122718245D01*
X176600922Y-122718245D01*
X176387866Y-122684500D01*
X176387861Y-122684500D01*
X176172139Y-122684500D01*
X176172134Y-122684500D01*
X175959077Y-122718245D01*
X175753908Y-122784909D01*
X175561700Y-122882843D01*
X175387180Y-123009640D01*
X175245195Y-123151625D01*
X175183872Y-123185109D01*
X175114180Y-123180125D01*
X175058247Y-123138253D01*
X175045132Y-123116348D01*
X175044815Y-123115669D01*
X175044814Y-123115668D01*
X175044814Y-123115666D01*
X174952712Y-122966344D01*
X174828656Y-122842288D01*
X174679334Y-122750186D01*
X174512797Y-122695001D01*
X174512795Y-122695000D01*
X174410010Y-122684500D01*
X173069998Y-122684500D01*
X173069981Y-122684501D01*
X172967203Y-122695000D01*
X172967200Y-122695001D01*
X172800668Y-122750185D01*
X172800663Y-122750187D01*
X172651342Y-122842289D01*
X172527289Y-122966342D01*
X172435187Y-123115663D01*
X172435186Y-123115666D01*
X172413827Y-123180125D01*
X172409062Y-123194504D01*
X172369289Y-123251949D01*
X172304773Y-123278772D01*
X172291356Y-123279500D01*
X170481524Y-123279500D01*
X170389139Y-123297876D01*
X170389124Y-123297879D01*
X170384881Y-123298724D01*
X170288233Y-123317949D01*
X170242962Y-123336701D01*
X170235703Y-123339707D01*
X170235698Y-123339709D01*
X170106161Y-123393364D01*
X170106148Y-123393371D01*
X169942288Y-123502859D01*
X169872609Y-123572538D01*
X169802930Y-123642218D01*
X169802927Y-123642221D01*
X168081966Y-125363181D01*
X168020643Y-125396666D01*
X167994285Y-125399500D01*
X167352129Y-125399500D01*
X167352123Y-125399501D01*
X167292516Y-125405908D01*
X167157671Y-125456202D01*
X167157664Y-125456206D01*
X167042455Y-125542452D01*
X167042452Y-125542455D01*
X166956206Y-125657664D01*
X166956202Y-125657671D01*
X166905908Y-125792517D01*
X166899501Y-125852116D01*
X166899500Y-125852135D01*
X166899500Y-126494286D01*
X166879815Y-126561325D01*
X166863181Y-126581967D01*
X166581968Y-126863181D01*
X166520645Y-126896666D01*
X166494287Y-126899500D01*
X157679489Y-126899500D01*
X157623195Y-126885985D01*
X157572452Y-126860130D01*
X157572446Y-126860127D01*
X157572445Y-126860127D01*
X157407701Y-126806598D01*
X157407699Y-126806597D01*
X157407698Y-126806597D01*
X157276271Y-126785781D01*
X157236611Y-126779500D01*
X156263389Y-126779500D01*
X156223728Y-126785781D01*
X156092302Y-126806597D01*
X155927552Y-126860128D01*
X155773211Y-126938768D01*
X155693256Y-126996859D01*
X155633072Y-127040586D01*
X155633070Y-127040588D01*
X155633069Y-127040588D01*
X155510588Y-127163069D01*
X155510588Y-127163070D01*
X155510586Y-127163072D01*
X155466859Y-127223256D01*
X155408768Y-127303211D01*
X155330128Y-127457552D01*
X155276597Y-127622302D01*
X155249500Y-127793389D01*
X155249500Y-127966610D01*
X155276597Y-128137697D01*
X155330127Y-128302446D01*
X155338666Y-128319203D01*
X155351563Y-128387872D01*
X155325288Y-128452613D01*
X155268182Y-128492871D01*
X155228182Y-128499500D01*
X132770433Y-128499500D01*
X132703394Y-128479815D01*
X132657639Y-128427011D01*
X132647695Y-128357853D01*
X132659947Y-128319207D01*
X132664995Y-128309297D01*
X132669873Y-128299725D01*
X132723402Y-128134981D01*
X132750500Y-127963891D01*
X132750500Y-127790669D01*
X132723402Y-127619579D01*
X132669873Y-127454835D01*
X132591232Y-127300492D01*
X132489414Y-127160352D01*
X132366928Y-127037866D01*
X132226788Y-126936048D01*
X132072445Y-126857407D01*
X131907701Y-126803878D01*
X131907699Y-126803877D01*
X131907698Y-126803877D01*
X131753784Y-126779500D01*
X131736611Y-126776780D01*
X130763389Y-126776780D01*
X130746216Y-126779500D01*
X130592302Y-126803877D01*
X130427552Y-126857408D01*
X130273211Y-126936048D01*
X130193256Y-126994139D01*
X130133072Y-127037866D01*
X130133070Y-127037868D01*
X130133069Y-127037868D01*
X130010588Y-127160349D01*
X130010588Y-127160350D01*
X130010586Y-127160352D01*
X130008610Y-127163072D01*
X129908768Y-127300491D01*
X129830128Y-127454832D01*
X129776597Y-127619582D01*
X129749500Y-127790669D01*
X129749500Y-127963890D01*
X129761050Y-128036818D01*
X129776598Y-128134981D01*
X129828363Y-128294297D01*
X129830128Y-128299728D01*
X129840053Y-128319207D01*
X129852948Y-128387876D01*
X129826671Y-128452616D01*
X129769564Y-128492872D01*
X129729567Y-128499500D01*
X81624500Y-128499500D01*
X81557461Y-128479815D01*
X81511706Y-128427011D01*
X81500500Y-128375500D01*
X81500500Y-125250669D01*
X129749500Y-125250669D01*
X129749500Y-125423890D01*
X129769530Y-125550359D01*
X129776598Y-125594981D01*
X129830127Y-125759725D01*
X129908768Y-125914068D01*
X130010586Y-126054208D01*
X130133072Y-126176694D01*
X130273212Y-126278512D01*
X130427555Y-126357153D01*
X130592299Y-126410682D01*
X130763389Y-126437780D01*
X130763390Y-126437780D01*
X131736610Y-126437780D01*
X131736611Y-126437780D01*
X131907701Y-126410682D01*
X132072445Y-126357153D01*
X132226788Y-126278512D01*
X132366928Y-126176694D01*
X132489414Y-126054208D01*
X132591232Y-125914068D01*
X132669873Y-125759725D01*
X132723402Y-125594981D01*
X132750500Y-125423891D01*
X132750500Y-125253389D01*
X155249500Y-125253389D01*
X155249500Y-125426611D01*
X155251418Y-125438722D01*
X155276166Y-125594977D01*
X155276598Y-125597701D01*
X155329243Y-125759725D01*
X155330128Y-125762447D01*
X155370537Y-125841754D01*
X155408768Y-125916788D01*
X155510586Y-126056928D01*
X155633072Y-126179414D01*
X155773212Y-126281232D01*
X155927555Y-126359873D01*
X156092299Y-126413402D01*
X156263389Y-126440500D01*
X156263390Y-126440500D01*
X157236610Y-126440500D01*
X157236611Y-126440500D01*
X157407701Y-126413402D01*
X157572445Y-126359873D01*
X157726788Y-126281232D01*
X157866928Y-126179414D01*
X157989414Y-126056928D01*
X158091232Y-125916788D01*
X158169873Y-125762445D01*
X158223402Y-125597701D01*
X158250500Y-125426611D01*
X158250500Y-125253389D01*
X158223402Y-125082299D01*
X158169873Y-124917555D01*
X158091232Y-124763212D01*
X157989414Y-124623072D01*
X157866928Y-124500586D01*
X157726788Y-124398768D01*
X157572445Y-124320127D01*
X157407701Y-124266598D01*
X157407699Y-124266597D01*
X157407698Y-124266597D01*
X157276271Y-124245781D01*
X157236611Y-124239500D01*
X156263389Y-124239500D01*
X156223728Y-124245781D01*
X156092302Y-124266597D01*
X155927552Y-124320128D01*
X155773211Y-124398768D01*
X155693256Y-124456859D01*
X155633072Y-124500586D01*
X155633070Y-124500588D01*
X155633069Y-124500588D01*
X155510588Y-124623069D01*
X155510588Y-124623070D01*
X155510586Y-124623072D01*
X155466859Y-124683256D01*
X155408768Y-124763211D01*
X155330128Y-124917552D01*
X155276597Y-125082302D01*
X155254266Y-125223299D01*
X155249500Y-125253389D01*
X132750500Y-125253389D01*
X132750500Y-125250669D01*
X132723402Y-125079579D01*
X132669873Y-124914835D01*
X132591232Y-124760492D01*
X132489414Y-124620352D01*
X132366928Y-124497866D01*
X132226788Y-124396048D01*
X132072445Y-124317407D01*
X131907701Y-124263878D01*
X131907699Y-124263877D01*
X131907698Y-124263877D01*
X131753784Y-124239500D01*
X131736611Y-124236780D01*
X130763389Y-124236780D01*
X130746216Y-124239500D01*
X130592302Y-124263877D01*
X130427552Y-124317408D01*
X130273211Y-124396048D01*
X130193256Y-124454139D01*
X130133072Y-124497866D01*
X130133070Y-124497868D01*
X130133069Y-124497868D01*
X130010588Y-124620349D01*
X130010588Y-124620350D01*
X130010586Y-124620352D01*
X130008610Y-124623072D01*
X129908768Y-124760491D01*
X129830128Y-124914832D01*
X129776597Y-125079582D01*
X129749500Y-125250669D01*
X81500500Y-125250669D01*
X81500500Y-122881902D01*
X85499500Y-122881902D01*
X85499500Y-123118097D01*
X85536446Y-123351368D01*
X85609433Y-123575996D01*
X85643177Y-123642221D01*
X85716657Y-123786433D01*
X85855483Y-123977510D01*
X86022490Y-124144517D01*
X86213567Y-124283343D01*
X86285760Y-124320127D01*
X86424003Y-124390566D01*
X86424005Y-124390566D01*
X86424008Y-124390568D01*
X86544412Y-124429689D01*
X86648631Y-124463553D01*
X86881903Y-124500500D01*
X86881908Y-124500500D01*
X87118097Y-124500500D01*
X87351368Y-124463553D01*
X87575992Y-124390568D01*
X87786433Y-124283343D01*
X87977510Y-124144517D01*
X88144517Y-123977510D01*
X88283343Y-123786433D01*
X88390568Y-123575992D01*
X88463553Y-123351368D01*
X88475051Y-123278772D01*
X88500500Y-123118097D01*
X88500500Y-122881902D01*
X88476110Y-122727915D01*
X88476110Y-122727914D01*
X88473809Y-122713389D01*
X129749500Y-122713389D01*
X129749500Y-122886611D01*
X129776598Y-123057701D01*
X129830127Y-123222445D01*
X129908768Y-123376788D01*
X130010586Y-123516928D01*
X130133072Y-123639414D01*
X130273212Y-123741232D01*
X130427555Y-123819873D01*
X130592299Y-123873402D01*
X130763389Y-123900500D01*
X130763390Y-123900500D01*
X131736610Y-123900500D01*
X131736611Y-123900500D01*
X131907701Y-123873402D01*
X132072445Y-123819873D01*
X132226788Y-123741232D01*
X132366928Y-123639414D01*
X132489414Y-123516928D01*
X132591232Y-123376788D01*
X132669873Y-123222445D01*
X132723402Y-123057701D01*
X132750500Y-122886611D01*
X132750500Y-122713389D01*
X155249500Y-122713389D01*
X155249500Y-122886611D01*
X155276598Y-123057701D01*
X155330127Y-123222445D01*
X155408768Y-123376788D01*
X155510586Y-123516928D01*
X155633072Y-123639414D01*
X155773212Y-123741232D01*
X155927555Y-123819873D01*
X156092299Y-123873402D01*
X156263389Y-123900500D01*
X156263390Y-123900500D01*
X157236610Y-123900500D01*
X157236611Y-123900500D01*
X157407701Y-123873402D01*
X157572445Y-123819873D01*
X157726788Y-123741232D01*
X157866928Y-123639414D01*
X157989414Y-123516928D01*
X158091232Y-123376788D01*
X158169873Y-123222445D01*
X158223402Y-123057701D01*
X158250500Y-122886611D01*
X158250500Y-122713389D01*
X158223402Y-122542299D01*
X158169873Y-122377555D01*
X158091232Y-122223212D01*
X157989414Y-122083072D01*
X157866928Y-121960586D01*
X157726788Y-121858768D01*
X157572445Y-121780127D01*
X157407701Y-121726598D01*
X157407699Y-121726597D01*
X157407698Y-121726597D01*
X157276271Y-121705781D01*
X157236611Y-121699500D01*
X156263389Y-121699500D01*
X156223728Y-121705781D01*
X156092302Y-121726597D01*
X155927552Y-121780128D01*
X155773211Y-121858768D01*
X155693256Y-121916859D01*
X155633072Y-121960586D01*
X155633070Y-121960588D01*
X155633069Y-121960588D01*
X155510588Y-122083069D01*
X155510588Y-122083070D01*
X155510586Y-122083072D01*
X155466859Y-122143256D01*
X155408768Y-122223211D01*
X155330128Y-122377552D01*
X155276597Y-122542302D01*
X155252412Y-122695001D01*
X155249500Y-122713389D01*
X132750500Y-122713389D01*
X132723402Y-122542299D01*
X132669873Y-122377555D01*
X132591232Y-122223212D01*
X132489414Y-122083072D01*
X132366928Y-121960586D01*
X132226788Y-121858768D01*
X132072445Y-121780127D01*
X131907701Y-121726598D01*
X131907699Y-121726597D01*
X131907698Y-121726597D01*
X131776271Y-121705781D01*
X131736611Y-121699500D01*
X130763389Y-121699500D01*
X130723728Y-121705781D01*
X130592302Y-121726597D01*
X130427552Y-121780128D01*
X130273211Y-121858768D01*
X130193256Y-121916859D01*
X130133072Y-121960586D01*
X130133070Y-121960588D01*
X130133069Y-121960588D01*
X130010588Y-122083069D01*
X130010588Y-122083070D01*
X130010586Y-122083072D01*
X129966859Y-122143256D01*
X129908768Y-122223211D01*
X129830128Y-122377552D01*
X129776597Y-122542302D01*
X129752412Y-122695001D01*
X129749500Y-122713389D01*
X88473809Y-122713389D01*
X88463553Y-122648632D01*
X88463553Y-122648631D01*
X88390566Y-122424003D01*
X88288257Y-122223212D01*
X88283343Y-122213567D01*
X88144517Y-122022490D01*
X87977510Y-121855483D01*
X87786433Y-121716657D01*
X87575996Y-121609433D01*
X87351368Y-121536446D01*
X87118097Y-121499500D01*
X87118092Y-121499500D01*
X86881908Y-121499500D01*
X86881903Y-121499500D01*
X86648631Y-121536446D01*
X86424003Y-121609433D01*
X86213566Y-121716657D01*
X86199884Y-121726598D01*
X86022490Y-121855483D01*
X86022488Y-121855485D01*
X86022487Y-121855485D01*
X85855485Y-122022487D01*
X85855485Y-122022488D01*
X85855483Y-122022490D01*
X85795862Y-122104550D01*
X85716657Y-122213566D01*
X85609433Y-122424003D01*
X85536446Y-122648631D01*
X85499500Y-122881902D01*
X81500500Y-122881902D01*
X81500500Y-120173389D01*
X129749500Y-120173389D01*
X129749500Y-120346611D01*
X129776598Y-120517701D01*
X129830127Y-120682445D01*
X129908768Y-120836788D01*
X130010586Y-120976928D01*
X130133072Y-121099414D01*
X130273212Y-121201232D01*
X130427555Y-121279873D01*
X130592299Y-121333402D01*
X130763389Y-121360500D01*
X130763390Y-121360500D01*
X131736610Y-121360500D01*
X131736611Y-121360500D01*
X131907701Y-121333402D01*
X132072445Y-121279873D01*
X132226788Y-121201232D01*
X132366928Y-121099414D01*
X132489414Y-120976928D01*
X132591232Y-120836788D01*
X132669873Y-120682445D01*
X132723402Y-120517701D01*
X132750500Y-120346611D01*
X132750500Y-120173389D01*
X155249500Y-120173389D01*
X155249500Y-120346611D01*
X155276598Y-120517701D01*
X155330127Y-120682445D01*
X155408768Y-120836788D01*
X155510586Y-120976928D01*
X155633072Y-121099414D01*
X155773212Y-121201232D01*
X155927555Y-121279873D01*
X156092299Y-121333402D01*
X156263389Y-121360500D01*
X156263390Y-121360500D01*
X157236610Y-121360500D01*
X157236611Y-121360500D01*
X157407701Y-121333402D01*
X157572445Y-121279873D01*
X157726788Y-121201232D01*
X157866928Y-121099414D01*
X157989414Y-120976928D01*
X158091232Y-120836788D01*
X158169873Y-120682445D01*
X158223402Y-120517701D01*
X158250500Y-120346611D01*
X158250500Y-120173389D01*
X158223402Y-120002299D01*
X158169873Y-119837555D01*
X158091232Y-119683212D01*
X157989414Y-119543072D01*
X157866928Y-119420586D01*
X157726788Y-119318768D01*
X157572445Y-119240127D01*
X157407701Y-119186598D01*
X157407699Y-119186597D01*
X157407698Y-119186597D01*
X157276271Y-119165781D01*
X157236611Y-119159500D01*
X156263389Y-119159500D01*
X156223728Y-119165781D01*
X156092302Y-119186597D01*
X155927552Y-119240128D01*
X155773211Y-119318768D01*
X155693256Y-119376859D01*
X155633072Y-119420586D01*
X155633070Y-119420588D01*
X155633069Y-119420588D01*
X155510588Y-119543069D01*
X155510588Y-119543070D01*
X155510586Y-119543072D01*
X155466859Y-119603256D01*
X155408768Y-119683211D01*
X155330128Y-119837552D01*
X155276597Y-120002302D01*
X155249500Y-120173389D01*
X132750500Y-120173389D01*
X132723402Y-120002299D01*
X132669873Y-119837555D01*
X132591232Y-119683212D01*
X132489414Y-119543072D01*
X132366928Y-119420586D01*
X132226788Y-119318768D01*
X132072445Y-119240127D01*
X131907701Y-119186598D01*
X131907699Y-119186597D01*
X131907698Y-119186597D01*
X131776271Y-119165781D01*
X131736611Y-119159500D01*
X130763389Y-119159500D01*
X130723728Y-119165781D01*
X130592302Y-119186597D01*
X130427552Y-119240128D01*
X130273211Y-119318768D01*
X130193256Y-119376859D01*
X130133072Y-119420586D01*
X130133070Y-119420588D01*
X130133069Y-119420588D01*
X130010588Y-119543069D01*
X130010588Y-119543070D01*
X130010586Y-119543072D01*
X129966859Y-119603256D01*
X129908768Y-119683211D01*
X129830128Y-119837552D01*
X129776597Y-120002302D01*
X129749500Y-120173389D01*
X81500500Y-120173389D01*
X81500500Y-117633389D01*
X129749500Y-117633389D01*
X129749500Y-117806611D01*
X129776598Y-117977701D01*
X129830127Y-118142445D01*
X129908768Y-118296788D01*
X130010586Y-118436928D01*
X130133072Y-118559414D01*
X130273212Y-118661232D01*
X130427555Y-118739873D01*
X130592299Y-118793402D01*
X130763389Y-118820500D01*
X130763390Y-118820500D01*
X131736610Y-118820500D01*
X131736611Y-118820500D01*
X131907701Y-118793402D01*
X132072445Y-118739873D01*
X132226788Y-118661232D01*
X132366928Y-118559414D01*
X132489414Y-118436928D01*
X132591232Y-118296788D01*
X132669873Y-118142445D01*
X132723402Y-117977701D01*
X132750500Y-117806611D01*
X132750500Y-117633389D01*
X155249500Y-117633389D01*
X155249500Y-117806611D01*
X155276598Y-117977701D01*
X155330127Y-118142445D01*
X155408768Y-118296788D01*
X155510586Y-118436928D01*
X155633072Y-118559414D01*
X155773212Y-118661232D01*
X155927555Y-118739873D01*
X156092299Y-118793402D01*
X156263389Y-118820500D01*
X156263390Y-118820500D01*
X157236610Y-118820500D01*
X157236611Y-118820500D01*
X157407701Y-118793402D01*
X157572445Y-118739873D01*
X157726788Y-118661232D01*
X157866928Y-118559414D01*
X157989414Y-118436928D01*
X158091232Y-118296788D01*
X158169873Y-118142445D01*
X158223402Y-117977701D01*
X158250500Y-117806611D01*
X158250500Y-117633389D01*
X158223402Y-117462299D01*
X158169873Y-117297555D01*
X158091232Y-117143212D01*
X157989414Y-117003072D01*
X157866928Y-116880586D01*
X157726788Y-116778768D01*
X157572445Y-116700127D01*
X157407701Y-116646598D01*
X157407699Y-116646597D01*
X157407698Y-116646597D01*
X157276271Y-116625781D01*
X157236611Y-116619500D01*
X156263389Y-116619500D01*
X156223728Y-116625781D01*
X156092302Y-116646597D01*
X155927552Y-116700128D01*
X155773211Y-116778768D01*
X155693256Y-116836859D01*
X155633072Y-116880586D01*
X155633070Y-116880588D01*
X155633069Y-116880588D01*
X155510588Y-117003069D01*
X155510588Y-117003070D01*
X155510586Y-117003072D01*
X155466859Y-117063256D01*
X155408768Y-117143211D01*
X155330128Y-117297552D01*
X155276597Y-117462302D01*
X155249500Y-117633389D01*
X132750500Y-117633389D01*
X132723402Y-117462299D01*
X132669873Y-117297555D01*
X132591232Y-117143212D01*
X132489414Y-117003072D01*
X132366928Y-116880586D01*
X132226788Y-116778768D01*
X132072445Y-116700127D01*
X131907701Y-116646598D01*
X131907699Y-116646597D01*
X131907698Y-116646597D01*
X131776271Y-116625781D01*
X131736611Y-116619500D01*
X130763389Y-116619500D01*
X130723728Y-116625781D01*
X130592302Y-116646597D01*
X130427552Y-116700128D01*
X130273211Y-116778768D01*
X130193256Y-116836859D01*
X130133072Y-116880586D01*
X130133070Y-116880588D01*
X130133069Y-116880588D01*
X130010588Y-117003069D01*
X130010588Y-117003070D01*
X130010586Y-117003072D01*
X129966859Y-117063256D01*
X129908768Y-117143211D01*
X129830128Y-117297552D01*
X129776597Y-117462302D01*
X129749500Y-117633389D01*
X81500500Y-117633389D01*
X81500500Y-115093389D01*
X129749500Y-115093389D01*
X129749500Y-115266611D01*
X129776598Y-115437701D01*
X129830127Y-115602445D01*
X129908768Y-115756788D01*
X130010586Y-115896928D01*
X130133072Y-116019414D01*
X130273212Y-116121232D01*
X130427555Y-116199873D01*
X130592299Y-116253402D01*
X130763389Y-116280500D01*
X130763390Y-116280500D01*
X131736610Y-116280500D01*
X131736611Y-116280500D01*
X131907701Y-116253402D01*
X132072445Y-116199873D01*
X132226788Y-116121232D01*
X132366928Y-116019414D01*
X132489414Y-115896928D01*
X132591232Y-115756788D01*
X132669873Y-115602445D01*
X132723402Y-115437701D01*
X132750500Y-115266611D01*
X132750500Y-115093389D01*
X132723402Y-114922299D01*
X132669873Y-114757555D01*
X132591232Y-114603212D01*
X132489414Y-114463072D01*
X132366928Y-114340586D01*
X132226788Y-114238768D01*
X132072445Y-114160127D01*
X131907701Y-114106598D01*
X131907699Y-114106597D01*
X131907698Y-114106597D01*
X131776271Y-114085781D01*
X131736611Y-114079500D01*
X130763389Y-114079500D01*
X130723728Y-114085781D01*
X130592302Y-114106597D01*
X130427552Y-114160128D01*
X130273211Y-114238768D01*
X130193256Y-114296859D01*
X130133072Y-114340586D01*
X130133070Y-114340588D01*
X130133069Y-114340588D01*
X130010588Y-114463069D01*
X130010588Y-114463070D01*
X130010586Y-114463072D01*
X129966859Y-114523256D01*
X129908768Y-114603211D01*
X129830128Y-114757552D01*
X129776597Y-114922302D01*
X129749500Y-115093389D01*
X81500500Y-115093389D01*
X81500500Y-112553389D01*
X129749500Y-112553389D01*
X129749500Y-112726611D01*
X129776598Y-112897701D01*
X129830127Y-113062445D01*
X129908768Y-113216788D01*
X130010586Y-113356928D01*
X130133072Y-113479414D01*
X130273212Y-113581232D01*
X130427555Y-113659873D01*
X130592299Y-113713402D01*
X130763389Y-113740500D01*
X130763390Y-113740500D01*
X131736610Y-113740500D01*
X131736611Y-113740500D01*
X131907701Y-113713402D01*
X132072445Y-113659873D01*
X132226788Y-113581232D01*
X132366928Y-113479414D01*
X132489414Y-113356928D01*
X132591232Y-113216788D01*
X132669873Y-113062445D01*
X132723402Y-112897701D01*
X132750500Y-112726611D01*
X132750500Y-112553389D01*
X155249500Y-112553389D01*
X155249500Y-112726611D01*
X155276598Y-112897701D01*
X155330127Y-113062445D01*
X155408768Y-113216788D01*
X155510586Y-113356928D01*
X155633072Y-113479414D01*
X155773212Y-113581232D01*
X155927555Y-113659873D01*
X156092299Y-113713402D01*
X156263389Y-113740500D01*
X156263390Y-113740500D01*
X157236610Y-113740500D01*
X157236611Y-113740500D01*
X157407701Y-113713402D01*
X157572445Y-113659873D01*
X157726788Y-113581232D01*
X157866928Y-113479414D01*
X157989414Y-113356928D01*
X158091232Y-113216788D01*
X158169873Y-113062445D01*
X158223402Y-112897701D01*
X158250500Y-112726611D01*
X158250500Y-112553389D01*
X158223402Y-112382299D01*
X158169873Y-112217555D01*
X158091232Y-112063212D01*
X157989414Y-111923072D01*
X157866928Y-111800586D01*
X157726788Y-111698768D01*
X157572445Y-111620127D01*
X157407701Y-111566598D01*
X157407699Y-111566597D01*
X157407698Y-111566597D01*
X157276271Y-111545781D01*
X157236611Y-111539500D01*
X156263389Y-111539500D01*
X156223728Y-111545781D01*
X156092302Y-111566597D01*
X155927552Y-111620128D01*
X155773211Y-111698768D01*
X155693256Y-111756859D01*
X155633072Y-111800586D01*
X155633070Y-111800588D01*
X155633069Y-111800588D01*
X155510588Y-111923069D01*
X155510588Y-111923070D01*
X155510586Y-111923072D01*
X155466859Y-111983256D01*
X155408768Y-112063211D01*
X155330128Y-112217552D01*
X155276597Y-112382302D01*
X155249500Y-112553389D01*
X132750500Y-112553389D01*
X132723402Y-112382299D01*
X132669873Y-112217555D01*
X132591232Y-112063212D01*
X132489414Y-111923072D01*
X132366928Y-111800586D01*
X132226788Y-111698768D01*
X132072445Y-111620127D01*
X131907701Y-111566598D01*
X131907699Y-111566597D01*
X131907698Y-111566597D01*
X131776271Y-111545781D01*
X131736611Y-111539500D01*
X130763389Y-111539500D01*
X130723728Y-111545781D01*
X130592302Y-111566597D01*
X130427552Y-111620128D01*
X130273211Y-111698768D01*
X130193256Y-111756859D01*
X130133072Y-111800586D01*
X130133070Y-111800588D01*
X130133069Y-111800588D01*
X130010588Y-111923069D01*
X130010588Y-111923070D01*
X130010586Y-111923072D01*
X129966859Y-111983256D01*
X129908768Y-112063211D01*
X129830128Y-112217552D01*
X129776597Y-112382302D01*
X129749500Y-112553389D01*
X81500500Y-112553389D01*
X81500500Y-108912332D01*
X92699500Y-108912332D01*
X92699500Y-109187667D01*
X92699501Y-109187684D01*
X92735438Y-109460655D01*
X92735439Y-109460660D01*
X92735440Y-109460666D01*
X92735441Y-109460668D01*
X92806704Y-109726630D01*
X92912075Y-109981017D01*
X92912080Y-109981028D01*
X92991809Y-110119121D01*
X93049751Y-110219479D01*
X93049753Y-110219482D01*
X93049754Y-110219483D01*
X93217370Y-110437926D01*
X93217376Y-110437933D01*
X93412066Y-110632623D01*
X93412072Y-110632628D01*
X93630521Y-110800249D01*
X93783778Y-110888732D01*
X93868971Y-110937919D01*
X93868976Y-110937921D01*
X93868979Y-110937923D01*
X94123368Y-111043295D01*
X94389334Y-111114560D01*
X94662326Y-111150500D01*
X94662333Y-111150500D01*
X94937667Y-111150500D01*
X94937674Y-111150500D01*
X95210666Y-111114560D01*
X95476632Y-111043295D01*
X95731021Y-110937923D01*
X95969479Y-110800249D01*
X96187928Y-110632628D01*
X96382628Y-110437928D01*
X96550249Y-110219479D01*
X96669235Y-110013389D01*
X129749500Y-110013389D01*
X129749500Y-110186611D01*
X129776598Y-110357701D01*
X129830127Y-110522445D01*
X129908768Y-110676788D01*
X130010586Y-110816928D01*
X130133072Y-110939414D01*
X130273212Y-111041232D01*
X130427555Y-111119873D01*
X130592299Y-111173402D01*
X130763389Y-111200500D01*
X130763390Y-111200500D01*
X131736610Y-111200500D01*
X131736611Y-111200500D01*
X131907701Y-111173402D01*
X132072445Y-111119873D01*
X132226788Y-111041232D01*
X132366928Y-110939414D01*
X132489414Y-110816928D01*
X132591232Y-110676788D01*
X132669873Y-110522445D01*
X132723402Y-110357701D01*
X132750500Y-110186611D01*
X132750500Y-110013389D01*
X155249500Y-110013389D01*
X155249500Y-110186611D01*
X155276598Y-110357701D01*
X155330127Y-110522445D01*
X155408768Y-110676788D01*
X155510586Y-110816928D01*
X155633072Y-110939414D01*
X155773212Y-111041232D01*
X155927555Y-111119873D01*
X156092299Y-111173402D01*
X156263389Y-111200500D01*
X156263390Y-111200500D01*
X157236610Y-111200500D01*
X157236611Y-111200500D01*
X157407701Y-111173402D01*
X157572445Y-111119873D01*
X157726788Y-111041232D01*
X157866928Y-110939414D01*
X157989414Y-110816928D01*
X158091232Y-110676788D01*
X158169873Y-110522445D01*
X158223402Y-110357701D01*
X158250500Y-110186611D01*
X158250500Y-110013389D01*
X158223402Y-109842299D01*
X158169873Y-109677555D01*
X158091232Y-109523212D01*
X157989414Y-109383072D01*
X157866928Y-109260586D01*
X157726788Y-109158768D01*
X157572445Y-109080127D01*
X157407701Y-109026598D01*
X157407698Y-109026597D01*
X157276271Y-109005781D01*
X157236611Y-108999500D01*
X156263389Y-108999500D01*
X156223728Y-109005781D01*
X156092302Y-109026597D01*
X155927552Y-109080128D01*
X155773211Y-109158768D01*
X155693256Y-109216859D01*
X155633072Y-109260586D01*
X155633070Y-109260588D01*
X155633069Y-109260588D01*
X155510588Y-109383069D01*
X155510588Y-109383070D01*
X155510586Y-109383072D01*
X155466859Y-109443256D01*
X155408768Y-109523211D01*
X155330128Y-109677552D01*
X155276597Y-109842302D01*
X155254625Y-109981028D01*
X155249500Y-110013389D01*
X132750500Y-110013389D01*
X132723402Y-109842299D01*
X132669873Y-109677555D01*
X132591232Y-109523212D01*
X132489414Y-109383072D01*
X132366928Y-109260586D01*
X132226788Y-109158768D01*
X132072445Y-109080127D01*
X131907701Y-109026598D01*
X131907699Y-109026597D01*
X131907698Y-109026597D01*
X131776271Y-109005781D01*
X131736611Y-108999500D01*
X130763389Y-108999500D01*
X130723728Y-109005781D01*
X130592302Y-109026597D01*
X130427552Y-109080128D01*
X130273211Y-109158768D01*
X130193256Y-109216859D01*
X130133072Y-109260586D01*
X130133070Y-109260588D01*
X130133069Y-109260588D01*
X130010588Y-109383069D01*
X130010588Y-109383070D01*
X130010586Y-109383072D01*
X129966859Y-109443256D01*
X129908768Y-109523211D01*
X129830128Y-109677552D01*
X129776597Y-109842302D01*
X129754625Y-109981028D01*
X129749500Y-110013389D01*
X96669235Y-110013389D01*
X96687923Y-109981021D01*
X96793295Y-109726632D01*
X96864560Y-109460666D01*
X96900500Y-109187674D01*
X96900500Y-108912332D01*
X194499500Y-108912332D01*
X194499500Y-109187667D01*
X194499501Y-109187684D01*
X194535438Y-109460655D01*
X194535439Y-109460660D01*
X194535440Y-109460666D01*
X194535441Y-109460668D01*
X194606704Y-109726630D01*
X194712075Y-109981017D01*
X194712080Y-109981028D01*
X194791809Y-110119121D01*
X194849751Y-110219479D01*
X194849753Y-110219482D01*
X194849754Y-110219483D01*
X195017370Y-110437926D01*
X195017376Y-110437933D01*
X195212066Y-110632623D01*
X195212072Y-110632628D01*
X195430521Y-110800249D01*
X195583778Y-110888732D01*
X195668971Y-110937919D01*
X195668976Y-110937921D01*
X195668979Y-110937923D01*
X195923368Y-111043295D01*
X196189334Y-111114560D01*
X196462326Y-111150500D01*
X196462333Y-111150500D01*
X196737667Y-111150500D01*
X196737674Y-111150500D01*
X197010666Y-111114560D01*
X197276632Y-111043295D01*
X197531021Y-110937923D01*
X197769479Y-110800249D01*
X197987928Y-110632628D01*
X198182628Y-110437928D01*
X198350249Y-110219479D01*
X198487923Y-109981021D01*
X198593295Y-109726632D01*
X198664560Y-109460666D01*
X198700500Y-109187674D01*
X198700500Y-108912326D01*
X198664560Y-108639334D01*
X198593295Y-108373368D01*
X198487923Y-108118979D01*
X198487921Y-108118976D01*
X198487919Y-108118971D01*
X198414168Y-107991232D01*
X198350249Y-107880521D01*
X198182628Y-107662072D01*
X198182623Y-107662066D01*
X197987933Y-107467376D01*
X197987926Y-107467370D01*
X197769483Y-107299754D01*
X197769482Y-107299753D01*
X197769479Y-107299751D01*
X197674407Y-107244861D01*
X197531028Y-107162080D01*
X197531017Y-107162075D01*
X197276630Y-107056704D01*
X197143649Y-107021072D01*
X197010666Y-106985440D01*
X197010660Y-106985439D01*
X197010655Y-106985438D01*
X196737684Y-106949501D01*
X196737679Y-106949500D01*
X196737674Y-106949500D01*
X196462326Y-106949500D01*
X196462320Y-106949500D01*
X196462315Y-106949501D01*
X196189344Y-106985438D01*
X196189337Y-106985439D01*
X196189334Y-106985440D01*
X196133125Y-107000500D01*
X195923369Y-107056704D01*
X195668982Y-107162075D01*
X195668971Y-107162080D01*
X195430516Y-107299754D01*
X195212073Y-107467370D01*
X195212066Y-107467376D01*
X195017376Y-107662066D01*
X195017370Y-107662073D01*
X194849754Y-107880516D01*
X194712080Y-108118971D01*
X194712075Y-108118982D01*
X194606704Y-108373369D01*
X194579335Y-108475513D01*
X194537030Y-108633402D01*
X194535441Y-108639331D01*
X194535438Y-108639344D01*
X194499501Y-108912315D01*
X194499500Y-108912332D01*
X96900500Y-108912332D01*
X96900500Y-108912326D01*
X96864560Y-108639334D01*
X96793295Y-108373368D01*
X96687923Y-108118979D01*
X96687921Y-108118976D01*
X96687919Y-108118971D01*
X96614168Y-107991232D01*
X96550249Y-107880521D01*
X96382628Y-107662072D01*
X96382623Y-107662066D01*
X96187933Y-107467376D01*
X96187926Y-107467370D01*
X95969483Y-107299754D01*
X95969482Y-107299753D01*
X95969479Y-107299751D01*
X95874407Y-107244861D01*
X95731028Y-107162080D01*
X95731017Y-107162075D01*
X95476630Y-107056704D01*
X95343649Y-107021072D01*
X95210666Y-106985440D01*
X95210660Y-106985439D01*
X95210655Y-106985438D01*
X94937684Y-106949501D01*
X94937679Y-106949500D01*
X94937674Y-106949500D01*
X94662326Y-106949500D01*
X94662320Y-106949500D01*
X94662315Y-106949501D01*
X94389344Y-106985438D01*
X94389337Y-106985439D01*
X94389334Y-106985440D01*
X94333125Y-107000500D01*
X94123369Y-107056704D01*
X93868982Y-107162075D01*
X93868971Y-107162080D01*
X93630516Y-107299754D01*
X93412073Y-107467370D01*
X93412066Y-107467376D01*
X93217376Y-107662066D01*
X93217370Y-107662073D01*
X93049754Y-107880516D01*
X92912080Y-108118971D01*
X92912075Y-108118982D01*
X92806704Y-108373369D01*
X92779335Y-108475513D01*
X92737030Y-108633402D01*
X92735441Y-108639331D01*
X92735438Y-108639344D01*
X92699501Y-108912315D01*
X92699500Y-108912332D01*
X81500500Y-108912332D01*
X81500500Y-106321577D01*
X110219500Y-106321577D01*
X110219500Y-106518422D01*
X110250290Y-106712826D01*
X110311117Y-106900029D01*
X110354637Y-106985441D01*
X110400476Y-107075405D01*
X110516172Y-107234646D01*
X110655354Y-107373828D01*
X110814595Y-107489524D01*
X110897455Y-107531743D01*
X110989970Y-107578882D01*
X110989972Y-107578882D01*
X110989975Y-107578884D01*
X111090317Y-107611487D01*
X111177173Y-107639709D01*
X111371578Y-107670500D01*
X111371583Y-107670500D01*
X111568422Y-107670500D01*
X111762826Y-107639709D01*
X111950025Y-107578884D01*
X112125405Y-107489524D01*
X112284646Y-107373828D01*
X112423828Y-107234646D01*
X112539524Y-107075405D01*
X112628884Y-106900025D01*
X112689709Y-106712826D01*
X112720500Y-106518422D01*
X112720500Y-106321577D01*
X112689709Y-106127173D01*
X112659922Y-106035501D01*
X112628884Y-105939975D01*
X112628882Y-105939972D01*
X112628882Y-105939970D01*
X112566742Y-105818014D01*
X112539524Y-105764595D01*
X112474181Y-105674658D01*
X112450702Y-105608853D01*
X112450500Y-105601774D01*
X112450500Y-84673389D01*
X115729500Y-84673389D01*
X115729500Y-84846611D01*
X115756598Y-85017701D01*
X115810127Y-85182445D01*
X115888768Y-85336788D01*
X115990586Y-85476928D01*
X115990588Y-85476930D01*
X116043181Y-85529523D01*
X116076666Y-85590846D01*
X116079500Y-85617204D01*
X116079500Y-95732796D01*
X116059815Y-95799835D01*
X116043181Y-95820477D01*
X115990588Y-95873069D01*
X115990588Y-95873070D01*
X115990586Y-95873072D01*
X115985645Y-95879873D01*
X115888768Y-96013211D01*
X115810128Y-96167552D01*
X115756597Y-96332302D01*
X115736567Y-96458768D01*
X115729500Y-96503389D01*
X115729500Y-96676611D01*
X115737677Y-96728239D01*
X115750237Y-96807543D01*
X115756598Y-96847701D01*
X115810127Y-97012445D01*
X115888768Y-97166788D01*
X115990586Y-97306928D01*
X116113072Y-97429414D01*
X116253212Y-97531232D01*
X116407555Y-97609873D01*
X116572299Y-97663402D01*
X116743389Y-97690500D01*
X116743390Y-97690500D01*
X116916610Y-97690500D01*
X116916611Y-97690500D01*
X117087701Y-97663402D01*
X117252445Y-97609873D01*
X117406788Y-97531232D01*
X117546928Y-97429414D01*
X117669414Y-97306928D01*
X117771232Y-97166788D01*
X117849873Y-97012445D01*
X117903402Y-96847701D01*
X117930500Y-96676611D01*
X117930500Y-96503389D01*
X117903402Y-96332299D01*
X117849873Y-96167555D01*
X117771232Y-96013212D01*
X117669414Y-95873072D01*
X117616819Y-95820477D01*
X117583334Y-95759154D01*
X117580500Y-95732796D01*
X117580500Y-93913389D01*
X119499500Y-93913389D01*
X119499500Y-94086610D01*
X119526573Y-94257547D01*
X119526598Y-94257701D01*
X119580127Y-94422445D01*
X119658768Y-94576788D01*
X119760586Y-94716928D01*
X119760588Y-94716930D01*
X119813181Y-94769523D01*
X119846666Y-94830846D01*
X119849500Y-94857204D01*
X119849500Y-106192796D01*
X119829815Y-106259835D01*
X119813181Y-106280477D01*
X119760588Y-106333069D01*
X119760588Y-106333070D01*
X119760586Y-106333072D01*
X119716859Y-106393256D01*
X119658768Y-106473211D01*
X119580128Y-106627552D01*
X119526597Y-106792302D01*
X119499500Y-106963389D01*
X119499500Y-107136610D01*
X119515027Y-107234648D01*
X119526598Y-107307701D01*
X119580127Y-107472445D01*
X119658768Y-107626788D01*
X119760586Y-107766928D01*
X119883072Y-107889414D01*
X120023212Y-107991232D01*
X120177555Y-108069873D01*
X120342299Y-108123402D01*
X120513389Y-108150500D01*
X120513390Y-108150500D01*
X120686610Y-108150500D01*
X120686611Y-108150500D01*
X120857701Y-108123402D01*
X121022445Y-108069873D01*
X121176788Y-107991232D01*
X121316928Y-107889414D01*
X121439414Y-107766928D01*
X121541232Y-107626788D01*
X121619392Y-107473389D01*
X129749500Y-107473389D01*
X129749500Y-107646610D01*
X129768556Y-107766930D01*
X129776598Y-107817701D01*
X129830127Y-107982445D01*
X129908768Y-108136788D01*
X130010586Y-108276928D01*
X130133072Y-108399414D01*
X130273212Y-108501232D01*
X130427555Y-108579873D01*
X130592299Y-108633402D01*
X130763389Y-108660500D01*
X130763390Y-108660500D01*
X131736610Y-108660500D01*
X131736611Y-108660500D01*
X131907701Y-108633402D01*
X132072445Y-108579873D01*
X132226788Y-108501232D01*
X132366928Y-108399414D01*
X132489414Y-108276928D01*
X132591232Y-108136788D01*
X132669873Y-107982445D01*
X132723402Y-107817701D01*
X132750500Y-107646611D01*
X132750500Y-107473389D01*
X132723402Y-107302299D01*
X132669873Y-107137555D01*
X132591232Y-106983212D01*
X132489414Y-106843072D01*
X132366928Y-106720586D01*
X132226788Y-106618768D01*
X132072445Y-106540127D01*
X131907701Y-106486598D01*
X131907699Y-106486597D01*
X131907698Y-106486597D01*
X131776271Y-106465781D01*
X131736611Y-106459500D01*
X130763389Y-106459500D01*
X130723728Y-106465781D01*
X130592302Y-106486597D01*
X130427552Y-106540128D01*
X130273211Y-106618768D01*
X130193256Y-106676859D01*
X130133072Y-106720586D01*
X130133070Y-106720588D01*
X130133069Y-106720588D01*
X130010588Y-106843069D01*
X130010588Y-106843070D01*
X130010586Y-106843072D01*
X129969207Y-106900025D01*
X129908768Y-106983211D01*
X129830128Y-107137552D01*
X129776597Y-107302302D01*
X129749500Y-107473389D01*
X121619392Y-107473389D01*
X121619873Y-107472445D01*
X121673402Y-107307701D01*
X121700500Y-107136611D01*
X121700500Y-106963389D01*
X121673402Y-106792299D01*
X121619873Y-106627555D01*
X121541232Y-106473212D01*
X121439414Y-106333072D01*
X121386819Y-106280477D01*
X121353334Y-106219154D01*
X121350500Y-106192796D01*
X121350500Y-104933389D01*
X129749500Y-104933389D01*
X129749500Y-105106611D01*
X129776598Y-105277701D01*
X129830127Y-105442445D01*
X129908768Y-105596788D01*
X130010586Y-105736928D01*
X130133072Y-105859414D01*
X130273212Y-105961232D01*
X130427555Y-106039873D01*
X130592299Y-106093402D01*
X130763389Y-106120500D01*
X130763390Y-106120500D01*
X131736610Y-106120500D01*
X131736611Y-106120500D01*
X131907701Y-106093402D01*
X132072445Y-106039873D01*
X132226788Y-105961232D01*
X132366928Y-105859414D01*
X132489414Y-105736928D01*
X132591232Y-105596788D01*
X132669873Y-105442445D01*
X132723402Y-105277701D01*
X132750500Y-105106611D01*
X132750500Y-104933389D01*
X132723402Y-104762299D01*
X132669873Y-104597555D01*
X132591232Y-104443212D01*
X132489414Y-104303072D01*
X132366928Y-104180586D01*
X132226788Y-104078768D01*
X132072445Y-104000127D01*
X131907701Y-103946598D01*
X131907699Y-103946597D01*
X131907698Y-103946597D01*
X131776271Y-103925781D01*
X131736611Y-103919500D01*
X130763389Y-103919500D01*
X130723728Y-103925781D01*
X130592302Y-103946597D01*
X130427552Y-104000128D01*
X130273211Y-104078768D01*
X130193823Y-104136448D01*
X130133072Y-104180586D01*
X130133070Y-104180588D01*
X130133069Y-104180588D01*
X130010588Y-104303069D01*
X130010588Y-104303070D01*
X130010586Y-104303072D01*
X129966859Y-104363256D01*
X129908768Y-104443211D01*
X129830128Y-104597552D01*
X129776597Y-104762302D01*
X129749500Y-104933389D01*
X121350500Y-104933389D01*
X121350500Y-102393389D01*
X129749500Y-102393389D01*
X129749500Y-102566611D01*
X129776598Y-102737701D01*
X129830127Y-102902445D01*
X129908768Y-103056788D01*
X130010586Y-103196928D01*
X130133072Y-103319414D01*
X130273212Y-103421232D01*
X130427555Y-103499873D01*
X130592299Y-103553402D01*
X130763389Y-103580500D01*
X130763390Y-103580500D01*
X131736610Y-103580500D01*
X131736611Y-103580500D01*
X131907701Y-103553402D01*
X132072445Y-103499873D01*
X132226788Y-103421232D01*
X132366928Y-103319414D01*
X132489414Y-103196928D01*
X132591232Y-103056788D01*
X132669873Y-102902445D01*
X132723402Y-102737701D01*
X132750500Y-102566611D01*
X132750500Y-102393389D01*
X155249500Y-102393389D01*
X155249500Y-102566611D01*
X155276598Y-102737701D01*
X155330127Y-102902445D01*
X155408768Y-103056788D01*
X155510586Y-103196928D01*
X155633072Y-103319414D01*
X155773212Y-103421232D01*
X155927555Y-103499873D01*
X156092299Y-103553402D01*
X156263389Y-103580500D01*
X156263390Y-103580500D01*
X157236610Y-103580500D01*
X157236611Y-103580500D01*
X157407701Y-103553402D01*
X157572445Y-103499873D01*
X157726788Y-103421232D01*
X157866928Y-103319414D01*
X157919523Y-103266819D01*
X157980846Y-103233334D01*
X158007204Y-103230500D01*
X162443920Y-103230500D01*
X162541462Y-103211096D01*
X162588913Y-103201658D01*
X162725495Y-103145084D01*
X162774729Y-103112186D01*
X162848416Y-103062952D01*
X162991096Y-102920270D01*
X163052416Y-102886788D01*
X163122108Y-102891772D01*
X163178042Y-102933643D01*
X163202459Y-102999108D01*
X163201249Y-103027344D01*
X163199500Y-103038389D01*
X163199500Y-103038393D01*
X163199500Y-103387770D01*
X163179815Y-103454809D01*
X163163181Y-103475451D01*
X162405451Y-104233181D01*
X162344128Y-104266666D01*
X162317770Y-104269500D01*
X158007204Y-104269500D01*
X157940165Y-104249815D01*
X157919523Y-104233181D01*
X157866930Y-104180588D01*
X157866928Y-104180586D01*
X157726788Y-104078768D01*
X157572445Y-104000127D01*
X157407701Y-103946598D01*
X157407699Y-103946597D01*
X157407698Y-103946597D01*
X157276271Y-103925781D01*
X157236611Y-103919500D01*
X156263389Y-103919500D01*
X156223728Y-103925781D01*
X156092302Y-103946597D01*
X155927552Y-104000128D01*
X155773211Y-104078768D01*
X155693823Y-104136448D01*
X155633072Y-104180586D01*
X155633070Y-104180588D01*
X155633069Y-104180588D01*
X155510588Y-104303069D01*
X155510588Y-104303070D01*
X155510586Y-104303072D01*
X155466859Y-104363256D01*
X155408768Y-104443211D01*
X155330128Y-104597552D01*
X155276597Y-104762302D01*
X155249500Y-104933389D01*
X155249500Y-105106611D01*
X155276598Y-105277701D01*
X155330127Y-105442445D01*
X155408768Y-105596788D01*
X155510586Y-105736928D01*
X155633072Y-105859414D01*
X155773212Y-105961232D01*
X155927555Y-106039873D01*
X156092299Y-106093402D01*
X156263389Y-106120500D01*
X156263390Y-106120500D01*
X157236610Y-106120500D01*
X157236611Y-106120500D01*
X157407701Y-106093402D01*
X157572445Y-106039873D01*
X157726788Y-105961232D01*
X157866928Y-105859414D01*
X157919523Y-105806819D01*
X157980846Y-105773334D01*
X158007204Y-105770500D01*
X162753920Y-105770500D01*
X162851462Y-105751096D01*
X162898913Y-105741658D01*
X163035495Y-105685084D01*
X163129927Y-105621987D01*
X163158416Y-105602952D01*
X163972302Y-104789064D01*
X164033623Y-104755581D01*
X164079374Y-104754274D01*
X164213389Y-104775500D01*
X164213391Y-104775500D01*
X164386610Y-104775500D01*
X164386611Y-104775500D01*
X164557701Y-104748402D01*
X164722445Y-104694873D01*
X164876788Y-104616232D01*
X165016928Y-104514414D01*
X165139414Y-104391928D01*
X165199682Y-104308975D01*
X165218773Y-104294254D01*
X165234893Y-104276330D01*
X165245940Y-104273305D01*
X165255012Y-104266311D01*
X165279031Y-104264248D01*
X165302284Y-104257883D01*
X165313213Y-104261312D01*
X165324626Y-104260332D01*
X165345947Y-104271582D01*
X165368949Y-104278799D01*
X165380276Y-104289695D01*
X165386421Y-104292938D01*
X165395192Y-104302399D01*
X165397869Y-104305606D01*
X165460586Y-104391928D01*
X165517120Y-104448462D01*
X165520692Y-104452741D01*
X165532485Y-104479877D01*
X165546666Y-104505846D01*
X165547617Y-104514691D01*
X165548542Y-104516820D01*
X165548122Y-104519396D01*
X165549500Y-104532204D01*
X165549500Y-105317770D01*
X165529815Y-105384809D01*
X165513181Y-105405451D01*
X164145451Y-106773181D01*
X164084128Y-106806666D01*
X164057770Y-106809500D01*
X158007204Y-106809500D01*
X157940165Y-106789815D01*
X157919523Y-106773181D01*
X157866930Y-106720588D01*
X157866928Y-106720586D01*
X157726788Y-106618768D01*
X157572445Y-106540127D01*
X157407701Y-106486598D01*
X157407699Y-106486597D01*
X157407698Y-106486597D01*
X157276271Y-106465781D01*
X157236611Y-106459500D01*
X156263389Y-106459500D01*
X156223728Y-106465781D01*
X156092302Y-106486597D01*
X155927552Y-106540128D01*
X155773211Y-106618768D01*
X155693256Y-106676859D01*
X155633072Y-106720586D01*
X155633070Y-106720588D01*
X155633069Y-106720588D01*
X155510588Y-106843069D01*
X155510588Y-106843070D01*
X155510586Y-106843072D01*
X155469207Y-106900025D01*
X155408768Y-106983211D01*
X155330128Y-107137552D01*
X155276597Y-107302302D01*
X155249500Y-107473389D01*
X155249500Y-107646610D01*
X155268556Y-107766930D01*
X155276598Y-107817701D01*
X155330127Y-107982445D01*
X155408768Y-108136788D01*
X155510586Y-108276928D01*
X155633072Y-108399414D01*
X155773212Y-108501232D01*
X155927555Y-108579873D01*
X156092299Y-108633402D01*
X156263389Y-108660500D01*
X156263390Y-108660500D01*
X157236610Y-108660500D01*
X157236611Y-108660500D01*
X157407701Y-108633402D01*
X157572445Y-108579873D01*
X157726788Y-108501232D01*
X157866928Y-108399414D01*
X157919523Y-108346819D01*
X157980846Y-108313334D01*
X158007204Y-108310500D01*
X164493920Y-108310500D01*
X164591462Y-108291096D01*
X164638913Y-108281658D01*
X164775495Y-108225084D01*
X164824729Y-108192186D01*
X164898416Y-108142952D01*
X166882951Y-106158416D01*
X166965084Y-106035495D01*
X167021658Y-105898913D01*
X167037750Y-105818013D01*
X167050500Y-105753918D01*
X167050500Y-104532204D01*
X167057634Y-104507908D01*
X167060776Y-104482778D01*
X167068227Y-104471833D01*
X167070185Y-104465165D01*
X167079308Y-104452741D01*
X167082879Y-104448462D01*
X167139414Y-104391928D01*
X167202130Y-104305606D01*
X167204808Y-104302399D01*
X167230515Y-104285200D01*
X167255012Y-104266311D01*
X167259300Y-104265942D01*
X167262880Y-104263548D01*
X167293811Y-104262978D01*
X167324626Y-104260332D01*
X167328433Y-104262341D01*
X167332738Y-104262262D01*
X167359062Y-104278502D01*
X167386421Y-104292938D01*
X167390968Y-104298185D01*
X167392202Y-104298947D01*
X167392912Y-104300429D01*
X167400315Y-104308973D01*
X167460586Y-104391928D01*
X167583072Y-104514414D01*
X167723212Y-104616232D01*
X167877555Y-104694873D01*
X168042299Y-104748402D01*
X168213389Y-104775500D01*
X168213390Y-104775500D01*
X168386610Y-104775500D01*
X168386611Y-104775500D01*
X168557701Y-104748402D01*
X168722445Y-104694873D01*
X168876788Y-104616232D01*
X169016928Y-104514414D01*
X169139414Y-104391928D01*
X169241232Y-104251788D01*
X169319873Y-104097445D01*
X169373402Y-103932701D01*
X169400500Y-103761611D01*
X169400500Y-103038389D01*
X169373402Y-102867299D01*
X169319873Y-102702555D01*
X169241232Y-102548212D01*
X169139414Y-102408072D01*
X169086819Y-102355477D01*
X169053334Y-102294154D01*
X169050500Y-102267796D01*
X169050500Y-101996079D01*
X169021659Y-101851092D01*
X169021658Y-101851091D01*
X169021658Y-101851087D01*
X169021656Y-101851082D01*
X168965087Y-101714511D01*
X168965080Y-101714498D01*
X168882952Y-101591585D01*
X168882951Y-101591584D01*
X168778416Y-101487049D01*
X168670867Y-101379500D01*
X167658421Y-100367052D01*
X167658414Y-100367046D01*
X167584729Y-100317812D01*
X167584729Y-100317813D01*
X167535491Y-100284913D01*
X167398917Y-100228343D01*
X167398907Y-100228340D01*
X167253920Y-100199500D01*
X167253918Y-100199500D01*
X163826082Y-100199500D01*
X163810166Y-100202666D01*
X163810165Y-100202666D01*
X163681095Y-100228339D01*
X163681083Y-100228342D01*
X163636552Y-100246787D01*
X163636553Y-100246788D01*
X163544504Y-100284916D01*
X163495269Y-100317813D01*
X163421588Y-100367044D01*
X163421580Y-100367050D01*
X162095451Y-101693181D01*
X162034128Y-101726666D01*
X162007770Y-101729500D01*
X158007204Y-101729500D01*
X157940165Y-101709815D01*
X157919523Y-101693181D01*
X157866930Y-101640588D01*
X157866928Y-101640586D01*
X157726788Y-101538768D01*
X157572445Y-101460127D01*
X157407701Y-101406598D01*
X157407699Y-101406597D01*
X157407698Y-101406597D01*
X157276271Y-101385781D01*
X157236611Y-101379500D01*
X156263389Y-101379500D01*
X156223728Y-101385781D01*
X156092302Y-101406597D01*
X155927552Y-101460128D01*
X155773211Y-101538768D01*
X155700517Y-101591584D01*
X155633072Y-101640586D01*
X155633070Y-101640588D01*
X155633069Y-101640588D01*
X155510588Y-101763069D01*
X155510588Y-101763070D01*
X155510586Y-101763072D01*
X155472064Y-101816093D01*
X155408768Y-101903211D01*
X155330128Y-102057552D01*
X155276597Y-102222302D01*
X155269392Y-102267796D01*
X155249500Y-102393389D01*
X132750500Y-102393389D01*
X132723402Y-102222299D01*
X132669873Y-102057555D01*
X132591232Y-101903212D01*
X132489414Y-101763072D01*
X132366928Y-101640586D01*
X132226788Y-101538768D01*
X132072445Y-101460127D01*
X131907701Y-101406598D01*
X131907699Y-101406597D01*
X131907698Y-101406597D01*
X131776271Y-101385781D01*
X131736611Y-101379500D01*
X130763389Y-101379500D01*
X130723728Y-101385781D01*
X130592302Y-101406597D01*
X130427552Y-101460128D01*
X130273211Y-101538768D01*
X130200517Y-101591584D01*
X130133072Y-101640586D01*
X130133070Y-101640588D01*
X130133069Y-101640588D01*
X130010588Y-101763069D01*
X130010588Y-101763070D01*
X130010586Y-101763072D01*
X129972064Y-101816093D01*
X129908768Y-101903211D01*
X129830128Y-102057552D01*
X129776597Y-102222302D01*
X129769392Y-102267796D01*
X129749500Y-102393389D01*
X121350500Y-102393389D01*
X121350500Y-99853389D01*
X129749500Y-99853389D01*
X129749500Y-100026611D01*
X129776598Y-100197701D01*
X129830127Y-100362445D01*
X129908768Y-100516788D01*
X130010586Y-100656928D01*
X130133072Y-100779414D01*
X130273212Y-100881232D01*
X130427555Y-100959873D01*
X130592299Y-101013402D01*
X130763389Y-101040500D01*
X130763390Y-101040500D01*
X131736610Y-101040500D01*
X131736611Y-101040500D01*
X131907701Y-101013402D01*
X132072445Y-100959873D01*
X132226788Y-100881232D01*
X132366928Y-100779414D01*
X132489414Y-100656928D01*
X132591232Y-100516788D01*
X132669873Y-100362445D01*
X132723402Y-100197701D01*
X132750500Y-100026611D01*
X132750500Y-99853389D01*
X155249500Y-99853389D01*
X155249500Y-100026611D01*
X155276598Y-100197701D01*
X155330127Y-100362445D01*
X155408768Y-100516788D01*
X155510586Y-100656928D01*
X155633072Y-100779414D01*
X155773212Y-100881232D01*
X155927555Y-100959873D01*
X156092299Y-101013402D01*
X156263389Y-101040500D01*
X156263390Y-101040500D01*
X157236610Y-101040500D01*
X157236611Y-101040500D01*
X157407701Y-101013402D01*
X157572445Y-100959873D01*
X157726788Y-100881232D01*
X157866928Y-100779414D01*
X157989414Y-100656928D01*
X158091232Y-100516788D01*
X158169873Y-100362445D01*
X158223402Y-100197701D01*
X158250500Y-100026611D01*
X158250500Y-99853389D01*
X158223402Y-99682299D01*
X158169873Y-99517555D01*
X158091232Y-99363212D01*
X157989414Y-99223072D01*
X157866928Y-99100586D01*
X157726788Y-98998768D01*
X157572445Y-98920127D01*
X157407701Y-98866598D01*
X157407699Y-98866597D01*
X157407698Y-98866597D01*
X157276271Y-98845781D01*
X157236611Y-98839500D01*
X156263389Y-98839500D01*
X156223728Y-98845781D01*
X156092302Y-98866597D01*
X155927552Y-98920128D01*
X155773211Y-98998768D01*
X155705637Y-99047864D01*
X155633072Y-99100586D01*
X155633070Y-99100588D01*
X155633069Y-99100588D01*
X155510588Y-99223069D01*
X155510588Y-99223070D01*
X155510586Y-99223072D01*
X155492798Y-99247555D01*
X155408768Y-99363211D01*
X155330128Y-99517552D01*
X155276597Y-99682302D01*
X155264828Y-99756610D01*
X155249500Y-99853389D01*
X132750500Y-99853389D01*
X132723402Y-99682299D01*
X132669873Y-99517555D01*
X132591232Y-99363212D01*
X132489414Y-99223072D01*
X132366928Y-99100586D01*
X132226788Y-98998768D01*
X132072445Y-98920127D01*
X131907701Y-98866598D01*
X131907699Y-98866597D01*
X131907698Y-98866597D01*
X131776271Y-98845781D01*
X131736611Y-98839500D01*
X130763389Y-98839500D01*
X130723728Y-98845781D01*
X130592302Y-98866597D01*
X130427552Y-98920128D01*
X130273211Y-98998768D01*
X130205637Y-99047864D01*
X130133072Y-99100586D01*
X130133070Y-99100588D01*
X130133069Y-99100588D01*
X130010588Y-99223069D01*
X130010588Y-99223070D01*
X130010586Y-99223072D01*
X129992798Y-99247555D01*
X129908768Y-99363211D01*
X129830128Y-99517552D01*
X129776597Y-99682302D01*
X129764828Y-99756610D01*
X129749500Y-99853389D01*
X121350500Y-99853389D01*
X121350500Y-97313389D01*
X155249500Y-97313389D01*
X155249500Y-97486611D01*
X155276598Y-97657701D01*
X155330127Y-97822445D01*
X155408768Y-97976788D01*
X155510586Y-98116928D01*
X155633072Y-98239414D01*
X155773212Y-98341232D01*
X155927555Y-98419873D01*
X156092299Y-98473402D01*
X156263389Y-98500500D01*
X156263390Y-98500500D01*
X157236610Y-98500500D01*
X157236611Y-98500500D01*
X157407701Y-98473402D01*
X157572445Y-98419873D01*
X157726788Y-98341232D01*
X157866928Y-98239414D01*
X157989414Y-98116928D01*
X158091232Y-97976788D01*
X158169873Y-97822445D01*
X158223402Y-97657701D01*
X158250500Y-97486611D01*
X158250500Y-97313389D01*
X158223402Y-97142299D01*
X158169873Y-96977555D01*
X158091232Y-96823212D01*
X157989414Y-96683072D01*
X157866928Y-96560586D01*
X157726788Y-96458768D01*
X157572445Y-96380127D01*
X157407701Y-96326598D01*
X157407699Y-96326597D01*
X157407698Y-96326597D01*
X157276271Y-96305781D01*
X157236611Y-96299500D01*
X156263389Y-96299500D01*
X156223728Y-96305781D01*
X156092302Y-96326597D01*
X155927552Y-96380128D01*
X155773211Y-96458768D01*
X155693256Y-96516859D01*
X155633072Y-96560586D01*
X155633070Y-96560588D01*
X155633069Y-96560588D01*
X155510588Y-96683069D01*
X155510588Y-96683070D01*
X155510586Y-96683072D01*
X155503859Y-96692331D01*
X155408768Y-96823211D01*
X155330128Y-96977552D01*
X155276597Y-97142302D01*
X155276573Y-97142454D01*
X155249500Y-97313389D01*
X121350500Y-97313389D01*
X121350500Y-94857204D01*
X121358353Y-94830459D01*
X121362991Y-94802966D01*
X121368834Y-94794764D01*
X121370185Y-94790165D01*
X121382789Y-94773747D01*
X121383115Y-94773389D01*
X129749500Y-94773389D01*
X129749500Y-94946611D01*
X129776598Y-95117701D01*
X129830127Y-95282445D01*
X129908768Y-95436788D01*
X130010586Y-95576928D01*
X130133072Y-95699414D01*
X130273212Y-95801232D01*
X130427555Y-95879873D01*
X130592299Y-95933402D01*
X130763389Y-95960500D01*
X130763390Y-95960500D01*
X131736610Y-95960500D01*
X131736611Y-95960500D01*
X131907701Y-95933402D01*
X132072445Y-95879873D01*
X132226788Y-95801232D01*
X132366928Y-95699414D01*
X132489414Y-95576928D01*
X132591232Y-95436788D01*
X132669873Y-95282445D01*
X132723402Y-95117701D01*
X132750500Y-94946611D01*
X132750500Y-94773389D01*
X155249500Y-94773389D01*
X155249500Y-94946611D01*
X155276598Y-95117701D01*
X155330127Y-95282445D01*
X155408768Y-95436788D01*
X155510586Y-95576928D01*
X155633072Y-95699414D01*
X155773212Y-95801232D01*
X155927555Y-95879873D01*
X156092299Y-95933402D01*
X156263389Y-95960500D01*
X156263390Y-95960500D01*
X157236610Y-95960500D01*
X157236611Y-95960500D01*
X157407701Y-95933402D01*
X157572445Y-95879873D01*
X157726788Y-95801232D01*
X157866928Y-95699414D01*
X157989414Y-95576928D01*
X158091232Y-95436788D01*
X158169873Y-95282445D01*
X158223402Y-95117701D01*
X158250500Y-94946611D01*
X158250500Y-94773389D01*
X158223402Y-94602299D01*
X158169873Y-94437555D01*
X158091232Y-94283212D01*
X157989414Y-94143072D01*
X157866928Y-94020586D01*
X157726788Y-93918768D01*
X157572445Y-93840127D01*
X157407701Y-93786598D01*
X157407699Y-93786597D01*
X157407698Y-93786597D01*
X157276271Y-93765781D01*
X157236611Y-93759500D01*
X156263389Y-93759500D01*
X156223728Y-93765781D01*
X156092302Y-93786597D01*
X155927552Y-93840128D01*
X155773211Y-93918768D01*
X155693256Y-93976859D01*
X155633072Y-94020586D01*
X155633070Y-94020588D01*
X155633069Y-94020588D01*
X155510588Y-94143069D01*
X155510588Y-94143070D01*
X155510586Y-94143072D01*
X155476837Y-94189523D01*
X155408768Y-94283211D01*
X155330128Y-94437552D01*
X155276597Y-94602302D01*
X155258442Y-94716929D01*
X155249500Y-94773389D01*
X132750500Y-94773389D01*
X132723402Y-94602299D01*
X132669873Y-94437555D01*
X132591232Y-94283212D01*
X132489414Y-94143072D01*
X132366928Y-94020586D01*
X132226788Y-93918768D01*
X132072445Y-93840127D01*
X131907701Y-93786598D01*
X131907699Y-93786597D01*
X131907698Y-93786597D01*
X131776271Y-93765781D01*
X131736611Y-93759500D01*
X130763389Y-93759500D01*
X130723728Y-93765781D01*
X130592302Y-93786597D01*
X130427552Y-93840128D01*
X130273211Y-93918768D01*
X130193256Y-93976859D01*
X130133072Y-94020586D01*
X130133070Y-94020588D01*
X130133069Y-94020588D01*
X130010588Y-94143069D01*
X130010588Y-94143070D01*
X130010586Y-94143072D01*
X129976837Y-94189523D01*
X129908768Y-94283211D01*
X129830128Y-94437552D01*
X129776597Y-94602302D01*
X129758442Y-94716929D01*
X129749500Y-94773389D01*
X121383115Y-94773389D01*
X121384750Y-94771591D01*
X121439414Y-94716928D01*
X121541232Y-94576788D01*
X121619873Y-94422445D01*
X121673402Y-94257701D01*
X121700500Y-94086611D01*
X121700500Y-93913389D01*
X121673402Y-93742299D01*
X121619873Y-93577555D01*
X121541232Y-93423212D01*
X121439414Y-93283072D01*
X121316928Y-93160586D01*
X121176788Y-93058768D01*
X121022445Y-92980127D01*
X120857701Y-92926598D01*
X120857699Y-92926597D01*
X120857698Y-92926597D01*
X120726271Y-92905781D01*
X120686611Y-92899500D01*
X120513389Y-92899500D01*
X120473728Y-92905781D01*
X120342302Y-92926597D01*
X120177552Y-92980128D01*
X120023211Y-93058768D01*
X119998214Y-93076930D01*
X119883072Y-93160586D01*
X119883070Y-93160588D01*
X119883069Y-93160588D01*
X119760588Y-93283069D01*
X119760588Y-93283070D01*
X119760586Y-93283072D01*
X119721817Y-93336433D01*
X119658768Y-93423211D01*
X119580128Y-93577552D01*
X119526597Y-93742302D01*
X119499500Y-93913389D01*
X117580500Y-93913389D01*
X117580500Y-92273389D01*
X129749500Y-92273389D01*
X129749500Y-92446610D01*
X129770262Y-92577701D01*
X129776598Y-92617701D01*
X129830127Y-92782445D01*
X129908768Y-92936788D01*
X130010586Y-93076928D01*
X130133072Y-93199414D01*
X130273212Y-93301232D01*
X130427555Y-93379873D01*
X130592299Y-93433402D01*
X130763389Y-93460500D01*
X130763390Y-93460500D01*
X131736610Y-93460500D01*
X131736611Y-93460500D01*
X131907701Y-93433402D01*
X132072445Y-93379873D01*
X132226788Y-93301232D01*
X132366928Y-93199414D01*
X132489414Y-93076928D01*
X132591232Y-92936788D01*
X132669873Y-92782445D01*
X132723402Y-92617701D01*
X132750500Y-92446611D01*
X132750500Y-92273389D01*
X132744165Y-92233389D01*
X155249500Y-92233389D01*
X155249500Y-92406611D01*
X155253506Y-92431902D01*
X155276597Y-92577697D01*
X155276597Y-92577699D01*
X155276598Y-92577701D01*
X155330127Y-92742445D01*
X155408768Y-92896788D01*
X155510586Y-93036928D01*
X155633072Y-93159414D01*
X155773212Y-93261232D01*
X155927555Y-93339873D01*
X156092299Y-93393402D01*
X156263389Y-93420500D01*
X156263390Y-93420500D01*
X157236610Y-93420500D01*
X157236611Y-93420500D01*
X157407701Y-93393402D01*
X157572445Y-93339873D01*
X157726788Y-93261232D01*
X157866928Y-93159414D01*
X157989414Y-93036928D01*
X158091232Y-92896788D01*
X158169873Y-92742445D01*
X158223402Y-92577701D01*
X158246494Y-92431902D01*
X212499500Y-92431902D01*
X212499500Y-92668097D01*
X212536446Y-92901368D01*
X212609433Y-93125996D01*
X212689467Y-93283070D01*
X212716657Y-93336433D01*
X212855483Y-93527510D01*
X213022490Y-93694517D01*
X213213567Y-93833343D01*
X213241244Y-93847445D01*
X213424003Y-93940566D01*
X213424005Y-93940566D01*
X213424008Y-93940568D01*
X213544412Y-93979689D01*
X213648631Y-94013553D01*
X213881903Y-94050500D01*
X213881908Y-94050500D01*
X214118097Y-94050500D01*
X214351368Y-94013553D01*
X214370049Y-94007483D01*
X214575992Y-93940568D01*
X214786433Y-93833343D01*
X214977510Y-93694517D01*
X215144517Y-93527510D01*
X215283343Y-93336433D01*
X215390568Y-93125992D01*
X215463553Y-92901368D01*
X215482388Y-92782447D01*
X215500500Y-92668097D01*
X215500500Y-92431902D01*
X215463553Y-92198631D01*
X215429689Y-92094412D01*
X215390568Y-91974008D01*
X215390566Y-91974005D01*
X215390566Y-91974003D01*
X215334002Y-91862991D01*
X215283343Y-91763567D01*
X215144517Y-91572490D01*
X214977510Y-91405483D01*
X214786433Y-91266657D01*
X214696118Y-91220639D01*
X214575996Y-91159433D01*
X214351368Y-91086446D01*
X214118097Y-91049500D01*
X214118092Y-91049500D01*
X213881908Y-91049500D01*
X213881903Y-91049500D01*
X213648631Y-91086446D01*
X213424003Y-91159433D01*
X213213566Y-91266657D01*
X213112443Y-91340128D01*
X213022490Y-91405483D01*
X213022488Y-91405485D01*
X213022487Y-91405485D01*
X212855485Y-91572487D01*
X212855485Y-91572488D01*
X212855483Y-91572490D01*
X212804202Y-91643072D01*
X212716657Y-91763566D01*
X212609433Y-91974003D01*
X212536446Y-92198631D01*
X212499500Y-92431902D01*
X158246494Y-92431902D01*
X158250500Y-92406611D01*
X158250500Y-92233389D01*
X158223402Y-92062299D01*
X158169873Y-91897555D01*
X158091232Y-91743212D01*
X157989414Y-91603072D01*
X157866928Y-91480586D01*
X157726788Y-91378768D01*
X157572445Y-91300127D01*
X157407701Y-91246598D01*
X157407699Y-91246597D01*
X157407698Y-91246597D01*
X157243802Y-91220639D01*
X157236611Y-91219500D01*
X156263389Y-91219500D01*
X156256198Y-91220639D01*
X156092302Y-91246597D01*
X155927552Y-91300128D01*
X155773211Y-91378768D01*
X155736442Y-91405483D01*
X155633072Y-91480586D01*
X155633070Y-91480588D01*
X155633069Y-91480588D01*
X155510588Y-91603069D01*
X155510588Y-91603070D01*
X155510586Y-91603072D01*
X155481526Y-91643070D01*
X155408768Y-91743211D01*
X155330128Y-91897552D01*
X155276597Y-92062302D01*
X155255005Y-92198631D01*
X155249500Y-92233389D01*
X132744165Y-92233389D01*
X132723402Y-92102299D01*
X132669873Y-91937555D01*
X132591232Y-91783212D01*
X132489414Y-91643072D01*
X132366928Y-91520586D01*
X132226788Y-91418768D01*
X132072445Y-91340127D01*
X131907701Y-91286598D01*
X131907699Y-91286597D01*
X131907698Y-91286597D01*
X131755388Y-91262474D01*
X131736611Y-91259500D01*
X130763389Y-91259500D01*
X130744612Y-91262474D01*
X130592302Y-91286597D01*
X130427552Y-91340128D01*
X130273211Y-91418768D01*
X130211049Y-91463932D01*
X130133072Y-91520586D01*
X130133070Y-91520588D01*
X130133069Y-91520588D01*
X130010588Y-91643069D01*
X130010588Y-91643070D01*
X130010586Y-91643072D01*
X129966859Y-91703256D01*
X129908768Y-91783211D01*
X129830128Y-91937552D01*
X129776597Y-92102302D01*
X129749500Y-92273389D01*
X117580500Y-92273389D01*
X117580500Y-89673389D01*
X129749500Y-89673389D01*
X129749500Y-89846611D01*
X129776598Y-90017701D01*
X129830127Y-90182445D01*
X129908768Y-90336788D01*
X130010586Y-90476928D01*
X130133072Y-90599414D01*
X130273212Y-90701232D01*
X130427555Y-90779873D01*
X130592299Y-90833402D01*
X130763389Y-90860500D01*
X130763390Y-90860500D01*
X131736610Y-90860500D01*
X131736611Y-90860500D01*
X131907701Y-90833402D01*
X132072445Y-90779873D01*
X132226788Y-90701232D01*
X132366928Y-90599414D01*
X132489414Y-90476928D01*
X132591232Y-90336788D01*
X132669873Y-90182445D01*
X132723402Y-90017701D01*
X132750500Y-89846611D01*
X132750500Y-89693389D01*
X155249500Y-89693389D01*
X155249500Y-89866610D01*
X155273429Y-90017697D01*
X155276598Y-90037701D01*
X155330127Y-90202445D01*
X155408768Y-90356788D01*
X155510586Y-90496928D01*
X155633072Y-90619414D01*
X155773212Y-90721232D01*
X155927555Y-90799873D01*
X156092299Y-90853402D01*
X156263389Y-90880500D01*
X156263390Y-90880500D01*
X157236610Y-90880500D01*
X157236611Y-90880500D01*
X157407701Y-90853402D01*
X157572445Y-90799873D01*
X157726788Y-90721232D01*
X157866928Y-90619414D01*
X157989414Y-90496928D01*
X158091232Y-90356788D01*
X158169873Y-90202445D01*
X158223402Y-90037701D01*
X158250500Y-89866611D01*
X158250500Y-89693389D01*
X158223402Y-89522299D01*
X158169873Y-89357555D01*
X158091232Y-89203212D01*
X157989414Y-89063072D01*
X157866928Y-88940586D01*
X157726788Y-88838768D01*
X157572445Y-88760127D01*
X157407701Y-88706598D01*
X157407699Y-88706597D01*
X157407698Y-88706597D01*
X157276271Y-88685781D01*
X157236611Y-88679500D01*
X156263389Y-88679500D01*
X156223728Y-88685781D01*
X156092302Y-88706597D01*
X155927552Y-88760128D01*
X155773211Y-88838768D01*
X155693256Y-88896859D01*
X155633072Y-88940586D01*
X155633070Y-88940588D01*
X155633069Y-88940588D01*
X155510588Y-89063069D01*
X155510588Y-89063070D01*
X155510586Y-89063072D01*
X155489330Y-89092328D01*
X155408768Y-89203211D01*
X155330128Y-89357552D01*
X155276597Y-89522302D01*
X155249500Y-89693389D01*
X132750500Y-89693389D01*
X132750500Y-89673389D01*
X132723402Y-89502299D01*
X132669873Y-89337555D01*
X132591232Y-89183212D01*
X132489414Y-89043072D01*
X132366928Y-88920586D01*
X132226788Y-88818768D01*
X132072445Y-88740127D01*
X131907701Y-88686598D01*
X131907699Y-88686597D01*
X131907698Y-88686597D01*
X131776271Y-88665781D01*
X131736611Y-88659500D01*
X130763389Y-88659500D01*
X130723728Y-88665781D01*
X130592302Y-88686597D01*
X130427552Y-88740128D01*
X130273211Y-88818768D01*
X130245684Y-88838768D01*
X130133072Y-88920586D01*
X130133070Y-88920588D01*
X130133069Y-88920588D01*
X130010588Y-89043069D01*
X130010588Y-89043070D01*
X130010586Y-89043072D01*
X129996057Y-89063070D01*
X129908768Y-89183211D01*
X129830128Y-89337552D01*
X129776597Y-89502302D01*
X129759910Y-89607664D01*
X129749500Y-89673389D01*
X117580500Y-89673389D01*
X117580500Y-87153389D01*
X129749500Y-87153389D01*
X129749500Y-87326611D01*
X129776598Y-87497701D01*
X129830127Y-87662445D01*
X129908768Y-87816788D01*
X130010586Y-87956928D01*
X130133072Y-88079414D01*
X130273212Y-88181232D01*
X130427555Y-88259873D01*
X130592299Y-88313402D01*
X130763389Y-88340500D01*
X130763390Y-88340500D01*
X131736610Y-88340500D01*
X131736611Y-88340500D01*
X131907701Y-88313402D01*
X132072445Y-88259873D01*
X132226788Y-88181232D01*
X132366928Y-88079414D01*
X132489414Y-87956928D01*
X132591232Y-87816788D01*
X132669873Y-87662445D01*
X132723402Y-87497701D01*
X132750500Y-87326611D01*
X132750500Y-87153389D01*
X155249500Y-87153389D01*
X155249500Y-87326611D01*
X155276598Y-87497701D01*
X155330127Y-87662445D01*
X155408768Y-87816788D01*
X155510586Y-87956928D01*
X155633072Y-88079414D01*
X155773212Y-88181232D01*
X155927555Y-88259873D01*
X156092299Y-88313402D01*
X156263389Y-88340500D01*
X156263390Y-88340500D01*
X157236610Y-88340500D01*
X157236611Y-88340500D01*
X157407701Y-88313402D01*
X157572445Y-88259873D01*
X157726788Y-88181232D01*
X157866928Y-88079414D01*
X157989414Y-87956928D01*
X158091232Y-87816788D01*
X158169873Y-87662445D01*
X158223402Y-87497701D01*
X158250500Y-87326611D01*
X158250500Y-87153389D01*
X158223402Y-86982299D01*
X158169873Y-86817555D01*
X158091232Y-86663212D01*
X157989414Y-86523072D01*
X157866928Y-86400586D01*
X157726788Y-86298768D01*
X157572445Y-86220127D01*
X157407701Y-86166598D01*
X157407699Y-86166597D01*
X157407698Y-86166597D01*
X157276271Y-86145781D01*
X157236611Y-86139500D01*
X156263389Y-86139500D01*
X156223728Y-86145781D01*
X156092302Y-86166597D01*
X155927552Y-86220128D01*
X155773211Y-86298768D01*
X155693256Y-86356859D01*
X155633072Y-86400586D01*
X155633070Y-86400588D01*
X155633069Y-86400588D01*
X155510588Y-86523069D01*
X155510588Y-86523070D01*
X155510586Y-86523072D01*
X155466859Y-86583256D01*
X155408768Y-86663211D01*
X155330128Y-86817552D01*
X155276597Y-86982302D01*
X155266811Y-87044091D01*
X155249500Y-87153389D01*
X132750500Y-87153389D01*
X132723402Y-86982299D01*
X132669873Y-86817555D01*
X132591232Y-86663212D01*
X132489414Y-86523072D01*
X132366928Y-86400586D01*
X132226788Y-86298768D01*
X132072445Y-86220127D01*
X131907701Y-86166598D01*
X131907699Y-86166597D01*
X131907698Y-86166597D01*
X131776271Y-86145781D01*
X131736611Y-86139500D01*
X130763389Y-86139500D01*
X130723728Y-86145781D01*
X130592302Y-86166597D01*
X130427552Y-86220128D01*
X130273211Y-86298768D01*
X130193256Y-86356859D01*
X130133072Y-86400586D01*
X130133070Y-86400588D01*
X130133069Y-86400588D01*
X130010588Y-86523069D01*
X130010588Y-86523070D01*
X130010586Y-86523072D01*
X129966859Y-86583256D01*
X129908768Y-86663211D01*
X129830128Y-86817552D01*
X129776597Y-86982302D01*
X129766811Y-87044091D01*
X129749500Y-87153389D01*
X117580500Y-87153389D01*
X117580500Y-85617204D01*
X117600185Y-85550165D01*
X117616819Y-85529523D01*
X117669414Y-85476928D01*
X117771232Y-85336788D01*
X117849873Y-85182445D01*
X117903402Y-85017701D01*
X117930500Y-84846611D01*
X117930500Y-84673389D01*
X117920997Y-84613389D01*
X129749500Y-84613389D01*
X129749500Y-84786611D01*
X129776598Y-84957701D01*
X129830127Y-85122445D01*
X129908768Y-85276788D01*
X130010586Y-85416928D01*
X130133072Y-85539414D01*
X130273212Y-85641232D01*
X130427555Y-85719873D01*
X130592299Y-85773402D01*
X130763389Y-85800500D01*
X130763390Y-85800500D01*
X131736610Y-85800500D01*
X131736611Y-85800500D01*
X131907701Y-85773402D01*
X132072445Y-85719873D01*
X132226788Y-85641232D01*
X132366928Y-85539414D01*
X132489414Y-85416928D01*
X132591232Y-85276788D01*
X132669873Y-85122445D01*
X132723402Y-84957701D01*
X132750500Y-84786611D01*
X132750500Y-84613389D01*
X155249500Y-84613389D01*
X155249500Y-84786611D01*
X155276598Y-84957701D01*
X155330127Y-85122445D01*
X155408768Y-85276788D01*
X155510586Y-85416928D01*
X155633072Y-85539414D01*
X155773212Y-85641232D01*
X155927555Y-85719873D01*
X156092299Y-85773402D01*
X156263389Y-85800500D01*
X156263390Y-85800500D01*
X157236610Y-85800500D01*
X157236611Y-85800500D01*
X157407701Y-85773402D01*
X157572445Y-85719873D01*
X157726788Y-85641232D01*
X157866928Y-85539414D01*
X157989414Y-85416928D01*
X158091232Y-85276788D01*
X158169873Y-85122445D01*
X158223402Y-84957701D01*
X158250500Y-84786611D01*
X158250500Y-84613389D01*
X158223402Y-84442299D01*
X158169873Y-84277555D01*
X158091232Y-84123212D01*
X157989414Y-83983072D01*
X157866928Y-83860586D01*
X157726788Y-83758768D01*
X157572445Y-83680127D01*
X157407701Y-83626598D01*
X157407699Y-83626597D01*
X157407698Y-83626597D01*
X157276271Y-83605781D01*
X157236611Y-83599500D01*
X156263389Y-83599500D01*
X156223728Y-83605781D01*
X156092302Y-83626597D01*
X155927552Y-83680128D01*
X155773211Y-83758768D01*
X155706163Y-83807482D01*
X155633072Y-83860586D01*
X155633070Y-83860588D01*
X155633069Y-83860588D01*
X155510588Y-83983069D01*
X155510588Y-83983070D01*
X155510586Y-83983072D01*
X155466995Y-84043069D01*
X155408768Y-84123211D01*
X155330128Y-84277552D01*
X155276597Y-84442302D01*
X155267122Y-84502127D01*
X155249500Y-84613389D01*
X132750500Y-84613389D01*
X132723402Y-84442299D01*
X132669873Y-84277555D01*
X132591232Y-84123212D01*
X132489414Y-83983072D01*
X132366928Y-83860586D01*
X132226788Y-83758768D01*
X132072445Y-83680127D01*
X131907701Y-83626598D01*
X131907699Y-83626597D01*
X131907698Y-83626597D01*
X131776271Y-83605781D01*
X131736611Y-83599500D01*
X130763389Y-83599500D01*
X130723728Y-83605781D01*
X130592302Y-83626597D01*
X130427552Y-83680128D01*
X130273211Y-83758768D01*
X130206163Y-83807482D01*
X130133072Y-83860586D01*
X130133070Y-83860588D01*
X130133069Y-83860588D01*
X130010588Y-83983069D01*
X130010588Y-83983070D01*
X130010586Y-83983072D01*
X129966995Y-84043069D01*
X129908768Y-84123211D01*
X129830128Y-84277552D01*
X129776597Y-84442302D01*
X129767122Y-84502127D01*
X129749500Y-84613389D01*
X117920997Y-84613389D01*
X117903402Y-84502299D01*
X117849873Y-84337555D01*
X117771232Y-84183212D01*
X117669414Y-84043072D01*
X117546928Y-83920586D01*
X117406788Y-83818768D01*
X117252445Y-83740127D01*
X117087701Y-83686598D01*
X117087699Y-83686597D01*
X117087698Y-83686597D01*
X116956271Y-83665781D01*
X116916611Y-83659500D01*
X116743389Y-83659500D01*
X116703728Y-83665781D01*
X116572302Y-83686597D01*
X116407552Y-83740128D01*
X116253211Y-83818768D01*
X116195652Y-83860588D01*
X116113072Y-83920586D01*
X116113070Y-83920588D01*
X116113069Y-83920588D01*
X115990588Y-84043069D01*
X115990588Y-84043070D01*
X115990586Y-84043072D01*
X115950775Y-84097867D01*
X115888768Y-84183211D01*
X115810128Y-84337552D01*
X115756597Y-84502302D01*
X115734390Y-84642516D01*
X115729500Y-84673389D01*
X112450500Y-84673389D01*
X112450500Y-81512135D01*
X155249500Y-81512135D01*
X155249500Y-82807870D01*
X155249501Y-82807876D01*
X155255908Y-82867483D01*
X155306202Y-83002328D01*
X155306206Y-83002335D01*
X155392452Y-83117544D01*
X155392455Y-83117547D01*
X155507664Y-83203793D01*
X155507671Y-83203797D01*
X155642517Y-83254091D01*
X155642516Y-83254091D01*
X155649444Y-83254835D01*
X155702127Y-83260500D01*
X157797872Y-83260499D01*
X157857483Y-83254091D01*
X157992331Y-83203796D01*
X158017128Y-83185233D01*
X158082592Y-83160816D01*
X158091439Y-83160500D01*
X158894218Y-83160500D01*
X158961257Y-83180185D01*
X158981899Y-83196819D01*
X166639874Y-90854794D01*
X166639903Y-90854825D01*
X166782353Y-90997275D01*
X166782357Y-90997278D01*
X166946218Y-91106767D01*
X166946222Y-91106769D01*
X166946225Y-91106771D01*
X167073361Y-91159432D01*
X167128303Y-91182190D01*
X167224951Y-91201414D01*
X167296335Y-91215613D01*
X167321597Y-91220639D01*
X167321598Y-91220639D01*
X167321599Y-91220639D01*
X167518679Y-91220639D01*
X174812820Y-91220639D01*
X174879859Y-91240324D01*
X174912085Y-91270326D01*
X174992454Y-91377685D01*
X175019422Y-91397873D01*
X175107664Y-91463932D01*
X175107671Y-91463936D01*
X175242517Y-91514230D01*
X175242516Y-91514230D01*
X175249444Y-91514974D01*
X175302127Y-91520639D01*
X176997872Y-91520638D01*
X177057483Y-91514230D01*
X177192331Y-91463935D01*
X177307546Y-91377685D01*
X177393796Y-91262470D01*
X177444091Y-91127622D01*
X177450500Y-91068012D01*
X177450499Y-89372267D01*
X177444091Y-89312656D01*
X177420995Y-89250733D01*
X177393797Y-89177810D01*
X177393793Y-89177803D01*
X177307547Y-89062594D01*
X177307544Y-89062591D01*
X177192335Y-88976345D01*
X177192328Y-88976341D01*
X177057482Y-88926047D01*
X177057483Y-88926047D01*
X176997883Y-88919640D01*
X176997881Y-88919639D01*
X176997873Y-88919639D01*
X176997864Y-88919639D01*
X175302129Y-88919639D01*
X175302123Y-88919640D01*
X175242516Y-88926047D01*
X175107671Y-88976341D01*
X175107664Y-88976345D01*
X174992456Y-89062591D01*
X174992455Y-89062592D01*
X174992454Y-89062593D01*
X174912087Y-89169950D01*
X174856153Y-89211821D01*
X174812820Y-89219639D01*
X167885921Y-89219639D01*
X167818882Y-89199954D01*
X167798240Y-89183320D01*
X160141479Y-81526559D01*
X160141459Y-81526537D01*
X159997785Y-81382863D01*
X159997781Y-81382860D01*
X159833920Y-81273371D01*
X159833911Y-81273366D01*
X159761315Y-81243296D01*
X159705165Y-81220038D01*
X159651836Y-81197949D01*
X159651832Y-81197948D01*
X159651828Y-81197946D01*
X159555188Y-81178724D01*
X159458544Y-81159500D01*
X159458541Y-81159500D01*
X158091439Y-81159500D01*
X158042814Y-81149569D01*
X158029080Y-81143714D01*
X157992331Y-81116204D01*
X157857483Y-81065909D01*
X157842870Y-81064337D01*
X157825875Y-81057093D01*
X157812585Y-81046157D01*
X157796688Y-81039571D01*
X157786167Y-81024417D01*
X157771924Y-81012696D01*
X157766657Y-80996314D01*
X157756843Y-80982177D01*
X157751489Y-80949133D01*
X157750540Y-80946179D01*
X157750832Y-80945078D01*
X157750500Y-80943024D01*
X157750500Y-76919548D01*
X196099500Y-76919548D01*
X196099500Y-78580451D01*
X196109544Y-78678763D01*
X196162331Y-78838065D01*
X196162333Y-78838070D01*
X196164961Y-78842331D01*
X196240242Y-78964380D01*
X196258682Y-79031771D01*
X196237760Y-79098435D01*
X196233970Y-79103787D01*
X196156204Y-79207669D01*
X196156202Y-79207671D01*
X196105908Y-79342517D01*
X196099501Y-79402116D01*
X196099501Y-79402123D01*
X196099500Y-79402135D01*
X196099500Y-81497870D01*
X196099501Y-81497876D01*
X196105908Y-81557483D01*
X196159303Y-81700641D01*
X196157575Y-81701285D01*
X196170095Y-81758853D01*
X196158310Y-81798988D01*
X196159303Y-81799359D01*
X196105908Y-81942517D01*
X196099501Y-82002116D01*
X196099501Y-82002123D01*
X196099500Y-82002135D01*
X196099500Y-84097870D01*
X196099501Y-84097876D01*
X196105909Y-84157484D01*
X196142901Y-84256668D01*
X196147885Y-84326360D01*
X196142901Y-84343332D01*
X196105909Y-84442514D01*
X196105908Y-84442516D01*
X196099501Y-84502116D01*
X196099501Y-84502123D01*
X196099500Y-84502135D01*
X196099500Y-86597870D01*
X196099501Y-86597876D01*
X196105908Y-86657483D01*
X196156202Y-86792328D01*
X196156206Y-86792335D01*
X196242452Y-86907544D01*
X196242455Y-86907547D01*
X196357664Y-86993793D01*
X196357671Y-86993797D01*
X196492517Y-87044091D01*
X196492516Y-87044091D01*
X196499444Y-87044835D01*
X196552127Y-87050500D01*
X199147872Y-87050499D01*
X199207483Y-87044091D01*
X199342331Y-86993796D01*
X199457546Y-86907546D01*
X199543796Y-86792331D01*
X199594091Y-86657483D01*
X199600500Y-86597873D01*
X199600499Y-84502128D01*
X199594091Y-84442517D01*
X199557096Y-84343330D01*
X199555562Y-84321882D01*
X199549286Y-84301315D01*
X199552697Y-84281814D01*
X199552113Y-84273642D01*
X199553938Y-84266329D01*
X199555316Y-84261442D01*
X199594091Y-84157483D01*
X199596841Y-84131902D01*
X205149500Y-84131902D01*
X205149500Y-84368097D01*
X205186446Y-84601368D01*
X205259433Y-84825996D01*
X205366657Y-85036433D01*
X205505483Y-85227510D01*
X205672490Y-85394517D01*
X205863567Y-85533343D01*
X205927350Y-85565842D01*
X206074003Y-85640566D01*
X206074005Y-85640566D01*
X206074008Y-85640568D01*
X206194412Y-85679689D01*
X206298631Y-85713553D01*
X206531903Y-85750500D01*
X206531908Y-85750500D01*
X206768097Y-85750500D01*
X207001368Y-85713553D01*
X207225992Y-85640568D01*
X207436433Y-85533343D01*
X207627510Y-85394517D01*
X207794517Y-85227510D01*
X207933343Y-85036433D01*
X208040568Y-84825992D01*
X208113553Y-84601368D01*
X208128393Y-84507671D01*
X208150500Y-84368097D01*
X208150500Y-84131902D01*
X219649500Y-84131902D01*
X219649500Y-84368097D01*
X219686446Y-84601368D01*
X219759433Y-84825996D01*
X219866657Y-85036433D01*
X220005483Y-85227510D01*
X220172490Y-85394517D01*
X220363567Y-85533343D01*
X220427350Y-85565842D01*
X220574003Y-85640566D01*
X220574005Y-85640566D01*
X220574008Y-85640568D01*
X220694412Y-85679689D01*
X220798631Y-85713553D01*
X221031903Y-85750500D01*
X221031908Y-85750500D01*
X221268097Y-85750500D01*
X221501368Y-85713553D01*
X221725992Y-85640568D01*
X221936433Y-85533343D01*
X222127510Y-85394517D01*
X222294517Y-85227510D01*
X222433343Y-85036433D01*
X222540568Y-84825992D01*
X222613553Y-84601368D01*
X222628393Y-84507671D01*
X222650500Y-84368097D01*
X222650500Y-84131902D01*
X222613553Y-83898631D01*
X222568108Y-83758768D01*
X222540568Y-83674008D01*
X222540566Y-83674005D01*
X222540566Y-83674003D01*
X222433342Y-83463566D01*
X222294517Y-83272490D01*
X222127510Y-83105483D01*
X221936433Y-82966657D01*
X221725996Y-82859433D01*
X221501368Y-82786446D01*
X221268097Y-82749500D01*
X221268092Y-82749500D01*
X221031908Y-82749500D01*
X221031903Y-82749500D01*
X220798631Y-82786446D01*
X220574003Y-82859433D01*
X220363566Y-82966657D01*
X220254550Y-83045862D01*
X220172490Y-83105483D01*
X220172488Y-83105485D01*
X220172487Y-83105485D01*
X220005485Y-83272487D01*
X220005485Y-83272488D01*
X220005483Y-83272490D01*
X219945862Y-83354550D01*
X219866657Y-83463566D01*
X219759433Y-83674003D01*
X219686446Y-83898631D01*
X219649500Y-84131902D01*
X208150500Y-84131902D01*
X208113553Y-83898631D01*
X208068108Y-83758768D01*
X208040568Y-83674008D01*
X208040566Y-83674005D01*
X208040566Y-83674003D01*
X207933342Y-83463566D01*
X207794517Y-83272490D01*
X207627510Y-83105483D01*
X207436433Y-82966657D01*
X207225996Y-82859433D01*
X207001368Y-82786446D01*
X206768097Y-82749500D01*
X206768092Y-82749500D01*
X206531908Y-82749500D01*
X206531903Y-82749500D01*
X206298631Y-82786446D01*
X206074003Y-82859433D01*
X205863566Y-82966657D01*
X205754550Y-83045862D01*
X205672490Y-83105483D01*
X205672488Y-83105485D01*
X205672487Y-83105485D01*
X205505485Y-83272487D01*
X205505485Y-83272488D01*
X205505483Y-83272490D01*
X205445862Y-83354550D01*
X205366657Y-83463566D01*
X205259433Y-83674003D01*
X205186446Y-83898631D01*
X205149500Y-84131902D01*
X199596841Y-84131902D01*
X199600500Y-84097873D01*
X199600499Y-82002128D01*
X199594091Y-81942517D01*
X199543796Y-81807669D01*
X199543794Y-81807666D01*
X199540696Y-81799360D01*
X199542426Y-81798714D01*
X199529902Y-81741163D01*
X199541691Y-81701011D01*
X199540696Y-81700640D01*
X199543794Y-81692333D01*
X199543796Y-81692331D01*
X199594091Y-81557483D01*
X199600500Y-81497873D01*
X199600499Y-79402128D01*
X199594091Y-79342517D01*
X199575419Y-79292456D01*
X199543797Y-79207671D01*
X199543795Y-79207668D01*
X199500251Y-79149501D01*
X199466029Y-79103786D01*
X199441612Y-79038323D01*
X199456463Y-78970050D01*
X199459749Y-78964392D01*
X199537668Y-78838068D01*
X199590455Y-78678767D01*
X199600500Y-78580444D01*
X199600500Y-78202135D01*
X205149500Y-78202135D01*
X205149500Y-80297870D01*
X205149501Y-80297876D01*
X205155908Y-80357483D01*
X205206202Y-80492328D01*
X205206206Y-80492335D01*
X205292452Y-80607544D01*
X205292455Y-80607547D01*
X205407664Y-80693793D01*
X205407671Y-80693797D01*
X205542517Y-80744091D01*
X205542516Y-80744091D01*
X205549444Y-80744835D01*
X205602127Y-80750500D01*
X207697872Y-80750499D01*
X207757483Y-80744091D01*
X207892331Y-80693796D01*
X208007546Y-80607546D01*
X208093796Y-80492331D01*
X208144091Y-80357483D01*
X208150500Y-80297873D01*
X208150499Y-78202128D01*
X208144091Y-78142517D01*
X208093796Y-78007669D01*
X208093795Y-78007668D01*
X208093793Y-78007664D01*
X208007547Y-77892455D01*
X208007544Y-77892452D01*
X207892335Y-77806206D01*
X207892328Y-77806202D01*
X207757482Y-77755908D01*
X207757483Y-77755908D01*
X207697883Y-77749501D01*
X207697881Y-77749500D01*
X207697873Y-77749500D01*
X207697864Y-77749500D01*
X205602129Y-77749500D01*
X205602123Y-77749501D01*
X205542516Y-77755908D01*
X205407671Y-77806202D01*
X205407664Y-77806206D01*
X205292455Y-77892452D01*
X205292452Y-77892455D01*
X205206206Y-78007664D01*
X205206202Y-78007671D01*
X205155908Y-78142517D01*
X205149501Y-78202116D01*
X205149501Y-78202123D01*
X205149500Y-78202135D01*
X199600500Y-78202135D01*
X199600500Y-76919556D01*
X199590455Y-76821233D01*
X199537668Y-76661932D01*
X199449567Y-76519098D01*
X199330902Y-76400433D01*
X199188068Y-76312332D01*
X199028767Y-76259545D01*
X199028764Y-76259544D01*
X199028765Y-76259544D01*
X198930451Y-76249500D01*
X198930444Y-76249500D01*
X196769556Y-76249500D01*
X196769548Y-76249500D01*
X196671236Y-76259544D01*
X196511934Y-76312331D01*
X196511929Y-76312333D01*
X196369096Y-76400434D01*
X196250434Y-76519096D01*
X196162333Y-76661929D01*
X196162331Y-76661934D01*
X196109544Y-76821236D01*
X196099500Y-76919548D01*
X157750500Y-76919548D01*
X157750500Y-74374770D01*
X157770185Y-74307731D01*
X157800189Y-74275503D01*
X157802468Y-74273796D01*
X157802470Y-74273796D01*
X157917685Y-74187546D01*
X158003935Y-74072331D01*
X158054230Y-73937483D01*
X158060639Y-73877873D01*
X158060638Y-72182128D01*
X158054230Y-72122517D01*
X158003935Y-71987669D01*
X158003934Y-71987668D01*
X158003932Y-71987664D01*
X157917686Y-71872455D01*
X157917683Y-71872452D01*
X157802474Y-71786206D01*
X157802467Y-71786202D01*
X157667621Y-71735908D01*
X157667622Y-71735908D01*
X157608022Y-71729501D01*
X157608020Y-71729500D01*
X157608012Y-71729500D01*
X157608003Y-71729500D01*
X155912268Y-71729500D01*
X155912262Y-71729501D01*
X155852655Y-71735908D01*
X155717810Y-71786202D01*
X155717803Y-71786206D01*
X155602594Y-71872452D01*
X155602591Y-71872455D01*
X155516345Y-71987664D01*
X155516341Y-71987671D01*
X155466047Y-72122517D01*
X155459640Y-72182116D01*
X155459640Y-72182123D01*
X155459639Y-72182135D01*
X155459639Y-73877870D01*
X155459640Y-73877876D01*
X155466047Y-73937483D01*
X155516341Y-74072328D01*
X155516345Y-74072335D01*
X155555222Y-74124267D01*
X155602593Y-74187546D01*
X155699811Y-74260323D01*
X155741682Y-74316257D01*
X155749500Y-74359590D01*
X155749500Y-80943023D01*
X155729815Y-81010062D01*
X155677011Y-81055817D01*
X155649865Y-81063266D01*
X155650068Y-81064124D01*
X155642520Y-81065907D01*
X155507671Y-81116202D01*
X155507664Y-81116206D01*
X155392455Y-81202452D01*
X155392452Y-81202455D01*
X155306206Y-81317664D01*
X155306202Y-81317671D01*
X155255908Y-81452517D01*
X155249501Y-81512116D01*
X155249500Y-81512135D01*
X112450500Y-81512135D01*
X112450500Y-76201989D01*
X112470185Y-76134950D01*
X112474173Y-76129115D01*
X112549524Y-76025405D01*
X112638884Y-75850025D01*
X112699709Y-75662826D01*
X112730500Y-75468422D01*
X112730500Y-75271577D01*
X112699709Y-75077173D01*
X112638882Y-74889970D01*
X112549523Y-74714594D01*
X112433828Y-74555354D01*
X112294646Y-74416172D01*
X112135405Y-74300476D01*
X112121084Y-74293179D01*
X111960029Y-74211117D01*
X111772826Y-74150290D01*
X111578422Y-74119500D01*
X111578417Y-74119500D01*
X111381583Y-74119500D01*
X111381578Y-74119500D01*
X111187173Y-74150290D01*
X110999970Y-74211117D01*
X110824594Y-74300476D01*
X110814609Y-74307731D01*
X110665354Y-74416172D01*
X110665352Y-74416174D01*
X110665351Y-74416174D01*
X110526174Y-74555351D01*
X110526174Y-74555352D01*
X110526172Y-74555354D01*
X110476485Y-74623741D01*
X110410476Y-74714594D01*
X110321117Y-74889970D01*
X110260290Y-75077173D01*
X110229500Y-75271577D01*
X110229500Y-75468422D01*
X110260290Y-75662826D01*
X110321117Y-75850029D01*
X110404363Y-76013407D01*
X110410476Y-76025405D01*
X110410480Y-76025410D01*
X110425818Y-76046521D01*
X110449298Y-76112327D01*
X110449500Y-76119406D01*
X110449500Y-105656829D01*
X110429815Y-105723868D01*
X110425822Y-105729708D01*
X110420576Y-105736930D01*
X110400476Y-105764594D01*
X110311117Y-105939970D01*
X110250290Y-106127173D01*
X110219500Y-106321577D01*
X81500500Y-106321577D01*
X81500500Y-87302135D01*
X92149500Y-87302135D01*
X92149500Y-88897870D01*
X92149501Y-88897876D01*
X92155908Y-88957483D01*
X92206202Y-89092328D01*
X92206206Y-89092335D01*
X92292452Y-89207544D01*
X92292453Y-89207544D01*
X92292454Y-89207546D01*
X92298165Y-89211821D01*
X92350145Y-89250734D01*
X92392015Y-89306668D01*
X92396999Y-89376360D01*
X92363513Y-89437683D01*
X92350145Y-89449266D01*
X92292452Y-89492455D01*
X92206206Y-89607664D01*
X92206202Y-89607671D01*
X92155908Y-89742517D01*
X92149501Y-89802116D01*
X92149501Y-89802123D01*
X92149500Y-89802135D01*
X92149500Y-91397870D01*
X92149501Y-91397876D01*
X92155908Y-91457483D01*
X92206202Y-91592328D01*
X92206206Y-91592335D01*
X92292452Y-91707544D01*
X92292455Y-91707547D01*
X92383540Y-91775734D01*
X92425411Y-91831668D01*
X92430395Y-91901359D01*
X92396909Y-91962682D01*
X92383540Y-91974266D01*
X92292455Y-92042452D01*
X92292452Y-92042455D01*
X92206206Y-92157664D01*
X92206202Y-92157671D01*
X92155908Y-92292517D01*
X92152470Y-92324500D01*
X92149501Y-92352123D01*
X92149500Y-92352135D01*
X92149500Y-93947870D01*
X92149501Y-93947876D01*
X92155908Y-94007483D01*
X92206202Y-94142328D01*
X92206206Y-94142335D01*
X92292452Y-94257544D01*
X92292455Y-94257547D01*
X92383540Y-94325734D01*
X92425411Y-94381668D01*
X92430395Y-94451359D01*
X92396909Y-94512682D01*
X92383540Y-94524266D01*
X92292455Y-94592452D01*
X92292452Y-94592455D01*
X92206206Y-94707664D01*
X92206202Y-94707671D01*
X92155908Y-94842517D01*
X92149501Y-94902116D01*
X92149501Y-94902123D01*
X92149500Y-94902135D01*
X92149500Y-96497870D01*
X92149501Y-96497876D01*
X92155908Y-96557483D01*
X92206202Y-96692328D01*
X92206206Y-96692335D01*
X92292452Y-96807544D01*
X92292455Y-96807547D01*
X92383540Y-96875734D01*
X92425411Y-96931668D01*
X92430395Y-97001359D01*
X92396909Y-97062682D01*
X92383540Y-97074266D01*
X92292455Y-97142452D01*
X92292452Y-97142455D01*
X92206206Y-97257664D01*
X92206202Y-97257671D01*
X92155908Y-97392517D01*
X92151942Y-97429411D01*
X92149501Y-97452123D01*
X92149500Y-97452135D01*
X92149500Y-99047870D01*
X92149501Y-99047876D01*
X92155908Y-99107483D01*
X92206202Y-99242328D01*
X92206206Y-99242335D01*
X92292452Y-99357544D01*
X92292455Y-99357547D01*
X92407664Y-99443793D01*
X92407671Y-99443797D01*
X92542517Y-99494091D01*
X92542516Y-99494091D01*
X92549444Y-99494835D01*
X92602127Y-99500500D01*
X95197872Y-99500499D01*
X95257483Y-99494091D01*
X95392331Y-99443796D01*
X95507546Y-99357546D01*
X95593796Y-99242331D01*
X95644091Y-99107483D01*
X95650500Y-99047873D01*
X95650499Y-97452128D01*
X95644091Y-97392517D01*
X95612168Y-97306928D01*
X95593797Y-97257671D01*
X95593793Y-97257664D01*
X95507547Y-97142456D01*
X95507548Y-97142456D01*
X95507546Y-97142454D01*
X95416457Y-97074265D01*
X95374588Y-97018333D01*
X95369604Y-96948641D01*
X95403089Y-96887318D01*
X95416452Y-96875738D01*
X95507546Y-96807546D01*
X95593796Y-96692331D01*
X95644091Y-96557483D01*
X95650500Y-96497873D01*
X95650499Y-94902128D01*
X95644091Y-94842517D01*
X95629339Y-94802966D01*
X95593797Y-94707671D01*
X95593793Y-94707664D01*
X95507547Y-94592456D01*
X95507548Y-94592456D01*
X95507546Y-94592454D01*
X95416457Y-94524265D01*
X95374588Y-94468333D01*
X95369604Y-94398641D01*
X95403089Y-94337318D01*
X95416452Y-94325738D01*
X95507546Y-94257546D01*
X95593796Y-94142331D01*
X95644091Y-94007483D01*
X95650500Y-93947873D01*
X95650499Y-93338389D01*
X105274500Y-93338389D01*
X105274500Y-93511611D01*
X105282677Y-93563239D01*
X105284944Y-93577555D01*
X105301598Y-93682701D01*
X105355127Y-93847445D01*
X105433768Y-94001788D01*
X105535586Y-94141928D01*
X105535588Y-94141930D01*
X105593181Y-94199523D01*
X105626666Y-94260846D01*
X105629500Y-94287204D01*
X105629500Y-98812796D01*
X105609815Y-98879835D01*
X105593181Y-98900477D01*
X105540588Y-98953069D01*
X105540588Y-98953070D01*
X105540586Y-98953072D01*
X105507386Y-98998768D01*
X105438768Y-99093211D01*
X105360128Y-99247552D01*
X105306597Y-99412302D01*
X105289927Y-99517555D01*
X105279500Y-99583389D01*
X105279500Y-99756611D01*
X105306598Y-99927701D01*
X105360127Y-100092445D01*
X105438768Y-100246788D01*
X105540586Y-100386928D01*
X105663072Y-100509414D01*
X105803212Y-100611232D01*
X105957555Y-100689873D01*
X106122299Y-100743402D01*
X106293389Y-100770500D01*
X106293390Y-100770500D01*
X106466610Y-100770500D01*
X106466611Y-100770500D01*
X106637701Y-100743402D01*
X106802445Y-100689873D01*
X106956788Y-100611232D01*
X107096928Y-100509414D01*
X107219414Y-100386928D01*
X107321232Y-100246788D01*
X107399873Y-100092445D01*
X107453402Y-99927701D01*
X107480500Y-99756611D01*
X107480500Y-99583389D01*
X107453402Y-99412299D01*
X107399873Y-99247555D01*
X107321232Y-99093212D01*
X107219414Y-98953072D01*
X107166819Y-98900477D01*
X107133334Y-98839154D01*
X107130500Y-98812796D01*
X107130500Y-94277204D01*
X107150185Y-94210165D01*
X107166819Y-94189523D01*
X107214414Y-94141928D01*
X107316232Y-94001788D01*
X107394873Y-93847445D01*
X107448402Y-93682701D01*
X107475500Y-93511611D01*
X107475500Y-93338389D01*
X107448402Y-93167299D01*
X107394873Y-93002555D01*
X107316232Y-92848212D01*
X107214414Y-92708072D01*
X107091928Y-92585586D01*
X106951788Y-92483768D01*
X106797445Y-92405127D01*
X106632701Y-92351598D01*
X106632699Y-92351597D01*
X106632698Y-92351597D01*
X106501271Y-92330781D01*
X106461611Y-92324500D01*
X106288389Y-92324500D01*
X106248728Y-92330781D01*
X106117302Y-92351597D01*
X105952552Y-92405128D01*
X105798211Y-92483768D01*
X105718256Y-92541859D01*
X105658072Y-92585586D01*
X105658070Y-92585588D01*
X105658069Y-92585588D01*
X105535588Y-92708069D01*
X105535588Y-92708070D01*
X105535586Y-92708072D01*
X105510611Y-92742447D01*
X105433768Y-92848211D01*
X105355128Y-93002552D01*
X105301597Y-93167302D01*
X105286720Y-93261232D01*
X105274500Y-93338389D01*
X95650499Y-93338389D01*
X95650499Y-93125996D01*
X95650499Y-92352129D01*
X95650498Y-92352123D01*
X95650497Y-92352116D01*
X95644091Y-92292517D01*
X95636957Y-92273391D01*
X95593797Y-92157671D01*
X95593793Y-92157664D01*
X95507547Y-92042456D01*
X95507548Y-92042456D01*
X95507546Y-92042454D01*
X95416457Y-91974265D01*
X95374588Y-91918333D01*
X95369604Y-91848641D01*
X95403089Y-91787318D01*
X95416452Y-91775738D01*
X95507546Y-91707546D01*
X95593796Y-91592331D01*
X95644091Y-91457483D01*
X95650500Y-91397873D01*
X95650499Y-89802128D01*
X95644091Y-89742517D01*
X95625767Y-89693389D01*
X95593797Y-89607671D01*
X95593793Y-89607664D01*
X95507547Y-89492456D01*
X95507548Y-89492456D01*
X95507546Y-89492454D01*
X95449854Y-89449265D01*
X95407984Y-89393333D01*
X95403000Y-89323641D01*
X95436485Y-89262318D01*
X95449854Y-89250734D01*
X95507546Y-89207546D01*
X95593796Y-89092331D01*
X95644091Y-88957483D01*
X95650500Y-88897873D01*
X95650499Y-87302128D01*
X95644091Y-87242517D01*
X95610848Y-87153389D01*
X95593797Y-87107671D01*
X95593793Y-87107664D01*
X95507547Y-86992455D01*
X95507544Y-86992452D01*
X95401368Y-86912968D01*
X95359497Y-86857034D01*
X95354513Y-86787343D01*
X95387999Y-86726020D01*
X95432349Y-86697519D01*
X95442331Y-86693796D01*
X95557546Y-86607546D01*
X95643796Y-86492331D01*
X95694091Y-86357483D01*
X95700500Y-86297873D01*
X95700499Y-84702128D01*
X95694091Y-84642517D01*
X95688644Y-84627914D01*
X95643797Y-84507671D01*
X95643793Y-84507664D01*
X95557547Y-84392456D01*
X95557548Y-84392456D01*
X95557546Y-84392454D01*
X95466457Y-84324265D01*
X95424588Y-84268333D01*
X95419604Y-84198641D01*
X95453089Y-84137318D01*
X95466452Y-84125738D01*
X95557546Y-84057546D01*
X95643796Y-83942331D01*
X95694091Y-83807483D01*
X95700500Y-83747873D01*
X95700499Y-82152128D01*
X95694091Y-82092517D01*
X95660378Y-82002129D01*
X95643797Y-81957671D01*
X95643793Y-81957664D01*
X95557547Y-81842456D01*
X95557548Y-81842456D01*
X95557546Y-81842454D01*
X95466457Y-81774265D01*
X95424588Y-81718333D01*
X95419604Y-81648641D01*
X95453089Y-81587318D01*
X95466452Y-81575738D01*
X95557546Y-81507546D01*
X95643796Y-81392331D01*
X95694091Y-81257483D01*
X95700500Y-81197873D01*
X95700499Y-79602128D01*
X95694091Y-79542517D01*
X95643796Y-79407669D01*
X95643795Y-79407668D01*
X95643793Y-79407664D01*
X95557547Y-79292456D01*
X95557548Y-79292456D01*
X95557546Y-79292454D01*
X95466457Y-79224265D01*
X95424588Y-79168333D01*
X95419604Y-79098641D01*
X95453089Y-79037318D01*
X95466452Y-79025738D01*
X95557546Y-78957546D01*
X95643796Y-78842331D01*
X95694091Y-78707483D01*
X95700500Y-78647873D01*
X95700499Y-77052128D01*
X95694091Y-76992517D01*
X95666880Y-76919561D01*
X95643797Y-76857671D01*
X95643793Y-76857664D01*
X95557547Y-76742456D01*
X95557548Y-76742456D01*
X95557546Y-76742454D01*
X95466457Y-76674265D01*
X95424588Y-76618333D01*
X95419604Y-76548641D01*
X95453089Y-76487318D01*
X95466452Y-76475738D01*
X95557546Y-76407546D01*
X95643796Y-76292331D01*
X95694091Y-76157483D01*
X95700500Y-76097873D01*
X95700499Y-74502128D01*
X95694091Y-74442517D01*
X95663161Y-74359590D01*
X95643797Y-74307671D01*
X95643793Y-74307664D01*
X95557547Y-74192456D01*
X95557548Y-74192456D01*
X95557546Y-74192454D01*
X95466457Y-74124265D01*
X95424588Y-74068333D01*
X95419604Y-73998641D01*
X95453089Y-73937318D01*
X95466452Y-73925738D01*
X95557546Y-73857546D01*
X95643796Y-73742331D01*
X95694091Y-73607483D01*
X95700500Y-73547873D01*
X95700499Y-71952128D01*
X95694091Y-71892517D01*
X95686608Y-71872455D01*
X95643797Y-71757671D01*
X95643793Y-71757664D01*
X95557547Y-71642456D01*
X95557548Y-71642456D01*
X95557546Y-71642454D01*
X95466457Y-71574265D01*
X95424588Y-71518333D01*
X95419604Y-71448641D01*
X95453089Y-71387318D01*
X95466452Y-71375738D01*
X95557546Y-71307546D01*
X95643796Y-71192331D01*
X95694091Y-71057483D01*
X95700500Y-70997873D01*
X95700500Y-70831902D01*
X212499500Y-70831902D01*
X212499500Y-71068097D01*
X212536446Y-71301368D01*
X212609433Y-71525996D01*
X212668773Y-71642456D01*
X212716657Y-71736433D01*
X212855483Y-71927510D01*
X213022490Y-72094517D01*
X213213567Y-72233343D01*
X213312991Y-72284002D01*
X213424003Y-72340566D01*
X213424005Y-72340566D01*
X213424008Y-72340568D01*
X213544412Y-72379689D01*
X213648631Y-72413553D01*
X213881903Y-72450500D01*
X213881908Y-72450500D01*
X214118097Y-72450500D01*
X214351368Y-72413553D01*
X214575992Y-72340568D01*
X214786433Y-72233343D01*
X214977510Y-72094517D01*
X215144517Y-71927510D01*
X215283343Y-71736433D01*
X215390568Y-71525992D01*
X215463553Y-71301368D01*
X215480823Y-71192328D01*
X215500500Y-71068097D01*
X215500500Y-70831902D01*
X215463553Y-70598631D01*
X215390566Y-70374003D01*
X215283342Y-70163566D01*
X215144517Y-69972490D01*
X214977510Y-69805483D01*
X214786433Y-69666657D01*
X214575996Y-69559433D01*
X214351368Y-69486446D01*
X214118097Y-69449500D01*
X214118092Y-69449500D01*
X213881908Y-69449500D01*
X213881903Y-69449500D01*
X213648631Y-69486446D01*
X213424003Y-69559433D01*
X213213566Y-69666657D01*
X213104550Y-69745862D01*
X213022490Y-69805483D01*
X213022488Y-69805485D01*
X213022487Y-69805485D01*
X212855485Y-69972487D01*
X212855485Y-69972488D01*
X212855483Y-69972490D01*
X212795862Y-70054550D01*
X212716657Y-70163566D01*
X212609433Y-70374003D01*
X212536446Y-70598631D01*
X212499500Y-70831902D01*
X95700500Y-70831902D01*
X95700499Y-70163567D01*
X95700499Y-69402129D01*
X95700498Y-69402123D01*
X95700497Y-69402116D01*
X95694091Y-69342517D01*
X95643796Y-69207669D01*
X95643795Y-69207668D01*
X95643793Y-69207664D01*
X95557547Y-69092455D01*
X95557544Y-69092452D01*
X95442335Y-69006206D01*
X95442328Y-69006202D01*
X95307482Y-68955908D01*
X95307483Y-68955908D01*
X95247883Y-68949501D01*
X95247881Y-68949500D01*
X95247873Y-68949500D01*
X95247864Y-68949500D01*
X92652129Y-68949500D01*
X92652123Y-68949501D01*
X92592516Y-68955908D01*
X92457671Y-69006202D01*
X92457664Y-69006206D01*
X92342455Y-69092452D01*
X92342452Y-69092455D01*
X92256206Y-69207664D01*
X92256202Y-69207671D01*
X92205908Y-69342517D01*
X92199501Y-69402116D01*
X92199501Y-69402123D01*
X92199500Y-69402135D01*
X92199500Y-70997870D01*
X92199501Y-70997876D01*
X92205908Y-71057483D01*
X92256202Y-71192328D01*
X92256206Y-71192335D01*
X92342452Y-71307544D01*
X92342455Y-71307547D01*
X92433540Y-71375734D01*
X92475411Y-71431668D01*
X92480395Y-71501359D01*
X92446909Y-71562682D01*
X92433540Y-71574266D01*
X92342455Y-71642452D01*
X92342452Y-71642455D01*
X92256206Y-71757664D01*
X92256202Y-71757671D01*
X92205908Y-71892517D01*
X92202146Y-71927512D01*
X92199501Y-71952123D01*
X92199500Y-71952135D01*
X92199500Y-73547870D01*
X92199501Y-73547876D01*
X92205908Y-73607483D01*
X92256202Y-73742328D01*
X92256206Y-73742335D01*
X92342452Y-73857544D01*
X92342455Y-73857547D01*
X92433540Y-73925734D01*
X92475411Y-73981668D01*
X92480395Y-74051359D01*
X92446909Y-74112682D01*
X92433540Y-74124266D01*
X92342455Y-74192452D01*
X92342452Y-74192455D01*
X92256206Y-74307664D01*
X92256202Y-74307671D01*
X92205908Y-74442517D01*
X92199501Y-74502116D01*
X92199501Y-74502123D01*
X92199500Y-74502135D01*
X92199500Y-76097870D01*
X92199501Y-76097876D01*
X92205908Y-76157483D01*
X92256202Y-76292328D01*
X92256206Y-76292335D01*
X92342452Y-76407544D01*
X92342455Y-76407547D01*
X92433540Y-76475734D01*
X92475411Y-76531668D01*
X92480395Y-76601359D01*
X92446909Y-76662682D01*
X92433540Y-76674266D01*
X92342455Y-76742452D01*
X92342452Y-76742455D01*
X92256206Y-76857664D01*
X92256202Y-76857671D01*
X92205908Y-76992517D01*
X92199501Y-77052116D01*
X92199501Y-77052123D01*
X92199500Y-77052135D01*
X92199500Y-78647870D01*
X92199501Y-78647876D01*
X92205908Y-78707483D01*
X92256202Y-78842328D01*
X92256206Y-78842335D01*
X92342452Y-78957544D01*
X92342455Y-78957547D01*
X92433540Y-79025734D01*
X92475411Y-79081668D01*
X92480395Y-79151359D01*
X92446909Y-79212682D01*
X92433540Y-79224266D01*
X92342455Y-79292452D01*
X92342452Y-79292455D01*
X92256206Y-79407664D01*
X92256202Y-79407671D01*
X92205908Y-79542517D01*
X92199501Y-79602116D01*
X92199501Y-79602123D01*
X92199500Y-79602135D01*
X92199500Y-81197870D01*
X92199501Y-81197876D01*
X92205908Y-81257483D01*
X92256202Y-81392328D01*
X92256206Y-81392335D01*
X92342452Y-81507544D01*
X92342455Y-81507547D01*
X92433540Y-81575734D01*
X92475411Y-81631668D01*
X92480395Y-81701359D01*
X92446909Y-81762682D01*
X92433540Y-81774266D01*
X92342455Y-81842452D01*
X92342452Y-81842455D01*
X92256206Y-81957664D01*
X92256202Y-81957671D01*
X92205908Y-82092517D01*
X92199501Y-82152116D01*
X92199501Y-82152123D01*
X92199500Y-82152135D01*
X92199500Y-83747870D01*
X92199501Y-83747876D01*
X92205908Y-83807483D01*
X92256202Y-83942328D01*
X92256206Y-83942335D01*
X92342452Y-84057544D01*
X92342455Y-84057547D01*
X92433540Y-84125734D01*
X92475411Y-84181668D01*
X92480395Y-84251359D01*
X92446909Y-84312682D01*
X92433540Y-84324266D01*
X92342455Y-84392452D01*
X92342452Y-84392455D01*
X92256206Y-84507664D01*
X92256202Y-84507671D01*
X92205908Y-84642517D01*
X92202589Y-84673394D01*
X92199501Y-84702123D01*
X92199500Y-84702135D01*
X92199500Y-86297870D01*
X92199501Y-86297876D01*
X92205908Y-86357483D01*
X92256202Y-86492328D01*
X92256206Y-86492335D01*
X92342452Y-86607544D01*
X92342455Y-86607547D01*
X92448631Y-86687031D01*
X92490502Y-86742965D01*
X92495486Y-86812656D01*
X92462000Y-86873979D01*
X92417657Y-86902477D01*
X92407676Y-86906199D01*
X92407664Y-86906206D01*
X92292455Y-86992452D01*
X92292452Y-86992455D01*
X92206206Y-87107664D01*
X92206202Y-87107671D01*
X92155908Y-87242517D01*
X92149501Y-87302116D01*
X92149501Y-87302123D01*
X92149500Y-87302135D01*
X81500500Y-87302135D01*
X81500500Y-64466227D01*
X92199500Y-64466227D01*
X92199500Y-65733782D01*
X92205641Y-65801371D01*
X92205644Y-65801382D01*
X92254115Y-65956932D01*
X92338413Y-66096378D01*
X92453621Y-66211586D01*
X92453623Y-66211587D01*
X92453625Y-66211589D01*
X92593064Y-66295883D01*
X92748624Y-66344357D01*
X92816225Y-66350500D01*
X95183774Y-66350499D01*
X95183781Y-66350499D01*
X95251371Y-66344358D01*
X95251374Y-66344357D01*
X95251376Y-66344357D01*
X95406936Y-66295883D01*
X95546375Y-66211589D01*
X95661589Y-66096375D01*
X95745883Y-65956936D01*
X95794357Y-65801376D01*
X95800500Y-65733775D01*
X95800499Y-64501997D01*
X100929500Y-64501997D01*
X100929500Y-66197732D01*
X100929501Y-66197738D01*
X100935908Y-66257345D01*
X100986202Y-66392190D01*
X100986206Y-66392197D01*
X101072452Y-66507406D01*
X101072455Y-66507409D01*
X101187664Y-66593655D01*
X101187671Y-66593659D01*
X101322517Y-66643953D01*
X101322516Y-66643953D01*
X101329444Y-66644697D01*
X101382127Y-66650362D01*
X103077872Y-66650361D01*
X103137483Y-66643953D01*
X103272331Y-66593658D01*
X103387546Y-66507408D01*
X103473796Y-66392193D01*
X103524091Y-66257345D01*
X103530500Y-66197735D01*
X103530499Y-64501990D01*
X103524091Y-64442379D01*
X103507771Y-64398624D01*
X103473797Y-64307533D01*
X103473793Y-64307526D01*
X103387547Y-64192317D01*
X103387544Y-64192314D01*
X103272335Y-64106068D01*
X103272328Y-64106064D01*
X103137482Y-64055770D01*
X103137483Y-64055770D01*
X103077883Y-64049363D01*
X103077881Y-64049362D01*
X103077873Y-64049362D01*
X103077864Y-64049362D01*
X101382129Y-64049362D01*
X101382123Y-64049363D01*
X101322516Y-64055770D01*
X101187671Y-64106064D01*
X101187664Y-64106068D01*
X101072455Y-64192314D01*
X101072452Y-64192317D01*
X100986206Y-64307526D01*
X100986202Y-64307533D01*
X100935908Y-64442379D01*
X100929501Y-64501978D01*
X100929501Y-64501985D01*
X100929500Y-64501997D01*
X95800499Y-64501997D01*
X95800499Y-64466226D01*
X95800499Y-64466225D01*
X95800499Y-64466217D01*
X95794358Y-64398628D01*
X95794355Y-64398617D01*
X95745884Y-64243067D01*
X95745883Y-64243066D01*
X95745883Y-64243064D01*
X95661589Y-64103625D01*
X95661587Y-64103623D01*
X95661586Y-64103621D01*
X95546378Y-63988413D01*
X95406936Y-63904117D01*
X95406930Y-63904115D01*
X95251376Y-63855643D01*
X95251374Y-63855642D01*
X95251372Y-63855642D01*
X95204042Y-63851341D01*
X95183775Y-63849500D01*
X95183772Y-63849500D01*
X92816217Y-63849500D01*
X92748628Y-63855641D01*
X92748617Y-63855644D01*
X92593067Y-63904115D01*
X92453621Y-63988413D01*
X92338413Y-64103621D01*
X92254117Y-64243063D01*
X92205642Y-64398627D01*
X92199500Y-64466227D01*
X81500500Y-64466227D01*
X81500500Y-54881902D01*
X85499500Y-54881902D01*
X85499500Y-55118097D01*
X85536446Y-55351368D01*
X85609433Y-55575996D01*
X85716657Y-55786433D01*
X85855483Y-55977510D01*
X86022490Y-56144517D01*
X86213567Y-56283343D01*
X86274830Y-56314558D01*
X86424003Y-56390566D01*
X86424005Y-56390566D01*
X86424008Y-56390568D01*
X86544412Y-56429689D01*
X86648631Y-56463553D01*
X86881903Y-56500500D01*
X86881908Y-56500500D01*
X87118097Y-56500500D01*
X87351368Y-56463553D01*
X87575992Y-56390568D01*
X87786433Y-56283343D01*
X87977510Y-56144517D01*
X88144517Y-55977510D01*
X88283343Y-55786433D01*
X88390568Y-55575992D01*
X88463553Y-55351368D01*
X88477105Y-55265806D01*
X88500500Y-55118097D01*
X88500500Y-54881902D01*
X88463553Y-54648631D01*
X88429689Y-54544412D01*
X88390568Y-54424008D01*
X88390566Y-54424005D01*
X88390566Y-54424003D01*
X88345861Y-54336266D01*
X88283343Y-54213567D01*
X88280782Y-54210042D01*
X88259795Y-54181155D01*
X88259793Y-54181153D01*
X88209791Y-54112332D01*
X92699500Y-54112332D01*
X92699500Y-54387667D01*
X92699501Y-54387684D01*
X92735438Y-54660655D01*
X92735439Y-54660660D01*
X92735440Y-54660666D01*
X92735441Y-54660668D01*
X92806704Y-54926630D01*
X92912075Y-55181017D01*
X92912080Y-55181028D01*
X92991809Y-55319121D01*
X93049751Y-55419479D01*
X93049753Y-55419482D01*
X93049754Y-55419483D01*
X93217370Y-55637926D01*
X93217376Y-55637933D01*
X93412066Y-55832623D01*
X93412072Y-55832628D01*
X93630521Y-56000249D01*
X93783778Y-56088732D01*
X93868971Y-56137919D01*
X93868976Y-56137921D01*
X93868979Y-56137923D01*
X94123368Y-56243295D01*
X94389334Y-56314560D01*
X94662326Y-56350500D01*
X94662333Y-56350500D01*
X94937667Y-56350500D01*
X94937674Y-56350500D01*
X95210666Y-56314560D01*
X95476632Y-56243295D01*
X95731021Y-56137923D01*
X95969479Y-56000249D01*
X96187928Y-55832628D01*
X96382628Y-55637928D01*
X96550249Y-55419479D01*
X96687923Y-55181021D01*
X96793295Y-54926632D01*
X96864560Y-54660666D01*
X96900500Y-54387674D01*
X96900500Y-54112332D01*
X194499500Y-54112332D01*
X194499500Y-54387667D01*
X194499501Y-54387684D01*
X194535438Y-54660655D01*
X194535439Y-54660660D01*
X194535440Y-54660666D01*
X194535441Y-54660668D01*
X194606704Y-54926630D01*
X194712075Y-55181017D01*
X194712080Y-55181028D01*
X194791809Y-55319121D01*
X194849751Y-55419479D01*
X194849753Y-55419482D01*
X194849754Y-55419483D01*
X195017370Y-55637926D01*
X195017376Y-55637933D01*
X195212066Y-55832623D01*
X195212072Y-55832628D01*
X195430521Y-56000249D01*
X195583778Y-56088732D01*
X195668971Y-56137919D01*
X195668976Y-56137921D01*
X195668979Y-56137923D01*
X195923368Y-56243295D01*
X196189334Y-56314560D01*
X196462326Y-56350500D01*
X196462333Y-56350500D01*
X196737667Y-56350500D01*
X196737674Y-56350500D01*
X197010666Y-56314560D01*
X197276632Y-56243295D01*
X197531021Y-56137923D01*
X197769479Y-56000249D01*
X197987928Y-55832628D01*
X198182628Y-55637928D01*
X198350249Y-55419479D01*
X198487923Y-55181021D01*
X198593295Y-54926632D01*
X198605280Y-54881902D01*
X223499500Y-54881902D01*
X223499500Y-55118097D01*
X223536446Y-55351368D01*
X223609433Y-55575996D01*
X223716657Y-55786433D01*
X223855483Y-55977510D01*
X224022490Y-56144517D01*
X224213567Y-56283343D01*
X224274830Y-56314558D01*
X224424003Y-56390566D01*
X224424005Y-56390566D01*
X224424008Y-56390568D01*
X224544412Y-56429689D01*
X224648631Y-56463553D01*
X224881903Y-56500500D01*
X224881908Y-56500500D01*
X225118097Y-56500500D01*
X225351368Y-56463553D01*
X225575992Y-56390568D01*
X225786433Y-56283343D01*
X225977510Y-56144517D01*
X226144517Y-55977510D01*
X226283343Y-55786433D01*
X226390568Y-55575992D01*
X226463553Y-55351368D01*
X226477105Y-55265806D01*
X226500500Y-55118097D01*
X226500500Y-54881902D01*
X226463553Y-54648631D01*
X226429689Y-54544412D01*
X226390568Y-54424008D01*
X226390566Y-54424005D01*
X226390566Y-54424003D01*
X226283342Y-54213566D01*
X226259794Y-54181155D01*
X226144517Y-54022490D01*
X225977510Y-53855483D01*
X225786433Y-53716657D01*
X225575996Y-53609433D01*
X225351368Y-53536446D01*
X225118097Y-53499500D01*
X225118092Y-53499500D01*
X224881908Y-53499500D01*
X224881903Y-53499500D01*
X224648631Y-53536446D01*
X224424003Y-53609433D01*
X224213566Y-53716657D01*
X224104550Y-53795862D01*
X224022490Y-53855483D01*
X224022488Y-53855485D01*
X224022487Y-53855485D01*
X223855485Y-54022487D01*
X223855485Y-54022488D01*
X223855483Y-54022490D01*
X223795862Y-54104550D01*
X223716657Y-54213566D01*
X223609433Y-54424003D01*
X223536446Y-54648631D01*
X223499500Y-54881902D01*
X198605280Y-54881902D01*
X198664560Y-54660666D01*
X198700500Y-54387674D01*
X198700500Y-54112326D01*
X198664560Y-53839334D01*
X198593295Y-53573368D01*
X198487923Y-53318979D01*
X198487921Y-53318976D01*
X198487919Y-53318971D01*
X198438732Y-53233778D01*
X198350249Y-53080521D01*
X198182628Y-52862072D01*
X198182623Y-52862066D01*
X197987933Y-52667376D01*
X197987926Y-52667370D01*
X197769483Y-52499754D01*
X197769482Y-52499753D01*
X197769479Y-52499751D01*
X197674407Y-52444861D01*
X197531028Y-52362080D01*
X197531017Y-52362075D01*
X197276630Y-52256704D01*
X197143649Y-52221072D01*
X197010666Y-52185440D01*
X197010660Y-52185439D01*
X197010655Y-52185438D01*
X196737684Y-52149501D01*
X196737679Y-52149500D01*
X196737674Y-52149500D01*
X196462326Y-52149500D01*
X196462320Y-52149500D01*
X196462315Y-52149501D01*
X196189344Y-52185438D01*
X196189337Y-52185439D01*
X196189334Y-52185440D01*
X196133125Y-52200500D01*
X195923369Y-52256704D01*
X195668982Y-52362075D01*
X195668971Y-52362080D01*
X195430516Y-52499754D01*
X195212073Y-52667370D01*
X195212066Y-52667376D01*
X195017376Y-52862066D01*
X195017370Y-52862073D01*
X194849754Y-53080516D01*
X194712080Y-53318971D01*
X194712075Y-53318982D01*
X194606704Y-53573369D01*
X194535441Y-53839331D01*
X194535438Y-53839344D01*
X194499501Y-54112315D01*
X194499500Y-54112332D01*
X96900500Y-54112332D01*
X96900500Y-54112326D01*
X96864560Y-53839334D01*
X96793295Y-53573368D01*
X96687923Y-53318979D01*
X96687921Y-53318976D01*
X96687919Y-53318971D01*
X96638732Y-53233778D01*
X96550249Y-53080521D01*
X96382628Y-52862072D01*
X96382623Y-52862066D01*
X96187933Y-52667376D01*
X96187926Y-52667370D01*
X95969483Y-52499754D01*
X95969482Y-52499753D01*
X95969479Y-52499751D01*
X95874407Y-52444861D01*
X95731028Y-52362080D01*
X95731017Y-52362075D01*
X95476630Y-52256704D01*
X95343649Y-52221072D01*
X95210666Y-52185440D01*
X95210660Y-52185439D01*
X95210655Y-52185438D01*
X94937684Y-52149501D01*
X94937679Y-52149500D01*
X94937674Y-52149500D01*
X94662326Y-52149500D01*
X94662320Y-52149500D01*
X94662315Y-52149501D01*
X94389344Y-52185438D01*
X94389337Y-52185439D01*
X94389334Y-52185440D01*
X94333125Y-52200500D01*
X94123369Y-52256704D01*
X93868982Y-52362075D01*
X93868971Y-52362080D01*
X93630516Y-52499754D01*
X93412073Y-52667370D01*
X93412066Y-52667376D01*
X93217376Y-52862066D01*
X93217370Y-52862073D01*
X93049754Y-53080516D01*
X92912080Y-53318971D01*
X92912075Y-53318982D01*
X92806704Y-53573369D01*
X92735441Y-53839331D01*
X92735438Y-53839344D01*
X92699501Y-54112315D01*
X92699500Y-54112332D01*
X88209791Y-54112332D01*
X88144517Y-54022490D01*
X87977510Y-53855483D01*
X87786433Y-53716657D01*
X87575996Y-53609433D01*
X87351368Y-53536446D01*
X87118097Y-53499500D01*
X87118092Y-53499500D01*
X86881908Y-53499500D01*
X86881903Y-53499500D01*
X86648631Y-53536446D01*
X86424003Y-53609433D01*
X86213566Y-53716657D01*
X86104550Y-53795862D01*
X86022490Y-53855483D01*
X86022488Y-53855485D01*
X86022487Y-53855485D01*
X85855485Y-54022487D01*
X85855485Y-54022488D01*
X85855483Y-54022490D01*
X85795862Y-54104550D01*
X85716657Y-54213566D01*
X85609433Y-54424003D01*
X85536446Y-54648631D01*
X85499500Y-54881902D01*
X81500500Y-54881902D01*
X81500500Y-49624500D01*
X81520185Y-49557461D01*
X81572989Y-49511706D01*
X81624500Y-49500500D01*
X230375500Y-49500500D01*
X230442539Y-49520185D01*
G37*
%TD.AperFunction*%
%TD*%
M02*
