%TF.GenerationSoftware,KiCad,Pcbnew,9.0.5*%
%TF.CreationDate,2025-10-18T18:29:23+02:00*%
%TF.ProjectId,Offset_adj,4f666673-6574-45f6-9164-6a2e6b696361,rev?*%
%TF.SameCoordinates,Original*%
%TF.FileFunction,Legend,Top*%
%TF.FilePolarity,Positive*%
%FSLAX46Y46*%
G04 Gerber Fmt 4.6, Leading zero omitted, Abs format (unit mm)*
G04 Created by KiCad (PCBNEW 9.0.5) date 2025-10-18 18:29:23*
%MOMM*%
%LPD*%
G01*
G04 APERTURE LIST*
%ADD10C,0.150000*%
%ADD11C,0.120000*%
G04 APERTURE END LIST*
D10*
X127216666Y-106054819D02*
X127216666Y-106769104D01*
X127216666Y-106769104D02*
X127169047Y-106911961D01*
X127169047Y-106911961D02*
X127073809Y-107007200D01*
X127073809Y-107007200D02*
X126930952Y-107054819D01*
X126930952Y-107054819D02*
X126835714Y-107054819D01*
X128216666Y-107054819D02*
X127645238Y-107054819D01*
X127930952Y-107054819D02*
X127930952Y-106054819D01*
X127930952Y-106054819D02*
X127835714Y-106197676D01*
X127835714Y-106197676D02*
X127740476Y-106292914D01*
X127740476Y-106292914D02*
X127645238Y-106340533D01*
X127004761Y-94954819D02*
X126671428Y-94478628D01*
X126433333Y-94954819D02*
X126433333Y-93954819D01*
X126433333Y-93954819D02*
X126814285Y-93954819D01*
X126814285Y-93954819D02*
X126909523Y-94002438D01*
X126909523Y-94002438D02*
X126957142Y-94050057D01*
X126957142Y-94050057D02*
X127004761Y-94145295D01*
X127004761Y-94145295D02*
X127004761Y-94288152D01*
X127004761Y-94288152D02*
X126957142Y-94383390D01*
X126957142Y-94383390D02*
X126909523Y-94431009D01*
X126909523Y-94431009D02*
X126814285Y-94478628D01*
X126814285Y-94478628D02*
X126433333Y-94478628D01*
X127290476Y-93954819D02*
X127623809Y-94954819D01*
X127623809Y-94954819D02*
X127957142Y-93954819D01*
X128814285Y-94954819D02*
X128242857Y-94954819D01*
X128528571Y-94954819D02*
X128528571Y-93954819D01*
X128528571Y-93954819D02*
X128433333Y-94097676D01*
X128433333Y-94097676D02*
X128338095Y-94192914D01*
X128338095Y-94192914D02*
X128242857Y-94240533D01*
X122757142Y-100354819D02*
X122423809Y-99878628D01*
X122185714Y-100354819D02*
X122185714Y-99354819D01*
X122185714Y-99354819D02*
X122566666Y-99354819D01*
X122566666Y-99354819D02*
X122661904Y-99402438D01*
X122661904Y-99402438D02*
X122709523Y-99450057D01*
X122709523Y-99450057D02*
X122757142Y-99545295D01*
X122757142Y-99545295D02*
X122757142Y-99688152D01*
X122757142Y-99688152D02*
X122709523Y-99783390D01*
X122709523Y-99783390D02*
X122661904Y-99831009D01*
X122661904Y-99831009D02*
X122566666Y-99878628D01*
X122566666Y-99878628D02*
X122185714Y-99878628D01*
X123709523Y-100354819D02*
X123138095Y-100354819D01*
X123423809Y-100354819D02*
X123423809Y-99354819D01*
X123423809Y-99354819D02*
X123328571Y-99497676D01*
X123328571Y-99497676D02*
X123233333Y-99592914D01*
X123233333Y-99592914D02*
X123138095Y-99640533D01*
X124566666Y-99354819D02*
X124376190Y-99354819D01*
X124376190Y-99354819D02*
X124280952Y-99402438D01*
X124280952Y-99402438D02*
X124233333Y-99450057D01*
X124233333Y-99450057D02*
X124138095Y-99592914D01*
X124138095Y-99592914D02*
X124090476Y-99783390D01*
X124090476Y-99783390D02*
X124090476Y-100164342D01*
X124090476Y-100164342D02*
X124138095Y-100259580D01*
X124138095Y-100259580D02*
X124185714Y-100307200D01*
X124185714Y-100307200D02*
X124280952Y-100354819D01*
X124280952Y-100354819D02*
X124471428Y-100354819D01*
X124471428Y-100354819D02*
X124566666Y-100307200D01*
X124566666Y-100307200D02*
X124614285Y-100259580D01*
X124614285Y-100259580D02*
X124661904Y-100164342D01*
X124661904Y-100164342D02*
X124661904Y-99926247D01*
X124661904Y-99926247D02*
X124614285Y-99831009D01*
X124614285Y-99831009D02*
X124566666Y-99783390D01*
X124566666Y-99783390D02*
X124471428Y-99735771D01*
X124471428Y-99735771D02*
X124280952Y-99735771D01*
X124280952Y-99735771D02*
X124185714Y-99783390D01*
X124185714Y-99783390D02*
X124138095Y-99831009D01*
X124138095Y-99831009D02*
X124090476Y-99926247D01*
X122454819Y-103342857D02*
X121978628Y-103676190D01*
X122454819Y-103914285D02*
X121454819Y-103914285D01*
X121454819Y-103914285D02*
X121454819Y-103533333D01*
X121454819Y-103533333D02*
X121502438Y-103438095D01*
X121502438Y-103438095D02*
X121550057Y-103390476D01*
X121550057Y-103390476D02*
X121645295Y-103342857D01*
X121645295Y-103342857D02*
X121788152Y-103342857D01*
X121788152Y-103342857D02*
X121883390Y-103390476D01*
X121883390Y-103390476D02*
X121931009Y-103438095D01*
X121931009Y-103438095D02*
X121978628Y-103533333D01*
X121978628Y-103533333D02*
X121978628Y-103914285D01*
X122454819Y-102390476D02*
X122454819Y-102961904D01*
X122454819Y-102676190D02*
X121454819Y-102676190D01*
X121454819Y-102676190D02*
X121597676Y-102771428D01*
X121597676Y-102771428D02*
X121692914Y-102866666D01*
X121692914Y-102866666D02*
X121740533Y-102961904D01*
X121550057Y-102009523D02*
X121502438Y-101961904D01*
X121502438Y-101961904D02*
X121454819Y-101866666D01*
X121454819Y-101866666D02*
X121454819Y-101628571D01*
X121454819Y-101628571D02*
X121502438Y-101533333D01*
X121502438Y-101533333D02*
X121550057Y-101485714D01*
X121550057Y-101485714D02*
X121645295Y-101438095D01*
X121645295Y-101438095D02*
X121740533Y-101438095D01*
X121740533Y-101438095D02*
X121883390Y-101485714D01*
X121883390Y-101485714D02*
X122454819Y-102057142D01*
X122454819Y-102057142D02*
X122454819Y-101438095D01*
X127333333Y-102954819D02*
X127000000Y-102478628D01*
X126761905Y-102954819D02*
X126761905Y-101954819D01*
X126761905Y-101954819D02*
X127142857Y-101954819D01*
X127142857Y-101954819D02*
X127238095Y-102002438D01*
X127238095Y-102002438D02*
X127285714Y-102050057D01*
X127285714Y-102050057D02*
X127333333Y-102145295D01*
X127333333Y-102145295D02*
X127333333Y-102288152D01*
X127333333Y-102288152D02*
X127285714Y-102383390D01*
X127285714Y-102383390D02*
X127238095Y-102431009D01*
X127238095Y-102431009D02*
X127142857Y-102478628D01*
X127142857Y-102478628D02*
X126761905Y-102478628D01*
X127666667Y-101954819D02*
X128333333Y-101954819D01*
X128333333Y-101954819D02*
X127904762Y-102954819D01*
X133854819Y-97338094D02*
X132854819Y-97338094D01*
X132854819Y-97338094D02*
X132854819Y-97099999D01*
X132854819Y-97099999D02*
X132902438Y-96957142D01*
X132902438Y-96957142D02*
X132997676Y-96861904D01*
X132997676Y-96861904D02*
X133092914Y-96814285D01*
X133092914Y-96814285D02*
X133283390Y-96766666D01*
X133283390Y-96766666D02*
X133426247Y-96766666D01*
X133426247Y-96766666D02*
X133616723Y-96814285D01*
X133616723Y-96814285D02*
X133711961Y-96861904D01*
X133711961Y-96861904D02*
X133807200Y-96957142D01*
X133807200Y-96957142D02*
X133854819Y-97099999D01*
X133854819Y-97099999D02*
X133854819Y-97338094D01*
X132854819Y-95861904D02*
X132854819Y-96338094D01*
X132854819Y-96338094D02*
X133331009Y-96385713D01*
X133331009Y-96385713D02*
X133283390Y-96338094D01*
X133283390Y-96338094D02*
X133235771Y-96242856D01*
X133235771Y-96242856D02*
X133235771Y-96004761D01*
X133235771Y-96004761D02*
X133283390Y-95909523D01*
X133283390Y-95909523D02*
X133331009Y-95861904D01*
X133331009Y-95861904D02*
X133426247Y-95814285D01*
X133426247Y-95814285D02*
X133664342Y-95814285D01*
X133664342Y-95814285D02*
X133759580Y-95861904D01*
X133759580Y-95861904D02*
X133807200Y-95909523D01*
X133807200Y-95909523D02*
X133854819Y-96004761D01*
X133854819Y-96004761D02*
X133854819Y-96242856D01*
X133854819Y-96242856D02*
X133807200Y-96338094D01*
X133807200Y-96338094D02*
X133759580Y-96385713D01*
X133854819Y-102738094D02*
X132854819Y-102738094D01*
X132854819Y-102738094D02*
X132854819Y-102499999D01*
X132854819Y-102499999D02*
X132902438Y-102357142D01*
X132902438Y-102357142D02*
X132997676Y-102261904D01*
X132997676Y-102261904D02*
X133092914Y-102214285D01*
X133092914Y-102214285D02*
X133283390Y-102166666D01*
X133283390Y-102166666D02*
X133426247Y-102166666D01*
X133426247Y-102166666D02*
X133616723Y-102214285D01*
X133616723Y-102214285D02*
X133711961Y-102261904D01*
X133711961Y-102261904D02*
X133807200Y-102357142D01*
X133807200Y-102357142D02*
X133854819Y-102499999D01*
X133854819Y-102499999D02*
X133854819Y-102738094D01*
X133188152Y-101309523D02*
X133854819Y-101309523D01*
X132807200Y-101547618D02*
X133521485Y-101785713D01*
X133521485Y-101785713D02*
X133521485Y-101166666D01*
D11*
%TO.C,J1*%
X134210000Y-108090000D02*
X134210000Y-105590000D01*
X134210000Y-105590000D02*
X131710000Y-105590000D01*
X133910000Y-109910000D02*
X133910000Y-105890000D01*
X133910000Y-108200000D02*
X133410000Y-108200000D01*
X133910000Y-107390000D02*
X132910000Y-107390000D01*
X133910000Y-105890000D02*
X121190000Y-105890000D01*
X133410000Y-109410000D02*
X121690000Y-109410000D01*
X133410000Y-108200000D02*
X133410000Y-109410000D01*
X132910000Y-107390000D02*
X132910000Y-105890000D01*
X122190000Y-107390000D02*
X122190000Y-105890000D01*
X121690000Y-109410000D02*
X121690000Y-108200000D01*
X121690000Y-108200000D02*
X121190000Y-108200000D01*
X121190000Y-109910000D02*
X133910000Y-109910000D01*
X121190000Y-107390000D02*
X122190000Y-107390000D01*
X121190000Y-105890000D02*
X121190000Y-109910000D01*
%TO.C,RV1*%
X127555000Y-92105000D02*
X127555000Y-93625000D01*
X126350000Y-92105000D02*
X126350000Y-92865000D01*
X125145000Y-92105000D02*
X127555000Y-92105000D01*
X130020000Y-93625000D02*
X130020000Y-103375000D01*
X127555000Y-93625000D02*
X125145000Y-93625000D01*
X125145000Y-93625000D02*
X125145000Y-92105000D01*
X124970000Y-93625000D02*
X130020000Y-93625000D01*
X130020000Y-103375000D02*
X124970000Y-103375000D01*
X124970000Y-103375000D02*
X124970000Y-93625000D01*
%TO.C,R16*%
X122190000Y-97827064D02*
X122190000Y-96372936D01*
X124010000Y-97827064D02*
X124010000Y-96372936D01*
%TO.C,R12*%
X124510000Y-101772936D02*
X124510000Y-103227064D01*
X122690000Y-101772936D02*
X122690000Y-103227064D01*
%TO.C,R7*%
X126872936Y-103890000D02*
X128327064Y-103890000D01*
X126872936Y-105710000D02*
X128327064Y-105710000D01*
%TO.C,D5*%
X132610000Y-93940000D02*
X130390000Y-93940000D01*
X130390000Y-93940000D02*
X130390000Y-98350000D01*
X132610000Y-98350000D02*
X132610000Y-93940000D01*
%TO.C,D4*%
X132610000Y-99340000D02*
X130390000Y-99340000D01*
X130390000Y-99340000D02*
X130390000Y-103750000D01*
X132610000Y-103750000D02*
X132610000Y-99340000D01*
%TD*%
M02*
