%TF.GenerationSoftware,KiCad,Pcbnew,9.0.5*%
%TF.CreationDate,2025-10-18T18:29:23+02:00*%
%TF.ProjectId,Offset_adj,4f666673-6574-45f6-9164-6a2e6b696361,rev?*%
%TF.SameCoordinates,Original*%
%TF.FileFunction,Legend,Bot*%
%TF.FilePolarity,Positive*%
%FSLAX46Y46*%
G04 Gerber Fmt 4.6, Leading zero omitted, Abs format (unit mm)*
G04 Created by KiCad (PCBNEW 9.0.5) date 2025-10-18 18:29:23*
%MOMM*%
%LPD*%
G01*
G04 APERTURE LIST*
%ADD10C,0.200000*%
G04 APERTURE END LIST*
D10*
X123291695Y-103814285D02*
X124091695Y-104080952D01*
X124091695Y-104080952D02*
X123291695Y-104347618D01*
X123672647Y-104614285D02*
X123672647Y-104880951D01*
X124091695Y-104995237D02*
X124091695Y-104614285D01*
X124091695Y-104614285D02*
X123291695Y-104614285D01*
X123291695Y-104614285D02*
X123291695Y-104995237D01*
X123672647Y-105338095D02*
X123672647Y-105604761D01*
X124091695Y-105719047D02*
X124091695Y-105338095D01*
X124091695Y-105338095D02*
X123291695Y-105338095D01*
X123291695Y-105338095D02*
X123291695Y-105719047D01*
X123786933Y-106061905D02*
X123786933Y-106671429D01*
X126172647Y-102752380D02*
X126172647Y-102485714D01*
X126591695Y-102485714D02*
X125791695Y-102485714D01*
X125791695Y-102485714D02*
X125791695Y-102866666D01*
X126172647Y-103438094D02*
X126210742Y-103552380D01*
X126210742Y-103552380D02*
X126248838Y-103590475D01*
X126248838Y-103590475D02*
X126325028Y-103628571D01*
X126325028Y-103628571D02*
X126439314Y-103628571D01*
X126439314Y-103628571D02*
X126515504Y-103590475D01*
X126515504Y-103590475D02*
X126553600Y-103552380D01*
X126553600Y-103552380D02*
X126591695Y-103476190D01*
X126591695Y-103476190D02*
X126591695Y-103171428D01*
X126591695Y-103171428D02*
X125791695Y-103171428D01*
X125791695Y-103171428D02*
X125791695Y-103438094D01*
X125791695Y-103438094D02*
X125829790Y-103514285D01*
X125829790Y-103514285D02*
X125867885Y-103552380D01*
X125867885Y-103552380D02*
X125944076Y-103590475D01*
X125944076Y-103590475D02*
X126020266Y-103590475D01*
X126020266Y-103590475D02*
X126096457Y-103552380D01*
X126096457Y-103552380D02*
X126134552Y-103514285D01*
X126134552Y-103514285D02*
X126172647Y-103438094D01*
X126172647Y-103438094D02*
X126172647Y-103171428D01*
X126667885Y-103780952D02*
X126667885Y-104390475D01*
X126553600Y-104542856D02*
X126591695Y-104657142D01*
X126591695Y-104657142D02*
X126591695Y-104847618D01*
X126591695Y-104847618D02*
X126553600Y-104923809D01*
X126553600Y-104923809D02*
X126515504Y-104961904D01*
X126515504Y-104961904D02*
X126439314Y-104999999D01*
X126439314Y-104999999D02*
X126363123Y-104999999D01*
X126363123Y-104999999D02*
X126286933Y-104961904D01*
X126286933Y-104961904D02*
X126248838Y-104923809D01*
X126248838Y-104923809D02*
X126210742Y-104847618D01*
X126210742Y-104847618D02*
X126172647Y-104695237D01*
X126172647Y-104695237D02*
X126134552Y-104619047D01*
X126134552Y-104619047D02*
X126096457Y-104580952D01*
X126096457Y-104580952D02*
X126020266Y-104542856D01*
X126020266Y-104542856D02*
X125944076Y-104542856D01*
X125944076Y-104542856D02*
X125867885Y-104580952D01*
X125867885Y-104580952D02*
X125829790Y-104619047D01*
X125829790Y-104619047D02*
X125791695Y-104695237D01*
X125791695Y-104695237D02*
X125791695Y-104885714D01*
X125791695Y-104885714D02*
X125829790Y-104999999D01*
X125791695Y-105342857D02*
X126439314Y-105342857D01*
X126439314Y-105342857D02*
X126515504Y-105380952D01*
X126515504Y-105380952D02*
X126553600Y-105419047D01*
X126553600Y-105419047D02*
X126591695Y-105495238D01*
X126591695Y-105495238D02*
X126591695Y-105647619D01*
X126591695Y-105647619D02*
X126553600Y-105723809D01*
X126553600Y-105723809D02*
X126515504Y-105761904D01*
X126515504Y-105761904D02*
X126439314Y-105800000D01*
X126439314Y-105800000D02*
X125791695Y-105800000D01*
X126591695Y-106180952D02*
X125791695Y-106180952D01*
X125791695Y-106180952D02*
X126363123Y-106447618D01*
X126363123Y-106447618D02*
X125791695Y-106714285D01*
X125791695Y-106714285D02*
X126591695Y-106714285D01*
X128414838Y-104638095D02*
X128367219Y-104542857D01*
X128367219Y-104542857D02*
X128367219Y-104400000D01*
X128367219Y-104400000D02*
X128414838Y-104257143D01*
X128414838Y-104257143D02*
X128510076Y-104161905D01*
X128510076Y-104161905D02*
X128605314Y-104114286D01*
X128605314Y-104114286D02*
X128795790Y-104066667D01*
X128795790Y-104066667D02*
X128938647Y-104066667D01*
X128938647Y-104066667D02*
X129129123Y-104114286D01*
X129129123Y-104114286D02*
X129224361Y-104161905D01*
X129224361Y-104161905D02*
X129319600Y-104257143D01*
X129319600Y-104257143D02*
X129367219Y-104400000D01*
X129367219Y-104400000D02*
X129367219Y-104495238D01*
X129367219Y-104495238D02*
X129319600Y-104638095D01*
X129319600Y-104638095D02*
X129271980Y-104685714D01*
X129271980Y-104685714D02*
X128938647Y-104685714D01*
X128938647Y-104685714D02*
X128938647Y-104495238D01*
X129367219Y-105114286D02*
X128367219Y-105114286D01*
X128367219Y-105114286D02*
X129367219Y-105685714D01*
X129367219Y-105685714D02*
X128367219Y-105685714D01*
X129367219Y-106161905D02*
X128367219Y-106161905D01*
X128367219Y-106161905D02*
X128367219Y-106400000D01*
X128367219Y-106400000D02*
X128414838Y-106542857D01*
X128414838Y-106542857D02*
X128510076Y-106638095D01*
X128510076Y-106638095D02*
X128605314Y-106685714D01*
X128605314Y-106685714D02*
X128795790Y-106733333D01*
X128795790Y-106733333D02*
X128938647Y-106733333D01*
X128938647Y-106733333D02*
X129129123Y-106685714D01*
X129129123Y-106685714D02*
X129224361Y-106638095D01*
X129224361Y-106638095D02*
X129319600Y-106542857D01*
X129319600Y-106542857D02*
X129367219Y-106400000D01*
X129367219Y-106400000D02*
X129367219Y-106161905D01*
X130791695Y-103538095D02*
X131591695Y-103804762D01*
X131591695Y-103804762D02*
X130791695Y-104071428D01*
X131515504Y-104795238D02*
X131553600Y-104757142D01*
X131553600Y-104757142D02*
X131591695Y-104642857D01*
X131591695Y-104642857D02*
X131591695Y-104566666D01*
X131591695Y-104566666D02*
X131553600Y-104452380D01*
X131553600Y-104452380D02*
X131477409Y-104376190D01*
X131477409Y-104376190D02*
X131401219Y-104338095D01*
X131401219Y-104338095D02*
X131248838Y-104299999D01*
X131248838Y-104299999D02*
X131134552Y-104299999D01*
X131134552Y-104299999D02*
X130982171Y-104338095D01*
X130982171Y-104338095D02*
X130905980Y-104376190D01*
X130905980Y-104376190D02*
X130829790Y-104452380D01*
X130829790Y-104452380D02*
X130791695Y-104566666D01*
X130791695Y-104566666D02*
X130791695Y-104642857D01*
X130791695Y-104642857D02*
X130829790Y-104757142D01*
X130829790Y-104757142D02*
X130867885Y-104795238D01*
X131515504Y-105595238D02*
X131553600Y-105557142D01*
X131553600Y-105557142D02*
X131591695Y-105442857D01*
X131591695Y-105442857D02*
X131591695Y-105366666D01*
X131591695Y-105366666D02*
X131553600Y-105252380D01*
X131553600Y-105252380D02*
X131477409Y-105176190D01*
X131477409Y-105176190D02*
X131401219Y-105138095D01*
X131401219Y-105138095D02*
X131248838Y-105099999D01*
X131248838Y-105099999D02*
X131134552Y-105099999D01*
X131134552Y-105099999D02*
X130982171Y-105138095D01*
X130982171Y-105138095D02*
X130905980Y-105176190D01*
X130905980Y-105176190D02*
X130829790Y-105252380D01*
X130829790Y-105252380D02*
X130791695Y-105366666D01*
X130791695Y-105366666D02*
X130791695Y-105442857D01*
X130791695Y-105442857D02*
X130829790Y-105557142D01*
X130829790Y-105557142D02*
X130867885Y-105595238D01*
X131286933Y-105938095D02*
X131286933Y-106547619D01*
X131591695Y-106242857D02*
X130982171Y-106242857D01*
M02*
