G04 #@! TF.GenerationSoftware,KiCad,Pcbnew,(6.0.5)*
G04 #@! TF.CreationDate,2022-05-09T22:53:36+02:00*
G04 #@! TF.ProjectId,Zasilacz_impulsowy_FAN6602R,5a617369-6c61-4637-9a5f-696d70756c73,rev?*
G04 #@! TF.SameCoordinates,Original*
G04 #@! TF.FileFunction,Legend,Top*
G04 #@! TF.FilePolarity,Positive*
%FSLAX46Y46*%
G04 Gerber Fmt 4.6, Leading zero omitted, Abs format (unit mm)*
G04 Created by KiCad (PCBNEW (6.0.5)) date 2022-05-09 22:53:36*
%MOMM*%
%LPD*%
G01*
G04 APERTURE LIST*
%ADD10C,0.150000*%
%ADD11C,0.120000*%
G04 APERTURE END LIST*
D10*
X175190476Y-89671428D02*
X175952380Y-89671428D01*
X175571428Y-90052380D02*
X175571428Y-89290476D01*
X176285714Y-89052380D02*
X176619047Y-90052380D01*
X176952380Y-89052380D01*
X176600000Y-101261904D02*
X176552380Y-101357142D01*
X176552380Y-101500000D01*
X176600000Y-101642857D01*
X176695238Y-101738095D01*
X176790476Y-101785714D01*
X176980952Y-101833333D01*
X177123809Y-101833333D01*
X177314285Y-101785714D01*
X177409523Y-101738095D01*
X177504761Y-101642857D01*
X177552380Y-101500000D01*
X177552380Y-101404761D01*
X177504761Y-101261904D01*
X177457142Y-101214285D01*
X177123809Y-101214285D01*
X177123809Y-101404761D01*
X177552380Y-100785714D02*
X176552380Y-100785714D01*
X177552380Y-100214285D01*
X176552380Y-100214285D01*
X177552380Y-99738095D02*
X176552380Y-99738095D01*
X176552380Y-99500000D01*
X176600000Y-99357142D01*
X176695238Y-99261904D01*
X176790476Y-99214285D01*
X176980952Y-99166666D01*
X177123809Y-99166666D01*
X177314285Y-99214285D01*
X177409523Y-99261904D01*
X177504761Y-99357142D01*
X177552380Y-99500000D01*
X177552380Y-99738095D01*
G04 #@! TO.C,TP1*
X138138095Y-118652380D02*
X138709523Y-118652380D01*
X138423809Y-119652380D02*
X138423809Y-118652380D01*
X139042857Y-119652380D02*
X139042857Y-118652380D01*
X139423809Y-118652380D01*
X139519047Y-118700000D01*
X139566666Y-118747619D01*
X139614285Y-118842857D01*
X139614285Y-118985714D01*
X139566666Y-119080952D01*
X139519047Y-119128571D01*
X139423809Y-119176190D01*
X139042857Y-119176190D01*
X140566666Y-119652380D02*
X139995238Y-119652380D01*
X140280952Y-119652380D02*
X140280952Y-118652380D01*
X140185714Y-118795238D01*
X140090476Y-118890476D01*
X139995238Y-118938095D01*
G04 #@! TO.C,D1*
X131486904Y-82827380D02*
X131486904Y-81827380D01*
X131725000Y-81827380D01*
X131867857Y-81875000D01*
X131963095Y-81970238D01*
X132010714Y-82065476D01*
X132058333Y-82255952D01*
X132058333Y-82398809D01*
X132010714Y-82589285D01*
X131963095Y-82684523D01*
X131867857Y-82779761D01*
X131725000Y-82827380D01*
X131486904Y-82827380D01*
X133010714Y-82827380D02*
X132439285Y-82827380D01*
X132725000Y-82827380D02*
X132725000Y-81827380D01*
X132629761Y-81970238D01*
X132534523Y-82065476D01*
X132439285Y-82113095D01*
G04 #@! TO.C,C8*
X165833333Y-119307142D02*
X165785714Y-119354761D01*
X165642857Y-119402380D01*
X165547619Y-119402380D01*
X165404761Y-119354761D01*
X165309523Y-119259523D01*
X165261904Y-119164285D01*
X165214285Y-118973809D01*
X165214285Y-118830952D01*
X165261904Y-118640476D01*
X165309523Y-118545238D01*
X165404761Y-118450000D01*
X165547619Y-118402380D01*
X165642857Y-118402380D01*
X165785714Y-118450000D01*
X165833333Y-118497619D01*
X166404761Y-118830952D02*
X166309523Y-118783333D01*
X166261904Y-118735714D01*
X166214285Y-118640476D01*
X166214285Y-118592857D01*
X166261904Y-118497619D01*
X166309523Y-118450000D01*
X166404761Y-118402380D01*
X166595238Y-118402380D01*
X166690476Y-118450000D01*
X166738095Y-118497619D01*
X166785714Y-118592857D01*
X166785714Y-118640476D01*
X166738095Y-118735714D01*
X166690476Y-118783333D01*
X166595238Y-118830952D01*
X166404761Y-118830952D01*
X166309523Y-118878571D01*
X166261904Y-118926190D01*
X166214285Y-119021428D01*
X166214285Y-119211904D01*
X166261904Y-119307142D01*
X166309523Y-119354761D01*
X166404761Y-119402380D01*
X166595238Y-119402380D01*
X166690476Y-119354761D01*
X166738095Y-119307142D01*
X166785714Y-119211904D01*
X166785714Y-119021428D01*
X166738095Y-118926190D01*
X166690476Y-118878571D01*
X166595238Y-118830952D01*
G04 #@! TO.C,Q1*
X149104761Y-82947619D02*
X149009523Y-82900000D01*
X148914285Y-82804761D01*
X148771428Y-82661904D01*
X148676190Y-82614285D01*
X148580952Y-82614285D01*
X148628571Y-82852380D02*
X148533333Y-82804761D01*
X148438095Y-82709523D01*
X148390476Y-82519047D01*
X148390476Y-82185714D01*
X148438095Y-81995238D01*
X148533333Y-81900000D01*
X148628571Y-81852380D01*
X148819047Y-81852380D01*
X148914285Y-81900000D01*
X149009523Y-81995238D01*
X149057142Y-82185714D01*
X149057142Y-82519047D01*
X149009523Y-82709523D01*
X148914285Y-82804761D01*
X148819047Y-82852380D01*
X148628571Y-82852380D01*
X150009523Y-82852380D02*
X149438095Y-82852380D01*
X149723809Y-82852380D02*
X149723809Y-81852380D01*
X149628571Y-81995238D01*
X149533333Y-82090476D01*
X149438095Y-82138095D01*
G04 #@! TO.C,C13*
X159657142Y-119157142D02*
X159609523Y-119204761D01*
X159466666Y-119252380D01*
X159371428Y-119252380D01*
X159228571Y-119204761D01*
X159133333Y-119109523D01*
X159085714Y-119014285D01*
X159038095Y-118823809D01*
X159038095Y-118680952D01*
X159085714Y-118490476D01*
X159133333Y-118395238D01*
X159228571Y-118300000D01*
X159371428Y-118252380D01*
X159466666Y-118252380D01*
X159609523Y-118300000D01*
X159657142Y-118347619D01*
X160609523Y-119252380D02*
X160038095Y-119252380D01*
X160323809Y-119252380D02*
X160323809Y-118252380D01*
X160228571Y-118395238D01*
X160133333Y-118490476D01*
X160038095Y-118538095D01*
X160942857Y-118252380D02*
X161561904Y-118252380D01*
X161228571Y-118633333D01*
X161371428Y-118633333D01*
X161466666Y-118680952D01*
X161514285Y-118728571D01*
X161561904Y-118823809D01*
X161561904Y-119061904D01*
X161514285Y-119157142D01*
X161466666Y-119204761D01*
X161371428Y-119252380D01*
X161085714Y-119252380D01*
X160990476Y-119204761D01*
X160942857Y-119157142D01*
G04 #@! TO.C,C4*
X173530682Y-115057142D02*
X173483063Y-115104761D01*
X173340206Y-115152380D01*
X173244968Y-115152380D01*
X173102110Y-115104761D01*
X173006872Y-115009523D01*
X172959253Y-114914285D01*
X172911634Y-114723809D01*
X172911634Y-114580952D01*
X172959253Y-114390476D01*
X173006872Y-114295238D01*
X173102110Y-114200000D01*
X173244968Y-114152380D01*
X173340206Y-114152380D01*
X173483063Y-114200000D01*
X173530682Y-114247619D01*
X174387825Y-114485714D02*
X174387825Y-115152380D01*
X174149729Y-114104761D02*
X173911634Y-114819047D01*
X174530682Y-114819047D01*
G04 #@! TO.C,T1*
X174338095Y-106752380D02*
X174909523Y-106752380D01*
X174623809Y-107752380D02*
X174623809Y-106752380D01*
X175766666Y-107752380D02*
X175195238Y-107752380D01*
X175480952Y-107752380D02*
X175480952Y-106752380D01*
X175385714Y-106895238D01*
X175290476Y-106990476D01*
X175195238Y-107038095D01*
G04 #@! TO.C,D4*
X143602380Y-104738095D02*
X142602380Y-104738095D01*
X142602380Y-104500000D01*
X142650000Y-104357142D01*
X142745238Y-104261904D01*
X142840476Y-104214285D01*
X143030952Y-104166666D01*
X143173809Y-104166666D01*
X143364285Y-104214285D01*
X143459523Y-104261904D01*
X143554761Y-104357142D01*
X143602380Y-104500000D01*
X143602380Y-104738095D01*
X142935714Y-103309523D02*
X143602380Y-103309523D01*
X142554761Y-103547619D02*
X143269047Y-103785714D01*
X143269047Y-103166666D01*
X141452380Y-99061904D02*
X140452380Y-99061904D01*
X141452380Y-98490476D02*
X140880952Y-98919047D01*
X140452380Y-98490476D02*
X141023809Y-99061904D01*
G04 #@! TO.C,TP3*
X177938095Y-118252380D02*
X178509523Y-118252380D01*
X178223809Y-119252380D02*
X178223809Y-118252380D01*
X178842857Y-119252380D02*
X178842857Y-118252380D01*
X179223809Y-118252380D01*
X179319047Y-118300000D01*
X179366666Y-118347619D01*
X179414285Y-118442857D01*
X179414285Y-118585714D01*
X179366666Y-118680952D01*
X179319047Y-118728571D01*
X179223809Y-118776190D01*
X178842857Y-118776190D01*
X179747619Y-118252380D02*
X180366666Y-118252380D01*
X180033333Y-118633333D01*
X180176190Y-118633333D01*
X180271428Y-118680952D01*
X180319047Y-118728571D01*
X180366666Y-118823809D01*
X180366666Y-119061904D01*
X180319047Y-119157142D01*
X180271428Y-119204761D01*
X180176190Y-119252380D01*
X179890476Y-119252380D01*
X179795238Y-119204761D01*
X179747619Y-119157142D01*
G04 #@! TO.C,U3*
X167588095Y-89602380D02*
X167588095Y-90411904D01*
X167635714Y-90507142D01*
X167683333Y-90554761D01*
X167778571Y-90602380D01*
X167969047Y-90602380D01*
X168064285Y-90554761D01*
X168111904Y-90507142D01*
X168159523Y-90411904D01*
X168159523Y-89602380D01*
X168540476Y-89602380D02*
X169159523Y-89602380D01*
X168826190Y-89983333D01*
X168969047Y-89983333D01*
X169064285Y-90030952D01*
X169111904Y-90078571D01*
X169159523Y-90173809D01*
X169159523Y-90411904D01*
X169111904Y-90507142D01*
X169064285Y-90554761D01*
X168969047Y-90602380D01*
X168683333Y-90602380D01*
X168588095Y-90554761D01*
X168540476Y-90507142D01*
G04 #@! TO.C,D6*
X148452380Y-104638095D02*
X147452380Y-104638095D01*
X147452380Y-104400000D01*
X147500000Y-104257142D01*
X147595238Y-104161904D01*
X147690476Y-104114285D01*
X147880952Y-104066666D01*
X148023809Y-104066666D01*
X148214285Y-104114285D01*
X148309523Y-104161904D01*
X148404761Y-104257142D01*
X148452380Y-104400000D01*
X148452380Y-104638095D01*
X147452380Y-103209523D02*
X147452380Y-103400000D01*
X147500000Y-103495238D01*
X147547619Y-103542857D01*
X147690476Y-103638095D01*
X147880952Y-103685714D01*
X148261904Y-103685714D01*
X148357142Y-103638095D01*
X148404761Y-103590476D01*
X148452380Y-103495238D01*
X148452380Y-103304761D01*
X148404761Y-103209523D01*
X148357142Y-103161904D01*
X148261904Y-103114285D01*
X148023809Y-103114285D01*
X147928571Y-103161904D01*
X147880952Y-103209523D01*
X147833333Y-103304761D01*
X147833333Y-103495238D01*
X147880952Y-103590476D01*
X147928571Y-103638095D01*
X148023809Y-103685714D01*
X148402380Y-98511904D02*
X147402380Y-98511904D01*
X148402380Y-97940476D02*
X147830952Y-98369047D01*
X147402380Y-97940476D02*
X147973809Y-98511904D01*
G04 #@! TO.C,FL1*
X129061904Y-95128571D02*
X128728571Y-95128571D01*
X128728571Y-95652380D02*
X128728571Y-94652380D01*
X129204761Y-94652380D01*
X130061904Y-95652380D02*
X129585714Y-95652380D01*
X129585714Y-94652380D01*
X130919047Y-95652380D02*
X130347619Y-95652380D01*
X130633333Y-95652380D02*
X130633333Y-94652380D01*
X130538095Y-94795238D01*
X130442857Y-94890476D01*
X130347619Y-94938095D01*
G04 #@! TO.C,C12*
X160307142Y-89247970D02*
X160354761Y-89295589D01*
X160402380Y-89438446D01*
X160402380Y-89533684D01*
X160354761Y-89676541D01*
X160259523Y-89771779D01*
X160164285Y-89819398D01*
X159973809Y-89867017D01*
X159830952Y-89867017D01*
X159640476Y-89819398D01*
X159545238Y-89771779D01*
X159450000Y-89676541D01*
X159402380Y-89533684D01*
X159402380Y-89438446D01*
X159450000Y-89295589D01*
X159497619Y-89247970D01*
X160402380Y-88295589D02*
X160402380Y-88867017D01*
X160402380Y-88581303D02*
X159402380Y-88581303D01*
X159545238Y-88676541D01*
X159640476Y-88771779D01*
X159688095Y-88867017D01*
X159497619Y-87914636D02*
X159450000Y-87867017D01*
X159402380Y-87771779D01*
X159402380Y-87533684D01*
X159450000Y-87438446D01*
X159497619Y-87390827D01*
X159592857Y-87343208D01*
X159688095Y-87343208D01*
X159830952Y-87390827D01*
X160402380Y-87962255D01*
X160402380Y-87343208D01*
G04 #@! TO.C,R7*
X156883333Y-83452380D02*
X156550000Y-82976190D01*
X156311904Y-83452380D02*
X156311904Y-82452380D01*
X156692857Y-82452380D01*
X156788095Y-82500000D01*
X156835714Y-82547619D01*
X156883333Y-82642857D01*
X156883333Y-82785714D01*
X156835714Y-82880952D01*
X156788095Y-82928571D01*
X156692857Y-82976190D01*
X156311904Y-82976190D01*
X157216666Y-82452380D02*
X157883333Y-82452380D01*
X157454761Y-83452380D01*
G04 #@! TO.C,D2*
X178561904Y-83152380D02*
X178561904Y-82152380D01*
X178800000Y-82152380D01*
X178942857Y-82200000D01*
X179038095Y-82295238D01*
X179085714Y-82390476D01*
X179133333Y-82580952D01*
X179133333Y-82723809D01*
X179085714Y-82914285D01*
X179038095Y-83009523D01*
X178942857Y-83104761D01*
X178800000Y-83152380D01*
X178561904Y-83152380D01*
X179514285Y-82247619D02*
X179561904Y-82200000D01*
X179657142Y-82152380D01*
X179895238Y-82152380D01*
X179990476Y-82200000D01*
X180038095Y-82247619D01*
X180085714Y-82342857D01*
X180085714Y-82438095D01*
X180038095Y-82580952D01*
X179466666Y-83152380D01*
X180085714Y-83152380D01*
G04 #@! TO.C,D5*
X154261904Y-91652380D02*
X154261904Y-90652380D01*
X154500000Y-90652380D01*
X154642857Y-90700000D01*
X154738095Y-90795238D01*
X154785714Y-90890476D01*
X154833333Y-91080952D01*
X154833333Y-91223809D01*
X154785714Y-91414285D01*
X154738095Y-91509523D01*
X154642857Y-91604761D01*
X154500000Y-91652380D01*
X154261904Y-91652380D01*
X155738095Y-90652380D02*
X155261904Y-90652380D01*
X155214285Y-91128571D01*
X155261904Y-91080952D01*
X155357142Y-91033333D01*
X155595238Y-91033333D01*
X155690476Y-91080952D01*
X155738095Y-91128571D01*
X155785714Y-91223809D01*
X155785714Y-91461904D01*
X155738095Y-91557142D01*
X155690476Y-91604761D01*
X155595238Y-91652380D01*
X155357142Y-91652380D01*
X155261904Y-91604761D01*
X155214285Y-91557142D01*
X158738095Y-93502380D02*
X158738095Y-92502380D01*
X159309523Y-93502380D02*
X158880952Y-92930952D01*
X159309523Y-92502380D02*
X158738095Y-93073809D01*
G04 #@! TO.C,C6*
X144198549Y-98107142D02*
X144150930Y-98154761D01*
X144008073Y-98202380D01*
X143912835Y-98202380D01*
X143769977Y-98154761D01*
X143674739Y-98059523D01*
X143627120Y-97964285D01*
X143579501Y-97773809D01*
X143579501Y-97630952D01*
X143627120Y-97440476D01*
X143674739Y-97345238D01*
X143769977Y-97250000D01*
X143912835Y-97202380D01*
X144008073Y-97202380D01*
X144150930Y-97250000D01*
X144198549Y-97297619D01*
X145055692Y-97202380D02*
X144865216Y-97202380D01*
X144769977Y-97250000D01*
X144722358Y-97297619D01*
X144627120Y-97440476D01*
X144579501Y-97630952D01*
X144579501Y-98011904D01*
X144627120Y-98107142D01*
X144674739Y-98154761D01*
X144769977Y-98202380D01*
X144960454Y-98202380D01*
X145055692Y-98154761D01*
X145103311Y-98107142D01*
X145150930Y-98011904D01*
X145150930Y-97773809D01*
X145103311Y-97678571D01*
X145055692Y-97630952D01*
X144960454Y-97583333D01*
X144769977Y-97583333D01*
X144674739Y-97630952D01*
X144627120Y-97678571D01*
X144579501Y-97773809D01*
G04 #@! TO.C,C2*
X130633333Y-111457142D02*
X130585714Y-111504761D01*
X130442857Y-111552380D01*
X130347619Y-111552380D01*
X130204761Y-111504761D01*
X130109523Y-111409523D01*
X130061904Y-111314285D01*
X130014285Y-111123809D01*
X130014285Y-110980952D01*
X130061904Y-110790476D01*
X130109523Y-110695238D01*
X130204761Y-110600000D01*
X130347619Y-110552380D01*
X130442857Y-110552380D01*
X130585714Y-110600000D01*
X130633333Y-110647619D01*
X131014285Y-110647619D02*
X131061904Y-110600000D01*
X131157142Y-110552380D01*
X131395238Y-110552380D01*
X131490476Y-110600000D01*
X131538095Y-110647619D01*
X131585714Y-110742857D01*
X131585714Y-110838095D01*
X131538095Y-110980952D01*
X130966666Y-111552380D01*
X131585714Y-111552380D01*
G04 #@! TO.C,FL2*
X179461904Y-105028571D02*
X179128571Y-105028571D01*
X179128571Y-105552380D02*
X179128571Y-104552380D01*
X179604761Y-104552380D01*
X180461904Y-105552380D02*
X179985714Y-105552380D01*
X179985714Y-104552380D01*
X180747619Y-104647619D02*
X180795238Y-104600000D01*
X180890476Y-104552380D01*
X181128571Y-104552380D01*
X181223809Y-104600000D01*
X181271428Y-104647619D01*
X181319047Y-104742857D01*
X181319047Y-104838095D01*
X181271428Y-104980952D01*
X180700000Y-105552380D01*
X181319047Y-105552380D01*
G04 #@! TO.C,U2*
X168138095Y-82452380D02*
X168138095Y-83261904D01*
X168185714Y-83357142D01*
X168233333Y-83404761D01*
X168328571Y-83452380D01*
X168519047Y-83452380D01*
X168614285Y-83404761D01*
X168661904Y-83357142D01*
X168709523Y-83261904D01*
X168709523Y-82452380D01*
X169138095Y-82547619D02*
X169185714Y-82500000D01*
X169280952Y-82452380D01*
X169519047Y-82452380D01*
X169614285Y-82500000D01*
X169661904Y-82547619D01*
X169709523Y-82642857D01*
X169709523Y-82738095D01*
X169661904Y-82880952D01*
X169090476Y-83452380D01*
X169709523Y-83452380D01*
G04 #@! TO.C,R5*
X146152380Y-103856666D02*
X145676190Y-104190000D01*
X146152380Y-104428095D02*
X145152380Y-104428095D01*
X145152380Y-104047142D01*
X145200000Y-103951904D01*
X145247619Y-103904285D01*
X145342857Y-103856666D01*
X145485714Y-103856666D01*
X145580952Y-103904285D01*
X145628571Y-103951904D01*
X145676190Y-104047142D01*
X145676190Y-104428095D01*
X145152380Y-102951904D02*
X145152380Y-103428095D01*
X145628571Y-103475714D01*
X145580952Y-103428095D01*
X145533333Y-103332857D01*
X145533333Y-103094761D01*
X145580952Y-102999523D01*
X145628571Y-102951904D01*
X145723809Y-102904285D01*
X145961904Y-102904285D01*
X146057142Y-102951904D01*
X146104761Y-102999523D01*
X146152380Y-103094761D01*
X146152380Y-103332857D01*
X146104761Y-103428095D01*
X146057142Y-103475714D01*
G04 #@! TO.C,TH1*
X160364285Y-81752380D02*
X160935714Y-81752380D01*
X160650000Y-82752380D02*
X160650000Y-81752380D01*
X161269047Y-82752380D02*
X161269047Y-81752380D01*
X161269047Y-82228571D02*
X161840476Y-82228571D01*
X161840476Y-82752380D02*
X161840476Y-81752380D01*
X162840476Y-82752380D02*
X162269047Y-82752380D01*
X162554761Y-82752380D02*
X162554761Y-81752380D01*
X162459523Y-81895238D01*
X162364285Y-81990476D01*
X162269047Y-82038095D01*
G04 #@! TO.C,F1*
X123766666Y-116228571D02*
X123433333Y-116228571D01*
X123433333Y-116752380D02*
X123433333Y-115752380D01*
X123909523Y-115752380D01*
X124814285Y-116752380D02*
X124242857Y-116752380D01*
X124528571Y-116752380D02*
X124528571Y-115752380D01*
X124433333Y-115895238D01*
X124338095Y-115990476D01*
X124242857Y-116038095D01*
G04 #@! TO.C,RV1*
X129004761Y-110102380D02*
X128671428Y-109626190D01*
X128433333Y-110102380D02*
X128433333Y-109102380D01*
X128814285Y-109102380D01*
X128909523Y-109150000D01*
X128957142Y-109197619D01*
X129004761Y-109292857D01*
X129004761Y-109435714D01*
X128957142Y-109530952D01*
X128909523Y-109578571D01*
X128814285Y-109626190D01*
X128433333Y-109626190D01*
X129290476Y-109102380D02*
X129623809Y-110102380D01*
X129957142Y-109102380D01*
X130814285Y-110102380D02*
X130242857Y-110102380D01*
X130528571Y-110102380D02*
X130528571Y-109102380D01*
X130433333Y-109245238D01*
X130338095Y-109340476D01*
X130242857Y-109388095D01*
G04 #@! TO.C,TP4*
X171938095Y-118252380D02*
X172509523Y-118252380D01*
X172223809Y-119252380D02*
X172223809Y-118252380D01*
X172842857Y-119252380D02*
X172842857Y-118252380D01*
X173223809Y-118252380D01*
X173319047Y-118300000D01*
X173366666Y-118347619D01*
X173414285Y-118442857D01*
X173414285Y-118585714D01*
X173366666Y-118680952D01*
X173319047Y-118728571D01*
X173223809Y-118776190D01*
X172842857Y-118776190D01*
X174271428Y-118585714D02*
X174271428Y-119252380D01*
X174033333Y-118204761D02*
X173795238Y-118919047D01*
X174414285Y-118919047D01*
G04 #@! TO.C,C7*
X180933333Y-101157142D02*
X180885714Y-101204761D01*
X180742857Y-101252380D01*
X180647619Y-101252380D01*
X180504761Y-101204761D01*
X180409523Y-101109523D01*
X180361904Y-101014285D01*
X180314285Y-100823809D01*
X180314285Y-100680952D01*
X180361904Y-100490476D01*
X180409523Y-100395238D01*
X180504761Y-100300000D01*
X180647619Y-100252380D01*
X180742857Y-100252380D01*
X180885714Y-100300000D01*
X180933333Y-100347619D01*
X181266666Y-100252380D02*
X181933333Y-100252380D01*
X181504761Y-101252380D01*
G04 #@! TO.C,TP2*
X131538095Y-118652380D02*
X132109523Y-118652380D01*
X131823809Y-119652380D02*
X131823809Y-118652380D01*
X132442857Y-119652380D02*
X132442857Y-118652380D01*
X132823809Y-118652380D01*
X132919047Y-118700000D01*
X132966666Y-118747619D01*
X133014285Y-118842857D01*
X133014285Y-118985714D01*
X132966666Y-119080952D01*
X132919047Y-119128571D01*
X132823809Y-119176190D01*
X132442857Y-119176190D01*
X133395238Y-118747619D02*
X133442857Y-118700000D01*
X133538095Y-118652380D01*
X133776190Y-118652380D01*
X133871428Y-118700000D01*
X133919047Y-118747619D01*
X133966666Y-118842857D01*
X133966666Y-118938095D01*
X133919047Y-119080952D01*
X133347619Y-119652380D01*
X133966666Y-119652380D01*
G04 #@! TO.C,C3*
X147383333Y-119407142D02*
X147335714Y-119454761D01*
X147192857Y-119502380D01*
X147097619Y-119502380D01*
X146954761Y-119454761D01*
X146859523Y-119359523D01*
X146811904Y-119264285D01*
X146764285Y-119073809D01*
X146764285Y-118930952D01*
X146811904Y-118740476D01*
X146859523Y-118645238D01*
X146954761Y-118550000D01*
X147097619Y-118502380D01*
X147192857Y-118502380D01*
X147335714Y-118550000D01*
X147383333Y-118597619D01*
X147716666Y-118502380D02*
X148335714Y-118502380D01*
X148002380Y-118883333D01*
X148145238Y-118883333D01*
X148240476Y-118930952D01*
X148288095Y-118978571D01*
X148335714Y-119073809D01*
X148335714Y-119311904D01*
X148288095Y-119407142D01*
X148240476Y-119454761D01*
X148145238Y-119502380D01*
X147859523Y-119502380D01*
X147764285Y-119454761D01*
X147716666Y-119407142D01*
G04 #@! TO.C,*
G04 #@! TO.C,D3*
X153352380Y-105688095D02*
X152352380Y-105688095D01*
X152352380Y-105450000D01*
X152400000Y-105307142D01*
X152495238Y-105211904D01*
X152590476Y-105164285D01*
X152780952Y-105116666D01*
X152923809Y-105116666D01*
X153114285Y-105164285D01*
X153209523Y-105211904D01*
X153304761Y-105307142D01*
X153352380Y-105450000D01*
X153352380Y-105688095D01*
X152352380Y-104783333D02*
X152352380Y-104164285D01*
X152733333Y-104497619D01*
X152733333Y-104354761D01*
X152780952Y-104259523D01*
X152828571Y-104211904D01*
X152923809Y-104164285D01*
X153161904Y-104164285D01*
X153257142Y-104211904D01*
X153304761Y-104259523D01*
X153352380Y-104354761D01*
X153352380Y-104640476D01*
X153304761Y-104735714D01*
X153257142Y-104783333D01*
X151052380Y-113561904D02*
X150052380Y-113561904D01*
X151052380Y-112990476D02*
X150480952Y-113419047D01*
X150052380Y-112990476D02*
X150623809Y-113561904D01*
D11*
G04 #@! TO.C,TP1*
X138200781Y-117200000D02*
G75*
G03*
X138200781Y-117200000I-1600781J0D01*
G01*
G04 #@! TO.C,D1*
X121625000Y-83175000D02*
X121625000Y-86975000D01*
X131275000Y-86975000D02*
X133175000Y-86975000D01*
X141375000Y-86975000D02*
X142775000Y-86975000D01*
X121625000Y-86975000D02*
X122575000Y-86975000D01*
X142775000Y-83175000D02*
X121625000Y-83175000D01*
X136275000Y-86975000D02*
X138275000Y-86975000D01*
X142775000Y-86975000D02*
X142775000Y-83175000D01*
X126575000Y-86975000D02*
X128075000Y-86975000D01*
X124275000Y-83175000D02*
X124275000Y-83875000D01*
G04 #@! TO.C,C8*
X169910000Y-116350000D02*
X168620000Y-116350000D01*
X161990000Y-116350000D02*
X163280000Y-116350000D01*
X163280000Y-118020000D02*
X168620000Y-118020000D01*
X163280000Y-114680000D02*
X163280000Y-118020000D01*
X168620000Y-114680000D02*
X163280000Y-114680000D01*
X168620000Y-118020000D02*
X168620000Y-114680000D01*
G04 #@! TO.C,Q1*
X154300000Y-83127000D02*
X154300000Y-88068000D01*
X147200000Y-83127000D02*
X147200000Y-85145000D01*
X143800000Y-83127000D02*
X143800000Y-88068000D01*
X143800000Y-83127000D02*
X154300000Y-83127000D01*
X150901000Y-83127000D02*
X150901000Y-85145000D01*
X143800000Y-85887000D02*
X145407000Y-85887000D01*
X143800000Y-88068000D02*
X154300000Y-88068000D01*
X147613000Y-85887000D02*
X147948000Y-85887000D01*
X150153000Y-85887000D02*
X150488000Y-85887000D01*
X152693000Y-85887000D02*
X154300000Y-85887000D01*
G04 #@! TO.C,C13*
X158355888Y-117390000D02*
X158355888Y-118550000D01*
X157514888Y-113822000D02*
X157514888Y-115310000D01*
X158035888Y-117390000D02*
X158035888Y-118715000D01*
X159275888Y-115099000D02*
X159275888Y-115310000D01*
X157154888Y-113774000D02*
X157154888Y-118926000D01*
X157394888Y-117390000D02*
X157394888Y-118900000D01*
X159515888Y-115673000D02*
X159515888Y-117027000D01*
X157795888Y-113895000D02*
X157795888Y-115310000D01*
X158555888Y-117390000D02*
X158555888Y-118415000D01*
X159475888Y-115545000D02*
X159475888Y-117155000D01*
X158875888Y-114565000D02*
X158875888Y-115310000D01*
X157274888Y-113785000D02*
X157274888Y-115310000D01*
X157875888Y-117390000D02*
X157875888Y-118778000D01*
X157314888Y-117390000D02*
X157314888Y-118911000D01*
X159395888Y-115339000D02*
X159395888Y-117361000D01*
X159155888Y-117390000D02*
X159155888Y-117793000D01*
X157514888Y-117390000D02*
X157514888Y-118878000D01*
X157995888Y-117390000D02*
X157995888Y-118732000D01*
X157474888Y-117390000D02*
X157474888Y-118886000D01*
X159075888Y-114796000D02*
X159075888Y-115310000D01*
X158635888Y-117390000D02*
X158635888Y-118354000D01*
X157314888Y-113789000D02*
X157314888Y-115310000D01*
X158355888Y-114150000D02*
X158355888Y-115310000D01*
X158155888Y-114040000D02*
X158155888Y-115310000D01*
X157634888Y-117390000D02*
X157634888Y-118851000D01*
X158235888Y-117390000D02*
X158235888Y-118618000D01*
X158435888Y-117390000D02*
X158435888Y-118499000D01*
X154190113Y-114875000D02*
X154690113Y-114875000D01*
X158315888Y-114126000D02*
X158315888Y-115310000D01*
X157634888Y-113849000D02*
X157634888Y-115310000D01*
X157474888Y-113814000D02*
X157474888Y-115310000D01*
X157674888Y-113859000D02*
X157674888Y-115310000D01*
X158795888Y-117390000D02*
X158795888Y-118214000D01*
X157034888Y-113770000D02*
X157034888Y-118930000D01*
X157955888Y-113952000D02*
X157955888Y-115310000D01*
X158835888Y-114524000D02*
X158835888Y-115310000D01*
X158195888Y-117390000D02*
X158195888Y-118640000D01*
X158595888Y-114315000D02*
X158595888Y-115310000D01*
X157554888Y-113830000D02*
X157554888Y-115310000D01*
X158435888Y-114201000D02*
X158435888Y-115310000D01*
X158475888Y-114228000D02*
X158475888Y-115310000D01*
X157835888Y-113908000D02*
X157835888Y-115310000D01*
X159115888Y-114850000D02*
X159115888Y-115310000D01*
X158915888Y-117390000D02*
X158915888Y-118093000D01*
X157995888Y-113968000D02*
X157995888Y-115310000D01*
X159315888Y-115172000D02*
X159315888Y-117528000D01*
X157434888Y-113807000D02*
X157434888Y-115310000D01*
X157915888Y-117390000D02*
X157915888Y-118764000D01*
X157755888Y-113882000D02*
X157755888Y-115310000D01*
X157234888Y-117390000D02*
X157234888Y-118919000D01*
X156994888Y-113770000D02*
X156994888Y-118930000D01*
X158475888Y-117390000D02*
X158475888Y-118472000D01*
X158955888Y-117390000D02*
X158955888Y-118049000D01*
X157274888Y-117390000D02*
X157274888Y-118915000D01*
X157354888Y-117390000D02*
X157354888Y-118906000D01*
X158715888Y-114413000D02*
X158715888Y-115310000D01*
X157434888Y-117390000D02*
X157434888Y-118893000D01*
X159275888Y-117390000D02*
X159275888Y-117601000D01*
X157715888Y-113870000D02*
X157715888Y-115310000D01*
X158875888Y-117390000D02*
X158875888Y-118135000D01*
X157594888Y-117390000D02*
X157594888Y-118861000D01*
X159195888Y-117390000D02*
X159195888Y-117733000D01*
X159435888Y-115435000D02*
X159435888Y-117265000D01*
X157074888Y-113771000D02*
X157074888Y-118929000D01*
X159595888Y-116066000D02*
X159595888Y-116634000D01*
X158515888Y-114255000D02*
X158515888Y-115310000D01*
X159115888Y-117390000D02*
X159115888Y-117850000D01*
X158795888Y-114486000D02*
X158795888Y-115310000D01*
X158995888Y-114697000D02*
X158995888Y-115310000D01*
X158755888Y-117390000D02*
X158755888Y-118251000D01*
X157234888Y-113781000D02*
X157234888Y-115310000D01*
X158955888Y-114651000D02*
X158955888Y-115310000D01*
X157194888Y-113777000D02*
X157194888Y-118923000D01*
X158755888Y-114449000D02*
X158755888Y-115310000D01*
X158195888Y-114060000D02*
X158195888Y-115310000D01*
X157955888Y-117390000D02*
X157955888Y-118748000D01*
X159555888Y-115832000D02*
X159555888Y-116868000D01*
X158115888Y-114021000D02*
X158115888Y-115310000D01*
X159235888Y-115031000D02*
X159235888Y-115310000D01*
X157594888Y-113839000D02*
X157594888Y-115310000D01*
X158635888Y-114346000D02*
X158635888Y-115310000D01*
X157394888Y-113800000D02*
X157394888Y-115310000D01*
X158155888Y-117390000D02*
X158155888Y-118660000D01*
X158035888Y-113985000D02*
X158035888Y-115310000D01*
X158835888Y-117390000D02*
X158835888Y-118176000D01*
X158315888Y-117390000D02*
X158315888Y-118574000D01*
X158275888Y-117390000D02*
X158275888Y-118597000D01*
X159155888Y-114907000D02*
X159155888Y-115310000D01*
X157915888Y-113936000D02*
X157915888Y-115310000D01*
X154440113Y-114625000D02*
X154440113Y-115125000D01*
X159235888Y-117390000D02*
X159235888Y-117669000D01*
X158235888Y-114082000D02*
X158235888Y-115310000D01*
X158275888Y-114103000D02*
X158275888Y-115310000D01*
X157875888Y-113922000D02*
X157875888Y-115310000D01*
X158915888Y-114607000D02*
X158915888Y-115310000D01*
X158075888Y-117390000D02*
X158075888Y-118698000D01*
X158395888Y-114175000D02*
X158395888Y-115310000D01*
X157755888Y-117390000D02*
X157755888Y-118818000D01*
X157674888Y-117390000D02*
X157674888Y-118841000D01*
X158395888Y-117390000D02*
X158395888Y-118525000D01*
X159075888Y-117390000D02*
X159075888Y-117904000D01*
X158675888Y-117390000D02*
X158675888Y-118321000D01*
X158715888Y-117390000D02*
X158715888Y-118287000D01*
X158075888Y-114002000D02*
X158075888Y-115310000D01*
X158995888Y-117390000D02*
X158995888Y-118003000D01*
X158595888Y-117390000D02*
X158595888Y-118385000D01*
X157715888Y-117390000D02*
X157715888Y-118830000D01*
X159035888Y-117390000D02*
X159035888Y-117955000D01*
X158555888Y-114285000D02*
X158555888Y-115310000D01*
X158115888Y-117390000D02*
X158115888Y-118679000D01*
X157114888Y-113772000D02*
X157114888Y-118928000D01*
X158515888Y-117390000D02*
X158515888Y-118445000D01*
X159195888Y-114967000D02*
X159195888Y-115310000D01*
X159355888Y-115252000D02*
X159355888Y-117448000D01*
X157795888Y-117390000D02*
X157795888Y-118805000D01*
X157554888Y-117390000D02*
X157554888Y-118870000D01*
X157354888Y-113794000D02*
X157354888Y-115310000D01*
X159035888Y-114745000D02*
X159035888Y-115310000D01*
X157835888Y-117390000D02*
X157835888Y-118792000D01*
X158675888Y-114379000D02*
X158675888Y-115310000D01*
X159614888Y-116350000D02*
G75*
G03*
X159614888Y-116350000I-2620000J0D01*
G01*
G04 #@! TO.C,C4*
X176789000Y-110910000D02*
X176789000Y-108612000D01*
X176189000Y-114776000D02*
X176189000Y-109124000D01*
X178269000Y-115935000D02*
X178269000Y-112990000D01*
X176709000Y-110910000D02*
X176709000Y-108670000D01*
X175909000Y-114455000D02*
X175909000Y-109445000D01*
X179070000Y-116030000D02*
X179070000Y-107870000D01*
X175429000Y-113681000D02*
X175429000Y-110219000D01*
X178630000Y-115998000D02*
X178630000Y-107902000D01*
X177469000Y-115672000D02*
X177469000Y-112990000D01*
X176349000Y-114933000D02*
X176349000Y-108967000D01*
X178870000Y-116021000D02*
X178870000Y-107879000D01*
X176589000Y-110910000D02*
X176589000Y-108761000D01*
X178069000Y-115886000D02*
X178069000Y-112990000D01*
X177029000Y-115443000D02*
X177029000Y-112990000D01*
X177069000Y-115467000D02*
X177069000Y-112990000D01*
X177909000Y-115839000D02*
X177909000Y-112990000D01*
X177029000Y-110910000D02*
X177029000Y-108457000D01*
X176709000Y-115230000D02*
X176709000Y-112990000D01*
X177909000Y-110910000D02*
X177909000Y-108061000D01*
X176429000Y-110910000D02*
X176429000Y-108895000D01*
X178790000Y-116015000D02*
X178790000Y-107885000D01*
X177429000Y-110910000D02*
X177429000Y-108246000D01*
X176869000Y-110910000D02*
X176869000Y-108558000D01*
X183559698Y-114265000D02*
X182759698Y-114265000D01*
X178109000Y-110910000D02*
X178109000Y-108003000D01*
X177629000Y-115740000D02*
X177629000Y-112990000D01*
X178149000Y-110910000D02*
X178149000Y-107993000D01*
X176309000Y-114895000D02*
X176309000Y-109005000D01*
X177869000Y-110910000D02*
X177869000Y-108073000D01*
X176549000Y-115106000D02*
X176549000Y-112990000D01*
X177709000Y-115771000D02*
X177709000Y-112990000D01*
X176909000Y-110910000D02*
X176909000Y-108532000D01*
X175949000Y-114506000D02*
X175949000Y-109394000D01*
X175669000Y-114116000D02*
X175669000Y-109784000D01*
X176469000Y-110910000D02*
X176469000Y-108860000D01*
X176589000Y-115139000D02*
X176589000Y-112990000D01*
X177349000Y-110910000D02*
X177349000Y-108284000D01*
X176949000Y-115394000D02*
X176949000Y-112990000D01*
X177789000Y-115800000D02*
X177789000Y-112990000D01*
X177669000Y-110910000D02*
X177669000Y-108145000D01*
X176429000Y-115005000D02*
X176429000Y-112990000D01*
X178510000Y-115980000D02*
X178510000Y-107920000D01*
X175509000Y-113840000D02*
X175509000Y-110060000D01*
X176229000Y-114817000D02*
X176229000Y-109083000D01*
X176789000Y-115288000D02*
X176789000Y-112990000D01*
X178229000Y-115926000D02*
X178229000Y-112990000D01*
X175149000Y-112898000D02*
X175149000Y-111002000D01*
X177429000Y-115654000D02*
X177429000Y-112990000D01*
X178950000Y-116026000D02*
X178950000Y-107874000D01*
X177189000Y-115534000D02*
X177189000Y-112990000D01*
X175109000Y-112718000D02*
X175109000Y-111182000D01*
X178229000Y-110910000D02*
X178229000Y-107974000D01*
X177709000Y-110910000D02*
X177709000Y-108129000D01*
X178189000Y-110910000D02*
X178189000Y-107983000D01*
X177949000Y-115852000D02*
X177949000Y-112990000D01*
X176749000Y-115259000D02*
X176749000Y-112990000D01*
X177589000Y-115724000D02*
X177589000Y-112990000D01*
X178189000Y-115917000D02*
X178189000Y-112990000D01*
X178710000Y-116007000D02*
X178710000Y-107893000D01*
X176669000Y-115200000D02*
X176669000Y-112990000D01*
X177669000Y-115755000D02*
X177669000Y-112990000D01*
X177989000Y-115864000D02*
X177989000Y-112990000D01*
X177549000Y-110910000D02*
X177549000Y-108193000D01*
X178590000Y-115992000D02*
X178590000Y-107908000D01*
X177349000Y-115616000D02*
X177349000Y-112990000D01*
X176389000Y-114969000D02*
X176389000Y-112990000D01*
X178750000Y-116011000D02*
X178750000Y-107889000D01*
X178149000Y-115907000D02*
X178149000Y-112990000D01*
X175469000Y-113763000D02*
X175469000Y-110137000D01*
X178910000Y-116024000D02*
X178910000Y-107876000D01*
X175229000Y-113179000D02*
X175229000Y-110721000D01*
X177509000Y-110910000D02*
X177509000Y-108210000D01*
X179030000Y-116029000D02*
X179030000Y-107871000D01*
X177509000Y-115690000D02*
X177509000Y-112990000D01*
X178429000Y-110910000D02*
X178429000Y-107933000D01*
X183159698Y-114665000D02*
X183159698Y-113865000D01*
X178990000Y-116027000D02*
X178990000Y-107873000D01*
X178389000Y-115960000D02*
X178389000Y-112990000D01*
X175589000Y-113984000D02*
X175589000Y-109916000D01*
X177549000Y-115707000D02*
X177549000Y-112990000D01*
X176029000Y-114601000D02*
X176029000Y-109299000D01*
X177749000Y-115785000D02*
X177749000Y-112990000D01*
X175269000Y-113296000D02*
X175269000Y-110604000D01*
X178389000Y-110910000D02*
X178389000Y-107940000D01*
X175069000Y-112483000D02*
X175069000Y-111417000D01*
X176669000Y-110910000D02*
X176669000Y-108700000D01*
X178029000Y-110910000D02*
X178029000Y-108025000D01*
X178670000Y-116002000D02*
X178670000Y-107898000D01*
X176909000Y-115368000D02*
X176909000Y-112990000D01*
X177389000Y-115636000D02*
X177389000Y-112990000D01*
X176829000Y-115315000D02*
X176829000Y-112990000D01*
X177749000Y-110910000D02*
X177749000Y-108115000D01*
X176629000Y-110910000D02*
X176629000Y-108730000D01*
X177829000Y-115813000D02*
X177829000Y-112990000D01*
X177869000Y-115827000D02*
X177869000Y-112990000D01*
X177469000Y-110910000D02*
X177469000Y-108228000D01*
X177389000Y-110910000D02*
X177389000Y-108264000D01*
X178309000Y-110910000D02*
X178309000Y-107956000D01*
X175629000Y-114052000D02*
X175629000Y-109848000D01*
X179150000Y-116030000D02*
X179150000Y-107870000D01*
X175189000Y-113048000D02*
X175189000Y-110852000D01*
X175749000Y-114237000D02*
X175749000Y-109663000D01*
X177069000Y-110910000D02*
X177069000Y-108433000D01*
X178429000Y-115967000D02*
X178429000Y-112990000D01*
X178269000Y-110910000D02*
X178269000Y-107965000D01*
X177269000Y-115577000D02*
X177269000Y-112990000D01*
X177269000Y-110910000D02*
X177269000Y-108323000D01*
X176509000Y-115074000D02*
X176509000Y-112990000D01*
X176509000Y-110910000D02*
X176509000Y-108826000D01*
X177229000Y-110910000D02*
X177229000Y-108344000D01*
X178069000Y-110910000D02*
X178069000Y-108014000D01*
X177829000Y-110910000D02*
X177829000Y-108087000D01*
X177149000Y-115512000D02*
X177149000Y-112990000D01*
X176869000Y-115342000D02*
X176869000Y-112990000D01*
X175869000Y-114404000D02*
X175869000Y-109496000D01*
X176989000Y-110910000D02*
X176989000Y-108481000D01*
X178309000Y-115944000D02*
X178309000Y-112990000D01*
X177149000Y-110910000D02*
X177149000Y-108388000D01*
X175349000Y-113502000D02*
X175349000Y-110398000D01*
X177949000Y-110910000D02*
X177949000Y-108048000D01*
X178109000Y-115897000D02*
X178109000Y-112990000D01*
X176949000Y-110910000D02*
X176949000Y-108506000D01*
X176749000Y-110910000D02*
X176749000Y-108641000D01*
X175389000Y-113595000D02*
X175389000Y-110305000D01*
X178830000Y-116018000D02*
X178830000Y-107882000D01*
X176549000Y-110910000D02*
X176549000Y-108794000D01*
X177989000Y-110910000D02*
X177989000Y-108036000D01*
X176269000Y-114857000D02*
X176269000Y-109043000D01*
X176109000Y-114691000D02*
X176109000Y-109209000D01*
X176149000Y-114734000D02*
X176149000Y-109166000D01*
X175549000Y-113914000D02*
X175549000Y-109986000D01*
X176069000Y-114647000D02*
X176069000Y-109253000D01*
X179110000Y-116030000D02*
X179110000Y-107870000D01*
X177109000Y-115490000D02*
X177109000Y-112990000D01*
X175309000Y-113403000D02*
X175309000Y-110497000D01*
X178349000Y-115952000D02*
X178349000Y-112990000D01*
X177189000Y-110910000D02*
X177189000Y-108366000D01*
X177109000Y-110910000D02*
X177109000Y-108410000D01*
X177629000Y-110910000D02*
X177629000Y-108160000D01*
X177309000Y-110910000D02*
X177309000Y-108303000D01*
X178550000Y-115987000D02*
X178550000Y-107913000D01*
X177589000Y-110910000D02*
X177589000Y-108176000D01*
X175829000Y-114350000D02*
X175829000Y-109550000D01*
X178349000Y-110910000D02*
X178349000Y-107948000D01*
X178029000Y-115875000D02*
X178029000Y-112990000D01*
X175789000Y-114295000D02*
X175789000Y-109605000D01*
X178470000Y-115974000D02*
X178470000Y-107926000D01*
X177309000Y-115597000D02*
X177309000Y-112990000D01*
X176629000Y-115170000D02*
X176629000Y-112990000D01*
X175709000Y-114178000D02*
X175709000Y-109722000D01*
X177789000Y-110910000D02*
X177789000Y-108100000D01*
X176469000Y-115040000D02*
X176469000Y-112990000D01*
X176389000Y-110910000D02*
X176389000Y-108931000D01*
X177229000Y-115556000D02*
X177229000Y-112990000D01*
X175989000Y-114554000D02*
X175989000Y-109346000D01*
X176989000Y-115419000D02*
X176989000Y-112990000D01*
X176829000Y-110910000D02*
X176829000Y-108585000D01*
X183270000Y-111950000D02*
G75*
G03*
X183270000Y-111950000I-4120000J0D01*
G01*
G04 #@! TO.C,T1*
X173800000Y-91250000D02*
X173800000Y-113850000D01*
X152200000Y-113850000D02*
X152200000Y-91250000D01*
X152200000Y-91250000D02*
X173800000Y-91250000D01*
X173800000Y-113850000D02*
X152200000Y-113850000D01*
G04 #@! TO.C,D4*
X144570000Y-106650000D02*
X144570000Y-101210000D01*
X141630000Y-106650000D02*
X144570000Y-106650000D01*
X144570000Y-102110000D02*
X141630000Y-102110000D01*
X144570000Y-101990000D02*
X141630000Y-101990000D01*
X141630000Y-101210000D02*
X141630000Y-106650000D01*
X144570000Y-102230000D02*
X141630000Y-102230000D01*
X143100000Y-100190000D02*
X143100000Y-101210000D01*
X144570000Y-101210000D02*
X141630000Y-101210000D01*
X143100000Y-107670000D02*
X143100000Y-106650000D01*
G04 #@! TO.C,TP3*
X183750781Y-117500000D02*
G75*
G03*
X183750781Y-117500000I-1600781J0D01*
G01*
G04 #@! TO.C,U3*
X173930000Y-89400000D02*
X170330000Y-89400000D01*
X172130000Y-93850001D02*
G75*
G03*
X173968478Y-89411522I0J2600001D01*
G01*
X170291522Y-89411522D02*
G75*
G03*
X172130000Y-93850000I1838478J-1838478D01*
G01*
G04 #@! TO.C,D6*
X148000000Y-100930000D02*
X148000000Y-101580000D01*
X149120000Y-101580000D02*
X146880000Y-101580000D01*
X149120000Y-102300000D02*
X146880000Y-102300000D01*
X149120000Y-102180000D02*
X146880000Y-102180000D01*
X146880000Y-105820000D02*
X149120000Y-105820000D01*
X149120000Y-105820000D02*
X149120000Y-101580000D01*
X149120000Y-102420000D02*
X146880000Y-102420000D01*
X146880000Y-101580000D02*
X146880000Y-105820000D01*
X148000000Y-106470000D02*
X148000000Y-105820000D01*
G04 #@! TO.C,FL1*
X137250000Y-89650000D02*
X137250000Y-101050000D01*
X137250000Y-101050000D02*
X121650000Y-101050000D01*
X121650000Y-89650000D02*
X137250000Y-89650000D01*
X121550000Y-101050000D02*
X121550000Y-89650000D01*
G04 #@! TO.C,C12*
X162640000Y-87974113D02*
X164028000Y-87974113D01*
X162640000Y-87294113D02*
X163665000Y-87294113D01*
X159332000Y-87614113D02*
X160560000Y-87614113D01*
X162640000Y-87334113D02*
X163695000Y-87334113D01*
X159050000Y-88455113D02*
X160560000Y-88455113D01*
X162640000Y-87414113D02*
X163749000Y-87414113D01*
X162640000Y-88375113D02*
X164136000Y-88375113D01*
X159478000Y-87374113D02*
X160560000Y-87374113D01*
X162640000Y-87494113D02*
X163800000Y-87494113D01*
X159310000Y-87654113D02*
X160560000Y-87654113D01*
X162640000Y-86734113D02*
X163100000Y-86734113D01*
X159901000Y-86894113D02*
X160560000Y-86894113D01*
X159290000Y-87694113D02*
X160560000Y-87694113D01*
X159774000Y-87014113D02*
X160560000Y-87014113D01*
X159021000Y-88775113D02*
X164179000Y-88775113D01*
X162640000Y-87894113D02*
X163998000Y-87894113D01*
X162640000Y-88014113D02*
X164042000Y-88014113D01*
X159080000Y-88295113D02*
X160560000Y-88295113D01*
X159031000Y-88615113D02*
X160560000Y-88615113D01*
X159535000Y-87294113D02*
X160560000Y-87294113D01*
X159218000Y-87854113D02*
X160560000Y-87854113D01*
X160795000Y-86374113D02*
X162405000Y-86374113D01*
X159596000Y-87214113D02*
X160560000Y-87214113D01*
X162640000Y-87814113D02*
X163965000Y-87814113D01*
X159353000Y-87574113D02*
X160560000Y-87574113D01*
X162640000Y-88535113D02*
X164161000Y-88535113D01*
X162640000Y-87174113D02*
X163571000Y-87174113D01*
X159629000Y-87174113D02*
X160560000Y-87174113D01*
X160125000Y-91659888D02*
X160125000Y-91159888D01*
X159947000Y-86854113D02*
X160560000Y-86854113D01*
X162640000Y-88495113D02*
X164156000Y-88495113D01*
X159565000Y-87254113D02*
X160560000Y-87254113D01*
X162640000Y-87054113D02*
X163464000Y-87054113D01*
X162640000Y-87134113D02*
X163537000Y-87134113D01*
X162640000Y-87934113D02*
X164014000Y-87934113D01*
X159995000Y-86814113D02*
X160560000Y-86814113D01*
X162640000Y-88255113D02*
X164111000Y-88255113D01*
X159252000Y-87774113D02*
X160560000Y-87774113D01*
X160349000Y-86574113D02*
X160560000Y-86574113D01*
X162640000Y-87774113D02*
X163948000Y-87774113D01*
X161082000Y-86294113D02*
X162118000Y-86294113D01*
X159089000Y-88255113D02*
X160560000Y-88255113D01*
X159271000Y-87734113D02*
X160560000Y-87734113D01*
X160589000Y-86454113D02*
X162611000Y-86454113D01*
X162640000Y-87254113D02*
X163635000Y-87254113D01*
X162640000Y-87614113D02*
X163868000Y-87614113D01*
X160502000Y-86494113D02*
X162698000Y-86494113D01*
X160281000Y-86614113D02*
X160560000Y-86614113D01*
X160923000Y-86334113D02*
X162277000Y-86334113D01*
X162640000Y-87214113D02*
X163604000Y-87214113D01*
X159064000Y-88375113D02*
X160560000Y-88375113D01*
X162640000Y-87574113D02*
X163847000Y-87574113D01*
X160157000Y-86694113D02*
X160560000Y-86694113D01*
X159202000Y-87894113D02*
X160560000Y-87894113D01*
X162640000Y-86654113D02*
X162983000Y-86654113D01*
X162640000Y-87094113D02*
X163501000Y-87094113D01*
X162640000Y-86774113D02*
X163154000Y-86774113D01*
X162640000Y-86934113D02*
X163343000Y-86934113D01*
X159044000Y-88495113D02*
X160560000Y-88495113D01*
X162640000Y-86694113D02*
X163043000Y-86694113D01*
X159145000Y-88054113D02*
X160560000Y-88054113D01*
X159505000Y-87334113D02*
X160560000Y-87334113D01*
X162640000Y-87734113D02*
X163929000Y-87734113D01*
X160100000Y-86734113D02*
X160560000Y-86734113D01*
X162640000Y-87374113D02*
X163722000Y-87374113D01*
X159022000Y-88735113D02*
X164178000Y-88735113D01*
X162640000Y-88295113D02*
X164120000Y-88295113D01*
X162640000Y-88615113D02*
X164169000Y-88615113D01*
X162640000Y-87654113D02*
X163890000Y-87654113D01*
X162640000Y-88094113D02*
X164068000Y-88094113D01*
X162640000Y-88415113D02*
X164143000Y-88415113D01*
X159857000Y-86934113D02*
X160560000Y-86934113D01*
X160685000Y-86414113D02*
X162515000Y-86414113D01*
X162640000Y-88175113D02*
X164091000Y-88175113D01*
X159815000Y-86974113D02*
X160560000Y-86974113D01*
X162640000Y-87454113D02*
X163775000Y-87454113D01*
X159132000Y-88094113D02*
X160560000Y-88094113D01*
X159120000Y-88134113D02*
X160560000Y-88134113D01*
X159186000Y-87934113D02*
X160560000Y-87934113D01*
X159663000Y-87134113D02*
X160560000Y-87134113D01*
X160217000Y-86654113D02*
X160560000Y-86654113D01*
X159451000Y-87414113D02*
X160560000Y-87414113D01*
X161316000Y-86254113D02*
X161884000Y-86254113D01*
X162640000Y-86894113D02*
X163299000Y-86894113D01*
X159020000Y-88815113D02*
X164180000Y-88815113D01*
X159172000Y-87974113D02*
X160560000Y-87974113D01*
X162640000Y-86974113D02*
X163385000Y-86974113D01*
X159039000Y-88535113D02*
X160560000Y-88535113D01*
X162640000Y-88134113D02*
X164080000Y-88134113D01*
X159027000Y-88655113D02*
X164173000Y-88655113D01*
X159158000Y-88014113D02*
X160560000Y-88014113D01*
X159035000Y-88575113D02*
X160560000Y-88575113D01*
X159699000Y-87094113D02*
X160560000Y-87094113D01*
X159235000Y-87814113D02*
X160560000Y-87814113D01*
X159736000Y-87054113D02*
X160560000Y-87054113D01*
X162640000Y-86574113D02*
X162851000Y-86574113D01*
X162640000Y-88575113D02*
X164165000Y-88575113D01*
X159024000Y-88695113D02*
X164176000Y-88695113D01*
X162640000Y-88335113D02*
X164128000Y-88335113D01*
X162640000Y-87014113D02*
X163426000Y-87014113D01*
X162640000Y-88215113D02*
X164101000Y-88215113D01*
X159072000Y-88335113D02*
X160560000Y-88335113D01*
X159425000Y-87454113D02*
X160560000Y-87454113D01*
X159099000Y-88215113D02*
X160560000Y-88215113D01*
X160046000Y-86774113D02*
X160560000Y-86774113D01*
X162640000Y-87854113D02*
X163982000Y-87854113D01*
X159020000Y-88855113D02*
X164180000Y-88855113D01*
X159109000Y-88175113D02*
X160560000Y-88175113D01*
X159057000Y-88415113D02*
X160560000Y-88415113D01*
X162640000Y-87694113D02*
X163910000Y-87694113D01*
X159400000Y-87494113D02*
X160560000Y-87494113D01*
X162640000Y-86814113D02*
X163205000Y-86814113D01*
X162640000Y-86614113D02*
X162919000Y-86614113D01*
X162640000Y-88054113D02*
X164055000Y-88054113D01*
X162640000Y-86854113D02*
X163253000Y-86854113D01*
X159376000Y-87534113D02*
X160560000Y-87534113D01*
X162640000Y-87534113D02*
X163824000Y-87534113D01*
X162640000Y-88455113D02*
X164150000Y-88455113D01*
X160422000Y-86534113D02*
X162778000Y-86534113D01*
X159875000Y-91409888D02*
X160375000Y-91409888D01*
X164220000Y-88855113D02*
G75*
G03*
X164220000Y-88855113I-2620000J0D01*
G01*
G04 #@! TO.C,R7*
X156150000Y-85816728D02*
G75*
G03*
X157921380Y-85925225I800000J-1453272D01*
G01*
G04 #@! TO.C,D2*
X184620000Y-83425000D02*
X184620000Y-88066000D01*
X177650000Y-83425000D02*
X177650000Y-84935000D01*
X181351000Y-83425000D02*
X181351000Y-84935000D01*
X174380000Y-84935000D02*
X184620000Y-84935000D01*
X174380000Y-83425000D02*
X174380000Y-88066000D01*
X174380000Y-88066000D02*
X184620000Y-88066000D01*
X174380000Y-83425000D02*
X184620000Y-83425000D01*
G04 #@! TO.C,D5*
X153280000Y-92270000D02*
X157520000Y-92270000D01*
X156680000Y-92270000D02*
X156680000Y-90030000D01*
X158170000Y-91150000D02*
X157520000Y-91150000D01*
X152630000Y-91150000D02*
X153280000Y-91150000D01*
X156800000Y-92270000D02*
X156800000Y-90030000D01*
X157520000Y-90030000D02*
X153280000Y-90030000D01*
X156920000Y-92270000D02*
X156920000Y-90030000D01*
X153280000Y-90030000D02*
X153280000Y-92270000D01*
X157520000Y-92270000D02*
X157520000Y-90030000D01*
G04 #@! TO.C,C6*
X139404216Y-94345000D02*
X139404216Y-91440000D01*
X140124216Y-88560000D02*
X140124216Y-84956000D01*
X141844216Y-96082000D02*
X141844216Y-91440000D01*
X138804216Y-93554000D02*
X138804216Y-86446000D01*
X139684216Y-94643000D02*
X139684216Y-91440000D01*
X138084216Y-92055000D02*
X138084216Y-87945000D01*
X141524216Y-95940000D02*
X141524216Y-91440000D01*
X138004216Y-91798000D02*
X138004216Y-88202000D01*
X141924216Y-88560000D02*
X141924216Y-83886000D01*
X141884216Y-88560000D02*
X141884216Y-83902000D01*
X141444216Y-95902000D02*
X141444216Y-91440000D01*
X139324216Y-88560000D02*
X139324216Y-85747000D01*
X138124216Y-92171000D02*
X138124216Y-87829000D01*
X139444216Y-88560000D02*
X139444216Y-85610000D01*
X140404216Y-95265000D02*
X140404216Y-91440000D01*
X142444216Y-96296000D02*
X142444216Y-83704000D01*
X139804216Y-94760000D02*
X139804216Y-91440000D01*
X140124216Y-95044000D02*
X140124216Y-91440000D01*
X139004216Y-93846000D02*
X139004216Y-86154000D01*
X139284216Y-94205000D02*
X139284216Y-91440000D01*
X143124216Y-96463000D02*
X143124216Y-83537000D01*
X141684216Y-88560000D02*
X141684216Y-83986000D01*
X139964216Y-94907000D02*
X139964216Y-91440000D01*
X139364216Y-88560000D02*
X139364216Y-85701000D01*
X141004216Y-95664000D02*
X141004216Y-91440000D01*
X141804216Y-96065000D02*
X141804216Y-91440000D01*
X140684216Y-88560000D02*
X140684216Y-84537000D01*
X139444216Y-94390000D02*
X139444216Y-91440000D01*
X141044216Y-88560000D02*
X141044216Y-84312000D01*
X142044216Y-96161000D02*
X142044216Y-91440000D01*
X140844216Y-95567000D02*
X140844216Y-91440000D01*
X139404216Y-88560000D02*
X139404216Y-85655000D01*
X142044216Y-88560000D02*
X142044216Y-83839000D01*
X139924216Y-94871000D02*
X139924216Y-91440000D01*
X142284216Y-96245000D02*
X142284216Y-83755000D01*
X140764216Y-95516000D02*
X140764216Y-91440000D01*
X138724216Y-93427000D02*
X138724216Y-86573000D01*
X139124216Y-94006000D02*
X139124216Y-85994000D01*
X139204216Y-94108000D02*
X139204216Y-91440000D01*
X143644216Y-96541000D02*
X143644216Y-83459000D01*
X140404216Y-88560000D02*
X140404216Y-84735000D01*
X139924216Y-88560000D02*
X139924216Y-85129000D01*
X142724216Y-96374000D02*
X142724216Y-83626000D01*
X143685216Y-96545000D02*
X143685216Y-83455000D01*
X141084216Y-95711000D02*
X141084216Y-91440000D01*
X138204216Y-92385000D02*
X138204216Y-87615000D01*
X140204216Y-95110000D02*
X140204216Y-91440000D01*
X139164216Y-94057000D02*
X139164216Y-85943000D01*
X137764216Y-90475000D02*
X137764216Y-89525000D01*
X141964216Y-96130000D02*
X141964216Y-91440000D01*
X140324216Y-88560000D02*
X140324216Y-84795000D01*
X141724216Y-96031000D02*
X141724216Y-91440000D01*
X143324216Y-96498000D02*
X143324216Y-83502000D01*
X142004216Y-88560000D02*
X142004216Y-83854000D01*
X141964216Y-88560000D02*
X141964216Y-83870000D01*
X140804216Y-95542000D02*
X140804216Y-91440000D01*
X140044216Y-94977000D02*
X140044216Y-91440000D01*
X140524216Y-88560000D02*
X140524216Y-84647000D01*
X141204216Y-88560000D02*
X141204216Y-84222000D01*
X140684216Y-95463000D02*
X140684216Y-91440000D01*
X139484216Y-94434000D02*
X139484216Y-91440000D01*
X139524216Y-94477000D02*
X139524216Y-91440000D01*
X139884216Y-88560000D02*
X139884216Y-85166000D01*
X140924216Y-88560000D02*
X140924216Y-84383000D01*
X140004216Y-94942000D02*
X140004216Y-91440000D01*
X141844216Y-88560000D02*
X141844216Y-83918000D01*
X140964216Y-88560000D02*
X140964216Y-84359000D01*
X141244216Y-95799000D02*
X141244216Y-91440000D01*
X138364216Y-92758000D02*
X138364216Y-87242000D01*
X143524216Y-96527000D02*
X143524216Y-83473000D01*
X142164216Y-96204000D02*
X142164216Y-83796000D01*
X143084216Y-96456000D02*
X143084216Y-83544000D01*
X140724216Y-95490000D02*
X140724216Y-91440000D01*
X138964216Y-93790000D02*
X138964216Y-86210000D01*
X140524216Y-95353000D02*
X140524216Y-91440000D01*
X142524216Y-96320000D02*
X142524216Y-83680000D01*
X138564216Y-93152000D02*
X138564216Y-86848000D01*
X143484216Y-96522000D02*
X143484216Y-83478000D01*
X138044216Y-91931000D02*
X138044216Y-88069000D01*
X141644216Y-95996000D02*
X141644216Y-91440000D01*
X140564216Y-95381000D02*
X140564216Y-91440000D01*
X139684216Y-88560000D02*
X139684216Y-85357000D01*
X143444216Y-96516000D02*
X143444216Y-83484000D01*
X143604216Y-96537000D02*
X143604216Y-83463000D01*
X140924216Y-95617000D02*
X140924216Y-91440000D01*
X142084216Y-96175000D02*
X142084216Y-83825000D01*
X139524216Y-88560000D02*
X139524216Y-85523000D01*
X142204216Y-96218000D02*
X142204216Y-83782000D01*
X141684216Y-96014000D02*
X141684216Y-91440000D01*
X138284216Y-92579000D02*
X138284216Y-87421000D01*
X137844216Y-91107000D02*
X137844216Y-88893000D01*
X140244216Y-88560000D02*
X140244216Y-84858000D01*
X143364216Y-96505000D02*
X143364216Y-83495000D01*
X151449785Y-93715000D02*
X150149785Y-93715000D01*
X142124216Y-96190000D02*
X142124216Y-83810000D01*
X140164216Y-95078000D02*
X140164216Y-91440000D01*
X141284216Y-95820000D02*
X141284216Y-91440000D01*
X143004216Y-96439000D02*
X143004216Y-83561000D01*
X141284216Y-88560000D02*
X141284216Y-84180000D01*
X138324216Y-92670000D02*
X138324216Y-87330000D01*
X144205216Y-96579000D02*
X144205216Y-83421000D01*
X141604216Y-88560000D02*
X141604216Y-84022000D01*
X143044216Y-96448000D02*
X143044216Y-83552000D01*
X140444216Y-95295000D02*
X140444216Y-91440000D01*
X139244216Y-94157000D02*
X139244216Y-91440000D01*
X139204216Y-88560000D02*
X139204216Y-85892000D01*
X143204216Y-96478000D02*
X143204216Y-83522000D01*
X140604216Y-88560000D02*
X140604216Y-84591000D01*
X141164216Y-95756000D02*
X141164216Y-91440000D01*
X140284216Y-88560000D02*
X140284216Y-84826000D01*
X142924216Y-96422000D02*
X142924216Y-83578000D01*
X139844216Y-94797000D02*
X139844216Y-91440000D01*
X141564216Y-88560000D02*
X141564216Y-84041000D01*
X141604216Y-95978000D02*
X141604216Y-91440000D01*
X139724216Y-94682000D02*
X139724216Y-91440000D01*
X139884216Y-94834000D02*
X139884216Y-91440000D01*
X143404216Y-96511000D02*
X143404216Y-83489000D01*
X144365216Y-96580000D02*
X144365216Y-83420000D01*
X139804216Y-88560000D02*
X139804216Y-85240000D01*
X140444216Y-88560000D02*
X140444216Y-84705000D01*
X139564216Y-94519000D02*
X139564216Y-91440000D01*
X144085216Y-96575000D02*
X144085216Y-83425000D01*
X140844216Y-88560000D02*
X140844216Y-84433000D01*
X139724216Y-88560000D02*
X139724216Y-85318000D01*
X142324216Y-96258000D02*
X142324216Y-83742000D01*
X138844216Y-93615000D02*
X138844216Y-86385000D01*
X140244216Y-95142000D02*
X140244216Y-91440000D01*
X142764216Y-96384000D02*
X142764216Y-83616000D01*
X140484216Y-95324000D02*
X140484216Y-91440000D01*
X141404216Y-95882000D02*
X141404216Y-91440000D01*
X141804216Y-88560000D02*
X141804216Y-83935000D01*
X142564216Y-96331000D02*
X142564216Y-83669000D01*
X139964216Y-88560000D02*
X139964216Y-85093000D01*
X144325216Y-96580000D02*
X144325216Y-83420000D01*
X140884216Y-88560000D02*
X140884216Y-84408000D01*
X140604216Y-95409000D02*
X140604216Y-91440000D01*
X139764216Y-88560000D02*
X139764216Y-85279000D01*
X137924216Y-91494000D02*
X137924216Y-88506000D01*
X142884216Y-96413000D02*
X142884216Y-83587000D01*
X143925216Y-96566000D02*
X143925216Y-83434000D01*
X141124216Y-95733000D02*
X141124216Y-91440000D01*
X141204216Y-95778000D02*
X141204216Y-91440000D01*
X142484216Y-96308000D02*
X142484216Y-83692000D01*
X138444216Y-92923000D02*
X138444216Y-87077000D01*
X137964216Y-91653000D02*
X137964216Y-88347000D01*
X141764216Y-96049000D02*
X141764216Y-91440000D01*
X144245216Y-96579000D02*
X144245216Y-83421000D01*
X141164216Y-88560000D02*
X141164216Y-84244000D01*
X139604216Y-94561000D02*
X139604216Y-91440000D01*
X139564216Y-88560000D02*
X139564216Y-85481000D01*
X137804216Y-90850000D02*
X137804216Y-89150000D01*
X142804216Y-96394000D02*
X142804216Y-83606000D01*
X139084216Y-93954000D02*
X139084216Y-86046000D01*
X139244216Y-88560000D02*
X139244216Y-85843000D01*
X150799785Y-94365000D02*
X150799785Y-93065000D01*
X139044216Y-93900000D02*
X139044216Y-86100000D01*
X141084216Y-88560000D02*
X141084216Y-84289000D01*
X141444216Y-88560000D02*
X141444216Y-84098000D01*
X140164216Y-88560000D02*
X140164216Y-84922000D01*
X140084216Y-95011000D02*
X140084216Y-91440000D01*
X138484216Y-93002000D02*
X138484216Y-86998000D01*
X138684216Y-93361000D02*
X138684216Y-86639000D01*
X143284216Y-96492000D02*
X143284216Y-83508000D01*
X138524216Y-93078000D02*
X138524216Y-86922000D01*
X143244216Y-96485000D02*
X143244216Y-83515000D01*
X141764216Y-88560000D02*
X141764216Y-83951000D01*
X141644216Y-88560000D02*
X141644216Y-84004000D01*
X141004216Y-88560000D02*
X141004216Y-84336000D01*
X143845216Y-96560000D02*
X143845216Y-83440000D01*
X142364216Y-96271000D02*
X142364216Y-83729000D01*
X141324216Y-88560000D02*
X141324216Y-84159000D01*
X138404216Y-92842000D02*
X138404216Y-87158000D01*
X139364216Y-94299000D02*
X139364216Y-91440000D01*
X141244216Y-88560000D02*
X141244216Y-84201000D01*
X143164216Y-96471000D02*
X143164216Y-83529000D01*
X142684216Y-96364000D02*
X142684216Y-83636000D01*
X140004216Y-88560000D02*
X140004216Y-85058000D01*
X140084216Y-88560000D02*
X140084216Y-84989000D01*
X141524216Y-88560000D02*
X141524216Y-84060000D01*
X140204216Y-88560000D02*
X140204216Y-84890000D01*
X139604216Y-88560000D02*
X139604216Y-85439000D01*
X142244216Y-96232000D02*
X142244216Y-83768000D01*
X138164216Y-92281000D02*
X138164216Y-87719000D01*
X140964216Y-95641000D02*
X140964216Y-91440000D01*
X139844216Y-88560000D02*
X139844216Y-85203000D01*
X141924216Y-96114000D02*
X141924216Y-91440000D01*
X141884216Y-96098000D02*
X141884216Y-91440000D01*
X140644216Y-95436000D02*
X140644216Y-91440000D01*
X143965216Y-96568000D02*
X143965216Y-83432000D01*
X142844216Y-96404000D02*
X142844216Y-83596000D01*
X140764216Y-88560000D02*
X140764216Y-84484000D01*
X140724216Y-88560000D02*
X140724216Y-84510000D01*
X139484216Y-88560000D02*
X139484216Y-85566000D01*
X140484216Y-88560000D02*
X140484216Y-84676000D01*
X140364216Y-88560000D02*
X140364216Y-84765000D01*
X142404216Y-96284000D02*
X142404216Y-83716000D01*
X140364216Y-95235000D02*
X140364216Y-91440000D01*
X138924216Y-93733000D02*
X138924216Y-86267000D01*
X142004216Y-96146000D02*
X142004216Y-91440000D01*
X143725216Y-96549000D02*
X143725216Y-83451000D01*
X142604216Y-96342000D02*
X142604216Y-83658000D01*
X140884216Y-95592000D02*
X140884216Y-91440000D01*
X139644216Y-88560000D02*
X139644216Y-85398000D01*
X140644216Y-88560000D02*
X140644216Y-84564000D01*
X138884216Y-93675000D02*
X138884216Y-86325000D01*
X138604216Y-93223000D02*
X138604216Y-86777000D01*
X144285216Y-96580000D02*
X144285216Y-83420000D01*
X141564216Y-95959000D02*
X141564216Y-91440000D01*
X139644216Y-94602000D02*
X139644216Y-91440000D01*
X141324216Y-95841000D02*
X141324216Y-91440000D01*
X143765216Y-96553000D02*
X143765216Y-83447000D01*
X138764216Y-93491000D02*
X138764216Y-86509000D01*
X141364216Y-88560000D02*
X141364216Y-84138000D01*
X144165216Y-96577000D02*
X144165216Y-83423000D01*
X137884216Y-91315000D02*
X137884216Y-88685000D01*
X142644216Y-96353000D02*
X142644216Y-83647000D01*
X138644216Y-93293000D02*
X138644216Y-86707000D01*
X140284216Y-95174000D02*
X140284216Y-91440000D01*
X141364216Y-95862000D02*
X141364216Y-91440000D01*
X144045216Y-96573000D02*
X144045216Y-83427000D01*
X143564216Y-96532000D02*
X143564216Y-83468000D01*
X141044216Y-95688000D02*
X141044216Y-91440000D01*
X140564216Y-88560000D02*
X140564216Y-84619000D01*
X141484216Y-95921000D02*
X141484216Y-91440000D01*
X139324216Y-94253000D02*
X139324216Y-91440000D01*
X143805216Y-96557000D02*
X143805216Y-83443000D01*
X139284216Y-88560000D02*
X139284216Y-85795000D01*
X142964216Y-96431000D02*
X142964216Y-83569000D01*
X144125216Y-96576000D02*
X144125216Y-83424000D01*
X144005216Y-96571000D02*
X144005216Y-83429000D01*
X141404216Y-88560000D02*
X141404216Y-84118000D01*
X140044216Y-88560000D02*
X140044216Y-85023000D01*
X140804216Y-88560000D02*
X140804216Y-84458000D01*
X140324216Y-95205000D02*
X140324216Y-91440000D01*
X139764216Y-94721000D02*
X139764216Y-91440000D01*
X143885216Y-96563000D02*
X143885216Y-83437000D01*
X141484216Y-88560000D02*
X141484216Y-84079000D01*
X141124216Y-88560000D02*
X141124216Y-84267000D01*
X141724216Y-88560000D02*
X141724216Y-83969000D01*
X138244216Y-92484000D02*
X138244216Y-87516000D01*
X150985216Y-90000000D02*
G75*
G03*
X150985216Y-90000000I-6620000J0D01*
G01*
G04 #@! TO.C,C2*
X121680000Y-109970000D02*
X121680000Y-102730000D01*
X139920000Y-109970000D02*
X121680000Y-109970000D01*
X139920000Y-102730000D02*
X121680000Y-102730000D01*
X139920000Y-109970000D02*
X139920000Y-102730000D01*
G04 #@! TO.C,FL2*
X184305000Y-102900000D02*
X184305000Y-107100000D01*
X184305000Y-107100000D02*
X176305000Y-107100000D01*
X176305000Y-107100000D02*
X176305000Y-102900000D01*
X176305000Y-102900000D02*
X184305000Y-102900000D01*
G04 #@! TO.C,U2*
X169990000Y-89105000D02*
X171640000Y-89105000D01*
X166340000Y-83905000D02*
X166340000Y-89105000D01*
X171640000Y-89105000D02*
X171640000Y-83905000D01*
X166340000Y-89105000D02*
X167990000Y-89105000D01*
X171640000Y-83905000D02*
X166340000Y-83905000D01*
X169990000Y-89105000D02*
G75*
G03*
X167990000Y-89105000I-1000000J0D01*
G01*
G04 #@! TO.C,R5*
X145700000Y-106560000D02*
X145700000Y-105610000D01*
X145700000Y-100820000D02*
X145700000Y-101770000D01*
X144780000Y-105610000D02*
X146620000Y-105610000D01*
X146620000Y-101770000D02*
X144780000Y-101770000D01*
X146620000Y-105610000D02*
X146620000Y-101770000D01*
X144780000Y-101770000D02*
X144780000Y-105610000D01*
G04 #@! TO.C,TH1*
X163220000Y-86070000D02*
X159580000Y-86070000D01*
X163220000Y-86070000D02*
X163220000Y-85825000D01*
X159580000Y-86070000D02*
X159580000Y-85825000D01*
X163220000Y-83975000D02*
X163220000Y-83730000D01*
X159580000Y-83975000D02*
X159580000Y-83730000D01*
X163220000Y-83730000D02*
X159580000Y-83730000D01*
G04 #@! TO.C,F1*
X125080000Y-117200000D02*
X122820000Y-117200000D01*
X128520000Y-117200000D02*
G75*
G03*
X128520000Y-117200000I-1720000J0D01*
G01*
D10*
G04 #@! TO.C,RV1*
X135600000Y-114550000D02*
X135600000Y-110650000D01*
X123600000Y-114550000D02*
X123600000Y-110650000D01*
X135600000Y-114550000D02*
X123600000Y-114550000D01*
X135600000Y-110650000D02*
X123600000Y-110650000D01*
D11*
G04 #@! TO.C,TP4*
X177550781Y-117500000D02*
G75*
G03*
X177550781Y-117500000I-1600781J0D01*
G01*
G04 #@! TO.C,C7*
X178149000Y-101724000D02*
X178149000Y-98141000D01*
X176909000Y-101121000D02*
X176909000Y-98141000D01*
X176189000Y-100540000D02*
X176189000Y-93260000D01*
X177589000Y-101503000D02*
X177589000Y-98141000D01*
X177949000Y-95659000D02*
X177949000Y-92146000D01*
X176509000Y-100825000D02*
X176509000Y-92975000D01*
X175549000Y-99789000D02*
X175549000Y-94011000D01*
X174709000Y-97762000D02*
X174709000Y-96038000D01*
X178749000Y-101882000D02*
X178749000Y-98141000D01*
X178189000Y-95659000D02*
X178189000Y-92063000D01*
X177629000Y-95659000D02*
X177629000Y-92279000D01*
X179230000Y-101954000D02*
X179230000Y-98141000D01*
X174909000Y-98530000D02*
X174909000Y-95270000D01*
X176869000Y-95659000D02*
X176869000Y-92706000D01*
X177269000Y-101340000D02*
X177269000Y-98141000D01*
X179310000Y-101962000D02*
X179310000Y-91838000D01*
X177229000Y-101317000D02*
X177229000Y-98141000D01*
X178029000Y-95659000D02*
X178029000Y-92117000D01*
X178549000Y-95659000D02*
X178549000Y-91962000D01*
X177989000Y-101668000D02*
X177989000Y-98141000D01*
X179270000Y-101958000D02*
X179270000Y-91842000D01*
X176069000Y-100420000D02*
X176069000Y-93380000D01*
X177749000Y-101574000D02*
X177749000Y-98141000D01*
X178829000Y-95659000D02*
X178829000Y-91903000D01*
X177789000Y-95659000D02*
X177789000Y-92210000D01*
X179230000Y-95659000D02*
X179230000Y-91846000D01*
X178509000Y-101828000D02*
X178509000Y-98141000D01*
X176349000Y-100689000D02*
X176349000Y-93111000D01*
X174869000Y-98410000D02*
X174869000Y-95390000D01*
X179029000Y-95659000D02*
X179029000Y-91870000D01*
X176989000Y-101173000D02*
X176989000Y-98141000D01*
X177389000Y-101404000D02*
X177389000Y-98141000D01*
X176709000Y-100980000D02*
X176709000Y-92820000D01*
X179590000Y-101978000D02*
X179590000Y-91822000D01*
X178309000Y-101774000D02*
X178309000Y-98141000D01*
X177269000Y-95659000D02*
X177269000Y-92460000D01*
X175749000Y-100056000D02*
X175749000Y-93744000D01*
X179750000Y-101980000D02*
X179750000Y-91820000D01*
X178909000Y-95659000D02*
X178909000Y-91889000D01*
X176869000Y-101094000D02*
X176869000Y-98141000D01*
X177469000Y-95659000D02*
X177469000Y-92355000D01*
X178349000Y-101785000D02*
X178349000Y-98141000D01*
X175829000Y-100154000D02*
X175829000Y-93646000D01*
X177029000Y-101198000D02*
X177029000Y-98141000D01*
X177109000Y-101247000D02*
X177109000Y-98141000D01*
X184729646Y-100275000D02*
X184729646Y-99275000D01*
X174789000Y-98130000D02*
X174789000Y-95670000D01*
X179470000Y-101973000D02*
X179470000Y-91827000D01*
X178389000Y-95659000D02*
X178389000Y-92003000D01*
X177189000Y-95659000D02*
X177189000Y-92505000D01*
X174989000Y-98746000D02*
X174989000Y-95054000D01*
X176829000Y-101066000D02*
X176829000Y-98141000D01*
X177229000Y-95659000D02*
X177229000Y-92483000D01*
X177829000Y-101607000D02*
X177829000Y-98141000D01*
X179550000Y-101977000D02*
X179550000Y-91823000D01*
X175709000Y-100006000D02*
X175709000Y-93794000D01*
X174749000Y-97962000D02*
X174749000Y-95838000D01*
X177669000Y-101539000D02*
X177669000Y-98141000D01*
X179029000Y-101930000D02*
X179029000Y-98141000D01*
X177909000Y-95659000D02*
X177909000Y-92162000D01*
X177389000Y-95659000D02*
X177389000Y-92396000D01*
X177869000Y-95659000D02*
X177869000Y-92177000D01*
X177069000Y-101223000D02*
X177069000Y-98141000D01*
X179150000Y-95659000D02*
X179150000Y-91855000D01*
X177309000Y-95659000D02*
X177309000Y-92438000D01*
X179070000Y-95659000D02*
X179070000Y-91865000D01*
X178589000Y-95659000D02*
X178589000Y-91953000D01*
X175989000Y-100336000D02*
X175989000Y-93464000D01*
X177349000Y-95659000D02*
X177349000Y-92417000D01*
X178669000Y-101865000D02*
X178669000Y-98141000D01*
X178029000Y-101683000D02*
X178029000Y-98141000D01*
X174669000Y-97499000D02*
X174669000Y-96301000D01*
X178469000Y-95659000D02*
X178469000Y-91982000D01*
X177509000Y-95659000D02*
X177509000Y-92336000D01*
X178629000Y-95659000D02*
X178629000Y-91944000D01*
X176949000Y-101147000D02*
X176949000Y-98141000D01*
X178229000Y-101750000D02*
X178229000Y-98141000D01*
X175589000Y-99845000D02*
X175589000Y-93955000D01*
X175309000Y-99410000D02*
X175309000Y-94390000D01*
X179070000Y-101935000D02*
X179070000Y-98141000D01*
X179630000Y-101979000D02*
X179630000Y-91821000D01*
X178069000Y-101697000D02*
X178069000Y-98141000D01*
X175149000Y-99109000D02*
X175149000Y-94691000D01*
X179670000Y-101980000D02*
X179670000Y-91820000D01*
X175869000Y-100201000D02*
X175869000Y-93599000D01*
X176629000Y-100920000D02*
X176629000Y-92880000D01*
X176829000Y-95659000D02*
X176829000Y-92734000D01*
X178589000Y-101847000D02*
X178589000Y-98141000D01*
X176429000Y-100758000D02*
X176429000Y-93042000D01*
X177669000Y-95659000D02*
X177669000Y-92261000D01*
X177589000Y-95659000D02*
X177589000Y-92297000D01*
X175189000Y-99189000D02*
X175189000Y-94611000D01*
X178789000Y-101890000D02*
X178789000Y-98141000D01*
X176229000Y-100579000D02*
X176229000Y-93221000D01*
X176669000Y-100950000D02*
X176669000Y-92850000D01*
X177549000Y-101484000D02*
X177549000Y-98141000D01*
X178709000Y-95659000D02*
X178709000Y-91926000D01*
X178149000Y-95659000D02*
X178149000Y-92076000D01*
X175629000Y-99900000D02*
X175629000Y-93900000D01*
X179110000Y-95659000D02*
X179110000Y-91860000D01*
X177189000Y-101295000D02*
X177189000Y-98141000D01*
X177469000Y-101445000D02*
X177469000Y-98141000D01*
X176989000Y-95659000D02*
X176989000Y-92627000D01*
X177789000Y-101590000D02*
X177789000Y-98141000D01*
X179710000Y-101980000D02*
X179710000Y-91820000D01*
X175229000Y-99265000D02*
X175229000Y-94535000D01*
X174949000Y-98642000D02*
X174949000Y-95158000D01*
X179350000Y-101965000D02*
X179350000Y-91835000D01*
X176149000Y-100501000D02*
X176149000Y-93299000D01*
X175789000Y-100106000D02*
X175789000Y-93694000D01*
X178549000Y-101838000D02*
X178549000Y-98141000D01*
X177909000Y-101638000D02*
X177909000Y-98141000D01*
X175389000Y-99545000D02*
X175389000Y-94255000D01*
X179190000Y-101950000D02*
X179190000Y-98141000D01*
X185229646Y-99775000D02*
X184229646Y-99775000D01*
X178989000Y-101924000D02*
X178989000Y-98141000D01*
X175109000Y-99025000D02*
X175109000Y-94775000D01*
X175469000Y-99670000D02*
X175469000Y-94130000D01*
X176389000Y-100724000D02*
X176389000Y-93076000D01*
X175509000Y-99730000D02*
X175509000Y-94070000D01*
X179430000Y-101970000D02*
X179430000Y-91830000D01*
X177029000Y-95659000D02*
X177029000Y-92602000D01*
X175429000Y-99609000D02*
X175429000Y-94191000D01*
X176589000Y-100889000D02*
X176589000Y-92911000D01*
X177869000Y-101623000D02*
X177869000Y-98141000D01*
X177149000Y-101271000D02*
X177149000Y-98141000D01*
X176749000Y-101010000D02*
X176749000Y-92790000D01*
X175029000Y-98844000D02*
X175029000Y-94956000D01*
X178509000Y-95659000D02*
X178509000Y-91972000D01*
X178869000Y-101904000D02*
X178869000Y-98141000D01*
X176469000Y-100792000D02*
X176469000Y-93008000D01*
X177829000Y-95659000D02*
X177829000Y-92193000D01*
X177549000Y-95659000D02*
X177549000Y-92316000D01*
X177709000Y-95659000D02*
X177709000Y-92243000D01*
X178269000Y-95659000D02*
X178269000Y-92038000D01*
X179390000Y-101968000D02*
X179390000Y-91832000D01*
X177349000Y-101383000D02*
X177349000Y-98141000D01*
X178389000Y-101797000D02*
X178389000Y-98141000D01*
X178269000Y-101762000D02*
X178269000Y-98141000D01*
X176549000Y-100857000D02*
X176549000Y-92943000D01*
X178669000Y-95659000D02*
X178669000Y-91935000D01*
X174829000Y-98278000D02*
X174829000Y-95522000D01*
X178429000Y-95659000D02*
X178429000Y-91993000D01*
X175269000Y-99339000D02*
X175269000Y-94461000D01*
X176029000Y-100378000D02*
X176029000Y-93422000D01*
X177069000Y-95659000D02*
X177069000Y-92577000D01*
X176949000Y-95659000D02*
X176949000Y-92653000D01*
X178109000Y-101711000D02*
X178109000Y-98141000D01*
X176309000Y-100653000D02*
X176309000Y-93147000D01*
X177509000Y-101464000D02*
X177509000Y-98141000D01*
X178229000Y-95659000D02*
X178229000Y-92050000D01*
X178949000Y-101918000D02*
X178949000Y-98141000D01*
X178349000Y-95659000D02*
X178349000Y-92015000D01*
X178949000Y-95659000D02*
X178949000Y-91882000D01*
X178909000Y-101911000D02*
X178909000Y-98141000D01*
X178709000Y-101874000D02*
X178709000Y-98141000D01*
X177629000Y-101521000D02*
X177629000Y-98141000D01*
X176109000Y-100461000D02*
X176109000Y-93339000D01*
X178109000Y-95659000D02*
X178109000Y-92089000D01*
X176269000Y-100616000D02*
X176269000Y-93184000D01*
X177429000Y-101425000D02*
X177429000Y-98141000D01*
X177709000Y-101557000D02*
X177709000Y-98141000D01*
X178749000Y-95659000D02*
X178749000Y-91918000D01*
X177749000Y-95659000D02*
X177749000Y-92226000D01*
X178869000Y-95659000D02*
X178869000Y-91896000D01*
X178629000Y-101856000D02*
X178629000Y-98141000D01*
X178989000Y-95659000D02*
X178989000Y-91876000D01*
X178189000Y-101737000D02*
X178189000Y-98141000D01*
X177949000Y-101654000D02*
X177949000Y-98141000D01*
X179510000Y-101975000D02*
X179510000Y-91825000D01*
X178309000Y-95659000D02*
X178309000Y-92026000D01*
X179110000Y-101940000D02*
X179110000Y-98141000D01*
X176909000Y-95659000D02*
X176909000Y-92679000D01*
X178789000Y-95659000D02*
X178789000Y-91910000D01*
X178829000Y-101897000D02*
X178829000Y-98141000D01*
X175909000Y-100247000D02*
X175909000Y-93553000D01*
X176789000Y-95659000D02*
X176789000Y-92762000D01*
X179190000Y-95659000D02*
X179190000Y-91850000D01*
X175069000Y-98937000D02*
X175069000Y-94863000D01*
X175349000Y-99479000D02*
X175349000Y-94321000D01*
X178069000Y-95659000D02*
X178069000Y-92103000D01*
X177989000Y-95659000D02*
X177989000Y-92132000D01*
X176789000Y-101038000D02*
X176789000Y-98141000D01*
X175669000Y-99954000D02*
X175669000Y-93846000D01*
X175949000Y-100292000D02*
X175949000Y-93508000D01*
X179150000Y-101945000D02*
X179150000Y-98141000D01*
X177109000Y-95659000D02*
X177109000Y-92553000D01*
X178469000Y-101818000D02*
X178469000Y-98141000D01*
X177309000Y-101362000D02*
X177309000Y-98141000D01*
X178429000Y-101807000D02*
X178429000Y-98141000D01*
X177429000Y-95659000D02*
X177429000Y-92375000D01*
X177149000Y-95659000D02*
X177149000Y-92529000D01*
X184870000Y-96900000D02*
G75*
G03*
X184870000Y-96900000I-5120000J0D01*
G01*
G04 #@! TO.C,TP2*
X131800781Y-117200000D02*
G75*
G03*
X131800781Y-117200000I-1600781J0D01*
G01*
G04 #@! TO.C,C3*
X150470000Y-118220000D02*
X150470000Y-114880000D01*
X145130000Y-114880000D02*
X145130000Y-118220000D01*
X151760000Y-116550000D02*
X150470000Y-116550000D01*
X150470000Y-114880000D02*
X145130000Y-114880000D01*
X143840000Y-116550000D02*
X145130000Y-116550000D01*
X145130000Y-118220000D02*
X150470000Y-118220000D01*
G04 #@! TO.C,D3*
X152850000Y-113225000D02*
X152850000Y-108725000D01*
X154320000Y-102725000D02*
X151380000Y-102725000D01*
X151380000Y-108725000D02*
X154320000Y-108725000D01*
X151380000Y-102725000D02*
X151380000Y-108725000D01*
X154320000Y-108725000D02*
X154320000Y-102725000D01*
X152850000Y-98525000D02*
X152850000Y-102725000D01*
X151380000Y-108725000D02*
X154320000Y-108725000D01*
X151380000Y-107925000D02*
X154320000Y-107925000D01*
X151380000Y-107925000D02*
X154320000Y-107925000D01*
G04 #@! TD*
M02*
