G04 #@! TF.GenerationSoftware,KiCad,Pcbnew,(6.0.5)*
G04 #@! TF.CreationDate,2022-05-09T22:53:36+02:00*
G04 #@! TF.ProjectId,Zasilacz_impulsowy_FAN6602R,5a617369-6c61-4637-9a5f-696d70756c73,rev?*
G04 #@! TF.SameCoordinates,Original*
G04 #@! TF.FileFunction,Copper,L2,Bot*
G04 #@! TF.FilePolarity,Positive*
%FSLAX46Y46*%
G04 Gerber Fmt 4.6, Leading zero omitted, Abs format (unit mm)*
G04 Created by KiCad (PCBNEW (6.0.5)) date 2022-05-09 22:53:36*
%MOMM*%
%LPD*%
G01*
G04 APERTURE LIST*
G04 Aperture macros list*
%AMRoundRect*
0 Rectangle with rounded corners*
0 $1 Rounding radius*
0 $2 $3 $4 $5 $6 $7 $8 $9 X,Y pos of 4 corners*
0 Add a 4 corners polygon primitive as box body*
4,1,4,$2,$3,$4,$5,$6,$7,$8,$9,$2,$3,0*
0 Add four circle primitives for the rounded corners*
1,1,$1+$1,$2,$3*
1,1,$1+$1,$4,$5*
1,1,$1+$1,$6,$7*
1,1,$1+$1,$8,$9*
0 Add four rect primitives between the rounded corners*
20,1,$1+$1,$2,$3,$4,$5,0*
20,1,$1+$1,$4,$5,$6,$7,0*
20,1,$1+$1,$6,$7,$8,$9,0*
20,1,$1+$1,$8,$9,$2,$3,0*%
%AMFreePoly0*
4,1,5,1.270000,-1.270000,-1.270000,-1.270000,-1.270000,1.270000,1.270000,1.270000,1.270000,-1.270000,1.270000,-1.270000,$1*%
G04 Aperture macros list end*
G04 #@! TA.AperFunction,ComponentPad*
%ADD10C,2.600000*%
G04 #@! TD*
G04 #@! TA.AperFunction,ComponentPad*
%ADD11R,3.200000X3.200000*%
G04 #@! TD*
G04 #@! TA.AperFunction,ComponentPad*
%ADD12C,3.200000*%
G04 #@! TD*
G04 #@! TA.AperFunction,ComponentPad*
%ADD13C,1.600000*%
G04 #@! TD*
G04 #@! TA.AperFunction,ComponentPad*
%ADD14O,1.600000X1.600000*%
G04 #@! TD*
G04 #@! TA.AperFunction,ComponentPad*
%ADD15R,1.905000X2.000000*%
G04 #@! TD*
G04 #@! TA.AperFunction,ComponentPad*
%ADD16O,1.905000X2.000000*%
G04 #@! TD*
G04 #@! TA.AperFunction,ComponentPad*
%ADD17R,1.600000X1.600000*%
G04 #@! TD*
G04 #@! TA.AperFunction,ComponentPad*
%ADD18FreePoly0,90.000000*%
G04 #@! TD*
G04 #@! TA.AperFunction,ComponentPad*
%ADD19C,2.000000*%
G04 #@! TD*
G04 #@! TA.AperFunction,ComponentPad*
%ADD20R,2.200000X2.200000*%
G04 #@! TD*
G04 #@! TA.AperFunction,ComponentPad*
%ADD21O,2.200000X2.200000*%
G04 #@! TD*
G04 #@! TA.AperFunction,ComponentPad*
%ADD22R,1.500000X1.500000*%
G04 #@! TD*
G04 #@! TA.AperFunction,ComponentPad*
%ADD23O,1.500000X1.500000*%
G04 #@! TD*
G04 #@! TA.AperFunction,ComponentPad*
%ADD24RoundRect,0.381000X0.381000X0.381000X-0.381000X0.381000X-0.381000X-0.381000X0.381000X-0.381000X0*%
G04 #@! TD*
G04 #@! TA.AperFunction,ComponentPad*
%ADD25R,2.400000X2.400000*%
G04 #@! TD*
G04 #@! TA.AperFunction,ComponentPad*
%ADD26C,2.400000*%
G04 #@! TD*
G04 #@! TA.AperFunction,ComponentPad*
%ADD27C,1.400000*%
G04 #@! TD*
G04 #@! TA.AperFunction,ComponentPad*
%ADD28O,1.400000X1.400000*%
G04 #@! TD*
G04 #@! TA.AperFunction,ComponentPad*
%ADD29C,1.800000*%
G04 #@! TD*
G04 #@! TA.AperFunction,ComponentPad*
%ADD30R,2.000000X2.000000*%
G04 #@! TD*
G04 #@! TA.AperFunction,ComponentPad*
%ADD31C,2.200000*%
G04 #@! TD*
G04 #@! TA.AperFunction,SMDPad,CuDef*
%ADD32RoundRect,0.250000X0.312500X1.075000X-0.312500X1.075000X-0.312500X-1.075000X0.312500X-1.075000X0*%
G04 #@! TD*
G04 #@! TA.AperFunction,SMDPad,CuDef*
%ADD33RoundRect,0.250000X0.325000X1.100000X-0.325000X1.100000X-0.325000X-1.100000X0.325000X-1.100000X0*%
G04 #@! TD*
G04 #@! TA.AperFunction,SMDPad,CuDef*
%ADD34RoundRect,0.250000X-0.625000X0.312500X-0.625000X-0.312500X0.625000X-0.312500X0.625000X0.312500X0*%
G04 #@! TD*
G04 #@! TA.AperFunction,SMDPad,CuDef*
%ADD35RoundRect,0.250000X-0.262500X-0.450000X0.262500X-0.450000X0.262500X0.450000X-0.262500X0.450000X0*%
G04 #@! TD*
G04 #@! TA.AperFunction,SMDPad,CuDef*
%ADD36RoundRect,0.250000X0.450000X-0.262500X0.450000X0.262500X-0.450000X0.262500X-0.450000X-0.262500X0*%
G04 #@! TD*
G04 #@! TA.AperFunction,SMDPad,CuDef*
%ADD37RoundRect,0.250000X0.262500X0.450000X-0.262500X0.450000X-0.262500X-0.450000X0.262500X-0.450000X0*%
G04 #@! TD*
G04 #@! TA.AperFunction,SMDPad,CuDef*
%ADD38RoundRect,0.250000X0.475000X-0.250000X0.475000X0.250000X-0.475000X0.250000X-0.475000X-0.250000X0*%
G04 #@! TD*
G04 #@! TA.AperFunction,SMDPad,CuDef*
%ADD39RoundRect,0.250000X0.250000X0.475000X-0.250000X0.475000X-0.250000X-0.475000X0.250000X-0.475000X0*%
G04 #@! TD*
G04 #@! TA.AperFunction,SMDPad,CuDef*
%ADD40RoundRect,0.250000X-0.475000X0.250000X-0.475000X-0.250000X0.475000X-0.250000X0.475000X0.250000X0*%
G04 #@! TD*
G04 #@! TA.AperFunction,SMDPad,CuDef*
%ADD41RoundRect,0.250000X-0.325000X-0.650000X0.325000X-0.650000X0.325000X0.650000X-0.325000X0.650000X0*%
G04 #@! TD*
G04 #@! TA.AperFunction,SMDPad,CuDef*
%ADD42RoundRect,0.250000X0.325000X0.650000X-0.325000X0.650000X-0.325000X-0.650000X0.325000X-0.650000X0*%
G04 #@! TD*
G04 #@! TA.AperFunction,SMDPad,CuDef*
%ADD43R,1.560000X0.650000*%
G04 #@! TD*
G04 #@! TA.AperFunction,SMDPad,CuDef*
%ADD44RoundRect,0.250000X-0.312500X-1.075000X0.312500X-1.075000X0.312500X1.075000X-0.312500X1.075000X0*%
G04 #@! TD*
G04 #@! TA.AperFunction,SMDPad,CuDef*
%ADD45RoundRect,0.250000X-0.450000X0.262500X-0.450000X-0.262500X0.450000X-0.262500X0.450000X0.262500X0*%
G04 #@! TD*
G04 #@! TA.AperFunction,ViaPad*
%ADD46C,2.500000*%
G04 #@! TD*
G04 #@! TA.AperFunction,ViaPad*
%ADD47C,0.800000*%
G04 #@! TD*
G04 #@! TA.AperFunction,Conductor*
%ADD48C,0.500000*%
G04 #@! TD*
G04 #@! TA.AperFunction,Conductor*
%ADD49C,2.000000*%
G04 #@! TD*
G04 #@! TA.AperFunction,Conductor*
%ADD50C,1.000000*%
G04 #@! TD*
G04 #@! TA.AperFunction,Conductor*
%ADD51C,1.500000*%
G04 #@! TD*
G04 APERTURE END LIST*
D10*
G04 #@! TO.P,TP1,1,1*
G04 #@! TO.N,Net-(C2-Pad1)*
X136600000Y-117200000D03*
G04 #@! TD*
D11*
G04 #@! TO.P,D1,1,+*
G04 #@! TO.N,Net-(C3-Pad2)*
X124575000Y-85825000D03*
D12*
G04 #@! TO.P,D1,2*
G04 #@! TO.N,Net-(D1-Pad2)*
X129655000Y-85825000D03*
G04 #@! TO.P,D1,3*
G04 #@! TO.N,Net-(D1-Pad3)*
X134735000Y-85825000D03*
G04 #@! TO.P,D1,4,-*
G04 #@! TO.N,GNDPWR*
X139815000Y-85825000D03*
G04 #@! TD*
D13*
G04 #@! TO.P,C8,1*
G04 #@! TO.N,GND*
X170950000Y-116350000D03*
D14*
G04 #@! TO.P,C8,2*
G04 #@! TO.N,GNDPWR*
X160950000Y-116350000D03*
G04 #@! TD*
D15*
G04 #@! TO.P,Q1,1,G*
G04 #@! TO.N,Net-(D5-Pad2)*
X146510000Y-86295000D03*
D16*
G04 #@! TO.P,Q1,2,D*
G04 #@! TO.N,Net-(D3-Pad2)*
X149050000Y-86295000D03*
G04 #@! TO.P,Q1,3,S*
G04 #@! TO.N,Net-(Q1-Pad3)*
X151590000Y-86295000D03*
G04 #@! TD*
D17*
G04 #@! TO.P,C13,1*
G04 #@! TO.N,Net-(C13-Pad1)*
X155744888Y-116350000D03*
D13*
G04 #@! TO.P,C13,2*
G04 #@! TO.N,GNDPWR*
X158244888Y-116350000D03*
G04 #@! TD*
D17*
G04 #@! TO.P,C4,1*
G04 #@! TO.N,Net-(C4-Pad1)*
X180900000Y-111950000D03*
D13*
G04 #@! TO.P,C4,2*
G04 #@! TO.N,Net-(C4-Pad2)*
X177400000Y-111950000D03*
G04 #@! TD*
D18*
G04 #@! TO.P,T1,1,P1+*
G04 #@! TO.N,Net-(C3-Pad2)*
X155200000Y-94250000D03*
G04 #@! TO.P,T1,2,P1-*
G04 #@! TO.N,Net-(D3-Pad2)*
X155200000Y-98250000D03*
G04 #@! TO.P,T1,3,P2+*
G04 #@! TO.N,Net-(D4-Pad2)*
X155200000Y-106150000D03*
G04 #@! TO.P,T1,4,P2-*
G04 #@! TO.N,GNDPWR*
X155200000Y-110150000D03*
D19*
G04 #@! TO.P,T1,5,S+*
G04 #@! TO.N,Net-(D2-Pad1)*
X176300000Y-94350000D03*
G04 #@! TO.P,T1,6,S-*
G04 #@! TO.N,GND*
X175200000Y-104450000D03*
G04 #@! TD*
D20*
G04 #@! TO.P,D4,1,K*
G04 #@! TO.N,Net-(D4-Pad1)*
X143100000Y-98850000D03*
D21*
G04 #@! TO.P,D4,2,A*
G04 #@! TO.N,Net-(D4-Pad2)*
X143100000Y-109010000D03*
G04 #@! TD*
D10*
G04 #@! TO.P,TP3,1,1*
G04 #@! TO.N,Net-(C4-Pad1)*
X182150000Y-117500000D03*
G04 #@! TD*
D22*
G04 #@! TO.P,U3,1,REF*
G04 #@! TO.N,Net-(C14-Pad2)*
X174100000Y-91250000D03*
D23*
G04 #@! TO.P,U3,2,A*
G04 #@! TO.N,GND*
X172130000Y-91250000D03*
G04 #@! TO.P,U3,3,K*
G04 #@! TO.N,Net-(R14-Pad1)*
X170200000Y-91250000D03*
G04 #@! TD*
D17*
G04 #@! TO.P,D6,1,K*
G04 #@! TO.N,Net-(C11-Pad1)*
X148000000Y-99890000D03*
D14*
G04 #@! TO.P,D6,2,A*
G04 #@! TO.N,Net-(C13-Pad1)*
X148000000Y-107510000D03*
G04 #@! TD*
D24*
G04 #@! TO.P,FL1,1,1*
G04 #@! TO.N,Net-(C2-Pad1)*
X133250000Y-98650000D03*
G04 #@! TO.P,FL1,2,2*
G04 #@! TO.N,Net-(D1-Pad3)*
X133250000Y-91650000D03*
G04 #@! TO.P,FL1,3,3*
G04 #@! TO.N,Net-(C2-Pad2)*
X125250000Y-98650000D03*
G04 #@! TO.P,FL1,4,4*
G04 #@! TO.N,Net-(D1-Pad2)*
X125250000Y-91650000D03*
G04 #@! TD*
D17*
G04 #@! TO.P,C12,1*
G04 #@! TO.N,Net-(C11-Pad1)*
X161600000Y-90355113D03*
D13*
G04 #@! TO.P,C12,2*
G04 #@! TO.N,GNDPWR*
X161600000Y-87355113D03*
G04 #@! TD*
G04 #@! TO.P,R7,1*
G04 #@! TO.N,GNDPWR*
X156950000Y-87270000D03*
D14*
G04 #@! TO.P,R7,2*
G04 #@! TO.N,Net-(Q1-Pad3)*
X156950000Y-84730000D03*
G04 #@! TD*
D15*
G04 #@! TO.P,D2,1,K*
G04 #@! TO.N,Net-(D2-Pad1)*
X176960000Y-86695000D03*
D16*
G04 #@! TO.P,D2,2,A*
G04 #@! TO.N,Net-(C1-Pad2)*
X179500000Y-86695000D03*
G04 #@! TO.P,D2,3,K*
G04 #@! TO.N,Net-(D2-Pad1)*
X182040000Y-86695000D03*
G04 #@! TD*
D17*
G04 #@! TO.P,D5,1,K*
G04 #@! TO.N,Net-(D5-Pad1)*
X159210000Y-91150000D03*
D14*
G04 #@! TO.P,D5,2,A*
G04 #@! TO.N,Net-(D5-Pad2)*
X151590000Y-91150000D03*
G04 #@! TD*
D25*
G04 #@! TO.P,C6,1*
G04 #@! TO.N,Net-(C3-Pad2)*
X148115216Y-90000000D03*
D26*
G04 #@! TO.P,C6,2*
G04 #@! TO.N,GNDPWR*
X140615216Y-90000000D03*
G04 #@! TD*
G04 #@! TO.P,C2,1*
G04 #@! TO.N,Net-(C2-Pad1)*
X138300000Y-106350000D03*
G04 #@! TO.P,C2,2*
G04 #@! TO.N,Net-(C2-Pad2)*
X123300000Y-106350000D03*
G04 #@! TD*
D24*
G04 #@! TO.P,FL2,1,1*
G04 #@! TO.N,Net-(C4-Pad1)*
X182905000Y-107100000D03*
G04 #@! TO.P,FL2,2,2*
G04 #@! TO.N,Net-(C1-Pad2)*
X182905000Y-102900000D03*
G04 #@! TO.P,FL2,3,3*
G04 #@! TO.N,Net-(C4-Pad2)*
X177705000Y-107100000D03*
G04 #@! TO.P,FL2,4,4*
G04 #@! TO.N,GND*
X177705000Y-102900000D03*
G04 #@! TD*
D17*
G04 #@! TO.P,U2,1*
G04 #@! TO.N,Net-(R10-Pad2)*
X172800000Y-87775000D03*
D14*
G04 #@! TO.P,U2,2*
G04 #@! TO.N,Net-(R14-Pad1)*
X172800000Y-85235000D03*
G04 #@! TO.P,U2,3*
G04 #@! TO.N,GNDPWR*
X165180000Y-85235000D03*
G04 #@! TO.P,U2,4*
G04 #@! TO.N,Net-(U2-Pad4)*
X165180000Y-87775000D03*
G04 #@! TD*
D27*
G04 #@! TO.P,R5,1*
G04 #@! TO.N,Net-(C13-Pad1)*
X145700000Y-107500000D03*
D28*
G04 #@! TO.P,R5,2*
G04 #@! TO.N,Net-(D4-Pad1)*
X145700000Y-99880000D03*
G04 #@! TD*
D13*
G04 #@! TO.P,TH1,1*
G04 #@! TO.N,Net-(R13-Pad2)*
X162650000Y-84900000D03*
G04 #@! TO.P,TH1,2*
G04 #@! TO.N,GNDPWR*
X160150000Y-84900000D03*
G04 #@! TD*
G04 #@! TO.P,F1,1*
G04 #@! TO.N,Net-(F1-Pad1)*
X126800000Y-117200000D03*
D14*
G04 #@! TO.P,F1,2*
G04 #@! TO.N,Net-(C2-Pad2)*
X121720000Y-117200000D03*
G04 #@! TD*
D29*
G04 #@! TO.P,RV1,1*
G04 #@! TO.N,Net-(C2-Pad1)*
X133350000Y-113300000D03*
G04 #@! TO.P,RV1,2*
G04 #@! TO.N,Net-(C2-Pad2)*
X125850000Y-111900000D03*
G04 #@! TD*
D10*
G04 #@! TO.P,TP4,1,1*
G04 #@! TO.N,Net-(C4-Pad2)*
X175950000Y-117500000D03*
G04 #@! TD*
D30*
G04 #@! TO.P,C7,1*
G04 #@! TO.N,Net-(C1-Pad2)*
X181500000Y-96900000D03*
D19*
G04 #@! TO.P,C7,2*
G04 #@! TO.N,GND*
X178000000Y-96900000D03*
G04 #@! TD*
D10*
G04 #@! TO.P,TP2,1,1*
G04 #@! TO.N,Net-(F1-Pad1)*
X130200000Y-117200000D03*
G04 #@! TD*
D13*
G04 #@! TO.P,C3,1*
G04 #@! TO.N,Net-(C3-Pad1)*
X152800000Y-116550000D03*
D14*
G04 #@! TO.P,C3,2*
G04 #@! TO.N,Net-(C3-Pad2)*
X142800000Y-116550000D03*
G04 #@! TD*
D19*
G04 #@! TO.P,,5,S+*
G04 #@! TO.N,Net-(D2-Pad1)*
X176700000Y-91300000D03*
G04 #@! TD*
D31*
G04 #@! TO.P,D3,1,K*
G04 #@! TO.N,Net-(C3-Pad1)*
X152850000Y-113325000D03*
D21*
G04 #@! TO.P,D3,2,A*
G04 #@! TO.N,Net-(D3-Pad2)*
X152850000Y-98325000D03*
G04 #@! TD*
D32*
G04 #@! TO.P,R2,1*
G04 #@! TO.N,Net-(C2-Pad1)*
X136412500Y-102350000D03*
G04 #@! TO.P,R2,2*
G04 #@! TO.N,Net-(C11-Pad1)*
X133487500Y-102350000D03*
G04 #@! TD*
D33*
G04 #@! TO.P,C1,1*
G04 #@! TO.N,Net-(C1-Pad1)*
X182575000Y-93700000D03*
G04 #@! TO.P,C1,2*
G04 #@! TO.N,Net-(C1-Pad2)*
X179625000Y-93700000D03*
G04 #@! TD*
D34*
G04 #@! TO.P,R12,1*
G04 #@! TO.N,Net-(C14-Pad2)*
X173900000Y-97787500D03*
G04 #@! TO.P,R12,2*
G04 #@! TO.N,Net-(C1-Pad2)*
X173900000Y-100712500D03*
G04 #@! TD*
D35*
G04 #@! TO.P,R16,1*
G04 #@! TO.N,GND*
X171887500Y-94400000D03*
G04 #@! TO.P,R16,2*
G04 #@! TO.N,Net-(C14-Pad2)*
X173712500Y-94400000D03*
G04 #@! TD*
D36*
G04 #@! TO.P,R8,1*
G04 #@! TO.N,Net-(R6-Pad1)*
X160200000Y-96212500D03*
G04 #@! TO.P,R8,2*
G04 #@! TO.N,Net-(D5-Pad1)*
X160200000Y-94387500D03*
G04 #@! TD*
D37*
G04 #@! TO.P,R6,1*
G04 #@! TO.N,Net-(R6-Pad1)*
X162412500Y-105300000D03*
G04 #@! TO.P,R6,2*
G04 #@! TO.N,Net-(D5-Pad2)*
X160587500Y-105300000D03*
G04 #@! TD*
D38*
G04 #@! TO.P,C15,1*
G04 #@! TO.N,Net-(C15-Pad1)*
X167300000Y-87650000D03*
G04 #@! TO.P,C15,2*
G04 #@! TO.N,GNDPWR*
X167300000Y-85750000D03*
G04 #@! TD*
D36*
G04 #@! TO.P,R15,1*
G04 #@! TO.N,Net-(C14-Pad1)*
X168400000Y-97412500D03*
G04 #@! TO.P,R15,2*
G04 #@! TO.N,Net-(R14-Pad1)*
X168400000Y-95587500D03*
G04 #@! TD*
D37*
G04 #@! TO.P,R14,1*
G04 #@! TO.N,Net-(R14-Pad1)*
X169712500Y-93600000D03*
G04 #@! TO.P,R14,2*
G04 #@! TO.N,Net-(R10-Pad2)*
X167887500Y-93600000D03*
G04 #@! TD*
D34*
G04 #@! TO.P,R1,1*
G04 #@! TO.N,Net-(D2-Pad1)*
X182900000Y-88837500D03*
G04 #@! TO.P,R1,2*
G04 #@! TO.N,Net-(C1-Pad1)*
X182900000Y-91762500D03*
G04 #@! TD*
D39*
G04 #@! TO.P,C10,1*
G04 #@! TO.N,Net-(C10-Pad1)*
X166950000Y-105500000D03*
G04 #@! TO.P,C10,2*
G04 #@! TO.N,GNDPWR*
X165050000Y-105500000D03*
G04 #@! TD*
D36*
G04 #@! TO.P,R13,1*
G04 #@! TO.N,Net-(C9-Pad1)*
X163300000Y-96212500D03*
G04 #@! TO.P,R13,2*
G04 #@! TO.N,Net-(R13-Pad2)*
X163300000Y-94387500D03*
G04 #@! TD*
D40*
G04 #@! TO.P,C11,1*
G04 #@! TO.N,Net-(C11-Pad1)*
X158500000Y-100250000D03*
G04 #@! TO.P,C11,2*
G04 #@! TO.N,GNDPWR*
X158500000Y-102150000D03*
G04 #@! TD*
D32*
G04 #@! TO.P,R3,1*
G04 #@! TO.N,Net-(C11-Pad1)*
X128512500Y-102350000D03*
G04 #@! TO.P,R3,2*
G04 #@! TO.N,Net-(C2-Pad2)*
X125587500Y-102350000D03*
G04 #@! TD*
D41*
G04 #@! TO.P,C14,1*
G04 #@! TO.N,Net-(C14-Pad1)*
X169825000Y-97400000D03*
G04 #@! TO.P,C14,2*
G04 #@! TO.N,Net-(C14-Pad2)*
X172775000Y-97400000D03*
G04 #@! TD*
D42*
G04 #@! TO.P,C16,1*
G04 #@! TO.N,Net-(C1-Pad2)*
X181675000Y-99100000D03*
G04 #@! TO.P,C16,2*
G04 #@! TO.N,GND*
X178725000Y-99100000D03*
G04 #@! TD*
D43*
G04 #@! TO.P,U1,1,GND*
G04 #@! TO.N,GNDPWR*
X163300000Y-103550000D03*
G04 #@! TO.P,U1,2,FB*
G04 #@! TO.N,Net-(C15-Pad1)*
X163300000Y-102600000D03*
G04 #@! TO.P,U1,3,RT*
G04 #@! TO.N,Net-(C9-Pad1)*
X163300000Y-101650000D03*
G04 #@! TO.P,U1,4,SENSE*
G04 #@! TO.N,Net-(C10-Pad1)*
X166000000Y-101650000D03*
G04 #@! TO.P,U1,5,VDD*
G04 #@! TO.N,Net-(C11-Pad1)*
X166000000Y-102600000D03*
G04 #@! TO.P,U1,6,GATE*
G04 #@! TO.N,Net-(R6-Pad1)*
X166000000Y-103550000D03*
G04 #@! TD*
D44*
G04 #@! TO.P,R4,1*
G04 #@! TO.N,Net-(C3-Pad2)*
X146437500Y-113400000D03*
G04 #@! TO.P,R4,2*
G04 #@! TO.N,Net-(C3-Pad1)*
X149362500Y-113400000D03*
G04 #@! TD*
D40*
G04 #@! TO.P,C9,1*
G04 #@! TO.N,Net-(C9-Pad1)*
X160600000Y-100250000D03*
G04 #@! TO.P,C9,2*
G04 #@! TO.N,GNDPWR*
X160600000Y-102150000D03*
G04 #@! TD*
D41*
G04 #@! TO.P,C5,1*
G04 #@! TO.N,Net-(C4-Pad2)*
X177825000Y-109800000D03*
G04 #@! TO.P,C5,2*
G04 #@! TO.N,Net-(C4-Pad1)*
X180775000Y-109800000D03*
G04 #@! TD*
D37*
G04 #@! TO.P,R10,1*
G04 #@! TO.N,Net-(C1-Pad2)*
X171612500Y-100700000D03*
G04 #@! TO.P,R10,2*
G04 #@! TO.N,Net-(R10-Pad2)*
X169787500Y-100700000D03*
G04 #@! TD*
D36*
G04 #@! TO.P,R17,1*
G04 #@! TO.N,Net-(C15-Pad1)*
X165000000Y-92112500D03*
G04 #@! TO.P,R17,2*
G04 #@! TO.N,Net-(U2-Pad4)*
X165000000Y-90287500D03*
G04 #@! TD*
D45*
G04 #@! TO.P,R9,1*
G04 #@! TO.N,Net-(Q1-Pad3)*
X154400000Y-84787500D03*
G04 #@! TO.P,R9,2*
G04 #@! TO.N,Net-(C10-Pad1)*
X154400000Y-86612500D03*
G04 #@! TD*
D46*
G04 #@! TO.N,GNDPWR*
X143100000Y-90000000D03*
X150400000Y-102500000D03*
D47*
G04 #@! TO.N,Net-(C10-Pad1)*
X166150000Y-100200000D03*
X156700000Y-89400000D03*
G04 #@! TO.N,Net-(C11-Pad1)*
X161650000Y-98900000D03*
X142050000Y-102400000D03*
X131000000Y-102400000D03*
X167600000Y-102600000D03*
G04 #@! TO.N,Net-(D5-Pad2)*
X160300000Y-103900000D03*
G04 #@! TO.N,Net-(R6-Pad1)*
X167600011Y-103800000D03*
X159350000Y-97450000D03*
X161500000Y-106900000D03*
G04 #@! TO.N,Net-(C1-Pad2)*
X179900000Y-101000000D03*
X175800000Y-101000000D03*
G04 #@! TD*
D48*
G04 #@! TO.N,Net-(R10-Pad2)*
X172000000Y-89700000D02*
X172800000Y-88900000D01*
X172800000Y-88900000D02*
X172800000Y-87775000D01*
X168750000Y-90600000D02*
X169650000Y-89700000D01*
X168750000Y-92150000D02*
X168750000Y-90600000D01*
X169650000Y-89700000D02*
X172000000Y-89700000D01*
X167887500Y-93012500D02*
X168750000Y-92150000D01*
X167887500Y-93600000D02*
X167887500Y-93012500D01*
G04 #@! TO.N,Net-(C15-Pad1)*
X164550000Y-102600000D02*
X163300000Y-102600000D01*
X165050000Y-92500000D02*
X165050000Y-97500000D01*
X166550000Y-91000000D02*
X165050000Y-92500000D01*
X165050000Y-97500000D02*
X164650000Y-97900000D01*
X166550000Y-88400000D02*
X166550000Y-91000000D01*
X167300000Y-87650000D02*
X166550000Y-88400000D01*
X164650000Y-97900000D02*
X164650000Y-102500000D01*
X164650000Y-102500000D02*
X164550000Y-102600000D01*
G04 #@! TO.N,Net-(U2-Pad4)*
X165000000Y-90287500D02*
X165000000Y-87955000D01*
X165000000Y-87955000D02*
X165180000Y-87775000D01*
G04 #@! TO.N,Net-(R10-Pad2)*
X169600000Y-100700000D02*
X169787500Y-100700000D01*
X167000000Y-98100000D02*
X169600000Y-100700000D01*
X167000000Y-94487500D02*
X167000000Y-98100000D01*
X167887500Y-93600000D02*
X167000000Y-94487500D01*
G04 #@! TO.N,GND*
X177900000Y-99100000D02*
X178000000Y-99000000D01*
X172100000Y-99100000D02*
X177900000Y-99100000D01*
D49*
X178000000Y-99000000D02*
X178000000Y-102605000D01*
X178000000Y-96900000D02*
X178000000Y-99000000D01*
D48*
G04 #@! TO.N,GNDPWR*
X165745000Y-85800000D02*
X167250000Y-85800000D01*
X165180000Y-85235000D02*
X165745000Y-85800000D01*
D50*
G04 #@! TO.N,Net-(C1-Pad1)*
X182575000Y-92087500D02*
X182900000Y-91762500D01*
X182575000Y-93700000D02*
X182575000Y-92087500D01*
D51*
G04 #@! TO.N,Net-(C2-Pad1)*
X136600000Y-115200000D02*
X134700000Y-113300000D01*
X136450000Y-106350000D02*
X133350000Y-109450000D01*
X134700000Y-113300000D02*
X133350000Y-113300000D01*
X136600000Y-117200000D02*
X136600000Y-115200000D01*
X133250000Y-98650000D02*
X134850000Y-98650000D01*
X136475000Y-100275000D02*
X136475000Y-104525000D01*
X134850000Y-98650000D02*
X136475000Y-100275000D01*
X136475000Y-104525000D02*
X138300000Y-106350000D01*
X133350000Y-109450000D02*
X133350000Y-113300000D01*
X138300000Y-106350000D02*
X136450000Y-106350000D01*
G04 #@! TO.N,Net-(C2-Pad2)*
X125587500Y-98987500D02*
X125250000Y-98650000D01*
X121720000Y-117200000D02*
X121720000Y-116030000D01*
X125587500Y-102350000D02*
X125587500Y-104062500D01*
X125587500Y-104062500D02*
X123300000Y-106350000D01*
X121720000Y-116030000D02*
X125850000Y-111900000D01*
X125587500Y-102350000D02*
X125587500Y-98987500D01*
X125850000Y-111900000D02*
X125850000Y-108900000D01*
X125850000Y-108900000D02*
X123300000Y-106350000D01*
D50*
G04 #@! TO.N,Net-(C3-Pad1)*
X152850000Y-113325000D02*
X152775000Y-113400000D01*
X152775000Y-113400000D02*
X149362500Y-113400000D01*
X152800000Y-116550000D02*
X152800000Y-113375000D01*
D48*
X152650000Y-116400000D02*
X152800000Y-116550000D01*
D50*
X152800000Y-113375000D02*
X152850000Y-113325000D01*
D51*
G04 #@! TO.N,Net-(C3-Pad2)*
X123950000Y-95200000D02*
X122300000Y-93550000D01*
D50*
X141100000Y-105000000D02*
X138900000Y-102800000D01*
D51*
X148115216Y-94234784D02*
X148115216Y-90000000D01*
X124150000Y-95200000D02*
X147300000Y-95200000D01*
X147300000Y-95200000D02*
X148100000Y-94400000D01*
X148100000Y-94400000D02*
X148100000Y-94250000D01*
D50*
X138900000Y-102800000D02*
X138900000Y-95300000D01*
X142600000Y-113300000D02*
X146337500Y-113300000D01*
D51*
X122300000Y-88100000D02*
X124575000Y-85825000D01*
D50*
X146337500Y-113300000D02*
X146437500Y-113400000D01*
X140500000Y-111200000D02*
X140500000Y-108000000D01*
X142800000Y-116550000D02*
X142500000Y-116250000D01*
D51*
X148100000Y-94250000D02*
X148115216Y-94234784D01*
D50*
X141100000Y-107400000D02*
X141100000Y-105000000D01*
X142500000Y-116250000D02*
X142500000Y-113400000D01*
X142500000Y-113400000D02*
X142600000Y-113300000D01*
D51*
X122300000Y-93550000D02*
X122300000Y-88100000D01*
D50*
X140500000Y-108000000D02*
X141100000Y-107400000D01*
X142600000Y-113300000D02*
X140500000Y-111200000D01*
D51*
X148100000Y-94250000D02*
X155200000Y-94250000D01*
G04 #@! TO.N,GNDPWR*
X143100000Y-90000000D02*
X140615216Y-90000000D01*
X139815000Y-85825000D02*
X139815000Y-84235000D01*
X139815000Y-84235000D02*
X141700000Y-82350000D01*
X158200000Y-116305112D02*
X158244888Y-116350000D01*
X155250000Y-110200000D02*
X158200000Y-110200000D01*
X160300000Y-85900000D02*
X158930000Y-87270000D01*
D50*
X160300000Y-86055113D02*
X161600000Y-87355113D01*
D51*
X160250000Y-82350000D02*
X160250000Y-85550000D01*
X158244888Y-116350000D02*
X160950000Y-116350000D01*
X158930000Y-87270000D02*
X158030000Y-87270000D01*
X158150000Y-110150000D02*
X158200000Y-110200000D01*
X150400480Y-102499520D02*
X158150480Y-102499520D01*
D48*
X164950000Y-105200000D02*
X163300000Y-103550000D01*
D51*
X165180000Y-83580000D02*
X165180000Y-85235000D01*
X158200000Y-110200000D02*
X158200000Y-102450000D01*
D48*
X162500000Y-103550000D02*
X161800000Y-103550000D01*
X164950000Y-105300000D02*
X164950000Y-105200000D01*
D51*
X150400000Y-102500000D02*
X150400480Y-102499520D01*
D48*
X161800000Y-103550000D02*
X160400000Y-102150000D01*
D51*
X155200000Y-110150000D02*
X158150000Y-110150000D01*
X158200000Y-102450000D02*
X158500000Y-102150000D01*
D48*
X165395000Y-85450000D02*
X165180000Y-85235000D01*
D50*
X158030000Y-87270000D02*
X156950000Y-87270000D01*
D51*
X158150480Y-102499520D02*
X158500000Y-102150000D01*
D50*
X158444888Y-116150000D02*
X158244888Y-116350000D01*
X158500000Y-102150000D02*
X160600000Y-102150000D01*
D51*
X140615216Y-90000000D02*
X139815000Y-89199784D01*
X141700000Y-82350000D02*
X163950000Y-82350000D01*
X156950000Y-87270000D02*
X157720000Y-87270000D01*
D48*
X160400000Y-102150000D02*
X158500000Y-102150000D01*
D51*
X139815000Y-89199784D02*
X139815000Y-85825000D01*
D48*
X165495000Y-85550000D02*
X165180000Y-85235000D01*
D51*
X164000000Y-82400000D02*
X165180000Y-83580000D01*
X158200000Y-110200000D02*
X158200000Y-116305112D01*
D48*
G04 #@! TO.N,GND*
X172130000Y-94157500D02*
X171787500Y-94500000D01*
D51*
X175450000Y-102900000D02*
X175200000Y-103150000D01*
X170950000Y-114450000D02*
X170950000Y-116350000D01*
X175200000Y-103150000D02*
X175200000Y-104450000D01*
X170950000Y-116350000D02*
X170950000Y-118500000D01*
D48*
X172130000Y-91250000D02*
X172130000Y-94157500D01*
X171787500Y-94500000D02*
X171787500Y-95612500D01*
X171200480Y-96199520D02*
X171200480Y-98200480D01*
D51*
X175200000Y-104450000D02*
X174750000Y-104900000D01*
D48*
X171200480Y-98200480D02*
X172100000Y-99100000D01*
D49*
X178000000Y-102605000D02*
X177705000Y-102900000D01*
D48*
X171787500Y-95612500D02*
X171200480Y-96199520D01*
D51*
X177705000Y-102900000D02*
X175450000Y-102900000D01*
X174750000Y-104900000D02*
X174750000Y-108000000D01*
D48*
G04 #@! TO.N,Net-(C10-Pad1)*
X168600000Y-104600000D02*
X167700000Y-105500000D01*
X168600000Y-102200000D02*
X168600000Y-104600000D01*
X167700000Y-105500000D02*
X166950000Y-105500000D01*
X156700000Y-89400000D02*
X156550000Y-89400000D01*
X166150000Y-101500000D02*
X166000000Y-101650000D01*
X156550000Y-89400000D02*
X154100000Y-86950000D01*
X166000000Y-101650000D02*
X168050000Y-101650000D01*
X166150000Y-100200000D02*
X166150000Y-101500000D01*
X168050000Y-101650000D02*
X168600000Y-102200000D01*
G04 #@! TO.N,Net-(C11-Pad1)*
X150790000Y-99890000D02*
X148000000Y-99890000D01*
X167600000Y-102600000D02*
X167600000Y-102650000D01*
X146200000Y-102400000D02*
X148000000Y-100600000D01*
X157650000Y-100650000D02*
X151550000Y-100650000D01*
X131000000Y-102400000D02*
X133437500Y-102400000D01*
X128562500Y-102400000D02*
X131000000Y-102400000D01*
X161650000Y-98900000D02*
X159400000Y-98900000D01*
X161650000Y-98950000D02*
X161650000Y-90755113D01*
X151550000Y-100650000D02*
X150790000Y-99890000D01*
X161650000Y-90755113D02*
X161800000Y-90605113D01*
X166000000Y-102600000D02*
X167600000Y-102600000D01*
X148000000Y-100600000D02*
X148000000Y-99890000D01*
X142050000Y-102400000D02*
X146200000Y-102400000D01*
X159400000Y-98900000D02*
X157650000Y-100650000D01*
G04 #@! TO.N,Net-(C14-Pad1)*
X168400000Y-97412500D02*
X170137500Y-97412500D01*
D51*
G04 #@! TO.N,Net-(D1-Pad2)*
X127950000Y-91650000D02*
X125250000Y-91650000D01*
X129655000Y-85825000D02*
X129655000Y-89945000D01*
X129655000Y-89945000D02*
X127950000Y-91650000D01*
G04 #@! TO.N,Net-(D1-Pad3)*
X134735000Y-85825000D02*
X134735000Y-90165000D01*
X134735000Y-90165000D02*
X133250000Y-91650000D01*
D50*
G04 #@! TO.N,Net-(D2-Pad1)*
X181550000Y-84550000D02*
X182040000Y-85040000D01*
D51*
X176300000Y-94350000D02*
X176900000Y-93750000D01*
D50*
X177550000Y-84550000D02*
X181550000Y-84550000D01*
X176960000Y-86695000D02*
X176960000Y-85140000D01*
X182040000Y-87977500D02*
X182800000Y-88737500D01*
X176960000Y-85140000D02*
X177550000Y-84550000D01*
D51*
X176900000Y-86755000D02*
X176960000Y-86695000D01*
D50*
X182040000Y-86695000D02*
X182040000Y-87977500D01*
X182040000Y-85040000D02*
X182040000Y-86695000D01*
D51*
X176900000Y-93750000D02*
X176900000Y-86755000D01*
D50*
G04 #@! TO.N,Net-(D3-Pad2)*
X149050000Y-86900000D02*
X149050000Y-86295000D01*
X158100000Y-93200000D02*
X158100000Y-93050000D01*
X158050000Y-96850000D02*
X158050000Y-93050000D01*
X155200000Y-98250000D02*
X156650000Y-98250000D01*
X152850000Y-98325000D02*
X155125000Y-98325000D01*
X150850000Y-88700000D02*
X149050000Y-86900000D01*
D48*
X152650000Y-97570000D02*
X152680000Y-97600000D01*
D50*
X155125000Y-98325000D02*
X155200000Y-98250000D01*
X158100000Y-93050000D02*
X153750000Y-88700000D01*
X156650000Y-98250000D02*
X158050000Y-96850000D01*
X153750000Y-88700000D02*
X150850000Y-88700000D01*
D48*
G04 #@! TO.N,Net-(D4-Pad1)*
X142300000Y-99070000D02*
X142450000Y-98920000D01*
D50*
X143100000Y-98850000D02*
X144670000Y-98850000D01*
X144670000Y-98850000D02*
X145700000Y-99880000D01*
D48*
G04 #@! TO.N,Net-(D5-Pad1)*
X160150000Y-92090000D02*
X160150000Y-94337500D01*
X159210000Y-91150000D02*
X160150000Y-92090000D01*
G04 #@! TO.N,Net-(D5-Pad2)*
X151150000Y-91150000D02*
X151590000Y-91150000D01*
X160337500Y-104750000D02*
X160337500Y-103937500D01*
G04 #@! TO.N,Net-(R13-Pad2)*
X163500000Y-86500000D02*
X163500000Y-87137059D01*
X163300000Y-94387500D02*
X163500000Y-94187500D01*
X163500000Y-94187500D02*
X163500000Y-86500000D01*
X162650000Y-84900000D02*
X163500000Y-85750000D01*
X163500000Y-85750000D02*
X163500000Y-86500000D01*
G04 #@! TO.N,Net-(R14-Pad1)*
X169712500Y-94187500D02*
X169712500Y-93600000D01*
X170200000Y-91250000D02*
X170200000Y-93112500D01*
X168400000Y-95500000D02*
X169712500Y-94187500D01*
X168400000Y-95587500D02*
X168400000Y-95500000D01*
X170200000Y-93112500D02*
X169712500Y-93600000D01*
D50*
G04 #@! TO.N,Net-(Q1-Pad3)*
X151590000Y-86295000D02*
X151590000Y-85360000D01*
X156545000Y-84325000D02*
X156950000Y-84730000D01*
X154100000Y-84325000D02*
X156545000Y-84325000D01*
X152625000Y-84325000D02*
X154100000Y-84325000D01*
X151590000Y-85360000D02*
X152625000Y-84325000D01*
D51*
G04 #@! TO.N,Net-(C4-Pad1)*
X180825000Y-109050000D02*
X180825000Y-111875000D01*
X180900000Y-111950000D02*
X180900000Y-116250000D01*
X182775000Y-107100000D02*
X180825000Y-109050000D01*
X180825000Y-111875000D02*
X180900000Y-111950000D01*
X180900000Y-116250000D02*
X182150000Y-117500000D01*
X182905000Y-107100000D02*
X182775000Y-107100000D01*
D48*
G04 #@! TO.N,Net-(R6-Pad1)*
X166250000Y-103800000D02*
X166000000Y-103550000D01*
X161500000Y-106900000D02*
X162412500Y-105987500D01*
X159350000Y-97450000D02*
X160200000Y-96600000D01*
X166000000Y-103550000D02*
X165899520Y-103650480D01*
X160200000Y-96600000D02*
X160200000Y-96212500D01*
X162412500Y-105987500D02*
X162412500Y-105300000D01*
X167600011Y-103800000D02*
X166250000Y-103800000D01*
D50*
G04 #@! TO.N,Net-(D4-Pad2)*
X143890000Y-109800000D02*
X149300000Y-109800000D01*
X152950000Y-106150000D02*
X155200000Y-106150000D01*
X143100000Y-109010000D02*
X143890000Y-109800000D01*
X149300000Y-109800000D02*
X152950000Y-106150000D01*
X155100000Y-105550000D02*
X155399000Y-105550000D01*
D51*
G04 #@! TO.N,Net-(F1-Pad1)*
X130200000Y-117200000D02*
X126800000Y-117200000D01*
G04 #@! TO.N,Net-(C4-Pad2)*
X177400000Y-111950000D02*
X175950000Y-113400000D01*
X177705000Y-111645000D02*
X177400000Y-111950000D01*
X177705000Y-107100000D02*
X177705000Y-111645000D01*
X175950000Y-113400000D02*
X175950000Y-117500000D01*
D50*
X177875000Y-109050000D02*
X177875000Y-106820000D01*
G04 #@! TO.N,Net-(C1-Pad2)*
X181800000Y-99100000D02*
X182800000Y-99100000D01*
D51*
X179500000Y-86695000D02*
X179505000Y-86700000D01*
X179625000Y-94725000D02*
X182905000Y-98005000D01*
D50*
X182800000Y-99100000D02*
X182800000Y-98200000D01*
D51*
X182905000Y-98005000D02*
X182905000Y-102900000D01*
X179505000Y-86700000D02*
X179600000Y-86700000D01*
D50*
X179900000Y-101000000D02*
X181800000Y-99100000D01*
X182800000Y-98200000D02*
X181500000Y-96900000D01*
D48*
X173900000Y-100712500D02*
X171625000Y-100712500D01*
X171625000Y-100712500D02*
X171612500Y-100700000D01*
D51*
X179625000Y-93700000D02*
X179625000Y-86820000D01*
D48*
X175800000Y-101000000D02*
X175512500Y-100712500D01*
D51*
X179625000Y-93700000D02*
X179625000Y-94725000D01*
X179625000Y-86820000D02*
X179500000Y-86695000D01*
D48*
X175512500Y-100712500D02*
X173900000Y-100712500D01*
G04 #@! TO.N,Net-(C9-Pad1)*
X163000000Y-100250000D02*
X163050000Y-100200000D01*
X160600000Y-100250000D02*
X163000000Y-100250000D01*
X163300000Y-96212500D02*
X163050000Y-96462500D01*
X163050000Y-101400000D02*
X163300000Y-101650000D01*
X163050000Y-96462500D02*
X163050000Y-100200000D01*
X163050000Y-100200000D02*
X163050000Y-101400000D01*
D50*
G04 #@! TO.N,Net-(C13-Pad1)*
X145740000Y-107460000D02*
X147950000Y-107460000D01*
X145700000Y-107500000D02*
X145740000Y-107460000D01*
D48*
X147950000Y-107460000D02*
X148150000Y-107660000D01*
G04 #@! TO.N,Net-(C14-Pad2)*
X173862500Y-91387500D02*
X174000000Y-91250000D01*
X173362500Y-97787500D02*
X172775000Y-97200000D01*
X174100000Y-91250000D02*
X174100000Y-97587500D01*
X173900000Y-97787500D02*
X173362500Y-97787500D01*
X174100000Y-97587500D02*
X173900000Y-97787500D01*
G04 #@! TO.N,Net-(U2-Pad4)*
X165505000Y-87450000D02*
X165180000Y-87775000D01*
G04 #@! TD*
G04 #@! TA.AperFunction,Conductor*
G04 #@! TO.N,GND*
G36*
X184933621Y-81528502D02*
G01*
X184980114Y-81582158D01*
X184991500Y-81634500D01*
X184991500Y-119365500D01*
X184971498Y-119433621D01*
X184917842Y-119480114D01*
X184865500Y-119491500D01*
X182662801Y-119491500D01*
X182594680Y-119471498D01*
X182548187Y-119417842D01*
X182538083Y-119347568D01*
X182567577Y-119282988D01*
X182630721Y-119243652D01*
X182735918Y-119215956D01*
X182735920Y-119215955D01*
X182740441Y-119214765D01*
X182744738Y-119212919D01*
X182983120Y-119110502D01*
X182983122Y-119110501D01*
X182987414Y-119108657D01*
X183106071Y-119035230D01*
X183212017Y-118969669D01*
X183212021Y-118969666D01*
X183215990Y-118967210D01*
X183421149Y-118793530D01*
X183598382Y-118591434D01*
X183743797Y-118365361D01*
X183854199Y-118120278D01*
X183891209Y-117989051D01*
X183925893Y-117866072D01*
X183925894Y-117866069D01*
X183927163Y-117861568D01*
X183945043Y-117721019D01*
X183960688Y-117598045D01*
X183960688Y-117598041D01*
X183961086Y-117594915D01*
X183961340Y-117585236D01*
X183963147Y-117516185D01*
X183963571Y-117500000D01*
X183943650Y-117231937D01*
X183932020Y-117180538D01*
X183885361Y-116974331D01*
X183885360Y-116974326D01*
X183884327Y-116969763D01*
X183786902Y-116719238D01*
X183653518Y-116485864D01*
X183629897Y-116455900D01*
X183533001Y-116332988D01*
X183487105Y-116274769D01*
X183291317Y-116090591D01*
X183070457Y-115937374D01*
X183066264Y-115935306D01*
X182833564Y-115820551D01*
X182833561Y-115820550D01*
X182829376Y-115818486D01*
X182573370Y-115736538D01*
X182568763Y-115735788D01*
X182568760Y-115735787D01*
X182312674Y-115694081D01*
X182312675Y-115694081D01*
X182308063Y-115693330D01*
X182282851Y-115693000D01*
X182214998Y-115672108D01*
X182169211Y-115617849D01*
X182158500Y-115567011D01*
X182158500Y-112998513D01*
X182166518Y-112954284D01*
X182198973Y-112867711D01*
X182198973Y-112867709D01*
X182201745Y-112860316D01*
X182202763Y-112850950D01*
X182208131Y-112801531D01*
X182208500Y-112798134D01*
X182208500Y-111101866D01*
X182201745Y-111039684D01*
X182150615Y-110903295D01*
X182108674Y-110847333D01*
X182083826Y-110780826D01*
X182083500Y-110771768D01*
X182083500Y-109623477D01*
X182103502Y-109555356D01*
X182120405Y-109534382D01*
X183247383Y-108407405D01*
X183309695Y-108373379D01*
X183336478Y-108370500D01*
X183348258Y-108370500D01*
X183350706Y-108370307D01*
X183350714Y-108370307D01*
X183420159Y-108364841D01*
X183425915Y-108364388D01*
X183431488Y-108362895D01*
X183431492Y-108362894D01*
X183600150Y-108317702D01*
X183600151Y-108317702D01*
X183606524Y-108315994D01*
X183773125Y-108231107D01*
X183811033Y-108200410D01*
X183913310Y-108117587D01*
X183918436Y-108113436D01*
X184036107Y-107968125D01*
X184120994Y-107801524D01*
X184166367Y-107632189D01*
X184167894Y-107626492D01*
X184167895Y-107626488D01*
X184169388Y-107620915D01*
X184175500Y-107543258D01*
X184175500Y-106656742D01*
X184169388Y-106579085D01*
X184120994Y-106398476D01*
X184036107Y-106231875D01*
X183918436Y-106086564D01*
X183773125Y-105968893D01*
X183606524Y-105884006D01*
X183600150Y-105882298D01*
X183431492Y-105837106D01*
X183431488Y-105837105D01*
X183425915Y-105835612D01*
X183406234Y-105834063D01*
X183350714Y-105829693D01*
X183350706Y-105829693D01*
X183348258Y-105829500D01*
X182461742Y-105829500D01*
X182459294Y-105829693D01*
X182459286Y-105829693D01*
X182403766Y-105834063D01*
X182384085Y-105835612D01*
X182378512Y-105837105D01*
X182378508Y-105837106D01*
X182209850Y-105882298D01*
X182203476Y-105884006D01*
X182036875Y-105968893D01*
X181891564Y-106086564D01*
X181773893Y-106231875D01*
X181714388Y-106348661D01*
X181690034Y-106396458D01*
X181666862Y-106428350D01*
X179999737Y-108095475D01*
X179987347Y-108106342D01*
X179969708Y-108119877D01*
X179915188Y-108179794D01*
X179914842Y-108180174D01*
X179910743Y-108184469D01*
X179894802Y-108200410D01*
X179893007Y-108202557D01*
X179893005Y-108202559D01*
X179878068Y-108220423D01*
X179874600Y-108224398D01*
X179822288Y-108281888D01*
X179822281Y-108281897D01*
X179818515Y-108286036D01*
X179815538Y-108290782D01*
X179815537Y-108290783D01*
X179808987Y-108301225D01*
X179798911Y-108315093D01*
X179791004Y-108324549D01*
X179790997Y-108324559D01*
X179787406Y-108328854D01*
X179746118Y-108401240D01*
X179743413Y-108405759D01*
X179699136Y-108476344D01*
X179697043Y-108481549D01*
X179697042Y-108481552D01*
X179692448Y-108492979D01*
X179684988Y-108508411D01*
X179678880Y-108519119D01*
X179678876Y-108519128D01*
X179676101Y-108523993D01*
X179674232Y-108529270D01*
X179674230Y-108529275D01*
X179648285Y-108602542D01*
X179646420Y-108607478D01*
X179615344Y-108684783D01*
X179614208Y-108690270D01*
X179614207Y-108690272D01*
X179611706Y-108702349D01*
X179607101Y-108718844D01*
X179601111Y-108735759D01*
X179600204Y-108741298D01*
X179587643Y-108818001D01*
X179586683Y-108823180D01*
X179569787Y-108904767D01*
X179569521Y-108909379D01*
X179569521Y-108909380D01*
X179568185Y-108932548D01*
X179566738Y-108945653D01*
X179565714Y-108951910D01*
X179564806Y-108957457D01*
X179564894Y-108963070D01*
X179564894Y-108963072D01*
X179566484Y-109064264D01*
X179566500Y-109066243D01*
X179566500Y-111783604D01*
X179565422Y-111800051D01*
X179562521Y-111822086D01*
X179565111Y-111876999D01*
X179566360Y-111903488D01*
X179566500Y-111909424D01*
X179566500Y-111931999D01*
X179566750Y-111934796D01*
X179568819Y-111957988D01*
X179569178Y-111963248D01*
X179573104Y-112046488D01*
X179574354Y-112051947D01*
X179574355Y-112051952D01*
X179577108Y-112063970D01*
X179579789Y-112080899D01*
X179581383Y-112098762D01*
X179587034Y-112119417D01*
X179591500Y-112152666D01*
X179591500Y-112798134D01*
X179591869Y-112801531D01*
X179597238Y-112850950D01*
X179598255Y-112860316D01*
X179601027Y-112867709D01*
X179601027Y-112867711D01*
X179633482Y-112954284D01*
X179641500Y-112998513D01*
X179641500Y-116158604D01*
X179640422Y-116175051D01*
X179637521Y-116197086D01*
X179639386Y-116236636D01*
X179641360Y-116278488D01*
X179641500Y-116284424D01*
X179641500Y-116306999D01*
X179641750Y-116309796D01*
X179643819Y-116332988D01*
X179644178Y-116338248D01*
X179648104Y-116421488D01*
X179649354Y-116426947D01*
X179649355Y-116426952D01*
X179652108Y-116438970D01*
X179654789Y-116455899D01*
X179656383Y-116473762D01*
X179657865Y-116479178D01*
X179657865Y-116479180D01*
X179678370Y-116554133D01*
X179679656Y-116559251D01*
X179698258Y-116640470D01*
X179700460Y-116645632D01*
X179705294Y-116656967D01*
X179710927Y-116673142D01*
X179713070Y-116680974D01*
X179715663Y-116690451D01*
X179718079Y-116695516D01*
X179751539Y-116765667D01*
X179753710Y-116770476D01*
X179786397Y-116847109D01*
X179796251Y-116862110D01*
X179804654Y-116877025D01*
X179812378Y-116893218D01*
X179815648Y-116897769D01*
X179815650Y-116897772D01*
X179860999Y-116960881D01*
X179863989Y-116965232D01*
X179907196Y-117031010D01*
X179907202Y-117031018D01*
X179909735Y-117034874D01*
X179928257Y-117055662D01*
X179936490Y-117065939D01*
X179943471Y-117075654D01*
X179947498Y-117079556D01*
X180020255Y-117150063D01*
X180021665Y-117151452D01*
X180303348Y-117433135D01*
X180337374Y-117495447D01*
X180340108Y-117516182D01*
X180349947Y-117721019D01*
X180402388Y-117984656D01*
X180493220Y-118237646D01*
X180620450Y-118474431D01*
X180623241Y-118478168D01*
X180623245Y-118478175D01*
X180704887Y-118587506D01*
X180781281Y-118689810D01*
X180784590Y-118693090D01*
X180784595Y-118693096D01*
X180968863Y-118875762D01*
X180972180Y-118879050D01*
X180975942Y-118881808D01*
X180975945Y-118881811D01*
X181088299Y-118964192D01*
X181188954Y-119037995D01*
X181193089Y-119040171D01*
X181193093Y-119040173D01*
X181422698Y-119160975D01*
X181426840Y-119163154D01*
X181549154Y-119205868D01*
X181665636Y-119246545D01*
X181723353Y-119287887D01*
X181749557Y-119353871D01*
X181735928Y-119423547D01*
X181686792Y-119474794D01*
X181624095Y-119491500D01*
X176462801Y-119491500D01*
X176394680Y-119471498D01*
X176348187Y-119417842D01*
X176338083Y-119347568D01*
X176367577Y-119282988D01*
X176430721Y-119243652D01*
X176535918Y-119215956D01*
X176535920Y-119215955D01*
X176540441Y-119214765D01*
X176544738Y-119212919D01*
X176783120Y-119110502D01*
X176783122Y-119110501D01*
X176787414Y-119108657D01*
X176906071Y-119035230D01*
X177012017Y-118969669D01*
X177012021Y-118969666D01*
X177015990Y-118967210D01*
X177221149Y-118793530D01*
X177398382Y-118591434D01*
X177543797Y-118365361D01*
X177654199Y-118120278D01*
X177691209Y-117989051D01*
X177725893Y-117866072D01*
X177725894Y-117866069D01*
X177727163Y-117861568D01*
X177745043Y-117721019D01*
X177760688Y-117598045D01*
X177760688Y-117598041D01*
X177761086Y-117594915D01*
X177761340Y-117585236D01*
X177763147Y-117516185D01*
X177763571Y-117500000D01*
X177743650Y-117231937D01*
X177732020Y-117180538D01*
X177685361Y-116974331D01*
X177685360Y-116974326D01*
X177684327Y-116969763D01*
X177586902Y-116719238D01*
X177453518Y-116485864D01*
X177429897Y-116455900D01*
X177333001Y-116332988D01*
X177287105Y-116274769D01*
X177248167Y-116238140D01*
X177212255Y-116176896D01*
X177208500Y-116146365D01*
X177208500Y-113973478D01*
X177228502Y-113905357D01*
X177245405Y-113884382D01*
X178013901Y-113115887D01*
X178047047Y-113092679D01*
X178047000Y-113092598D01*
X178047923Y-113092065D01*
X178049747Y-113090788D01*
X178051765Y-113089847D01*
X178056749Y-113087523D01*
X178183868Y-112998513D01*
X178239789Y-112959357D01*
X178239792Y-112959355D01*
X178244300Y-112956198D01*
X178406198Y-112794300D01*
X178433179Y-112755768D01*
X178534372Y-112611249D01*
X178537523Y-112606749D01*
X178539843Y-112601773D01*
X178540695Y-112600298D01*
X178560622Y-112575423D01*
X178560292Y-112575123D01*
X178615149Y-112514836D01*
X178619247Y-112510541D01*
X178635198Y-112494590D01*
X178636995Y-112492441D01*
X178651932Y-112474577D01*
X178655400Y-112470602D01*
X178707712Y-112413112D01*
X178707719Y-112413103D01*
X178711485Y-112408964D01*
X178721014Y-112393773D01*
X178731089Y-112379907D01*
X178738996Y-112370451D01*
X178739003Y-112370441D01*
X178742594Y-112366146D01*
X178783887Y-112293752D01*
X178786592Y-112289232D01*
X178827886Y-112223404D01*
X178827888Y-112223401D01*
X178830864Y-112218656D01*
X178837552Y-112202021D01*
X178845012Y-112186589D01*
X178851120Y-112175881D01*
X178851124Y-112175872D01*
X178853899Y-112171007D01*
X178855768Y-112165730D01*
X178855770Y-112165725D01*
X178881715Y-112092458D01*
X178883580Y-112087522D01*
X178912566Y-112015416D01*
X178914656Y-112010217D01*
X178918294Y-111992650D01*
X178922899Y-111976156D01*
X178928889Y-111959241D01*
X178942359Y-111876990D01*
X178943319Y-111871811D01*
X178959276Y-111794758D01*
X178959276Y-111794757D01*
X178960213Y-111790233D01*
X178961815Y-111762452D01*
X178963262Y-111749347D01*
X178964286Y-111743090D01*
X178964286Y-111743086D01*
X178965194Y-111737543D01*
X178963516Y-111630736D01*
X178963500Y-111628757D01*
X178963500Y-107659480D01*
X178967089Y-107632219D01*
X178966915Y-107632189D01*
X178967676Y-107627762D01*
X178967793Y-107626871D01*
X178967893Y-107626499D01*
X178967895Y-107626486D01*
X178969388Y-107620915D01*
X178975500Y-107543258D01*
X178975500Y-106656742D01*
X178969388Y-106579085D01*
X178920994Y-106398476D01*
X178836107Y-106231875D01*
X178718436Y-106086564D01*
X178573125Y-105968893D01*
X178406524Y-105884006D01*
X178400150Y-105882298D01*
X178231492Y-105837106D01*
X178231488Y-105837105D01*
X178225915Y-105835612D01*
X178206234Y-105834063D01*
X178150714Y-105829693D01*
X178150706Y-105829693D01*
X178148258Y-105829500D01*
X178099206Y-105829500D01*
X178079276Y-105827475D01*
X178078768Y-105827318D01*
X178072643Y-105826674D01*
X178072642Y-105826674D01*
X177888204Y-105807289D01*
X177888202Y-105807289D01*
X177882075Y-105806645D01*
X177685112Y-105824570D01*
X177679198Y-105826311D01*
X177674173Y-105827269D01*
X177650566Y-105829500D01*
X177261742Y-105829500D01*
X177259294Y-105829693D01*
X177259286Y-105829693D01*
X177203766Y-105834063D01*
X177184085Y-105835612D01*
X177178512Y-105837105D01*
X177178508Y-105837106D01*
X177009850Y-105882298D01*
X177003476Y-105884006D01*
X176836875Y-105968893D01*
X176691564Y-106086564D01*
X176573893Y-106231875D01*
X176489006Y-106398476D01*
X176440612Y-106579085D01*
X176434500Y-106656742D01*
X176434500Y-107543258D01*
X176440612Y-107620915D01*
X176442105Y-107626486D01*
X176442107Y-107626499D01*
X176442207Y-107626871D01*
X176442324Y-107627762D01*
X176443085Y-107632189D01*
X176442911Y-107632219D01*
X176446500Y-107659480D01*
X176446500Y-111000812D01*
X176426498Y-111068933D01*
X176409595Y-111089907D01*
X176393802Y-111105700D01*
X176262477Y-111293251D01*
X176260155Y-111298231D01*
X176259211Y-111300256D01*
X176257930Y-111302085D01*
X176257402Y-111303000D01*
X176257322Y-111302954D01*
X176234111Y-111336101D01*
X175124737Y-112445475D01*
X175112347Y-112456342D01*
X175094708Y-112469877D01*
X175040188Y-112529794D01*
X175039842Y-112530174D01*
X175035743Y-112534469D01*
X175019802Y-112550410D01*
X175018007Y-112552557D01*
X175018005Y-112552559D01*
X175003068Y-112570423D01*
X174999600Y-112574398D01*
X174947288Y-112631888D01*
X174947281Y-112631897D01*
X174943515Y-112636036D01*
X174940538Y-112640782D01*
X174940537Y-112640783D01*
X174933987Y-112651225D01*
X174923911Y-112665093D01*
X174916004Y-112674549D01*
X174915997Y-112674559D01*
X174912406Y-112678854D01*
X174871118Y-112751240D01*
X174868413Y-112755759D01*
X174824136Y-112826344D01*
X174822043Y-112831549D01*
X174822042Y-112831552D01*
X174817448Y-112842979D01*
X174809988Y-112858411D01*
X174803880Y-112869119D01*
X174803876Y-112869128D01*
X174801101Y-112873993D01*
X174799232Y-112879270D01*
X174799230Y-112879275D01*
X174773285Y-112952542D01*
X174771420Y-112957478D01*
X174740344Y-113034783D01*
X174739208Y-113040270D01*
X174739207Y-113040272D01*
X174736706Y-113052349D01*
X174732101Y-113068844D01*
X174726111Y-113085759D01*
X174725204Y-113091298D01*
X174712643Y-113168001D01*
X174711683Y-113173180D01*
X174694787Y-113254767D01*
X174694521Y-113259379D01*
X174694521Y-113259380D01*
X174693185Y-113282548D01*
X174691738Y-113295653D01*
X174690714Y-113301910D01*
X174689806Y-113307457D01*
X174689894Y-113313070D01*
X174689894Y-113313072D01*
X174691484Y-113414264D01*
X174691500Y-113416243D01*
X174691500Y-116142636D01*
X174671498Y-116210757D01*
X174652022Y-116233571D01*
X174652164Y-116233708D01*
X174649926Y-116236026D01*
X174649405Y-116236636D01*
X174648910Y-116237078D01*
X174645426Y-116240188D01*
X174473544Y-116446854D01*
X174334096Y-116676656D01*
X174332287Y-116680970D01*
X174332285Y-116680974D01*
X174328311Y-116690451D01*
X174230148Y-116924545D01*
X174163981Y-117185077D01*
X174137050Y-117452526D01*
X174137274Y-117457192D01*
X174137274Y-117457197D01*
X174139179Y-117496851D01*
X174149947Y-117721019D01*
X174202388Y-117984656D01*
X174293220Y-118237646D01*
X174420450Y-118474431D01*
X174423241Y-118478168D01*
X174423245Y-118478175D01*
X174504887Y-118587506D01*
X174581281Y-118689810D01*
X174584590Y-118693090D01*
X174584595Y-118693096D01*
X174768863Y-118875762D01*
X174772180Y-118879050D01*
X174775942Y-118881808D01*
X174775945Y-118881811D01*
X174888299Y-118964192D01*
X174988954Y-119037995D01*
X174993089Y-119040171D01*
X174993093Y-119040173D01*
X175222698Y-119160975D01*
X175226840Y-119163154D01*
X175349154Y-119205868D01*
X175465636Y-119246545D01*
X175523353Y-119287887D01*
X175549557Y-119353871D01*
X175535928Y-119423547D01*
X175486792Y-119474794D01*
X175424095Y-119491500D01*
X170276000Y-119491500D01*
X170207879Y-119471498D01*
X170161386Y-119417842D01*
X170150000Y-119365500D01*
X170150000Y-117617953D01*
X170170002Y-117549832D01*
X170223658Y-117503339D01*
X170293932Y-117493235D01*
X170329250Y-117503758D01*
X170495947Y-117581490D01*
X170506239Y-117585236D01*
X170716688Y-117641625D01*
X170727481Y-117643528D01*
X170944525Y-117662517D01*
X170955475Y-117662517D01*
X171172519Y-117643528D01*
X171183312Y-117641625D01*
X171393761Y-117585236D01*
X171404053Y-117581490D01*
X171601511Y-117489414D01*
X171611006Y-117483931D01*
X171663048Y-117447491D01*
X171671424Y-117437012D01*
X171664356Y-117423566D01*
X170679885Y-116439095D01*
X170645859Y-116376783D01*
X170647694Y-116351132D01*
X171314408Y-116351132D01*
X171314539Y-116352965D01*
X171318790Y-116359580D01*
X172024287Y-117065077D01*
X172036062Y-117071507D01*
X172048077Y-117062211D01*
X172083931Y-117011006D01*
X172089414Y-117001511D01*
X172181490Y-116804053D01*
X172185236Y-116793761D01*
X172241625Y-116583312D01*
X172243528Y-116572519D01*
X172262517Y-116355475D01*
X172262517Y-116344525D01*
X172243528Y-116127481D01*
X172241625Y-116116688D01*
X172185236Y-115906239D01*
X172181490Y-115895947D01*
X172089411Y-115698484D01*
X172083931Y-115688994D01*
X172047491Y-115636952D01*
X172037012Y-115628576D01*
X172023566Y-115635644D01*
X171322022Y-116337188D01*
X171314408Y-116351132D01*
X170647694Y-116351132D01*
X170650924Y-116305968D01*
X170679885Y-116260905D01*
X171665077Y-115275713D01*
X171671507Y-115263938D01*
X171662211Y-115251923D01*
X171611006Y-115216069D01*
X171601511Y-115210586D01*
X171404053Y-115118510D01*
X171393761Y-115114764D01*
X171183312Y-115058375D01*
X171172519Y-115056472D01*
X170955475Y-115037483D01*
X170944525Y-115037483D01*
X170727481Y-115056472D01*
X170716688Y-115058375D01*
X170506239Y-115114764D01*
X170495947Y-115118510D01*
X170329250Y-115196242D01*
X170259058Y-115206903D01*
X170194245Y-115177923D01*
X170155389Y-115118503D01*
X170150000Y-115082047D01*
X170150000Y-113086955D01*
X170169960Y-113018900D01*
X174440092Y-106365439D01*
X174440093Y-106365437D01*
X174450000Y-106350000D01*
X174446999Y-105959884D01*
X174466476Y-105891612D01*
X174519773Y-105844707D01*
X174589967Y-105834063D01*
X174621213Y-105842506D01*
X174727988Y-105886734D01*
X174737373Y-105889783D01*
X174958554Y-105942885D01*
X174968301Y-105944428D01*
X175195070Y-105962275D01*
X175204930Y-105962275D01*
X175431699Y-105944428D01*
X175441446Y-105942885D01*
X175662627Y-105889783D01*
X175672012Y-105886734D01*
X175882163Y-105799687D01*
X175890958Y-105795205D01*
X176058445Y-105692568D01*
X176067907Y-105682110D01*
X176064124Y-105673334D01*
X174929885Y-104539095D01*
X174895859Y-104476783D01*
X174897694Y-104451132D01*
X175564408Y-104451132D01*
X175564539Y-104452965D01*
X175568790Y-104459580D01*
X176420290Y-105311080D01*
X176432670Y-105317840D01*
X176440320Y-105312113D01*
X176545205Y-105140958D01*
X176549687Y-105132163D01*
X176636734Y-104922012D01*
X176639783Y-104912627D01*
X176692885Y-104691446D01*
X176694428Y-104681699D01*
X176712275Y-104454930D01*
X176712275Y-104445070D01*
X176694428Y-104218301D01*
X176692883Y-104208547D01*
X176687928Y-104187905D01*
X176691476Y-104116997D01*
X176732796Y-104059264D01*
X176798770Y-104033035D01*
X176867650Y-104046226D01*
X176997777Y-104112529D01*
X177010030Y-104117233D01*
X177178587Y-104162398D01*
X177189919Y-104164345D01*
X177259319Y-104169807D01*
X177264245Y-104170000D01*
X177432885Y-104170000D01*
X177448124Y-104165525D01*
X177449329Y-104164135D01*
X177451000Y-104156452D01*
X177451000Y-104151885D01*
X177959000Y-104151885D01*
X177963475Y-104167124D01*
X177964865Y-104168329D01*
X177972548Y-104170000D01*
X178145755Y-104170000D01*
X178150681Y-104169807D01*
X178220081Y-104164345D01*
X178231413Y-104162398D01*
X178399970Y-104117233D01*
X178412223Y-104112529D01*
X178566968Y-104033682D01*
X178577982Y-104026530D01*
X178712955Y-103917232D01*
X178722232Y-103907955D01*
X178831530Y-103772982D01*
X178838682Y-103761968D01*
X178917529Y-103607223D01*
X178922233Y-103594970D01*
X178967398Y-103426413D01*
X178969345Y-103415081D01*
X178974807Y-103345681D01*
X178975000Y-103340755D01*
X178975000Y-103172115D01*
X178970525Y-103156876D01*
X178969135Y-103155671D01*
X178961452Y-103154000D01*
X177977115Y-103154000D01*
X177961876Y-103158475D01*
X177960671Y-103159865D01*
X177959000Y-103167548D01*
X177959000Y-104151885D01*
X177451000Y-104151885D01*
X177451000Y-103172115D01*
X177446525Y-103156876D01*
X177445135Y-103155671D01*
X177437452Y-103154000D01*
X176453115Y-103154000D01*
X176437876Y-103158475D01*
X176436671Y-103159865D01*
X176435000Y-103167548D01*
X176435000Y-103340755D01*
X176435193Y-103345681D01*
X176440655Y-103415081D01*
X176442603Y-103426414D01*
X176453401Y-103466715D01*
X176451711Y-103537692D01*
X176420789Y-103588421D01*
X175572022Y-104437188D01*
X175564408Y-104451132D01*
X174897694Y-104451132D01*
X174900924Y-104405968D01*
X174929885Y-104360905D01*
X176061080Y-103229710D01*
X176067840Y-103217330D01*
X176062113Y-103209680D01*
X175890958Y-103104795D01*
X175882163Y-103100313D01*
X175672012Y-103013266D01*
X175662627Y-103010217D01*
X175441446Y-102957115D01*
X175431699Y-102955572D01*
X175204930Y-102937725D01*
X175195070Y-102937725D01*
X174968301Y-102955572D01*
X174958554Y-102957115D01*
X174737373Y-103010217D01*
X174727988Y-103013266D01*
X174598073Y-103067079D01*
X174527483Y-103074668D01*
X174463996Y-103042889D01*
X174427769Y-102981831D01*
X174423859Y-102951639D01*
X174421369Y-102627885D01*
X176435000Y-102627885D01*
X176439475Y-102643124D01*
X176440865Y-102644329D01*
X176448548Y-102646000D01*
X177432885Y-102646000D01*
X177448124Y-102641525D01*
X177449329Y-102640135D01*
X177451000Y-102632452D01*
X177451000Y-102627885D01*
X177959000Y-102627885D01*
X177963475Y-102643124D01*
X177964865Y-102644329D01*
X177972548Y-102646000D01*
X178956885Y-102646000D01*
X178972124Y-102641525D01*
X178973329Y-102640135D01*
X178975000Y-102632452D01*
X178975000Y-102459246D01*
X178974807Y-102454319D01*
X178969345Y-102384919D01*
X178967398Y-102373587D01*
X178922233Y-102205030D01*
X178917529Y-102192777D01*
X178838682Y-102038032D01*
X178831530Y-102027018D01*
X178722232Y-101892045D01*
X178712955Y-101882768D01*
X178577982Y-101773470D01*
X178566968Y-101766318D01*
X178412223Y-101687471D01*
X178399970Y-101682767D01*
X178231413Y-101637602D01*
X178220081Y-101635655D01*
X178150681Y-101630193D01*
X178145754Y-101630000D01*
X177977115Y-101630000D01*
X177961876Y-101634475D01*
X177960671Y-101635865D01*
X177959000Y-101643548D01*
X177959000Y-102627885D01*
X177451000Y-102627885D01*
X177451000Y-101648115D01*
X177446525Y-101632876D01*
X177445135Y-101631671D01*
X177437452Y-101630000D01*
X177264246Y-101630000D01*
X177259319Y-101630193D01*
X177189919Y-101635655D01*
X177178587Y-101637602D01*
X177010030Y-101682767D01*
X176997777Y-101687471D01*
X176843032Y-101766318D01*
X176832018Y-101773470D01*
X176697045Y-101882768D01*
X176687768Y-101892045D01*
X176578470Y-102027018D01*
X176571318Y-102038032D01*
X176492471Y-102192777D01*
X176487767Y-102205030D01*
X176442602Y-102373587D01*
X176440655Y-102384919D01*
X176435193Y-102454319D01*
X176435000Y-102459246D01*
X176435000Y-102627885D01*
X174421369Y-102627885D01*
X174415850Y-101910469D01*
X174435327Y-101842197D01*
X174488624Y-101795292D01*
X174541846Y-101783500D01*
X174575400Y-101783500D01*
X174578646Y-101783163D01*
X174578650Y-101783163D01*
X174674308Y-101773238D01*
X174674312Y-101773237D01*
X174681166Y-101772526D01*
X174687702Y-101770345D01*
X174687704Y-101770345D01*
X174841998Y-101718868D01*
X174848946Y-101716550D01*
X174999348Y-101623478D01*
X175001079Y-101626275D01*
X175053428Y-101605157D01*
X175123177Y-101618408D01*
X175159373Y-101646243D01*
X175188747Y-101678866D01*
X175194116Y-101682767D01*
X175332763Y-101783500D01*
X175343248Y-101791118D01*
X175349276Y-101793802D01*
X175349278Y-101793803D01*
X175466632Y-101846052D01*
X175517712Y-101868794D01*
X175611112Y-101888647D01*
X175698056Y-101907128D01*
X175698061Y-101907128D01*
X175704513Y-101908500D01*
X175895487Y-101908500D01*
X175901939Y-101907128D01*
X175901944Y-101907128D01*
X175988888Y-101888647D01*
X176082288Y-101868794D01*
X176133368Y-101846052D01*
X176250722Y-101793803D01*
X176250724Y-101793802D01*
X176256752Y-101791118D01*
X176285344Y-101770345D01*
X176358608Y-101717115D01*
X176411253Y-101678866D01*
X176440627Y-101646243D01*
X176534621Y-101541852D01*
X176534622Y-101541851D01*
X176539040Y-101536944D01*
X176634527Y-101371556D01*
X176693542Y-101189928D01*
X176713504Y-101000000D01*
X176693542Y-100810072D01*
X176634527Y-100628444D01*
X176624204Y-100610563D01*
X176559218Y-100498005D01*
X176539040Y-100463056D01*
X176411253Y-100321134D01*
X176256752Y-100208882D01*
X176250724Y-100206198D01*
X176250722Y-100206197D01*
X176088321Y-100133892D01*
X176082288Y-100131206D01*
X176003431Y-100114444D01*
X175948053Y-100087224D01*
X175941793Y-100081905D01*
X175941789Y-100081902D01*
X175936215Y-100077167D01*
X175929701Y-100073841D01*
X175924656Y-100070476D01*
X175919522Y-100067305D01*
X175913784Y-100062766D01*
X175847625Y-100031845D01*
X175843725Y-100029939D01*
X175778692Y-99996731D01*
X175771584Y-99994992D01*
X175765941Y-99992893D01*
X175760178Y-99990976D01*
X175753550Y-99987878D01*
X175682083Y-99973013D01*
X175677799Y-99972043D01*
X175606890Y-99954692D01*
X175601288Y-99954344D01*
X175601285Y-99954344D01*
X175595736Y-99954000D01*
X175595738Y-99953964D01*
X175591745Y-99953725D01*
X175587553Y-99953351D01*
X175580385Y-99951860D01*
X175514175Y-99953651D01*
X175502979Y-99953954D01*
X175499572Y-99954000D01*
X175204002Y-99954000D01*
X175135881Y-99933998D01*
X175114984Y-99917173D01*
X175056635Y-99858925D01*
X174998303Y-99800695D01*
X174992463Y-99797095D01*
X177642001Y-99797095D01*
X177642338Y-99803614D01*
X177652257Y-99899206D01*
X177655149Y-99912600D01*
X177706588Y-100066784D01*
X177712761Y-100079962D01*
X177798063Y-100217807D01*
X177807099Y-100229208D01*
X177921829Y-100343739D01*
X177933240Y-100352751D01*
X178071243Y-100437816D01*
X178084424Y-100443963D01*
X178238710Y-100495138D01*
X178252086Y-100498005D01*
X178346438Y-100507672D01*
X178352854Y-100508000D01*
X178452885Y-100508000D01*
X178468124Y-100503525D01*
X178469329Y-100502135D01*
X178471000Y-100494452D01*
X178471000Y-99372115D01*
X178466525Y-99356876D01*
X178465135Y-99355671D01*
X178457452Y-99354000D01*
X177660116Y-99354000D01*
X177644877Y-99358475D01*
X177643672Y-99359865D01*
X177642001Y-99367548D01*
X177642001Y-99797095D01*
X174992463Y-99797095D01*
X174949284Y-99770479D01*
X174853968Y-99711725D01*
X174853966Y-99711724D01*
X174847738Y-99707885D01*
X174687254Y-99654655D01*
X174686389Y-99654368D01*
X174686387Y-99654368D01*
X174679861Y-99652203D01*
X174673025Y-99651503D01*
X174673022Y-99651502D01*
X174627655Y-99646854D01*
X174575400Y-99641500D01*
X173224600Y-99641500D01*
X173221354Y-99641837D01*
X173221350Y-99641837D01*
X173125692Y-99651762D01*
X173125688Y-99651763D01*
X173118834Y-99652474D01*
X173112298Y-99654655D01*
X173112296Y-99654655D01*
X172980194Y-99698728D01*
X172951054Y-99708450D01*
X172800652Y-99801522D01*
X172795479Y-99806704D01*
X172779383Y-99822828D01*
X172717100Y-99856907D01*
X172690933Y-99859808D01*
X172596816Y-99860348D01*
X172528582Y-99840737D01*
X172488951Y-99800656D01*
X172473478Y-99775652D01*
X172348303Y-99650695D01*
X172197738Y-99557885D01*
X172117995Y-99531436D01*
X172036389Y-99504368D01*
X172036387Y-99504368D01*
X172029861Y-99502203D01*
X172023025Y-99501503D01*
X172023022Y-99501502D01*
X171979969Y-99497091D01*
X171925400Y-99491500D01*
X171842413Y-99491500D01*
X171774292Y-99471498D01*
X171727799Y-99417842D01*
X171716418Y-99364387D01*
X171718602Y-99117006D01*
X171722302Y-98698051D01*
X171742905Y-98630111D01*
X171796969Y-98584094D01*
X171867329Y-98574611D01*
X171931647Y-98604673D01*
X171937314Y-98609991D01*
X171969706Y-98642326D01*
X171976697Y-98649305D01*
X172127262Y-98742115D01*
X172207005Y-98768564D01*
X172288611Y-98795632D01*
X172288613Y-98795632D01*
X172295139Y-98797797D01*
X172301975Y-98798497D01*
X172301978Y-98798498D01*
X172345031Y-98802909D01*
X172399600Y-98808500D01*
X172981312Y-98808500D01*
X173020978Y-98814907D01*
X173120139Y-98847797D01*
X173126975Y-98848497D01*
X173126978Y-98848498D01*
X173170031Y-98852909D01*
X173224600Y-98858500D01*
X174575400Y-98858500D01*
X174578646Y-98858163D01*
X174578650Y-98858163D01*
X174674308Y-98848238D01*
X174674312Y-98848237D01*
X174681166Y-98847526D01*
X174687702Y-98845345D01*
X174687704Y-98845345D01*
X174828120Y-98798498D01*
X174848946Y-98791550D01*
X174999348Y-98698478D01*
X175124305Y-98573303D01*
X175148224Y-98534500D01*
X175213275Y-98428968D01*
X175213276Y-98428966D01*
X175217115Y-98422738D01*
X175257562Y-98300794D01*
X175270632Y-98261389D01*
X175270632Y-98261387D01*
X175272797Y-98254861D01*
X175273787Y-98245205D01*
X175283172Y-98153598D01*
X175283500Y-98150400D01*
X175283500Y-97424600D01*
X175282302Y-97413051D01*
X175273238Y-97325692D01*
X175273237Y-97325688D01*
X175272526Y-97318834D01*
X175240883Y-97223987D01*
X175218868Y-97158002D01*
X175216550Y-97151054D01*
X175123478Y-97000652D01*
X174998303Y-96875695D01*
X174918384Y-96826432D01*
X174870891Y-96773660D01*
X174858500Y-96719172D01*
X174858500Y-95326501D01*
X174878502Y-95258380D01*
X174932158Y-95211887D01*
X175002432Y-95201783D01*
X175067012Y-95231277D01*
X175080311Y-95244670D01*
X175217735Y-95405572D01*
X175230031Y-95419969D01*
X175410584Y-95574176D01*
X175414792Y-95576755D01*
X175414798Y-95576759D01*
X175600462Y-95690534D01*
X175613037Y-95698240D01*
X175617607Y-95700133D01*
X175617611Y-95700135D01*
X175827833Y-95787211D01*
X175832406Y-95789105D01*
X175912609Y-95808360D01*
X176058476Y-95843380D01*
X176058482Y-95843381D01*
X176063289Y-95844535D01*
X176300000Y-95863165D01*
X176536711Y-95844535D01*
X176541518Y-95843381D01*
X176541524Y-95843380D01*
X176641707Y-95819328D01*
X176712615Y-95822875D01*
X176770349Y-95864195D01*
X176796579Y-95930169D01*
X176782976Y-95999850D01*
X176776181Y-96010849D01*
X176776230Y-96010879D01*
X176654795Y-96209042D01*
X176650313Y-96217837D01*
X176563266Y-96427988D01*
X176560217Y-96437373D01*
X176507115Y-96658554D01*
X176505572Y-96668301D01*
X176487725Y-96895070D01*
X176487725Y-96904930D01*
X176505572Y-97131699D01*
X176507115Y-97141446D01*
X176560217Y-97362627D01*
X176563266Y-97372012D01*
X176650313Y-97582163D01*
X176654795Y-97590958D01*
X176757432Y-97758445D01*
X176767890Y-97767907D01*
X176776666Y-97764124D01*
X177910905Y-96629885D01*
X177973217Y-96595859D01*
X178044032Y-96600924D01*
X178089095Y-96629885D01*
X178270115Y-96810905D01*
X178304141Y-96873217D01*
X178299076Y-96944032D01*
X178270115Y-96989095D01*
X177138920Y-98120290D01*
X177132160Y-98132670D01*
X177137887Y-98140320D01*
X177309042Y-98245205D01*
X177317837Y-98249687D01*
X177527988Y-98336734D01*
X177537378Y-98339785D01*
X177545417Y-98341715D01*
X177606985Y-98377068D01*
X177639666Y-98440095D01*
X177642000Y-98464233D01*
X177642000Y-98827885D01*
X177646475Y-98843124D01*
X177647865Y-98844329D01*
X177655548Y-98846000D01*
X178452885Y-98846000D01*
X178468124Y-98841525D01*
X178469329Y-98840135D01*
X178471000Y-98832452D01*
X178471000Y-97778000D01*
X178491002Y-97709879D01*
X178544658Y-97663386D01*
X178597000Y-97652000D01*
X178853000Y-97652000D01*
X178921121Y-97672002D01*
X178967614Y-97725658D01*
X178979000Y-97778000D01*
X178979000Y-98827885D01*
X178983475Y-98843124D01*
X178984865Y-98844329D01*
X178992548Y-98846000D01*
X179789884Y-98846000D01*
X179805123Y-98841525D01*
X179806328Y-98840135D01*
X179807999Y-98832452D01*
X179807999Y-98402905D01*
X179807662Y-98396386D01*
X179797743Y-98300794D01*
X179794851Y-98287400D01*
X179743412Y-98133216D01*
X179737239Y-98120038D01*
X179651937Y-97982193D01*
X179642901Y-97970792D01*
X179528171Y-97856261D01*
X179516760Y-97847249D01*
X179385225Y-97766170D01*
X179337732Y-97713398D01*
X179326308Y-97643326D01*
X179343082Y-97595432D01*
X179342958Y-97595369D01*
X179343426Y-97594451D01*
X179343907Y-97593077D01*
X179345205Y-97590958D01*
X179349688Y-97582161D01*
X179436734Y-97372012D01*
X179439783Y-97362627D01*
X179492885Y-97141446D01*
X179494428Y-97131699D01*
X179512275Y-96904930D01*
X179512275Y-96895070D01*
X179496103Y-96689578D01*
X179510699Y-96620097D01*
X179560542Y-96569538D01*
X179629807Y-96553952D01*
X179696502Y-96578287D01*
X179710810Y-96590597D01*
X179954595Y-96834382D01*
X179988621Y-96896694D01*
X179991500Y-96923477D01*
X179991500Y-97948134D01*
X179998255Y-98010316D01*
X180049385Y-98146705D01*
X180136739Y-98263261D01*
X180253295Y-98350615D01*
X180389684Y-98401745D01*
X180451866Y-98408500D01*
X180465500Y-98408500D01*
X180533621Y-98428502D01*
X180580114Y-98482158D01*
X180591500Y-98534500D01*
X180591500Y-98830076D01*
X180571498Y-98898197D01*
X180554595Y-98919171D01*
X180023095Y-99450671D01*
X179960783Y-99484697D01*
X179889968Y-99479632D01*
X179833132Y-99437085D01*
X179815158Y-99388895D01*
X179813104Y-99389498D01*
X179803525Y-99356876D01*
X179802135Y-99355671D01*
X179794452Y-99354000D01*
X178997115Y-99354000D01*
X178981876Y-99358475D01*
X178980671Y-99359865D01*
X178979000Y-99367548D01*
X178979000Y-100489884D01*
X178982198Y-100500775D01*
X178982198Y-100571771D01*
X178972347Y-100595812D01*
X178964438Y-100610563D01*
X178906613Y-100799698D01*
X178905990Y-100805833D01*
X178887900Y-100983924D01*
X178886626Y-100996462D01*
X178905239Y-101193362D01*
X178961741Y-101382896D01*
X179053982Y-101557846D01*
X179057858Y-101562632D01*
X179057859Y-101562634D01*
X179174568Y-101706757D01*
X179178447Y-101711547D01*
X179330396Y-101838146D01*
X179504041Y-101932822D01*
X179598404Y-101962393D01*
X179686886Y-101990122D01*
X179686889Y-101990123D01*
X179692768Y-101991965D01*
X179698891Y-101992630D01*
X179698895Y-101992631D01*
X179883263Y-102012659D01*
X179883267Y-102012659D01*
X179889388Y-102013324D01*
X180086413Y-101996087D01*
X180092330Y-101994368D01*
X180092335Y-101994367D01*
X180223064Y-101956386D01*
X180276336Y-101940909D01*
X180451926Y-101849892D01*
X180522188Y-101793803D01*
X180570223Y-101755458D01*
X180570230Y-101755451D01*
X180572973Y-101753262D01*
X181431407Y-100894828D01*
X181493717Y-100860804D01*
X181564532Y-100865868D01*
X181621368Y-100908415D01*
X181646179Y-100974935D01*
X181646500Y-100983924D01*
X181646500Y-102340520D01*
X181642911Y-102367781D01*
X181643085Y-102367811D01*
X181642324Y-102372238D01*
X181642207Y-102373129D01*
X181642107Y-102373501D01*
X181642105Y-102373514D01*
X181640612Y-102379085D01*
X181634500Y-102456742D01*
X181634500Y-103343258D01*
X181640612Y-103420915D01*
X181689006Y-103601524D01*
X181773893Y-103768125D01*
X181891564Y-103913436D01*
X182036875Y-104031107D01*
X182203476Y-104115994D01*
X182209849Y-104117702D01*
X182209850Y-104117702D01*
X182378508Y-104162894D01*
X182378512Y-104162895D01*
X182384085Y-104164388D01*
X182389841Y-104164841D01*
X182459286Y-104170307D01*
X182459294Y-104170307D01*
X182461742Y-104170500D01*
X183348258Y-104170500D01*
X183350706Y-104170307D01*
X183350714Y-104170307D01*
X183420159Y-104164841D01*
X183425915Y-104164388D01*
X183431488Y-104162895D01*
X183431492Y-104162894D01*
X183600150Y-104117702D01*
X183600151Y-104117702D01*
X183606524Y-104115994D01*
X183773125Y-104031107D01*
X183918436Y-103913436D01*
X184036107Y-103768125D01*
X184120994Y-103601524D01*
X184169388Y-103420915D01*
X184175500Y-103343258D01*
X184175500Y-102456742D01*
X184169388Y-102379085D01*
X184167895Y-102373514D01*
X184167893Y-102373501D01*
X184167793Y-102373129D01*
X184167676Y-102372238D01*
X184166915Y-102367811D01*
X184167089Y-102367781D01*
X184163500Y-102340520D01*
X184163500Y-98096395D01*
X184164578Y-98079948D01*
X184166746Y-98063483D01*
X184166746Y-98063479D01*
X184167479Y-98057913D01*
X184163640Y-97976510D01*
X184163500Y-97970575D01*
X184163500Y-97948001D01*
X184161181Y-97922013D01*
X184160822Y-97916750D01*
X184157160Y-97839112D01*
X184156896Y-97833511D01*
X184155645Y-97828048D01*
X184155644Y-97828042D01*
X184152893Y-97816032D01*
X184150211Y-97799099D01*
X184149116Y-97786832D01*
X184148617Y-97781238D01*
X184142382Y-97758445D01*
X184133412Y-97725658D01*
X184126624Y-97700848D01*
X184125341Y-97695739D01*
X184117931Y-97663386D01*
X184106742Y-97614530D01*
X184099706Y-97598033D01*
X184094073Y-97581858D01*
X184090818Y-97569961D01*
X184090817Y-97569957D01*
X184089337Y-97564549D01*
X184053461Y-97489333D01*
X184051290Y-97484524D01*
X184020804Y-97413051D01*
X184020804Y-97413050D01*
X184018603Y-97407891D01*
X184008749Y-97392890D01*
X184000343Y-97377970D01*
X183997502Y-97372012D01*
X183992622Y-97361782D01*
X183989354Y-97357234D01*
X183989351Y-97357229D01*
X183943998Y-97294114D01*
X183941009Y-97289765D01*
X183895265Y-97220125D01*
X183876747Y-97199341D01*
X183868498Y-97189045D01*
X183864804Y-97183904D01*
X183861529Y-97179346D01*
X183784777Y-97104968D01*
X183783367Y-97103579D01*
X183045405Y-96365617D01*
X183011379Y-96303305D01*
X183008500Y-96276522D01*
X183008500Y-95851866D01*
X183001745Y-95789684D01*
X182972780Y-95712420D01*
X182967597Y-95641612D01*
X183001518Y-95579243D01*
X183056695Y-95549110D01*
X183056166Y-95547526D01*
X183216998Y-95493868D01*
X183223946Y-95491550D01*
X183374348Y-95398478D01*
X183499305Y-95273303D01*
X183503146Y-95267072D01*
X183588275Y-95128968D01*
X183588276Y-95128966D01*
X183592115Y-95122738D01*
X183647797Y-94954861D01*
X183658500Y-94850400D01*
X183658500Y-92920879D01*
X183678502Y-92852758D01*
X183732158Y-92806265D01*
X183744623Y-92801356D01*
X183841993Y-92768870D01*
X183841995Y-92768869D01*
X183848946Y-92766550D01*
X183999348Y-92673478D01*
X184124305Y-92548303D01*
X184154713Y-92498972D01*
X184213275Y-92403968D01*
X184213276Y-92403966D01*
X184217115Y-92397738D01*
X184272797Y-92229861D01*
X184283500Y-92125400D01*
X184283500Y-91399600D01*
X184279723Y-91363199D01*
X184273238Y-91300692D01*
X184273237Y-91300688D01*
X184272526Y-91293834D01*
X184216550Y-91126054D01*
X184123478Y-90975652D01*
X183998303Y-90850695D01*
X183945139Y-90817924D01*
X183853968Y-90761725D01*
X183853966Y-90761724D01*
X183847738Y-90757885D01*
X183767995Y-90731436D01*
X183686389Y-90704368D01*
X183686387Y-90704368D01*
X183679861Y-90702203D01*
X183673025Y-90701503D01*
X183673022Y-90701502D01*
X183629969Y-90697091D01*
X183575400Y-90691500D01*
X182224600Y-90691500D01*
X182221354Y-90691837D01*
X182221350Y-90691837D01*
X182125692Y-90701762D01*
X182125688Y-90701763D01*
X182118834Y-90702474D01*
X182112298Y-90704655D01*
X182112296Y-90704655D01*
X181980194Y-90748728D01*
X181951054Y-90758450D01*
X181800652Y-90851522D01*
X181675695Y-90976697D01*
X181671855Y-90982927D01*
X181671854Y-90982928D01*
X181622319Y-91063289D01*
X181582885Y-91127262D01*
X181580581Y-91134209D01*
X181535381Y-91270484D01*
X181527203Y-91295139D01*
X181516500Y-91399600D01*
X181516500Y-92125400D01*
X181527474Y-92231166D01*
X181537126Y-92260097D01*
X181539712Y-92331043D01*
X181537199Y-92339629D01*
X181502203Y-92445139D01*
X181491500Y-92549600D01*
X181491500Y-94507522D01*
X181471498Y-94575643D01*
X181417842Y-94622136D01*
X181347568Y-94632240D01*
X181282988Y-94602746D01*
X181276405Y-94596617D01*
X180920405Y-94240617D01*
X180886379Y-94178305D01*
X180883500Y-94151522D01*
X180883500Y-88456051D01*
X180903502Y-88387930D01*
X180957158Y-88341437D01*
X181027432Y-88331333D01*
X181092012Y-88360827D01*
X181120752Y-88396899D01*
X181146731Y-88445760D01*
X181147343Y-88446926D01*
X181163381Y-88477866D01*
X181190108Y-88529426D01*
X181193431Y-88533589D01*
X181195934Y-88538296D01*
X181254755Y-88610418D01*
X181255446Y-88611274D01*
X181286738Y-88650473D01*
X181289242Y-88652977D01*
X181289884Y-88653695D01*
X181293585Y-88658028D01*
X181320935Y-88691562D01*
X181325682Y-88695489D01*
X181325684Y-88695491D01*
X181356262Y-88720787D01*
X181365042Y-88728777D01*
X181479595Y-88843330D01*
X181513621Y-88905642D01*
X181516500Y-88932425D01*
X181516500Y-89200400D01*
X181516837Y-89203646D01*
X181516837Y-89203650D01*
X181519900Y-89233166D01*
X181527474Y-89306166D01*
X181529655Y-89312702D01*
X181529655Y-89312704D01*
X181552447Y-89381018D01*
X181583450Y-89473946D01*
X181676522Y-89624348D01*
X181801697Y-89749305D01*
X181807927Y-89753145D01*
X181807928Y-89753146D01*
X181945090Y-89837694D01*
X181952262Y-89842115D01*
X182032005Y-89868564D01*
X182113611Y-89895632D01*
X182113613Y-89895632D01*
X182120139Y-89897797D01*
X182126975Y-89898497D01*
X182126978Y-89898498D01*
X182170031Y-89902909D01*
X182224600Y-89908500D01*
X183575400Y-89908500D01*
X183578646Y-89908163D01*
X183578650Y-89908163D01*
X183674308Y-89898238D01*
X183674312Y-89898237D01*
X183681166Y-89897526D01*
X183687702Y-89895345D01*
X183687704Y-89895345D01*
X183819806Y-89851272D01*
X183848946Y-89841550D01*
X183999348Y-89748478D01*
X184124305Y-89623303D01*
X184217115Y-89472738D01*
X184264692Y-89329297D01*
X184270632Y-89311389D01*
X184270632Y-89311387D01*
X184272797Y-89304861D01*
X184273843Y-89294659D01*
X184283172Y-89203598D01*
X184283500Y-89200400D01*
X184283500Y-88474600D01*
X184283163Y-88471350D01*
X184273238Y-88375692D01*
X184273237Y-88375688D01*
X184272526Y-88368834D01*
X184216550Y-88201054D01*
X184123478Y-88050652D01*
X183998303Y-87925695D01*
X183847738Y-87832885D01*
X183764041Y-87805124D01*
X183686389Y-87779368D01*
X183686387Y-87779368D01*
X183679861Y-87777203D01*
X183673025Y-87776503D01*
X183673022Y-87776502D01*
X183629969Y-87772091D01*
X183575400Y-87766500D01*
X183348598Y-87766500D01*
X183280477Y-87746498D01*
X183233984Y-87692842D01*
X183223880Y-87622568D01*
X183244510Y-87569495D01*
X183311774Y-87470891D01*
X183311775Y-87470890D01*
X183314686Y-87466622D01*
X183415837Y-87248710D01*
X183480040Y-87017202D01*
X183495500Y-86872540D01*
X183500644Y-86824407D01*
X183500644Y-86824399D01*
X183501000Y-86821072D01*
X183501000Y-86586598D01*
X183486322Y-86408063D01*
X183427794Y-86175056D01*
X183331997Y-85954737D01*
X183201502Y-85753023D01*
X183198028Y-85749205D01*
X183198021Y-85749196D01*
X183081306Y-85620928D01*
X183050254Y-85557083D01*
X183048500Y-85536129D01*
X183048500Y-85101850D01*
X183049237Y-85088242D01*
X183052659Y-85056739D01*
X183053325Y-85050612D01*
X183048947Y-85000570D01*
X183048621Y-84995788D01*
X183048500Y-84993310D01*
X183048500Y-84990231D01*
X183048201Y-84987177D01*
X183048200Y-84987166D01*
X183044313Y-84947529D01*
X183044191Y-84946215D01*
X183036623Y-84859718D01*
X183036087Y-84853587D01*
X183034600Y-84848468D01*
X183034080Y-84843167D01*
X183007209Y-84754166D01*
X183006874Y-84753033D01*
X182982630Y-84669586D01*
X182982628Y-84669582D01*
X182980909Y-84663664D01*
X182978456Y-84658932D01*
X182976916Y-84653831D01*
X182939382Y-84583238D01*
X182933269Y-84571740D01*
X182932657Y-84570574D01*
X182892729Y-84493547D01*
X182889892Y-84488074D01*
X182886569Y-84483911D01*
X182884066Y-84479204D01*
X182872040Y-84464458D01*
X182825261Y-84407102D01*
X182824433Y-84406075D01*
X182795469Y-84369792D01*
X182795464Y-84369787D01*
X182793262Y-84367028D01*
X182790761Y-84364527D01*
X182790119Y-84363809D01*
X182786406Y-84359461D01*
X182778642Y-84349941D01*
X182759065Y-84325938D01*
X182754323Y-84322015D01*
X182754321Y-84322013D01*
X182723727Y-84296703D01*
X182714947Y-84288713D01*
X182306855Y-83880621D01*
X182297753Y-83870478D01*
X182277897Y-83845782D01*
X182274032Y-83840975D01*
X182235578Y-83808708D01*
X182231931Y-83805528D01*
X182230119Y-83803885D01*
X182227925Y-83801691D01*
X182194651Y-83774358D01*
X182193853Y-83773696D01*
X182122526Y-83713846D01*
X182117856Y-83711278D01*
X182113739Y-83707897D01*
X182031914Y-83664023D01*
X182030755Y-83663394D01*
X181954619Y-83621538D01*
X181954611Y-83621535D01*
X181949213Y-83618567D01*
X181944131Y-83616955D01*
X181939437Y-83614438D01*
X181850469Y-83587238D01*
X181849441Y-83586918D01*
X181760694Y-83558765D01*
X181755398Y-83558171D01*
X181750302Y-83556613D01*
X181657743Y-83547210D01*
X181656607Y-83547089D01*
X181622992Y-83543319D01*
X181610270Y-83541892D01*
X181610266Y-83541892D01*
X181606773Y-83541500D01*
X181603246Y-83541500D01*
X181602261Y-83541445D01*
X181596581Y-83540998D01*
X181567175Y-83538011D01*
X181559663Y-83537248D01*
X181559661Y-83537248D01*
X181553538Y-83536626D01*
X181511259Y-83540623D01*
X181507891Y-83540941D01*
X181496033Y-83541500D01*
X177611843Y-83541500D01*
X177598236Y-83540763D01*
X177566738Y-83537341D01*
X177566733Y-83537341D01*
X177560612Y-83536676D01*
X177534362Y-83538973D01*
X177510612Y-83541050D01*
X177505786Y-83541379D01*
X177503314Y-83541500D01*
X177500231Y-83541500D01*
X177488262Y-83542674D01*
X177457494Y-83545690D01*
X177456181Y-83545812D01*
X177411916Y-83549685D01*
X177363587Y-83553913D01*
X177358468Y-83555400D01*
X177353167Y-83555920D01*
X177264166Y-83582791D01*
X177263033Y-83583126D01*
X177179586Y-83607370D01*
X177179582Y-83607372D01*
X177173664Y-83609091D01*
X177168932Y-83611544D01*
X177163831Y-83613084D01*
X177158388Y-83615978D01*
X177081740Y-83656731D01*
X177080574Y-83657343D01*
X177003547Y-83697271D01*
X176998074Y-83700108D01*
X176993911Y-83703431D01*
X176989204Y-83705934D01*
X176917082Y-83764755D01*
X176916226Y-83765446D01*
X176877027Y-83796738D01*
X176874523Y-83799242D01*
X176873805Y-83799884D01*
X176869472Y-83803585D01*
X176835938Y-83830935D01*
X176823656Y-83845782D01*
X176806712Y-83866264D01*
X176798721Y-83875045D01*
X176290621Y-84383145D01*
X176280478Y-84392247D01*
X176250975Y-84415968D01*
X176247008Y-84420696D01*
X176218709Y-84454421D01*
X176215528Y-84458069D01*
X176213885Y-84459881D01*
X176211691Y-84462075D01*
X176184358Y-84495349D01*
X176183696Y-84496147D01*
X176123846Y-84567474D01*
X176121278Y-84572144D01*
X176117897Y-84576261D01*
X176114156Y-84583238D01*
X176074023Y-84658086D01*
X176073394Y-84659245D01*
X176031538Y-84735381D01*
X176031535Y-84735389D01*
X176028567Y-84740787D01*
X176026955Y-84745869D01*
X176024438Y-84750563D01*
X175997238Y-84839531D01*
X175996918Y-84840559D01*
X175968765Y-84929306D01*
X175968171Y-84934602D01*
X175966613Y-84939698D01*
X175959229Y-85012393D01*
X175957218Y-85032187D01*
X175957089Y-85033393D01*
X175951500Y-85083227D01*
X175951500Y-85086754D01*
X175951445Y-85087739D01*
X175950999Y-85093416D01*
X175950488Y-85098440D01*
X175923703Y-85164188D01*
X175869364Y-85203684D01*
X175800434Y-85229525D01*
X175760795Y-85244385D01*
X175644239Y-85331739D01*
X175556885Y-85448295D01*
X175505755Y-85584684D01*
X175499000Y-85646866D01*
X175499000Y-87743134D01*
X175505755Y-87805316D01*
X175556885Y-87941705D01*
X175562271Y-87948891D01*
X175616326Y-88021017D01*
X175641174Y-88087523D01*
X175641500Y-88096582D01*
X175641500Y-90170118D01*
X175621498Y-90238239D01*
X175611312Y-90251948D01*
X175533820Y-90342679D01*
X175474371Y-90381487D01*
X175403376Y-90381995D01*
X175343378Y-90344039D01*
X175320028Y-90305078D01*
X175303767Y-90261703D01*
X175300615Y-90253295D01*
X175213261Y-90136739D01*
X175096705Y-90049385D01*
X174960316Y-89998255D01*
X174898134Y-89991500D01*
X173301866Y-89991500D01*
X173239684Y-89998255D01*
X173103295Y-90049385D01*
X173042459Y-90094979D01*
X173001842Y-90125420D01*
X172935336Y-90150268D01*
X172865953Y-90135215D01*
X172815723Y-90085041D01*
X172800593Y-90015675D01*
X172825367Y-89949141D01*
X172837182Y-89935499D01*
X173288911Y-89483770D01*
X173303323Y-89471384D01*
X173314918Y-89462851D01*
X173314923Y-89462846D01*
X173320818Y-89458508D01*
X173325557Y-89452930D01*
X173325560Y-89452927D01*
X173355035Y-89418232D01*
X173361965Y-89410716D01*
X173367660Y-89405021D01*
X173385281Y-89382749D01*
X173388072Y-89379345D01*
X173430591Y-89329297D01*
X173430592Y-89329295D01*
X173435333Y-89323715D01*
X173438661Y-89317199D01*
X173442028Y-89312150D01*
X173445195Y-89307021D01*
X173449734Y-89301284D01*
X173480655Y-89235125D01*
X173482561Y-89231225D01*
X173512443Y-89172705D01*
X173515769Y-89166192D01*
X173516321Y-89163936D01*
X173557585Y-89108703D01*
X173624082Y-89083830D01*
X173633190Y-89083500D01*
X173648134Y-89083500D01*
X173710316Y-89076745D01*
X173846705Y-89025615D01*
X173963261Y-88938261D01*
X174050615Y-88821705D01*
X174101745Y-88685316D01*
X174108500Y-88623134D01*
X174108500Y-86926866D01*
X174101745Y-86864684D01*
X174050615Y-86728295D01*
X173963261Y-86611739D01*
X173846705Y-86524385D01*
X173710316Y-86473255D01*
X173699526Y-86472083D01*
X173697394Y-86471197D01*
X173694778Y-86470575D01*
X173694879Y-86470152D01*
X173633965Y-86444845D01*
X173593537Y-86386483D01*
X173591078Y-86315529D01*
X173627371Y-86254510D01*
X173636031Y-86247511D01*
X173639793Y-86244354D01*
X173644300Y-86241198D01*
X173806198Y-86079300D01*
X173937523Y-85891749D01*
X173939846Y-85886767D01*
X173939849Y-85886762D01*
X174031961Y-85689225D01*
X174031961Y-85689224D01*
X174034284Y-85684243D01*
X174045210Y-85643469D01*
X174092119Y-85468402D01*
X174092119Y-85468400D01*
X174093543Y-85463087D01*
X174113498Y-85235000D01*
X174093543Y-85006913D01*
X174077631Y-84947529D01*
X174035707Y-84791067D01*
X174035706Y-84791065D01*
X174034284Y-84785757D01*
X174019614Y-84754296D01*
X173939849Y-84583238D01*
X173939846Y-84583233D01*
X173937523Y-84578251D01*
X173857844Y-84464458D01*
X173809357Y-84395211D01*
X173809355Y-84395208D01*
X173806198Y-84390700D01*
X173644300Y-84228802D01*
X173639792Y-84225645D01*
X173639789Y-84225643D01*
X173561611Y-84170902D01*
X173456749Y-84097477D01*
X173451767Y-84095154D01*
X173451762Y-84095151D01*
X173254225Y-84003039D01*
X173254224Y-84003039D01*
X173249243Y-84000716D01*
X173243935Y-83999294D01*
X173243933Y-83999293D01*
X173033402Y-83942881D01*
X173033400Y-83942881D01*
X173028087Y-83941457D01*
X172800000Y-83921502D01*
X172794525Y-83921981D01*
X172794503Y-83921981D01*
X172726382Y-83901979D01*
X172679889Y-83848323D01*
X172669756Y-83778257D01*
X172976852Y-81616776D01*
X173006237Y-81552146D01*
X173065899Y-81513663D01*
X173101599Y-81508500D01*
X184865500Y-81508500D01*
X184933621Y-81528502D01*
G37*
G04 #@! TD.AperFunction*
G04 #@! TA.AperFunction,Conductor*
G36*
X172326121Y-91016002D02*
G01*
X172372614Y-91069658D01*
X172384000Y-91122000D01*
X172384000Y-92466203D01*
X172387973Y-92479734D01*
X172396522Y-92480963D01*
X172556595Y-92438072D01*
X172566887Y-92434326D01*
X172756416Y-92345947D01*
X172765917Y-92340461D01*
X172799600Y-92316876D01*
X172866874Y-92294188D01*
X172935734Y-92311473D01*
X172972695Y-92344523D01*
X172981356Y-92356079D01*
X172986739Y-92363261D01*
X173103295Y-92450615D01*
X173111703Y-92453767D01*
X173232286Y-92498972D01*
X173232289Y-92498973D01*
X173239684Y-92501745D01*
X173245453Y-92502372D01*
X173306291Y-92537126D01*
X173339113Y-92600081D01*
X173341500Y-92624493D01*
X173341500Y-93095781D01*
X173321498Y-93163902D01*
X173267842Y-93210395D01*
X173255382Y-93215303D01*
X173126054Y-93258450D01*
X172975652Y-93351522D01*
X172970479Y-93356704D01*
X172888862Y-93438463D01*
X172826579Y-93472542D01*
X172755759Y-93467539D01*
X172710671Y-93438618D01*
X172628171Y-93356261D01*
X172616760Y-93347249D01*
X172478757Y-93262184D01*
X172465576Y-93256037D01*
X172311290Y-93204862D01*
X172297914Y-93201995D01*
X172203562Y-93192328D01*
X172197145Y-93192000D01*
X172159615Y-93192000D01*
X172144376Y-93196475D01*
X172143171Y-93197865D01*
X172141500Y-93205548D01*
X172141500Y-95589884D01*
X172145975Y-95605123D01*
X172147365Y-95606328D01*
X172155048Y-95607999D01*
X172197095Y-95607999D01*
X172203614Y-95607662D01*
X172299206Y-95597743D01*
X172312600Y-95594851D01*
X172466784Y-95543412D01*
X172479962Y-95537239D01*
X172617807Y-95451937D01*
X172629208Y-95442901D01*
X172710430Y-95361538D01*
X172772713Y-95327459D01*
X172843533Y-95332462D01*
X172888620Y-95361383D01*
X172971512Y-95444130D01*
X172971517Y-95444134D01*
X172976697Y-95449305D01*
X172982927Y-95453145D01*
X172982928Y-95453146D01*
X173119352Y-95537239D01*
X173127262Y-95542115D01*
X173231711Y-95576759D01*
X173255167Y-95584539D01*
X173313527Y-95624969D01*
X173340764Y-95690534D01*
X173341500Y-95704132D01*
X173341500Y-95871510D01*
X173321498Y-95939631D01*
X173267842Y-95986124D01*
X173202658Y-95996854D01*
X173153601Y-95991828D01*
X173153602Y-95991828D01*
X173150400Y-95991500D01*
X172399600Y-95991500D01*
X172396354Y-95991837D01*
X172396350Y-95991837D01*
X172300692Y-96001762D01*
X172300688Y-96001763D01*
X172293834Y-96002474D01*
X172287298Y-96004655D01*
X172287296Y-96004655D01*
X172268641Y-96010879D01*
X172126054Y-96058450D01*
X171975652Y-96151522D01*
X171970479Y-96156704D01*
X171970474Y-96156708D01*
X171960621Y-96166578D01*
X171898339Y-96200657D01*
X171827519Y-96195654D01*
X171770646Y-96153156D01*
X171745778Y-96086657D01*
X171745454Y-96076447D01*
X171745634Y-96056132D01*
X171774334Y-92806265D01*
X171776125Y-92603514D01*
X171796728Y-92535573D01*
X171850792Y-92489556D01*
X171863330Y-92486730D01*
X171871898Y-92480931D01*
X171876000Y-92471352D01*
X171876000Y-91122000D01*
X171896002Y-91053879D01*
X171949658Y-91007386D01*
X172002000Y-90996000D01*
X172258000Y-90996000D01*
X172326121Y-91016002D01*
G37*
G04 #@! TD.AperFunction*
G04 #@! TD*
M02*
