%FSLAX45Y45*%
G04 Gerber Fmt 4.5, Leading zero omitted, Abs format (unit mm)*
G04 Created by KiCad (PCBNEW (6.0.5)) date 2022-05-09 22:53:39*
%MOMM*%
%LPD*%
G01*
G04 APERTURE LIST*
%TA.AperFunction,Profile*%
%ADD10C,0.100000*%
%TD*%
%ADD11C,0.200000*%
%ADD12C,0.040000*%
%ADD13C,0.070000*%
%ADD14C,0.075000*%
%ADD15C,0.080000*%
%ADD16C,0.100000*%
%ADD17C,0.110000*%
%ADD18C,0.120000*%
%ADD19C,0.130000*%
%ADD20C,0.160000*%
G04 APERTURE END LIST*
D10*
X11950000Y-8100000D02*
X18550000Y-8100000D01*
X18550000Y-8100000D02*
X18550000Y-12000000D01*
X18550000Y-12000000D02*
X11950000Y-12000000D01*
X11950000Y-12000000D02*
X11950000Y-8100000D01*
D11*
D12*
X13080000Y-10220000D02*
X13120000Y-10260000D01*
X13120000Y-10220000D02*
X13080000Y-10260000D01*
X14185000Y-10220000D02*
X14225000Y-10260000D01*
X14225000Y-10220000D02*
X14185000Y-10260000D01*
X14290000Y-8980000D02*
X14330000Y-9020000D01*
X14330000Y-8980000D02*
X14290000Y-9020000D01*
X15020000Y-10230000D02*
X15060000Y-10270000D01*
X15060000Y-10230000D02*
X15020000Y-10270000D01*
X15650000Y-8920000D02*
X15690000Y-8960000D01*
X15690000Y-8920000D02*
X15650000Y-8960000D01*
X15915000Y-9725000D02*
X15955000Y-9765000D01*
X15955000Y-9725000D02*
X15915000Y-9765000D01*
X16010000Y-10370000D02*
X16050000Y-10410000D01*
X16050000Y-10370000D02*
X16010000Y-10410000D01*
X16130000Y-10670000D02*
X16170000Y-10710000D01*
X16170000Y-10670000D02*
X16130000Y-10710000D01*
X16145000Y-9870000D02*
X16185000Y-9910000D01*
X16185000Y-9870000D02*
X16145000Y-9910000D01*
X16595000Y-10000000D02*
X16635000Y-10040000D01*
X16635000Y-10000000D02*
X16595000Y-10040000D01*
X16740000Y-10240000D02*
X16780000Y-10280000D01*
X16780000Y-10240000D02*
X16740000Y-10280000D01*
X16740001Y-10360000D02*
X16780001Y-10400000D01*
X16780001Y-10360000D02*
X16740001Y-10400000D01*
X17560000Y-10080000D02*
X17600000Y-10120000D01*
X17600000Y-10080000D02*
X17560000Y-10120000D01*
X17970000Y-10080000D02*
X18010000Y-10120000D01*
X18010000Y-10080000D02*
X17970000Y-10120000D01*
D13*
X14605000Y-9988000D02*
G75*
G03*
X14605000Y-9988000I-35000J0D01*
G01*
X14605000Y-10750000D02*
G75*
G03*
X14605000Y-10750000I-35000J0D01*
G01*
D14*
X17020000Y-9087500D02*
X17020000Y-9162500D01*
X16982500Y-9125000D02*
X17057500Y-9125000D01*
X17213000Y-9087500D02*
X17213000Y-9162500D01*
X17175500Y-9125000D02*
X17250500Y-9125000D01*
X17410000Y-9087500D02*
X17410000Y-9162500D01*
X17372500Y-9125000D02*
X17447500Y-9125000D01*
D15*
X12200284Y-11748284D02*
X12200284Y-11691715D01*
X12143715Y-11691715D01*
X12143715Y-11748284D01*
X12200284Y-11748284D01*
X12553284Y-9193285D02*
X12553284Y-9136716D01*
X12496715Y-9136716D01*
X12496715Y-9193285D01*
X12553284Y-9193285D01*
X12553284Y-9893285D02*
X12553284Y-9836716D01*
X12496715Y-9836716D01*
X12496715Y-9893285D01*
X12553284Y-9893285D01*
X12613284Y-11218284D02*
X12613284Y-11161716D01*
X12556715Y-11161716D01*
X12556715Y-11218284D01*
X12613284Y-11218284D01*
X12708284Y-11748284D02*
X12708284Y-11691715D01*
X12651715Y-11691715D01*
X12651715Y-11748284D01*
X12708284Y-11748284D01*
X13353284Y-9193285D02*
X13353284Y-9136716D01*
X13296715Y-9136716D01*
X13296715Y-9193285D01*
X13353284Y-9193285D01*
X13353284Y-9893285D02*
X13353284Y-9836716D01*
X13296715Y-9836716D01*
X13296715Y-9893285D01*
X13353284Y-9893285D01*
X13363284Y-11358284D02*
X13363284Y-11301715D01*
X13306715Y-11301715D01*
X13306715Y-11358284D01*
X13363284Y-11358284D01*
X14308284Y-11683284D02*
X14308284Y-11626715D01*
X14251715Y-11626715D01*
X14251715Y-11683284D01*
X14308284Y-11683284D01*
X14828284Y-10017285D02*
X14828284Y-9960716D01*
X14771715Y-9960716D01*
X14771715Y-10017285D01*
X14828284Y-10017285D01*
X14828284Y-10779285D02*
X14828284Y-10722716D01*
X14771715Y-10722716D01*
X14771715Y-10779285D01*
X14828284Y-10779285D01*
X15187284Y-9143285D02*
X15187284Y-9086716D01*
X15130715Y-9086716D01*
X15130715Y-9143285D01*
X15187284Y-9143285D01*
X15308284Y-11683284D02*
X15308284Y-11626715D01*
X15251715Y-11626715D01*
X15251715Y-11683284D01*
X15308284Y-11683284D01*
X15548284Y-9453285D02*
X15548284Y-9396716D01*
X15491715Y-9396716D01*
X15491715Y-9453285D01*
X15548284Y-9453285D01*
X15548284Y-9853285D02*
X15548284Y-9796716D01*
X15491715Y-9796716D01*
X15491715Y-9853285D01*
X15548284Y-9853285D01*
X15548284Y-10643285D02*
X15548284Y-10586716D01*
X15491715Y-10586716D01*
X15491715Y-10643285D01*
X15548284Y-10643285D01*
X15548284Y-11043285D02*
X15548284Y-10986716D01*
X15491715Y-10986716D01*
X15491715Y-11043285D01*
X15548284Y-11043285D01*
X15602773Y-11663284D02*
X15602773Y-11606715D01*
X15546204Y-11606715D01*
X15546204Y-11663284D01*
X15602773Y-11663284D01*
X15723284Y-8501285D02*
X15723284Y-8444716D01*
X15666715Y-8444716D01*
X15666715Y-8501285D01*
X15723284Y-8501285D01*
X15723284Y-8755285D02*
X15723284Y-8698716D01*
X15666715Y-8698716D01*
X15666715Y-8755285D01*
X15723284Y-8755285D01*
X15852773Y-11663284D02*
X15852773Y-11606715D01*
X15796204Y-11606715D01*
X15796204Y-11663284D01*
X15852773Y-11663284D01*
X15949284Y-9143285D02*
X15949284Y-9086716D01*
X15892715Y-9086716D01*
X15892715Y-9143285D01*
X15949284Y-9143285D01*
X16043284Y-8518285D02*
X16043284Y-8461716D01*
X15986715Y-8461716D01*
X15986715Y-8518285D01*
X16043284Y-8518285D01*
X16123284Y-11663284D02*
X16123284Y-11606715D01*
X16066715Y-11606715D01*
X16066715Y-11663284D01*
X16123284Y-11663284D01*
X16188284Y-8763796D02*
X16188284Y-8707227D01*
X16131715Y-8707227D01*
X16131715Y-8763796D01*
X16188284Y-8763796D01*
X16188284Y-9063796D02*
X16188284Y-9007227D01*
X16131715Y-9007227D01*
X16131715Y-9063796D01*
X16188284Y-9063796D01*
X16293284Y-8518285D02*
X16293284Y-8461716D01*
X16236715Y-8461716D01*
X16236715Y-8518285D01*
X16293284Y-8518285D01*
X16546284Y-8551785D02*
X16546284Y-8495216D01*
X16489715Y-8495216D01*
X16489715Y-8551785D01*
X16546284Y-8551785D01*
X16546284Y-8805785D02*
X16546284Y-8749216D01*
X16489715Y-8749216D01*
X16489715Y-8805785D01*
X16546284Y-8805785D01*
X17123285Y-11663284D02*
X17123285Y-11606715D01*
X17066716Y-11606715D01*
X17066716Y-11663284D01*
X17123285Y-11663284D01*
X17308285Y-8551785D02*
X17308285Y-8495216D01*
X17251716Y-8495216D01*
X17251716Y-8551785D01*
X17308285Y-8551785D01*
X17308285Y-8805785D02*
X17308285Y-8749216D01*
X17251716Y-8749216D01*
X17251716Y-8805785D01*
X17308285Y-8805785D01*
X17548285Y-10473285D02*
X17548285Y-10416716D01*
X17491716Y-10416716D01*
X17491716Y-10473285D01*
X17548285Y-10473285D01*
X17658285Y-9463285D02*
X17658285Y-9406716D01*
X17601716Y-9406716D01*
X17601716Y-9463285D01*
X17658285Y-9463285D01*
X17698285Y-9158285D02*
X17698285Y-9101716D01*
X17641716Y-9101716D01*
X17641716Y-9158285D01*
X17698285Y-9158285D01*
X17768285Y-11223284D02*
X17768285Y-11166716D01*
X17711716Y-11166716D01*
X17711716Y-11223284D01*
X17768285Y-11223284D01*
X17798785Y-10318285D02*
X17798785Y-10261716D01*
X17742216Y-10261716D01*
X17742216Y-10318285D01*
X17798785Y-10318285D01*
X17798785Y-10738285D02*
X17798785Y-10681716D01*
X17742216Y-10681716D01*
X17742216Y-10738285D01*
X17798785Y-10738285D01*
X18118285Y-11223284D02*
X18118285Y-11166716D01*
X18061716Y-11166716D01*
X18061716Y-11223284D01*
X18118285Y-11223284D01*
X18318785Y-10318285D02*
X18318785Y-10261716D01*
X18262216Y-10261716D01*
X18262216Y-10318285D01*
X18318785Y-10318285D01*
X18318785Y-10738285D02*
X18318785Y-10681716D01*
X18262216Y-10681716D01*
X18262216Y-10738285D01*
X18318785Y-10738285D01*
D16*
X17800000Y-9740000D02*
X17850000Y-9690000D01*
X17800000Y-9640000D01*
X17750000Y-9690000D01*
X17800000Y-9740000D01*
X18150000Y-9740000D02*
X18200000Y-9690000D01*
X18150000Y-9640000D01*
X18100000Y-9690000D01*
X18150000Y-9740000D01*
D17*
X14255000Y-9830000D02*
X14365000Y-9940000D01*
X14365000Y-9830000D02*
X14255000Y-9940000D01*
X14365000Y-9885000D02*
G75*
G03*
X14365000Y-9885000I-55000J0D01*
G01*
X14255000Y-10846000D02*
X14365000Y-10956000D01*
X14365000Y-10846000D02*
X14255000Y-10956000D01*
X14365000Y-10901000D02*
G75*
G03*
X14365000Y-10901000I-55000J0D01*
G01*
X15230000Y-9777500D02*
X15340000Y-9887500D01*
X15340000Y-9777500D02*
X15230000Y-9887500D01*
X15340000Y-9832500D02*
G75*
G03*
X15340000Y-9832500I-55000J0D01*
G01*
X15230000Y-11277500D02*
X15340000Y-11387500D01*
X15340000Y-11277500D02*
X15230000Y-11387500D01*
X15340000Y-11332500D02*
G75*
G03*
X15340000Y-11332500I-55000J0D01*
G01*
X17641000Y-8614500D02*
X17751000Y-8724500D01*
X17751000Y-8614500D02*
X17641000Y-8724500D01*
X17751000Y-8669500D02*
G75*
G03*
X17751000Y-8669500I-55000J0D01*
G01*
X17895000Y-8614500D02*
X18005000Y-8724500D01*
X18005000Y-8614500D02*
X17895000Y-8724500D01*
X18005000Y-8669500D02*
G75*
G03*
X18005000Y-8669500I-55000J0D01*
G01*
X18149000Y-8614500D02*
X18259000Y-8724500D01*
X18259000Y-8614500D02*
X18149000Y-8724500D01*
X18259000Y-8669500D02*
G75*
G03*
X18259000Y-8669500I-55000J0D01*
G01*
D18*
X12270000Y-10575000D02*
X12390000Y-10695000D01*
X12390000Y-10575000D02*
X12270000Y-10695000D01*
X12330000Y-10575000D02*
X12330000Y-10695000D01*
X12270000Y-10635000D02*
X12390000Y-10635000D01*
X13770000Y-10575000D02*
X13890000Y-10695000D01*
X13890000Y-10575000D02*
X13770000Y-10695000D01*
X13830000Y-10575000D02*
X13830000Y-10695000D01*
X13770000Y-10635000D02*
X13890000Y-10635000D01*
X14001522Y-8940000D02*
X14121522Y-9060000D01*
X14121522Y-8940000D02*
X14001522Y-9060000D01*
X14061522Y-8940000D02*
X14061522Y-9060000D01*
X14001522Y-9000000D02*
X14121522Y-9000000D01*
X14591000Y-8569500D02*
X14711000Y-8689500D01*
X14711000Y-8569500D02*
X14591000Y-8689500D01*
X14651000Y-8569500D02*
X14651000Y-8689500D01*
X14591000Y-8629500D02*
X14711000Y-8629500D01*
X14751522Y-8940000D02*
X14871522Y-9060000D01*
X14871522Y-8940000D02*
X14751522Y-9060000D01*
X14811522Y-8940000D02*
X14811522Y-9060000D01*
X14751522Y-9000000D02*
X14871522Y-9000000D01*
X14845000Y-8569500D02*
X14965000Y-8689500D01*
X14965000Y-8569500D02*
X14845000Y-8689500D01*
X14905000Y-8569500D02*
X14905000Y-8689500D01*
X14845000Y-8629500D02*
X14965000Y-8629500D01*
X15099000Y-8569500D02*
X15219000Y-8689500D01*
X15219000Y-8569500D02*
X15099000Y-8689500D01*
X15159000Y-8569500D02*
X15159000Y-8689500D01*
X15099000Y-8629500D02*
X15219000Y-8629500D01*
D19*
X12955000Y-11655000D02*
X13085000Y-11785000D01*
X13085000Y-11655000D02*
X12955000Y-11785000D01*
X13065962Y-11765962D02*
X13065962Y-11674038D01*
X12974038Y-11674038D01*
X12974038Y-11765962D01*
X13065962Y-11765962D01*
X13595000Y-11655000D02*
X13725000Y-11785000D01*
X13725000Y-11655000D02*
X13595000Y-11785000D01*
X13705962Y-11765962D02*
X13705962Y-11674038D01*
X13614038Y-11674038D01*
X13614038Y-11765962D01*
X13705962Y-11765962D01*
X17530000Y-11685000D02*
X17660000Y-11815000D01*
X17660000Y-11685000D02*
X17530000Y-11815000D01*
X17640962Y-11795962D02*
X17640962Y-11704038D01*
X17549038Y-11704038D01*
X17549038Y-11795962D01*
X17640962Y-11795962D01*
X18150000Y-11685000D02*
X18280000Y-11815000D01*
X18280000Y-11685000D02*
X18150000Y-11815000D01*
X18260962Y-11795962D02*
X18260962Y-11704038D01*
X18169038Y-11704038D01*
X18169038Y-11795962D01*
X18260962Y-11795962D01*
D20*
X12377500Y-8502500D02*
X12537500Y-8662500D01*
X12537500Y-8502500D02*
X12377500Y-8662500D01*
X12457500Y-8662500D02*
X12537500Y-8582500D01*
X12457500Y-8502500D01*
X12377500Y-8582500D01*
X12457500Y-8662500D01*
X12885500Y-8502500D02*
X13045500Y-8662500D01*
X13045500Y-8502500D02*
X12885500Y-8662500D01*
X12965500Y-8662500D02*
X13045500Y-8582500D01*
X12965500Y-8502500D01*
X12885500Y-8582500D01*
X12965500Y-8662500D01*
X13393500Y-8502500D02*
X13553500Y-8662500D01*
X13553500Y-8502500D02*
X13393500Y-8662500D01*
X13473500Y-8662500D02*
X13553500Y-8582500D01*
X13473500Y-8502500D01*
X13393500Y-8582500D01*
X13473500Y-8662500D01*
X13901500Y-8502500D02*
X14061500Y-8662500D01*
X14061500Y-8502500D02*
X13901500Y-8662500D01*
X13981500Y-8662500D02*
X14061500Y-8582500D01*
X13981500Y-8502500D01*
X13901500Y-8582500D01*
X13981500Y-8662500D01*
D11*
X12202619Y-12315476D02*
X12202619Y-12115476D01*
X12250238Y-12115476D01*
X12278809Y-12125000D01*
X12297857Y-12144048D01*
X12307381Y-12163095D01*
X12316905Y-12201190D01*
X12316905Y-12229762D01*
X12307381Y-12267857D01*
X12297857Y-12286905D01*
X12278809Y-12305952D01*
X12250238Y-12315476D01*
X12202619Y-12315476D01*
X12402619Y-12315476D02*
X12402619Y-12182143D01*
X12402619Y-12220238D02*
X12412143Y-12201190D01*
X12421667Y-12191667D01*
X12440714Y-12182143D01*
X12459762Y-12182143D01*
X12526428Y-12315476D02*
X12526428Y-12182143D01*
X12526428Y-12115476D02*
X12516905Y-12125000D01*
X12526428Y-12134524D01*
X12535952Y-12125000D01*
X12526428Y-12115476D01*
X12526428Y-12134524D01*
X12650238Y-12315476D02*
X12631190Y-12305952D01*
X12621667Y-12286905D01*
X12621667Y-12115476D01*
X12755000Y-12315476D02*
X12735952Y-12305952D01*
X12726428Y-12286905D01*
X12726428Y-12115476D01*
X12983571Y-12315476D02*
X12983571Y-12115476D01*
X13050238Y-12258333D01*
X13116905Y-12115476D01*
X13116905Y-12315476D01*
X13297857Y-12315476D02*
X13297857Y-12210714D01*
X13288333Y-12191667D01*
X13269286Y-12182143D01*
X13231190Y-12182143D01*
X13212143Y-12191667D01*
X13297857Y-12305952D02*
X13278809Y-12315476D01*
X13231190Y-12315476D01*
X13212143Y-12305952D01*
X13202619Y-12286905D01*
X13202619Y-12267857D01*
X13212143Y-12248809D01*
X13231190Y-12239286D01*
X13278809Y-12239286D01*
X13297857Y-12229762D01*
X13393095Y-12182143D02*
X13393095Y-12382143D01*
X13393095Y-12191667D02*
X13412143Y-12182143D01*
X13450238Y-12182143D01*
X13469286Y-12191667D01*
X13478809Y-12201190D01*
X13488333Y-12220238D01*
X13488333Y-12277381D01*
X13478809Y-12296428D01*
X13469286Y-12305952D01*
X13450238Y-12315476D01*
X13412143Y-12315476D01*
X13393095Y-12305952D01*
X13574048Y-12296428D02*
X13583571Y-12305952D01*
X13574048Y-12315476D01*
X13564524Y-12305952D01*
X13574048Y-12296428D01*
X13574048Y-12315476D01*
X13574048Y-12191667D02*
X13583571Y-12201190D01*
X13574048Y-12210714D01*
X13564524Y-12201190D01*
X13574048Y-12191667D01*
X13574048Y-12210714D01*
D12*
X11905000Y-12625000D02*
X11945000Y-12665000D01*
X11945000Y-12625000D02*
X11905000Y-12665000D01*
D11*
X12240714Y-12535476D02*
X12259762Y-12535476D01*
X12278809Y-12545000D01*
X12288333Y-12554524D01*
X12297857Y-12573571D01*
X12307381Y-12611667D01*
X12307381Y-12659286D01*
X12297857Y-12697381D01*
X12288333Y-12716428D01*
X12278809Y-12725952D01*
X12259762Y-12735476D01*
X12240714Y-12735476D01*
X12221667Y-12725952D01*
X12212143Y-12716428D01*
X12202619Y-12697381D01*
X12193095Y-12659286D01*
X12193095Y-12611667D01*
X12202619Y-12573571D01*
X12212143Y-12554524D01*
X12221667Y-12545000D01*
X12240714Y-12535476D01*
X12393095Y-12716428D02*
X12402619Y-12725952D01*
X12393095Y-12735476D01*
X12383571Y-12725952D01*
X12393095Y-12716428D01*
X12393095Y-12735476D01*
X12574048Y-12602143D02*
X12574048Y-12735476D01*
X12526428Y-12525952D02*
X12478809Y-12668809D01*
X12602619Y-12668809D01*
X12716905Y-12535476D02*
X12735952Y-12535476D01*
X12755000Y-12545000D01*
X12764524Y-12554524D01*
X12774048Y-12573571D01*
X12783571Y-12611667D01*
X12783571Y-12659286D01*
X12774048Y-12697381D01*
X12764524Y-12716428D01*
X12755000Y-12725952D01*
X12735952Y-12735476D01*
X12716905Y-12735476D01*
X12697857Y-12725952D01*
X12688333Y-12716428D01*
X12678809Y-12697381D01*
X12669286Y-12659286D01*
X12669286Y-12611667D01*
X12678809Y-12573571D01*
X12688333Y-12554524D01*
X12697857Y-12545000D01*
X12716905Y-12535476D01*
X12907381Y-12535476D02*
X12926428Y-12535476D01*
X12945476Y-12545000D01*
X12955000Y-12554524D01*
X12964524Y-12573571D01*
X12974048Y-12611667D01*
X12974048Y-12659286D01*
X12964524Y-12697381D01*
X12955000Y-12716428D01*
X12945476Y-12725952D01*
X12926428Y-12735476D01*
X12907381Y-12735476D01*
X12888333Y-12725952D01*
X12878809Y-12716428D01*
X12869286Y-12697381D01*
X12859762Y-12659286D01*
X12859762Y-12611667D01*
X12869286Y-12573571D01*
X12878809Y-12554524D01*
X12888333Y-12545000D01*
X12907381Y-12535476D01*
X13059762Y-12735476D02*
X13059762Y-12602143D01*
X13059762Y-12621190D02*
X13069286Y-12611667D01*
X13088333Y-12602143D01*
X13116905Y-12602143D01*
X13135952Y-12611667D01*
X13145476Y-12630714D01*
X13145476Y-12735476D01*
X13145476Y-12630714D02*
X13155000Y-12611667D01*
X13174048Y-12602143D01*
X13202619Y-12602143D01*
X13221667Y-12611667D01*
X13231190Y-12630714D01*
X13231190Y-12735476D01*
X13326428Y-12735476D02*
X13326428Y-12602143D01*
X13326428Y-12621190D02*
X13335952Y-12611667D01*
X13355000Y-12602143D01*
X13383571Y-12602143D01*
X13402619Y-12611667D01*
X13412143Y-12630714D01*
X13412143Y-12735476D01*
X13412143Y-12630714D02*
X13421667Y-12611667D01*
X13440714Y-12602143D01*
X13469286Y-12602143D01*
X13488333Y-12611667D01*
X13497857Y-12630714D01*
X13497857Y-12735476D01*
X13888333Y-12525952D02*
X13716905Y-12783095D01*
X14145476Y-12535476D02*
X14164524Y-12535476D01*
X14183571Y-12545000D01*
X14193095Y-12554524D01*
X14202619Y-12573571D01*
X14212143Y-12611667D01*
X14212143Y-12659286D01*
X14202619Y-12697381D01*
X14193095Y-12716428D01*
X14183571Y-12725952D01*
X14164524Y-12735476D01*
X14145476Y-12735476D01*
X14126428Y-12725952D01*
X14116905Y-12716428D01*
X14107381Y-12697381D01*
X14097857Y-12659286D01*
X14097857Y-12611667D01*
X14107381Y-12573571D01*
X14116905Y-12554524D01*
X14126428Y-12545000D01*
X14145476Y-12535476D01*
X14297857Y-12716428D02*
X14307381Y-12725952D01*
X14297857Y-12735476D01*
X14288333Y-12725952D01*
X14297857Y-12716428D01*
X14297857Y-12735476D01*
X14431190Y-12535476D02*
X14450238Y-12535476D01*
X14469286Y-12545000D01*
X14478809Y-12554524D01*
X14488333Y-12573571D01*
X14497857Y-12611667D01*
X14497857Y-12659286D01*
X14488333Y-12697381D01*
X14478809Y-12716428D01*
X14469286Y-12725952D01*
X14450238Y-12735476D01*
X14431190Y-12735476D01*
X14412143Y-12725952D01*
X14402619Y-12716428D01*
X14393095Y-12697381D01*
X14383571Y-12659286D01*
X14383571Y-12611667D01*
X14393095Y-12573571D01*
X14402619Y-12554524D01*
X14412143Y-12545000D01*
X14431190Y-12535476D01*
X14688333Y-12735476D02*
X14574048Y-12735476D01*
X14631190Y-12735476D02*
X14631190Y-12535476D01*
X14612143Y-12564048D01*
X14593095Y-12583095D01*
X14574048Y-12592619D01*
X14869286Y-12535476D02*
X14774048Y-12535476D01*
X14764524Y-12630714D01*
X14774048Y-12621190D01*
X14793095Y-12611667D01*
X14840714Y-12611667D01*
X14859762Y-12621190D01*
X14869286Y-12630714D01*
X14878809Y-12649762D01*
X14878809Y-12697381D01*
X14869286Y-12716428D01*
X14859762Y-12725952D01*
X14840714Y-12735476D01*
X14793095Y-12735476D01*
X14774048Y-12725952D01*
X14764524Y-12716428D01*
X14945476Y-12535476D02*
X15078809Y-12535476D01*
X14993095Y-12735476D01*
X15145476Y-12535476D02*
X15145476Y-12573571D01*
X15221667Y-12535476D02*
X15221667Y-12573571D01*
X15516905Y-12811667D02*
X15507381Y-12802143D01*
X15488333Y-12773571D01*
X15478809Y-12754524D01*
X15469286Y-12725952D01*
X15459762Y-12678333D01*
X15459762Y-12640238D01*
X15469286Y-12592619D01*
X15478809Y-12564048D01*
X15488333Y-12545000D01*
X15507381Y-12516428D01*
X15516905Y-12506905D01*
X15697857Y-12735476D02*
X15583571Y-12735476D01*
X15640714Y-12735476D02*
X15640714Y-12535476D01*
X15621667Y-12564048D01*
X15602619Y-12583095D01*
X15583571Y-12592619D01*
X15869286Y-12602143D02*
X15869286Y-12735476D01*
X15821667Y-12525952D02*
X15774048Y-12668809D01*
X15897857Y-12668809D01*
X16126428Y-12735476D02*
X16126428Y-12535476D01*
X16212143Y-12735476D02*
X16212143Y-12630714D01*
X16202619Y-12611667D01*
X16183571Y-12602143D01*
X16155000Y-12602143D01*
X16135952Y-12611667D01*
X16126428Y-12621190D01*
X16335952Y-12735476D02*
X16316905Y-12725952D01*
X16307381Y-12716428D01*
X16297857Y-12697381D01*
X16297857Y-12640238D01*
X16307381Y-12621190D01*
X16316905Y-12611667D01*
X16335952Y-12602143D01*
X16364524Y-12602143D01*
X16383571Y-12611667D01*
X16393095Y-12621190D01*
X16402619Y-12640238D01*
X16402619Y-12697381D01*
X16393095Y-12716428D01*
X16383571Y-12725952D01*
X16364524Y-12735476D01*
X16335952Y-12735476D01*
X16516905Y-12735476D02*
X16497857Y-12725952D01*
X16488333Y-12706905D01*
X16488333Y-12535476D01*
X16669286Y-12725952D02*
X16650238Y-12735476D01*
X16612143Y-12735476D01*
X16593095Y-12725952D01*
X16583571Y-12706905D01*
X16583571Y-12630714D01*
X16593095Y-12611667D01*
X16612143Y-12602143D01*
X16650238Y-12602143D01*
X16669286Y-12611667D01*
X16678809Y-12630714D01*
X16678809Y-12649762D01*
X16583571Y-12668809D01*
X16755000Y-12725952D02*
X16774048Y-12735476D01*
X16812143Y-12735476D01*
X16831190Y-12725952D01*
X16840714Y-12706905D01*
X16840714Y-12697381D01*
X16831190Y-12678333D01*
X16812143Y-12668809D01*
X16783571Y-12668809D01*
X16764524Y-12659286D01*
X16755000Y-12640238D01*
X16755000Y-12630714D01*
X16764524Y-12611667D01*
X16783571Y-12602143D01*
X16812143Y-12602143D01*
X16831190Y-12611667D01*
X16907381Y-12811667D02*
X16916905Y-12802143D01*
X16935952Y-12773571D01*
X16945476Y-12754524D01*
X16955000Y-12725952D01*
X16964524Y-12678333D01*
X16964524Y-12640238D01*
X16955000Y-12592619D01*
X16945476Y-12564048D01*
X16935952Y-12545000D01*
X16916905Y-12516428D01*
X16907381Y-12506905D01*
D13*
X11945000Y-12909000D02*
G75*
G03*
X11945000Y-12909000I-35000J0D01*
G01*
D11*
X12240714Y-12799476D02*
X12259762Y-12799476D01*
X12278809Y-12809000D01*
X12288333Y-12818524D01*
X12297857Y-12837571D01*
X12307381Y-12875667D01*
X12307381Y-12923286D01*
X12297857Y-12961381D01*
X12288333Y-12980428D01*
X12278809Y-12989952D01*
X12259762Y-12999476D01*
X12240714Y-12999476D01*
X12221667Y-12989952D01*
X12212143Y-12980428D01*
X12202619Y-12961381D01*
X12193095Y-12923286D01*
X12193095Y-12875667D01*
X12202619Y-12837571D01*
X12212143Y-12818524D01*
X12221667Y-12809000D01*
X12240714Y-12799476D01*
X12393095Y-12980428D02*
X12402619Y-12989952D01*
X12393095Y-12999476D01*
X12383571Y-12989952D01*
X12393095Y-12980428D01*
X12393095Y-12999476D01*
X12469286Y-12799476D02*
X12602619Y-12799476D01*
X12516905Y-12999476D01*
X12716905Y-12799476D02*
X12735952Y-12799476D01*
X12755000Y-12809000D01*
X12764524Y-12818524D01*
X12774048Y-12837571D01*
X12783571Y-12875667D01*
X12783571Y-12923286D01*
X12774048Y-12961381D01*
X12764524Y-12980428D01*
X12755000Y-12989952D01*
X12735952Y-12999476D01*
X12716905Y-12999476D01*
X12697857Y-12989952D01*
X12688333Y-12980428D01*
X12678809Y-12961381D01*
X12669286Y-12923286D01*
X12669286Y-12875667D01*
X12678809Y-12837571D01*
X12688333Y-12818524D01*
X12697857Y-12809000D01*
X12716905Y-12799476D01*
X12907381Y-12799476D02*
X12926428Y-12799476D01*
X12945476Y-12809000D01*
X12955000Y-12818524D01*
X12964524Y-12837571D01*
X12974048Y-12875667D01*
X12974048Y-12923286D01*
X12964524Y-12961381D01*
X12955000Y-12980428D01*
X12945476Y-12989952D01*
X12926428Y-12999476D01*
X12907381Y-12999476D01*
X12888333Y-12989952D01*
X12878809Y-12980428D01*
X12869286Y-12961381D01*
X12859762Y-12923286D01*
X12859762Y-12875667D01*
X12869286Y-12837571D01*
X12878809Y-12818524D01*
X12888333Y-12809000D01*
X12907381Y-12799476D01*
X13059762Y-12999476D02*
X13059762Y-12866143D01*
X13059762Y-12885190D02*
X13069286Y-12875667D01*
X13088333Y-12866143D01*
X13116905Y-12866143D01*
X13135952Y-12875667D01*
X13145476Y-12894714D01*
X13145476Y-12999476D01*
X13145476Y-12894714D02*
X13155000Y-12875667D01*
X13174048Y-12866143D01*
X13202619Y-12866143D01*
X13221667Y-12875667D01*
X13231190Y-12894714D01*
X13231190Y-12999476D01*
X13326428Y-12999476D02*
X13326428Y-12866143D01*
X13326428Y-12885190D02*
X13335952Y-12875667D01*
X13355000Y-12866143D01*
X13383571Y-12866143D01*
X13402619Y-12875667D01*
X13412143Y-12894714D01*
X13412143Y-12999476D01*
X13412143Y-12894714D02*
X13421667Y-12875667D01*
X13440714Y-12866143D01*
X13469286Y-12866143D01*
X13488333Y-12875667D01*
X13497857Y-12894714D01*
X13497857Y-12999476D01*
X13888333Y-12789952D02*
X13716905Y-13047095D01*
X14145476Y-12799476D02*
X14164524Y-12799476D01*
X14183571Y-12809000D01*
X14193095Y-12818524D01*
X14202619Y-12837571D01*
X14212143Y-12875667D01*
X14212143Y-12923286D01*
X14202619Y-12961381D01*
X14193095Y-12980428D01*
X14183571Y-12989952D01*
X14164524Y-12999476D01*
X14145476Y-12999476D01*
X14126428Y-12989952D01*
X14116905Y-12980428D01*
X14107381Y-12961381D01*
X14097857Y-12923286D01*
X14097857Y-12875667D01*
X14107381Y-12837571D01*
X14116905Y-12818524D01*
X14126428Y-12809000D01*
X14145476Y-12799476D01*
X14297857Y-12980428D02*
X14307381Y-12989952D01*
X14297857Y-12999476D01*
X14288333Y-12989952D01*
X14297857Y-12980428D01*
X14297857Y-12999476D01*
X14431190Y-12799476D02*
X14450238Y-12799476D01*
X14469286Y-12809000D01*
X14478809Y-12818524D01*
X14488333Y-12837571D01*
X14497857Y-12875667D01*
X14497857Y-12923286D01*
X14488333Y-12961381D01*
X14478809Y-12980428D01*
X14469286Y-12989952D01*
X14450238Y-12999476D01*
X14431190Y-12999476D01*
X14412143Y-12989952D01*
X14402619Y-12980428D01*
X14393095Y-12961381D01*
X14383571Y-12923286D01*
X14383571Y-12875667D01*
X14393095Y-12837571D01*
X14402619Y-12818524D01*
X14412143Y-12809000D01*
X14431190Y-12799476D01*
X14574048Y-12818524D02*
X14583571Y-12809000D01*
X14602619Y-12799476D01*
X14650238Y-12799476D01*
X14669286Y-12809000D01*
X14678809Y-12818524D01*
X14688333Y-12837571D01*
X14688333Y-12856619D01*
X14678809Y-12885190D01*
X14564524Y-12999476D01*
X14688333Y-12999476D01*
X14755000Y-12799476D02*
X14888333Y-12799476D01*
X14802619Y-12999476D01*
X15050238Y-12799476D02*
X15012143Y-12799476D01*
X14993095Y-12809000D01*
X14983571Y-12818524D01*
X14964524Y-12847095D01*
X14955000Y-12885190D01*
X14955000Y-12961381D01*
X14964524Y-12980428D01*
X14974048Y-12989952D01*
X14993095Y-12999476D01*
X15031190Y-12999476D01*
X15050238Y-12989952D01*
X15059762Y-12980428D01*
X15069286Y-12961381D01*
X15069286Y-12913762D01*
X15059762Y-12894714D01*
X15050238Y-12885190D01*
X15031190Y-12875667D01*
X14993095Y-12875667D01*
X14974048Y-12885190D01*
X14964524Y-12894714D01*
X14955000Y-12913762D01*
X15145476Y-12799476D02*
X15145476Y-12837571D01*
X15221667Y-12799476D02*
X15221667Y-12837571D01*
X15516905Y-13075667D02*
X15507381Y-13066143D01*
X15488333Y-13037571D01*
X15478809Y-13018524D01*
X15469286Y-12989952D01*
X15459762Y-12942333D01*
X15459762Y-12904238D01*
X15469286Y-12856619D01*
X15478809Y-12828048D01*
X15488333Y-12809000D01*
X15507381Y-12780428D01*
X15516905Y-12770905D01*
X15583571Y-12818524D02*
X15593095Y-12809000D01*
X15612143Y-12799476D01*
X15659762Y-12799476D01*
X15678809Y-12809000D01*
X15688333Y-12818524D01*
X15697857Y-12837571D01*
X15697857Y-12856619D01*
X15688333Y-12885190D01*
X15574048Y-12999476D01*
X15697857Y-12999476D01*
X15935952Y-12999476D02*
X15935952Y-12799476D01*
X16021667Y-12999476D02*
X16021667Y-12894714D01*
X16012143Y-12875667D01*
X15993095Y-12866143D01*
X15964524Y-12866143D01*
X15945476Y-12875667D01*
X15935952Y-12885190D01*
X16145476Y-12999476D02*
X16126428Y-12989952D01*
X16116905Y-12980428D01*
X16107381Y-12961381D01*
X16107381Y-12904238D01*
X16116905Y-12885190D01*
X16126428Y-12875667D01*
X16145476Y-12866143D01*
X16174048Y-12866143D01*
X16193095Y-12875667D01*
X16202619Y-12885190D01*
X16212143Y-12904238D01*
X16212143Y-12961381D01*
X16202619Y-12980428D01*
X16193095Y-12989952D01*
X16174048Y-12999476D01*
X16145476Y-12999476D01*
X16326428Y-12999476D02*
X16307381Y-12989952D01*
X16297857Y-12970905D01*
X16297857Y-12799476D01*
X16478809Y-12989952D02*
X16459762Y-12999476D01*
X16421667Y-12999476D01*
X16402619Y-12989952D01*
X16393095Y-12970905D01*
X16393095Y-12894714D01*
X16402619Y-12875667D01*
X16421667Y-12866143D01*
X16459762Y-12866143D01*
X16478809Y-12875667D01*
X16488333Y-12894714D01*
X16488333Y-12913762D01*
X16393095Y-12932809D01*
X16564524Y-12989952D02*
X16583571Y-12999476D01*
X16621667Y-12999476D01*
X16640714Y-12989952D01*
X16650238Y-12970905D01*
X16650238Y-12961381D01*
X16640714Y-12942333D01*
X16621667Y-12932809D01*
X16593095Y-12932809D01*
X16574048Y-12923286D01*
X16564524Y-12904238D01*
X16564524Y-12894714D01*
X16574048Y-12875667D01*
X16593095Y-12866143D01*
X16621667Y-12866143D01*
X16640714Y-12875667D01*
X16716905Y-13075667D02*
X16726428Y-13066143D01*
X16745476Y-13037571D01*
X16755000Y-13018524D01*
X16764524Y-12989952D01*
X16774048Y-12942333D01*
X16774048Y-12904238D01*
X16764524Y-12856619D01*
X16755000Y-12828048D01*
X16745476Y-12809000D01*
X16726428Y-12780428D01*
X16716905Y-12770905D01*
D14*
X11907500Y-13135500D02*
X11907500Y-13210500D01*
X11870000Y-13173000D02*
X11945000Y-13173000D01*
D11*
X12240714Y-13063476D02*
X12259762Y-13063476D01*
X12278809Y-13073000D01*
X12288333Y-13082524D01*
X12297857Y-13101571D01*
X12307381Y-13139667D01*
X12307381Y-13187286D01*
X12297857Y-13225381D01*
X12288333Y-13244428D01*
X12278809Y-13253952D01*
X12259762Y-13263476D01*
X12240714Y-13263476D01*
X12221667Y-13253952D01*
X12212143Y-13244428D01*
X12202619Y-13225381D01*
X12193095Y-13187286D01*
X12193095Y-13139667D01*
X12202619Y-13101571D01*
X12212143Y-13082524D01*
X12221667Y-13073000D01*
X12240714Y-13063476D01*
X12393095Y-13244428D02*
X12402619Y-13253952D01*
X12393095Y-13263476D01*
X12383571Y-13253952D01*
X12393095Y-13244428D01*
X12393095Y-13263476D01*
X12469286Y-13063476D02*
X12602619Y-13063476D01*
X12516905Y-13263476D01*
X12774048Y-13063476D02*
X12678809Y-13063476D01*
X12669286Y-13158714D01*
X12678809Y-13149190D01*
X12697857Y-13139667D01*
X12745476Y-13139667D01*
X12764524Y-13149190D01*
X12774048Y-13158714D01*
X12783571Y-13177762D01*
X12783571Y-13225381D01*
X12774048Y-13244428D01*
X12764524Y-13253952D01*
X12745476Y-13263476D01*
X12697857Y-13263476D01*
X12678809Y-13253952D01*
X12669286Y-13244428D01*
X12907381Y-13063476D02*
X12926428Y-13063476D01*
X12945476Y-13073000D01*
X12955000Y-13082524D01*
X12964524Y-13101571D01*
X12974048Y-13139667D01*
X12974048Y-13187286D01*
X12964524Y-13225381D01*
X12955000Y-13244428D01*
X12945476Y-13253952D01*
X12926428Y-13263476D01*
X12907381Y-13263476D01*
X12888333Y-13253952D01*
X12878809Y-13244428D01*
X12869286Y-13225381D01*
X12859762Y-13187286D01*
X12859762Y-13139667D01*
X12869286Y-13101571D01*
X12878809Y-13082524D01*
X12888333Y-13073000D01*
X12907381Y-13063476D01*
X13059762Y-13263476D02*
X13059762Y-13130143D01*
X13059762Y-13149190D02*
X13069286Y-13139667D01*
X13088333Y-13130143D01*
X13116905Y-13130143D01*
X13135952Y-13139667D01*
X13145476Y-13158714D01*
X13145476Y-13263476D01*
X13145476Y-13158714D02*
X13155000Y-13139667D01*
X13174048Y-13130143D01*
X13202619Y-13130143D01*
X13221667Y-13139667D01*
X13231190Y-13158714D01*
X13231190Y-13263476D01*
X13326428Y-13263476D02*
X13326428Y-13130143D01*
X13326428Y-13149190D02*
X13335952Y-13139667D01*
X13355000Y-13130143D01*
X13383571Y-13130143D01*
X13402619Y-13139667D01*
X13412143Y-13158714D01*
X13412143Y-13263476D01*
X13412143Y-13158714D02*
X13421667Y-13139667D01*
X13440714Y-13130143D01*
X13469286Y-13130143D01*
X13488333Y-13139667D01*
X13497857Y-13158714D01*
X13497857Y-13263476D01*
X13888333Y-13053952D02*
X13716905Y-13311095D01*
X14145476Y-13063476D02*
X14164524Y-13063476D01*
X14183571Y-13073000D01*
X14193095Y-13082524D01*
X14202619Y-13101571D01*
X14212143Y-13139667D01*
X14212143Y-13187286D01*
X14202619Y-13225381D01*
X14193095Y-13244428D01*
X14183571Y-13253952D01*
X14164524Y-13263476D01*
X14145476Y-13263476D01*
X14126428Y-13253952D01*
X14116905Y-13244428D01*
X14107381Y-13225381D01*
X14097857Y-13187286D01*
X14097857Y-13139667D01*
X14107381Y-13101571D01*
X14116905Y-13082524D01*
X14126428Y-13073000D01*
X14145476Y-13063476D01*
X14297857Y-13244428D02*
X14307381Y-13253952D01*
X14297857Y-13263476D01*
X14288333Y-13253952D01*
X14297857Y-13244428D01*
X14297857Y-13263476D01*
X14431190Y-13063476D02*
X14450238Y-13063476D01*
X14469286Y-13073000D01*
X14478809Y-13082524D01*
X14488333Y-13101571D01*
X14497857Y-13139667D01*
X14497857Y-13187286D01*
X14488333Y-13225381D01*
X14478809Y-13244428D01*
X14469286Y-13253952D01*
X14450238Y-13263476D01*
X14431190Y-13263476D01*
X14412143Y-13253952D01*
X14402619Y-13244428D01*
X14393095Y-13225381D01*
X14383571Y-13187286D01*
X14383571Y-13139667D01*
X14393095Y-13101571D01*
X14402619Y-13082524D01*
X14412143Y-13073000D01*
X14431190Y-13063476D01*
X14574048Y-13082524D02*
X14583571Y-13073000D01*
X14602619Y-13063476D01*
X14650238Y-13063476D01*
X14669286Y-13073000D01*
X14678809Y-13082524D01*
X14688333Y-13101571D01*
X14688333Y-13120619D01*
X14678809Y-13149190D01*
X14564524Y-13263476D01*
X14688333Y-13263476D01*
X14783571Y-13263476D02*
X14821667Y-13263476D01*
X14840714Y-13253952D01*
X14850238Y-13244428D01*
X14869286Y-13215857D01*
X14878809Y-13177762D01*
X14878809Y-13101571D01*
X14869286Y-13082524D01*
X14859762Y-13073000D01*
X14840714Y-13063476D01*
X14802619Y-13063476D01*
X14783571Y-13073000D01*
X14774048Y-13082524D01*
X14764524Y-13101571D01*
X14764524Y-13149190D01*
X14774048Y-13168238D01*
X14783571Y-13177762D01*
X14802619Y-13187286D01*
X14840714Y-13187286D01*
X14859762Y-13177762D01*
X14869286Y-13168238D01*
X14878809Y-13149190D01*
X15059762Y-13063476D02*
X14964524Y-13063476D01*
X14955000Y-13158714D01*
X14964524Y-13149190D01*
X14983571Y-13139667D01*
X15031190Y-13139667D01*
X15050238Y-13149190D01*
X15059762Y-13158714D01*
X15069286Y-13177762D01*
X15069286Y-13225381D01*
X15059762Y-13244428D01*
X15050238Y-13253952D01*
X15031190Y-13263476D01*
X14983571Y-13263476D01*
X14964524Y-13253952D01*
X14955000Y-13244428D01*
X15145476Y-13063476D02*
X15145476Y-13101571D01*
X15221667Y-13063476D02*
X15221667Y-13101571D01*
X15516905Y-13339667D02*
X15507381Y-13330143D01*
X15488333Y-13301571D01*
X15478809Y-13282524D01*
X15469286Y-13253952D01*
X15459762Y-13206333D01*
X15459762Y-13168238D01*
X15469286Y-13120619D01*
X15478809Y-13092048D01*
X15488333Y-13073000D01*
X15507381Y-13044428D01*
X15516905Y-13034905D01*
X15574048Y-13063476D02*
X15697857Y-13063476D01*
X15631190Y-13139667D01*
X15659762Y-13139667D01*
X15678809Y-13149190D01*
X15688333Y-13158714D01*
X15697857Y-13177762D01*
X15697857Y-13225381D01*
X15688333Y-13244428D01*
X15678809Y-13253952D01*
X15659762Y-13263476D01*
X15602619Y-13263476D01*
X15583571Y-13253952D01*
X15574048Y-13244428D01*
X15935952Y-13263476D02*
X15935952Y-13063476D01*
X16021667Y-13263476D02*
X16021667Y-13158714D01*
X16012143Y-13139667D01*
X15993095Y-13130143D01*
X15964524Y-13130143D01*
X15945476Y-13139667D01*
X15935952Y-13149190D01*
X16145476Y-13263476D02*
X16126428Y-13253952D01*
X16116905Y-13244428D01*
X16107381Y-13225381D01*
X16107381Y-13168238D01*
X16116905Y-13149190D01*
X16126428Y-13139667D01*
X16145476Y-13130143D01*
X16174048Y-13130143D01*
X16193095Y-13139667D01*
X16202619Y-13149190D01*
X16212143Y-13168238D01*
X16212143Y-13225381D01*
X16202619Y-13244428D01*
X16193095Y-13253952D01*
X16174048Y-13263476D01*
X16145476Y-13263476D01*
X16326428Y-13263476D02*
X16307381Y-13253952D01*
X16297857Y-13234905D01*
X16297857Y-13063476D01*
X16478809Y-13253952D02*
X16459762Y-13263476D01*
X16421667Y-13263476D01*
X16402619Y-13253952D01*
X16393095Y-13234905D01*
X16393095Y-13158714D01*
X16402619Y-13139667D01*
X16421667Y-13130143D01*
X16459762Y-13130143D01*
X16478809Y-13139667D01*
X16488333Y-13158714D01*
X16488333Y-13177762D01*
X16393095Y-13196809D01*
X16564524Y-13253952D02*
X16583571Y-13263476D01*
X16621667Y-13263476D01*
X16640714Y-13253952D01*
X16650238Y-13234905D01*
X16650238Y-13225381D01*
X16640714Y-13206333D01*
X16621667Y-13196809D01*
X16593095Y-13196809D01*
X16574048Y-13187286D01*
X16564524Y-13168238D01*
X16564524Y-13158714D01*
X16574048Y-13139667D01*
X16593095Y-13130143D01*
X16621667Y-13130143D01*
X16640714Y-13139667D01*
X16716905Y-13339667D02*
X16726428Y-13330143D01*
X16745476Y-13301571D01*
X16755000Y-13282524D01*
X16764524Y-13253952D01*
X16774048Y-13206333D01*
X16774048Y-13168238D01*
X16764524Y-13120619D01*
X16755000Y-13092048D01*
X16745476Y-13073000D01*
X16726428Y-13044428D01*
X16716905Y-13034905D01*
D15*
X11933284Y-13465284D02*
X11933284Y-13408715D01*
X11876715Y-13408715D01*
X11876715Y-13465284D01*
X11933284Y-13465284D01*
D11*
X12240714Y-13327476D02*
X12259762Y-13327476D01*
X12278809Y-13337000D01*
X12288333Y-13346524D01*
X12297857Y-13365571D01*
X12307381Y-13403667D01*
X12307381Y-13451286D01*
X12297857Y-13489381D01*
X12288333Y-13508428D01*
X12278809Y-13517952D01*
X12259762Y-13527476D01*
X12240714Y-13527476D01*
X12221667Y-13517952D01*
X12212143Y-13508428D01*
X12202619Y-13489381D01*
X12193095Y-13451286D01*
X12193095Y-13403667D01*
X12202619Y-13365571D01*
X12212143Y-13346524D01*
X12221667Y-13337000D01*
X12240714Y-13327476D01*
X12393095Y-13508428D02*
X12402619Y-13517952D01*
X12393095Y-13527476D01*
X12383571Y-13517952D01*
X12393095Y-13508428D01*
X12393095Y-13527476D01*
X12516905Y-13413190D02*
X12497857Y-13403667D01*
X12488333Y-13394143D01*
X12478809Y-13375095D01*
X12478809Y-13365571D01*
X12488333Y-13346524D01*
X12497857Y-13337000D01*
X12516905Y-13327476D01*
X12555000Y-13327476D01*
X12574048Y-13337000D01*
X12583571Y-13346524D01*
X12593095Y-13365571D01*
X12593095Y-13375095D01*
X12583571Y-13394143D01*
X12574048Y-13403667D01*
X12555000Y-13413190D01*
X12516905Y-13413190D01*
X12497857Y-13422714D01*
X12488333Y-13432238D01*
X12478809Y-13451286D01*
X12478809Y-13489381D01*
X12488333Y-13508428D01*
X12497857Y-13517952D01*
X12516905Y-13527476D01*
X12555000Y-13527476D01*
X12574048Y-13517952D01*
X12583571Y-13508428D01*
X12593095Y-13489381D01*
X12593095Y-13451286D01*
X12583571Y-13432238D01*
X12574048Y-13422714D01*
X12555000Y-13413190D01*
X12716905Y-13327476D02*
X12735952Y-13327476D01*
X12755000Y-13337000D01*
X12764524Y-13346524D01*
X12774048Y-13365571D01*
X12783571Y-13403667D01*
X12783571Y-13451286D01*
X12774048Y-13489381D01*
X12764524Y-13508428D01*
X12755000Y-13517952D01*
X12735952Y-13527476D01*
X12716905Y-13527476D01*
X12697857Y-13517952D01*
X12688333Y-13508428D01*
X12678809Y-13489381D01*
X12669286Y-13451286D01*
X12669286Y-13403667D01*
X12678809Y-13365571D01*
X12688333Y-13346524D01*
X12697857Y-13337000D01*
X12716905Y-13327476D01*
X12907381Y-13327476D02*
X12926428Y-13327476D01*
X12945476Y-13337000D01*
X12955000Y-13346524D01*
X12964524Y-13365571D01*
X12974048Y-13403667D01*
X12974048Y-13451286D01*
X12964524Y-13489381D01*
X12955000Y-13508428D01*
X12945476Y-13517952D01*
X12926428Y-13527476D01*
X12907381Y-13527476D01*
X12888333Y-13517952D01*
X12878809Y-13508428D01*
X12869286Y-13489381D01*
X12859762Y-13451286D01*
X12859762Y-13403667D01*
X12869286Y-13365571D01*
X12878809Y-13346524D01*
X12888333Y-13337000D01*
X12907381Y-13327476D01*
X13059762Y-13527476D02*
X13059762Y-13394143D01*
X13059762Y-13413190D02*
X13069286Y-13403667D01*
X13088333Y-13394143D01*
X13116905Y-13394143D01*
X13135952Y-13403667D01*
X13145476Y-13422714D01*
X13145476Y-13527476D01*
X13145476Y-13422714D02*
X13155000Y-13403667D01*
X13174048Y-13394143D01*
X13202619Y-13394143D01*
X13221667Y-13403667D01*
X13231190Y-13422714D01*
X13231190Y-13527476D01*
X13326428Y-13527476D02*
X13326428Y-13394143D01*
X13326428Y-13413190D02*
X13335952Y-13403667D01*
X13355000Y-13394143D01*
X13383571Y-13394143D01*
X13402619Y-13403667D01*
X13412143Y-13422714D01*
X13412143Y-13527476D01*
X13412143Y-13422714D02*
X13421667Y-13403667D01*
X13440714Y-13394143D01*
X13469286Y-13394143D01*
X13488333Y-13403667D01*
X13497857Y-13422714D01*
X13497857Y-13527476D01*
X13888333Y-13317952D02*
X13716905Y-13575095D01*
X14145476Y-13327476D02*
X14164524Y-13327476D01*
X14183571Y-13337000D01*
X14193095Y-13346524D01*
X14202619Y-13365571D01*
X14212143Y-13403667D01*
X14212143Y-13451286D01*
X14202619Y-13489381D01*
X14193095Y-13508428D01*
X14183571Y-13517952D01*
X14164524Y-13527476D01*
X14145476Y-13527476D01*
X14126428Y-13517952D01*
X14116905Y-13508428D01*
X14107381Y-13489381D01*
X14097857Y-13451286D01*
X14097857Y-13403667D01*
X14107381Y-13365571D01*
X14116905Y-13346524D01*
X14126428Y-13337000D01*
X14145476Y-13327476D01*
X14297857Y-13508428D02*
X14307381Y-13517952D01*
X14297857Y-13527476D01*
X14288333Y-13517952D01*
X14297857Y-13508428D01*
X14297857Y-13527476D01*
X14431190Y-13327476D02*
X14450238Y-13327476D01*
X14469286Y-13337000D01*
X14478809Y-13346524D01*
X14488333Y-13365571D01*
X14497857Y-13403667D01*
X14497857Y-13451286D01*
X14488333Y-13489381D01*
X14478809Y-13508428D01*
X14469286Y-13517952D01*
X14450238Y-13527476D01*
X14431190Y-13527476D01*
X14412143Y-13517952D01*
X14402619Y-13508428D01*
X14393095Y-13489381D01*
X14383571Y-13451286D01*
X14383571Y-13403667D01*
X14393095Y-13365571D01*
X14402619Y-13346524D01*
X14412143Y-13337000D01*
X14431190Y-13327476D01*
X14564524Y-13327476D02*
X14688333Y-13327476D01*
X14621667Y-13403667D01*
X14650238Y-13403667D01*
X14669286Y-13413190D01*
X14678809Y-13422714D01*
X14688333Y-13441762D01*
X14688333Y-13489381D01*
X14678809Y-13508428D01*
X14669286Y-13517952D01*
X14650238Y-13527476D01*
X14593095Y-13527476D01*
X14574048Y-13517952D01*
X14564524Y-13508428D01*
X14878809Y-13527476D02*
X14764524Y-13527476D01*
X14821667Y-13527476D02*
X14821667Y-13327476D01*
X14802619Y-13356048D01*
X14783571Y-13375095D01*
X14764524Y-13384619D01*
X15059762Y-13327476D02*
X14964524Y-13327476D01*
X14955000Y-13422714D01*
X14964524Y-13413190D01*
X14983571Y-13403667D01*
X15031190Y-13403667D01*
X15050238Y-13413190D01*
X15059762Y-13422714D01*
X15069286Y-13441762D01*
X15069286Y-13489381D01*
X15059762Y-13508428D01*
X15050238Y-13517952D01*
X15031190Y-13527476D01*
X14983571Y-13527476D01*
X14964524Y-13517952D01*
X14955000Y-13508428D01*
X15145476Y-13327476D02*
X15145476Y-13365571D01*
X15221667Y-13327476D02*
X15221667Y-13365571D01*
X15516905Y-13603667D02*
X15507381Y-13594143D01*
X15488333Y-13565571D01*
X15478809Y-13546524D01*
X15469286Y-13517952D01*
X15459762Y-13470333D01*
X15459762Y-13432238D01*
X15469286Y-13384619D01*
X15478809Y-13356048D01*
X15488333Y-13337000D01*
X15507381Y-13308428D01*
X15516905Y-13298905D01*
X15678809Y-13394143D02*
X15678809Y-13527476D01*
X15631190Y-13317952D02*
X15583571Y-13460809D01*
X15707381Y-13460809D01*
X15888333Y-13527476D02*
X15774048Y-13527476D01*
X15831190Y-13527476D02*
X15831190Y-13327476D01*
X15812143Y-13356048D01*
X15793095Y-13375095D01*
X15774048Y-13384619D01*
X16126428Y-13527476D02*
X16126428Y-13327476D01*
X16212143Y-13527476D02*
X16212143Y-13422714D01*
X16202619Y-13403667D01*
X16183571Y-13394143D01*
X16155000Y-13394143D01*
X16135952Y-13403667D01*
X16126428Y-13413190D01*
X16335952Y-13527476D02*
X16316905Y-13517952D01*
X16307381Y-13508428D01*
X16297857Y-13489381D01*
X16297857Y-13432238D01*
X16307381Y-13413190D01*
X16316905Y-13403667D01*
X16335952Y-13394143D01*
X16364524Y-13394143D01*
X16383571Y-13403667D01*
X16393095Y-13413190D01*
X16402619Y-13432238D01*
X16402619Y-13489381D01*
X16393095Y-13508428D01*
X16383571Y-13517952D01*
X16364524Y-13527476D01*
X16335952Y-13527476D01*
X16516905Y-13527476D02*
X16497857Y-13517952D01*
X16488333Y-13498905D01*
X16488333Y-13327476D01*
X16669286Y-13517952D02*
X16650238Y-13527476D01*
X16612143Y-13527476D01*
X16593095Y-13517952D01*
X16583571Y-13498905D01*
X16583571Y-13422714D01*
X16593095Y-13403667D01*
X16612143Y-13394143D01*
X16650238Y-13394143D01*
X16669286Y-13403667D01*
X16678809Y-13422714D01*
X16678809Y-13441762D01*
X16583571Y-13460809D01*
X16755000Y-13517952D02*
X16774048Y-13527476D01*
X16812143Y-13527476D01*
X16831190Y-13517952D01*
X16840714Y-13498905D01*
X16840714Y-13489381D01*
X16831190Y-13470333D01*
X16812143Y-13460809D01*
X16783571Y-13460809D01*
X16764524Y-13451286D01*
X16755000Y-13432238D01*
X16755000Y-13422714D01*
X16764524Y-13403667D01*
X16783571Y-13394143D01*
X16812143Y-13394143D01*
X16831190Y-13403667D01*
X16907381Y-13603667D02*
X16916905Y-13594143D01*
X16935952Y-13565571D01*
X16945476Y-13546524D01*
X16955000Y-13517952D01*
X16964524Y-13470333D01*
X16964524Y-13432238D01*
X16955000Y-13384619D01*
X16945476Y-13356048D01*
X16935952Y-13337000D01*
X16916905Y-13308428D01*
X16907381Y-13298905D01*
D16*
X11895000Y-13751000D02*
X11945000Y-13701000D01*
X11895000Y-13651000D01*
X11845000Y-13701000D01*
X11895000Y-13751000D01*
D11*
X12307381Y-13791476D02*
X12193095Y-13791476D01*
X12250238Y-13791476D02*
X12250238Y-13591476D01*
X12231190Y-13620048D01*
X12212143Y-13639095D01*
X12193095Y-13648619D01*
X12393095Y-13772428D02*
X12402619Y-13781952D01*
X12393095Y-13791476D01*
X12383571Y-13781952D01*
X12393095Y-13772428D01*
X12393095Y-13791476D01*
X12526428Y-13591476D02*
X12545476Y-13591476D01*
X12564524Y-13601000D01*
X12574048Y-13610524D01*
X12583571Y-13629571D01*
X12593095Y-13667667D01*
X12593095Y-13715286D01*
X12583571Y-13753381D01*
X12574048Y-13772428D01*
X12564524Y-13781952D01*
X12545476Y-13791476D01*
X12526428Y-13791476D01*
X12507381Y-13781952D01*
X12497857Y-13772428D01*
X12488333Y-13753381D01*
X12478809Y-13715286D01*
X12478809Y-13667667D01*
X12488333Y-13629571D01*
X12497857Y-13610524D01*
X12507381Y-13601000D01*
X12526428Y-13591476D01*
X12716905Y-13591476D02*
X12735952Y-13591476D01*
X12755000Y-13601000D01*
X12764524Y-13610524D01*
X12774048Y-13629571D01*
X12783571Y-13667667D01*
X12783571Y-13715286D01*
X12774048Y-13753381D01*
X12764524Y-13772428D01*
X12755000Y-13781952D01*
X12735952Y-13791476D01*
X12716905Y-13791476D01*
X12697857Y-13781952D01*
X12688333Y-13772428D01*
X12678809Y-13753381D01*
X12669286Y-13715286D01*
X12669286Y-13667667D01*
X12678809Y-13629571D01*
X12688333Y-13610524D01*
X12697857Y-13601000D01*
X12716905Y-13591476D01*
X12907381Y-13591476D02*
X12926428Y-13591476D01*
X12945476Y-13601000D01*
X12955000Y-13610524D01*
X12964524Y-13629571D01*
X12974048Y-13667667D01*
X12974048Y-13715286D01*
X12964524Y-13753381D01*
X12955000Y-13772428D01*
X12945476Y-13781952D01*
X12926428Y-13791476D01*
X12907381Y-13791476D01*
X12888333Y-13781952D01*
X12878809Y-13772428D01*
X12869286Y-13753381D01*
X12859762Y-13715286D01*
X12859762Y-13667667D01*
X12869286Y-13629571D01*
X12878809Y-13610524D01*
X12888333Y-13601000D01*
X12907381Y-13591476D01*
X13059762Y-13791476D02*
X13059762Y-13658143D01*
X13059762Y-13677190D02*
X13069286Y-13667667D01*
X13088333Y-13658143D01*
X13116905Y-13658143D01*
X13135952Y-13667667D01*
X13145476Y-13686714D01*
X13145476Y-13791476D01*
X13145476Y-13686714D02*
X13155000Y-13667667D01*
X13174048Y-13658143D01*
X13202619Y-13658143D01*
X13221667Y-13667667D01*
X13231190Y-13686714D01*
X13231190Y-13791476D01*
X13326428Y-13791476D02*
X13326428Y-13658143D01*
X13326428Y-13677190D02*
X13335952Y-13667667D01*
X13355000Y-13658143D01*
X13383571Y-13658143D01*
X13402619Y-13667667D01*
X13412143Y-13686714D01*
X13412143Y-13791476D01*
X13412143Y-13686714D02*
X13421667Y-13667667D01*
X13440714Y-13658143D01*
X13469286Y-13658143D01*
X13488333Y-13667667D01*
X13497857Y-13686714D01*
X13497857Y-13791476D01*
X13888333Y-13581952D02*
X13716905Y-13839095D01*
X14145476Y-13591476D02*
X14164524Y-13591476D01*
X14183571Y-13601000D01*
X14193095Y-13610524D01*
X14202619Y-13629571D01*
X14212143Y-13667667D01*
X14212143Y-13715286D01*
X14202619Y-13753381D01*
X14193095Y-13772428D01*
X14183571Y-13781952D01*
X14164524Y-13791476D01*
X14145476Y-13791476D01*
X14126428Y-13781952D01*
X14116905Y-13772428D01*
X14107381Y-13753381D01*
X14097857Y-13715286D01*
X14097857Y-13667667D01*
X14107381Y-13629571D01*
X14116905Y-13610524D01*
X14126428Y-13601000D01*
X14145476Y-13591476D01*
X14297857Y-13772428D02*
X14307381Y-13781952D01*
X14297857Y-13791476D01*
X14288333Y-13781952D01*
X14297857Y-13772428D01*
X14297857Y-13791476D01*
X14431190Y-13591476D02*
X14450238Y-13591476D01*
X14469286Y-13601000D01*
X14478809Y-13610524D01*
X14488333Y-13629571D01*
X14497857Y-13667667D01*
X14497857Y-13715286D01*
X14488333Y-13753381D01*
X14478809Y-13772428D01*
X14469286Y-13781952D01*
X14450238Y-13791476D01*
X14431190Y-13791476D01*
X14412143Y-13781952D01*
X14402619Y-13772428D01*
X14393095Y-13753381D01*
X14383571Y-13715286D01*
X14383571Y-13667667D01*
X14393095Y-13629571D01*
X14402619Y-13610524D01*
X14412143Y-13601000D01*
X14431190Y-13591476D01*
X14564524Y-13591476D02*
X14688333Y-13591476D01*
X14621667Y-13667667D01*
X14650238Y-13667667D01*
X14669286Y-13677190D01*
X14678809Y-13686714D01*
X14688333Y-13705762D01*
X14688333Y-13753381D01*
X14678809Y-13772428D01*
X14669286Y-13781952D01*
X14650238Y-13791476D01*
X14593095Y-13791476D01*
X14574048Y-13781952D01*
X14564524Y-13772428D01*
X14783571Y-13791476D02*
X14821667Y-13791476D01*
X14840714Y-13781952D01*
X14850238Y-13772428D01*
X14869286Y-13743857D01*
X14878809Y-13705762D01*
X14878809Y-13629571D01*
X14869286Y-13610524D01*
X14859762Y-13601000D01*
X14840714Y-13591476D01*
X14802619Y-13591476D01*
X14783571Y-13601000D01*
X14774048Y-13610524D01*
X14764524Y-13629571D01*
X14764524Y-13677190D01*
X14774048Y-13696238D01*
X14783571Y-13705762D01*
X14802619Y-13715286D01*
X14840714Y-13715286D01*
X14859762Y-13705762D01*
X14869286Y-13696238D01*
X14878809Y-13677190D01*
X15050238Y-13658143D02*
X15050238Y-13791476D01*
X15002619Y-13581952D02*
X14955000Y-13724809D01*
X15078809Y-13724809D01*
X15145476Y-13591476D02*
X15145476Y-13629571D01*
X15221667Y-13591476D02*
X15221667Y-13629571D01*
X15516905Y-13867667D02*
X15507381Y-13858143D01*
X15488333Y-13829571D01*
X15478809Y-13810524D01*
X15469286Y-13781952D01*
X15459762Y-13734333D01*
X15459762Y-13696238D01*
X15469286Y-13648619D01*
X15478809Y-13620048D01*
X15488333Y-13601000D01*
X15507381Y-13572428D01*
X15516905Y-13562905D01*
X15583571Y-13610524D02*
X15593095Y-13601000D01*
X15612143Y-13591476D01*
X15659762Y-13591476D01*
X15678809Y-13601000D01*
X15688333Y-13610524D01*
X15697857Y-13629571D01*
X15697857Y-13648619D01*
X15688333Y-13677190D01*
X15574048Y-13791476D01*
X15697857Y-13791476D01*
X15935952Y-13791476D02*
X15935952Y-13591476D01*
X16021667Y-13791476D02*
X16021667Y-13686714D01*
X16012143Y-13667667D01*
X15993095Y-13658143D01*
X15964524Y-13658143D01*
X15945476Y-13667667D01*
X15935952Y-13677190D01*
X16145476Y-13791476D02*
X16126428Y-13781952D01*
X16116905Y-13772428D01*
X16107381Y-13753381D01*
X16107381Y-13696238D01*
X16116905Y-13677190D01*
X16126428Y-13667667D01*
X16145476Y-13658143D01*
X16174048Y-13658143D01*
X16193095Y-13667667D01*
X16202619Y-13677190D01*
X16212143Y-13696238D01*
X16212143Y-13753381D01*
X16202619Y-13772428D01*
X16193095Y-13781952D01*
X16174048Y-13791476D01*
X16145476Y-13791476D01*
X16326428Y-13791476D02*
X16307381Y-13781952D01*
X16297857Y-13762905D01*
X16297857Y-13591476D01*
X16478809Y-13781952D02*
X16459762Y-13791476D01*
X16421667Y-13791476D01*
X16402619Y-13781952D01*
X16393095Y-13762905D01*
X16393095Y-13686714D01*
X16402619Y-13667667D01*
X16421667Y-13658143D01*
X16459762Y-13658143D01*
X16478809Y-13667667D01*
X16488333Y-13686714D01*
X16488333Y-13705762D01*
X16393095Y-13724809D01*
X16564524Y-13781952D02*
X16583571Y-13791476D01*
X16621667Y-13791476D01*
X16640714Y-13781952D01*
X16650238Y-13762905D01*
X16650238Y-13753381D01*
X16640714Y-13734333D01*
X16621667Y-13724809D01*
X16593095Y-13724809D01*
X16574048Y-13715286D01*
X16564524Y-13696238D01*
X16564524Y-13686714D01*
X16574048Y-13667667D01*
X16593095Y-13658143D01*
X16621667Y-13658143D01*
X16640714Y-13667667D01*
X16716905Y-13867667D02*
X16726428Y-13858143D01*
X16745476Y-13829571D01*
X16755000Y-13810524D01*
X16764524Y-13781952D01*
X16774048Y-13734333D01*
X16774048Y-13696238D01*
X16764524Y-13648619D01*
X16755000Y-13620048D01*
X16745476Y-13601000D01*
X16726428Y-13572428D01*
X16716905Y-13562905D01*
D17*
X11835000Y-13910000D02*
X11945000Y-14020000D01*
X11945000Y-13910000D02*
X11835000Y-14020000D01*
X11945000Y-13965000D02*
G75*
G03*
X11945000Y-13965000I-55000J0D01*
G01*
D11*
X12307381Y-14055476D02*
X12193095Y-14055476D01*
X12250238Y-14055476D02*
X12250238Y-13855476D01*
X12231190Y-13884048D01*
X12212143Y-13903095D01*
X12193095Y-13912619D01*
X12393095Y-14036428D02*
X12402619Y-14045952D01*
X12393095Y-14055476D01*
X12383571Y-14045952D01*
X12393095Y-14036428D01*
X12393095Y-14055476D01*
X12593095Y-14055476D02*
X12478809Y-14055476D01*
X12535952Y-14055476D02*
X12535952Y-13855476D01*
X12516905Y-13884048D01*
X12497857Y-13903095D01*
X12478809Y-13912619D01*
X12716905Y-13855476D02*
X12735952Y-13855476D01*
X12755000Y-13865000D01*
X12764524Y-13874524D01*
X12774048Y-13893571D01*
X12783571Y-13931667D01*
X12783571Y-13979286D01*
X12774048Y-14017381D01*
X12764524Y-14036428D01*
X12755000Y-14045952D01*
X12735952Y-14055476D01*
X12716905Y-14055476D01*
X12697857Y-14045952D01*
X12688333Y-14036428D01*
X12678809Y-14017381D01*
X12669286Y-13979286D01*
X12669286Y-13931667D01*
X12678809Y-13893571D01*
X12688333Y-13874524D01*
X12697857Y-13865000D01*
X12716905Y-13855476D01*
X12907381Y-13855476D02*
X12926428Y-13855476D01*
X12945476Y-13865000D01*
X12955000Y-13874524D01*
X12964524Y-13893571D01*
X12974048Y-13931667D01*
X12974048Y-13979286D01*
X12964524Y-14017381D01*
X12955000Y-14036428D01*
X12945476Y-14045952D01*
X12926428Y-14055476D01*
X12907381Y-14055476D01*
X12888333Y-14045952D01*
X12878809Y-14036428D01*
X12869286Y-14017381D01*
X12859762Y-13979286D01*
X12859762Y-13931667D01*
X12869286Y-13893571D01*
X12878809Y-13874524D01*
X12888333Y-13865000D01*
X12907381Y-13855476D01*
X13059762Y-14055476D02*
X13059762Y-13922143D01*
X13059762Y-13941190D02*
X13069286Y-13931667D01*
X13088333Y-13922143D01*
X13116905Y-13922143D01*
X13135952Y-13931667D01*
X13145476Y-13950714D01*
X13145476Y-14055476D01*
X13145476Y-13950714D02*
X13155000Y-13931667D01*
X13174048Y-13922143D01*
X13202619Y-13922143D01*
X13221667Y-13931667D01*
X13231190Y-13950714D01*
X13231190Y-14055476D01*
X13326428Y-14055476D02*
X13326428Y-13922143D01*
X13326428Y-13941190D02*
X13335952Y-13931667D01*
X13355000Y-13922143D01*
X13383571Y-13922143D01*
X13402619Y-13931667D01*
X13412143Y-13950714D01*
X13412143Y-14055476D01*
X13412143Y-13950714D02*
X13421667Y-13931667D01*
X13440714Y-13922143D01*
X13469286Y-13922143D01*
X13488333Y-13931667D01*
X13497857Y-13950714D01*
X13497857Y-14055476D01*
X13888333Y-13845952D02*
X13716905Y-14103095D01*
X14145476Y-13855476D02*
X14164524Y-13855476D01*
X14183571Y-13865000D01*
X14193095Y-13874524D01*
X14202619Y-13893571D01*
X14212143Y-13931667D01*
X14212143Y-13979286D01*
X14202619Y-14017381D01*
X14193095Y-14036428D01*
X14183571Y-14045952D01*
X14164524Y-14055476D01*
X14145476Y-14055476D01*
X14126428Y-14045952D01*
X14116905Y-14036428D01*
X14107381Y-14017381D01*
X14097857Y-13979286D01*
X14097857Y-13931667D01*
X14107381Y-13893571D01*
X14116905Y-13874524D01*
X14126428Y-13865000D01*
X14145476Y-13855476D01*
X14297857Y-14036428D02*
X14307381Y-14045952D01*
X14297857Y-14055476D01*
X14288333Y-14045952D01*
X14297857Y-14036428D01*
X14297857Y-14055476D01*
X14431190Y-13855476D02*
X14450238Y-13855476D01*
X14469286Y-13865000D01*
X14478809Y-13874524D01*
X14488333Y-13893571D01*
X14497857Y-13931667D01*
X14497857Y-13979286D01*
X14488333Y-14017381D01*
X14478809Y-14036428D01*
X14469286Y-14045952D01*
X14450238Y-14055476D01*
X14431190Y-14055476D01*
X14412143Y-14045952D01*
X14402619Y-14036428D01*
X14393095Y-14017381D01*
X14383571Y-13979286D01*
X14383571Y-13931667D01*
X14393095Y-13893571D01*
X14402619Y-13874524D01*
X14412143Y-13865000D01*
X14431190Y-13855476D01*
X14669286Y-13922143D02*
X14669286Y-14055476D01*
X14621667Y-13845952D02*
X14574048Y-13988809D01*
X14697857Y-13988809D01*
X14755000Y-13855476D02*
X14878809Y-13855476D01*
X14812143Y-13931667D01*
X14840714Y-13931667D01*
X14859762Y-13941190D01*
X14869286Y-13950714D01*
X14878809Y-13969762D01*
X14878809Y-14017381D01*
X14869286Y-14036428D01*
X14859762Y-14045952D01*
X14840714Y-14055476D01*
X14783571Y-14055476D01*
X14764524Y-14045952D01*
X14755000Y-14036428D01*
X14945476Y-13855476D02*
X15069286Y-13855476D01*
X15002619Y-13931667D01*
X15031190Y-13931667D01*
X15050238Y-13941190D01*
X15059762Y-13950714D01*
X15069286Y-13969762D01*
X15069286Y-14017381D01*
X15059762Y-14036428D01*
X15050238Y-14045952D01*
X15031190Y-14055476D01*
X14974048Y-14055476D01*
X14955000Y-14045952D01*
X14945476Y-14036428D01*
X15145476Y-13855476D02*
X15145476Y-13893571D01*
X15221667Y-13855476D02*
X15221667Y-13893571D01*
X15516905Y-14131667D02*
X15507381Y-14122143D01*
X15488333Y-14093571D01*
X15478809Y-14074524D01*
X15469286Y-14045952D01*
X15459762Y-13998333D01*
X15459762Y-13960238D01*
X15469286Y-13912619D01*
X15478809Y-13884048D01*
X15488333Y-13865000D01*
X15507381Y-13836428D01*
X15516905Y-13826905D01*
X15574048Y-13855476D02*
X15707381Y-13855476D01*
X15621667Y-14055476D01*
X15935952Y-14055476D02*
X15935952Y-13855476D01*
X16021667Y-14055476D02*
X16021667Y-13950714D01*
X16012143Y-13931667D01*
X15993095Y-13922143D01*
X15964524Y-13922143D01*
X15945476Y-13931667D01*
X15935952Y-13941190D01*
X16145476Y-14055476D02*
X16126428Y-14045952D01*
X16116905Y-14036428D01*
X16107381Y-14017381D01*
X16107381Y-13960238D01*
X16116905Y-13941190D01*
X16126428Y-13931667D01*
X16145476Y-13922143D01*
X16174048Y-13922143D01*
X16193095Y-13931667D01*
X16202619Y-13941190D01*
X16212143Y-13960238D01*
X16212143Y-14017381D01*
X16202619Y-14036428D01*
X16193095Y-14045952D01*
X16174048Y-14055476D01*
X16145476Y-14055476D01*
X16326428Y-14055476D02*
X16307381Y-14045952D01*
X16297857Y-14026905D01*
X16297857Y-13855476D01*
X16478809Y-14045952D02*
X16459762Y-14055476D01*
X16421667Y-14055476D01*
X16402619Y-14045952D01*
X16393095Y-14026905D01*
X16393095Y-13950714D01*
X16402619Y-13931667D01*
X16421667Y-13922143D01*
X16459762Y-13922143D01*
X16478809Y-13931667D01*
X16488333Y-13950714D01*
X16488333Y-13969762D01*
X16393095Y-13988809D01*
X16564524Y-14045952D02*
X16583571Y-14055476D01*
X16621667Y-14055476D01*
X16640714Y-14045952D01*
X16650238Y-14026905D01*
X16650238Y-14017381D01*
X16640714Y-13998333D01*
X16621667Y-13988809D01*
X16593095Y-13988809D01*
X16574048Y-13979286D01*
X16564524Y-13960238D01*
X16564524Y-13950714D01*
X16574048Y-13931667D01*
X16593095Y-13922143D01*
X16621667Y-13922143D01*
X16640714Y-13931667D01*
X16716905Y-14131667D02*
X16726428Y-14122143D01*
X16745476Y-14093571D01*
X16755000Y-14074524D01*
X16764524Y-14045952D01*
X16774048Y-13998333D01*
X16774048Y-13960238D01*
X16764524Y-13912619D01*
X16755000Y-13884048D01*
X16745476Y-13865000D01*
X16726428Y-13836428D01*
X16716905Y-13826905D01*
D18*
X11825000Y-14169000D02*
X11945000Y-14289000D01*
X11945000Y-14169000D02*
X11825000Y-14289000D01*
X11885000Y-14169000D02*
X11885000Y-14289000D01*
X11825000Y-14229000D02*
X11945000Y-14229000D01*
D11*
X12307381Y-14319476D02*
X12193095Y-14319476D01*
X12250238Y-14319476D02*
X12250238Y-14119476D01*
X12231190Y-14148048D01*
X12212143Y-14167095D01*
X12193095Y-14176619D01*
X12393095Y-14300428D02*
X12402619Y-14309952D01*
X12393095Y-14319476D01*
X12383571Y-14309952D01*
X12393095Y-14300428D01*
X12393095Y-14319476D01*
X12478809Y-14138524D02*
X12488333Y-14129000D01*
X12507381Y-14119476D01*
X12555000Y-14119476D01*
X12574048Y-14129000D01*
X12583571Y-14138524D01*
X12593095Y-14157571D01*
X12593095Y-14176619D01*
X12583571Y-14205190D01*
X12469286Y-14319476D01*
X12593095Y-14319476D01*
X12716905Y-14119476D02*
X12735952Y-14119476D01*
X12755000Y-14129000D01*
X12764524Y-14138524D01*
X12774048Y-14157571D01*
X12783571Y-14195667D01*
X12783571Y-14243286D01*
X12774048Y-14281381D01*
X12764524Y-14300428D01*
X12755000Y-14309952D01*
X12735952Y-14319476D01*
X12716905Y-14319476D01*
X12697857Y-14309952D01*
X12688333Y-14300428D01*
X12678809Y-14281381D01*
X12669286Y-14243286D01*
X12669286Y-14195667D01*
X12678809Y-14157571D01*
X12688333Y-14138524D01*
X12697857Y-14129000D01*
X12716905Y-14119476D01*
X12907381Y-14119476D02*
X12926428Y-14119476D01*
X12945476Y-14129000D01*
X12955000Y-14138524D01*
X12964524Y-14157571D01*
X12974048Y-14195667D01*
X12974048Y-14243286D01*
X12964524Y-14281381D01*
X12955000Y-14300428D01*
X12945476Y-14309952D01*
X12926428Y-14319476D01*
X12907381Y-14319476D01*
X12888333Y-14309952D01*
X12878809Y-14300428D01*
X12869286Y-14281381D01*
X12859762Y-14243286D01*
X12859762Y-14195667D01*
X12869286Y-14157571D01*
X12878809Y-14138524D01*
X12888333Y-14129000D01*
X12907381Y-14119476D01*
X13059762Y-14319476D02*
X13059762Y-14186143D01*
X13059762Y-14205190D02*
X13069286Y-14195667D01*
X13088333Y-14186143D01*
X13116905Y-14186143D01*
X13135952Y-14195667D01*
X13145476Y-14214714D01*
X13145476Y-14319476D01*
X13145476Y-14214714D02*
X13155000Y-14195667D01*
X13174048Y-14186143D01*
X13202619Y-14186143D01*
X13221667Y-14195667D01*
X13231190Y-14214714D01*
X13231190Y-14319476D01*
X13326428Y-14319476D02*
X13326428Y-14186143D01*
X13326428Y-14205190D02*
X13335952Y-14195667D01*
X13355000Y-14186143D01*
X13383571Y-14186143D01*
X13402619Y-14195667D01*
X13412143Y-14214714D01*
X13412143Y-14319476D01*
X13412143Y-14214714D02*
X13421667Y-14195667D01*
X13440714Y-14186143D01*
X13469286Y-14186143D01*
X13488333Y-14195667D01*
X13497857Y-14214714D01*
X13497857Y-14319476D01*
X13888333Y-14109952D02*
X13716905Y-14367095D01*
X14145476Y-14119476D02*
X14164524Y-14119476D01*
X14183571Y-14129000D01*
X14193095Y-14138524D01*
X14202619Y-14157571D01*
X14212143Y-14195667D01*
X14212143Y-14243286D01*
X14202619Y-14281381D01*
X14193095Y-14300428D01*
X14183571Y-14309952D01*
X14164524Y-14319476D01*
X14145476Y-14319476D01*
X14126428Y-14309952D01*
X14116905Y-14300428D01*
X14107381Y-14281381D01*
X14097857Y-14243286D01*
X14097857Y-14195667D01*
X14107381Y-14157571D01*
X14116905Y-14138524D01*
X14126428Y-14129000D01*
X14145476Y-14119476D01*
X14297857Y-14300428D02*
X14307381Y-14309952D01*
X14297857Y-14319476D01*
X14288333Y-14309952D01*
X14297857Y-14300428D01*
X14297857Y-14319476D01*
X14431190Y-14119476D02*
X14450238Y-14119476D01*
X14469286Y-14129000D01*
X14478809Y-14138524D01*
X14488333Y-14157571D01*
X14497857Y-14195667D01*
X14497857Y-14243286D01*
X14488333Y-14281381D01*
X14478809Y-14300428D01*
X14469286Y-14309952D01*
X14450238Y-14319476D01*
X14431190Y-14319476D01*
X14412143Y-14309952D01*
X14402619Y-14300428D01*
X14393095Y-14281381D01*
X14383571Y-14243286D01*
X14383571Y-14195667D01*
X14393095Y-14157571D01*
X14402619Y-14138524D01*
X14412143Y-14129000D01*
X14431190Y-14119476D01*
X14669286Y-14186143D02*
X14669286Y-14319476D01*
X14621667Y-14109952D02*
X14574048Y-14252809D01*
X14697857Y-14252809D01*
X14755000Y-14119476D02*
X14888333Y-14119476D01*
X14802619Y-14319476D01*
X14955000Y-14138524D02*
X14964524Y-14129000D01*
X14983571Y-14119476D01*
X15031190Y-14119476D01*
X15050238Y-14129000D01*
X15059762Y-14138524D01*
X15069286Y-14157571D01*
X15069286Y-14176619D01*
X15059762Y-14205190D01*
X14945476Y-14319476D01*
X15069286Y-14319476D01*
X15145476Y-14119476D02*
X15145476Y-14157571D01*
X15221667Y-14119476D02*
X15221667Y-14157571D01*
X15516905Y-14395667D02*
X15507381Y-14386143D01*
X15488333Y-14357571D01*
X15478809Y-14338524D01*
X15469286Y-14309952D01*
X15459762Y-14262333D01*
X15459762Y-14224238D01*
X15469286Y-14176619D01*
X15478809Y-14148048D01*
X15488333Y-14129000D01*
X15507381Y-14100428D01*
X15516905Y-14090905D01*
X15574048Y-14119476D02*
X15707381Y-14119476D01*
X15621667Y-14319476D01*
X15935952Y-14319476D02*
X15935952Y-14119476D01*
X16021667Y-14319476D02*
X16021667Y-14214714D01*
X16012143Y-14195667D01*
X15993095Y-14186143D01*
X15964524Y-14186143D01*
X15945476Y-14195667D01*
X15935952Y-14205190D01*
X16145476Y-14319476D02*
X16126428Y-14309952D01*
X16116905Y-14300428D01*
X16107381Y-14281381D01*
X16107381Y-14224238D01*
X16116905Y-14205190D01*
X16126428Y-14195667D01*
X16145476Y-14186143D01*
X16174048Y-14186143D01*
X16193095Y-14195667D01*
X16202619Y-14205190D01*
X16212143Y-14224238D01*
X16212143Y-14281381D01*
X16202619Y-14300428D01*
X16193095Y-14309952D01*
X16174048Y-14319476D01*
X16145476Y-14319476D01*
X16326428Y-14319476D02*
X16307381Y-14309952D01*
X16297857Y-14290905D01*
X16297857Y-14119476D01*
X16478809Y-14309952D02*
X16459762Y-14319476D01*
X16421667Y-14319476D01*
X16402619Y-14309952D01*
X16393095Y-14290905D01*
X16393095Y-14214714D01*
X16402619Y-14195667D01*
X16421667Y-14186143D01*
X16459762Y-14186143D01*
X16478809Y-14195667D01*
X16488333Y-14214714D01*
X16488333Y-14233762D01*
X16393095Y-14252809D01*
X16564524Y-14309952D02*
X16583571Y-14319476D01*
X16621667Y-14319476D01*
X16640714Y-14309952D01*
X16650238Y-14290905D01*
X16650238Y-14281381D01*
X16640714Y-14262333D01*
X16621667Y-14252809D01*
X16593095Y-14252809D01*
X16574048Y-14243286D01*
X16564524Y-14224238D01*
X16564524Y-14214714D01*
X16574048Y-14195667D01*
X16593095Y-14186143D01*
X16621667Y-14186143D01*
X16640714Y-14195667D01*
X16716905Y-14395667D02*
X16726428Y-14386143D01*
X16745476Y-14357571D01*
X16755000Y-14338524D01*
X16764524Y-14309952D01*
X16774048Y-14262333D01*
X16774048Y-14224238D01*
X16764524Y-14176619D01*
X16755000Y-14148048D01*
X16745476Y-14129000D01*
X16726428Y-14100428D01*
X16716905Y-14090905D01*
D19*
X11815000Y-14428000D02*
X11945000Y-14558000D01*
X11945000Y-14428000D02*
X11815000Y-14558000D01*
X11925962Y-14538962D02*
X11925962Y-14447038D01*
X11834038Y-14447038D01*
X11834038Y-14538962D01*
X11925962Y-14538962D01*
D11*
X12307381Y-14583476D02*
X12193095Y-14583476D01*
X12250238Y-14583476D02*
X12250238Y-14383476D01*
X12231190Y-14412048D01*
X12212143Y-14431095D01*
X12193095Y-14440619D01*
X12393095Y-14564428D02*
X12402619Y-14573952D01*
X12393095Y-14583476D01*
X12383571Y-14573952D01*
X12393095Y-14564428D01*
X12393095Y-14583476D01*
X12469286Y-14383476D02*
X12593095Y-14383476D01*
X12526428Y-14459667D01*
X12555000Y-14459667D01*
X12574048Y-14469190D01*
X12583571Y-14478714D01*
X12593095Y-14497762D01*
X12593095Y-14545381D01*
X12583571Y-14564428D01*
X12574048Y-14573952D01*
X12555000Y-14583476D01*
X12497857Y-14583476D01*
X12478809Y-14573952D01*
X12469286Y-14564428D01*
X12716905Y-14383476D02*
X12735952Y-14383476D01*
X12755000Y-14393000D01*
X12764524Y-14402524D01*
X12774048Y-14421571D01*
X12783571Y-14459667D01*
X12783571Y-14507286D01*
X12774048Y-14545381D01*
X12764524Y-14564428D01*
X12755000Y-14573952D01*
X12735952Y-14583476D01*
X12716905Y-14583476D01*
X12697857Y-14573952D01*
X12688333Y-14564428D01*
X12678809Y-14545381D01*
X12669286Y-14507286D01*
X12669286Y-14459667D01*
X12678809Y-14421571D01*
X12688333Y-14402524D01*
X12697857Y-14393000D01*
X12716905Y-14383476D01*
X12907381Y-14383476D02*
X12926428Y-14383476D01*
X12945476Y-14393000D01*
X12955000Y-14402524D01*
X12964524Y-14421571D01*
X12974048Y-14459667D01*
X12974048Y-14507286D01*
X12964524Y-14545381D01*
X12955000Y-14564428D01*
X12945476Y-14573952D01*
X12926428Y-14583476D01*
X12907381Y-14583476D01*
X12888333Y-14573952D01*
X12878809Y-14564428D01*
X12869286Y-14545381D01*
X12859762Y-14507286D01*
X12859762Y-14459667D01*
X12869286Y-14421571D01*
X12878809Y-14402524D01*
X12888333Y-14393000D01*
X12907381Y-14383476D01*
X13059762Y-14583476D02*
X13059762Y-14450143D01*
X13059762Y-14469190D02*
X13069286Y-14459667D01*
X13088333Y-14450143D01*
X13116905Y-14450143D01*
X13135952Y-14459667D01*
X13145476Y-14478714D01*
X13145476Y-14583476D01*
X13145476Y-14478714D02*
X13155000Y-14459667D01*
X13174048Y-14450143D01*
X13202619Y-14450143D01*
X13221667Y-14459667D01*
X13231190Y-14478714D01*
X13231190Y-14583476D01*
X13326428Y-14583476D02*
X13326428Y-14450143D01*
X13326428Y-14469190D02*
X13335952Y-14459667D01*
X13355000Y-14450143D01*
X13383571Y-14450143D01*
X13402619Y-14459667D01*
X13412143Y-14478714D01*
X13412143Y-14583476D01*
X13412143Y-14478714D02*
X13421667Y-14459667D01*
X13440714Y-14450143D01*
X13469286Y-14450143D01*
X13488333Y-14459667D01*
X13497857Y-14478714D01*
X13497857Y-14583476D01*
X13888333Y-14373952D02*
X13716905Y-14631095D01*
X14145476Y-14383476D02*
X14164524Y-14383476D01*
X14183571Y-14393000D01*
X14193095Y-14402524D01*
X14202619Y-14421571D01*
X14212143Y-14459667D01*
X14212143Y-14507286D01*
X14202619Y-14545381D01*
X14193095Y-14564428D01*
X14183571Y-14573952D01*
X14164524Y-14583476D01*
X14145476Y-14583476D01*
X14126428Y-14573952D01*
X14116905Y-14564428D01*
X14107381Y-14545381D01*
X14097857Y-14507286D01*
X14097857Y-14459667D01*
X14107381Y-14421571D01*
X14116905Y-14402524D01*
X14126428Y-14393000D01*
X14145476Y-14383476D01*
X14297857Y-14564428D02*
X14307381Y-14573952D01*
X14297857Y-14583476D01*
X14288333Y-14573952D01*
X14297857Y-14564428D01*
X14297857Y-14583476D01*
X14431190Y-14383476D02*
X14450238Y-14383476D01*
X14469286Y-14393000D01*
X14478809Y-14402524D01*
X14488333Y-14421571D01*
X14497857Y-14459667D01*
X14497857Y-14507286D01*
X14488333Y-14545381D01*
X14478809Y-14564428D01*
X14469286Y-14573952D01*
X14450238Y-14583476D01*
X14431190Y-14583476D01*
X14412143Y-14573952D01*
X14402619Y-14564428D01*
X14393095Y-14545381D01*
X14383571Y-14507286D01*
X14383571Y-14459667D01*
X14393095Y-14421571D01*
X14402619Y-14402524D01*
X14412143Y-14393000D01*
X14431190Y-14383476D01*
X14678809Y-14383476D02*
X14583571Y-14383476D01*
X14574048Y-14478714D01*
X14583571Y-14469190D01*
X14602619Y-14459667D01*
X14650238Y-14459667D01*
X14669286Y-14469190D01*
X14678809Y-14478714D01*
X14688333Y-14497762D01*
X14688333Y-14545381D01*
X14678809Y-14564428D01*
X14669286Y-14573952D01*
X14650238Y-14583476D01*
X14602619Y-14583476D01*
X14583571Y-14573952D01*
X14574048Y-14564428D01*
X14878809Y-14583476D02*
X14764524Y-14583476D01*
X14821667Y-14583476D02*
X14821667Y-14383476D01*
X14802619Y-14412048D01*
X14783571Y-14431095D01*
X14764524Y-14440619D01*
X14955000Y-14402524D02*
X14964524Y-14393000D01*
X14983571Y-14383476D01*
X15031190Y-14383476D01*
X15050238Y-14393000D01*
X15059762Y-14402524D01*
X15069286Y-14421571D01*
X15069286Y-14440619D01*
X15059762Y-14469190D01*
X14945476Y-14583476D01*
X15069286Y-14583476D01*
X15145476Y-14383476D02*
X15145476Y-14421571D01*
X15221667Y-14383476D02*
X15221667Y-14421571D01*
X15516905Y-14659667D02*
X15507381Y-14650143D01*
X15488333Y-14621571D01*
X15478809Y-14602524D01*
X15469286Y-14573952D01*
X15459762Y-14526333D01*
X15459762Y-14488238D01*
X15469286Y-14440619D01*
X15478809Y-14412048D01*
X15488333Y-14393000D01*
X15507381Y-14364428D01*
X15516905Y-14354905D01*
X15678809Y-14450143D02*
X15678809Y-14583476D01*
X15631190Y-14373952D02*
X15583571Y-14516809D01*
X15707381Y-14516809D01*
X15935952Y-14583476D02*
X15935952Y-14383476D01*
X16021667Y-14583476D02*
X16021667Y-14478714D01*
X16012143Y-14459667D01*
X15993095Y-14450143D01*
X15964524Y-14450143D01*
X15945476Y-14459667D01*
X15935952Y-14469190D01*
X16145476Y-14583476D02*
X16126428Y-14573952D01*
X16116905Y-14564428D01*
X16107381Y-14545381D01*
X16107381Y-14488238D01*
X16116905Y-14469190D01*
X16126428Y-14459667D01*
X16145476Y-14450143D01*
X16174048Y-14450143D01*
X16193095Y-14459667D01*
X16202619Y-14469190D01*
X16212143Y-14488238D01*
X16212143Y-14545381D01*
X16202619Y-14564428D01*
X16193095Y-14573952D01*
X16174048Y-14583476D01*
X16145476Y-14583476D01*
X16326428Y-14583476D02*
X16307381Y-14573952D01*
X16297857Y-14554905D01*
X16297857Y-14383476D01*
X16478809Y-14573952D02*
X16459762Y-14583476D01*
X16421667Y-14583476D01*
X16402619Y-14573952D01*
X16393095Y-14554905D01*
X16393095Y-14478714D01*
X16402619Y-14459667D01*
X16421667Y-14450143D01*
X16459762Y-14450143D01*
X16478809Y-14459667D01*
X16488333Y-14478714D01*
X16488333Y-14497762D01*
X16393095Y-14516809D01*
X16564524Y-14573952D02*
X16583571Y-14583476D01*
X16621667Y-14583476D01*
X16640714Y-14573952D01*
X16650238Y-14554905D01*
X16650238Y-14545381D01*
X16640714Y-14526333D01*
X16621667Y-14516809D01*
X16593095Y-14516809D01*
X16574048Y-14507286D01*
X16564524Y-14488238D01*
X16564524Y-14478714D01*
X16574048Y-14459667D01*
X16593095Y-14450143D01*
X16621667Y-14450143D01*
X16640714Y-14459667D01*
X16716905Y-14659667D02*
X16726428Y-14650143D01*
X16745476Y-14621571D01*
X16755000Y-14602524D01*
X16764524Y-14573952D01*
X16774048Y-14526333D01*
X16774048Y-14488238D01*
X16764524Y-14440619D01*
X16755000Y-14412048D01*
X16745476Y-14393000D01*
X16726428Y-14364428D01*
X16716905Y-14354905D01*
D20*
X11785000Y-14677000D02*
X11945000Y-14837000D01*
X11945000Y-14677000D02*
X11785000Y-14837000D01*
X11865000Y-14837000D02*
X11945000Y-14757000D01*
X11865000Y-14677000D01*
X11785000Y-14757000D01*
X11865000Y-14837000D01*
D11*
X12307381Y-14847476D02*
X12193095Y-14847476D01*
X12250238Y-14847476D02*
X12250238Y-14647476D01*
X12231190Y-14676048D01*
X12212143Y-14695095D01*
X12193095Y-14704619D01*
X12393095Y-14828428D02*
X12402619Y-14837952D01*
X12393095Y-14847476D01*
X12383571Y-14837952D01*
X12393095Y-14828428D01*
X12393095Y-14847476D01*
X12574048Y-14647476D02*
X12535952Y-14647476D01*
X12516905Y-14657000D01*
X12507381Y-14666524D01*
X12488333Y-14695095D01*
X12478809Y-14733190D01*
X12478809Y-14809381D01*
X12488333Y-14828428D01*
X12497857Y-14837952D01*
X12516905Y-14847476D01*
X12555000Y-14847476D01*
X12574048Y-14837952D01*
X12583571Y-14828428D01*
X12593095Y-14809381D01*
X12593095Y-14761762D01*
X12583571Y-14742714D01*
X12574048Y-14733190D01*
X12555000Y-14723667D01*
X12516905Y-14723667D01*
X12497857Y-14733190D01*
X12488333Y-14742714D01*
X12478809Y-14761762D01*
X12716905Y-14647476D02*
X12735952Y-14647476D01*
X12755000Y-14657000D01*
X12764524Y-14666524D01*
X12774048Y-14685571D01*
X12783571Y-14723667D01*
X12783571Y-14771286D01*
X12774048Y-14809381D01*
X12764524Y-14828428D01*
X12755000Y-14837952D01*
X12735952Y-14847476D01*
X12716905Y-14847476D01*
X12697857Y-14837952D01*
X12688333Y-14828428D01*
X12678809Y-14809381D01*
X12669286Y-14771286D01*
X12669286Y-14723667D01*
X12678809Y-14685571D01*
X12688333Y-14666524D01*
X12697857Y-14657000D01*
X12716905Y-14647476D01*
X12907381Y-14647476D02*
X12926428Y-14647476D01*
X12945476Y-14657000D01*
X12955000Y-14666524D01*
X12964524Y-14685571D01*
X12974048Y-14723667D01*
X12974048Y-14771286D01*
X12964524Y-14809381D01*
X12955000Y-14828428D01*
X12945476Y-14837952D01*
X12926428Y-14847476D01*
X12907381Y-14847476D01*
X12888333Y-14837952D01*
X12878809Y-14828428D01*
X12869286Y-14809381D01*
X12859762Y-14771286D01*
X12859762Y-14723667D01*
X12869286Y-14685571D01*
X12878809Y-14666524D01*
X12888333Y-14657000D01*
X12907381Y-14647476D01*
X13059762Y-14847476D02*
X13059762Y-14714143D01*
X13059762Y-14733190D02*
X13069286Y-14723667D01*
X13088333Y-14714143D01*
X13116905Y-14714143D01*
X13135952Y-14723667D01*
X13145476Y-14742714D01*
X13145476Y-14847476D01*
X13145476Y-14742714D02*
X13155000Y-14723667D01*
X13174048Y-14714143D01*
X13202619Y-14714143D01*
X13221667Y-14723667D01*
X13231190Y-14742714D01*
X13231190Y-14847476D01*
X13326428Y-14847476D02*
X13326428Y-14714143D01*
X13326428Y-14733190D02*
X13335952Y-14723667D01*
X13355000Y-14714143D01*
X13383571Y-14714143D01*
X13402619Y-14723667D01*
X13412143Y-14742714D01*
X13412143Y-14847476D01*
X13412143Y-14742714D02*
X13421667Y-14723667D01*
X13440714Y-14714143D01*
X13469286Y-14714143D01*
X13488333Y-14723667D01*
X13497857Y-14742714D01*
X13497857Y-14847476D01*
X13888333Y-14637952D02*
X13716905Y-14895095D01*
X14145476Y-14647476D02*
X14164524Y-14647476D01*
X14183571Y-14657000D01*
X14193095Y-14666524D01*
X14202619Y-14685571D01*
X14212143Y-14723667D01*
X14212143Y-14771286D01*
X14202619Y-14809381D01*
X14193095Y-14828428D01*
X14183571Y-14837952D01*
X14164524Y-14847476D01*
X14145476Y-14847476D01*
X14126428Y-14837952D01*
X14116905Y-14828428D01*
X14107381Y-14809381D01*
X14097857Y-14771286D01*
X14097857Y-14723667D01*
X14107381Y-14685571D01*
X14116905Y-14666524D01*
X14126428Y-14657000D01*
X14145476Y-14647476D01*
X14297857Y-14828428D02*
X14307381Y-14837952D01*
X14297857Y-14847476D01*
X14288333Y-14837952D01*
X14297857Y-14828428D01*
X14297857Y-14847476D01*
X14431190Y-14647476D02*
X14450238Y-14647476D01*
X14469286Y-14657000D01*
X14478809Y-14666524D01*
X14488333Y-14685571D01*
X14497857Y-14723667D01*
X14497857Y-14771286D01*
X14488333Y-14809381D01*
X14478809Y-14828428D01*
X14469286Y-14837952D01*
X14450238Y-14847476D01*
X14431190Y-14847476D01*
X14412143Y-14837952D01*
X14402619Y-14828428D01*
X14393095Y-14809381D01*
X14383571Y-14771286D01*
X14383571Y-14723667D01*
X14393095Y-14685571D01*
X14402619Y-14666524D01*
X14412143Y-14657000D01*
X14431190Y-14647476D01*
X14669286Y-14647476D02*
X14631190Y-14647476D01*
X14612143Y-14657000D01*
X14602619Y-14666524D01*
X14583571Y-14695095D01*
X14574048Y-14733190D01*
X14574048Y-14809381D01*
X14583571Y-14828428D01*
X14593095Y-14837952D01*
X14612143Y-14847476D01*
X14650238Y-14847476D01*
X14669286Y-14837952D01*
X14678809Y-14828428D01*
X14688333Y-14809381D01*
X14688333Y-14761762D01*
X14678809Y-14742714D01*
X14669286Y-14733190D01*
X14650238Y-14723667D01*
X14612143Y-14723667D01*
X14593095Y-14733190D01*
X14583571Y-14742714D01*
X14574048Y-14761762D01*
X14755000Y-14647476D02*
X14878809Y-14647476D01*
X14812143Y-14723667D01*
X14840714Y-14723667D01*
X14859762Y-14733190D01*
X14869286Y-14742714D01*
X14878809Y-14761762D01*
X14878809Y-14809381D01*
X14869286Y-14828428D01*
X14859762Y-14837952D01*
X14840714Y-14847476D01*
X14783571Y-14847476D01*
X14764524Y-14837952D01*
X14755000Y-14828428D01*
X15002619Y-14647476D02*
X15021667Y-14647476D01*
X15040714Y-14657000D01*
X15050238Y-14666524D01*
X15059762Y-14685571D01*
X15069286Y-14723667D01*
X15069286Y-14771286D01*
X15059762Y-14809381D01*
X15050238Y-14828428D01*
X15040714Y-14837952D01*
X15021667Y-14847476D01*
X15002619Y-14847476D01*
X14983571Y-14837952D01*
X14974048Y-14828428D01*
X14964524Y-14809381D01*
X14955000Y-14771286D01*
X14955000Y-14723667D01*
X14964524Y-14685571D01*
X14974048Y-14666524D01*
X14983571Y-14657000D01*
X15002619Y-14647476D01*
X15145476Y-14647476D02*
X15145476Y-14685571D01*
X15221667Y-14647476D02*
X15221667Y-14685571D01*
X15516905Y-14923667D02*
X15507381Y-14914143D01*
X15488333Y-14885571D01*
X15478809Y-14866524D01*
X15469286Y-14837952D01*
X15459762Y-14790333D01*
X15459762Y-14752238D01*
X15469286Y-14704619D01*
X15478809Y-14676048D01*
X15488333Y-14657000D01*
X15507381Y-14628428D01*
X15516905Y-14618905D01*
X15678809Y-14714143D02*
X15678809Y-14847476D01*
X15631190Y-14637952D02*
X15583571Y-14780809D01*
X15707381Y-14780809D01*
X15935952Y-14847476D02*
X15935952Y-14647476D01*
X16021667Y-14847476D02*
X16021667Y-14742714D01*
X16012143Y-14723667D01*
X15993095Y-14714143D01*
X15964524Y-14714143D01*
X15945476Y-14723667D01*
X15935952Y-14733190D01*
X16145476Y-14847476D02*
X16126428Y-14837952D01*
X16116905Y-14828428D01*
X16107381Y-14809381D01*
X16107381Y-14752238D01*
X16116905Y-14733190D01*
X16126428Y-14723667D01*
X16145476Y-14714143D01*
X16174048Y-14714143D01*
X16193095Y-14723667D01*
X16202619Y-14733190D01*
X16212143Y-14752238D01*
X16212143Y-14809381D01*
X16202619Y-14828428D01*
X16193095Y-14837952D01*
X16174048Y-14847476D01*
X16145476Y-14847476D01*
X16326428Y-14847476D02*
X16307381Y-14837952D01*
X16297857Y-14818905D01*
X16297857Y-14647476D01*
X16478809Y-14837952D02*
X16459762Y-14847476D01*
X16421667Y-14847476D01*
X16402619Y-14837952D01*
X16393095Y-14818905D01*
X16393095Y-14742714D01*
X16402619Y-14723667D01*
X16421667Y-14714143D01*
X16459762Y-14714143D01*
X16478809Y-14723667D01*
X16488333Y-14742714D01*
X16488333Y-14761762D01*
X16393095Y-14780809D01*
X16564524Y-14837952D02*
X16583571Y-14847476D01*
X16621667Y-14847476D01*
X16640714Y-14837952D01*
X16650238Y-14818905D01*
X16650238Y-14809381D01*
X16640714Y-14790333D01*
X16621667Y-14780809D01*
X16593095Y-14780809D01*
X16574048Y-14771286D01*
X16564524Y-14752238D01*
X16564524Y-14742714D01*
X16574048Y-14723667D01*
X16593095Y-14714143D01*
X16621667Y-14714143D01*
X16640714Y-14723667D01*
X16716905Y-14923667D02*
X16726428Y-14914143D01*
X16745476Y-14885571D01*
X16755000Y-14866524D01*
X16764524Y-14837952D01*
X16774048Y-14790333D01*
X16774048Y-14752238D01*
X16764524Y-14704619D01*
X16755000Y-14676048D01*
X16745476Y-14657000D01*
X16726428Y-14628428D01*
X16716905Y-14618905D01*
M02*
