G04 #@! TF.GenerationSoftware,KiCad,Pcbnew,8.0.2*
G04 #@! TF.CreationDate,2024-05-25T11:53:27+02:00*
G04 #@! TF.ProjectId,VFO na esp32,56464f20-6e61-4206-9573-7033322e6b69,rev?*
G04 #@! TF.SameCoordinates,Original*
G04 #@! TF.FileFunction,Copper,L1,Top*
G04 #@! TF.FilePolarity,Positive*
%FSLAX46Y46*%
G04 Gerber Fmt 4.6, Leading zero omitted, Abs format (unit mm)*
G04 Created by KiCad (PCBNEW 8.0.2) date 2024-05-25 11:53:27*
%MOMM*%
%LPD*%
G01*
G04 APERTURE LIST*
G04 Aperture macros list*
%AMRoundRect*
0 Rectangle with rounded corners*
0 $1 Rounding radius*
0 $2 $3 $4 $5 $6 $7 $8 $9 X,Y pos of 4 corners*
0 Add a 4 corners polygon primitive as box body*
4,1,4,$2,$3,$4,$5,$6,$7,$8,$9,$2,$3,0*
0 Add four circle primitives for the rounded corners*
1,1,$1+$1,$2,$3*
1,1,$1+$1,$4,$5*
1,1,$1+$1,$6,$7*
1,1,$1+$1,$8,$9*
0 Add four rect primitives between the rounded corners*
20,1,$1+$1,$2,$3,$4,$5,0*
20,1,$1+$1,$4,$5,$6,$7,0*
20,1,$1+$1,$6,$7,$8,$9,0*
20,1,$1+$1,$8,$9,$2,$3,0*%
G04 Aperture macros list end*
G04 #@! TA.AperFunction,ComponentPad*
%ADD10R,1.600000X1.600000*%
G04 #@! TD*
G04 #@! TA.AperFunction,ComponentPad*
%ADD11C,1.600000*%
G04 #@! TD*
G04 #@! TA.AperFunction,ComponentPad*
%ADD12C,2.200000*%
G04 #@! TD*
G04 #@! TA.AperFunction,ComponentPad*
%ADD13R,1.700000X1.700000*%
G04 #@! TD*
G04 #@! TA.AperFunction,ComponentPad*
%ADD14O,1.700000X1.700000*%
G04 #@! TD*
G04 #@! TA.AperFunction,ComponentPad*
%ADD15C,5.000000*%
G04 #@! TD*
G04 #@! TA.AperFunction,ComponentPad*
%ADD16O,1.600000X1.600000*%
G04 #@! TD*
G04 #@! TA.AperFunction,ComponentPad*
%ADD17C,7.000000*%
G04 #@! TD*
G04 #@! TA.AperFunction,ComponentPad*
%ADD18R,2.000000X2.000000*%
G04 #@! TD*
G04 #@! TA.AperFunction,ComponentPad*
%ADD19C,2.000000*%
G04 #@! TD*
G04 #@! TA.AperFunction,ComponentPad*
%ADD20R,3.200000X2.000000*%
G04 #@! TD*
G04 #@! TA.AperFunction,ComponentPad*
%ADD21R,2.400000X2.400000*%
G04 #@! TD*
G04 #@! TA.AperFunction,ComponentPad*
%ADD22O,2.400000X2.400000*%
G04 #@! TD*
G04 #@! TA.AperFunction,ComponentPad*
%ADD23RoundRect,0.250000X0.750000X-0.600000X0.750000X0.600000X-0.750000X0.600000X-0.750000X-0.600000X0*%
G04 #@! TD*
G04 #@! TA.AperFunction,ComponentPad*
%ADD24O,2.000000X1.700000*%
G04 #@! TD*
G04 #@! TA.AperFunction,ComponentPad*
%ADD25RoundRect,0.250000X0.600000X0.750000X-0.600000X0.750000X-0.600000X-0.750000X0.600000X-0.750000X0*%
G04 #@! TD*
G04 #@! TA.AperFunction,ComponentPad*
%ADD26O,1.700000X2.000000*%
G04 #@! TD*
G04 #@! TA.AperFunction,ComponentPad*
%ADD27R,2.000000X1.200000*%
G04 #@! TD*
G04 #@! TA.AperFunction,ComponentPad*
%ADD28O,2.000000X1.200000*%
G04 #@! TD*
G04 #@! TA.AperFunction,ComponentPad*
%ADD29R,2.000000X1.905000*%
G04 #@! TD*
G04 #@! TA.AperFunction,ComponentPad*
%ADD30O,2.000000X1.905000*%
G04 #@! TD*
G04 #@! TA.AperFunction,ComponentPad*
%ADD31RoundRect,0.250000X-0.725000X0.600000X-0.725000X-0.600000X0.725000X-0.600000X0.725000X0.600000X0*%
G04 #@! TD*
G04 #@! TA.AperFunction,ComponentPad*
%ADD32O,1.950000X1.700000*%
G04 #@! TD*
G04 #@! TA.AperFunction,Conductor*
%ADD33C,0.500000*%
G04 #@! TD*
G04 #@! TA.AperFunction,Conductor*
%ADD34C,1.000000*%
G04 #@! TD*
G04 APERTURE END LIST*
D10*
X199600000Y-72400000D03*
D11*
X199600000Y-68900000D03*
D10*
X157700000Y-69900000D03*
D11*
X157700000Y-73400000D03*
D10*
X113800000Y-67900000D03*
D11*
X113800000Y-62900000D03*
D12*
X154100000Y-84300000D03*
X154100000Y-86840000D03*
X154100000Y-89380000D03*
X154100000Y-91920000D03*
X154100000Y-94460000D03*
X154100000Y-97000000D03*
X154100000Y-99540000D03*
X154100000Y-102080000D03*
D10*
X146900000Y-99600000D03*
D11*
X146900000Y-104600000D03*
D13*
X142100000Y-65060000D03*
D14*
X142100000Y-67600000D03*
X142100000Y-70140000D03*
D15*
X239000000Y-129000000D03*
D11*
X176400000Y-95700000D03*
D16*
X176400000Y-105700000D03*
D10*
X108200000Y-124400000D03*
D11*
X113200000Y-124400000D03*
D15*
X102000000Y-66000000D03*
D17*
X177950000Y-67810000D03*
D13*
X154125000Y-84325000D03*
D14*
X154125000Y-86865000D03*
X154125000Y-89405000D03*
X154125000Y-91945000D03*
X154125000Y-94485000D03*
X154125000Y-97025000D03*
X154125000Y-99565000D03*
X154125000Y-102105000D03*
D18*
X225850000Y-90700000D03*
D19*
X225850000Y-95700000D03*
X225850000Y-93200000D03*
D20*
X233350000Y-87600000D03*
X233350000Y-98800000D03*
D19*
X240350000Y-95700000D03*
X240350000Y-90700000D03*
X159700000Y-126610000D03*
X153200000Y-126610000D03*
X159700000Y-122110000D03*
X153200000Y-122110000D03*
X190730000Y-126700000D03*
X184230000Y-126700000D03*
X190730000Y-122200000D03*
X184230000Y-122200000D03*
D21*
X184330000Y-72840000D03*
D22*
X194490000Y-72840000D03*
D10*
X157700000Y-62600000D03*
D11*
X157700000Y-67600000D03*
D23*
X228750000Y-70790000D03*
D24*
X228750000Y-68290000D03*
D11*
X146600000Y-94580000D03*
D16*
X146600000Y-84420000D03*
D19*
X175200000Y-126670000D03*
X168700000Y-126670000D03*
X175200000Y-122170000D03*
X168700000Y-122170000D03*
D11*
X163050000Y-90670000D03*
D16*
X173210000Y-90670000D03*
D25*
X190600000Y-66360000D03*
D26*
X188100000Y-66360000D03*
D17*
X219150000Y-67830000D03*
D10*
X212700000Y-74600000D03*
D11*
X212700000Y-79600000D03*
D15*
X203000000Y-80100000D03*
D10*
X137400000Y-97900000D03*
D11*
X137400000Y-92900000D03*
D15*
X239000000Y-66000000D03*
D11*
X176400000Y-80720000D03*
D16*
X176400000Y-90720000D03*
D15*
X102000000Y-129000000D03*
D10*
X146910000Y-108770000D03*
D11*
X146910000Y-113770000D03*
X173200000Y-95700000D03*
D16*
X163040000Y-95700000D03*
D15*
X202900000Y-106700000D03*
D19*
X206290000Y-126670000D03*
X199790000Y-126670000D03*
X206290000Y-122170000D03*
X199790000Y-122170000D03*
D27*
X104200000Y-116703440D03*
D28*
X104200000Y-114163440D03*
X104200000Y-111623440D03*
X104200000Y-109083440D03*
X104200000Y-106543440D03*
X104200000Y-104003440D03*
X104200000Y-101463440D03*
X104200000Y-98923440D03*
X104200000Y-96383440D03*
X104200000Y-93843440D03*
X104200000Y-91303440D03*
X104200000Y-88763440D03*
X104200000Y-86223440D03*
X104200000Y-83683440D03*
X104200000Y-81143440D03*
X104200000Y-78603440D03*
X104200000Y-76063440D03*
X104200000Y-73523440D03*
X104200000Y-70983440D03*
X129596320Y-70986160D03*
X129596320Y-73526160D03*
X129600000Y-76063440D03*
X129600000Y-78603440D03*
X129600000Y-81143440D03*
X129600000Y-83683440D03*
X129600000Y-86223440D03*
X129600000Y-88763440D03*
X129600000Y-91303440D03*
X129600000Y-93843440D03*
X129600000Y-96383440D03*
X129600000Y-98923440D03*
X129600000Y-101463440D03*
X129600000Y-104003440D03*
X129600000Y-106543440D03*
X129600000Y-109083440D03*
X129600000Y-111623440D03*
X129600000Y-114163440D03*
X129600000Y-116703440D03*
D29*
X162150000Y-70310000D03*
D30*
X162150000Y-67770000D03*
X162150000Y-65230000D03*
D29*
X203330000Y-70400000D03*
D30*
X203330000Y-67860000D03*
X203330000Y-65320000D03*
D31*
X136700000Y-102350000D03*
D32*
X136700000Y-104850000D03*
X136700000Y-107350000D03*
X136700000Y-109850000D03*
D33*
X144210000Y-92090000D02*
X149690000Y-92090000D01*
X142100000Y-108700000D02*
X142100000Y-94200000D01*
X149690000Y-92090000D02*
X152060000Y-94460000D01*
X136636560Y-114163440D02*
X142100000Y-108700000D01*
X152060000Y-94460000D02*
X154100000Y-94460000D01*
X129600000Y-114163440D02*
X136636560Y-114163440D01*
X142100000Y-94200000D02*
X144210000Y-92090000D01*
D34*
X147600000Y-94580000D02*
X146600000Y-94580000D01*
X149800000Y-96780000D02*
X147600000Y-94580000D01*
X149800000Y-103370000D02*
X149800000Y-96780000D01*
D33*
X163020000Y-90700000D02*
X163050000Y-90670000D01*
D34*
X162400000Y-104600000D02*
X163020000Y-103980000D01*
X151030000Y-104600000D02*
X162400000Y-104600000D01*
X163020000Y-103980000D02*
X163020000Y-90700000D01*
X151030000Y-104600000D02*
X149800000Y-103370000D01*
X104200000Y-117500000D02*
X104200000Y-116703440D01*
X105700000Y-119000000D02*
X104200000Y-117500000D01*
X144600000Y-109950000D02*
X135550000Y-119000000D01*
X144600000Y-96580000D02*
X144600000Y-109950000D01*
X135550000Y-119000000D02*
X105700000Y-119000000D01*
D33*
X144600000Y-109350000D02*
X144600000Y-108890000D01*
X144720000Y-108770000D02*
X144600000Y-108890000D01*
D34*
X146910000Y-108770000D02*
X144720000Y-108770000D01*
D33*
X144600000Y-108890000D02*
X144600000Y-108600000D01*
D34*
X144600000Y-96580000D02*
X146600000Y-94580000D01*
D33*
X144600000Y-108600000D02*
X144600000Y-96580000D01*
X170400000Y-87930000D02*
X173180000Y-90710000D01*
X166700000Y-79900000D02*
X170400000Y-83600000D01*
X139400000Y-79900000D02*
X166700000Y-79900000D01*
X130536560Y-88763440D02*
X139400000Y-79900000D01*
X129600000Y-88763440D02*
X130536560Y-88763440D01*
X170400000Y-83600000D02*
X170400000Y-87930000D01*
X165180000Y-82300000D02*
X167300000Y-84420000D01*
X167300000Y-84420000D02*
X167300000Y-92600000D01*
X131496560Y-91303440D02*
X140500000Y-82300000D01*
X129600000Y-91303440D02*
X131496560Y-91303440D01*
X170400000Y-95700000D02*
X172980000Y-95700000D01*
X167300000Y-92600000D02*
X170400000Y-95700000D01*
X140500000Y-82300000D02*
X165180000Y-82300000D01*
X153900000Y-92080000D02*
X153620000Y-91800000D01*
G04 #@! TA.AperFunction,Conductor*
G36*
X245342539Y-60820185D02*
G01*
X245388294Y-60872989D01*
X245399500Y-60924500D01*
X245399500Y-134675500D01*
X245379815Y-134742539D01*
X245327011Y-134788294D01*
X245275500Y-134799500D01*
X96524500Y-134799500D01*
X96457461Y-134779815D01*
X96411706Y-134727011D01*
X96400500Y-134675500D01*
X96400500Y-123552135D01*
X106899500Y-123552135D01*
X106899500Y-125247870D01*
X106899501Y-125247876D01*
X106905908Y-125307483D01*
X106956202Y-125442328D01*
X106956206Y-125442335D01*
X107042452Y-125557544D01*
X107042455Y-125557547D01*
X107157664Y-125643793D01*
X107157671Y-125643797D01*
X107292517Y-125694091D01*
X107292516Y-125694091D01*
X107299444Y-125694835D01*
X107352127Y-125700500D01*
X109047872Y-125700499D01*
X109107483Y-125694091D01*
X109242331Y-125643796D01*
X109357546Y-125557546D01*
X109443796Y-125442331D01*
X109494091Y-125307483D01*
X109500500Y-125247873D01*
X109500499Y-123552128D01*
X109494091Y-123492517D01*
X109470950Y-123430474D01*
X109443797Y-123357671D01*
X109443793Y-123357664D01*
X109357547Y-123242455D01*
X109357544Y-123242452D01*
X109242335Y-123156206D01*
X109242328Y-123156202D01*
X109107482Y-123105908D01*
X109107483Y-123105908D01*
X109047883Y-123099501D01*
X109047881Y-123099500D01*
X109047873Y-123099500D01*
X109047864Y-123099500D01*
X107352129Y-123099500D01*
X107352123Y-123099501D01*
X107292516Y-123105908D01*
X107157671Y-123156202D01*
X107157664Y-123156206D01*
X107042455Y-123242452D01*
X107042452Y-123242455D01*
X106956206Y-123357664D01*
X106956202Y-123357671D01*
X106905908Y-123492517D01*
X106899854Y-123548830D01*
X106899501Y-123552123D01*
X106899500Y-123552135D01*
X96400500Y-123552135D01*
X96400500Y-122109994D01*
X151694357Y-122109994D01*
X151694357Y-122110005D01*
X151714890Y-122357812D01*
X151714892Y-122357824D01*
X151775936Y-122598881D01*
X151875826Y-122826606D01*
X152011833Y-123034782D01*
X152011836Y-123034785D01*
X152180256Y-123217738D01*
X152376491Y-123370474D01*
X152595190Y-123488828D01*
X152830386Y-123569571D01*
X153075665Y-123610500D01*
X153324335Y-123610500D01*
X153569614Y-123569571D01*
X153804810Y-123488828D01*
X154023509Y-123370474D01*
X154219744Y-123217738D01*
X154388164Y-123034785D01*
X154524173Y-122826607D01*
X154624063Y-122598881D01*
X154685108Y-122357821D01*
X154698185Y-122200005D01*
X154705643Y-122110005D01*
X154705643Y-122109994D01*
X158194357Y-122109994D01*
X158194357Y-122110005D01*
X158214890Y-122357812D01*
X158214892Y-122357824D01*
X158275936Y-122598881D01*
X158375826Y-122826606D01*
X158511833Y-123034782D01*
X158511836Y-123034785D01*
X158680256Y-123217738D01*
X158876491Y-123370474D01*
X159095190Y-123488828D01*
X159330386Y-123569571D01*
X159575665Y-123610500D01*
X159824335Y-123610500D01*
X160069614Y-123569571D01*
X160304810Y-123488828D01*
X160523509Y-123370474D01*
X160719744Y-123217738D01*
X160888164Y-123034785D01*
X161024173Y-122826607D01*
X161124063Y-122598881D01*
X161185108Y-122357821D01*
X161198185Y-122200005D01*
X161200672Y-122169994D01*
X167194357Y-122169994D01*
X167194357Y-122170005D01*
X167214890Y-122417812D01*
X167214892Y-122417824D01*
X167275936Y-122658881D01*
X167375826Y-122886606D01*
X167511833Y-123094782D01*
X167511836Y-123094785D01*
X167680256Y-123277738D01*
X167876491Y-123430474D01*
X168095190Y-123548828D01*
X168330386Y-123629571D01*
X168575665Y-123670500D01*
X168824335Y-123670500D01*
X169069614Y-123629571D01*
X169304810Y-123548828D01*
X169523509Y-123430474D01*
X169719744Y-123277738D01*
X169888164Y-123094785D01*
X170024173Y-122886607D01*
X170124063Y-122658881D01*
X170185108Y-122417821D01*
X170185109Y-122417812D01*
X170205643Y-122170005D01*
X170205643Y-122169994D01*
X173694357Y-122169994D01*
X173694357Y-122170005D01*
X173714890Y-122417812D01*
X173714892Y-122417824D01*
X173775936Y-122658881D01*
X173875826Y-122886606D01*
X174011833Y-123094782D01*
X174011836Y-123094785D01*
X174180256Y-123277738D01*
X174376491Y-123430474D01*
X174595190Y-123548828D01*
X174830386Y-123629571D01*
X175075665Y-123670500D01*
X175324335Y-123670500D01*
X175569614Y-123629571D01*
X175804810Y-123548828D01*
X176023509Y-123430474D01*
X176219744Y-123277738D01*
X176388164Y-123094785D01*
X176524173Y-122886607D01*
X176624063Y-122658881D01*
X176685108Y-122417821D01*
X176685109Y-122417812D01*
X176703158Y-122199994D01*
X182724357Y-122199994D01*
X182724357Y-122200005D01*
X182744890Y-122447812D01*
X182744892Y-122447824D01*
X182805936Y-122688881D01*
X182905826Y-122916606D01*
X183041833Y-123124782D01*
X183041836Y-123124785D01*
X183210256Y-123307738D01*
X183406491Y-123460474D01*
X183406493Y-123460475D01*
X183608084Y-123569571D01*
X183625190Y-123578828D01*
X183860386Y-123659571D01*
X184105665Y-123700500D01*
X184354335Y-123700500D01*
X184599614Y-123659571D01*
X184834810Y-123578828D01*
X185053509Y-123460474D01*
X185249744Y-123307738D01*
X185418164Y-123124785D01*
X185554173Y-122916607D01*
X185654063Y-122688881D01*
X185715108Y-122447821D01*
X185717595Y-122417812D01*
X185735643Y-122200005D01*
X185735643Y-122199994D01*
X189224357Y-122199994D01*
X189224357Y-122200005D01*
X189244890Y-122447812D01*
X189244892Y-122447824D01*
X189305936Y-122688881D01*
X189405826Y-122916606D01*
X189541833Y-123124782D01*
X189541836Y-123124785D01*
X189710256Y-123307738D01*
X189906491Y-123460474D01*
X189906493Y-123460475D01*
X190108084Y-123569571D01*
X190125190Y-123578828D01*
X190360386Y-123659571D01*
X190605665Y-123700500D01*
X190854335Y-123700500D01*
X191099614Y-123659571D01*
X191334810Y-123578828D01*
X191553509Y-123460474D01*
X191749744Y-123307738D01*
X191918164Y-123124785D01*
X192054173Y-122916607D01*
X192154063Y-122688881D01*
X192215108Y-122447821D01*
X192217595Y-122417812D01*
X192235643Y-122200005D01*
X192235643Y-122199994D01*
X192233157Y-122169994D01*
X198284357Y-122169994D01*
X198284357Y-122170005D01*
X198304890Y-122417812D01*
X198304892Y-122417824D01*
X198365936Y-122658881D01*
X198465826Y-122886606D01*
X198601833Y-123094782D01*
X198601836Y-123094785D01*
X198770256Y-123277738D01*
X198966491Y-123430474D01*
X199185190Y-123548828D01*
X199420386Y-123629571D01*
X199665665Y-123670500D01*
X199914335Y-123670500D01*
X200159614Y-123629571D01*
X200394810Y-123548828D01*
X200613509Y-123430474D01*
X200809744Y-123277738D01*
X200978164Y-123094785D01*
X201114173Y-122886607D01*
X201214063Y-122658881D01*
X201275108Y-122417821D01*
X201275109Y-122417812D01*
X201295643Y-122170005D01*
X201295643Y-122169994D01*
X204784357Y-122169994D01*
X204784357Y-122170005D01*
X204804890Y-122417812D01*
X204804892Y-122417824D01*
X204865936Y-122658881D01*
X204965826Y-122886606D01*
X205101833Y-123094782D01*
X205101836Y-123094785D01*
X205270256Y-123277738D01*
X205466491Y-123430474D01*
X205685190Y-123548828D01*
X205920386Y-123629571D01*
X206165665Y-123670500D01*
X206414335Y-123670500D01*
X206659614Y-123629571D01*
X206894810Y-123548828D01*
X207113509Y-123430474D01*
X207309744Y-123277738D01*
X207478164Y-123094785D01*
X207614173Y-122886607D01*
X207714063Y-122658881D01*
X207775108Y-122417821D01*
X207775109Y-122417812D01*
X207795643Y-122170005D01*
X207795643Y-122169994D01*
X207775109Y-121922187D01*
X207775107Y-121922175D01*
X207714063Y-121681118D01*
X207614173Y-121453393D01*
X207478166Y-121245217D01*
X207422930Y-121185215D01*
X207309744Y-121062262D01*
X207113509Y-120909526D01*
X207113507Y-120909525D01*
X207113506Y-120909524D01*
X206894811Y-120791172D01*
X206894802Y-120791169D01*
X206659616Y-120710429D01*
X206414335Y-120669500D01*
X206165665Y-120669500D01*
X205920383Y-120710429D01*
X205685197Y-120791169D01*
X205685188Y-120791172D01*
X205466493Y-120909524D01*
X205270257Y-121062261D01*
X205101833Y-121245217D01*
X204965826Y-121453393D01*
X204865936Y-121681118D01*
X204804892Y-121922175D01*
X204804890Y-121922187D01*
X204784357Y-122169994D01*
X201295643Y-122169994D01*
X201275109Y-121922187D01*
X201275107Y-121922175D01*
X201214063Y-121681118D01*
X201114173Y-121453393D01*
X200978166Y-121245217D01*
X200922930Y-121185215D01*
X200809744Y-121062262D01*
X200613509Y-120909526D01*
X200613507Y-120909525D01*
X200613506Y-120909524D01*
X200394811Y-120791172D01*
X200394802Y-120791169D01*
X200159616Y-120710429D01*
X199914335Y-120669500D01*
X199665665Y-120669500D01*
X199420383Y-120710429D01*
X199185197Y-120791169D01*
X199185188Y-120791172D01*
X198966493Y-120909524D01*
X198770257Y-121062261D01*
X198601833Y-121245217D01*
X198465826Y-121453393D01*
X198365936Y-121681118D01*
X198304892Y-121922175D01*
X198304890Y-121922187D01*
X198284357Y-122169994D01*
X192233157Y-122169994D01*
X192215109Y-121952187D01*
X192215107Y-121952175D01*
X192154063Y-121711118D01*
X192054173Y-121483393D01*
X191918166Y-121275217D01*
X191835313Y-121185215D01*
X191749744Y-121092262D01*
X191553509Y-120939526D01*
X191553507Y-120939525D01*
X191553506Y-120939524D01*
X191334811Y-120821172D01*
X191334802Y-120821169D01*
X191099616Y-120740429D01*
X190854335Y-120699500D01*
X190605665Y-120699500D01*
X190360383Y-120740429D01*
X190125197Y-120821169D01*
X190125188Y-120821172D01*
X189906493Y-120939524D01*
X189710257Y-121092261D01*
X189541833Y-121275217D01*
X189405826Y-121483393D01*
X189305936Y-121711118D01*
X189244892Y-121952175D01*
X189244890Y-121952187D01*
X189224357Y-122199994D01*
X185735643Y-122199994D01*
X185715109Y-121952187D01*
X185715107Y-121952175D01*
X185654063Y-121711118D01*
X185554173Y-121483393D01*
X185418166Y-121275217D01*
X185335313Y-121185215D01*
X185249744Y-121092262D01*
X185053509Y-120939526D01*
X185053507Y-120939525D01*
X185053506Y-120939524D01*
X184834811Y-120821172D01*
X184834802Y-120821169D01*
X184599616Y-120740429D01*
X184354335Y-120699500D01*
X184105665Y-120699500D01*
X183860383Y-120740429D01*
X183625197Y-120821169D01*
X183625188Y-120821172D01*
X183406493Y-120939524D01*
X183210257Y-121092261D01*
X183041833Y-121275217D01*
X182905826Y-121483393D01*
X182805936Y-121711118D01*
X182744892Y-121952175D01*
X182744890Y-121952187D01*
X182724357Y-122199994D01*
X176703158Y-122199994D01*
X176705643Y-122170005D01*
X176705643Y-122169994D01*
X176685109Y-121922187D01*
X176685107Y-121922175D01*
X176624063Y-121681118D01*
X176524173Y-121453393D01*
X176388166Y-121245217D01*
X176332930Y-121185215D01*
X176219744Y-121062262D01*
X176023509Y-120909526D01*
X176023507Y-120909525D01*
X176023506Y-120909524D01*
X175804811Y-120791172D01*
X175804802Y-120791169D01*
X175569616Y-120710429D01*
X175324335Y-120669500D01*
X175075665Y-120669500D01*
X174830383Y-120710429D01*
X174595197Y-120791169D01*
X174595188Y-120791172D01*
X174376493Y-120909524D01*
X174180257Y-121062261D01*
X174011833Y-121245217D01*
X173875826Y-121453393D01*
X173775936Y-121681118D01*
X173714892Y-121922175D01*
X173714890Y-121922187D01*
X173694357Y-122169994D01*
X170205643Y-122169994D01*
X170185109Y-121922187D01*
X170185107Y-121922175D01*
X170124063Y-121681118D01*
X170024173Y-121453393D01*
X169888166Y-121245217D01*
X169832930Y-121185215D01*
X169719744Y-121062262D01*
X169523509Y-120909526D01*
X169523507Y-120909525D01*
X169523506Y-120909524D01*
X169304811Y-120791172D01*
X169304802Y-120791169D01*
X169069616Y-120710429D01*
X168824335Y-120669500D01*
X168575665Y-120669500D01*
X168330383Y-120710429D01*
X168095197Y-120791169D01*
X168095188Y-120791172D01*
X167876493Y-120909524D01*
X167680257Y-121062261D01*
X167511833Y-121245217D01*
X167375826Y-121453393D01*
X167275936Y-121681118D01*
X167214892Y-121922175D01*
X167214890Y-121922187D01*
X167194357Y-122169994D01*
X161200672Y-122169994D01*
X161205643Y-122110005D01*
X161205643Y-122109994D01*
X161185109Y-121862187D01*
X161185107Y-121862175D01*
X161124063Y-121621118D01*
X161024173Y-121393393D01*
X160888166Y-121185217D01*
X160866557Y-121161744D01*
X160719744Y-121002262D01*
X160523509Y-120849526D01*
X160523507Y-120849525D01*
X160523506Y-120849524D01*
X160304811Y-120731172D01*
X160304802Y-120731169D01*
X160069616Y-120650429D01*
X159824335Y-120609500D01*
X159575665Y-120609500D01*
X159330383Y-120650429D01*
X159095197Y-120731169D01*
X159095188Y-120731172D01*
X158876493Y-120849524D01*
X158680257Y-121002261D01*
X158511833Y-121185217D01*
X158375826Y-121393393D01*
X158275936Y-121621118D01*
X158214892Y-121862175D01*
X158214890Y-121862187D01*
X158194357Y-122109994D01*
X154705643Y-122109994D01*
X154685109Y-121862187D01*
X154685107Y-121862175D01*
X154624063Y-121621118D01*
X154524173Y-121393393D01*
X154388166Y-121185217D01*
X154366557Y-121161744D01*
X154219744Y-121002262D01*
X154023509Y-120849526D01*
X154023507Y-120849525D01*
X154023506Y-120849524D01*
X153804811Y-120731172D01*
X153804802Y-120731169D01*
X153569616Y-120650429D01*
X153324335Y-120609500D01*
X153075665Y-120609500D01*
X152830383Y-120650429D01*
X152595197Y-120731169D01*
X152595188Y-120731172D01*
X152376493Y-120849524D01*
X152180257Y-121002261D01*
X152011833Y-121185217D01*
X151875826Y-121393393D01*
X151775936Y-121621118D01*
X151714892Y-121862175D01*
X151714890Y-121862187D01*
X151694357Y-122109994D01*
X96400500Y-122109994D01*
X96400500Y-116055575D01*
X102699500Y-116055575D01*
X102699500Y-117351310D01*
X102699501Y-117351316D01*
X102705908Y-117410923D01*
X102756202Y-117545768D01*
X102756206Y-117545775D01*
X102842452Y-117660984D01*
X102842455Y-117660987D01*
X102957664Y-117747233D01*
X102957671Y-117747237D01*
X103092516Y-117797531D01*
X103152117Y-117803939D01*
X103152118Y-117803939D01*
X103152127Y-117803940D01*
X103160100Y-117803939D01*
X103227138Y-117823618D01*
X103272898Y-117876418D01*
X103274669Y-117880487D01*
X103313364Y-117973907D01*
X103313371Y-117973920D01*
X103422859Y-118137780D01*
X103422860Y-118137781D01*
X103422861Y-118137782D01*
X103562218Y-118277139D01*
X103562219Y-118277139D01*
X103569286Y-118284206D01*
X103569285Y-118284206D01*
X103569288Y-118284208D01*
X104922860Y-119637781D01*
X104922861Y-119637782D01*
X105062218Y-119777139D01*
X105226086Y-119886632D01*
X105332745Y-119930811D01*
X105408164Y-119962051D01*
X105601454Y-120000499D01*
X105601457Y-120000500D01*
X105601459Y-120000500D01*
X135648542Y-120000500D01*
X135667870Y-119996655D01*
X135745188Y-119981275D01*
X135841836Y-119962051D01*
X135895165Y-119939961D01*
X136023914Y-119886632D01*
X136187782Y-119777139D01*
X136327139Y-119637782D01*
X136327139Y-119637780D01*
X136337347Y-119627573D01*
X136337348Y-119627570D01*
X145377140Y-110587781D01*
X145420465Y-110522940D01*
X145486632Y-110423914D01*
X145562051Y-110241835D01*
X145589605Y-110103313D01*
X145601689Y-110042566D01*
X145602923Y-110042811D01*
X145626613Y-109984117D01*
X145683641Y-109943749D01*
X145753440Y-109940620D01*
X145798178Y-109961775D01*
X145867665Y-110013793D01*
X145867668Y-110013795D01*
X145867671Y-110013797D01*
X146002517Y-110064091D01*
X146002516Y-110064091D01*
X146009444Y-110064835D01*
X146062127Y-110070500D01*
X147757872Y-110070499D01*
X147817483Y-110064091D01*
X147952331Y-110013796D01*
X148067546Y-109927546D01*
X148153796Y-109812331D01*
X148204091Y-109677483D01*
X148210500Y-109617873D01*
X148210499Y-107922128D01*
X148204091Y-107862517D01*
X148153796Y-107727669D01*
X148153795Y-107727668D01*
X148153793Y-107727664D01*
X148067547Y-107612455D01*
X148067544Y-107612452D01*
X147952335Y-107526206D01*
X147952328Y-107526202D01*
X147817482Y-107475908D01*
X147817483Y-107475908D01*
X147757883Y-107469501D01*
X147757881Y-107469500D01*
X147757873Y-107469500D01*
X147757864Y-107469500D01*
X146062129Y-107469500D01*
X146062123Y-107469501D01*
X146002516Y-107475908D01*
X145867671Y-107526202D01*
X145867668Y-107526204D01*
X145798811Y-107577751D01*
X145733347Y-107602168D01*
X145665074Y-107587316D01*
X145615668Y-107537911D01*
X145600500Y-107478484D01*
X145600500Y-100899001D01*
X145620185Y-100831962D01*
X145672989Y-100786207D01*
X145742147Y-100776263D01*
X145798810Y-100799734D01*
X145857665Y-100843793D01*
X145857668Y-100843795D01*
X145857671Y-100843797D01*
X145992517Y-100894091D01*
X145992516Y-100894091D01*
X145999444Y-100894835D01*
X146052127Y-100900500D01*
X147747872Y-100900499D01*
X147807483Y-100894091D01*
X147942331Y-100843796D01*
X148057546Y-100757546D01*
X148143796Y-100642331D01*
X148194091Y-100507483D01*
X148200500Y-100447873D01*
X148200499Y-98752128D01*
X148194091Y-98692517D01*
X148184103Y-98665739D01*
X148143797Y-98557671D01*
X148143793Y-98557664D01*
X148057547Y-98442455D01*
X148057544Y-98442452D01*
X147942335Y-98356206D01*
X147942328Y-98356202D01*
X147807482Y-98305908D01*
X147807483Y-98305908D01*
X147747883Y-98299501D01*
X147747881Y-98299500D01*
X147747873Y-98299500D01*
X147747864Y-98299500D01*
X146052129Y-98299500D01*
X146052123Y-98299501D01*
X145992516Y-98305908D01*
X145857671Y-98356202D01*
X145857668Y-98356204D01*
X145798811Y-98400265D01*
X145733347Y-98424682D01*
X145665074Y-98409830D01*
X145615668Y-98360425D01*
X145600500Y-98300998D01*
X145600500Y-97045781D01*
X145620185Y-96978742D01*
X145636814Y-96958104D01*
X146688033Y-95906885D01*
X146749354Y-95873402D01*
X146764898Y-95871041D01*
X146826692Y-95865635D01*
X147046496Y-95806739D01*
X147216951Y-95727253D01*
X147286026Y-95716762D01*
X147349810Y-95745281D01*
X147357035Y-95751955D01*
X148763181Y-97158101D01*
X148796666Y-97219424D01*
X148799500Y-97245782D01*
X148799500Y-103468544D01*
X148837947Y-103661833D01*
X148837949Y-103661837D01*
X148860038Y-103715164D01*
X148913366Y-103843911D01*
X148913371Y-103843920D01*
X149022859Y-104007780D01*
X149022860Y-104007781D01*
X149022861Y-104007782D01*
X149162218Y-104147139D01*
X149162219Y-104147139D01*
X149169286Y-104154206D01*
X149169285Y-104154206D01*
X149169289Y-104154209D01*
X150392215Y-105377137D01*
X150392219Y-105377140D01*
X150556079Y-105486628D01*
X150556085Y-105486631D01*
X150556086Y-105486632D01*
X150738165Y-105562052D01*
X150899389Y-105594121D01*
X150931457Y-105600499D01*
X150931458Y-105600500D01*
X150931459Y-105600500D01*
X162498542Y-105600500D01*
X162530614Y-105594120D01*
X162595188Y-105581275D01*
X162691836Y-105562051D01*
X162784744Y-105523567D01*
X162873914Y-105486632D01*
X163037782Y-105377139D01*
X163177139Y-105237782D01*
X163177140Y-105237779D01*
X163797139Y-104617782D01*
X163834129Y-104562421D01*
X163906631Y-104453916D01*
X163906636Y-104453906D01*
X163982049Y-104271839D01*
X163982051Y-104271835D01*
X164005449Y-104154209D01*
X164018212Y-104090048D01*
X164018977Y-104086194D01*
X164020500Y-104078541D01*
X164020500Y-103881460D01*
X164020500Y-96606152D01*
X164040185Y-96539113D01*
X164042925Y-96535029D01*
X164075740Y-96488163D01*
X164170568Y-96352734D01*
X164266739Y-96146496D01*
X164325635Y-95926692D01*
X164345468Y-95700000D01*
X164345467Y-95699994D01*
X164325635Y-95473313D01*
X164325635Y-95473308D01*
X164266739Y-95253504D01*
X164170568Y-95047266D01*
X164060500Y-94890071D01*
X164042925Y-94864970D01*
X164020597Y-94798763D01*
X164020500Y-94793847D01*
X164020500Y-91589484D01*
X164040185Y-91522445D01*
X164049513Y-91509776D01*
X164050046Y-91509140D01*
X164091106Y-91450500D01*
X164180568Y-91322734D01*
X164276739Y-91116496D01*
X164335635Y-90896692D01*
X164355468Y-90670000D01*
X164335635Y-90443308D01*
X164276739Y-90223504D01*
X164180568Y-90017266D01*
X164050047Y-89830861D01*
X164050045Y-89830858D01*
X163889141Y-89669954D01*
X163702734Y-89539432D01*
X163702732Y-89539431D01*
X163496497Y-89443261D01*
X163496488Y-89443258D01*
X163276697Y-89384366D01*
X163276693Y-89384365D01*
X163276692Y-89384365D01*
X163276691Y-89384364D01*
X163276686Y-89384364D01*
X163050002Y-89364532D01*
X163049998Y-89364532D01*
X162823313Y-89384364D01*
X162823302Y-89384366D01*
X162603511Y-89443258D01*
X162603502Y-89443261D01*
X162397267Y-89539431D01*
X162397265Y-89539432D01*
X162210858Y-89669954D01*
X162049954Y-89830858D01*
X161919432Y-90017265D01*
X161919431Y-90017267D01*
X161823261Y-90223502D01*
X161823258Y-90223511D01*
X161764366Y-90443302D01*
X161764364Y-90443313D01*
X161744532Y-90669998D01*
X161744532Y-90670001D01*
X161764364Y-90896686D01*
X161764366Y-90896697D01*
X161823258Y-91116488D01*
X161823261Y-91116497D01*
X161870047Y-91216829D01*
X161919432Y-91322734D01*
X161990982Y-91424919D01*
X161997075Y-91433620D01*
X162019402Y-91499826D01*
X162019500Y-91504743D01*
X162019500Y-94850974D01*
X161999815Y-94918013D01*
X161997075Y-94922097D01*
X161909432Y-95047266D01*
X161813261Y-95253502D01*
X161813258Y-95253511D01*
X161754366Y-95473302D01*
X161754364Y-95473313D01*
X161734532Y-95699998D01*
X161734532Y-95700001D01*
X161754364Y-95926686D01*
X161754366Y-95926697D01*
X161813258Y-96146488D01*
X161813260Y-96146492D01*
X161813261Y-96146496D01*
X161833026Y-96188881D01*
X161909430Y-96352731D01*
X161909431Y-96352732D01*
X161909432Y-96352734D01*
X161997076Y-96477903D01*
X162019402Y-96544106D01*
X162019500Y-96549024D01*
X162019500Y-103475500D01*
X161999815Y-103542539D01*
X161947011Y-103588294D01*
X161895500Y-103599500D01*
X151495783Y-103599500D01*
X151428744Y-103579815D01*
X151408102Y-103563181D01*
X150836819Y-102991898D01*
X150803334Y-102930575D01*
X150800500Y-102904217D01*
X150800500Y-96681456D01*
X150774567Y-96551087D01*
X150774567Y-96551086D01*
X150762051Y-96488164D01*
X150725310Y-96399464D01*
X150686632Y-96306086D01*
X150628326Y-96218825D01*
X150577139Y-96142217D01*
X150434686Y-95999764D01*
X150434655Y-95999735D01*
X148381479Y-93946559D01*
X148381459Y-93946537D01*
X148237785Y-93802863D01*
X148237781Y-93802860D01*
X148073920Y-93693371D01*
X148073911Y-93693366D01*
X147990683Y-93658892D01*
X147945165Y-93640038D01*
X147918500Y-93628993D01*
X147891837Y-93617949D01*
X147891833Y-93617947D01*
X147729906Y-93585739D01*
X147729905Y-93585738D01*
X147714223Y-93582619D01*
X147698542Y-93579500D01*
X147698541Y-93579500D01*
X147477588Y-93579500D01*
X147410549Y-93559815D01*
X147406465Y-93557075D01*
X147348293Y-93516343D01*
X147252734Y-93449432D01*
X147191745Y-93420992D01*
X147046497Y-93353261D01*
X147046488Y-93353258D01*
X146826697Y-93294366D01*
X146826693Y-93294365D01*
X146826692Y-93294365D01*
X146826691Y-93294364D01*
X146826686Y-93294364D01*
X146600002Y-93274532D01*
X146599998Y-93274532D01*
X146373313Y-93294364D01*
X146373302Y-93294366D01*
X146153511Y-93353258D01*
X146153502Y-93353261D01*
X145947267Y-93449431D01*
X145947265Y-93449432D01*
X145760858Y-93579954D01*
X145599954Y-93740858D01*
X145469432Y-93927265D01*
X145469431Y-93927267D01*
X145373261Y-94133502D01*
X145373258Y-94133511D01*
X145314366Y-94353302D01*
X145314364Y-94353311D01*
X145308958Y-94415096D01*
X145283504Y-94480164D01*
X145273111Y-94491967D01*
X144583423Y-95181656D01*
X143962221Y-95802858D01*
X143962218Y-95802861D01*
X143900303Y-95864776D01*
X143822859Y-95942219D01*
X143713371Y-96106079D01*
X143713366Y-96106088D01*
X143666670Y-96218825D01*
X143637950Y-96288159D01*
X143637949Y-96288163D01*
X143637949Y-96288164D01*
X143634384Y-96306086D01*
X143599500Y-96481456D01*
X143599500Y-109484217D01*
X143579815Y-109551256D01*
X143563181Y-109571898D01*
X135171899Y-117963181D01*
X135110576Y-117996666D01*
X135084218Y-117999500D01*
X106165783Y-117999500D01*
X106098744Y-117979815D01*
X106078102Y-117963181D01*
X105704734Y-117589814D01*
X105671249Y-117528491D01*
X105676232Y-117458802D01*
X105694091Y-117410923D01*
X105700500Y-117351313D01*
X105700499Y-116055568D01*
X105694091Y-115995957D01*
X105643796Y-115861109D01*
X105643795Y-115861108D01*
X105643793Y-115861104D01*
X105557547Y-115745895D01*
X105557544Y-115745892D01*
X105442335Y-115659646D01*
X105442328Y-115659642D01*
X105307482Y-115609348D01*
X105307483Y-115609348D01*
X105247883Y-115602941D01*
X105247881Y-115602940D01*
X105247873Y-115602940D01*
X105247864Y-115602940D01*
X103152129Y-115602940D01*
X103152123Y-115602941D01*
X103092516Y-115609348D01*
X102957671Y-115659642D01*
X102957664Y-115659646D01*
X102842455Y-115745892D01*
X102842452Y-115745895D01*
X102756206Y-115861104D01*
X102756202Y-115861111D01*
X102705908Y-115995957D01*
X102699501Y-116055556D01*
X102699501Y-116055563D01*
X102699500Y-116055575D01*
X96400500Y-116055575D01*
X96400500Y-114076829D01*
X102699500Y-114076829D01*
X102699500Y-114250051D01*
X102726598Y-114421141D01*
X102780127Y-114585885D01*
X102858768Y-114740228D01*
X102960586Y-114880368D01*
X103083072Y-115002854D01*
X103223212Y-115104672D01*
X103377555Y-115183313D01*
X103542299Y-115236842D01*
X103713389Y-115263940D01*
X103713390Y-115263940D01*
X104686610Y-115263940D01*
X104686611Y-115263940D01*
X104857701Y-115236842D01*
X105022445Y-115183313D01*
X105176788Y-115104672D01*
X105316928Y-115002854D01*
X105439414Y-114880368D01*
X105541232Y-114740228D01*
X105619873Y-114585885D01*
X105673402Y-114421141D01*
X105700500Y-114250051D01*
X105700500Y-114076829D01*
X105673402Y-113905739D01*
X105619873Y-113740995D01*
X105541232Y-113586652D01*
X105439414Y-113446512D01*
X105316928Y-113324026D01*
X105176788Y-113222208D01*
X105022445Y-113143567D01*
X104857701Y-113090038D01*
X104857699Y-113090037D01*
X104857698Y-113090037D01*
X104726271Y-113069221D01*
X104686611Y-113062940D01*
X103713389Y-113062940D01*
X103673728Y-113069221D01*
X103542302Y-113090037D01*
X103377552Y-113143568D01*
X103223211Y-113222208D01*
X103143256Y-113280299D01*
X103083072Y-113324026D01*
X103083070Y-113324028D01*
X103083069Y-113324028D01*
X102960588Y-113446509D01*
X102960588Y-113446510D01*
X102960586Y-113446512D01*
X102916859Y-113506696D01*
X102858768Y-113586651D01*
X102780128Y-113740992D01*
X102726597Y-113905742D01*
X102699500Y-114076829D01*
X96400500Y-114076829D01*
X96400500Y-111536829D01*
X102699500Y-111536829D01*
X102699500Y-111710051D01*
X102726598Y-111881141D01*
X102780127Y-112045885D01*
X102858768Y-112200228D01*
X102960586Y-112340368D01*
X103083072Y-112462854D01*
X103223212Y-112564672D01*
X103377555Y-112643313D01*
X103542299Y-112696842D01*
X103713389Y-112723940D01*
X103713390Y-112723940D01*
X104686610Y-112723940D01*
X104686611Y-112723940D01*
X104857701Y-112696842D01*
X105022445Y-112643313D01*
X105176788Y-112564672D01*
X105316928Y-112462854D01*
X105439414Y-112340368D01*
X105541232Y-112200228D01*
X105619873Y-112045885D01*
X105673402Y-111881141D01*
X105700500Y-111710051D01*
X105700500Y-111536829D01*
X128099500Y-111536829D01*
X128099500Y-111710051D01*
X128126598Y-111881141D01*
X128180127Y-112045885D01*
X128258768Y-112200228D01*
X128360586Y-112340368D01*
X128483072Y-112462854D01*
X128623212Y-112564672D01*
X128777555Y-112643313D01*
X128942299Y-112696842D01*
X129113389Y-112723940D01*
X129113390Y-112723940D01*
X130086610Y-112723940D01*
X130086611Y-112723940D01*
X130257701Y-112696842D01*
X130422445Y-112643313D01*
X130576788Y-112564672D01*
X130716928Y-112462854D01*
X130839414Y-112340368D01*
X130941232Y-112200228D01*
X131019873Y-112045885D01*
X131073402Y-111881141D01*
X131100500Y-111710051D01*
X131100500Y-111536829D01*
X131073402Y-111365739D01*
X131019873Y-111200995D01*
X130941232Y-111046652D01*
X130839414Y-110906512D01*
X130716928Y-110784026D01*
X130576788Y-110682208D01*
X130422445Y-110603567D01*
X130257701Y-110550038D01*
X130257699Y-110550037D01*
X130257698Y-110550037D01*
X130126271Y-110529221D01*
X130086611Y-110522940D01*
X129113389Y-110522940D01*
X129073728Y-110529221D01*
X128942302Y-110550037D01*
X128777552Y-110603568D01*
X128623211Y-110682208D01*
X128557727Y-110729786D01*
X128483072Y-110784026D01*
X128483070Y-110784028D01*
X128483069Y-110784028D01*
X128360588Y-110906509D01*
X128360588Y-110906510D01*
X128360586Y-110906512D01*
X128316859Y-110966696D01*
X128258768Y-111046651D01*
X128180128Y-111200992D01*
X128126597Y-111365742D01*
X128099500Y-111536829D01*
X105700500Y-111536829D01*
X105673402Y-111365739D01*
X105619873Y-111200995D01*
X105541232Y-111046652D01*
X105439414Y-110906512D01*
X105316928Y-110784026D01*
X105176788Y-110682208D01*
X105022445Y-110603567D01*
X104857701Y-110550038D01*
X104857699Y-110550037D01*
X104857698Y-110550037D01*
X104726271Y-110529221D01*
X104686611Y-110522940D01*
X103713389Y-110522940D01*
X103673728Y-110529221D01*
X103542302Y-110550037D01*
X103377552Y-110603568D01*
X103223211Y-110682208D01*
X103157727Y-110729786D01*
X103083072Y-110784026D01*
X103083070Y-110784028D01*
X103083069Y-110784028D01*
X102960588Y-110906509D01*
X102960588Y-110906510D01*
X102960586Y-110906512D01*
X102916859Y-110966696D01*
X102858768Y-111046651D01*
X102780128Y-111200992D01*
X102726597Y-111365742D01*
X102699500Y-111536829D01*
X96400500Y-111536829D01*
X96400500Y-108996829D01*
X102699500Y-108996829D01*
X102699500Y-109170051D01*
X102726598Y-109341141D01*
X102780127Y-109505885D01*
X102858768Y-109660228D01*
X102960586Y-109800368D01*
X103083072Y-109922854D01*
X103223212Y-110024672D01*
X103377555Y-110103313D01*
X103542299Y-110156842D01*
X103713389Y-110183940D01*
X103713390Y-110183940D01*
X104686610Y-110183940D01*
X104686611Y-110183940D01*
X104857701Y-110156842D01*
X105022445Y-110103313D01*
X105176788Y-110024672D01*
X105316928Y-109922854D01*
X105439414Y-109800368D01*
X105541232Y-109660228D01*
X105619873Y-109505885D01*
X105673402Y-109341141D01*
X105700500Y-109170051D01*
X105700500Y-108996829D01*
X128099500Y-108996829D01*
X128099500Y-109170051D01*
X128126598Y-109341141D01*
X128180127Y-109505885D01*
X128258768Y-109660228D01*
X128360586Y-109800368D01*
X128483072Y-109922854D01*
X128623212Y-110024672D01*
X128777555Y-110103313D01*
X128942299Y-110156842D01*
X129113389Y-110183940D01*
X129113390Y-110183940D01*
X130086610Y-110183940D01*
X130086611Y-110183940D01*
X130257701Y-110156842D01*
X130422445Y-110103313D01*
X130576788Y-110024672D01*
X130716928Y-109922854D01*
X130839414Y-109800368D01*
X130941232Y-109660228D01*
X131019873Y-109505885D01*
X131073402Y-109341141D01*
X131100500Y-109170051D01*
X131100500Y-108996829D01*
X131073402Y-108825739D01*
X131019873Y-108660995D01*
X130941232Y-108506652D01*
X130839414Y-108366512D01*
X130716928Y-108244026D01*
X130576788Y-108142208D01*
X130422445Y-108063567D01*
X130257701Y-108010038D01*
X130257699Y-108010037D01*
X130257698Y-108010037D01*
X130126271Y-107989221D01*
X130086611Y-107982940D01*
X129113389Y-107982940D01*
X129073728Y-107989221D01*
X128942302Y-108010037D01*
X128777552Y-108063568D01*
X128623211Y-108142208D01*
X128543256Y-108200299D01*
X128483072Y-108244026D01*
X128483070Y-108244028D01*
X128483069Y-108244028D01*
X128360588Y-108366509D01*
X128360588Y-108366510D01*
X128360586Y-108366512D01*
X128344152Y-108389132D01*
X128258768Y-108506651D01*
X128180128Y-108660992D01*
X128126597Y-108825742D01*
X128099500Y-108996829D01*
X105700500Y-108996829D01*
X105673402Y-108825739D01*
X105619873Y-108660995D01*
X105541232Y-108506652D01*
X105439414Y-108366512D01*
X105316928Y-108244026D01*
X105176788Y-108142208D01*
X105022445Y-108063567D01*
X104857701Y-108010038D01*
X104857699Y-108010037D01*
X104857698Y-108010037D01*
X104726271Y-107989221D01*
X104686611Y-107982940D01*
X103713389Y-107982940D01*
X103673728Y-107989221D01*
X103542302Y-108010037D01*
X103377552Y-108063568D01*
X103223211Y-108142208D01*
X103143256Y-108200299D01*
X103083072Y-108244026D01*
X103083070Y-108244028D01*
X103083069Y-108244028D01*
X102960588Y-108366509D01*
X102960588Y-108366510D01*
X102960586Y-108366512D01*
X102944152Y-108389132D01*
X102858768Y-108506651D01*
X102780128Y-108660992D01*
X102726597Y-108825742D01*
X102699500Y-108996829D01*
X96400500Y-108996829D01*
X96400500Y-106456829D01*
X102699500Y-106456829D01*
X102699500Y-106630051D01*
X102726598Y-106801141D01*
X102780127Y-106965885D01*
X102858768Y-107120228D01*
X102960586Y-107260368D01*
X103083072Y-107382854D01*
X103223212Y-107484672D01*
X103377555Y-107563313D01*
X103542299Y-107616842D01*
X103713389Y-107643940D01*
X103713390Y-107643940D01*
X104686610Y-107643940D01*
X104686611Y-107643940D01*
X104857701Y-107616842D01*
X105022445Y-107563313D01*
X105176788Y-107484672D01*
X105316928Y-107382854D01*
X105439414Y-107260368D01*
X105541232Y-107120228D01*
X105619873Y-106965885D01*
X105673402Y-106801141D01*
X105700500Y-106630051D01*
X105700500Y-106456829D01*
X128099500Y-106456829D01*
X128099500Y-106630051D01*
X128126598Y-106801141D01*
X128180127Y-106965885D01*
X128258768Y-107120228D01*
X128360586Y-107260368D01*
X128483072Y-107382854D01*
X128623212Y-107484672D01*
X128777555Y-107563313D01*
X128942299Y-107616842D01*
X129113389Y-107643940D01*
X129113390Y-107643940D01*
X130086610Y-107643940D01*
X130086611Y-107643940D01*
X130257701Y-107616842D01*
X130422445Y-107563313D01*
X130576788Y-107484672D01*
X130716928Y-107382854D01*
X130839414Y-107260368D01*
X130851515Y-107243713D01*
X135224500Y-107243713D01*
X135224500Y-107456286D01*
X135254221Y-107643940D01*
X135257754Y-107666243D01*
X135321527Y-107862516D01*
X135323444Y-107868414D01*
X135419951Y-108057820D01*
X135544890Y-108229786D01*
X135695209Y-108380105D01*
X135695214Y-108380109D01*
X135859793Y-108499682D01*
X135902459Y-108555011D01*
X135908438Y-108624625D01*
X135875833Y-108686420D01*
X135859793Y-108700318D01*
X135695214Y-108819890D01*
X135695209Y-108819894D01*
X135544890Y-108970213D01*
X135419951Y-109142179D01*
X135323444Y-109331585D01*
X135257753Y-109533760D01*
X135237723Y-109660228D01*
X135224500Y-109743713D01*
X135224500Y-109956287D01*
X135228908Y-109984117D01*
X135242589Y-110070499D01*
X135257754Y-110166243D01*
X135282315Y-110241835D01*
X135323444Y-110368414D01*
X135419951Y-110557820D01*
X135544890Y-110729786D01*
X135695213Y-110880109D01*
X135867179Y-111005048D01*
X135867181Y-111005049D01*
X135867184Y-111005051D01*
X136056588Y-111101557D01*
X136258757Y-111167246D01*
X136468713Y-111200500D01*
X136468714Y-111200500D01*
X136931286Y-111200500D01*
X136931287Y-111200500D01*
X137141243Y-111167246D01*
X137343412Y-111101557D01*
X137532816Y-111005051D01*
X137554789Y-110989086D01*
X137704786Y-110880109D01*
X137704788Y-110880106D01*
X137704792Y-110880104D01*
X137855104Y-110729792D01*
X137855106Y-110729788D01*
X137855109Y-110729786D01*
X137980048Y-110557820D01*
X137980047Y-110557820D01*
X137980051Y-110557816D01*
X138076557Y-110368412D01*
X138142246Y-110166243D01*
X138175500Y-109956287D01*
X138175500Y-109743713D01*
X138142246Y-109533757D01*
X138076557Y-109331588D01*
X137980051Y-109142184D01*
X137980049Y-109142181D01*
X137980048Y-109142179D01*
X137855109Y-108970213D01*
X137704792Y-108819896D01*
X137641508Y-108773918D01*
X137540204Y-108700316D01*
X137497540Y-108644989D01*
X137491561Y-108575376D01*
X137524166Y-108513580D01*
X137540199Y-108499686D01*
X137704792Y-108380104D01*
X137855104Y-108229792D01*
X137855106Y-108229788D01*
X137855109Y-108229786D01*
X137980048Y-108057820D01*
X137980047Y-108057820D01*
X137980051Y-108057816D01*
X138076557Y-107868412D01*
X138142246Y-107666243D01*
X138175500Y-107456287D01*
X138175500Y-107243713D01*
X138142246Y-107033757D01*
X138076557Y-106831588D01*
X137980051Y-106642184D01*
X137980049Y-106642181D01*
X137980048Y-106642179D01*
X137855109Y-106470213D01*
X137704786Y-106319890D01*
X137532820Y-106194951D01*
X137343414Y-106098444D01*
X137343413Y-106098443D01*
X137343412Y-106098443D01*
X137141243Y-106032754D01*
X137141241Y-106032753D01*
X137141240Y-106032753D01*
X136979957Y-106007208D01*
X136931287Y-105999500D01*
X136468713Y-105999500D01*
X136420042Y-106007208D01*
X136258760Y-106032753D01*
X136056585Y-106098444D01*
X135867179Y-106194951D01*
X135695213Y-106319890D01*
X135544890Y-106470213D01*
X135419951Y-106642179D01*
X135323444Y-106831585D01*
X135257753Y-107033760D01*
X135224500Y-107243713D01*
X130851515Y-107243713D01*
X130941232Y-107120228D01*
X131019873Y-106965885D01*
X131073402Y-106801141D01*
X131100500Y-106630051D01*
X131100500Y-106456829D01*
X131073402Y-106285739D01*
X131019873Y-106120995D01*
X130941232Y-105966652D01*
X130839414Y-105826512D01*
X130716928Y-105704026D01*
X130576788Y-105602208D01*
X130422445Y-105523567D01*
X130257701Y-105470038D01*
X130257699Y-105470037D01*
X130257698Y-105470037D01*
X130126271Y-105449221D01*
X130086611Y-105442940D01*
X129113389Y-105442940D01*
X129073728Y-105449221D01*
X128942302Y-105470037D01*
X128777552Y-105523568D01*
X128623211Y-105602208D01*
X128543256Y-105660299D01*
X128483072Y-105704026D01*
X128483070Y-105704028D01*
X128483069Y-105704028D01*
X128360588Y-105826509D01*
X128360588Y-105826510D01*
X128360586Y-105826512D01*
X128316859Y-105886696D01*
X128258768Y-105966651D01*
X128180128Y-106120992D01*
X128126597Y-106285742D01*
X128121189Y-106319890D01*
X128099500Y-106456829D01*
X105700500Y-106456829D01*
X105673402Y-106285739D01*
X105619873Y-106120995D01*
X105541232Y-105966652D01*
X105439414Y-105826512D01*
X105316928Y-105704026D01*
X105176788Y-105602208D01*
X105022445Y-105523567D01*
X104857701Y-105470038D01*
X104857699Y-105470037D01*
X104857698Y-105470037D01*
X104726271Y-105449221D01*
X104686611Y-105442940D01*
X103713389Y-105442940D01*
X103673728Y-105449221D01*
X103542302Y-105470037D01*
X103377552Y-105523568D01*
X103223211Y-105602208D01*
X103143256Y-105660299D01*
X103083072Y-105704026D01*
X103083070Y-105704028D01*
X103083069Y-105704028D01*
X102960588Y-105826509D01*
X102960588Y-105826510D01*
X102960586Y-105826512D01*
X102916859Y-105886696D01*
X102858768Y-105966651D01*
X102780128Y-106120992D01*
X102726597Y-106285742D01*
X102721189Y-106319890D01*
X102699500Y-106456829D01*
X96400500Y-106456829D01*
X96400500Y-104090048D01*
X102699499Y-104090048D01*
X102726597Y-104261137D01*
X102726598Y-104261141D01*
X102780127Y-104425885D01*
X102858768Y-104580228D01*
X102960586Y-104720368D01*
X103083072Y-104842854D01*
X103223212Y-104944672D01*
X103377555Y-105023313D01*
X103542299Y-105076842D01*
X103713389Y-105103940D01*
X103713390Y-105103940D01*
X104686610Y-105103940D01*
X104686611Y-105103940D01*
X104857701Y-105076842D01*
X105022445Y-105023313D01*
X105176788Y-104944672D01*
X105316928Y-104842854D01*
X105439414Y-104720368D01*
X105541232Y-104580228D01*
X105619873Y-104425885D01*
X105673402Y-104261141D01*
X105700500Y-104090051D01*
X105700500Y-104090048D01*
X128099499Y-104090048D01*
X128126597Y-104261137D01*
X128126598Y-104261141D01*
X128180127Y-104425885D01*
X128258768Y-104580228D01*
X128360586Y-104720368D01*
X128483072Y-104842854D01*
X128623212Y-104944672D01*
X128777555Y-105023313D01*
X128942299Y-105076842D01*
X129113389Y-105103940D01*
X129113390Y-105103940D01*
X130086610Y-105103940D01*
X130086611Y-105103940D01*
X130257701Y-105076842D01*
X130422445Y-105023313D01*
X130576788Y-104944672D01*
X130716928Y-104842854D01*
X130839414Y-104720368D01*
X130941232Y-104580228D01*
X131019873Y-104425885D01*
X131073402Y-104261141D01*
X131100500Y-104090051D01*
X131100500Y-103916829D01*
X131073402Y-103745739D01*
X131019873Y-103580995D01*
X130941232Y-103426652D01*
X130839414Y-103286512D01*
X130716928Y-103164026D01*
X130576788Y-103062208D01*
X130422445Y-102983567D01*
X130257701Y-102930038D01*
X130257699Y-102930037D01*
X130257698Y-102930037D01*
X130126271Y-102909221D01*
X130086611Y-102902940D01*
X129113389Y-102902940D01*
X129073728Y-102909221D01*
X128942302Y-102930037D01*
X128777552Y-102983568D01*
X128623211Y-103062208D01*
X128567346Y-103102797D01*
X128483072Y-103164026D01*
X128483070Y-103164028D01*
X128483069Y-103164028D01*
X128360588Y-103286509D01*
X128360588Y-103286510D01*
X128360586Y-103286512D01*
X128316859Y-103346696D01*
X128258768Y-103426651D01*
X128180128Y-103580992D01*
X128126597Y-103745742D01*
X128099500Y-103916829D01*
X128099500Y-104090048D01*
X128099499Y-104090048D01*
X105700500Y-104090048D01*
X105700500Y-103916829D01*
X105673402Y-103745739D01*
X105619873Y-103580995D01*
X105541232Y-103426652D01*
X105439414Y-103286512D01*
X105316928Y-103164026D01*
X105176788Y-103062208D01*
X105022445Y-102983567D01*
X104857701Y-102930038D01*
X104857699Y-102930037D01*
X104857698Y-102930037D01*
X104726271Y-102909221D01*
X104686611Y-102902940D01*
X103713389Y-102902940D01*
X103673728Y-102909221D01*
X103542302Y-102930037D01*
X103377552Y-102983568D01*
X103223211Y-103062208D01*
X103167346Y-103102797D01*
X103083072Y-103164026D01*
X103083070Y-103164028D01*
X103083069Y-103164028D01*
X102960588Y-103286509D01*
X102960588Y-103286510D01*
X102960586Y-103286512D01*
X102916859Y-103346696D01*
X102858768Y-103426651D01*
X102780128Y-103580992D01*
X102726597Y-103745742D01*
X102699500Y-103916829D01*
X102699500Y-104090048D01*
X102699499Y-104090048D01*
X96400500Y-104090048D01*
X96400500Y-101376829D01*
X102699500Y-101376829D01*
X102699500Y-101550050D01*
X102723246Y-101699981D01*
X102726598Y-101721141D01*
X102780127Y-101885885D01*
X102858768Y-102040228D01*
X102960586Y-102180368D01*
X103083072Y-102302854D01*
X103223212Y-102404672D01*
X103377555Y-102483313D01*
X103542299Y-102536842D01*
X103713389Y-102563940D01*
X103713390Y-102563940D01*
X104686610Y-102563940D01*
X104686611Y-102563940D01*
X104857701Y-102536842D01*
X105022445Y-102483313D01*
X105176788Y-102404672D01*
X105316928Y-102302854D01*
X105439414Y-102180368D01*
X105541232Y-102040228D01*
X105619873Y-101885885D01*
X105673402Y-101721141D01*
X105676753Y-101699983D01*
X135224500Y-101699983D01*
X135224500Y-103000001D01*
X135224501Y-103000018D01*
X135235000Y-103102796D01*
X135235001Y-103102799D01*
X135290185Y-103269331D01*
X135290187Y-103269336D01*
X135300780Y-103286510D01*
X135382288Y-103418656D01*
X135506344Y-103542712D01*
X135655666Y-103634814D01*
X135822203Y-103689999D01*
X135924991Y-103700500D01*
X137475008Y-103700499D01*
X137577797Y-103689999D01*
X137744334Y-103634814D01*
X137893656Y-103542712D01*
X138017712Y-103418656D01*
X138109814Y-103269334D01*
X138164999Y-103102797D01*
X138175500Y-103000009D01*
X138175499Y-101699992D01*
X138164999Y-101597203D01*
X138109814Y-101430666D01*
X138017712Y-101281344D01*
X137893656Y-101157288D01*
X137744334Y-101065186D01*
X137577797Y-101010001D01*
X137577795Y-101010000D01*
X137475010Y-100999500D01*
X135924998Y-100999500D01*
X135924981Y-100999501D01*
X135822203Y-101010000D01*
X135822200Y-101010001D01*
X135655668Y-101065185D01*
X135655663Y-101065187D01*
X135506342Y-101157289D01*
X135382289Y-101281342D01*
X135290187Y-101430663D01*
X135290186Y-101430666D01*
X135235001Y-101597203D01*
X135235001Y-101597204D01*
X135235000Y-101597204D01*
X135224500Y-101699983D01*
X105676753Y-101699983D01*
X105700500Y-101550051D01*
X105700500Y-101376829D01*
X105673402Y-101205739D01*
X105619873Y-101040995D01*
X105541232Y-100886652D01*
X105439414Y-100746512D01*
X105316928Y-100624026D01*
X105176788Y-100522208D01*
X105022445Y-100443567D01*
X104857701Y-100390038D01*
X104857699Y-100390037D01*
X104857698Y-100390037D01*
X104726271Y-100369221D01*
X104686611Y-100362940D01*
X103713389Y-100362940D01*
X103673728Y-100369221D01*
X103542302Y-100390037D01*
X103377552Y-100443568D01*
X103223211Y-100522208D01*
X103143256Y-100580299D01*
X103083072Y-100624026D01*
X103083070Y-100624028D01*
X103083069Y-100624028D01*
X102960588Y-100746509D01*
X102960588Y-100746510D01*
X102960586Y-100746512D01*
X102952569Y-100757547D01*
X102858768Y-100886651D01*
X102780128Y-101040992D01*
X102726597Y-101205742D01*
X102699500Y-101376829D01*
X96400500Y-101376829D01*
X96400500Y-98836829D01*
X102699500Y-98836829D01*
X102699500Y-99010050D01*
X102720682Y-99143793D01*
X102726598Y-99181141D01*
X102780127Y-99345885D01*
X102858768Y-99500228D01*
X102960586Y-99640368D01*
X103083072Y-99762854D01*
X103223212Y-99864672D01*
X103377555Y-99943313D01*
X103542299Y-99996842D01*
X103713389Y-100023940D01*
X103713390Y-100023940D01*
X104686610Y-100023940D01*
X104686611Y-100023940D01*
X104857701Y-99996842D01*
X105022445Y-99943313D01*
X105176788Y-99864672D01*
X105316928Y-99762854D01*
X105439414Y-99640368D01*
X105541232Y-99500228D01*
X105619873Y-99345885D01*
X105673402Y-99181141D01*
X105700500Y-99010051D01*
X105700500Y-98836829D01*
X105673402Y-98665739D01*
X105619873Y-98500995D01*
X105541232Y-98346652D01*
X105439414Y-98206512D01*
X105316928Y-98084026D01*
X105176788Y-97982208D01*
X105022445Y-97903567D01*
X104857701Y-97850038D01*
X104857699Y-97850037D01*
X104857698Y-97850037D01*
X104726271Y-97829221D01*
X104686611Y-97822940D01*
X103713389Y-97822940D01*
X103673728Y-97829221D01*
X103542302Y-97850037D01*
X103377552Y-97903568D01*
X103223211Y-97982208D01*
X103143256Y-98040299D01*
X103083072Y-98084026D01*
X103083070Y-98084028D01*
X103083069Y-98084028D01*
X102960588Y-98206509D01*
X102960588Y-98206510D01*
X102960586Y-98206512D01*
X102940457Y-98234217D01*
X102858768Y-98346651D01*
X102780128Y-98500992D01*
X102726597Y-98665742D01*
X102699500Y-98836829D01*
X96400500Y-98836829D01*
X96400500Y-96296829D01*
X102699500Y-96296829D01*
X102699500Y-96470050D01*
X102721017Y-96605908D01*
X102726598Y-96641141D01*
X102761594Y-96748848D01*
X102780128Y-96805887D01*
X102806509Y-96857664D01*
X102858768Y-96960228D01*
X102960586Y-97100368D01*
X103083072Y-97222854D01*
X103223212Y-97324672D01*
X103377555Y-97403313D01*
X103542299Y-97456842D01*
X103713389Y-97483940D01*
X103713390Y-97483940D01*
X104686610Y-97483940D01*
X104686611Y-97483940D01*
X104857701Y-97456842D01*
X105022445Y-97403313D01*
X105176788Y-97324672D01*
X105316928Y-97222854D01*
X105439414Y-97100368D01*
X105541232Y-96960228D01*
X105619873Y-96805885D01*
X105673402Y-96641141D01*
X105700500Y-96470051D01*
X105700500Y-96296829D01*
X128099500Y-96296829D01*
X128099500Y-96470050D01*
X128121017Y-96605908D01*
X128126598Y-96641141D01*
X128161594Y-96748848D01*
X128180128Y-96805887D01*
X128206509Y-96857664D01*
X128258768Y-96960228D01*
X128360586Y-97100368D01*
X128483072Y-97222854D01*
X128623212Y-97324672D01*
X128777555Y-97403313D01*
X128942299Y-97456842D01*
X129113389Y-97483940D01*
X129113390Y-97483940D01*
X130086610Y-97483940D01*
X130086611Y-97483940D01*
X130257701Y-97456842D01*
X130422445Y-97403313D01*
X130576788Y-97324672D01*
X130716928Y-97222854D01*
X130839414Y-97100368D01*
X130874457Y-97052135D01*
X136099500Y-97052135D01*
X136099500Y-98747870D01*
X136099501Y-98747876D01*
X136105908Y-98807483D01*
X136156202Y-98942328D01*
X136156206Y-98942335D01*
X136242452Y-99057544D01*
X136242455Y-99057547D01*
X136357664Y-99143793D01*
X136357671Y-99143797D01*
X136492517Y-99194091D01*
X136492516Y-99194091D01*
X136499444Y-99194835D01*
X136552127Y-99200500D01*
X138247872Y-99200499D01*
X138307483Y-99194091D01*
X138442331Y-99143796D01*
X138557546Y-99057546D01*
X138643796Y-98942331D01*
X138694091Y-98807483D01*
X138700500Y-98747873D01*
X138700499Y-97052128D01*
X138694091Y-96992517D01*
X138691524Y-96985635D01*
X138643797Y-96857671D01*
X138643793Y-96857664D01*
X138557547Y-96742455D01*
X138557544Y-96742452D01*
X138442335Y-96656206D01*
X138442328Y-96656202D01*
X138307482Y-96605908D01*
X138307483Y-96605908D01*
X138247883Y-96599501D01*
X138247881Y-96599500D01*
X138247873Y-96599500D01*
X138247864Y-96599500D01*
X136552129Y-96599500D01*
X136552123Y-96599501D01*
X136492516Y-96605908D01*
X136357671Y-96656202D01*
X136357664Y-96656206D01*
X136242455Y-96742452D01*
X136242452Y-96742455D01*
X136156206Y-96857664D01*
X136156202Y-96857671D01*
X136105908Y-96992517D01*
X136100182Y-97045781D01*
X136099501Y-97052123D01*
X136099500Y-97052135D01*
X130874457Y-97052135D01*
X130941232Y-96960228D01*
X131019873Y-96805885D01*
X131073402Y-96641141D01*
X131100500Y-96470051D01*
X131100500Y-96296829D01*
X131073402Y-96125739D01*
X131019873Y-95960995D01*
X130941232Y-95806652D01*
X130839414Y-95666512D01*
X130716928Y-95544026D01*
X130576788Y-95442208D01*
X130422445Y-95363567D01*
X130257701Y-95310038D01*
X130257699Y-95310037D01*
X130257698Y-95310037D01*
X130126271Y-95289221D01*
X130086611Y-95282940D01*
X129113389Y-95282940D01*
X129073728Y-95289221D01*
X128942302Y-95310037D01*
X128777552Y-95363568D01*
X128623211Y-95442208D01*
X128543256Y-95500299D01*
X128483072Y-95544026D01*
X128483070Y-95544028D01*
X128483069Y-95544028D01*
X128360588Y-95666509D01*
X128360588Y-95666510D01*
X128360586Y-95666512D01*
X128336255Y-95700001D01*
X128258768Y-95806651D01*
X128180128Y-95960992D01*
X128126597Y-96125742D01*
X128099500Y-96296829D01*
X105700500Y-96296829D01*
X105673402Y-96125739D01*
X105619873Y-95960995D01*
X105541232Y-95806652D01*
X105439414Y-95666512D01*
X105316928Y-95544026D01*
X105176788Y-95442208D01*
X105022445Y-95363567D01*
X104857701Y-95310038D01*
X104857699Y-95310037D01*
X104857698Y-95310037D01*
X104726271Y-95289221D01*
X104686611Y-95282940D01*
X103713389Y-95282940D01*
X103673728Y-95289221D01*
X103542302Y-95310037D01*
X103377552Y-95363568D01*
X103223211Y-95442208D01*
X103143256Y-95500299D01*
X103083072Y-95544026D01*
X103083070Y-95544028D01*
X103083069Y-95544028D01*
X102960588Y-95666509D01*
X102960588Y-95666510D01*
X102960586Y-95666512D01*
X102936255Y-95700001D01*
X102858768Y-95806651D01*
X102780128Y-95960992D01*
X102726597Y-96125742D01*
X102699500Y-96296829D01*
X96400500Y-96296829D01*
X96400500Y-93756829D01*
X102699500Y-93756829D01*
X102699500Y-93930051D01*
X102726598Y-94101141D01*
X102780127Y-94265885D01*
X102858768Y-94420228D01*
X102960586Y-94560368D01*
X103083072Y-94682854D01*
X103223212Y-94784672D01*
X103377555Y-94863313D01*
X103542299Y-94916842D01*
X103713389Y-94943940D01*
X103713390Y-94943940D01*
X104686610Y-94943940D01*
X104686611Y-94943940D01*
X104857701Y-94916842D01*
X105022445Y-94863313D01*
X105176788Y-94784672D01*
X105316928Y-94682854D01*
X105439414Y-94560368D01*
X105541232Y-94420228D01*
X105619873Y-94265885D01*
X105673402Y-94101141D01*
X105700500Y-93930051D01*
X105700500Y-93756829D01*
X128099500Y-93756829D01*
X128099500Y-93930051D01*
X128126598Y-94101141D01*
X128180127Y-94265885D01*
X128258768Y-94420228D01*
X128360586Y-94560368D01*
X128483072Y-94682854D01*
X128623212Y-94784672D01*
X128777555Y-94863313D01*
X128942299Y-94916842D01*
X129113389Y-94943940D01*
X129113390Y-94943940D01*
X130086610Y-94943940D01*
X130086611Y-94943940D01*
X130257701Y-94916842D01*
X130422445Y-94863313D01*
X130576788Y-94784672D01*
X130716928Y-94682854D01*
X130839414Y-94560368D01*
X130941232Y-94420228D01*
X131019873Y-94265885D01*
X131073402Y-94101141D01*
X131100500Y-93930051D01*
X131100500Y-93756829D01*
X131073402Y-93585739D01*
X131019873Y-93420995D01*
X130941232Y-93266652D01*
X130839414Y-93126512D01*
X130716928Y-93004026D01*
X130576788Y-92902208D01*
X130501119Y-92863653D01*
X130422447Y-92823568D01*
X130422446Y-92823567D01*
X130422445Y-92823567D01*
X130257701Y-92770038D01*
X130257699Y-92770037D01*
X130257698Y-92770037D01*
X130126271Y-92749221D01*
X130086611Y-92742940D01*
X129113389Y-92742940D01*
X129073728Y-92749221D01*
X128942302Y-92770037D01*
X128777552Y-92823568D01*
X128623211Y-92902208D01*
X128549879Y-92955488D01*
X128483072Y-93004026D01*
X128483070Y-93004028D01*
X128483069Y-93004028D01*
X128360588Y-93126509D01*
X128360588Y-93126510D01*
X128360586Y-93126512D01*
X128340457Y-93154217D01*
X128258768Y-93266651D01*
X128180128Y-93420992D01*
X128180127Y-93420994D01*
X128180127Y-93420995D01*
X128126598Y-93585739D01*
X128099500Y-93756829D01*
X105700500Y-93756829D01*
X105673402Y-93585739D01*
X105619873Y-93420995D01*
X105541232Y-93266652D01*
X105439414Y-93126512D01*
X105316928Y-93004026D01*
X105176788Y-92902208D01*
X105101119Y-92863653D01*
X105022447Y-92823568D01*
X105022446Y-92823567D01*
X105022445Y-92823567D01*
X104857701Y-92770038D01*
X104857699Y-92770037D01*
X104857698Y-92770037D01*
X104726271Y-92749221D01*
X104686611Y-92742940D01*
X103713389Y-92742940D01*
X103673728Y-92749221D01*
X103542302Y-92770037D01*
X103377552Y-92823568D01*
X103223211Y-92902208D01*
X103149879Y-92955488D01*
X103083072Y-93004026D01*
X103083070Y-93004028D01*
X103083069Y-93004028D01*
X102960588Y-93126509D01*
X102960588Y-93126510D01*
X102960586Y-93126512D01*
X102940457Y-93154217D01*
X102858768Y-93266651D01*
X102780128Y-93420992D01*
X102780127Y-93420994D01*
X102780127Y-93420995D01*
X102726598Y-93585739D01*
X102699500Y-93756829D01*
X96400500Y-93756829D01*
X96400500Y-91216829D01*
X102699500Y-91216829D01*
X102699500Y-91390051D01*
X102704859Y-91423889D01*
X102718462Y-91509776D01*
X102726598Y-91561141D01*
X102780127Y-91725885D01*
X102858768Y-91880228D01*
X102960586Y-92020368D01*
X103083072Y-92142854D01*
X103223212Y-92244672D01*
X103377555Y-92323313D01*
X103542299Y-92376842D01*
X103713389Y-92403940D01*
X103713390Y-92403940D01*
X104686610Y-92403940D01*
X104686611Y-92403940D01*
X104857701Y-92376842D01*
X105022445Y-92323313D01*
X105176788Y-92244672D01*
X105316928Y-92142854D01*
X105439414Y-92020368D01*
X105541232Y-91880228D01*
X105619873Y-91725885D01*
X105673402Y-91561141D01*
X105700500Y-91390051D01*
X105700500Y-91216829D01*
X128099500Y-91216829D01*
X128099500Y-91390051D01*
X128104859Y-91423889D01*
X128118462Y-91509776D01*
X128126598Y-91561141D01*
X128180127Y-91725885D01*
X128258768Y-91880228D01*
X128360586Y-92020368D01*
X128483072Y-92142854D01*
X128623212Y-92244672D01*
X128777555Y-92323313D01*
X128942299Y-92376842D01*
X129113389Y-92403940D01*
X129113390Y-92403940D01*
X130086610Y-92403940D01*
X130086611Y-92403940D01*
X130257701Y-92376842D01*
X130422445Y-92323313D01*
X130576788Y-92244672D01*
X130716928Y-92142854D01*
X130769523Y-92090259D01*
X130830846Y-92056774D01*
X130857204Y-92053940D01*
X131570480Y-92053940D01*
X131668022Y-92034536D01*
X131715473Y-92025098D01*
X131852055Y-91968524D01*
X131891256Y-91942331D01*
X131902352Y-91934917D01*
X131902353Y-91934916D01*
X131974976Y-91886392D01*
X140774549Y-83086819D01*
X140835872Y-83053334D01*
X140862230Y-83050500D01*
X145900330Y-83050500D01*
X145967369Y-83070185D01*
X146013124Y-83122989D01*
X146023068Y-83192147D01*
X145994043Y-83255703D01*
X145952735Y-83286881D01*
X145950973Y-83287703D01*
X145947267Y-83289431D01*
X145947265Y-83289432D01*
X145760858Y-83419954D01*
X145599954Y-83580858D01*
X145469432Y-83767265D01*
X145469431Y-83767267D01*
X145373261Y-83973502D01*
X145373258Y-83973511D01*
X145314366Y-84193302D01*
X145314364Y-84193313D01*
X145294532Y-84419998D01*
X145294532Y-84420001D01*
X145314364Y-84646686D01*
X145314366Y-84646697D01*
X145373258Y-84866488D01*
X145373261Y-84866497D01*
X145469431Y-85072732D01*
X145469432Y-85072734D01*
X145599954Y-85259141D01*
X145760858Y-85420045D01*
X145760861Y-85420047D01*
X145947266Y-85550568D01*
X146153504Y-85646739D01*
X146373308Y-85705635D01*
X146535230Y-85719801D01*
X146599998Y-85725468D01*
X146600000Y-85725468D01*
X146600002Y-85725468D01*
X146656673Y-85720509D01*
X146826692Y-85705635D01*
X147046496Y-85646739D01*
X147252734Y-85550568D01*
X147439139Y-85420047D01*
X147600047Y-85259139D01*
X147730568Y-85072734D01*
X147826739Y-84866496D01*
X147885635Y-84646692D01*
X147905468Y-84420000D01*
X147903750Y-84400368D01*
X147894969Y-84300000D01*
X147885635Y-84193308D01*
X147826739Y-83973504D01*
X147730568Y-83767266D01*
X147600047Y-83580861D01*
X147600045Y-83580858D01*
X147439141Y-83419954D01*
X147252734Y-83289432D01*
X147252732Y-83289431D01*
X147251584Y-83288895D01*
X147247264Y-83286881D01*
X147194826Y-83240709D01*
X147175674Y-83173516D01*
X147195890Y-83106635D01*
X147249056Y-83061300D01*
X147299670Y-83050500D01*
X152721685Y-83050500D01*
X152788724Y-83070185D01*
X152834479Y-83122989D01*
X152844423Y-83192147D01*
X152833767Y-83224158D01*
X152834303Y-83224358D01*
X152780910Y-83367512D01*
X152779125Y-83375068D01*
X152778135Y-83374834D01*
X152763477Y-83417838D01*
X152669533Y-83571142D01*
X152573126Y-83803889D01*
X152514317Y-84048848D01*
X152494551Y-84300000D01*
X152514317Y-84551151D01*
X152573126Y-84796110D01*
X152669533Y-85028857D01*
X152669534Y-85028859D01*
X152695846Y-85071796D01*
X152756960Y-85171527D01*
X152774522Y-85223064D01*
X152780908Y-85282483D01*
X152831202Y-85417328D01*
X152831206Y-85417335D01*
X152917452Y-85532544D01*
X152917453Y-85532544D01*
X152917454Y-85532546D01*
X152930189Y-85542079D01*
X152972060Y-85598011D01*
X152977045Y-85667703D01*
X152950170Y-85721877D01*
X152801161Y-85896344D01*
X152801160Y-85896346D01*
X152669533Y-86111140D01*
X152573126Y-86343889D01*
X152514317Y-86588848D01*
X152494551Y-86840000D01*
X152514317Y-87091151D01*
X152573126Y-87336110D01*
X152669533Y-87568859D01*
X152801160Y-87783653D01*
X152801161Y-87783656D01*
X152801164Y-87783659D01*
X152964776Y-87975224D01*
X152998375Y-88003920D01*
X153012179Y-88015710D01*
X153050372Y-88074217D01*
X153050870Y-88144085D01*
X153013516Y-88203131D01*
X153012179Y-88204290D01*
X152964776Y-88244776D01*
X152801161Y-88436343D01*
X152801160Y-88436346D01*
X152669533Y-88651140D01*
X152573126Y-88883889D01*
X152514317Y-89128848D01*
X152494551Y-89380000D01*
X152514317Y-89631151D01*
X152573126Y-89876110D01*
X152669533Y-90108859D01*
X152801160Y-90323653D01*
X152801161Y-90323656D01*
X152801164Y-90323659D01*
X152964776Y-90515224D01*
X153008936Y-90552940D01*
X153012179Y-90555710D01*
X153050372Y-90614217D01*
X153050870Y-90684085D01*
X153013516Y-90743131D01*
X153012179Y-90744290D01*
X152964776Y-90784776D01*
X152801161Y-90976343D01*
X152801160Y-90976346D01*
X152669533Y-91191140D01*
X152573126Y-91423889D01*
X152514317Y-91668848D01*
X152494551Y-91920000D01*
X152514317Y-92171151D01*
X152573126Y-92416110D01*
X152669533Y-92648859D01*
X152801160Y-92863653D01*
X152801161Y-92863656D01*
X152834088Y-92902208D01*
X152964776Y-93055224D01*
X153012178Y-93095709D01*
X153012179Y-93095710D01*
X153050372Y-93154217D01*
X153050870Y-93224085D01*
X153013516Y-93283131D01*
X153012186Y-93284283D01*
X152964776Y-93324776D01*
X152801162Y-93516343D01*
X152762182Y-93579954D01*
X152725363Y-93640038D01*
X152719081Y-93650289D01*
X152667269Y-93697165D01*
X152613353Y-93709500D01*
X152422229Y-93709500D01*
X152355190Y-93689815D01*
X152334548Y-93673181D01*
X150168421Y-91507052D01*
X150168420Y-91507051D01*
X150106453Y-91465647D01*
X150083784Y-91450500D01*
X150083783Y-91450499D01*
X150045500Y-91424919D01*
X150045488Y-91424912D01*
X149908917Y-91368343D01*
X149908907Y-91368340D01*
X149763920Y-91339500D01*
X149763918Y-91339500D01*
X144136082Y-91339500D01*
X144136076Y-91339500D01*
X144107242Y-91345234D01*
X144107243Y-91345235D01*
X143991092Y-91368339D01*
X143991086Y-91368341D01*
X143933654Y-91392131D01*
X143854508Y-91424914D01*
X143854499Y-91424919D01*
X143816217Y-91450499D01*
X143731582Y-91507049D01*
X141517049Y-93721582D01*
X141517049Y-93721583D01*
X141517048Y-93721584D01*
X141505273Y-93739206D01*
X141493498Y-93756830D01*
X141434913Y-93844508D01*
X141378343Y-93981082D01*
X141378340Y-93981092D01*
X141349500Y-94126079D01*
X141349500Y-108337770D01*
X141329815Y-108404809D01*
X141313181Y-108425451D01*
X136362011Y-113376621D01*
X136300688Y-113410106D01*
X136274330Y-113412940D01*
X130857204Y-113412940D01*
X130790165Y-113393255D01*
X130769523Y-113376621D01*
X130716930Y-113324028D01*
X130716928Y-113324026D01*
X130576788Y-113222208D01*
X130422445Y-113143567D01*
X130257701Y-113090038D01*
X130257699Y-113090037D01*
X130257698Y-113090037D01*
X130126271Y-113069221D01*
X130086611Y-113062940D01*
X129113389Y-113062940D01*
X129073728Y-113069221D01*
X128942302Y-113090037D01*
X128777552Y-113143568D01*
X128623211Y-113222208D01*
X128543256Y-113280299D01*
X128483072Y-113324026D01*
X128483070Y-113324028D01*
X128483069Y-113324028D01*
X128360588Y-113446509D01*
X128360588Y-113446510D01*
X128360586Y-113446512D01*
X128316859Y-113506696D01*
X128258768Y-113586651D01*
X128180128Y-113740992D01*
X128126597Y-113905742D01*
X128099500Y-114076829D01*
X128099500Y-114250051D01*
X128126598Y-114421141D01*
X128180127Y-114585885D01*
X128258768Y-114740228D01*
X128360586Y-114880368D01*
X128483072Y-115002854D01*
X128623212Y-115104672D01*
X128777555Y-115183313D01*
X128942299Y-115236842D01*
X129113389Y-115263940D01*
X129113390Y-115263940D01*
X130086610Y-115263940D01*
X130086611Y-115263940D01*
X130257701Y-115236842D01*
X130422445Y-115183313D01*
X130576788Y-115104672D01*
X130716928Y-115002854D01*
X130769523Y-114950259D01*
X130830846Y-114916774D01*
X130857204Y-114913940D01*
X136710480Y-114913940D01*
X136808022Y-114894536D01*
X136855473Y-114885098D01*
X136992055Y-114828524D01*
X137041289Y-114795626D01*
X137114976Y-114746392D01*
X142682952Y-109178416D01*
X142740505Y-109092280D01*
X142765084Y-109055495D01*
X142821658Y-108918913D01*
X142831096Y-108871462D01*
X142850500Y-108773920D01*
X142850500Y-94562229D01*
X142870185Y-94495190D01*
X142886819Y-94474548D01*
X144484548Y-92876819D01*
X144545871Y-92843334D01*
X144572229Y-92840500D01*
X149327770Y-92840500D01*
X149394809Y-92860185D01*
X149415451Y-92876819D01*
X151477049Y-94938416D01*
X151581584Y-95042951D01*
X151581585Y-95042952D01*
X151704498Y-95125080D01*
X151704511Y-95125087D01*
X151841082Y-95181656D01*
X151841087Y-95181658D01*
X151841091Y-95181658D01*
X151841092Y-95181659D01*
X151986079Y-95210500D01*
X151986082Y-95210500D01*
X152613353Y-95210500D01*
X152680392Y-95230185D01*
X152719079Y-95269709D01*
X152801164Y-95403659D01*
X152964776Y-95595224D01*
X153012178Y-95635709D01*
X153012179Y-95635710D01*
X153050372Y-95694217D01*
X153050870Y-95764085D01*
X153013516Y-95823131D01*
X153012179Y-95824290D01*
X152964776Y-95864776D01*
X152801161Y-96056343D01*
X152801160Y-96056346D01*
X152669533Y-96271140D01*
X152573126Y-96503889D01*
X152514317Y-96748848D01*
X152494551Y-97000000D01*
X152514317Y-97251151D01*
X152573126Y-97496110D01*
X152669533Y-97728859D01*
X152801160Y-97943653D01*
X152801161Y-97943656D01*
X152801164Y-97943659D01*
X152964776Y-98135224D01*
X153012178Y-98175709D01*
X153012179Y-98175710D01*
X153050372Y-98234217D01*
X153050870Y-98304085D01*
X153013516Y-98363131D01*
X153012179Y-98364290D01*
X152964776Y-98404776D01*
X152801161Y-98596343D01*
X152801160Y-98596346D01*
X152669533Y-98811140D01*
X152573126Y-99043889D01*
X152514317Y-99288848D01*
X152494551Y-99540000D01*
X152514317Y-99791151D01*
X152573126Y-100036110D01*
X152669533Y-100268859D01*
X152801160Y-100483653D01*
X152801161Y-100483656D01*
X152834088Y-100522208D01*
X152964776Y-100675224D01*
X153110560Y-100799735D01*
X153156343Y-100838838D01*
X153156346Y-100838839D01*
X153371140Y-100970466D01*
X153599814Y-101065185D01*
X153603889Y-101066873D01*
X153848852Y-101125683D01*
X154100000Y-101145449D01*
X154351148Y-101125683D01*
X154596111Y-101066873D01*
X154828859Y-100970466D01*
X155043659Y-100838836D01*
X155235224Y-100675224D01*
X155398836Y-100483659D01*
X155530466Y-100268859D01*
X155626873Y-100036111D01*
X155685683Y-99791148D01*
X155705449Y-99540000D01*
X155685683Y-99288852D01*
X155626873Y-99043889D01*
X155612857Y-99010051D01*
X155530466Y-98811140D01*
X155398839Y-98596346D01*
X155398838Y-98596343D01*
X155235224Y-98404776D01*
X155229942Y-98400265D01*
X155187819Y-98364289D01*
X155149627Y-98305784D01*
X155149128Y-98235916D01*
X155186482Y-98176870D01*
X155187756Y-98175764D01*
X155235224Y-98135224D01*
X155398836Y-97943659D01*
X155530466Y-97728859D01*
X155626873Y-97496111D01*
X155685683Y-97251148D01*
X155705449Y-97000000D01*
X155685683Y-96748852D01*
X155626873Y-96503889D01*
X155612857Y-96470051D01*
X155530466Y-96271140D01*
X155398839Y-96056346D01*
X155398838Y-96056343D01*
X155235224Y-95864776D01*
X155187819Y-95824289D01*
X155149627Y-95765784D01*
X155149128Y-95695916D01*
X155186482Y-95636870D01*
X155187756Y-95635764D01*
X155235224Y-95595224D01*
X155398836Y-95403659D01*
X155530466Y-95188859D01*
X155626873Y-94956111D01*
X155685683Y-94711148D01*
X155705449Y-94460000D01*
X155685683Y-94208852D01*
X155626873Y-93963889D01*
X155612857Y-93930051D01*
X155530466Y-93731140D01*
X155398839Y-93516346D01*
X155398838Y-93516343D01*
X155235224Y-93324776D01*
X155199618Y-93294366D01*
X155187819Y-93284289D01*
X155149627Y-93225784D01*
X155149128Y-93155916D01*
X155186482Y-93096870D01*
X155187756Y-93095764D01*
X155235224Y-93055224D01*
X155398836Y-92863659D01*
X155530466Y-92648859D01*
X155626873Y-92416111D01*
X155685683Y-92171148D01*
X155705449Y-91920000D01*
X155685683Y-91668852D01*
X155626873Y-91423889D01*
X155530466Y-91191140D01*
X155398839Y-90976346D01*
X155398838Y-90976343D01*
X155235224Y-90784776D01*
X155187819Y-90744289D01*
X155149627Y-90685784D01*
X155149128Y-90615916D01*
X155186482Y-90556870D01*
X155187756Y-90555764D01*
X155235224Y-90515224D01*
X155398836Y-90323659D01*
X155530466Y-90108859D01*
X155626873Y-89876111D01*
X155685683Y-89631148D01*
X155705449Y-89380000D01*
X155685683Y-89128852D01*
X155626873Y-88883889D01*
X155612857Y-88850051D01*
X155530466Y-88651140D01*
X155398839Y-88436346D01*
X155398838Y-88436343D01*
X155235224Y-88244776D01*
X155187819Y-88204289D01*
X155149627Y-88145784D01*
X155149128Y-88075916D01*
X155186482Y-88016870D01*
X155187756Y-88015764D01*
X155235224Y-87975224D01*
X155398836Y-87783659D01*
X155530466Y-87568859D01*
X155626873Y-87336111D01*
X155685683Y-87091148D01*
X155705449Y-86840000D01*
X155685683Y-86588852D01*
X155626873Y-86343889D01*
X155612857Y-86310051D01*
X155530466Y-86111140D01*
X155398839Y-85896346D01*
X155398833Y-85896337D01*
X155269331Y-85744709D01*
X155240760Y-85680948D01*
X155251197Y-85611862D01*
X155289309Y-85564912D01*
X155332546Y-85532546D01*
X155418796Y-85417331D01*
X155469091Y-85282483D01*
X155471601Y-85259139D01*
X155475499Y-85222886D01*
X155475499Y-85222882D01*
X155475500Y-85222873D01*
X155475499Y-85153527D01*
X155493773Y-85088735D01*
X155530464Y-85028863D01*
X155530466Y-85028858D01*
X155530467Y-85028857D01*
X155626873Y-84796111D01*
X155685683Y-84551148D01*
X155705449Y-84300000D01*
X155685683Y-84048852D01*
X155626873Y-83803889D01*
X155612857Y-83770051D01*
X155530466Y-83571140D01*
X155493772Y-83511261D01*
X155475499Y-83446471D01*
X155475499Y-83427129D01*
X155475498Y-83427123D01*
X155475349Y-83425739D01*
X155469091Y-83367517D01*
X155469091Y-83367516D01*
X155415697Y-83224359D01*
X155417275Y-83223770D01*
X155404630Y-83165662D01*
X155429043Y-83100196D01*
X155484974Y-83058321D01*
X155528315Y-83050500D01*
X164817770Y-83050500D01*
X164884809Y-83070185D01*
X164905451Y-83086819D01*
X166513181Y-84694549D01*
X166546666Y-84755872D01*
X166549500Y-84782230D01*
X166549500Y-92673918D01*
X166549500Y-92673920D01*
X166549499Y-92673920D01*
X166578340Y-92818907D01*
X166578343Y-92818917D01*
X166634912Y-92955488D01*
X166634921Y-92955504D01*
X166649647Y-92977542D01*
X166649648Y-92977546D01*
X166649649Y-92977546D01*
X166717046Y-93078414D01*
X166717052Y-93078421D01*
X169921584Y-96282952D01*
X169921586Y-96282954D01*
X169942353Y-96296829D01*
X169995270Y-96332186D01*
X170044505Y-96365084D01*
X170044506Y-96365084D01*
X170044507Y-96365085D01*
X170044509Y-96365086D01*
X170168890Y-96416606D01*
X170181087Y-96421658D01*
X170181091Y-96421658D01*
X170181092Y-96421659D01*
X170326079Y-96450500D01*
X170326082Y-96450500D01*
X170326083Y-96450500D01*
X170473917Y-96450500D01*
X172073337Y-96450500D01*
X172140376Y-96470185D01*
X172174912Y-96503377D01*
X172199954Y-96539141D01*
X172360858Y-96700045D01*
X172360861Y-96700047D01*
X172547266Y-96830568D01*
X172753504Y-96926739D01*
X172973308Y-96985635D01*
X173135230Y-96999801D01*
X173199998Y-97005468D01*
X173200000Y-97005468D01*
X173200002Y-97005468D01*
X173262499Y-97000000D01*
X173426692Y-96985635D01*
X173646496Y-96926739D01*
X173852734Y-96830568D01*
X174039139Y-96700047D01*
X174200047Y-96539139D01*
X174330568Y-96352734D01*
X174426739Y-96146496D01*
X174485635Y-95926692D01*
X174505468Y-95700000D01*
X174505468Y-95699998D01*
X175094532Y-95699998D01*
X175094532Y-95700001D01*
X175114364Y-95926686D01*
X175114366Y-95926697D01*
X175173258Y-96146488D01*
X175173261Y-96146497D01*
X175269431Y-96352732D01*
X175269432Y-96352734D01*
X175399954Y-96539141D01*
X175560858Y-96700045D01*
X175560861Y-96700047D01*
X175747266Y-96830568D01*
X175953504Y-96926739D01*
X176173308Y-96985635D01*
X176335230Y-96999801D01*
X176399998Y-97005468D01*
X176400000Y-97005468D01*
X176400002Y-97005468D01*
X176462499Y-97000000D01*
X176626692Y-96985635D01*
X176846496Y-96926739D01*
X177052734Y-96830568D01*
X177239139Y-96700047D01*
X177400047Y-96539139D01*
X177530568Y-96352734D01*
X177626739Y-96146496D01*
X177685635Y-95926692D01*
X177705468Y-95700000D01*
X177705467Y-95699994D01*
X224344357Y-95699994D01*
X224344357Y-95700005D01*
X224364890Y-95947812D01*
X224364892Y-95947824D01*
X224425936Y-96188881D01*
X224525826Y-96416606D01*
X224661833Y-96624782D01*
X224661836Y-96624785D01*
X224830256Y-96807738D01*
X225026491Y-96960474D01*
X225085699Y-96992516D01*
X225195854Y-97052129D01*
X225245190Y-97078828D01*
X225480386Y-97159571D01*
X225725665Y-97200500D01*
X225974335Y-97200500D01*
X226219614Y-97159571D01*
X226454810Y-97078828D01*
X226673509Y-96960474D01*
X226869744Y-96807738D01*
X227038164Y-96624785D01*
X227174173Y-96416607D01*
X227274063Y-96188881D01*
X227335108Y-95947821D01*
X227335572Y-95942219D01*
X227355643Y-95700005D01*
X227355643Y-95699994D01*
X238844357Y-95699994D01*
X238844357Y-95700005D01*
X238864890Y-95947812D01*
X238864892Y-95947824D01*
X238925936Y-96188881D01*
X239025826Y-96416606D01*
X239161833Y-96624782D01*
X239161836Y-96624785D01*
X239330256Y-96807738D01*
X239526491Y-96960474D01*
X239585699Y-96992516D01*
X239695854Y-97052129D01*
X239745190Y-97078828D01*
X239980386Y-97159571D01*
X240225665Y-97200500D01*
X240474335Y-97200500D01*
X240719614Y-97159571D01*
X240954810Y-97078828D01*
X241173509Y-96960474D01*
X241369744Y-96807738D01*
X241538164Y-96624785D01*
X241674173Y-96416607D01*
X241774063Y-96188881D01*
X241835108Y-95947821D01*
X241835572Y-95942219D01*
X241855643Y-95700005D01*
X241855643Y-95699994D01*
X241835109Y-95452187D01*
X241835107Y-95452175D01*
X241774063Y-95211118D01*
X241674173Y-94983393D01*
X241538166Y-94775217D01*
X241468880Y-94699953D01*
X241369744Y-94592262D01*
X241173509Y-94439526D01*
X241173507Y-94439525D01*
X241173506Y-94439524D01*
X240954811Y-94321172D01*
X240954802Y-94321169D01*
X240719616Y-94240429D01*
X240474335Y-94199500D01*
X240225665Y-94199500D01*
X239980383Y-94240429D01*
X239745197Y-94321169D01*
X239745188Y-94321172D01*
X239526493Y-94439524D01*
X239330257Y-94592261D01*
X239161833Y-94775217D01*
X239025826Y-94983393D01*
X238925936Y-95211118D01*
X238864892Y-95452175D01*
X238864890Y-95452187D01*
X238844357Y-95699994D01*
X227355643Y-95699994D01*
X227335109Y-95452187D01*
X227335107Y-95452175D01*
X227274063Y-95211118D01*
X227174173Y-94983393D01*
X227038166Y-94775217D01*
X226968880Y-94699953D01*
X226869744Y-94592262D01*
X226673509Y-94439526D01*
X226673507Y-94439525D01*
X226673506Y-94439524D01*
X226454811Y-94321172D01*
X226454802Y-94321169D01*
X226219616Y-94240429D01*
X225974335Y-94199500D01*
X225725665Y-94199500D01*
X225480383Y-94240429D01*
X225245197Y-94321169D01*
X225245188Y-94321172D01*
X225026493Y-94439524D01*
X224830257Y-94592261D01*
X224661833Y-94775217D01*
X224525826Y-94983393D01*
X224425936Y-95211118D01*
X224364892Y-95452175D01*
X224364890Y-95452187D01*
X224344357Y-95699994D01*
X177705467Y-95699994D01*
X177685635Y-95473313D01*
X177685635Y-95473308D01*
X177626739Y-95253504D01*
X177530568Y-95047266D01*
X177401764Y-94863313D01*
X177400045Y-94860858D01*
X177239141Y-94699954D01*
X177052734Y-94569432D01*
X177052732Y-94569431D01*
X176846497Y-94473261D01*
X176846488Y-94473258D01*
X176626697Y-94414366D01*
X176626693Y-94414365D01*
X176626692Y-94414365D01*
X176626691Y-94414364D01*
X176626686Y-94414364D01*
X176400002Y-94394532D01*
X176399998Y-94394532D01*
X176173313Y-94414364D01*
X176173302Y-94414366D01*
X175953511Y-94473258D01*
X175953502Y-94473261D01*
X175747267Y-94569431D01*
X175747265Y-94569432D01*
X175560858Y-94699954D01*
X175399954Y-94860858D01*
X175269432Y-95047266D01*
X175173261Y-95253502D01*
X175173258Y-95253511D01*
X175114366Y-95473302D01*
X175114364Y-95473313D01*
X175094532Y-95699998D01*
X174505468Y-95699998D01*
X174505467Y-95699994D01*
X174485635Y-95473313D01*
X174485635Y-95473308D01*
X174426739Y-95253504D01*
X174330568Y-95047266D01*
X174201764Y-94863313D01*
X174200045Y-94860858D01*
X174039141Y-94699954D01*
X173852734Y-94569432D01*
X173852732Y-94569431D01*
X173646497Y-94473261D01*
X173646488Y-94473258D01*
X173426697Y-94414366D01*
X173426693Y-94414365D01*
X173426692Y-94414365D01*
X173426691Y-94414364D01*
X173426686Y-94414364D01*
X173200002Y-94394532D01*
X173199998Y-94394532D01*
X172973313Y-94414364D01*
X172973302Y-94414366D01*
X172753511Y-94473258D01*
X172753502Y-94473261D01*
X172547267Y-94569431D01*
X172547265Y-94569432D01*
X172360858Y-94699954D01*
X172199954Y-94860858D01*
X172174912Y-94896623D01*
X172120335Y-94940248D01*
X172073337Y-94949500D01*
X170762230Y-94949500D01*
X170695191Y-94929815D01*
X170674549Y-94913181D01*
X168086819Y-92325451D01*
X168053334Y-92264128D01*
X168050500Y-92237770D01*
X168050500Y-84346081D01*
X168044763Y-84317242D01*
X168044763Y-84317240D01*
X168036991Y-84278168D01*
X168021659Y-84201088D01*
X167967408Y-84070117D01*
X167965765Y-84065525D01*
X167965084Y-84064505D01*
X167917609Y-83993453D01*
X167917609Y-83993452D01*
X167882950Y-83941581D01*
X165658421Y-81717052D01*
X165658414Y-81717046D01*
X165584729Y-81667812D01*
X165584729Y-81667813D01*
X165535491Y-81634913D01*
X165398917Y-81578343D01*
X165398907Y-81578340D01*
X165253920Y-81549500D01*
X165253918Y-81549500D01*
X140426082Y-81549500D01*
X140426080Y-81549500D01*
X140281092Y-81578340D01*
X140281086Y-81578342D01*
X140144508Y-81634914D01*
X140144496Y-81634921D01*
X140095269Y-81667813D01*
X140021588Y-81717044D01*
X140021580Y-81717050D01*
X131222011Y-90516621D01*
X131160688Y-90550106D01*
X131134330Y-90552940D01*
X130857204Y-90552940D01*
X130790165Y-90533255D01*
X130769523Y-90516621D01*
X130716930Y-90464028D01*
X130716928Y-90464026D01*
X130576788Y-90362208D01*
X130422445Y-90283567D01*
X130257701Y-90230038D01*
X130257699Y-90230037D01*
X130257698Y-90230037D01*
X130126271Y-90209221D01*
X130086611Y-90202940D01*
X129113389Y-90202940D01*
X129073728Y-90209221D01*
X128942302Y-90230037D01*
X128942299Y-90230038D01*
X128808526Y-90273504D01*
X128777552Y-90283568D01*
X128623211Y-90362208D01*
X128543256Y-90420299D01*
X128483072Y-90464026D01*
X128483070Y-90464028D01*
X128483069Y-90464028D01*
X128360588Y-90586509D01*
X128360588Y-90586510D01*
X128360586Y-90586512D01*
X128340457Y-90614217D01*
X128258768Y-90726651D01*
X128180128Y-90880992D01*
X128126597Y-91045742D01*
X128115392Y-91116488D01*
X128099500Y-91216829D01*
X105700500Y-91216829D01*
X105673402Y-91045739D01*
X105619873Y-90880995D01*
X105541232Y-90726652D01*
X105439414Y-90586512D01*
X105316928Y-90464026D01*
X105176788Y-90362208D01*
X105022445Y-90283567D01*
X104857701Y-90230038D01*
X104857699Y-90230037D01*
X104857698Y-90230037D01*
X104726271Y-90209221D01*
X104686611Y-90202940D01*
X103713389Y-90202940D01*
X103673728Y-90209221D01*
X103542302Y-90230037D01*
X103542299Y-90230038D01*
X103408526Y-90273504D01*
X103377552Y-90283568D01*
X103223211Y-90362208D01*
X103143256Y-90420299D01*
X103083072Y-90464026D01*
X103083070Y-90464028D01*
X103083069Y-90464028D01*
X102960588Y-90586509D01*
X102960588Y-90586510D01*
X102960586Y-90586512D01*
X102940457Y-90614217D01*
X102858768Y-90726651D01*
X102780128Y-90880992D01*
X102726597Y-91045742D01*
X102715392Y-91116488D01*
X102699500Y-91216829D01*
X96400500Y-91216829D01*
X96400500Y-88676829D01*
X102699500Y-88676829D01*
X102699500Y-88850051D01*
X102726598Y-89021141D01*
X102780127Y-89185885D01*
X102858768Y-89340228D01*
X102960586Y-89480368D01*
X103083072Y-89602854D01*
X103223212Y-89704672D01*
X103377555Y-89783313D01*
X103542299Y-89836842D01*
X103713389Y-89863940D01*
X103713390Y-89863940D01*
X104686610Y-89863940D01*
X104686611Y-89863940D01*
X104857701Y-89836842D01*
X105022445Y-89783313D01*
X105176788Y-89704672D01*
X105316928Y-89602854D01*
X105439414Y-89480368D01*
X105541232Y-89340228D01*
X105619873Y-89185885D01*
X105673402Y-89021141D01*
X105700500Y-88850051D01*
X105700500Y-88676829D01*
X128099500Y-88676829D01*
X128099500Y-88850051D01*
X128126598Y-89021141D01*
X128180127Y-89185885D01*
X128258768Y-89340228D01*
X128360586Y-89480368D01*
X128483072Y-89602854D01*
X128623212Y-89704672D01*
X128777555Y-89783313D01*
X128942299Y-89836842D01*
X129113389Y-89863940D01*
X129113390Y-89863940D01*
X130086610Y-89863940D01*
X130086611Y-89863940D01*
X130257701Y-89836842D01*
X130422445Y-89783313D01*
X130576788Y-89704672D01*
X130716928Y-89602854D01*
X130839414Y-89480368D01*
X130850828Y-89464657D01*
X130887515Y-89432698D01*
X130886988Y-89431909D01*
X130892052Y-89428525D01*
X130892055Y-89428524D01*
X130958144Y-89384365D01*
X130958147Y-89384362D01*
X130958149Y-89384362D01*
X130978154Y-89370995D01*
X131014976Y-89346392D01*
X139674549Y-80686819D01*
X139735872Y-80653334D01*
X139762230Y-80650500D01*
X166337770Y-80650500D01*
X166404809Y-80670185D01*
X166425451Y-80686819D01*
X169613181Y-83874548D01*
X169646666Y-83935871D01*
X169649500Y-83962229D01*
X169649500Y-88003918D01*
X169649500Y-88003920D01*
X169649499Y-88003920D01*
X169678340Y-88148907D01*
X169678343Y-88148917D01*
X169734914Y-88285492D01*
X169767812Y-88334727D01*
X169767813Y-88334730D01*
X169817046Y-88408414D01*
X169817052Y-88408421D01*
X171877651Y-90469019D01*
X171911136Y-90530342D01*
X171913498Y-90567506D01*
X171904532Y-90669996D01*
X171904532Y-90670001D01*
X171924364Y-90896686D01*
X171924366Y-90896697D01*
X171983258Y-91116488D01*
X171983261Y-91116497D01*
X172079431Y-91322732D01*
X172079432Y-91322734D01*
X172209954Y-91509141D01*
X172370858Y-91670045D01*
X172370861Y-91670047D01*
X172557266Y-91800568D01*
X172763504Y-91896739D01*
X172983308Y-91955635D01*
X173145230Y-91969801D01*
X173209998Y-91975468D01*
X173210000Y-91975468D01*
X173210002Y-91975468D01*
X173266673Y-91970509D01*
X173436692Y-91955635D01*
X173656496Y-91896739D01*
X173862734Y-91800568D01*
X174049139Y-91670047D01*
X174210047Y-91509139D01*
X174340568Y-91322734D01*
X174436739Y-91116496D01*
X174495635Y-90896692D01*
X174511094Y-90719998D01*
X175094532Y-90719998D01*
X175094532Y-90720001D01*
X175114364Y-90946686D01*
X175114366Y-90946697D01*
X175173258Y-91166488D01*
X175173261Y-91166497D01*
X175269431Y-91372732D01*
X175269432Y-91372734D01*
X175399954Y-91559141D01*
X175560858Y-91720045D01*
X175569201Y-91725887D01*
X175747266Y-91850568D01*
X175953504Y-91946739D01*
X176173308Y-92005635D01*
X176335230Y-92019801D01*
X176399998Y-92025468D01*
X176400000Y-92025468D01*
X176400002Y-92025468D01*
X176458293Y-92020368D01*
X176626692Y-92005635D01*
X176846496Y-91946739D01*
X177052734Y-91850568D01*
X177239139Y-91720047D01*
X177400047Y-91559139D01*
X177530568Y-91372734D01*
X177626739Y-91166496D01*
X177685635Y-90946692D01*
X177705468Y-90720000D01*
X177702474Y-90685784D01*
X177688875Y-90530342D01*
X177685635Y-90493308D01*
X177626739Y-90273504D01*
X177530568Y-90067266D01*
X177400047Y-89880861D01*
X177400045Y-89880858D01*
X177239141Y-89719954D01*
X177142284Y-89652135D01*
X224349500Y-89652135D01*
X224349500Y-91747870D01*
X224349501Y-91747876D01*
X224355908Y-91807483D01*
X224406202Y-91942328D01*
X224406206Y-91942335D01*
X224492452Y-92057544D01*
X224492455Y-92057547D01*
X224607664Y-92143793D01*
X224607671Y-92143797D01*
X224742517Y-92194091D01*
X224742516Y-92194091D01*
X224749444Y-92194835D01*
X224802127Y-92200500D01*
X226897872Y-92200499D01*
X226957483Y-92194091D01*
X227092331Y-92143796D01*
X227207546Y-92057546D01*
X227293796Y-91942331D01*
X227344091Y-91807483D01*
X227350500Y-91747873D01*
X227350499Y-89652128D01*
X227344091Y-89592517D01*
X227342940Y-89589432D01*
X227293797Y-89457671D01*
X227293793Y-89457664D01*
X227207547Y-89342455D01*
X227207544Y-89342452D01*
X227092335Y-89256206D01*
X227092328Y-89256202D01*
X226957482Y-89205908D01*
X226957483Y-89205908D01*
X226897883Y-89199501D01*
X226897881Y-89199500D01*
X226897873Y-89199500D01*
X226897864Y-89199500D01*
X224802129Y-89199500D01*
X224802123Y-89199501D01*
X224742516Y-89205908D01*
X224607671Y-89256202D01*
X224607664Y-89256206D01*
X224492455Y-89342452D01*
X224492452Y-89342455D01*
X224406206Y-89457664D01*
X224406202Y-89457671D01*
X224355908Y-89592517D01*
X224351755Y-89631151D01*
X224349501Y-89652123D01*
X224349500Y-89652135D01*
X177142284Y-89652135D01*
X177052734Y-89589432D01*
X177052732Y-89589431D01*
X176846497Y-89493261D01*
X176846488Y-89493258D01*
X176626697Y-89434366D01*
X176626693Y-89434365D01*
X176626692Y-89434365D01*
X176626691Y-89434364D01*
X176626686Y-89434364D01*
X176400002Y-89414532D01*
X176399998Y-89414532D01*
X176173313Y-89434364D01*
X176173302Y-89434366D01*
X175953511Y-89493258D01*
X175953502Y-89493261D01*
X175747267Y-89589431D01*
X175747265Y-89589432D01*
X175560858Y-89719954D01*
X175399954Y-89880858D01*
X175269432Y-90067265D01*
X175269431Y-90067267D01*
X175173261Y-90273502D01*
X175173258Y-90273511D01*
X175114366Y-90493302D01*
X175114364Y-90493313D01*
X175094532Y-90719998D01*
X174511094Y-90719998D01*
X174515468Y-90670000D01*
X174495635Y-90443308D01*
X174436739Y-90223504D01*
X174340568Y-90017266D01*
X174210047Y-89830861D01*
X174210045Y-89830858D01*
X174049141Y-89669954D01*
X173862734Y-89539432D01*
X173862732Y-89539431D01*
X173656497Y-89443261D01*
X173656488Y-89443258D01*
X173436697Y-89384366D01*
X173436693Y-89384365D01*
X173436692Y-89384365D01*
X173436691Y-89384364D01*
X173436686Y-89384364D01*
X173210002Y-89364532D01*
X173209998Y-89364532D01*
X173040365Y-89379373D01*
X172983308Y-89384365D01*
X172983307Y-89384365D01*
X172978771Y-89384762D01*
X172910271Y-89370995D01*
X172880283Y-89348915D01*
X171186819Y-87655451D01*
X171153334Y-87594128D01*
X171150500Y-87567770D01*
X171150500Y-83526079D01*
X171121659Y-83381092D01*
X171121658Y-83381091D01*
X171121658Y-83381087D01*
X171116035Y-83367512D01*
X171065087Y-83244511D01*
X171065080Y-83244498D01*
X170982952Y-83121585D01*
X170931552Y-83070185D01*
X170878416Y-83017049D01*
X170024678Y-82163311D01*
X167178421Y-79317052D01*
X167178414Y-79317046D01*
X167104729Y-79267812D01*
X167104729Y-79267813D01*
X167055491Y-79234913D01*
X166918917Y-79178343D01*
X166918907Y-79178340D01*
X166773920Y-79149500D01*
X166773918Y-79149500D01*
X139326082Y-79149500D01*
X139326080Y-79149500D01*
X139181092Y-79178340D01*
X139181086Y-79178342D01*
X139044508Y-79234914D01*
X139044496Y-79234921D01*
X138995269Y-79267813D01*
X138921588Y-79317044D01*
X138921580Y-79317050D01*
X130530986Y-87707644D01*
X130469663Y-87741129D01*
X130404987Y-87737894D01*
X130257698Y-87690037D01*
X130126271Y-87669221D01*
X130086611Y-87662940D01*
X129113389Y-87662940D01*
X129073728Y-87669221D01*
X128942302Y-87690037D01*
X128777552Y-87743568D01*
X128623211Y-87822208D01*
X128543256Y-87880299D01*
X128483072Y-87924026D01*
X128483070Y-87924028D01*
X128483069Y-87924028D01*
X128360588Y-88046509D01*
X128360588Y-88046510D01*
X128360586Y-88046512D01*
X128340457Y-88074217D01*
X128258768Y-88186651D01*
X128180128Y-88340992D01*
X128126597Y-88505742D01*
X128103569Y-88651140D01*
X128099500Y-88676829D01*
X105700500Y-88676829D01*
X105673402Y-88505739D01*
X105619873Y-88340995D01*
X105541232Y-88186652D01*
X105439414Y-88046512D01*
X105316928Y-87924026D01*
X105176788Y-87822208D01*
X105022445Y-87743567D01*
X104857701Y-87690038D01*
X104857699Y-87690037D01*
X104857698Y-87690037D01*
X104726271Y-87669221D01*
X104686611Y-87662940D01*
X103713389Y-87662940D01*
X103673728Y-87669221D01*
X103542302Y-87690037D01*
X103377552Y-87743568D01*
X103223211Y-87822208D01*
X103143256Y-87880299D01*
X103083072Y-87924026D01*
X103083070Y-87924028D01*
X103083069Y-87924028D01*
X102960588Y-88046509D01*
X102960588Y-88046510D01*
X102960586Y-88046512D01*
X102940457Y-88074217D01*
X102858768Y-88186651D01*
X102780128Y-88340992D01*
X102726597Y-88505742D01*
X102703569Y-88651140D01*
X102699500Y-88676829D01*
X96400500Y-88676829D01*
X96400500Y-86136829D01*
X102699500Y-86136829D01*
X102699500Y-86310051D01*
X102726598Y-86481141D01*
X102780127Y-86645885D01*
X102858768Y-86800228D01*
X102960586Y-86940368D01*
X103083072Y-87062854D01*
X103223212Y-87164672D01*
X103377555Y-87243313D01*
X103542299Y-87296842D01*
X103713389Y-87323940D01*
X103713390Y-87323940D01*
X104686610Y-87323940D01*
X104686611Y-87323940D01*
X104857701Y-87296842D01*
X105022445Y-87243313D01*
X105176788Y-87164672D01*
X105316928Y-87062854D01*
X105439414Y-86940368D01*
X105541232Y-86800228D01*
X105619873Y-86645885D01*
X105673402Y-86481141D01*
X105700500Y-86310051D01*
X105700500Y-86136829D01*
X128099500Y-86136829D01*
X128099500Y-86310051D01*
X128126598Y-86481141D01*
X128180127Y-86645885D01*
X128258768Y-86800228D01*
X128360586Y-86940368D01*
X128483072Y-87062854D01*
X128623212Y-87164672D01*
X128777555Y-87243313D01*
X128942299Y-87296842D01*
X129113389Y-87323940D01*
X129113390Y-87323940D01*
X130086610Y-87323940D01*
X130086611Y-87323940D01*
X130257701Y-87296842D01*
X130422445Y-87243313D01*
X130576788Y-87164672D01*
X130716928Y-87062854D01*
X130839414Y-86940368D01*
X130941232Y-86800228D01*
X131019873Y-86645885D01*
X131073402Y-86481141D01*
X131100500Y-86310051D01*
X131100500Y-86136829D01*
X131073402Y-85965739D01*
X131019873Y-85800995D01*
X130941232Y-85646652D01*
X130839414Y-85506512D01*
X130716928Y-85384026D01*
X130576788Y-85282208D01*
X130460361Y-85222886D01*
X130422447Y-85203568D01*
X130422446Y-85203567D01*
X130422445Y-85203567D01*
X130257701Y-85150038D01*
X130257699Y-85150037D01*
X130257698Y-85150037D01*
X130126271Y-85129221D01*
X130086611Y-85122940D01*
X129113389Y-85122940D01*
X129073728Y-85129221D01*
X128942302Y-85150037D01*
X128942299Y-85150038D01*
X128788075Y-85200149D01*
X128777552Y-85203568D01*
X128623211Y-85282208D01*
X128622833Y-85282483D01*
X128483072Y-85384026D01*
X128483070Y-85384028D01*
X128483069Y-85384028D01*
X128360588Y-85506509D01*
X128360588Y-85506510D01*
X128360586Y-85506512D01*
X128341673Y-85532544D01*
X128258768Y-85646651D01*
X128180128Y-85800992D01*
X128126597Y-85965742D01*
X128103569Y-86111140D01*
X128099500Y-86136829D01*
X105700500Y-86136829D01*
X105673402Y-85965739D01*
X105619873Y-85800995D01*
X105541232Y-85646652D01*
X105439414Y-85506512D01*
X105316928Y-85384026D01*
X105176788Y-85282208D01*
X105060361Y-85222886D01*
X105022447Y-85203568D01*
X105022446Y-85203567D01*
X105022445Y-85203567D01*
X104857701Y-85150038D01*
X104857699Y-85150037D01*
X104857698Y-85150037D01*
X104726271Y-85129221D01*
X104686611Y-85122940D01*
X103713389Y-85122940D01*
X103673728Y-85129221D01*
X103542302Y-85150037D01*
X103542299Y-85150038D01*
X103388075Y-85200149D01*
X103377552Y-85203568D01*
X103223211Y-85282208D01*
X103222833Y-85282483D01*
X103083072Y-85384026D01*
X103083070Y-85384028D01*
X103083069Y-85384028D01*
X102960588Y-85506509D01*
X102960588Y-85506510D01*
X102960586Y-85506512D01*
X102941673Y-85532544D01*
X102858768Y-85646651D01*
X102780128Y-85800992D01*
X102726597Y-85965742D01*
X102703569Y-86111140D01*
X102699500Y-86136829D01*
X96400500Y-86136829D01*
X96400500Y-83596829D01*
X128099500Y-83596829D01*
X128099500Y-83770051D01*
X128126598Y-83941141D01*
X128180127Y-84105885D01*
X128258768Y-84260228D01*
X128360586Y-84400368D01*
X128483072Y-84522854D01*
X128623212Y-84624672D01*
X128777555Y-84703313D01*
X128942299Y-84756842D01*
X129113389Y-84783940D01*
X129113390Y-84783940D01*
X130086610Y-84783940D01*
X130086611Y-84783940D01*
X130257701Y-84756842D01*
X130422445Y-84703313D01*
X130576788Y-84624672D01*
X130716928Y-84522854D01*
X130839414Y-84400368D01*
X130941232Y-84260228D01*
X131019873Y-84105885D01*
X131073402Y-83941141D01*
X131100500Y-83770051D01*
X131100500Y-83596829D01*
X131073402Y-83425739D01*
X131019873Y-83260995D01*
X130941232Y-83106652D01*
X130839414Y-82966512D01*
X130716928Y-82844026D01*
X130576788Y-82742208D01*
X130422445Y-82663567D01*
X130257701Y-82610038D01*
X130257699Y-82610037D01*
X130257698Y-82610037D01*
X130126271Y-82589221D01*
X130086611Y-82582940D01*
X129113389Y-82582940D01*
X129073728Y-82589221D01*
X128942302Y-82610037D01*
X128777552Y-82663568D01*
X128623211Y-82742208D01*
X128543256Y-82800299D01*
X128483072Y-82844026D01*
X128483070Y-82844028D01*
X128483069Y-82844028D01*
X128360588Y-82966509D01*
X128360588Y-82966510D01*
X128360586Y-82966512D01*
X128323869Y-83017049D01*
X128258768Y-83106651D01*
X128180128Y-83260992D01*
X128126597Y-83425742D01*
X128110705Y-83526082D01*
X128099500Y-83596829D01*
X96400500Y-83596829D01*
X96400500Y-81056829D01*
X102699500Y-81056829D01*
X102699500Y-81230051D01*
X102726598Y-81401141D01*
X102780127Y-81565885D01*
X102858768Y-81720228D01*
X102960586Y-81860368D01*
X103083072Y-81982854D01*
X103223212Y-82084672D01*
X103377555Y-82163313D01*
X103542299Y-82216842D01*
X103713389Y-82243940D01*
X103713390Y-82243940D01*
X104686610Y-82243940D01*
X104686611Y-82243940D01*
X104857701Y-82216842D01*
X105022445Y-82163313D01*
X105176788Y-82084672D01*
X105316928Y-81982854D01*
X105439414Y-81860368D01*
X105541232Y-81720228D01*
X105619873Y-81565885D01*
X105673402Y-81401141D01*
X105700500Y-81230051D01*
X105700500Y-81056829D01*
X128099500Y-81056829D01*
X128099500Y-81230051D01*
X128126598Y-81401141D01*
X128180127Y-81565885D01*
X128258768Y-81720228D01*
X128360586Y-81860368D01*
X128483072Y-81982854D01*
X128623212Y-82084672D01*
X128777555Y-82163313D01*
X128942299Y-82216842D01*
X129113389Y-82243940D01*
X129113390Y-82243940D01*
X130086610Y-82243940D01*
X130086611Y-82243940D01*
X130257701Y-82216842D01*
X130422445Y-82163313D01*
X130576788Y-82084672D01*
X130716928Y-81982854D01*
X130839414Y-81860368D01*
X130941232Y-81720228D01*
X131019873Y-81565885D01*
X131073402Y-81401141D01*
X131100500Y-81230051D01*
X131100500Y-81056829D01*
X131073402Y-80885739D01*
X131019873Y-80720995D01*
X130941232Y-80566652D01*
X130839414Y-80426512D01*
X130716928Y-80304026D01*
X130576788Y-80202208D01*
X130422445Y-80123567D01*
X130257701Y-80070038D01*
X130257699Y-80070037D01*
X130257698Y-80070037D01*
X130126271Y-80049221D01*
X130086611Y-80042940D01*
X129113389Y-80042940D01*
X129073728Y-80049221D01*
X128942302Y-80070037D01*
X128777552Y-80123568D01*
X128623211Y-80202208D01*
X128543256Y-80260299D01*
X128483072Y-80304026D01*
X128483070Y-80304028D01*
X128483069Y-80304028D01*
X128360588Y-80426509D01*
X128360588Y-80426510D01*
X128360586Y-80426512D01*
X128316859Y-80486696D01*
X128258768Y-80566651D01*
X128180128Y-80720992D01*
X128126597Y-80885742D01*
X128099500Y-81056829D01*
X105700500Y-81056829D01*
X105673402Y-80885739D01*
X105619873Y-80720995D01*
X105541232Y-80566652D01*
X105439414Y-80426512D01*
X105316928Y-80304026D01*
X105176788Y-80202208D01*
X105022445Y-80123567D01*
X104857701Y-80070038D01*
X104857699Y-80070037D01*
X104857698Y-80070037D01*
X104726271Y-80049221D01*
X104686611Y-80042940D01*
X103713389Y-80042940D01*
X103673728Y-80049221D01*
X103542302Y-80070037D01*
X103377552Y-80123568D01*
X103223211Y-80202208D01*
X103143256Y-80260299D01*
X103083072Y-80304026D01*
X103083070Y-80304028D01*
X103083069Y-80304028D01*
X102960588Y-80426509D01*
X102960588Y-80426510D01*
X102960586Y-80426512D01*
X102916859Y-80486696D01*
X102858768Y-80566651D01*
X102780128Y-80720992D01*
X102726597Y-80885742D01*
X102699500Y-81056829D01*
X96400500Y-81056829D01*
X96400500Y-78516829D01*
X102699500Y-78516829D01*
X102699500Y-78690051D01*
X102726598Y-78861141D01*
X102780127Y-79025885D01*
X102858768Y-79180228D01*
X102960586Y-79320368D01*
X103083072Y-79442854D01*
X103223212Y-79544672D01*
X103377555Y-79623313D01*
X103542299Y-79676842D01*
X103713389Y-79703940D01*
X103713390Y-79703940D01*
X104686610Y-79703940D01*
X104686611Y-79703940D01*
X104857701Y-79676842D01*
X105022445Y-79623313D01*
X105176788Y-79544672D01*
X105316928Y-79442854D01*
X105439414Y-79320368D01*
X105541232Y-79180228D01*
X105619873Y-79025885D01*
X105673402Y-78861141D01*
X105700500Y-78690051D01*
X105700500Y-78516829D01*
X128099500Y-78516829D01*
X128099500Y-78690051D01*
X128126598Y-78861141D01*
X128180127Y-79025885D01*
X128258768Y-79180228D01*
X128360586Y-79320368D01*
X128483072Y-79442854D01*
X128623212Y-79544672D01*
X128777555Y-79623313D01*
X128942299Y-79676842D01*
X129113389Y-79703940D01*
X129113390Y-79703940D01*
X130086610Y-79703940D01*
X130086611Y-79703940D01*
X130257701Y-79676842D01*
X130422445Y-79623313D01*
X130576788Y-79544672D01*
X130716928Y-79442854D01*
X130839414Y-79320368D01*
X130941232Y-79180228D01*
X131019873Y-79025885D01*
X131073402Y-78861141D01*
X131100500Y-78690051D01*
X131100500Y-78516829D01*
X131073402Y-78345739D01*
X131019873Y-78180995D01*
X130941232Y-78026652D01*
X130839414Y-77886512D01*
X130716928Y-77764026D01*
X130576788Y-77662208D01*
X130422445Y-77583567D01*
X130257701Y-77530038D01*
X130257699Y-77530037D01*
X130257698Y-77530037D01*
X130126271Y-77509221D01*
X130086611Y-77502940D01*
X129113389Y-77502940D01*
X129073728Y-77509221D01*
X128942302Y-77530037D01*
X128777552Y-77583568D01*
X128623211Y-77662208D01*
X128543256Y-77720299D01*
X128483072Y-77764026D01*
X128483070Y-77764028D01*
X128483069Y-77764028D01*
X128360588Y-77886509D01*
X128360588Y-77886510D01*
X128360586Y-77886512D01*
X128316859Y-77946696D01*
X128258768Y-78026651D01*
X128180128Y-78180992D01*
X128126597Y-78345742D01*
X128099500Y-78516829D01*
X105700500Y-78516829D01*
X105673402Y-78345739D01*
X105619873Y-78180995D01*
X105541232Y-78026652D01*
X105439414Y-77886512D01*
X105316928Y-77764026D01*
X105176788Y-77662208D01*
X105022445Y-77583567D01*
X104857701Y-77530038D01*
X104857699Y-77530037D01*
X104857698Y-77530037D01*
X104726271Y-77509221D01*
X104686611Y-77502940D01*
X103713389Y-77502940D01*
X103673728Y-77509221D01*
X103542302Y-77530037D01*
X103377552Y-77583568D01*
X103223211Y-77662208D01*
X103143256Y-77720299D01*
X103083072Y-77764026D01*
X103083070Y-77764028D01*
X103083069Y-77764028D01*
X102960588Y-77886509D01*
X102960588Y-77886510D01*
X102960586Y-77886512D01*
X102916859Y-77946696D01*
X102858768Y-78026651D01*
X102780128Y-78180992D01*
X102726597Y-78345742D01*
X102699500Y-78516829D01*
X96400500Y-78516829D01*
X96400500Y-75976829D01*
X102699500Y-75976829D01*
X102699500Y-76150051D01*
X102726598Y-76321141D01*
X102780127Y-76485885D01*
X102858768Y-76640228D01*
X102960586Y-76780368D01*
X103083072Y-76902854D01*
X103223212Y-77004672D01*
X103377555Y-77083313D01*
X103542299Y-77136842D01*
X103713389Y-77163940D01*
X103713390Y-77163940D01*
X104686610Y-77163940D01*
X104686611Y-77163940D01*
X104857701Y-77136842D01*
X105022445Y-77083313D01*
X105176788Y-77004672D01*
X105316928Y-76902854D01*
X105439414Y-76780368D01*
X105541232Y-76640228D01*
X105619873Y-76485885D01*
X105673402Y-76321141D01*
X105700500Y-76150051D01*
X105700500Y-75976829D01*
X128099500Y-75976829D01*
X128099500Y-76150051D01*
X128126598Y-76321141D01*
X128180127Y-76485885D01*
X128258768Y-76640228D01*
X128360586Y-76780368D01*
X128483072Y-76902854D01*
X128623212Y-77004672D01*
X128777555Y-77083313D01*
X128942299Y-77136842D01*
X129113389Y-77163940D01*
X129113390Y-77163940D01*
X130086610Y-77163940D01*
X130086611Y-77163940D01*
X130257701Y-77136842D01*
X130422445Y-77083313D01*
X130576788Y-77004672D01*
X130716928Y-76902854D01*
X130839414Y-76780368D01*
X130941232Y-76640228D01*
X131019873Y-76485885D01*
X131073402Y-76321141D01*
X131100500Y-76150051D01*
X131100500Y-75976829D01*
X131073402Y-75805739D01*
X131019873Y-75640995D01*
X130941232Y-75486652D01*
X130839414Y-75346512D01*
X130716928Y-75224026D01*
X130576788Y-75122208D01*
X130422445Y-75043567D01*
X130257701Y-74990038D01*
X130257699Y-74990037D01*
X130257698Y-74990037D01*
X130126271Y-74969221D01*
X130086611Y-74962940D01*
X129113389Y-74962940D01*
X129073728Y-74969221D01*
X128942302Y-74990037D01*
X128777552Y-75043568D01*
X128623211Y-75122208D01*
X128543256Y-75180299D01*
X128483072Y-75224026D01*
X128483070Y-75224028D01*
X128483069Y-75224028D01*
X128360588Y-75346509D01*
X128360588Y-75346510D01*
X128360586Y-75346512D01*
X128316859Y-75406696D01*
X128258768Y-75486651D01*
X128180128Y-75640992D01*
X128126597Y-75805742D01*
X128111589Y-75900499D01*
X128099500Y-75976829D01*
X105700500Y-75976829D01*
X105673402Y-75805739D01*
X105619873Y-75640995D01*
X105541232Y-75486652D01*
X105439414Y-75346512D01*
X105316928Y-75224026D01*
X105176788Y-75122208D01*
X105022445Y-75043567D01*
X104857701Y-74990038D01*
X104857699Y-74990037D01*
X104857698Y-74990037D01*
X104726271Y-74969221D01*
X104686611Y-74962940D01*
X103713389Y-74962940D01*
X103673728Y-74969221D01*
X103542302Y-74990037D01*
X103377552Y-75043568D01*
X103223211Y-75122208D01*
X103143256Y-75180299D01*
X103083072Y-75224026D01*
X103083070Y-75224028D01*
X103083069Y-75224028D01*
X102960588Y-75346509D01*
X102960588Y-75346510D01*
X102960586Y-75346512D01*
X102916859Y-75406696D01*
X102858768Y-75486651D01*
X102780128Y-75640992D01*
X102726597Y-75805742D01*
X102711589Y-75900499D01*
X102699500Y-75976829D01*
X96400500Y-75976829D01*
X96400500Y-73436829D01*
X102699500Y-73436829D01*
X102699500Y-73610050D01*
X102722002Y-73752127D01*
X102726598Y-73781141D01*
X102780127Y-73945885D01*
X102858768Y-74100228D01*
X102960586Y-74240368D01*
X103083072Y-74362854D01*
X103223212Y-74464672D01*
X103377555Y-74543313D01*
X103542299Y-74596842D01*
X103713389Y-74623940D01*
X103713390Y-74623940D01*
X104686610Y-74623940D01*
X104686611Y-74623940D01*
X104857701Y-74596842D01*
X105022445Y-74543313D01*
X105176788Y-74464672D01*
X105316928Y-74362854D01*
X105439414Y-74240368D01*
X105541232Y-74100228D01*
X105619873Y-73945885D01*
X105673402Y-73781141D01*
X105700500Y-73610051D01*
X105700500Y-73439549D01*
X128095820Y-73439549D01*
X128095820Y-73612770D01*
X128122486Y-73781137D01*
X128122918Y-73783861D01*
X128176447Y-73948605D01*
X128255088Y-74102948D01*
X128356906Y-74243088D01*
X128479392Y-74365574D01*
X128619532Y-74467392D01*
X128773875Y-74546033D01*
X128938619Y-74599562D01*
X129109709Y-74626660D01*
X129109710Y-74626660D01*
X130082930Y-74626660D01*
X130082931Y-74626660D01*
X130254021Y-74599562D01*
X130418765Y-74546033D01*
X130573108Y-74467392D01*
X130713248Y-74365574D01*
X130835734Y-74243088D01*
X130937552Y-74102948D01*
X131016193Y-73948605D01*
X131069722Y-73783861D01*
X131096820Y-73612771D01*
X131096820Y-73439549D01*
X131069722Y-73268459D01*
X131016193Y-73103715D01*
X130937552Y-72949372D01*
X130835734Y-72809232D01*
X130713248Y-72686746D01*
X130573108Y-72584928D01*
X130418765Y-72506287D01*
X130254021Y-72452758D01*
X130254019Y-72452757D01*
X130254018Y-72452757D01*
X130122591Y-72431941D01*
X130082931Y-72425660D01*
X129109709Y-72425660D01*
X129070048Y-72431941D01*
X128938622Y-72452757D01*
X128773872Y-72506288D01*
X128619531Y-72584928D01*
X128539576Y-72643019D01*
X128479392Y-72686746D01*
X128479390Y-72686748D01*
X128479389Y-72686748D01*
X128356908Y-72809229D01*
X128356908Y-72809230D01*
X128356906Y-72809232D01*
X128334552Y-72840000D01*
X128255088Y-72949371D01*
X128176448Y-73103712D01*
X128122917Y-73268462D01*
X128095820Y-73439549D01*
X105700500Y-73439549D01*
X105700500Y-73436829D01*
X105673402Y-73265739D01*
X105619873Y-73100995D01*
X105541232Y-72946652D01*
X105439414Y-72806512D01*
X105316928Y-72684026D01*
X105176788Y-72582208D01*
X105022445Y-72503567D01*
X104857701Y-72450038D01*
X104857699Y-72450037D01*
X104857698Y-72450037D01*
X104703784Y-72425660D01*
X104686611Y-72422940D01*
X103713389Y-72422940D01*
X103696216Y-72425660D01*
X103542302Y-72450037D01*
X103377552Y-72503568D01*
X103223211Y-72582208D01*
X103143256Y-72640299D01*
X103083072Y-72684026D01*
X103083070Y-72684028D01*
X103083069Y-72684028D01*
X102960588Y-72806509D01*
X102960588Y-72806510D01*
X102960586Y-72806512D01*
X102936253Y-72840004D01*
X102858768Y-72946651D01*
X102780128Y-73100992D01*
X102726597Y-73265742D01*
X102699500Y-73436829D01*
X96400500Y-73436829D01*
X96400500Y-70896829D01*
X102699500Y-70896829D01*
X102699500Y-71070050D01*
X102719480Y-71196204D01*
X102726598Y-71241141D01*
X102780127Y-71405885D01*
X102858768Y-71560228D01*
X102960586Y-71700368D01*
X103083072Y-71822854D01*
X103223212Y-71924672D01*
X103377555Y-72003313D01*
X103542299Y-72056842D01*
X103713389Y-72083940D01*
X103713390Y-72083940D01*
X104686610Y-72083940D01*
X104686611Y-72083940D01*
X104857701Y-72056842D01*
X105022445Y-72003313D01*
X105176788Y-71924672D01*
X105316928Y-71822854D01*
X105439414Y-71700368D01*
X105541232Y-71560228D01*
X105619873Y-71405885D01*
X105673402Y-71241141D01*
X105700500Y-71070051D01*
X105700500Y-70899549D01*
X128095820Y-70899549D01*
X128095820Y-71072771D01*
X128100054Y-71099501D01*
X128122694Y-71242452D01*
X128122918Y-71243861D01*
X128176447Y-71408605D01*
X128255088Y-71562948D01*
X128356906Y-71703088D01*
X128479392Y-71825574D01*
X128619532Y-71927392D01*
X128773875Y-72006033D01*
X128938619Y-72059562D01*
X129109709Y-72086660D01*
X129109710Y-72086660D01*
X130082930Y-72086660D01*
X130082931Y-72086660D01*
X130254021Y-72059562D01*
X130418765Y-72006033D01*
X130573108Y-71927392D01*
X130713248Y-71825574D01*
X130835734Y-71703088D01*
X130937552Y-71562948D01*
X131016193Y-71408605D01*
X131069722Y-71243861D01*
X131096820Y-71072771D01*
X131096820Y-70899549D01*
X131069722Y-70728459D01*
X131016193Y-70563715D01*
X130937552Y-70409372D01*
X130835734Y-70269232D01*
X130713248Y-70146746D01*
X130573108Y-70044928D01*
X130418765Y-69966287D01*
X130254021Y-69912758D01*
X130254019Y-69912757D01*
X130254018Y-69912757D01*
X130122591Y-69891941D01*
X130082931Y-69885660D01*
X129109709Y-69885660D01*
X129070048Y-69891941D01*
X128938622Y-69912757D01*
X128773872Y-69966288D01*
X128619531Y-70044928D01*
X128539576Y-70103019D01*
X128479392Y-70146746D01*
X128479390Y-70146748D01*
X128479389Y-70146748D01*
X128356908Y-70269229D01*
X128356908Y-70269230D01*
X128356906Y-70269232D01*
X128313179Y-70329416D01*
X128255088Y-70409371D01*
X128176448Y-70563712D01*
X128122917Y-70728462D01*
X128110402Y-70807482D01*
X128095820Y-70899549D01*
X105700500Y-70899549D01*
X105700500Y-70896829D01*
X105673402Y-70725739D01*
X105619873Y-70560995D01*
X105541232Y-70406652D01*
X105439414Y-70266512D01*
X105316928Y-70144026D01*
X105176788Y-70042208D01*
X105022445Y-69963567D01*
X104857701Y-69910038D01*
X104857699Y-69910037D01*
X104857698Y-69910037D01*
X104703784Y-69885660D01*
X104686611Y-69882940D01*
X103713389Y-69882940D01*
X103696216Y-69885660D01*
X103542302Y-69910037D01*
X103377552Y-69963568D01*
X103223211Y-70042208D01*
X103205276Y-70055239D01*
X103083072Y-70144026D01*
X103083070Y-70144028D01*
X103083069Y-70144028D01*
X102960588Y-70266509D01*
X102960588Y-70266510D01*
X102960586Y-70266512D01*
X102958610Y-70269232D01*
X102858768Y-70406651D01*
X102780128Y-70560992D01*
X102726597Y-70725742D01*
X102699500Y-70896829D01*
X96400500Y-70896829D01*
X96400500Y-67052135D01*
X112499500Y-67052135D01*
X112499500Y-68747870D01*
X112499501Y-68747876D01*
X112505908Y-68807483D01*
X112556202Y-68942328D01*
X112556206Y-68942335D01*
X112642452Y-69057544D01*
X112642455Y-69057547D01*
X112757664Y-69143793D01*
X112757671Y-69143797D01*
X112892517Y-69194091D01*
X112892516Y-69194091D01*
X112899444Y-69194835D01*
X112952127Y-69200500D01*
X114647872Y-69200499D01*
X114707483Y-69194091D01*
X114842331Y-69143796D01*
X114957546Y-69057546D01*
X115043796Y-68942331D01*
X115094091Y-68807483D01*
X115100500Y-68747873D01*
X115100499Y-67599999D01*
X140744341Y-67599999D01*
X140744341Y-67600000D01*
X140764936Y-67835403D01*
X140764938Y-67835413D01*
X140826094Y-68063655D01*
X140826096Y-68063659D01*
X140826097Y-68063663D01*
X140890884Y-68202599D01*
X140925965Y-68277830D01*
X140925967Y-68277834D01*
X141061501Y-68471395D01*
X141061506Y-68471402D01*
X141228597Y-68638493D01*
X141228603Y-68638498D01*
X141414158Y-68768425D01*
X141457783Y-68823002D01*
X141464977Y-68892500D01*
X141433454Y-68954855D01*
X141414158Y-68971575D01*
X141228597Y-69101505D01*
X141061505Y-69268597D01*
X140925965Y-69462169D01*
X140925964Y-69462171D01*
X140826098Y-69676335D01*
X140826094Y-69676344D01*
X140764938Y-69904586D01*
X140764936Y-69904596D01*
X140744341Y-70139999D01*
X140744341Y-70140000D01*
X140764936Y-70375403D01*
X140764938Y-70375413D01*
X140826094Y-70603655D01*
X140826096Y-70603659D01*
X140826097Y-70603663D01*
X140893345Y-70747876D01*
X140925965Y-70817830D01*
X140925967Y-70817834D01*
X141013144Y-70942335D01*
X141061505Y-71011401D01*
X141228599Y-71178495D01*
X141318061Y-71241137D01*
X141422165Y-71314032D01*
X141422167Y-71314033D01*
X141422170Y-71314035D01*
X141636337Y-71413903D01*
X141864592Y-71475063D01*
X142052918Y-71491539D01*
X142099999Y-71495659D01*
X142100000Y-71495659D01*
X142100001Y-71495659D01*
X142139234Y-71492226D01*
X142335408Y-71475063D01*
X142563663Y-71413903D01*
X142777830Y-71314035D01*
X142971401Y-71178495D01*
X143138495Y-71011401D01*
X143274035Y-70817830D01*
X143373903Y-70603663D01*
X143435063Y-70375408D01*
X143455659Y-70140000D01*
X143435063Y-69904592D01*
X143373903Y-69676337D01*
X143274035Y-69462171D01*
X143262048Y-69445051D01*
X143138494Y-69268597D01*
X142971402Y-69101506D01*
X142971396Y-69101501D01*
X142900894Y-69052135D01*
X156399500Y-69052135D01*
X156399500Y-70747870D01*
X156399501Y-70747876D01*
X156405908Y-70807483D01*
X156456202Y-70942328D01*
X156456206Y-70942335D01*
X156542452Y-71057544D01*
X156542455Y-71057547D01*
X156657664Y-71143793D01*
X156657671Y-71143797D01*
X156792517Y-71194091D01*
X156792516Y-71194091D01*
X156799444Y-71194835D01*
X156852127Y-71200500D01*
X158547872Y-71200499D01*
X158607483Y-71194091D01*
X158742331Y-71143796D01*
X158857546Y-71057546D01*
X158943796Y-70942331D01*
X158994091Y-70807483D01*
X159000500Y-70747873D01*
X159000499Y-69309635D01*
X160649500Y-69309635D01*
X160649500Y-71310370D01*
X160649501Y-71310376D01*
X160655908Y-71369983D01*
X160706202Y-71504828D01*
X160706206Y-71504835D01*
X160792452Y-71620044D01*
X160792455Y-71620047D01*
X160907664Y-71706293D01*
X160907671Y-71706297D01*
X161042517Y-71756591D01*
X161042516Y-71756591D01*
X161049444Y-71757335D01*
X161102127Y-71763000D01*
X163197872Y-71762999D01*
X163257483Y-71756591D01*
X163392331Y-71706296D01*
X163507546Y-71620046D01*
X163593796Y-71504831D01*
X163644091Y-71369983D01*
X163650500Y-71310373D01*
X163650499Y-69309628D01*
X163644091Y-69250017D01*
X163625622Y-69200500D01*
X163593797Y-69115171D01*
X163593793Y-69115164D01*
X163507547Y-68999955D01*
X163507544Y-68999952D01*
X163392335Y-68913706D01*
X163392328Y-68913702D01*
X163257482Y-68863408D01*
X163257483Y-68863408D01*
X163197883Y-68857001D01*
X163197881Y-68857000D01*
X163197873Y-68857000D01*
X163197864Y-68857000D01*
X161102129Y-68857000D01*
X161102123Y-68857001D01*
X161042516Y-68863408D01*
X160907671Y-68913702D01*
X160907664Y-68913706D01*
X160792455Y-68999952D01*
X160792452Y-68999955D01*
X160706206Y-69115164D01*
X160706202Y-69115171D01*
X160655908Y-69250017D01*
X160649501Y-69309616D01*
X160649501Y-69309623D01*
X160649500Y-69309635D01*
X159000499Y-69309635D01*
X159000499Y-69052128D01*
X158994091Y-68992517D01*
X158986280Y-68971575D01*
X158943797Y-68857671D01*
X158943793Y-68857664D01*
X158857547Y-68742455D01*
X158857544Y-68742452D01*
X158742335Y-68656206D01*
X158742328Y-68656202D01*
X158607482Y-68605908D01*
X158607483Y-68605908D01*
X158547883Y-68599501D01*
X158547881Y-68599500D01*
X158547873Y-68599500D01*
X158547864Y-68599500D01*
X156852129Y-68599500D01*
X156852123Y-68599501D01*
X156792516Y-68605908D01*
X156657671Y-68656202D01*
X156657664Y-68656206D01*
X156542455Y-68742452D01*
X156542452Y-68742455D01*
X156456206Y-68857664D01*
X156456202Y-68857671D01*
X156405908Y-68992517D01*
X156399501Y-69052116D01*
X156399501Y-69052123D01*
X156399500Y-69052135D01*
X142900894Y-69052135D01*
X142785842Y-68971575D01*
X142742217Y-68916998D01*
X142735023Y-68847500D01*
X142766546Y-68785145D01*
X142785842Y-68768425D01*
X142822935Y-68742452D01*
X142971401Y-68638495D01*
X143138495Y-68471401D01*
X143274035Y-68277830D01*
X143373903Y-68063663D01*
X143435063Y-67835408D01*
X143437286Y-67810000D01*
X173944675Y-67810000D01*
X173963962Y-68202591D01*
X173963962Y-68202597D01*
X173963963Y-68202599D01*
X174021637Y-68591406D01*
X174117143Y-68972684D01*
X174249561Y-69342770D01*
X174249562Y-69342772D01*
X174417620Y-69698100D01*
X174578366Y-69966288D01*
X174619694Y-70035239D01*
X174791216Y-70266510D01*
X174853846Y-70350956D01*
X175117807Y-70642192D01*
X175398756Y-70896829D01*
X175409049Y-70906158D01*
X175724761Y-71140306D01*
X175786797Y-71177489D01*
X176061899Y-71342379D01*
X176061902Y-71342380D01*
X176061903Y-71342381D01*
X176417228Y-71510438D01*
X176787316Y-71642857D01*
X177168600Y-71738364D01*
X177557409Y-71796038D01*
X177950000Y-71815325D01*
X178342591Y-71796038D01*
X178731400Y-71738364D01*
X179112684Y-71642857D01*
X179254443Y-71592135D01*
X182629500Y-71592135D01*
X182629500Y-74087870D01*
X182629501Y-74087876D01*
X182635908Y-74147483D01*
X182686202Y-74282328D01*
X182686206Y-74282335D01*
X182772452Y-74397544D01*
X182772455Y-74397547D01*
X182887664Y-74483793D01*
X182887671Y-74483797D01*
X183022517Y-74534091D01*
X183022516Y-74534091D01*
X183029444Y-74534835D01*
X183082127Y-74540500D01*
X185577872Y-74540499D01*
X185637483Y-74534091D01*
X185772331Y-74483796D01*
X185887546Y-74397546D01*
X185973796Y-74282331D01*
X186024091Y-74147483D01*
X186030500Y-74087873D01*
X186030499Y-72839995D01*
X192784732Y-72839995D01*
X192784732Y-72840004D01*
X192803777Y-73094154D01*
X192852108Y-73305908D01*
X192860492Y-73342637D01*
X192953607Y-73579888D01*
X193081041Y-73800612D01*
X193239950Y-73999877D01*
X193426783Y-74173232D01*
X193637366Y-74316805D01*
X193637371Y-74316807D01*
X193637372Y-74316808D01*
X193637373Y-74316809D01*
X193738636Y-74365574D01*
X193866992Y-74427387D01*
X193866993Y-74427387D01*
X193866996Y-74427389D01*
X194110542Y-74502513D01*
X194362565Y-74540500D01*
X194617435Y-74540500D01*
X194869458Y-74502513D01*
X195113004Y-74427389D01*
X195342634Y-74316805D01*
X195553217Y-74173232D01*
X195740050Y-73999877D01*
X195898959Y-73800612D01*
X195926947Y-73752135D01*
X211399500Y-73752135D01*
X211399500Y-75447870D01*
X211399501Y-75447876D01*
X211405908Y-75507483D01*
X211456202Y-75642328D01*
X211456206Y-75642335D01*
X211542452Y-75757544D01*
X211542455Y-75757547D01*
X211657664Y-75843793D01*
X211657671Y-75843797D01*
X211792517Y-75894091D01*
X211792516Y-75894091D01*
X211799444Y-75894835D01*
X211852127Y-75900500D01*
X213547872Y-75900499D01*
X213607483Y-75894091D01*
X213742331Y-75843796D01*
X213857546Y-75757546D01*
X213943796Y-75642331D01*
X213994091Y-75507483D01*
X214000500Y-75447873D01*
X214000499Y-73752128D01*
X213994091Y-73692517D01*
X213975919Y-73643796D01*
X213943797Y-73557671D01*
X213943793Y-73557664D01*
X213857547Y-73442455D01*
X213857544Y-73442452D01*
X213742335Y-73356206D01*
X213742328Y-73356202D01*
X213607482Y-73305908D01*
X213607483Y-73305908D01*
X213547883Y-73299501D01*
X213547881Y-73299500D01*
X213547873Y-73299500D01*
X213547864Y-73299500D01*
X211852129Y-73299500D01*
X211852123Y-73299501D01*
X211792516Y-73305908D01*
X211657671Y-73356202D01*
X211657664Y-73356206D01*
X211542455Y-73442452D01*
X211542452Y-73442455D01*
X211456206Y-73557664D01*
X211456202Y-73557671D01*
X211405908Y-73692517D01*
X211399501Y-73752116D01*
X211399501Y-73752123D01*
X211399500Y-73752135D01*
X195926947Y-73752135D01*
X196026393Y-73579888D01*
X196119508Y-73342637D01*
X196176222Y-73094157D01*
X196195268Y-72840000D01*
X196192962Y-72809232D01*
X196176222Y-72585845D01*
X196158063Y-72506287D01*
X196119508Y-72337363D01*
X196026393Y-72100112D01*
X195898959Y-71879388D01*
X195740050Y-71680123D01*
X195602111Y-71552135D01*
X198299500Y-71552135D01*
X198299500Y-73247870D01*
X198299501Y-73247876D01*
X198305908Y-73307483D01*
X198356202Y-73442328D01*
X198356206Y-73442335D01*
X198442452Y-73557544D01*
X198442455Y-73557547D01*
X198557664Y-73643793D01*
X198557671Y-73643797D01*
X198692517Y-73694091D01*
X198692516Y-73694091D01*
X198699444Y-73694835D01*
X198752127Y-73700500D01*
X200447872Y-73700499D01*
X200507483Y-73694091D01*
X200642331Y-73643796D01*
X200757546Y-73557546D01*
X200843796Y-73442331D01*
X200894091Y-73307483D01*
X200900500Y-73247873D01*
X200900499Y-71552128D01*
X200894091Y-71492517D01*
X200887580Y-71475061D01*
X200843797Y-71357671D01*
X200843793Y-71357664D01*
X200757547Y-71242455D01*
X200757544Y-71242452D01*
X200642335Y-71156206D01*
X200642328Y-71156202D01*
X200507482Y-71105908D01*
X200507483Y-71105908D01*
X200447883Y-71099501D01*
X200447881Y-71099500D01*
X200447873Y-71099500D01*
X200447864Y-71099500D01*
X198752129Y-71099500D01*
X198752123Y-71099501D01*
X198692516Y-71105908D01*
X198557671Y-71156202D01*
X198557664Y-71156206D01*
X198442455Y-71242452D01*
X198442452Y-71242455D01*
X198356206Y-71357664D01*
X198356202Y-71357671D01*
X198305908Y-71492517D01*
X198301608Y-71532516D01*
X198299501Y-71552123D01*
X198299500Y-71552135D01*
X195602111Y-71552135D01*
X195553217Y-71506768D01*
X195342634Y-71363195D01*
X195342630Y-71363193D01*
X195342627Y-71363191D01*
X195342626Y-71363190D01*
X195113006Y-71252612D01*
X195113008Y-71252612D01*
X194869466Y-71177489D01*
X194869462Y-71177488D01*
X194869458Y-71177487D01*
X194748231Y-71159214D01*
X194617440Y-71139500D01*
X194617435Y-71139500D01*
X194362565Y-71139500D01*
X194362559Y-71139500D01*
X194205609Y-71163157D01*
X194110542Y-71177487D01*
X194110539Y-71177488D01*
X194110533Y-71177489D01*
X193866992Y-71252612D01*
X193637373Y-71363190D01*
X193637372Y-71363191D01*
X193426782Y-71506768D01*
X193239952Y-71680121D01*
X193239950Y-71680123D01*
X193081041Y-71879388D01*
X192953608Y-72100109D01*
X192860492Y-72337362D01*
X192860490Y-72337369D01*
X192803777Y-72585845D01*
X192784732Y-72839995D01*
X186030499Y-72839995D01*
X186030499Y-71592128D01*
X186024091Y-71532517D01*
X186023315Y-71530437D01*
X185973797Y-71397671D01*
X185973793Y-71397664D01*
X185887547Y-71282455D01*
X185887544Y-71282452D01*
X185772335Y-71196206D01*
X185772328Y-71196202D01*
X185637482Y-71145908D01*
X185637483Y-71145908D01*
X185577883Y-71139501D01*
X185577881Y-71139500D01*
X185577873Y-71139500D01*
X185577864Y-71139500D01*
X183082129Y-71139500D01*
X183082123Y-71139501D01*
X183022516Y-71145908D01*
X182887671Y-71196202D01*
X182887664Y-71196206D01*
X182772455Y-71282452D01*
X182772452Y-71282455D01*
X182686206Y-71397664D01*
X182686202Y-71397671D01*
X182635908Y-71532517D01*
X182632637Y-71562948D01*
X182629501Y-71592123D01*
X182629500Y-71592135D01*
X179254443Y-71592135D01*
X179482772Y-71510438D01*
X179838097Y-71342381D01*
X180175239Y-71140306D01*
X180490951Y-70906158D01*
X180782192Y-70642192D01*
X181046158Y-70350951D01*
X181280306Y-70035239D01*
X181482381Y-69698097D01*
X181623544Y-69399635D01*
X201829500Y-69399635D01*
X201829500Y-71400370D01*
X201829501Y-71400376D01*
X201835908Y-71459983D01*
X201886202Y-71594828D01*
X201886206Y-71594835D01*
X201972452Y-71710044D01*
X201972455Y-71710047D01*
X202087664Y-71796293D01*
X202087671Y-71796297D01*
X202222517Y-71846591D01*
X202222516Y-71846591D01*
X202229444Y-71847335D01*
X202282127Y-71853000D01*
X204377872Y-71852999D01*
X204437483Y-71846591D01*
X204572331Y-71796296D01*
X204687546Y-71710046D01*
X204773796Y-71594831D01*
X204824091Y-71459983D01*
X204830500Y-71400373D01*
X204830499Y-69399628D01*
X204824091Y-69340017D01*
X204812759Y-69309635D01*
X204773797Y-69205171D01*
X204773793Y-69205164D01*
X204687547Y-69089955D01*
X204687544Y-69089952D01*
X204572335Y-69003706D01*
X204572328Y-69003702D01*
X204437482Y-68953408D01*
X204437483Y-68953408D01*
X204377883Y-68947001D01*
X204377881Y-68947000D01*
X204377873Y-68947000D01*
X204377864Y-68947000D01*
X202282129Y-68947000D01*
X202282123Y-68947001D01*
X202222516Y-68953408D01*
X202087671Y-69003702D01*
X202087664Y-69003706D01*
X201972455Y-69089952D01*
X201972452Y-69089955D01*
X201886206Y-69205164D01*
X201886202Y-69205171D01*
X201835908Y-69340017D01*
X201833462Y-69362772D01*
X201829501Y-69399623D01*
X201829500Y-69399635D01*
X181623544Y-69399635D01*
X181650438Y-69342772D01*
X181782857Y-68972684D01*
X181878364Y-68591400D01*
X181936038Y-68202591D01*
X181955325Y-67810000D01*
X181936038Y-67417409D01*
X181878364Y-67028600D01*
X181782857Y-66647316D01*
X181650438Y-66277228D01*
X181482381Y-65921903D01*
X181280306Y-65584761D01*
X181261929Y-65559983D01*
X189249500Y-65559983D01*
X189249500Y-67160001D01*
X189249501Y-67160018D01*
X189260000Y-67262796D01*
X189260001Y-67262799D01*
X189315185Y-67429331D01*
X189315187Y-67429336D01*
X189350069Y-67485888D01*
X189407288Y-67578656D01*
X189531344Y-67702712D01*
X189680666Y-67794814D01*
X189847203Y-67849999D01*
X189949991Y-67860500D01*
X191250008Y-67860499D01*
X191352797Y-67849999D01*
X191413150Y-67830000D01*
X215144675Y-67830000D01*
X215163962Y-68222591D01*
X215220870Y-68606239D01*
X215221637Y-68611406D01*
X215317143Y-68992684D01*
X215449561Y-69362770D01*
X215449562Y-69362772D01*
X215617620Y-69718100D01*
X215813514Y-70044928D01*
X215819694Y-70055239D01*
X215976383Y-70266510D01*
X216053846Y-70370956D01*
X216317807Y-70662192D01*
X216586982Y-70906158D01*
X216609049Y-70926158D01*
X216924761Y-71160306D01*
X216953429Y-71177489D01*
X217261899Y-71362379D01*
X217261902Y-71362380D01*
X217261903Y-71362381D01*
X217617228Y-71530438D01*
X217987316Y-71662857D01*
X218368600Y-71758364D01*
X218757409Y-71816038D01*
X219150000Y-71835325D01*
X219542591Y-71816038D01*
X219931400Y-71758364D01*
X220312684Y-71662857D01*
X220682772Y-71530438D01*
X221038097Y-71362381D01*
X221375239Y-71160306D01*
X221690951Y-70926158D01*
X221982192Y-70662192D01*
X222246158Y-70370951D01*
X222480306Y-70055239D01*
X222682381Y-69718097D01*
X222850438Y-69362772D01*
X222982857Y-68992684D01*
X223078364Y-68611400D01*
X223136038Y-68222591D01*
X223137948Y-68183713D01*
X227249500Y-68183713D01*
X227249500Y-68396287D01*
X227282754Y-68606243D01*
X227337273Y-68774035D01*
X227348444Y-68808414D01*
X227444951Y-68997820D01*
X227569890Y-69169786D01*
X227720213Y-69320109D01*
X227892179Y-69445048D01*
X227892181Y-69445049D01*
X227892184Y-69445051D01*
X228081588Y-69541557D01*
X228283757Y-69607246D01*
X228493713Y-69640500D01*
X228493714Y-69640500D01*
X229006286Y-69640500D01*
X229006287Y-69640500D01*
X229216243Y-69607246D01*
X229418412Y-69541557D01*
X229607816Y-69445051D01*
X229670326Y-69399635D01*
X229779786Y-69320109D01*
X229779788Y-69320106D01*
X229779792Y-69320104D01*
X229930104Y-69169792D01*
X229930106Y-69169788D01*
X229930109Y-69169786D01*
X230055048Y-68997820D01*
X230055047Y-68997820D01*
X230055051Y-68997816D01*
X230151557Y-68808412D01*
X230217246Y-68606243D01*
X230250500Y-68396287D01*
X230250500Y-68183713D01*
X230217246Y-67973757D01*
X230151557Y-67771588D01*
X230055051Y-67582184D01*
X230055049Y-67582181D01*
X230055048Y-67582179D01*
X229930109Y-67410213D01*
X229779786Y-67259890D01*
X229607820Y-67134951D01*
X229418414Y-67038444D01*
X229418413Y-67038443D01*
X229418412Y-67038443D01*
X229216243Y-66972754D01*
X229216241Y-66972753D01*
X229216240Y-66972753D01*
X229054957Y-66947208D01*
X229006287Y-66939500D01*
X228493713Y-66939500D01*
X228445042Y-66947208D01*
X228283760Y-66972753D01*
X228283757Y-66972754D01*
X228111882Y-67028600D01*
X228081585Y-67038444D01*
X227892179Y-67134951D01*
X227720213Y-67259890D01*
X227569890Y-67410213D01*
X227444951Y-67582179D01*
X227348444Y-67771585D01*
X227282753Y-67973760D01*
X227268515Y-68063655D01*
X227249500Y-68183713D01*
X223137948Y-68183713D01*
X223155325Y-67830000D01*
X223136038Y-67437409D01*
X223078364Y-67048600D01*
X222982857Y-66667316D01*
X222850438Y-66297228D01*
X222682381Y-65941903D01*
X222670393Y-65921903D01*
X222480307Y-65604763D01*
X222454710Y-65570249D01*
X222246158Y-65289049D01*
X222112286Y-65141344D01*
X221982192Y-64997807D01*
X221690956Y-64733846D01*
X221663989Y-64713846D01*
X221375239Y-64499694D01*
X221323130Y-64468461D01*
X221038100Y-64297620D01*
X220682772Y-64129562D01*
X220682770Y-64129561D01*
X220312684Y-63997143D01*
X219931406Y-63901637D01*
X219931401Y-63901636D01*
X219931400Y-63901636D01*
X219599847Y-63852455D01*
X219542599Y-63843963D01*
X219542597Y-63843962D01*
X219542591Y-63843962D01*
X219150000Y-63824675D01*
X218757409Y-63843962D01*
X218757403Y-63843962D01*
X218757400Y-63843963D01*
X218368593Y-63901637D01*
X217987315Y-63997143D01*
X217617229Y-64129561D01*
X217617227Y-64129562D01*
X217261899Y-64297620D01*
X216924763Y-64499692D01*
X216609043Y-64733846D01*
X216317807Y-64997807D01*
X216053846Y-65289043D01*
X215819692Y-65604763D01*
X215617620Y-65941899D01*
X215449562Y-66297227D01*
X215449561Y-66297229D01*
X215317143Y-66667315D01*
X215221637Y-67048593D01*
X215165160Y-67429336D01*
X215163962Y-67437409D01*
X215144675Y-67830000D01*
X191413150Y-67830000D01*
X191519334Y-67794814D01*
X191668656Y-67702712D01*
X191792712Y-67578656D01*
X191884814Y-67429334D01*
X191939999Y-67262797D01*
X191950500Y-67160009D01*
X191950499Y-65559992D01*
X191939999Y-65457203D01*
X191884814Y-65290666D01*
X191832374Y-65205646D01*
X201829500Y-65205646D01*
X201829500Y-65434354D01*
X201833119Y-65457203D01*
X201865278Y-65660246D01*
X201865278Y-65660249D01*
X201935950Y-65877755D01*
X201993926Y-65991538D01*
X202039783Y-66081538D01*
X202174214Y-66266566D01*
X202335934Y-66428286D01*
X202520962Y-66562717D01*
X202607231Y-66606673D01*
X202724744Y-66666549D01*
X202942251Y-66737221D01*
X202942252Y-66737221D01*
X202942255Y-66737222D01*
X203168146Y-66773000D01*
X203168147Y-66773000D01*
X203491853Y-66773000D01*
X203491854Y-66773000D01*
X203717745Y-66737222D01*
X203717748Y-66737221D01*
X203717749Y-66737221D01*
X203935255Y-66666549D01*
X203935255Y-66666548D01*
X203935258Y-66666548D01*
X204139038Y-66562717D01*
X204324066Y-66428286D01*
X204485786Y-66266566D01*
X204620217Y-66081538D01*
X204724048Y-65877758D01*
X204794722Y-65660245D01*
X204830500Y-65434354D01*
X204830500Y-65205646D01*
X204794722Y-64979755D01*
X204794721Y-64979751D01*
X204794721Y-64979750D01*
X204724049Y-64762244D01*
X204724048Y-64762242D01*
X204620217Y-64558462D01*
X204485786Y-64373434D01*
X204324066Y-64211714D01*
X204139038Y-64077283D01*
X203935255Y-63973450D01*
X203717748Y-63902778D01*
X203548326Y-63875944D01*
X203491854Y-63867000D01*
X203168146Y-63867000D01*
X203092849Y-63878926D01*
X202942253Y-63902778D01*
X202942250Y-63902778D01*
X202724744Y-63973450D01*
X202520961Y-64077283D01*
X202449006Y-64129562D01*
X202335934Y-64211714D01*
X202335932Y-64211716D01*
X202335931Y-64211716D01*
X202174216Y-64373431D01*
X202174216Y-64373432D01*
X202174214Y-64373434D01*
X202116480Y-64452896D01*
X202039783Y-64558461D01*
X201935950Y-64762244D01*
X201865278Y-64979750D01*
X201865278Y-64979753D01*
X201829500Y-65205646D01*
X191832374Y-65205646D01*
X191792712Y-65141344D01*
X191668656Y-65017288D01*
X191519334Y-64925186D01*
X191352797Y-64870001D01*
X191352795Y-64870000D01*
X191250010Y-64859500D01*
X189949998Y-64859500D01*
X189949981Y-64859501D01*
X189847203Y-64870000D01*
X189847200Y-64870001D01*
X189680668Y-64925185D01*
X189680663Y-64925187D01*
X189531342Y-65017289D01*
X189407289Y-65141342D01*
X189315187Y-65290663D01*
X189315185Y-65290668D01*
X189287349Y-65374670D01*
X189260001Y-65457203D01*
X189260001Y-65457204D01*
X189260000Y-65457204D01*
X189249500Y-65559983D01*
X181261929Y-65559983D01*
X181046158Y-65269049D01*
X180930413Y-65141344D01*
X180782192Y-64977807D01*
X180490956Y-64713846D01*
X180434862Y-64672244D01*
X180175239Y-64479694D01*
X180156498Y-64468461D01*
X179838100Y-64277620D01*
X179482772Y-64109562D01*
X179482770Y-64109561D01*
X179112684Y-63977143D01*
X178731406Y-63881637D01*
X178731401Y-63881636D01*
X178731400Y-63881636D01*
X178587256Y-63860254D01*
X178342599Y-63823963D01*
X178342597Y-63823962D01*
X178342591Y-63823962D01*
X177950000Y-63804675D01*
X177557409Y-63823962D01*
X177557403Y-63823962D01*
X177557400Y-63823963D01*
X177168593Y-63881637D01*
X176787315Y-63977143D01*
X176417229Y-64109561D01*
X176417227Y-64109562D01*
X176061899Y-64277620D01*
X175724763Y-64479692D01*
X175409043Y-64713846D01*
X175117807Y-64977807D01*
X174853846Y-65269043D01*
X174619692Y-65584763D01*
X174417620Y-65921899D01*
X174249562Y-66277227D01*
X174249561Y-66277229D01*
X174117143Y-66647315D01*
X174021637Y-67028593D01*
X173971797Y-67364592D01*
X173963962Y-67417409D01*
X173944675Y-67810000D01*
X143437286Y-67810000D01*
X143455659Y-67600000D01*
X143435063Y-67364592D01*
X143373903Y-67136337D01*
X143274035Y-66922171D01*
X143228870Y-66857669D01*
X143138496Y-66728600D01*
X143092896Y-66683000D01*
X143016567Y-66606671D01*
X142983084Y-66545351D01*
X142988068Y-66475659D01*
X143029939Y-66419725D01*
X143060915Y-66402810D01*
X143192331Y-66353796D01*
X143307546Y-66267546D01*
X143393796Y-66152331D01*
X143444091Y-66017483D01*
X143450500Y-65957873D01*
X143450500Y-65115646D01*
X160649500Y-65115646D01*
X160649500Y-65344353D01*
X160685278Y-65570246D01*
X160685278Y-65570249D01*
X160755950Y-65787755D01*
X160801809Y-65877758D01*
X160859783Y-65991538D01*
X160994214Y-66176566D01*
X161155934Y-66338286D01*
X161340962Y-66472717D01*
X161517595Y-66562716D01*
X161544744Y-66576549D01*
X161762251Y-66647221D01*
X161762252Y-66647221D01*
X161762255Y-66647222D01*
X161988146Y-66683000D01*
X161988147Y-66683000D01*
X162311853Y-66683000D01*
X162311854Y-66683000D01*
X162537745Y-66647222D01*
X162537748Y-66647221D01*
X162537749Y-66647221D01*
X162755255Y-66576549D01*
X162755255Y-66576548D01*
X162755258Y-66576548D01*
X162959038Y-66472717D01*
X163144066Y-66338286D01*
X163305786Y-66176566D01*
X163440217Y-65991538D01*
X163544048Y-65787758D01*
X163585479Y-65660246D01*
X163614721Y-65570249D01*
X163614721Y-65570248D01*
X163614722Y-65570245D01*
X163650500Y-65344354D01*
X163650500Y-65115646D01*
X163614722Y-64889755D01*
X163614721Y-64889751D01*
X163614721Y-64889750D01*
X163544049Y-64672244D01*
X163486074Y-64558462D01*
X163440217Y-64468462D01*
X163305786Y-64283434D01*
X163144066Y-64121714D01*
X162959038Y-63987283D01*
X162920534Y-63967664D01*
X162755255Y-63883450D01*
X162537748Y-63812778D01*
X162368326Y-63785944D01*
X162311854Y-63777000D01*
X161988146Y-63777000D01*
X161912849Y-63788926D01*
X161762253Y-63812778D01*
X161762250Y-63812778D01*
X161544744Y-63883450D01*
X161340961Y-63987283D01*
X161235396Y-64063980D01*
X161155934Y-64121714D01*
X161155932Y-64121716D01*
X161155931Y-64121716D01*
X160994216Y-64283431D01*
X160994216Y-64283432D01*
X160994214Y-64283434D01*
X160936480Y-64362896D01*
X160859783Y-64468461D01*
X160755950Y-64672244D01*
X160685278Y-64889750D01*
X160685278Y-64889753D01*
X160649500Y-65115646D01*
X143450500Y-65115646D01*
X143450499Y-64162128D01*
X143444091Y-64102517D01*
X143434679Y-64077283D01*
X143393797Y-63967671D01*
X143393793Y-63967664D01*
X143307547Y-63852455D01*
X143307544Y-63852452D01*
X143192335Y-63766206D01*
X143192328Y-63766202D01*
X143057482Y-63715908D01*
X143057483Y-63715908D01*
X142997883Y-63709501D01*
X142997881Y-63709500D01*
X142997873Y-63709500D01*
X142997864Y-63709500D01*
X141202129Y-63709500D01*
X141202123Y-63709501D01*
X141142516Y-63715908D01*
X141007671Y-63766202D01*
X141007664Y-63766206D01*
X140892455Y-63852452D01*
X140892452Y-63852455D01*
X140806206Y-63967664D01*
X140806202Y-63967671D01*
X140755908Y-64102517D01*
X140753001Y-64129561D01*
X140749501Y-64162123D01*
X140749500Y-64162135D01*
X140749500Y-65957870D01*
X140749501Y-65957876D01*
X140755908Y-66017483D01*
X140806202Y-66152328D01*
X140806206Y-66152335D01*
X140892452Y-66267544D01*
X140892455Y-66267547D01*
X141007664Y-66353793D01*
X141007671Y-66353797D01*
X141139081Y-66402810D01*
X141195015Y-66444681D01*
X141219432Y-66510145D01*
X141204580Y-66578418D01*
X141183430Y-66606673D01*
X141061503Y-66728600D01*
X140925965Y-66922169D01*
X140925964Y-66922171D01*
X140826098Y-67136335D01*
X140826094Y-67136344D01*
X140764938Y-67364586D01*
X140764936Y-67364596D01*
X140744341Y-67599999D01*
X115100499Y-67599999D01*
X115100499Y-67052128D01*
X115094091Y-66992517D01*
X115043796Y-66857669D01*
X115043795Y-66857668D01*
X115043793Y-66857664D01*
X114957547Y-66742455D01*
X114957544Y-66742452D01*
X114842335Y-66656206D01*
X114842328Y-66656202D01*
X114707482Y-66605908D01*
X114707483Y-66605908D01*
X114647883Y-66599501D01*
X114647881Y-66599500D01*
X114647873Y-66599500D01*
X114647864Y-66599500D01*
X112952129Y-66599500D01*
X112952123Y-66599501D01*
X112892516Y-66605908D01*
X112757671Y-66656202D01*
X112757664Y-66656206D01*
X112642455Y-66742452D01*
X112642452Y-66742455D01*
X112556206Y-66857664D01*
X112556202Y-66857671D01*
X112505908Y-66992517D01*
X112500971Y-67038443D01*
X112499501Y-67052123D01*
X112499500Y-67052135D01*
X96400500Y-67052135D01*
X96400500Y-61752135D01*
X156399500Y-61752135D01*
X156399500Y-63447870D01*
X156399501Y-63447876D01*
X156405908Y-63507483D01*
X156456202Y-63642328D01*
X156456206Y-63642335D01*
X156542452Y-63757544D01*
X156542455Y-63757547D01*
X156657664Y-63843793D01*
X156657671Y-63843797D01*
X156792517Y-63894091D01*
X156792516Y-63894091D01*
X156799444Y-63894835D01*
X156852127Y-63900500D01*
X158547872Y-63900499D01*
X158607483Y-63894091D01*
X158742331Y-63843796D01*
X158857546Y-63757546D01*
X158943796Y-63642331D01*
X158994091Y-63507483D01*
X159000500Y-63447873D01*
X159000499Y-61752128D01*
X158994091Y-61692517D01*
X158943796Y-61557669D01*
X158943795Y-61557668D01*
X158943793Y-61557664D01*
X158857547Y-61442455D01*
X158857544Y-61442452D01*
X158742335Y-61356206D01*
X158742328Y-61356202D01*
X158607482Y-61305908D01*
X158607483Y-61305908D01*
X158547883Y-61299501D01*
X158547881Y-61299500D01*
X158547873Y-61299500D01*
X158547864Y-61299500D01*
X156852129Y-61299500D01*
X156852123Y-61299501D01*
X156792516Y-61305908D01*
X156657671Y-61356202D01*
X156657664Y-61356206D01*
X156542455Y-61442452D01*
X156542452Y-61442455D01*
X156456206Y-61557664D01*
X156456202Y-61557671D01*
X156405908Y-61692517D01*
X156399501Y-61752116D01*
X156399501Y-61752123D01*
X156399500Y-61752135D01*
X96400500Y-61752135D01*
X96400500Y-60924500D01*
X96420185Y-60857461D01*
X96472989Y-60811706D01*
X96524500Y-60800500D01*
X245275500Y-60800500D01*
X245342539Y-60820185D01*
G37*
G04 #@! TD.AperFunction*
M02*
