G04 #@! TF.GenerationSoftware,KiCad,Pcbnew,8.0.2*
G04 #@! TF.CreationDate,2024-05-25T11:53:27+02:00*
G04 #@! TF.ProjectId,VFO na esp32,56464f20-6e61-4206-9573-7033322e6b69,rev?*
G04 #@! TF.SameCoordinates,Original*
G04 #@! TF.FileFunction,Legend,Top*
G04 #@! TF.FilePolarity,Positive*
%FSLAX46Y46*%
G04 Gerber Fmt 4.6, Leading zero omitted, Abs format (unit mm)*
G04 Created by KiCad (PCBNEW 8.0.2) date 2024-05-25 11:53:27*
%MOMM*%
%LPD*%
G01*
G04 APERTURE LIST*
G04 Aperture macros list*
%AMRoundRect*
0 Rectangle with rounded corners*
0 $1 Rounding radius*
0 $2 $3 $4 $5 $6 $7 $8 $9 X,Y pos of 4 corners*
0 Add a 4 corners polygon primitive as box body*
4,1,4,$2,$3,$4,$5,$6,$7,$8,$9,$2,$3,0*
0 Add four circle primitives for the rounded corners*
1,1,$1+$1,$2,$3*
1,1,$1+$1,$4,$5*
1,1,$1+$1,$6,$7*
1,1,$1+$1,$8,$9*
0 Add four rect primitives between the rounded corners*
20,1,$1+$1,$2,$3,$4,$5,0*
20,1,$1+$1,$4,$5,$6,$7,0*
20,1,$1+$1,$6,$7,$8,$9,0*
20,1,$1+$1,$8,$9,$2,$3,0*%
G04 Aperture macros list end*
%ADD10C,0.150000*%
%ADD11C,0.100000*%
%ADD12C,0.120000*%
%ADD13R,1.600000X1.600000*%
%ADD14C,1.600000*%
%ADD15C,2.200000*%
%ADD16R,1.700000X1.700000*%
%ADD17O,1.700000X1.700000*%
%ADD18C,5.000000*%
%ADD19O,1.600000X1.600000*%
%ADD20C,7.000000*%
%ADD21R,2.000000X2.000000*%
%ADD22C,2.000000*%
%ADD23R,3.200000X2.000000*%
%ADD24R,2.400000X2.400000*%
%ADD25O,2.400000X2.400000*%
%ADD26RoundRect,0.250000X0.750000X-0.600000X0.750000X0.600000X-0.750000X0.600000X-0.750000X-0.600000X0*%
%ADD27O,2.000000X1.700000*%
%ADD28RoundRect,0.250000X0.600000X0.750000X-0.600000X0.750000X-0.600000X-0.750000X0.600000X-0.750000X0*%
%ADD29O,1.700000X2.000000*%
%ADD30R,2.000000X1.200000*%
%ADD31O,2.000000X1.200000*%
%ADD32O,3.500000X3.500000*%
%ADD33R,2.000000X1.905000*%
%ADD34O,2.000000X1.905000*%
%ADD35RoundRect,0.250000X-0.725000X0.600000X-0.725000X-0.600000X0.725000X-0.600000X0.725000X0.600000X0*%
%ADD36O,1.950000X1.700000*%
G04 APERTURE END LIST*
D10*
X194709580Y-70816666D02*
X194757200Y-70864285D01*
X194757200Y-70864285D02*
X194804819Y-71007142D01*
X194804819Y-71007142D02*
X194804819Y-71102380D01*
X194804819Y-71102380D02*
X194757200Y-71245237D01*
X194757200Y-71245237D02*
X194661961Y-71340475D01*
X194661961Y-71340475D02*
X194566723Y-71388094D01*
X194566723Y-71388094D02*
X194376247Y-71435713D01*
X194376247Y-71435713D02*
X194233390Y-71435713D01*
X194233390Y-71435713D02*
X194042914Y-71388094D01*
X194042914Y-71388094D02*
X193947676Y-71340475D01*
X193947676Y-71340475D02*
X193852438Y-71245237D01*
X193852438Y-71245237D02*
X193804819Y-71102380D01*
X193804819Y-71102380D02*
X193804819Y-71007142D01*
X193804819Y-71007142D02*
X193852438Y-70864285D01*
X193852438Y-70864285D02*
X193900057Y-70816666D01*
X194233390Y-70245237D02*
X194185771Y-70340475D01*
X194185771Y-70340475D02*
X194138152Y-70388094D01*
X194138152Y-70388094D02*
X194042914Y-70435713D01*
X194042914Y-70435713D02*
X193995295Y-70435713D01*
X193995295Y-70435713D02*
X193900057Y-70388094D01*
X193900057Y-70388094D02*
X193852438Y-70340475D01*
X193852438Y-70340475D02*
X193804819Y-70245237D01*
X193804819Y-70245237D02*
X193804819Y-70054761D01*
X193804819Y-70054761D02*
X193852438Y-69959523D01*
X193852438Y-69959523D02*
X193900057Y-69911904D01*
X193900057Y-69911904D02*
X193995295Y-69864285D01*
X193995295Y-69864285D02*
X194042914Y-69864285D01*
X194042914Y-69864285D02*
X194138152Y-69911904D01*
X194138152Y-69911904D02*
X194185771Y-69959523D01*
X194185771Y-69959523D02*
X194233390Y-70054761D01*
X194233390Y-70054761D02*
X194233390Y-70245237D01*
X194233390Y-70245237D02*
X194281009Y-70340475D01*
X194281009Y-70340475D02*
X194328628Y-70388094D01*
X194328628Y-70388094D02*
X194423866Y-70435713D01*
X194423866Y-70435713D02*
X194614342Y-70435713D01*
X194614342Y-70435713D02*
X194709580Y-70388094D01*
X194709580Y-70388094D02*
X194757200Y-70340475D01*
X194757200Y-70340475D02*
X194804819Y-70245237D01*
X194804819Y-70245237D02*
X194804819Y-70054761D01*
X194804819Y-70054761D02*
X194757200Y-69959523D01*
X194757200Y-69959523D02*
X194709580Y-69911904D01*
X194709580Y-69911904D02*
X194614342Y-69864285D01*
X194614342Y-69864285D02*
X194423866Y-69864285D01*
X194423866Y-69864285D02*
X194328628Y-69911904D01*
X194328628Y-69911904D02*
X194281009Y-69959523D01*
X194281009Y-69959523D02*
X194233390Y-70054761D01*
X163309580Y-71816666D02*
X163357200Y-71864285D01*
X163357200Y-71864285D02*
X163404819Y-72007142D01*
X163404819Y-72007142D02*
X163404819Y-72102380D01*
X163404819Y-72102380D02*
X163357200Y-72245237D01*
X163357200Y-72245237D02*
X163261961Y-72340475D01*
X163261961Y-72340475D02*
X163166723Y-72388094D01*
X163166723Y-72388094D02*
X162976247Y-72435713D01*
X162976247Y-72435713D02*
X162833390Y-72435713D01*
X162833390Y-72435713D02*
X162642914Y-72388094D01*
X162642914Y-72388094D02*
X162547676Y-72340475D01*
X162547676Y-72340475D02*
X162452438Y-72245237D01*
X162452438Y-72245237D02*
X162404819Y-72102380D01*
X162404819Y-72102380D02*
X162404819Y-72007142D01*
X162404819Y-72007142D02*
X162452438Y-71864285D01*
X162452438Y-71864285D02*
X162500057Y-71816666D01*
X163404819Y-70864285D02*
X163404819Y-71435713D01*
X163404819Y-71149999D02*
X162404819Y-71149999D01*
X162404819Y-71149999D02*
X162547676Y-71245237D01*
X162547676Y-71245237D02*
X162642914Y-71340475D01*
X162642914Y-71340475D02*
X162690533Y-71435713D01*
X109759580Y-65466666D02*
X109807200Y-65514285D01*
X109807200Y-65514285D02*
X109854819Y-65657142D01*
X109854819Y-65657142D02*
X109854819Y-65752380D01*
X109854819Y-65752380D02*
X109807200Y-65895237D01*
X109807200Y-65895237D02*
X109711961Y-65990475D01*
X109711961Y-65990475D02*
X109616723Y-66038094D01*
X109616723Y-66038094D02*
X109426247Y-66085713D01*
X109426247Y-66085713D02*
X109283390Y-66085713D01*
X109283390Y-66085713D02*
X109092914Y-66038094D01*
X109092914Y-66038094D02*
X108997676Y-65990475D01*
X108997676Y-65990475D02*
X108902438Y-65895237D01*
X108902438Y-65895237D02*
X108854819Y-65752380D01*
X108854819Y-65752380D02*
X108854819Y-65657142D01*
X108854819Y-65657142D02*
X108902438Y-65514285D01*
X108902438Y-65514285D02*
X108950057Y-65466666D01*
X108854819Y-65133332D02*
X108854819Y-64514285D01*
X108854819Y-64514285D02*
X109235771Y-64847618D01*
X109235771Y-64847618D02*
X109235771Y-64704761D01*
X109235771Y-64704761D02*
X109283390Y-64609523D01*
X109283390Y-64609523D02*
X109331009Y-64561904D01*
X109331009Y-64561904D02*
X109426247Y-64514285D01*
X109426247Y-64514285D02*
X109664342Y-64514285D01*
X109664342Y-64514285D02*
X109759580Y-64561904D01*
X109759580Y-64561904D02*
X109807200Y-64609523D01*
X109807200Y-64609523D02*
X109854819Y-64704761D01*
X109854819Y-64704761D02*
X109854819Y-64990475D01*
X109854819Y-64990475D02*
X109807200Y-65085713D01*
X109807200Y-65085713D02*
X109759580Y-65133332D01*
D11*
X183422580Y-92458095D02*
X182613057Y-92458095D01*
X182613057Y-92458095D02*
X182517819Y-92505714D01*
X182517819Y-92505714D02*
X182470200Y-92553333D01*
X182470200Y-92553333D02*
X182422580Y-92648571D01*
X182422580Y-92648571D02*
X182422580Y-92839047D01*
X182422580Y-92839047D02*
X182470200Y-92934285D01*
X182470200Y-92934285D02*
X182517819Y-92981904D01*
X182517819Y-92981904D02*
X182613057Y-93029523D01*
X182613057Y-93029523D02*
X183422580Y-93029523D01*
X183089247Y-93934285D02*
X182422580Y-93934285D01*
X183470200Y-93696190D02*
X182755914Y-93458095D01*
X182755914Y-93458095D02*
X182755914Y-94077142D01*
D10*
X147259580Y-107466666D02*
X147307200Y-107514285D01*
X147307200Y-107514285D02*
X147354819Y-107657142D01*
X147354819Y-107657142D02*
X147354819Y-107752380D01*
X147354819Y-107752380D02*
X147307200Y-107895237D01*
X147307200Y-107895237D02*
X147211961Y-107990475D01*
X147211961Y-107990475D02*
X147116723Y-108038094D01*
X147116723Y-108038094D02*
X146926247Y-108085713D01*
X146926247Y-108085713D02*
X146783390Y-108085713D01*
X146783390Y-108085713D02*
X146592914Y-108038094D01*
X146592914Y-108038094D02*
X146497676Y-107990475D01*
X146497676Y-107990475D02*
X146402438Y-107895237D01*
X146402438Y-107895237D02*
X146354819Y-107752380D01*
X146354819Y-107752380D02*
X146354819Y-107657142D01*
X146354819Y-107657142D02*
X146402438Y-107514285D01*
X146402438Y-107514285D02*
X146450057Y-107466666D01*
X146354819Y-106561904D02*
X146354819Y-107038094D01*
X146354819Y-107038094D02*
X146831009Y-107085713D01*
X146831009Y-107085713D02*
X146783390Y-107038094D01*
X146783390Y-107038094D02*
X146735771Y-106942856D01*
X146735771Y-106942856D02*
X146735771Y-106704761D01*
X146735771Y-106704761D02*
X146783390Y-106609523D01*
X146783390Y-106609523D02*
X146831009Y-106561904D01*
X146831009Y-106561904D02*
X146926247Y-106514285D01*
X146926247Y-106514285D02*
X147164342Y-106514285D01*
X147164342Y-106514285D02*
X147259580Y-106561904D01*
X147259580Y-106561904D02*
X147307200Y-106609523D01*
X147307200Y-106609523D02*
X147354819Y-106704761D01*
X147354819Y-106704761D02*
X147354819Y-106942856D01*
X147354819Y-106942856D02*
X147307200Y-107038094D01*
X147307200Y-107038094D02*
X147259580Y-107085713D01*
X141266666Y-62184819D02*
X141266666Y-62899104D01*
X141266666Y-62899104D02*
X141219047Y-63041961D01*
X141219047Y-63041961D02*
X141123809Y-63137200D01*
X141123809Y-63137200D02*
X140980952Y-63184819D01*
X140980952Y-63184819D02*
X140885714Y-63184819D01*
X141742857Y-63184819D02*
X141742857Y-62184819D01*
X141742857Y-62184819D02*
X142123809Y-62184819D01*
X142123809Y-62184819D02*
X142219047Y-62232438D01*
X142219047Y-62232438D02*
X142266666Y-62280057D01*
X142266666Y-62280057D02*
X142314285Y-62375295D01*
X142314285Y-62375295D02*
X142314285Y-62518152D01*
X142314285Y-62518152D02*
X142266666Y-62613390D01*
X142266666Y-62613390D02*
X142219047Y-62661009D01*
X142219047Y-62661009D02*
X142123809Y-62708628D01*
X142123809Y-62708628D02*
X141742857Y-62708628D01*
X143266666Y-63184819D02*
X142695238Y-63184819D01*
X142980952Y-63184819D02*
X142980952Y-62184819D01*
X142980952Y-62184819D02*
X142885714Y-62327676D01*
X142885714Y-62327676D02*
X142790476Y-62422914D01*
X142790476Y-62422914D02*
X142695238Y-62470533D01*
X237666666Y-125954819D02*
X237333333Y-125478628D01*
X237095238Y-125954819D02*
X237095238Y-124954819D01*
X237095238Y-124954819D02*
X237476190Y-124954819D01*
X237476190Y-124954819D02*
X237571428Y-125002438D01*
X237571428Y-125002438D02*
X237619047Y-125050057D01*
X237619047Y-125050057D02*
X237666666Y-125145295D01*
X237666666Y-125145295D02*
X237666666Y-125288152D01*
X237666666Y-125288152D02*
X237619047Y-125383390D01*
X237619047Y-125383390D02*
X237571428Y-125431009D01*
X237571428Y-125431009D02*
X237476190Y-125478628D01*
X237476190Y-125478628D02*
X237095238Y-125478628D01*
X238095238Y-125431009D02*
X238428571Y-125431009D01*
X238571428Y-125954819D02*
X238095238Y-125954819D01*
X238095238Y-125954819D02*
X238095238Y-124954819D01*
X238095238Y-124954819D02*
X238571428Y-124954819D01*
X239333333Y-125431009D02*
X239000000Y-125431009D01*
X239000000Y-125954819D02*
X239000000Y-124954819D01*
X239000000Y-124954819D02*
X239476190Y-124954819D01*
X240000000Y-124954819D02*
X240000000Y-125192914D01*
X239761905Y-125097676D02*
X240000000Y-125192914D01*
X240000000Y-125192914D02*
X240238095Y-125097676D01*
X239857143Y-125383390D02*
X240000000Y-125192914D01*
X240000000Y-125192914D02*
X240142857Y-125383390D01*
X240761905Y-124954819D02*
X240761905Y-125192914D01*
X240523810Y-125097676D02*
X240761905Y-125192914D01*
X240761905Y-125192914D02*
X241000000Y-125097676D01*
X240619048Y-125383390D02*
X240761905Y-125192914D01*
X240761905Y-125192914D02*
X240904762Y-125383390D01*
X179429580Y-101342857D02*
X179477200Y-101390476D01*
X179477200Y-101390476D02*
X179524819Y-101533333D01*
X179524819Y-101533333D02*
X179524819Y-101628571D01*
X179524819Y-101628571D02*
X179477200Y-101771428D01*
X179477200Y-101771428D02*
X179381961Y-101866666D01*
X179381961Y-101866666D02*
X179286723Y-101914285D01*
X179286723Y-101914285D02*
X179096247Y-101961904D01*
X179096247Y-101961904D02*
X178953390Y-101961904D01*
X178953390Y-101961904D02*
X178762914Y-101914285D01*
X178762914Y-101914285D02*
X178667676Y-101866666D01*
X178667676Y-101866666D02*
X178572438Y-101771428D01*
X178572438Y-101771428D02*
X178524819Y-101628571D01*
X178524819Y-101628571D02*
X178524819Y-101533333D01*
X178524819Y-101533333D02*
X178572438Y-101390476D01*
X178572438Y-101390476D02*
X178620057Y-101342857D01*
X179524819Y-100390476D02*
X179524819Y-100961904D01*
X179524819Y-100676190D02*
X178524819Y-100676190D01*
X178524819Y-100676190D02*
X178667676Y-100771428D01*
X178667676Y-100771428D02*
X178762914Y-100866666D01*
X178762914Y-100866666D02*
X178810533Y-100961904D01*
X178953390Y-99819047D02*
X178905771Y-99914285D01*
X178905771Y-99914285D02*
X178858152Y-99961904D01*
X178858152Y-99961904D02*
X178762914Y-100009523D01*
X178762914Y-100009523D02*
X178715295Y-100009523D01*
X178715295Y-100009523D02*
X178620057Y-99961904D01*
X178620057Y-99961904D02*
X178572438Y-99914285D01*
X178572438Y-99914285D02*
X178524819Y-99819047D01*
X178524819Y-99819047D02*
X178524819Y-99628571D01*
X178524819Y-99628571D02*
X178572438Y-99533333D01*
X178572438Y-99533333D02*
X178620057Y-99485714D01*
X178620057Y-99485714D02*
X178715295Y-99438095D01*
X178715295Y-99438095D02*
X178762914Y-99438095D01*
X178762914Y-99438095D02*
X178858152Y-99485714D01*
X178858152Y-99485714D02*
X178905771Y-99533333D01*
X178905771Y-99533333D02*
X178953390Y-99628571D01*
X178953390Y-99628571D02*
X178953390Y-99819047D01*
X178953390Y-99819047D02*
X179001009Y-99914285D01*
X179001009Y-99914285D02*
X179048628Y-99961904D01*
X179048628Y-99961904D02*
X179143866Y-100009523D01*
X179143866Y-100009523D02*
X179334342Y-100009523D01*
X179334342Y-100009523D02*
X179429580Y-99961904D01*
X179429580Y-99961904D02*
X179477200Y-99914285D01*
X179477200Y-99914285D02*
X179524819Y-99819047D01*
X179524819Y-99819047D02*
X179524819Y-99628571D01*
X179524819Y-99628571D02*
X179477200Y-99533333D01*
X179477200Y-99533333D02*
X179429580Y-99485714D01*
X179429580Y-99485714D02*
X179334342Y-99438095D01*
X179334342Y-99438095D02*
X179143866Y-99438095D01*
X179143866Y-99438095D02*
X179048628Y-99485714D01*
X179048628Y-99485714D02*
X179001009Y-99533333D01*
X179001009Y-99533333D02*
X178953390Y-99628571D01*
X115657142Y-124859580D02*
X115609523Y-124907200D01*
X115609523Y-124907200D02*
X115466666Y-124954819D01*
X115466666Y-124954819D02*
X115371428Y-124954819D01*
X115371428Y-124954819D02*
X115228571Y-124907200D01*
X115228571Y-124907200D02*
X115133333Y-124811961D01*
X115133333Y-124811961D02*
X115085714Y-124716723D01*
X115085714Y-124716723D02*
X115038095Y-124526247D01*
X115038095Y-124526247D02*
X115038095Y-124383390D01*
X115038095Y-124383390D02*
X115085714Y-124192914D01*
X115085714Y-124192914D02*
X115133333Y-124097676D01*
X115133333Y-124097676D02*
X115228571Y-124002438D01*
X115228571Y-124002438D02*
X115371428Y-123954819D01*
X115371428Y-123954819D02*
X115466666Y-123954819D01*
X115466666Y-123954819D02*
X115609523Y-124002438D01*
X115609523Y-124002438D02*
X115657142Y-124050057D01*
X116609523Y-124954819D02*
X116038095Y-124954819D01*
X116323809Y-124954819D02*
X116323809Y-123954819D01*
X116323809Y-123954819D02*
X116228571Y-124097676D01*
X116228571Y-124097676D02*
X116133333Y-124192914D01*
X116133333Y-124192914D02*
X116038095Y-124240533D01*
X117085714Y-124954819D02*
X117276190Y-124954819D01*
X117276190Y-124954819D02*
X117371428Y-124907200D01*
X117371428Y-124907200D02*
X117419047Y-124859580D01*
X117419047Y-124859580D02*
X117514285Y-124716723D01*
X117514285Y-124716723D02*
X117561904Y-124526247D01*
X117561904Y-124526247D02*
X117561904Y-124145295D01*
X117561904Y-124145295D02*
X117514285Y-124050057D01*
X117514285Y-124050057D02*
X117466666Y-124002438D01*
X117466666Y-124002438D02*
X117371428Y-123954819D01*
X117371428Y-123954819D02*
X117180952Y-123954819D01*
X117180952Y-123954819D02*
X117085714Y-124002438D01*
X117085714Y-124002438D02*
X117038095Y-124050057D01*
X117038095Y-124050057D02*
X116990476Y-124145295D01*
X116990476Y-124145295D02*
X116990476Y-124383390D01*
X116990476Y-124383390D02*
X117038095Y-124478628D01*
X117038095Y-124478628D02*
X117085714Y-124526247D01*
X117085714Y-124526247D02*
X117180952Y-124573866D01*
X117180952Y-124573866D02*
X117371428Y-124573866D01*
X117371428Y-124573866D02*
X117466666Y-124526247D01*
X117466666Y-124526247D02*
X117514285Y-124478628D01*
X117514285Y-124478628D02*
X117561904Y-124383390D01*
X100666666Y-62954819D02*
X100333333Y-62478628D01*
X100095238Y-62954819D02*
X100095238Y-61954819D01*
X100095238Y-61954819D02*
X100476190Y-61954819D01*
X100476190Y-61954819D02*
X100571428Y-62002438D01*
X100571428Y-62002438D02*
X100619047Y-62050057D01*
X100619047Y-62050057D02*
X100666666Y-62145295D01*
X100666666Y-62145295D02*
X100666666Y-62288152D01*
X100666666Y-62288152D02*
X100619047Y-62383390D01*
X100619047Y-62383390D02*
X100571428Y-62431009D01*
X100571428Y-62431009D02*
X100476190Y-62478628D01*
X100476190Y-62478628D02*
X100095238Y-62478628D01*
X101095238Y-62431009D02*
X101428571Y-62431009D01*
X101571428Y-62954819D02*
X101095238Y-62954819D01*
X101095238Y-62954819D02*
X101095238Y-61954819D01*
X101095238Y-61954819D02*
X101571428Y-61954819D01*
X102333333Y-62431009D02*
X102000000Y-62431009D01*
X102000000Y-62954819D02*
X102000000Y-61954819D01*
X102000000Y-61954819D02*
X102476190Y-61954819D01*
X103000000Y-61954819D02*
X103000000Y-62192914D01*
X102761905Y-62097676D02*
X103000000Y-62192914D01*
X103000000Y-62192914D02*
X103238095Y-62097676D01*
X102857143Y-62383390D02*
X103000000Y-62192914D01*
X103000000Y-62192914D02*
X103142857Y-62383390D01*
X103761905Y-61954819D02*
X103761905Y-62192914D01*
X103523810Y-62097676D02*
X103761905Y-62192914D01*
X103761905Y-62192914D02*
X104000000Y-62097676D01*
X103619048Y-62383390D02*
X103761905Y-62192914D01*
X103761905Y-62192914D02*
X103904762Y-62383390D01*
X176616666Y-63764819D02*
X176283333Y-63288628D01*
X176045238Y-63764819D02*
X176045238Y-62764819D01*
X176045238Y-62764819D02*
X176426190Y-62764819D01*
X176426190Y-62764819D02*
X176521428Y-62812438D01*
X176521428Y-62812438D02*
X176569047Y-62860057D01*
X176569047Y-62860057D02*
X176616666Y-62955295D01*
X176616666Y-62955295D02*
X176616666Y-63098152D01*
X176616666Y-63098152D02*
X176569047Y-63193390D01*
X176569047Y-63193390D02*
X176521428Y-63241009D01*
X176521428Y-63241009D02*
X176426190Y-63288628D01*
X176426190Y-63288628D02*
X176045238Y-63288628D01*
X177045238Y-63241009D02*
X177378571Y-63241009D01*
X177521428Y-63764819D02*
X177045238Y-63764819D01*
X177045238Y-63764819D02*
X177045238Y-62764819D01*
X177045238Y-62764819D02*
X177521428Y-62764819D01*
X178283333Y-63241009D02*
X177950000Y-63241009D01*
X177950000Y-63764819D02*
X177950000Y-62764819D01*
X177950000Y-62764819D02*
X178426190Y-62764819D01*
X178950000Y-62764819D02*
X178950000Y-63002914D01*
X178711905Y-62907676D02*
X178950000Y-63002914D01*
X178950000Y-63002914D02*
X179188095Y-62907676D01*
X178807143Y-63193390D02*
X178950000Y-63002914D01*
X178950000Y-63002914D02*
X179092857Y-63193390D01*
X179711905Y-62764819D02*
X179711905Y-63002914D01*
X179473810Y-62907676D02*
X179711905Y-63002914D01*
X179711905Y-63002914D02*
X179950000Y-62907676D01*
X179569048Y-63193390D02*
X179711905Y-63002914D01*
X179711905Y-63002914D02*
X179854762Y-63193390D01*
X153766666Y-104654819D02*
X153766666Y-105369104D01*
X153766666Y-105369104D02*
X153719047Y-105511961D01*
X153719047Y-105511961D02*
X153623809Y-105607200D01*
X153623809Y-105607200D02*
X153480952Y-105654819D01*
X153480952Y-105654819D02*
X153385714Y-105654819D01*
X154195238Y-104750057D02*
X154242857Y-104702438D01*
X154242857Y-104702438D02*
X154338095Y-104654819D01*
X154338095Y-104654819D02*
X154576190Y-104654819D01*
X154576190Y-104654819D02*
X154671428Y-104702438D01*
X154671428Y-104702438D02*
X154719047Y-104750057D01*
X154719047Y-104750057D02*
X154766666Y-104845295D01*
X154766666Y-104845295D02*
X154766666Y-104940533D01*
X154766666Y-104940533D02*
X154719047Y-105083390D01*
X154719047Y-105083390D02*
X154147619Y-105654819D01*
X154147619Y-105654819D02*
X154766666Y-105654819D01*
X236766667Y-85807200D02*
X236909524Y-85854819D01*
X236909524Y-85854819D02*
X237147619Y-85854819D01*
X237147619Y-85854819D02*
X237242857Y-85807200D01*
X237242857Y-85807200D02*
X237290476Y-85759580D01*
X237290476Y-85759580D02*
X237338095Y-85664342D01*
X237338095Y-85664342D02*
X237338095Y-85569104D01*
X237338095Y-85569104D02*
X237290476Y-85473866D01*
X237290476Y-85473866D02*
X237242857Y-85426247D01*
X237242857Y-85426247D02*
X237147619Y-85378628D01*
X237147619Y-85378628D02*
X236957143Y-85331009D01*
X236957143Y-85331009D02*
X236861905Y-85283390D01*
X236861905Y-85283390D02*
X236814286Y-85235771D01*
X236814286Y-85235771D02*
X236766667Y-85140533D01*
X236766667Y-85140533D02*
X236766667Y-85045295D01*
X236766667Y-85045295D02*
X236814286Y-84950057D01*
X236814286Y-84950057D02*
X236861905Y-84902438D01*
X236861905Y-84902438D02*
X236957143Y-84854819D01*
X236957143Y-84854819D02*
X237195238Y-84854819D01*
X237195238Y-84854819D02*
X237338095Y-84902438D01*
X237671429Y-84854819D02*
X237909524Y-85854819D01*
X237909524Y-85854819D02*
X238100000Y-85140533D01*
X238100000Y-85140533D02*
X238290476Y-85854819D01*
X238290476Y-85854819D02*
X238528572Y-84854819D01*
X239433333Y-85854819D02*
X238861905Y-85854819D01*
X239147619Y-85854819D02*
X239147619Y-84854819D01*
X239147619Y-84854819D02*
X239052381Y-84997676D01*
X239052381Y-84997676D02*
X238957143Y-85092914D01*
X238957143Y-85092914D02*
X238861905Y-85140533D01*
X147966667Y-125107200D02*
X148109524Y-125154819D01*
X148109524Y-125154819D02*
X148347619Y-125154819D01*
X148347619Y-125154819D02*
X148442857Y-125107200D01*
X148442857Y-125107200D02*
X148490476Y-125059580D01*
X148490476Y-125059580D02*
X148538095Y-124964342D01*
X148538095Y-124964342D02*
X148538095Y-124869104D01*
X148538095Y-124869104D02*
X148490476Y-124773866D01*
X148490476Y-124773866D02*
X148442857Y-124726247D01*
X148442857Y-124726247D02*
X148347619Y-124678628D01*
X148347619Y-124678628D02*
X148157143Y-124631009D01*
X148157143Y-124631009D02*
X148061905Y-124583390D01*
X148061905Y-124583390D02*
X148014286Y-124535771D01*
X148014286Y-124535771D02*
X147966667Y-124440533D01*
X147966667Y-124440533D02*
X147966667Y-124345295D01*
X147966667Y-124345295D02*
X148014286Y-124250057D01*
X148014286Y-124250057D02*
X148061905Y-124202438D01*
X148061905Y-124202438D02*
X148157143Y-124154819D01*
X148157143Y-124154819D02*
X148395238Y-124154819D01*
X148395238Y-124154819D02*
X148538095Y-124202438D01*
X148871429Y-124154819D02*
X149109524Y-125154819D01*
X149109524Y-125154819D02*
X149300000Y-124440533D01*
X149300000Y-124440533D02*
X149490476Y-125154819D01*
X149490476Y-125154819D02*
X149728572Y-124154819D01*
X150538095Y-124488152D02*
X150538095Y-125154819D01*
X150300000Y-124107200D02*
X150061905Y-124821485D01*
X150061905Y-124821485D02*
X150680952Y-124821485D01*
X178866667Y-125107200D02*
X179009524Y-125154819D01*
X179009524Y-125154819D02*
X179247619Y-125154819D01*
X179247619Y-125154819D02*
X179342857Y-125107200D01*
X179342857Y-125107200D02*
X179390476Y-125059580D01*
X179390476Y-125059580D02*
X179438095Y-124964342D01*
X179438095Y-124964342D02*
X179438095Y-124869104D01*
X179438095Y-124869104D02*
X179390476Y-124773866D01*
X179390476Y-124773866D02*
X179342857Y-124726247D01*
X179342857Y-124726247D02*
X179247619Y-124678628D01*
X179247619Y-124678628D02*
X179057143Y-124631009D01*
X179057143Y-124631009D02*
X178961905Y-124583390D01*
X178961905Y-124583390D02*
X178914286Y-124535771D01*
X178914286Y-124535771D02*
X178866667Y-124440533D01*
X178866667Y-124440533D02*
X178866667Y-124345295D01*
X178866667Y-124345295D02*
X178914286Y-124250057D01*
X178914286Y-124250057D02*
X178961905Y-124202438D01*
X178961905Y-124202438D02*
X179057143Y-124154819D01*
X179057143Y-124154819D02*
X179295238Y-124154819D01*
X179295238Y-124154819D02*
X179438095Y-124202438D01*
X179771429Y-124154819D02*
X180009524Y-125154819D01*
X180009524Y-125154819D02*
X180200000Y-124440533D01*
X180200000Y-124440533D02*
X180390476Y-125154819D01*
X180390476Y-125154819D02*
X180628572Y-124154819D01*
X180961905Y-124250057D02*
X181009524Y-124202438D01*
X181009524Y-124202438D02*
X181104762Y-124154819D01*
X181104762Y-124154819D02*
X181342857Y-124154819D01*
X181342857Y-124154819D02*
X181438095Y-124202438D01*
X181438095Y-124202438D02*
X181485714Y-124250057D01*
X181485714Y-124250057D02*
X181533333Y-124345295D01*
X181533333Y-124345295D02*
X181533333Y-124440533D01*
X181533333Y-124440533D02*
X181485714Y-124583390D01*
X181485714Y-124583390D02*
X180914286Y-125154819D01*
X180914286Y-125154819D02*
X181533333Y-125154819D01*
X188871905Y-70494819D02*
X188871905Y-69494819D01*
X188871905Y-69494819D02*
X189110000Y-69494819D01*
X189110000Y-69494819D02*
X189252857Y-69542438D01*
X189252857Y-69542438D02*
X189348095Y-69637676D01*
X189348095Y-69637676D02*
X189395714Y-69732914D01*
X189395714Y-69732914D02*
X189443333Y-69923390D01*
X189443333Y-69923390D02*
X189443333Y-70066247D01*
X189443333Y-70066247D02*
X189395714Y-70256723D01*
X189395714Y-70256723D02*
X189348095Y-70351961D01*
X189348095Y-70351961D02*
X189252857Y-70447200D01*
X189252857Y-70447200D02*
X189110000Y-70494819D01*
X189110000Y-70494819D02*
X188871905Y-70494819D01*
X190395714Y-70494819D02*
X189824286Y-70494819D01*
X190110000Y-70494819D02*
X190110000Y-69494819D01*
X190110000Y-69494819D02*
X190014762Y-69637676D01*
X190014762Y-69637676D02*
X189919524Y-69732914D01*
X189919524Y-69732914D02*
X189824286Y-69780533D01*
X184068095Y-71094819D02*
X184068095Y-70094819D01*
X184639523Y-71094819D02*
X184210952Y-70523390D01*
X184639523Y-70094819D02*
X184068095Y-70666247D01*
X159933333Y-62559580D02*
X159885714Y-62607200D01*
X159885714Y-62607200D02*
X159742857Y-62654819D01*
X159742857Y-62654819D02*
X159647619Y-62654819D01*
X159647619Y-62654819D02*
X159504762Y-62607200D01*
X159504762Y-62607200D02*
X159409524Y-62511961D01*
X159409524Y-62511961D02*
X159361905Y-62416723D01*
X159361905Y-62416723D02*
X159314286Y-62226247D01*
X159314286Y-62226247D02*
X159314286Y-62083390D01*
X159314286Y-62083390D02*
X159361905Y-61892914D01*
X159361905Y-61892914D02*
X159409524Y-61797676D01*
X159409524Y-61797676D02*
X159504762Y-61702438D01*
X159504762Y-61702438D02*
X159647619Y-61654819D01*
X159647619Y-61654819D02*
X159742857Y-61654819D01*
X159742857Y-61654819D02*
X159885714Y-61702438D01*
X159885714Y-61702438D02*
X159933333Y-61750057D01*
X160790476Y-61654819D02*
X160600000Y-61654819D01*
X160600000Y-61654819D02*
X160504762Y-61702438D01*
X160504762Y-61702438D02*
X160457143Y-61750057D01*
X160457143Y-61750057D02*
X160361905Y-61892914D01*
X160361905Y-61892914D02*
X160314286Y-62083390D01*
X160314286Y-62083390D02*
X160314286Y-62464342D01*
X160314286Y-62464342D02*
X160361905Y-62559580D01*
X160361905Y-62559580D02*
X160409524Y-62607200D01*
X160409524Y-62607200D02*
X160504762Y-62654819D01*
X160504762Y-62654819D02*
X160695238Y-62654819D01*
X160695238Y-62654819D02*
X160790476Y-62607200D01*
X160790476Y-62607200D02*
X160838095Y-62559580D01*
X160838095Y-62559580D02*
X160885714Y-62464342D01*
X160885714Y-62464342D02*
X160885714Y-62226247D01*
X160885714Y-62226247D02*
X160838095Y-62131009D01*
X160838095Y-62131009D02*
X160790476Y-62083390D01*
X160790476Y-62083390D02*
X160695238Y-62035771D01*
X160695238Y-62035771D02*
X160504762Y-62035771D01*
X160504762Y-62035771D02*
X160409524Y-62083390D01*
X160409524Y-62083390D02*
X160361905Y-62131009D01*
X160361905Y-62131009D02*
X160314286Y-62226247D01*
X228616666Y-74244819D02*
X228616666Y-74959104D01*
X228616666Y-74959104D02*
X228569047Y-75101961D01*
X228569047Y-75101961D02*
X228473809Y-75197200D01*
X228473809Y-75197200D02*
X228330952Y-75244819D01*
X228330952Y-75244819D02*
X228235714Y-75244819D01*
X229616666Y-75244819D02*
X229045238Y-75244819D01*
X229330952Y-75244819D02*
X229330952Y-74244819D01*
X229330952Y-74244819D02*
X229235714Y-74387676D01*
X229235714Y-74387676D02*
X229140476Y-74482914D01*
X229140476Y-74482914D02*
X229045238Y-74530533D01*
X144684819Y-89666666D02*
X144208628Y-89999999D01*
X144684819Y-90238094D02*
X143684819Y-90238094D01*
X143684819Y-90238094D02*
X143684819Y-89857142D01*
X143684819Y-89857142D02*
X143732438Y-89761904D01*
X143732438Y-89761904D02*
X143780057Y-89714285D01*
X143780057Y-89714285D02*
X143875295Y-89666666D01*
X143875295Y-89666666D02*
X144018152Y-89666666D01*
X144018152Y-89666666D02*
X144113390Y-89714285D01*
X144113390Y-89714285D02*
X144161009Y-89761904D01*
X144161009Y-89761904D02*
X144208628Y-89857142D01*
X144208628Y-89857142D02*
X144208628Y-90238094D01*
X143684819Y-89333332D02*
X143684819Y-88714285D01*
X143684819Y-88714285D02*
X144065771Y-89047618D01*
X144065771Y-89047618D02*
X144065771Y-88904761D01*
X144065771Y-88904761D02*
X144113390Y-88809523D01*
X144113390Y-88809523D02*
X144161009Y-88761904D01*
X144161009Y-88761904D02*
X144256247Y-88714285D01*
X144256247Y-88714285D02*
X144494342Y-88714285D01*
X144494342Y-88714285D02*
X144589580Y-88761904D01*
X144589580Y-88761904D02*
X144637200Y-88809523D01*
X144637200Y-88809523D02*
X144684819Y-88904761D01*
X144684819Y-88904761D02*
X144684819Y-89190475D01*
X144684819Y-89190475D02*
X144637200Y-89285713D01*
X144637200Y-89285713D02*
X144589580Y-89333332D01*
X163866667Y-125007200D02*
X164009524Y-125054819D01*
X164009524Y-125054819D02*
X164247619Y-125054819D01*
X164247619Y-125054819D02*
X164342857Y-125007200D01*
X164342857Y-125007200D02*
X164390476Y-124959580D01*
X164390476Y-124959580D02*
X164438095Y-124864342D01*
X164438095Y-124864342D02*
X164438095Y-124769104D01*
X164438095Y-124769104D02*
X164390476Y-124673866D01*
X164390476Y-124673866D02*
X164342857Y-124626247D01*
X164342857Y-124626247D02*
X164247619Y-124578628D01*
X164247619Y-124578628D02*
X164057143Y-124531009D01*
X164057143Y-124531009D02*
X163961905Y-124483390D01*
X163961905Y-124483390D02*
X163914286Y-124435771D01*
X163914286Y-124435771D02*
X163866667Y-124340533D01*
X163866667Y-124340533D02*
X163866667Y-124245295D01*
X163866667Y-124245295D02*
X163914286Y-124150057D01*
X163914286Y-124150057D02*
X163961905Y-124102438D01*
X163961905Y-124102438D02*
X164057143Y-124054819D01*
X164057143Y-124054819D02*
X164295238Y-124054819D01*
X164295238Y-124054819D02*
X164438095Y-124102438D01*
X164771429Y-124054819D02*
X165009524Y-125054819D01*
X165009524Y-125054819D02*
X165200000Y-124340533D01*
X165200000Y-124340533D02*
X165390476Y-125054819D01*
X165390476Y-125054819D02*
X165628572Y-124054819D01*
X166485714Y-124054819D02*
X166009524Y-124054819D01*
X166009524Y-124054819D02*
X165961905Y-124531009D01*
X165961905Y-124531009D02*
X166009524Y-124483390D01*
X166009524Y-124483390D02*
X166104762Y-124435771D01*
X166104762Y-124435771D02*
X166342857Y-124435771D01*
X166342857Y-124435771D02*
X166438095Y-124483390D01*
X166438095Y-124483390D02*
X166485714Y-124531009D01*
X166485714Y-124531009D02*
X166533333Y-124626247D01*
X166533333Y-124626247D02*
X166533333Y-124864342D01*
X166533333Y-124864342D02*
X166485714Y-124959580D01*
X166485714Y-124959580D02*
X166438095Y-125007200D01*
X166438095Y-125007200D02*
X166342857Y-125054819D01*
X166342857Y-125054819D02*
X166104762Y-125054819D01*
X166104762Y-125054819D02*
X166009524Y-125007200D01*
X166009524Y-125007200D02*
X165961905Y-124959580D01*
X167963333Y-88754819D02*
X167630000Y-88278628D01*
X167391905Y-88754819D02*
X167391905Y-87754819D01*
X167391905Y-87754819D02*
X167772857Y-87754819D01*
X167772857Y-87754819D02*
X167868095Y-87802438D01*
X167868095Y-87802438D02*
X167915714Y-87850057D01*
X167915714Y-87850057D02*
X167963333Y-87945295D01*
X167963333Y-87945295D02*
X167963333Y-88088152D01*
X167963333Y-88088152D02*
X167915714Y-88183390D01*
X167915714Y-88183390D02*
X167868095Y-88231009D01*
X167868095Y-88231009D02*
X167772857Y-88278628D01*
X167772857Y-88278628D02*
X167391905Y-88278628D01*
X168915714Y-88754819D02*
X168344286Y-88754819D01*
X168630000Y-88754819D02*
X168630000Y-87754819D01*
X168630000Y-87754819D02*
X168534762Y-87897676D01*
X168534762Y-87897676D02*
X168439524Y-87992914D01*
X168439524Y-87992914D02*
X168344286Y-88040533D01*
X188716666Y-61514819D02*
X188716666Y-62229104D01*
X188716666Y-62229104D02*
X188669047Y-62371961D01*
X188669047Y-62371961D02*
X188573809Y-62467200D01*
X188573809Y-62467200D02*
X188430952Y-62514819D01*
X188430952Y-62514819D02*
X188335714Y-62514819D01*
X189621428Y-61848152D02*
X189621428Y-62514819D01*
X189383333Y-61467200D02*
X189145238Y-62181485D01*
X189145238Y-62181485D02*
X189764285Y-62181485D01*
X216809580Y-77266666D02*
X216857200Y-77314285D01*
X216857200Y-77314285D02*
X216904819Y-77457142D01*
X216904819Y-77457142D02*
X216904819Y-77552380D01*
X216904819Y-77552380D02*
X216857200Y-77695237D01*
X216857200Y-77695237D02*
X216761961Y-77790475D01*
X216761961Y-77790475D02*
X216666723Y-77838094D01*
X216666723Y-77838094D02*
X216476247Y-77885713D01*
X216476247Y-77885713D02*
X216333390Y-77885713D01*
X216333390Y-77885713D02*
X216142914Y-77838094D01*
X216142914Y-77838094D02*
X216047676Y-77790475D01*
X216047676Y-77790475D02*
X215952438Y-77695237D01*
X215952438Y-77695237D02*
X215904819Y-77552380D01*
X215904819Y-77552380D02*
X215904819Y-77457142D01*
X215904819Y-77457142D02*
X215952438Y-77314285D01*
X215952438Y-77314285D02*
X216000057Y-77266666D01*
X216904819Y-76790475D02*
X216904819Y-76599999D01*
X216904819Y-76599999D02*
X216857200Y-76504761D01*
X216857200Y-76504761D02*
X216809580Y-76457142D01*
X216809580Y-76457142D02*
X216666723Y-76361904D01*
X216666723Y-76361904D02*
X216476247Y-76314285D01*
X216476247Y-76314285D02*
X216095295Y-76314285D01*
X216095295Y-76314285D02*
X216000057Y-76361904D01*
X216000057Y-76361904D02*
X215952438Y-76409523D01*
X215952438Y-76409523D02*
X215904819Y-76504761D01*
X215904819Y-76504761D02*
X215904819Y-76695237D01*
X215904819Y-76695237D02*
X215952438Y-76790475D01*
X215952438Y-76790475D02*
X216000057Y-76838094D01*
X216000057Y-76838094D02*
X216095295Y-76885713D01*
X216095295Y-76885713D02*
X216333390Y-76885713D01*
X216333390Y-76885713D02*
X216428628Y-76838094D01*
X216428628Y-76838094D02*
X216476247Y-76790475D01*
X216476247Y-76790475D02*
X216523866Y-76695237D01*
X216523866Y-76695237D02*
X216523866Y-76504761D01*
X216523866Y-76504761D02*
X216476247Y-76409523D01*
X216476247Y-76409523D02*
X216428628Y-76361904D01*
X216428628Y-76361904D02*
X216333390Y-76314285D01*
X201666666Y-77054819D02*
X201333333Y-76578628D01*
X201095238Y-77054819D02*
X201095238Y-76054819D01*
X201095238Y-76054819D02*
X201476190Y-76054819D01*
X201476190Y-76054819D02*
X201571428Y-76102438D01*
X201571428Y-76102438D02*
X201619047Y-76150057D01*
X201619047Y-76150057D02*
X201666666Y-76245295D01*
X201666666Y-76245295D02*
X201666666Y-76388152D01*
X201666666Y-76388152D02*
X201619047Y-76483390D01*
X201619047Y-76483390D02*
X201571428Y-76531009D01*
X201571428Y-76531009D02*
X201476190Y-76578628D01*
X201476190Y-76578628D02*
X201095238Y-76578628D01*
X202095238Y-76531009D02*
X202428571Y-76531009D01*
X202571428Y-77054819D02*
X202095238Y-77054819D01*
X202095238Y-77054819D02*
X202095238Y-76054819D01*
X202095238Y-76054819D02*
X202571428Y-76054819D01*
X203333333Y-76531009D02*
X203000000Y-76531009D01*
X203000000Y-77054819D02*
X203000000Y-76054819D01*
X203000000Y-76054819D02*
X203476190Y-76054819D01*
X204000000Y-76054819D02*
X204000000Y-76292914D01*
X203761905Y-76197676D02*
X204000000Y-76292914D01*
X204000000Y-76292914D02*
X204238095Y-76197676D01*
X203857143Y-76483390D02*
X204000000Y-76292914D01*
X204000000Y-76292914D02*
X204142857Y-76483390D01*
X204761905Y-76054819D02*
X204761905Y-76292914D01*
X204523810Y-76197676D02*
X204761905Y-76292914D01*
X204761905Y-76292914D02*
X205000000Y-76197676D01*
X204619048Y-76483390D02*
X204761905Y-76292914D01*
X204761905Y-76292914D02*
X204904762Y-76483390D01*
X137559580Y-90266666D02*
X137607200Y-90314285D01*
X137607200Y-90314285D02*
X137654819Y-90457142D01*
X137654819Y-90457142D02*
X137654819Y-90552380D01*
X137654819Y-90552380D02*
X137607200Y-90695237D01*
X137607200Y-90695237D02*
X137511961Y-90790475D01*
X137511961Y-90790475D02*
X137416723Y-90838094D01*
X137416723Y-90838094D02*
X137226247Y-90885713D01*
X137226247Y-90885713D02*
X137083390Y-90885713D01*
X137083390Y-90885713D02*
X136892914Y-90838094D01*
X136892914Y-90838094D02*
X136797676Y-90790475D01*
X136797676Y-90790475D02*
X136702438Y-90695237D01*
X136702438Y-90695237D02*
X136654819Y-90552380D01*
X136654819Y-90552380D02*
X136654819Y-90457142D01*
X136654819Y-90457142D02*
X136702438Y-90314285D01*
X136702438Y-90314285D02*
X136750057Y-90266666D01*
X136750057Y-89885713D02*
X136702438Y-89838094D01*
X136702438Y-89838094D02*
X136654819Y-89742856D01*
X136654819Y-89742856D02*
X136654819Y-89504761D01*
X136654819Y-89504761D02*
X136702438Y-89409523D01*
X136702438Y-89409523D02*
X136750057Y-89361904D01*
X136750057Y-89361904D02*
X136845295Y-89314285D01*
X136845295Y-89314285D02*
X136940533Y-89314285D01*
X136940533Y-89314285D02*
X137083390Y-89361904D01*
X137083390Y-89361904D02*
X137654819Y-89933332D01*
X137654819Y-89933332D02*
X137654819Y-89314285D01*
X237666666Y-62954819D02*
X237333333Y-62478628D01*
X237095238Y-62954819D02*
X237095238Y-61954819D01*
X237095238Y-61954819D02*
X237476190Y-61954819D01*
X237476190Y-61954819D02*
X237571428Y-62002438D01*
X237571428Y-62002438D02*
X237619047Y-62050057D01*
X237619047Y-62050057D02*
X237666666Y-62145295D01*
X237666666Y-62145295D02*
X237666666Y-62288152D01*
X237666666Y-62288152D02*
X237619047Y-62383390D01*
X237619047Y-62383390D02*
X237571428Y-62431009D01*
X237571428Y-62431009D02*
X237476190Y-62478628D01*
X237476190Y-62478628D02*
X237095238Y-62478628D01*
X238095238Y-62431009D02*
X238428571Y-62431009D01*
X238571428Y-62954819D02*
X238095238Y-62954819D01*
X238095238Y-62954819D02*
X238095238Y-61954819D01*
X238095238Y-61954819D02*
X238571428Y-61954819D01*
X239333333Y-62431009D02*
X239000000Y-62431009D01*
X239000000Y-62954819D02*
X239000000Y-61954819D01*
X239000000Y-61954819D02*
X239476190Y-61954819D01*
X240000000Y-61954819D02*
X240000000Y-62192914D01*
X239761905Y-62097676D02*
X240000000Y-62192914D01*
X240000000Y-62192914D02*
X240238095Y-62097676D01*
X239857143Y-62383390D02*
X240000000Y-62192914D01*
X240000000Y-62192914D02*
X240142857Y-62383390D01*
X240761905Y-61954819D02*
X240761905Y-62192914D01*
X240523810Y-62097676D02*
X240761905Y-62192914D01*
X240761905Y-62192914D02*
X241000000Y-62097676D01*
X240619048Y-62383390D02*
X240761905Y-62192914D01*
X240761905Y-62192914D02*
X240904762Y-62383390D01*
X179429580Y-86362857D02*
X179477200Y-86410476D01*
X179477200Y-86410476D02*
X179524819Y-86553333D01*
X179524819Y-86553333D02*
X179524819Y-86648571D01*
X179524819Y-86648571D02*
X179477200Y-86791428D01*
X179477200Y-86791428D02*
X179381961Y-86886666D01*
X179381961Y-86886666D02*
X179286723Y-86934285D01*
X179286723Y-86934285D02*
X179096247Y-86981904D01*
X179096247Y-86981904D02*
X178953390Y-86981904D01*
X178953390Y-86981904D02*
X178762914Y-86934285D01*
X178762914Y-86934285D02*
X178667676Y-86886666D01*
X178667676Y-86886666D02*
X178572438Y-86791428D01*
X178572438Y-86791428D02*
X178524819Y-86648571D01*
X178524819Y-86648571D02*
X178524819Y-86553333D01*
X178524819Y-86553333D02*
X178572438Y-86410476D01*
X178572438Y-86410476D02*
X178620057Y-86362857D01*
X179524819Y-85410476D02*
X179524819Y-85981904D01*
X179524819Y-85696190D02*
X178524819Y-85696190D01*
X178524819Y-85696190D02*
X178667676Y-85791428D01*
X178667676Y-85791428D02*
X178762914Y-85886666D01*
X178762914Y-85886666D02*
X178810533Y-85981904D01*
X178524819Y-85077142D02*
X178524819Y-84410476D01*
X178524819Y-84410476D02*
X179524819Y-84839047D01*
X100666666Y-125954819D02*
X100333333Y-125478628D01*
X100095238Y-125954819D02*
X100095238Y-124954819D01*
X100095238Y-124954819D02*
X100476190Y-124954819D01*
X100476190Y-124954819D02*
X100571428Y-125002438D01*
X100571428Y-125002438D02*
X100619047Y-125050057D01*
X100619047Y-125050057D02*
X100666666Y-125145295D01*
X100666666Y-125145295D02*
X100666666Y-125288152D01*
X100666666Y-125288152D02*
X100619047Y-125383390D01*
X100619047Y-125383390D02*
X100571428Y-125431009D01*
X100571428Y-125431009D02*
X100476190Y-125478628D01*
X100476190Y-125478628D02*
X100095238Y-125478628D01*
X101095238Y-125431009D02*
X101428571Y-125431009D01*
X101571428Y-125954819D02*
X101095238Y-125954819D01*
X101095238Y-125954819D02*
X101095238Y-124954819D01*
X101095238Y-124954819D02*
X101571428Y-124954819D01*
X102333333Y-125431009D02*
X102000000Y-125431009D01*
X102000000Y-125954819D02*
X102000000Y-124954819D01*
X102000000Y-124954819D02*
X102476190Y-124954819D01*
X103000000Y-124954819D02*
X103000000Y-125192914D01*
X102761905Y-125097676D02*
X103000000Y-125192914D01*
X103000000Y-125192914D02*
X103238095Y-125097676D01*
X102857143Y-125383390D02*
X103000000Y-125192914D01*
X103000000Y-125192914D02*
X103142857Y-125383390D01*
X103761905Y-124954819D02*
X103761905Y-125192914D01*
X103523810Y-125097676D02*
X103761905Y-125192914D01*
X103761905Y-125192914D02*
X104000000Y-125097676D01*
X103619048Y-125383390D02*
X103761905Y-125192914D01*
X103761905Y-125192914D02*
X103904762Y-125383390D01*
X143069580Y-111436666D02*
X143117200Y-111484285D01*
X143117200Y-111484285D02*
X143164819Y-111627142D01*
X143164819Y-111627142D02*
X143164819Y-111722380D01*
X143164819Y-111722380D02*
X143117200Y-111865237D01*
X143117200Y-111865237D02*
X143021961Y-111960475D01*
X143021961Y-111960475D02*
X142926723Y-112008094D01*
X142926723Y-112008094D02*
X142736247Y-112055713D01*
X142736247Y-112055713D02*
X142593390Y-112055713D01*
X142593390Y-112055713D02*
X142402914Y-112008094D01*
X142402914Y-112008094D02*
X142307676Y-111960475D01*
X142307676Y-111960475D02*
X142212438Y-111865237D01*
X142212438Y-111865237D02*
X142164819Y-111722380D01*
X142164819Y-111722380D02*
X142164819Y-111627142D01*
X142164819Y-111627142D02*
X142212438Y-111484285D01*
X142212438Y-111484285D02*
X142260057Y-111436666D01*
X142498152Y-110579523D02*
X143164819Y-110579523D01*
X142117200Y-110817618D02*
X142831485Y-111055713D01*
X142831485Y-111055713D02*
X142831485Y-110436666D01*
X167953333Y-98524819D02*
X167620000Y-98048628D01*
X167381905Y-98524819D02*
X167381905Y-97524819D01*
X167381905Y-97524819D02*
X167762857Y-97524819D01*
X167762857Y-97524819D02*
X167858095Y-97572438D01*
X167858095Y-97572438D02*
X167905714Y-97620057D01*
X167905714Y-97620057D02*
X167953333Y-97715295D01*
X167953333Y-97715295D02*
X167953333Y-97858152D01*
X167953333Y-97858152D02*
X167905714Y-97953390D01*
X167905714Y-97953390D02*
X167858095Y-98001009D01*
X167858095Y-98001009D02*
X167762857Y-98048628D01*
X167762857Y-98048628D02*
X167381905Y-98048628D01*
X168334286Y-97620057D02*
X168381905Y-97572438D01*
X168381905Y-97572438D02*
X168477143Y-97524819D01*
X168477143Y-97524819D02*
X168715238Y-97524819D01*
X168715238Y-97524819D02*
X168810476Y-97572438D01*
X168810476Y-97572438D02*
X168858095Y-97620057D01*
X168858095Y-97620057D02*
X168905714Y-97715295D01*
X168905714Y-97715295D02*
X168905714Y-97810533D01*
X168905714Y-97810533D02*
X168858095Y-97953390D01*
X168858095Y-97953390D02*
X168286667Y-98524819D01*
X168286667Y-98524819D02*
X168905714Y-98524819D01*
X201566666Y-103654819D02*
X201233333Y-103178628D01*
X200995238Y-103654819D02*
X200995238Y-102654819D01*
X200995238Y-102654819D02*
X201376190Y-102654819D01*
X201376190Y-102654819D02*
X201471428Y-102702438D01*
X201471428Y-102702438D02*
X201519047Y-102750057D01*
X201519047Y-102750057D02*
X201566666Y-102845295D01*
X201566666Y-102845295D02*
X201566666Y-102988152D01*
X201566666Y-102988152D02*
X201519047Y-103083390D01*
X201519047Y-103083390D02*
X201471428Y-103131009D01*
X201471428Y-103131009D02*
X201376190Y-103178628D01*
X201376190Y-103178628D02*
X200995238Y-103178628D01*
X201995238Y-103131009D02*
X202328571Y-103131009D01*
X202471428Y-103654819D02*
X201995238Y-103654819D01*
X201995238Y-103654819D02*
X201995238Y-102654819D01*
X201995238Y-102654819D02*
X202471428Y-102654819D01*
X203233333Y-103131009D02*
X202900000Y-103131009D01*
X202900000Y-103654819D02*
X202900000Y-102654819D01*
X202900000Y-102654819D02*
X203376190Y-102654819D01*
X203900000Y-102654819D02*
X203900000Y-102892914D01*
X203661905Y-102797676D02*
X203900000Y-102892914D01*
X203900000Y-102892914D02*
X204138095Y-102797676D01*
X203757143Y-103083390D02*
X203900000Y-102892914D01*
X203900000Y-102892914D02*
X204042857Y-103083390D01*
X204661905Y-102654819D02*
X204661905Y-102892914D01*
X204423810Y-102797676D02*
X204661905Y-102892914D01*
X204661905Y-102892914D02*
X204900000Y-102797676D01*
X204519048Y-103083390D02*
X204661905Y-102892914D01*
X204661905Y-102892914D02*
X204804762Y-103083390D01*
X194466667Y-125007200D02*
X194609524Y-125054819D01*
X194609524Y-125054819D02*
X194847619Y-125054819D01*
X194847619Y-125054819D02*
X194942857Y-125007200D01*
X194942857Y-125007200D02*
X194990476Y-124959580D01*
X194990476Y-124959580D02*
X195038095Y-124864342D01*
X195038095Y-124864342D02*
X195038095Y-124769104D01*
X195038095Y-124769104D02*
X194990476Y-124673866D01*
X194990476Y-124673866D02*
X194942857Y-124626247D01*
X194942857Y-124626247D02*
X194847619Y-124578628D01*
X194847619Y-124578628D02*
X194657143Y-124531009D01*
X194657143Y-124531009D02*
X194561905Y-124483390D01*
X194561905Y-124483390D02*
X194514286Y-124435771D01*
X194514286Y-124435771D02*
X194466667Y-124340533D01*
X194466667Y-124340533D02*
X194466667Y-124245295D01*
X194466667Y-124245295D02*
X194514286Y-124150057D01*
X194514286Y-124150057D02*
X194561905Y-124102438D01*
X194561905Y-124102438D02*
X194657143Y-124054819D01*
X194657143Y-124054819D02*
X194895238Y-124054819D01*
X194895238Y-124054819D02*
X195038095Y-124102438D01*
X195371429Y-124054819D02*
X195609524Y-125054819D01*
X195609524Y-125054819D02*
X195800000Y-124340533D01*
X195800000Y-124340533D02*
X195990476Y-125054819D01*
X195990476Y-125054819D02*
X196228572Y-124054819D01*
X196514286Y-124054819D02*
X197133333Y-124054819D01*
X197133333Y-124054819D02*
X196800000Y-124435771D01*
X196800000Y-124435771D02*
X196942857Y-124435771D01*
X196942857Y-124435771D02*
X197038095Y-124483390D01*
X197038095Y-124483390D02*
X197085714Y-124531009D01*
X197085714Y-124531009D02*
X197133333Y-124626247D01*
X197133333Y-124626247D02*
X197133333Y-124864342D01*
X197133333Y-124864342D02*
X197085714Y-124959580D01*
X197085714Y-124959580D02*
X197038095Y-125007200D01*
X197038095Y-125007200D02*
X196942857Y-125054819D01*
X196942857Y-125054819D02*
X196657143Y-125054819D01*
X196657143Y-125054819D02*
X196561905Y-125007200D01*
X196561905Y-125007200D02*
X196514286Y-124959580D01*
D12*
X197285000Y-75059698D02*
X197285000Y-74259698D01*
X196885000Y-74659698D02*
X197685000Y-74659698D01*
X195520000Y-70650000D02*
X203680000Y-70650000D01*
X195520000Y-70610000D02*
X203680000Y-70610000D01*
X195520000Y-70570000D02*
X203680000Y-70570000D01*
X195521000Y-70530000D02*
X203679000Y-70530000D01*
X195523000Y-70490000D02*
X203677000Y-70490000D01*
X195524000Y-70450000D02*
X203676000Y-70450000D01*
X195526000Y-70410000D02*
X203674000Y-70410000D01*
X195529000Y-70370000D02*
X203671000Y-70370000D01*
X195532000Y-70330000D02*
X203668000Y-70330000D01*
X195535000Y-70290000D02*
X203665000Y-70290000D01*
X195539000Y-70250000D02*
X203661000Y-70250000D01*
X195543000Y-70210000D02*
X203657000Y-70210000D01*
X195548000Y-70170000D02*
X203652000Y-70170000D01*
X195552000Y-70130000D02*
X203648000Y-70130000D01*
X195558000Y-70090000D02*
X203642000Y-70090000D01*
X195563000Y-70050000D02*
X203637000Y-70050000D01*
X195570000Y-70010000D02*
X203630000Y-70010000D01*
X195576000Y-69970000D02*
X203624000Y-69970000D01*
X195583000Y-69929000D02*
X198560000Y-69929000D01*
X200640000Y-69929000D02*
X203617000Y-69929000D01*
X195590000Y-69889000D02*
X198560000Y-69889000D01*
X200640000Y-69889000D02*
X203610000Y-69889000D01*
X195598000Y-69849000D02*
X198560000Y-69849000D01*
X200640000Y-69849000D02*
X203602000Y-69849000D01*
X195606000Y-69809000D02*
X198560000Y-69809000D01*
X200640000Y-69809000D02*
X203594000Y-69809000D01*
X195615000Y-69769000D02*
X198560000Y-69769000D01*
X200640000Y-69769000D02*
X203585000Y-69769000D01*
X195624000Y-69729000D02*
X198560000Y-69729000D01*
X200640000Y-69729000D02*
X203576000Y-69729000D01*
X195633000Y-69689000D02*
X198560000Y-69689000D01*
X200640000Y-69689000D02*
X203567000Y-69689000D01*
X195643000Y-69649000D02*
X198560000Y-69649000D01*
X200640000Y-69649000D02*
X203557000Y-69649000D01*
X195653000Y-69609000D02*
X198560000Y-69609000D01*
X200640000Y-69609000D02*
X203547000Y-69609000D01*
X195664000Y-69569000D02*
X198560000Y-69569000D01*
X200640000Y-69569000D02*
X203536000Y-69569000D01*
X195675000Y-69529000D02*
X198560000Y-69529000D01*
X200640000Y-69529000D02*
X203525000Y-69529000D01*
X195686000Y-69489000D02*
X198560000Y-69489000D01*
X200640000Y-69489000D02*
X203514000Y-69489000D01*
X195698000Y-69449000D02*
X198560000Y-69449000D01*
X200640000Y-69449000D02*
X203502000Y-69449000D01*
X195711000Y-69409000D02*
X198560000Y-69409000D01*
X200640000Y-69409000D02*
X203489000Y-69409000D01*
X195723000Y-69369000D02*
X198560000Y-69369000D01*
X200640000Y-69369000D02*
X203477000Y-69369000D01*
X195737000Y-69329000D02*
X198560000Y-69329000D01*
X200640000Y-69329000D02*
X203463000Y-69329000D01*
X195750000Y-69289000D02*
X198560000Y-69289000D01*
X200640000Y-69289000D02*
X203450000Y-69289000D01*
X195765000Y-69249000D02*
X198560000Y-69249000D01*
X200640000Y-69249000D02*
X203435000Y-69249000D01*
X195779000Y-69209000D02*
X198560000Y-69209000D01*
X200640000Y-69209000D02*
X203421000Y-69209000D01*
X195795000Y-69169000D02*
X198560000Y-69169000D01*
X200640000Y-69169000D02*
X203405000Y-69169000D01*
X195810000Y-69129000D02*
X198560000Y-69129000D01*
X200640000Y-69129000D02*
X203390000Y-69129000D01*
X195826000Y-69089000D02*
X198560000Y-69089000D01*
X200640000Y-69089000D02*
X203374000Y-69089000D01*
X195843000Y-69049000D02*
X198560000Y-69049000D01*
X200640000Y-69049000D02*
X203357000Y-69049000D01*
X195860000Y-69009000D02*
X198560000Y-69009000D01*
X200640000Y-69009000D02*
X203340000Y-69009000D01*
X195878000Y-68969000D02*
X198560000Y-68969000D01*
X200640000Y-68969000D02*
X203322000Y-68969000D01*
X195896000Y-68929000D02*
X198560000Y-68929000D01*
X200640000Y-68929000D02*
X203304000Y-68929000D01*
X195914000Y-68889000D02*
X198560000Y-68889000D01*
X200640000Y-68889000D02*
X203286000Y-68889000D01*
X195934000Y-68849000D02*
X198560000Y-68849000D01*
X200640000Y-68849000D02*
X203266000Y-68849000D01*
X195953000Y-68809000D02*
X198560000Y-68809000D01*
X200640000Y-68809000D02*
X203247000Y-68809000D01*
X195973000Y-68769000D02*
X198560000Y-68769000D01*
X200640000Y-68769000D02*
X203227000Y-68769000D01*
X195994000Y-68729000D02*
X198560000Y-68729000D01*
X200640000Y-68729000D02*
X203206000Y-68729000D01*
X196016000Y-68689000D02*
X198560000Y-68689000D01*
X200640000Y-68689000D02*
X203184000Y-68689000D01*
X196038000Y-68649000D02*
X198560000Y-68649000D01*
X200640000Y-68649000D02*
X203162000Y-68649000D01*
X196060000Y-68609000D02*
X198560000Y-68609000D01*
X200640000Y-68609000D02*
X203140000Y-68609000D01*
X196083000Y-68569000D02*
X198560000Y-68569000D01*
X200640000Y-68569000D02*
X203117000Y-68569000D01*
X196107000Y-68529000D02*
X198560000Y-68529000D01*
X200640000Y-68529000D02*
X203093000Y-68529000D01*
X196131000Y-68489000D02*
X198560000Y-68489000D01*
X200640000Y-68489000D02*
X203069000Y-68489000D01*
X196156000Y-68449000D02*
X198560000Y-68449000D01*
X200640000Y-68449000D02*
X203044000Y-68449000D01*
X196182000Y-68409000D02*
X198560000Y-68409000D01*
X200640000Y-68409000D02*
X203018000Y-68409000D01*
X196208000Y-68369000D02*
X198560000Y-68369000D01*
X200640000Y-68369000D02*
X202992000Y-68369000D01*
X196235000Y-68329000D02*
X198560000Y-68329000D01*
X200640000Y-68329000D02*
X202965000Y-68329000D01*
X196262000Y-68289000D02*
X198560000Y-68289000D01*
X200640000Y-68289000D02*
X202938000Y-68289000D01*
X196291000Y-68249000D02*
X198560000Y-68249000D01*
X200640000Y-68249000D02*
X202909000Y-68249000D01*
X196320000Y-68209000D02*
X198560000Y-68209000D01*
X200640000Y-68209000D02*
X202880000Y-68209000D01*
X196350000Y-68169000D02*
X198560000Y-68169000D01*
X200640000Y-68169000D02*
X202850000Y-68169000D01*
X196380000Y-68129000D02*
X198560000Y-68129000D01*
X200640000Y-68129000D02*
X202820000Y-68129000D01*
X196411000Y-68089000D02*
X198560000Y-68089000D01*
X200640000Y-68089000D02*
X202789000Y-68089000D01*
X196444000Y-68049000D02*
X198560000Y-68049000D01*
X200640000Y-68049000D02*
X202756000Y-68049000D01*
X196476000Y-68009000D02*
X198560000Y-68009000D01*
X200640000Y-68009000D02*
X202724000Y-68009000D01*
X196510000Y-67969000D02*
X198560000Y-67969000D01*
X200640000Y-67969000D02*
X202690000Y-67969000D01*
X196545000Y-67929000D02*
X198560000Y-67929000D01*
X200640000Y-67929000D02*
X202655000Y-67929000D01*
X196581000Y-67889000D02*
X198560000Y-67889000D01*
X200640000Y-67889000D02*
X202619000Y-67889000D01*
X196617000Y-67849000D02*
X202583000Y-67849000D01*
X196655000Y-67809000D02*
X202545000Y-67809000D01*
X196693000Y-67769000D02*
X202507000Y-67769000D01*
X196733000Y-67729000D02*
X202467000Y-67729000D01*
X196774000Y-67689000D02*
X202426000Y-67689000D01*
X196816000Y-67649000D02*
X202384000Y-67649000D01*
X196859000Y-67609000D02*
X202341000Y-67609000D01*
X196903000Y-67569000D02*
X202297000Y-67569000D01*
X196949000Y-67529000D02*
X202251000Y-67529000D01*
X196996000Y-67489000D02*
X202204000Y-67489000D01*
X197044000Y-67449000D02*
X202156000Y-67449000D01*
X197095000Y-67409000D02*
X202105000Y-67409000D01*
X197146000Y-67369000D02*
X202054000Y-67369000D01*
X197200000Y-67329000D02*
X202000000Y-67329000D01*
X197255000Y-67289000D02*
X201945000Y-67289000D01*
X197313000Y-67249000D02*
X201887000Y-67249000D01*
X197372000Y-67209000D02*
X201828000Y-67209000D01*
X197434000Y-67169000D02*
X201766000Y-67169000D01*
X197498000Y-67129000D02*
X201702000Y-67129000D01*
X197566000Y-67089000D02*
X201634000Y-67089000D01*
X197636000Y-67049000D02*
X201564000Y-67049000D01*
X197710000Y-67009000D02*
X201490000Y-67009000D01*
X197787000Y-66969000D02*
X201413000Y-66969000D01*
X197869000Y-66929000D02*
X201331000Y-66929000D01*
X197955000Y-66889000D02*
X201245000Y-66889000D01*
X198048000Y-66849000D02*
X201152000Y-66849000D01*
X198147000Y-66809000D02*
X201053000Y-66809000D01*
X198254000Y-66769000D02*
X200946000Y-66769000D01*
X198371000Y-66729000D02*
X200829000Y-66729000D01*
X198502000Y-66689000D02*
X200698000Y-66689000D01*
X198652000Y-66649000D02*
X200548000Y-66649000D01*
X198832000Y-66609000D02*
X200368000Y-66609000D01*
X199067000Y-66569000D02*
X200133000Y-66569000D01*
X203720000Y-70650000D02*
G75*
G02*
X195480000Y-70650000I-4120000J0D01*
G01*
X195480000Y-70650000D02*
G75*
G02*
X203720000Y-70650000I4120000J0D01*
G01*
X160015000Y-67240302D02*
X160015000Y-68040302D01*
X160415000Y-67640302D02*
X159615000Y-67640302D01*
X161780000Y-71650000D02*
X153620000Y-71650000D01*
X161780000Y-71690000D02*
X153620000Y-71690000D01*
X161780000Y-71730000D02*
X153620000Y-71730000D01*
X161779000Y-71770000D02*
X153621000Y-71770000D01*
X161777000Y-71810000D02*
X153623000Y-71810000D01*
X161776000Y-71850000D02*
X153624000Y-71850000D01*
X161774000Y-71890000D02*
X153626000Y-71890000D01*
X161771000Y-71930000D02*
X153629000Y-71930000D01*
X161768000Y-71970000D02*
X153632000Y-71970000D01*
X161765000Y-72010000D02*
X153635000Y-72010000D01*
X161761000Y-72050000D02*
X153639000Y-72050000D01*
X161757000Y-72090000D02*
X153643000Y-72090000D01*
X161752000Y-72130000D02*
X153648000Y-72130000D01*
X161748000Y-72170000D02*
X153652000Y-72170000D01*
X161742000Y-72210000D02*
X153658000Y-72210000D01*
X161737000Y-72250000D02*
X153663000Y-72250000D01*
X161730000Y-72290000D02*
X153670000Y-72290000D01*
X161724000Y-72330000D02*
X153676000Y-72330000D01*
X161717000Y-72371000D02*
X158740000Y-72371000D01*
X156660000Y-72371000D02*
X153683000Y-72371000D01*
X161710000Y-72411000D02*
X158740000Y-72411000D01*
X156660000Y-72411000D02*
X153690000Y-72411000D01*
X161702000Y-72451000D02*
X158740000Y-72451000D01*
X156660000Y-72451000D02*
X153698000Y-72451000D01*
X161694000Y-72491000D02*
X158740000Y-72491000D01*
X156660000Y-72491000D02*
X153706000Y-72491000D01*
X161685000Y-72531000D02*
X158740000Y-72531000D01*
X156660000Y-72531000D02*
X153715000Y-72531000D01*
X161676000Y-72571000D02*
X158740000Y-72571000D01*
X156660000Y-72571000D02*
X153724000Y-72571000D01*
X161667000Y-72611000D02*
X158740000Y-72611000D01*
X156660000Y-72611000D02*
X153733000Y-72611000D01*
X161657000Y-72651000D02*
X158740000Y-72651000D01*
X156660000Y-72651000D02*
X153743000Y-72651000D01*
X161647000Y-72691000D02*
X158740000Y-72691000D01*
X156660000Y-72691000D02*
X153753000Y-72691000D01*
X161636000Y-72731000D02*
X158740000Y-72731000D01*
X156660000Y-72731000D02*
X153764000Y-72731000D01*
X161625000Y-72771000D02*
X158740000Y-72771000D01*
X156660000Y-72771000D02*
X153775000Y-72771000D01*
X161614000Y-72811000D02*
X158740000Y-72811000D01*
X156660000Y-72811000D02*
X153786000Y-72811000D01*
X161602000Y-72851000D02*
X158740000Y-72851000D01*
X156660000Y-72851000D02*
X153798000Y-72851000D01*
X161589000Y-72891000D02*
X158740000Y-72891000D01*
X156660000Y-72891000D02*
X153811000Y-72891000D01*
X161577000Y-72931000D02*
X158740000Y-72931000D01*
X156660000Y-72931000D02*
X153823000Y-72931000D01*
X161563000Y-72971000D02*
X158740000Y-72971000D01*
X156660000Y-72971000D02*
X153837000Y-72971000D01*
X161550000Y-73011000D02*
X158740000Y-73011000D01*
X156660000Y-73011000D02*
X153850000Y-73011000D01*
X161535000Y-73051000D02*
X158740000Y-73051000D01*
X156660000Y-73051000D02*
X153865000Y-73051000D01*
X161521000Y-73091000D02*
X158740000Y-73091000D01*
X156660000Y-73091000D02*
X153879000Y-73091000D01*
X161505000Y-73131000D02*
X158740000Y-73131000D01*
X156660000Y-73131000D02*
X153895000Y-73131000D01*
X161490000Y-73171000D02*
X158740000Y-73171000D01*
X156660000Y-73171000D02*
X153910000Y-73171000D01*
X161474000Y-73211000D02*
X158740000Y-73211000D01*
X156660000Y-73211000D02*
X153926000Y-73211000D01*
X161457000Y-73251000D02*
X158740000Y-73251000D01*
X156660000Y-73251000D02*
X153943000Y-73251000D01*
X161440000Y-73291000D02*
X158740000Y-73291000D01*
X156660000Y-73291000D02*
X153960000Y-73291000D01*
X161422000Y-73331000D02*
X158740000Y-73331000D01*
X156660000Y-73331000D02*
X153978000Y-73331000D01*
X161404000Y-73371000D02*
X158740000Y-73371000D01*
X156660000Y-73371000D02*
X153996000Y-73371000D01*
X161386000Y-73411000D02*
X158740000Y-73411000D01*
X156660000Y-73411000D02*
X154014000Y-73411000D01*
X161366000Y-73451000D02*
X158740000Y-73451000D01*
X156660000Y-73451000D02*
X154034000Y-73451000D01*
X161347000Y-73491000D02*
X158740000Y-73491000D01*
X156660000Y-73491000D02*
X154053000Y-73491000D01*
X161327000Y-73531000D02*
X158740000Y-73531000D01*
X156660000Y-73531000D02*
X154073000Y-73531000D01*
X161306000Y-73571000D02*
X158740000Y-73571000D01*
X156660000Y-73571000D02*
X154094000Y-73571000D01*
X161284000Y-73611000D02*
X158740000Y-73611000D01*
X156660000Y-73611000D02*
X154116000Y-73611000D01*
X161262000Y-73651000D02*
X158740000Y-73651000D01*
X156660000Y-73651000D02*
X154138000Y-73651000D01*
X161240000Y-73691000D02*
X158740000Y-73691000D01*
X156660000Y-73691000D02*
X154160000Y-73691000D01*
X161217000Y-73731000D02*
X158740000Y-73731000D01*
X156660000Y-73731000D02*
X154183000Y-73731000D01*
X161193000Y-73771000D02*
X158740000Y-73771000D01*
X156660000Y-73771000D02*
X154207000Y-73771000D01*
X161169000Y-73811000D02*
X158740000Y-73811000D01*
X156660000Y-73811000D02*
X154231000Y-73811000D01*
X161144000Y-73851000D02*
X158740000Y-73851000D01*
X156660000Y-73851000D02*
X154256000Y-73851000D01*
X161118000Y-73891000D02*
X158740000Y-73891000D01*
X156660000Y-73891000D02*
X154282000Y-73891000D01*
X161092000Y-73931000D02*
X158740000Y-73931000D01*
X156660000Y-73931000D02*
X154308000Y-73931000D01*
X161065000Y-73971000D02*
X158740000Y-73971000D01*
X156660000Y-73971000D02*
X154335000Y-73971000D01*
X161038000Y-74011000D02*
X158740000Y-74011000D01*
X156660000Y-74011000D02*
X154362000Y-74011000D01*
X161009000Y-74051000D02*
X158740000Y-74051000D01*
X156660000Y-74051000D02*
X154391000Y-74051000D01*
X160980000Y-74091000D02*
X158740000Y-74091000D01*
X156660000Y-74091000D02*
X154420000Y-74091000D01*
X160950000Y-74131000D02*
X158740000Y-74131000D01*
X156660000Y-74131000D02*
X154450000Y-74131000D01*
X160920000Y-74171000D02*
X158740000Y-74171000D01*
X156660000Y-74171000D02*
X154480000Y-74171000D01*
X160889000Y-74211000D02*
X158740000Y-74211000D01*
X156660000Y-74211000D02*
X154511000Y-74211000D01*
X160856000Y-74251000D02*
X158740000Y-74251000D01*
X156660000Y-74251000D02*
X154544000Y-74251000D01*
X160824000Y-74291000D02*
X158740000Y-74291000D01*
X156660000Y-74291000D02*
X154576000Y-74291000D01*
X160790000Y-74331000D02*
X158740000Y-74331000D01*
X156660000Y-74331000D02*
X154610000Y-74331000D01*
X160755000Y-74371000D02*
X158740000Y-74371000D01*
X156660000Y-74371000D02*
X154645000Y-74371000D01*
X160719000Y-74411000D02*
X158740000Y-74411000D01*
X156660000Y-74411000D02*
X154681000Y-74411000D01*
X160683000Y-74451000D02*
X154717000Y-74451000D01*
X160645000Y-74491000D02*
X154755000Y-74491000D01*
X160607000Y-74531000D02*
X154793000Y-74531000D01*
X160567000Y-74571000D02*
X154833000Y-74571000D01*
X160526000Y-74611000D02*
X154874000Y-74611000D01*
X160484000Y-74651000D02*
X154916000Y-74651000D01*
X160441000Y-74691000D02*
X154959000Y-74691000D01*
X160397000Y-74731000D02*
X155003000Y-74731000D01*
X160351000Y-74771000D02*
X155049000Y-74771000D01*
X160304000Y-74811000D02*
X155096000Y-74811000D01*
X160256000Y-74851000D02*
X155144000Y-74851000D01*
X160205000Y-74891000D02*
X155195000Y-74891000D01*
X160154000Y-74931000D02*
X155246000Y-74931000D01*
X160100000Y-74971000D02*
X155300000Y-74971000D01*
X160045000Y-75011000D02*
X155355000Y-75011000D01*
X159987000Y-75051000D02*
X155413000Y-75051000D01*
X159928000Y-75091000D02*
X155472000Y-75091000D01*
X159866000Y-75131000D02*
X155534000Y-75131000D01*
X159802000Y-75171000D02*
X155598000Y-75171000D01*
X159734000Y-75211000D02*
X155666000Y-75211000D01*
X159664000Y-75251000D02*
X155736000Y-75251000D01*
X159590000Y-75291000D02*
X155810000Y-75291000D01*
X159513000Y-75331000D02*
X155887000Y-75331000D01*
X159431000Y-75371000D02*
X155969000Y-75371000D01*
X159345000Y-75411000D02*
X156055000Y-75411000D01*
X159252000Y-75451000D02*
X156148000Y-75451000D01*
X159153000Y-75491000D02*
X156247000Y-75491000D01*
X159046000Y-75531000D02*
X156354000Y-75531000D01*
X158929000Y-75571000D02*
X156471000Y-75571000D01*
X158798000Y-75611000D02*
X156602000Y-75611000D01*
X158648000Y-75651000D02*
X156752000Y-75651000D01*
X158468000Y-75691000D02*
X156932000Y-75691000D01*
X158233000Y-75731000D02*
X157167000Y-75731000D01*
X161820000Y-71650000D02*
G75*
G02*
X153580000Y-71650000I-4120000J0D01*
G01*
X153580000Y-71650000D02*
G75*
G02*
X161820000Y-71650000I4120000J0D01*
G01*
X112075000Y-67954775D02*
X112575000Y-67954775D01*
X112325000Y-68204775D02*
X112325000Y-67704775D01*
X112740000Y-67795997D02*
G75*
G02*
X112740000Y-63004003I1060001J2395997D01*
G01*
X114860000Y-63004003D02*
G75*
G02*
X114860000Y-67795997I-1060001J-2395997D01*
G01*
D11*
X207500000Y-75620000D02*
X151300000Y-75620000D01*
X151300000Y-110820000D01*
X207500000Y-110820000D01*
X207500000Y-75620000D01*
X154400000Y-108120000D02*
G75*
G02*
X152400000Y-108120000I-1000000J0D01*
G01*
X152400000Y-108120000D02*
G75*
G02*
X154400000Y-108120000I1000000J0D01*
G01*
X154500000Y-78120000D02*
G75*
G02*
X152500000Y-78120000I-1000000J0D01*
G01*
X152500000Y-78120000D02*
G75*
G02*
X154500000Y-78120000I1000000J0D01*
G01*
X206400000Y-78120000D02*
G75*
G02*
X204400000Y-78120000I-1000000J0D01*
G01*
X204400000Y-78120000D02*
G75*
G02*
X206400000Y-78120000I1000000J0D01*
G01*
X206400000Y-108320000D02*
G75*
G02*
X204400000Y-108320000I-1000000J0D01*
G01*
X204400000Y-108320000D02*
G75*
G02*
X206400000Y-108320000I1000000J0D01*
G01*
D12*
X148375000Y-99295225D02*
X148375000Y-99795225D01*
X148625000Y-99545225D02*
X148125000Y-99545225D01*
X145840000Y-104495997D02*
G75*
G02*
X145840000Y-99704003I1060001J2395997D01*
G01*
X147960000Y-99704003D02*
G75*
G02*
X147960000Y-104495997I-1060001J-2395997D01*
G01*
X140770000Y-63730000D02*
X142100000Y-63730000D01*
X140770000Y-65060000D02*
X140770000Y-63730000D01*
X140770000Y-66330000D02*
X140770000Y-71470000D01*
X140770000Y-66330000D02*
X143430000Y-66330000D01*
X140770000Y-71470000D02*
X143430000Y-71470000D01*
X143430000Y-66330000D02*
X143430000Y-71470000D01*
X174730000Y-98030000D02*
X174730000Y-103370000D01*
X174730000Y-103370000D02*
X178070000Y-103370000D01*
X176400000Y-96740000D02*
X176400000Y-98030000D01*
X176400000Y-104660000D02*
X176400000Y-103370000D01*
X178070000Y-98030000D02*
X174730000Y-98030000D01*
X178070000Y-103370000D02*
X178070000Y-98030000D01*
X107895225Y-122925000D02*
X108395225Y-122925000D01*
X108145225Y-122675000D02*
X108145225Y-123175000D01*
X108304003Y-123340000D02*
G75*
G02*
X113095997Y-123340000I2395997J-1060001D01*
G01*
X113095997Y-125460000D02*
G75*
G02*
X108304003Y-125460000I-2395997J1060001D01*
G01*
X152795000Y-85595000D02*
X152795000Y-103435000D01*
X152795000Y-85595000D02*
X155455000Y-85595000D01*
X152795000Y-103435000D02*
X155455000Y-103435000D01*
X154125000Y-82995000D02*
X155455000Y-82995000D01*
X155455000Y-82995000D02*
X155455000Y-84325000D01*
X155455000Y-85595000D02*
X155455000Y-103435000D01*
X225550000Y-89100000D02*
X226150000Y-89100000D01*
X225850000Y-89400000D02*
X225550000Y-89100000D01*
X226150000Y-89100000D02*
X225850000Y-89400000D01*
X227250000Y-87300000D02*
X227250000Y-99100000D01*
X231350000Y-87300000D02*
X227250000Y-87300000D01*
X231350000Y-99100000D02*
X227250000Y-99100000D01*
X232850000Y-93200000D02*
X233850000Y-93200000D01*
X233350000Y-92700000D02*
X233350000Y-93700000D01*
X235350000Y-87300000D02*
X239450000Y-87300000D01*
X239450000Y-87300000D02*
X239450000Y-89700000D01*
X239450000Y-91900000D02*
X239450000Y-94500000D01*
X239450000Y-96700000D02*
X239450000Y-99100000D01*
X239450000Y-99100000D02*
X235350000Y-99100000D01*
X236350000Y-93200000D02*
G75*
G02*
X230350000Y-93200000I-3000000J0D01*
G01*
X230350000Y-93200000D02*
G75*
G02*
X236350000Y-93200000I3000000J0D01*
G01*
X152950000Y-123610000D02*
X152950000Y-125110000D01*
X154200000Y-127610000D02*
X158700000Y-127610000D01*
X158700000Y-121110000D02*
X154200000Y-121110000D01*
X159950000Y-125110000D02*
X159950000Y-123610000D01*
X183980000Y-123700000D02*
X183980000Y-125200000D01*
X185230000Y-127700000D02*
X189730000Y-127700000D01*
X189730000Y-121200000D02*
X185230000Y-121200000D01*
X190980000Y-125200000D02*
X190980000Y-123700000D01*
X185490000Y-70920000D02*
X193330000Y-70920000D01*
X185490000Y-71400000D02*
X185490000Y-70920000D01*
X185490000Y-74280000D02*
X185490000Y-74760000D01*
X185490000Y-74760000D02*
X193330000Y-74760000D01*
X186630000Y-70920000D02*
X186630000Y-74760000D01*
X186750000Y-70920000D02*
X186750000Y-74760000D01*
X186870000Y-70920000D02*
X186870000Y-74760000D01*
X193330000Y-70920000D02*
X193330000Y-71400000D01*
X193330000Y-74760000D02*
X193330000Y-74280000D01*
X159175000Y-62295225D02*
X159175000Y-62795225D01*
X159425000Y-62545225D02*
X158925000Y-62545225D01*
X156640000Y-67495997D02*
G75*
G02*
X156640000Y-62704003I1060001J2395997D01*
G01*
X158760000Y-62704003D02*
G75*
G02*
X158760000Y-67495997I-1060001J-2395997D01*
G01*
X227040000Y-65680000D02*
X227040000Y-73400000D01*
X227040000Y-73400000D02*
X231060000Y-73400000D01*
X227540000Y-66180000D02*
X228750000Y-66180000D01*
X227540000Y-72900000D02*
X227540000Y-66180000D01*
X228750000Y-66180000D02*
X228750000Y-65680000D01*
X228750000Y-72900000D02*
X227540000Y-72900000D01*
X228750000Y-73400000D02*
X228750000Y-72900000D01*
X228860000Y-73700000D02*
X231360000Y-73700000D01*
X229560000Y-65680000D02*
X229560000Y-66680000D01*
X229560000Y-66680000D02*
X231060000Y-66680000D01*
X229560000Y-72400000D02*
X231060000Y-72400000D01*
X229560000Y-73400000D02*
X229560000Y-72400000D01*
X231060000Y-65680000D02*
X227040000Y-65680000D01*
X231060000Y-73400000D02*
X231060000Y-65680000D01*
X231360000Y-73700000D02*
X231360000Y-71200000D01*
X145230000Y-86230000D02*
X145230000Y-92770000D01*
X145230000Y-92770000D02*
X147970000Y-92770000D01*
X146600000Y-85460000D02*
X146600000Y-86230000D01*
X146600000Y-93540000D02*
X146600000Y-92770000D01*
X147970000Y-86230000D02*
X145230000Y-86230000D01*
X147970000Y-92770000D02*
X147970000Y-86230000D01*
X168450000Y-123670000D02*
X168450000Y-125170000D01*
X169700000Y-127670000D02*
X174200000Y-127670000D01*
X174200000Y-121170000D02*
X169700000Y-121170000D01*
X175450000Y-125170000D02*
X175450000Y-123670000D01*
X164090000Y-90670000D02*
X164860000Y-90670000D01*
X164860000Y-89300000D02*
X164860000Y-92040000D01*
X164860000Y-92040000D02*
X171400000Y-92040000D01*
X171400000Y-89300000D02*
X164860000Y-89300000D01*
X171400000Y-92040000D02*
X171400000Y-89300000D01*
X172170000Y-90670000D02*
X171400000Y-90670000D01*
X185490000Y-64050000D02*
X185490000Y-68070000D01*
X185490000Y-65550000D02*
X186490000Y-65550000D01*
X185490000Y-68070000D02*
X193210000Y-68070000D01*
X185990000Y-66360000D02*
X185490000Y-66360000D01*
X185990000Y-67570000D02*
X185990000Y-66360000D01*
X186490000Y-65550000D02*
X186490000Y-64050000D01*
X192210000Y-65550000D02*
X192210000Y-64050000D01*
X192710000Y-66360000D02*
X192710000Y-67570000D01*
X192710000Y-67570000D02*
X185990000Y-67570000D01*
X193210000Y-64050000D02*
X185490000Y-64050000D01*
X193210000Y-65550000D02*
X192210000Y-65550000D01*
X193210000Y-66360000D02*
X192710000Y-66360000D01*
X193210000Y-68070000D02*
X193210000Y-64050000D01*
X193510000Y-63750000D02*
X191010000Y-63750000D01*
X193510000Y-66250000D02*
X193510000Y-63750000D01*
X214175000Y-74295225D02*
X214175000Y-74795225D01*
X214425000Y-74545225D02*
X213925000Y-74545225D01*
X211640000Y-79495997D02*
G75*
G02*
X211640000Y-74704003I1060001J2395997D01*
G01*
X213760000Y-74704003D02*
G75*
G02*
X213760000Y-79495997I-1060001J-2395997D01*
G01*
X135675000Y-97954775D02*
X136175000Y-97954775D01*
X135925000Y-98204775D02*
X135925000Y-97704775D01*
X136340000Y-97795997D02*
G75*
G02*
X136340000Y-93004003I1060001J2395997D01*
G01*
X138460000Y-93004003D02*
G75*
G02*
X138460000Y-97795997I-1060001J-2395997D01*
G01*
X174730000Y-83050000D02*
X174730000Y-88390000D01*
X174730000Y-88390000D02*
X178070000Y-88390000D01*
X176400000Y-81760000D02*
X176400000Y-83050000D01*
X176400000Y-89680000D02*
X176400000Y-88390000D01*
X178070000Y-83050000D02*
X174730000Y-83050000D01*
X178070000Y-88390000D02*
X178070000Y-83050000D01*
X148385000Y-108465225D02*
X148385000Y-108965225D01*
X148635000Y-108715225D02*
X148135000Y-108715225D01*
X145850000Y-113665997D02*
G75*
G02*
X145850000Y-108874003I1060001J2395997D01*
G01*
X147970000Y-108874003D02*
G75*
G02*
X147970000Y-113665997I-1060001J-2395997D01*
G01*
X164080000Y-95700000D02*
X164850000Y-95700000D01*
X164850000Y-94330000D02*
X164850000Y-97070000D01*
X164850000Y-97070000D02*
X171390000Y-97070000D01*
X171390000Y-94330000D02*
X164850000Y-94330000D01*
X171390000Y-97070000D02*
X171390000Y-94330000D01*
X172160000Y-95700000D02*
X171390000Y-95700000D01*
X199540000Y-123670000D02*
X199540000Y-125170000D01*
X200790000Y-127670000D02*
X205290000Y-127670000D01*
X205290000Y-121170000D02*
X200790000Y-121170000D01*
X206540000Y-125170000D02*
X206540000Y-123670000D01*
%LPC*%
D13*
X199600000Y-72400000D03*
D14*
X199600000Y-68900000D03*
D13*
X157700000Y-69900000D03*
D14*
X157700000Y-73400000D03*
D13*
X113800000Y-67900000D03*
D14*
X113800000Y-62900000D03*
D15*
X154100000Y-84300000D03*
X154100000Y-86840000D03*
X154100000Y-89380000D03*
X154100000Y-91920000D03*
X154100000Y-94460000D03*
X154100000Y-97000000D03*
X154100000Y-99540000D03*
X154100000Y-102080000D03*
D13*
X146900000Y-99600000D03*
D14*
X146900000Y-104600000D03*
D16*
X142100000Y-65060000D03*
D17*
X142100000Y-67600000D03*
X142100000Y-70140000D03*
D18*
X239000000Y-129000000D03*
D14*
X176400000Y-95700000D03*
D19*
X176400000Y-105700000D03*
D13*
X108200000Y-124400000D03*
D14*
X113200000Y-124400000D03*
D18*
X102000000Y-66000000D03*
D20*
X177950000Y-67810000D03*
D16*
X154125000Y-84325000D03*
D17*
X154125000Y-86865000D03*
X154125000Y-89405000D03*
X154125000Y-91945000D03*
X154125000Y-94485000D03*
X154125000Y-97025000D03*
X154125000Y-99565000D03*
X154125000Y-102105000D03*
D21*
X225850000Y-90700000D03*
D22*
X225850000Y-95700000D03*
X225850000Y-93200000D03*
D23*
X233350000Y-87600000D03*
X233350000Y-98800000D03*
D22*
X240350000Y-95700000D03*
X240350000Y-90700000D03*
X159700000Y-126610000D03*
X153200000Y-126610000D03*
X159700000Y-122110000D03*
X153200000Y-122110000D03*
X190730000Y-126700000D03*
X184230000Y-126700000D03*
X190730000Y-122200000D03*
X184230000Y-122200000D03*
D24*
X184330000Y-72840000D03*
D25*
X194490000Y-72840000D03*
D13*
X157700000Y-62600000D03*
D14*
X157700000Y-67600000D03*
D26*
X228750000Y-70790000D03*
D27*
X228750000Y-68290000D03*
D14*
X146600000Y-94580000D03*
D19*
X146600000Y-84420000D03*
D22*
X175200000Y-126670000D03*
X168700000Y-126670000D03*
X175200000Y-122170000D03*
X168700000Y-122170000D03*
D14*
X163050000Y-90670000D03*
D19*
X173210000Y-90670000D03*
D28*
X190600000Y-66360000D03*
D29*
X188100000Y-66360000D03*
D20*
X219150000Y-67830000D03*
D13*
X212700000Y-74600000D03*
D14*
X212700000Y-79600000D03*
D18*
X203000000Y-80100000D03*
D13*
X137400000Y-97900000D03*
D14*
X137400000Y-92900000D03*
D18*
X239000000Y-66000000D03*
D14*
X176400000Y-80720000D03*
D19*
X176400000Y-90720000D03*
D18*
X102000000Y-129000000D03*
D13*
X146910000Y-108770000D03*
D14*
X146910000Y-113770000D03*
X173200000Y-95700000D03*
D19*
X163040000Y-95700000D03*
D18*
X202900000Y-106700000D03*
D22*
X206290000Y-126670000D03*
X199790000Y-126670000D03*
X206290000Y-122170000D03*
X199790000Y-122170000D03*
D30*
X104200000Y-116703440D03*
D31*
X104200000Y-114163440D03*
X104200000Y-111623440D03*
X104200000Y-109083440D03*
X104200000Y-106543440D03*
X104200000Y-104003440D03*
X104200000Y-101463440D03*
X104200000Y-98923440D03*
X104200000Y-96383440D03*
X104200000Y-93843440D03*
X104200000Y-91303440D03*
X104200000Y-88763440D03*
X104200000Y-86223440D03*
X104200000Y-83683440D03*
X104200000Y-81143440D03*
X104200000Y-78603440D03*
X104200000Y-76063440D03*
X104200000Y-73523440D03*
X104200000Y-70983440D03*
X129596320Y-70986160D03*
X129596320Y-73526160D03*
X129600000Y-76063440D03*
X129600000Y-78603440D03*
X129600000Y-81143440D03*
X129600000Y-83683440D03*
X129600000Y-86223440D03*
X129600000Y-88763440D03*
X129600000Y-91303440D03*
X129600000Y-93843440D03*
X129600000Y-96383440D03*
X129600000Y-98923440D03*
X129600000Y-101463440D03*
X129600000Y-104003440D03*
X129600000Y-106543440D03*
X129600000Y-109083440D03*
X129600000Y-111623440D03*
X129600000Y-114163440D03*
X129600000Y-116703440D03*
D32*
X177950000Y-67770000D03*
D33*
X162150000Y-70310000D03*
D34*
X162150000Y-67770000D03*
X162150000Y-65230000D03*
D32*
X219130000Y-67860000D03*
D33*
X203330000Y-70400000D03*
D34*
X203330000Y-67860000D03*
X203330000Y-65320000D03*
D35*
X136700000Y-102350000D03*
D36*
X136700000Y-104850000D03*
X136700000Y-107350000D03*
X136700000Y-109850000D03*
%LPD*%
M02*
