M48
; DRILL file {KiCad 8.0.2} date 2024-05-25T11:53:31+0200
; FORMAT={-:-/ absolute / metric / decimal}
; #@! TF.CreationDate,2024-05-25T11:53:31+02:00
; #@! TF.GenerationSoftware,Kicad,Pcbnew,8.0.2
; #@! TF.FileFunction,Plated,1,2,PTH
FMAT,2
METRIC
; #@! TA.AperFunction,Plated,PTH,ComponentDrill
T1C0.762
; #@! TA.AperFunction,Plated,PTH,ComponentDrill
T2C0.800
; #@! TA.AperFunction,Plated,PTH,ComponentDrill
T3C0.950
; #@! TA.AperFunction,Plated,PTH,ComponentDrill
T4C1.000
; #@! TA.AperFunction,Plated,PTH,ComponentDrill
T5C1.100
; #@! TA.AperFunction,Plated,PTH,ComponentDrill
T6C1.200
; #@! TA.AperFunction,Plated,PTH,ComponentDrill
T7C1.500
; #@! TA.AperFunction,Plated,PTH,ComponentDrill
T8C2.500
; #@! TA.AperFunction,Plated,PTH,ComponentDrill
T9C3.500
%
G90
G05
T1
X154.1Y-84.3
X154.1Y-86.84
X154.1Y-89.38
X154.1Y-91.92
X154.1Y-94.46
X154.1Y-97.0
X154.1Y-99.54
X154.1Y-102.08
T2
X104.2Y-70.983
X104.2Y-73.523
X104.2Y-76.063
X104.2Y-78.603
X104.2Y-81.143
X104.2Y-83.683
X104.2Y-86.223
X104.2Y-88.763
X104.2Y-91.303
X104.2Y-93.843
X104.2Y-96.383
X104.2Y-98.923
X104.2Y-101.463
X104.2Y-104.003
X104.2Y-106.543
X104.2Y-109.083
X104.2Y-111.623
X104.2Y-114.163
X104.2Y-116.703
X108.2Y-124.4
X113.2Y-124.4
X113.8Y-62.9
X113.8Y-67.9
X129.596Y-70.986
X129.596Y-73.526
X129.6Y-76.063
X129.6Y-78.603
X129.6Y-81.143
X129.6Y-83.683
X129.6Y-86.223
X129.6Y-88.763
X129.6Y-91.303
X129.6Y-93.843
X129.6Y-96.383
X129.6Y-98.923
X129.6Y-101.463
X129.6Y-104.003
X129.6Y-106.543
X129.6Y-109.083
X129.6Y-111.623
X129.6Y-114.163
X129.6Y-116.703
X137.4Y-92.9
X137.4Y-97.9
X146.6Y-84.42
X146.6Y-94.58
X146.9Y-99.6
X146.9Y-104.6
X146.91Y-108.77
X146.91Y-113.77
X157.7Y-62.6
X157.7Y-67.6
X157.7Y-69.9
X157.7Y-73.4
X163.04Y-95.7
X163.05Y-90.67
X173.2Y-95.7
X173.21Y-90.67
X176.4Y-80.72
X176.4Y-90.72
X176.4Y-95.7
X176.4Y-105.7
X199.6Y-68.9
X199.6Y-72.4
X212.7Y-74.6
X212.7Y-79.6
T3
X136.7Y-102.35
X136.7Y-104.85
X136.7Y-107.35
X136.7Y-109.85
T4
X142.1Y-65.06
X142.1Y-67.6
X142.1Y-70.14
X154.125Y-84.325
X154.125Y-86.865
X154.125Y-89.405
X154.125Y-91.945
X154.125Y-94.485
X154.125Y-97.025
X154.125Y-99.565
X154.125Y-102.105
X188.1Y-66.36
X190.6Y-66.36
X225.85Y-90.7
X225.85Y-93.2
X225.85Y-95.7
X228.75Y-68.29
X228.75Y-70.79
X240.35Y-90.7
X240.35Y-95.7
T5
X153.2Y-122.11
X153.2Y-126.61
X159.7Y-122.11
X159.7Y-126.61
X168.7Y-122.17
X168.7Y-126.67
X175.2Y-122.17
X175.2Y-126.67
X184.23Y-122.2
X184.23Y-126.7
X190.73Y-122.2
X190.73Y-126.7
X199.79Y-122.17
X199.79Y-126.67
X206.29Y-122.17
X206.29Y-126.67
T6
X162.15Y-65.23
X162.15Y-67.77
X162.15Y-70.31
X184.33Y-72.84
X194.49Y-72.84
X203.33Y-65.32
X203.33Y-67.86
X203.33Y-70.4
T8
X102.0Y-66.0
X102.0Y-129.0
X202.9Y-106.7
X203.0Y-80.1
X239.0Y-66.0
X239.0Y-129.0
T9
X177.95Y-67.81
X219.15Y-67.83
T7
X232.7Y-87.6G85X234.0Y-87.6
G05
X232.7Y-98.8G85X234.0Y-98.8
G05
M30
