%TF.GenerationSoftware,KiCad,Pcbnew,7.0.9*%
%TF.CreationDate,2023-11-29T12:33:46+01:00*%
%TF.ProjectId,Zabezpieczenie UPC1237,5a616265-7a70-4696-9563-7a656e696520,rev?*%
%TF.SameCoordinates,Original*%
%TF.FileFunction,Drillmap*%
%TF.FilePolarity,Positive*%
%FSLAX45Y45*%
G04 Gerber Fmt 4.5, Leading zero omitted, Abs format (unit mm)*
G04 Created by KiCad (PCBNEW 7.0.9) date 2023-11-29 12:33:46*
%MOMM*%
%LPD*%
G01*
G04 APERTURE LIST*
%ADD10C,0.100000*%
%ADD11C,0.200000*%
G04 APERTURE END LIST*
D10*
X9800000Y-9670000D02*
X17300000Y-9670000D01*
X17300000Y-14420000D01*
X9800000Y-14420000D01*
X9800000Y-9670000D01*
D11*
X10055777Y-14736484D02*
X10055777Y-14536484D01*
X10055777Y-14536484D02*
X10103396Y-14536484D01*
X10103396Y-14536484D02*
X10131967Y-14546008D01*
X10131967Y-14546008D02*
X10151015Y-14565055D01*
X10151015Y-14565055D02*
X10160539Y-14584103D01*
X10160539Y-14584103D02*
X10170063Y-14622198D01*
X10170063Y-14622198D02*
X10170063Y-14650769D01*
X10170063Y-14650769D02*
X10160539Y-14688865D01*
X10160539Y-14688865D02*
X10151015Y-14707912D01*
X10151015Y-14707912D02*
X10131967Y-14726960D01*
X10131967Y-14726960D02*
X10103396Y-14736484D01*
X10103396Y-14736484D02*
X10055777Y-14736484D01*
X10255777Y-14736484D02*
X10255777Y-14603150D01*
X10255777Y-14641246D02*
X10265301Y-14622198D01*
X10265301Y-14622198D02*
X10274824Y-14612674D01*
X10274824Y-14612674D02*
X10293872Y-14603150D01*
X10293872Y-14603150D02*
X10312920Y-14603150D01*
X10379586Y-14736484D02*
X10379586Y-14603150D01*
X10379586Y-14536484D02*
X10370063Y-14546008D01*
X10370063Y-14546008D02*
X10379586Y-14555531D01*
X10379586Y-14555531D02*
X10389110Y-14546008D01*
X10389110Y-14546008D02*
X10379586Y-14536484D01*
X10379586Y-14536484D02*
X10379586Y-14555531D01*
X10503396Y-14736484D02*
X10484348Y-14726960D01*
X10484348Y-14726960D02*
X10474824Y-14707912D01*
X10474824Y-14707912D02*
X10474824Y-14536484D01*
X10608158Y-14736484D02*
X10589110Y-14726960D01*
X10589110Y-14726960D02*
X10579586Y-14707912D01*
X10579586Y-14707912D02*
X10579586Y-14536484D01*
X10836729Y-14736484D02*
X10836729Y-14536484D01*
X10836729Y-14536484D02*
X10903396Y-14679341D01*
X10903396Y-14679341D02*
X10970063Y-14536484D01*
X10970063Y-14536484D02*
X10970063Y-14736484D01*
X11151015Y-14736484D02*
X11151015Y-14631722D01*
X11151015Y-14631722D02*
X11141491Y-14612674D01*
X11141491Y-14612674D02*
X11122444Y-14603150D01*
X11122444Y-14603150D02*
X11084348Y-14603150D01*
X11084348Y-14603150D02*
X11065301Y-14612674D01*
X11151015Y-14726960D02*
X11131967Y-14736484D01*
X11131967Y-14736484D02*
X11084348Y-14736484D01*
X11084348Y-14736484D02*
X11065301Y-14726960D01*
X11065301Y-14726960D02*
X11055777Y-14707912D01*
X11055777Y-14707912D02*
X11055777Y-14688865D01*
X11055777Y-14688865D02*
X11065301Y-14669817D01*
X11065301Y-14669817D02*
X11084348Y-14660293D01*
X11084348Y-14660293D02*
X11131967Y-14660293D01*
X11131967Y-14660293D02*
X11151015Y-14650769D01*
X11246253Y-14603150D02*
X11246253Y-14803150D01*
X11246253Y-14612674D02*
X11265301Y-14603150D01*
X11265301Y-14603150D02*
X11303396Y-14603150D01*
X11303396Y-14603150D02*
X11322443Y-14612674D01*
X11322443Y-14612674D02*
X11331967Y-14622198D01*
X11331967Y-14622198D02*
X11341491Y-14641246D01*
X11341491Y-14641246D02*
X11341491Y-14698388D01*
X11341491Y-14698388D02*
X11331967Y-14717436D01*
X11331967Y-14717436D02*
X11322443Y-14726960D01*
X11322443Y-14726960D02*
X11303396Y-14736484D01*
X11303396Y-14736484D02*
X11265301Y-14736484D01*
X11265301Y-14736484D02*
X11246253Y-14726960D01*
X11427205Y-14717436D02*
X11436729Y-14726960D01*
X11436729Y-14726960D02*
X11427205Y-14736484D01*
X11427205Y-14736484D02*
X11417682Y-14726960D01*
X11417682Y-14726960D02*
X11427205Y-14717436D01*
X11427205Y-14717436D02*
X11427205Y-14736484D01*
X11427205Y-14612674D02*
X11436729Y-14622198D01*
X11436729Y-14622198D02*
X11427205Y-14631722D01*
X11427205Y-14631722D02*
X11417682Y-14622198D01*
X11417682Y-14622198D02*
X11427205Y-14612674D01*
X11427205Y-14612674D02*
X11427205Y-14631722D01*
M02*
