%TF.GenerationSoftware,KiCad,Pcbnew,7.0.9*%
%TF.CreationDate,2023-11-29T12:33:44+01:00*%
%TF.ProjectId,Zabezpieczenie UPC1237,5a616265-7a70-4696-9563-7a656e696520,rev?*%
%TF.SameCoordinates,Original*%
%TF.FileFunction,Legend,Bot*%
%TF.FilePolarity,Positive*%
%FSLAX46Y46*%
G04 Gerber Fmt 4.6, Leading zero omitted, Abs format (unit mm)*
G04 Created by KiCad (PCBNEW 7.0.9) date 2023-11-29 12:33:44*
%MOMM*%
%LPD*%
G01*
G04 APERTURE LIST*
%ADD10C,0.200000*%
%ADD11C,0.150000*%
%ADD12C,0.120000*%
G04 APERTURE END LIST*
D10*
X129577945Y-142781504D02*
X129101755Y-142781504D01*
X129673183Y-143067219D02*
X129339850Y-142067219D01*
X129339850Y-142067219D02*
X129006517Y-143067219D01*
X128101755Y-142971980D02*
X128149374Y-143019600D01*
X128149374Y-143019600D02*
X128292231Y-143067219D01*
X128292231Y-143067219D02*
X128387469Y-143067219D01*
X128387469Y-143067219D02*
X128530326Y-143019600D01*
X128530326Y-143019600D02*
X128625564Y-142924361D01*
X128625564Y-142924361D02*
X128673183Y-142829123D01*
X128673183Y-142829123D02*
X128720802Y-142638647D01*
X128720802Y-142638647D02*
X128720802Y-142495790D01*
X128720802Y-142495790D02*
X128673183Y-142305314D01*
X128673183Y-142305314D02*
X128625564Y-142210076D01*
X128625564Y-142210076D02*
X128530326Y-142114838D01*
X128530326Y-142114838D02*
X128387469Y-142067219D01*
X128387469Y-142067219D02*
X128292231Y-142067219D01*
X128292231Y-142067219D02*
X128149374Y-142114838D01*
X128149374Y-142114838D02*
X128101755Y-142162457D01*
X127911279Y-143162457D02*
X127149374Y-143162457D01*
X126911278Y-143067219D02*
X126911278Y-142067219D01*
X126435088Y-143067219D02*
X126435088Y-142067219D01*
X126435088Y-142067219D02*
X125863660Y-143067219D01*
X125863660Y-143067219D02*
X125863660Y-142067219D01*
D11*
X104895238Y-136150057D02*
X104990476Y-136102438D01*
X104990476Y-136102438D02*
X105085714Y-136007200D01*
X105085714Y-136007200D02*
X105228571Y-135864342D01*
X105228571Y-135864342D02*
X105323809Y-135816723D01*
X105323809Y-135816723D02*
X105419047Y-135816723D01*
X105371428Y-136054819D02*
X105466666Y-136007200D01*
X105466666Y-136007200D02*
X105561904Y-135911961D01*
X105561904Y-135911961D02*
X105609523Y-135721485D01*
X105609523Y-135721485D02*
X105609523Y-135388152D01*
X105609523Y-135388152D02*
X105561904Y-135197676D01*
X105561904Y-135197676D02*
X105466666Y-135102438D01*
X105466666Y-135102438D02*
X105371428Y-135054819D01*
X105371428Y-135054819D02*
X105180952Y-135054819D01*
X105180952Y-135054819D02*
X105085714Y-135102438D01*
X105085714Y-135102438D02*
X104990476Y-135197676D01*
X104990476Y-135197676D02*
X104942857Y-135388152D01*
X104942857Y-135388152D02*
X104942857Y-135721485D01*
X104942857Y-135721485D02*
X104990476Y-135911961D01*
X104990476Y-135911961D02*
X105085714Y-136007200D01*
X105085714Y-136007200D02*
X105180952Y-136054819D01*
X105180952Y-136054819D02*
X105371428Y-136054819D01*
X104561904Y-135150057D02*
X104514285Y-135102438D01*
X104514285Y-135102438D02*
X104419047Y-135054819D01*
X104419047Y-135054819D02*
X104180952Y-135054819D01*
X104180952Y-135054819D02*
X104085714Y-135102438D01*
X104085714Y-135102438D02*
X104038095Y-135150057D01*
X104038095Y-135150057D02*
X103990476Y-135245295D01*
X103990476Y-135245295D02*
X103990476Y-135340533D01*
X103990476Y-135340533D02*
X104038095Y-135483390D01*
X104038095Y-135483390D02*
X104609523Y-136054819D01*
X104609523Y-136054819D02*
X103990476Y-136054819D01*
X117359580Y-119857142D02*
X117407200Y-119809523D01*
X117407200Y-119809523D02*
X117454819Y-119666666D01*
X117454819Y-119666666D02*
X117454819Y-119571428D01*
X117454819Y-119571428D02*
X117407200Y-119428571D01*
X117407200Y-119428571D02*
X117311961Y-119333333D01*
X117311961Y-119333333D02*
X117216723Y-119285714D01*
X117216723Y-119285714D02*
X117026247Y-119238095D01*
X117026247Y-119238095D02*
X116883390Y-119238095D01*
X116883390Y-119238095D02*
X116692914Y-119285714D01*
X116692914Y-119285714D02*
X116597676Y-119333333D01*
X116597676Y-119333333D02*
X116502438Y-119428571D01*
X116502438Y-119428571D02*
X116454819Y-119571428D01*
X116454819Y-119571428D02*
X116454819Y-119666666D01*
X116454819Y-119666666D02*
X116502438Y-119809523D01*
X116502438Y-119809523D02*
X116550057Y-119857142D01*
X117454819Y-120809523D02*
X117454819Y-120238095D01*
X117454819Y-120523809D02*
X116454819Y-120523809D01*
X116454819Y-120523809D02*
X116597676Y-120428571D01*
X116597676Y-120428571D02*
X116692914Y-120333333D01*
X116692914Y-120333333D02*
X116740533Y-120238095D01*
X117454819Y-121761904D02*
X117454819Y-121190476D01*
X117454819Y-121476190D02*
X116454819Y-121476190D01*
X116454819Y-121476190D02*
X116597676Y-121380952D01*
X116597676Y-121380952D02*
X116692914Y-121285714D01*
X116692914Y-121285714D02*
X116740533Y-121190476D01*
X108350057Y-123104761D02*
X108302438Y-123009523D01*
X108302438Y-123009523D02*
X108207200Y-122914285D01*
X108207200Y-122914285D02*
X108064342Y-122771428D01*
X108064342Y-122771428D02*
X108016723Y-122676190D01*
X108016723Y-122676190D02*
X108016723Y-122580952D01*
X108254819Y-122628571D02*
X108207200Y-122533333D01*
X108207200Y-122533333D02*
X108111961Y-122438095D01*
X108111961Y-122438095D02*
X107921485Y-122390476D01*
X107921485Y-122390476D02*
X107588152Y-122390476D01*
X107588152Y-122390476D02*
X107397676Y-122438095D01*
X107397676Y-122438095D02*
X107302438Y-122533333D01*
X107302438Y-122533333D02*
X107254819Y-122628571D01*
X107254819Y-122628571D02*
X107254819Y-122819047D01*
X107254819Y-122819047D02*
X107302438Y-122914285D01*
X107302438Y-122914285D02*
X107397676Y-123009523D01*
X107397676Y-123009523D02*
X107588152Y-123057142D01*
X107588152Y-123057142D02*
X107921485Y-123057142D01*
X107921485Y-123057142D02*
X108111961Y-123009523D01*
X108111961Y-123009523D02*
X108207200Y-122914285D01*
X108207200Y-122914285D02*
X108254819Y-122819047D01*
X108254819Y-122819047D02*
X108254819Y-122628571D01*
X108254819Y-124009523D02*
X108254819Y-123438095D01*
X108254819Y-123723809D02*
X107254819Y-123723809D01*
X107254819Y-123723809D02*
X107397676Y-123628571D01*
X107397676Y-123628571D02*
X107492914Y-123533333D01*
X107492914Y-123533333D02*
X107540533Y-123438095D01*
X137844819Y-109833333D02*
X137368628Y-109500000D01*
X137844819Y-109261905D02*
X136844819Y-109261905D01*
X136844819Y-109261905D02*
X136844819Y-109642857D01*
X136844819Y-109642857D02*
X136892438Y-109738095D01*
X136892438Y-109738095D02*
X136940057Y-109785714D01*
X136940057Y-109785714D02*
X137035295Y-109833333D01*
X137035295Y-109833333D02*
X137178152Y-109833333D01*
X137178152Y-109833333D02*
X137273390Y-109785714D01*
X137273390Y-109785714D02*
X137321009Y-109738095D01*
X137321009Y-109738095D02*
X137368628Y-109642857D01*
X137368628Y-109642857D02*
X137368628Y-109261905D01*
X137844819Y-110785714D02*
X137844819Y-110214286D01*
X137844819Y-110500000D02*
X136844819Y-110500000D01*
X136844819Y-110500000D02*
X136987676Y-110404762D01*
X136987676Y-110404762D02*
X137082914Y-110309524D01*
X137082914Y-110309524D02*
X137130533Y-110214286D01*
X133509580Y-127633333D02*
X133557200Y-127585714D01*
X133557200Y-127585714D02*
X133604819Y-127442857D01*
X133604819Y-127442857D02*
X133604819Y-127347619D01*
X133604819Y-127347619D02*
X133557200Y-127204762D01*
X133557200Y-127204762D02*
X133461961Y-127109524D01*
X133461961Y-127109524D02*
X133366723Y-127061905D01*
X133366723Y-127061905D02*
X133176247Y-127014286D01*
X133176247Y-127014286D02*
X133033390Y-127014286D01*
X133033390Y-127014286D02*
X132842914Y-127061905D01*
X132842914Y-127061905D02*
X132747676Y-127109524D01*
X132747676Y-127109524D02*
X132652438Y-127204762D01*
X132652438Y-127204762D02*
X132604819Y-127347619D01*
X132604819Y-127347619D02*
X132604819Y-127442857D01*
X132604819Y-127442857D02*
X132652438Y-127585714D01*
X132652438Y-127585714D02*
X132700057Y-127633333D01*
X133033390Y-128204762D02*
X132985771Y-128109524D01*
X132985771Y-128109524D02*
X132938152Y-128061905D01*
X132938152Y-128061905D02*
X132842914Y-128014286D01*
X132842914Y-128014286D02*
X132795295Y-128014286D01*
X132795295Y-128014286D02*
X132700057Y-128061905D01*
X132700057Y-128061905D02*
X132652438Y-128109524D01*
X132652438Y-128109524D02*
X132604819Y-128204762D01*
X132604819Y-128204762D02*
X132604819Y-128395238D01*
X132604819Y-128395238D02*
X132652438Y-128490476D01*
X132652438Y-128490476D02*
X132700057Y-128538095D01*
X132700057Y-128538095D02*
X132795295Y-128585714D01*
X132795295Y-128585714D02*
X132842914Y-128585714D01*
X132842914Y-128585714D02*
X132938152Y-128538095D01*
X132938152Y-128538095D02*
X132985771Y-128490476D01*
X132985771Y-128490476D02*
X133033390Y-128395238D01*
X133033390Y-128395238D02*
X133033390Y-128204762D01*
X133033390Y-128204762D02*
X133081009Y-128109524D01*
X133081009Y-128109524D02*
X133128628Y-128061905D01*
X133128628Y-128061905D02*
X133223866Y-128014286D01*
X133223866Y-128014286D02*
X133414342Y-128014286D01*
X133414342Y-128014286D02*
X133509580Y-128061905D01*
X133509580Y-128061905D02*
X133557200Y-128109524D01*
X133557200Y-128109524D02*
X133604819Y-128204762D01*
X133604819Y-128204762D02*
X133604819Y-128395238D01*
X133604819Y-128395238D02*
X133557200Y-128490476D01*
X133557200Y-128490476D02*
X133509580Y-128538095D01*
X133509580Y-128538095D02*
X133414342Y-128585714D01*
X133414342Y-128585714D02*
X133223866Y-128585714D01*
X133223866Y-128585714D02*
X133128628Y-128538095D01*
X133128628Y-128538095D02*
X133081009Y-128490476D01*
X133081009Y-128490476D02*
X133033390Y-128395238D01*
X151642857Y-133634819D02*
X151976190Y-133158628D01*
X152214285Y-133634819D02*
X152214285Y-132634819D01*
X152214285Y-132634819D02*
X151833333Y-132634819D01*
X151833333Y-132634819D02*
X151738095Y-132682438D01*
X151738095Y-132682438D02*
X151690476Y-132730057D01*
X151690476Y-132730057D02*
X151642857Y-132825295D01*
X151642857Y-132825295D02*
X151642857Y-132968152D01*
X151642857Y-132968152D02*
X151690476Y-133063390D01*
X151690476Y-133063390D02*
X151738095Y-133111009D01*
X151738095Y-133111009D02*
X151833333Y-133158628D01*
X151833333Y-133158628D02*
X152214285Y-133158628D01*
X151261904Y-132730057D02*
X151214285Y-132682438D01*
X151214285Y-132682438D02*
X151119047Y-132634819D01*
X151119047Y-132634819D02*
X150880952Y-132634819D01*
X150880952Y-132634819D02*
X150785714Y-132682438D01*
X150785714Y-132682438D02*
X150738095Y-132730057D01*
X150738095Y-132730057D02*
X150690476Y-132825295D01*
X150690476Y-132825295D02*
X150690476Y-132920533D01*
X150690476Y-132920533D02*
X150738095Y-133063390D01*
X150738095Y-133063390D02*
X151309523Y-133634819D01*
X151309523Y-133634819D02*
X150690476Y-133634819D01*
X150071428Y-132634819D02*
X149976190Y-132634819D01*
X149976190Y-132634819D02*
X149880952Y-132682438D01*
X149880952Y-132682438D02*
X149833333Y-132730057D01*
X149833333Y-132730057D02*
X149785714Y-132825295D01*
X149785714Y-132825295D02*
X149738095Y-133015771D01*
X149738095Y-133015771D02*
X149738095Y-133253866D01*
X149738095Y-133253866D02*
X149785714Y-133444342D01*
X149785714Y-133444342D02*
X149833333Y-133539580D01*
X149833333Y-133539580D02*
X149880952Y-133587200D01*
X149880952Y-133587200D02*
X149976190Y-133634819D01*
X149976190Y-133634819D02*
X150071428Y-133634819D01*
X150071428Y-133634819D02*
X150166666Y-133587200D01*
X150166666Y-133587200D02*
X150214285Y-133539580D01*
X150214285Y-133539580D02*
X150261904Y-133444342D01*
X150261904Y-133444342D02*
X150309523Y-133253866D01*
X150309523Y-133253866D02*
X150309523Y-133015771D01*
X150309523Y-133015771D02*
X150261904Y-132825295D01*
X150261904Y-132825295D02*
X150214285Y-132730057D01*
X150214285Y-132730057D02*
X150166666Y-132682438D01*
X150166666Y-132682438D02*
X150071428Y-132634819D01*
X102666666Y-119754819D02*
X102999999Y-119278628D01*
X103238094Y-119754819D02*
X103238094Y-118754819D01*
X103238094Y-118754819D02*
X102857142Y-118754819D01*
X102857142Y-118754819D02*
X102761904Y-118802438D01*
X102761904Y-118802438D02*
X102714285Y-118850057D01*
X102714285Y-118850057D02*
X102666666Y-118945295D01*
X102666666Y-118945295D02*
X102666666Y-119088152D01*
X102666666Y-119088152D02*
X102714285Y-119183390D01*
X102714285Y-119183390D02*
X102761904Y-119231009D01*
X102761904Y-119231009D02*
X102857142Y-119278628D01*
X102857142Y-119278628D02*
X103238094Y-119278628D01*
X102095237Y-119183390D02*
X102190475Y-119135771D01*
X102190475Y-119135771D02*
X102238094Y-119088152D01*
X102238094Y-119088152D02*
X102285713Y-118992914D01*
X102285713Y-118992914D02*
X102285713Y-118945295D01*
X102285713Y-118945295D02*
X102238094Y-118850057D01*
X102238094Y-118850057D02*
X102190475Y-118802438D01*
X102190475Y-118802438D02*
X102095237Y-118754819D01*
X102095237Y-118754819D02*
X101904761Y-118754819D01*
X101904761Y-118754819D02*
X101809523Y-118802438D01*
X101809523Y-118802438D02*
X101761904Y-118850057D01*
X101761904Y-118850057D02*
X101714285Y-118945295D01*
X101714285Y-118945295D02*
X101714285Y-118992914D01*
X101714285Y-118992914D02*
X101761904Y-119088152D01*
X101761904Y-119088152D02*
X101809523Y-119135771D01*
X101809523Y-119135771D02*
X101904761Y-119183390D01*
X101904761Y-119183390D02*
X102095237Y-119183390D01*
X102095237Y-119183390D02*
X102190475Y-119231009D01*
X102190475Y-119231009D02*
X102238094Y-119278628D01*
X102238094Y-119278628D02*
X102285713Y-119373866D01*
X102285713Y-119373866D02*
X102285713Y-119564342D01*
X102285713Y-119564342D02*
X102238094Y-119659580D01*
X102238094Y-119659580D02*
X102190475Y-119707200D01*
X102190475Y-119707200D02*
X102095237Y-119754819D01*
X102095237Y-119754819D02*
X101904761Y-119754819D01*
X101904761Y-119754819D02*
X101809523Y-119707200D01*
X101809523Y-119707200D02*
X101761904Y-119659580D01*
X101761904Y-119659580D02*
X101714285Y-119564342D01*
X101714285Y-119564342D02*
X101714285Y-119373866D01*
X101714285Y-119373866D02*
X101761904Y-119278628D01*
X101761904Y-119278628D02*
X101809523Y-119231009D01*
X101809523Y-119231009D02*
X101904761Y-119183390D01*
X144842857Y-133359580D02*
X144890476Y-133407200D01*
X144890476Y-133407200D02*
X145033333Y-133454819D01*
X145033333Y-133454819D02*
X145128571Y-133454819D01*
X145128571Y-133454819D02*
X145271428Y-133407200D01*
X145271428Y-133407200D02*
X145366666Y-133311961D01*
X145366666Y-133311961D02*
X145414285Y-133216723D01*
X145414285Y-133216723D02*
X145461904Y-133026247D01*
X145461904Y-133026247D02*
X145461904Y-132883390D01*
X145461904Y-132883390D02*
X145414285Y-132692914D01*
X145414285Y-132692914D02*
X145366666Y-132597676D01*
X145366666Y-132597676D02*
X145271428Y-132502438D01*
X145271428Y-132502438D02*
X145128571Y-132454819D01*
X145128571Y-132454819D02*
X145033333Y-132454819D01*
X145033333Y-132454819D02*
X144890476Y-132502438D01*
X144890476Y-132502438D02*
X144842857Y-132550057D01*
X143890476Y-133454819D02*
X144461904Y-133454819D01*
X144176190Y-133454819D02*
X144176190Y-132454819D01*
X144176190Y-132454819D02*
X144271428Y-132597676D01*
X144271428Y-132597676D02*
X144366666Y-132692914D01*
X144366666Y-132692914D02*
X144461904Y-132740533D01*
X143271428Y-132454819D02*
X143176190Y-132454819D01*
X143176190Y-132454819D02*
X143080952Y-132502438D01*
X143080952Y-132502438D02*
X143033333Y-132550057D01*
X143033333Y-132550057D02*
X142985714Y-132645295D01*
X142985714Y-132645295D02*
X142938095Y-132835771D01*
X142938095Y-132835771D02*
X142938095Y-133073866D01*
X142938095Y-133073866D02*
X142985714Y-133264342D01*
X142985714Y-133264342D02*
X143033333Y-133359580D01*
X143033333Y-133359580D02*
X143080952Y-133407200D01*
X143080952Y-133407200D02*
X143176190Y-133454819D01*
X143176190Y-133454819D02*
X143271428Y-133454819D01*
X143271428Y-133454819D02*
X143366666Y-133407200D01*
X143366666Y-133407200D02*
X143414285Y-133359580D01*
X143414285Y-133359580D02*
X143461904Y-133264342D01*
X143461904Y-133264342D02*
X143509523Y-133073866D01*
X143509523Y-133073866D02*
X143509523Y-132835771D01*
X143509523Y-132835771D02*
X143461904Y-132645295D01*
X143461904Y-132645295D02*
X143414285Y-132550057D01*
X143414285Y-132550057D02*
X143366666Y-132502438D01*
X143366666Y-132502438D02*
X143271428Y-132454819D01*
X116642857Y-126354819D02*
X116976190Y-125878628D01*
X117214285Y-126354819D02*
X117214285Y-125354819D01*
X117214285Y-125354819D02*
X116833333Y-125354819D01*
X116833333Y-125354819D02*
X116738095Y-125402438D01*
X116738095Y-125402438D02*
X116690476Y-125450057D01*
X116690476Y-125450057D02*
X116642857Y-125545295D01*
X116642857Y-125545295D02*
X116642857Y-125688152D01*
X116642857Y-125688152D02*
X116690476Y-125783390D01*
X116690476Y-125783390D02*
X116738095Y-125831009D01*
X116738095Y-125831009D02*
X116833333Y-125878628D01*
X116833333Y-125878628D02*
X117214285Y-125878628D01*
X115690476Y-126354819D02*
X116261904Y-126354819D01*
X115976190Y-126354819D02*
X115976190Y-125354819D01*
X115976190Y-125354819D02*
X116071428Y-125497676D01*
X116071428Y-125497676D02*
X116166666Y-125592914D01*
X116166666Y-125592914D02*
X116261904Y-125640533D01*
X115119047Y-125783390D02*
X115214285Y-125735771D01*
X115214285Y-125735771D02*
X115261904Y-125688152D01*
X115261904Y-125688152D02*
X115309523Y-125592914D01*
X115309523Y-125592914D02*
X115309523Y-125545295D01*
X115309523Y-125545295D02*
X115261904Y-125450057D01*
X115261904Y-125450057D02*
X115214285Y-125402438D01*
X115214285Y-125402438D02*
X115119047Y-125354819D01*
X115119047Y-125354819D02*
X114928571Y-125354819D01*
X114928571Y-125354819D02*
X114833333Y-125402438D01*
X114833333Y-125402438D02*
X114785714Y-125450057D01*
X114785714Y-125450057D02*
X114738095Y-125545295D01*
X114738095Y-125545295D02*
X114738095Y-125592914D01*
X114738095Y-125592914D02*
X114785714Y-125688152D01*
X114785714Y-125688152D02*
X114833333Y-125735771D01*
X114833333Y-125735771D02*
X114928571Y-125783390D01*
X114928571Y-125783390D02*
X115119047Y-125783390D01*
X115119047Y-125783390D02*
X115214285Y-125831009D01*
X115214285Y-125831009D02*
X115261904Y-125878628D01*
X115261904Y-125878628D02*
X115309523Y-125973866D01*
X115309523Y-125973866D02*
X115309523Y-126164342D01*
X115309523Y-126164342D02*
X115261904Y-126259580D01*
X115261904Y-126259580D02*
X115214285Y-126307200D01*
X115214285Y-126307200D02*
X115119047Y-126354819D01*
X115119047Y-126354819D02*
X114928571Y-126354819D01*
X114928571Y-126354819D02*
X114833333Y-126307200D01*
X114833333Y-126307200D02*
X114785714Y-126259580D01*
X114785714Y-126259580D02*
X114738095Y-126164342D01*
X114738095Y-126164342D02*
X114738095Y-125973866D01*
X114738095Y-125973866D02*
X114785714Y-125878628D01*
X114785714Y-125878628D02*
X114833333Y-125831009D01*
X114833333Y-125831009D02*
X114928571Y-125783390D01*
X133342857Y-110054819D02*
X133676190Y-109578628D01*
X133914285Y-110054819D02*
X133914285Y-109054819D01*
X133914285Y-109054819D02*
X133533333Y-109054819D01*
X133533333Y-109054819D02*
X133438095Y-109102438D01*
X133438095Y-109102438D02*
X133390476Y-109150057D01*
X133390476Y-109150057D02*
X133342857Y-109245295D01*
X133342857Y-109245295D02*
X133342857Y-109388152D01*
X133342857Y-109388152D02*
X133390476Y-109483390D01*
X133390476Y-109483390D02*
X133438095Y-109531009D01*
X133438095Y-109531009D02*
X133533333Y-109578628D01*
X133533333Y-109578628D02*
X133914285Y-109578628D01*
X132961904Y-109150057D02*
X132914285Y-109102438D01*
X132914285Y-109102438D02*
X132819047Y-109054819D01*
X132819047Y-109054819D02*
X132580952Y-109054819D01*
X132580952Y-109054819D02*
X132485714Y-109102438D01*
X132485714Y-109102438D02*
X132438095Y-109150057D01*
X132438095Y-109150057D02*
X132390476Y-109245295D01*
X132390476Y-109245295D02*
X132390476Y-109340533D01*
X132390476Y-109340533D02*
X132438095Y-109483390D01*
X132438095Y-109483390D02*
X133009523Y-110054819D01*
X133009523Y-110054819D02*
X132390476Y-110054819D01*
X131533333Y-109388152D02*
X131533333Y-110054819D01*
X131771428Y-109007200D02*
X132009523Y-109721485D01*
X132009523Y-109721485D02*
X131390476Y-109721485D01*
X134954819Y-133157142D02*
X134478628Y-132823809D01*
X134954819Y-132585714D02*
X133954819Y-132585714D01*
X133954819Y-132585714D02*
X133954819Y-132966666D01*
X133954819Y-132966666D02*
X134002438Y-133061904D01*
X134002438Y-133061904D02*
X134050057Y-133109523D01*
X134050057Y-133109523D02*
X134145295Y-133157142D01*
X134145295Y-133157142D02*
X134288152Y-133157142D01*
X134288152Y-133157142D02*
X134383390Y-133109523D01*
X134383390Y-133109523D02*
X134431009Y-133061904D01*
X134431009Y-133061904D02*
X134478628Y-132966666D01*
X134478628Y-132966666D02*
X134478628Y-132585714D01*
X134954819Y-134109523D02*
X134954819Y-133538095D01*
X134954819Y-133823809D02*
X133954819Y-133823809D01*
X133954819Y-133823809D02*
X134097676Y-133728571D01*
X134097676Y-133728571D02*
X134192914Y-133633333D01*
X134192914Y-133633333D02*
X134240533Y-133538095D01*
X134954819Y-134585714D02*
X134954819Y-134776190D01*
X134954819Y-134776190D02*
X134907200Y-134871428D01*
X134907200Y-134871428D02*
X134859580Y-134919047D01*
X134859580Y-134919047D02*
X134716723Y-135014285D01*
X134716723Y-135014285D02*
X134526247Y-135061904D01*
X134526247Y-135061904D02*
X134145295Y-135061904D01*
X134145295Y-135061904D02*
X134050057Y-135014285D01*
X134050057Y-135014285D02*
X134002438Y-134966666D01*
X134002438Y-134966666D02*
X133954819Y-134871428D01*
X133954819Y-134871428D02*
X133954819Y-134680952D01*
X133954819Y-134680952D02*
X134002438Y-134585714D01*
X134002438Y-134585714D02*
X134050057Y-134538095D01*
X134050057Y-134538095D02*
X134145295Y-134490476D01*
X134145295Y-134490476D02*
X134383390Y-134490476D01*
X134383390Y-134490476D02*
X134478628Y-134538095D01*
X134478628Y-134538095D02*
X134526247Y-134585714D01*
X134526247Y-134585714D02*
X134573866Y-134680952D01*
X134573866Y-134680952D02*
X134573866Y-134871428D01*
X134573866Y-134871428D02*
X134526247Y-134966666D01*
X134526247Y-134966666D02*
X134478628Y-135014285D01*
X134478628Y-135014285D02*
X134383390Y-135061904D01*
X109654819Y-135357142D02*
X109178628Y-135023809D01*
X109654819Y-134785714D02*
X108654819Y-134785714D01*
X108654819Y-134785714D02*
X108654819Y-135166666D01*
X108654819Y-135166666D02*
X108702438Y-135261904D01*
X108702438Y-135261904D02*
X108750057Y-135309523D01*
X108750057Y-135309523D02*
X108845295Y-135357142D01*
X108845295Y-135357142D02*
X108988152Y-135357142D01*
X108988152Y-135357142D02*
X109083390Y-135309523D01*
X109083390Y-135309523D02*
X109131009Y-135261904D01*
X109131009Y-135261904D02*
X109178628Y-135166666D01*
X109178628Y-135166666D02*
X109178628Y-134785714D01*
X109654819Y-136309523D02*
X109654819Y-135738095D01*
X109654819Y-136023809D02*
X108654819Y-136023809D01*
X108654819Y-136023809D02*
X108797676Y-135928571D01*
X108797676Y-135928571D02*
X108892914Y-135833333D01*
X108892914Y-135833333D02*
X108940533Y-135738095D01*
X108988152Y-137166666D02*
X109654819Y-137166666D01*
X108607200Y-136928571D02*
X109321485Y-136690476D01*
X109321485Y-136690476D02*
X109321485Y-137309523D01*
X145542857Y-142654819D02*
X145876190Y-142178628D01*
X146114285Y-142654819D02*
X146114285Y-141654819D01*
X146114285Y-141654819D02*
X145733333Y-141654819D01*
X145733333Y-141654819D02*
X145638095Y-141702438D01*
X145638095Y-141702438D02*
X145590476Y-141750057D01*
X145590476Y-141750057D02*
X145542857Y-141845295D01*
X145542857Y-141845295D02*
X145542857Y-141988152D01*
X145542857Y-141988152D02*
X145590476Y-142083390D01*
X145590476Y-142083390D02*
X145638095Y-142131009D01*
X145638095Y-142131009D02*
X145733333Y-142178628D01*
X145733333Y-142178628D02*
X146114285Y-142178628D01*
X145161904Y-141750057D02*
X145114285Y-141702438D01*
X145114285Y-141702438D02*
X145019047Y-141654819D01*
X145019047Y-141654819D02*
X144780952Y-141654819D01*
X144780952Y-141654819D02*
X144685714Y-141702438D01*
X144685714Y-141702438D02*
X144638095Y-141750057D01*
X144638095Y-141750057D02*
X144590476Y-141845295D01*
X144590476Y-141845295D02*
X144590476Y-141940533D01*
X144590476Y-141940533D02*
X144638095Y-142083390D01*
X144638095Y-142083390D02*
X145209523Y-142654819D01*
X145209523Y-142654819D02*
X144590476Y-142654819D01*
X143638095Y-142654819D02*
X144209523Y-142654819D01*
X143923809Y-142654819D02*
X143923809Y-141654819D01*
X143923809Y-141654819D02*
X144019047Y-141797676D01*
X144019047Y-141797676D02*
X144114285Y-141892914D01*
X144114285Y-141892914D02*
X144209523Y-141940533D01*
X129854819Y-102557142D02*
X129378628Y-102223809D01*
X129854819Y-101985714D02*
X128854819Y-101985714D01*
X128854819Y-101985714D02*
X128854819Y-102366666D01*
X128854819Y-102366666D02*
X128902438Y-102461904D01*
X128902438Y-102461904D02*
X128950057Y-102509523D01*
X128950057Y-102509523D02*
X129045295Y-102557142D01*
X129045295Y-102557142D02*
X129188152Y-102557142D01*
X129188152Y-102557142D02*
X129283390Y-102509523D01*
X129283390Y-102509523D02*
X129331009Y-102461904D01*
X129331009Y-102461904D02*
X129378628Y-102366666D01*
X129378628Y-102366666D02*
X129378628Y-101985714D01*
X128950057Y-102938095D02*
X128902438Y-102985714D01*
X128902438Y-102985714D02*
X128854819Y-103080952D01*
X128854819Y-103080952D02*
X128854819Y-103319047D01*
X128854819Y-103319047D02*
X128902438Y-103414285D01*
X128902438Y-103414285D02*
X128950057Y-103461904D01*
X128950057Y-103461904D02*
X129045295Y-103509523D01*
X129045295Y-103509523D02*
X129140533Y-103509523D01*
X129140533Y-103509523D02*
X129283390Y-103461904D01*
X129283390Y-103461904D02*
X129854819Y-102890476D01*
X129854819Y-102890476D02*
X129854819Y-103509523D01*
X128854819Y-103842857D02*
X128854819Y-104461904D01*
X128854819Y-104461904D02*
X129235771Y-104128571D01*
X129235771Y-104128571D02*
X129235771Y-104271428D01*
X129235771Y-104271428D02*
X129283390Y-104366666D01*
X129283390Y-104366666D02*
X129331009Y-104414285D01*
X129331009Y-104414285D02*
X129426247Y-104461904D01*
X129426247Y-104461904D02*
X129664342Y-104461904D01*
X129664342Y-104461904D02*
X129759580Y-104414285D01*
X129759580Y-104414285D02*
X129807200Y-104366666D01*
X129807200Y-104366666D02*
X129854819Y-104271428D01*
X129854819Y-104271428D02*
X129854819Y-103985714D01*
X129854819Y-103985714D02*
X129807200Y-103890476D01*
X129807200Y-103890476D02*
X129759580Y-103842857D01*
X102666666Y-125954819D02*
X102999999Y-125478628D01*
X103238094Y-125954819D02*
X103238094Y-124954819D01*
X103238094Y-124954819D02*
X102857142Y-124954819D01*
X102857142Y-124954819D02*
X102761904Y-125002438D01*
X102761904Y-125002438D02*
X102714285Y-125050057D01*
X102714285Y-125050057D02*
X102666666Y-125145295D01*
X102666666Y-125145295D02*
X102666666Y-125288152D01*
X102666666Y-125288152D02*
X102714285Y-125383390D01*
X102714285Y-125383390D02*
X102761904Y-125431009D01*
X102761904Y-125431009D02*
X102857142Y-125478628D01*
X102857142Y-125478628D02*
X103238094Y-125478628D01*
X102190475Y-125954819D02*
X101999999Y-125954819D01*
X101999999Y-125954819D02*
X101904761Y-125907200D01*
X101904761Y-125907200D02*
X101857142Y-125859580D01*
X101857142Y-125859580D02*
X101761904Y-125716723D01*
X101761904Y-125716723D02*
X101714285Y-125526247D01*
X101714285Y-125526247D02*
X101714285Y-125145295D01*
X101714285Y-125145295D02*
X101761904Y-125050057D01*
X101761904Y-125050057D02*
X101809523Y-125002438D01*
X101809523Y-125002438D02*
X101904761Y-124954819D01*
X101904761Y-124954819D02*
X102095237Y-124954819D01*
X102095237Y-124954819D02*
X102190475Y-125002438D01*
X102190475Y-125002438D02*
X102238094Y-125050057D01*
X102238094Y-125050057D02*
X102285713Y-125145295D01*
X102285713Y-125145295D02*
X102285713Y-125383390D01*
X102285713Y-125383390D02*
X102238094Y-125478628D01*
X102238094Y-125478628D02*
X102190475Y-125526247D01*
X102190475Y-125526247D02*
X102095237Y-125573866D01*
X102095237Y-125573866D02*
X101904761Y-125573866D01*
X101904761Y-125573866D02*
X101809523Y-125526247D01*
X101809523Y-125526247D02*
X101761904Y-125478628D01*
X101761904Y-125478628D02*
X101714285Y-125383390D01*
X111274819Y-119057142D02*
X110798628Y-118723809D01*
X111274819Y-118485714D02*
X110274819Y-118485714D01*
X110274819Y-118485714D02*
X110274819Y-118866666D01*
X110274819Y-118866666D02*
X110322438Y-118961904D01*
X110322438Y-118961904D02*
X110370057Y-119009523D01*
X110370057Y-119009523D02*
X110465295Y-119057142D01*
X110465295Y-119057142D02*
X110608152Y-119057142D01*
X110608152Y-119057142D02*
X110703390Y-119009523D01*
X110703390Y-119009523D02*
X110751009Y-118961904D01*
X110751009Y-118961904D02*
X110798628Y-118866666D01*
X110798628Y-118866666D02*
X110798628Y-118485714D01*
X111274819Y-120009523D02*
X111274819Y-119438095D01*
X111274819Y-119723809D02*
X110274819Y-119723809D01*
X110274819Y-119723809D02*
X110417676Y-119628571D01*
X110417676Y-119628571D02*
X110512914Y-119533333D01*
X110512914Y-119533333D02*
X110560533Y-119438095D01*
X110370057Y-120390476D02*
X110322438Y-120438095D01*
X110322438Y-120438095D02*
X110274819Y-120533333D01*
X110274819Y-120533333D02*
X110274819Y-120771428D01*
X110274819Y-120771428D02*
X110322438Y-120866666D01*
X110322438Y-120866666D02*
X110370057Y-120914285D01*
X110370057Y-120914285D02*
X110465295Y-120961904D01*
X110465295Y-120961904D02*
X110560533Y-120961904D01*
X110560533Y-120961904D02*
X110703390Y-120914285D01*
X110703390Y-120914285D02*
X111274819Y-120342857D01*
X111274819Y-120342857D02*
X111274819Y-120961904D01*
X138450057Y-103604761D02*
X138402438Y-103509523D01*
X138402438Y-103509523D02*
X138307200Y-103414285D01*
X138307200Y-103414285D02*
X138164342Y-103271428D01*
X138164342Y-103271428D02*
X138116723Y-103176190D01*
X138116723Y-103176190D02*
X138116723Y-103080952D01*
X138354819Y-103128571D02*
X138307200Y-103033333D01*
X138307200Y-103033333D02*
X138211961Y-102938095D01*
X138211961Y-102938095D02*
X138021485Y-102890476D01*
X138021485Y-102890476D02*
X137688152Y-102890476D01*
X137688152Y-102890476D02*
X137497676Y-102938095D01*
X137497676Y-102938095D02*
X137402438Y-103033333D01*
X137402438Y-103033333D02*
X137354819Y-103128571D01*
X137354819Y-103128571D02*
X137354819Y-103319047D01*
X137354819Y-103319047D02*
X137402438Y-103414285D01*
X137402438Y-103414285D02*
X137497676Y-103509523D01*
X137497676Y-103509523D02*
X137688152Y-103557142D01*
X137688152Y-103557142D02*
X138021485Y-103557142D01*
X138021485Y-103557142D02*
X138211961Y-103509523D01*
X138211961Y-103509523D02*
X138307200Y-103414285D01*
X138307200Y-103414285D02*
X138354819Y-103319047D01*
X138354819Y-103319047D02*
X138354819Y-103128571D01*
X137688152Y-104414285D02*
X138354819Y-104414285D01*
X137307200Y-104176190D02*
X138021485Y-103938095D01*
X138021485Y-103938095D02*
X138021485Y-104557142D01*
X122359580Y-138733333D02*
X122407200Y-138685714D01*
X122407200Y-138685714D02*
X122454819Y-138542857D01*
X122454819Y-138542857D02*
X122454819Y-138447619D01*
X122454819Y-138447619D02*
X122407200Y-138304762D01*
X122407200Y-138304762D02*
X122311961Y-138209524D01*
X122311961Y-138209524D02*
X122216723Y-138161905D01*
X122216723Y-138161905D02*
X122026247Y-138114286D01*
X122026247Y-138114286D02*
X121883390Y-138114286D01*
X121883390Y-138114286D02*
X121692914Y-138161905D01*
X121692914Y-138161905D02*
X121597676Y-138209524D01*
X121597676Y-138209524D02*
X121502438Y-138304762D01*
X121502438Y-138304762D02*
X121454819Y-138447619D01*
X121454819Y-138447619D02*
X121454819Y-138542857D01*
X121454819Y-138542857D02*
X121502438Y-138685714D01*
X121502438Y-138685714D02*
X121550057Y-138733333D01*
X121454819Y-139590476D02*
X121454819Y-139400000D01*
X121454819Y-139400000D02*
X121502438Y-139304762D01*
X121502438Y-139304762D02*
X121550057Y-139257143D01*
X121550057Y-139257143D02*
X121692914Y-139161905D01*
X121692914Y-139161905D02*
X121883390Y-139114286D01*
X121883390Y-139114286D02*
X122264342Y-139114286D01*
X122264342Y-139114286D02*
X122359580Y-139161905D01*
X122359580Y-139161905D02*
X122407200Y-139209524D01*
X122407200Y-139209524D02*
X122454819Y-139304762D01*
X122454819Y-139304762D02*
X122454819Y-139495238D01*
X122454819Y-139495238D02*
X122407200Y-139590476D01*
X122407200Y-139590476D02*
X122359580Y-139638095D01*
X122359580Y-139638095D02*
X122264342Y-139685714D01*
X122264342Y-139685714D02*
X122026247Y-139685714D01*
X122026247Y-139685714D02*
X121931009Y-139638095D01*
X121931009Y-139638095D02*
X121883390Y-139590476D01*
X121883390Y-139590476D02*
X121835771Y-139495238D01*
X121835771Y-139495238D02*
X121835771Y-139304762D01*
X121835771Y-139304762D02*
X121883390Y-139209524D01*
X121883390Y-139209524D02*
X121931009Y-139161905D01*
X121931009Y-139161905D02*
X122026247Y-139114286D01*
X136834819Y-120733333D02*
X136358628Y-120400000D01*
X136834819Y-120161905D02*
X135834819Y-120161905D01*
X135834819Y-120161905D02*
X135834819Y-120542857D01*
X135834819Y-120542857D02*
X135882438Y-120638095D01*
X135882438Y-120638095D02*
X135930057Y-120685714D01*
X135930057Y-120685714D02*
X136025295Y-120733333D01*
X136025295Y-120733333D02*
X136168152Y-120733333D01*
X136168152Y-120733333D02*
X136263390Y-120685714D01*
X136263390Y-120685714D02*
X136311009Y-120638095D01*
X136311009Y-120638095D02*
X136358628Y-120542857D01*
X136358628Y-120542857D02*
X136358628Y-120161905D01*
X135930057Y-121114286D02*
X135882438Y-121161905D01*
X135882438Y-121161905D02*
X135834819Y-121257143D01*
X135834819Y-121257143D02*
X135834819Y-121495238D01*
X135834819Y-121495238D02*
X135882438Y-121590476D01*
X135882438Y-121590476D02*
X135930057Y-121638095D01*
X135930057Y-121638095D02*
X136025295Y-121685714D01*
X136025295Y-121685714D02*
X136120533Y-121685714D01*
X136120533Y-121685714D02*
X136263390Y-121638095D01*
X136263390Y-121638095D02*
X136834819Y-121066667D01*
X136834819Y-121066667D02*
X136834819Y-121685714D01*
X106734819Y-113457142D02*
X106258628Y-113123809D01*
X106734819Y-112885714D02*
X105734819Y-112885714D01*
X105734819Y-112885714D02*
X105734819Y-113266666D01*
X105734819Y-113266666D02*
X105782438Y-113361904D01*
X105782438Y-113361904D02*
X105830057Y-113409523D01*
X105830057Y-113409523D02*
X105925295Y-113457142D01*
X105925295Y-113457142D02*
X106068152Y-113457142D01*
X106068152Y-113457142D02*
X106163390Y-113409523D01*
X106163390Y-113409523D02*
X106211009Y-113361904D01*
X106211009Y-113361904D02*
X106258628Y-113266666D01*
X106258628Y-113266666D02*
X106258628Y-112885714D01*
X106734819Y-114409523D02*
X106734819Y-113838095D01*
X106734819Y-114123809D02*
X105734819Y-114123809D01*
X105734819Y-114123809D02*
X105877676Y-114028571D01*
X105877676Y-114028571D02*
X105972914Y-113933333D01*
X105972914Y-113933333D02*
X106020533Y-113838095D01*
X105734819Y-114742857D02*
X105734819Y-115361904D01*
X105734819Y-115361904D02*
X106115771Y-115028571D01*
X106115771Y-115028571D02*
X106115771Y-115171428D01*
X106115771Y-115171428D02*
X106163390Y-115266666D01*
X106163390Y-115266666D02*
X106211009Y-115314285D01*
X106211009Y-115314285D02*
X106306247Y-115361904D01*
X106306247Y-115361904D02*
X106544342Y-115361904D01*
X106544342Y-115361904D02*
X106639580Y-115314285D01*
X106639580Y-115314285D02*
X106687200Y-115266666D01*
X106687200Y-115266666D02*
X106734819Y-115171428D01*
X106734819Y-115171428D02*
X106734819Y-114885714D01*
X106734819Y-114885714D02*
X106687200Y-114790476D01*
X106687200Y-114790476D02*
X106639580Y-114742857D01*
X111654819Y-130033333D02*
X111178628Y-129700000D01*
X111654819Y-129461905D02*
X110654819Y-129461905D01*
X110654819Y-129461905D02*
X110654819Y-129842857D01*
X110654819Y-129842857D02*
X110702438Y-129938095D01*
X110702438Y-129938095D02*
X110750057Y-129985714D01*
X110750057Y-129985714D02*
X110845295Y-130033333D01*
X110845295Y-130033333D02*
X110988152Y-130033333D01*
X110988152Y-130033333D02*
X111083390Y-129985714D01*
X111083390Y-129985714D02*
X111131009Y-129938095D01*
X111131009Y-129938095D02*
X111178628Y-129842857D01*
X111178628Y-129842857D02*
X111178628Y-129461905D01*
X110654819Y-130366667D02*
X110654819Y-131033333D01*
X110654819Y-131033333D02*
X111654819Y-130604762D01*
X118154819Y-99557142D02*
X117678628Y-99223809D01*
X118154819Y-98985714D02*
X117154819Y-98985714D01*
X117154819Y-98985714D02*
X117154819Y-99366666D01*
X117154819Y-99366666D02*
X117202438Y-99461904D01*
X117202438Y-99461904D02*
X117250057Y-99509523D01*
X117250057Y-99509523D02*
X117345295Y-99557142D01*
X117345295Y-99557142D02*
X117488152Y-99557142D01*
X117488152Y-99557142D02*
X117583390Y-99509523D01*
X117583390Y-99509523D02*
X117631009Y-99461904D01*
X117631009Y-99461904D02*
X117678628Y-99366666D01*
X117678628Y-99366666D02*
X117678628Y-98985714D01*
X117250057Y-99938095D02*
X117202438Y-99985714D01*
X117202438Y-99985714D02*
X117154819Y-100080952D01*
X117154819Y-100080952D02*
X117154819Y-100319047D01*
X117154819Y-100319047D02*
X117202438Y-100414285D01*
X117202438Y-100414285D02*
X117250057Y-100461904D01*
X117250057Y-100461904D02*
X117345295Y-100509523D01*
X117345295Y-100509523D02*
X117440533Y-100509523D01*
X117440533Y-100509523D02*
X117583390Y-100461904D01*
X117583390Y-100461904D02*
X118154819Y-99890476D01*
X118154819Y-99890476D02*
X118154819Y-100509523D01*
X117154819Y-101414285D02*
X117154819Y-100938095D01*
X117154819Y-100938095D02*
X117631009Y-100890476D01*
X117631009Y-100890476D02*
X117583390Y-100938095D01*
X117583390Y-100938095D02*
X117535771Y-101033333D01*
X117535771Y-101033333D02*
X117535771Y-101271428D01*
X117535771Y-101271428D02*
X117583390Y-101366666D01*
X117583390Y-101366666D02*
X117631009Y-101414285D01*
X117631009Y-101414285D02*
X117726247Y-101461904D01*
X117726247Y-101461904D02*
X117964342Y-101461904D01*
X117964342Y-101461904D02*
X118059580Y-101414285D01*
X118059580Y-101414285D02*
X118107200Y-101366666D01*
X118107200Y-101366666D02*
X118154819Y-101271428D01*
X118154819Y-101271428D02*
X118154819Y-101033333D01*
X118154819Y-101033333D02*
X118107200Y-100938095D01*
X118107200Y-100938095D02*
X118059580Y-100890476D01*
X150095238Y-142050057D02*
X150190476Y-142002438D01*
X150190476Y-142002438D02*
X150285714Y-141907200D01*
X150285714Y-141907200D02*
X150428571Y-141764342D01*
X150428571Y-141764342D02*
X150523809Y-141716723D01*
X150523809Y-141716723D02*
X150619047Y-141716723D01*
X150571428Y-141954819D02*
X150666666Y-141907200D01*
X150666666Y-141907200D02*
X150761904Y-141811961D01*
X150761904Y-141811961D02*
X150809523Y-141621485D01*
X150809523Y-141621485D02*
X150809523Y-141288152D01*
X150809523Y-141288152D02*
X150761904Y-141097676D01*
X150761904Y-141097676D02*
X150666666Y-141002438D01*
X150666666Y-141002438D02*
X150571428Y-140954819D01*
X150571428Y-140954819D02*
X150380952Y-140954819D01*
X150380952Y-140954819D02*
X150285714Y-141002438D01*
X150285714Y-141002438D02*
X150190476Y-141097676D01*
X150190476Y-141097676D02*
X150142857Y-141288152D01*
X150142857Y-141288152D02*
X150142857Y-141621485D01*
X150142857Y-141621485D02*
X150190476Y-141811961D01*
X150190476Y-141811961D02*
X150285714Y-141907200D01*
X150285714Y-141907200D02*
X150380952Y-141954819D01*
X150380952Y-141954819D02*
X150571428Y-141954819D01*
X149809523Y-140954819D02*
X149190476Y-140954819D01*
X149190476Y-140954819D02*
X149523809Y-141335771D01*
X149523809Y-141335771D02*
X149380952Y-141335771D01*
X149380952Y-141335771D02*
X149285714Y-141383390D01*
X149285714Y-141383390D02*
X149238095Y-141431009D01*
X149238095Y-141431009D02*
X149190476Y-141526247D01*
X149190476Y-141526247D02*
X149190476Y-141764342D01*
X149190476Y-141764342D02*
X149238095Y-141859580D01*
X149238095Y-141859580D02*
X149285714Y-141907200D01*
X149285714Y-141907200D02*
X149380952Y-141954819D01*
X149380952Y-141954819D02*
X149666666Y-141954819D01*
X149666666Y-141954819D02*
X149761904Y-141907200D01*
X149761904Y-141907200D02*
X149809523Y-141859580D01*
X110842857Y-126554819D02*
X111176190Y-126078628D01*
X111414285Y-126554819D02*
X111414285Y-125554819D01*
X111414285Y-125554819D02*
X111033333Y-125554819D01*
X111033333Y-125554819D02*
X110938095Y-125602438D01*
X110938095Y-125602438D02*
X110890476Y-125650057D01*
X110890476Y-125650057D02*
X110842857Y-125745295D01*
X110842857Y-125745295D02*
X110842857Y-125888152D01*
X110842857Y-125888152D02*
X110890476Y-125983390D01*
X110890476Y-125983390D02*
X110938095Y-126031009D01*
X110938095Y-126031009D02*
X111033333Y-126078628D01*
X111033333Y-126078628D02*
X111414285Y-126078628D01*
X109890476Y-126554819D02*
X110461904Y-126554819D01*
X110176190Y-126554819D02*
X110176190Y-125554819D01*
X110176190Y-125554819D02*
X110271428Y-125697676D01*
X110271428Y-125697676D02*
X110366666Y-125792914D01*
X110366666Y-125792914D02*
X110461904Y-125840533D01*
X108985714Y-125554819D02*
X109461904Y-125554819D01*
X109461904Y-125554819D02*
X109509523Y-126031009D01*
X109509523Y-126031009D02*
X109461904Y-125983390D01*
X109461904Y-125983390D02*
X109366666Y-125935771D01*
X109366666Y-125935771D02*
X109128571Y-125935771D01*
X109128571Y-125935771D02*
X109033333Y-125983390D01*
X109033333Y-125983390D02*
X108985714Y-126031009D01*
X108985714Y-126031009D02*
X108938095Y-126126247D01*
X108938095Y-126126247D02*
X108938095Y-126364342D01*
X108938095Y-126364342D02*
X108985714Y-126459580D01*
X108985714Y-126459580D02*
X109033333Y-126507200D01*
X109033333Y-126507200D02*
X109128571Y-126554819D01*
X109128571Y-126554819D02*
X109366666Y-126554819D01*
X109366666Y-126554819D02*
X109461904Y-126507200D01*
X109461904Y-126507200D02*
X109509523Y-126459580D01*
X121054819Y-124133333D02*
X120578628Y-123800000D01*
X121054819Y-123561905D02*
X120054819Y-123561905D01*
X120054819Y-123561905D02*
X120054819Y-123942857D01*
X120054819Y-123942857D02*
X120102438Y-124038095D01*
X120102438Y-124038095D02*
X120150057Y-124085714D01*
X120150057Y-124085714D02*
X120245295Y-124133333D01*
X120245295Y-124133333D02*
X120388152Y-124133333D01*
X120388152Y-124133333D02*
X120483390Y-124085714D01*
X120483390Y-124085714D02*
X120531009Y-124038095D01*
X120531009Y-124038095D02*
X120578628Y-123942857D01*
X120578628Y-123942857D02*
X120578628Y-123561905D01*
X120054819Y-124466667D02*
X120054819Y-125085714D01*
X120054819Y-125085714D02*
X120435771Y-124752381D01*
X120435771Y-124752381D02*
X120435771Y-124895238D01*
X120435771Y-124895238D02*
X120483390Y-124990476D01*
X120483390Y-124990476D02*
X120531009Y-125038095D01*
X120531009Y-125038095D02*
X120626247Y-125085714D01*
X120626247Y-125085714D02*
X120864342Y-125085714D01*
X120864342Y-125085714D02*
X120959580Y-125038095D01*
X120959580Y-125038095D02*
X121007200Y-124990476D01*
X121007200Y-124990476D02*
X121054819Y-124895238D01*
X121054819Y-124895238D02*
X121054819Y-124609524D01*
X121054819Y-124609524D02*
X121007200Y-124514286D01*
X121007200Y-124514286D02*
X120959580Y-124466667D01*
X105742857Y-128354819D02*
X106076190Y-127878628D01*
X106314285Y-128354819D02*
X106314285Y-127354819D01*
X106314285Y-127354819D02*
X105933333Y-127354819D01*
X105933333Y-127354819D02*
X105838095Y-127402438D01*
X105838095Y-127402438D02*
X105790476Y-127450057D01*
X105790476Y-127450057D02*
X105742857Y-127545295D01*
X105742857Y-127545295D02*
X105742857Y-127688152D01*
X105742857Y-127688152D02*
X105790476Y-127783390D01*
X105790476Y-127783390D02*
X105838095Y-127831009D01*
X105838095Y-127831009D02*
X105933333Y-127878628D01*
X105933333Y-127878628D02*
X106314285Y-127878628D01*
X104790476Y-128354819D02*
X105361904Y-128354819D01*
X105076190Y-128354819D02*
X105076190Y-127354819D01*
X105076190Y-127354819D02*
X105171428Y-127497676D01*
X105171428Y-127497676D02*
X105266666Y-127592914D01*
X105266666Y-127592914D02*
X105361904Y-127640533D01*
X104171428Y-127354819D02*
X104076190Y-127354819D01*
X104076190Y-127354819D02*
X103980952Y-127402438D01*
X103980952Y-127402438D02*
X103933333Y-127450057D01*
X103933333Y-127450057D02*
X103885714Y-127545295D01*
X103885714Y-127545295D02*
X103838095Y-127735771D01*
X103838095Y-127735771D02*
X103838095Y-127973866D01*
X103838095Y-127973866D02*
X103885714Y-128164342D01*
X103885714Y-128164342D02*
X103933333Y-128259580D01*
X103933333Y-128259580D02*
X103980952Y-128307200D01*
X103980952Y-128307200D02*
X104076190Y-128354819D01*
X104076190Y-128354819D02*
X104171428Y-128354819D01*
X104171428Y-128354819D02*
X104266666Y-128307200D01*
X104266666Y-128307200D02*
X104314285Y-128259580D01*
X104314285Y-128259580D02*
X104361904Y-128164342D01*
X104361904Y-128164342D02*
X104409523Y-127973866D01*
X104409523Y-127973866D02*
X104409523Y-127735771D01*
X104409523Y-127735771D02*
X104361904Y-127545295D01*
X104361904Y-127545295D02*
X104314285Y-127450057D01*
X104314285Y-127450057D02*
X104266666Y-127402438D01*
X104266666Y-127402438D02*
X104171428Y-127354819D01*
D12*
%TO.C,Q2*%
X104240000Y-134480000D02*
X105700000Y-134480000D01*
X104240000Y-134480000D02*
X104240000Y-133550000D01*
X104240000Y-131320000D02*
X107400000Y-131320000D01*
X104240000Y-131320000D02*
X104240000Y-132250000D01*
%TO.C,C11*%
X114290000Y-120711252D02*
X114290000Y-119288748D01*
X116110000Y-120711252D02*
X116110000Y-119288748D01*
%TO.C,Q1*%
X103720000Y-120740000D02*
X103720000Y-122200000D01*
X103720000Y-120740000D02*
X104650000Y-120740000D01*
X106880000Y-120740000D02*
X106880000Y-123900000D01*
X106880000Y-120740000D02*
X105950000Y-120740000D01*
%TO.C,R1*%
X137390000Y-110727064D02*
X137390000Y-109272936D01*
X139210000Y-110727064D02*
X139210000Y-109272936D01*
%TO.C,C8*%
X130390000Y-128511252D02*
X130390000Y-127088748D01*
X132210000Y-128511252D02*
X132210000Y-127088748D01*
%TO.C,R20*%
X151727064Y-135910000D02*
X150272936Y-135910000D01*
X151727064Y-134090000D02*
X150272936Y-134090000D01*
%TO.C,R8*%
X103972936Y-116490000D02*
X105427064Y-116490000D01*
X103972936Y-118310000D02*
X105427064Y-118310000D01*
%TO.C,C10*%
X144288748Y-134090000D02*
X145711252Y-134090000D01*
X144288748Y-135910000D02*
X145711252Y-135910000D01*
%TO.C,R18*%
X114790000Y-129727064D02*
X114790000Y-128272936D01*
X116610000Y-129727064D02*
X116610000Y-128272936D01*
%TO.C,R24*%
X133172936Y-106790000D02*
X134627064Y-106790000D01*
X133172936Y-108610000D02*
X134627064Y-108610000D01*
%TO.C,R19*%
X137010000Y-134272936D02*
X137010000Y-135727064D01*
X135190000Y-134272936D02*
X135190000Y-135727064D01*
%TO.C,R14*%
X108090000Y-132627064D02*
X108090000Y-131172936D01*
X109910000Y-132627064D02*
X109910000Y-131172936D01*
%TO.C,R21*%
X145910000Y-138272936D02*
X145910000Y-139727064D01*
X144090000Y-138272936D02*
X144090000Y-139727064D01*
%TO.C,R23*%
X130690000Y-104627064D02*
X130690000Y-103172936D01*
X132510000Y-104627064D02*
X132510000Y-103172936D01*
%TO.C,R9*%
X105372936Y-124490000D02*
X106827064Y-124490000D01*
X105372936Y-126310000D02*
X106827064Y-126310000D01*
%TO.C,R12*%
X108090000Y-120427064D02*
X108090000Y-118972936D01*
X109910000Y-120427064D02*
X109910000Y-118972936D01*
%TO.C,Q4*%
X136910000Y-104437500D02*
X136910000Y-103787500D01*
X136910000Y-104437500D02*
X136910000Y-105087500D01*
X133790000Y-104437500D02*
X133790000Y-102762500D01*
X133790000Y-104437500D02*
X133790000Y-105087500D01*
%TO.C,C6*%
X121010000Y-138188748D02*
X121010000Y-139611252D01*
X119190000Y-138188748D02*
X119190000Y-139611252D01*
%TO.C,R2*%
X139110000Y-120172936D02*
X139110000Y-121627064D01*
X137290000Y-120172936D02*
X137290000Y-121627064D01*
%TO.C,R13*%
X109010000Y-113372936D02*
X109010000Y-114827064D01*
X107190000Y-113372936D02*
X107190000Y-114827064D01*
%TO.C,R7*%
X114110000Y-127372936D02*
X114110000Y-128827064D01*
X112290000Y-127372936D02*
X112290000Y-128827064D01*
%TO.C,R25*%
X118690000Y-101127064D02*
X118690000Y-99672936D01*
X120510000Y-101127064D02*
X120510000Y-99672936D01*
%TO.C,Q3*%
X150760000Y-137420000D02*
X149300000Y-137420000D01*
X150760000Y-137420000D02*
X150760000Y-138350000D01*
X150760000Y-140580000D02*
X147600000Y-140580000D01*
X150760000Y-140580000D02*
X150760000Y-139650000D01*
%TO.C,R15*%
X108972936Y-126890000D02*
X110427064Y-126890000D01*
X108972936Y-128710000D02*
X110427064Y-128710000D01*
%TO.C,R3*%
X123210000Y-122472936D02*
X123210000Y-123927064D01*
X121390000Y-122472936D02*
X121390000Y-123927064D01*
%TO.C,R10*%
X104072936Y-128790000D02*
X105527064Y-128790000D01*
X104072936Y-130610000D02*
X105527064Y-130610000D01*
%TD*%
M02*
