%TF.GenerationSoftware,KiCad,Pcbnew,7.0.9*%
%TF.CreationDate,2023-11-29T12:33:43+01:00*%
%TF.ProjectId,Zabezpieczenie UPC1237,5a616265-7a70-4696-9563-7a656e696520,rev?*%
%TF.SameCoordinates,Original*%
%TF.FileFunction,Copper,L1,Top*%
%TF.FilePolarity,Positive*%
%FSLAX46Y46*%
G04 Gerber Fmt 4.6, Leading zero omitted, Abs format (unit mm)*
G04 Created by KiCad (PCBNEW 7.0.9) date 2023-11-29 12:33:43*
%MOMM*%
%LPD*%
G01*
G04 APERTURE LIST*
G04 Aperture macros list*
%AMRoundRect*
0 Rectangle with rounded corners*
0 $1 Rounding radius*
0 $2 $3 $4 $5 $6 $7 $8 $9 X,Y pos of 4 corners*
0 Add a 4 corners polygon primitive as box body*
4,1,4,$2,$3,$4,$5,$6,$7,$8,$9,$2,$3,0*
0 Add four circle primitives for the rounded corners*
1,1,$1+$1,$2,$3*
1,1,$1+$1,$4,$5*
1,1,$1+$1,$6,$7*
1,1,$1+$1,$8,$9*
0 Add four rect primitives between the rounded corners*
20,1,$1+$1,$2,$3,$4,$5,0*
20,1,$1+$1,$4,$5,$6,$7,0*
20,1,$1+$1,$6,$7,$8,$9,0*
20,1,$1+$1,$8,$9,$2,$3,0*%
G04 Aperture macros list end*
%TA.AperFunction,ComponentPad*%
%ADD10O,1.400000X1.400000*%
%TD*%
%TA.AperFunction,ComponentPad*%
%ADD11C,1.400000*%
%TD*%
%TA.AperFunction,ComponentPad*%
%ADD12RoundRect,0.250000X-0.350000X-0.625000X0.350000X-0.625000X0.350000X0.625000X-0.350000X0.625000X0*%
%TD*%
%TA.AperFunction,ComponentPad*%
%ADD13O,1.200000X1.750000*%
%TD*%
%TA.AperFunction,ComponentPad*%
%ADD14R,1.600000X1.600000*%
%TD*%
%TA.AperFunction,ComponentPad*%
%ADD15C,1.600000*%
%TD*%
%TA.AperFunction,ComponentPad*%
%ADD16R,2.200000X2.200000*%
%TD*%
%TA.AperFunction,ComponentPad*%
%ADD17O,2.200000X2.200000*%
%TD*%
%TA.AperFunction,ComponentPad*%
%ADD18O,1.600000X1.600000*%
%TD*%
%TA.AperFunction,ComponentPad*%
%ADD19C,2.300000*%
%TD*%
%TA.AperFunction,ComponentPad*%
%ADD20R,1.800000X1.800000*%
%TD*%
%TA.AperFunction,ComponentPad*%
%ADD21C,2.000000*%
%TD*%
%TA.AperFunction,ComponentPad*%
%ADD22C,1.900000*%
%TD*%
%TA.AperFunction,ComponentPad*%
%ADD23R,3.500000X3.000000*%
%TD*%
%TA.AperFunction,ComponentPad*%
%ADD24C,3.500000*%
%TD*%
%TA.AperFunction,ComponentPad*%
%ADD25R,2.100000X2.500000*%
%TD*%
%TA.AperFunction,ComponentPad*%
%ADD26C,2.200000*%
%TD*%
%TA.AperFunction,ComponentPad*%
%ADD27C,3.200000*%
%TD*%
%TA.AperFunction,ComponentPad*%
%ADD28RoundRect,0.312500X0.937500X-0.437500X0.937500X0.437500X-0.937500X0.437500X-0.937500X-0.437500X0*%
%TD*%
%TA.AperFunction,ComponentPad*%
%ADD29O,2.500000X1.600000*%
%TD*%
%TA.AperFunction,ComponentPad*%
%ADD30O,2.100000X2.500000*%
%TD*%
%TA.AperFunction,ComponentPad*%
%ADD31R,2.300000X2.300000*%
%TD*%
%TA.AperFunction,ComponentPad*%
%ADD32C,1.700000*%
%TD*%
%TA.AperFunction,ComponentPad*%
%ADD33R,1.500000X1.500000*%
%TD*%
%TA.AperFunction,ComponentPad*%
%ADD34O,1.500000X1.500000*%
%TD*%
%TA.AperFunction,ComponentPad*%
%ADD35C,5.000000*%
%TD*%
%TA.AperFunction,ViaPad*%
%ADD36C,1.500000*%
%TD*%
%TA.AperFunction,ViaPad*%
%ADD37C,1.000000*%
%TD*%
%TA.AperFunction,Conductor*%
%ADD38C,1.000000*%
%TD*%
%TA.AperFunction,Conductor*%
%ADD39C,0.800000*%
%TD*%
%TA.AperFunction,Conductor*%
%ADD40C,1.500000*%
%TD*%
G04 APERTURE END LIST*
D10*
%TO.P,R17,2*%
%TO.N,Net-(J3-Pin_1)*%
X109290000Y-104500000D03*
D11*
%TO.P,R17,1*%
%TO.N,/OVERLOAD_DET*%
X116910000Y-104500000D03*
%TD*%
D12*
%TO.P,J3,1,Pin_1*%
%TO.N,Net-(J3-Pin_1)*%
X112900000Y-100150000D03*
D13*
%TO.P,J3,2,Pin_2*%
%TO.N,GND*%
X114900000Y-100150000D03*
%TD*%
D14*
%TO.P,C4,1*%
%TO.N,Net-(U1-VCC_ON_Mute)*%
X129194888Y-122200000D03*
D15*
%TO.P,C4,2*%
%TO.N,GND*%
X131694888Y-122200000D03*
%TD*%
D16*
%TO.P,D1,1,K*%
%TO.N,Net-(D1-K)*%
X120300000Y-117450000D03*
D17*
%TO.P,D1,2,A*%
%TO.N,Net-(D1-A)*%
X120300000Y-130150000D03*
%TD*%
D15*
%TO.P,R6,1*%
%TO.N,/INPUT_AC*%
X130310000Y-132900000D03*
D18*
%TO.P,R6,2*%
%TO.N,Net-(D1-A)*%
X122690000Y-132900000D03*
%TD*%
D14*
%TO.P,C5,1*%
%TO.N,Net-(D3-K)*%
X114405113Y-132700000D03*
D15*
%TO.P,C5,2*%
%TO.N,GND*%
X111905113Y-132700000D03*
%TD*%
D19*
%TO.P,R22,1*%
%TO.N,Net-(Q5-C)*%
X130020000Y-99700000D03*
%TO.P,R22,2*%
%TO.N,Net-(D2-A)*%
X140180000Y-99700000D03*
%TD*%
D14*
%TO.P,D2,1,K*%
%TO.N,Net-(D2-K)*%
X139200000Y-113810000D03*
D18*
%TO.P,D2,2,A*%
%TO.N,Net-(D2-A)*%
X139200000Y-106190000D03*
%TD*%
D14*
%TO.P,C7,1*%
%TO.N,Net-(U1-+VCC)*%
X129000000Y-127294888D03*
D15*
%TO.P,C7,2*%
%TO.N,GND*%
X129000000Y-129794888D03*
%TD*%
D20*
%TO.P,U1,1,Overload_Detector*%
%TO.N,/OVERLOAD_DET*%
X125600000Y-106960000D03*
D21*
%TO.P,U1,2,Output_Offset_Det.*%
%TO.N,Net-(U1-Output_Offset_Det.)*%
X125600000Y-109500000D03*
%TO.P,U1,3,Latch/Automat_Reset*%
%TO.N,Net-(U1-Latch{slash}Automat_Reset)*%
X125600000Y-112040000D03*
%TO.P,U1,4,AC_OFF_Detector*%
%TO.N,Net-(D1-K)*%
X125600000Y-114580000D03*
%TO.P,U1,5,GND*%
%TO.N,GND*%
X125600000Y-117120000D03*
%TO.P,U1,6,Output_Relay_Driver*%
%TO.N,Net-(U1-Output_Relay_Driver)*%
X125600000Y-119660000D03*
%TO.P,U1,7,VCC_ON_Mute*%
%TO.N,Net-(U1-VCC_ON_Mute)*%
X125600000Y-122200000D03*
%TO.P,U1,8,+VCC*%
%TO.N,Net-(U1-+VCC)*%
X125600000Y-124740000D03*
%TD*%
D20*
%TO.P,U2,1,REF*%
%TO.N,Net-(U2-REF)*%
X110050000Y-123550000D03*
D22*
%TO.P,U2,2,A*%
%TO.N,GND*%
X112590000Y-121010000D03*
%TO.P,U2,3,K*%
%TO.N,Net-(U2-K)*%
X115130000Y-123550000D03*
%TD*%
D23*
%TO.P,J4,1,Pin_1*%
%TO.N,/INPUT_L*%
X166200000Y-122500000D03*
D24*
%TO.P,J4,2,Pin_2*%
%TO.N,Net-(J4-Pin_2)*%
X166200000Y-117500000D03*
%TO.P,J4,3,Pin_3*%
%TO.N,/OUPUT_R*%
X166200000Y-112500000D03*
%TO.P,J4,4,Pin_4*%
%TO.N,/INPUT_R*%
X166200000Y-107500000D03*
%TD*%
D15*
%TO.P,R4,1*%
%TO.N,/VCC*%
X133400000Y-136080000D03*
D18*
%TO.P,R4,2*%
%TO.N,Net-(U1-+VCC)*%
X133400000Y-125920000D03*
%TD*%
D15*
%TO.P,R5,1*%
%TO.N,Net-(U1-Output_Relay_Driver)*%
X129200000Y-118680000D03*
D18*
%TO.P,R5,2*%
%TO.N,Net-(Q4-B)*%
X129200000Y-108520000D03*
%TD*%
D14*
%TO.P,C2,1*%
%TO.N,Net-(D1-K)*%
X119900000Y-114805113D03*
D15*
%TO.P,C2,2*%
%TO.N,GND*%
X119900000Y-112305113D03*
%TD*%
D25*
%TO.P,D5,1,K*%
%TO.N,Net-(D5-K)*%
X155460000Y-139000000D03*
D26*
%TO.P,D5,2,A*%
%TO.N,Net-(D5-A)*%
X158000000Y-139000000D03*
%TD*%
D25*
%TO.P,D4,1,K*%
%TO.N,Net-(D4-K)*%
X111160000Y-138800000D03*
D26*
%TO.P,D4,2,A*%
%TO.N,Net-(D3-K)*%
X113700000Y-138800000D03*
%TD*%
D11*
%TO.P,C3,1*%
%TO.N,Net-(U1-Latch{slash}Automat_Reset)*%
X132300000Y-114550000D03*
%TO.P,C3,2*%
%TO.N,GND*%
X132300000Y-117050000D03*
%TD*%
%TO.P,R11,1*%
%TO.N,Net-(Q2-C)*%
X107300000Y-135710000D03*
D10*
%TO.P,R11,2*%
%TO.N,Net-(D4-K)*%
X107300000Y-140790000D03*
%TD*%
D14*
%TO.P,C9,1*%
%TO.N,/VCC*%
X138800000Y-134900000D03*
D15*
%TO.P,C9,2*%
%TO.N,GND*%
X141300000Y-134900000D03*
%TD*%
D24*
%TO.P,K2,13*%
%TO.N,Net-(J4-Pin_2)*%
X144120000Y-122890000D03*
%TO.P,K2,14*%
%TO.N,/INPUT_L*%
X152990000Y-128000000D03*
D27*
%TO.P,K2,A1*%
%TO.N,Net-(D2-K)*%
X144050000Y-117810000D03*
%TO.P,K2,A2*%
%TO.N,/VCC*%
X144100000Y-128000000D03*
%TD*%
D28*
%TO.P,J1,1,Pin_1*%
%TO.N,GND*%
X102000000Y-113300000D03*
D29*
%TO.P,J1,2,Pin_2*%
%TO.N,Net-(J1-Pin_2)*%
X102000000Y-111300000D03*
%TD*%
D27*
%TO.P,K1,A2*%
%TO.N,Net-(D2-K)*%
X144060000Y-111760000D03*
%TO.P,K1,A1*%
%TO.N,Net-(D2-A)*%
X144010000Y-101570000D03*
D24*
%TO.P,K1,14*%
%TO.N,/OUPUT_R*%
X152950000Y-111760000D03*
%TO.P,K1,13*%
%TO.N,/INPUT_R*%
X144080000Y-106650000D03*
%TD*%
D14*
%TO.P,D6,1,K*%
%TO.N,/VCC*%
X139200000Y-124910000D03*
D18*
%TO.P,D6,2,A*%
%TO.N,Net-(D2-K)*%
X139200000Y-117290000D03*
%TD*%
D25*
%TO.P,J2,1,Pin_1*%
%TO.N,/VCC*%
X130440000Y-140400000D03*
D30*
%TO.P,J2,2,Pin_2*%
%TO.N,/INPUT_AC*%
X127900000Y-140400000D03*
%TO.P,J2,3,Pin_3*%
%TO.N,GND*%
X125360000Y-140400000D03*
%TD*%
D31*
%TO.P,Q5,1,C*%
%TO.N,Net-(Q5-C)*%
X127750000Y-99750000D03*
D19*
%TO.P,Q5,2,B*%
%TO.N,Net-(Q5-B)*%
X125210000Y-102290000D03*
%TO.P,Q5,3,E*%
%TO.N,GND*%
X122670000Y-99750000D03*
%TD*%
D14*
%TO.P,C1,1*%
%TO.N,Net-(U1-Output_Offset_Det.)*%
X121382380Y-107100000D03*
D15*
%TO.P,C1,2*%
%TO.N,GND*%
X118882380Y-107100000D03*
%TD*%
D32*
%TO.P,REF\u002A\u002A,1*%
%TO.N,GND*%
X132300000Y-119400000D03*
%TD*%
D33*
%TO.P,D3,1,K*%
%TO.N,Net-(D3-K)*%
X117200000Y-132885000D03*
D34*
%TO.P,D3,2,A*%
%TO.N,GND*%
X117200000Y-140505000D03*
%TD*%
D15*
%TO.P,R16,1*%
%TO.N,/VCC*%
X130310000Y-135800000D03*
D18*
%TO.P,R16,2*%
%TO.N,Net-(D3-K)*%
X122690000Y-135800000D03*
%TD*%
D21*
%TO.P,RV1,1,1*%
%TO.N,Net-(R12-Pad2)*%
X113600000Y-111120000D03*
%TO.P,RV1,2,2*%
%TO.N,Net-(D3-K)*%
X113600000Y-113660000D03*
%TO.P,RV1,3,3*%
X113600000Y-116200000D03*
%TD*%
D35*
%TO.P,REF\u002A\u002A,1*%
%TO.N,GND*%
X103000000Y-101000000D03*
%TD*%
%TO.P,REF\u002A\u002A,1*%
%TO.N,GND*%
X168000000Y-140000000D03*
%TD*%
%TO.P,REF\u002A\u002A,1*%
%TO.N,N/C*%
X168000000Y-101000000D03*
%TD*%
%TO.P,REF\u002A\u002A,1*%
%TO.N,GND*%
X103000000Y-140000000D03*
%TD*%
D36*
%TO.N,GND*%
X125400000Y-129300000D03*
X125400000Y-133700000D03*
X118600000Y-127200000D03*
X122500000Y-127200000D03*
D37*
%TO.N,Net-(Q3-B)*%
X142700000Y-138800000D03*
X139300000Y-138800000D03*
%TO.N,/VCC*%
X134900000Y-114200000D03*
X134900000Y-111200000D03*
%TD*%
D38*
%TO.N,Net-(Q3-B)*%
X142700000Y-138800000D02*
X139300000Y-138800000D01*
D39*
%TO.N,/VCC*%
X134900000Y-111200000D02*
X134900000Y-114200000D01*
D40*
%TO.N,GND*%
X125400000Y-129300000D02*
X125400000Y-133700000D01*
X118600000Y-127200000D02*
X122500000Y-127200000D01*
%TD*%
M02*
