%TF.GenerationSoftware,KiCad,Pcbnew,7.0.9*%
%TF.CreationDate,2023-11-29T12:33:46+01:00*%
%TF.ProjectId,Zabezpieczenie UPC1237,5a616265-7a70-4696-9563-7a656e696520,rev?*%
%TF.SameCoordinates,Original*%
%TF.FileFunction,Drillmap*%
%TF.FilePolarity,Positive*%
%FSLAX45Y45*%
G04 Gerber Fmt 4.5, Leading zero omitted, Abs format (unit mm)*
G04 Created by KiCad (PCBNEW 7.0.9) date 2023-11-29 12:33:46*
%MOMM*%
%LPD*%
G01*
G04 APERTURE LIST*
%ADD10C,0.100000*%
%ADD11C,0.200000*%
%ADD12C,0.102000*%
%ADD13C,0.110000*%
%ADD14C,0.250000*%
G04 APERTURE END LIST*
D10*
X9800000Y-9670000D02*
X17300000Y-9670000D01*
X17300000Y-14420000D01*
X9800000Y-14420000D01*
X9800000Y-9670000D01*
D11*
D10*
X11840000Y-12700000D02*
X11880000Y-12740000D01*
X11880000Y-12700000D02*
X11840000Y-12740000D01*
X12230000Y-12700000D02*
X12270000Y-12740000D01*
X12270000Y-12700000D02*
X12230000Y-12740000D01*
X12520000Y-12910000D02*
X12560000Y-12950000D01*
X12560000Y-12910000D02*
X12520000Y-12950000D01*
X12520000Y-13350000D02*
X12560000Y-13390000D01*
X12560000Y-13350000D02*
X12520000Y-13390000D01*
X13470000Y-11100000D02*
X13510000Y-11140000D01*
X13510000Y-11100000D02*
X13470000Y-11140000D01*
X13470000Y-11400000D02*
X13510000Y-11440000D01*
X13510000Y-11400000D02*
X13470000Y-11440000D01*
X13910000Y-13860000D02*
X13950000Y-13900000D01*
X13950000Y-13860000D02*
X13910000Y-13900000D01*
X14250000Y-13860000D02*
X14290000Y-13900000D01*
X14290000Y-13860000D02*
X14250000Y-13900000D01*
X10765000Y-13571000D02*
G75*
G03*
X10765000Y-13571000I-35000J0D01*
G01*
X10765000Y-14079000D02*
G75*
G03*
X10765000Y-14079000I-35000J0D01*
G01*
X10964000Y-10450000D02*
G75*
G03*
X10964000Y-10450000I-35000J0D01*
G01*
X11726000Y-10450000D02*
G75*
G03*
X11726000Y-10450000I-35000J0D01*
G01*
X13265000Y-11455000D02*
G75*
G03*
X13265000Y-11455000I-35000J0D01*
G01*
X13265000Y-11705000D02*
G75*
G03*
X13265000Y-11705000I-35000J0D01*
G01*
X10200000Y-11092500D02*
X10200000Y-11167500D01*
X10162500Y-11130000D02*
X10237500Y-11130000D01*
X10200000Y-11292500D02*
X10200000Y-11367500D01*
X10162500Y-11330000D02*
X10237500Y-11330000D01*
X11290000Y-9977500D02*
X11290000Y-10052500D01*
X11252500Y-10015000D02*
X11327500Y-10015000D01*
X11490000Y-9977500D02*
X11490000Y-10052500D01*
X11452500Y-10015000D02*
X11527500Y-10015000D01*
X11720000Y-13251000D02*
X11720000Y-13326000D01*
X11682500Y-13288500D02*
X11757500Y-13288500D01*
X11720000Y-14013000D02*
X11720000Y-14088000D01*
X11682500Y-14050500D02*
X11757500Y-14050500D01*
X14427941Y-10183941D02*
X14427941Y-10130059D01*
X14374059Y-10130059D01*
X14374059Y-10183941D01*
X14427941Y-10183941D01*
X14431941Y-11807941D02*
X14431941Y-11754059D01*
X14378059Y-11754059D01*
X14378059Y-11807941D01*
X14431941Y-11807941D01*
X14432941Y-11202941D02*
X14432941Y-11149059D01*
X14379059Y-11149059D01*
X14379059Y-11202941D01*
X14432941Y-11202941D01*
X14434941Y-10691941D02*
X14434941Y-10638059D01*
X14381059Y-10638059D01*
X14381059Y-10691941D01*
X14434941Y-10691941D01*
X14436941Y-12826941D02*
X14436941Y-12773059D01*
X14383059Y-12773059D01*
X14383059Y-12826941D01*
X14436941Y-12826941D01*
X14438941Y-12315941D02*
X14438941Y-12262059D01*
X14385059Y-12262059D01*
X14385059Y-12315941D01*
X14438941Y-12315941D01*
X15321941Y-11202941D02*
X15321941Y-11149059D01*
X15268059Y-11149059D01*
X15268059Y-11202941D01*
X15321941Y-11202941D01*
X15325941Y-12826941D02*
X15325941Y-12773059D01*
X15272059Y-12773059D01*
X15272059Y-12826941D01*
X15325941Y-12826941D01*
X11005000Y-12395000D02*
X11045000Y-12355000D01*
X11005000Y-12315000D01*
X10965000Y-12355000D01*
X11005000Y-12395000D01*
X11190511Y-13310000D02*
X11230511Y-13270000D01*
X11190511Y-13230000D01*
X11150511Y-13270000D01*
X11190511Y-13310000D01*
X11259000Y-12141000D02*
X11299000Y-12101000D01*
X11259000Y-12061000D01*
X11219000Y-12101000D01*
X11259000Y-12141000D01*
X11360000Y-11152000D02*
X11400000Y-11112000D01*
X11360000Y-11072000D01*
X11320000Y-11112000D01*
X11360000Y-11152000D01*
X11360000Y-11406000D02*
X11400000Y-11366000D01*
X11360000Y-11326000D01*
X11320000Y-11366000D01*
X11360000Y-11406000D01*
X11360000Y-11660000D02*
X11400000Y-11620000D01*
X11360000Y-11580000D01*
X11320000Y-11620000D01*
X11360000Y-11660000D01*
X11440511Y-13310000D02*
X11480511Y-13270000D01*
X11440511Y-13230000D01*
X11400511Y-13270000D01*
X11440511Y-13310000D01*
X11513000Y-12395000D02*
X11553000Y-12355000D01*
X11513000Y-12315000D01*
X11473000Y-12355000D01*
X11513000Y-12395000D01*
X11888238Y-10750000D02*
X11928238Y-10710000D01*
X11888238Y-10670000D01*
X11848238Y-10710000D01*
X11888238Y-10750000D01*
X11990000Y-11270511D02*
X12030000Y-11230511D01*
X11990000Y-11190511D01*
X11950000Y-11230511D01*
X11990000Y-11270511D01*
X11990000Y-11520511D02*
X12030000Y-11480511D01*
X11990000Y-11440511D01*
X11950000Y-11480511D01*
X11990000Y-11520511D01*
X12138238Y-10750000D02*
X12178238Y-10710000D01*
X12138238Y-10670000D01*
X12098238Y-10710000D01*
X12138238Y-10750000D01*
X12267000Y-10015000D02*
X12307000Y-9975000D01*
X12267000Y-9935000D01*
X12227000Y-9975000D01*
X12267000Y-10015000D01*
X12269000Y-13330000D02*
X12309000Y-13290000D01*
X12269000Y-13250000D01*
X12229000Y-13290000D01*
X12269000Y-13330000D01*
X12269000Y-13620000D02*
X12309000Y-13580000D01*
X12269000Y-13540000D01*
X12229000Y-13580000D01*
X12269000Y-13620000D01*
X12521000Y-10269000D02*
X12561000Y-10229000D01*
X12521000Y-10189000D01*
X12481000Y-10229000D01*
X12521000Y-10269000D01*
X12775000Y-10015000D02*
X12815000Y-9975000D01*
X12775000Y-9935000D01*
X12735000Y-9975000D01*
X12775000Y-10015000D01*
X12900000Y-12769489D02*
X12940000Y-12729489D01*
X12900000Y-12689489D01*
X12860000Y-12729489D01*
X12900000Y-12769489D01*
X12900000Y-13019489D02*
X12940000Y-12979489D01*
X12900000Y-12939489D01*
X12860000Y-12979489D01*
X12900000Y-13019489D01*
X12919489Y-12260000D02*
X12959489Y-12220000D01*
X12919489Y-12180000D01*
X12879489Y-12220000D01*
X12919489Y-12260000D01*
X12920000Y-10892000D02*
X12960000Y-10852000D01*
X12920000Y-10812000D01*
X12880000Y-10852000D01*
X12920000Y-10892000D01*
X12920000Y-11908000D02*
X12960000Y-11868000D01*
X12920000Y-11828000D01*
X12880000Y-11868000D01*
X12920000Y-11908000D01*
X13002000Y-10010000D02*
X13042000Y-9970000D01*
X13002000Y-9930000D01*
X12962000Y-9970000D01*
X13002000Y-10010000D01*
X13031000Y-13330000D02*
X13071000Y-13290000D01*
X13031000Y-13250000D01*
X12991000Y-13290000D01*
X13031000Y-13330000D01*
X13031000Y-13620000D02*
X13071000Y-13580000D01*
X13031000Y-13540000D01*
X12991000Y-13580000D01*
X13031000Y-13620000D01*
X13169489Y-12260000D02*
X13209489Y-12220000D01*
X13169489Y-12180000D01*
X13129489Y-12220000D01*
X13169489Y-12260000D01*
X13230000Y-11980000D02*
X13270000Y-11940000D01*
X13230000Y-11900000D01*
X13190000Y-11940000D01*
X13230000Y-11980000D01*
X13340000Y-12632000D02*
X13380000Y-12592000D01*
X13340000Y-12552000D01*
X13300000Y-12592000D01*
X13340000Y-12632000D01*
X13340000Y-13648000D02*
X13380000Y-13608000D01*
X13340000Y-13568000D01*
X13300000Y-13608000D01*
X13340000Y-13648000D01*
X13880000Y-13530000D02*
X13920000Y-13490000D01*
X13880000Y-13450000D01*
X13840000Y-13490000D01*
X13880000Y-13530000D01*
X13920000Y-10659000D02*
X13960000Y-10619000D01*
X13920000Y-10579000D01*
X13880000Y-10619000D01*
X13920000Y-10659000D01*
X13920000Y-11421000D02*
X13960000Y-11381000D01*
X13920000Y-11341000D01*
X13880000Y-11381000D01*
X13920000Y-11421000D01*
X13920000Y-11769000D02*
X13960000Y-11729000D01*
X13920000Y-11689000D01*
X13880000Y-11729000D01*
X13920000Y-11769000D01*
X13920000Y-12531000D02*
X13960000Y-12491000D01*
X13920000Y-12451000D01*
X13880000Y-12491000D01*
X13920000Y-12531000D01*
X14018000Y-10010000D02*
X14058000Y-9970000D01*
X14018000Y-9930000D01*
X13978000Y-9970000D01*
X14018000Y-10010000D01*
X14130000Y-13530000D02*
X14170000Y-13490000D01*
X14130000Y-13450000D01*
X14090000Y-13490000D01*
X14130000Y-13530000D01*
X12517500Y-10653500D02*
X12602500Y-10738500D01*
X12602500Y-10653500D02*
X12517500Y-10738500D01*
X12602500Y-10696000D02*
G75*
G03*
X12602500Y-10696000I-42500J0D01*
G01*
X12517500Y-10907500D02*
X12602500Y-10992500D01*
X12602500Y-10907500D02*
X12517500Y-10992500D01*
X12602500Y-10950000D02*
G75*
G03*
X12602500Y-10950000I-42500J0D01*
G01*
X12517500Y-11161500D02*
X12602500Y-11246500D01*
X12602500Y-11161500D02*
X12517500Y-11246500D01*
X12602500Y-11204000D02*
G75*
G03*
X12602500Y-11204000I-42500J0D01*
G01*
X12517500Y-11415500D02*
X12602500Y-11500500D01*
X12602500Y-11415500D02*
X12517500Y-11500500D01*
X12602500Y-11458000D02*
G75*
G03*
X12602500Y-11458000I-42500J0D01*
G01*
X12517500Y-11669500D02*
X12602500Y-11754500D01*
X12602500Y-11669500D02*
X12517500Y-11754500D01*
X12602500Y-11712000D02*
G75*
G03*
X12602500Y-11712000I-42500J0D01*
G01*
X12517500Y-11923500D02*
X12602500Y-12008500D01*
X12602500Y-11923500D02*
X12517500Y-12008500D01*
X12602500Y-11966000D02*
G75*
G03*
X12602500Y-11966000I-42500J0D01*
G01*
X12517500Y-12177500D02*
X12602500Y-12262500D01*
X12602500Y-12177500D02*
X12517500Y-12262500D01*
X12602500Y-12220000D02*
G75*
G03*
X12602500Y-12220000I-42500J0D01*
G01*
X12517500Y-12431500D02*
X12602500Y-12516500D01*
X12602500Y-12431500D02*
X12517500Y-12516500D01*
X12602500Y-12474000D02*
G75*
G03*
X12602500Y-12474000I-42500J0D01*
G01*
X11071000Y-13835000D02*
X11161000Y-13925000D01*
X11161000Y-13835000D02*
X11071000Y-13925000D01*
X11116000Y-13835000D02*
X11116000Y-13925000D01*
X11071000Y-13880000D02*
X11161000Y-13880000D01*
X11325000Y-13835000D02*
X11415000Y-13925000D01*
X11415000Y-13835000D02*
X11325000Y-13925000D01*
X11370000Y-13835000D02*
X11370000Y-13925000D01*
X11325000Y-13880000D02*
X11415000Y-13880000D01*
X15501000Y-13855000D02*
X15591000Y-13945000D01*
X15591000Y-13855000D02*
X15501000Y-13945000D01*
X15546000Y-13855000D02*
X15546000Y-13945000D01*
X15501000Y-13900000D02*
X15591000Y-13900000D01*
X15755000Y-13855000D02*
X15845000Y-13945000D01*
X15845000Y-13855000D02*
X15755000Y-13945000D01*
X15800000Y-13855000D02*
X15800000Y-13945000D01*
X15755000Y-13900000D02*
X15845000Y-13900000D01*
X16570000Y-10700000D02*
X16670000Y-10800000D01*
X16670000Y-10700000D02*
X16570000Y-10800000D01*
X16655356Y-10785356D02*
X16655356Y-10714644D01*
X16584644Y-10714644D01*
X16584644Y-10785356D01*
X16655356Y-10785356D01*
X16570000Y-11200000D02*
X16670000Y-11300000D01*
X16670000Y-11200000D02*
X16570000Y-11300000D01*
X16655356Y-11285356D02*
X16655356Y-11214644D01*
X16584644Y-11214644D01*
X16584644Y-11285356D01*
X16655356Y-11285356D01*
X16570000Y-11700000D02*
X16670000Y-11800000D01*
X16670000Y-11700000D02*
X16570000Y-11800000D01*
X16655356Y-11785356D02*
X16655356Y-11714644D01*
X16584644Y-11714644D01*
X16584644Y-11785356D01*
X16655356Y-11785356D01*
X16570000Y-12200000D02*
X16670000Y-12300000D01*
X16670000Y-12200000D02*
X16570000Y-12300000D01*
X16655356Y-12285356D02*
X16655356Y-12214644D01*
X16584644Y-12214644D01*
X16584644Y-12285356D01*
X16655356Y-12285356D01*
D12*
X12485000Y-13989000D02*
X12587000Y-14091000D01*
X12587000Y-13989000D02*
X12485000Y-14091000D01*
X12536000Y-14091000D02*
X12587000Y-14040000D01*
X12536000Y-13989000D01*
X12485000Y-14040000D01*
X12536000Y-14091000D01*
X12739000Y-13989000D02*
X12841000Y-14091000D01*
X12841000Y-13989000D02*
X12739000Y-14091000D01*
X12790000Y-14091000D02*
X12841000Y-14040000D01*
X12790000Y-13989000D01*
X12739000Y-14040000D01*
X12790000Y-14091000D01*
X12993000Y-13989000D02*
X13095000Y-14091000D01*
X13095000Y-13989000D02*
X12993000Y-14091000D01*
X13044000Y-14091000D02*
X13095000Y-14040000D01*
X13044000Y-13989000D01*
X12993000Y-14040000D01*
X13044000Y-14091000D01*
D13*
X12030000Y-11690000D02*
X12030000Y-11800000D01*
X11975000Y-11745000D02*
X12085000Y-11745000D01*
X12085000Y-11745000D02*
G75*
G03*
X12085000Y-11745000I-55000J0D01*
G01*
X12030000Y-12960000D02*
X12030000Y-13070000D01*
X11975000Y-13015000D02*
X12085000Y-13015000D01*
X12085000Y-13015000D02*
G75*
G03*
X12085000Y-13015000I-55000J0D01*
G01*
D14*
X10388389Y-10188389D02*
X10388389Y-10011611D01*
X10211611Y-10011611D01*
X10211611Y-10188389D01*
X10388389Y-10188389D01*
X10425000Y-10100000D02*
G75*
G03*
X10425000Y-10100000I-125000J0D01*
G01*
X10388389Y-14088389D02*
X10388389Y-13911611D01*
X10211611Y-13911611D01*
X10211611Y-14088389D01*
X10388389Y-14088389D01*
X10425000Y-14000000D02*
G75*
G03*
X10425000Y-14000000I-125000J0D01*
G01*
X16888389Y-10188389D02*
X16888389Y-10011611D01*
X16711611Y-10011611D01*
X16711611Y-10188389D01*
X16888389Y-10188389D01*
X16925000Y-10100000D02*
G75*
G03*
X16925000Y-10100000I-125000J0D01*
G01*
X16888389Y-14088389D02*
X16888389Y-13911611D01*
X16711611Y-13911611D01*
X16711611Y-14088389D01*
X16888389Y-14088389D01*
X16925000Y-14000000D02*
G75*
G03*
X16925000Y-14000000I-125000J0D01*
G01*
D11*
X10055777Y-14736484D02*
X10055777Y-14536484D01*
X10055777Y-14536484D02*
X10103396Y-14536484D01*
X10103396Y-14536484D02*
X10131967Y-14546008D01*
X10131967Y-14546008D02*
X10151015Y-14565055D01*
X10151015Y-14565055D02*
X10160539Y-14584103D01*
X10160539Y-14584103D02*
X10170063Y-14622198D01*
X10170063Y-14622198D02*
X10170063Y-14650769D01*
X10170063Y-14650769D02*
X10160539Y-14688865D01*
X10160539Y-14688865D02*
X10151015Y-14707912D01*
X10151015Y-14707912D02*
X10131967Y-14726960D01*
X10131967Y-14726960D02*
X10103396Y-14736484D01*
X10103396Y-14736484D02*
X10055777Y-14736484D01*
X10255777Y-14736484D02*
X10255777Y-14603150D01*
X10255777Y-14641246D02*
X10265301Y-14622198D01*
X10265301Y-14622198D02*
X10274824Y-14612674D01*
X10274824Y-14612674D02*
X10293872Y-14603150D01*
X10293872Y-14603150D02*
X10312920Y-14603150D01*
X10379586Y-14736484D02*
X10379586Y-14603150D01*
X10379586Y-14536484D02*
X10370063Y-14546008D01*
X10370063Y-14546008D02*
X10379586Y-14555531D01*
X10379586Y-14555531D02*
X10389110Y-14546008D01*
X10389110Y-14546008D02*
X10379586Y-14536484D01*
X10379586Y-14536484D02*
X10379586Y-14555531D01*
X10503396Y-14736484D02*
X10484348Y-14726960D01*
X10484348Y-14726960D02*
X10474824Y-14707912D01*
X10474824Y-14707912D02*
X10474824Y-14536484D01*
X10608158Y-14736484D02*
X10589110Y-14726960D01*
X10589110Y-14726960D02*
X10579586Y-14707912D01*
X10579586Y-14707912D02*
X10579586Y-14536484D01*
X10836729Y-14736484D02*
X10836729Y-14536484D01*
X10836729Y-14536484D02*
X10903396Y-14679341D01*
X10903396Y-14679341D02*
X10970063Y-14536484D01*
X10970063Y-14536484D02*
X10970063Y-14736484D01*
X11151015Y-14736484D02*
X11151015Y-14631722D01*
X11151015Y-14631722D02*
X11141491Y-14612674D01*
X11141491Y-14612674D02*
X11122444Y-14603150D01*
X11122444Y-14603150D02*
X11084348Y-14603150D01*
X11084348Y-14603150D02*
X11065301Y-14612674D01*
X11151015Y-14726960D02*
X11131967Y-14736484D01*
X11131967Y-14736484D02*
X11084348Y-14736484D01*
X11084348Y-14736484D02*
X11065301Y-14726960D01*
X11065301Y-14726960D02*
X11055777Y-14707912D01*
X11055777Y-14707912D02*
X11055777Y-14688865D01*
X11055777Y-14688865D02*
X11065301Y-14669817D01*
X11065301Y-14669817D02*
X11084348Y-14660293D01*
X11084348Y-14660293D02*
X11131967Y-14660293D01*
X11131967Y-14660293D02*
X11151015Y-14650769D01*
X11246253Y-14603150D02*
X11246253Y-14803150D01*
X11246253Y-14612674D02*
X11265301Y-14603150D01*
X11265301Y-14603150D02*
X11303396Y-14603150D01*
X11303396Y-14603150D02*
X11322443Y-14612674D01*
X11322443Y-14612674D02*
X11331967Y-14622198D01*
X11331967Y-14622198D02*
X11341491Y-14641246D01*
X11341491Y-14641246D02*
X11341491Y-14698388D01*
X11341491Y-14698388D02*
X11331967Y-14717436D01*
X11331967Y-14717436D02*
X11322443Y-14726960D01*
X11322443Y-14726960D02*
X11303396Y-14736484D01*
X11303396Y-14736484D02*
X11265301Y-14736484D01*
X11265301Y-14736484D02*
X11246253Y-14726960D01*
X11427205Y-14717436D02*
X11436729Y-14726960D01*
X11436729Y-14726960D02*
X11427205Y-14736484D01*
X11427205Y-14736484D02*
X11417682Y-14726960D01*
X11417682Y-14726960D02*
X11427205Y-14717436D01*
X11427205Y-14717436D02*
X11427205Y-14736484D01*
X11427205Y-14612674D02*
X11436729Y-14622198D01*
X11436729Y-14622198D02*
X11427205Y-14631722D01*
X11427205Y-14631722D02*
X11417682Y-14622198D01*
X11417682Y-14622198D02*
X11427205Y-14612674D01*
X11427205Y-14612674D02*
X11427205Y-14631722D01*
D10*
X9755000Y-15045000D02*
X9795000Y-15085000D01*
X9795000Y-15045000D02*
X9755000Y-15085000D01*
D11*
X10093872Y-14956484D02*
X10112920Y-14956484D01*
X10112920Y-14956484D02*
X10131967Y-14966008D01*
X10131967Y-14966008D02*
X10141491Y-14975531D01*
X10141491Y-14975531D02*
X10151015Y-14994579D01*
X10151015Y-14994579D02*
X10160539Y-15032674D01*
X10160539Y-15032674D02*
X10160539Y-15080293D01*
X10160539Y-15080293D02*
X10151015Y-15118388D01*
X10151015Y-15118388D02*
X10141491Y-15137436D01*
X10141491Y-15137436D02*
X10131967Y-15146960D01*
X10131967Y-15146960D02*
X10112920Y-15156484D01*
X10112920Y-15156484D02*
X10093872Y-15156484D01*
X10093872Y-15156484D02*
X10074824Y-15146960D01*
X10074824Y-15146960D02*
X10065301Y-15137436D01*
X10065301Y-15137436D02*
X10055777Y-15118388D01*
X10055777Y-15118388D02*
X10046253Y-15080293D01*
X10046253Y-15080293D02*
X10046253Y-15032674D01*
X10046253Y-15032674D02*
X10055777Y-14994579D01*
X10055777Y-14994579D02*
X10065301Y-14975531D01*
X10065301Y-14975531D02*
X10074824Y-14966008D01*
X10074824Y-14966008D02*
X10093872Y-14956484D01*
X10246253Y-15137436D02*
X10255777Y-15146960D01*
X10255777Y-15146960D02*
X10246253Y-15156484D01*
X10246253Y-15156484D02*
X10236729Y-15146960D01*
X10236729Y-15146960D02*
X10246253Y-15137436D01*
X10246253Y-15137436D02*
X10246253Y-15156484D01*
X10427205Y-15023150D02*
X10427205Y-15156484D01*
X10379586Y-14946960D02*
X10331967Y-15089817D01*
X10331967Y-15089817D02*
X10455777Y-15089817D01*
X10570063Y-14956484D02*
X10589110Y-14956484D01*
X10589110Y-14956484D02*
X10608158Y-14966008D01*
X10608158Y-14966008D02*
X10617682Y-14975531D01*
X10617682Y-14975531D02*
X10627205Y-14994579D01*
X10627205Y-14994579D02*
X10636729Y-15032674D01*
X10636729Y-15032674D02*
X10636729Y-15080293D01*
X10636729Y-15080293D02*
X10627205Y-15118388D01*
X10627205Y-15118388D02*
X10617682Y-15137436D01*
X10617682Y-15137436D02*
X10608158Y-15146960D01*
X10608158Y-15146960D02*
X10589110Y-15156484D01*
X10589110Y-15156484D02*
X10570063Y-15156484D01*
X10570063Y-15156484D02*
X10551015Y-15146960D01*
X10551015Y-15146960D02*
X10541491Y-15137436D01*
X10541491Y-15137436D02*
X10531967Y-15118388D01*
X10531967Y-15118388D02*
X10522444Y-15080293D01*
X10522444Y-15080293D02*
X10522444Y-15032674D01*
X10522444Y-15032674D02*
X10531967Y-14994579D01*
X10531967Y-14994579D02*
X10541491Y-14975531D01*
X10541491Y-14975531D02*
X10551015Y-14966008D01*
X10551015Y-14966008D02*
X10570063Y-14956484D01*
X10760539Y-14956484D02*
X10779586Y-14956484D01*
X10779586Y-14956484D02*
X10798634Y-14966008D01*
X10798634Y-14966008D02*
X10808158Y-14975531D01*
X10808158Y-14975531D02*
X10817682Y-14994579D01*
X10817682Y-14994579D02*
X10827205Y-15032674D01*
X10827205Y-15032674D02*
X10827205Y-15080293D01*
X10827205Y-15080293D02*
X10817682Y-15118388D01*
X10817682Y-15118388D02*
X10808158Y-15137436D01*
X10808158Y-15137436D02*
X10798634Y-15146960D01*
X10798634Y-15146960D02*
X10779586Y-15156484D01*
X10779586Y-15156484D02*
X10760539Y-15156484D01*
X10760539Y-15156484D02*
X10741491Y-15146960D01*
X10741491Y-15146960D02*
X10731967Y-15137436D01*
X10731967Y-15137436D02*
X10722444Y-15118388D01*
X10722444Y-15118388D02*
X10712920Y-15080293D01*
X10712920Y-15080293D02*
X10712920Y-15032674D01*
X10712920Y-15032674D02*
X10722444Y-14994579D01*
X10722444Y-14994579D02*
X10731967Y-14975531D01*
X10731967Y-14975531D02*
X10741491Y-14966008D01*
X10741491Y-14966008D02*
X10760539Y-14956484D01*
X10912920Y-15156484D02*
X10912920Y-15023150D01*
X10912920Y-15042198D02*
X10922444Y-15032674D01*
X10922444Y-15032674D02*
X10941491Y-15023150D01*
X10941491Y-15023150D02*
X10970063Y-15023150D01*
X10970063Y-15023150D02*
X10989110Y-15032674D01*
X10989110Y-15032674D02*
X10998634Y-15051722D01*
X10998634Y-15051722D02*
X10998634Y-15156484D01*
X10998634Y-15051722D02*
X11008158Y-15032674D01*
X11008158Y-15032674D02*
X11027205Y-15023150D01*
X11027205Y-15023150D02*
X11055777Y-15023150D01*
X11055777Y-15023150D02*
X11074825Y-15032674D01*
X11074825Y-15032674D02*
X11084348Y-15051722D01*
X11084348Y-15051722D02*
X11084348Y-15156484D01*
X11179586Y-15156484D02*
X11179586Y-15023150D01*
X11179586Y-15042198D02*
X11189110Y-15032674D01*
X11189110Y-15032674D02*
X11208158Y-15023150D01*
X11208158Y-15023150D02*
X11236729Y-15023150D01*
X11236729Y-15023150D02*
X11255777Y-15032674D01*
X11255777Y-15032674D02*
X11265301Y-15051722D01*
X11265301Y-15051722D02*
X11265301Y-15156484D01*
X11265301Y-15051722D02*
X11274824Y-15032674D01*
X11274824Y-15032674D02*
X11293872Y-15023150D01*
X11293872Y-15023150D02*
X11322443Y-15023150D01*
X11322443Y-15023150D02*
X11341491Y-15032674D01*
X11341491Y-15032674D02*
X11351015Y-15051722D01*
X11351015Y-15051722D02*
X11351015Y-15156484D01*
X11741491Y-14946960D02*
X11570063Y-15204103D01*
X11998634Y-14956484D02*
X12017682Y-14956484D01*
X12017682Y-14956484D02*
X12036729Y-14966008D01*
X12036729Y-14966008D02*
X12046253Y-14975531D01*
X12046253Y-14975531D02*
X12055777Y-14994579D01*
X12055777Y-14994579D02*
X12065301Y-15032674D01*
X12065301Y-15032674D02*
X12065301Y-15080293D01*
X12065301Y-15080293D02*
X12055777Y-15118388D01*
X12055777Y-15118388D02*
X12046253Y-15137436D01*
X12046253Y-15137436D02*
X12036729Y-15146960D01*
X12036729Y-15146960D02*
X12017682Y-15156484D01*
X12017682Y-15156484D02*
X11998634Y-15156484D01*
X11998634Y-15156484D02*
X11979586Y-15146960D01*
X11979586Y-15146960D02*
X11970063Y-15137436D01*
X11970063Y-15137436D02*
X11960539Y-15118388D01*
X11960539Y-15118388D02*
X11951015Y-15080293D01*
X11951015Y-15080293D02*
X11951015Y-15032674D01*
X11951015Y-15032674D02*
X11960539Y-14994579D01*
X11960539Y-14994579D02*
X11970063Y-14975531D01*
X11970063Y-14975531D02*
X11979586Y-14966008D01*
X11979586Y-14966008D02*
X11998634Y-14956484D01*
X12151015Y-15137436D02*
X12160539Y-15146960D01*
X12160539Y-15146960D02*
X12151015Y-15156484D01*
X12151015Y-15156484D02*
X12141491Y-15146960D01*
X12141491Y-15146960D02*
X12151015Y-15137436D01*
X12151015Y-15137436D02*
X12151015Y-15156484D01*
X12284348Y-14956484D02*
X12303396Y-14956484D01*
X12303396Y-14956484D02*
X12322444Y-14966008D01*
X12322444Y-14966008D02*
X12331967Y-14975531D01*
X12331967Y-14975531D02*
X12341491Y-14994579D01*
X12341491Y-14994579D02*
X12351015Y-15032674D01*
X12351015Y-15032674D02*
X12351015Y-15080293D01*
X12351015Y-15080293D02*
X12341491Y-15118388D01*
X12341491Y-15118388D02*
X12331967Y-15137436D01*
X12331967Y-15137436D02*
X12322444Y-15146960D01*
X12322444Y-15146960D02*
X12303396Y-15156484D01*
X12303396Y-15156484D02*
X12284348Y-15156484D01*
X12284348Y-15156484D02*
X12265301Y-15146960D01*
X12265301Y-15146960D02*
X12255777Y-15137436D01*
X12255777Y-15137436D02*
X12246253Y-15118388D01*
X12246253Y-15118388D02*
X12236729Y-15080293D01*
X12236729Y-15080293D02*
X12236729Y-15032674D01*
X12236729Y-15032674D02*
X12246253Y-14994579D01*
X12246253Y-14994579D02*
X12255777Y-14975531D01*
X12255777Y-14975531D02*
X12265301Y-14966008D01*
X12265301Y-14966008D02*
X12284348Y-14956484D01*
X12541491Y-15156484D02*
X12427206Y-15156484D01*
X12484348Y-15156484D02*
X12484348Y-14956484D01*
X12484348Y-14956484D02*
X12465301Y-14985055D01*
X12465301Y-14985055D02*
X12446253Y-15004103D01*
X12446253Y-15004103D02*
X12427206Y-15013627D01*
X12722444Y-14956484D02*
X12627206Y-14956484D01*
X12627206Y-14956484D02*
X12617682Y-15051722D01*
X12617682Y-15051722D02*
X12627206Y-15042198D01*
X12627206Y-15042198D02*
X12646253Y-15032674D01*
X12646253Y-15032674D02*
X12693872Y-15032674D01*
X12693872Y-15032674D02*
X12712920Y-15042198D01*
X12712920Y-15042198D02*
X12722444Y-15051722D01*
X12722444Y-15051722D02*
X12731967Y-15070769D01*
X12731967Y-15070769D02*
X12731967Y-15118388D01*
X12731967Y-15118388D02*
X12722444Y-15137436D01*
X12722444Y-15137436D02*
X12712920Y-15146960D01*
X12712920Y-15146960D02*
X12693872Y-15156484D01*
X12693872Y-15156484D02*
X12646253Y-15156484D01*
X12646253Y-15156484D02*
X12627206Y-15146960D01*
X12627206Y-15146960D02*
X12617682Y-15137436D01*
X12798634Y-14956484D02*
X12931967Y-14956484D01*
X12931967Y-14956484D02*
X12846253Y-15156484D01*
X12998634Y-14956484D02*
X12998634Y-14994579D01*
X13074825Y-14956484D02*
X13074825Y-14994579D01*
X13370063Y-15232674D02*
X13360539Y-15223150D01*
X13360539Y-15223150D02*
X13341491Y-15194579D01*
X13341491Y-15194579D02*
X13331968Y-15175531D01*
X13331968Y-15175531D02*
X13322444Y-15146960D01*
X13322444Y-15146960D02*
X13312920Y-15099341D01*
X13312920Y-15099341D02*
X13312920Y-15061246D01*
X13312920Y-15061246D02*
X13322444Y-15013627D01*
X13322444Y-15013627D02*
X13331968Y-14985055D01*
X13331968Y-14985055D02*
X13341491Y-14966008D01*
X13341491Y-14966008D02*
X13360539Y-14937436D01*
X13360539Y-14937436D02*
X13370063Y-14927912D01*
X13474825Y-15042198D02*
X13455777Y-15032674D01*
X13455777Y-15032674D02*
X13446253Y-15023150D01*
X13446253Y-15023150D02*
X13436729Y-15004103D01*
X13436729Y-15004103D02*
X13436729Y-14994579D01*
X13436729Y-14994579D02*
X13446253Y-14975531D01*
X13446253Y-14975531D02*
X13455777Y-14966008D01*
X13455777Y-14966008D02*
X13474825Y-14956484D01*
X13474825Y-14956484D02*
X13512920Y-14956484D01*
X13512920Y-14956484D02*
X13531968Y-14966008D01*
X13531968Y-14966008D02*
X13541491Y-14975531D01*
X13541491Y-14975531D02*
X13551015Y-14994579D01*
X13551015Y-14994579D02*
X13551015Y-15004103D01*
X13551015Y-15004103D02*
X13541491Y-15023150D01*
X13541491Y-15023150D02*
X13531968Y-15032674D01*
X13531968Y-15032674D02*
X13512920Y-15042198D01*
X13512920Y-15042198D02*
X13474825Y-15042198D01*
X13474825Y-15042198D02*
X13455777Y-15051722D01*
X13455777Y-15051722D02*
X13446253Y-15061246D01*
X13446253Y-15061246D02*
X13436729Y-15080293D01*
X13436729Y-15080293D02*
X13436729Y-15118388D01*
X13436729Y-15118388D02*
X13446253Y-15137436D01*
X13446253Y-15137436D02*
X13455777Y-15146960D01*
X13455777Y-15146960D02*
X13474825Y-15156484D01*
X13474825Y-15156484D02*
X13512920Y-15156484D01*
X13512920Y-15156484D02*
X13531968Y-15146960D01*
X13531968Y-15146960D02*
X13541491Y-15137436D01*
X13541491Y-15137436D02*
X13551015Y-15118388D01*
X13551015Y-15118388D02*
X13551015Y-15080293D01*
X13551015Y-15080293D02*
X13541491Y-15061246D01*
X13541491Y-15061246D02*
X13531968Y-15051722D01*
X13531968Y-15051722D02*
X13512920Y-15042198D01*
X13789110Y-15156484D02*
X13789110Y-14956484D01*
X13874825Y-15156484D02*
X13874825Y-15051722D01*
X13874825Y-15051722D02*
X13865301Y-15032674D01*
X13865301Y-15032674D02*
X13846253Y-15023150D01*
X13846253Y-15023150D02*
X13817682Y-15023150D01*
X13817682Y-15023150D02*
X13798634Y-15032674D01*
X13798634Y-15032674D02*
X13789110Y-15042198D01*
X13998634Y-15156484D02*
X13979587Y-15146960D01*
X13979587Y-15146960D02*
X13970063Y-15137436D01*
X13970063Y-15137436D02*
X13960539Y-15118388D01*
X13960539Y-15118388D02*
X13960539Y-15061246D01*
X13960539Y-15061246D02*
X13970063Y-15042198D01*
X13970063Y-15042198D02*
X13979587Y-15032674D01*
X13979587Y-15032674D02*
X13998634Y-15023150D01*
X13998634Y-15023150D02*
X14027206Y-15023150D01*
X14027206Y-15023150D02*
X14046253Y-15032674D01*
X14046253Y-15032674D02*
X14055777Y-15042198D01*
X14055777Y-15042198D02*
X14065301Y-15061246D01*
X14065301Y-15061246D02*
X14065301Y-15118388D01*
X14065301Y-15118388D02*
X14055777Y-15137436D01*
X14055777Y-15137436D02*
X14046253Y-15146960D01*
X14046253Y-15146960D02*
X14027206Y-15156484D01*
X14027206Y-15156484D02*
X13998634Y-15156484D01*
X14179587Y-15156484D02*
X14160539Y-15146960D01*
X14160539Y-15146960D02*
X14151015Y-15127912D01*
X14151015Y-15127912D02*
X14151015Y-14956484D01*
X14331968Y-15146960D02*
X14312920Y-15156484D01*
X14312920Y-15156484D02*
X14274825Y-15156484D01*
X14274825Y-15156484D02*
X14255777Y-15146960D01*
X14255777Y-15146960D02*
X14246253Y-15127912D01*
X14246253Y-15127912D02*
X14246253Y-15051722D01*
X14246253Y-15051722D02*
X14255777Y-15032674D01*
X14255777Y-15032674D02*
X14274825Y-15023150D01*
X14274825Y-15023150D02*
X14312920Y-15023150D01*
X14312920Y-15023150D02*
X14331968Y-15032674D01*
X14331968Y-15032674D02*
X14341491Y-15051722D01*
X14341491Y-15051722D02*
X14341491Y-15070769D01*
X14341491Y-15070769D02*
X14246253Y-15089817D01*
X14417682Y-15146960D02*
X14436730Y-15156484D01*
X14436730Y-15156484D02*
X14474825Y-15156484D01*
X14474825Y-15156484D02*
X14493872Y-15146960D01*
X14493872Y-15146960D02*
X14503396Y-15127912D01*
X14503396Y-15127912D02*
X14503396Y-15118388D01*
X14503396Y-15118388D02*
X14493872Y-15099341D01*
X14493872Y-15099341D02*
X14474825Y-15089817D01*
X14474825Y-15089817D02*
X14446253Y-15089817D01*
X14446253Y-15089817D02*
X14427206Y-15080293D01*
X14427206Y-15080293D02*
X14417682Y-15061246D01*
X14417682Y-15061246D02*
X14417682Y-15051722D01*
X14417682Y-15051722D02*
X14427206Y-15032674D01*
X14427206Y-15032674D02*
X14446253Y-15023150D01*
X14446253Y-15023150D02*
X14474825Y-15023150D01*
X14474825Y-15023150D02*
X14493872Y-15032674D01*
X14570063Y-15232674D02*
X14579587Y-15223150D01*
X14579587Y-15223150D02*
X14598634Y-15194579D01*
X14598634Y-15194579D02*
X14608158Y-15175531D01*
X14608158Y-15175531D02*
X14617682Y-15146960D01*
X14617682Y-15146960D02*
X14627206Y-15099341D01*
X14627206Y-15099341D02*
X14627206Y-15061246D01*
X14627206Y-15061246D02*
X14617682Y-15013627D01*
X14617682Y-15013627D02*
X14608158Y-14985055D01*
X14608158Y-14985055D02*
X14598634Y-14966008D01*
X14598634Y-14966008D02*
X14579587Y-14937436D01*
X14579587Y-14937436D02*
X14570063Y-14927912D01*
D10*
X9795000Y-15329000D02*
G75*
G03*
X9795000Y-15329000I-35000J0D01*
G01*
D11*
X10093872Y-15220484D02*
X10112920Y-15220484D01*
X10112920Y-15220484D02*
X10131967Y-15230008D01*
X10131967Y-15230008D02*
X10141491Y-15239531D01*
X10141491Y-15239531D02*
X10151015Y-15258579D01*
X10151015Y-15258579D02*
X10160539Y-15296674D01*
X10160539Y-15296674D02*
X10160539Y-15344293D01*
X10160539Y-15344293D02*
X10151015Y-15382388D01*
X10151015Y-15382388D02*
X10141491Y-15401436D01*
X10141491Y-15401436D02*
X10131967Y-15410960D01*
X10131967Y-15410960D02*
X10112920Y-15420484D01*
X10112920Y-15420484D02*
X10093872Y-15420484D01*
X10093872Y-15420484D02*
X10074824Y-15410960D01*
X10074824Y-15410960D02*
X10065301Y-15401436D01*
X10065301Y-15401436D02*
X10055777Y-15382388D01*
X10055777Y-15382388D02*
X10046253Y-15344293D01*
X10046253Y-15344293D02*
X10046253Y-15296674D01*
X10046253Y-15296674D02*
X10055777Y-15258579D01*
X10055777Y-15258579D02*
X10065301Y-15239531D01*
X10065301Y-15239531D02*
X10074824Y-15230008D01*
X10074824Y-15230008D02*
X10093872Y-15220484D01*
X10246253Y-15401436D02*
X10255777Y-15410960D01*
X10255777Y-15410960D02*
X10246253Y-15420484D01*
X10246253Y-15420484D02*
X10236729Y-15410960D01*
X10236729Y-15410960D02*
X10246253Y-15401436D01*
X10246253Y-15401436D02*
X10246253Y-15420484D01*
X10322444Y-15220484D02*
X10455777Y-15220484D01*
X10455777Y-15220484D02*
X10370063Y-15420484D01*
X10570063Y-15220484D02*
X10589110Y-15220484D01*
X10589110Y-15220484D02*
X10608158Y-15230008D01*
X10608158Y-15230008D02*
X10617682Y-15239531D01*
X10617682Y-15239531D02*
X10627205Y-15258579D01*
X10627205Y-15258579D02*
X10636729Y-15296674D01*
X10636729Y-15296674D02*
X10636729Y-15344293D01*
X10636729Y-15344293D02*
X10627205Y-15382388D01*
X10627205Y-15382388D02*
X10617682Y-15401436D01*
X10617682Y-15401436D02*
X10608158Y-15410960D01*
X10608158Y-15410960D02*
X10589110Y-15420484D01*
X10589110Y-15420484D02*
X10570063Y-15420484D01*
X10570063Y-15420484D02*
X10551015Y-15410960D01*
X10551015Y-15410960D02*
X10541491Y-15401436D01*
X10541491Y-15401436D02*
X10531967Y-15382388D01*
X10531967Y-15382388D02*
X10522444Y-15344293D01*
X10522444Y-15344293D02*
X10522444Y-15296674D01*
X10522444Y-15296674D02*
X10531967Y-15258579D01*
X10531967Y-15258579D02*
X10541491Y-15239531D01*
X10541491Y-15239531D02*
X10551015Y-15230008D01*
X10551015Y-15230008D02*
X10570063Y-15220484D01*
X10760539Y-15220484D02*
X10779586Y-15220484D01*
X10779586Y-15220484D02*
X10798634Y-15230008D01*
X10798634Y-15230008D02*
X10808158Y-15239531D01*
X10808158Y-15239531D02*
X10817682Y-15258579D01*
X10817682Y-15258579D02*
X10827205Y-15296674D01*
X10827205Y-15296674D02*
X10827205Y-15344293D01*
X10827205Y-15344293D02*
X10817682Y-15382388D01*
X10817682Y-15382388D02*
X10808158Y-15401436D01*
X10808158Y-15401436D02*
X10798634Y-15410960D01*
X10798634Y-15410960D02*
X10779586Y-15420484D01*
X10779586Y-15420484D02*
X10760539Y-15420484D01*
X10760539Y-15420484D02*
X10741491Y-15410960D01*
X10741491Y-15410960D02*
X10731967Y-15401436D01*
X10731967Y-15401436D02*
X10722444Y-15382388D01*
X10722444Y-15382388D02*
X10712920Y-15344293D01*
X10712920Y-15344293D02*
X10712920Y-15296674D01*
X10712920Y-15296674D02*
X10722444Y-15258579D01*
X10722444Y-15258579D02*
X10731967Y-15239531D01*
X10731967Y-15239531D02*
X10741491Y-15230008D01*
X10741491Y-15230008D02*
X10760539Y-15220484D01*
X10912920Y-15420484D02*
X10912920Y-15287150D01*
X10912920Y-15306198D02*
X10922444Y-15296674D01*
X10922444Y-15296674D02*
X10941491Y-15287150D01*
X10941491Y-15287150D02*
X10970063Y-15287150D01*
X10970063Y-15287150D02*
X10989110Y-15296674D01*
X10989110Y-15296674D02*
X10998634Y-15315722D01*
X10998634Y-15315722D02*
X10998634Y-15420484D01*
X10998634Y-15315722D02*
X11008158Y-15296674D01*
X11008158Y-15296674D02*
X11027205Y-15287150D01*
X11027205Y-15287150D02*
X11055777Y-15287150D01*
X11055777Y-15287150D02*
X11074825Y-15296674D01*
X11074825Y-15296674D02*
X11084348Y-15315722D01*
X11084348Y-15315722D02*
X11084348Y-15420484D01*
X11179586Y-15420484D02*
X11179586Y-15287150D01*
X11179586Y-15306198D02*
X11189110Y-15296674D01*
X11189110Y-15296674D02*
X11208158Y-15287150D01*
X11208158Y-15287150D02*
X11236729Y-15287150D01*
X11236729Y-15287150D02*
X11255777Y-15296674D01*
X11255777Y-15296674D02*
X11265301Y-15315722D01*
X11265301Y-15315722D02*
X11265301Y-15420484D01*
X11265301Y-15315722D02*
X11274824Y-15296674D01*
X11274824Y-15296674D02*
X11293872Y-15287150D01*
X11293872Y-15287150D02*
X11322443Y-15287150D01*
X11322443Y-15287150D02*
X11341491Y-15296674D01*
X11341491Y-15296674D02*
X11351015Y-15315722D01*
X11351015Y-15315722D02*
X11351015Y-15420484D01*
X11741491Y-15210960D02*
X11570063Y-15468103D01*
X11998634Y-15220484D02*
X12017682Y-15220484D01*
X12017682Y-15220484D02*
X12036729Y-15230008D01*
X12036729Y-15230008D02*
X12046253Y-15239531D01*
X12046253Y-15239531D02*
X12055777Y-15258579D01*
X12055777Y-15258579D02*
X12065301Y-15296674D01*
X12065301Y-15296674D02*
X12065301Y-15344293D01*
X12065301Y-15344293D02*
X12055777Y-15382388D01*
X12055777Y-15382388D02*
X12046253Y-15401436D01*
X12046253Y-15401436D02*
X12036729Y-15410960D01*
X12036729Y-15410960D02*
X12017682Y-15420484D01*
X12017682Y-15420484D02*
X11998634Y-15420484D01*
X11998634Y-15420484D02*
X11979586Y-15410960D01*
X11979586Y-15410960D02*
X11970063Y-15401436D01*
X11970063Y-15401436D02*
X11960539Y-15382388D01*
X11960539Y-15382388D02*
X11951015Y-15344293D01*
X11951015Y-15344293D02*
X11951015Y-15296674D01*
X11951015Y-15296674D02*
X11960539Y-15258579D01*
X11960539Y-15258579D02*
X11970063Y-15239531D01*
X11970063Y-15239531D02*
X11979586Y-15230008D01*
X11979586Y-15230008D02*
X11998634Y-15220484D01*
X12151015Y-15401436D02*
X12160539Y-15410960D01*
X12160539Y-15410960D02*
X12151015Y-15420484D01*
X12151015Y-15420484D02*
X12141491Y-15410960D01*
X12141491Y-15410960D02*
X12151015Y-15401436D01*
X12151015Y-15401436D02*
X12151015Y-15420484D01*
X12284348Y-15220484D02*
X12303396Y-15220484D01*
X12303396Y-15220484D02*
X12322444Y-15230008D01*
X12322444Y-15230008D02*
X12331967Y-15239531D01*
X12331967Y-15239531D02*
X12341491Y-15258579D01*
X12341491Y-15258579D02*
X12351015Y-15296674D01*
X12351015Y-15296674D02*
X12351015Y-15344293D01*
X12351015Y-15344293D02*
X12341491Y-15382388D01*
X12341491Y-15382388D02*
X12331967Y-15401436D01*
X12331967Y-15401436D02*
X12322444Y-15410960D01*
X12322444Y-15410960D02*
X12303396Y-15420484D01*
X12303396Y-15420484D02*
X12284348Y-15420484D01*
X12284348Y-15420484D02*
X12265301Y-15410960D01*
X12265301Y-15410960D02*
X12255777Y-15401436D01*
X12255777Y-15401436D02*
X12246253Y-15382388D01*
X12246253Y-15382388D02*
X12236729Y-15344293D01*
X12236729Y-15344293D02*
X12236729Y-15296674D01*
X12236729Y-15296674D02*
X12246253Y-15258579D01*
X12246253Y-15258579D02*
X12255777Y-15239531D01*
X12255777Y-15239531D02*
X12265301Y-15230008D01*
X12265301Y-15230008D02*
X12284348Y-15220484D01*
X12427206Y-15239531D02*
X12436729Y-15230008D01*
X12436729Y-15230008D02*
X12455777Y-15220484D01*
X12455777Y-15220484D02*
X12503396Y-15220484D01*
X12503396Y-15220484D02*
X12522444Y-15230008D01*
X12522444Y-15230008D02*
X12531967Y-15239531D01*
X12531967Y-15239531D02*
X12541491Y-15258579D01*
X12541491Y-15258579D02*
X12541491Y-15277627D01*
X12541491Y-15277627D02*
X12531967Y-15306198D01*
X12531967Y-15306198D02*
X12417682Y-15420484D01*
X12417682Y-15420484D02*
X12541491Y-15420484D01*
X12608158Y-15220484D02*
X12741491Y-15220484D01*
X12741491Y-15220484D02*
X12655777Y-15420484D01*
X12903396Y-15220484D02*
X12865301Y-15220484D01*
X12865301Y-15220484D02*
X12846253Y-15230008D01*
X12846253Y-15230008D02*
X12836729Y-15239531D01*
X12836729Y-15239531D02*
X12817682Y-15268103D01*
X12817682Y-15268103D02*
X12808158Y-15306198D01*
X12808158Y-15306198D02*
X12808158Y-15382388D01*
X12808158Y-15382388D02*
X12817682Y-15401436D01*
X12817682Y-15401436D02*
X12827206Y-15410960D01*
X12827206Y-15410960D02*
X12846253Y-15420484D01*
X12846253Y-15420484D02*
X12884348Y-15420484D01*
X12884348Y-15420484D02*
X12903396Y-15410960D01*
X12903396Y-15410960D02*
X12912920Y-15401436D01*
X12912920Y-15401436D02*
X12922444Y-15382388D01*
X12922444Y-15382388D02*
X12922444Y-15334769D01*
X12922444Y-15334769D02*
X12912920Y-15315722D01*
X12912920Y-15315722D02*
X12903396Y-15306198D01*
X12903396Y-15306198D02*
X12884348Y-15296674D01*
X12884348Y-15296674D02*
X12846253Y-15296674D01*
X12846253Y-15296674D02*
X12827206Y-15306198D01*
X12827206Y-15306198D02*
X12817682Y-15315722D01*
X12817682Y-15315722D02*
X12808158Y-15334769D01*
X12998634Y-15220484D02*
X12998634Y-15258579D01*
X13074825Y-15220484D02*
X13074825Y-15258579D01*
X13370063Y-15496674D02*
X13360539Y-15487150D01*
X13360539Y-15487150D02*
X13341491Y-15458579D01*
X13341491Y-15458579D02*
X13331968Y-15439531D01*
X13331968Y-15439531D02*
X13322444Y-15410960D01*
X13322444Y-15410960D02*
X13312920Y-15363341D01*
X13312920Y-15363341D02*
X13312920Y-15325246D01*
X13312920Y-15325246D02*
X13322444Y-15277627D01*
X13322444Y-15277627D02*
X13331968Y-15249055D01*
X13331968Y-15249055D02*
X13341491Y-15230008D01*
X13341491Y-15230008D02*
X13360539Y-15201436D01*
X13360539Y-15201436D02*
X13370063Y-15191912D01*
X13531968Y-15220484D02*
X13493872Y-15220484D01*
X13493872Y-15220484D02*
X13474825Y-15230008D01*
X13474825Y-15230008D02*
X13465301Y-15239531D01*
X13465301Y-15239531D02*
X13446253Y-15268103D01*
X13446253Y-15268103D02*
X13436729Y-15306198D01*
X13436729Y-15306198D02*
X13436729Y-15382388D01*
X13436729Y-15382388D02*
X13446253Y-15401436D01*
X13446253Y-15401436D02*
X13455777Y-15410960D01*
X13455777Y-15410960D02*
X13474825Y-15420484D01*
X13474825Y-15420484D02*
X13512920Y-15420484D01*
X13512920Y-15420484D02*
X13531968Y-15410960D01*
X13531968Y-15410960D02*
X13541491Y-15401436D01*
X13541491Y-15401436D02*
X13551015Y-15382388D01*
X13551015Y-15382388D02*
X13551015Y-15334769D01*
X13551015Y-15334769D02*
X13541491Y-15315722D01*
X13541491Y-15315722D02*
X13531968Y-15306198D01*
X13531968Y-15306198D02*
X13512920Y-15296674D01*
X13512920Y-15296674D02*
X13474825Y-15296674D01*
X13474825Y-15296674D02*
X13455777Y-15306198D01*
X13455777Y-15306198D02*
X13446253Y-15315722D01*
X13446253Y-15315722D02*
X13436729Y-15334769D01*
X13789110Y-15420484D02*
X13789110Y-15220484D01*
X13874825Y-15420484D02*
X13874825Y-15315722D01*
X13874825Y-15315722D02*
X13865301Y-15296674D01*
X13865301Y-15296674D02*
X13846253Y-15287150D01*
X13846253Y-15287150D02*
X13817682Y-15287150D01*
X13817682Y-15287150D02*
X13798634Y-15296674D01*
X13798634Y-15296674D02*
X13789110Y-15306198D01*
X13998634Y-15420484D02*
X13979587Y-15410960D01*
X13979587Y-15410960D02*
X13970063Y-15401436D01*
X13970063Y-15401436D02*
X13960539Y-15382388D01*
X13960539Y-15382388D02*
X13960539Y-15325246D01*
X13960539Y-15325246D02*
X13970063Y-15306198D01*
X13970063Y-15306198D02*
X13979587Y-15296674D01*
X13979587Y-15296674D02*
X13998634Y-15287150D01*
X13998634Y-15287150D02*
X14027206Y-15287150D01*
X14027206Y-15287150D02*
X14046253Y-15296674D01*
X14046253Y-15296674D02*
X14055777Y-15306198D01*
X14055777Y-15306198D02*
X14065301Y-15325246D01*
X14065301Y-15325246D02*
X14065301Y-15382388D01*
X14065301Y-15382388D02*
X14055777Y-15401436D01*
X14055777Y-15401436D02*
X14046253Y-15410960D01*
X14046253Y-15410960D02*
X14027206Y-15420484D01*
X14027206Y-15420484D02*
X13998634Y-15420484D01*
X14179587Y-15420484D02*
X14160539Y-15410960D01*
X14160539Y-15410960D02*
X14151015Y-15391912D01*
X14151015Y-15391912D02*
X14151015Y-15220484D01*
X14331968Y-15410960D02*
X14312920Y-15420484D01*
X14312920Y-15420484D02*
X14274825Y-15420484D01*
X14274825Y-15420484D02*
X14255777Y-15410960D01*
X14255777Y-15410960D02*
X14246253Y-15391912D01*
X14246253Y-15391912D02*
X14246253Y-15315722D01*
X14246253Y-15315722D02*
X14255777Y-15296674D01*
X14255777Y-15296674D02*
X14274825Y-15287150D01*
X14274825Y-15287150D02*
X14312920Y-15287150D01*
X14312920Y-15287150D02*
X14331968Y-15296674D01*
X14331968Y-15296674D02*
X14341491Y-15315722D01*
X14341491Y-15315722D02*
X14341491Y-15334769D01*
X14341491Y-15334769D02*
X14246253Y-15353817D01*
X14417682Y-15410960D02*
X14436730Y-15420484D01*
X14436730Y-15420484D02*
X14474825Y-15420484D01*
X14474825Y-15420484D02*
X14493872Y-15410960D01*
X14493872Y-15410960D02*
X14503396Y-15391912D01*
X14503396Y-15391912D02*
X14503396Y-15382388D01*
X14503396Y-15382388D02*
X14493872Y-15363341D01*
X14493872Y-15363341D02*
X14474825Y-15353817D01*
X14474825Y-15353817D02*
X14446253Y-15353817D01*
X14446253Y-15353817D02*
X14427206Y-15344293D01*
X14427206Y-15344293D02*
X14417682Y-15325246D01*
X14417682Y-15325246D02*
X14417682Y-15315722D01*
X14417682Y-15315722D02*
X14427206Y-15296674D01*
X14427206Y-15296674D02*
X14446253Y-15287150D01*
X14446253Y-15287150D02*
X14474825Y-15287150D01*
X14474825Y-15287150D02*
X14493872Y-15296674D01*
X14570063Y-15496674D02*
X14579587Y-15487150D01*
X14579587Y-15487150D02*
X14598634Y-15458579D01*
X14598634Y-15458579D02*
X14608158Y-15439531D01*
X14608158Y-15439531D02*
X14617682Y-15410960D01*
X14617682Y-15410960D02*
X14627206Y-15363341D01*
X14627206Y-15363341D02*
X14627206Y-15325246D01*
X14627206Y-15325246D02*
X14617682Y-15277627D01*
X14617682Y-15277627D02*
X14608158Y-15249055D01*
X14608158Y-15249055D02*
X14598634Y-15230008D01*
X14598634Y-15230008D02*
X14579587Y-15201436D01*
X14579587Y-15201436D02*
X14570063Y-15191912D01*
D10*
X9757500Y-15555500D02*
X9757500Y-15630500D01*
X9720000Y-15593000D02*
X9795000Y-15593000D01*
D11*
X10093872Y-15484484D02*
X10112920Y-15484484D01*
X10112920Y-15484484D02*
X10131967Y-15494008D01*
X10131967Y-15494008D02*
X10141491Y-15503531D01*
X10141491Y-15503531D02*
X10151015Y-15522579D01*
X10151015Y-15522579D02*
X10160539Y-15560674D01*
X10160539Y-15560674D02*
X10160539Y-15608293D01*
X10160539Y-15608293D02*
X10151015Y-15646388D01*
X10151015Y-15646388D02*
X10141491Y-15665436D01*
X10141491Y-15665436D02*
X10131967Y-15674960D01*
X10131967Y-15674960D02*
X10112920Y-15684484D01*
X10112920Y-15684484D02*
X10093872Y-15684484D01*
X10093872Y-15684484D02*
X10074824Y-15674960D01*
X10074824Y-15674960D02*
X10065301Y-15665436D01*
X10065301Y-15665436D02*
X10055777Y-15646388D01*
X10055777Y-15646388D02*
X10046253Y-15608293D01*
X10046253Y-15608293D02*
X10046253Y-15560674D01*
X10046253Y-15560674D02*
X10055777Y-15522579D01*
X10055777Y-15522579D02*
X10065301Y-15503531D01*
X10065301Y-15503531D02*
X10074824Y-15494008D01*
X10074824Y-15494008D02*
X10093872Y-15484484D01*
X10246253Y-15665436D02*
X10255777Y-15674960D01*
X10255777Y-15674960D02*
X10246253Y-15684484D01*
X10246253Y-15684484D02*
X10236729Y-15674960D01*
X10236729Y-15674960D02*
X10246253Y-15665436D01*
X10246253Y-15665436D02*
X10246253Y-15684484D01*
X10322444Y-15484484D02*
X10455777Y-15484484D01*
X10455777Y-15484484D02*
X10370063Y-15684484D01*
X10627205Y-15484484D02*
X10531967Y-15484484D01*
X10531967Y-15484484D02*
X10522444Y-15579722D01*
X10522444Y-15579722D02*
X10531967Y-15570198D01*
X10531967Y-15570198D02*
X10551015Y-15560674D01*
X10551015Y-15560674D02*
X10598634Y-15560674D01*
X10598634Y-15560674D02*
X10617682Y-15570198D01*
X10617682Y-15570198D02*
X10627205Y-15579722D01*
X10627205Y-15579722D02*
X10636729Y-15598769D01*
X10636729Y-15598769D02*
X10636729Y-15646388D01*
X10636729Y-15646388D02*
X10627205Y-15665436D01*
X10627205Y-15665436D02*
X10617682Y-15674960D01*
X10617682Y-15674960D02*
X10598634Y-15684484D01*
X10598634Y-15684484D02*
X10551015Y-15684484D01*
X10551015Y-15684484D02*
X10531967Y-15674960D01*
X10531967Y-15674960D02*
X10522444Y-15665436D01*
X10760539Y-15484484D02*
X10779586Y-15484484D01*
X10779586Y-15484484D02*
X10798634Y-15494008D01*
X10798634Y-15494008D02*
X10808158Y-15503531D01*
X10808158Y-15503531D02*
X10817682Y-15522579D01*
X10817682Y-15522579D02*
X10827205Y-15560674D01*
X10827205Y-15560674D02*
X10827205Y-15608293D01*
X10827205Y-15608293D02*
X10817682Y-15646388D01*
X10817682Y-15646388D02*
X10808158Y-15665436D01*
X10808158Y-15665436D02*
X10798634Y-15674960D01*
X10798634Y-15674960D02*
X10779586Y-15684484D01*
X10779586Y-15684484D02*
X10760539Y-15684484D01*
X10760539Y-15684484D02*
X10741491Y-15674960D01*
X10741491Y-15674960D02*
X10731967Y-15665436D01*
X10731967Y-15665436D02*
X10722444Y-15646388D01*
X10722444Y-15646388D02*
X10712920Y-15608293D01*
X10712920Y-15608293D02*
X10712920Y-15560674D01*
X10712920Y-15560674D02*
X10722444Y-15522579D01*
X10722444Y-15522579D02*
X10731967Y-15503531D01*
X10731967Y-15503531D02*
X10741491Y-15494008D01*
X10741491Y-15494008D02*
X10760539Y-15484484D01*
X10912920Y-15684484D02*
X10912920Y-15551150D01*
X10912920Y-15570198D02*
X10922444Y-15560674D01*
X10922444Y-15560674D02*
X10941491Y-15551150D01*
X10941491Y-15551150D02*
X10970063Y-15551150D01*
X10970063Y-15551150D02*
X10989110Y-15560674D01*
X10989110Y-15560674D02*
X10998634Y-15579722D01*
X10998634Y-15579722D02*
X10998634Y-15684484D01*
X10998634Y-15579722D02*
X11008158Y-15560674D01*
X11008158Y-15560674D02*
X11027205Y-15551150D01*
X11027205Y-15551150D02*
X11055777Y-15551150D01*
X11055777Y-15551150D02*
X11074825Y-15560674D01*
X11074825Y-15560674D02*
X11084348Y-15579722D01*
X11084348Y-15579722D02*
X11084348Y-15684484D01*
X11179586Y-15684484D02*
X11179586Y-15551150D01*
X11179586Y-15570198D02*
X11189110Y-15560674D01*
X11189110Y-15560674D02*
X11208158Y-15551150D01*
X11208158Y-15551150D02*
X11236729Y-15551150D01*
X11236729Y-15551150D02*
X11255777Y-15560674D01*
X11255777Y-15560674D02*
X11265301Y-15579722D01*
X11265301Y-15579722D02*
X11265301Y-15684484D01*
X11265301Y-15579722D02*
X11274824Y-15560674D01*
X11274824Y-15560674D02*
X11293872Y-15551150D01*
X11293872Y-15551150D02*
X11322443Y-15551150D01*
X11322443Y-15551150D02*
X11341491Y-15560674D01*
X11341491Y-15560674D02*
X11351015Y-15579722D01*
X11351015Y-15579722D02*
X11351015Y-15684484D01*
X11741491Y-15474960D02*
X11570063Y-15732103D01*
X11998634Y-15484484D02*
X12017682Y-15484484D01*
X12017682Y-15484484D02*
X12036729Y-15494008D01*
X12036729Y-15494008D02*
X12046253Y-15503531D01*
X12046253Y-15503531D02*
X12055777Y-15522579D01*
X12055777Y-15522579D02*
X12065301Y-15560674D01*
X12065301Y-15560674D02*
X12065301Y-15608293D01*
X12065301Y-15608293D02*
X12055777Y-15646388D01*
X12055777Y-15646388D02*
X12046253Y-15665436D01*
X12046253Y-15665436D02*
X12036729Y-15674960D01*
X12036729Y-15674960D02*
X12017682Y-15684484D01*
X12017682Y-15684484D02*
X11998634Y-15684484D01*
X11998634Y-15684484D02*
X11979586Y-15674960D01*
X11979586Y-15674960D02*
X11970063Y-15665436D01*
X11970063Y-15665436D02*
X11960539Y-15646388D01*
X11960539Y-15646388D02*
X11951015Y-15608293D01*
X11951015Y-15608293D02*
X11951015Y-15560674D01*
X11951015Y-15560674D02*
X11960539Y-15522579D01*
X11960539Y-15522579D02*
X11970063Y-15503531D01*
X11970063Y-15503531D02*
X11979586Y-15494008D01*
X11979586Y-15494008D02*
X11998634Y-15484484D01*
X12151015Y-15665436D02*
X12160539Y-15674960D01*
X12160539Y-15674960D02*
X12151015Y-15684484D01*
X12151015Y-15684484D02*
X12141491Y-15674960D01*
X12141491Y-15674960D02*
X12151015Y-15665436D01*
X12151015Y-15665436D02*
X12151015Y-15684484D01*
X12284348Y-15484484D02*
X12303396Y-15484484D01*
X12303396Y-15484484D02*
X12322444Y-15494008D01*
X12322444Y-15494008D02*
X12331967Y-15503531D01*
X12331967Y-15503531D02*
X12341491Y-15522579D01*
X12341491Y-15522579D02*
X12351015Y-15560674D01*
X12351015Y-15560674D02*
X12351015Y-15608293D01*
X12351015Y-15608293D02*
X12341491Y-15646388D01*
X12341491Y-15646388D02*
X12331967Y-15665436D01*
X12331967Y-15665436D02*
X12322444Y-15674960D01*
X12322444Y-15674960D02*
X12303396Y-15684484D01*
X12303396Y-15684484D02*
X12284348Y-15684484D01*
X12284348Y-15684484D02*
X12265301Y-15674960D01*
X12265301Y-15674960D02*
X12255777Y-15665436D01*
X12255777Y-15665436D02*
X12246253Y-15646388D01*
X12246253Y-15646388D02*
X12236729Y-15608293D01*
X12236729Y-15608293D02*
X12236729Y-15560674D01*
X12236729Y-15560674D02*
X12246253Y-15522579D01*
X12246253Y-15522579D02*
X12255777Y-15503531D01*
X12255777Y-15503531D02*
X12265301Y-15494008D01*
X12265301Y-15494008D02*
X12284348Y-15484484D01*
X12427206Y-15503531D02*
X12436729Y-15494008D01*
X12436729Y-15494008D02*
X12455777Y-15484484D01*
X12455777Y-15484484D02*
X12503396Y-15484484D01*
X12503396Y-15484484D02*
X12522444Y-15494008D01*
X12522444Y-15494008D02*
X12531967Y-15503531D01*
X12531967Y-15503531D02*
X12541491Y-15522579D01*
X12541491Y-15522579D02*
X12541491Y-15541627D01*
X12541491Y-15541627D02*
X12531967Y-15570198D01*
X12531967Y-15570198D02*
X12417682Y-15684484D01*
X12417682Y-15684484D02*
X12541491Y-15684484D01*
X12636729Y-15684484D02*
X12674825Y-15684484D01*
X12674825Y-15684484D02*
X12693872Y-15674960D01*
X12693872Y-15674960D02*
X12703396Y-15665436D01*
X12703396Y-15665436D02*
X12722444Y-15636865D01*
X12722444Y-15636865D02*
X12731967Y-15598769D01*
X12731967Y-15598769D02*
X12731967Y-15522579D01*
X12731967Y-15522579D02*
X12722444Y-15503531D01*
X12722444Y-15503531D02*
X12712920Y-15494008D01*
X12712920Y-15494008D02*
X12693872Y-15484484D01*
X12693872Y-15484484D02*
X12655777Y-15484484D01*
X12655777Y-15484484D02*
X12636729Y-15494008D01*
X12636729Y-15494008D02*
X12627206Y-15503531D01*
X12627206Y-15503531D02*
X12617682Y-15522579D01*
X12617682Y-15522579D02*
X12617682Y-15570198D01*
X12617682Y-15570198D02*
X12627206Y-15589246D01*
X12627206Y-15589246D02*
X12636729Y-15598769D01*
X12636729Y-15598769D02*
X12655777Y-15608293D01*
X12655777Y-15608293D02*
X12693872Y-15608293D01*
X12693872Y-15608293D02*
X12712920Y-15598769D01*
X12712920Y-15598769D02*
X12722444Y-15589246D01*
X12722444Y-15589246D02*
X12731967Y-15570198D01*
X12912920Y-15484484D02*
X12817682Y-15484484D01*
X12817682Y-15484484D02*
X12808158Y-15579722D01*
X12808158Y-15579722D02*
X12817682Y-15570198D01*
X12817682Y-15570198D02*
X12836729Y-15560674D01*
X12836729Y-15560674D02*
X12884348Y-15560674D01*
X12884348Y-15560674D02*
X12903396Y-15570198D01*
X12903396Y-15570198D02*
X12912920Y-15579722D01*
X12912920Y-15579722D02*
X12922444Y-15598769D01*
X12922444Y-15598769D02*
X12922444Y-15646388D01*
X12922444Y-15646388D02*
X12912920Y-15665436D01*
X12912920Y-15665436D02*
X12903396Y-15674960D01*
X12903396Y-15674960D02*
X12884348Y-15684484D01*
X12884348Y-15684484D02*
X12836729Y-15684484D01*
X12836729Y-15684484D02*
X12817682Y-15674960D01*
X12817682Y-15674960D02*
X12808158Y-15665436D01*
X12998634Y-15484484D02*
X12998634Y-15522579D01*
X13074825Y-15484484D02*
X13074825Y-15522579D01*
X13370063Y-15760674D02*
X13360539Y-15751150D01*
X13360539Y-15751150D02*
X13341491Y-15722579D01*
X13341491Y-15722579D02*
X13331968Y-15703531D01*
X13331968Y-15703531D02*
X13322444Y-15674960D01*
X13322444Y-15674960D02*
X13312920Y-15627341D01*
X13312920Y-15627341D02*
X13312920Y-15589246D01*
X13312920Y-15589246D02*
X13322444Y-15541627D01*
X13322444Y-15541627D02*
X13331968Y-15513055D01*
X13331968Y-15513055D02*
X13341491Y-15494008D01*
X13341491Y-15494008D02*
X13360539Y-15465436D01*
X13360539Y-15465436D02*
X13370063Y-15455912D01*
X13531968Y-15484484D02*
X13493872Y-15484484D01*
X13493872Y-15484484D02*
X13474825Y-15494008D01*
X13474825Y-15494008D02*
X13465301Y-15503531D01*
X13465301Y-15503531D02*
X13446253Y-15532103D01*
X13446253Y-15532103D02*
X13436729Y-15570198D01*
X13436729Y-15570198D02*
X13436729Y-15646388D01*
X13436729Y-15646388D02*
X13446253Y-15665436D01*
X13446253Y-15665436D02*
X13455777Y-15674960D01*
X13455777Y-15674960D02*
X13474825Y-15684484D01*
X13474825Y-15684484D02*
X13512920Y-15684484D01*
X13512920Y-15684484D02*
X13531968Y-15674960D01*
X13531968Y-15674960D02*
X13541491Y-15665436D01*
X13541491Y-15665436D02*
X13551015Y-15646388D01*
X13551015Y-15646388D02*
X13551015Y-15598769D01*
X13551015Y-15598769D02*
X13541491Y-15579722D01*
X13541491Y-15579722D02*
X13531968Y-15570198D01*
X13531968Y-15570198D02*
X13512920Y-15560674D01*
X13512920Y-15560674D02*
X13474825Y-15560674D01*
X13474825Y-15560674D02*
X13455777Y-15570198D01*
X13455777Y-15570198D02*
X13446253Y-15579722D01*
X13446253Y-15579722D02*
X13436729Y-15598769D01*
X13789110Y-15684484D02*
X13789110Y-15484484D01*
X13874825Y-15684484D02*
X13874825Y-15579722D01*
X13874825Y-15579722D02*
X13865301Y-15560674D01*
X13865301Y-15560674D02*
X13846253Y-15551150D01*
X13846253Y-15551150D02*
X13817682Y-15551150D01*
X13817682Y-15551150D02*
X13798634Y-15560674D01*
X13798634Y-15560674D02*
X13789110Y-15570198D01*
X13998634Y-15684484D02*
X13979587Y-15674960D01*
X13979587Y-15674960D02*
X13970063Y-15665436D01*
X13970063Y-15665436D02*
X13960539Y-15646388D01*
X13960539Y-15646388D02*
X13960539Y-15589246D01*
X13960539Y-15589246D02*
X13970063Y-15570198D01*
X13970063Y-15570198D02*
X13979587Y-15560674D01*
X13979587Y-15560674D02*
X13998634Y-15551150D01*
X13998634Y-15551150D02*
X14027206Y-15551150D01*
X14027206Y-15551150D02*
X14046253Y-15560674D01*
X14046253Y-15560674D02*
X14055777Y-15570198D01*
X14055777Y-15570198D02*
X14065301Y-15589246D01*
X14065301Y-15589246D02*
X14065301Y-15646388D01*
X14065301Y-15646388D02*
X14055777Y-15665436D01*
X14055777Y-15665436D02*
X14046253Y-15674960D01*
X14046253Y-15674960D02*
X14027206Y-15684484D01*
X14027206Y-15684484D02*
X13998634Y-15684484D01*
X14179587Y-15684484D02*
X14160539Y-15674960D01*
X14160539Y-15674960D02*
X14151015Y-15655912D01*
X14151015Y-15655912D02*
X14151015Y-15484484D01*
X14331968Y-15674960D02*
X14312920Y-15684484D01*
X14312920Y-15684484D02*
X14274825Y-15684484D01*
X14274825Y-15684484D02*
X14255777Y-15674960D01*
X14255777Y-15674960D02*
X14246253Y-15655912D01*
X14246253Y-15655912D02*
X14246253Y-15579722D01*
X14246253Y-15579722D02*
X14255777Y-15560674D01*
X14255777Y-15560674D02*
X14274825Y-15551150D01*
X14274825Y-15551150D02*
X14312920Y-15551150D01*
X14312920Y-15551150D02*
X14331968Y-15560674D01*
X14331968Y-15560674D02*
X14341491Y-15579722D01*
X14341491Y-15579722D02*
X14341491Y-15598769D01*
X14341491Y-15598769D02*
X14246253Y-15617817D01*
X14417682Y-15674960D02*
X14436730Y-15684484D01*
X14436730Y-15684484D02*
X14474825Y-15684484D01*
X14474825Y-15684484D02*
X14493872Y-15674960D01*
X14493872Y-15674960D02*
X14503396Y-15655912D01*
X14503396Y-15655912D02*
X14503396Y-15646388D01*
X14503396Y-15646388D02*
X14493872Y-15627341D01*
X14493872Y-15627341D02*
X14474825Y-15617817D01*
X14474825Y-15617817D02*
X14446253Y-15617817D01*
X14446253Y-15617817D02*
X14427206Y-15608293D01*
X14427206Y-15608293D02*
X14417682Y-15589246D01*
X14417682Y-15589246D02*
X14417682Y-15579722D01*
X14417682Y-15579722D02*
X14427206Y-15560674D01*
X14427206Y-15560674D02*
X14446253Y-15551150D01*
X14446253Y-15551150D02*
X14474825Y-15551150D01*
X14474825Y-15551150D02*
X14493872Y-15560674D01*
X14570063Y-15760674D02*
X14579587Y-15751150D01*
X14579587Y-15751150D02*
X14598634Y-15722579D01*
X14598634Y-15722579D02*
X14608158Y-15703531D01*
X14608158Y-15703531D02*
X14617682Y-15674960D01*
X14617682Y-15674960D02*
X14627206Y-15627341D01*
X14627206Y-15627341D02*
X14627206Y-15589246D01*
X14627206Y-15589246D02*
X14617682Y-15541627D01*
X14617682Y-15541627D02*
X14608158Y-15513055D01*
X14608158Y-15513055D02*
X14598634Y-15494008D01*
X14598634Y-15494008D02*
X14579587Y-15465436D01*
X14579587Y-15465436D02*
X14570063Y-15455912D01*
D10*
X9783841Y-15883941D02*
X9783841Y-15830059D01*
X9729959Y-15830059D01*
X9729959Y-15883941D01*
X9783841Y-15883941D01*
D11*
X10093872Y-15748484D02*
X10112920Y-15748484D01*
X10112920Y-15748484D02*
X10131967Y-15758008D01*
X10131967Y-15758008D02*
X10141491Y-15767531D01*
X10141491Y-15767531D02*
X10151015Y-15786579D01*
X10151015Y-15786579D02*
X10160539Y-15824674D01*
X10160539Y-15824674D02*
X10160539Y-15872293D01*
X10160539Y-15872293D02*
X10151015Y-15910388D01*
X10151015Y-15910388D02*
X10141491Y-15929436D01*
X10141491Y-15929436D02*
X10131967Y-15938960D01*
X10131967Y-15938960D02*
X10112920Y-15948484D01*
X10112920Y-15948484D02*
X10093872Y-15948484D01*
X10093872Y-15948484D02*
X10074824Y-15938960D01*
X10074824Y-15938960D02*
X10065301Y-15929436D01*
X10065301Y-15929436D02*
X10055777Y-15910388D01*
X10055777Y-15910388D02*
X10046253Y-15872293D01*
X10046253Y-15872293D02*
X10046253Y-15824674D01*
X10046253Y-15824674D02*
X10055777Y-15786579D01*
X10055777Y-15786579D02*
X10065301Y-15767531D01*
X10065301Y-15767531D02*
X10074824Y-15758008D01*
X10074824Y-15758008D02*
X10093872Y-15748484D01*
X10246253Y-15929436D02*
X10255777Y-15938960D01*
X10255777Y-15938960D02*
X10246253Y-15948484D01*
X10246253Y-15948484D02*
X10236729Y-15938960D01*
X10236729Y-15938960D02*
X10246253Y-15929436D01*
X10246253Y-15929436D02*
X10246253Y-15948484D01*
X10322444Y-15748484D02*
X10455777Y-15748484D01*
X10455777Y-15748484D02*
X10370063Y-15948484D01*
X10617682Y-15748484D02*
X10579586Y-15748484D01*
X10579586Y-15748484D02*
X10560539Y-15758008D01*
X10560539Y-15758008D02*
X10551015Y-15767531D01*
X10551015Y-15767531D02*
X10531967Y-15796103D01*
X10531967Y-15796103D02*
X10522444Y-15834198D01*
X10522444Y-15834198D02*
X10522444Y-15910388D01*
X10522444Y-15910388D02*
X10531967Y-15929436D01*
X10531967Y-15929436D02*
X10541491Y-15938960D01*
X10541491Y-15938960D02*
X10560539Y-15948484D01*
X10560539Y-15948484D02*
X10598634Y-15948484D01*
X10598634Y-15948484D02*
X10617682Y-15938960D01*
X10617682Y-15938960D02*
X10627205Y-15929436D01*
X10627205Y-15929436D02*
X10636729Y-15910388D01*
X10636729Y-15910388D02*
X10636729Y-15862769D01*
X10636729Y-15862769D02*
X10627205Y-15843722D01*
X10627205Y-15843722D02*
X10617682Y-15834198D01*
X10617682Y-15834198D02*
X10598634Y-15824674D01*
X10598634Y-15824674D02*
X10560539Y-15824674D01*
X10560539Y-15824674D02*
X10541491Y-15834198D01*
X10541491Y-15834198D02*
X10531967Y-15843722D01*
X10531967Y-15843722D02*
X10522444Y-15862769D01*
X10712920Y-15767531D02*
X10722444Y-15758008D01*
X10722444Y-15758008D02*
X10741491Y-15748484D01*
X10741491Y-15748484D02*
X10789110Y-15748484D01*
X10789110Y-15748484D02*
X10808158Y-15758008D01*
X10808158Y-15758008D02*
X10817682Y-15767531D01*
X10817682Y-15767531D02*
X10827205Y-15786579D01*
X10827205Y-15786579D02*
X10827205Y-15805627D01*
X10827205Y-15805627D02*
X10817682Y-15834198D01*
X10817682Y-15834198D02*
X10703396Y-15948484D01*
X10703396Y-15948484D02*
X10827205Y-15948484D01*
X10912920Y-15948484D02*
X10912920Y-15815150D01*
X10912920Y-15834198D02*
X10922444Y-15824674D01*
X10922444Y-15824674D02*
X10941491Y-15815150D01*
X10941491Y-15815150D02*
X10970063Y-15815150D01*
X10970063Y-15815150D02*
X10989110Y-15824674D01*
X10989110Y-15824674D02*
X10998634Y-15843722D01*
X10998634Y-15843722D02*
X10998634Y-15948484D01*
X10998634Y-15843722D02*
X11008158Y-15824674D01*
X11008158Y-15824674D02*
X11027205Y-15815150D01*
X11027205Y-15815150D02*
X11055777Y-15815150D01*
X11055777Y-15815150D02*
X11074825Y-15824674D01*
X11074825Y-15824674D02*
X11084348Y-15843722D01*
X11084348Y-15843722D02*
X11084348Y-15948484D01*
X11179586Y-15948484D02*
X11179586Y-15815150D01*
X11179586Y-15834198D02*
X11189110Y-15824674D01*
X11189110Y-15824674D02*
X11208158Y-15815150D01*
X11208158Y-15815150D02*
X11236729Y-15815150D01*
X11236729Y-15815150D02*
X11255777Y-15824674D01*
X11255777Y-15824674D02*
X11265301Y-15843722D01*
X11265301Y-15843722D02*
X11265301Y-15948484D01*
X11265301Y-15843722D02*
X11274824Y-15824674D01*
X11274824Y-15824674D02*
X11293872Y-15815150D01*
X11293872Y-15815150D02*
X11322443Y-15815150D01*
X11322443Y-15815150D02*
X11341491Y-15824674D01*
X11341491Y-15824674D02*
X11351015Y-15843722D01*
X11351015Y-15843722D02*
X11351015Y-15948484D01*
X11741491Y-15738960D02*
X11570063Y-15996103D01*
X11998634Y-15748484D02*
X12017682Y-15748484D01*
X12017682Y-15748484D02*
X12036729Y-15758008D01*
X12036729Y-15758008D02*
X12046253Y-15767531D01*
X12046253Y-15767531D02*
X12055777Y-15786579D01*
X12055777Y-15786579D02*
X12065301Y-15824674D01*
X12065301Y-15824674D02*
X12065301Y-15872293D01*
X12065301Y-15872293D02*
X12055777Y-15910388D01*
X12055777Y-15910388D02*
X12046253Y-15929436D01*
X12046253Y-15929436D02*
X12036729Y-15938960D01*
X12036729Y-15938960D02*
X12017682Y-15948484D01*
X12017682Y-15948484D02*
X11998634Y-15948484D01*
X11998634Y-15948484D02*
X11979586Y-15938960D01*
X11979586Y-15938960D02*
X11970063Y-15929436D01*
X11970063Y-15929436D02*
X11960539Y-15910388D01*
X11960539Y-15910388D02*
X11951015Y-15872293D01*
X11951015Y-15872293D02*
X11951015Y-15824674D01*
X11951015Y-15824674D02*
X11960539Y-15786579D01*
X11960539Y-15786579D02*
X11970063Y-15767531D01*
X11970063Y-15767531D02*
X11979586Y-15758008D01*
X11979586Y-15758008D02*
X11998634Y-15748484D01*
X12151015Y-15929436D02*
X12160539Y-15938960D01*
X12160539Y-15938960D02*
X12151015Y-15948484D01*
X12151015Y-15948484D02*
X12141491Y-15938960D01*
X12141491Y-15938960D02*
X12151015Y-15929436D01*
X12151015Y-15929436D02*
X12151015Y-15948484D01*
X12284348Y-15748484D02*
X12303396Y-15748484D01*
X12303396Y-15748484D02*
X12322444Y-15758008D01*
X12322444Y-15758008D02*
X12331967Y-15767531D01*
X12331967Y-15767531D02*
X12341491Y-15786579D01*
X12341491Y-15786579D02*
X12351015Y-15824674D01*
X12351015Y-15824674D02*
X12351015Y-15872293D01*
X12351015Y-15872293D02*
X12341491Y-15910388D01*
X12341491Y-15910388D02*
X12331967Y-15929436D01*
X12331967Y-15929436D02*
X12322444Y-15938960D01*
X12322444Y-15938960D02*
X12303396Y-15948484D01*
X12303396Y-15948484D02*
X12284348Y-15948484D01*
X12284348Y-15948484D02*
X12265301Y-15938960D01*
X12265301Y-15938960D02*
X12255777Y-15929436D01*
X12255777Y-15929436D02*
X12246253Y-15910388D01*
X12246253Y-15910388D02*
X12236729Y-15872293D01*
X12236729Y-15872293D02*
X12236729Y-15824674D01*
X12236729Y-15824674D02*
X12246253Y-15786579D01*
X12246253Y-15786579D02*
X12255777Y-15767531D01*
X12255777Y-15767531D02*
X12265301Y-15758008D01*
X12265301Y-15758008D02*
X12284348Y-15748484D01*
X12417682Y-15748484D02*
X12541491Y-15748484D01*
X12541491Y-15748484D02*
X12474825Y-15824674D01*
X12474825Y-15824674D02*
X12503396Y-15824674D01*
X12503396Y-15824674D02*
X12522444Y-15834198D01*
X12522444Y-15834198D02*
X12531967Y-15843722D01*
X12531967Y-15843722D02*
X12541491Y-15862769D01*
X12541491Y-15862769D02*
X12541491Y-15910388D01*
X12541491Y-15910388D02*
X12531967Y-15929436D01*
X12531967Y-15929436D02*
X12522444Y-15938960D01*
X12522444Y-15938960D02*
X12503396Y-15948484D01*
X12503396Y-15948484D02*
X12446253Y-15948484D01*
X12446253Y-15948484D02*
X12427206Y-15938960D01*
X12427206Y-15938960D02*
X12417682Y-15929436D01*
X12665301Y-15748484D02*
X12684348Y-15748484D01*
X12684348Y-15748484D02*
X12703396Y-15758008D01*
X12703396Y-15758008D02*
X12712920Y-15767531D01*
X12712920Y-15767531D02*
X12722444Y-15786579D01*
X12722444Y-15786579D02*
X12731967Y-15824674D01*
X12731967Y-15824674D02*
X12731967Y-15872293D01*
X12731967Y-15872293D02*
X12722444Y-15910388D01*
X12722444Y-15910388D02*
X12712920Y-15929436D01*
X12712920Y-15929436D02*
X12703396Y-15938960D01*
X12703396Y-15938960D02*
X12684348Y-15948484D01*
X12684348Y-15948484D02*
X12665301Y-15948484D01*
X12665301Y-15948484D02*
X12646253Y-15938960D01*
X12646253Y-15938960D02*
X12636729Y-15929436D01*
X12636729Y-15929436D02*
X12627206Y-15910388D01*
X12627206Y-15910388D02*
X12617682Y-15872293D01*
X12617682Y-15872293D02*
X12617682Y-15824674D01*
X12617682Y-15824674D02*
X12627206Y-15786579D01*
X12627206Y-15786579D02*
X12636729Y-15767531D01*
X12636729Y-15767531D02*
X12646253Y-15758008D01*
X12646253Y-15758008D02*
X12665301Y-15748484D01*
X12855777Y-15748484D02*
X12874825Y-15748484D01*
X12874825Y-15748484D02*
X12893872Y-15758008D01*
X12893872Y-15758008D02*
X12903396Y-15767531D01*
X12903396Y-15767531D02*
X12912920Y-15786579D01*
X12912920Y-15786579D02*
X12922444Y-15824674D01*
X12922444Y-15824674D02*
X12922444Y-15872293D01*
X12922444Y-15872293D02*
X12912920Y-15910388D01*
X12912920Y-15910388D02*
X12903396Y-15929436D01*
X12903396Y-15929436D02*
X12893872Y-15938960D01*
X12893872Y-15938960D02*
X12874825Y-15948484D01*
X12874825Y-15948484D02*
X12855777Y-15948484D01*
X12855777Y-15948484D02*
X12836729Y-15938960D01*
X12836729Y-15938960D02*
X12827206Y-15929436D01*
X12827206Y-15929436D02*
X12817682Y-15910388D01*
X12817682Y-15910388D02*
X12808158Y-15872293D01*
X12808158Y-15872293D02*
X12808158Y-15824674D01*
X12808158Y-15824674D02*
X12817682Y-15786579D01*
X12817682Y-15786579D02*
X12827206Y-15767531D01*
X12827206Y-15767531D02*
X12836729Y-15758008D01*
X12836729Y-15758008D02*
X12855777Y-15748484D01*
X12998634Y-15748484D02*
X12998634Y-15786579D01*
X13074825Y-15748484D02*
X13074825Y-15786579D01*
X13370063Y-16024674D02*
X13360539Y-16015150D01*
X13360539Y-16015150D02*
X13341491Y-15986579D01*
X13341491Y-15986579D02*
X13331968Y-15967531D01*
X13331968Y-15967531D02*
X13322444Y-15938960D01*
X13322444Y-15938960D02*
X13312920Y-15891341D01*
X13312920Y-15891341D02*
X13312920Y-15853246D01*
X13312920Y-15853246D02*
X13322444Y-15805627D01*
X13322444Y-15805627D02*
X13331968Y-15777055D01*
X13331968Y-15777055D02*
X13341491Y-15758008D01*
X13341491Y-15758008D02*
X13360539Y-15729436D01*
X13360539Y-15729436D02*
X13370063Y-15719912D01*
X13474825Y-15834198D02*
X13455777Y-15824674D01*
X13455777Y-15824674D02*
X13446253Y-15815150D01*
X13446253Y-15815150D02*
X13436729Y-15796103D01*
X13436729Y-15796103D02*
X13436729Y-15786579D01*
X13436729Y-15786579D02*
X13446253Y-15767531D01*
X13446253Y-15767531D02*
X13455777Y-15758008D01*
X13455777Y-15758008D02*
X13474825Y-15748484D01*
X13474825Y-15748484D02*
X13512920Y-15748484D01*
X13512920Y-15748484D02*
X13531968Y-15758008D01*
X13531968Y-15758008D02*
X13541491Y-15767531D01*
X13541491Y-15767531D02*
X13551015Y-15786579D01*
X13551015Y-15786579D02*
X13551015Y-15796103D01*
X13551015Y-15796103D02*
X13541491Y-15815150D01*
X13541491Y-15815150D02*
X13531968Y-15824674D01*
X13531968Y-15824674D02*
X13512920Y-15834198D01*
X13512920Y-15834198D02*
X13474825Y-15834198D01*
X13474825Y-15834198D02*
X13455777Y-15843722D01*
X13455777Y-15843722D02*
X13446253Y-15853246D01*
X13446253Y-15853246D02*
X13436729Y-15872293D01*
X13436729Y-15872293D02*
X13436729Y-15910388D01*
X13436729Y-15910388D02*
X13446253Y-15929436D01*
X13446253Y-15929436D02*
X13455777Y-15938960D01*
X13455777Y-15938960D02*
X13474825Y-15948484D01*
X13474825Y-15948484D02*
X13512920Y-15948484D01*
X13512920Y-15948484D02*
X13531968Y-15938960D01*
X13531968Y-15938960D02*
X13541491Y-15929436D01*
X13541491Y-15929436D02*
X13551015Y-15910388D01*
X13551015Y-15910388D02*
X13551015Y-15872293D01*
X13551015Y-15872293D02*
X13541491Y-15853246D01*
X13541491Y-15853246D02*
X13531968Y-15843722D01*
X13531968Y-15843722D02*
X13512920Y-15834198D01*
X13789110Y-15948484D02*
X13789110Y-15748484D01*
X13874825Y-15948484D02*
X13874825Y-15843722D01*
X13874825Y-15843722D02*
X13865301Y-15824674D01*
X13865301Y-15824674D02*
X13846253Y-15815150D01*
X13846253Y-15815150D02*
X13817682Y-15815150D01*
X13817682Y-15815150D02*
X13798634Y-15824674D01*
X13798634Y-15824674D02*
X13789110Y-15834198D01*
X13998634Y-15948484D02*
X13979587Y-15938960D01*
X13979587Y-15938960D02*
X13970063Y-15929436D01*
X13970063Y-15929436D02*
X13960539Y-15910388D01*
X13960539Y-15910388D02*
X13960539Y-15853246D01*
X13960539Y-15853246D02*
X13970063Y-15834198D01*
X13970063Y-15834198D02*
X13979587Y-15824674D01*
X13979587Y-15824674D02*
X13998634Y-15815150D01*
X13998634Y-15815150D02*
X14027206Y-15815150D01*
X14027206Y-15815150D02*
X14046253Y-15824674D01*
X14046253Y-15824674D02*
X14055777Y-15834198D01*
X14055777Y-15834198D02*
X14065301Y-15853246D01*
X14065301Y-15853246D02*
X14065301Y-15910388D01*
X14065301Y-15910388D02*
X14055777Y-15929436D01*
X14055777Y-15929436D02*
X14046253Y-15938960D01*
X14046253Y-15938960D02*
X14027206Y-15948484D01*
X14027206Y-15948484D02*
X13998634Y-15948484D01*
X14179587Y-15948484D02*
X14160539Y-15938960D01*
X14160539Y-15938960D02*
X14151015Y-15919912D01*
X14151015Y-15919912D02*
X14151015Y-15748484D01*
X14331968Y-15938960D02*
X14312920Y-15948484D01*
X14312920Y-15948484D02*
X14274825Y-15948484D01*
X14274825Y-15948484D02*
X14255777Y-15938960D01*
X14255777Y-15938960D02*
X14246253Y-15919912D01*
X14246253Y-15919912D02*
X14246253Y-15843722D01*
X14246253Y-15843722D02*
X14255777Y-15824674D01*
X14255777Y-15824674D02*
X14274825Y-15815150D01*
X14274825Y-15815150D02*
X14312920Y-15815150D01*
X14312920Y-15815150D02*
X14331968Y-15824674D01*
X14331968Y-15824674D02*
X14341491Y-15843722D01*
X14341491Y-15843722D02*
X14341491Y-15862769D01*
X14341491Y-15862769D02*
X14246253Y-15881817D01*
X14417682Y-15938960D02*
X14436730Y-15948484D01*
X14436730Y-15948484D02*
X14474825Y-15948484D01*
X14474825Y-15948484D02*
X14493872Y-15938960D01*
X14493872Y-15938960D02*
X14503396Y-15919912D01*
X14503396Y-15919912D02*
X14503396Y-15910388D01*
X14503396Y-15910388D02*
X14493872Y-15891341D01*
X14493872Y-15891341D02*
X14474825Y-15881817D01*
X14474825Y-15881817D02*
X14446253Y-15881817D01*
X14446253Y-15881817D02*
X14427206Y-15872293D01*
X14427206Y-15872293D02*
X14417682Y-15853246D01*
X14417682Y-15853246D02*
X14417682Y-15843722D01*
X14417682Y-15843722D02*
X14427206Y-15824674D01*
X14427206Y-15824674D02*
X14446253Y-15815150D01*
X14446253Y-15815150D02*
X14474825Y-15815150D01*
X14474825Y-15815150D02*
X14493872Y-15824674D01*
X14570063Y-16024674D02*
X14579587Y-16015150D01*
X14579587Y-16015150D02*
X14598634Y-15986579D01*
X14598634Y-15986579D02*
X14608158Y-15967531D01*
X14608158Y-15967531D02*
X14617682Y-15938960D01*
X14617682Y-15938960D02*
X14627206Y-15891341D01*
X14627206Y-15891341D02*
X14627206Y-15853246D01*
X14627206Y-15853246D02*
X14617682Y-15805627D01*
X14617682Y-15805627D02*
X14608158Y-15777055D01*
X14608158Y-15777055D02*
X14598634Y-15758008D01*
X14598634Y-15758008D02*
X14579587Y-15729436D01*
X14579587Y-15729436D02*
X14570063Y-15719912D01*
D10*
X9755000Y-16161000D02*
X9795000Y-16121000D01*
X9755000Y-16081000D01*
X9715000Y-16121000D01*
X9755000Y-16161000D01*
D11*
X10093872Y-16012484D02*
X10112920Y-16012484D01*
X10112920Y-16012484D02*
X10131967Y-16022008D01*
X10131967Y-16022008D02*
X10141491Y-16031531D01*
X10141491Y-16031531D02*
X10151015Y-16050579D01*
X10151015Y-16050579D02*
X10160539Y-16088674D01*
X10160539Y-16088674D02*
X10160539Y-16136293D01*
X10160539Y-16136293D02*
X10151015Y-16174388D01*
X10151015Y-16174388D02*
X10141491Y-16193436D01*
X10141491Y-16193436D02*
X10131967Y-16202960D01*
X10131967Y-16202960D02*
X10112920Y-16212484D01*
X10112920Y-16212484D02*
X10093872Y-16212484D01*
X10093872Y-16212484D02*
X10074824Y-16202960D01*
X10074824Y-16202960D02*
X10065301Y-16193436D01*
X10065301Y-16193436D02*
X10055777Y-16174388D01*
X10055777Y-16174388D02*
X10046253Y-16136293D01*
X10046253Y-16136293D02*
X10046253Y-16088674D01*
X10046253Y-16088674D02*
X10055777Y-16050579D01*
X10055777Y-16050579D02*
X10065301Y-16031531D01*
X10065301Y-16031531D02*
X10074824Y-16022008D01*
X10074824Y-16022008D02*
X10093872Y-16012484D01*
X10246253Y-16193436D02*
X10255777Y-16202960D01*
X10255777Y-16202960D02*
X10246253Y-16212484D01*
X10246253Y-16212484D02*
X10236729Y-16202960D01*
X10236729Y-16202960D02*
X10246253Y-16193436D01*
X10246253Y-16193436D02*
X10246253Y-16212484D01*
X10370063Y-16098198D02*
X10351015Y-16088674D01*
X10351015Y-16088674D02*
X10341491Y-16079150D01*
X10341491Y-16079150D02*
X10331967Y-16060103D01*
X10331967Y-16060103D02*
X10331967Y-16050579D01*
X10331967Y-16050579D02*
X10341491Y-16031531D01*
X10341491Y-16031531D02*
X10351015Y-16022008D01*
X10351015Y-16022008D02*
X10370063Y-16012484D01*
X10370063Y-16012484D02*
X10408158Y-16012484D01*
X10408158Y-16012484D02*
X10427205Y-16022008D01*
X10427205Y-16022008D02*
X10436729Y-16031531D01*
X10436729Y-16031531D02*
X10446253Y-16050579D01*
X10446253Y-16050579D02*
X10446253Y-16060103D01*
X10446253Y-16060103D02*
X10436729Y-16079150D01*
X10436729Y-16079150D02*
X10427205Y-16088674D01*
X10427205Y-16088674D02*
X10408158Y-16098198D01*
X10408158Y-16098198D02*
X10370063Y-16098198D01*
X10370063Y-16098198D02*
X10351015Y-16107722D01*
X10351015Y-16107722D02*
X10341491Y-16117246D01*
X10341491Y-16117246D02*
X10331967Y-16136293D01*
X10331967Y-16136293D02*
X10331967Y-16174388D01*
X10331967Y-16174388D02*
X10341491Y-16193436D01*
X10341491Y-16193436D02*
X10351015Y-16202960D01*
X10351015Y-16202960D02*
X10370063Y-16212484D01*
X10370063Y-16212484D02*
X10408158Y-16212484D01*
X10408158Y-16212484D02*
X10427205Y-16202960D01*
X10427205Y-16202960D02*
X10436729Y-16193436D01*
X10436729Y-16193436D02*
X10446253Y-16174388D01*
X10446253Y-16174388D02*
X10446253Y-16136293D01*
X10446253Y-16136293D02*
X10436729Y-16117246D01*
X10436729Y-16117246D02*
X10427205Y-16107722D01*
X10427205Y-16107722D02*
X10408158Y-16098198D01*
X10570063Y-16012484D02*
X10589110Y-16012484D01*
X10589110Y-16012484D02*
X10608158Y-16022008D01*
X10608158Y-16022008D02*
X10617682Y-16031531D01*
X10617682Y-16031531D02*
X10627205Y-16050579D01*
X10627205Y-16050579D02*
X10636729Y-16088674D01*
X10636729Y-16088674D02*
X10636729Y-16136293D01*
X10636729Y-16136293D02*
X10627205Y-16174388D01*
X10627205Y-16174388D02*
X10617682Y-16193436D01*
X10617682Y-16193436D02*
X10608158Y-16202960D01*
X10608158Y-16202960D02*
X10589110Y-16212484D01*
X10589110Y-16212484D02*
X10570063Y-16212484D01*
X10570063Y-16212484D02*
X10551015Y-16202960D01*
X10551015Y-16202960D02*
X10541491Y-16193436D01*
X10541491Y-16193436D02*
X10531967Y-16174388D01*
X10531967Y-16174388D02*
X10522444Y-16136293D01*
X10522444Y-16136293D02*
X10522444Y-16088674D01*
X10522444Y-16088674D02*
X10531967Y-16050579D01*
X10531967Y-16050579D02*
X10541491Y-16031531D01*
X10541491Y-16031531D02*
X10551015Y-16022008D01*
X10551015Y-16022008D02*
X10570063Y-16012484D01*
X10760539Y-16012484D02*
X10779586Y-16012484D01*
X10779586Y-16012484D02*
X10798634Y-16022008D01*
X10798634Y-16022008D02*
X10808158Y-16031531D01*
X10808158Y-16031531D02*
X10817682Y-16050579D01*
X10817682Y-16050579D02*
X10827205Y-16088674D01*
X10827205Y-16088674D02*
X10827205Y-16136293D01*
X10827205Y-16136293D02*
X10817682Y-16174388D01*
X10817682Y-16174388D02*
X10808158Y-16193436D01*
X10808158Y-16193436D02*
X10798634Y-16202960D01*
X10798634Y-16202960D02*
X10779586Y-16212484D01*
X10779586Y-16212484D02*
X10760539Y-16212484D01*
X10760539Y-16212484D02*
X10741491Y-16202960D01*
X10741491Y-16202960D02*
X10731967Y-16193436D01*
X10731967Y-16193436D02*
X10722444Y-16174388D01*
X10722444Y-16174388D02*
X10712920Y-16136293D01*
X10712920Y-16136293D02*
X10712920Y-16088674D01*
X10712920Y-16088674D02*
X10722444Y-16050579D01*
X10722444Y-16050579D02*
X10731967Y-16031531D01*
X10731967Y-16031531D02*
X10741491Y-16022008D01*
X10741491Y-16022008D02*
X10760539Y-16012484D01*
X10912920Y-16212484D02*
X10912920Y-16079150D01*
X10912920Y-16098198D02*
X10922444Y-16088674D01*
X10922444Y-16088674D02*
X10941491Y-16079150D01*
X10941491Y-16079150D02*
X10970063Y-16079150D01*
X10970063Y-16079150D02*
X10989110Y-16088674D01*
X10989110Y-16088674D02*
X10998634Y-16107722D01*
X10998634Y-16107722D02*
X10998634Y-16212484D01*
X10998634Y-16107722D02*
X11008158Y-16088674D01*
X11008158Y-16088674D02*
X11027205Y-16079150D01*
X11027205Y-16079150D02*
X11055777Y-16079150D01*
X11055777Y-16079150D02*
X11074825Y-16088674D01*
X11074825Y-16088674D02*
X11084348Y-16107722D01*
X11084348Y-16107722D02*
X11084348Y-16212484D01*
X11179586Y-16212484D02*
X11179586Y-16079150D01*
X11179586Y-16098198D02*
X11189110Y-16088674D01*
X11189110Y-16088674D02*
X11208158Y-16079150D01*
X11208158Y-16079150D02*
X11236729Y-16079150D01*
X11236729Y-16079150D02*
X11255777Y-16088674D01*
X11255777Y-16088674D02*
X11265301Y-16107722D01*
X11265301Y-16107722D02*
X11265301Y-16212484D01*
X11265301Y-16107722D02*
X11274824Y-16088674D01*
X11274824Y-16088674D02*
X11293872Y-16079150D01*
X11293872Y-16079150D02*
X11322443Y-16079150D01*
X11322443Y-16079150D02*
X11341491Y-16088674D01*
X11341491Y-16088674D02*
X11351015Y-16107722D01*
X11351015Y-16107722D02*
X11351015Y-16212484D01*
X11741491Y-16002960D02*
X11570063Y-16260103D01*
X11998634Y-16012484D02*
X12017682Y-16012484D01*
X12017682Y-16012484D02*
X12036729Y-16022008D01*
X12036729Y-16022008D02*
X12046253Y-16031531D01*
X12046253Y-16031531D02*
X12055777Y-16050579D01*
X12055777Y-16050579D02*
X12065301Y-16088674D01*
X12065301Y-16088674D02*
X12065301Y-16136293D01*
X12065301Y-16136293D02*
X12055777Y-16174388D01*
X12055777Y-16174388D02*
X12046253Y-16193436D01*
X12046253Y-16193436D02*
X12036729Y-16202960D01*
X12036729Y-16202960D02*
X12017682Y-16212484D01*
X12017682Y-16212484D02*
X11998634Y-16212484D01*
X11998634Y-16212484D02*
X11979586Y-16202960D01*
X11979586Y-16202960D02*
X11970063Y-16193436D01*
X11970063Y-16193436D02*
X11960539Y-16174388D01*
X11960539Y-16174388D02*
X11951015Y-16136293D01*
X11951015Y-16136293D02*
X11951015Y-16088674D01*
X11951015Y-16088674D02*
X11960539Y-16050579D01*
X11960539Y-16050579D02*
X11970063Y-16031531D01*
X11970063Y-16031531D02*
X11979586Y-16022008D01*
X11979586Y-16022008D02*
X11998634Y-16012484D01*
X12151015Y-16193436D02*
X12160539Y-16202960D01*
X12160539Y-16202960D02*
X12151015Y-16212484D01*
X12151015Y-16212484D02*
X12141491Y-16202960D01*
X12141491Y-16202960D02*
X12151015Y-16193436D01*
X12151015Y-16193436D02*
X12151015Y-16212484D01*
X12284348Y-16012484D02*
X12303396Y-16012484D01*
X12303396Y-16012484D02*
X12322444Y-16022008D01*
X12322444Y-16022008D02*
X12331967Y-16031531D01*
X12331967Y-16031531D02*
X12341491Y-16050579D01*
X12341491Y-16050579D02*
X12351015Y-16088674D01*
X12351015Y-16088674D02*
X12351015Y-16136293D01*
X12351015Y-16136293D02*
X12341491Y-16174388D01*
X12341491Y-16174388D02*
X12331967Y-16193436D01*
X12331967Y-16193436D02*
X12322444Y-16202960D01*
X12322444Y-16202960D02*
X12303396Y-16212484D01*
X12303396Y-16212484D02*
X12284348Y-16212484D01*
X12284348Y-16212484D02*
X12265301Y-16202960D01*
X12265301Y-16202960D02*
X12255777Y-16193436D01*
X12255777Y-16193436D02*
X12246253Y-16174388D01*
X12246253Y-16174388D02*
X12236729Y-16136293D01*
X12236729Y-16136293D02*
X12236729Y-16088674D01*
X12236729Y-16088674D02*
X12246253Y-16050579D01*
X12246253Y-16050579D02*
X12255777Y-16031531D01*
X12255777Y-16031531D02*
X12265301Y-16022008D01*
X12265301Y-16022008D02*
X12284348Y-16012484D01*
X12417682Y-16012484D02*
X12541491Y-16012484D01*
X12541491Y-16012484D02*
X12474825Y-16088674D01*
X12474825Y-16088674D02*
X12503396Y-16088674D01*
X12503396Y-16088674D02*
X12522444Y-16098198D01*
X12522444Y-16098198D02*
X12531967Y-16107722D01*
X12531967Y-16107722D02*
X12541491Y-16126769D01*
X12541491Y-16126769D02*
X12541491Y-16174388D01*
X12541491Y-16174388D02*
X12531967Y-16193436D01*
X12531967Y-16193436D02*
X12522444Y-16202960D01*
X12522444Y-16202960D02*
X12503396Y-16212484D01*
X12503396Y-16212484D02*
X12446253Y-16212484D01*
X12446253Y-16212484D02*
X12427206Y-16202960D01*
X12427206Y-16202960D02*
X12417682Y-16193436D01*
X12731967Y-16212484D02*
X12617682Y-16212484D01*
X12674825Y-16212484D02*
X12674825Y-16012484D01*
X12674825Y-16012484D02*
X12655777Y-16041055D01*
X12655777Y-16041055D02*
X12636729Y-16060103D01*
X12636729Y-16060103D02*
X12617682Y-16069627D01*
X12912920Y-16012484D02*
X12817682Y-16012484D01*
X12817682Y-16012484D02*
X12808158Y-16107722D01*
X12808158Y-16107722D02*
X12817682Y-16098198D01*
X12817682Y-16098198D02*
X12836729Y-16088674D01*
X12836729Y-16088674D02*
X12884348Y-16088674D01*
X12884348Y-16088674D02*
X12903396Y-16098198D01*
X12903396Y-16098198D02*
X12912920Y-16107722D01*
X12912920Y-16107722D02*
X12922444Y-16126769D01*
X12922444Y-16126769D02*
X12922444Y-16174388D01*
X12922444Y-16174388D02*
X12912920Y-16193436D01*
X12912920Y-16193436D02*
X12903396Y-16202960D01*
X12903396Y-16202960D02*
X12884348Y-16212484D01*
X12884348Y-16212484D02*
X12836729Y-16212484D01*
X12836729Y-16212484D02*
X12817682Y-16202960D01*
X12817682Y-16202960D02*
X12808158Y-16193436D01*
X12998634Y-16012484D02*
X12998634Y-16050579D01*
X13074825Y-16012484D02*
X13074825Y-16050579D01*
X13370063Y-16288674D02*
X13360539Y-16279150D01*
X13360539Y-16279150D02*
X13341491Y-16250579D01*
X13341491Y-16250579D02*
X13331968Y-16231531D01*
X13331968Y-16231531D02*
X13322444Y-16202960D01*
X13322444Y-16202960D02*
X13312920Y-16155341D01*
X13312920Y-16155341D02*
X13312920Y-16117246D01*
X13312920Y-16117246D02*
X13322444Y-16069627D01*
X13322444Y-16069627D02*
X13331968Y-16041055D01*
X13331968Y-16041055D02*
X13341491Y-16022008D01*
X13341491Y-16022008D02*
X13360539Y-15993436D01*
X13360539Y-15993436D02*
X13370063Y-15983912D01*
X13427206Y-16012484D02*
X13551015Y-16012484D01*
X13551015Y-16012484D02*
X13484348Y-16088674D01*
X13484348Y-16088674D02*
X13512920Y-16088674D01*
X13512920Y-16088674D02*
X13531968Y-16098198D01*
X13531968Y-16098198D02*
X13541491Y-16107722D01*
X13541491Y-16107722D02*
X13551015Y-16126769D01*
X13551015Y-16126769D02*
X13551015Y-16174388D01*
X13551015Y-16174388D02*
X13541491Y-16193436D01*
X13541491Y-16193436D02*
X13531968Y-16202960D01*
X13531968Y-16202960D02*
X13512920Y-16212484D01*
X13512920Y-16212484D02*
X13455777Y-16212484D01*
X13455777Y-16212484D02*
X13436729Y-16202960D01*
X13436729Y-16202960D02*
X13427206Y-16193436D01*
X13722444Y-16012484D02*
X13684348Y-16012484D01*
X13684348Y-16012484D02*
X13665301Y-16022008D01*
X13665301Y-16022008D02*
X13655777Y-16031531D01*
X13655777Y-16031531D02*
X13636729Y-16060103D01*
X13636729Y-16060103D02*
X13627206Y-16098198D01*
X13627206Y-16098198D02*
X13627206Y-16174388D01*
X13627206Y-16174388D02*
X13636729Y-16193436D01*
X13636729Y-16193436D02*
X13646253Y-16202960D01*
X13646253Y-16202960D02*
X13665301Y-16212484D01*
X13665301Y-16212484D02*
X13703396Y-16212484D01*
X13703396Y-16212484D02*
X13722444Y-16202960D01*
X13722444Y-16202960D02*
X13731968Y-16193436D01*
X13731968Y-16193436D02*
X13741491Y-16174388D01*
X13741491Y-16174388D02*
X13741491Y-16126769D01*
X13741491Y-16126769D02*
X13731968Y-16107722D01*
X13731968Y-16107722D02*
X13722444Y-16098198D01*
X13722444Y-16098198D02*
X13703396Y-16088674D01*
X13703396Y-16088674D02*
X13665301Y-16088674D01*
X13665301Y-16088674D02*
X13646253Y-16098198D01*
X13646253Y-16098198D02*
X13636729Y-16107722D01*
X13636729Y-16107722D02*
X13627206Y-16126769D01*
X13979587Y-16212484D02*
X13979587Y-16012484D01*
X14065301Y-16212484D02*
X14065301Y-16107722D01*
X14065301Y-16107722D02*
X14055777Y-16088674D01*
X14055777Y-16088674D02*
X14036730Y-16079150D01*
X14036730Y-16079150D02*
X14008158Y-16079150D01*
X14008158Y-16079150D02*
X13989110Y-16088674D01*
X13989110Y-16088674D02*
X13979587Y-16098198D01*
X14189110Y-16212484D02*
X14170063Y-16202960D01*
X14170063Y-16202960D02*
X14160539Y-16193436D01*
X14160539Y-16193436D02*
X14151015Y-16174388D01*
X14151015Y-16174388D02*
X14151015Y-16117246D01*
X14151015Y-16117246D02*
X14160539Y-16098198D01*
X14160539Y-16098198D02*
X14170063Y-16088674D01*
X14170063Y-16088674D02*
X14189110Y-16079150D01*
X14189110Y-16079150D02*
X14217682Y-16079150D01*
X14217682Y-16079150D02*
X14236730Y-16088674D01*
X14236730Y-16088674D02*
X14246253Y-16098198D01*
X14246253Y-16098198D02*
X14255777Y-16117246D01*
X14255777Y-16117246D02*
X14255777Y-16174388D01*
X14255777Y-16174388D02*
X14246253Y-16193436D01*
X14246253Y-16193436D02*
X14236730Y-16202960D01*
X14236730Y-16202960D02*
X14217682Y-16212484D01*
X14217682Y-16212484D02*
X14189110Y-16212484D01*
X14370063Y-16212484D02*
X14351015Y-16202960D01*
X14351015Y-16202960D02*
X14341491Y-16183912D01*
X14341491Y-16183912D02*
X14341491Y-16012484D01*
X14522444Y-16202960D02*
X14503396Y-16212484D01*
X14503396Y-16212484D02*
X14465301Y-16212484D01*
X14465301Y-16212484D02*
X14446253Y-16202960D01*
X14446253Y-16202960D02*
X14436730Y-16183912D01*
X14436730Y-16183912D02*
X14436730Y-16107722D01*
X14436730Y-16107722D02*
X14446253Y-16088674D01*
X14446253Y-16088674D02*
X14465301Y-16079150D01*
X14465301Y-16079150D02*
X14503396Y-16079150D01*
X14503396Y-16079150D02*
X14522444Y-16088674D01*
X14522444Y-16088674D02*
X14531968Y-16107722D01*
X14531968Y-16107722D02*
X14531968Y-16126769D01*
X14531968Y-16126769D02*
X14436730Y-16145817D01*
X14608158Y-16202960D02*
X14627206Y-16212484D01*
X14627206Y-16212484D02*
X14665301Y-16212484D01*
X14665301Y-16212484D02*
X14684349Y-16202960D01*
X14684349Y-16202960D02*
X14693872Y-16183912D01*
X14693872Y-16183912D02*
X14693872Y-16174388D01*
X14693872Y-16174388D02*
X14684349Y-16155341D01*
X14684349Y-16155341D02*
X14665301Y-16145817D01*
X14665301Y-16145817D02*
X14636730Y-16145817D01*
X14636730Y-16145817D02*
X14617682Y-16136293D01*
X14617682Y-16136293D02*
X14608158Y-16117246D01*
X14608158Y-16117246D02*
X14608158Y-16107722D01*
X14608158Y-16107722D02*
X14617682Y-16088674D01*
X14617682Y-16088674D02*
X14636730Y-16079150D01*
X14636730Y-16079150D02*
X14665301Y-16079150D01*
X14665301Y-16079150D02*
X14684349Y-16088674D01*
X14760539Y-16288674D02*
X14770063Y-16279150D01*
X14770063Y-16279150D02*
X14789111Y-16250579D01*
X14789111Y-16250579D02*
X14798634Y-16231531D01*
X14798634Y-16231531D02*
X14808158Y-16202960D01*
X14808158Y-16202960D02*
X14817682Y-16155341D01*
X14817682Y-16155341D02*
X14817682Y-16117246D01*
X14817682Y-16117246D02*
X14808158Y-16069627D01*
X14808158Y-16069627D02*
X14798634Y-16041055D01*
X14798634Y-16041055D02*
X14789111Y-16022008D01*
X14789111Y-16022008D02*
X14770063Y-15993436D01*
X14770063Y-15993436D02*
X14760539Y-15983912D01*
D10*
X9710000Y-16342500D02*
X9795000Y-16427500D01*
X9795000Y-16342500D02*
X9710000Y-16427500D01*
X9795000Y-16385000D02*
G75*
G03*
X9795000Y-16385000I-42500J0D01*
G01*
D11*
X10093872Y-16276484D02*
X10112920Y-16276484D01*
X10112920Y-16276484D02*
X10131967Y-16286008D01*
X10131967Y-16286008D02*
X10141491Y-16295531D01*
X10141491Y-16295531D02*
X10151015Y-16314579D01*
X10151015Y-16314579D02*
X10160539Y-16352674D01*
X10160539Y-16352674D02*
X10160539Y-16400293D01*
X10160539Y-16400293D02*
X10151015Y-16438388D01*
X10151015Y-16438388D02*
X10141491Y-16457436D01*
X10141491Y-16457436D02*
X10131967Y-16466960D01*
X10131967Y-16466960D02*
X10112920Y-16476484D01*
X10112920Y-16476484D02*
X10093872Y-16476484D01*
X10093872Y-16476484D02*
X10074824Y-16466960D01*
X10074824Y-16466960D02*
X10065301Y-16457436D01*
X10065301Y-16457436D02*
X10055777Y-16438388D01*
X10055777Y-16438388D02*
X10046253Y-16400293D01*
X10046253Y-16400293D02*
X10046253Y-16352674D01*
X10046253Y-16352674D02*
X10055777Y-16314579D01*
X10055777Y-16314579D02*
X10065301Y-16295531D01*
X10065301Y-16295531D02*
X10074824Y-16286008D01*
X10074824Y-16286008D02*
X10093872Y-16276484D01*
X10246253Y-16457436D02*
X10255777Y-16466960D01*
X10255777Y-16466960D02*
X10246253Y-16476484D01*
X10246253Y-16476484D02*
X10236729Y-16466960D01*
X10236729Y-16466960D02*
X10246253Y-16457436D01*
X10246253Y-16457436D02*
X10246253Y-16476484D01*
X10370063Y-16362198D02*
X10351015Y-16352674D01*
X10351015Y-16352674D02*
X10341491Y-16343150D01*
X10341491Y-16343150D02*
X10331967Y-16324103D01*
X10331967Y-16324103D02*
X10331967Y-16314579D01*
X10331967Y-16314579D02*
X10341491Y-16295531D01*
X10341491Y-16295531D02*
X10351015Y-16286008D01*
X10351015Y-16286008D02*
X10370063Y-16276484D01*
X10370063Y-16276484D02*
X10408158Y-16276484D01*
X10408158Y-16276484D02*
X10427205Y-16286008D01*
X10427205Y-16286008D02*
X10436729Y-16295531D01*
X10436729Y-16295531D02*
X10446253Y-16314579D01*
X10446253Y-16314579D02*
X10446253Y-16324103D01*
X10446253Y-16324103D02*
X10436729Y-16343150D01*
X10436729Y-16343150D02*
X10427205Y-16352674D01*
X10427205Y-16352674D02*
X10408158Y-16362198D01*
X10408158Y-16362198D02*
X10370063Y-16362198D01*
X10370063Y-16362198D02*
X10351015Y-16371722D01*
X10351015Y-16371722D02*
X10341491Y-16381246D01*
X10341491Y-16381246D02*
X10331967Y-16400293D01*
X10331967Y-16400293D02*
X10331967Y-16438388D01*
X10331967Y-16438388D02*
X10341491Y-16457436D01*
X10341491Y-16457436D02*
X10351015Y-16466960D01*
X10351015Y-16466960D02*
X10370063Y-16476484D01*
X10370063Y-16476484D02*
X10408158Y-16476484D01*
X10408158Y-16476484D02*
X10427205Y-16466960D01*
X10427205Y-16466960D02*
X10436729Y-16457436D01*
X10436729Y-16457436D02*
X10446253Y-16438388D01*
X10446253Y-16438388D02*
X10446253Y-16400293D01*
X10446253Y-16400293D02*
X10436729Y-16381246D01*
X10436729Y-16381246D02*
X10427205Y-16371722D01*
X10427205Y-16371722D02*
X10408158Y-16362198D01*
X10627205Y-16276484D02*
X10531967Y-16276484D01*
X10531967Y-16276484D02*
X10522444Y-16371722D01*
X10522444Y-16371722D02*
X10531967Y-16362198D01*
X10531967Y-16362198D02*
X10551015Y-16352674D01*
X10551015Y-16352674D02*
X10598634Y-16352674D01*
X10598634Y-16352674D02*
X10617682Y-16362198D01*
X10617682Y-16362198D02*
X10627205Y-16371722D01*
X10627205Y-16371722D02*
X10636729Y-16390769D01*
X10636729Y-16390769D02*
X10636729Y-16438388D01*
X10636729Y-16438388D02*
X10627205Y-16457436D01*
X10627205Y-16457436D02*
X10617682Y-16466960D01*
X10617682Y-16466960D02*
X10598634Y-16476484D01*
X10598634Y-16476484D02*
X10551015Y-16476484D01*
X10551015Y-16476484D02*
X10531967Y-16466960D01*
X10531967Y-16466960D02*
X10522444Y-16457436D01*
X10760539Y-16276484D02*
X10779586Y-16276484D01*
X10779586Y-16276484D02*
X10798634Y-16286008D01*
X10798634Y-16286008D02*
X10808158Y-16295531D01*
X10808158Y-16295531D02*
X10817682Y-16314579D01*
X10817682Y-16314579D02*
X10827205Y-16352674D01*
X10827205Y-16352674D02*
X10827205Y-16400293D01*
X10827205Y-16400293D02*
X10817682Y-16438388D01*
X10817682Y-16438388D02*
X10808158Y-16457436D01*
X10808158Y-16457436D02*
X10798634Y-16466960D01*
X10798634Y-16466960D02*
X10779586Y-16476484D01*
X10779586Y-16476484D02*
X10760539Y-16476484D01*
X10760539Y-16476484D02*
X10741491Y-16466960D01*
X10741491Y-16466960D02*
X10731967Y-16457436D01*
X10731967Y-16457436D02*
X10722444Y-16438388D01*
X10722444Y-16438388D02*
X10712920Y-16400293D01*
X10712920Y-16400293D02*
X10712920Y-16352674D01*
X10712920Y-16352674D02*
X10722444Y-16314579D01*
X10722444Y-16314579D02*
X10731967Y-16295531D01*
X10731967Y-16295531D02*
X10741491Y-16286008D01*
X10741491Y-16286008D02*
X10760539Y-16276484D01*
X10912920Y-16476484D02*
X10912920Y-16343150D01*
X10912920Y-16362198D02*
X10922444Y-16352674D01*
X10922444Y-16352674D02*
X10941491Y-16343150D01*
X10941491Y-16343150D02*
X10970063Y-16343150D01*
X10970063Y-16343150D02*
X10989110Y-16352674D01*
X10989110Y-16352674D02*
X10998634Y-16371722D01*
X10998634Y-16371722D02*
X10998634Y-16476484D01*
X10998634Y-16371722D02*
X11008158Y-16352674D01*
X11008158Y-16352674D02*
X11027205Y-16343150D01*
X11027205Y-16343150D02*
X11055777Y-16343150D01*
X11055777Y-16343150D02*
X11074825Y-16352674D01*
X11074825Y-16352674D02*
X11084348Y-16371722D01*
X11084348Y-16371722D02*
X11084348Y-16476484D01*
X11179586Y-16476484D02*
X11179586Y-16343150D01*
X11179586Y-16362198D02*
X11189110Y-16352674D01*
X11189110Y-16352674D02*
X11208158Y-16343150D01*
X11208158Y-16343150D02*
X11236729Y-16343150D01*
X11236729Y-16343150D02*
X11255777Y-16352674D01*
X11255777Y-16352674D02*
X11265301Y-16371722D01*
X11265301Y-16371722D02*
X11265301Y-16476484D01*
X11265301Y-16371722D02*
X11274824Y-16352674D01*
X11274824Y-16352674D02*
X11293872Y-16343150D01*
X11293872Y-16343150D02*
X11322443Y-16343150D01*
X11322443Y-16343150D02*
X11341491Y-16352674D01*
X11341491Y-16352674D02*
X11351015Y-16371722D01*
X11351015Y-16371722D02*
X11351015Y-16476484D01*
X11741491Y-16266960D02*
X11570063Y-16524103D01*
X11998634Y-16276484D02*
X12017682Y-16276484D01*
X12017682Y-16276484D02*
X12036729Y-16286008D01*
X12036729Y-16286008D02*
X12046253Y-16295531D01*
X12046253Y-16295531D02*
X12055777Y-16314579D01*
X12055777Y-16314579D02*
X12065301Y-16352674D01*
X12065301Y-16352674D02*
X12065301Y-16400293D01*
X12065301Y-16400293D02*
X12055777Y-16438388D01*
X12055777Y-16438388D02*
X12046253Y-16457436D01*
X12046253Y-16457436D02*
X12036729Y-16466960D01*
X12036729Y-16466960D02*
X12017682Y-16476484D01*
X12017682Y-16476484D02*
X11998634Y-16476484D01*
X11998634Y-16476484D02*
X11979586Y-16466960D01*
X11979586Y-16466960D02*
X11970063Y-16457436D01*
X11970063Y-16457436D02*
X11960539Y-16438388D01*
X11960539Y-16438388D02*
X11951015Y-16400293D01*
X11951015Y-16400293D02*
X11951015Y-16352674D01*
X11951015Y-16352674D02*
X11960539Y-16314579D01*
X11960539Y-16314579D02*
X11970063Y-16295531D01*
X11970063Y-16295531D02*
X11979586Y-16286008D01*
X11979586Y-16286008D02*
X11998634Y-16276484D01*
X12151015Y-16457436D02*
X12160539Y-16466960D01*
X12160539Y-16466960D02*
X12151015Y-16476484D01*
X12151015Y-16476484D02*
X12141491Y-16466960D01*
X12141491Y-16466960D02*
X12151015Y-16457436D01*
X12151015Y-16457436D02*
X12151015Y-16476484D01*
X12284348Y-16276484D02*
X12303396Y-16276484D01*
X12303396Y-16276484D02*
X12322444Y-16286008D01*
X12322444Y-16286008D02*
X12331967Y-16295531D01*
X12331967Y-16295531D02*
X12341491Y-16314579D01*
X12341491Y-16314579D02*
X12351015Y-16352674D01*
X12351015Y-16352674D02*
X12351015Y-16400293D01*
X12351015Y-16400293D02*
X12341491Y-16438388D01*
X12341491Y-16438388D02*
X12331967Y-16457436D01*
X12331967Y-16457436D02*
X12322444Y-16466960D01*
X12322444Y-16466960D02*
X12303396Y-16476484D01*
X12303396Y-16476484D02*
X12284348Y-16476484D01*
X12284348Y-16476484D02*
X12265301Y-16466960D01*
X12265301Y-16466960D02*
X12255777Y-16457436D01*
X12255777Y-16457436D02*
X12246253Y-16438388D01*
X12246253Y-16438388D02*
X12236729Y-16400293D01*
X12236729Y-16400293D02*
X12236729Y-16352674D01*
X12236729Y-16352674D02*
X12246253Y-16314579D01*
X12246253Y-16314579D02*
X12255777Y-16295531D01*
X12255777Y-16295531D02*
X12265301Y-16286008D01*
X12265301Y-16286008D02*
X12284348Y-16276484D01*
X12417682Y-16276484D02*
X12541491Y-16276484D01*
X12541491Y-16276484D02*
X12474825Y-16352674D01*
X12474825Y-16352674D02*
X12503396Y-16352674D01*
X12503396Y-16352674D02*
X12522444Y-16362198D01*
X12522444Y-16362198D02*
X12531967Y-16371722D01*
X12531967Y-16371722D02*
X12541491Y-16390769D01*
X12541491Y-16390769D02*
X12541491Y-16438388D01*
X12541491Y-16438388D02*
X12531967Y-16457436D01*
X12531967Y-16457436D02*
X12522444Y-16466960D01*
X12522444Y-16466960D02*
X12503396Y-16476484D01*
X12503396Y-16476484D02*
X12446253Y-16476484D01*
X12446253Y-16476484D02*
X12427206Y-16466960D01*
X12427206Y-16466960D02*
X12417682Y-16457436D01*
X12608158Y-16276484D02*
X12731967Y-16276484D01*
X12731967Y-16276484D02*
X12665301Y-16352674D01*
X12665301Y-16352674D02*
X12693872Y-16352674D01*
X12693872Y-16352674D02*
X12712920Y-16362198D01*
X12712920Y-16362198D02*
X12722444Y-16371722D01*
X12722444Y-16371722D02*
X12731967Y-16390769D01*
X12731967Y-16390769D02*
X12731967Y-16438388D01*
X12731967Y-16438388D02*
X12722444Y-16457436D01*
X12722444Y-16457436D02*
X12712920Y-16466960D01*
X12712920Y-16466960D02*
X12693872Y-16476484D01*
X12693872Y-16476484D02*
X12636729Y-16476484D01*
X12636729Y-16476484D02*
X12617682Y-16466960D01*
X12617682Y-16466960D02*
X12608158Y-16457436D01*
X12912920Y-16276484D02*
X12817682Y-16276484D01*
X12817682Y-16276484D02*
X12808158Y-16371722D01*
X12808158Y-16371722D02*
X12817682Y-16362198D01*
X12817682Y-16362198D02*
X12836729Y-16352674D01*
X12836729Y-16352674D02*
X12884348Y-16352674D01*
X12884348Y-16352674D02*
X12903396Y-16362198D01*
X12903396Y-16362198D02*
X12912920Y-16371722D01*
X12912920Y-16371722D02*
X12922444Y-16390769D01*
X12922444Y-16390769D02*
X12922444Y-16438388D01*
X12922444Y-16438388D02*
X12912920Y-16457436D01*
X12912920Y-16457436D02*
X12903396Y-16466960D01*
X12903396Y-16466960D02*
X12884348Y-16476484D01*
X12884348Y-16476484D02*
X12836729Y-16476484D01*
X12836729Y-16476484D02*
X12817682Y-16466960D01*
X12817682Y-16466960D02*
X12808158Y-16457436D01*
X12998634Y-16276484D02*
X12998634Y-16314579D01*
X13074825Y-16276484D02*
X13074825Y-16314579D01*
X13370063Y-16552674D02*
X13360539Y-16543150D01*
X13360539Y-16543150D02*
X13341491Y-16514579D01*
X13341491Y-16514579D02*
X13331968Y-16495531D01*
X13331968Y-16495531D02*
X13322444Y-16466960D01*
X13322444Y-16466960D02*
X13312920Y-16419341D01*
X13312920Y-16419341D02*
X13312920Y-16381246D01*
X13312920Y-16381246D02*
X13322444Y-16333627D01*
X13322444Y-16333627D02*
X13331968Y-16305055D01*
X13331968Y-16305055D02*
X13341491Y-16286008D01*
X13341491Y-16286008D02*
X13360539Y-16257436D01*
X13360539Y-16257436D02*
X13370063Y-16247912D01*
X13474825Y-16362198D02*
X13455777Y-16352674D01*
X13455777Y-16352674D02*
X13446253Y-16343150D01*
X13446253Y-16343150D02*
X13436729Y-16324103D01*
X13436729Y-16324103D02*
X13436729Y-16314579D01*
X13436729Y-16314579D02*
X13446253Y-16295531D01*
X13446253Y-16295531D02*
X13455777Y-16286008D01*
X13455777Y-16286008D02*
X13474825Y-16276484D01*
X13474825Y-16276484D02*
X13512920Y-16276484D01*
X13512920Y-16276484D02*
X13531968Y-16286008D01*
X13531968Y-16286008D02*
X13541491Y-16295531D01*
X13541491Y-16295531D02*
X13551015Y-16314579D01*
X13551015Y-16314579D02*
X13551015Y-16324103D01*
X13551015Y-16324103D02*
X13541491Y-16343150D01*
X13541491Y-16343150D02*
X13531968Y-16352674D01*
X13531968Y-16352674D02*
X13512920Y-16362198D01*
X13512920Y-16362198D02*
X13474825Y-16362198D01*
X13474825Y-16362198D02*
X13455777Y-16371722D01*
X13455777Y-16371722D02*
X13446253Y-16381246D01*
X13446253Y-16381246D02*
X13436729Y-16400293D01*
X13436729Y-16400293D02*
X13436729Y-16438388D01*
X13436729Y-16438388D02*
X13446253Y-16457436D01*
X13446253Y-16457436D02*
X13455777Y-16466960D01*
X13455777Y-16466960D02*
X13474825Y-16476484D01*
X13474825Y-16476484D02*
X13512920Y-16476484D01*
X13512920Y-16476484D02*
X13531968Y-16466960D01*
X13531968Y-16466960D02*
X13541491Y-16457436D01*
X13541491Y-16457436D02*
X13551015Y-16438388D01*
X13551015Y-16438388D02*
X13551015Y-16400293D01*
X13551015Y-16400293D02*
X13541491Y-16381246D01*
X13541491Y-16381246D02*
X13531968Y-16371722D01*
X13531968Y-16371722D02*
X13512920Y-16362198D01*
X13789110Y-16476484D02*
X13789110Y-16276484D01*
X13874825Y-16476484D02*
X13874825Y-16371722D01*
X13874825Y-16371722D02*
X13865301Y-16352674D01*
X13865301Y-16352674D02*
X13846253Y-16343150D01*
X13846253Y-16343150D02*
X13817682Y-16343150D01*
X13817682Y-16343150D02*
X13798634Y-16352674D01*
X13798634Y-16352674D02*
X13789110Y-16362198D01*
X13998634Y-16476484D02*
X13979587Y-16466960D01*
X13979587Y-16466960D02*
X13970063Y-16457436D01*
X13970063Y-16457436D02*
X13960539Y-16438388D01*
X13960539Y-16438388D02*
X13960539Y-16381246D01*
X13960539Y-16381246D02*
X13970063Y-16362198D01*
X13970063Y-16362198D02*
X13979587Y-16352674D01*
X13979587Y-16352674D02*
X13998634Y-16343150D01*
X13998634Y-16343150D02*
X14027206Y-16343150D01*
X14027206Y-16343150D02*
X14046253Y-16352674D01*
X14046253Y-16352674D02*
X14055777Y-16362198D01*
X14055777Y-16362198D02*
X14065301Y-16381246D01*
X14065301Y-16381246D02*
X14065301Y-16438388D01*
X14065301Y-16438388D02*
X14055777Y-16457436D01*
X14055777Y-16457436D02*
X14046253Y-16466960D01*
X14046253Y-16466960D02*
X14027206Y-16476484D01*
X14027206Y-16476484D02*
X13998634Y-16476484D01*
X14179587Y-16476484D02*
X14160539Y-16466960D01*
X14160539Y-16466960D02*
X14151015Y-16447912D01*
X14151015Y-16447912D02*
X14151015Y-16276484D01*
X14331968Y-16466960D02*
X14312920Y-16476484D01*
X14312920Y-16476484D02*
X14274825Y-16476484D01*
X14274825Y-16476484D02*
X14255777Y-16466960D01*
X14255777Y-16466960D02*
X14246253Y-16447912D01*
X14246253Y-16447912D02*
X14246253Y-16371722D01*
X14246253Y-16371722D02*
X14255777Y-16352674D01*
X14255777Y-16352674D02*
X14274825Y-16343150D01*
X14274825Y-16343150D02*
X14312920Y-16343150D01*
X14312920Y-16343150D02*
X14331968Y-16352674D01*
X14331968Y-16352674D02*
X14341491Y-16371722D01*
X14341491Y-16371722D02*
X14341491Y-16390769D01*
X14341491Y-16390769D02*
X14246253Y-16409817D01*
X14417682Y-16466960D02*
X14436730Y-16476484D01*
X14436730Y-16476484D02*
X14474825Y-16476484D01*
X14474825Y-16476484D02*
X14493872Y-16466960D01*
X14493872Y-16466960D02*
X14503396Y-16447912D01*
X14503396Y-16447912D02*
X14503396Y-16438388D01*
X14503396Y-16438388D02*
X14493872Y-16419341D01*
X14493872Y-16419341D02*
X14474825Y-16409817D01*
X14474825Y-16409817D02*
X14446253Y-16409817D01*
X14446253Y-16409817D02*
X14427206Y-16400293D01*
X14427206Y-16400293D02*
X14417682Y-16381246D01*
X14417682Y-16381246D02*
X14417682Y-16371722D01*
X14417682Y-16371722D02*
X14427206Y-16352674D01*
X14427206Y-16352674D02*
X14446253Y-16343150D01*
X14446253Y-16343150D02*
X14474825Y-16343150D01*
X14474825Y-16343150D02*
X14493872Y-16352674D01*
X14570063Y-16552674D02*
X14579587Y-16543150D01*
X14579587Y-16543150D02*
X14598634Y-16514579D01*
X14598634Y-16514579D02*
X14608158Y-16495531D01*
X14608158Y-16495531D02*
X14617682Y-16466960D01*
X14617682Y-16466960D02*
X14627206Y-16419341D01*
X14627206Y-16419341D02*
X14627206Y-16381246D01*
X14627206Y-16381246D02*
X14617682Y-16333627D01*
X14617682Y-16333627D02*
X14608158Y-16305055D01*
X14608158Y-16305055D02*
X14598634Y-16286008D01*
X14598634Y-16286008D02*
X14579587Y-16257436D01*
X14579587Y-16257436D02*
X14570063Y-16247912D01*
D10*
X9705000Y-16604000D02*
X9795000Y-16694000D01*
X9795000Y-16604000D02*
X9705000Y-16694000D01*
X9750000Y-16604000D02*
X9750000Y-16694000D01*
X9705000Y-16649000D02*
X9795000Y-16649000D01*
D11*
X10093872Y-16540484D02*
X10112920Y-16540484D01*
X10112920Y-16540484D02*
X10131967Y-16550008D01*
X10131967Y-16550008D02*
X10141491Y-16559531D01*
X10141491Y-16559531D02*
X10151015Y-16578579D01*
X10151015Y-16578579D02*
X10160539Y-16616674D01*
X10160539Y-16616674D02*
X10160539Y-16664293D01*
X10160539Y-16664293D02*
X10151015Y-16702388D01*
X10151015Y-16702388D02*
X10141491Y-16721436D01*
X10141491Y-16721436D02*
X10131967Y-16730960D01*
X10131967Y-16730960D02*
X10112920Y-16740484D01*
X10112920Y-16740484D02*
X10093872Y-16740484D01*
X10093872Y-16740484D02*
X10074824Y-16730960D01*
X10074824Y-16730960D02*
X10065301Y-16721436D01*
X10065301Y-16721436D02*
X10055777Y-16702388D01*
X10055777Y-16702388D02*
X10046253Y-16664293D01*
X10046253Y-16664293D02*
X10046253Y-16616674D01*
X10046253Y-16616674D02*
X10055777Y-16578579D01*
X10055777Y-16578579D02*
X10065301Y-16559531D01*
X10065301Y-16559531D02*
X10074824Y-16550008D01*
X10074824Y-16550008D02*
X10093872Y-16540484D01*
X10246253Y-16721436D02*
X10255777Y-16730960D01*
X10255777Y-16730960D02*
X10246253Y-16740484D01*
X10246253Y-16740484D02*
X10236729Y-16730960D01*
X10236729Y-16730960D02*
X10246253Y-16721436D01*
X10246253Y-16721436D02*
X10246253Y-16740484D01*
X10351015Y-16740484D02*
X10389110Y-16740484D01*
X10389110Y-16740484D02*
X10408158Y-16730960D01*
X10408158Y-16730960D02*
X10417682Y-16721436D01*
X10417682Y-16721436D02*
X10436729Y-16692865D01*
X10436729Y-16692865D02*
X10446253Y-16654769D01*
X10446253Y-16654769D02*
X10446253Y-16578579D01*
X10446253Y-16578579D02*
X10436729Y-16559531D01*
X10436729Y-16559531D02*
X10427205Y-16550008D01*
X10427205Y-16550008D02*
X10408158Y-16540484D01*
X10408158Y-16540484D02*
X10370063Y-16540484D01*
X10370063Y-16540484D02*
X10351015Y-16550008D01*
X10351015Y-16550008D02*
X10341491Y-16559531D01*
X10341491Y-16559531D02*
X10331967Y-16578579D01*
X10331967Y-16578579D02*
X10331967Y-16626198D01*
X10331967Y-16626198D02*
X10341491Y-16645246D01*
X10341491Y-16645246D02*
X10351015Y-16654769D01*
X10351015Y-16654769D02*
X10370063Y-16664293D01*
X10370063Y-16664293D02*
X10408158Y-16664293D01*
X10408158Y-16664293D02*
X10427205Y-16654769D01*
X10427205Y-16654769D02*
X10436729Y-16645246D01*
X10436729Y-16645246D02*
X10446253Y-16626198D01*
X10570063Y-16540484D02*
X10589110Y-16540484D01*
X10589110Y-16540484D02*
X10608158Y-16550008D01*
X10608158Y-16550008D02*
X10617682Y-16559531D01*
X10617682Y-16559531D02*
X10627205Y-16578579D01*
X10627205Y-16578579D02*
X10636729Y-16616674D01*
X10636729Y-16616674D02*
X10636729Y-16664293D01*
X10636729Y-16664293D02*
X10627205Y-16702388D01*
X10627205Y-16702388D02*
X10617682Y-16721436D01*
X10617682Y-16721436D02*
X10608158Y-16730960D01*
X10608158Y-16730960D02*
X10589110Y-16740484D01*
X10589110Y-16740484D02*
X10570063Y-16740484D01*
X10570063Y-16740484D02*
X10551015Y-16730960D01*
X10551015Y-16730960D02*
X10541491Y-16721436D01*
X10541491Y-16721436D02*
X10531967Y-16702388D01*
X10531967Y-16702388D02*
X10522444Y-16664293D01*
X10522444Y-16664293D02*
X10522444Y-16616674D01*
X10522444Y-16616674D02*
X10531967Y-16578579D01*
X10531967Y-16578579D02*
X10541491Y-16559531D01*
X10541491Y-16559531D02*
X10551015Y-16550008D01*
X10551015Y-16550008D02*
X10570063Y-16540484D01*
X10760539Y-16540484D02*
X10779586Y-16540484D01*
X10779586Y-16540484D02*
X10798634Y-16550008D01*
X10798634Y-16550008D02*
X10808158Y-16559531D01*
X10808158Y-16559531D02*
X10817682Y-16578579D01*
X10817682Y-16578579D02*
X10827205Y-16616674D01*
X10827205Y-16616674D02*
X10827205Y-16664293D01*
X10827205Y-16664293D02*
X10817682Y-16702388D01*
X10817682Y-16702388D02*
X10808158Y-16721436D01*
X10808158Y-16721436D02*
X10798634Y-16730960D01*
X10798634Y-16730960D02*
X10779586Y-16740484D01*
X10779586Y-16740484D02*
X10760539Y-16740484D01*
X10760539Y-16740484D02*
X10741491Y-16730960D01*
X10741491Y-16730960D02*
X10731967Y-16721436D01*
X10731967Y-16721436D02*
X10722444Y-16702388D01*
X10722444Y-16702388D02*
X10712920Y-16664293D01*
X10712920Y-16664293D02*
X10712920Y-16616674D01*
X10712920Y-16616674D02*
X10722444Y-16578579D01*
X10722444Y-16578579D02*
X10731967Y-16559531D01*
X10731967Y-16559531D02*
X10741491Y-16550008D01*
X10741491Y-16550008D02*
X10760539Y-16540484D01*
X10912920Y-16740484D02*
X10912920Y-16607150D01*
X10912920Y-16626198D02*
X10922444Y-16616674D01*
X10922444Y-16616674D02*
X10941491Y-16607150D01*
X10941491Y-16607150D02*
X10970063Y-16607150D01*
X10970063Y-16607150D02*
X10989110Y-16616674D01*
X10989110Y-16616674D02*
X10998634Y-16635722D01*
X10998634Y-16635722D02*
X10998634Y-16740484D01*
X10998634Y-16635722D02*
X11008158Y-16616674D01*
X11008158Y-16616674D02*
X11027205Y-16607150D01*
X11027205Y-16607150D02*
X11055777Y-16607150D01*
X11055777Y-16607150D02*
X11074825Y-16616674D01*
X11074825Y-16616674D02*
X11084348Y-16635722D01*
X11084348Y-16635722D02*
X11084348Y-16740484D01*
X11179586Y-16740484D02*
X11179586Y-16607150D01*
X11179586Y-16626198D02*
X11189110Y-16616674D01*
X11189110Y-16616674D02*
X11208158Y-16607150D01*
X11208158Y-16607150D02*
X11236729Y-16607150D01*
X11236729Y-16607150D02*
X11255777Y-16616674D01*
X11255777Y-16616674D02*
X11265301Y-16635722D01*
X11265301Y-16635722D02*
X11265301Y-16740484D01*
X11265301Y-16635722D02*
X11274824Y-16616674D01*
X11274824Y-16616674D02*
X11293872Y-16607150D01*
X11293872Y-16607150D02*
X11322443Y-16607150D01*
X11322443Y-16607150D02*
X11341491Y-16616674D01*
X11341491Y-16616674D02*
X11351015Y-16635722D01*
X11351015Y-16635722D02*
X11351015Y-16740484D01*
X11741491Y-16530960D02*
X11570063Y-16788103D01*
X11998634Y-16540484D02*
X12017682Y-16540484D01*
X12017682Y-16540484D02*
X12036729Y-16550008D01*
X12036729Y-16550008D02*
X12046253Y-16559531D01*
X12046253Y-16559531D02*
X12055777Y-16578579D01*
X12055777Y-16578579D02*
X12065301Y-16616674D01*
X12065301Y-16616674D02*
X12065301Y-16664293D01*
X12065301Y-16664293D02*
X12055777Y-16702388D01*
X12055777Y-16702388D02*
X12046253Y-16721436D01*
X12046253Y-16721436D02*
X12036729Y-16730960D01*
X12036729Y-16730960D02*
X12017682Y-16740484D01*
X12017682Y-16740484D02*
X11998634Y-16740484D01*
X11998634Y-16740484D02*
X11979586Y-16730960D01*
X11979586Y-16730960D02*
X11970063Y-16721436D01*
X11970063Y-16721436D02*
X11960539Y-16702388D01*
X11960539Y-16702388D02*
X11951015Y-16664293D01*
X11951015Y-16664293D02*
X11951015Y-16616674D01*
X11951015Y-16616674D02*
X11960539Y-16578579D01*
X11960539Y-16578579D02*
X11970063Y-16559531D01*
X11970063Y-16559531D02*
X11979586Y-16550008D01*
X11979586Y-16550008D02*
X11998634Y-16540484D01*
X12151015Y-16721436D02*
X12160539Y-16730960D01*
X12160539Y-16730960D02*
X12151015Y-16740484D01*
X12151015Y-16740484D02*
X12141491Y-16730960D01*
X12141491Y-16730960D02*
X12151015Y-16721436D01*
X12151015Y-16721436D02*
X12151015Y-16740484D01*
X12284348Y-16540484D02*
X12303396Y-16540484D01*
X12303396Y-16540484D02*
X12322444Y-16550008D01*
X12322444Y-16550008D02*
X12331967Y-16559531D01*
X12331967Y-16559531D02*
X12341491Y-16578579D01*
X12341491Y-16578579D02*
X12351015Y-16616674D01*
X12351015Y-16616674D02*
X12351015Y-16664293D01*
X12351015Y-16664293D02*
X12341491Y-16702388D01*
X12341491Y-16702388D02*
X12331967Y-16721436D01*
X12331967Y-16721436D02*
X12322444Y-16730960D01*
X12322444Y-16730960D02*
X12303396Y-16740484D01*
X12303396Y-16740484D02*
X12284348Y-16740484D01*
X12284348Y-16740484D02*
X12265301Y-16730960D01*
X12265301Y-16730960D02*
X12255777Y-16721436D01*
X12255777Y-16721436D02*
X12246253Y-16702388D01*
X12246253Y-16702388D02*
X12236729Y-16664293D01*
X12236729Y-16664293D02*
X12236729Y-16616674D01*
X12236729Y-16616674D02*
X12246253Y-16578579D01*
X12246253Y-16578579D02*
X12255777Y-16559531D01*
X12255777Y-16559531D02*
X12265301Y-16550008D01*
X12265301Y-16550008D02*
X12284348Y-16540484D01*
X12417682Y-16540484D02*
X12541491Y-16540484D01*
X12541491Y-16540484D02*
X12474825Y-16616674D01*
X12474825Y-16616674D02*
X12503396Y-16616674D01*
X12503396Y-16616674D02*
X12522444Y-16626198D01*
X12522444Y-16626198D02*
X12531967Y-16635722D01*
X12531967Y-16635722D02*
X12541491Y-16654769D01*
X12541491Y-16654769D02*
X12541491Y-16702388D01*
X12541491Y-16702388D02*
X12531967Y-16721436D01*
X12531967Y-16721436D02*
X12522444Y-16730960D01*
X12522444Y-16730960D02*
X12503396Y-16740484D01*
X12503396Y-16740484D02*
X12446253Y-16740484D01*
X12446253Y-16740484D02*
X12427206Y-16730960D01*
X12427206Y-16730960D02*
X12417682Y-16721436D01*
X12722444Y-16540484D02*
X12627206Y-16540484D01*
X12627206Y-16540484D02*
X12617682Y-16635722D01*
X12617682Y-16635722D02*
X12627206Y-16626198D01*
X12627206Y-16626198D02*
X12646253Y-16616674D01*
X12646253Y-16616674D02*
X12693872Y-16616674D01*
X12693872Y-16616674D02*
X12712920Y-16626198D01*
X12712920Y-16626198D02*
X12722444Y-16635722D01*
X12722444Y-16635722D02*
X12731967Y-16654769D01*
X12731967Y-16654769D02*
X12731967Y-16702388D01*
X12731967Y-16702388D02*
X12722444Y-16721436D01*
X12722444Y-16721436D02*
X12712920Y-16730960D01*
X12712920Y-16730960D02*
X12693872Y-16740484D01*
X12693872Y-16740484D02*
X12646253Y-16740484D01*
X12646253Y-16740484D02*
X12627206Y-16730960D01*
X12627206Y-16730960D02*
X12617682Y-16721436D01*
X12903396Y-16607150D02*
X12903396Y-16740484D01*
X12855777Y-16530960D02*
X12808158Y-16673817D01*
X12808158Y-16673817D02*
X12931967Y-16673817D01*
X12998634Y-16540484D02*
X12998634Y-16578579D01*
X13074825Y-16540484D02*
X13074825Y-16578579D01*
X13370063Y-16816674D02*
X13360539Y-16807150D01*
X13360539Y-16807150D02*
X13341491Y-16778579D01*
X13341491Y-16778579D02*
X13331968Y-16759531D01*
X13331968Y-16759531D02*
X13322444Y-16730960D01*
X13322444Y-16730960D02*
X13312920Y-16683341D01*
X13312920Y-16683341D02*
X13312920Y-16645246D01*
X13312920Y-16645246D02*
X13322444Y-16597627D01*
X13322444Y-16597627D02*
X13331968Y-16569055D01*
X13331968Y-16569055D02*
X13341491Y-16550008D01*
X13341491Y-16550008D02*
X13360539Y-16521436D01*
X13360539Y-16521436D02*
X13370063Y-16511912D01*
X13531968Y-16607150D02*
X13531968Y-16740484D01*
X13484348Y-16530960D02*
X13436729Y-16673817D01*
X13436729Y-16673817D02*
X13560539Y-16673817D01*
X13789110Y-16740484D02*
X13789110Y-16540484D01*
X13874825Y-16740484D02*
X13874825Y-16635722D01*
X13874825Y-16635722D02*
X13865301Y-16616674D01*
X13865301Y-16616674D02*
X13846253Y-16607150D01*
X13846253Y-16607150D02*
X13817682Y-16607150D01*
X13817682Y-16607150D02*
X13798634Y-16616674D01*
X13798634Y-16616674D02*
X13789110Y-16626198D01*
X13998634Y-16740484D02*
X13979587Y-16730960D01*
X13979587Y-16730960D02*
X13970063Y-16721436D01*
X13970063Y-16721436D02*
X13960539Y-16702388D01*
X13960539Y-16702388D02*
X13960539Y-16645246D01*
X13960539Y-16645246D02*
X13970063Y-16626198D01*
X13970063Y-16626198D02*
X13979587Y-16616674D01*
X13979587Y-16616674D02*
X13998634Y-16607150D01*
X13998634Y-16607150D02*
X14027206Y-16607150D01*
X14027206Y-16607150D02*
X14046253Y-16616674D01*
X14046253Y-16616674D02*
X14055777Y-16626198D01*
X14055777Y-16626198D02*
X14065301Y-16645246D01*
X14065301Y-16645246D02*
X14065301Y-16702388D01*
X14065301Y-16702388D02*
X14055777Y-16721436D01*
X14055777Y-16721436D02*
X14046253Y-16730960D01*
X14046253Y-16730960D02*
X14027206Y-16740484D01*
X14027206Y-16740484D02*
X13998634Y-16740484D01*
X14179587Y-16740484D02*
X14160539Y-16730960D01*
X14160539Y-16730960D02*
X14151015Y-16711912D01*
X14151015Y-16711912D02*
X14151015Y-16540484D01*
X14331968Y-16730960D02*
X14312920Y-16740484D01*
X14312920Y-16740484D02*
X14274825Y-16740484D01*
X14274825Y-16740484D02*
X14255777Y-16730960D01*
X14255777Y-16730960D02*
X14246253Y-16711912D01*
X14246253Y-16711912D02*
X14246253Y-16635722D01*
X14246253Y-16635722D02*
X14255777Y-16616674D01*
X14255777Y-16616674D02*
X14274825Y-16607150D01*
X14274825Y-16607150D02*
X14312920Y-16607150D01*
X14312920Y-16607150D02*
X14331968Y-16616674D01*
X14331968Y-16616674D02*
X14341491Y-16635722D01*
X14341491Y-16635722D02*
X14341491Y-16654769D01*
X14341491Y-16654769D02*
X14246253Y-16673817D01*
X14417682Y-16730960D02*
X14436730Y-16740484D01*
X14436730Y-16740484D02*
X14474825Y-16740484D01*
X14474825Y-16740484D02*
X14493872Y-16730960D01*
X14493872Y-16730960D02*
X14503396Y-16711912D01*
X14503396Y-16711912D02*
X14503396Y-16702388D01*
X14503396Y-16702388D02*
X14493872Y-16683341D01*
X14493872Y-16683341D02*
X14474825Y-16673817D01*
X14474825Y-16673817D02*
X14446253Y-16673817D01*
X14446253Y-16673817D02*
X14427206Y-16664293D01*
X14427206Y-16664293D02*
X14417682Y-16645246D01*
X14417682Y-16645246D02*
X14417682Y-16635722D01*
X14417682Y-16635722D02*
X14427206Y-16616674D01*
X14427206Y-16616674D02*
X14446253Y-16607150D01*
X14446253Y-16607150D02*
X14474825Y-16607150D01*
X14474825Y-16607150D02*
X14493872Y-16616674D01*
X14570063Y-16816674D02*
X14579587Y-16807150D01*
X14579587Y-16807150D02*
X14598634Y-16778579D01*
X14598634Y-16778579D02*
X14608158Y-16759531D01*
X14608158Y-16759531D02*
X14617682Y-16730960D01*
X14617682Y-16730960D02*
X14627206Y-16683341D01*
X14627206Y-16683341D02*
X14627206Y-16645246D01*
X14627206Y-16645246D02*
X14617682Y-16597627D01*
X14617682Y-16597627D02*
X14608158Y-16569055D01*
X14608158Y-16569055D02*
X14598634Y-16550008D01*
X14598634Y-16550008D02*
X14579587Y-16521436D01*
X14579587Y-16521436D02*
X14570063Y-16511912D01*
D10*
X9695000Y-16863000D02*
X9795000Y-16963000D01*
X9795000Y-16863000D02*
X9695000Y-16963000D01*
X9780356Y-16948356D02*
X9780356Y-16877644D01*
X9709644Y-16877644D01*
X9709644Y-16948356D01*
X9780356Y-16948356D01*
D11*
X10160539Y-17004484D02*
X10046253Y-17004484D01*
X10103396Y-17004484D02*
X10103396Y-16804484D01*
X10103396Y-16804484D02*
X10084348Y-16833055D01*
X10084348Y-16833055D02*
X10065301Y-16852103D01*
X10065301Y-16852103D02*
X10046253Y-16861627D01*
X10246253Y-16985436D02*
X10255777Y-16994960D01*
X10255777Y-16994960D02*
X10246253Y-17004484D01*
X10246253Y-17004484D02*
X10236729Y-16994960D01*
X10236729Y-16994960D02*
X10246253Y-16985436D01*
X10246253Y-16985436D02*
X10246253Y-17004484D01*
X10379586Y-16804484D02*
X10398634Y-16804484D01*
X10398634Y-16804484D02*
X10417682Y-16814008D01*
X10417682Y-16814008D02*
X10427205Y-16823531D01*
X10427205Y-16823531D02*
X10436729Y-16842579D01*
X10436729Y-16842579D02*
X10446253Y-16880674D01*
X10446253Y-16880674D02*
X10446253Y-16928293D01*
X10446253Y-16928293D02*
X10436729Y-16966389D01*
X10436729Y-16966389D02*
X10427205Y-16985436D01*
X10427205Y-16985436D02*
X10417682Y-16994960D01*
X10417682Y-16994960D02*
X10398634Y-17004484D01*
X10398634Y-17004484D02*
X10379586Y-17004484D01*
X10379586Y-17004484D02*
X10360539Y-16994960D01*
X10360539Y-16994960D02*
X10351015Y-16985436D01*
X10351015Y-16985436D02*
X10341491Y-16966389D01*
X10341491Y-16966389D02*
X10331967Y-16928293D01*
X10331967Y-16928293D02*
X10331967Y-16880674D01*
X10331967Y-16880674D02*
X10341491Y-16842579D01*
X10341491Y-16842579D02*
X10351015Y-16823531D01*
X10351015Y-16823531D02*
X10360539Y-16814008D01*
X10360539Y-16814008D02*
X10379586Y-16804484D01*
X10570063Y-16804484D02*
X10589110Y-16804484D01*
X10589110Y-16804484D02*
X10608158Y-16814008D01*
X10608158Y-16814008D02*
X10617682Y-16823531D01*
X10617682Y-16823531D02*
X10627205Y-16842579D01*
X10627205Y-16842579D02*
X10636729Y-16880674D01*
X10636729Y-16880674D02*
X10636729Y-16928293D01*
X10636729Y-16928293D02*
X10627205Y-16966389D01*
X10627205Y-16966389D02*
X10617682Y-16985436D01*
X10617682Y-16985436D02*
X10608158Y-16994960D01*
X10608158Y-16994960D02*
X10589110Y-17004484D01*
X10589110Y-17004484D02*
X10570063Y-17004484D01*
X10570063Y-17004484D02*
X10551015Y-16994960D01*
X10551015Y-16994960D02*
X10541491Y-16985436D01*
X10541491Y-16985436D02*
X10531967Y-16966389D01*
X10531967Y-16966389D02*
X10522444Y-16928293D01*
X10522444Y-16928293D02*
X10522444Y-16880674D01*
X10522444Y-16880674D02*
X10531967Y-16842579D01*
X10531967Y-16842579D02*
X10541491Y-16823531D01*
X10541491Y-16823531D02*
X10551015Y-16814008D01*
X10551015Y-16814008D02*
X10570063Y-16804484D01*
X10760539Y-16804484D02*
X10779586Y-16804484D01*
X10779586Y-16804484D02*
X10798634Y-16814008D01*
X10798634Y-16814008D02*
X10808158Y-16823531D01*
X10808158Y-16823531D02*
X10817682Y-16842579D01*
X10817682Y-16842579D02*
X10827205Y-16880674D01*
X10827205Y-16880674D02*
X10827205Y-16928293D01*
X10827205Y-16928293D02*
X10817682Y-16966389D01*
X10817682Y-16966389D02*
X10808158Y-16985436D01*
X10808158Y-16985436D02*
X10798634Y-16994960D01*
X10798634Y-16994960D02*
X10779586Y-17004484D01*
X10779586Y-17004484D02*
X10760539Y-17004484D01*
X10760539Y-17004484D02*
X10741491Y-16994960D01*
X10741491Y-16994960D02*
X10731967Y-16985436D01*
X10731967Y-16985436D02*
X10722444Y-16966389D01*
X10722444Y-16966389D02*
X10712920Y-16928293D01*
X10712920Y-16928293D02*
X10712920Y-16880674D01*
X10712920Y-16880674D02*
X10722444Y-16842579D01*
X10722444Y-16842579D02*
X10731967Y-16823531D01*
X10731967Y-16823531D02*
X10741491Y-16814008D01*
X10741491Y-16814008D02*
X10760539Y-16804484D01*
X10912920Y-17004484D02*
X10912920Y-16871150D01*
X10912920Y-16890198D02*
X10922444Y-16880674D01*
X10922444Y-16880674D02*
X10941491Y-16871150D01*
X10941491Y-16871150D02*
X10970063Y-16871150D01*
X10970063Y-16871150D02*
X10989110Y-16880674D01*
X10989110Y-16880674D02*
X10998634Y-16899722D01*
X10998634Y-16899722D02*
X10998634Y-17004484D01*
X10998634Y-16899722D02*
X11008158Y-16880674D01*
X11008158Y-16880674D02*
X11027205Y-16871150D01*
X11027205Y-16871150D02*
X11055777Y-16871150D01*
X11055777Y-16871150D02*
X11074825Y-16880674D01*
X11074825Y-16880674D02*
X11084348Y-16899722D01*
X11084348Y-16899722D02*
X11084348Y-17004484D01*
X11179586Y-17004484D02*
X11179586Y-16871150D01*
X11179586Y-16890198D02*
X11189110Y-16880674D01*
X11189110Y-16880674D02*
X11208158Y-16871150D01*
X11208158Y-16871150D02*
X11236729Y-16871150D01*
X11236729Y-16871150D02*
X11255777Y-16880674D01*
X11255777Y-16880674D02*
X11265301Y-16899722D01*
X11265301Y-16899722D02*
X11265301Y-17004484D01*
X11265301Y-16899722D02*
X11274824Y-16880674D01*
X11274824Y-16880674D02*
X11293872Y-16871150D01*
X11293872Y-16871150D02*
X11322443Y-16871150D01*
X11322443Y-16871150D02*
X11341491Y-16880674D01*
X11341491Y-16880674D02*
X11351015Y-16899722D01*
X11351015Y-16899722D02*
X11351015Y-17004484D01*
X11741491Y-16794960D02*
X11570063Y-17052103D01*
X11998634Y-16804484D02*
X12017682Y-16804484D01*
X12017682Y-16804484D02*
X12036729Y-16814008D01*
X12036729Y-16814008D02*
X12046253Y-16823531D01*
X12046253Y-16823531D02*
X12055777Y-16842579D01*
X12055777Y-16842579D02*
X12065301Y-16880674D01*
X12065301Y-16880674D02*
X12065301Y-16928293D01*
X12065301Y-16928293D02*
X12055777Y-16966389D01*
X12055777Y-16966389D02*
X12046253Y-16985436D01*
X12046253Y-16985436D02*
X12036729Y-16994960D01*
X12036729Y-16994960D02*
X12017682Y-17004484D01*
X12017682Y-17004484D02*
X11998634Y-17004484D01*
X11998634Y-17004484D02*
X11979586Y-16994960D01*
X11979586Y-16994960D02*
X11970063Y-16985436D01*
X11970063Y-16985436D02*
X11960539Y-16966389D01*
X11960539Y-16966389D02*
X11951015Y-16928293D01*
X11951015Y-16928293D02*
X11951015Y-16880674D01*
X11951015Y-16880674D02*
X11960539Y-16842579D01*
X11960539Y-16842579D02*
X11970063Y-16823531D01*
X11970063Y-16823531D02*
X11979586Y-16814008D01*
X11979586Y-16814008D02*
X11998634Y-16804484D01*
X12151015Y-16985436D02*
X12160539Y-16994960D01*
X12160539Y-16994960D02*
X12151015Y-17004484D01*
X12151015Y-17004484D02*
X12141491Y-16994960D01*
X12141491Y-16994960D02*
X12151015Y-16985436D01*
X12151015Y-16985436D02*
X12151015Y-17004484D01*
X12284348Y-16804484D02*
X12303396Y-16804484D01*
X12303396Y-16804484D02*
X12322444Y-16814008D01*
X12322444Y-16814008D02*
X12331967Y-16823531D01*
X12331967Y-16823531D02*
X12341491Y-16842579D01*
X12341491Y-16842579D02*
X12351015Y-16880674D01*
X12351015Y-16880674D02*
X12351015Y-16928293D01*
X12351015Y-16928293D02*
X12341491Y-16966389D01*
X12341491Y-16966389D02*
X12331967Y-16985436D01*
X12331967Y-16985436D02*
X12322444Y-16994960D01*
X12322444Y-16994960D02*
X12303396Y-17004484D01*
X12303396Y-17004484D02*
X12284348Y-17004484D01*
X12284348Y-17004484D02*
X12265301Y-16994960D01*
X12265301Y-16994960D02*
X12255777Y-16985436D01*
X12255777Y-16985436D02*
X12246253Y-16966389D01*
X12246253Y-16966389D02*
X12236729Y-16928293D01*
X12236729Y-16928293D02*
X12236729Y-16880674D01*
X12236729Y-16880674D02*
X12246253Y-16842579D01*
X12246253Y-16842579D02*
X12255777Y-16823531D01*
X12255777Y-16823531D02*
X12265301Y-16814008D01*
X12265301Y-16814008D02*
X12284348Y-16804484D01*
X12417682Y-16804484D02*
X12541491Y-16804484D01*
X12541491Y-16804484D02*
X12474825Y-16880674D01*
X12474825Y-16880674D02*
X12503396Y-16880674D01*
X12503396Y-16880674D02*
X12522444Y-16890198D01*
X12522444Y-16890198D02*
X12531967Y-16899722D01*
X12531967Y-16899722D02*
X12541491Y-16918770D01*
X12541491Y-16918770D02*
X12541491Y-16966389D01*
X12541491Y-16966389D02*
X12531967Y-16985436D01*
X12531967Y-16985436D02*
X12522444Y-16994960D01*
X12522444Y-16994960D02*
X12503396Y-17004484D01*
X12503396Y-17004484D02*
X12446253Y-17004484D01*
X12446253Y-17004484D02*
X12427206Y-16994960D01*
X12427206Y-16994960D02*
X12417682Y-16985436D01*
X12636729Y-17004484D02*
X12674825Y-17004484D01*
X12674825Y-17004484D02*
X12693872Y-16994960D01*
X12693872Y-16994960D02*
X12703396Y-16985436D01*
X12703396Y-16985436D02*
X12722444Y-16956865D01*
X12722444Y-16956865D02*
X12731967Y-16918770D01*
X12731967Y-16918770D02*
X12731967Y-16842579D01*
X12731967Y-16842579D02*
X12722444Y-16823531D01*
X12722444Y-16823531D02*
X12712920Y-16814008D01*
X12712920Y-16814008D02*
X12693872Y-16804484D01*
X12693872Y-16804484D02*
X12655777Y-16804484D01*
X12655777Y-16804484D02*
X12636729Y-16814008D01*
X12636729Y-16814008D02*
X12627206Y-16823531D01*
X12627206Y-16823531D02*
X12617682Y-16842579D01*
X12617682Y-16842579D02*
X12617682Y-16890198D01*
X12617682Y-16890198D02*
X12627206Y-16909246D01*
X12627206Y-16909246D02*
X12636729Y-16918770D01*
X12636729Y-16918770D02*
X12655777Y-16928293D01*
X12655777Y-16928293D02*
X12693872Y-16928293D01*
X12693872Y-16928293D02*
X12712920Y-16918770D01*
X12712920Y-16918770D02*
X12722444Y-16909246D01*
X12722444Y-16909246D02*
X12731967Y-16890198D01*
X12903396Y-16871150D02*
X12903396Y-17004484D01*
X12855777Y-16794960D02*
X12808158Y-16937817D01*
X12808158Y-16937817D02*
X12931967Y-16937817D01*
X12998634Y-16804484D02*
X12998634Y-16842579D01*
X13074825Y-16804484D02*
X13074825Y-16842579D01*
X13370063Y-17080674D02*
X13360539Y-17071150D01*
X13360539Y-17071150D02*
X13341491Y-17042579D01*
X13341491Y-17042579D02*
X13331968Y-17023531D01*
X13331968Y-17023531D02*
X13322444Y-16994960D01*
X13322444Y-16994960D02*
X13312920Y-16947341D01*
X13312920Y-16947341D02*
X13312920Y-16909246D01*
X13312920Y-16909246D02*
X13322444Y-16861627D01*
X13322444Y-16861627D02*
X13331968Y-16833055D01*
X13331968Y-16833055D02*
X13341491Y-16814008D01*
X13341491Y-16814008D02*
X13360539Y-16785436D01*
X13360539Y-16785436D02*
X13370063Y-16775912D01*
X13531968Y-16871150D02*
X13531968Y-17004484D01*
X13484348Y-16794960D02*
X13436729Y-16937817D01*
X13436729Y-16937817D02*
X13560539Y-16937817D01*
X13789110Y-17004484D02*
X13789110Y-16804484D01*
X13874825Y-17004484D02*
X13874825Y-16899722D01*
X13874825Y-16899722D02*
X13865301Y-16880674D01*
X13865301Y-16880674D02*
X13846253Y-16871150D01*
X13846253Y-16871150D02*
X13817682Y-16871150D01*
X13817682Y-16871150D02*
X13798634Y-16880674D01*
X13798634Y-16880674D02*
X13789110Y-16890198D01*
X13998634Y-17004484D02*
X13979587Y-16994960D01*
X13979587Y-16994960D02*
X13970063Y-16985436D01*
X13970063Y-16985436D02*
X13960539Y-16966389D01*
X13960539Y-16966389D02*
X13960539Y-16909246D01*
X13960539Y-16909246D02*
X13970063Y-16890198D01*
X13970063Y-16890198D02*
X13979587Y-16880674D01*
X13979587Y-16880674D02*
X13998634Y-16871150D01*
X13998634Y-16871150D02*
X14027206Y-16871150D01*
X14027206Y-16871150D02*
X14046253Y-16880674D01*
X14046253Y-16880674D02*
X14055777Y-16890198D01*
X14055777Y-16890198D02*
X14065301Y-16909246D01*
X14065301Y-16909246D02*
X14065301Y-16966389D01*
X14065301Y-16966389D02*
X14055777Y-16985436D01*
X14055777Y-16985436D02*
X14046253Y-16994960D01*
X14046253Y-16994960D02*
X14027206Y-17004484D01*
X14027206Y-17004484D02*
X13998634Y-17004484D01*
X14179587Y-17004484D02*
X14160539Y-16994960D01*
X14160539Y-16994960D02*
X14151015Y-16975912D01*
X14151015Y-16975912D02*
X14151015Y-16804484D01*
X14331968Y-16994960D02*
X14312920Y-17004484D01*
X14312920Y-17004484D02*
X14274825Y-17004484D01*
X14274825Y-17004484D02*
X14255777Y-16994960D01*
X14255777Y-16994960D02*
X14246253Y-16975912D01*
X14246253Y-16975912D02*
X14246253Y-16899722D01*
X14246253Y-16899722D02*
X14255777Y-16880674D01*
X14255777Y-16880674D02*
X14274825Y-16871150D01*
X14274825Y-16871150D02*
X14312920Y-16871150D01*
X14312920Y-16871150D02*
X14331968Y-16880674D01*
X14331968Y-16880674D02*
X14341491Y-16899722D01*
X14341491Y-16899722D02*
X14341491Y-16918770D01*
X14341491Y-16918770D02*
X14246253Y-16937817D01*
X14417682Y-16994960D02*
X14436730Y-17004484D01*
X14436730Y-17004484D02*
X14474825Y-17004484D01*
X14474825Y-17004484D02*
X14493872Y-16994960D01*
X14493872Y-16994960D02*
X14503396Y-16975912D01*
X14503396Y-16975912D02*
X14503396Y-16966389D01*
X14503396Y-16966389D02*
X14493872Y-16947341D01*
X14493872Y-16947341D02*
X14474825Y-16937817D01*
X14474825Y-16937817D02*
X14446253Y-16937817D01*
X14446253Y-16937817D02*
X14427206Y-16928293D01*
X14427206Y-16928293D02*
X14417682Y-16909246D01*
X14417682Y-16909246D02*
X14417682Y-16899722D01*
X14417682Y-16899722D02*
X14427206Y-16880674D01*
X14427206Y-16880674D02*
X14446253Y-16871150D01*
X14446253Y-16871150D02*
X14474825Y-16871150D01*
X14474825Y-16871150D02*
X14493872Y-16880674D01*
X14570063Y-17080674D02*
X14579587Y-17071150D01*
X14579587Y-17071150D02*
X14598634Y-17042579D01*
X14598634Y-17042579D02*
X14608158Y-17023531D01*
X14608158Y-17023531D02*
X14617682Y-16994960D01*
X14617682Y-16994960D02*
X14627206Y-16947341D01*
X14627206Y-16947341D02*
X14627206Y-16909246D01*
X14627206Y-16909246D02*
X14617682Y-16861627D01*
X14617682Y-16861627D02*
X14608158Y-16833055D01*
X14608158Y-16833055D02*
X14598634Y-16814008D01*
X14598634Y-16814008D02*
X14579587Y-16785436D01*
X14579587Y-16785436D02*
X14570063Y-16775912D01*
D12*
X9693000Y-17126000D02*
X9795000Y-17228000D01*
X9795000Y-17126000D02*
X9693000Y-17228000D01*
X9744000Y-17228000D02*
X9795000Y-17177000D01*
X9744000Y-17126000D01*
X9693000Y-17177000D01*
X9744000Y-17228000D01*
D11*
X10160539Y-17268484D02*
X10046253Y-17268484D01*
X10103396Y-17268484D02*
X10103396Y-17068484D01*
X10103396Y-17068484D02*
X10084348Y-17097055D01*
X10084348Y-17097055D02*
X10065301Y-17116103D01*
X10065301Y-17116103D02*
X10046253Y-17125627D01*
X10246253Y-17249436D02*
X10255777Y-17258960D01*
X10255777Y-17258960D02*
X10246253Y-17268484D01*
X10246253Y-17268484D02*
X10236729Y-17258960D01*
X10236729Y-17258960D02*
X10246253Y-17249436D01*
X10246253Y-17249436D02*
X10246253Y-17268484D01*
X10379586Y-17068484D02*
X10398634Y-17068484D01*
X10398634Y-17068484D02*
X10417682Y-17078008D01*
X10417682Y-17078008D02*
X10427205Y-17087531D01*
X10427205Y-17087531D02*
X10436729Y-17106579D01*
X10436729Y-17106579D02*
X10446253Y-17144674D01*
X10446253Y-17144674D02*
X10446253Y-17192293D01*
X10446253Y-17192293D02*
X10436729Y-17230389D01*
X10436729Y-17230389D02*
X10427205Y-17249436D01*
X10427205Y-17249436D02*
X10417682Y-17258960D01*
X10417682Y-17258960D02*
X10398634Y-17268484D01*
X10398634Y-17268484D02*
X10379586Y-17268484D01*
X10379586Y-17268484D02*
X10360539Y-17258960D01*
X10360539Y-17258960D02*
X10351015Y-17249436D01*
X10351015Y-17249436D02*
X10341491Y-17230389D01*
X10341491Y-17230389D02*
X10331967Y-17192293D01*
X10331967Y-17192293D02*
X10331967Y-17144674D01*
X10331967Y-17144674D02*
X10341491Y-17106579D01*
X10341491Y-17106579D02*
X10351015Y-17087531D01*
X10351015Y-17087531D02*
X10360539Y-17078008D01*
X10360539Y-17078008D02*
X10379586Y-17068484D01*
X10522444Y-17087531D02*
X10531967Y-17078008D01*
X10531967Y-17078008D02*
X10551015Y-17068484D01*
X10551015Y-17068484D02*
X10598634Y-17068484D01*
X10598634Y-17068484D02*
X10617682Y-17078008D01*
X10617682Y-17078008D02*
X10627205Y-17087531D01*
X10627205Y-17087531D02*
X10636729Y-17106579D01*
X10636729Y-17106579D02*
X10636729Y-17125627D01*
X10636729Y-17125627D02*
X10627205Y-17154198D01*
X10627205Y-17154198D02*
X10512920Y-17268484D01*
X10512920Y-17268484D02*
X10636729Y-17268484D01*
X10760539Y-17068484D02*
X10779586Y-17068484D01*
X10779586Y-17068484D02*
X10798634Y-17078008D01*
X10798634Y-17078008D02*
X10808158Y-17087531D01*
X10808158Y-17087531D02*
X10817682Y-17106579D01*
X10817682Y-17106579D02*
X10827205Y-17144674D01*
X10827205Y-17144674D02*
X10827205Y-17192293D01*
X10827205Y-17192293D02*
X10817682Y-17230389D01*
X10817682Y-17230389D02*
X10808158Y-17249436D01*
X10808158Y-17249436D02*
X10798634Y-17258960D01*
X10798634Y-17258960D02*
X10779586Y-17268484D01*
X10779586Y-17268484D02*
X10760539Y-17268484D01*
X10760539Y-17268484D02*
X10741491Y-17258960D01*
X10741491Y-17258960D02*
X10731967Y-17249436D01*
X10731967Y-17249436D02*
X10722444Y-17230389D01*
X10722444Y-17230389D02*
X10712920Y-17192293D01*
X10712920Y-17192293D02*
X10712920Y-17144674D01*
X10712920Y-17144674D02*
X10722444Y-17106579D01*
X10722444Y-17106579D02*
X10731967Y-17087531D01*
X10731967Y-17087531D02*
X10741491Y-17078008D01*
X10741491Y-17078008D02*
X10760539Y-17068484D01*
X10912920Y-17268484D02*
X10912920Y-17135150D01*
X10912920Y-17154198D02*
X10922444Y-17144674D01*
X10922444Y-17144674D02*
X10941491Y-17135150D01*
X10941491Y-17135150D02*
X10970063Y-17135150D01*
X10970063Y-17135150D02*
X10989110Y-17144674D01*
X10989110Y-17144674D02*
X10998634Y-17163722D01*
X10998634Y-17163722D02*
X10998634Y-17268484D01*
X10998634Y-17163722D02*
X11008158Y-17144674D01*
X11008158Y-17144674D02*
X11027205Y-17135150D01*
X11027205Y-17135150D02*
X11055777Y-17135150D01*
X11055777Y-17135150D02*
X11074825Y-17144674D01*
X11074825Y-17144674D02*
X11084348Y-17163722D01*
X11084348Y-17163722D02*
X11084348Y-17268484D01*
X11179586Y-17268484D02*
X11179586Y-17135150D01*
X11179586Y-17154198D02*
X11189110Y-17144674D01*
X11189110Y-17144674D02*
X11208158Y-17135150D01*
X11208158Y-17135150D02*
X11236729Y-17135150D01*
X11236729Y-17135150D02*
X11255777Y-17144674D01*
X11255777Y-17144674D02*
X11265301Y-17163722D01*
X11265301Y-17163722D02*
X11265301Y-17268484D01*
X11265301Y-17163722D02*
X11274824Y-17144674D01*
X11274824Y-17144674D02*
X11293872Y-17135150D01*
X11293872Y-17135150D02*
X11322443Y-17135150D01*
X11322443Y-17135150D02*
X11341491Y-17144674D01*
X11341491Y-17144674D02*
X11351015Y-17163722D01*
X11351015Y-17163722D02*
X11351015Y-17268484D01*
X11741491Y-17058960D02*
X11570063Y-17316103D01*
X11998634Y-17068484D02*
X12017682Y-17068484D01*
X12017682Y-17068484D02*
X12036729Y-17078008D01*
X12036729Y-17078008D02*
X12046253Y-17087531D01*
X12046253Y-17087531D02*
X12055777Y-17106579D01*
X12055777Y-17106579D02*
X12065301Y-17144674D01*
X12065301Y-17144674D02*
X12065301Y-17192293D01*
X12065301Y-17192293D02*
X12055777Y-17230389D01*
X12055777Y-17230389D02*
X12046253Y-17249436D01*
X12046253Y-17249436D02*
X12036729Y-17258960D01*
X12036729Y-17258960D02*
X12017682Y-17268484D01*
X12017682Y-17268484D02*
X11998634Y-17268484D01*
X11998634Y-17268484D02*
X11979586Y-17258960D01*
X11979586Y-17258960D02*
X11970063Y-17249436D01*
X11970063Y-17249436D02*
X11960539Y-17230389D01*
X11960539Y-17230389D02*
X11951015Y-17192293D01*
X11951015Y-17192293D02*
X11951015Y-17144674D01*
X11951015Y-17144674D02*
X11960539Y-17106579D01*
X11960539Y-17106579D02*
X11970063Y-17087531D01*
X11970063Y-17087531D02*
X11979586Y-17078008D01*
X11979586Y-17078008D02*
X11998634Y-17068484D01*
X12151015Y-17249436D02*
X12160539Y-17258960D01*
X12160539Y-17258960D02*
X12151015Y-17268484D01*
X12151015Y-17268484D02*
X12141491Y-17258960D01*
X12141491Y-17258960D02*
X12151015Y-17249436D01*
X12151015Y-17249436D02*
X12151015Y-17268484D01*
X12284348Y-17068484D02*
X12303396Y-17068484D01*
X12303396Y-17068484D02*
X12322444Y-17078008D01*
X12322444Y-17078008D02*
X12331967Y-17087531D01*
X12331967Y-17087531D02*
X12341491Y-17106579D01*
X12341491Y-17106579D02*
X12351015Y-17144674D01*
X12351015Y-17144674D02*
X12351015Y-17192293D01*
X12351015Y-17192293D02*
X12341491Y-17230389D01*
X12341491Y-17230389D02*
X12331967Y-17249436D01*
X12331967Y-17249436D02*
X12322444Y-17258960D01*
X12322444Y-17258960D02*
X12303396Y-17268484D01*
X12303396Y-17268484D02*
X12284348Y-17268484D01*
X12284348Y-17268484D02*
X12265301Y-17258960D01*
X12265301Y-17258960D02*
X12255777Y-17249436D01*
X12255777Y-17249436D02*
X12246253Y-17230389D01*
X12246253Y-17230389D02*
X12236729Y-17192293D01*
X12236729Y-17192293D02*
X12236729Y-17144674D01*
X12236729Y-17144674D02*
X12246253Y-17106579D01*
X12246253Y-17106579D02*
X12255777Y-17087531D01*
X12255777Y-17087531D02*
X12265301Y-17078008D01*
X12265301Y-17078008D02*
X12284348Y-17068484D01*
X12522444Y-17135150D02*
X12522444Y-17268484D01*
X12474825Y-17058960D02*
X12427206Y-17201817D01*
X12427206Y-17201817D02*
X12551015Y-17201817D01*
X12665301Y-17068484D02*
X12684348Y-17068484D01*
X12684348Y-17068484D02*
X12703396Y-17078008D01*
X12703396Y-17078008D02*
X12712920Y-17087531D01*
X12712920Y-17087531D02*
X12722444Y-17106579D01*
X12722444Y-17106579D02*
X12731967Y-17144674D01*
X12731967Y-17144674D02*
X12731967Y-17192293D01*
X12731967Y-17192293D02*
X12722444Y-17230389D01*
X12722444Y-17230389D02*
X12712920Y-17249436D01*
X12712920Y-17249436D02*
X12703396Y-17258960D01*
X12703396Y-17258960D02*
X12684348Y-17268484D01*
X12684348Y-17268484D02*
X12665301Y-17268484D01*
X12665301Y-17268484D02*
X12646253Y-17258960D01*
X12646253Y-17258960D02*
X12636729Y-17249436D01*
X12636729Y-17249436D02*
X12627206Y-17230389D01*
X12627206Y-17230389D02*
X12617682Y-17192293D01*
X12617682Y-17192293D02*
X12617682Y-17144674D01*
X12617682Y-17144674D02*
X12627206Y-17106579D01*
X12627206Y-17106579D02*
X12636729Y-17087531D01*
X12636729Y-17087531D02*
X12646253Y-17078008D01*
X12646253Y-17078008D02*
X12665301Y-17068484D01*
X12808158Y-17087531D02*
X12817682Y-17078008D01*
X12817682Y-17078008D02*
X12836729Y-17068484D01*
X12836729Y-17068484D02*
X12884348Y-17068484D01*
X12884348Y-17068484D02*
X12903396Y-17078008D01*
X12903396Y-17078008D02*
X12912920Y-17087531D01*
X12912920Y-17087531D02*
X12922444Y-17106579D01*
X12922444Y-17106579D02*
X12922444Y-17125627D01*
X12922444Y-17125627D02*
X12912920Y-17154198D01*
X12912920Y-17154198D02*
X12798634Y-17268484D01*
X12798634Y-17268484D02*
X12922444Y-17268484D01*
X12998634Y-17068484D02*
X12998634Y-17106579D01*
X13074825Y-17068484D02*
X13074825Y-17106579D01*
X13370063Y-17344674D02*
X13360539Y-17335150D01*
X13360539Y-17335150D02*
X13341491Y-17306579D01*
X13341491Y-17306579D02*
X13331968Y-17287531D01*
X13331968Y-17287531D02*
X13322444Y-17258960D01*
X13322444Y-17258960D02*
X13312920Y-17211341D01*
X13312920Y-17211341D02*
X13312920Y-17173246D01*
X13312920Y-17173246D02*
X13322444Y-17125627D01*
X13322444Y-17125627D02*
X13331968Y-17097055D01*
X13331968Y-17097055D02*
X13341491Y-17078008D01*
X13341491Y-17078008D02*
X13360539Y-17049436D01*
X13360539Y-17049436D02*
X13370063Y-17039912D01*
X13427206Y-17068484D02*
X13551015Y-17068484D01*
X13551015Y-17068484D02*
X13484348Y-17144674D01*
X13484348Y-17144674D02*
X13512920Y-17144674D01*
X13512920Y-17144674D02*
X13531968Y-17154198D01*
X13531968Y-17154198D02*
X13541491Y-17163722D01*
X13541491Y-17163722D02*
X13551015Y-17182770D01*
X13551015Y-17182770D02*
X13551015Y-17230389D01*
X13551015Y-17230389D02*
X13541491Y-17249436D01*
X13541491Y-17249436D02*
X13531968Y-17258960D01*
X13531968Y-17258960D02*
X13512920Y-17268484D01*
X13512920Y-17268484D02*
X13455777Y-17268484D01*
X13455777Y-17268484D02*
X13436729Y-17258960D01*
X13436729Y-17258960D02*
X13427206Y-17249436D01*
X13789110Y-17268484D02*
X13789110Y-17068484D01*
X13874825Y-17268484D02*
X13874825Y-17163722D01*
X13874825Y-17163722D02*
X13865301Y-17144674D01*
X13865301Y-17144674D02*
X13846253Y-17135150D01*
X13846253Y-17135150D02*
X13817682Y-17135150D01*
X13817682Y-17135150D02*
X13798634Y-17144674D01*
X13798634Y-17144674D02*
X13789110Y-17154198D01*
X13998634Y-17268484D02*
X13979587Y-17258960D01*
X13979587Y-17258960D02*
X13970063Y-17249436D01*
X13970063Y-17249436D02*
X13960539Y-17230389D01*
X13960539Y-17230389D02*
X13960539Y-17173246D01*
X13960539Y-17173246D02*
X13970063Y-17154198D01*
X13970063Y-17154198D02*
X13979587Y-17144674D01*
X13979587Y-17144674D02*
X13998634Y-17135150D01*
X13998634Y-17135150D02*
X14027206Y-17135150D01*
X14027206Y-17135150D02*
X14046253Y-17144674D01*
X14046253Y-17144674D02*
X14055777Y-17154198D01*
X14055777Y-17154198D02*
X14065301Y-17173246D01*
X14065301Y-17173246D02*
X14065301Y-17230389D01*
X14065301Y-17230389D02*
X14055777Y-17249436D01*
X14055777Y-17249436D02*
X14046253Y-17258960D01*
X14046253Y-17258960D02*
X14027206Y-17268484D01*
X14027206Y-17268484D02*
X13998634Y-17268484D01*
X14179587Y-17268484D02*
X14160539Y-17258960D01*
X14160539Y-17258960D02*
X14151015Y-17239912D01*
X14151015Y-17239912D02*
X14151015Y-17068484D01*
X14331968Y-17258960D02*
X14312920Y-17268484D01*
X14312920Y-17268484D02*
X14274825Y-17268484D01*
X14274825Y-17268484D02*
X14255777Y-17258960D01*
X14255777Y-17258960D02*
X14246253Y-17239912D01*
X14246253Y-17239912D02*
X14246253Y-17163722D01*
X14246253Y-17163722D02*
X14255777Y-17144674D01*
X14255777Y-17144674D02*
X14274825Y-17135150D01*
X14274825Y-17135150D02*
X14312920Y-17135150D01*
X14312920Y-17135150D02*
X14331968Y-17144674D01*
X14331968Y-17144674D02*
X14341491Y-17163722D01*
X14341491Y-17163722D02*
X14341491Y-17182770D01*
X14341491Y-17182770D02*
X14246253Y-17201817D01*
X14417682Y-17258960D02*
X14436730Y-17268484D01*
X14436730Y-17268484D02*
X14474825Y-17268484D01*
X14474825Y-17268484D02*
X14493872Y-17258960D01*
X14493872Y-17258960D02*
X14503396Y-17239912D01*
X14503396Y-17239912D02*
X14503396Y-17230389D01*
X14503396Y-17230389D02*
X14493872Y-17211341D01*
X14493872Y-17211341D02*
X14474825Y-17201817D01*
X14474825Y-17201817D02*
X14446253Y-17201817D01*
X14446253Y-17201817D02*
X14427206Y-17192293D01*
X14427206Y-17192293D02*
X14417682Y-17173246D01*
X14417682Y-17173246D02*
X14417682Y-17163722D01*
X14417682Y-17163722D02*
X14427206Y-17144674D01*
X14427206Y-17144674D02*
X14446253Y-17135150D01*
X14446253Y-17135150D02*
X14474825Y-17135150D01*
X14474825Y-17135150D02*
X14493872Y-17144674D01*
X14570063Y-17344674D02*
X14579587Y-17335150D01*
X14579587Y-17335150D02*
X14598634Y-17306579D01*
X14598634Y-17306579D02*
X14608158Y-17287531D01*
X14608158Y-17287531D02*
X14617682Y-17258960D01*
X14617682Y-17258960D02*
X14627206Y-17211341D01*
X14627206Y-17211341D02*
X14627206Y-17173246D01*
X14627206Y-17173246D02*
X14617682Y-17125627D01*
X14617682Y-17125627D02*
X14608158Y-17097055D01*
X14608158Y-17097055D02*
X14598634Y-17078008D01*
X14598634Y-17078008D02*
X14579587Y-17049436D01*
X14579587Y-17049436D02*
X14570063Y-17039912D01*
D13*
X9740000Y-17386000D02*
X9740000Y-17496000D01*
X9685000Y-17441000D02*
X9795000Y-17441000D01*
X9795000Y-17441000D02*
G75*
G03*
X9795000Y-17441000I-55000J0D01*
G01*
D11*
X10160539Y-17532484D02*
X10046253Y-17532484D01*
X10103396Y-17532484D02*
X10103396Y-17332484D01*
X10103396Y-17332484D02*
X10084348Y-17361055D01*
X10084348Y-17361055D02*
X10065301Y-17380103D01*
X10065301Y-17380103D02*
X10046253Y-17389627D01*
X10246253Y-17513436D02*
X10255777Y-17522960D01*
X10255777Y-17522960D02*
X10246253Y-17532484D01*
X10246253Y-17532484D02*
X10236729Y-17522960D01*
X10236729Y-17522960D02*
X10246253Y-17513436D01*
X10246253Y-17513436D02*
X10246253Y-17532484D01*
X10446253Y-17532484D02*
X10331967Y-17532484D01*
X10389110Y-17532484D02*
X10389110Y-17332484D01*
X10389110Y-17332484D02*
X10370063Y-17361055D01*
X10370063Y-17361055D02*
X10351015Y-17380103D01*
X10351015Y-17380103D02*
X10331967Y-17389627D01*
X10570063Y-17332484D02*
X10589110Y-17332484D01*
X10589110Y-17332484D02*
X10608158Y-17342008D01*
X10608158Y-17342008D02*
X10617682Y-17351531D01*
X10617682Y-17351531D02*
X10627205Y-17370579D01*
X10627205Y-17370579D02*
X10636729Y-17408674D01*
X10636729Y-17408674D02*
X10636729Y-17456293D01*
X10636729Y-17456293D02*
X10627205Y-17494389D01*
X10627205Y-17494389D02*
X10617682Y-17513436D01*
X10617682Y-17513436D02*
X10608158Y-17522960D01*
X10608158Y-17522960D02*
X10589110Y-17532484D01*
X10589110Y-17532484D02*
X10570063Y-17532484D01*
X10570063Y-17532484D02*
X10551015Y-17522960D01*
X10551015Y-17522960D02*
X10541491Y-17513436D01*
X10541491Y-17513436D02*
X10531967Y-17494389D01*
X10531967Y-17494389D02*
X10522444Y-17456293D01*
X10522444Y-17456293D02*
X10522444Y-17408674D01*
X10522444Y-17408674D02*
X10531967Y-17370579D01*
X10531967Y-17370579D02*
X10541491Y-17351531D01*
X10541491Y-17351531D02*
X10551015Y-17342008D01*
X10551015Y-17342008D02*
X10570063Y-17332484D01*
X10760539Y-17332484D02*
X10779586Y-17332484D01*
X10779586Y-17332484D02*
X10798634Y-17342008D01*
X10798634Y-17342008D02*
X10808158Y-17351531D01*
X10808158Y-17351531D02*
X10817682Y-17370579D01*
X10817682Y-17370579D02*
X10827205Y-17408674D01*
X10827205Y-17408674D02*
X10827205Y-17456293D01*
X10827205Y-17456293D02*
X10817682Y-17494389D01*
X10817682Y-17494389D02*
X10808158Y-17513436D01*
X10808158Y-17513436D02*
X10798634Y-17522960D01*
X10798634Y-17522960D02*
X10779586Y-17532484D01*
X10779586Y-17532484D02*
X10760539Y-17532484D01*
X10760539Y-17532484D02*
X10741491Y-17522960D01*
X10741491Y-17522960D02*
X10731967Y-17513436D01*
X10731967Y-17513436D02*
X10722444Y-17494389D01*
X10722444Y-17494389D02*
X10712920Y-17456293D01*
X10712920Y-17456293D02*
X10712920Y-17408674D01*
X10712920Y-17408674D02*
X10722444Y-17370579D01*
X10722444Y-17370579D02*
X10731967Y-17351531D01*
X10731967Y-17351531D02*
X10741491Y-17342008D01*
X10741491Y-17342008D02*
X10760539Y-17332484D01*
X10912920Y-17532484D02*
X10912920Y-17399150D01*
X10912920Y-17418198D02*
X10922444Y-17408674D01*
X10922444Y-17408674D02*
X10941491Y-17399150D01*
X10941491Y-17399150D02*
X10970063Y-17399150D01*
X10970063Y-17399150D02*
X10989110Y-17408674D01*
X10989110Y-17408674D02*
X10998634Y-17427722D01*
X10998634Y-17427722D02*
X10998634Y-17532484D01*
X10998634Y-17427722D02*
X11008158Y-17408674D01*
X11008158Y-17408674D02*
X11027205Y-17399150D01*
X11027205Y-17399150D02*
X11055777Y-17399150D01*
X11055777Y-17399150D02*
X11074825Y-17408674D01*
X11074825Y-17408674D02*
X11084348Y-17427722D01*
X11084348Y-17427722D02*
X11084348Y-17532484D01*
X11179586Y-17532484D02*
X11179586Y-17399150D01*
X11179586Y-17418198D02*
X11189110Y-17408674D01*
X11189110Y-17408674D02*
X11208158Y-17399150D01*
X11208158Y-17399150D02*
X11236729Y-17399150D01*
X11236729Y-17399150D02*
X11255777Y-17408674D01*
X11255777Y-17408674D02*
X11265301Y-17427722D01*
X11265301Y-17427722D02*
X11265301Y-17532484D01*
X11265301Y-17427722D02*
X11274824Y-17408674D01*
X11274824Y-17408674D02*
X11293872Y-17399150D01*
X11293872Y-17399150D02*
X11322443Y-17399150D01*
X11322443Y-17399150D02*
X11341491Y-17408674D01*
X11341491Y-17408674D02*
X11351015Y-17427722D01*
X11351015Y-17427722D02*
X11351015Y-17532484D01*
X11741491Y-17322960D02*
X11570063Y-17580103D01*
X11998634Y-17332484D02*
X12017682Y-17332484D01*
X12017682Y-17332484D02*
X12036729Y-17342008D01*
X12036729Y-17342008D02*
X12046253Y-17351531D01*
X12046253Y-17351531D02*
X12055777Y-17370579D01*
X12055777Y-17370579D02*
X12065301Y-17408674D01*
X12065301Y-17408674D02*
X12065301Y-17456293D01*
X12065301Y-17456293D02*
X12055777Y-17494389D01*
X12055777Y-17494389D02*
X12046253Y-17513436D01*
X12046253Y-17513436D02*
X12036729Y-17522960D01*
X12036729Y-17522960D02*
X12017682Y-17532484D01*
X12017682Y-17532484D02*
X11998634Y-17532484D01*
X11998634Y-17532484D02*
X11979586Y-17522960D01*
X11979586Y-17522960D02*
X11970063Y-17513436D01*
X11970063Y-17513436D02*
X11960539Y-17494389D01*
X11960539Y-17494389D02*
X11951015Y-17456293D01*
X11951015Y-17456293D02*
X11951015Y-17408674D01*
X11951015Y-17408674D02*
X11960539Y-17370579D01*
X11960539Y-17370579D02*
X11970063Y-17351531D01*
X11970063Y-17351531D02*
X11979586Y-17342008D01*
X11979586Y-17342008D02*
X11998634Y-17332484D01*
X12151015Y-17513436D02*
X12160539Y-17522960D01*
X12160539Y-17522960D02*
X12151015Y-17532484D01*
X12151015Y-17532484D02*
X12141491Y-17522960D01*
X12141491Y-17522960D02*
X12151015Y-17513436D01*
X12151015Y-17513436D02*
X12151015Y-17532484D01*
X12284348Y-17332484D02*
X12303396Y-17332484D01*
X12303396Y-17332484D02*
X12322444Y-17342008D01*
X12322444Y-17342008D02*
X12331967Y-17351531D01*
X12331967Y-17351531D02*
X12341491Y-17370579D01*
X12341491Y-17370579D02*
X12351015Y-17408674D01*
X12351015Y-17408674D02*
X12351015Y-17456293D01*
X12351015Y-17456293D02*
X12341491Y-17494389D01*
X12341491Y-17494389D02*
X12331967Y-17513436D01*
X12331967Y-17513436D02*
X12322444Y-17522960D01*
X12322444Y-17522960D02*
X12303396Y-17532484D01*
X12303396Y-17532484D02*
X12284348Y-17532484D01*
X12284348Y-17532484D02*
X12265301Y-17522960D01*
X12265301Y-17522960D02*
X12255777Y-17513436D01*
X12255777Y-17513436D02*
X12246253Y-17494389D01*
X12246253Y-17494389D02*
X12236729Y-17456293D01*
X12236729Y-17456293D02*
X12236729Y-17408674D01*
X12236729Y-17408674D02*
X12246253Y-17370579D01*
X12246253Y-17370579D02*
X12255777Y-17351531D01*
X12255777Y-17351531D02*
X12265301Y-17342008D01*
X12265301Y-17342008D02*
X12284348Y-17332484D01*
X12522444Y-17399150D02*
X12522444Y-17532484D01*
X12474825Y-17322960D02*
X12427206Y-17465817D01*
X12427206Y-17465817D02*
X12551015Y-17465817D01*
X12608158Y-17332484D02*
X12731967Y-17332484D01*
X12731967Y-17332484D02*
X12665301Y-17408674D01*
X12665301Y-17408674D02*
X12693872Y-17408674D01*
X12693872Y-17408674D02*
X12712920Y-17418198D01*
X12712920Y-17418198D02*
X12722444Y-17427722D01*
X12722444Y-17427722D02*
X12731967Y-17446770D01*
X12731967Y-17446770D02*
X12731967Y-17494389D01*
X12731967Y-17494389D02*
X12722444Y-17513436D01*
X12722444Y-17513436D02*
X12712920Y-17522960D01*
X12712920Y-17522960D02*
X12693872Y-17532484D01*
X12693872Y-17532484D02*
X12636729Y-17532484D01*
X12636729Y-17532484D02*
X12617682Y-17522960D01*
X12617682Y-17522960D02*
X12608158Y-17513436D01*
X12798634Y-17332484D02*
X12922444Y-17332484D01*
X12922444Y-17332484D02*
X12855777Y-17408674D01*
X12855777Y-17408674D02*
X12884348Y-17408674D01*
X12884348Y-17408674D02*
X12903396Y-17418198D01*
X12903396Y-17418198D02*
X12912920Y-17427722D01*
X12912920Y-17427722D02*
X12922444Y-17446770D01*
X12922444Y-17446770D02*
X12922444Y-17494389D01*
X12922444Y-17494389D02*
X12912920Y-17513436D01*
X12912920Y-17513436D02*
X12903396Y-17522960D01*
X12903396Y-17522960D02*
X12884348Y-17532484D01*
X12884348Y-17532484D02*
X12827206Y-17532484D01*
X12827206Y-17532484D02*
X12808158Y-17522960D01*
X12808158Y-17522960D02*
X12798634Y-17513436D01*
X12998634Y-17332484D02*
X12998634Y-17370579D01*
X13074825Y-17332484D02*
X13074825Y-17370579D01*
X13370063Y-17608674D02*
X13360539Y-17599150D01*
X13360539Y-17599150D02*
X13341491Y-17570579D01*
X13341491Y-17570579D02*
X13331968Y-17551531D01*
X13331968Y-17551531D02*
X13322444Y-17522960D01*
X13322444Y-17522960D02*
X13312920Y-17475341D01*
X13312920Y-17475341D02*
X13312920Y-17437246D01*
X13312920Y-17437246D02*
X13322444Y-17389627D01*
X13322444Y-17389627D02*
X13331968Y-17361055D01*
X13331968Y-17361055D02*
X13341491Y-17342008D01*
X13341491Y-17342008D02*
X13360539Y-17313436D01*
X13360539Y-17313436D02*
X13370063Y-17303912D01*
X13436729Y-17351531D02*
X13446253Y-17342008D01*
X13446253Y-17342008D02*
X13465301Y-17332484D01*
X13465301Y-17332484D02*
X13512920Y-17332484D01*
X13512920Y-17332484D02*
X13531968Y-17342008D01*
X13531968Y-17342008D02*
X13541491Y-17351531D01*
X13541491Y-17351531D02*
X13551015Y-17370579D01*
X13551015Y-17370579D02*
X13551015Y-17389627D01*
X13551015Y-17389627D02*
X13541491Y-17418198D01*
X13541491Y-17418198D02*
X13427206Y-17532484D01*
X13427206Y-17532484D02*
X13551015Y-17532484D01*
X13789110Y-17532484D02*
X13789110Y-17332484D01*
X13874825Y-17532484D02*
X13874825Y-17427722D01*
X13874825Y-17427722D02*
X13865301Y-17408674D01*
X13865301Y-17408674D02*
X13846253Y-17399150D01*
X13846253Y-17399150D02*
X13817682Y-17399150D01*
X13817682Y-17399150D02*
X13798634Y-17408674D01*
X13798634Y-17408674D02*
X13789110Y-17418198D01*
X13998634Y-17532484D02*
X13979587Y-17522960D01*
X13979587Y-17522960D02*
X13970063Y-17513436D01*
X13970063Y-17513436D02*
X13960539Y-17494389D01*
X13960539Y-17494389D02*
X13960539Y-17437246D01*
X13960539Y-17437246D02*
X13970063Y-17418198D01*
X13970063Y-17418198D02*
X13979587Y-17408674D01*
X13979587Y-17408674D02*
X13998634Y-17399150D01*
X13998634Y-17399150D02*
X14027206Y-17399150D01*
X14027206Y-17399150D02*
X14046253Y-17408674D01*
X14046253Y-17408674D02*
X14055777Y-17418198D01*
X14055777Y-17418198D02*
X14065301Y-17437246D01*
X14065301Y-17437246D02*
X14065301Y-17494389D01*
X14065301Y-17494389D02*
X14055777Y-17513436D01*
X14055777Y-17513436D02*
X14046253Y-17522960D01*
X14046253Y-17522960D02*
X14027206Y-17532484D01*
X14027206Y-17532484D02*
X13998634Y-17532484D01*
X14179587Y-17532484D02*
X14160539Y-17522960D01*
X14160539Y-17522960D02*
X14151015Y-17503912D01*
X14151015Y-17503912D02*
X14151015Y-17332484D01*
X14331968Y-17522960D02*
X14312920Y-17532484D01*
X14312920Y-17532484D02*
X14274825Y-17532484D01*
X14274825Y-17532484D02*
X14255777Y-17522960D01*
X14255777Y-17522960D02*
X14246253Y-17503912D01*
X14246253Y-17503912D02*
X14246253Y-17427722D01*
X14246253Y-17427722D02*
X14255777Y-17408674D01*
X14255777Y-17408674D02*
X14274825Y-17399150D01*
X14274825Y-17399150D02*
X14312920Y-17399150D01*
X14312920Y-17399150D02*
X14331968Y-17408674D01*
X14331968Y-17408674D02*
X14341491Y-17427722D01*
X14341491Y-17427722D02*
X14341491Y-17446770D01*
X14341491Y-17446770D02*
X14246253Y-17465817D01*
X14417682Y-17522960D02*
X14436730Y-17532484D01*
X14436730Y-17532484D02*
X14474825Y-17532484D01*
X14474825Y-17532484D02*
X14493872Y-17522960D01*
X14493872Y-17522960D02*
X14503396Y-17503912D01*
X14503396Y-17503912D02*
X14503396Y-17494389D01*
X14503396Y-17494389D02*
X14493872Y-17475341D01*
X14493872Y-17475341D02*
X14474825Y-17465817D01*
X14474825Y-17465817D02*
X14446253Y-17465817D01*
X14446253Y-17465817D02*
X14427206Y-17456293D01*
X14427206Y-17456293D02*
X14417682Y-17437246D01*
X14417682Y-17437246D02*
X14417682Y-17427722D01*
X14417682Y-17427722D02*
X14427206Y-17408674D01*
X14427206Y-17408674D02*
X14446253Y-17399150D01*
X14446253Y-17399150D02*
X14474825Y-17399150D01*
X14474825Y-17399150D02*
X14493872Y-17408674D01*
X14570063Y-17608674D02*
X14579587Y-17599150D01*
X14579587Y-17599150D02*
X14598634Y-17570579D01*
X14598634Y-17570579D02*
X14608158Y-17551531D01*
X14608158Y-17551531D02*
X14617682Y-17522960D01*
X14617682Y-17522960D02*
X14627206Y-17475341D01*
X14627206Y-17475341D02*
X14627206Y-17437246D01*
X14627206Y-17437246D02*
X14617682Y-17389627D01*
X14617682Y-17389627D02*
X14608158Y-17361055D01*
X14608158Y-17361055D02*
X14598634Y-17342008D01*
X14598634Y-17342008D02*
X14579587Y-17313436D01*
X14579587Y-17313436D02*
X14570063Y-17303912D01*
X9765711Y-17775711D02*
X9765711Y-17634289D01*
X9624289Y-17634289D01*
X9624289Y-17775711D01*
X9765711Y-17775711D01*
X9795000Y-17705000D02*
G75*
G03*
X9795000Y-17705000I-100000J0D01*
G01*
X10046253Y-17615531D02*
X10055777Y-17606008D01*
X10055777Y-17606008D02*
X10074824Y-17596484D01*
X10074824Y-17596484D02*
X10122444Y-17596484D01*
X10122444Y-17596484D02*
X10141491Y-17606008D01*
X10141491Y-17606008D02*
X10151015Y-17615531D01*
X10151015Y-17615531D02*
X10160539Y-17634579D01*
X10160539Y-17634579D02*
X10160539Y-17653627D01*
X10160539Y-17653627D02*
X10151015Y-17682198D01*
X10151015Y-17682198D02*
X10036729Y-17796484D01*
X10036729Y-17796484D02*
X10160539Y-17796484D01*
X10246253Y-17777436D02*
X10255777Y-17786960D01*
X10255777Y-17786960D02*
X10246253Y-17796484D01*
X10246253Y-17796484D02*
X10236729Y-17786960D01*
X10236729Y-17786960D02*
X10246253Y-17777436D01*
X10246253Y-17777436D02*
X10246253Y-17796484D01*
X10436729Y-17596484D02*
X10341491Y-17596484D01*
X10341491Y-17596484D02*
X10331967Y-17691722D01*
X10331967Y-17691722D02*
X10341491Y-17682198D01*
X10341491Y-17682198D02*
X10360539Y-17672674D01*
X10360539Y-17672674D02*
X10408158Y-17672674D01*
X10408158Y-17672674D02*
X10427205Y-17682198D01*
X10427205Y-17682198D02*
X10436729Y-17691722D01*
X10436729Y-17691722D02*
X10446253Y-17710770D01*
X10446253Y-17710770D02*
X10446253Y-17758389D01*
X10446253Y-17758389D02*
X10436729Y-17777436D01*
X10436729Y-17777436D02*
X10427205Y-17786960D01*
X10427205Y-17786960D02*
X10408158Y-17796484D01*
X10408158Y-17796484D02*
X10360539Y-17796484D01*
X10360539Y-17796484D02*
X10341491Y-17786960D01*
X10341491Y-17786960D02*
X10331967Y-17777436D01*
X10570063Y-17596484D02*
X10589110Y-17596484D01*
X10589110Y-17596484D02*
X10608158Y-17606008D01*
X10608158Y-17606008D02*
X10617682Y-17615531D01*
X10617682Y-17615531D02*
X10627205Y-17634579D01*
X10627205Y-17634579D02*
X10636729Y-17672674D01*
X10636729Y-17672674D02*
X10636729Y-17720293D01*
X10636729Y-17720293D02*
X10627205Y-17758389D01*
X10627205Y-17758389D02*
X10617682Y-17777436D01*
X10617682Y-17777436D02*
X10608158Y-17786960D01*
X10608158Y-17786960D02*
X10589110Y-17796484D01*
X10589110Y-17796484D02*
X10570063Y-17796484D01*
X10570063Y-17796484D02*
X10551015Y-17786960D01*
X10551015Y-17786960D02*
X10541491Y-17777436D01*
X10541491Y-17777436D02*
X10531967Y-17758389D01*
X10531967Y-17758389D02*
X10522444Y-17720293D01*
X10522444Y-17720293D02*
X10522444Y-17672674D01*
X10522444Y-17672674D02*
X10531967Y-17634579D01*
X10531967Y-17634579D02*
X10541491Y-17615531D01*
X10541491Y-17615531D02*
X10551015Y-17606008D01*
X10551015Y-17606008D02*
X10570063Y-17596484D01*
X10760539Y-17596484D02*
X10779586Y-17596484D01*
X10779586Y-17596484D02*
X10798634Y-17606008D01*
X10798634Y-17606008D02*
X10808158Y-17615531D01*
X10808158Y-17615531D02*
X10817682Y-17634579D01*
X10817682Y-17634579D02*
X10827205Y-17672674D01*
X10827205Y-17672674D02*
X10827205Y-17720293D01*
X10827205Y-17720293D02*
X10817682Y-17758389D01*
X10817682Y-17758389D02*
X10808158Y-17777436D01*
X10808158Y-17777436D02*
X10798634Y-17786960D01*
X10798634Y-17786960D02*
X10779586Y-17796484D01*
X10779586Y-17796484D02*
X10760539Y-17796484D01*
X10760539Y-17796484D02*
X10741491Y-17786960D01*
X10741491Y-17786960D02*
X10731967Y-17777436D01*
X10731967Y-17777436D02*
X10722444Y-17758389D01*
X10722444Y-17758389D02*
X10712920Y-17720293D01*
X10712920Y-17720293D02*
X10712920Y-17672674D01*
X10712920Y-17672674D02*
X10722444Y-17634579D01*
X10722444Y-17634579D02*
X10731967Y-17615531D01*
X10731967Y-17615531D02*
X10741491Y-17606008D01*
X10741491Y-17606008D02*
X10760539Y-17596484D01*
X10912920Y-17796484D02*
X10912920Y-17663150D01*
X10912920Y-17682198D02*
X10922444Y-17672674D01*
X10922444Y-17672674D02*
X10941491Y-17663150D01*
X10941491Y-17663150D02*
X10970063Y-17663150D01*
X10970063Y-17663150D02*
X10989110Y-17672674D01*
X10989110Y-17672674D02*
X10998634Y-17691722D01*
X10998634Y-17691722D02*
X10998634Y-17796484D01*
X10998634Y-17691722D02*
X11008158Y-17672674D01*
X11008158Y-17672674D02*
X11027205Y-17663150D01*
X11027205Y-17663150D02*
X11055777Y-17663150D01*
X11055777Y-17663150D02*
X11074825Y-17672674D01*
X11074825Y-17672674D02*
X11084348Y-17691722D01*
X11084348Y-17691722D02*
X11084348Y-17796484D01*
X11179586Y-17796484D02*
X11179586Y-17663150D01*
X11179586Y-17682198D02*
X11189110Y-17672674D01*
X11189110Y-17672674D02*
X11208158Y-17663150D01*
X11208158Y-17663150D02*
X11236729Y-17663150D01*
X11236729Y-17663150D02*
X11255777Y-17672674D01*
X11255777Y-17672674D02*
X11265301Y-17691722D01*
X11265301Y-17691722D02*
X11265301Y-17796484D01*
X11265301Y-17691722D02*
X11274824Y-17672674D01*
X11274824Y-17672674D02*
X11293872Y-17663150D01*
X11293872Y-17663150D02*
X11322443Y-17663150D01*
X11322443Y-17663150D02*
X11341491Y-17672674D01*
X11341491Y-17672674D02*
X11351015Y-17691722D01*
X11351015Y-17691722D02*
X11351015Y-17796484D01*
X11741491Y-17586960D02*
X11570063Y-17844103D01*
X11998634Y-17596484D02*
X12017682Y-17596484D01*
X12017682Y-17596484D02*
X12036729Y-17606008D01*
X12036729Y-17606008D02*
X12046253Y-17615531D01*
X12046253Y-17615531D02*
X12055777Y-17634579D01*
X12055777Y-17634579D02*
X12065301Y-17672674D01*
X12065301Y-17672674D02*
X12065301Y-17720293D01*
X12065301Y-17720293D02*
X12055777Y-17758389D01*
X12055777Y-17758389D02*
X12046253Y-17777436D01*
X12046253Y-17777436D02*
X12036729Y-17786960D01*
X12036729Y-17786960D02*
X12017682Y-17796484D01*
X12017682Y-17796484D02*
X11998634Y-17796484D01*
X11998634Y-17796484D02*
X11979586Y-17786960D01*
X11979586Y-17786960D02*
X11970063Y-17777436D01*
X11970063Y-17777436D02*
X11960539Y-17758389D01*
X11960539Y-17758389D02*
X11951015Y-17720293D01*
X11951015Y-17720293D02*
X11951015Y-17672674D01*
X11951015Y-17672674D02*
X11960539Y-17634579D01*
X11960539Y-17634579D02*
X11970063Y-17615531D01*
X11970063Y-17615531D02*
X11979586Y-17606008D01*
X11979586Y-17606008D02*
X11998634Y-17596484D01*
X12151015Y-17777436D02*
X12160539Y-17786960D01*
X12160539Y-17786960D02*
X12151015Y-17796484D01*
X12151015Y-17796484D02*
X12141491Y-17786960D01*
X12141491Y-17786960D02*
X12151015Y-17777436D01*
X12151015Y-17777436D02*
X12151015Y-17796484D01*
X12284348Y-17596484D02*
X12303396Y-17596484D01*
X12303396Y-17596484D02*
X12322444Y-17606008D01*
X12322444Y-17606008D02*
X12331967Y-17615531D01*
X12331967Y-17615531D02*
X12341491Y-17634579D01*
X12341491Y-17634579D02*
X12351015Y-17672674D01*
X12351015Y-17672674D02*
X12351015Y-17720293D01*
X12351015Y-17720293D02*
X12341491Y-17758389D01*
X12341491Y-17758389D02*
X12331967Y-17777436D01*
X12331967Y-17777436D02*
X12322444Y-17786960D01*
X12322444Y-17786960D02*
X12303396Y-17796484D01*
X12303396Y-17796484D02*
X12284348Y-17796484D01*
X12284348Y-17796484D02*
X12265301Y-17786960D01*
X12265301Y-17786960D02*
X12255777Y-17777436D01*
X12255777Y-17777436D02*
X12246253Y-17758389D01*
X12246253Y-17758389D02*
X12236729Y-17720293D01*
X12236729Y-17720293D02*
X12236729Y-17672674D01*
X12236729Y-17672674D02*
X12246253Y-17634579D01*
X12246253Y-17634579D02*
X12255777Y-17615531D01*
X12255777Y-17615531D02*
X12265301Y-17606008D01*
X12265301Y-17606008D02*
X12284348Y-17596484D01*
X12446253Y-17796484D02*
X12484348Y-17796484D01*
X12484348Y-17796484D02*
X12503396Y-17786960D01*
X12503396Y-17786960D02*
X12512920Y-17777436D01*
X12512920Y-17777436D02*
X12531967Y-17748865D01*
X12531967Y-17748865D02*
X12541491Y-17710770D01*
X12541491Y-17710770D02*
X12541491Y-17634579D01*
X12541491Y-17634579D02*
X12531967Y-17615531D01*
X12531967Y-17615531D02*
X12522444Y-17606008D01*
X12522444Y-17606008D02*
X12503396Y-17596484D01*
X12503396Y-17596484D02*
X12465301Y-17596484D01*
X12465301Y-17596484D02*
X12446253Y-17606008D01*
X12446253Y-17606008D02*
X12436729Y-17615531D01*
X12436729Y-17615531D02*
X12427206Y-17634579D01*
X12427206Y-17634579D02*
X12427206Y-17682198D01*
X12427206Y-17682198D02*
X12436729Y-17701246D01*
X12436729Y-17701246D02*
X12446253Y-17710770D01*
X12446253Y-17710770D02*
X12465301Y-17720293D01*
X12465301Y-17720293D02*
X12503396Y-17720293D01*
X12503396Y-17720293D02*
X12522444Y-17710770D01*
X12522444Y-17710770D02*
X12531967Y-17701246D01*
X12531967Y-17701246D02*
X12541491Y-17682198D01*
X12655777Y-17682198D02*
X12636729Y-17672674D01*
X12636729Y-17672674D02*
X12627206Y-17663150D01*
X12627206Y-17663150D02*
X12617682Y-17644103D01*
X12617682Y-17644103D02*
X12617682Y-17634579D01*
X12617682Y-17634579D02*
X12627206Y-17615531D01*
X12627206Y-17615531D02*
X12636729Y-17606008D01*
X12636729Y-17606008D02*
X12655777Y-17596484D01*
X12655777Y-17596484D02*
X12693872Y-17596484D01*
X12693872Y-17596484D02*
X12712920Y-17606008D01*
X12712920Y-17606008D02*
X12722444Y-17615531D01*
X12722444Y-17615531D02*
X12731967Y-17634579D01*
X12731967Y-17634579D02*
X12731967Y-17644103D01*
X12731967Y-17644103D02*
X12722444Y-17663150D01*
X12722444Y-17663150D02*
X12712920Y-17672674D01*
X12712920Y-17672674D02*
X12693872Y-17682198D01*
X12693872Y-17682198D02*
X12655777Y-17682198D01*
X12655777Y-17682198D02*
X12636729Y-17691722D01*
X12636729Y-17691722D02*
X12627206Y-17701246D01*
X12627206Y-17701246D02*
X12617682Y-17720293D01*
X12617682Y-17720293D02*
X12617682Y-17758389D01*
X12617682Y-17758389D02*
X12627206Y-17777436D01*
X12627206Y-17777436D02*
X12636729Y-17786960D01*
X12636729Y-17786960D02*
X12655777Y-17796484D01*
X12655777Y-17796484D02*
X12693872Y-17796484D01*
X12693872Y-17796484D02*
X12712920Y-17786960D01*
X12712920Y-17786960D02*
X12722444Y-17777436D01*
X12722444Y-17777436D02*
X12731967Y-17758389D01*
X12731967Y-17758389D02*
X12731967Y-17720293D01*
X12731967Y-17720293D02*
X12722444Y-17701246D01*
X12722444Y-17701246D02*
X12712920Y-17691722D01*
X12712920Y-17691722D02*
X12693872Y-17682198D01*
X12903396Y-17663150D02*
X12903396Y-17796484D01*
X12855777Y-17586960D02*
X12808158Y-17729817D01*
X12808158Y-17729817D02*
X12931967Y-17729817D01*
X12998634Y-17596484D02*
X12998634Y-17634579D01*
X13074825Y-17596484D02*
X13074825Y-17634579D01*
X13370063Y-17872674D02*
X13360539Y-17863150D01*
X13360539Y-17863150D02*
X13341491Y-17834579D01*
X13341491Y-17834579D02*
X13331968Y-17815531D01*
X13331968Y-17815531D02*
X13322444Y-17786960D01*
X13322444Y-17786960D02*
X13312920Y-17739341D01*
X13312920Y-17739341D02*
X13312920Y-17701246D01*
X13312920Y-17701246D02*
X13322444Y-17653627D01*
X13322444Y-17653627D02*
X13331968Y-17625055D01*
X13331968Y-17625055D02*
X13341491Y-17606008D01*
X13341491Y-17606008D02*
X13360539Y-17577436D01*
X13360539Y-17577436D02*
X13370063Y-17567912D01*
X13531968Y-17663150D02*
X13531968Y-17796484D01*
X13484348Y-17586960D02*
X13436729Y-17729817D01*
X13436729Y-17729817D02*
X13560539Y-17729817D01*
X13789110Y-17796484D02*
X13789110Y-17596484D01*
X13874825Y-17796484D02*
X13874825Y-17691722D01*
X13874825Y-17691722D02*
X13865301Y-17672674D01*
X13865301Y-17672674D02*
X13846253Y-17663150D01*
X13846253Y-17663150D02*
X13817682Y-17663150D01*
X13817682Y-17663150D02*
X13798634Y-17672674D01*
X13798634Y-17672674D02*
X13789110Y-17682198D01*
X13998634Y-17796484D02*
X13979587Y-17786960D01*
X13979587Y-17786960D02*
X13970063Y-17777436D01*
X13970063Y-17777436D02*
X13960539Y-17758389D01*
X13960539Y-17758389D02*
X13960539Y-17701246D01*
X13960539Y-17701246D02*
X13970063Y-17682198D01*
X13970063Y-17682198D02*
X13979587Y-17672674D01*
X13979587Y-17672674D02*
X13998634Y-17663150D01*
X13998634Y-17663150D02*
X14027206Y-17663150D01*
X14027206Y-17663150D02*
X14046253Y-17672674D01*
X14046253Y-17672674D02*
X14055777Y-17682198D01*
X14055777Y-17682198D02*
X14065301Y-17701246D01*
X14065301Y-17701246D02*
X14065301Y-17758389D01*
X14065301Y-17758389D02*
X14055777Y-17777436D01*
X14055777Y-17777436D02*
X14046253Y-17786960D01*
X14046253Y-17786960D02*
X14027206Y-17796484D01*
X14027206Y-17796484D02*
X13998634Y-17796484D01*
X14179587Y-17796484D02*
X14160539Y-17786960D01*
X14160539Y-17786960D02*
X14151015Y-17767912D01*
X14151015Y-17767912D02*
X14151015Y-17596484D01*
X14331968Y-17786960D02*
X14312920Y-17796484D01*
X14312920Y-17796484D02*
X14274825Y-17796484D01*
X14274825Y-17796484D02*
X14255777Y-17786960D01*
X14255777Y-17786960D02*
X14246253Y-17767912D01*
X14246253Y-17767912D02*
X14246253Y-17691722D01*
X14246253Y-17691722D02*
X14255777Y-17672674D01*
X14255777Y-17672674D02*
X14274825Y-17663150D01*
X14274825Y-17663150D02*
X14312920Y-17663150D01*
X14312920Y-17663150D02*
X14331968Y-17672674D01*
X14331968Y-17672674D02*
X14341491Y-17691722D01*
X14341491Y-17691722D02*
X14341491Y-17710770D01*
X14341491Y-17710770D02*
X14246253Y-17729817D01*
X14417682Y-17786960D02*
X14436730Y-17796484D01*
X14436730Y-17796484D02*
X14474825Y-17796484D01*
X14474825Y-17796484D02*
X14493872Y-17786960D01*
X14493872Y-17786960D02*
X14503396Y-17767912D01*
X14503396Y-17767912D02*
X14503396Y-17758389D01*
X14503396Y-17758389D02*
X14493872Y-17739341D01*
X14493872Y-17739341D02*
X14474825Y-17729817D01*
X14474825Y-17729817D02*
X14446253Y-17729817D01*
X14446253Y-17729817D02*
X14427206Y-17720293D01*
X14427206Y-17720293D02*
X14417682Y-17701246D01*
X14417682Y-17701246D02*
X14417682Y-17691722D01*
X14417682Y-17691722D02*
X14427206Y-17672674D01*
X14427206Y-17672674D02*
X14446253Y-17663150D01*
X14446253Y-17663150D02*
X14474825Y-17663150D01*
X14474825Y-17663150D02*
X14493872Y-17672674D01*
X14570063Y-17872674D02*
X14579587Y-17863150D01*
X14579587Y-17863150D02*
X14598634Y-17834579D01*
X14598634Y-17834579D02*
X14608158Y-17815531D01*
X14608158Y-17815531D02*
X14617682Y-17786960D01*
X14617682Y-17786960D02*
X14627206Y-17739341D01*
X14627206Y-17739341D02*
X14627206Y-17701246D01*
X14627206Y-17701246D02*
X14617682Y-17653627D01*
X14617682Y-17653627D02*
X14608158Y-17625055D01*
X14608158Y-17625055D02*
X14598634Y-17606008D01*
X14598634Y-17606008D02*
X14579587Y-17577436D01*
X14579587Y-17577436D02*
X14570063Y-17567912D01*
M02*
