%TF.GenerationSoftware,KiCad,Pcbnew,8.0.3*%
%TF.CreationDate,2024-07-01T22:09:37+02:00*%
%TF.ProjectId,VFO na esp32,56464f20-6e61-4206-9573-7033322e6b69,rev?*%
%TF.SameCoordinates,Original*%
%TF.FileFunction,Drillmap*%
%TF.FilePolarity,Positive*%
%FSLAX45Y45*%
G04 Gerber Fmt 4.5, Leading zero omitted, Abs format (unit mm)*
G04 Created by KiCad (PCBNEW 8.0.3) date 2024-07-01 22:09:37*
%MOMM*%
%LPD*%
G01*
G04 APERTURE LIST*
%ADD10C,0.050000*%
%ADD11C,0.200000*%
%ADD12C,0.350000*%
G04 APERTURE END LIST*
D10*
X9590000Y-6030000D02*
X24590000Y-6030000D01*
X24590000Y-13530000D01*
X9590000Y-13530000D01*
X9590000Y-6030000D01*
D11*
D12*
X17620000Y-6602000D02*
X17970000Y-6952000D01*
X17970000Y-6602000D02*
X17620000Y-6952000D01*
X21738000Y-6611000D02*
X22088000Y-6961000D01*
X22088000Y-6611000D02*
X21738000Y-6961000D01*
D11*
X9848277Y-13843984D02*
X9848277Y-13643984D01*
X9848277Y-13643984D02*
X9895896Y-13643984D01*
X9895896Y-13643984D02*
X9924467Y-13653508D01*
X9924467Y-13653508D02*
X9943515Y-13672555D01*
X9943515Y-13672555D02*
X9953039Y-13691603D01*
X9953039Y-13691603D02*
X9962563Y-13729698D01*
X9962563Y-13729698D02*
X9962563Y-13758269D01*
X9962563Y-13758269D02*
X9953039Y-13796365D01*
X9953039Y-13796365D02*
X9943515Y-13815412D01*
X9943515Y-13815412D02*
X9924467Y-13834460D01*
X9924467Y-13834460D02*
X9895896Y-13843984D01*
X9895896Y-13843984D02*
X9848277Y-13843984D01*
X10048277Y-13843984D02*
X10048277Y-13710650D01*
X10048277Y-13748746D02*
X10057801Y-13729698D01*
X10057801Y-13729698D02*
X10067324Y-13720174D01*
X10067324Y-13720174D02*
X10086372Y-13710650D01*
X10086372Y-13710650D02*
X10105420Y-13710650D01*
X10172086Y-13843984D02*
X10172086Y-13710650D01*
X10172086Y-13643984D02*
X10162563Y-13653508D01*
X10162563Y-13653508D02*
X10172086Y-13663031D01*
X10172086Y-13663031D02*
X10181610Y-13653508D01*
X10181610Y-13653508D02*
X10172086Y-13643984D01*
X10172086Y-13643984D02*
X10172086Y-13663031D01*
X10295896Y-13843984D02*
X10276848Y-13834460D01*
X10276848Y-13834460D02*
X10267324Y-13815412D01*
X10267324Y-13815412D02*
X10267324Y-13643984D01*
X10400658Y-13843984D02*
X10381610Y-13834460D01*
X10381610Y-13834460D02*
X10372086Y-13815412D01*
X10372086Y-13815412D02*
X10372086Y-13643984D01*
X10629229Y-13843984D02*
X10629229Y-13643984D01*
X10629229Y-13643984D02*
X10695896Y-13786841D01*
X10695896Y-13786841D02*
X10762563Y-13643984D01*
X10762563Y-13643984D02*
X10762563Y-13843984D01*
X10943515Y-13843984D02*
X10943515Y-13739222D01*
X10943515Y-13739222D02*
X10933991Y-13720174D01*
X10933991Y-13720174D02*
X10914944Y-13710650D01*
X10914944Y-13710650D02*
X10876848Y-13710650D01*
X10876848Y-13710650D02*
X10857801Y-13720174D01*
X10943515Y-13834460D02*
X10924467Y-13843984D01*
X10924467Y-13843984D02*
X10876848Y-13843984D01*
X10876848Y-13843984D02*
X10857801Y-13834460D01*
X10857801Y-13834460D02*
X10848277Y-13815412D01*
X10848277Y-13815412D02*
X10848277Y-13796365D01*
X10848277Y-13796365D02*
X10857801Y-13777317D01*
X10857801Y-13777317D02*
X10876848Y-13767793D01*
X10876848Y-13767793D02*
X10924467Y-13767793D01*
X10924467Y-13767793D02*
X10943515Y-13758269D01*
X11038753Y-13710650D02*
X11038753Y-13910650D01*
X11038753Y-13720174D02*
X11057801Y-13710650D01*
X11057801Y-13710650D02*
X11095896Y-13710650D01*
X11095896Y-13710650D02*
X11114944Y-13720174D01*
X11114944Y-13720174D02*
X11124467Y-13729698D01*
X11124467Y-13729698D02*
X11133991Y-13748746D01*
X11133991Y-13748746D02*
X11133991Y-13805888D01*
X11133991Y-13805888D02*
X11124467Y-13824936D01*
X11124467Y-13824936D02*
X11114944Y-13834460D01*
X11114944Y-13834460D02*
X11095896Y-13843984D01*
X11095896Y-13843984D02*
X11057801Y-13843984D01*
X11057801Y-13843984D02*
X11038753Y-13834460D01*
X11219705Y-13824936D02*
X11229229Y-13834460D01*
X11229229Y-13834460D02*
X11219705Y-13843984D01*
X11219705Y-13843984D02*
X11210182Y-13834460D01*
X11210182Y-13834460D02*
X11219705Y-13824936D01*
X11219705Y-13824936D02*
X11219705Y-13843984D01*
X11219705Y-13720174D02*
X11229229Y-13729698D01*
X11229229Y-13729698D02*
X11219705Y-13739222D01*
X11219705Y-13739222D02*
X11210182Y-13729698D01*
X11210182Y-13729698D02*
X11219705Y-13720174D01*
X11219705Y-13720174D02*
X11219705Y-13739222D01*
X9387500Y-14072500D02*
X9587500Y-14272500D01*
X9587500Y-14072500D02*
X9387500Y-14272500D01*
X9829229Y-14063984D02*
X9953039Y-14063984D01*
X9953039Y-14063984D02*
X9886372Y-14140174D01*
X9886372Y-14140174D02*
X9914944Y-14140174D01*
X9914944Y-14140174D02*
X9933991Y-14149698D01*
X9933991Y-14149698D02*
X9943515Y-14159222D01*
X9943515Y-14159222D02*
X9953039Y-14178269D01*
X9953039Y-14178269D02*
X9953039Y-14225888D01*
X9953039Y-14225888D02*
X9943515Y-14244936D01*
X9943515Y-14244936D02*
X9933991Y-14254460D01*
X9933991Y-14254460D02*
X9914944Y-14263984D01*
X9914944Y-14263984D02*
X9857801Y-14263984D01*
X9857801Y-14263984D02*
X9838753Y-14254460D01*
X9838753Y-14254460D02*
X9829229Y-14244936D01*
X10038753Y-14244936D02*
X10048277Y-14254460D01*
X10048277Y-14254460D02*
X10038753Y-14263984D01*
X10038753Y-14263984D02*
X10029229Y-14254460D01*
X10029229Y-14254460D02*
X10038753Y-14244936D01*
X10038753Y-14244936D02*
X10038753Y-14263984D01*
X10229229Y-14063984D02*
X10133991Y-14063984D01*
X10133991Y-14063984D02*
X10124467Y-14159222D01*
X10124467Y-14159222D02*
X10133991Y-14149698D01*
X10133991Y-14149698D02*
X10153039Y-14140174D01*
X10153039Y-14140174D02*
X10200658Y-14140174D01*
X10200658Y-14140174D02*
X10219705Y-14149698D01*
X10219705Y-14149698D02*
X10229229Y-14159222D01*
X10229229Y-14159222D02*
X10238753Y-14178269D01*
X10238753Y-14178269D02*
X10238753Y-14225888D01*
X10238753Y-14225888D02*
X10229229Y-14244936D01*
X10229229Y-14244936D02*
X10219705Y-14254460D01*
X10219705Y-14254460D02*
X10200658Y-14263984D01*
X10200658Y-14263984D02*
X10153039Y-14263984D01*
X10153039Y-14263984D02*
X10133991Y-14254460D01*
X10133991Y-14254460D02*
X10124467Y-14244936D01*
X10362563Y-14063984D02*
X10381610Y-14063984D01*
X10381610Y-14063984D02*
X10400658Y-14073508D01*
X10400658Y-14073508D02*
X10410182Y-14083031D01*
X10410182Y-14083031D02*
X10419705Y-14102079D01*
X10419705Y-14102079D02*
X10429229Y-14140174D01*
X10429229Y-14140174D02*
X10429229Y-14187793D01*
X10429229Y-14187793D02*
X10419705Y-14225888D01*
X10419705Y-14225888D02*
X10410182Y-14244936D01*
X10410182Y-14244936D02*
X10400658Y-14254460D01*
X10400658Y-14254460D02*
X10381610Y-14263984D01*
X10381610Y-14263984D02*
X10362563Y-14263984D01*
X10362563Y-14263984D02*
X10343515Y-14254460D01*
X10343515Y-14254460D02*
X10333991Y-14244936D01*
X10333991Y-14244936D02*
X10324467Y-14225888D01*
X10324467Y-14225888D02*
X10314944Y-14187793D01*
X10314944Y-14187793D02*
X10314944Y-14140174D01*
X10314944Y-14140174D02*
X10324467Y-14102079D01*
X10324467Y-14102079D02*
X10333991Y-14083031D01*
X10333991Y-14083031D02*
X10343515Y-14073508D01*
X10343515Y-14073508D02*
X10362563Y-14063984D01*
X10553039Y-14063984D02*
X10572086Y-14063984D01*
X10572086Y-14063984D02*
X10591134Y-14073508D01*
X10591134Y-14073508D02*
X10600658Y-14083031D01*
X10600658Y-14083031D02*
X10610182Y-14102079D01*
X10610182Y-14102079D02*
X10619705Y-14140174D01*
X10619705Y-14140174D02*
X10619705Y-14187793D01*
X10619705Y-14187793D02*
X10610182Y-14225888D01*
X10610182Y-14225888D02*
X10600658Y-14244936D01*
X10600658Y-14244936D02*
X10591134Y-14254460D01*
X10591134Y-14254460D02*
X10572086Y-14263984D01*
X10572086Y-14263984D02*
X10553039Y-14263984D01*
X10553039Y-14263984D02*
X10533991Y-14254460D01*
X10533991Y-14254460D02*
X10524467Y-14244936D01*
X10524467Y-14244936D02*
X10514944Y-14225888D01*
X10514944Y-14225888D02*
X10505420Y-14187793D01*
X10505420Y-14187793D02*
X10505420Y-14140174D01*
X10505420Y-14140174D02*
X10514944Y-14102079D01*
X10514944Y-14102079D02*
X10524467Y-14083031D01*
X10524467Y-14083031D02*
X10533991Y-14073508D01*
X10533991Y-14073508D02*
X10553039Y-14063984D01*
X10705420Y-14263984D02*
X10705420Y-14130650D01*
X10705420Y-14149698D02*
X10714944Y-14140174D01*
X10714944Y-14140174D02*
X10733991Y-14130650D01*
X10733991Y-14130650D02*
X10762563Y-14130650D01*
X10762563Y-14130650D02*
X10781610Y-14140174D01*
X10781610Y-14140174D02*
X10791134Y-14159222D01*
X10791134Y-14159222D02*
X10791134Y-14263984D01*
X10791134Y-14159222D02*
X10800658Y-14140174D01*
X10800658Y-14140174D02*
X10819705Y-14130650D01*
X10819705Y-14130650D02*
X10848277Y-14130650D01*
X10848277Y-14130650D02*
X10867325Y-14140174D01*
X10867325Y-14140174D02*
X10876848Y-14159222D01*
X10876848Y-14159222D02*
X10876848Y-14263984D01*
X10972086Y-14263984D02*
X10972086Y-14130650D01*
X10972086Y-14149698D02*
X10981610Y-14140174D01*
X10981610Y-14140174D02*
X11000658Y-14130650D01*
X11000658Y-14130650D02*
X11029229Y-14130650D01*
X11029229Y-14130650D02*
X11048277Y-14140174D01*
X11048277Y-14140174D02*
X11057801Y-14159222D01*
X11057801Y-14159222D02*
X11057801Y-14263984D01*
X11057801Y-14159222D02*
X11067325Y-14140174D01*
X11067325Y-14140174D02*
X11086372Y-14130650D01*
X11086372Y-14130650D02*
X11114944Y-14130650D01*
X11114944Y-14130650D02*
X11133991Y-14140174D01*
X11133991Y-14140174D02*
X11143515Y-14159222D01*
X11143515Y-14159222D02*
X11143515Y-14263984D01*
X11533991Y-14054460D02*
X11362563Y-14311603D01*
X11791134Y-14063984D02*
X11810182Y-14063984D01*
X11810182Y-14063984D02*
X11829229Y-14073508D01*
X11829229Y-14073508D02*
X11838753Y-14083031D01*
X11838753Y-14083031D02*
X11848277Y-14102079D01*
X11848277Y-14102079D02*
X11857801Y-14140174D01*
X11857801Y-14140174D02*
X11857801Y-14187793D01*
X11857801Y-14187793D02*
X11848277Y-14225888D01*
X11848277Y-14225888D02*
X11838753Y-14244936D01*
X11838753Y-14244936D02*
X11829229Y-14254460D01*
X11829229Y-14254460D02*
X11810182Y-14263984D01*
X11810182Y-14263984D02*
X11791134Y-14263984D01*
X11791134Y-14263984D02*
X11772086Y-14254460D01*
X11772086Y-14254460D02*
X11762563Y-14244936D01*
X11762563Y-14244936D02*
X11753039Y-14225888D01*
X11753039Y-14225888D02*
X11743515Y-14187793D01*
X11743515Y-14187793D02*
X11743515Y-14140174D01*
X11743515Y-14140174D02*
X11753039Y-14102079D01*
X11753039Y-14102079D02*
X11762563Y-14083031D01*
X11762563Y-14083031D02*
X11772086Y-14073508D01*
X11772086Y-14073508D02*
X11791134Y-14063984D01*
X11943515Y-14244936D02*
X11953039Y-14254460D01*
X11953039Y-14254460D02*
X11943515Y-14263984D01*
X11943515Y-14263984D02*
X11933991Y-14254460D01*
X11933991Y-14254460D02*
X11943515Y-14244936D01*
X11943515Y-14244936D02*
X11943515Y-14263984D01*
X12143515Y-14263984D02*
X12029229Y-14263984D01*
X12086372Y-14263984D02*
X12086372Y-14063984D01*
X12086372Y-14063984D02*
X12067325Y-14092555D01*
X12067325Y-14092555D02*
X12048277Y-14111603D01*
X12048277Y-14111603D02*
X12029229Y-14121127D01*
X12210182Y-14063984D02*
X12333991Y-14063984D01*
X12333991Y-14063984D02*
X12267325Y-14140174D01*
X12267325Y-14140174D02*
X12295896Y-14140174D01*
X12295896Y-14140174D02*
X12314944Y-14149698D01*
X12314944Y-14149698D02*
X12324467Y-14159222D01*
X12324467Y-14159222D02*
X12333991Y-14178269D01*
X12333991Y-14178269D02*
X12333991Y-14225888D01*
X12333991Y-14225888D02*
X12324467Y-14244936D01*
X12324467Y-14244936D02*
X12314944Y-14254460D01*
X12314944Y-14254460D02*
X12295896Y-14263984D01*
X12295896Y-14263984D02*
X12238753Y-14263984D01*
X12238753Y-14263984D02*
X12219706Y-14254460D01*
X12219706Y-14254460D02*
X12210182Y-14244936D01*
X12400658Y-14063984D02*
X12533991Y-14063984D01*
X12533991Y-14063984D02*
X12448277Y-14263984D01*
X12638753Y-14149698D02*
X12619706Y-14140174D01*
X12619706Y-14140174D02*
X12610182Y-14130650D01*
X12610182Y-14130650D02*
X12600658Y-14111603D01*
X12600658Y-14111603D02*
X12600658Y-14102079D01*
X12600658Y-14102079D02*
X12610182Y-14083031D01*
X12610182Y-14083031D02*
X12619706Y-14073508D01*
X12619706Y-14073508D02*
X12638753Y-14063984D01*
X12638753Y-14063984D02*
X12676848Y-14063984D01*
X12676848Y-14063984D02*
X12695896Y-14073508D01*
X12695896Y-14073508D02*
X12705420Y-14083031D01*
X12705420Y-14083031D02*
X12714944Y-14102079D01*
X12714944Y-14102079D02*
X12714944Y-14111603D01*
X12714944Y-14111603D02*
X12705420Y-14130650D01*
X12705420Y-14130650D02*
X12695896Y-14140174D01*
X12695896Y-14140174D02*
X12676848Y-14149698D01*
X12676848Y-14149698D02*
X12638753Y-14149698D01*
X12638753Y-14149698D02*
X12619706Y-14159222D01*
X12619706Y-14159222D02*
X12610182Y-14168746D01*
X12610182Y-14168746D02*
X12600658Y-14187793D01*
X12600658Y-14187793D02*
X12600658Y-14225888D01*
X12600658Y-14225888D02*
X12610182Y-14244936D01*
X12610182Y-14244936D02*
X12619706Y-14254460D01*
X12619706Y-14254460D02*
X12638753Y-14263984D01*
X12638753Y-14263984D02*
X12676848Y-14263984D01*
X12676848Y-14263984D02*
X12695896Y-14254460D01*
X12695896Y-14254460D02*
X12705420Y-14244936D01*
X12705420Y-14244936D02*
X12714944Y-14225888D01*
X12714944Y-14225888D02*
X12714944Y-14187793D01*
X12714944Y-14187793D02*
X12705420Y-14168746D01*
X12705420Y-14168746D02*
X12695896Y-14159222D01*
X12695896Y-14159222D02*
X12676848Y-14149698D01*
X12791134Y-14063984D02*
X12791134Y-14102079D01*
X12867325Y-14063984D02*
X12867325Y-14102079D01*
X13162563Y-14340174D02*
X13153039Y-14330650D01*
X13153039Y-14330650D02*
X13133991Y-14302079D01*
X13133991Y-14302079D02*
X13124468Y-14283031D01*
X13124468Y-14283031D02*
X13114944Y-14254460D01*
X13114944Y-14254460D02*
X13105420Y-14206841D01*
X13105420Y-14206841D02*
X13105420Y-14168746D01*
X13105420Y-14168746D02*
X13114944Y-14121127D01*
X13114944Y-14121127D02*
X13124468Y-14092555D01*
X13124468Y-14092555D02*
X13133991Y-14073508D01*
X13133991Y-14073508D02*
X13153039Y-14044936D01*
X13153039Y-14044936D02*
X13162563Y-14035412D01*
X13229229Y-14083031D02*
X13238753Y-14073508D01*
X13238753Y-14073508D02*
X13257801Y-14063984D01*
X13257801Y-14063984D02*
X13305420Y-14063984D01*
X13305420Y-14063984D02*
X13324468Y-14073508D01*
X13324468Y-14073508D02*
X13333991Y-14083031D01*
X13333991Y-14083031D02*
X13343515Y-14102079D01*
X13343515Y-14102079D02*
X13343515Y-14121127D01*
X13343515Y-14121127D02*
X13333991Y-14149698D01*
X13333991Y-14149698D02*
X13219706Y-14263984D01*
X13219706Y-14263984D02*
X13343515Y-14263984D01*
X13581610Y-14263984D02*
X13581610Y-14063984D01*
X13667325Y-14263984D02*
X13667325Y-14159222D01*
X13667325Y-14159222D02*
X13657801Y-14140174D01*
X13657801Y-14140174D02*
X13638753Y-14130650D01*
X13638753Y-14130650D02*
X13610182Y-14130650D01*
X13610182Y-14130650D02*
X13591134Y-14140174D01*
X13591134Y-14140174D02*
X13581610Y-14149698D01*
X13791134Y-14263984D02*
X13772087Y-14254460D01*
X13772087Y-14254460D02*
X13762563Y-14244936D01*
X13762563Y-14244936D02*
X13753039Y-14225888D01*
X13753039Y-14225888D02*
X13753039Y-14168746D01*
X13753039Y-14168746D02*
X13762563Y-14149698D01*
X13762563Y-14149698D02*
X13772087Y-14140174D01*
X13772087Y-14140174D02*
X13791134Y-14130650D01*
X13791134Y-14130650D02*
X13819706Y-14130650D01*
X13819706Y-14130650D02*
X13838753Y-14140174D01*
X13838753Y-14140174D02*
X13848277Y-14149698D01*
X13848277Y-14149698D02*
X13857801Y-14168746D01*
X13857801Y-14168746D02*
X13857801Y-14225888D01*
X13857801Y-14225888D02*
X13848277Y-14244936D01*
X13848277Y-14244936D02*
X13838753Y-14254460D01*
X13838753Y-14254460D02*
X13819706Y-14263984D01*
X13819706Y-14263984D02*
X13791134Y-14263984D01*
X13972087Y-14263984D02*
X13953039Y-14254460D01*
X13953039Y-14254460D02*
X13943515Y-14235412D01*
X13943515Y-14235412D02*
X13943515Y-14063984D01*
X14124468Y-14254460D02*
X14105420Y-14263984D01*
X14105420Y-14263984D02*
X14067325Y-14263984D01*
X14067325Y-14263984D02*
X14048277Y-14254460D01*
X14048277Y-14254460D02*
X14038753Y-14235412D01*
X14038753Y-14235412D02*
X14038753Y-14159222D01*
X14038753Y-14159222D02*
X14048277Y-14140174D01*
X14048277Y-14140174D02*
X14067325Y-14130650D01*
X14067325Y-14130650D02*
X14105420Y-14130650D01*
X14105420Y-14130650D02*
X14124468Y-14140174D01*
X14124468Y-14140174D02*
X14133991Y-14159222D01*
X14133991Y-14159222D02*
X14133991Y-14178269D01*
X14133991Y-14178269D02*
X14038753Y-14197317D01*
X14210182Y-14254460D02*
X14229230Y-14263984D01*
X14229230Y-14263984D02*
X14267325Y-14263984D01*
X14267325Y-14263984D02*
X14286372Y-14254460D01*
X14286372Y-14254460D02*
X14295896Y-14235412D01*
X14295896Y-14235412D02*
X14295896Y-14225888D01*
X14295896Y-14225888D02*
X14286372Y-14206841D01*
X14286372Y-14206841D02*
X14267325Y-14197317D01*
X14267325Y-14197317D02*
X14238753Y-14197317D01*
X14238753Y-14197317D02*
X14219706Y-14187793D01*
X14219706Y-14187793D02*
X14210182Y-14168746D01*
X14210182Y-14168746D02*
X14210182Y-14159222D01*
X14210182Y-14159222D02*
X14219706Y-14140174D01*
X14219706Y-14140174D02*
X14238753Y-14130650D01*
X14238753Y-14130650D02*
X14267325Y-14130650D01*
X14267325Y-14130650D02*
X14286372Y-14140174D01*
X14362563Y-14340174D02*
X14372087Y-14330650D01*
X14372087Y-14330650D02*
X14391134Y-14302079D01*
X14391134Y-14302079D02*
X14400658Y-14283031D01*
X14400658Y-14283031D02*
X14410182Y-14254460D01*
X14410182Y-14254460D02*
X14419706Y-14206841D01*
X14419706Y-14206841D02*
X14419706Y-14168746D01*
X14419706Y-14168746D02*
X14410182Y-14121127D01*
X14410182Y-14121127D02*
X14400658Y-14092555D01*
X14400658Y-14092555D02*
X14391134Y-14073508D01*
X14391134Y-14073508D02*
X14372087Y-14044936D01*
X14372087Y-14044936D02*
X14362563Y-14035412D01*
X14724468Y-14340174D02*
X14714944Y-14330650D01*
X14714944Y-14330650D02*
X14695896Y-14302079D01*
X14695896Y-14302079D02*
X14686372Y-14283031D01*
X14686372Y-14283031D02*
X14676849Y-14254460D01*
X14676849Y-14254460D02*
X14667325Y-14206841D01*
X14667325Y-14206841D02*
X14667325Y-14168746D01*
X14667325Y-14168746D02*
X14676849Y-14121127D01*
X14676849Y-14121127D02*
X14686372Y-14092555D01*
X14686372Y-14092555D02*
X14695896Y-14073508D01*
X14695896Y-14073508D02*
X14714944Y-14044936D01*
X14714944Y-14044936D02*
X14724468Y-14035412D01*
X14800658Y-14130650D02*
X14800658Y-14263984D01*
X14800658Y-14149698D02*
X14810182Y-14140174D01*
X14810182Y-14140174D02*
X14829230Y-14130650D01*
X14829230Y-14130650D02*
X14857801Y-14130650D01*
X14857801Y-14130650D02*
X14876849Y-14140174D01*
X14876849Y-14140174D02*
X14886372Y-14159222D01*
X14886372Y-14159222D02*
X14886372Y-14263984D01*
X15010182Y-14263984D02*
X14991134Y-14254460D01*
X14991134Y-14254460D02*
X14981611Y-14244936D01*
X14981611Y-14244936D02*
X14972087Y-14225888D01*
X14972087Y-14225888D02*
X14972087Y-14168746D01*
X14972087Y-14168746D02*
X14981611Y-14149698D01*
X14981611Y-14149698D02*
X14991134Y-14140174D01*
X14991134Y-14140174D02*
X15010182Y-14130650D01*
X15010182Y-14130650D02*
X15038753Y-14130650D01*
X15038753Y-14130650D02*
X15057801Y-14140174D01*
X15057801Y-14140174D02*
X15067325Y-14149698D01*
X15067325Y-14149698D02*
X15076849Y-14168746D01*
X15076849Y-14168746D02*
X15076849Y-14225888D01*
X15076849Y-14225888D02*
X15067325Y-14244936D01*
X15067325Y-14244936D02*
X15057801Y-14254460D01*
X15057801Y-14254460D02*
X15038753Y-14263984D01*
X15038753Y-14263984D02*
X15010182Y-14263984D01*
X15133992Y-14130650D02*
X15210182Y-14130650D01*
X15162563Y-14063984D02*
X15162563Y-14235412D01*
X15162563Y-14235412D02*
X15172087Y-14254460D01*
X15172087Y-14254460D02*
X15191134Y-14263984D01*
X15191134Y-14263984D02*
X15210182Y-14263984D01*
X15429230Y-14130650D02*
X15429230Y-14330650D01*
X15429230Y-14140174D02*
X15448277Y-14130650D01*
X15448277Y-14130650D02*
X15486373Y-14130650D01*
X15486373Y-14130650D02*
X15505420Y-14140174D01*
X15505420Y-14140174D02*
X15514944Y-14149698D01*
X15514944Y-14149698D02*
X15524468Y-14168746D01*
X15524468Y-14168746D02*
X15524468Y-14225888D01*
X15524468Y-14225888D02*
X15514944Y-14244936D01*
X15514944Y-14244936D02*
X15505420Y-14254460D01*
X15505420Y-14254460D02*
X15486373Y-14263984D01*
X15486373Y-14263984D02*
X15448277Y-14263984D01*
X15448277Y-14263984D02*
X15429230Y-14254460D01*
X15638753Y-14263984D02*
X15619706Y-14254460D01*
X15619706Y-14254460D02*
X15610182Y-14235412D01*
X15610182Y-14235412D02*
X15610182Y-14063984D01*
X15800658Y-14263984D02*
X15800658Y-14159222D01*
X15800658Y-14159222D02*
X15791134Y-14140174D01*
X15791134Y-14140174D02*
X15772087Y-14130650D01*
X15772087Y-14130650D02*
X15733992Y-14130650D01*
X15733992Y-14130650D02*
X15714944Y-14140174D01*
X15800658Y-14254460D02*
X15781611Y-14263984D01*
X15781611Y-14263984D02*
X15733992Y-14263984D01*
X15733992Y-14263984D02*
X15714944Y-14254460D01*
X15714944Y-14254460D02*
X15705420Y-14235412D01*
X15705420Y-14235412D02*
X15705420Y-14216365D01*
X15705420Y-14216365D02*
X15714944Y-14197317D01*
X15714944Y-14197317D02*
X15733992Y-14187793D01*
X15733992Y-14187793D02*
X15781611Y-14187793D01*
X15781611Y-14187793D02*
X15800658Y-14178269D01*
X15867325Y-14130650D02*
X15943515Y-14130650D01*
X15895896Y-14063984D02*
X15895896Y-14235412D01*
X15895896Y-14235412D02*
X15905420Y-14254460D01*
X15905420Y-14254460D02*
X15924468Y-14263984D01*
X15924468Y-14263984D02*
X15943515Y-14263984D01*
X16086373Y-14254460D02*
X16067325Y-14263984D01*
X16067325Y-14263984D02*
X16029230Y-14263984D01*
X16029230Y-14263984D02*
X16010182Y-14254460D01*
X16010182Y-14254460D02*
X16000658Y-14235412D01*
X16000658Y-14235412D02*
X16000658Y-14159222D01*
X16000658Y-14159222D02*
X16010182Y-14140174D01*
X16010182Y-14140174D02*
X16029230Y-14130650D01*
X16029230Y-14130650D02*
X16067325Y-14130650D01*
X16067325Y-14130650D02*
X16086373Y-14140174D01*
X16086373Y-14140174D02*
X16095896Y-14159222D01*
X16095896Y-14159222D02*
X16095896Y-14178269D01*
X16095896Y-14178269D02*
X16000658Y-14197317D01*
X16267325Y-14263984D02*
X16267325Y-14063984D01*
X16267325Y-14254460D02*
X16248277Y-14263984D01*
X16248277Y-14263984D02*
X16210182Y-14263984D01*
X16210182Y-14263984D02*
X16191134Y-14254460D01*
X16191134Y-14254460D02*
X16181611Y-14244936D01*
X16181611Y-14244936D02*
X16172087Y-14225888D01*
X16172087Y-14225888D02*
X16172087Y-14168746D01*
X16172087Y-14168746D02*
X16181611Y-14149698D01*
X16181611Y-14149698D02*
X16191134Y-14140174D01*
X16191134Y-14140174D02*
X16210182Y-14130650D01*
X16210182Y-14130650D02*
X16248277Y-14130650D01*
X16248277Y-14130650D02*
X16267325Y-14140174D01*
X16343515Y-14340174D02*
X16353039Y-14330650D01*
X16353039Y-14330650D02*
X16372087Y-14302079D01*
X16372087Y-14302079D02*
X16381611Y-14283031D01*
X16381611Y-14283031D02*
X16391134Y-14254460D01*
X16391134Y-14254460D02*
X16400658Y-14206841D01*
X16400658Y-14206841D02*
X16400658Y-14168746D01*
X16400658Y-14168746D02*
X16391134Y-14121127D01*
X16391134Y-14121127D02*
X16381611Y-14092555D01*
X16381611Y-14092555D02*
X16372087Y-14073508D01*
X16372087Y-14073508D02*
X16353039Y-14044936D01*
X16353039Y-14044936D02*
X16343515Y-14035412D01*
M02*
