%TF.GenerationSoftware,KiCad,Pcbnew,8.0.3*%
%TF.CreationDate,2024-07-01T22:09:37+02:00*%
%TF.ProjectId,VFO na esp32,56464f20-6e61-4206-9573-7033322e6b69,rev?*%
%TF.SameCoordinates,Original*%
%TF.FileFunction,Drillmap*%
%TF.FilePolarity,Positive*%
%FSLAX45Y45*%
G04 Gerber Fmt 4.5, Leading zero omitted, Abs format (unit mm)*
G04 Created by KiCad (PCBNEW 8.0.3) date 2024-07-01 22:09:37*
%MOMM*%
%LPD*%
G01*
G04 APERTURE LIST*
%ADD10C,0.050000*%
%ADD11C,0.200000*%
%ADD12C,0.100000*%
%ADD13C,0.110000*%
%ADD14C,0.120000*%
%ADD15C,0.150000*%
%ADD16C,0.250000*%
%ADD17C,0.350000*%
G04 APERTURE END LIST*
D10*
X9590000Y-6030000D02*
X24590000Y-6030000D01*
X24590000Y-13530000D01*
X9590000Y-13530000D01*
X9590000Y-6030000D01*
D11*
D12*
X15371900Y-8391900D02*
X15448100Y-8468100D01*
X15448100Y-8391900D02*
X15371900Y-8468100D01*
X15371900Y-8645900D02*
X15448100Y-8722100D01*
X15448100Y-8645900D02*
X15371900Y-8722100D01*
X15371900Y-8899900D02*
X15448100Y-8976100D01*
X15448100Y-8899900D02*
X15371900Y-8976100D01*
X15371900Y-9153900D02*
X15448100Y-9230100D01*
X15448100Y-9153900D02*
X15371900Y-9230100D01*
X15371900Y-9407900D02*
X15448100Y-9484100D01*
X15448100Y-9407900D02*
X15371900Y-9484100D01*
X15371900Y-9661900D02*
X15448100Y-9738100D01*
X15448100Y-9661900D02*
X15371900Y-9738100D01*
X15371900Y-9915900D02*
X15448100Y-9992100D01*
X15448100Y-9915900D02*
X15371900Y-9992100D01*
X15371900Y-10169900D02*
X15448100Y-10246100D01*
X15448100Y-10169900D02*
X15371900Y-10246100D01*
X10460000Y-7098344D02*
G75*
G02*
X10380000Y-7098344I-40000J0D01*
G01*
X10380000Y-7098344D02*
G75*
G02*
X10460000Y-7098344I40000J0D01*
G01*
X10460000Y-7352344D02*
G75*
G02*
X10380000Y-7352344I-40000J0D01*
G01*
X10380000Y-7352344D02*
G75*
G02*
X10460000Y-7352344I40000J0D01*
G01*
X10460000Y-7606344D02*
G75*
G02*
X10380000Y-7606344I-40000J0D01*
G01*
X10380000Y-7606344D02*
G75*
G02*
X10460000Y-7606344I40000J0D01*
G01*
X10460000Y-7860344D02*
G75*
G02*
X10380000Y-7860344I-40000J0D01*
G01*
X10380000Y-7860344D02*
G75*
G02*
X10460000Y-7860344I40000J0D01*
G01*
X10460000Y-8114344D02*
G75*
G02*
X10380000Y-8114344I-40000J0D01*
G01*
X10380000Y-8114344D02*
G75*
G02*
X10460000Y-8114344I40000J0D01*
G01*
X10460000Y-8368344D02*
G75*
G02*
X10380000Y-8368344I-40000J0D01*
G01*
X10380000Y-8368344D02*
G75*
G02*
X10460000Y-8368344I40000J0D01*
G01*
X10460000Y-8622344D02*
G75*
G02*
X10380000Y-8622344I-40000J0D01*
G01*
X10380000Y-8622344D02*
G75*
G02*
X10460000Y-8622344I40000J0D01*
G01*
X10460000Y-8876344D02*
G75*
G02*
X10380000Y-8876344I-40000J0D01*
G01*
X10380000Y-8876344D02*
G75*
G02*
X10460000Y-8876344I40000J0D01*
G01*
X10460000Y-9130344D02*
G75*
G02*
X10380000Y-9130344I-40000J0D01*
G01*
X10380000Y-9130344D02*
G75*
G02*
X10460000Y-9130344I40000J0D01*
G01*
X10460000Y-9384344D02*
G75*
G02*
X10380000Y-9384344I-40000J0D01*
G01*
X10380000Y-9384344D02*
G75*
G02*
X10460000Y-9384344I40000J0D01*
G01*
X10460000Y-9638344D02*
G75*
G02*
X10380000Y-9638344I-40000J0D01*
G01*
X10380000Y-9638344D02*
G75*
G02*
X10460000Y-9638344I40000J0D01*
G01*
X10460000Y-9892344D02*
G75*
G02*
X10380000Y-9892344I-40000J0D01*
G01*
X10380000Y-9892344D02*
G75*
G02*
X10460000Y-9892344I40000J0D01*
G01*
X10460000Y-10146344D02*
G75*
G02*
X10380000Y-10146344I-40000J0D01*
G01*
X10380000Y-10146344D02*
G75*
G02*
X10460000Y-10146344I40000J0D01*
G01*
X10460000Y-10400344D02*
G75*
G02*
X10380000Y-10400344I-40000J0D01*
G01*
X10380000Y-10400344D02*
G75*
G02*
X10460000Y-10400344I40000J0D01*
G01*
X10460000Y-10654344D02*
G75*
G02*
X10380000Y-10654344I-40000J0D01*
G01*
X10380000Y-10654344D02*
G75*
G02*
X10460000Y-10654344I40000J0D01*
G01*
X10460000Y-10908344D02*
G75*
G02*
X10380000Y-10908344I-40000J0D01*
G01*
X10380000Y-10908344D02*
G75*
G02*
X10460000Y-10908344I40000J0D01*
G01*
X10460000Y-11162344D02*
G75*
G02*
X10380000Y-11162344I-40000J0D01*
G01*
X10380000Y-11162344D02*
G75*
G02*
X10460000Y-11162344I40000J0D01*
G01*
X10460000Y-11416344D02*
G75*
G02*
X10380000Y-11416344I-40000J0D01*
G01*
X10380000Y-11416344D02*
G75*
G02*
X10460000Y-11416344I40000J0D01*
G01*
X10460000Y-11670344D02*
G75*
G02*
X10380000Y-11670344I-40000J0D01*
G01*
X10380000Y-11670344D02*
G75*
G02*
X10460000Y-11670344I40000J0D01*
G01*
X10860000Y-12440000D02*
G75*
G02*
X10780000Y-12440000I-40000J0D01*
G01*
X10780000Y-12440000D02*
G75*
G02*
X10860000Y-12440000I40000J0D01*
G01*
X11360000Y-12440000D02*
G75*
G02*
X11280000Y-12440000I-40000J0D01*
G01*
X11280000Y-12440000D02*
G75*
G02*
X11360000Y-12440000I40000J0D01*
G01*
X11420000Y-6290000D02*
G75*
G02*
X11340000Y-6290000I-40000J0D01*
G01*
X11340000Y-6290000D02*
G75*
G02*
X11420000Y-6290000I40000J0D01*
G01*
X11420000Y-6790000D02*
G75*
G02*
X11340000Y-6790000I-40000J0D01*
G01*
X11340000Y-6790000D02*
G75*
G02*
X11420000Y-6790000I40000J0D01*
G01*
X12999632Y-7098616D02*
G75*
G02*
X12919632Y-7098616I-40000J0D01*
G01*
X12919632Y-7098616D02*
G75*
G02*
X12999632Y-7098616I40000J0D01*
G01*
X12999632Y-7352616D02*
G75*
G02*
X12919632Y-7352616I-40000J0D01*
G01*
X12919632Y-7352616D02*
G75*
G02*
X12999632Y-7352616I40000J0D01*
G01*
X13000000Y-7606344D02*
G75*
G02*
X12920000Y-7606344I-40000J0D01*
G01*
X12920000Y-7606344D02*
G75*
G02*
X13000000Y-7606344I40000J0D01*
G01*
X13000000Y-7860344D02*
G75*
G02*
X12920000Y-7860344I-40000J0D01*
G01*
X12920000Y-7860344D02*
G75*
G02*
X13000000Y-7860344I40000J0D01*
G01*
X13000000Y-8114344D02*
G75*
G02*
X12920000Y-8114344I-40000J0D01*
G01*
X12920000Y-8114344D02*
G75*
G02*
X13000000Y-8114344I40000J0D01*
G01*
X13000000Y-8368344D02*
G75*
G02*
X12920000Y-8368344I-40000J0D01*
G01*
X12920000Y-8368344D02*
G75*
G02*
X13000000Y-8368344I40000J0D01*
G01*
X13000000Y-8622344D02*
G75*
G02*
X12920000Y-8622344I-40000J0D01*
G01*
X12920000Y-8622344D02*
G75*
G02*
X13000000Y-8622344I40000J0D01*
G01*
X13000000Y-8876344D02*
G75*
G02*
X12920000Y-8876344I-40000J0D01*
G01*
X12920000Y-8876344D02*
G75*
G02*
X13000000Y-8876344I40000J0D01*
G01*
X13000000Y-9130344D02*
G75*
G02*
X12920000Y-9130344I-40000J0D01*
G01*
X12920000Y-9130344D02*
G75*
G02*
X13000000Y-9130344I40000J0D01*
G01*
X13000000Y-9384344D02*
G75*
G02*
X12920000Y-9384344I-40000J0D01*
G01*
X12920000Y-9384344D02*
G75*
G02*
X13000000Y-9384344I40000J0D01*
G01*
X13000000Y-9638344D02*
G75*
G02*
X12920000Y-9638344I-40000J0D01*
G01*
X12920000Y-9638344D02*
G75*
G02*
X13000000Y-9638344I40000J0D01*
G01*
X13000000Y-9892344D02*
G75*
G02*
X12920000Y-9892344I-40000J0D01*
G01*
X12920000Y-9892344D02*
G75*
G02*
X13000000Y-9892344I40000J0D01*
G01*
X13000000Y-10146344D02*
G75*
G02*
X12920000Y-10146344I-40000J0D01*
G01*
X12920000Y-10146344D02*
G75*
G02*
X13000000Y-10146344I40000J0D01*
G01*
X13000000Y-10400344D02*
G75*
G02*
X12920000Y-10400344I-40000J0D01*
G01*
X12920000Y-10400344D02*
G75*
G02*
X13000000Y-10400344I40000J0D01*
G01*
X13000000Y-10654344D02*
G75*
G02*
X12920000Y-10654344I-40000J0D01*
G01*
X12920000Y-10654344D02*
G75*
G02*
X13000000Y-10654344I40000J0D01*
G01*
X13000000Y-10908344D02*
G75*
G02*
X12920000Y-10908344I-40000J0D01*
G01*
X12920000Y-10908344D02*
G75*
G02*
X13000000Y-10908344I40000J0D01*
G01*
X13000000Y-11162344D02*
G75*
G02*
X12920000Y-11162344I-40000J0D01*
G01*
X12920000Y-11162344D02*
G75*
G02*
X13000000Y-11162344I40000J0D01*
G01*
X13000000Y-11416344D02*
G75*
G02*
X12920000Y-11416344I-40000J0D01*
G01*
X12920000Y-11416344D02*
G75*
G02*
X13000000Y-11416344I40000J0D01*
G01*
X13000000Y-11670344D02*
G75*
G02*
X12920000Y-11670344I-40000J0D01*
G01*
X12920000Y-11670344D02*
G75*
G02*
X13000000Y-11670344I40000J0D01*
G01*
X13780000Y-9290000D02*
G75*
G02*
X13700000Y-9290000I-40000J0D01*
G01*
X13700000Y-9290000D02*
G75*
G02*
X13780000Y-9290000I40000J0D01*
G01*
X13780000Y-9790000D02*
G75*
G02*
X13700000Y-9790000I-40000J0D01*
G01*
X13700000Y-9790000D02*
G75*
G02*
X13780000Y-9790000I40000J0D01*
G01*
X14700000Y-8442000D02*
G75*
G02*
X14620000Y-8442000I-40000J0D01*
G01*
X14620000Y-8442000D02*
G75*
G02*
X14700000Y-8442000I40000J0D01*
G01*
X14700000Y-9458000D02*
G75*
G02*
X14620000Y-9458000I-40000J0D01*
G01*
X14620000Y-9458000D02*
G75*
G02*
X14700000Y-9458000I40000J0D01*
G01*
X14730000Y-9960000D02*
G75*
G02*
X14650000Y-9960000I-40000J0D01*
G01*
X14650000Y-9960000D02*
G75*
G02*
X14730000Y-9960000I40000J0D01*
G01*
X14730000Y-10460000D02*
G75*
G02*
X14650000Y-10460000I-40000J0D01*
G01*
X14650000Y-10460000D02*
G75*
G02*
X14730000Y-10460000I40000J0D01*
G01*
X14731000Y-10877000D02*
G75*
G02*
X14651000Y-10877000I-40000J0D01*
G01*
X14651000Y-10877000D02*
G75*
G02*
X14731000Y-10877000I40000J0D01*
G01*
X14731000Y-11377000D02*
G75*
G02*
X14651000Y-11377000I-40000J0D01*
G01*
X14651000Y-11377000D02*
G75*
G02*
X14731000Y-11377000I40000J0D01*
G01*
X15647000Y-7030735D02*
G75*
G02*
X15567000Y-7030735I-40000J0D01*
G01*
X15567000Y-7030735D02*
G75*
G02*
X15647000Y-7030735I40000J0D01*
G01*
X15647000Y-7380735D02*
G75*
G02*
X15567000Y-7380735I-40000J0D01*
G01*
X15567000Y-7380735D02*
G75*
G02*
X15647000Y-7380735I40000J0D01*
G01*
X15676000Y-6236000D02*
G75*
G02*
X15596000Y-6236000I-40000J0D01*
G01*
X15596000Y-6236000D02*
G75*
G02*
X15676000Y-6236000I40000J0D01*
G01*
X15676000Y-6736000D02*
G75*
G02*
X15596000Y-6736000I-40000J0D01*
G01*
X15596000Y-6736000D02*
G75*
G02*
X15676000Y-6736000I40000J0D01*
G01*
X16344000Y-9570000D02*
G75*
G02*
X16264000Y-9570000I-40000J0D01*
G01*
X16264000Y-9570000D02*
G75*
G02*
X16344000Y-9570000I40000J0D01*
G01*
X16345000Y-9067000D02*
G75*
G02*
X16265000Y-9067000I-40000J0D01*
G01*
X16265000Y-9067000D02*
G75*
G02*
X16345000Y-9067000I40000J0D01*
G01*
X17360000Y-9570000D02*
G75*
G02*
X17280000Y-9570000I-40000J0D01*
G01*
X17280000Y-9570000D02*
G75*
G02*
X17360000Y-9570000I40000J0D01*
G01*
X17361000Y-9067000D02*
G75*
G02*
X17281000Y-9067000I-40000J0D01*
G01*
X17281000Y-9067000D02*
G75*
G02*
X17361000Y-9067000I40000J0D01*
G01*
X17680000Y-8072000D02*
G75*
G02*
X17600000Y-8072000I-40000J0D01*
G01*
X17600000Y-8072000D02*
G75*
G02*
X17680000Y-8072000I40000J0D01*
G01*
X17680000Y-9072000D02*
G75*
G02*
X17600000Y-9072000I-40000J0D01*
G01*
X17600000Y-9072000D02*
G75*
G02*
X17680000Y-9072000I40000J0D01*
G01*
X17680000Y-9570000D02*
G75*
G02*
X17600000Y-9570000I-40000J0D01*
G01*
X17600000Y-9570000D02*
G75*
G02*
X17680000Y-9570000I40000J0D01*
G01*
X17680000Y-10570000D02*
G75*
G02*
X17600000Y-10570000I-40000J0D01*
G01*
X17600000Y-10570000D02*
G75*
G02*
X17680000Y-10570000I40000J0D01*
G01*
X19935000Y-6845000D02*
G75*
G02*
X19855000Y-6845000I-40000J0D01*
G01*
X19855000Y-6845000D02*
G75*
G02*
X19935000Y-6845000I40000J0D01*
G01*
X19935000Y-7195000D02*
G75*
G02*
X19855000Y-7195000I-40000J0D01*
G01*
X19855000Y-7195000D02*
G75*
G02*
X19935000Y-7195000I40000J0D01*
G01*
X21566000Y-7489000D02*
G75*
G02*
X21486000Y-7489000I-40000J0D01*
G01*
X21486000Y-7489000D02*
G75*
G02*
X21566000Y-7489000I40000J0D01*
G01*
X21566000Y-7989000D02*
G75*
G02*
X21486000Y-7989000I-40000J0D01*
G01*
X21486000Y-7989000D02*
G75*
G02*
X21566000Y-7989000I40000J0D01*
G01*
X13670000Y-10187500D02*
X13670000Y-10282500D01*
X13622500Y-10235000D02*
X13717500Y-10235000D01*
X13670000Y-10437500D02*
X13670000Y-10532500D01*
X13622500Y-10485000D02*
X13717500Y-10485000D01*
X13670000Y-10687500D02*
X13670000Y-10782500D01*
X13622500Y-10735000D02*
X13717500Y-10735000D01*
X13670000Y-10937500D02*
X13670000Y-11032500D01*
X13622500Y-10985000D02*
X13717500Y-10985000D01*
X14232356Y-6542856D02*
X14232356Y-6472144D01*
X14161644Y-6472144D01*
X14161644Y-6542856D01*
X14232356Y-6542856D01*
X14232356Y-6796856D02*
X14232356Y-6726144D01*
X14161644Y-6726144D01*
X14161644Y-6796856D01*
X14232356Y-6796856D01*
X14232356Y-7050856D02*
X14232356Y-6980144D01*
X14161644Y-6980144D01*
X14161644Y-7050856D01*
X14232356Y-7050856D01*
X15447856Y-8467856D02*
X15447856Y-8397144D01*
X15377144Y-8397144D01*
X15377144Y-8467856D01*
X15447856Y-8467856D01*
X15447856Y-8721856D02*
X15447856Y-8651144D01*
X15377144Y-8651144D01*
X15377144Y-8721856D01*
X15447856Y-8721856D01*
X15447856Y-8975856D02*
X15447856Y-8905144D01*
X15377144Y-8905144D01*
X15377144Y-8975856D01*
X15447856Y-8975856D01*
X15447856Y-9229856D02*
X15447856Y-9159144D01*
X15377144Y-9159144D01*
X15377144Y-9229856D01*
X15447856Y-9229856D01*
X15447856Y-9483856D02*
X15447856Y-9413144D01*
X15377144Y-9413144D01*
X15377144Y-9483856D01*
X15447856Y-9483856D01*
X15447856Y-9737856D02*
X15447856Y-9667144D01*
X15377144Y-9667144D01*
X15377144Y-9737856D01*
X15447856Y-9737856D01*
X15447856Y-9991856D02*
X15447856Y-9921144D01*
X15377144Y-9921144D01*
X15377144Y-9991856D01*
X15447856Y-9991856D01*
X15447856Y-10245856D02*
X15447856Y-10175144D01*
X15377144Y-10175144D01*
X15377144Y-10245856D01*
X15447856Y-10245856D01*
X18845356Y-6671356D02*
X18845356Y-6600644D01*
X18774644Y-6600644D01*
X18774644Y-6671356D01*
X18845356Y-6671356D01*
X19095356Y-6671356D02*
X19095356Y-6600644D01*
X19024644Y-6600644D01*
X19024644Y-6671356D01*
X19095356Y-6671356D01*
X22502356Y-7531356D02*
X22502356Y-7460644D01*
X22431644Y-7460644D01*
X22431644Y-7531356D01*
X22502356Y-7531356D01*
X22502356Y-7781356D02*
X22502356Y-7710644D01*
X22431644Y-7710644D01*
X22431644Y-7781356D01*
X22502356Y-7781356D01*
X22620356Y-9105356D02*
X22620356Y-9034644D01*
X22549644Y-9034644D01*
X22549644Y-9105356D01*
X22620356Y-9105356D01*
X22620356Y-9355356D02*
X22620356Y-9284644D01*
X22549644Y-9284644D01*
X22549644Y-9355356D01*
X22620356Y-9355356D01*
X22620356Y-9605356D02*
X22620356Y-9534644D01*
X22549644Y-9534644D01*
X22549644Y-9605356D01*
X22620356Y-9605356D01*
X24070356Y-9105356D02*
X24070356Y-9034644D01*
X23999644Y-9034644D01*
X23999644Y-9105356D01*
X24070356Y-9105356D01*
X24070356Y-9605356D02*
X24070356Y-9534644D01*
X23999644Y-9534644D01*
X23999644Y-9605356D01*
X24070356Y-9605356D01*
D13*
X15320000Y-12266000D02*
X15375000Y-12211000D01*
X15320000Y-12156000D01*
X15265000Y-12211000D01*
X15320000Y-12266000D01*
X15320000Y-12716000D02*
X15375000Y-12661000D01*
X15320000Y-12606000D01*
X15265000Y-12661000D01*
X15320000Y-12716000D01*
X15970000Y-12266000D02*
X16025000Y-12211000D01*
X15970000Y-12156000D01*
X15915000Y-12211000D01*
X15970000Y-12266000D01*
X15970000Y-12716000D02*
X16025000Y-12661000D01*
X15970000Y-12606000D01*
X15915000Y-12661000D01*
X15970000Y-12716000D01*
X16870000Y-12272000D02*
X16925000Y-12217000D01*
X16870000Y-12162000D01*
X16815000Y-12217000D01*
X16870000Y-12272000D01*
X16870000Y-12722000D02*
X16925000Y-12667000D01*
X16870000Y-12612000D01*
X16815000Y-12667000D01*
X16870000Y-12722000D01*
X17520000Y-12272000D02*
X17575000Y-12217000D01*
X17520000Y-12162000D01*
X17465000Y-12217000D01*
X17520000Y-12272000D01*
X17520000Y-12722000D02*
X17575000Y-12667000D01*
X17520000Y-12612000D01*
X17465000Y-12667000D01*
X17520000Y-12722000D01*
X18423000Y-12275000D02*
X18478000Y-12220000D01*
X18423000Y-12165000D01*
X18368000Y-12220000D01*
X18423000Y-12275000D01*
X18423000Y-12725000D02*
X18478000Y-12670000D01*
X18423000Y-12615000D01*
X18368000Y-12670000D01*
X18423000Y-12725000D01*
X19073000Y-12275000D02*
X19128000Y-12220000D01*
X19073000Y-12165000D01*
X19018000Y-12220000D01*
X19073000Y-12275000D01*
X19073000Y-12725000D02*
X19128000Y-12670000D01*
X19073000Y-12615000D01*
X19018000Y-12670000D01*
X19073000Y-12725000D01*
X19979000Y-12272000D02*
X20034000Y-12217000D01*
X19979000Y-12162000D01*
X19924000Y-12217000D01*
X19979000Y-12272000D01*
X19979000Y-12722000D02*
X20034000Y-12667000D01*
X19979000Y-12612000D01*
X19924000Y-12667000D01*
X19979000Y-12722000D01*
X20629000Y-12272000D02*
X20684000Y-12217000D01*
X20629000Y-12162000D01*
X20574000Y-12217000D01*
X20629000Y-12272000D01*
X20629000Y-12722000D02*
X20684000Y-12667000D01*
X20629000Y-12612000D01*
X20574000Y-12667000D01*
X20629000Y-12722000D01*
D14*
X16155000Y-6463000D02*
X16275000Y-6583000D01*
X16275000Y-6463000D02*
X16155000Y-6583000D01*
X16275000Y-6523000D02*
G75*
G02*
X16155000Y-6523000I-60000J0D01*
G01*
X16155000Y-6523000D02*
G75*
G02*
X16275000Y-6523000I60000J0D01*
G01*
X16155000Y-6717000D02*
X16275000Y-6837000D01*
X16275000Y-6717000D02*
X16155000Y-6837000D01*
X16275000Y-6777000D02*
G75*
G02*
X16155000Y-6777000I-60000J0D01*
G01*
X16155000Y-6777000D02*
G75*
G02*
X16275000Y-6777000I60000J0D01*
G01*
X16155000Y-6971000D02*
X16275000Y-7091000D01*
X16275000Y-6971000D02*
X16155000Y-7091000D01*
X16275000Y-7031000D02*
G75*
G02*
X16155000Y-7031000I-60000J0D01*
G01*
X16155000Y-7031000D02*
G75*
G02*
X16275000Y-7031000I60000J0D01*
G01*
X18290000Y-7212000D02*
X18410000Y-7332000D01*
X18410000Y-7212000D02*
X18290000Y-7332000D01*
X18410000Y-7272000D02*
G75*
G02*
X18290000Y-7272000I-60000J0D01*
G01*
X18290000Y-7272000D02*
G75*
G02*
X18410000Y-7272000I60000J0D01*
G01*
X19306000Y-7212000D02*
X19426000Y-7332000D01*
X19426000Y-7212000D02*
X19306000Y-7332000D01*
X19426000Y-7272000D02*
G75*
G02*
X19306000Y-7272000I-60000J0D01*
G01*
X19306000Y-7272000D02*
G75*
G02*
X19426000Y-7272000I60000J0D01*
G01*
X20273000Y-6472000D02*
X20393000Y-6592000D01*
X20393000Y-6472000D02*
X20273000Y-6592000D01*
X20393000Y-6532000D02*
G75*
G02*
X20273000Y-6532000I-60000J0D01*
G01*
X20273000Y-6532000D02*
G75*
G02*
X20393000Y-6532000I60000J0D01*
G01*
X20273000Y-6726000D02*
X20393000Y-6846000D01*
X20393000Y-6726000D02*
X20273000Y-6846000D01*
X20393000Y-6786000D02*
G75*
G02*
X20273000Y-6786000I-60000J0D01*
G01*
X20273000Y-6786000D02*
G75*
G02*
X20393000Y-6786000I60000J0D01*
G01*
X20273000Y-6980000D02*
X20393000Y-7100000D01*
X20393000Y-6980000D02*
X20273000Y-7100000D01*
X20393000Y-7040000D02*
G75*
G02*
X20273000Y-7040000I-60000J0D01*
G01*
X20273000Y-7040000D02*
G75*
G02*
X20393000Y-7040000I60000J0D01*
G01*
D15*
X23260000Y-8685000D02*
X23410000Y-8835000D01*
X23410000Y-8685000D02*
X23260000Y-8835000D01*
X23335000Y-8685000D02*
X23335000Y-8835000D01*
X23260000Y-8760000D02*
X23410000Y-8760000D01*
D12*
X23270000Y-8835000D02*
X23400000Y-8835000D01*
X23400000Y-8685000D02*
G75*
G02*
X23400000Y-8835000I0J-75000D01*
G01*
X23400000Y-8685000D02*
X23270000Y-8685000D01*
X23270000Y-8685000D02*
G75*
G03*
X23270000Y-8835000I0J-75000D01*
G01*
D15*
X23260000Y-9805000D02*
X23410000Y-9955000D01*
X23410000Y-9805000D02*
X23260000Y-9955000D01*
X23335000Y-9805000D02*
X23335000Y-9955000D01*
X23260000Y-9880000D02*
X23410000Y-9880000D01*
D12*
X23270000Y-9955000D02*
X23400000Y-9955000D01*
X23400000Y-9805000D02*
G75*
G02*
X23400000Y-9955000I0J-75000D01*
G01*
X23400000Y-9805000D02*
X23270000Y-9805000D01*
X23270000Y-9805000D02*
G75*
G03*
X23270000Y-9955000I0J-75000D01*
G01*
D16*
X10075000Y-6475000D02*
X10325000Y-6725000D01*
X10325000Y-6475000D02*
X10075000Y-6725000D01*
X10288389Y-6688389D02*
X10288389Y-6511611D01*
X10111611Y-6511611D01*
X10111611Y-6688389D01*
X10288389Y-6688389D01*
X10075000Y-12775000D02*
X10325000Y-13025000D01*
X10325000Y-12775000D02*
X10075000Y-13025000D01*
X10288389Y-12988389D02*
X10288389Y-12811611D01*
X10111611Y-12811611D01*
X10111611Y-12988389D01*
X10288389Y-12988389D01*
X20165000Y-10545000D02*
X20415000Y-10795000D01*
X20415000Y-10545000D02*
X20165000Y-10795000D01*
X20378389Y-10758389D02*
X20378389Y-10581611D01*
X20201611Y-10581611D01*
X20201611Y-10758389D01*
X20378389Y-10758389D01*
X20175000Y-7885000D02*
X20425000Y-8135000D01*
X20425000Y-7885000D02*
X20175000Y-8135000D01*
X20388389Y-8098389D02*
X20388389Y-7921611D01*
X20211611Y-7921611D01*
X20211611Y-8098389D01*
X20388389Y-8098389D01*
X23775000Y-6475000D02*
X24025000Y-6725000D01*
X24025000Y-6475000D02*
X23775000Y-6725000D01*
X23988389Y-6688389D02*
X23988389Y-6511611D01*
X23811611Y-6511611D01*
X23811611Y-6688389D01*
X23988389Y-6688389D01*
X23775000Y-12775000D02*
X24025000Y-13025000D01*
X24025000Y-12775000D02*
X23775000Y-13025000D01*
X23988389Y-12988389D02*
X23988389Y-12811611D01*
X23811611Y-12811611D01*
X23811611Y-12988389D01*
X23988389Y-12988389D01*
D17*
X17620000Y-6606000D02*
X17970000Y-6956000D01*
X17970000Y-6606000D02*
X17620000Y-6956000D01*
X17795000Y-6956000D02*
X17970000Y-6781000D01*
X17795000Y-6606000D01*
X17620000Y-6781000D01*
X17795000Y-6956000D01*
X21740000Y-6608000D02*
X22090000Y-6958000D01*
X22090000Y-6608000D02*
X21740000Y-6958000D01*
X21915000Y-6958000D02*
X22090000Y-6783000D01*
X21915000Y-6608000D01*
X21740000Y-6783000D01*
X21915000Y-6958000D01*
D11*
X9848277Y-13843984D02*
X9848277Y-13643984D01*
X9848277Y-13643984D02*
X9895896Y-13643984D01*
X9895896Y-13643984D02*
X9924467Y-13653508D01*
X9924467Y-13653508D02*
X9943515Y-13672555D01*
X9943515Y-13672555D02*
X9953039Y-13691603D01*
X9953039Y-13691603D02*
X9962563Y-13729698D01*
X9962563Y-13729698D02*
X9962563Y-13758269D01*
X9962563Y-13758269D02*
X9953039Y-13796365D01*
X9953039Y-13796365D02*
X9943515Y-13815412D01*
X9943515Y-13815412D02*
X9924467Y-13834460D01*
X9924467Y-13834460D02*
X9895896Y-13843984D01*
X9895896Y-13843984D02*
X9848277Y-13843984D01*
X10048277Y-13843984D02*
X10048277Y-13710650D01*
X10048277Y-13748746D02*
X10057801Y-13729698D01*
X10057801Y-13729698D02*
X10067324Y-13720174D01*
X10067324Y-13720174D02*
X10086372Y-13710650D01*
X10086372Y-13710650D02*
X10105420Y-13710650D01*
X10172086Y-13843984D02*
X10172086Y-13710650D01*
X10172086Y-13643984D02*
X10162563Y-13653508D01*
X10162563Y-13653508D02*
X10172086Y-13663031D01*
X10172086Y-13663031D02*
X10181610Y-13653508D01*
X10181610Y-13653508D02*
X10172086Y-13643984D01*
X10172086Y-13643984D02*
X10172086Y-13663031D01*
X10295896Y-13843984D02*
X10276848Y-13834460D01*
X10276848Y-13834460D02*
X10267324Y-13815412D01*
X10267324Y-13815412D02*
X10267324Y-13643984D01*
X10400658Y-13843984D02*
X10381610Y-13834460D01*
X10381610Y-13834460D02*
X10372086Y-13815412D01*
X10372086Y-13815412D02*
X10372086Y-13643984D01*
X10629229Y-13843984D02*
X10629229Y-13643984D01*
X10629229Y-13643984D02*
X10695896Y-13786841D01*
X10695896Y-13786841D02*
X10762563Y-13643984D01*
X10762563Y-13643984D02*
X10762563Y-13843984D01*
X10943515Y-13843984D02*
X10943515Y-13739222D01*
X10943515Y-13739222D02*
X10933991Y-13720174D01*
X10933991Y-13720174D02*
X10914944Y-13710650D01*
X10914944Y-13710650D02*
X10876848Y-13710650D01*
X10876848Y-13710650D02*
X10857801Y-13720174D01*
X10943515Y-13834460D02*
X10924467Y-13843984D01*
X10924467Y-13843984D02*
X10876848Y-13843984D01*
X10876848Y-13843984D02*
X10857801Y-13834460D01*
X10857801Y-13834460D02*
X10848277Y-13815412D01*
X10848277Y-13815412D02*
X10848277Y-13796365D01*
X10848277Y-13796365D02*
X10857801Y-13777317D01*
X10857801Y-13777317D02*
X10876848Y-13767793D01*
X10876848Y-13767793D02*
X10924467Y-13767793D01*
X10924467Y-13767793D02*
X10943515Y-13758269D01*
X11038753Y-13710650D02*
X11038753Y-13910650D01*
X11038753Y-13720174D02*
X11057801Y-13710650D01*
X11057801Y-13710650D02*
X11095896Y-13710650D01*
X11095896Y-13710650D02*
X11114944Y-13720174D01*
X11114944Y-13720174D02*
X11124467Y-13729698D01*
X11124467Y-13729698D02*
X11133991Y-13748746D01*
X11133991Y-13748746D02*
X11133991Y-13805888D01*
X11133991Y-13805888D02*
X11124467Y-13824936D01*
X11124467Y-13824936D02*
X11114944Y-13834460D01*
X11114944Y-13834460D02*
X11095896Y-13843984D01*
X11095896Y-13843984D02*
X11057801Y-13843984D01*
X11057801Y-13843984D02*
X11038753Y-13834460D01*
X11219705Y-13824936D02*
X11229229Y-13834460D01*
X11229229Y-13834460D02*
X11219705Y-13843984D01*
X11219705Y-13843984D02*
X11210182Y-13834460D01*
X11210182Y-13834460D02*
X11219705Y-13824936D01*
X11219705Y-13824936D02*
X11219705Y-13843984D01*
X11219705Y-13720174D02*
X11229229Y-13729698D01*
X11229229Y-13729698D02*
X11219705Y-13739222D01*
X11219705Y-13739222D02*
X11210182Y-13729698D01*
X11210182Y-13729698D02*
X11219705Y-13720174D01*
X11219705Y-13720174D02*
X11219705Y-13739222D01*
D12*
X9511300Y-14134400D02*
X9587500Y-14210600D01*
X9587500Y-14134400D02*
X9511300Y-14210600D01*
D11*
X9886372Y-14063984D02*
X9905420Y-14063984D01*
X9905420Y-14063984D02*
X9924467Y-14073508D01*
X9924467Y-14073508D02*
X9933991Y-14083031D01*
X9933991Y-14083031D02*
X9943515Y-14102079D01*
X9943515Y-14102079D02*
X9953039Y-14140174D01*
X9953039Y-14140174D02*
X9953039Y-14187793D01*
X9953039Y-14187793D02*
X9943515Y-14225888D01*
X9943515Y-14225888D02*
X9933991Y-14244936D01*
X9933991Y-14244936D02*
X9924467Y-14254460D01*
X9924467Y-14254460D02*
X9905420Y-14263984D01*
X9905420Y-14263984D02*
X9886372Y-14263984D01*
X9886372Y-14263984D02*
X9867324Y-14254460D01*
X9867324Y-14254460D02*
X9857801Y-14244936D01*
X9857801Y-14244936D02*
X9848277Y-14225888D01*
X9848277Y-14225888D02*
X9838753Y-14187793D01*
X9838753Y-14187793D02*
X9838753Y-14140174D01*
X9838753Y-14140174D02*
X9848277Y-14102079D01*
X9848277Y-14102079D02*
X9857801Y-14083031D01*
X9857801Y-14083031D02*
X9867324Y-14073508D01*
X9867324Y-14073508D02*
X9886372Y-14063984D01*
X10038753Y-14244936D02*
X10048277Y-14254460D01*
X10048277Y-14254460D02*
X10038753Y-14263984D01*
X10038753Y-14263984D02*
X10029229Y-14254460D01*
X10029229Y-14254460D02*
X10038753Y-14244936D01*
X10038753Y-14244936D02*
X10038753Y-14263984D01*
X10114944Y-14063984D02*
X10248277Y-14063984D01*
X10248277Y-14063984D02*
X10162563Y-14263984D01*
X10410182Y-14063984D02*
X10372086Y-14063984D01*
X10372086Y-14063984D02*
X10353039Y-14073508D01*
X10353039Y-14073508D02*
X10343515Y-14083031D01*
X10343515Y-14083031D02*
X10324467Y-14111603D01*
X10324467Y-14111603D02*
X10314944Y-14149698D01*
X10314944Y-14149698D02*
X10314944Y-14225888D01*
X10314944Y-14225888D02*
X10324467Y-14244936D01*
X10324467Y-14244936D02*
X10333991Y-14254460D01*
X10333991Y-14254460D02*
X10353039Y-14263984D01*
X10353039Y-14263984D02*
X10391134Y-14263984D01*
X10391134Y-14263984D02*
X10410182Y-14254460D01*
X10410182Y-14254460D02*
X10419705Y-14244936D01*
X10419705Y-14244936D02*
X10429229Y-14225888D01*
X10429229Y-14225888D02*
X10429229Y-14178269D01*
X10429229Y-14178269D02*
X10419705Y-14159222D01*
X10419705Y-14159222D02*
X10410182Y-14149698D01*
X10410182Y-14149698D02*
X10391134Y-14140174D01*
X10391134Y-14140174D02*
X10353039Y-14140174D01*
X10353039Y-14140174D02*
X10333991Y-14149698D01*
X10333991Y-14149698D02*
X10324467Y-14159222D01*
X10324467Y-14159222D02*
X10314944Y-14178269D01*
X10505420Y-14083031D02*
X10514944Y-14073508D01*
X10514944Y-14073508D02*
X10533991Y-14063984D01*
X10533991Y-14063984D02*
X10581610Y-14063984D01*
X10581610Y-14063984D02*
X10600658Y-14073508D01*
X10600658Y-14073508D02*
X10610182Y-14083031D01*
X10610182Y-14083031D02*
X10619705Y-14102079D01*
X10619705Y-14102079D02*
X10619705Y-14121127D01*
X10619705Y-14121127D02*
X10610182Y-14149698D01*
X10610182Y-14149698D02*
X10495896Y-14263984D01*
X10495896Y-14263984D02*
X10619705Y-14263984D01*
X10705420Y-14263984D02*
X10705420Y-14130650D01*
X10705420Y-14149698D02*
X10714944Y-14140174D01*
X10714944Y-14140174D02*
X10733991Y-14130650D01*
X10733991Y-14130650D02*
X10762563Y-14130650D01*
X10762563Y-14130650D02*
X10781610Y-14140174D01*
X10781610Y-14140174D02*
X10791134Y-14159222D01*
X10791134Y-14159222D02*
X10791134Y-14263984D01*
X10791134Y-14159222D02*
X10800658Y-14140174D01*
X10800658Y-14140174D02*
X10819705Y-14130650D01*
X10819705Y-14130650D02*
X10848277Y-14130650D01*
X10848277Y-14130650D02*
X10867325Y-14140174D01*
X10867325Y-14140174D02*
X10876848Y-14159222D01*
X10876848Y-14159222D02*
X10876848Y-14263984D01*
X10972086Y-14263984D02*
X10972086Y-14130650D01*
X10972086Y-14149698D02*
X10981610Y-14140174D01*
X10981610Y-14140174D02*
X11000658Y-14130650D01*
X11000658Y-14130650D02*
X11029229Y-14130650D01*
X11029229Y-14130650D02*
X11048277Y-14140174D01*
X11048277Y-14140174D02*
X11057801Y-14159222D01*
X11057801Y-14159222D02*
X11057801Y-14263984D01*
X11057801Y-14159222D02*
X11067325Y-14140174D01*
X11067325Y-14140174D02*
X11086372Y-14130650D01*
X11086372Y-14130650D02*
X11114944Y-14130650D01*
X11114944Y-14130650D02*
X11133991Y-14140174D01*
X11133991Y-14140174D02*
X11143515Y-14159222D01*
X11143515Y-14159222D02*
X11143515Y-14263984D01*
X11533991Y-14054460D02*
X11362563Y-14311603D01*
X11791134Y-14063984D02*
X11810182Y-14063984D01*
X11810182Y-14063984D02*
X11829229Y-14073508D01*
X11829229Y-14073508D02*
X11838753Y-14083031D01*
X11838753Y-14083031D02*
X11848277Y-14102079D01*
X11848277Y-14102079D02*
X11857801Y-14140174D01*
X11857801Y-14140174D02*
X11857801Y-14187793D01*
X11857801Y-14187793D02*
X11848277Y-14225888D01*
X11848277Y-14225888D02*
X11838753Y-14244936D01*
X11838753Y-14244936D02*
X11829229Y-14254460D01*
X11829229Y-14254460D02*
X11810182Y-14263984D01*
X11810182Y-14263984D02*
X11791134Y-14263984D01*
X11791134Y-14263984D02*
X11772086Y-14254460D01*
X11772086Y-14254460D02*
X11762563Y-14244936D01*
X11762563Y-14244936D02*
X11753039Y-14225888D01*
X11753039Y-14225888D02*
X11743515Y-14187793D01*
X11743515Y-14187793D02*
X11743515Y-14140174D01*
X11743515Y-14140174D02*
X11753039Y-14102079D01*
X11753039Y-14102079D02*
X11762563Y-14083031D01*
X11762563Y-14083031D02*
X11772086Y-14073508D01*
X11772086Y-14073508D02*
X11791134Y-14063984D01*
X11943515Y-14244936D02*
X11953039Y-14254460D01*
X11953039Y-14254460D02*
X11943515Y-14263984D01*
X11943515Y-14263984D02*
X11933991Y-14254460D01*
X11933991Y-14254460D02*
X11943515Y-14244936D01*
X11943515Y-14244936D02*
X11943515Y-14263984D01*
X12076848Y-14063984D02*
X12095896Y-14063984D01*
X12095896Y-14063984D02*
X12114944Y-14073508D01*
X12114944Y-14073508D02*
X12124467Y-14083031D01*
X12124467Y-14083031D02*
X12133991Y-14102079D01*
X12133991Y-14102079D02*
X12143515Y-14140174D01*
X12143515Y-14140174D02*
X12143515Y-14187793D01*
X12143515Y-14187793D02*
X12133991Y-14225888D01*
X12133991Y-14225888D02*
X12124467Y-14244936D01*
X12124467Y-14244936D02*
X12114944Y-14254460D01*
X12114944Y-14254460D02*
X12095896Y-14263984D01*
X12095896Y-14263984D02*
X12076848Y-14263984D01*
X12076848Y-14263984D02*
X12057801Y-14254460D01*
X12057801Y-14254460D02*
X12048277Y-14244936D01*
X12048277Y-14244936D02*
X12038753Y-14225888D01*
X12038753Y-14225888D02*
X12029229Y-14187793D01*
X12029229Y-14187793D02*
X12029229Y-14140174D01*
X12029229Y-14140174D02*
X12038753Y-14102079D01*
X12038753Y-14102079D02*
X12048277Y-14083031D01*
X12048277Y-14083031D02*
X12057801Y-14073508D01*
X12057801Y-14073508D02*
X12076848Y-14063984D01*
X12210182Y-14063984D02*
X12333991Y-14063984D01*
X12333991Y-14063984D02*
X12267325Y-14140174D01*
X12267325Y-14140174D02*
X12295896Y-14140174D01*
X12295896Y-14140174D02*
X12314944Y-14149698D01*
X12314944Y-14149698D02*
X12324467Y-14159222D01*
X12324467Y-14159222D02*
X12333991Y-14178269D01*
X12333991Y-14178269D02*
X12333991Y-14225888D01*
X12333991Y-14225888D02*
X12324467Y-14244936D01*
X12324467Y-14244936D02*
X12314944Y-14254460D01*
X12314944Y-14254460D02*
X12295896Y-14263984D01*
X12295896Y-14263984D02*
X12238753Y-14263984D01*
X12238753Y-14263984D02*
X12219706Y-14254460D01*
X12219706Y-14254460D02*
X12210182Y-14244936D01*
X12457801Y-14063984D02*
X12476848Y-14063984D01*
X12476848Y-14063984D02*
X12495896Y-14073508D01*
X12495896Y-14073508D02*
X12505420Y-14083031D01*
X12505420Y-14083031D02*
X12514944Y-14102079D01*
X12514944Y-14102079D02*
X12524467Y-14140174D01*
X12524467Y-14140174D02*
X12524467Y-14187793D01*
X12524467Y-14187793D02*
X12514944Y-14225888D01*
X12514944Y-14225888D02*
X12505420Y-14244936D01*
X12505420Y-14244936D02*
X12495896Y-14254460D01*
X12495896Y-14254460D02*
X12476848Y-14263984D01*
X12476848Y-14263984D02*
X12457801Y-14263984D01*
X12457801Y-14263984D02*
X12438753Y-14254460D01*
X12438753Y-14254460D02*
X12429229Y-14244936D01*
X12429229Y-14244936D02*
X12419706Y-14225888D01*
X12419706Y-14225888D02*
X12410182Y-14187793D01*
X12410182Y-14187793D02*
X12410182Y-14140174D01*
X12410182Y-14140174D02*
X12419706Y-14102079D01*
X12419706Y-14102079D02*
X12429229Y-14083031D01*
X12429229Y-14083031D02*
X12438753Y-14073508D01*
X12438753Y-14073508D02*
X12457801Y-14063984D01*
X12648277Y-14063984D02*
X12667325Y-14063984D01*
X12667325Y-14063984D02*
X12686372Y-14073508D01*
X12686372Y-14073508D02*
X12695896Y-14083031D01*
X12695896Y-14083031D02*
X12705420Y-14102079D01*
X12705420Y-14102079D02*
X12714944Y-14140174D01*
X12714944Y-14140174D02*
X12714944Y-14187793D01*
X12714944Y-14187793D02*
X12705420Y-14225888D01*
X12705420Y-14225888D02*
X12695896Y-14244936D01*
X12695896Y-14244936D02*
X12686372Y-14254460D01*
X12686372Y-14254460D02*
X12667325Y-14263984D01*
X12667325Y-14263984D02*
X12648277Y-14263984D01*
X12648277Y-14263984D02*
X12629229Y-14254460D01*
X12629229Y-14254460D02*
X12619706Y-14244936D01*
X12619706Y-14244936D02*
X12610182Y-14225888D01*
X12610182Y-14225888D02*
X12600658Y-14187793D01*
X12600658Y-14187793D02*
X12600658Y-14140174D01*
X12600658Y-14140174D02*
X12610182Y-14102079D01*
X12610182Y-14102079D02*
X12619706Y-14083031D01*
X12619706Y-14083031D02*
X12629229Y-14073508D01*
X12629229Y-14073508D02*
X12648277Y-14063984D01*
X12791134Y-14063984D02*
X12791134Y-14102079D01*
X12867325Y-14063984D02*
X12867325Y-14102079D01*
X13162563Y-14340174D02*
X13153039Y-14330650D01*
X13153039Y-14330650D02*
X13133991Y-14302079D01*
X13133991Y-14302079D02*
X13124468Y-14283031D01*
X13124468Y-14283031D02*
X13114944Y-14254460D01*
X13114944Y-14254460D02*
X13105420Y-14206841D01*
X13105420Y-14206841D02*
X13105420Y-14168746D01*
X13105420Y-14168746D02*
X13114944Y-14121127D01*
X13114944Y-14121127D02*
X13124468Y-14092555D01*
X13124468Y-14092555D02*
X13133991Y-14073508D01*
X13133991Y-14073508D02*
X13153039Y-14044936D01*
X13153039Y-14044936D02*
X13162563Y-14035412D01*
X13267325Y-14149698D02*
X13248277Y-14140174D01*
X13248277Y-14140174D02*
X13238753Y-14130650D01*
X13238753Y-14130650D02*
X13229229Y-14111603D01*
X13229229Y-14111603D02*
X13229229Y-14102079D01*
X13229229Y-14102079D02*
X13238753Y-14083031D01*
X13238753Y-14083031D02*
X13248277Y-14073508D01*
X13248277Y-14073508D02*
X13267325Y-14063984D01*
X13267325Y-14063984D02*
X13305420Y-14063984D01*
X13305420Y-14063984D02*
X13324468Y-14073508D01*
X13324468Y-14073508D02*
X13333991Y-14083031D01*
X13333991Y-14083031D02*
X13343515Y-14102079D01*
X13343515Y-14102079D02*
X13343515Y-14111603D01*
X13343515Y-14111603D02*
X13333991Y-14130650D01*
X13333991Y-14130650D02*
X13324468Y-14140174D01*
X13324468Y-14140174D02*
X13305420Y-14149698D01*
X13305420Y-14149698D02*
X13267325Y-14149698D01*
X13267325Y-14149698D02*
X13248277Y-14159222D01*
X13248277Y-14159222D02*
X13238753Y-14168746D01*
X13238753Y-14168746D02*
X13229229Y-14187793D01*
X13229229Y-14187793D02*
X13229229Y-14225888D01*
X13229229Y-14225888D02*
X13238753Y-14244936D01*
X13238753Y-14244936D02*
X13248277Y-14254460D01*
X13248277Y-14254460D02*
X13267325Y-14263984D01*
X13267325Y-14263984D02*
X13305420Y-14263984D01*
X13305420Y-14263984D02*
X13324468Y-14254460D01*
X13324468Y-14254460D02*
X13333991Y-14244936D01*
X13333991Y-14244936D02*
X13343515Y-14225888D01*
X13343515Y-14225888D02*
X13343515Y-14187793D01*
X13343515Y-14187793D02*
X13333991Y-14168746D01*
X13333991Y-14168746D02*
X13324468Y-14159222D01*
X13324468Y-14159222D02*
X13305420Y-14149698D01*
X13581610Y-14263984D02*
X13581610Y-14063984D01*
X13667325Y-14263984D02*
X13667325Y-14159222D01*
X13667325Y-14159222D02*
X13657801Y-14140174D01*
X13657801Y-14140174D02*
X13638753Y-14130650D01*
X13638753Y-14130650D02*
X13610182Y-14130650D01*
X13610182Y-14130650D02*
X13591134Y-14140174D01*
X13591134Y-14140174D02*
X13581610Y-14149698D01*
X13791134Y-14263984D02*
X13772087Y-14254460D01*
X13772087Y-14254460D02*
X13762563Y-14244936D01*
X13762563Y-14244936D02*
X13753039Y-14225888D01*
X13753039Y-14225888D02*
X13753039Y-14168746D01*
X13753039Y-14168746D02*
X13762563Y-14149698D01*
X13762563Y-14149698D02*
X13772087Y-14140174D01*
X13772087Y-14140174D02*
X13791134Y-14130650D01*
X13791134Y-14130650D02*
X13819706Y-14130650D01*
X13819706Y-14130650D02*
X13838753Y-14140174D01*
X13838753Y-14140174D02*
X13848277Y-14149698D01*
X13848277Y-14149698D02*
X13857801Y-14168746D01*
X13857801Y-14168746D02*
X13857801Y-14225888D01*
X13857801Y-14225888D02*
X13848277Y-14244936D01*
X13848277Y-14244936D02*
X13838753Y-14254460D01*
X13838753Y-14254460D02*
X13819706Y-14263984D01*
X13819706Y-14263984D02*
X13791134Y-14263984D01*
X13972087Y-14263984D02*
X13953039Y-14254460D01*
X13953039Y-14254460D02*
X13943515Y-14235412D01*
X13943515Y-14235412D02*
X13943515Y-14063984D01*
X14124468Y-14254460D02*
X14105420Y-14263984D01*
X14105420Y-14263984D02*
X14067325Y-14263984D01*
X14067325Y-14263984D02*
X14048277Y-14254460D01*
X14048277Y-14254460D02*
X14038753Y-14235412D01*
X14038753Y-14235412D02*
X14038753Y-14159222D01*
X14038753Y-14159222D02*
X14048277Y-14140174D01*
X14048277Y-14140174D02*
X14067325Y-14130650D01*
X14067325Y-14130650D02*
X14105420Y-14130650D01*
X14105420Y-14130650D02*
X14124468Y-14140174D01*
X14124468Y-14140174D02*
X14133991Y-14159222D01*
X14133991Y-14159222D02*
X14133991Y-14178269D01*
X14133991Y-14178269D02*
X14038753Y-14197317D01*
X14210182Y-14254460D02*
X14229230Y-14263984D01*
X14229230Y-14263984D02*
X14267325Y-14263984D01*
X14267325Y-14263984D02*
X14286372Y-14254460D01*
X14286372Y-14254460D02*
X14295896Y-14235412D01*
X14295896Y-14235412D02*
X14295896Y-14225888D01*
X14295896Y-14225888D02*
X14286372Y-14206841D01*
X14286372Y-14206841D02*
X14267325Y-14197317D01*
X14267325Y-14197317D02*
X14238753Y-14197317D01*
X14238753Y-14197317D02*
X14219706Y-14187793D01*
X14219706Y-14187793D02*
X14210182Y-14168746D01*
X14210182Y-14168746D02*
X14210182Y-14159222D01*
X14210182Y-14159222D02*
X14219706Y-14140174D01*
X14219706Y-14140174D02*
X14238753Y-14130650D01*
X14238753Y-14130650D02*
X14267325Y-14130650D01*
X14267325Y-14130650D02*
X14286372Y-14140174D01*
X14362563Y-14340174D02*
X14372087Y-14330650D01*
X14372087Y-14330650D02*
X14391134Y-14302079D01*
X14391134Y-14302079D02*
X14400658Y-14283031D01*
X14400658Y-14283031D02*
X14410182Y-14254460D01*
X14410182Y-14254460D02*
X14419706Y-14206841D01*
X14419706Y-14206841D02*
X14419706Y-14168746D01*
X14419706Y-14168746D02*
X14410182Y-14121127D01*
X14410182Y-14121127D02*
X14400658Y-14092555D01*
X14400658Y-14092555D02*
X14391134Y-14073508D01*
X14391134Y-14073508D02*
X14372087Y-14044936D01*
X14372087Y-14044936D02*
X14362563Y-14035412D01*
D12*
X9587500Y-14436500D02*
G75*
G02*
X9507500Y-14436500I-40000J0D01*
G01*
X9507500Y-14436500D02*
G75*
G02*
X9587500Y-14436500I40000J0D01*
G01*
D11*
X9886372Y-14327984D02*
X9905420Y-14327984D01*
X9905420Y-14327984D02*
X9924467Y-14337508D01*
X9924467Y-14337508D02*
X9933991Y-14347031D01*
X9933991Y-14347031D02*
X9943515Y-14366079D01*
X9943515Y-14366079D02*
X9953039Y-14404174D01*
X9953039Y-14404174D02*
X9953039Y-14451793D01*
X9953039Y-14451793D02*
X9943515Y-14489888D01*
X9943515Y-14489888D02*
X9933991Y-14508936D01*
X9933991Y-14508936D02*
X9924467Y-14518460D01*
X9924467Y-14518460D02*
X9905420Y-14527984D01*
X9905420Y-14527984D02*
X9886372Y-14527984D01*
X9886372Y-14527984D02*
X9867324Y-14518460D01*
X9867324Y-14518460D02*
X9857801Y-14508936D01*
X9857801Y-14508936D02*
X9848277Y-14489888D01*
X9848277Y-14489888D02*
X9838753Y-14451793D01*
X9838753Y-14451793D02*
X9838753Y-14404174D01*
X9838753Y-14404174D02*
X9848277Y-14366079D01*
X9848277Y-14366079D02*
X9857801Y-14347031D01*
X9857801Y-14347031D02*
X9867324Y-14337508D01*
X9867324Y-14337508D02*
X9886372Y-14327984D01*
X10038753Y-14508936D02*
X10048277Y-14518460D01*
X10048277Y-14518460D02*
X10038753Y-14527984D01*
X10038753Y-14527984D02*
X10029229Y-14518460D01*
X10029229Y-14518460D02*
X10038753Y-14508936D01*
X10038753Y-14508936D02*
X10038753Y-14527984D01*
X10162563Y-14413698D02*
X10143515Y-14404174D01*
X10143515Y-14404174D02*
X10133991Y-14394650D01*
X10133991Y-14394650D02*
X10124467Y-14375603D01*
X10124467Y-14375603D02*
X10124467Y-14366079D01*
X10124467Y-14366079D02*
X10133991Y-14347031D01*
X10133991Y-14347031D02*
X10143515Y-14337508D01*
X10143515Y-14337508D02*
X10162563Y-14327984D01*
X10162563Y-14327984D02*
X10200658Y-14327984D01*
X10200658Y-14327984D02*
X10219705Y-14337508D01*
X10219705Y-14337508D02*
X10229229Y-14347031D01*
X10229229Y-14347031D02*
X10238753Y-14366079D01*
X10238753Y-14366079D02*
X10238753Y-14375603D01*
X10238753Y-14375603D02*
X10229229Y-14394650D01*
X10229229Y-14394650D02*
X10219705Y-14404174D01*
X10219705Y-14404174D02*
X10200658Y-14413698D01*
X10200658Y-14413698D02*
X10162563Y-14413698D01*
X10162563Y-14413698D02*
X10143515Y-14423222D01*
X10143515Y-14423222D02*
X10133991Y-14432746D01*
X10133991Y-14432746D02*
X10124467Y-14451793D01*
X10124467Y-14451793D02*
X10124467Y-14489888D01*
X10124467Y-14489888D02*
X10133991Y-14508936D01*
X10133991Y-14508936D02*
X10143515Y-14518460D01*
X10143515Y-14518460D02*
X10162563Y-14527984D01*
X10162563Y-14527984D02*
X10200658Y-14527984D01*
X10200658Y-14527984D02*
X10219705Y-14518460D01*
X10219705Y-14518460D02*
X10229229Y-14508936D01*
X10229229Y-14508936D02*
X10238753Y-14489888D01*
X10238753Y-14489888D02*
X10238753Y-14451793D01*
X10238753Y-14451793D02*
X10229229Y-14432746D01*
X10229229Y-14432746D02*
X10219705Y-14423222D01*
X10219705Y-14423222D02*
X10200658Y-14413698D01*
X10362563Y-14327984D02*
X10381610Y-14327984D01*
X10381610Y-14327984D02*
X10400658Y-14337508D01*
X10400658Y-14337508D02*
X10410182Y-14347031D01*
X10410182Y-14347031D02*
X10419705Y-14366079D01*
X10419705Y-14366079D02*
X10429229Y-14404174D01*
X10429229Y-14404174D02*
X10429229Y-14451793D01*
X10429229Y-14451793D02*
X10419705Y-14489888D01*
X10419705Y-14489888D02*
X10410182Y-14508936D01*
X10410182Y-14508936D02*
X10400658Y-14518460D01*
X10400658Y-14518460D02*
X10381610Y-14527984D01*
X10381610Y-14527984D02*
X10362563Y-14527984D01*
X10362563Y-14527984D02*
X10343515Y-14518460D01*
X10343515Y-14518460D02*
X10333991Y-14508936D01*
X10333991Y-14508936D02*
X10324467Y-14489888D01*
X10324467Y-14489888D02*
X10314944Y-14451793D01*
X10314944Y-14451793D02*
X10314944Y-14404174D01*
X10314944Y-14404174D02*
X10324467Y-14366079D01*
X10324467Y-14366079D02*
X10333991Y-14347031D01*
X10333991Y-14347031D02*
X10343515Y-14337508D01*
X10343515Y-14337508D02*
X10362563Y-14327984D01*
X10553039Y-14327984D02*
X10572086Y-14327984D01*
X10572086Y-14327984D02*
X10591134Y-14337508D01*
X10591134Y-14337508D02*
X10600658Y-14347031D01*
X10600658Y-14347031D02*
X10610182Y-14366079D01*
X10610182Y-14366079D02*
X10619705Y-14404174D01*
X10619705Y-14404174D02*
X10619705Y-14451793D01*
X10619705Y-14451793D02*
X10610182Y-14489888D01*
X10610182Y-14489888D02*
X10600658Y-14508936D01*
X10600658Y-14508936D02*
X10591134Y-14518460D01*
X10591134Y-14518460D02*
X10572086Y-14527984D01*
X10572086Y-14527984D02*
X10553039Y-14527984D01*
X10553039Y-14527984D02*
X10533991Y-14518460D01*
X10533991Y-14518460D02*
X10524467Y-14508936D01*
X10524467Y-14508936D02*
X10514944Y-14489888D01*
X10514944Y-14489888D02*
X10505420Y-14451793D01*
X10505420Y-14451793D02*
X10505420Y-14404174D01*
X10505420Y-14404174D02*
X10514944Y-14366079D01*
X10514944Y-14366079D02*
X10524467Y-14347031D01*
X10524467Y-14347031D02*
X10533991Y-14337508D01*
X10533991Y-14337508D02*
X10553039Y-14327984D01*
X10705420Y-14527984D02*
X10705420Y-14394650D01*
X10705420Y-14413698D02*
X10714944Y-14404174D01*
X10714944Y-14404174D02*
X10733991Y-14394650D01*
X10733991Y-14394650D02*
X10762563Y-14394650D01*
X10762563Y-14394650D02*
X10781610Y-14404174D01*
X10781610Y-14404174D02*
X10791134Y-14423222D01*
X10791134Y-14423222D02*
X10791134Y-14527984D01*
X10791134Y-14423222D02*
X10800658Y-14404174D01*
X10800658Y-14404174D02*
X10819705Y-14394650D01*
X10819705Y-14394650D02*
X10848277Y-14394650D01*
X10848277Y-14394650D02*
X10867325Y-14404174D01*
X10867325Y-14404174D02*
X10876848Y-14423222D01*
X10876848Y-14423222D02*
X10876848Y-14527984D01*
X10972086Y-14527984D02*
X10972086Y-14394650D01*
X10972086Y-14413698D02*
X10981610Y-14404174D01*
X10981610Y-14404174D02*
X11000658Y-14394650D01*
X11000658Y-14394650D02*
X11029229Y-14394650D01*
X11029229Y-14394650D02*
X11048277Y-14404174D01*
X11048277Y-14404174D02*
X11057801Y-14423222D01*
X11057801Y-14423222D02*
X11057801Y-14527984D01*
X11057801Y-14423222D02*
X11067325Y-14404174D01*
X11067325Y-14404174D02*
X11086372Y-14394650D01*
X11086372Y-14394650D02*
X11114944Y-14394650D01*
X11114944Y-14394650D02*
X11133991Y-14404174D01*
X11133991Y-14404174D02*
X11143515Y-14423222D01*
X11143515Y-14423222D02*
X11143515Y-14527984D01*
X11533991Y-14318460D02*
X11362563Y-14575603D01*
X11791134Y-14327984D02*
X11810182Y-14327984D01*
X11810182Y-14327984D02*
X11829229Y-14337508D01*
X11829229Y-14337508D02*
X11838753Y-14347031D01*
X11838753Y-14347031D02*
X11848277Y-14366079D01*
X11848277Y-14366079D02*
X11857801Y-14404174D01*
X11857801Y-14404174D02*
X11857801Y-14451793D01*
X11857801Y-14451793D02*
X11848277Y-14489888D01*
X11848277Y-14489888D02*
X11838753Y-14508936D01*
X11838753Y-14508936D02*
X11829229Y-14518460D01*
X11829229Y-14518460D02*
X11810182Y-14527984D01*
X11810182Y-14527984D02*
X11791134Y-14527984D01*
X11791134Y-14527984D02*
X11772086Y-14518460D01*
X11772086Y-14518460D02*
X11762563Y-14508936D01*
X11762563Y-14508936D02*
X11753039Y-14489888D01*
X11753039Y-14489888D02*
X11743515Y-14451793D01*
X11743515Y-14451793D02*
X11743515Y-14404174D01*
X11743515Y-14404174D02*
X11753039Y-14366079D01*
X11753039Y-14366079D02*
X11762563Y-14347031D01*
X11762563Y-14347031D02*
X11772086Y-14337508D01*
X11772086Y-14337508D02*
X11791134Y-14327984D01*
X11943515Y-14508936D02*
X11953039Y-14518460D01*
X11953039Y-14518460D02*
X11943515Y-14527984D01*
X11943515Y-14527984D02*
X11933991Y-14518460D01*
X11933991Y-14518460D02*
X11943515Y-14508936D01*
X11943515Y-14508936D02*
X11943515Y-14527984D01*
X12076848Y-14327984D02*
X12095896Y-14327984D01*
X12095896Y-14327984D02*
X12114944Y-14337508D01*
X12114944Y-14337508D02*
X12124467Y-14347031D01*
X12124467Y-14347031D02*
X12133991Y-14366079D01*
X12133991Y-14366079D02*
X12143515Y-14404174D01*
X12143515Y-14404174D02*
X12143515Y-14451793D01*
X12143515Y-14451793D02*
X12133991Y-14489888D01*
X12133991Y-14489888D02*
X12124467Y-14508936D01*
X12124467Y-14508936D02*
X12114944Y-14518460D01*
X12114944Y-14518460D02*
X12095896Y-14527984D01*
X12095896Y-14527984D02*
X12076848Y-14527984D01*
X12076848Y-14527984D02*
X12057801Y-14518460D01*
X12057801Y-14518460D02*
X12048277Y-14508936D01*
X12048277Y-14508936D02*
X12038753Y-14489888D01*
X12038753Y-14489888D02*
X12029229Y-14451793D01*
X12029229Y-14451793D02*
X12029229Y-14404174D01*
X12029229Y-14404174D02*
X12038753Y-14366079D01*
X12038753Y-14366079D02*
X12048277Y-14347031D01*
X12048277Y-14347031D02*
X12057801Y-14337508D01*
X12057801Y-14337508D02*
X12076848Y-14327984D01*
X12210182Y-14327984D02*
X12333991Y-14327984D01*
X12333991Y-14327984D02*
X12267325Y-14404174D01*
X12267325Y-14404174D02*
X12295896Y-14404174D01*
X12295896Y-14404174D02*
X12314944Y-14413698D01*
X12314944Y-14413698D02*
X12324467Y-14423222D01*
X12324467Y-14423222D02*
X12333991Y-14442269D01*
X12333991Y-14442269D02*
X12333991Y-14489888D01*
X12333991Y-14489888D02*
X12324467Y-14508936D01*
X12324467Y-14508936D02*
X12314944Y-14518460D01*
X12314944Y-14518460D02*
X12295896Y-14527984D01*
X12295896Y-14527984D02*
X12238753Y-14527984D01*
X12238753Y-14527984D02*
X12219706Y-14518460D01*
X12219706Y-14518460D02*
X12210182Y-14508936D01*
X12524467Y-14527984D02*
X12410182Y-14527984D01*
X12467325Y-14527984D02*
X12467325Y-14327984D01*
X12467325Y-14327984D02*
X12448277Y-14356555D01*
X12448277Y-14356555D02*
X12429229Y-14375603D01*
X12429229Y-14375603D02*
X12410182Y-14385127D01*
X12705420Y-14327984D02*
X12610182Y-14327984D01*
X12610182Y-14327984D02*
X12600658Y-14423222D01*
X12600658Y-14423222D02*
X12610182Y-14413698D01*
X12610182Y-14413698D02*
X12629229Y-14404174D01*
X12629229Y-14404174D02*
X12676848Y-14404174D01*
X12676848Y-14404174D02*
X12695896Y-14413698D01*
X12695896Y-14413698D02*
X12705420Y-14423222D01*
X12705420Y-14423222D02*
X12714944Y-14442269D01*
X12714944Y-14442269D02*
X12714944Y-14489888D01*
X12714944Y-14489888D02*
X12705420Y-14508936D01*
X12705420Y-14508936D02*
X12695896Y-14518460D01*
X12695896Y-14518460D02*
X12676848Y-14527984D01*
X12676848Y-14527984D02*
X12629229Y-14527984D01*
X12629229Y-14527984D02*
X12610182Y-14518460D01*
X12610182Y-14518460D02*
X12600658Y-14508936D01*
X12791134Y-14327984D02*
X12791134Y-14366079D01*
X12867325Y-14327984D02*
X12867325Y-14366079D01*
X13162563Y-14604174D02*
X13153039Y-14594650D01*
X13153039Y-14594650D02*
X13133991Y-14566079D01*
X13133991Y-14566079D02*
X13124468Y-14547031D01*
X13124468Y-14547031D02*
X13114944Y-14518460D01*
X13114944Y-14518460D02*
X13105420Y-14470841D01*
X13105420Y-14470841D02*
X13105420Y-14432746D01*
X13105420Y-14432746D02*
X13114944Y-14385127D01*
X13114944Y-14385127D02*
X13124468Y-14356555D01*
X13124468Y-14356555D02*
X13133991Y-14337508D01*
X13133991Y-14337508D02*
X13153039Y-14308936D01*
X13153039Y-14308936D02*
X13162563Y-14299412D01*
X13324468Y-14327984D02*
X13286372Y-14327984D01*
X13286372Y-14327984D02*
X13267325Y-14337508D01*
X13267325Y-14337508D02*
X13257801Y-14347031D01*
X13257801Y-14347031D02*
X13238753Y-14375603D01*
X13238753Y-14375603D02*
X13229229Y-14413698D01*
X13229229Y-14413698D02*
X13229229Y-14489888D01*
X13229229Y-14489888D02*
X13238753Y-14508936D01*
X13238753Y-14508936D02*
X13248277Y-14518460D01*
X13248277Y-14518460D02*
X13267325Y-14527984D01*
X13267325Y-14527984D02*
X13305420Y-14527984D01*
X13305420Y-14527984D02*
X13324468Y-14518460D01*
X13324468Y-14518460D02*
X13333991Y-14508936D01*
X13333991Y-14508936D02*
X13343515Y-14489888D01*
X13343515Y-14489888D02*
X13343515Y-14442269D01*
X13343515Y-14442269D02*
X13333991Y-14423222D01*
X13333991Y-14423222D02*
X13324468Y-14413698D01*
X13324468Y-14413698D02*
X13305420Y-14404174D01*
X13305420Y-14404174D02*
X13267325Y-14404174D01*
X13267325Y-14404174D02*
X13248277Y-14413698D01*
X13248277Y-14413698D02*
X13238753Y-14423222D01*
X13238753Y-14423222D02*
X13229229Y-14442269D01*
X13514944Y-14327984D02*
X13476848Y-14327984D01*
X13476848Y-14327984D02*
X13457801Y-14337508D01*
X13457801Y-14337508D02*
X13448277Y-14347031D01*
X13448277Y-14347031D02*
X13429229Y-14375603D01*
X13429229Y-14375603D02*
X13419706Y-14413698D01*
X13419706Y-14413698D02*
X13419706Y-14489888D01*
X13419706Y-14489888D02*
X13429229Y-14508936D01*
X13429229Y-14508936D02*
X13438753Y-14518460D01*
X13438753Y-14518460D02*
X13457801Y-14527984D01*
X13457801Y-14527984D02*
X13495896Y-14527984D01*
X13495896Y-14527984D02*
X13514944Y-14518460D01*
X13514944Y-14518460D02*
X13524468Y-14508936D01*
X13524468Y-14508936D02*
X13533991Y-14489888D01*
X13533991Y-14489888D02*
X13533991Y-14442269D01*
X13533991Y-14442269D02*
X13524468Y-14423222D01*
X13524468Y-14423222D02*
X13514944Y-14413698D01*
X13514944Y-14413698D02*
X13495896Y-14404174D01*
X13495896Y-14404174D02*
X13457801Y-14404174D01*
X13457801Y-14404174D02*
X13438753Y-14413698D01*
X13438753Y-14413698D02*
X13429229Y-14423222D01*
X13429229Y-14423222D02*
X13419706Y-14442269D01*
X13772087Y-14527984D02*
X13772087Y-14327984D01*
X13857801Y-14527984D02*
X13857801Y-14423222D01*
X13857801Y-14423222D02*
X13848277Y-14404174D01*
X13848277Y-14404174D02*
X13829230Y-14394650D01*
X13829230Y-14394650D02*
X13800658Y-14394650D01*
X13800658Y-14394650D02*
X13781610Y-14404174D01*
X13781610Y-14404174D02*
X13772087Y-14413698D01*
X13981610Y-14527984D02*
X13962563Y-14518460D01*
X13962563Y-14518460D02*
X13953039Y-14508936D01*
X13953039Y-14508936D02*
X13943515Y-14489888D01*
X13943515Y-14489888D02*
X13943515Y-14432746D01*
X13943515Y-14432746D02*
X13953039Y-14413698D01*
X13953039Y-14413698D02*
X13962563Y-14404174D01*
X13962563Y-14404174D02*
X13981610Y-14394650D01*
X13981610Y-14394650D02*
X14010182Y-14394650D01*
X14010182Y-14394650D02*
X14029230Y-14404174D01*
X14029230Y-14404174D02*
X14038753Y-14413698D01*
X14038753Y-14413698D02*
X14048277Y-14432746D01*
X14048277Y-14432746D02*
X14048277Y-14489888D01*
X14048277Y-14489888D02*
X14038753Y-14508936D01*
X14038753Y-14508936D02*
X14029230Y-14518460D01*
X14029230Y-14518460D02*
X14010182Y-14527984D01*
X14010182Y-14527984D02*
X13981610Y-14527984D01*
X14162563Y-14527984D02*
X14143515Y-14518460D01*
X14143515Y-14518460D02*
X14133991Y-14499412D01*
X14133991Y-14499412D02*
X14133991Y-14327984D01*
X14314944Y-14518460D02*
X14295896Y-14527984D01*
X14295896Y-14527984D02*
X14257801Y-14527984D01*
X14257801Y-14527984D02*
X14238753Y-14518460D01*
X14238753Y-14518460D02*
X14229230Y-14499412D01*
X14229230Y-14499412D02*
X14229230Y-14423222D01*
X14229230Y-14423222D02*
X14238753Y-14404174D01*
X14238753Y-14404174D02*
X14257801Y-14394650D01*
X14257801Y-14394650D02*
X14295896Y-14394650D01*
X14295896Y-14394650D02*
X14314944Y-14404174D01*
X14314944Y-14404174D02*
X14324468Y-14423222D01*
X14324468Y-14423222D02*
X14324468Y-14442269D01*
X14324468Y-14442269D02*
X14229230Y-14461317D01*
X14400658Y-14518460D02*
X14419706Y-14527984D01*
X14419706Y-14527984D02*
X14457801Y-14527984D01*
X14457801Y-14527984D02*
X14476849Y-14518460D01*
X14476849Y-14518460D02*
X14486372Y-14499412D01*
X14486372Y-14499412D02*
X14486372Y-14489888D01*
X14486372Y-14489888D02*
X14476849Y-14470841D01*
X14476849Y-14470841D02*
X14457801Y-14461317D01*
X14457801Y-14461317D02*
X14429230Y-14461317D01*
X14429230Y-14461317D02*
X14410182Y-14451793D01*
X14410182Y-14451793D02*
X14400658Y-14432746D01*
X14400658Y-14432746D02*
X14400658Y-14423222D01*
X14400658Y-14423222D02*
X14410182Y-14404174D01*
X14410182Y-14404174D02*
X14429230Y-14394650D01*
X14429230Y-14394650D02*
X14457801Y-14394650D01*
X14457801Y-14394650D02*
X14476849Y-14404174D01*
X14553039Y-14604174D02*
X14562563Y-14594650D01*
X14562563Y-14594650D02*
X14581611Y-14566079D01*
X14581611Y-14566079D02*
X14591134Y-14547031D01*
X14591134Y-14547031D02*
X14600658Y-14518460D01*
X14600658Y-14518460D02*
X14610182Y-14470841D01*
X14610182Y-14470841D02*
X14610182Y-14432746D01*
X14610182Y-14432746D02*
X14600658Y-14385127D01*
X14600658Y-14385127D02*
X14591134Y-14356555D01*
X14591134Y-14356555D02*
X14581611Y-14337508D01*
X14581611Y-14337508D02*
X14562563Y-14308936D01*
X14562563Y-14308936D02*
X14553039Y-14299412D01*
D12*
X9540000Y-14653000D02*
X9540000Y-14748000D01*
X9492500Y-14700500D02*
X9587500Y-14700500D01*
D11*
X9886372Y-14591984D02*
X9905420Y-14591984D01*
X9905420Y-14591984D02*
X9924467Y-14601508D01*
X9924467Y-14601508D02*
X9933991Y-14611031D01*
X9933991Y-14611031D02*
X9943515Y-14630079D01*
X9943515Y-14630079D02*
X9953039Y-14668174D01*
X9953039Y-14668174D02*
X9953039Y-14715793D01*
X9953039Y-14715793D02*
X9943515Y-14753888D01*
X9943515Y-14753888D02*
X9933991Y-14772936D01*
X9933991Y-14772936D02*
X9924467Y-14782460D01*
X9924467Y-14782460D02*
X9905420Y-14791984D01*
X9905420Y-14791984D02*
X9886372Y-14791984D01*
X9886372Y-14791984D02*
X9867324Y-14782460D01*
X9867324Y-14782460D02*
X9857801Y-14772936D01*
X9857801Y-14772936D02*
X9848277Y-14753888D01*
X9848277Y-14753888D02*
X9838753Y-14715793D01*
X9838753Y-14715793D02*
X9838753Y-14668174D01*
X9838753Y-14668174D02*
X9848277Y-14630079D01*
X9848277Y-14630079D02*
X9857801Y-14611031D01*
X9857801Y-14611031D02*
X9867324Y-14601508D01*
X9867324Y-14601508D02*
X9886372Y-14591984D01*
X10038753Y-14772936D02*
X10048277Y-14782460D01*
X10048277Y-14782460D02*
X10038753Y-14791984D01*
X10038753Y-14791984D02*
X10029229Y-14782460D01*
X10029229Y-14782460D02*
X10038753Y-14772936D01*
X10038753Y-14772936D02*
X10038753Y-14791984D01*
X10143515Y-14791984D02*
X10181610Y-14791984D01*
X10181610Y-14791984D02*
X10200658Y-14782460D01*
X10200658Y-14782460D02*
X10210182Y-14772936D01*
X10210182Y-14772936D02*
X10229229Y-14744365D01*
X10229229Y-14744365D02*
X10238753Y-14706269D01*
X10238753Y-14706269D02*
X10238753Y-14630079D01*
X10238753Y-14630079D02*
X10229229Y-14611031D01*
X10229229Y-14611031D02*
X10219705Y-14601508D01*
X10219705Y-14601508D02*
X10200658Y-14591984D01*
X10200658Y-14591984D02*
X10162563Y-14591984D01*
X10162563Y-14591984D02*
X10143515Y-14601508D01*
X10143515Y-14601508D02*
X10133991Y-14611031D01*
X10133991Y-14611031D02*
X10124467Y-14630079D01*
X10124467Y-14630079D02*
X10124467Y-14677698D01*
X10124467Y-14677698D02*
X10133991Y-14696746D01*
X10133991Y-14696746D02*
X10143515Y-14706269D01*
X10143515Y-14706269D02*
X10162563Y-14715793D01*
X10162563Y-14715793D02*
X10200658Y-14715793D01*
X10200658Y-14715793D02*
X10219705Y-14706269D01*
X10219705Y-14706269D02*
X10229229Y-14696746D01*
X10229229Y-14696746D02*
X10238753Y-14677698D01*
X10419705Y-14591984D02*
X10324467Y-14591984D01*
X10324467Y-14591984D02*
X10314944Y-14687222D01*
X10314944Y-14687222D02*
X10324467Y-14677698D01*
X10324467Y-14677698D02*
X10343515Y-14668174D01*
X10343515Y-14668174D02*
X10391134Y-14668174D01*
X10391134Y-14668174D02*
X10410182Y-14677698D01*
X10410182Y-14677698D02*
X10419705Y-14687222D01*
X10419705Y-14687222D02*
X10429229Y-14706269D01*
X10429229Y-14706269D02*
X10429229Y-14753888D01*
X10429229Y-14753888D02*
X10419705Y-14772936D01*
X10419705Y-14772936D02*
X10410182Y-14782460D01*
X10410182Y-14782460D02*
X10391134Y-14791984D01*
X10391134Y-14791984D02*
X10343515Y-14791984D01*
X10343515Y-14791984D02*
X10324467Y-14782460D01*
X10324467Y-14782460D02*
X10314944Y-14772936D01*
X10553039Y-14591984D02*
X10572086Y-14591984D01*
X10572086Y-14591984D02*
X10591134Y-14601508D01*
X10591134Y-14601508D02*
X10600658Y-14611031D01*
X10600658Y-14611031D02*
X10610182Y-14630079D01*
X10610182Y-14630079D02*
X10619705Y-14668174D01*
X10619705Y-14668174D02*
X10619705Y-14715793D01*
X10619705Y-14715793D02*
X10610182Y-14753888D01*
X10610182Y-14753888D02*
X10600658Y-14772936D01*
X10600658Y-14772936D02*
X10591134Y-14782460D01*
X10591134Y-14782460D02*
X10572086Y-14791984D01*
X10572086Y-14791984D02*
X10553039Y-14791984D01*
X10553039Y-14791984D02*
X10533991Y-14782460D01*
X10533991Y-14782460D02*
X10524467Y-14772936D01*
X10524467Y-14772936D02*
X10514944Y-14753888D01*
X10514944Y-14753888D02*
X10505420Y-14715793D01*
X10505420Y-14715793D02*
X10505420Y-14668174D01*
X10505420Y-14668174D02*
X10514944Y-14630079D01*
X10514944Y-14630079D02*
X10524467Y-14611031D01*
X10524467Y-14611031D02*
X10533991Y-14601508D01*
X10533991Y-14601508D02*
X10553039Y-14591984D01*
X10705420Y-14791984D02*
X10705420Y-14658650D01*
X10705420Y-14677698D02*
X10714944Y-14668174D01*
X10714944Y-14668174D02*
X10733991Y-14658650D01*
X10733991Y-14658650D02*
X10762563Y-14658650D01*
X10762563Y-14658650D02*
X10781610Y-14668174D01*
X10781610Y-14668174D02*
X10791134Y-14687222D01*
X10791134Y-14687222D02*
X10791134Y-14791984D01*
X10791134Y-14687222D02*
X10800658Y-14668174D01*
X10800658Y-14668174D02*
X10819705Y-14658650D01*
X10819705Y-14658650D02*
X10848277Y-14658650D01*
X10848277Y-14658650D02*
X10867325Y-14668174D01*
X10867325Y-14668174D02*
X10876848Y-14687222D01*
X10876848Y-14687222D02*
X10876848Y-14791984D01*
X10972086Y-14791984D02*
X10972086Y-14658650D01*
X10972086Y-14677698D02*
X10981610Y-14668174D01*
X10981610Y-14668174D02*
X11000658Y-14658650D01*
X11000658Y-14658650D02*
X11029229Y-14658650D01*
X11029229Y-14658650D02*
X11048277Y-14668174D01*
X11048277Y-14668174D02*
X11057801Y-14687222D01*
X11057801Y-14687222D02*
X11057801Y-14791984D01*
X11057801Y-14687222D02*
X11067325Y-14668174D01*
X11067325Y-14668174D02*
X11086372Y-14658650D01*
X11086372Y-14658650D02*
X11114944Y-14658650D01*
X11114944Y-14658650D02*
X11133991Y-14668174D01*
X11133991Y-14668174D02*
X11143515Y-14687222D01*
X11143515Y-14687222D02*
X11143515Y-14791984D01*
X11533991Y-14582460D02*
X11362563Y-14839603D01*
X11791134Y-14591984D02*
X11810182Y-14591984D01*
X11810182Y-14591984D02*
X11829229Y-14601508D01*
X11829229Y-14601508D02*
X11838753Y-14611031D01*
X11838753Y-14611031D02*
X11848277Y-14630079D01*
X11848277Y-14630079D02*
X11857801Y-14668174D01*
X11857801Y-14668174D02*
X11857801Y-14715793D01*
X11857801Y-14715793D02*
X11848277Y-14753888D01*
X11848277Y-14753888D02*
X11838753Y-14772936D01*
X11838753Y-14772936D02*
X11829229Y-14782460D01*
X11829229Y-14782460D02*
X11810182Y-14791984D01*
X11810182Y-14791984D02*
X11791134Y-14791984D01*
X11791134Y-14791984D02*
X11772086Y-14782460D01*
X11772086Y-14782460D02*
X11762563Y-14772936D01*
X11762563Y-14772936D02*
X11753039Y-14753888D01*
X11753039Y-14753888D02*
X11743515Y-14715793D01*
X11743515Y-14715793D02*
X11743515Y-14668174D01*
X11743515Y-14668174D02*
X11753039Y-14630079D01*
X11753039Y-14630079D02*
X11762563Y-14611031D01*
X11762563Y-14611031D02*
X11772086Y-14601508D01*
X11772086Y-14601508D02*
X11791134Y-14591984D01*
X11943515Y-14772936D02*
X11953039Y-14782460D01*
X11953039Y-14782460D02*
X11943515Y-14791984D01*
X11943515Y-14791984D02*
X11933991Y-14782460D01*
X11933991Y-14782460D02*
X11943515Y-14772936D01*
X11943515Y-14772936D02*
X11943515Y-14791984D01*
X12076848Y-14591984D02*
X12095896Y-14591984D01*
X12095896Y-14591984D02*
X12114944Y-14601508D01*
X12114944Y-14601508D02*
X12124467Y-14611031D01*
X12124467Y-14611031D02*
X12133991Y-14630079D01*
X12133991Y-14630079D02*
X12143515Y-14668174D01*
X12143515Y-14668174D02*
X12143515Y-14715793D01*
X12143515Y-14715793D02*
X12133991Y-14753888D01*
X12133991Y-14753888D02*
X12124467Y-14772936D01*
X12124467Y-14772936D02*
X12114944Y-14782460D01*
X12114944Y-14782460D02*
X12095896Y-14791984D01*
X12095896Y-14791984D02*
X12076848Y-14791984D01*
X12076848Y-14791984D02*
X12057801Y-14782460D01*
X12057801Y-14782460D02*
X12048277Y-14772936D01*
X12048277Y-14772936D02*
X12038753Y-14753888D01*
X12038753Y-14753888D02*
X12029229Y-14715793D01*
X12029229Y-14715793D02*
X12029229Y-14668174D01*
X12029229Y-14668174D02*
X12038753Y-14630079D01*
X12038753Y-14630079D02*
X12048277Y-14611031D01*
X12048277Y-14611031D02*
X12057801Y-14601508D01*
X12057801Y-14601508D02*
X12076848Y-14591984D01*
X12210182Y-14591984D02*
X12333991Y-14591984D01*
X12333991Y-14591984D02*
X12267325Y-14668174D01*
X12267325Y-14668174D02*
X12295896Y-14668174D01*
X12295896Y-14668174D02*
X12314944Y-14677698D01*
X12314944Y-14677698D02*
X12324467Y-14687222D01*
X12324467Y-14687222D02*
X12333991Y-14706269D01*
X12333991Y-14706269D02*
X12333991Y-14753888D01*
X12333991Y-14753888D02*
X12324467Y-14772936D01*
X12324467Y-14772936D02*
X12314944Y-14782460D01*
X12314944Y-14782460D02*
X12295896Y-14791984D01*
X12295896Y-14791984D02*
X12238753Y-14791984D01*
X12238753Y-14791984D02*
X12219706Y-14782460D01*
X12219706Y-14782460D02*
X12210182Y-14772936D01*
X12400658Y-14591984D02*
X12533991Y-14591984D01*
X12533991Y-14591984D02*
X12448277Y-14791984D01*
X12695896Y-14658650D02*
X12695896Y-14791984D01*
X12648277Y-14582460D02*
X12600658Y-14725317D01*
X12600658Y-14725317D02*
X12724467Y-14725317D01*
X12791134Y-14591984D02*
X12791134Y-14630079D01*
X12867325Y-14591984D02*
X12867325Y-14630079D01*
X13162563Y-14868174D02*
X13153039Y-14858650D01*
X13153039Y-14858650D02*
X13133991Y-14830079D01*
X13133991Y-14830079D02*
X13124468Y-14811031D01*
X13124468Y-14811031D02*
X13114944Y-14782460D01*
X13114944Y-14782460D02*
X13105420Y-14734841D01*
X13105420Y-14734841D02*
X13105420Y-14696746D01*
X13105420Y-14696746D02*
X13114944Y-14649127D01*
X13114944Y-14649127D02*
X13124468Y-14620555D01*
X13124468Y-14620555D02*
X13133991Y-14601508D01*
X13133991Y-14601508D02*
X13153039Y-14572936D01*
X13153039Y-14572936D02*
X13162563Y-14563412D01*
X13324468Y-14658650D02*
X13324468Y-14791984D01*
X13276848Y-14582460D02*
X13229229Y-14725317D01*
X13229229Y-14725317D02*
X13353039Y-14725317D01*
X13581610Y-14791984D02*
X13581610Y-14591984D01*
X13667325Y-14791984D02*
X13667325Y-14687222D01*
X13667325Y-14687222D02*
X13657801Y-14668174D01*
X13657801Y-14668174D02*
X13638753Y-14658650D01*
X13638753Y-14658650D02*
X13610182Y-14658650D01*
X13610182Y-14658650D02*
X13591134Y-14668174D01*
X13591134Y-14668174D02*
X13581610Y-14677698D01*
X13791134Y-14791984D02*
X13772087Y-14782460D01*
X13772087Y-14782460D02*
X13762563Y-14772936D01*
X13762563Y-14772936D02*
X13753039Y-14753888D01*
X13753039Y-14753888D02*
X13753039Y-14696746D01*
X13753039Y-14696746D02*
X13762563Y-14677698D01*
X13762563Y-14677698D02*
X13772087Y-14668174D01*
X13772087Y-14668174D02*
X13791134Y-14658650D01*
X13791134Y-14658650D02*
X13819706Y-14658650D01*
X13819706Y-14658650D02*
X13838753Y-14668174D01*
X13838753Y-14668174D02*
X13848277Y-14677698D01*
X13848277Y-14677698D02*
X13857801Y-14696746D01*
X13857801Y-14696746D02*
X13857801Y-14753888D01*
X13857801Y-14753888D02*
X13848277Y-14772936D01*
X13848277Y-14772936D02*
X13838753Y-14782460D01*
X13838753Y-14782460D02*
X13819706Y-14791984D01*
X13819706Y-14791984D02*
X13791134Y-14791984D01*
X13972087Y-14791984D02*
X13953039Y-14782460D01*
X13953039Y-14782460D02*
X13943515Y-14763412D01*
X13943515Y-14763412D02*
X13943515Y-14591984D01*
X14124468Y-14782460D02*
X14105420Y-14791984D01*
X14105420Y-14791984D02*
X14067325Y-14791984D01*
X14067325Y-14791984D02*
X14048277Y-14782460D01*
X14048277Y-14782460D02*
X14038753Y-14763412D01*
X14038753Y-14763412D02*
X14038753Y-14687222D01*
X14038753Y-14687222D02*
X14048277Y-14668174D01*
X14048277Y-14668174D02*
X14067325Y-14658650D01*
X14067325Y-14658650D02*
X14105420Y-14658650D01*
X14105420Y-14658650D02*
X14124468Y-14668174D01*
X14124468Y-14668174D02*
X14133991Y-14687222D01*
X14133991Y-14687222D02*
X14133991Y-14706269D01*
X14133991Y-14706269D02*
X14038753Y-14725317D01*
X14210182Y-14782460D02*
X14229230Y-14791984D01*
X14229230Y-14791984D02*
X14267325Y-14791984D01*
X14267325Y-14791984D02*
X14286372Y-14782460D01*
X14286372Y-14782460D02*
X14295896Y-14763412D01*
X14295896Y-14763412D02*
X14295896Y-14753888D01*
X14295896Y-14753888D02*
X14286372Y-14734841D01*
X14286372Y-14734841D02*
X14267325Y-14725317D01*
X14267325Y-14725317D02*
X14238753Y-14725317D01*
X14238753Y-14725317D02*
X14219706Y-14715793D01*
X14219706Y-14715793D02*
X14210182Y-14696746D01*
X14210182Y-14696746D02*
X14210182Y-14687222D01*
X14210182Y-14687222D02*
X14219706Y-14668174D01*
X14219706Y-14668174D02*
X14238753Y-14658650D01*
X14238753Y-14658650D02*
X14267325Y-14658650D01*
X14267325Y-14658650D02*
X14286372Y-14668174D01*
X14362563Y-14868174D02*
X14372087Y-14858650D01*
X14372087Y-14858650D02*
X14391134Y-14830079D01*
X14391134Y-14830079D02*
X14400658Y-14811031D01*
X14400658Y-14811031D02*
X14410182Y-14782460D01*
X14410182Y-14782460D02*
X14419706Y-14734841D01*
X14419706Y-14734841D02*
X14419706Y-14696746D01*
X14419706Y-14696746D02*
X14410182Y-14649127D01*
X14410182Y-14649127D02*
X14400658Y-14620555D01*
X14400658Y-14620555D02*
X14391134Y-14601508D01*
X14391134Y-14601508D02*
X14372087Y-14572936D01*
X14372087Y-14572936D02*
X14362563Y-14563412D01*
D12*
X9572856Y-14999856D02*
X9572856Y-14929144D01*
X9502144Y-14929144D01*
X9502144Y-14999856D01*
X9572856Y-14999856D01*
D11*
X9953039Y-15055984D02*
X9838753Y-15055984D01*
X9895896Y-15055984D02*
X9895896Y-14855984D01*
X9895896Y-14855984D02*
X9876848Y-14884555D01*
X9876848Y-14884555D02*
X9857801Y-14903603D01*
X9857801Y-14903603D02*
X9838753Y-14913127D01*
X10038753Y-15036936D02*
X10048277Y-15046460D01*
X10048277Y-15046460D02*
X10038753Y-15055984D01*
X10038753Y-15055984D02*
X10029229Y-15046460D01*
X10029229Y-15046460D02*
X10038753Y-15036936D01*
X10038753Y-15036936D02*
X10038753Y-15055984D01*
X10172086Y-14855984D02*
X10191134Y-14855984D01*
X10191134Y-14855984D02*
X10210182Y-14865508D01*
X10210182Y-14865508D02*
X10219705Y-14875031D01*
X10219705Y-14875031D02*
X10229229Y-14894079D01*
X10229229Y-14894079D02*
X10238753Y-14932174D01*
X10238753Y-14932174D02*
X10238753Y-14979793D01*
X10238753Y-14979793D02*
X10229229Y-15017888D01*
X10229229Y-15017888D02*
X10219705Y-15036936D01*
X10219705Y-15036936D02*
X10210182Y-15046460D01*
X10210182Y-15046460D02*
X10191134Y-15055984D01*
X10191134Y-15055984D02*
X10172086Y-15055984D01*
X10172086Y-15055984D02*
X10153039Y-15046460D01*
X10153039Y-15046460D02*
X10143515Y-15036936D01*
X10143515Y-15036936D02*
X10133991Y-15017888D01*
X10133991Y-15017888D02*
X10124467Y-14979793D01*
X10124467Y-14979793D02*
X10124467Y-14932174D01*
X10124467Y-14932174D02*
X10133991Y-14894079D01*
X10133991Y-14894079D02*
X10143515Y-14875031D01*
X10143515Y-14875031D02*
X10153039Y-14865508D01*
X10153039Y-14865508D02*
X10172086Y-14855984D01*
X10362563Y-14855984D02*
X10381610Y-14855984D01*
X10381610Y-14855984D02*
X10400658Y-14865508D01*
X10400658Y-14865508D02*
X10410182Y-14875031D01*
X10410182Y-14875031D02*
X10419705Y-14894079D01*
X10419705Y-14894079D02*
X10429229Y-14932174D01*
X10429229Y-14932174D02*
X10429229Y-14979793D01*
X10429229Y-14979793D02*
X10419705Y-15017888D01*
X10419705Y-15017888D02*
X10410182Y-15036936D01*
X10410182Y-15036936D02*
X10400658Y-15046460D01*
X10400658Y-15046460D02*
X10381610Y-15055984D01*
X10381610Y-15055984D02*
X10362563Y-15055984D01*
X10362563Y-15055984D02*
X10343515Y-15046460D01*
X10343515Y-15046460D02*
X10333991Y-15036936D01*
X10333991Y-15036936D02*
X10324467Y-15017888D01*
X10324467Y-15017888D02*
X10314944Y-14979793D01*
X10314944Y-14979793D02*
X10314944Y-14932174D01*
X10314944Y-14932174D02*
X10324467Y-14894079D01*
X10324467Y-14894079D02*
X10333991Y-14875031D01*
X10333991Y-14875031D02*
X10343515Y-14865508D01*
X10343515Y-14865508D02*
X10362563Y-14855984D01*
X10553039Y-14855984D02*
X10572086Y-14855984D01*
X10572086Y-14855984D02*
X10591134Y-14865508D01*
X10591134Y-14865508D02*
X10600658Y-14875031D01*
X10600658Y-14875031D02*
X10610182Y-14894079D01*
X10610182Y-14894079D02*
X10619705Y-14932174D01*
X10619705Y-14932174D02*
X10619705Y-14979793D01*
X10619705Y-14979793D02*
X10610182Y-15017888D01*
X10610182Y-15017888D02*
X10600658Y-15036936D01*
X10600658Y-15036936D02*
X10591134Y-15046460D01*
X10591134Y-15046460D02*
X10572086Y-15055984D01*
X10572086Y-15055984D02*
X10553039Y-15055984D01*
X10553039Y-15055984D02*
X10533991Y-15046460D01*
X10533991Y-15046460D02*
X10524467Y-15036936D01*
X10524467Y-15036936D02*
X10514944Y-15017888D01*
X10514944Y-15017888D02*
X10505420Y-14979793D01*
X10505420Y-14979793D02*
X10505420Y-14932174D01*
X10505420Y-14932174D02*
X10514944Y-14894079D01*
X10514944Y-14894079D02*
X10524467Y-14875031D01*
X10524467Y-14875031D02*
X10533991Y-14865508D01*
X10533991Y-14865508D02*
X10553039Y-14855984D01*
X10705420Y-15055984D02*
X10705420Y-14922650D01*
X10705420Y-14941698D02*
X10714944Y-14932174D01*
X10714944Y-14932174D02*
X10733991Y-14922650D01*
X10733991Y-14922650D02*
X10762563Y-14922650D01*
X10762563Y-14922650D02*
X10781610Y-14932174D01*
X10781610Y-14932174D02*
X10791134Y-14951222D01*
X10791134Y-14951222D02*
X10791134Y-15055984D01*
X10791134Y-14951222D02*
X10800658Y-14932174D01*
X10800658Y-14932174D02*
X10819705Y-14922650D01*
X10819705Y-14922650D02*
X10848277Y-14922650D01*
X10848277Y-14922650D02*
X10867325Y-14932174D01*
X10867325Y-14932174D02*
X10876848Y-14951222D01*
X10876848Y-14951222D02*
X10876848Y-15055984D01*
X10972086Y-15055984D02*
X10972086Y-14922650D01*
X10972086Y-14941698D02*
X10981610Y-14932174D01*
X10981610Y-14932174D02*
X11000658Y-14922650D01*
X11000658Y-14922650D02*
X11029229Y-14922650D01*
X11029229Y-14922650D02*
X11048277Y-14932174D01*
X11048277Y-14932174D02*
X11057801Y-14951222D01*
X11057801Y-14951222D02*
X11057801Y-15055984D01*
X11057801Y-14951222D02*
X11067325Y-14932174D01*
X11067325Y-14932174D02*
X11086372Y-14922650D01*
X11086372Y-14922650D02*
X11114944Y-14922650D01*
X11114944Y-14922650D02*
X11133991Y-14932174D01*
X11133991Y-14932174D02*
X11143515Y-14951222D01*
X11143515Y-14951222D02*
X11143515Y-15055984D01*
X11533991Y-14846460D02*
X11362563Y-15103603D01*
X11791134Y-14855984D02*
X11810182Y-14855984D01*
X11810182Y-14855984D02*
X11829229Y-14865508D01*
X11829229Y-14865508D02*
X11838753Y-14875031D01*
X11838753Y-14875031D02*
X11848277Y-14894079D01*
X11848277Y-14894079D02*
X11857801Y-14932174D01*
X11857801Y-14932174D02*
X11857801Y-14979793D01*
X11857801Y-14979793D02*
X11848277Y-15017888D01*
X11848277Y-15017888D02*
X11838753Y-15036936D01*
X11838753Y-15036936D02*
X11829229Y-15046460D01*
X11829229Y-15046460D02*
X11810182Y-15055984D01*
X11810182Y-15055984D02*
X11791134Y-15055984D01*
X11791134Y-15055984D02*
X11772086Y-15046460D01*
X11772086Y-15046460D02*
X11762563Y-15036936D01*
X11762563Y-15036936D02*
X11753039Y-15017888D01*
X11753039Y-15017888D02*
X11743515Y-14979793D01*
X11743515Y-14979793D02*
X11743515Y-14932174D01*
X11743515Y-14932174D02*
X11753039Y-14894079D01*
X11753039Y-14894079D02*
X11762563Y-14875031D01*
X11762563Y-14875031D02*
X11772086Y-14865508D01*
X11772086Y-14865508D02*
X11791134Y-14855984D01*
X11943515Y-15036936D02*
X11953039Y-15046460D01*
X11953039Y-15046460D02*
X11943515Y-15055984D01*
X11943515Y-15055984D02*
X11933991Y-15046460D01*
X11933991Y-15046460D02*
X11943515Y-15036936D01*
X11943515Y-15036936D02*
X11943515Y-15055984D01*
X12076848Y-14855984D02*
X12095896Y-14855984D01*
X12095896Y-14855984D02*
X12114944Y-14865508D01*
X12114944Y-14865508D02*
X12124467Y-14875031D01*
X12124467Y-14875031D02*
X12133991Y-14894079D01*
X12133991Y-14894079D02*
X12143515Y-14932174D01*
X12143515Y-14932174D02*
X12143515Y-14979793D01*
X12143515Y-14979793D02*
X12133991Y-15017888D01*
X12133991Y-15017888D02*
X12124467Y-15036936D01*
X12124467Y-15036936D02*
X12114944Y-15046460D01*
X12114944Y-15046460D02*
X12095896Y-15055984D01*
X12095896Y-15055984D02*
X12076848Y-15055984D01*
X12076848Y-15055984D02*
X12057801Y-15046460D01*
X12057801Y-15046460D02*
X12048277Y-15036936D01*
X12048277Y-15036936D02*
X12038753Y-15017888D01*
X12038753Y-15017888D02*
X12029229Y-14979793D01*
X12029229Y-14979793D02*
X12029229Y-14932174D01*
X12029229Y-14932174D02*
X12038753Y-14894079D01*
X12038753Y-14894079D02*
X12048277Y-14875031D01*
X12048277Y-14875031D02*
X12057801Y-14865508D01*
X12057801Y-14865508D02*
X12076848Y-14855984D01*
X12210182Y-14855984D02*
X12333991Y-14855984D01*
X12333991Y-14855984D02*
X12267325Y-14932174D01*
X12267325Y-14932174D02*
X12295896Y-14932174D01*
X12295896Y-14932174D02*
X12314944Y-14941698D01*
X12314944Y-14941698D02*
X12324467Y-14951222D01*
X12324467Y-14951222D02*
X12333991Y-14970269D01*
X12333991Y-14970269D02*
X12333991Y-15017888D01*
X12333991Y-15017888D02*
X12324467Y-15036936D01*
X12324467Y-15036936D02*
X12314944Y-15046460D01*
X12314944Y-15046460D02*
X12295896Y-15055984D01*
X12295896Y-15055984D02*
X12238753Y-15055984D01*
X12238753Y-15055984D02*
X12219706Y-15046460D01*
X12219706Y-15046460D02*
X12210182Y-15036936D01*
X12429229Y-15055984D02*
X12467325Y-15055984D01*
X12467325Y-15055984D02*
X12486372Y-15046460D01*
X12486372Y-15046460D02*
X12495896Y-15036936D01*
X12495896Y-15036936D02*
X12514944Y-15008365D01*
X12514944Y-15008365D02*
X12524467Y-14970269D01*
X12524467Y-14970269D02*
X12524467Y-14894079D01*
X12524467Y-14894079D02*
X12514944Y-14875031D01*
X12514944Y-14875031D02*
X12505420Y-14865508D01*
X12505420Y-14865508D02*
X12486372Y-14855984D01*
X12486372Y-14855984D02*
X12448277Y-14855984D01*
X12448277Y-14855984D02*
X12429229Y-14865508D01*
X12429229Y-14865508D02*
X12419706Y-14875031D01*
X12419706Y-14875031D02*
X12410182Y-14894079D01*
X12410182Y-14894079D02*
X12410182Y-14941698D01*
X12410182Y-14941698D02*
X12419706Y-14960746D01*
X12419706Y-14960746D02*
X12429229Y-14970269D01*
X12429229Y-14970269D02*
X12448277Y-14979793D01*
X12448277Y-14979793D02*
X12486372Y-14979793D01*
X12486372Y-14979793D02*
X12505420Y-14970269D01*
X12505420Y-14970269D02*
X12514944Y-14960746D01*
X12514944Y-14960746D02*
X12524467Y-14941698D01*
X12695896Y-14922650D02*
X12695896Y-15055984D01*
X12648277Y-14846460D02*
X12600658Y-14989317D01*
X12600658Y-14989317D02*
X12724467Y-14989317D01*
X12791134Y-14855984D02*
X12791134Y-14894079D01*
X12867325Y-14855984D02*
X12867325Y-14894079D01*
X13162563Y-15132174D02*
X13153039Y-15122650D01*
X13153039Y-15122650D02*
X13133991Y-15094079D01*
X13133991Y-15094079D02*
X13124468Y-15075031D01*
X13124468Y-15075031D02*
X13114944Y-15046460D01*
X13114944Y-15046460D02*
X13105420Y-14998841D01*
X13105420Y-14998841D02*
X13105420Y-14960746D01*
X13105420Y-14960746D02*
X13114944Y-14913127D01*
X13114944Y-14913127D02*
X13124468Y-14884555D01*
X13124468Y-14884555D02*
X13133991Y-14865508D01*
X13133991Y-14865508D02*
X13153039Y-14836936D01*
X13153039Y-14836936D02*
X13162563Y-14827412D01*
X13229229Y-14875031D02*
X13238753Y-14865508D01*
X13238753Y-14865508D02*
X13257801Y-14855984D01*
X13257801Y-14855984D02*
X13305420Y-14855984D01*
X13305420Y-14855984D02*
X13324468Y-14865508D01*
X13324468Y-14865508D02*
X13333991Y-14875031D01*
X13333991Y-14875031D02*
X13343515Y-14894079D01*
X13343515Y-14894079D02*
X13343515Y-14913127D01*
X13343515Y-14913127D02*
X13333991Y-14941698D01*
X13333991Y-14941698D02*
X13219706Y-15055984D01*
X13219706Y-15055984D02*
X13343515Y-15055984D01*
X13467325Y-14855984D02*
X13486372Y-14855984D01*
X13486372Y-14855984D02*
X13505420Y-14865508D01*
X13505420Y-14865508D02*
X13514944Y-14875031D01*
X13514944Y-14875031D02*
X13524468Y-14894079D01*
X13524468Y-14894079D02*
X13533991Y-14932174D01*
X13533991Y-14932174D02*
X13533991Y-14979793D01*
X13533991Y-14979793D02*
X13524468Y-15017888D01*
X13524468Y-15017888D02*
X13514944Y-15036936D01*
X13514944Y-15036936D02*
X13505420Y-15046460D01*
X13505420Y-15046460D02*
X13486372Y-15055984D01*
X13486372Y-15055984D02*
X13467325Y-15055984D01*
X13467325Y-15055984D02*
X13448277Y-15046460D01*
X13448277Y-15046460D02*
X13438753Y-15036936D01*
X13438753Y-15036936D02*
X13429229Y-15017888D01*
X13429229Y-15017888D02*
X13419706Y-14979793D01*
X13419706Y-14979793D02*
X13419706Y-14932174D01*
X13419706Y-14932174D02*
X13429229Y-14894079D01*
X13429229Y-14894079D02*
X13438753Y-14875031D01*
X13438753Y-14875031D02*
X13448277Y-14865508D01*
X13448277Y-14865508D02*
X13467325Y-14855984D01*
X13772087Y-15055984D02*
X13772087Y-14855984D01*
X13857801Y-15055984D02*
X13857801Y-14951222D01*
X13857801Y-14951222D02*
X13848277Y-14932174D01*
X13848277Y-14932174D02*
X13829230Y-14922650D01*
X13829230Y-14922650D02*
X13800658Y-14922650D01*
X13800658Y-14922650D02*
X13781610Y-14932174D01*
X13781610Y-14932174D02*
X13772087Y-14941698D01*
X13981610Y-15055984D02*
X13962563Y-15046460D01*
X13962563Y-15046460D02*
X13953039Y-15036936D01*
X13953039Y-15036936D02*
X13943515Y-15017888D01*
X13943515Y-15017888D02*
X13943515Y-14960746D01*
X13943515Y-14960746D02*
X13953039Y-14941698D01*
X13953039Y-14941698D02*
X13962563Y-14932174D01*
X13962563Y-14932174D02*
X13981610Y-14922650D01*
X13981610Y-14922650D02*
X14010182Y-14922650D01*
X14010182Y-14922650D02*
X14029230Y-14932174D01*
X14029230Y-14932174D02*
X14038753Y-14941698D01*
X14038753Y-14941698D02*
X14048277Y-14960746D01*
X14048277Y-14960746D02*
X14048277Y-15017888D01*
X14048277Y-15017888D02*
X14038753Y-15036936D01*
X14038753Y-15036936D02*
X14029230Y-15046460D01*
X14029230Y-15046460D02*
X14010182Y-15055984D01*
X14010182Y-15055984D02*
X13981610Y-15055984D01*
X14162563Y-15055984D02*
X14143515Y-15046460D01*
X14143515Y-15046460D02*
X14133991Y-15027412D01*
X14133991Y-15027412D02*
X14133991Y-14855984D01*
X14314944Y-15046460D02*
X14295896Y-15055984D01*
X14295896Y-15055984D02*
X14257801Y-15055984D01*
X14257801Y-15055984D02*
X14238753Y-15046460D01*
X14238753Y-15046460D02*
X14229230Y-15027412D01*
X14229230Y-15027412D02*
X14229230Y-14951222D01*
X14229230Y-14951222D02*
X14238753Y-14932174D01*
X14238753Y-14932174D02*
X14257801Y-14922650D01*
X14257801Y-14922650D02*
X14295896Y-14922650D01*
X14295896Y-14922650D02*
X14314944Y-14932174D01*
X14314944Y-14932174D02*
X14324468Y-14951222D01*
X14324468Y-14951222D02*
X14324468Y-14970269D01*
X14324468Y-14970269D02*
X14229230Y-14989317D01*
X14400658Y-15046460D02*
X14419706Y-15055984D01*
X14419706Y-15055984D02*
X14457801Y-15055984D01*
X14457801Y-15055984D02*
X14476849Y-15046460D01*
X14476849Y-15046460D02*
X14486372Y-15027412D01*
X14486372Y-15027412D02*
X14486372Y-15017888D01*
X14486372Y-15017888D02*
X14476849Y-14998841D01*
X14476849Y-14998841D02*
X14457801Y-14989317D01*
X14457801Y-14989317D02*
X14429230Y-14989317D01*
X14429230Y-14989317D02*
X14410182Y-14979793D01*
X14410182Y-14979793D02*
X14400658Y-14960746D01*
X14400658Y-14960746D02*
X14400658Y-14951222D01*
X14400658Y-14951222D02*
X14410182Y-14932174D01*
X14410182Y-14932174D02*
X14429230Y-14922650D01*
X14429230Y-14922650D02*
X14457801Y-14922650D01*
X14457801Y-14922650D02*
X14476849Y-14932174D01*
X14553039Y-15132174D02*
X14562563Y-15122650D01*
X14562563Y-15122650D02*
X14581611Y-15094079D01*
X14581611Y-15094079D02*
X14591134Y-15075031D01*
X14591134Y-15075031D02*
X14600658Y-15046460D01*
X14600658Y-15046460D02*
X14610182Y-14998841D01*
X14610182Y-14998841D02*
X14610182Y-14960746D01*
X14610182Y-14960746D02*
X14600658Y-14913127D01*
X14600658Y-14913127D02*
X14591134Y-14884555D01*
X14591134Y-14884555D02*
X14581611Y-14865508D01*
X14581611Y-14865508D02*
X14562563Y-14836936D01*
X14562563Y-14836936D02*
X14553039Y-14827412D01*
D13*
X9532500Y-15283500D02*
X9587500Y-15228500D01*
X9532500Y-15173500D01*
X9477500Y-15228500D01*
X9532500Y-15283500D01*
D11*
X9953039Y-15319984D02*
X9838753Y-15319984D01*
X9895896Y-15319984D02*
X9895896Y-15119984D01*
X9895896Y-15119984D02*
X9876848Y-15148555D01*
X9876848Y-15148555D02*
X9857801Y-15167603D01*
X9857801Y-15167603D02*
X9838753Y-15177127D01*
X10038753Y-15300936D02*
X10048277Y-15310460D01*
X10048277Y-15310460D02*
X10038753Y-15319984D01*
X10038753Y-15319984D02*
X10029229Y-15310460D01*
X10029229Y-15310460D02*
X10038753Y-15300936D01*
X10038753Y-15300936D02*
X10038753Y-15319984D01*
X10238753Y-15319984D02*
X10124467Y-15319984D01*
X10181610Y-15319984D02*
X10181610Y-15119984D01*
X10181610Y-15119984D02*
X10162563Y-15148555D01*
X10162563Y-15148555D02*
X10143515Y-15167603D01*
X10143515Y-15167603D02*
X10124467Y-15177127D01*
X10362563Y-15119984D02*
X10381610Y-15119984D01*
X10381610Y-15119984D02*
X10400658Y-15129508D01*
X10400658Y-15129508D02*
X10410182Y-15139031D01*
X10410182Y-15139031D02*
X10419705Y-15158079D01*
X10419705Y-15158079D02*
X10429229Y-15196174D01*
X10429229Y-15196174D02*
X10429229Y-15243793D01*
X10429229Y-15243793D02*
X10419705Y-15281888D01*
X10419705Y-15281888D02*
X10410182Y-15300936D01*
X10410182Y-15300936D02*
X10400658Y-15310460D01*
X10400658Y-15310460D02*
X10381610Y-15319984D01*
X10381610Y-15319984D02*
X10362563Y-15319984D01*
X10362563Y-15319984D02*
X10343515Y-15310460D01*
X10343515Y-15310460D02*
X10333991Y-15300936D01*
X10333991Y-15300936D02*
X10324467Y-15281888D01*
X10324467Y-15281888D02*
X10314944Y-15243793D01*
X10314944Y-15243793D02*
X10314944Y-15196174D01*
X10314944Y-15196174D02*
X10324467Y-15158079D01*
X10324467Y-15158079D02*
X10333991Y-15139031D01*
X10333991Y-15139031D02*
X10343515Y-15129508D01*
X10343515Y-15129508D02*
X10362563Y-15119984D01*
X10553039Y-15119984D02*
X10572086Y-15119984D01*
X10572086Y-15119984D02*
X10591134Y-15129508D01*
X10591134Y-15129508D02*
X10600658Y-15139031D01*
X10600658Y-15139031D02*
X10610182Y-15158079D01*
X10610182Y-15158079D02*
X10619705Y-15196174D01*
X10619705Y-15196174D02*
X10619705Y-15243793D01*
X10619705Y-15243793D02*
X10610182Y-15281888D01*
X10610182Y-15281888D02*
X10600658Y-15300936D01*
X10600658Y-15300936D02*
X10591134Y-15310460D01*
X10591134Y-15310460D02*
X10572086Y-15319984D01*
X10572086Y-15319984D02*
X10553039Y-15319984D01*
X10553039Y-15319984D02*
X10533991Y-15310460D01*
X10533991Y-15310460D02*
X10524467Y-15300936D01*
X10524467Y-15300936D02*
X10514944Y-15281888D01*
X10514944Y-15281888D02*
X10505420Y-15243793D01*
X10505420Y-15243793D02*
X10505420Y-15196174D01*
X10505420Y-15196174D02*
X10514944Y-15158079D01*
X10514944Y-15158079D02*
X10524467Y-15139031D01*
X10524467Y-15139031D02*
X10533991Y-15129508D01*
X10533991Y-15129508D02*
X10553039Y-15119984D01*
X10705420Y-15319984D02*
X10705420Y-15186650D01*
X10705420Y-15205698D02*
X10714944Y-15196174D01*
X10714944Y-15196174D02*
X10733991Y-15186650D01*
X10733991Y-15186650D02*
X10762563Y-15186650D01*
X10762563Y-15186650D02*
X10781610Y-15196174D01*
X10781610Y-15196174D02*
X10791134Y-15215222D01*
X10791134Y-15215222D02*
X10791134Y-15319984D01*
X10791134Y-15215222D02*
X10800658Y-15196174D01*
X10800658Y-15196174D02*
X10819705Y-15186650D01*
X10819705Y-15186650D02*
X10848277Y-15186650D01*
X10848277Y-15186650D02*
X10867325Y-15196174D01*
X10867325Y-15196174D02*
X10876848Y-15215222D01*
X10876848Y-15215222D02*
X10876848Y-15319984D01*
X10972086Y-15319984D02*
X10972086Y-15186650D01*
X10972086Y-15205698D02*
X10981610Y-15196174D01*
X10981610Y-15196174D02*
X11000658Y-15186650D01*
X11000658Y-15186650D02*
X11029229Y-15186650D01*
X11029229Y-15186650D02*
X11048277Y-15196174D01*
X11048277Y-15196174D02*
X11057801Y-15215222D01*
X11057801Y-15215222D02*
X11057801Y-15319984D01*
X11057801Y-15215222D02*
X11067325Y-15196174D01*
X11067325Y-15196174D02*
X11086372Y-15186650D01*
X11086372Y-15186650D02*
X11114944Y-15186650D01*
X11114944Y-15186650D02*
X11133991Y-15196174D01*
X11133991Y-15196174D02*
X11143515Y-15215222D01*
X11143515Y-15215222D02*
X11143515Y-15319984D01*
X11533991Y-15110460D02*
X11362563Y-15367603D01*
X11791134Y-15119984D02*
X11810182Y-15119984D01*
X11810182Y-15119984D02*
X11829229Y-15129508D01*
X11829229Y-15129508D02*
X11838753Y-15139031D01*
X11838753Y-15139031D02*
X11848277Y-15158079D01*
X11848277Y-15158079D02*
X11857801Y-15196174D01*
X11857801Y-15196174D02*
X11857801Y-15243793D01*
X11857801Y-15243793D02*
X11848277Y-15281888D01*
X11848277Y-15281888D02*
X11838753Y-15300936D01*
X11838753Y-15300936D02*
X11829229Y-15310460D01*
X11829229Y-15310460D02*
X11810182Y-15319984D01*
X11810182Y-15319984D02*
X11791134Y-15319984D01*
X11791134Y-15319984D02*
X11772086Y-15310460D01*
X11772086Y-15310460D02*
X11762563Y-15300936D01*
X11762563Y-15300936D02*
X11753039Y-15281888D01*
X11753039Y-15281888D02*
X11743515Y-15243793D01*
X11743515Y-15243793D02*
X11743515Y-15196174D01*
X11743515Y-15196174D02*
X11753039Y-15158079D01*
X11753039Y-15158079D02*
X11762563Y-15139031D01*
X11762563Y-15139031D02*
X11772086Y-15129508D01*
X11772086Y-15129508D02*
X11791134Y-15119984D01*
X11943515Y-15300936D02*
X11953039Y-15310460D01*
X11953039Y-15310460D02*
X11943515Y-15319984D01*
X11943515Y-15319984D02*
X11933991Y-15310460D01*
X11933991Y-15310460D02*
X11943515Y-15300936D01*
X11943515Y-15300936D02*
X11943515Y-15319984D01*
X12076848Y-15119984D02*
X12095896Y-15119984D01*
X12095896Y-15119984D02*
X12114944Y-15129508D01*
X12114944Y-15129508D02*
X12124467Y-15139031D01*
X12124467Y-15139031D02*
X12133991Y-15158079D01*
X12133991Y-15158079D02*
X12143515Y-15196174D01*
X12143515Y-15196174D02*
X12143515Y-15243793D01*
X12143515Y-15243793D02*
X12133991Y-15281888D01*
X12133991Y-15281888D02*
X12124467Y-15300936D01*
X12124467Y-15300936D02*
X12114944Y-15310460D01*
X12114944Y-15310460D02*
X12095896Y-15319984D01*
X12095896Y-15319984D02*
X12076848Y-15319984D01*
X12076848Y-15319984D02*
X12057801Y-15310460D01*
X12057801Y-15310460D02*
X12048277Y-15300936D01*
X12048277Y-15300936D02*
X12038753Y-15281888D01*
X12038753Y-15281888D02*
X12029229Y-15243793D01*
X12029229Y-15243793D02*
X12029229Y-15196174D01*
X12029229Y-15196174D02*
X12038753Y-15158079D01*
X12038753Y-15158079D02*
X12048277Y-15139031D01*
X12048277Y-15139031D02*
X12057801Y-15129508D01*
X12057801Y-15129508D02*
X12076848Y-15119984D01*
X12314944Y-15186650D02*
X12314944Y-15319984D01*
X12267325Y-15110460D02*
X12219706Y-15253317D01*
X12219706Y-15253317D02*
X12343515Y-15253317D01*
X12400658Y-15119984D02*
X12524467Y-15119984D01*
X12524467Y-15119984D02*
X12457801Y-15196174D01*
X12457801Y-15196174D02*
X12486372Y-15196174D01*
X12486372Y-15196174D02*
X12505420Y-15205698D01*
X12505420Y-15205698D02*
X12514944Y-15215222D01*
X12514944Y-15215222D02*
X12524467Y-15234269D01*
X12524467Y-15234269D02*
X12524467Y-15281888D01*
X12524467Y-15281888D02*
X12514944Y-15300936D01*
X12514944Y-15300936D02*
X12505420Y-15310460D01*
X12505420Y-15310460D02*
X12486372Y-15319984D01*
X12486372Y-15319984D02*
X12429229Y-15319984D01*
X12429229Y-15319984D02*
X12410182Y-15310460D01*
X12410182Y-15310460D02*
X12400658Y-15300936D01*
X12591134Y-15119984D02*
X12714944Y-15119984D01*
X12714944Y-15119984D02*
X12648277Y-15196174D01*
X12648277Y-15196174D02*
X12676848Y-15196174D01*
X12676848Y-15196174D02*
X12695896Y-15205698D01*
X12695896Y-15205698D02*
X12705420Y-15215222D01*
X12705420Y-15215222D02*
X12714944Y-15234269D01*
X12714944Y-15234269D02*
X12714944Y-15281888D01*
X12714944Y-15281888D02*
X12705420Y-15300936D01*
X12705420Y-15300936D02*
X12695896Y-15310460D01*
X12695896Y-15310460D02*
X12676848Y-15319984D01*
X12676848Y-15319984D02*
X12619706Y-15319984D01*
X12619706Y-15319984D02*
X12600658Y-15310460D01*
X12600658Y-15310460D02*
X12591134Y-15300936D01*
X12791134Y-15119984D02*
X12791134Y-15158079D01*
X12867325Y-15119984D02*
X12867325Y-15158079D01*
X13162563Y-15396174D02*
X13153039Y-15386650D01*
X13153039Y-15386650D02*
X13133991Y-15358079D01*
X13133991Y-15358079D02*
X13124468Y-15339031D01*
X13124468Y-15339031D02*
X13114944Y-15310460D01*
X13114944Y-15310460D02*
X13105420Y-15262841D01*
X13105420Y-15262841D02*
X13105420Y-15224746D01*
X13105420Y-15224746D02*
X13114944Y-15177127D01*
X13114944Y-15177127D02*
X13124468Y-15148555D01*
X13124468Y-15148555D02*
X13133991Y-15129508D01*
X13133991Y-15129508D02*
X13153039Y-15100936D01*
X13153039Y-15100936D02*
X13162563Y-15091412D01*
X13343515Y-15319984D02*
X13229229Y-15319984D01*
X13286372Y-15319984D02*
X13286372Y-15119984D01*
X13286372Y-15119984D02*
X13267325Y-15148555D01*
X13267325Y-15148555D02*
X13248277Y-15167603D01*
X13248277Y-15167603D02*
X13229229Y-15177127D01*
X13514944Y-15119984D02*
X13476848Y-15119984D01*
X13476848Y-15119984D02*
X13457801Y-15129508D01*
X13457801Y-15129508D02*
X13448277Y-15139031D01*
X13448277Y-15139031D02*
X13429229Y-15167603D01*
X13429229Y-15167603D02*
X13419706Y-15205698D01*
X13419706Y-15205698D02*
X13419706Y-15281888D01*
X13419706Y-15281888D02*
X13429229Y-15300936D01*
X13429229Y-15300936D02*
X13438753Y-15310460D01*
X13438753Y-15310460D02*
X13457801Y-15319984D01*
X13457801Y-15319984D02*
X13495896Y-15319984D01*
X13495896Y-15319984D02*
X13514944Y-15310460D01*
X13514944Y-15310460D02*
X13524468Y-15300936D01*
X13524468Y-15300936D02*
X13533991Y-15281888D01*
X13533991Y-15281888D02*
X13533991Y-15234269D01*
X13533991Y-15234269D02*
X13524468Y-15215222D01*
X13524468Y-15215222D02*
X13514944Y-15205698D01*
X13514944Y-15205698D02*
X13495896Y-15196174D01*
X13495896Y-15196174D02*
X13457801Y-15196174D01*
X13457801Y-15196174D02*
X13438753Y-15205698D01*
X13438753Y-15205698D02*
X13429229Y-15215222D01*
X13429229Y-15215222D02*
X13419706Y-15234269D01*
X13772087Y-15319984D02*
X13772087Y-15119984D01*
X13857801Y-15319984D02*
X13857801Y-15215222D01*
X13857801Y-15215222D02*
X13848277Y-15196174D01*
X13848277Y-15196174D02*
X13829230Y-15186650D01*
X13829230Y-15186650D02*
X13800658Y-15186650D01*
X13800658Y-15186650D02*
X13781610Y-15196174D01*
X13781610Y-15196174D02*
X13772087Y-15205698D01*
X13981610Y-15319984D02*
X13962563Y-15310460D01*
X13962563Y-15310460D02*
X13953039Y-15300936D01*
X13953039Y-15300936D02*
X13943515Y-15281888D01*
X13943515Y-15281888D02*
X13943515Y-15224746D01*
X13943515Y-15224746D02*
X13953039Y-15205698D01*
X13953039Y-15205698D02*
X13962563Y-15196174D01*
X13962563Y-15196174D02*
X13981610Y-15186650D01*
X13981610Y-15186650D02*
X14010182Y-15186650D01*
X14010182Y-15186650D02*
X14029230Y-15196174D01*
X14029230Y-15196174D02*
X14038753Y-15205698D01*
X14038753Y-15205698D02*
X14048277Y-15224746D01*
X14048277Y-15224746D02*
X14048277Y-15281888D01*
X14048277Y-15281888D02*
X14038753Y-15300936D01*
X14038753Y-15300936D02*
X14029230Y-15310460D01*
X14029230Y-15310460D02*
X14010182Y-15319984D01*
X14010182Y-15319984D02*
X13981610Y-15319984D01*
X14162563Y-15319984D02*
X14143515Y-15310460D01*
X14143515Y-15310460D02*
X14133991Y-15291412D01*
X14133991Y-15291412D02*
X14133991Y-15119984D01*
X14314944Y-15310460D02*
X14295896Y-15319984D01*
X14295896Y-15319984D02*
X14257801Y-15319984D01*
X14257801Y-15319984D02*
X14238753Y-15310460D01*
X14238753Y-15310460D02*
X14229230Y-15291412D01*
X14229230Y-15291412D02*
X14229230Y-15215222D01*
X14229230Y-15215222D02*
X14238753Y-15196174D01*
X14238753Y-15196174D02*
X14257801Y-15186650D01*
X14257801Y-15186650D02*
X14295896Y-15186650D01*
X14295896Y-15186650D02*
X14314944Y-15196174D01*
X14314944Y-15196174D02*
X14324468Y-15215222D01*
X14324468Y-15215222D02*
X14324468Y-15234269D01*
X14324468Y-15234269D02*
X14229230Y-15253317D01*
X14400658Y-15310460D02*
X14419706Y-15319984D01*
X14419706Y-15319984D02*
X14457801Y-15319984D01*
X14457801Y-15319984D02*
X14476849Y-15310460D01*
X14476849Y-15310460D02*
X14486372Y-15291412D01*
X14486372Y-15291412D02*
X14486372Y-15281888D01*
X14486372Y-15281888D02*
X14476849Y-15262841D01*
X14476849Y-15262841D02*
X14457801Y-15253317D01*
X14457801Y-15253317D02*
X14429230Y-15253317D01*
X14429230Y-15253317D02*
X14410182Y-15243793D01*
X14410182Y-15243793D02*
X14400658Y-15224746D01*
X14400658Y-15224746D02*
X14400658Y-15215222D01*
X14400658Y-15215222D02*
X14410182Y-15196174D01*
X14410182Y-15196174D02*
X14429230Y-15186650D01*
X14429230Y-15186650D02*
X14457801Y-15186650D01*
X14457801Y-15186650D02*
X14476849Y-15196174D01*
X14553039Y-15396174D02*
X14562563Y-15386650D01*
X14562563Y-15386650D02*
X14581611Y-15358079D01*
X14581611Y-15358079D02*
X14591134Y-15339031D01*
X14591134Y-15339031D02*
X14600658Y-15310460D01*
X14600658Y-15310460D02*
X14610182Y-15262841D01*
X14610182Y-15262841D02*
X14610182Y-15224746D01*
X14610182Y-15224746D02*
X14600658Y-15177127D01*
X14600658Y-15177127D02*
X14591134Y-15148555D01*
X14591134Y-15148555D02*
X14581611Y-15129508D01*
X14581611Y-15129508D02*
X14562563Y-15100936D01*
X14562563Y-15100936D02*
X14553039Y-15091412D01*
D14*
X9467500Y-15432500D02*
X9587500Y-15552500D01*
X9587500Y-15432500D02*
X9467500Y-15552500D01*
X9587500Y-15492500D02*
G75*
G02*
X9467500Y-15492500I-60000J0D01*
G01*
X9467500Y-15492500D02*
G75*
G02*
X9587500Y-15492500I60000J0D01*
G01*
D11*
X9953039Y-15583984D02*
X9838753Y-15583984D01*
X9895896Y-15583984D02*
X9895896Y-15383984D01*
X9895896Y-15383984D02*
X9876848Y-15412555D01*
X9876848Y-15412555D02*
X9857801Y-15431603D01*
X9857801Y-15431603D02*
X9838753Y-15441127D01*
X10038753Y-15564936D02*
X10048277Y-15574460D01*
X10048277Y-15574460D02*
X10038753Y-15583984D01*
X10038753Y-15583984D02*
X10029229Y-15574460D01*
X10029229Y-15574460D02*
X10038753Y-15564936D01*
X10038753Y-15564936D02*
X10038753Y-15583984D01*
X10124467Y-15403031D02*
X10133991Y-15393508D01*
X10133991Y-15393508D02*
X10153039Y-15383984D01*
X10153039Y-15383984D02*
X10200658Y-15383984D01*
X10200658Y-15383984D02*
X10219705Y-15393508D01*
X10219705Y-15393508D02*
X10229229Y-15403031D01*
X10229229Y-15403031D02*
X10238753Y-15422079D01*
X10238753Y-15422079D02*
X10238753Y-15441127D01*
X10238753Y-15441127D02*
X10229229Y-15469698D01*
X10229229Y-15469698D02*
X10114944Y-15583984D01*
X10114944Y-15583984D02*
X10238753Y-15583984D01*
X10362563Y-15383984D02*
X10381610Y-15383984D01*
X10381610Y-15383984D02*
X10400658Y-15393508D01*
X10400658Y-15393508D02*
X10410182Y-15403031D01*
X10410182Y-15403031D02*
X10419705Y-15422079D01*
X10419705Y-15422079D02*
X10429229Y-15460174D01*
X10429229Y-15460174D02*
X10429229Y-15507793D01*
X10429229Y-15507793D02*
X10419705Y-15545888D01*
X10419705Y-15545888D02*
X10410182Y-15564936D01*
X10410182Y-15564936D02*
X10400658Y-15574460D01*
X10400658Y-15574460D02*
X10381610Y-15583984D01*
X10381610Y-15583984D02*
X10362563Y-15583984D01*
X10362563Y-15583984D02*
X10343515Y-15574460D01*
X10343515Y-15574460D02*
X10333991Y-15564936D01*
X10333991Y-15564936D02*
X10324467Y-15545888D01*
X10324467Y-15545888D02*
X10314944Y-15507793D01*
X10314944Y-15507793D02*
X10314944Y-15460174D01*
X10314944Y-15460174D02*
X10324467Y-15422079D01*
X10324467Y-15422079D02*
X10333991Y-15403031D01*
X10333991Y-15403031D02*
X10343515Y-15393508D01*
X10343515Y-15393508D02*
X10362563Y-15383984D01*
X10553039Y-15383984D02*
X10572086Y-15383984D01*
X10572086Y-15383984D02*
X10591134Y-15393508D01*
X10591134Y-15393508D02*
X10600658Y-15403031D01*
X10600658Y-15403031D02*
X10610182Y-15422079D01*
X10610182Y-15422079D02*
X10619705Y-15460174D01*
X10619705Y-15460174D02*
X10619705Y-15507793D01*
X10619705Y-15507793D02*
X10610182Y-15545888D01*
X10610182Y-15545888D02*
X10600658Y-15564936D01*
X10600658Y-15564936D02*
X10591134Y-15574460D01*
X10591134Y-15574460D02*
X10572086Y-15583984D01*
X10572086Y-15583984D02*
X10553039Y-15583984D01*
X10553039Y-15583984D02*
X10533991Y-15574460D01*
X10533991Y-15574460D02*
X10524467Y-15564936D01*
X10524467Y-15564936D02*
X10514944Y-15545888D01*
X10514944Y-15545888D02*
X10505420Y-15507793D01*
X10505420Y-15507793D02*
X10505420Y-15460174D01*
X10505420Y-15460174D02*
X10514944Y-15422079D01*
X10514944Y-15422079D02*
X10524467Y-15403031D01*
X10524467Y-15403031D02*
X10533991Y-15393508D01*
X10533991Y-15393508D02*
X10553039Y-15383984D01*
X10705420Y-15583984D02*
X10705420Y-15450650D01*
X10705420Y-15469698D02*
X10714944Y-15460174D01*
X10714944Y-15460174D02*
X10733991Y-15450650D01*
X10733991Y-15450650D02*
X10762563Y-15450650D01*
X10762563Y-15450650D02*
X10781610Y-15460174D01*
X10781610Y-15460174D02*
X10791134Y-15479222D01*
X10791134Y-15479222D02*
X10791134Y-15583984D01*
X10791134Y-15479222D02*
X10800658Y-15460174D01*
X10800658Y-15460174D02*
X10819705Y-15450650D01*
X10819705Y-15450650D02*
X10848277Y-15450650D01*
X10848277Y-15450650D02*
X10867325Y-15460174D01*
X10867325Y-15460174D02*
X10876848Y-15479222D01*
X10876848Y-15479222D02*
X10876848Y-15583984D01*
X10972086Y-15583984D02*
X10972086Y-15450650D01*
X10972086Y-15469698D02*
X10981610Y-15460174D01*
X10981610Y-15460174D02*
X11000658Y-15450650D01*
X11000658Y-15450650D02*
X11029229Y-15450650D01*
X11029229Y-15450650D02*
X11048277Y-15460174D01*
X11048277Y-15460174D02*
X11057801Y-15479222D01*
X11057801Y-15479222D02*
X11057801Y-15583984D01*
X11057801Y-15479222D02*
X11067325Y-15460174D01*
X11067325Y-15460174D02*
X11086372Y-15450650D01*
X11086372Y-15450650D02*
X11114944Y-15450650D01*
X11114944Y-15450650D02*
X11133991Y-15460174D01*
X11133991Y-15460174D02*
X11143515Y-15479222D01*
X11143515Y-15479222D02*
X11143515Y-15583984D01*
X11533991Y-15374460D02*
X11362563Y-15631603D01*
X11791134Y-15383984D02*
X11810182Y-15383984D01*
X11810182Y-15383984D02*
X11829229Y-15393508D01*
X11829229Y-15393508D02*
X11838753Y-15403031D01*
X11838753Y-15403031D02*
X11848277Y-15422079D01*
X11848277Y-15422079D02*
X11857801Y-15460174D01*
X11857801Y-15460174D02*
X11857801Y-15507793D01*
X11857801Y-15507793D02*
X11848277Y-15545888D01*
X11848277Y-15545888D02*
X11838753Y-15564936D01*
X11838753Y-15564936D02*
X11829229Y-15574460D01*
X11829229Y-15574460D02*
X11810182Y-15583984D01*
X11810182Y-15583984D02*
X11791134Y-15583984D01*
X11791134Y-15583984D02*
X11772086Y-15574460D01*
X11772086Y-15574460D02*
X11762563Y-15564936D01*
X11762563Y-15564936D02*
X11753039Y-15545888D01*
X11753039Y-15545888D02*
X11743515Y-15507793D01*
X11743515Y-15507793D02*
X11743515Y-15460174D01*
X11743515Y-15460174D02*
X11753039Y-15422079D01*
X11753039Y-15422079D02*
X11762563Y-15403031D01*
X11762563Y-15403031D02*
X11772086Y-15393508D01*
X11772086Y-15393508D02*
X11791134Y-15383984D01*
X11943515Y-15564936D02*
X11953039Y-15574460D01*
X11953039Y-15574460D02*
X11943515Y-15583984D01*
X11943515Y-15583984D02*
X11933991Y-15574460D01*
X11933991Y-15574460D02*
X11943515Y-15564936D01*
X11943515Y-15564936D02*
X11943515Y-15583984D01*
X12076848Y-15383984D02*
X12095896Y-15383984D01*
X12095896Y-15383984D02*
X12114944Y-15393508D01*
X12114944Y-15393508D02*
X12124467Y-15403031D01*
X12124467Y-15403031D02*
X12133991Y-15422079D01*
X12133991Y-15422079D02*
X12143515Y-15460174D01*
X12143515Y-15460174D02*
X12143515Y-15507793D01*
X12143515Y-15507793D02*
X12133991Y-15545888D01*
X12133991Y-15545888D02*
X12124467Y-15564936D01*
X12124467Y-15564936D02*
X12114944Y-15574460D01*
X12114944Y-15574460D02*
X12095896Y-15583984D01*
X12095896Y-15583984D02*
X12076848Y-15583984D01*
X12076848Y-15583984D02*
X12057801Y-15574460D01*
X12057801Y-15574460D02*
X12048277Y-15564936D01*
X12048277Y-15564936D02*
X12038753Y-15545888D01*
X12038753Y-15545888D02*
X12029229Y-15507793D01*
X12029229Y-15507793D02*
X12029229Y-15460174D01*
X12029229Y-15460174D02*
X12038753Y-15422079D01*
X12038753Y-15422079D02*
X12048277Y-15403031D01*
X12048277Y-15403031D02*
X12057801Y-15393508D01*
X12057801Y-15393508D02*
X12076848Y-15383984D01*
X12314944Y-15450650D02*
X12314944Y-15583984D01*
X12267325Y-15374460D02*
X12219706Y-15517317D01*
X12219706Y-15517317D02*
X12343515Y-15517317D01*
X12400658Y-15383984D02*
X12533991Y-15383984D01*
X12533991Y-15383984D02*
X12448277Y-15583984D01*
X12600658Y-15403031D02*
X12610182Y-15393508D01*
X12610182Y-15393508D02*
X12629229Y-15383984D01*
X12629229Y-15383984D02*
X12676848Y-15383984D01*
X12676848Y-15383984D02*
X12695896Y-15393508D01*
X12695896Y-15393508D02*
X12705420Y-15403031D01*
X12705420Y-15403031D02*
X12714944Y-15422079D01*
X12714944Y-15422079D02*
X12714944Y-15441127D01*
X12714944Y-15441127D02*
X12705420Y-15469698D01*
X12705420Y-15469698D02*
X12591134Y-15583984D01*
X12591134Y-15583984D02*
X12714944Y-15583984D01*
X12791134Y-15383984D02*
X12791134Y-15422079D01*
X12867325Y-15383984D02*
X12867325Y-15422079D01*
X13162563Y-15660174D02*
X13153039Y-15650650D01*
X13153039Y-15650650D02*
X13133991Y-15622079D01*
X13133991Y-15622079D02*
X13124468Y-15603031D01*
X13124468Y-15603031D02*
X13114944Y-15574460D01*
X13114944Y-15574460D02*
X13105420Y-15526841D01*
X13105420Y-15526841D02*
X13105420Y-15488746D01*
X13105420Y-15488746D02*
X13114944Y-15441127D01*
X13114944Y-15441127D02*
X13124468Y-15412555D01*
X13124468Y-15412555D02*
X13133991Y-15393508D01*
X13133991Y-15393508D02*
X13153039Y-15364936D01*
X13153039Y-15364936D02*
X13162563Y-15355412D01*
X13267325Y-15469698D02*
X13248277Y-15460174D01*
X13248277Y-15460174D02*
X13238753Y-15450650D01*
X13238753Y-15450650D02*
X13229229Y-15431603D01*
X13229229Y-15431603D02*
X13229229Y-15422079D01*
X13229229Y-15422079D02*
X13238753Y-15403031D01*
X13238753Y-15403031D02*
X13248277Y-15393508D01*
X13248277Y-15393508D02*
X13267325Y-15383984D01*
X13267325Y-15383984D02*
X13305420Y-15383984D01*
X13305420Y-15383984D02*
X13324468Y-15393508D01*
X13324468Y-15393508D02*
X13333991Y-15403031D01*
X13333991Y-15403031D02*
X13343515Y-15422079D01*
X13343515Y-15422079D02*
X13343515Y-15431603D01*
X13343515Y-15431603D02*
X13333991Y-15450650D01*
X13333991Y-15450650D02*
X13324468Y-15460174D01*
X13324468Y-15460174D02*
X13305420Y-15469698D01*
X13305420Y-15469698D02*
X13267325Y-15469698D01*
X13267325Y-15469698D02*
X13248277Y-15479222D01*
X13248277Y-15479222D02*
X13238753Y-15488746D01*
X13238753Y-15488746D02*
X13229229Y-15507793D01*
X13229229Y-15507793D02*
X13229229Y-15545888D01*
X13229229Y-15545888D02*
X13238753Y-15564936D01*
X13238753Y-15564936D02*
X13248277Y-15574460D01*
X13248277Y-15574460D02*
X13267325Y-15583984D01*
X13267325Y-15583984D02*
X13305420Y-15583984D01*
X13305420Y-15583984D02*
X13324468Y-15574460D01*
X13324468Y-15574460D02*
X13333991Y-15564936D01*
X13333991Y-15564936D02*
X13343515Y-15545888D01*
X13343515Y-15545888D02*
X13343515Y-15507793D01*
X13343515Y-15507793D02*
X13333991Y-15488746D01*
X13333991Y-15488746D02*
X13324468Y-15479222D01*
X13324468Y-15479222D02*
X13305420Y-15469698D01*
X13581610Y-15583984D02*
X13581610Y-15383984D01*
X13667325Y-15583984D02*
X13667325Y-15479222D01*
X13667325Y-15479222D02*
X13657801Y-15460174D01*
X13657801Y-15460174D02*
X13638753Y-15450650D01*
X13638753Y-15450650D02*
X13610182Y-15450650D01*
X13610182Y-15450650D02*
X13591134Y-15460174D01*
X13591134Y-15460174D02*
X13581610Y-15469698D01*
X13791134Y-15583984D02*
X13772087Y-15574460D01*
X13772087Y-15574460D02*
X13762563Y-15564936D01*
X13762563Y-15564936D02*
X13753039Y-15545888D01*
X13753039Y-15545888D02*
X13753039Y-15488746D01*
X13753039Y-15488746D02*
X13762563Y-15469698D01*
X13762563Y-15469698D02*
X13772087Y-15460174D01*
X13772087Y-15460174D02*
X13791134Y-15450650D01*
X13791134Y-15450650D02*
X13819706Y-15450650D01*
X13819706Y-15450650D02*
X13838753Y-15460174D01*
X13838753Y-15460174D02*
X13848277Y-15469698D01*
X13848277Y-15469698D02*
X13857801Y-15488746D01*
X13857801Y-15488746D02*
X13857801Y-15545888D01*
X13857801Y-15545888D02*
X13848277Y-15564936D01*
X13848277Y-15564936D02*
X13838753Y-15574460D01*
X13838753Y-15574460D02*
X13819706Y-15583984D01*
X13819706Y-15583984D02*
X13791134Y-15583984D01*
X13972087Y-15583984D02*
X13953039Y-15574460D01*
X13953039Y-15574460D02*
X13943515Y-15555412D01*
X13943515Y-15555412D02*
X13943515Y-15383984D01*
X14124468Y-15574460D02*
X14105420Y-15583984D01*
X14105420Y-15583984D02*
X14067325Y-15583984D01*
X14067325Y-15583984D02*
X14048277Y-15574460D01*
X14048277Y-15574460D02*
X14038753Y-15555412D01*
X14038753Y-15555412D02*
X14038753Y-15479222D01*
X14038753Y-15479222D02*
X14048277Y-15460174D01*
X14048277Y-15460174D02*
X14067325Y-15450650D01*
X14067325Y-15450650D02*
X14105420Y-15450650D01*
X14105420Y-15450650D02*
X14124468Y-15460174D01*
X14124468Y-15460174D02*
X14133991Y-15479222D01*
X14133991Y-15479222D02*
X14133991Y-15498269D01*
X14133991Y-15498269D02*
X14038753Y-15517317D01*
X14210182Y-15574460D02*
X14229230Y-15583984D01*
X14229230Y-15583984D02*
X14267325Y-15583984D01*
X14267325Y-15583984D02*
X14286372Y-15574460D01*
X14286372Y-15574460D02*
X14295896Y-15555412D01*
X14295896Y-15555412D02*
X14295896Y-15545888D01*
X14295896Y-15545888D02*
X14286372Y-15526841D01*
X14286372Y-15526841D02*
X14267325Y-15517317D01*
X14267325Y-15517317D02*
X14238753Y-15517317D01*
X14238753Y-15517317D02*
X14219706Y-15507793D01*
X14219706Y-15507793D02*
X14210182Y-15488746D01*
X14210182Y-15488746D02*
X14210182Y-15479222D01*
X14210182Y-15479222D02*
X14219706Y-15460174D01*
X14219706Y-15460174D02*
X14238753Y-15450650D01*
X14238753Y-15450650D02*
X14267325Y-15450650D01*
X14267325Y-15450650D02*
X14286372Y-15460174D01*
X14362563Y-15660174D02*
X14372087Y-15650650D01*
X14372087Y-15650650D02*
X14391134Y-15622079D01*
X14391134Y-15622079D02*
X14400658Y-15603031D01*
X14400658Y-15603031D02*
X14410182Y-15574460D01*
X14410182Y-15574460D02*
X14419706Y-15526841D01*
X14419706Y-15526841D02*
X14419706Y-15488746D01*
X14419706Y-15488746D02*
X14410182Y-15441127D01*
X14410182Y-15441127D02*
X14400658Y-15412555D01*
X14400658Y-15412555D02*
X14391134Y-15393508D01*
X14391134Y-15393508D02*
X14372087Y-15364936D01*
X14372087Y-15364936D02*
X14362563Y-15355412D01*
D15*
X9437500Y-15681500D02*
X9587500Y-15831500D01*
X9587500Y-15681500D02*
X9437500Y-15831500D01*
X9512500Y-15681500D02*
X9512500Y-15831500D01*
X9437500Y-15756500D02*
X9587500Y-15756500D01*
D11*
X9953039Y-15847984D02*
X9838753Y-15847984D01*
X9895896Y-15847984D02*
X9895896Y-15647984D01*
X9895896Y-15647984D02*
X9876848Y-15676555D01*
X9876848Y-15676555D02*
X9857801Y-15695603D01*
X9857801Y-15695603D02*
X9838753Y-15705127D01*
X10038753Y-15828936D02*
X10048277Y-15838460D01*
X10048277Y-15838460D02*
X10038753Y-15847984D01*
X10038753Y-15847984D02*
X10029229Y-15838460D01*
X10029229Y-15838460D02*
X10038753Y-15828936D01*
X10038753Y-15828936D02*
X10038753Y-15847984D01*
X10229229Y-15647984D02*
X10133991Y-15647984D01*
X10133991Y-15647984D02*
X10124467Y-15743222D01*
X10124467Y-15743222D02*
X10133991Y-15733698D01*
X10133991Y-15733698D02*
X10153039Y-15724174D01*
X10153039Y-15724174D02*
X10200658Y-15724174D01*
X10200658Y-15724174D02*
X10219705Y-15733698D01*
X10219705Y-15733698D02*
X10229229Y-15743222D01*
X10229229Y-15743222D02*
X10238753Y-15762269D01*
X10238753Y-15762269D02*
X10238753Y-15809888D01*
X10238753Y-15809888D02*
X10229229Y-15828936D01*
X10229229Y-15828936D02*
X10219705Y-15838460D01*
X10219705Y-15838460D02*
X10200658Y-15847984D01*
X10200658Y-15847984D02*
X10153039Y-15847984D01*
X10153039Y-15847984D02*
X10133991Y-15838460D01*
X10133991Y-15838460D02*
X10124467Y-15828936D01*
X10362563Y-15647984D02*
X10381610Y-15647984D01*
X10381610Y-15647984D02*
X10400658Y-15657508D01*
X10400658Y-15657508D02*
X10410182Y-15667031D01*
X10410182Y-15667031D02*
X10419705Y-15686079D01*
X10419705Y-15686079D02*
X10429229Y-15724174D01*
X10429229Y-15724174D02*
X10429229Y-15771793D01*
X10429229Y-15771793D02*
X10419705Y-15809888D01*
X10419705Y-15809888D02*
X10410182Y-15828936D01*
X10410182Y-15828936D02*
X10400658Y-15838460D01*
X10400658Y-15838460D02*
X10381610Y-15847984D01*
X10381610Y-15847984D02*
X10362563Y-15847984D01*
X10362563Y-15847984D02*
X10343515Y-15838460D01*
X10343515Y-15838460D02*
X10333991Y-15828936D01*
X10333991Y-15828936D02*
X10324467Y-15809888D01*
X10324467Y-15809888D02*
X10314944Y-15771793D01*
X10314944Y-15771793D02*
X10314944Y-15724174D01*
X10314944Y-15724174D02*
X10324467Y-15686079D01*
X10324467Y-15686079D02*
X10333991Y-15667031D01*
X10333991Y-15667031D02*
X10343515Y-15657508D01*
X10343515Y-15657508D02*
X10362563Y-15647984D01*
X10553039Y-15647984D02*
X10572086Y-15647984D01*
X10572086Y-15647984D02*
X10591134Y-15657508D01*
X10591134Y-15657508D02*
X10600658Y-15667031D01*
X10600658Y-15667031D02*
X10610182Y-15686079D01*
X10610182Y-15686079D02*
X10619705Y-15724174D01*
X10619705Y-15724174D02*
X10619705Y-15771793D01*
X10619705Y-15771793D02*
X10610182Y-15809888D01*
X10610182Y-15809888D02*
X10600658Y-15828936D01*
X10600658Y-15828936D02*
X10591134Y-15838460D01*
X10591134Y-15838460D02*
X10572086Y-15847984D01*
X10572086Y-15847984D02*
X10553039Y-15847984D01*
X10553039Y-15847984D02*
X10533991Y-15838460D01*
X10533991Y-15838460D02*
X10524467Y-15828936D01*
X10524467Y-15828936D02*
X10514944Y-15809888D01*
X10514944Y-15809888D02*
X10505420Y-15771793D01*
X10505420Y-15771793D02*
X10505420Y-15724174D01*
X10505420Y-15724174D02*
X10514944Y-15686079D01*
X10514944Y-15686079D02*
X10524467Y-15667031D01*
X10524467Y-15667031D02*
X10533991Y-15657508D01*
X10533991Y-15657508D02*
X10553039Y-15647984D01*
X10705420Y-15847984D02*
X10705420Y-15714650D01*
X10705420Y-15733698D02*
X10714944Y-15724174D01*
X10714944Y-15724174D02*
X10733991Y-15714650D01*
X10733991Y-15714650D02*
X10762563Y-15714650D01*
X10762563Y-15714650D02*
X10781610Y-15724174D01*
X10781610Y-15724174D02*
X10791134Y-15743222D01*
X10791134Y-15743222D02*
X10791134Y-15847984D01*
X10791134Y-15743222D02*
X10800658Y-15724174D01*
X10800658Y-15724174D02*
X10819705Y-15714650D01*
X10819705Y-15714650D02*
X10848277Y-15714650D01*
X10848277Y-15714650D02*
X10867325Y-15724174D01*
X10867325Y-15724174D02*
X10876848Y-15743222D01*
X10876848Y-15743222D02*
X10876848Y-15847984D01*
X10972086Y-15847984D02*
X10972086Y-15714650D01*
X10972086Y-15733698D02*
X10981610Y-15724174D01*
X10981610Y-15724174D02*
X11000658Y-15714650D01*
X11000658Y-15714650D02*
X11029229Y-15714650D01*
X11029229Y-15714650D02*
X11048277Y-15724174D01*
X11048277Y-15724174D02*
X11057801Y-15743222D01*
X11057801Y-15743222D02*
X11057801Y-15847984D01*
X11057801Y-15743222D02*
X11067325Y-15724174D01*
X11067325Y-15724174D02*
X11086372Y-15714650D01*
X11086372Y-15714650D02*
X11114944Y-15714650D01*
X11114944Y-15714650D02*
X11133991Y-15724174D01*
X11133991Y-15724174D02*
X11143515Y-15743222D01*
X11143515Y-15743222D02*
X11143515Y-15847984D01*
X11533991Y-15638460D02*
X11362563Y-15895603D01*
X11791134Y-15647984D02*
X11810182Y-15647984D01*
X11810182Y-15647984D02*
X11829229Y-15657508D01*
X11829229Y-15657508D02*
X11838753Y-15667031D01*
X11838753Y-15667031D02*
X11848277Y-15686079D01*
X11848277Y-15686079D02*
X11857801Y-15724174D01*
X11857801Y-15724174D02*
X11857801Y-15771793D01*
X11857801Y-15771793D02*
X11848277Y-15809888D01*
X11848277Y-15809888D02*
X11838753Y-15828936D01*
X11838753Y-15828936D02*
X11829229Y-15838460D01*
X11829229Y-15838460D02*
X11810182Y-15847984D01*
X11810182Y-15847984D02*
X11791134Y-15847984D01*
X11791134Y-15847984D02*
X11772086Y-15838460D01*
X11772086Y-15838460D02*
X11762563Y-15828936D01*
X11762563Y-15828936D02*
X11753039Y-15809888D01*
X11753039Y-15809888D02*
X11743515Y-15771793D01*
X11743515Y-15771793D02*
X11743515Y-15724174D01*
X11743515Y-15724174D02*
X11753039Y-15686079D01*
X11753039Y-15686079D02*
X11762563Y-15667031D01*
X11762563Y-15667031D02*
X11772086Y-15657508D01*
X11772086Y-15657508D02*
X11791134Y-15647984D01*
X11943515Y-15828936D02*
X11953039Y-15838460D01*
X11953039Y-15838460D02*
X11943515Y-15847984D01*
X11943515Y-15847984D02*
X11933991Y-15838460D01*
X11933991Y-15838460D02*
X11943515Y-15828936D01*
X11943515Y-15828936D02*
X11943515Y-15847984D01*
X12076848Y-15647984D02*
X12095896Y-15647984D01*
X12095896Y-15647984D02*
X12114944Y-15657508D01*
X12114944Y-15657508D02*
X12124467Y-15667031D01*
X12124467Y-15667031D02*
X12133991Y-15686079D01*
X12133991Y-15686079D02*
X12143515Y-15724174D01*
X12143515Y-15724174D02*
X12143515Y-15771793D01*
X12143515Y-15771793D02*
X12133991Y-15809888D01*
X12133991Y-15809888D02*
X12124467Y-15828936D01*
X12124467Y-15828936D02*
X12114944Y-15838460D01*
X12114944Y-15838460D02*
X12095896Y-15847984D01*
X12095896Y-15847984D02*
X12076848Y-15847984D01*
X12076848Y-15847984D02*
X12057801Y-15838460D01*
X12057801Y-15838460D02*
X12048277Y-15828936D01*
X12048277Y-15828936D02*
X12038753Y-15809888D01*
X12038753Y-15809888D02*
X12029229Y-15771793D01*
X12029229Y-15771793D02*
X12029229Y-15724174D01*
X12029229Y-15724174D02*
X12038753Y-15686079D01*
X12038753Y-15686079D02*
X12048277Y-15667031D01*
X12048277Y-15667031D02*
X12057801Y-15657508D01*
X12057801Y-15657508D02*
X12076848Y-15647984D01*
X12324467Y-15647984D02*
X12229229Y-15647984D01*
X12229229Y-15647984D02*
X12219706Y-15743222D01*
X12219706Y-15743222D02*
X12229229Y-15733698D01*
X12229229Y-15733698D02*
X12248277Y-15724174D01*
X12248277Y-15724174D02*
X12295896Y-15724174D01*
X12295896Y-15724174D02*
X12314944Y-15733698D01*
X12314944Y-15733698D02*
X12324467Y-15743222D01*
X12324467Y-15743222D02*
X12333991Y-15762269D01*
X12333991Y-15762269D02*
X12333991Y-15809888D01*
X12333991Y-15809888D02*
X12324467Y-15828936D01*
X12324467Y-15828936D02*
X12314944Y-15838460D01*
X12314944Y-15838460D02*
X12295896Y-15847984D01*
X12295896Y-15847984D02*
X12248277Y-15847984D01*
X12248277Y-15847984D02*
X12229229Y-15838460D01*
X12229229Y-15838460D02*
X12219706Y-15828936D01*
X12429229Y-15847984D02*
X12467325Y-15847984D01*
X12467325Y-15847984D02*
X12486372Y-15838460D01*
X12486372Y-15838460D02*
X12495896Y-15828936D01*
X12495896Y-15828936D02*
X12514944Y-15800365D01*
X12514944Y-15800365D02*
X12524467Y-15762269D01*
X12524467Y-15762269D02*
X12524467Y-15686079D01*
X12524467Y-15686079D02*
X12514944Y-15667031D01*
X12514944Y-15667031D02*
X12505420Y-15657508D01*
X12505420Y-15657508D02*
X12486372Y-15647984D01*
X12486372Y-15647984D02*
X12448277Y-15647984D01*
X12448277Y-15647984D02*
X12429229Y-15657508D01*
X12429229Y-15657508D02*
X12419706Y-15667031D01*
X12419706Y-15667031D02*
X12410182Y-15686079D01*
X12410182Y-15686079D02*
X12410182Y-15733698D01*
X12410182Y-15733698D02*
X12419706Y-15752746D01*
X12419706Y-15752746D02*
X12429229Y-15762269D01*
X12429229Y-15762269D02*
X12448277Y-15771793D01*
X12448277Y-15771793D02*
X12486372Y-15771793D01*
X12486372Y-15771793D02*
X12505420Y-15762269D01*
X12505420Y-15762269D02*
X12514944Y-15752746D01*
X12514944Y-15752746D02*
X12524467Y-15733698D01*
X12714944Y-15847984D02*
X12600658Y-15847984D01*
X12657801Y-15847984D02*
X12657801Y-15647984D01*
X12657801Y-15647984D02*
X12638753Y-15676555D01*
X12638753Y-15676555D02*
X12619706Y-15695603D01*
X12619706Y-15695603D02*
X12600658Y-15705127D01*
X12791134Y-15647984D02*
X12791134Y-15686079D01*
X12867325Y-15647984D02*
X12867325Y-15686079D01*
X13162563Y-15924174D02*
X13153039Y-15914650D01*
X13153039Y-15914650D02*
X13133991Y-15886079D01*
X13133991Y-15886079D02*
X13124468Y-15867031D01*
X13124468Y-15867031D02*
X13114944Y-15838460D01*
X13114944Y-15838460D02*
X13105420Y-15790841D01*
X13105420Y-15790841D02*
X13105420Y-15752746D01*
X13105420Y-15752746D02*
X13114944Y-15705127D01*
X13114944Y-15705127D02*
X13124468Y-15676555D01*
X13124468Y-15676555D02*
X13133991Y-15657508D01*
X13133991Y-15657508D02*
X13153039Y-15628936D01*
X13153039Y-15628936D02*
X13162563Y-15619412D01*
X13276848Y-15647984D02*
X13295896Y-15647984D01*
X13295896Y-15647984D02*
X13314944Y-15657508D01*
X13314944Y-15657508D02*
X13324468Y-15667031D01*
X13324468Y-15667031D02*
X13333991Y-15686079D01*
X13333991Y-15686079D02*
X13343515Y-15724174D01*
X13343515Y-15724174D02*
X13343515Y-15771793D01*
X13343515Y-15771793D02*
X13333991Y-15809888D01*
X13333991Y-15809888D02*
X13324468Y-15828936D01*
X13324468Y-15828936D02*
X13314944Y-15838460D01*
X13314944Y-15838460D02*
X13295896Y-15847984D01*
X13295896Y-15847984D02*
X13276848Y-15847984D01*
X13276848Y-15847984D02*
X13257801Y-15838460D01*
X13257801Y-15838460D02*
X13248277Y-15828936D01*
X13248277Y-15828936D02*
X13238753Y-15809888D01*
X13238753Y-15809888D02*
X13229229Y-15771793D01*
X13229229Y-15771793D02*
X13229229Y-15724174D01*
X13229229Y-15724174D02*
X13238753Y-15686079D01*
X13238753Y-15686079D02*
X13248277Y-15667031D01*
X13248277Y-15667031D02*
X13257801Y-15657508D01*
X13257801Y-15657508D02*
X13276848Y-15647984D01*
X13581610Y-15847984D02*
X13581610Y-15647984D01*
X13667325Y-15847984D02*
X13667325Y-15743222D01*
X13667325Y-15743222D02*
X13657801Y-15724174D01*
X13657801Y-15724174D02*
X13638753Y-15714650D01*
X13638753Y-15714650D02*
X13610182Y-15714650D01*
X13610182Y-15714650D02*
X13591134Y-15724174D01*
X13591134Y-15724174D02*
X13581610Y-15733698D01*
X13791134Y-15847984D02*
X13772087Y-15838460D01*
X13772087Y-15838460D02*
X13762563Y-15828936D01*
X13762563Y-15828936D02*
X13753039Y-15809888D01*
X13753039Y-15809888D02*
X13753039Y-15752746D01*
X13753039Y-15752746D02*
X13762563Y-15733698D01*
X13762563Y-15733698D02*
X13772087Y-15724174D01*
X13772087Y-15724174D02*
X13791134Y-15714650D01*
X13791134Y-15714650D02*
X13819706Y-15714650D01*
X13819706Y-15714650D02*
X13838753Y-15724174D01*
X13838753Y-15724174D02*
X13848277Y-15733698D01*
X13848277Y-15733698D02*
X13857801Y-15752746D01*
X13857801Y-15752746D02*
X13857801Y-15809888D01*
X13857801Y-15809888D02*
X13848277Y-15828936D01*
X13848277Y-15828936D02*
X13838753Y-15838460D01*
X13838753Y-15838460D02*
X13819706Y-15847984D01*
X13819706Y-15847984D02*
X13791134Y-15847984D01*
X13972087Y-15847984D02*
X13953039Y-15838460D01*
X13953039Y-15838460D02*
X13943515Y-15819412D01*
X13943515Y-15819412D02*
X13943515Y-15647984D01*
X14124468Y-15838460D02*
X14105420Y-15847984D01*
X14105420Y-15847984D02*
X14067325Y-15847984D01*
X14067325Y-15847984D02*
X14048277Y-15838460D01*
X14048277Y-15838460D02*
X14038753Y-15819412D01*
X14038753Y-15819412D02*
X14038753Y-15743222D01*
X14038753Y-15743222D02*
X14048277Y-15724174D01*
X14048277Y-15724174D02*
X14067325Y-15714650D01*
X14067325Y-15714650D02*
X14105420Y-15714650D01*
X14105420Y-15714650D02*
X14124468Y-15724174D01*
X14124468Y-15724174D02*
X14133991Y-15743222D01*
X14133991Y-15743222D02*
X14133991Y-15762269D01*
X14133991Y-15762269D02*
X14038753Y-15781317D01*
X14210182Y-15838460D02*
X14229230Y-15847984D01*
X14229230Y-15847984D02*
X14267325Y-15847984D01*
X14267325Y-15847984D02*
X14286372Y-15838460D01*
X14286372Y-15838460D02*
X14295896Y-15819412D01*
X14295896Y-15819412D02*
X14295896Y-15809888D01*
X14295896Y-15809888D02*
X14286372Y-15790841D01*
X14286372Y-15790841D02*
X14267325Y-15781317D01*
X14267325Y-15781317D02*
X14238753Y-15781317D01*
X14238753Y-15781317D02*
X14219706Y-15771793D01*
X14219706Y-15771793D02*
X14210182Y-15752746D01*
X14210182Y-15752746D02*
X14210182Y-15743222D01*
X14210182Y-15743222D02*
X14219706Y-15724174D01*
X14219706Y-15724174D02*
X14238753Y-15714650D01*
X14238753Y-15714650D02*
X14267325Y-15714650D01*
X14267325Y-15714650D02*
X14286372Y-15724174D01*
X14533992Y-15771793D02*
X14686373Y-15771793D01*
X14610182Y-15847984D02*
X14610182Y-15695603D01*
X14924468Y-15667031D02*
X14933992Y-15657508D01*
X14933992Y-15657508D02*
X14953039Y-15647984D01*
X14953039Y-15647984D02*
X15000658Y-15647984D01*
X15000658Y-15647984D02*
X15019706Y-15657508D01*
X15019706Y-15657508D02*
X15029230Y-15667031D01*
X15029230Y-15667031D02*
X15038753Y-15686079D01*
X15038753Y-15686079D02*
X15038753Y-15705127D01*
X15038753Y-15705127D02*
X15029230Y-15733698D01*
X15029230Y-15733698D02*
X14914944Y-15847984D01*
X14914944Y-15847984D02*
X15038753Y-15847984D01*
X15267325Y-15838460D02*
X15286373Y-15847984D01*
X15286373Y-15847984D02*
X15324468Y-15847984D01*
X15324468Y-15847984D02*
X15343515Y-15838460D01*
X15343515Y-15838460D02*
X15353039Y-15819412D01*
X15353039Y-15819412D02*
X15353039Y-15809888D01*
X15353039Y-15809888D02*
X15343515Y-15790841D01*
X15343515Y-15790841D02*
X15324468Y-15781317D01*
X15324468Y-15781317D02*
X15295896Y-15781317D01*
X15295896Y-15781317D02*
X15276849Y-15771793D01*
X15276849Y-15771793D02*
X15267325Y-15752746D01*
X15267325Y-15752746D02*
X15267325Y-15743222D01*
X15267325Y-15743222D02*
X15276849Y-15724174D01*
X15276849Y-15724174D02*
X15295896Y-15714650D01*
X15295896Y-15714650D02*
X15324468Y-15714650D01*
X15324468Y-15714650D02*
X15343515Y-15724174D01*
X15467325Y-15847984D02*
X15448277Y-15838460D01*
X15448277Y-15838460D02*
X15438754Y-15819412D01*
X15438754Y-15819412D02*
X15438754Y-15647984D01*
X15572087Y-15847984D02*
X15553039Y-15838460D01*
X15553039Y-15838460D02*
X15543515Y-15828936D01*
X15543515Y-15828936D02*
X15533992Y-15809888D01*
X15533992Y-15809888D02*
X15533992Y-15752746D01*
X15533992Y-15752746D02*
X15543515Y-15733698D01*
X15543515Y-15733698D02*
X15553039Y-15724174D01*
X15553039Y-15724174D02*
X15572087Y-15714650D01*
X15572087Y-15714650D02*
X15600658Y-15714650D01*
X15600658Y-15714650D02*
X15619706Y-15724174D01*
X15619706Y-15724174D02*
X15629230Y-15733698D01*
X15629230Y-15733698D02*
X15638754Y-15752746D01*
X15638754Y-15752746D02*
X15638754Y-15809888D01*
X15638754Y-15809888D02*
X15629230Y-15828936D01*
X15629230Y-15828936D02*
X15619706Y-15838460D01*
X15619706Y-15838460D02*
X15600658Y-15847984D01*
X15600658Y-15847984D02*
X15572087Y-15847984D01*
X15695896Y-15714650D02*
X15772087Y-15714650D01*
X15724468Y-15647984D02*
X15724468Y-15819412D01*
X15724468Y-15819412D02*
X15733992Y-15838460D01*
X15733992Y-15838460D02*
X15753039Y-15847984D01*
X15753039Y-15847984D02*
X15772087Y-15847984D01*
X15829230Y-15838460D02*
X15848277Y-15847984D01*
X15848277Y-15847984D02*
X15886373Y-15847984D01*
X15886373Y-15847984D02*
X15905420Y-15838460D01*
X15905420Y-15838460D02*
X15914944Y-15819412D01*
X15914944Y-15819412D02*
X15914944Y-15809888D01*
X15914944Y-15809888D02*
X15905420Y-15790841D01*
X15905420Y-15790841D02*
X15886373Y-15781317D01*
X15886373Y-15781317D02*
X15857801Y-15781317D01*
X15857801Y-15781317D02*
X15838754Y-15771793D01*
X15838754Y-15771793D02*
X15829230Y-15752746D01*
X15829230Y-15752746D02*
X15829230Y-15743222D01*
X15829230Y-15743222D02*
X15838754Y-15724174D01*
X15838754Y-15724174D02*
X15857801Y-15714650D01*
X15857801Y-15714650D02*
X15886373Y-15714650D01*
X15886373Y-15714650D02*
X15905420Y-15724174D01*
X15981611Y-15924174D02*
X15991135Y-15914650D01*
X15991135Y-15914650D02*
X16010182Y-15886079D01*
X16010182Y-15886079D02*
X16019706Y-15867031D01*
X16019706Y-15867031D02*
X16029230Y-15838460D01*
X16029230Y-15838460D02*
X16038754Y-15790841D01*
X16038754Y-15790841D02*
X16038754Y-15752746D01*
X16038754Y-15752746D02*
X16029230Y-15705127D01*
X16029230Y-15705127D02*
X16019706Y-15676555D01*
X16019706Y-15676555D02*
X16010182Y-15657508D01*
X16010182Y-15657508D02*
X15991135Y-15628936D01*
X15991135Y-15628936D02*
X15981611Y-15619412D01*
X9387500Y-15926500D02*
X9587500Y-16126500D01*
X9587500Y-15926500D02*
X9387500Y-16126500D01*
X9558211Y-16097211D02*
X9558211Y-15955789D01*
X9416789Y-15955789D01*
X9416789Y-16097211D01*
X9558211Y-16097211D01*
X9838753Y-15937031D02*
X9848277Y-15927508D01*
X9848277Y-15927508D02*
X9867324Y-15917984D01*
X9867324Y-15917984D02*
X9914944Y-15917984D01*
X9914944Y-15917984D02*
X9933991Y-15927508D01*
X9933991Y-15927508D02*
X9943515Y-15937031D01*
X9943515Y-15937031D02*
X9953039Y-15956079D01*
X9953039Y-15956079D02*
X9953039Y-15975127D01*
X9953039Y-15975127D02*
X9943515Y-16003698D01*
X9943515Y-16003698D02*
X9829229Y-16117984D01*
X9829229Y-16117984D02*
X9953039Y-16117984D01*
X10038753Y-16098936D02*
X10048277Y-16108460D01*
X10048277Y-16108460D02*
X10038753Y-16117984D01*
X10038753Y-16117984D02*
X10029229Y-16108460D01*
X10029229Y-16108460D02*
X10038753Y-16098936D01*
X10038753Y-16098936D02*
X10038753Y-16117984D01*
X10229229Y-15917984D02*
X10133991Y-15917984D01*
X10133991Y-15917984D02*
X10124467Y-16013222D01*
X10124467Y-16013222D02*
X10133991Y-16003698D01*
X10133991Y-16003698D02*
X10153039Y-15994174D01*
X10153039Y-15994174D02*
X10200658Y-15994174D01*
X10200658Y-15994174D02*
X10219705Y-16003698D01*
X10219705Y-16003698D02*
X10229229Y-16013222D01*
X10229229Y-16013222D02*
X10238753Y-16032269D01*
X10238753Y-16032269D02*
X10238753Y-16079888D01*
X10238753Y-16079888D02*
X10229229Y-16098936D01*
X10229229Y-16098936D02*
X10219705Y-16108460D01*
X10219705Y-16108460D02*
X10200658Y-16117984D01*
X10200658Y-16117984D02*
X10153039Y-16117984D01*
X10153039Y-16117984D02*
X10133991Y-16108460D01*
X10133991Y-16108460D02*
X10124467Y-16098936D01*
X10362563Y-15917984D02*
X10381610Y-15917984D01*
X10381610Y-15917984D02*
X10400658Y-15927508D01*
X10400658Y-15927508D02*
X10410182Y-15937031D01*
X10410182Y-15937031D02*
X10419705Y-15956079D01*
X10419705Y-15956079D02*
X10429229Y-15994174D01*
X10429229Y-15994174D02*
X10429229Y-16041793D01*
X10429229Y-16041793D02*
X10419705Y-16079888D01*
X10419705Y-16079888D02*
X10410182Y-16098936D01*
X10410182Y-16098936D02*
X10400658Y-16108460D01*
X10400658Y-16108460D02*
X10381610Y-16117984D01*
X10381610Y-16117984D02*
X10362563Y-16117984D01*
X10362563Y-16117984D02*
X10343515Y-16108460D01*
X10343515Y-16108460D02*
X10333991Y-16098936D01*
X10333991Y-16098936D02*
X10324467Y-16079888D01*
X10324467Y-16079888D02*
X10314944Y-16041793D01*
X10314944Y-16041793D02*
X10314944Y-15994174D01*
X10314944Y-15994174D02*
X10324467Y-15956079D01*
X10324467Y-15956079D02*
X10333991Y-15937031D01*
X10333991Y-15937031D02*
X10343515Y-15927508D01*
X10343515Y-15927508D02*
X10362563Y-15917984D01*
X10553039Y-15917984D02*
X10572086Y-15917984D01*
X10572086Y-15917984D02*
X10591134Y-15927508D01*
X10591134Y-15927508D02*
X10600658Y-15937031D01*
X10600658Y-15937031D02*
X10610182Y-15956079D01*
X10610182Y-15956079D02*
X10619705Y-15994174D01*
X10619705Y-15994174D02*
X10619705Y-16041793D01*
X10619705Y-16041793D02*
X10610182Y-16079888D01*
X10610182Y-16079888D02*
X10600658Y-16098936D01*
X10600658Y-16098936D02*
X10591134Y-16108460D01*
X10591134Y-16108460D02*
X10572086Y-16117984D01*
X10572086Y-16117984D02*
X10553039Y-16117984D01*
X10553039Y-16117984D02*
X10533991Y-16108460D01*
X10533991Y-16108460D02*
X10524467Y-16098936D01*
X10524467Y-16098936D02*
X10514944Y-16079888D01*
X10514944Y-16079888D02*
X10505420Y-16041793D01*
X10505420Y-16041793D02*
X10505420Y-15994174D01*
X10505420Y-15994174D02*
X10514944Y-15956079D01*
X10514944Y-15956079D02*
X10524467Y-15937031D01*
X10524467Y-15937031D02*
X10533991Y-15927508D01*
X10533991Y-15927508D02*
X10553039Y-15917984D01*
X10705420Y-16117984D02*
X10705420Y-15984650D01*
X10705420Y-16003698D02*
X10714944Y-15994174D01*
X10714944Y-15994174D02*
X10733991Y-15984650D01*
X10733991Y-15984650D02*
X10762563Y-15984650D01*
X10762563Y-15984650D02*
X10781610Y-15994174D01*
X10781610Y-15994174D02*
X10791134Y-16013222D01*
X10791134Y-16013222D02*
X10791134Y-16117984D01*
X10791134Y-16013222D02*
X10800658Y-15994174D01*
X10800658Y-15994174D02*
X10819705Y-15984650D01*
X10819705Y-15984650D02*
X10848277Y-15984650D01*
X10848277Y-15984650D02*
X10867325Y-15994174D01*
X10867325Y-15994174D02*
X10876848Y-16013222D01*
X10876848Y-16013222D02*
X10876848Y-16117984D01*
X10972086Y-16117984D02*
X10972086Y-15984650D01*
X10972086Y-16003698D02*
X10981610Y-15994174D01*
X10981610Y-15994174D02*
X11000658Y-15984650D01*
X11000658Y-15984650D02*
X11029229Y-15984650D01*
X11029229Y-15984650D02*
X11048277Y-15994174D01*
X11048277Y-15994174D02*
X11057801Y-16013222D01*
X11057801Y-16013222D02*
X11057801Y-16117984D01*
X11057801Y-16013222D02*
X11067325Y-15994174D01*
X11067325Y-15994174D02*
X11086372Y-15984650D01*
X11086372Y-15984650D02*
X11114944Y-15984650D01*
X11114944Y-15984650D02*
X11133991Y-15994174D01*
X11133991Y-15994174D02*
X11143515Y-16013222D01*
X11143515Y-16013222D02*
X11143515Y-16117984D01*
X11533991Y-15908460D02*
X11362563Y-16165603D01*
X11791134Y-15917984D02*
X11810182Y-15917984D01*
X11810182Y-15917984D02*
X11829229Y-15927508D01*
X11829229Y-15927508D02*
X11838753Y-15937031D01*
X11838753Y-15937031D02*
X11848277Y-15956079D01*
X11848277Y-15956079D02*
X11857801Y-15994174D01*
X11857801Y-15994174D02*
X11857801Y-16041793D01*
X11857801Y-16041793D02*
X11848277Y-16079888D01*
X11848277Y-16079888D02*
X11838753Y-16098936D01*
X11838753Y-16098936D02*
X11829229Y-16108460D01*
X11829229Y-16108460D02*
X11810182Y-16117984D01*
X11810182Y-16117984D02*
X11791134Y-16117984D01*
X11791134Y-16117984D02*
X11772086Y-16108460D01*
X11772086Y-16108460D02*
X11762563Y-16098936D01*
X11762563Y-16098936D02*
X11753039Y-16079888D01*
X11753039Y-16079888D02*
X11743515Y-16041793D01*
X11743515Y-16041793D02*
X11743515Y-15994174D01*
X11743515Y-15994174D02*
X11753039Y-15956079D01*
X11753039Y-15956079D02*
X11762563Y-15937031D01*
X11762563Y-15937031D02*
X11772086Y-15927508D01*
X11772086Y-15927508D02*
X11791134Y-15917984D01*
X11943515Y-16098936D02*
X11953039Y-16108460D01*
X11953039Y-16108460D02*
X11943515Y-16117984D01*
X11943515Y-16117984D02*
X11933991Y-16108460D01*
X11933991Y-16108460D02*
X11943515Y-16098936D01*
X11943515Y-16098936D02*
X11943515Y-16117984D01*
X12076848Y-15917984D02*
X12095896Y-15917984D01*
X12095896Y-15917984D02*
X12114944Y-15927508D01*
X12114944Y-15927508D02*
X12124467Y-15937031D01*
X12124467Y-15937031D02*
X12133991Y-15956079D01*
X12133991Y-15956079D02*
X12143515Y-15994174D01*
X12143515Y-15994174D02*
X12143515Y-16041793D01*
X12143515Y-16041793D02*
X12133991Y-16079888D01*
X12133991Y-16079888D02*
X12124467Y-16098936D01*
X12124467Y-16098936D02*
X12114944Y-16108460D01*
X12114944Y-16108460D02*
X12095896Y-16117984D01*
X12095896Y-16117984D02*
X12076848Y-16117984D01*
X12076848Y-16117984D02*
X12057801Y-16108460D01*
X12057801Y-16108460D02*
X12048277Y-16098936D01*
X12048277Y-16098936D02*
X12038753Y-16079888D01*
X12038753Y-16079888D02*
X12029229Y-16041793D01*
X12029229Y-16041793D02*
X12029229Y-15994174D01*
X12029229Y-15994174D02*
X12038753Y-15956079D01*
X12038753Y-15956079D02*
X12048277Y-15937031D01*
X12048277Y-15937031D02*
X12057801Y-15927508D01*
X12057801Y-15927508D02*
X12076848Y-15917984D01*
X12238753Y-16117984D02*
X12276848Y-16117984D01*
X12276848Y-16117984D02*
X12295896Y-16108460D01*
X12295896Y-16108460D02*
X12305420Y-16098936D01*
X12305420Y-16098936D02*
X12324467Y-16070365D01*
X12324467Y-16070365D02*
X12333991Y-16032269D01*
X12333991Y-16032269D02*
X12333991Y-15956079D01*
X12333991Y-15956079D02*
X12324467Y-15937031D01*
X12324467Y-15937031D02*
X12314944Y-15927508D01*
X12314944Y-15927508D02*
X12295896Y-15917984D01*
X12295896Y-15917984D02*
X12257801Y-15917984D01*
X12257801Y-15917984D02*
X12238753Y-15927508D01*
X12238753Y-15927508D02*
X12229229Y-15937031D01*
X12229229Y-15937031D02*
X12219706Y-15956079D01*
X12219706Y-15956079D02*
X12219706Y-16003698D01*
X12219706Y-16003698D02*
X12229229Y-16022746D01*
X12229229Y-16022746D02*
X12238753Y-16032269D01*
X12238753Y-16032269D02*
X12257801Y-16041793D01*
X12257801Y-16041793D02*
X12295896Y-16041793D01*
X12295896Y-16041793D02*
X12314944Y-16032269D01*
X12314944Y-16032269D02*
X12324467Y-16022746D01*
X12324467Y-16022746D02*
X12333991Y-16003698D01*
X12448277Y-16003698D02*
X12429229Y-15994174D01*
X12429229Y-15994174D02*
X12419706Y-15984650D01*
X12419706Y-15984650D02*
X12410182Y-15965603D01*
X12410182Y-15965603D02*
X12410182Y-15956079D01*
X12410182Y-15956079D02*
X12419706Y-15937031D01*
X12419706Y-15937031D02*
X12429229Y-15927508D01*
X12429229Y-15927508D02*
X12448277Y-15917984D01*
X12448277Y-15917984D02*
X12486372Y-15917984D01*
X12486372Y-15917984D02*
X12505420Y-15927508D01*
X12505420Y-15927508D02*
X12514944Y-15937031D01*
X12514944Y-15937031D02*
X12524467Y-15956079D01*
X12524467Y-15956079D02*
X12524467Y-15965603D01*
X12524467Y-15965603D02*
X12514944Y-15984650D01*
X12514944Y-15984650D02*
X12505420Y-15994174D01*
X12505420Y-15994174D02*
X12486372Y-16003698D01*
X12486372Y-16003698D02*
X12448277Y-16003698D01*
X12448277Y-16003698D02*
X12429229Y-16013222D01*
X12429229Y-16013222D02*
X12419706Y-16022746D01*
X12419706Y-16022746D02*
X12410182Y-16041793D01*
X12410182Y-16041793D02*
X12410182Y-16079888D01*
X12410182Y-16079888D02*
X12419706Y-16098936D01*
X12419706Y-16098936D02*
X12429229Y-16108460D01*
X12429229Y-16108460D02*
X12448277Y-16117984D01*
X12448277Y-16117984D02*
X12486372Y-16117984D01*
X12486372Y-16117984D02*
X12505420Y-16108460D01*
X12505420Y-16108460D02*
X12514944Y-16098936D01*
X12514944Y-16098936D02*
X12524467Y-16079888D01*
X12524467Y-16079888D02*
X12524467Y-16041793D01*
X12524467Y-16041793D02*
X12514944Y-16022746D01*
X12514944Y-16022746D02*
X12505420Y-16013222D01*
X12505420Y-16013222D02*
X12486372Y-16003698D01*
X12695896Y-15984650D02*
X12695896Y-16117984D01*
X12648277Y-15908460D02*
X12600658Y-16051317D01*
X12600658Y-16051317D02*
X12724467Y-16051317D01*
X12791134Y-15917984D02*
X12791134Y-15956079D01*
X12867325Y-15917984D02*
X12867325Y-15956079D01*
X13162563Y-16194174D02*
X13153039Y-16184650D01*
X13153039Y-16184650D02*
X13133991Y-16156079D01*
X13133991Y-16156079D02*
X13124468Y-16137031D01*
X13124468Y-16137031D02*
X13114944Y-16108460D01*
X13114944Y-16108460D02*
X13105420Y-16060841D01*
X13105420Y-16060841D02*
X13105420Y-16022746D01*
X13105420Y-16022746D02*
X13114944Y-15975127D01*
X13114944Y-15975127D02*
X13124468Y-15946555D01*
X13124468Y-15946555D02*
X13133991Y-15927508D01*
X13133991Y-15927508D02*
X13153039Y-15898936D01*
X13153039Y-15898936D02*
X13162563Y-15889412D01*
X13324468Y-15917984D02*
X13286372Y-15917984D01*
X13286372Y-15917984D02*
X13267325Y-15927508D01*
X13267325Y-15927508D02*
X13257801Y-15937031D01*
X13257801Y-15937031D02*
X13238753Y-15965603D01*
X13238753Y-15965603D02*
X13229229Y-16003698D01*
X13229229Y-16003698D02*
X13229229Y-16079888D01*
X13229229Y-16079888D02*
X13238753Y-16098936D01*
X13238753Y-16098936D02*
X13248277Y-16108460D01*
X13248277Y-16108460D02*
X13267325Y-16117984D01*
X13267325Y-16117984D02*
X13305420Y-16117984D01*
X13305420Y-16117984D02*
X13324468Y-16108460D01*
X13324468Y-16108460D02*
X13333991Y-16098936D01*
X13333991Y-16098936D02*
X13343515Y-16079888D01*
X13343515Y-16079888D02*
X13343515Y-16032269D01*
X13343515Y-16032269D02*
X13333991Y-16013222D01*
X13333991Y-16013222D02*
X13324468Y-16003698D01*
X13324468Y-16003698D02*
X13305420Y-15994174D01*
X13305420Y-15994174D02*
X13267325Y-15994174D01*
X13267325Y-15994174D02*
X13248277Y-16003698D01*
X13248277Y-16003698D02*
X13238753Y-16013222D01*
X13238753Y-16013222D02*
X13229229Y-16032269D01*
X13581610Y-16117984D02*
X13581610Y-15917984D01*
X13667325Y-16117984D02*
X13667325Y-16013222D01*
X13667325Y-16013222D02*
X13657801Y-15994174D01*
X13657801Y-15994174D02*
X13638753Y-15984650D01*
X13638753Y-15984650D02*
X13610182Y-15984650D01*
X13610182Y-15984650D02*
X13591134Y-15994174D01*
X13591134Y-15994174D02*
X13581610Y-16003698D01*
X13791134Y-16117984D02*
X13772087Y-16108460D01*
X13772087Y-16108460D02*
X13762563Y-16098936D01*
X13762563Y-16098936D02*
X13753039Y-16079888D01*
X13753039Y-16079888D02*
X13753039Y-16022746D01*
X13753039Y-16022746D02*
X13762563Y-16003698D01*
X13762563Y-16003698D02*
X13772087Y-15994174D01*
X13772087Y-15994174D02*
X13791134Y-15984650D01*
X13791134Y-15984650D02*
X13819706Y-15984650D01*
X13819706Y-15984650D02*
X13838753Y-15994174D01*
X13838753Y-15994174D02*
X13848277Y-16003698D01*
X13848277Y-16003698D02*
X13857801Y-16022746D01*
X13857801Y-16022746D02*
X13857801Y-16079888D01*
X13857801Y-16079888D02*
X13848277Y-16098936D01*
X13848277Y-16098936D02*
X13838753Y-16108460D01*
X13838753Y-16108460D02*
X13819706Y-16117984D01*
X13819706Y-16117984D02*
X13791134Y-16117984D01*
X13972087Y-16117984D02*
X13953039Y-16108460D01*
X13953039Y-16108460D02*
X13943515Y-16089412D01*
X13943515Y-16089412D02*
X13943515Y-15917984D01*
X14124468Y-16108460D02*
X14105420Y-16117984D01*
X14105420Y-16117984D02*
X14067325Y-16117984D01*
X14067325Y-16117984D02*
X14048277Y-16108460D01*
X14048277Y-16108460D02*
X14038753Y-16089412D01*
X14038753Y-16089412D02*
X14038753Y-16013222D01*
X14038753Y-16013222D02*
X14048277Y-15994174D01*
X14048277Y-15994174D02*
X14067325Y-15984650D01*
X14067325Y-15984650D02*
X14105420Y-15984650D01*
X14105420Y-15984650D02*
X14124468Y-15994174D01*
X14124468Y-15994174D02*
X14133991Y-16013222D01*
X14133991Y-16013222D02*
X14133991Y-16032269D01*
X14133991Y-16032269D02*
X14038753Y-16051317D01*
X14210182Y-16108460D02*
X14229230Y-16117984D01*
X14229230Y-16117984D02*
X14267325Y-16117984D01*
X14267325Y-16117984D02*
X14286372Y-16108460D01*
X14286372Y-16108460D02*
X14295896Y-16089412D01*
X14295896Y-16089412D02*
X14295896Y-16079888D01*
X14295896Y-16079888D02*
X14286372Y-16060841D01*
X14286372Y-16060841D02*
X14267325Y-16051317D01*
X14267325Y-16051317D02*
X14238753Y-16051317D01*
X14238753Y-16051317D02*
X14219706Y-16041793D01*
X14219706Y-16041793D02*
X14210182Y-16022746D01*
X14210182Y-16022746D02*
X14210182Y-16013222D01*
X14210182Y-16013222D02*
X14219706Y-15994174D01*
X14219706Y-15994174D02*
X14238753Y-15984650D01*
X14238753Y-15984650D02*
X14267325Y-15984650D01*
X14267325Y-15984650D02*
X14286372Y-15994174D01*
X14362563Y-16194174D02*
X14372087Y-16184650D01*
X14372087Y-16184650D02*
X14391134Y-16156079D01*
X14391134Y-16156079D02*
X14400658Y-16137031D01*
X14400658Y-16137031D02*
X14410182Y-16108460D01*
X14410182Y-16108460D02*
X14419706Y-16060841D01*
X14419706Y-16060841D02*
X14419706Y-16022746D01*
X14419706Y-16022746D02*
X14410182Y-15975127D01*
X14410182Y-15975127D02*
X14400658Y-15946555D01*
X14400658Y-15946555D02*
X14391134Y-15927508D01*
X14391134Y-15927508D02*
X14372087Y-15898936D01*
X14372087Y-15898936D02*
X14362563Y-15889412D01*
X9387500Y-16246500D02*
X9587500Y-16446500D01*
X9587500Y-16246500D02*
X9387500Y-16446500D01*
X9487500Y-16446500D02*
X9587500Y-16346500D01*
X9487500Y-16246500D01*
X9387500Y-16346500D01*
X9487500Y-16446500D01*
X9829229Y-16237984D02*
X9953039Y-16237984D01*
X9953039Y-16237984D02*
X9886372Y-16314174D01*
X9886372Y-16314174D02*
X9914944Y-16314174D01*
X9914944Y-16314174D02*
X9933991Y-16323698D01*
X9933991Y-16323698D02*
X9943515Y-16333222D01*
X9943515Y-16333222D02*
X9953039Y-16352269D01*
X9953039Y-16352269D02*
X9953039Y-16399888D01*
X9953039Y-16399888D02*
X9943515Y-16418936D01*
X9943515Y-16418936D02*
X9933991Y-16428460D01*
X9933991Y-16428460D02*
X9914944Y-16437984D01*
X9914944Y-16437984D02*
X9857801Y-16437984D01*
X9857801Y-16437984D02*
X9838753Y-16428460D01*
X9838753Y-16428460D02*
X9829229Y-16418936D01*
X10038753Y-16418936D02*
X10048277Y-16428460D01*
X10048277Y-16428460D02*
X10038753Y-16437984D01*
X10038753Y-16437984D02*
X10029229Y-16428460D01*
X10029229Y-16428460D02*
X10038753Y-16418936D01*
X10038753Y-16418936D02*
X10038753Y-16437984D01*
X10229229Y-16237984D02*
X10133991Y-16237984D01*
X10133991Y-16237984D02*
X10124467Y-16333222D01*
X10124467Y-16333222D02*
X10133991Y-16323698D01*
X10133991Y-16323698D02*
X10153039Y-16314174D01*
X10153039Y-16314174D02*
X10200658Y-16314174D01*
X10200658Y-16314174D02*
X10219705Y-16323698D01*
X10219705Y-16323698D02*
X10229229Y-16333222D01*
X10229229Y-16333222D02*
X10238753Y-16352269D01*
X10238753Y-16352269D02*
X10238753Y-16399888D01*
X10238753Y-16399888D02*
X10229229Y-16418936D01*
X10229229Y-16418936D02*
X10219705Y-16428460D01*
X10219705Y-16428460D02*
X10200658Y-16437984D01*
X10200658Y-16437984D02*
X10153039Y-16437984D01*
X10153039Y-16437984D02*
X10133991Y-16428460D01*
X10133991Y-16428460D02*
X10124467Y-16418936D01*
X10362563Y-16237984D02*
X10381610Y-16237984D01*
X10381610Y-16237984D02*
X10400658Y-16247508D01*
X10400658Y-16247508D02*
X10410182Y-16257031D01*
X10410182Y-16257031D02*
X10419705Y-16276079D01*
X10419705Y-16276079D02*
X10429229Y-16314174D01*
X10429229Y-16314174D02*
X10429229Y-16361793D01*
X10429229Y-16361793D02*
X10419705Y-16399888D01*
X10419705Y-16399888D02*
X10410182Y-16418936D01*
X10410182Y-16418936D02*
X10400658Y-16428460D01*
X10400658Y-16428460D02*
X10381610Y-16437984D01*
X10381610Y-16437984D02*
X10362563Y-16437984D01*
X10362563Y-16437984D02*
X10343515Y-16428460D01*
X10343515Y-16428460D02*
X10333991Y-16418936D01*
X10333991Y-16418936D02*
X10324467Y-16399888D01*
X10324467Y-16399888D02*
X10314944Y-16361793D01*
X10314944Y-16361793D02*
X10314944Y-16314174D01*
X10314944Y-16314174D02*
X10324467Y-16276079D01*
X10324467Y-16276079D02*
X10333991Y-16257031D01*
X10333991Y-16257031D02*
X10343515Y-16247508D01*
X10343515Y-16247508D02*
X10362563Y-16237984D01*
X10553039Y-16237984D02*
X10572086Y-16237984D01*
X10572086Y-16237984D02*
X10591134Y-16247508D01*
X10591134Y-16247508D02*
X10600658Y-16257031D01*
X10600658Y-16257031D02*
X10610182Y-16276079D01*
X10610182Y-16276079D02*
X10619705Y-16314174D01*
X10619705Y-16314174D02*
X10619705Y-16361793D01*
X10619705Y-16361793D02*
X10610182Y-16399888D01*
X10610182Y-16399888D02*
X10600658Y-16418936D01*
X10600658Y-16418936D02*
X10591134Y-16428460D01*
X10591134Y-16428460D02*
X10572086Y-16437984D01*
X10572086Y-16437984D02*
X10553039Y-16437984D01*
X10553039Y-16437984D02*
X10533991Y-16428460D01*
X10533991Y-16428460D02*
X10524467Y-16418936D01*
X10524467Y-16418936D02*
X10514944Y-16399888D01*
X10514944Y-16399888D02*
X10505420Y-16361793D01*
X10505420Y-16361793D02*
X10505420Y-16314174D01*
X10505420Y-16314174D02*
X10514944Y-16276079D01*
X10514944Y-16276079D02*
X10524467Y-16257031D01*
X10524467Y-16257031D02*
X10533991Y-16247508D01*
X10533991Y-16247508D02*
X10553039Y-16237984D01*
X10705420Y-16437984D02*
X10705420Y-16304650D01*
X10705420Y-16323698D02*
X10714944Y-16314174D01*
X10714944Y-16314174D02*
X10733991Y-16304650D01*
X10733991Y-16304650D02*
X10762563Y-16304650D01*
X10762563Y-16304650D02*
X10781610Y-16314174D01*
X10781610Y-16314174D02*
X10791134Y-16333222D01*
X10791134Y-16333222D02*
X10791134Y-16437984D01*
X10791134Y-16333222D02*
X10800658Y-16314174D01*
X10800658Y-16314174D02*
X10819705Y-16304650D01*
X10819705Y-16304650D02*
X10848277Y-16304650D01*
X10848277Y-16304650D02*
X10867325Y-16314174D01*
X10867325Y-16314174D02*
X10876848Y-16333222D01*
X10876848Y-16333222D02*
X10876848Y-16437984D01*
X10972086Y-16437984D02*
X10972086Y-16304650D01*
X10972086Y-16323698D02*
X10981610Y-16314174D01*
X10981610Y-16314174D02*
X11000658Y-16304650D01*
X11000658Y-16304650D02*
X11029229Y-16304650D01*
X11029229Y-16304650D02*
X11048277Y-16314174D01*
X11048277Y-16314174D02*
X11057801Y-16333222D01*
X11057801Y-16333222D02*
X11057801Y-16437984D01*
X11057801Y-16333222D02*
X11067325Y-16314174D01*
X11067325Y-16314174D02*
X11086372Y-16304650D01*
X11086372Y-16304650D02*
X11114944Y-16304650D01*
X11114944Y-16304650D02*
X11133991Y-16314174D01*
X11133991Y-16314174D02*
X11143515Y-16333222D01*
X11143515Y-16333222D02*
X11143515Y-16437984D01*
X11533991Y-16228460D02*
X11362563Y-16485603D01*
X11791134Y-16237984D02*
X11810182Y-16237984D01*
X11810182Y-16237984D02*
X11829229Y-16247508D01*
X11829229Y-16247508D02*
X11838753Y-16257031D01*
X11838753Y-16257031D02*
X11848277Y-16276079D01*
X11848277Y-16276079D02*
X11857801Y-16314174D01*
X11857801Y-16314174D02*
X11857801Y-16361793D01*
X11857801Y-16361793D02*
X11848277Y-16399888D01*
X11848277Y-16399888D02*
X11838753Y-16418936D01*
X11838753Y-16418936D02*
X11829229Y-16428460D01*
X11829229Y-16428460D02*
X11810182Y-16437984D01*
X11810182Y-16437984D02*
X11791134Y-16437984D01*
X11791134Y-16437984D02*
X11772086Y-16428460D01*
X11772086Y-16428460D02*
X11762563Y-16418936D01*
X11762563Y-16418936D02*
X11753039Y-16399888D01*
X11753039Y-16399888D02*
X11743515Y-16361793D01*
X11743515Y-16361793D02*
X11743515Y-16314174D01*
X11743515Y-16314174D02*
X11753039Y-16276079D01*
X11753039Y-16276079D02*
X11762563Y-16257031D01*
X11762563Y-16257031D02*
X11772086Y-16247508D01*
X11772086Y-16247508D02*
X11791134Y-16237984D01*
X11943515Y-16418936D02*
X11953039Y-16428460D01*
X11953039Y-16428460D02*
X11943515Y-16437984D01*
X11943515Y-16437984D02*
X11933991Y-16428460D01*
X11933991Y-16428460D02*
X11943515Y-16418936D01*
X11943515Y-16418936D02*
X11943515Y-16437984D01*
X12143515Y-16437984D02*
X12029229Y-16437984D01*
X12086372Y-16437984D02*
X12086372Y-16237984D01*
X12086372Y-16237984D02*
X12067325Y-16266555D01*
X12067325Y-16266555D02*
X12048277Y-16285603D01*
X12048277Y-16285603D02*
X12029229Y-16295127D01*
X12210182Y-16237984D02*
X12333991Y-16237984D01*
X12333991Y-16237984D02*
X12267325Y-16314174D01*
X12267325Y-16314174D02*
X12295896Y-16314174D01*
X12295896Y-16314174D02*
X12314944Y-16323698D01*
X12314944Y-16323698D02*
X12324467Y-16333222D01*
X12324467Y-16333222D02*
X12333991Y-16352269D01*
X12333991Y-16352269D02*
X12333991Y-16399888D01*
X12333991Y-16399888D02*
X12324467Y-16418936D01*
X12324467Y-16418936D02*
X12314944Y-16428460D01*
X12314944Y-16428460D02*
X12295896Y-16437984D01*
X12295896Y-16437984D02*
X12238753Y-16437984D01*
X12238753Y-16437984D02*
X12219706Y-16428460D01*
X12219706Y-16428460D02*
X12210182Y-16418936D01*
X12400658Y-16237984D02*
X12533991Y-16237984D01*
X12533991Y-16237984D02*
X12448277Y-16437984D01*
X12638753Y-16323698D02*
X12619706Y-16314174D01*
X12619706Y-16314174D02*
X12610182Y-16304650D01*
X12610182Y-16304650D02*
X12600658Y-16285603D01*
X12600658Y-16285603D02*
X12600658Y-16276079D01*
X12600658Y-16276079D02*
X12610182Y-16257031D01*
X12610182Y-16257031D02*
X12619706Y-16247508D01*
X12619706Y-16247508D02*
X12638753Y-16237984D01*
X12638753Y-16237984D02*
X12676848Y-16237984D01*
X12676848Y-16237984D02*
X12695896Y-16247508D01*
X12695896Y-16247508D02*
X12705420Y-16257031D01*
X12705420Y-16257031D02*
X12714944Y-16276079D01*
X12714944Y-16276079D02*
X12714944Y-16285603D01*
X12714944Y-16285603D02*
X12705420Y-16304650D01*
X12705420Y-16304650D02*
X12695896Y-16314174D01*
X12695896Y-16314174D02*
X12676848Y-16323698D01*
X12676848Y-16323698D02*
X12638753Y-16323698D01*
X12638753Y-16323698D02*
X12619706Y-16333222D01*
X12619706Y-16333222D02*
X12610182Y-16342746D01*
X12610182Y-16342746D02*
X12600658Y-16361793D01*
X12600658Y-16361793D02*
X12600658Y-16399888D01*
X12600658Y-16399888D02*
X12610182Y-16418936D01*
X12610182Y-16418936D02*
X12619706Y-16428460D01*
X12619706Y-16428460D02*
X12638753Y-16437984D01*
X12638753Y-16437984D02*
X12676848Y-16437984D01*
X12676848Y-16437984D02*
X12695896Y-16428460D01*
X12695896Y-16428460D02*
X12705420Y-16418936D01*
X12705420Y-16418936D02*
X12714944Y-16399888D01*
X12714944Y-16399888D02*
X12714944Y-16361793D01*
X12714944Y-16361793D02*
X12705420Y-16342746D01*
X12705420Y-16342746D02*
X12695896Y-16333222D01*
X12695896Y-16333222D02*
X12676848Y-16323698D01*
X12791134Y-16237984D02*
X12791134Y-16276079D01*
X12867325Y-16237984D02*
X12867325Y-16276079D01*
X13162563Y-16514174D02*
X13153039Y-16504650D01*
X13153039Y-16504650D02*
X13133991Y-16476079D01*
X13133991Y-16476079D02*
X13124468Y-16457031D01*
X13124468Y-16457031D02*
X13114944Y-16428460D01*
X13114944Y-16428460D02*
X13105420Y-16380841D01*
X13105420Y-16380841D02*
X13105420Y-16342746D01*
X13105420Y-16342746D02*
X13114944Y-16295127D01*
X13114944Y-16295127D02*
X13124468Y-16266555D01*
X13124468Y-16266555D02*
X13133991Y-16247508D01*
X13133991Y-16247508D02*
X13153039Y-16218936D01*
X13153039Y-16218936D02*
X13162563Y-16209412D01*
X13229229Y-16257031D02*
X13238753Y-16247508D01*
X13238753Y-16247508D02*
X13257801Y-16237984D01*
X13257801Y-16237984D02*
X13305420Y-16237984D01*
X13305420Y-16237984D02*
X13324468Y-16247508D01*
X13324468Y-16247508D02*
X13333991Y-16257031D01*
X13333991Y-16257031D02*
X13343515Y-16276079D01*
X13343515Y-16276079D02*
X13343515Y-16295127D01*
X13343515Y-16295127D02*
X13333991Y-16323698D01*
X13333991Y-16323698D02*
X13219706Y-16437984D01*
X13219706Y-16437984D02*
X13343515Y-16437984D01*
X13581610Y-16437984D02*
X13581610Y-16237984D01*
X13667325Y-16437984D02*
X13667325Y-16333222D01*
X13667325Y-16333222D02*
X13657801Y-16314174D01*
X13657801Y-16314174D02*
X13638753Y-16304650D01*
X13638753Y-16304650D02*
X13610182Y-16304650D01*
X13610182Y-16304650D02*
X13591134Y-16314174D01*
X13591134Y-16314174D02*
X13581610Y-16323698D01*
X13791134Y-16437984D02*
X13772087Y-16428460D01*
X13772087Y-16428460D02*
X13762563Y-16418936D01*
X13762563Y-16418936D02*
X13753039Y-16399888D01*
X13753039Y-16399888D02*
X13753039Y-16342746D01*
X13753039Y-16342746D02*
X13762563Y-16323698D01*
X13762563Y-16323698D02*
X13772087Y-16314174D01*
X13772087Y-16314174D02*
X13791134Y-16304650D01*
X13791134Y-16304650D02*
X13819706Y-16304650D01*
X13819706Y-16304650D02*
X13838753Y-16314174D01*
X13838753Y-16314174D02*
X13848277Y-16323698D01*
X13848277Y-16323698D02*
X13857801Y-16342746D01*
X13857801Y-16342746D02*
X13857801Y-16399888D01*
X13857801Y-16399888D02*
X13848277Y-16418936D01*
X13848277Y-16418936D02*
X13838753Y-16428460D01*
X13838753Y-16428460D02*
X13819706Y-16437984D01*
X13819706Y-16437984D02*
X13791134Y-16437984D01*
X13972087Y-16437984D02*
X13953039Y-16428460D01*
X13953039Y-16428460D02*
X13943515Y-16409412D01*
X13943515Y-16409412D02*
X13943515Y-16237984D01*
X14124468Y-16428460D02*
X14105420Y-16437984D01*
X14105420Y-16437984D02*
X14067325Y-16437984D01*
X14067325Y-16437984D02*
X14048277Y-16428460D01*
X14048277Y-16428460D02*
X14038753Y-16409412D01*
X14038753Y-16409412D02*
X14038753Y-16333222D01*
X14038753Y-16333222D02*
X14048277Y-16314174D01*
X14048277Y-16314174D02*
X14067325Y-16304650D01*
X14067325Y-16304650D02*
X14105420Y-16304650D01*
X14105420Y-16304650D02*
X14124468Y-16314174D01*
X14124468Y-16314174D02*
X14133991Y-16333222D01*
X14133991Y-16333222D02*
X14133991Y-16352269D01*
X14133991Y-16352269D02*
X14038753Y-16371317D01*
X14210182Y-16428460D02*
X14229230Y-16437984D01*
X14229230Y-16437984D02*
X14267325Y-16437984D01*
X14267325Y-16437984D02*
X14286372Y-16428460D01*
X14286372Y-16428460D02*
X14295896Y-16409412D01*
X14295896Y-16409412D02*
X14295896Y-16399888D01*
X14295896Y-16399888D02*
X14286372Y-16380841D01*
X14286372Y-16380841D02*
X14267325Y-16371317D01*
X14267325Y-16371317D02*
X14238753Y-16371317D01*
X14238753Y-16371317D02*
X14219706Y-16361793D01*
X14219706Y-16361793D02*
X14210182Y-16342746D01*
X14210182Y-16342746D02*
X14210182Y-16333222D01*
X14210182Y-16333222D02*
X14219706Y-16314174D01*
X14219706Y-16314174D02*
X14238753Y-16304650D01*
X14238753Y-16304650D02*
X14267325Y-16304650D01*
X14267325Y-16304650D02*
X14286372Y-16314174D01*
X14362563Y-16514174D02*
X14372087Y-16504650D01*
X14372087Y-16504650D02*
X14391134Y-16476079D01*
X14391134Y-16476079D02*
X14400658Y-16457031D01*
X14400658Y-16457031D02*
X14410182Y-16428460D01*
X14410182Y-16428460D02*
X14419706Y-16380841D01*
X14419706Y-16380841D02*
X14419706Y-16342746D01*
X14419706Y-16342746D02*
X14410182Y-16295127D01*
X14410182Y-16295127D02*
X14400658Y-16266555D01*
X14400658Y-16266555D02*
X14391134Y-16247508D01*
X14391134Y-16247508D02*
X14372087Y-16218936D01*
X14372087Y-16218936D02*
X14362563Y-16209412D01*
M02*
