G04 #@! TF.GenerationSoftware,KiCad,Pcbnew,8.0.3*
G04 #@! TF.CreationDate,2024-07-01T22:09:14+02:00*
G04 #@! TF.ProjectId,VFO na esp32,56464f20-6e61-4206-9573-7033322e6b69,rev?*
G04 #@! TF.SameCoordinates,Original*
G04 #@! TF.FileFunction,Soldermask,Top*
G04 #@! TF.FilePolarity,Negative*
%FSLAX46Y46*%
G04 Gerber Fmt 4.6, Leading zero omitted, Abs format (unit mm)*
G04 Created by KiCad (PCBNEW 8.0.3) date 2024-07-01 22:09:14*
%MOMM*%
%LPD*%
G01*
G04 APERTURE LIST*
G04 Aperture macros list*
%AMRoundRect*
0 Rectangle with rounded corners*
0 $1 Rounding radius*
0 $2 $3 $4 $5 $6 $7 $8 $9 X,Y pos of 4 corners*
0 Add a 4 corners polygon primitive as box body*
4,1,4,$2,$3,$4,$5,$6,$7,$8,$9,$2,$3,0*
0 Add four circle primitives for the rounded corners*
1,1,$1+$1,$2,$3*
1,1,$1+$1,$4,$5*
1,1,$1+$1,$6,$7*
1,1,$1+$1,$8,$9*
0 Add four rect primitives between the rounded corners*
20,1,$1+$1,$2,$3,$4,$5,0*
20,1,$1+$1,$4,$5,$6,$7,0*
20,1,$1+$1,$6,$7,$8,$9,0*
20,1,$1+$1,$8,$9,$2,$3,0*%
G04 Aperture macros list end*
%ADD10R,1.600000X1.600000*%
%ADD11C,1.600000*%
%ADD12C,2.200000*%
%ADD13R,1.700000X1.700000*%
%ADD14O,1.700000X1.700000*%
%ADD15C,5.000000*%
%ADD16O,1.600000X1.600000*%
%ADD17C,7.000000*%
%ADD18R,2.000000X2.000000*%
%ADD19C,2.000000*%
%ADD20R,3.200000X2.000000*%
%ADD21R,2.400000X2.400000*%
%ADD22O,2.400000X2.400000*%
%ADD23RoundRect,0.250000X0.750000X-0.600000X0.750000X0.600000X-0.750000X0.600000X-0.750000X-0.600000X0*%
%ADD24O,2.000000X1.700000*%
%ADD25RoundRect,0.250000X0.600000X0.750000X-0.600000X0.750000X-0.600000X-0.750000X0.600000X-0.750000X0*%
%ADD26O,1.700000X2.000000*%
%ADD27R,2.000000X1.200000*%
%ADD28O,2.000000X1.200000*%
%ADD29O,3.500000X3.500000*%
%ADD30R,2.000000X1.905000*%
%ADD31O,2.000000X1.905000*%
%ADD32RoundRect,0.250000X-0.725000X0.600000X-0.725000X-0.600000X0.725000X-0.600000X0.725000X0.600000X0*%
%ADD33O,1.950000X1.700000*%
G04 APERTURE END LIST*
D10*
X113800000Y-67900000D03*
D11*
X113800000Y-62900000D03*
D12*
X154100000Y-84300000D03*
X154100000Y-86840000D03*
X154100000Y-89380000D03*
X154100000Y-91920000D03*
X154100000Y-94460000D03*
X154100000Y-97000000D03*
X154100000Y-99540000D03*
X154100000Y-102080000D03*
D10*
X146900000Y-99600000D03*
D11*
X146900000Y-104600000D03*
D10*
X156070000Y-70307349D03*
D11*
X156070000Y-73807349D03*
D13*
X141970000Y-70155000D03*
D14*
X141970000Y-67615000D03*
X141970000Y-65075000D03*
D15*
X239000000Y-129000000D03*
D11*
X176400000Y-95700000D03*
D16*
X176400000Y-105700000D03*
D10*
X108200000Y-124400000D03*
D11*
X113200000Y-124400000D03*
D15*
X102000000Y-66000000D03*
D17*
X177950000Y-67810000D03*
D13*
X154125000Y-84325000D03*
D14*
X154125000Y-86865000D03*
X154125000Y-89405000D03*
X154125000Y-91945000D03*
X154125000Y-94485000D03*
X154125000Y-97025000D03*
X154125000Y-99565000D03*
X154125000Y-102105000D03*
D18*
X225850000Y-90700000D03*
D19*
X225850000Y-95700000D03*
X225850000Y-93200000D03*
D20*
X233350000Y-87600000D03*
X233350000Y-98800000D03*
D19*
X240350000Y-95700000D03*
X240350000Y-90700000D03*
X159700000Y-126610000D03*
X153200000Y-126610000D03*
X159700000Y-122110000D03*
X153200000Y-122110000D03*
X190730000Y-126700000D03*
X184230000Y-126700000D03*
X190730000Y-122200000D03*
X184230000Y-122200000D03*
D21*
X183500000Y-72720000D03*
D22*
X193660000Y-72720000D03*
D10*
X156360000Y-62360000D03*
D11*
X156360000Y-67360000D03*
D23*
X224670000Y-77460000D03*
D24*
X224670000Y-74960000D03*
D11*
X146600000Y-94580000D03*
D16*
X146600000Y-84420000D03*
D19*
X175200000Y-126670000D03*
X168700000Y-126670000D03*
X175200000Y-122170000D03*
X168700000Y-122170000D03*
D11*
X163050000Y-90670000D03*
D16*
X173210000Y-90670000D03*
D25*
X190600000Y-66360000D03*
D26*
X188100000Y-66360000D03*
D17*
X219150000Y-67830000D03*
D10*
X215260000Y-74890000D03*
D11*
X215260000Y-79890000D03*
D15*
X203000000Y-80100000D03*
D10*
X137400000Y-97900000D03*
D11*
X137400000Y-92900000D03*
D15*
X239000000Y-66000000D03*
D11*
X176400000Y-80720000D03*
D16*
X176400000Y-90720000D03*
D15*
X102000000Y-129000000D03*
D10*
X198950000Y-71950000D03*
D11*
X198950000Y-68450000D03*
D10*
X146910000Y-108770000D03*
D11*
X146910000Y-113770000D03*
X173200000Y-95700000D03*
D16*
X163040000Y-95700000D03*
D15*
X202900000Y-106700000D03*
D19*
X206290000Y-126670000D03*
X199790000Y-126670000D03*
X206290000Y-122170000D03*
X199790000Y-122170000D03*
D27*
X104200000Y-116703440D03*
D28*
X104200000Y-114163440D03*
X104200000Y-111623440D03*
X104200000Y-109083440D03*
X104200000Y-106543440D03*
X104200000Y-104003440D03*
X104200000Y-101463440D03*
X104200000Y-98923440D03*
X104200000Y-96383440D03*
X104200000Y-93843440D03*
X104200000Y-91303440D03*
X104200000Y-88763440D03*
X104200000Y-86223440D03*
X104200000Y-83683440D03*
X104200000Y-81143440D03*
X104200000Y-78603440D03*
X104200000Y-76063440D03*
X104200000Y-73523440D03*
X104200000Y-70983440D03*
X129596320Y-70986160D03*
X129596320Y-73526160D03*
X129600000Y-76063440D03*
X129600000Y-78603440D03*
X129600000Y-81143440D03*
X129600000Y-83683440D03*
X129600000Y-86223440D03*
X129600000Y-88763440D03*
X129600000Y-91303440D03*
X129600000Y-93843440D03*
X129600000Y-96383440D03*
X129600000Y-98923440D03*
X129600000Y-101463440D03*
X129600000Y-104003440D03*
X129600000Y-106543440D03*
X129600000Y-109083440D03*
X129600000Y-111623440D03*
X129600000Y-114163440D03*
X129600000Y-116703440D03*
D29*
X177950000Y-67770000D03*
D30*
X162150000Y-70310000D03*
D31*
X162150000Y-67770000D03*
X162150000Y-65230000D03*
D29*
X219130000Y-67860000D03*
D30*
X203330000Y-70400000D03*
D31*
X203330000Y-67860000D03*
X203330000Y-65320000D03*
D32*
X136700000Y-102350000D03*
D33*
X136700000Y-104850000D03*
X136700000Y-107350000D03*
X136700000Y-109850000D03*
M02*
