G04 #@! TF.GenerationSoftware,KiCad,Pcbnew,8.0.3*
G04 #@! TF.CreationDate,2024-07-01T22:09:14+02:00*
G04 #@! TF.ProjectId,VFO na esp32,56464f20-6e61-4206-9573-7033322e6b69,rev?*
G04 #@! TF.SameCoordinates,Original*
G04 #@! TF.FileFunction,Copper,L2,Bot*
G04 #@! TF.FilePolarity,Positive*
%FSLAX46Y46*%
G04 Gerber Fmt 4.6, Leading zero omitted, Abs format (unit mm)*
G04 Created by KiCad (PCBNEW 8.0.3) date 2024-07-01 22:09:14*
%MOMM*%
%LPD*%
G01*
G04 APERTURE LIST*
G04 Aperture macros list*
%AMRoundRect*
0 Rectangle with rounded corners*
0 $1 Rounding radius*
0 $2 $3 $4 $5 $6 $7 $8 $9 X,Y pos of 4 corners*
0 Add a 4 corners polygon primitive as box body*
4,1,4,$2,$3,$4,$5,$6,$7,$8,$9,$2,$3,0*
0 Add four circle primitives for the rounded corners*
1,1,$1+$1,$2,$3*
1,1,$1+$1,$4,$5*
1,1,$1+$1,$6,$7*
1,1,$1+$1,$8,$9*
0 Add four rect primitives between the rounded corners*
20,1,$1+$1,$2,$3,$4,$5,0*
20,1,$1+$1,$4,$5,$6,$7,0*
20,1,$1+$1,$6,$7,$8,$9,0*
20,1,$1+$1,$8,$9,$2,$3,0*%
G04 Aperture macros list end*
G04 #@! TA.AperFunction,ComponentPad*
%ADD10R,1.600000X1.600000*%
G04 #@! TD*
G04 #@! TA.AperFunction,ComponentPad*
%ADD11C,1.600000*%
G04 #@! TD*
G04 #@! TA.AperFunction,ComponentPad*
%ADD12C,2.200000*%
G04 #@! TD*
G04 #@! TA.AperFunction,ComponentPad*
%ADD13R,1.700000X1.700000*%
G04 #@! TD*
G04 #@! TA.AperFunction,ComponentPad*
%ADD14O,1.700000X1.700000*%
G04 #@! TD*
G04 #@! TA.AperFunction,ComponentPad*
%ADD15C,5.000000*%
G04 #@! TD*
G04 #@! TA.AperFunction,ComponentPad*
%ADD16O,1.600000X1.600000*%
G04 #@! TD*
G04 #@! TA.AperFunction,ComponentPad*
%ADD17C,7.000000*%
G04 #@! TD*
G04 #@! TA.AperFunction,ComponentPad*
%ADD18R,2.000000X2.000000*%
G04 #@! TD*
G04 #@! TA.AperFunction,ComponentPad*
%ADD19C,2.000000*%
G04 #@! TD*
G04 #@! TA.AperFunction,ComponentPad*
%ADD20R,3.200000X2.000000*%
G04 #@! TD*
G04 #@! TA.AperFunction,ComponentPad*
%ADD21R,2.400000X2.400000*%
G04 #@! TD*
G04 #@! TA.AperFunction,ComponentPad*
%ADD22O,2.400000X2.400000*%
G04 #@! TD*
G04 #@! TA.AperFunction,ComponentPad*
%ADD23RoundRect,0.250000X0.750000X-0.600000X0.750000X0.600000X-0.750000X0.600000X-0.750000X-0.600000X0*%
G04 #@! TD*
G04 #@! TA.AperFunction,ComponentPad*
%ADD24O,2.000000X1.700000*%
G04 #@! TD*
G04 #@! TA.AperFunction,ComponentPad*
%ADD25RoundRect,0.250000X0.600000X0.750000X-0.600000X0.750000X-0.600000X-0.750000X0.600000X-0.750000X0*%
G04 #@! TD*
G04 #@! TA.AperFunction,ComponentPad*
%ADD26O,1.700000X2.000000*%
G04 #@! TD*
G04 #@! TA.AperFunction,ComponentPad*
%ADD27R,2.000000X1.200000*%
G04 #@! TD*
G04 #@! TA.AperFunction,ComponentPad*
%ADD28O,2.000000X1.200000*%
G04 #@! TD*
G04 #@! TA.AperFunction,ComponentPad*
%ADD29R,2.000000X1.905000*%
G04 #@! TD*
G04 #@! TA.AperFunction,ComponentPad*
%ADD30O,2.000000X1.905000*%
G04 #@! TD*
G04 #@! TA.AperFunction,SMDPad,CuDef*
%ADD31RoundRect,0.250000X0.475000X-0.337500X0.475000X0.337500X-0.475000X0.337500X-0.475000X-0.337500X0*%
G04 #@! TD*
G04 #@! TA.AperFunction,SMDPad,CuDef*
%ADD32RoundRect,0.250000X0.337500X0.475000X-0.337500X0.475000X-0.337500X-0.475000X0.337500X-0.475000X0*%
G04 #@! TD*
G04 #@! TA.AperFunction,SMDPad,CuDef*
%ADD33RoundRect,0.250000X-0.475000X0.337500X-0.475000X-0.337500X0.475000X-0.337500X0.475000X0.337500X0*%
G04 #@! TD*
G04 #@! TA.AperFunction,SMDPad,CuDef*
%ADD34RoundRect,0.250000X0.350000X0.450000X-0.350000X0.450000X-0.350000X-0.450000X0.350000X-0.450000X0*%
G04 #@! TD*
G04 #@! TA.AperFunction,ComponentPad*
%ADD35RoundRect,0.250000X-0.725000X0.600000X-0.725000X-0.600000X0.725000X-0.600000X0.725000X0.600000X0*%
G04 #@! TD*
G04 #@! TA.AperFunction,ComponentPad*
%ADD36O,1.950000X1.700000*%
G04 #@! TD*
G04 #@! TA.AperFunction,Conductor*
%ADD37C,0.500000*%
G04 #@! TD*
G04 #@! TA.AperFunction,Conductor*
%ADD38C,1.000000*%
G04 #@! TD*
G04 APERTURE END LIST*
D10*
X113800000Y-67900000D03*
D11*
X113800000Y-62900000D03*
D12*
X154100000Y-84300000D03*
X154100000Y-86840000D03*
X154100000Y-89380000D03*
X154100000Y-91920000D03*
X154100000Y-94460000D03*
X154100000Y-97000000D03*
X154100000Y-99540000D03*
X154100000Y-102080000D03*
D10*
X146900000Y-99600000D03*
D11*
X146900000Y-104600000D03*
D10*
X156070000Y-70307349D03*
D11*
X156070000Y-73807349D03*
D13*
X141970000Y-70155000D03*
D14*
X141970000Y-67615000D03*
X141970000Y-65075000D03*
D15*
X239000000Y-129000000D03*
D11*
X176400000Y-95700000D03*
D16*
X176400000Y-105700000D03*
D10*
X108200000Y-124400000D03*
D11*
X113200000Y-124400000D03*
D15*
X102000000Y-66000000D03*
D17*
X177950000Y-67810000D03*
D13*
X154125000Y-84325000D03*
D14*
X154125000Y-86865000D03*
X154125000Y-89405000D03*
X154125000Y-91945000D03*
X154125000Y-94485000D03*
X154125000Y-97025000D03*
X154125000Y-99565000D03*
X154125000Y-102105000D03*
D18*
X225850000Y-90700000D03*
D19*
X225850000Y-95700000D03*
X225850000Y-93200000D03*
D20*
X233350000Y-87600000D03*
X233350000Y-98800000D03*
D19*
X240350000Y-95700000D03*
X240350000Y-90700000D03*
X159700000Y-126610000D03*
X153200000Y-126610000D03*
X159700000Y-122110000D03*
X153200000Y-122110000D03*
X190730000Y-126700000D03*
X184230000Y-126700000D03*
X190730000Y-122200000D03*
X184230000Y-122200000D03*
D21*
X183500000Y-72720000D03*
D22*
X193660000Y-72720000D03*
D10*
X156360000Y-62360000D03*
D11*
X156360000Y-67360000D03*
D23*
X224670000Y-77460000D03*
D24*
X224670000Y-74960000D03*
D11*
X146600000Y-94580000D03*
D16*
X146600000Y-84420000D03*
D19*
X175200000Y-126670000D03*
X168700000Y-126670000D03*
X175200000Y-122170000D03*
X168700000Y-122170000D03*
D11*
X163050000Y-90670000D03*
D16*
X173210000Y-90670000D03*
D25*
X190600000Y-66360000D03*
D26*
X188100000Y-66360000D03*
D17*
X219150000Y-67830000D03*
D10*
X215260000Y-74890000D03*
D11*
X215260000Y-79890000D03*
D15*
X203000000Y-80100000D03*
D10*
X137400000Y-97900000D03*
D11*
X137400000Y-92900000D03*
D15*
X239000000Y-66000000D03*
D11*
X176400000Y-80720000D03*
D16*
X176400000Y-90720000D03*
D15*
X102000000Y-129000000D03*
D10*
X198950000Y-71950000D03*
D11*
X198950000Y-68450000D03*
D10*
X146910000Y-108770000D03*
D11*
X146910000Y-113770000D03*
X173200000Y-95700000D03*
D16*
X163040000Y-95700000D03*
D15*
X202900000Y-106700000D03*
D19*
X206290000Y-126670000D03*
X199790000Y-126670000D03*
X206290000Y-122170000D03*
X199790000Y-122170000D03*
D27*
X104200000Y-116703440D03*
D28*
X104200000Y-114163440D03*
X104200000Y-111623440D03*
X104200000Y-109083440D03*
X104200000Y-106543440D03*
X104200000Y-104003440D03*
X104200000Y-101463440D03*
X104200000Y-98923440D03*
X104200000Y-96383440D03*
X104200000Y-93843440D03*
X104200000Y-91303440D03*
X104200000Y-88763440D03*
X104200000Y-86223440D03*
X104200000Y-83683440D03*
X104200000Y-81143440D03*
X104200000Y-78603440D03*
X104200000Y-76063440D03*
X104200000Y-73523440D03*
X104200000Y-70983440D03*
X129596320Y-70986160D03*
X129596320Y-73526160D03*
X129600000Y-76063440D03*
X129600000Y-78603440D03*
X129600000Y-81143440D03*
X129600000Y-83683440D03*
X129600000Y-86223440D03*
X129600000Y-88763440D03*
X129600000Y-91303440D03*
X129600000Y-93843440D03*
X129600000Y-96383440D03*
X129600000Y-98923440D03*
X129600000Y-101463440D03*
X129600000Y-104003440D03*
X129600000Y-106543440D03*
X129600000Y-109083440D03*
X129600000Y-111623440D03*
X129600000Y-114163440D03*
X129600000Y-116703440D03*
D29*
X162150000Y-70310000D03*
D30*
X162150000Y-67770000D03*
X162150000Y-65230000D03*
D31*
X196280000Y-69517500D03*
X196280000Y-67442500D03*
D32*
X200057500Y-65340000D03*
X197982500Y-65340000D03*
D33*
X142000000Y-102852500D03*
X142000000Y-104927500D03*
X109600000Y-117162500D03*
X109600000Y-119237500D03*
D29*
X203330000Y-70400000D03*
D30*
X203330000Y-67860000D03*
X203330000Y-65320000D03*
D34*
X143690000Y-107360000D03*
X141690000Y-107360000D03*
X143690000Y-109860000D03*
X141690000Y-109860000D03*
D33*
X162000000Y-74662500D03*
X162000000Y-76737500D03*
X153520000Y-65642500D03*
X153520000Y-67717500D03*
X158700000Y-99862500D03*
X158700000Y-101937500D03*
X110000000Y-68562500D03*
X110000000Y-70637500D03*
D35*
X136700000Y-102350000D03*
D36*
X136700000Y-104850000D03*
X136700000Y-107350000D03*
X136700000Y-109850000D03*
D37*
X200450000Y-126750000D02*
X200550000Y-126650000D01*
X240550000Y-90600000D02*
X240600000Y-90600000D01*
X184150000Y-126550000D02*
X184350000Y-126750000D01*
D38*
X199600000Y-72400000D02*
X201600000Y-70400000D01*
X196400000Y-75600000D02*
X187090000Y-75600000D01*
X196517500Y-69517500D02*
X198950000Y-71950000D01*
X162150000Y-70310000D02*
X162150000Y-74512500D01*
X161840000Y-70360000D02*
X156122651Y-70360000D01*
X183500000Y-72720000D02*
X183500000Y-73750000D01*
X184210000Y-72720000D02*
X183500000Y-72720000D01*
X183500000Y-73750000D02*
X182550000Y-74700000D01*
X201600000Y-70400000D02*
X203090000Y-70400000D01*
X187090000Y-75600000D02*
X184210000Y-72720000D01*
X182550000Y-74700000D02*
X162037500Y-74700000D01*
X199600000Y-72400000D02*
X196400000Y-75600000D01*
X162150000Y-74512500D02*
X162000000Y-74662500D01*
X156122651Y-70360000D02*
X156070000Y-70307349D01*
X196280000Y-69517500D02*
X196517500Y-69517500D01*
X162120000Y-65230000D02*
X159490000Y-62600000D01*
X141915000Y-102500000D02*
X137450000Y-102500000D01*
X160200000Y-98500000D02*
X160200000Y-81300000D01*
X144800000Y-97800000D02*
X138300000Y-97800000D01*
X162150000Y-65230000D02*
X162120000Y-65230000D01*
X154180000Y-65100000D02*
X149500000Y-65100000D01*
X156680000Y-62600000D02*
X154180000Y-65100000D01*
X146960000Y-99540000D02*
X146900000Y-99600000D01*
X159490000Y-62600000D02*
X156680000Y-62600000D01*
X159275000Y-99425000D02*
X160200000Y-98500000D01*
X142140000Y-65100000D02*
X142100000Y-65060000D01*
X136800000Y-98100000D02*
X136800000Y-102400000D01*
X138300000Y-97800000D02*
X137100000Y-97800000D01*
X154100000Y-99540000D02*
X146960000Y-99540000D01*
X137100000Y-97800000D02*
X136800000Y-98100000D01*
X160200000Y-81300000D02*
X149500000Y-70600000D01*
X158560000Y-99565000D02*
X158700000Y-99425000D01*
X149500000Y-70600000D02*
X149500000Y-65100000D01*
X142000000Y-102415000D02*
X141915000Y-102500000D01*
X158700000Y-99425000D02*
X159275000Y-99425000D01*
X146600000Y-99600000D02*
X144800000Y-97800000D01*
X146900000Y-99600000D02*
X146600000Y-99600000D01*
X154125000Y-99565000D02*
X158560000Y-99565000D01*
X149500000Y-65100000D02*
X142140000Y-65100000D01*
X103700000Y-117203440D02*
X104200000Y-116703440D01*
D37*
X143690000Y-109860000D02*
X143690000Y-107360000D01*
D38*
X104200000Y-116703440D02*
X109828440Y-116703440D01*
X104328440Y-116575000D02*
X104200000Y-116703440D01*
D37*
X145500000Y-107360000D02*
X143690000Y-107360000D01*
D38*
X104196560Y-116700000D02*
X104200000Y-116703440D01*
D37*
X146910000Y-108770000D02*
X145500000Y-107360000D01*
X109828440Y-116703440D02*
X109900000Y-116775000D01*
X104503440Y-116703440D02*
X104631880Y-116575000D01*
D38*
X103700000Y-119900000D02*
X103700000Y-117203440D01*
X104631880Y-116575000D02*
X104328440Y-116575000D01*
D37*
X104200000Y-116703440D02*
X104503440Y-116703440D01*
D38*
X108200000Y-124400000D02*
X103700000Y-119900000D01*
X205580000Y-73530000D02*
X207010000Y-74960000D01*
X207010000Y-74960000D02*
X224670000Y-74960000D01*
X205580000Y-65930000D02*
X205580000Y-73530000D01*
X200117500Y-65320000D02*
X204970000Y-65320000D01*
X204970000Y-65320000D02*
X205580000Y-65930000D01*
X199997500Y-65440000D02*
X200117500Y-65320000D01*
D37*
X173230000Y-90760000D02*
X173290000Y-90700000D01*
D38*
X173290000Y-90700000D02*
X225850000Y-90700000D01*
X225850000Y-95700000D02*
X173380000Y-95700000D01*
X193660000Y-72720000D02*
X192230000Y-72720000D01*
X193780000Y-72840000D02*
X193660000Y-72720000D01*
X190600000Y-71090000D02*
X190600000Y-66360000D01*
X192230000Y-72720000D02*
X190600000Y-71090000D01*
D37*
X153125000Y-97025000D02*
X154125000Y-97025000D01*
X145900000Y-89800000D02*
X153125000Y-97025000D01*
X136800000Y-89800000D02*
X145900000Y-89800000D01*
X130216560Y-96383440D02*
X136800000Y-89800000D01*
X129600000Y-96383440D02*
X130216560Y-96383440D01*
X153900000Y-94680000D02*
X153820000Y-94600000D01*
X129600000Y-81143440D02*
X155543440Y-81143440D01*
X157100000Y-87600000D02*
X155295000Y-89405000D01*
X155543440Y-81143440D02*
X157100000Y-82700000D01*
X157100000Y-82700000D02*
X157100000Y-87600000D01*
X155295000Y-89405000D02*
X154125000Y-89405000D01*
X155555000Y-91945000D02*
X154125000Y-91945000D01*
X155003440Y-78603440D02*
X158500000Y-82100000D01*
X158500000Y-89000000D02*
X155555000Y-91945000D01*
X129600000Y-78603440D02*
X155003440Y-78603440D01*
X158500000Y-82100000D02*
X158500000Y-89000000D01*
X166470000Y-124400000D02*
X168700000Y-122170000D01*
X112200000Y-115300000D02*
X121300000Y-124400000D01*
D38*
X175200000Y-122170000D02*
X168700000Y-122170000D01*
D37*
X121300000Y-124400000D02*
X166470000Y-124400000D01*
X107963440Y-101463440D02*
X112200000Y-105700000D01*
X240350000Y-102850000D02*
X218600000Y-124600000D01*
X177630000Y-124600000D02*
X175200000Y-122170000D01*
X112200000Y-105700000D02*
X112200000Y-115300000D01*
X104200000Y-101463440D02*
X107963440Y-101463440D01*
X218600000Y-124600000D02*
X177630000Y-124600000D01*
X240550000Y-95600000D02*
X240600000Y-95650000D01*
X240350000Y-95700000D02*
X240350000Y-102850000D01*
X191220000Y-122000000D02*
X191120000Y-121900000D01*
X108943440Y-93843440D02*
X117800000Y-102700000D01*
X117800000Y-102700000D02*
X117800000Y-114100000D01*
X180000000Y-118900000D02*
X180930000Y-118900000D01*
X147450000Y-122050000D02*
X150590000Y-118910000D01*
X104200000Y-93843440D02*
X108943440Y-93843440D01*
D38*
X190730000Y-122200000D02*
X184230000Y-122200000D01*
D37*
X125750000Y-122050000D02*
X147450000Y-122050000D01*
X150590000Y-118910000D02*
X179990000Y-118910000D01*
X179990000Y-118910000D02*
X180000000Y-118900000D01*
X117800000Y-114100000D02*
X125750000Y-122050000D01*
X180930000Y-118900000D02*
X184230000Y-122200000D01*
X148800000Y-117200000D02*
X194700000Y-117200000D01*
X194700000Y-117200000D02*
X199670000Y-122170000D01*
X120700000Y-102700000D02*
X120700000Y-114000000D01*
D38*
X206290000Y-122170000D02*
X199790000Y-122170000D01*
D37*
X200910000Y-122000000D02*
X200810000Y-121900000D01*
X127400000Y-120700000D02*
X145300000Y-120700000D01*
X109303440Y-91303440D02*
X120700000Y-102700000D01*
X200810000Y-121900000D02*
X200800000Y-121900000D01*
X120700000Y-114000000D02*
X127400000Y-120700000D01*
X199670000Y-122170000D02*
X199790000Y-122170000D01*
X145300000Y-120700000D02*
X148800000Y-117200000D01*
X104200000Y-91303440D02*
X109303440Y-91303440D01*
X104200000Y-96383440D02*
X108883440Y-96383440D01*
X115000000Y-114300000D02*
X123900000Y-123200000D01*
X123900000Y-123200000D02*
X152110000Y-123200000D01*
X152110000Y-123200000D02*
X153200000Y-122110000D01*
D38*
X159700000Y-122110000D02*
X154290000Y-122110000D01*
D37*
X115000000Y-102500000D02*
X115000000Y-114300000D01*
X108883440Y-96383440D02*
X115000000Y-102500000D01*
X153200000Y-122110000D02*
X154290000Y-122110000D01*
X146580000Y-84400000D02*
X154000000Y-84400000D01*
X153900000Y-84520000D02*
X153680000Y-84520000D01*
X146400000Y-84220000D02*
X146580000Y-84400000D01*
X154000000Y-84400000D02*
X154100000Y-84300000D01*
X130356560Y-93843440D02*
X129600000Y-93843440D01*
X152960000Y-86840000D02*
X151200000Y-88600000D01*
X151200000Y-88600000D02*
X135600000Y-88600000D01*
X135600000Y-88600000D02*
X130356560Y-93843440D01*
X154100000Y-86840000D02*
X152960000Y-86840000D01*
D38*
X104200000Y-70850000D02*
X104200000Y-70983440D01*
X142100000Y-67500000D02*
X142000000Y-67600000D01*
X107450000Y-67600000D02*
X104200000Y-70850000D01*
X115400000Y-67600000D02*
X107450000Y-67600000D01*
X142000000Y-67600000D02*
X114200000Y-67600000D01*
D37*
X141680000Y-107350000D02*
X141690000Y-107360000D01*
X129600000Y-104003440D02*
X130403440Y-104003440D01*
X130403440Y-104003440D02*
X133800000Y-107400000D01*
X136700000Y-107350000D02*
X141680000Y-107350000D01*
X133800000Y-107400000D02*
X136800000Y-107400000D01*
X141680000Y-109850000D02*
X141690000Y-109860000D01*
X141690000Y-109860000D02*
X140630000Y-109860000D01*
X135076560Y-111623440D02*
X136800000Y-109900000D01*
X136700000Y-109850000D02*
X141680000Y-109850000D01*
X140630000Y-109860000D02*
X140610000Y-109840000D01*
X129600000Y-111623440D02*
X135076560Y-111623440D01*
G04 #@! TA.AperFunction,Conductor*
G36*
X245342539Y-60820185D02*
G01*
X245388294Y-60872989D01*
X245399500Y-60924500D01*
X245399500Y-134675500D01*
X245379815Y-134742539D01*
X245327011Y-134788294D01*
X245275500Y-134799500D01*
X96524500Y-134799500D01*
X96457461Y-134779815D01*
X96411706Y-134727011D01*
X96400500Y-134675500D01*
X96400500Y-119998543D01*
X102699499Y-119998543D01*
X102737947Y-120191829D01*
X102737950Y-120191839D01*
X102813364Y-120373907D01*
X102813371Y-120373920D01*
X102922860Y-120537781D01*
X102922863Y-120537785D01*
X103066537Y-120681459D01*
X103066559Y-120681479D01*
X106863181Y-124478101D01*
X106896666Y-124539424D01*
X106899500Y-124565782D01*
X106899500Y-125247870D01*
X106899501Y-125247876D01*
X106905908Y-125307483D01*
X106956202Y-125442328D01*
X106956206Y-125442335D01*
X107042452Y-125557544D01*
X107042455Y-125557547D01*
X107157664Y-125643793D01*
X107157671Y-125643797D01*
X107292517Y-125694091D01*
X107292516Y-125694091D01*
X107299444Y-125694835D01*
X107352127Y-125700500D01*
X109047872Y-125700499D01*
X109107483Y-125694091D01*
X109242331Y-125643796D01*
X109357546Y-125557546D01*
X109443796Y-125442331D01*
X109494091Y-125307483D01*
X109500500Y-125247873D01*
X109500499Y-123552128D01*
X109494091Y-123492517D01*
X109470950Y-123430474D01*
X109443797Y-123357671D01*
X109443793Y-123357664D01*
X109357547Y-123242455D01*
X109357544Y-123242452D01*
X109242335Y-123156206D01*
X109242328Y-123156202D01*
X109107482Y-123105908D01*
X109107483Y-123105908D01*
X109047883Y-123099501D01*
X109047881Y-123099500D01*
X109047873Y-123099500D01*
X109047865Y-123099500D01*
X108365782Y-123099500D01*
X108298743Y-123079815D01*
X108278101Y-123063181D01*
X104736819Y-119521899D01*
X104703334Y-119460576D01*
X104700500Y-119434218D01*
X104700500Y-117927939D01*
X104720185Y-117860900D01*
X104772989Y-117815145D01*
X104824500Y-117803939D01*
X105247871Y-117803939D01*
X105247872Y-117803939D01*
X105307483Y-117797531D01*
X105442331Y-117747236D01*
X105467128Y-117728673D01*
X105532592Y-117704256D01*
X105541439Y-117703940D01*
X108312407Y-117703940D01*
X108379446Y-117723625D01*
X108425201Y-117776429D01*
X108430112Y-117788934D01*
X108438798Y-117815145D01*
X108440186Y-117819334D01*
X108532288Y-117968656D01*
X108656344Y-118092712D01*
X108805666Y-118184814D01*
X108972203Y-118239999D01*
X109074991Y-118250500D01*
X110125008Y-118250499D01*
X110125016Y-118250498D01*
X110125019Y-118250498D01*
X110181302Y-118244748D01*
X110227797Y-118239999D01*
X110394334Y-118184814D01*
X110543656Y-118092712D01*
X110667712Y-117968656D01*
X110759814Y-117819334D01*
X110814999Y-117652797D01*
X110825500Y-117550009D01*
X110825499Y-116831492D01*
X110827883Y-116807297D01*
X110828940Y-116801984D01*
X110828940Y-116604896D01*
X110790492Y-116411610D01*
X110790491Y-116411609D01*
X110790491Y-116411605D01*
X110790489Y-116411600D01*
X110715075Y-116229532D01*
X110715068Y-116229519D01*
X110605579Y-116065658D01*
X110605576Y-116065654D01*
X110466225Y-115926303D01*
X110466221Y-115926300D01*
X110302360Y-115816811D01*
X110302347Y-115816804D01*
X110120279Y-115741390D01*
X110120269Y-115741387D01*
X109926983Y-115702940D01*
X109926981Y-115702940D01*
X105541439Y-115702940D01*
X105474400Y-115683255D01*
X105467128Y-115678207D01*
X105442331Y-115659644D01*
X105442328Y-115659642D01*
X105307482Y-115609348D01*
X105307483Y-115609348D01*
X105247883Y-115602941D01*
X105247881Y-115602940D01*
X105247873Y-115602940D01*
X105247865Y-115602940D01*
X104885608Y-115602940D01*
X104861417Y-115600557D01*
X104818378Y-115591996D01*
X104730423Y-115574500D01*
X104730421Y-115574500D01*
X104433115Y-115574500D01*
X104433095Y-115574499D01*
X104426981Y-115574499D01*
X104229900Y-115574499D01*
X104229896Y-115574499D01*
X104098895Y-115600557D01*
X104074704Y-115602940D01*
X103152129Y-115602940D01*
X103152123Y-115602941D01*
X103092516Y-115609348D01*
X102957671Y-115659642D01*
X102957664Y-115659646D01*
X102842455Y-115745892D01*
X102842452Y-115745895D01*
X102756206Y-115861104D01*
X102756202Y-115861111D01*
X102705908Y-115995957D01*
X102699501Y-116055556D01*
X102699500Y-116055567D01*
X102699500Y-117104894D01*
X102699500Y-117104899D01*
X102699500Y-119998541D01*
X102699500Y-119998543D01*
X102699499Y-119998543D01*
X96400500Y-119998543D01*
X96400500Y-114076829D01*
X102699500Y-114076829D01*
X102699500Y-114250050D01*
X102719118Y-114373918D01*
X102726598Y-114421141D01*
X102780127Y-114585885D01*
X102858768Y-114740228D01*
X102960586Y-114880368D01*
X103083072Y-115002854D01*
X103223212Y-115104672D01*
X103377555Y-115183313D01*
X103542299Y-115236842D01*
X103713389Y-115263940D01*
X103713390Y-115263940D01*
X104686610Y-115263940D01*
X104686611Y-115263940D01*
X104857701Y-115236842D01*
X105022445Y-115183313D01*
X105176788Y-115104672D01*
X105316928Y-115002854D01*
X105439414Y-114880368D01*
X105541232Y-114740228D01*
X105619873Y-114585885D01*
X105673402Y-114421141D01*
X105700500Y-114250051D01*
X105700500Y-114076829D01*
X105673402Y-113905739D01*
X105619873Y-113740995D01*
X105541232Y-113586652D01*
X105439414Y-113446512D01*
X105316928Y-113324026D01*
X105176788Y-113222208D01*
X105022445Y-113143567D01*
X104857701Y-113090038D01*
X104857699Y-113090037D01*
X104857698Y-113090037D01*
X104726271Y-113069221D01*
X104686611Y-113062940D01*
X103713389Y-113062940D01*
X103673728Y-113069221D01*
X103542302Y-113090037D01*
X103377552Y-113143568D01*
X103223211Y-113222208D01*
X103143256Y-113280299D01*
X103083072Y-113324026D01*
X103083070Y-113324028D01*
X103083069Y-113324028D01*
X102960588Y-113446509D01*
X102960588Y-113446510D01*
X102960586Y-113446512D01*
X102916859Y-113506696D01*
X102858768Y-113586651D01*
X102780128Y-113740992D01*
X102726597Y-113905742D01*
X102699500Y-114076829D01*
X96400500Y-114076829D01*
X96400500Y-111536829D01*
X102699500Y-111536829D01*
X102699500Y-111710051D01*
X102726598Y-111881141D01*
X102780127Y-112045885D01*
X102858768Y-112200228D01*
X102960586Y-112340368D01*
X103083072Y-112462854D01*
X103223212Y-112564672D01*
X103377555Y-112643313D01*
X103542299Y-112696842D01*
X103713389Y-112723940D01*
X103713390Y-112723940D01*
X104686610Y-112723940D01*
X104686611Y-112723940D01*
X104857701Y-112696842D01*
X105022445Y-112643313D01*
X105176788Y-112564672D01*
X105316928Y-112462854D01*
X105439414Y-112340368D01*
X105541232Y-112200228D01*
X105619873Y-112045885D01*
X105673402Y-111881141D01*
X105700500Y-111710051D01*
X105700500Y-111536829D01*
X105673402Y-111365739D01*
X105619873Y-111200995D01*
X105541232Y-111046652D01*
X105439414Y-110906512D01*
X105316928Y-110784026D01*
X105176788Y-110682208D01*
X105022445Y-110603567D01*
X104857701Y-110550038D01*
X104857699Y-110550037D01*
X104857698Y-110550037D01*
X104726271Y-110529221D01*
X104686611Y-110522940D01*
X103713389Y-110522940D01*
X103673728Y-110529221D01*
X103542302Y-110550037D01*
X103377552Y-110603568D01*
X103223211Y-110682208D01*
X103157724Y-110729788D01*
X103083072Y-110784026D01*
X103083070Y-110784028D01*
X103083069Y-110784028D01*
X102960588Y-110906509D01*
X102960588Y-110906510D01*
X102960586Y-110906512D01*
X102916859Y-110966696D01*
X102858768Y-111046651D01*
X102780128Y-111200992D01*
X102726597Y-111365742D01*
X102699500Y-111536829D01*
X96400500Y-111536829D01*
X96400500Y-108996829D01*
X102699500Y-108996829D01*
X102699500Y-109170050D01*
X102713303Y-109257203D01*
X102726598Y-109341141D01*
X102780127Y-109505885D01*
X102858768Y-109660228D01*
X102960586Y-109800368D01*
X103083072Y-109922854D01*
X103223212Y-110024672D01*
X103377555Y-110103313D01*
X103542299Y-110156842D01*
X103713389Y-110183940D01*
X103713390Y-110183940D01*
X104686610Y-110183940D01*
X104686611Y-110183940D01*
X104857701Y-110156842D01*
X105022445Y-110103313D01*
X105176788Y-110024672D01*
X105316928Y-109922854D01*
X105439414Y-109800368D01*
X105541232Y-109660228D01*
X105619873Y-109505885D01*
X105673402Y-109341141D01*
X105700500Y-109170051D01*
X105700500Y-108996829D01*
X105673402Y-108825739D01*
X105619873Y-108660995D01*
X105541232Y-108506652D01*
X105439414Y-108366512D01*
X105316928Y-108244026D01*
X105176788Y-108142208D01*
X105022445Y-108063567D01*
X104857701Y-108010038D01*
X104857699Y-108010037D01*
X104857698Y-108010037D01*
X104726271Y-107989221D01*
X104686611Y-107982940D01*
X103713389Y-107982940D01*
X103673728Y-107989221D01*
X103542302Y-108010037D01*
X103377552Y-108063568D01*
X103223211Y-108142208D01*
X103185781Y-108169403D01*
X103083072Y-108244026D01*
X103083070Y-108244028D01*
X103083069Y-108244028D01*
X102960588Y-108366509D01*
X102960588Y-108366510D01*
X102960586Y-108366512D01*
X102934287Y-108402710D01*
X102858768Y-108506651D01*
X102780128Y-108660992D01*
X102726597Y-108825742D01*
X102699500Y-108996829D01*
X96400500Y-108996829D01*
X96400500Y-106456829D01*
X102699500Y-106456829D01*
X102699500Y-106630051D01*
X102707677Y-106681679D01*
X102722782Y-106777052D01*
X102726598Y-106801141D01*
X102780127Y-106965885D01*
X102858768Y-107120228D01*
X102960586Y-107260368D01*
X103083072Y-107382854D01*
X103223212Y-107484672D01*
X103377555Y-107563313D01*
X103542299Y-107616842D01*
X103713389Y-107643940D01*
X103713390Y-107643940D01*
X104686610Y-107643940D01*
X104686611Y-107643940D01*
X104857701Y-107616842D01*
X105022445Y-107563313D01*
X105176788Y-107484672D01*
X105316928Y-107382854D01*
X105439414Y-107260368D01*
X105541232Y-107120228D01*
X105619873Y-106965885D01*
X105673402Y-106801141D01*
X105700500Y-106630051D01*
X105700500Y-106456829D01*
X105673402Y-106285739D01*
X105619873Y-106120995D01*
X105541232Y-105966652D01*
X105439414Y-105826512D01*
X105316928Y-105704026D01*
X105176788Y-105602208D01*
X105022445Y-105523567D01*
X104857701Y-105470038D01*
X104857699Y-105470037D01*
X104857698Y-105470037D01*
X104726271Y-105449221D01*
X104686611Y-105442940D01*
X103713389Y-105442940D01*
X103673728Y-105449221D01*
X103542302Y-105470037D01*
X103377552Y-105523568D01*
X103223211Y-105602208D01*
X103190352Y-105626082D01*
X103083072Y-105704026D01*
X103083070Y-105704028D01*
X103083069Y-105704028D01*
X102960588Y-105826509D01*
X102960588Y-105826510D01*
X102960586Y-105826512D01*
X102947728Y-105844210D01*
X102858768Y-105966651D01*
X102780128Y-106120992D01*
X102726597Y-106285742D01*
X102721601Y-106317288D01*
X102699500Y-106456829D01*
X96400500Y-106456829D01*
X96400500Y-103916829D01*
X102699500Y-103916829D01*
X102699500Y-104090051D01*
X102726598Y-104261141D01*
X102780127Y-104425885D01*
X102858768Y-104580228D01*
X102960586Y-104720368D01*
X103083072Y-104842854D01*
X103223212Y-104944672D01*
X103377555Y-105023313D01*
X103542299Y-105076842D01*
X103713389Y-105103940D01*
X103713390Y-105103940D01*
X104686610Y-105103940D01*
X104686611Y-105103940D01*
X104857701Y-105076842D01*
X105022445Y-105023313D01*
X105176788Y-104944672D01*
X105316928Y-104842854D01*
X105439414Y-104720368D01*
X105541232Y-104580228D01*
X105619873Y-104425885D01*
X105673402Y-104261141D01*
X105700500Y-104090051D01*
X105700500Y-103916829D01*
X105673402Y-103745739D01*
X105619873Y-103580995D01*
X105541232Y-103426652D01*
X105439414Y-103286512D01*
X105316928Y-103164026D01*
X105176788Y-103062208D01*
X105022445Y-102983567D01*
X104857701Y-102930038D01*
X104857699Y-102930037D01*
X104857698Y-102930037D01*
X104726271Y-102909221D01*
X104686611Y-102902940D01*
X103713389Y-102902940D01*
X103673728Y-102909221D01*
X103542302Y-102930037D01*
X103377552Y-102983568D01*
X103223211Y-103062208D01*
X103167346Y-103102797D01*
X103083072Y-103164026D01*
X103083070Y-103164028D01*
X103083069Y-103164028D01*
X102960588Y-103286509D01*
X102960588Y-103286510D01*
X102960586Y-103286512D01*
X102930137Y-103328421D01*
X102858768Y-103426651D01*
X102780128Y-103580992D01*
X102726597Y-103745742D01*
X102699500Y-103916829D01*
X96400500Y-103916829D01*
X96400500Y-98836829D01*
X102699500Y-98836829D01*
X102699500Y-99010050D01*
X102720682Y-99143793D01*
X102726598Y-99181141D01*
X102780127Y-99345885D01*
X102858768Y-99500228D01*
X102960586Y-99640368D01*
X103083072Y-99762854D01*
X103223212Y-99864672D01*
X103377555Y-99943313D01*
X103542299Y-99996842D01*
X103713389Y-100023940D01*
X103713390Y-100023940D01*
X104686610Y-100023940D01*
X104686611Y-100023940D01*
X104857701Y-99996842D01*
X105022445Y-99943313D01*
X105176788Y-99864672D01*
X105316928Y-99762854D01*
X105439414Y-99640368D01*
X105541232Y-99500228D01*
X105619873Y-99345885D01*
X105673402Y-99181141D01*
X105700500Y-99010051D01*
X105700500Y-98836829D01*
X105673402Y-98665739D01*
X105619873Y-98500995D01*
X105541232Y-98346652D01*
X105439414Y-98206512D01*
X105316928Y-98084026D01*
X105176788Y-97982208D01*
X105022445Y-97903567D01*
X104857701Y-97850038D01*
X104857699Y-97850037D01*
X104857698Y-97850037D01*
X104726271Y-97829221D01*
X104686611Y-97822940D01*
X103713389Y-97822940D01*
X103673728Y-97829221D01*
X103542302Y-97850037D01*
X103377552Y-97903568D01*
X103223211Y-97982208D01*
X103196722Y-98001454D01*
X103083072Y-98084026D01*
X103083070Y-98084028D01*
X103083069Y-98084028D01*
X102960588Y-98206509D01*
X102960588Y-98206510D01*
X102960586Y-98206512D01*
X102940457Y-98234217D01*
X102858768Y-98346651D01*
X102780128Y-98500992D01*
X102726597Y-98665742D01*
X102699500Y-98836829D01*
X96400500Y-98836829D01*
X96400500Y-91216829D01*
X102699500Y-91216829D01*
X102699500Y-91390050D01*
X102718361Y-91509139D01*
X102726598Y-91561141D01*
X102779165Y-91722925D01*
X102780128Y-91725887D01*
X102817958Y-91800134D01*
X102858768Y-91880228D01*
X102960586Y-92020368D01*
X103083072Y-92142854D01*
X103223212Y-92244672D01*
X103377555Y-92323313D01*
X103542299Y-92376842D01*
X103713389Y-92403940D01*
X103713390Y-92403940D01*
X104686610Y-92403940D01*
X104686611Y-92403940D01*
X104857701Y-92376842D01*
X105022445Y-92323313D01*
X105176788Y-92244672D01*
X105316928Y-92142854D01*
X105369523Y-92090259D01*
X105430846Y-92056774D01*
X105457204Y-92053940D01*
X108941210Y-92053940D01*
X109008249Y-92073625D01*
X109028891Y-92090259D01*
X119913181Y-102974549D01*
X119946666Y-103035872D01*
X119949500Y-103062229D01*
X119949500Y-114073918D01*
X119949500Y-114073920D01*
X119949499Y-114073920D01*
X119978340Y-114218907D01*
X119978343Y-114218917D01*
X120034913Y-114355490D01*
X120034914Y-114355491D01*
X120034916Y-114355495D01*
X120047225Y-114373916D01*
X120047226Y-114373918D01*
X120117051Y-114478420D01*
X126726450Y-121087819D01*
X126759935Y-121149142D01*
X126754951Y-121218834D01*
X126713079Y-121274767D01*
X126647615Y-121299184D01*
X126638769Y-121299500D01*
X126112230Y-121299500D01*
X126045191Y-121279815D01*
X126024549Y-121263181D01*
X118586819Y-113825451D01*
X118553334Y-113764128D01*
X118550500Y-113737770D01*
X118550500Y-102626079D01*
X118521659Y-102481092D01*
X118521658Y-102481088D01*
X118521658Y-102481087D01*
X118473135Y-102363941D01*
X118465087Y-102344511D01*
X118465080Y-102344498D01*
X118382952Y-102221585D01*
X118341735Y-102180368D01*
X118278416Y-102117049D01*
X109421856Y-93260488D01*
X109421855Y-93260487D01*
X109421853Y-93260485D01*
X109367373Y-93224085D01*
X109347935Y-93211097D01*
X109298935Y-93178356D01*
X109298934Y-93178355D01*
X109298932Y-93178354D01*
X109298930Y-93178353D01*
X109162357Y-93121783D01*
X109162347Y-93121780D01*
X109017360Y-93092940D01*
X109017358Y-93092940D01*
X105457204Y-93092940D01*
X105390165Y-93073255D01*
X105369523Y-93056621D01*
X105316930Y-93004028D01*
X105316928Y-93004026D01*
X105176788Y-92902208D01*
X105022445Y-92823567D01*
X104857701Y-92770038D01*
X104857699Y-92770037D01*
X104857698Y-92770037D01*
X104726271Y-92749221D01*
X104686611Y-92742940D01*
X103713389Y-92742940D01*
X103673728Y-92749221D01*
X103542302Y-92770037D01*
X103377552Y-92823568D01*
X103223211Y-92902208D01*
X103143256Y-92960299D01*
X103083072Y-93004026D01*
X103083070Y-93004028D01*
X103083069Y-93004028D01*
X102960588Y-93126509D01*
X102960588Y-93126510D01*
X102960586Y-93126512D01*
X102922919Y-93178356D01*
X102858768Y-93266651D01*
X102780128Y-93420992D01*
X102726597Y-93585742D01*
X102703569Y-93731140D01*
X102699500Y-93756829D01*
X102699500Y-93930051D01*
X102726598Y-94101141D01*
X102780127Y-94265885D01*
X102858768Y-94420228D01*
X102960586Y-94560368D01*
X103083072Y-94682854D01*
X103223212Y-94784672D01*
X103377555Y-94863313D01*
X103542299Y-94916842D01*
X103713389Y-94943940D01*
X103713390Y-94943940D01*
X104686610Y-94943940D01*
X104686611Y-94943940D01*
X104857701Y-94916842D01*
X105022445Y-94863313D01*
X105176788Y-94784672D01*
X105316928Y-94682854D01*
X105369523Y-94630259D01*
X105430846Y-94596774D01*
X105457204Y-94593940D01*
X108581210Y-94593940D01*
X108648249Y-94613625D01*
X108668891Y-94630259D01*
X117013181Y-102974548D01*
X117046666Y-103035871D01*
X117049500Y-103062229D01*
X117049500Y-114173918D01*
X117049500Y-114173920D01*
X117049499Y-114173920D01*
X117078340Y-114318907D01*
X117078343Y-114318917D01*
X117134914Y-114455492D01*
X117167812Y-114504727D01*
X117167813Y-114504730D01*
X117217046Y-114578414D01*
X117217052Y-114578421D01*
X124876451Y-122237819D01*
X124909936Y-122299142D01*
X124904952Y-122368834D01*
X124863080Y-122424767D01*
X124797616Y-122449184D01*
X124788770Y-122449500D01*
X124262230Y-122449500D01*
X124195191Y-122429815D01*
X124174549Y-122413181D01*
X115786819Y-114025451D01*
X115753334Y-113964128D01*
X115750500Y-113937770D01*
X115750500Y-102426079D01*
X115721659Y-102281092D01*
X115721658Y-102281091D01*
X115721658Y-102281087D01*
X115710406Y-102253922D01*
X115665087Y-102144511D01*
X115665080Y-102144498D01*
X115582952Y-102021585D01*
X115582951Y-102021584D01*
X115478416Y-101917049D01*
X109361856Y-95800488D01*
X109361855Y-95800487D01*
X109361853Y-95800485D01*
X109309916Y-95765784D01*
X109287935Y-95751097D01*
X109238935Y-95718356D01*
X109238934Y-95718355D01*
X109238932Y-95718354D01*
X109238930Y-95718353D01*
X109102357Y-95661783D01*
X109102347Y-95661780D01*
X108957360Y-95632940D01*
X108957358Y-95632940D01*
X105457204Y-95632940D01*
X105390165Y-95613255D01*
X105369523Y-95596621D01*
X105316930Y-95544028D01*
X105316928Y-95544026D01*
X105176788Y-95442208D01*
X105022445Y-95363567D01*
X104857701Y-95310038D01*
X104857699Y-95310037D01*
X104857698Y-95310037D01*
X104726271Y-95289221D01*
X104686611Y-95282940D01*
X103713389Y-95282940D01*
X103673728Y-95289221D01*
X103542302Y-95310037D01*
X103377552Y-95363568D01*
X103223211Y-95442208D01*
X103143256Y-95500299D01*
X103083072Y-95544026D01*
X103083070Y-95544028D01*
X103083069Y-95544028D01*
X102960588Y-95666509D01*
X102960588Y-95666510D01*
X102960586Y-95666512D01*
X102922919Y-95718356D01*
X102858768Y-95806651D01*
X102780128Y-95960992D01*
X102726597Y-96125742D01*
X102699500Y-96296829D01*
X102699500Y-96470050D01*
X102721017Y-96605908D01*
X102726598Y-96641141D01*
X102778052Y-96799500D01*
X102780128Y-96805887D01*
X102796463Y-96837947D01*
X102858768Y-96960228D01*
X102960586Y-97100368D01*
X103083072Y-97222854D01*
X103223212Y-97324672D01*
X103377555Y-97403313D01*
X103542299Y-97456842D01*
X103713389Y-97483940D01*
X103713390Y-97483940D01*
X104686610Y-97483940D01*
X104686611Y-97483940D01*
X104857701Y-97456842D01*
X105022445Y-97403313D01*
X105176788Y-97324672D01*
X105316928Y-97222854D01*
X105369523Y-97170259D01*
X105430846Y-97136774D01*
X105457204Y-97133940D01*
X108521210Y-97133940D01*
X108588249Y-97153625D01*
X108608891Y-97170259D01*
X114213181Y-102774548D01*
X114246666Y-102835871D01*
X114249500Y-102862229D01*
X114249500Y-114373918D01*
X114278340Y-114518907D01*
X114278343Y-114518917D01*
X114334914Y-114655492D01*
X114367812Y-114704727D01*
X114367813Y-114704730D01*
X114417046Y-114778414D01*
X114417052Y-114778421D01*
X123076451Y-123437819D01*
X123109936Y-123499142D01*
X123104952Y-123568834D01*
X123063080Y-123624767D01*
X122997616Y-123649184D01*
X122988770Y-123649500D01*
X121662229Y-123649500D01*
X121595190Y-123629815D01*
X121574548Y-123613181D01*
X112986819Y-115025451D01*
X112953334Y-114964128D01*
X112950500Y-114937770D01*
X112950500Y-105626081D01*
X112944763Y-105597242D01*
X112944763Y-105597240D01*
X112930109Y-105523568D01*
X112921659Y-105481088D01*
X112867408Y-105350117D01*
X112865764Y-105345522D01*
X112782954Y-105221588D01*
X112782953Y-105221587D01*
X112782951Y-105221584D01*
X112678416Y-105117049D01*
X111651417Y-104090050D01*
X108441861Y-100880492D01*
X108441854Y-100880486D01*
X108368169Y-100831252D01*
X108368169Y-100831253D01*
X108318931Y-100798353D01*
X108182357Y-100741783D01*
X108182347Y-100741780D01*
X108037360Y-100712940D01*
X108037358Y-100712940D01*
X105457204Y-100712940D01*
X105390165Y-100693255D01*
X105369523Y-100676621D01*
X105316930Y-100624028D01*
X105316928Y-100624026D01*
X105176788Y-100522208D01*
X105022445Y-100443567D01*
X104857701Y-100390038D01*
X104857699Y-100390037D01*
X104857698Y-100390037D01*
X104726271Y-100369221D01*
X104686611Y-100362940D01*
X103713389Y-100362940D01*
X103673728Y-100369221D01*
X103542302Y-100390037D01*
X103377552Y-100443568D01*
X103223211Y-100522208D01*
X103198035Y-100540500D01*
X103083072Y-100624026D01*
X103083070Y-100624028D01*
X103083069Y-100624028D01*
X102960588Y-100746509D01*
X102960588Y-100746510D01*
X102960586Y-100746512D01*
X102952569Y-100757547D01*
X102858768Y-100886651D01*
X102780128Y-101040992D01*
X102726597Y-101205742D01*
X102699500Y-101376829D01*
X102699500Y-101550050D01*
X102713407Y-101637860D01*
X102726598Y-101721141D01*
X102780127Y-101885885D01*
X102858768Y-102040228D01*
X102960586Y-102180368D01*
X103083072Y-102302854D01*
X103223212Y-102404672D01*
X103377555Y-102483313D01*
X103542299Y-102536842D01*
X103713389Y-102563940D01*
X103713390Y-102563940D01*
X104686610Y-102563940D01*
X104686611Y-102563940D01*
X104857701Y-102536842D01*
X105022445Y-102483313D01*
X105176788Y-102404672D01*
X105316928Y-102302854D01*
X105369523Y-102250259D01*
X105430846Y-102216774D01*
X105457204Y-102213940D01*
X107601210Y-102213940D01*
X107668249Y-102233625D01*
X107688891Y-102250259D01*
X111413181Y-105974548D01*
X111446666Y-106035871D01*
X111449500Y-106062229D01*
X111449500Y-115373918D01*
X111449500Y-115373920D01*
X111449499Y-115373920D01*
X111478340Y-115518907D01*
X111478343Y-115518917D01*
X111534912Y-115655488D01*
X111534917Y-115655497D01*
X111542237Y-115666452D01*
X111556879Y-115688365D01*
X111556880Y-115688368D01*
X111617046Y-115778414D01*
X111617052Y-115778421D01*
X118446646Y-122608013D01*
X120717048Y-124878415D01*
X120717049Y-124878416D01*
X120821583Y-124982950D01*
X120821585Y-124982952D01*
X120944498Y-125065080D01*
X120944511Y-125065087D01*
X121081082Y-125121656D01*
X121081087Y-125121658D01*
X121081091Y-125121658D01*
X121081092Y-125121659D01*
X121226079Y-125150500D01*
X121226082Y-125150500D01*
X166543920Y-125150500D01*
X166641462Y-125131096D01*
X166688913Y-125121658D01*
X166825495Y-125065084D01*
X166874729Y-125032186D01*
X166948416Y-124982952D01*
X168260752Y-123670613D01*
X168322073Y-123637130D01*
X168368836Y-123635987D01*
X168575665Y-123670500D01*
X168575666Y-123670500D01*
X168824335Y-123670500D01*
X169069614Y-123629571D01*
X169304810Y-123548828D01*
X169523509Y-123430474D01*
X169719744Y-123277738D01*
X169754008Y-123240517D01*
X169781626Y-123210517D01*
X169841513Y-123174526D01*
X169872855Y-123170500D01*
X174027145Y-123170500D01*
X174094184Y-123190185D01*
X174118374Y-123210517D01*
X174180252Y-123277734D01*
X174180256Y-123277738D01*
X174376491Y-123430474D01*
X174595190Y-123548828D01*
X174830386Y-123629571D01*
X175075665Y-123670500D01*
X175324335Y-123670500D01*
X175389830Y-123659571D01*
X175531158Y-123635988D01*
X175600523Y-123644370D01*
X175639248Y-123670616D01*
X177151586Y-125182954D01*
X177181058Y-125202645D01*
X177225270Y-125232186D01*
X177274505Y-125265084D01*
X177274506Y-125265084D01*
X177274507Y-125265085D01*
X177274509Y-125265086D01*
X177376863Y-125307482D01*
X177411087Y-125321658D01*
X177411091Y-125321658D01*
X177411092Y-125321659D01*
X177556079Y-125350500D01*
X177556082Y-125350500D01*
X218673920Y-125350500D01*
X218771462Y-125331096D01*
X218818913Y-125321658D01*
X218955495Y-125265084D01*
X219004729Y-125232186D01*
X219004734Y-125232183D01*
X219029071Y-125215921D01*
X219078416Y-125182952D01*
X240932952Y-103328416D01*
X240985013Y-103250500D01*
X241015084Y-103205495D01*
X241071658Y-103068913D01*
X241100500Y-102923918D01*
X241100500Y-97073872D01*
X241120185Y-97006833D01*
X241165487Y-96964815D01*
X241173509Y-96960474D01*
X241369744Y-96807738D01*
X241538164Y-96624785D01*
X241674173Y-96416607D01*
X241774063Y-96188881D01*
X241835108Y-95947821D01*
X241835109Y-95947812D01*
X241855643Y-95700005D01*
X241855643Y-95699994D01*
X241835109Y-95452187D01*
X241835107Y-95452175D01*
X241774063Y-95211118D01*
X241674173Y-94983393D01*
X241538166Y-94775217D01*
X241464757Y-94695474D01*
X241369744Y-94592262D01*
X241173509Y-94439526D01*
X241173507Y-94439525D01*
X241173506Y-94439524D01*
X240954811Y-94321172D01*
X240954802Y-94321169D01*
X240719616Y-94240429D01*
X240474335Y-94199500D01*
X240225665Y-94199500D01*
X239980383Y-94240429D01*
X239745197Y-94321169D01*
X239745188Y-94321172D01*
X239526493Y-94439524D01*
X239330257Y-94592261D01*
X239161833Y-94775217D01*
X239025826Y-94983393D01*
X238925936Y-95211118D01*
X238864892Y-95452175D01*
X238864890Y-95452187D01*
X238844357Y-95699994D01*
X238844357Y-95700005D01*
X238864890Y-95947812D01*
X238864892Y-95947824D01*
X238925936Y-96188881D01*
X239025826Y-96416606D01*
X239161833Y-96624782D01*
X239161836Y-96624785D01*
X239330256Y-96807738D01*
X239526491Y-96960474D01*
X239534513Y-96964815D01*
X239584106Y-97014032D01*
X239599500Y-97073872D01*
X239599500Y-102487770D01*
X239579815Y-102554809D01*
X239563181Y-102575451D01*
X218325451Y-123813181D01*
X218264128Y-123846666D01*
X218237770Y-123849500D01*
X206762075Y-123849500D01*
X206695036Y-123829815D01*
X206649281Y-123777011D01*
X206639337Y-123707853D01*
X206668362Y-123644297D01*
X206721812Y-123608219D01*
X206812716Y-123577011D01*
X206894810Y-123548828D01*
X207113509Y-123430474D01*
X207309744Y-123277738D01*
X207478164Y-123094785D01*
X207614173Y-122886607D01*
X207714063Y-122658881D01*
X207775108Y-122417821D01*
X207775109Y-122417812D01*
X207795643Y-122170005D01*
X207795643Y-122169994D01*
X207775109Y-121922187D01*
X207775107Y-121922175D01*
X207714063Y-121681118D01*
X207614173Y-121453393D01*
X207478166Y-121245217D01*
X207408463Y-121169500D01*
X207309744Y-121062262D01*
X207113509Y-120909526D01*
X207113507Y-120909525D01*
X207113506Y-120909524D01*
X206894811Y-120791172D01*
X206894802Y-120791169D01*
X206659616Y-120710429D01*
X206414335Y-120669500D01*
X206165665Y-120669500D01*
X205920383Y-120710429D01*
X205685197Y-120791169D01*
X205685188Y-120791172D01*
X205466493Y-120909524D01*
X205270255Y-121062262D01*
X205270252Y-121062265D01*
X205208374Y-121129483D01*
X205148487Y-121165474D01*
X205117145Y-121169500D01*
X200996676Y-121169500D01*
X200972484Y-121167117D01*
X200931081Y-121158881D01*
X200869170Y-121126495D01*
X200864056Y-121121260D01*
X200809744Y-121062262D01*
X200613509Y-120909526D01*
X200613507Y-120909525D01*
X200613506Y-120909524D01*
X200394811Y-120791172D01*
X200394802Y-120791169D01*
X200159616Y-120710429D01*
X199914335Y-120669500D01*
X199665665Y-120669500D01*
X199420384Y-120710429D01*
X199382977Y-120723270D01*
X199313178Y-120726418D01*
X199255036Y-120693669D01*
X195178421Y-116617052D01*
X195178414Y-116617046D01*
X195101603Y-116565723D01*
X195101504Y-116565658D01*
X195055495Y-116534916D01*
X195055494Y-116534915D01*
X195055492Y-116534914D01*
X194918917Y-116478343D01*
X194918907Y-116478340D01*
X194773920Y-116449500D01*
X194773918Y-116449500D01*
X148726082Y-116449500D01*
X148726080Y-116449500D01*
X148581092Y-116478340D01*
X148581082Y-116478343D01*
X148444511Y-116534912D01*
X148444498Y-116534919D01*
X148321584Y-116617048D01*
X148321580Y-116617051D01*
X145025451Y-119913181D01*
X144964128Y-119946666D01*
X144937770Y-119949500D01*
X127762230Y-119949500D01*
X127695191Y-119929815D01*
X127674549Y-119913181D01*
X121838197Y-114076829D01*
X128099500Y-114076829D01*
X128099500Y-114250050D01*
X128119118Y-114373918D01*
X128126598Y-114421141D01*
X128180127Y-114585885D01*
X128258768Y-114740228D01*
X128360586Y-114880368D01*
X128483072Y-115002854D01*
X128623212Y-115104672D01*
X128777555Y-115183313D01*
X128942299Y-115236842D01*
X129113389Y-115263940D01*
X129113390Y-115263940D01*
X130086610Y-115263940D01*
X130086611Y-115263940D01*
X130257701Y-115236842D01*
X130422445Y-115183313D01*
X130576788Y-115104672D01*
X130716928Y-115002854D01*
X130839414Y-114880368D01*
X130941232Y-114740228D01*
X131019873Y-114585885D01*
X131073402Y-114421141D01*
X131100500Y-114250051D01*
X131100500Y-114076829D01*
X131073402Y-113905739D01*
X131019873Y-113740995D01*
X130941232Y-113586652D01*
X130839414Y-113446512D01*
X130716928Y-113324026D01*
X130576788Y-113222208D01*
X130422445Y-113143567D01*
X130257701Y-113090038D01*
X130257699Y-113090037D01*
X130257698Y-113090037D01*
X130126271Y-113069221D01*
X130086611Y-113062940D01*
X129113389Y-113062940D01*
X129073728Y-113069221D01*
X128942302Y-113090037D01*
X128777552Y-113143568D01*
X128623211Y-113222208D01*
X128543256Y-113280299D01*
X128483072Y-113324026D01*
X128483070Y-113324028D01*
X128483069Y-113324028D01*
X128360588Y-113446509D01*
X128360588Y-113446510D01*
X128360586Y-113446512D01*
X128316859Y-113506696D01*
X128258768Y-113586651D01*
X128180128Y-113740992D01*
X128126597Y-113905742D01*
X128099500Y-114076829D01*
X121838197Y-114076829D01*
X121486819Y-113725451D01*
X121453334Y-113664128D01*
X121450500Y-113637770D01*
X121450500Y-108996829D01*
X128099500Y-108996829D01*
X128099500Y-109170050D01*
X128113303Y-109257203D01*
X128126598Y-109341141D01*
X128180127Y-109505885D01*
X128258768Y-109660228D01*
X128360586Y-109800368D01*
X128483072Y-109922854D01*
X128623212Y-110024672D01*
X128777555Y-110103313D01*
X128942299Y-110156842D01*
X129113389Y-110183940D01*
X129113390Y-110183940D01*
X130086610Y-110183940D01*
X130086611Y-110183940D01*
X130257701Y-110156842D01*
X130422445Y-110103313D01*
X130576788Y-110024672D01*
X130716928Y-109922854D01*
X130839414Y-109800368D01*
X130941232Y-109660228D01*
X131019873Y-109505885D01*
X131073402Y-109341141D01*
X131100500Y-109170051D01*
X131100500Y-108996829D01*
X131073402Y-108825739D01*
X131019873Y-108660995D01*
X130941232Y-108506652D01*
X130839414Y-108366512D01*
X130716928Y-108244026D01*
X130576788Y-108142208D01*
X130422445Y-108063567D01*
X130257701Y-108010038D01*
X130257699Y-108010037D01*
X130257698Y-108010037D01*
X130126271Y-107989221D01*
X130086611Y-107982940D01*
X129113389Y-107982940D01*
X129073728Y-107989221D01*
X128942302Y-108010037D01*
X128777552Y-108063568D01*
X128623211Y-108142208D01*
X128585781Y-108169403D01*
X128483072Y-108244026D01*
X128483070Y-108244028D01*
X128483069Y-108244028D01*
X128360588Y-108366509D01*
X128360588Y-108366510D01*
X128360586Y-108366512D01*
X128334287Y-108402710D01*
X128258768Y-108506651D01*
X128180128Y-108660992D01*
X128126597Y-108825742D01*
X128099500Y-108996829D01*
X121450500Y-108996829D01*
X121450500Y-103916829D01*
X128099500Y-103916829D01*
X128099500Y-104090051D01*
X128126598Y-104261141D01*
X128180127Y-104425885D01*
X128258768Y-104580228D01*
X128360586Y-104720368D01*
X128483072Y-104842854D01*
X128623212Y-104944672D01*
X128777555Y-105023313D01*
X128942299Y-105076842D01*
X129113389Y-105103940D01*
X129113390Y-105103940D01*
X130086610Y-105103940D01*
X130086611Y-105103940D01*
X130257701Y-105076842D01*
X130304514Y-105061630D01*
X130374353Y-105059634D01*
X130430513Y-105091880D01*
X130793990Y-105455357D01*
X130827475Y-105516680D01*
X130822491Y-105586372D01*
X130780619Y-105642305D01*
X130715155Y-105666722D01*
X130646882Y-105651870D01*
X130633423Y-105643356D01*
X130631976Y-105642305D01*
X130576788Y-105602208D01*
X130422445Y-105523567D01*
X130257701Y-105470038D01*
X130257699Y-105470037D01*
X130257698Y-105470037D01*
X130126271Y-105449221D01*
X130086611Y-105442940D01*
X129113389Y-105442940D01*
X129073728Y-105449221D01*
X128942302Y-105470037D01*
X128777552Y-105523568D01*
X128623211Y-105602208D01*
X128590352Y-105626082D01*
X128483072Y-105704026D01*
X128483070Y-105704028D01*
X128483069Y-105704028D01*
X128360588Y-105826509D01*
X128360588Y-105826510D01*
X128360586Y-105826512D01*
X128347728Y-105844210D01*
X128258768Y-105966651D01*
X128180128Y-106120992D01*
X128126597Y-106285742D01*
X128121601Y-106317288D01*
X128099500Y-106456829D01*
X128099500Y-106630051D01*
X128107677Y-106681679D01*
X128122782Y-106777052D01*
X128126598Y-106801141D01*
X128180127Y-106965885D01*
X128258768Y-107120228D01*
X128360586Y-107260368D01*
X128483072Y-107382854D01*
X128623212Y-107484672D01*
X128777555Y-107563313D01*
X128942299Y-107616842D01*
X129113389Y-107643940D01*
X129113390Y-107643940D01*
X130086610Y-107643940D01*
X130086611Y-107643940D01*
X130257701Y-107616842D01*
X130422445Y-107563313D01*
X130576788Y-107484672D01*
X130716928Y-107382854D01*
X130839414Y-107260368D01*
X130941232Y-107120228D01*
X131019873Y-106965885D01*
X131073402Y-106801141D01*
X131100500Y-106630051D01*
X131100500Y-106456829D01*
X131073402Y-106285739D01*
X131019873Y-106120995D01*
X130941232Y-105966652D01*
X130900082Y-105910014D01*
X130876603Y-105844210D01*
X130892428Y-105776156D01*
X130942534Y-105727461D01*
X131011012Y-105713585D01*
X131076121Y-105738934D01*
X131088082Y-105749449D01*
X133217049Y-107878416D01*
X133321573Y-107982940D01*
X133321585Y-107982952D01*
X133444498Y-108065080D01*
X133444511Y-108065087D01*
X133554149Y-108110500D01*
X133581087Y-108121658D01*
X133581091Y-108121658D01*
X133581092Y-108121659D01*
X133726079Y-108150500D01*
X133726082Y-108150500D01*
X135424106Y-108150500D01*
X135491145Y-108170185D01*
X135524422Y-108201612D01*
X135544896Y-108229792D01*
X135544898Y-108229794D01*
X135695209Y-108380105D01*
X135695214Y-108380109D01*
X135859793Y-108499682D01*
X135902459Y-108555011D01*
X135908438Y-108624625D01*
X135875833Y-108686420D01*
X135859793Y-108700318D01*
X135695214Y-108819890D01*
X135695209Y-108819894D01*
X135544890Y-108970213D01*
X135419951Y-109142179D01*
X135323444Y-109331585D01*
X135257753Y-109533760D01*
X135224500Y-109743713D01*
X135224500Y-109956286D01*
X135257754Y-110166246D01*
X135286908Y-110255974D01*
X135288903Y-110325815D01*
X135256658Y-110381972D01*
X134802011Y-110836621D01*
X134740688Y-110870106D01*
X134714330Y-110872940D01*
X130857204Y-110872940D01*
X130790165Y-110853255D01*
X130769523Y-110836621D01*
X130716930Y-110784028D01*
X130716928Y-110784026D01*
X130576788Y-110682208D01*
X130422445Y-110603567D01*
X130257701Y-110550038D01*
X130257699Y-110550037D01*
X130257698Y-110550037D01*
X130126271Y-110529221D01*
X130086611Y-110522940D01*
X129113389Y-110522940D01*
X129073728Y-110529221D01*
X128942302Y-110550037D01*
X128777552Y-110603568D01*
X128623211Y-110682208D01*
X128557724Y-110729788D01*
X128483072Y-110784026D01*
X128483070Y-110784028D01*
X128483069Y-110784028D01*
X128360588Y-110906509D01*
X128360588Y-110906510D01*
X128360586Y-110906512D01*
X128316859Y-110966696D01*
X128258768Y-111046651D01*
X128180128Y-111200992D01*
X128126597Y-111365742D01*
X128099500Y-111536829D01*
X128099500Y-111710051D01*
X128126598Y-111881141D01*
X128180127Y-112045885D01*
X128258768Y-112200228D01*
X128360586Y-112340368D01*
X128483072Y-112462854D01*
X128623212Y-112564672D01*
X128777555Y-112643313D01*
X128942299Y-112696842D01*
X129113389Y-112723940D01*
X129113390Y-112723940D01*
X130086610Y-112723940D01*
X130086611Y-112723940D01*
X130257701Y-112696842D01*
X130422445Y-112643313D01*
X130576788Y-112564672D01*
X130716928Y-112462854D01*
X130769523Y-112410259D01*
X130830846Y-112376774D01*
X130857204Y-112373940D01*
X135150480Y-112373940D01*
X135248022Y-112354536D01*
X135295473Y-112345098D01*
X135432055Y-112288524D01*
X135481289Y-112255626D01*
X135554976Y-112206392D01*
X136524548Y-111236818D01*
X136585871Y-111203334D01*
X136612229Y-111200500D01*
X136931286Y-111200500D01*
X136931287Y-111200500D01*
X137141243Y-111167246D01*
X137343412Y-111101557D01*
X137532816Y-111005051D01*
X137554789Y-110989086D01*
X137704786Y-110880109D01*
X137704788Y-110880106D01*
X137704792Y-110880104D01*
X137855104Y-110729792D01*
X137855107Y-110729788D01*
X137911903Y-110651615D01*
X137967233Y-110608949D01*
X138012221Y-110600500D01*
X140493597Y-110600500D01*
X140517789Y-110602882D01*
X140523696Y-110604058D01*
X140556081Y-110610500D01*
X140556082Y-110610500D01*
X140574362Y-110610500D01*
X140641401Y-110630185D01*
X140679899Y-110669401D01*
X140747288Y-110778656D01*
X140871344Y-110902712D01*
X141020666Y-110994814D01*
X141187203Y-111049999D01*
X141289991Y-111060500D01*
X142090008Y-111060499D01*
X142090016Y-111060498D01*
X142090019Y-111060498D01*
X142146302Y-111054748D01*
X142192797Y-111049999D01*
X142359334Y-110994814D01*
X142508656Y-110902712D01*
X142602319Y-110809049D01*
X142663642Y-110775564D01*
X142733334Y-110780548D01*
X142777681Y-110809049D01*
X142871344Y-110902712D01*
X143020666Y-110994814D01*
X143187203Y-111049999D01*
X143289991Y-111060500D01*
X144090008Y-111060499D01*
X144090016Y-111060498D01*
X144090019Y-111060498D01*
X144146302Y-111054748D01*
X144192797Y-111049999D01*
X144359334Y-110994814D01*
X144508656Y-110902712D01*
X144632712Y-110778656D01*
X144724814Y-110629334D01*
X144779999Y-110462797D01*
X144790500Y-110360009D01*
X144790499Y-109359992D01*
X144788573Y-109341141D01*
X144779999Y-109257203D01*
X144779998Y-109257200D01*
X144724814Y-109090666D01*
X144632712Y-108941344D01*
X144508656Y-108817288D01*
X144508655Y-108817287D01*
X144499402Y-108811580D01*
X144452678Y-108759632D01*
X144440500Y-108706042D01*
X144440500Y-108513957D01*
X144460185Y-108446918D01*
X144499407Y-108408416D01*
X144508656Y-108402712D01*
X144632712Y-108278656D01*
X144700099Y-108169402D01*
X144752047Y-108122679D01*
X144805638Y-108110500D01*
X145137770Y-108110500D01*
X145204809Y-108130185D01*
X145225451Y-108146819D01*
X145573181Y-108494548D01*
X145606666Y-108555871D01*
X145609500Y-108582229D01*
X145609500Y-109617870D01*
X145609501Y-109617876D01*
X145615908Y-109677483D01*
X145666202Y-109812328D01*
X145666206Y-109812335D01*
X145752452Y-109927544D01*
X145752455Y-109927547D01*
X145867664Y-110013793D01*
X145867671Y-110013797D01*
X146002517Y-110064091D01*
X146002516Y-110064091D01*
X146009444Y-110064835D01*
X146062127Y-110070500D01*
X147757872Y-110070499D01*
X147817483Y-110064091D01*
X147952331Y-110013796D01*
X148067546Y-109927546D01*
X148153796Y-109812331D01*
X148204091Y-109677483D01*
X148210500Y-109617873D01*
X148210499Y-107922128D01*
X148204091Y-107862517D01*
X148153796Y-107727669D01*
X148153795Y-107727668D01*
X148153793Y-107727664D01*
X148067547Y-107612455D01*
X148067544Y-107612452D01*
X147952335Y-107526206D01*
X147952328Y-107526202D01*
X147817482Y-107475908D01*
X147817483Y-107475908D01*
X147757883Y-107469501D01*
X147757881Y-107469500D01*
X147757873Y-107469500D01*
X147757865Y-107469500D01*
X146722230Y-107469500D01*
X146655191Y-107449815D01*
X146634549Y-107433181D01*
X145978421Y-106777052D01*
X145978414Y-106777046D01*
X145904729Y-106727812D01*
X145904729Y-106727813D01*
X145855491Y-106694913D01*
X145718917Y-106638343D01*
X145718907Y-106638340D01*
X145573920Y-106609500D01*
X145573918Y-106609500D01*
X144805638Y-106609500D01*
X144738599Y-106589815D01*
X144700099Y-106550597D01*
X144693931Y-106540597D01*
X144632712Y-106441344D01*
X144508656Y-106317288D01*
X144359334Y-106225186D01*
X144192797Y-106170001D01*
X144192795Y-106170000D01*
X144090010Y-106159500D01*
X143289998Y-106159500D01*
X143289980Y-106159501D01*
X143187203Y-106170000D01*
X143187200Y-106170001D01*
X143020668Y-106225185D01*
X143020663Y-106225187D01*
X142871342Y-106317289D01*
X142777681Y-106410951D01*
X142716358Y-106444436D01*
X142646666Y-106439452D01*
X142602319Y-106410951D01*
X142508657Y-106317289D01*
X142508656Y-106317288D01*
X142359334Y-106225186D01*
X142192797Y-106170001D01*
X142192795Y-106170000D01*
X142090010Y-106159500D01*
X141289998Y-106159500D01*
X141289980Y-106159501D01*
X141187203Y-106170000D01*
X141187200Y-106170001D01*
X141020668Y-106225185D01*
X141020663Y-106225187D01*
X140871342Y-106317289D01*
X140747289Y-106441342D01*
X140686069Y-106540597D01*
X140634121Y-106587321D01*
X140580530Y-106599500D01*
X138012221Y-106599500D01*
X137945182Y-106579815D01*
X137911903Y-106548385D01*
X137855107Y-106470211D01*
X137704786Y-106319890D01*
X137532820Y-106194951D01*
X137343414Y-106098444D01*
X137343413Y-106098443D01*
X137343412Y-106098443D01*
X137141243Y-106032754D01*
X137141241Y-106032753D01*
X137141240Y-106032753D01*
X136979957Y-106007208D01*
X136931287Y-105999500D01*
X136468713Y-105999500D01*
X136420042Y-106007208D01*
X136258760Y-106032753D01*
X136056585Y-106098444D01*
X135867179Y-106194951D01*
X135695213Y-106319890D01*
X135544892Y-106470211D01*
X135488097Y-106548385D01*
X135451770Y-106598385D01*
X135396442Y-106641051D01*
X135351453Y-106649500D01*
X134162229Y-106649500D01*
X134095190Y-106629815D01*
X134074548Y-106613181D01*
X132553247Y-105091880D01*
X131010396Y-103549028D01*
X130987592Y-103517641D01*
X130941232Y-103426652D01*
X130941230Y-103426649D01*
X130941229Y-103426647D01*
X130911672Y-103385966D01*
X130839414Y-103286512D01*
X130716928Y-103164026D01*
X130576788Y-103062208D01*
X130422445Y-102983567D01*
X130257701Y-102930038D01*
X130257699Y-102930037D01*
X130257698Y-102930037D01*
X130126271Y-102909221D01*
X130086611Y-102902940D01*
X129113389Y-102902940D01*
X129073728Y-102909221D01*
X128942302Y-102930037D01*
X128777552Y-102983568D01*
X128623211Y-103062208D01*
X128567346Y-103102797D01*
X128483072Y-103164026D01*
X128483070Y-103164028D01*
X128483069Y-103164028D01*
X128360588Y-103286509D01*
X128360588Y-103286510D01*
X128360586Y-103286512D01*
X128330137Y-103328421D01*
X128258768Y-103426651D01*
X128180128Y-103580992D01*
X128126597Y-103745742D01*
X128099500Y-103916829D01*
X121450500Y-103916829D01*
X121450500Y-102626081D01*
X121444763Y-102597242D01*
X121444763Y-102597240D01*
X121436323Y-102554809D01*
X121421659Y-102481088D01*
X121373134Y-102363940D01*
X121365084Y-102344505D01*
X121304559Y-102253922D01*
X121304559Y-102253921D01*
X121304557Y-102253920D01*
X121282952Y-102221584D01*
X115565257Y-96503889D01*
X109781861Y-90720492D01*
X109781854Y-90720486D01*
X109706294Y-90669999D01*
X109706294Y-90670000D01*
X109658935Y-90638356D01*
X109658932Y-90638354D01*
X109658931Y-90638354D01*
X109522357Y-90581783D01*
X109522347Y-90581780D01*
X109377360Y-90552940D01*
X109377358Y-90552940D01*
X105457204Y-90552940D01*
X105390165Y-90533255D01*
X105369523Y-90516621D01*
X105316930Y-90464028D01*
X105316928Y-90464026D01*
X105176788Y-90362208D01*
X105022445Y-90283567D01*
X104857701Y-90230038D01*
X104857699Y-90230037D01*
X104857698Y-90230037D01*
X104726271Y-90209221D01*
X104686611Y-90202940D01*
X103713389Y-90202940D01*
X103673728Y-90209221D01*
X103542302Y-90230037D01*
X103377552Y-90283568D01*
X103223211Y-90362208D01*
X103143256Y-90420299D01*
X103083072Y-90464026D01*
X103083070Y-90464028D01*
X103083069Y-90464028D01*
X102960588Y-90586509D01*
X102960588Y-90586510D01*
X102960586Y-90586512D01*
X102922919Y-90638356D01*
X102858768Y-90726651D01*
X102780128Y-90880992D01*
X102726597Y-91045742D01*
X102699500Y-91216829D01*
X96400500Y-91216829D01*
X96400500Y-88676829D01*
X102699500Y-88676829D01*
X102699500Y-88850051D01*
X102726598Y-89021141D01*
X102780127Y-89185885D01*
X102858768Y-89340228D01*
X102960586Y-89480368D01*
X103083072Y-89602854D01*
X103223212Y-89704672D01*
X103377555Y-89783313D01*
X103542299Y-89836842D01*
X103713389Y-89863940D01*
X103713390Y-89863940D01*
X104686610Y-89863940D01*
X104686611Y-89863940D01*
X104857701Y-89836842D01*
X105022445Y-89783313D01*
X105176788Y-89704672D01*
X105316928Y-89602854D01*
X105439414Y-89480368D01*
X105541232Y-89340228D01*
X105619873Y-89185885D01*
X105673402Y-89021141D01*
X105700500Y-88850051D01*
X105700500Y-88676829D01*
X128099500Y-88676829D01*
X128099500Y-88850051D01*
X128126598Y-89021141D01*
X128180127Y-89185885D01*
X128258768Y-89340228D01*
X128360586Y-89480368D01*
X128483072Y-89602854D01*
X128623212Y-89704672D01*
X128777555Y-89783313D01*
X128942299Y-89836842D01*
X129113389Y-89863940D01*
X129113390Y-89863940D01*
X130086610Y-89863940D01*
X130086611Y-89863940D01*
X130257701Y-89836842D01*
X130422445Y-89783313D01*
X130576788Y-89704672D01*
X130716928Y-89602854D01*
X130839414Y-89480368D01*
X130941232Y-89340228D01*
X131019873Y-89185885D01*
X131073402Y-89021141D01*
X131100500Y-88850051D01*
X131100500Y-88676829D01*
X131073402Y-88505739D01*
X131019873Y-88340995D01*
X130941232Y-88186652D01*
X130839414Y-88046512D01*
X130716928Y-87924026D01*
X130576788Y-87822208D01*
X130422445Y-87743567D01*
X130257701Y-87690038D01*
X130257699Y-87690037D01*
X130257698Y-87690037D01*
X130126271Y-87669221D01*
X130086611Y-87662940D01*
X129113389Y-87662940D01*
X129073728Y-87669221D01*
X128942302Y-87690037D01*
X128777552Y-87743568D01*
X128623211Y-87822208D01*
X128545953Y-87878340D01*
X128483072Y-87924026D01*
X128483070Y-87924028D01*
X128483069Y-87924028D01*
X128360588Y-88046509D01*
X128360588Y-88046510D01*
X128360586Y-88046512D01*
X128328802Y-88090259D01*
X128258768Y-88186651D01*
X128180128Y-88340992D01*
X128126597Y-88505742D01*
X128105686Y-88637769D01*
X128099500Y-88676829D01*
X105700500Y-88676829D01*
X105673402Y-88505739D01*
X105619873Y-88340995D01*
X105541232Y-88186652D01*
X105439414Y-88046512D01*
X105316928Y-87924026D01*
X105176788Y-87822208D01*
X105022445Y-87743567D01*
X104857701Y-87690038D01*
X104857699Y-87690037D01*
X104857698Y-87690037D01*
X104726271Y-87669221D01*
X104686611Y-87662940D01*
X103713389Y-87662940D01*
X103673728Y-87669221D01*
X103542302Y-87690037D01*
X103377552Y-87743568D01*
X103223211Y-87822208D01*
X103145953Y-87878340D01*
X103083072Y-87924026D01*
X103083070Y-87924028D01*
X103083069Y-87924028D01*
X102960588Y-88046509D01*
X102960588Y-88046510D01*
X102960586Y-88046512D01*
X102928802Y-88090259D01*
X102858768Y-88186651D01*
X102780128Y-88340992D01*
X102726597Y-88505742D01*
X102705686Y-88637769D01*
X102699500Y-88676829D01*
X96400500Y-88676829D01*
X96400500Y-86136829D01*
X102699500Y-86136829D01*
X102699500Y-86310051D01*
X102726598Y-86481141D01*
X102780127Y-86645885D01*
X102858768Y-86800228D01*
X102960586Y-86940368D01*
X103083072Y-87062854D01*
X103223212Y-87164672D01*
X103377555Y-87243313D01*
X103542299Y-87296842D01*
X103713389Y-87323940D01*
X103713390Y-87323940D01*
X104686610Y-87323940D01*
X104686611Y-87323940D01*
X104857701Y-87296842D01*
X105022445Y-87243313D01*
X105176788Y-87164672D01*
X105316928Y-87062854D01*
X105439414Y-86940368D01*
X105541232Y-86800228D01*
X105619873Y-86645885D01*
X105673402Y-86481141D01*
X105700500Y-86310051D01*
X105700500Y-86136829D01*
X128099500Y-86136829D01*
X128099500Y-86310051D01*
X128126598Y-86481141D01*
X128180127Y-86645885D01*
X128258768Y-86800228D01*
X128360586Y-86940368D01*
X128483072Y-87062854D01*
X128623212Y-87164672D01*
X128777555Y-87243313D01*
X128942299Y-87296842D01*
X129113389Y-87323940D01*
X129113390Y-87323940D01*
X130086610Y-87323940D01*
X130086611Y-87323940D01*
X130257701Y-87296842D01*
X130422445Y-87243313D01*
X130576788Y-87164672D01*
X130716928Y-87062854D01*
X130839414Y-86940368D01*
X130941232Y-86800228D01*
X131019873Y-86645885D01*
X131073402Y-86481141D01*
X131100500Y-86310051D01*
X131100500Y-86136829D01*
X131073402Y-85965739D01*
X131019873Y-85800995D01*
X130941232Y-85646652D01*
X130839414Y-85506512D01*
X130716928Y-85384026D01*
X130576788Y-85282208D01*
X130460361Y-85222886D01*
X130422447Y-85203568D01*
X130422446Y-85203567D01*
X130422445Y-85203567D01*
X130257701Y-85150038D01*
X130257699Y-85150037D01*
X130257698Y-85150037D01*
X130126271Y-85129221D01*
X130086611Y-85122940D01*
X129113389Y-85122940D01*
X129073728Y-85129221D01*
X128942302Y-85150037D01*
X128942299Y-85150038D01*
X128788075Y-85200149D01*
X128777552Y-85203568D01*
X128623211Y-85282208D01*
X128622833Y-85282483D01*
X128483072Y-85384026D01*
X128483070Y-85384028D01*
X128483069Y-85384028D01*
X128360588Y-85506509D01*
X128360588Y-85506510D01*
X128360586Y-85506512D01*
X128341673Y-85532544D01*
X128258768Y-85646651D01*
X128180128Y-85800992D01*
X128126597Y-85965742D01*
X128099500Y-86136829D01*
X105700500Y-86136829D01*
X105673402Y-85965739D01*
X105619873Y-85800995D01*
X105541232Y-85646652D01*
X105439414Y-85506512D01*
X105316928Y-85384026D01*
X105176788Y-85282208D01*
X105060361Y-85222886D01*
X105022447Y-85203568D01*
X105022446Y-85203567D01*
X105022445Y-85203567D01*
X104857701Y-85150038D01*
X104857699Y-85150037D01*
X104857698Y-85150037D01*
X104726271Y-85129221D01*
X104686611Y-85122940D01*
X103713389Y-85122940D01*
X103673728Y-85129221D01*
X103542302Y-85150037D01*
X103542299Y-85150038D01*
X103388075Y-85200149D01*
X103377552Y-85203568D01*
X103223211Y-85282208D01*
X103222833Y-85282483D01*
X103083072Y-85384026D01*
X103083070Y-85384028D01*
X103083069Y-85384028D01*
X102960588Y-85506509D01*
X102960588Y-85506510D01*
X102960586Y-85506512D01*
X102941673Y-85532544D01*
X102858768Y-85646651D01*
X102780128Y-85800992D01*
X102726597Y-85965742D01*
X102699500Y-86136829D01*
X96400500Y-86136829D01*
X96400500Y-83596829D01*
X128099500Y-83596829D01*
X128099500Y-83770051D01*
X128126598Y-83941141D01*
X128180127Y-84105885D01*
X128258768Y-84260228D01*
X128360586Y-84400368D01*
X128483072Y-84522854D01*
X128623212Y-84624672D01*
X128777555Y-84703313D01*
X128942299Y-84756842D01*
X129113389Y-84783940D01*
X129113390Y-84783940D01*
X130086610Y-84783940D01*
X130086611Y-84783940D01*
X130257701Y-84756842D01*
X130422445Y-84703313D01*
X130576788Y-84624672D01*
X130716928Y-84522854D01*
X130839414Y-84400368D01*
X130941232Y-84260228D01*
X131019873Y-84105885D01*
X131073402Y-83941141D01*
X131100500Y-83770051D01*
X131100500Y-83596829D01*
X131073402Y-83425739D01*
X131019873Y-83260995D01*
X130941232Y-83106652D01*
X130839414Y-82966512D01*
X130716928Y-82844026D01*
X130576788Y-82742208D01*
X130422445Y-82663567D01*
X130257701Y-82610038D01*
X130257699Y-82610037D01*
X130257698Y-82610037D01*
X130126271Y-82589221D01*
X130086611Y-82582940D01*
X129113389Y-82582940D01*
X129073728Y-82589221D01*
X128942302Y-82610037D01*
X128777552Y-82663568D01*
X128623211Y-82742208D01*
X128543256Y-82800299D01*
X128483072Y-82844026D01*
X128483070Y-82844028D01*
X128483069Y-82844028D01*
X128360588Y-82966509D01*
X128360588Y-82966510D01*
X128360586Y-82966512D01*
X128352199Y-82978056D01*
X128258768Y-83106651D01*
X128180128Y-83260992D01*
X128126597Y-83425742D01*
X128102030Y-83580858D01*
X128099500Y-83596829D01*
X96400500Y-83596829D01*
X96400500Y-81056829D01*
X102699500Y-81056829D01*
X102699500Y-81230051D01*
X102726598Y-81401141D01*
X102780127Y-81565885D01*
X102858768Y-81720228D01*
X102960586Y-81860368D01*
X103083072Y-81982854D01*
X103223212Y-82084672D01*
X103377555Y-82163313D01*
X103542299Y-82216842D01*
X103713389Y-82243940D01*
X103713390Y-82243940D01*
X104686610Y-82243940D01*
X104686611Y-82243940D01*
X104857701Y-82216842D01*
X105022445Y-82163313D01*
X105176788Y-82084672D01*
X105316928Y-81982854D01*
X105439414Y-81860368D01*
X105541232Y-81720228D01*
X105619873Y-81565885D01*
X105673402Y-81401141D01*
X105700500Y-81230051D01*
X105700500Y-81056829D01*
X105673402Y-80885739D01*
X105619873Y-80720995D01*
X105541232Y-80566652D01*
X105439414Y-80426512D01*
X105316928Y-80304026D01*
X105176788Y-80202208D01*
X105022445Y-80123567D01*
X104857701Y-80070038D01*
X104857699Y-80070037D01*
X104857698Y-80070037D01*
X104726271Y-80049221D01*
X104686611Y-80042940D01*
X103713389Y-80042940D01*
X103673728Y-80049221D01*
X103542302Y-80070037D01*
X103377552Y-80123568D01*
X103223211Y-80202208D01*
X103167642Y-80242582D01*
X103083072Y-80304026D01*
X103083070Y-80304028D01*
X103083069Y-80304028D01*
X102960588Y-80426509D01*
X102960588Y-80426510D01*
X102960586Y-80426512D01*
X102916859Y-80486696D01*
X102858768Y-80566651D01*
X102780128Y-80720992D01*
X102726597Y-80885742D01*
X102707207Y-81008170D01*
X102699500Y-81056829D01*
X96400500Y-81056829D01*
X96400500Y-78516829D01*
X102699500Y-78516829D01*
X102699500Y-78690051D01*
X102726598Y-78861141D01*
X102780127Y-79025885D01*
X102858768Y-79180228D01*
X102960586Y-79320368D01*
X103083072Y-79442854D01*
X103223212Y-79544672D01*
X103377555Y-79623313D01*
X103542299Y-79676842D01*
X103713389Y-79703940D01*
X103713390Y-79703940D01*
X104686610Y-79703940D01*
X104686611Y-79703940D01*
X104857701Y-79676842D01*
X105022445Y-79623313D01*
X105176788Y-79544672D01*
X105316928Y-79442854D01*
X105439414Y-79320368D01*
X105541232Y-79180228D01*
X105619873Y-79025885D01*
X105673402Y-78861141D01*
X105700500Y-78690051D01*
X105700500Y-78516829D01*
X105673402Y-78345739D01*
X105619873Y-78180995D01*
X105541232Y-78026652D01*
X105439414Y-77886512D01*
X105316928Y-77764026D01*
X105176788Y-77662208D01*
X105022445Y-77583567D01*
X104857701Y-77530038D01*
X104857699Y-77530037D01*
X104857698Y-77530037D01*
X104726271Y-77509221D01*
X104686611Y-77502940D01*
X103713389Y-77502940D01*
X103673728Y-77509221D01*
X103542302Y-77530037D01*
X103377552Y-77583568D01*
X103223211Y-77662208D01*
X103167642Y-77702582D01*
X103083072Y-77764026D01*
X103083070Y-77764028D01*
X103083069Y-77764028D01*
X102960588Y-77886509D01*
X102960588Y-77886510D01*
X102960586Y-77886512D01*
X102922919Y-77938356D01*
X102858768Y-78026651D01*
X102780128Y-78180992D01*
X102726597Y-78345742D01*
X102699500Y-78516829D01*
X96400500Y-78516829D01*
X96400500Y-75976829D01*
X102699500Y-75976829D01*
X102699500Y-76150051D01*
X102707677Y-76201679D01*
X102724912Y-76310500D01*
X102726598Y-76321141D01*
X102780127Y-76485885D01*
X102858768Y-76640228D01*
X102960586Y-76780368D01*
X103083072Y-76902854D01*
X103223212Y-77004672D01*
X103377555Y-77083313D01*
X103542299Y-77136842D01*
X103713389Y-77163940D01*
X103713390Y-77163940D01*
X104686610Y-77163940D01*
X104686611Y-77163940D01*
X104857701Y-77136842D01*
X105022445Y-77083313D01*
X105176788Y-77004672D01*
X105316928Y-76902854D01*
X105439414Y-76780368D01*
X105541232Y-76640228D01*
X105619873Y-76485885D01*
X105673402Y-76321141D01*
X105700500Y-76150051D01*
X105700500Y-75976829D01*
X128099500Y-75976829D01*
X128099500Y-76150051D01*
X128107677Y-76201679D01*
X128124912Y-76310500D01*
X128126598Y-76321141D01*
X128180127Y-76485885D01*
X128258768Y-76640228D01*
X128360586Y-76780368D01*
X128483072Y-76902854D01*
X128623212Y-77004672D01*
X128777555Y-77083313D01*
X128942299Y-77136842D01*
X129113389Y-77163940D01*
X129113390Y-77163940D01*
X130086610Y-77163940D01*
X130086611Y-77163940D01*
X130257701Y-77136842D01*
X130422445Y-77083313D01*
X130576788Y-77004672D01*
X130716928Y-76902854D01*
X130839414Y-76780368D01*
X130941232Y-76640228D01*
X131019873Y-76485885D01*
X131073402Y-76321141D01*
X131100500Y-76150051D01*
X131100500Y-75976829D01*
X131073402Y-75805739D01*
X131019873Y-75640995D01*
X130941232Y-75486652D01*
X130839414Y-75346512D01*
X130716928Y-75224026D01*
X130576788Y-75122208D01*
X130422445Y-75043567D01*
X130257701Y-74990038D01*
X130257699Y-74990037D01*
X130257698Y-74990037D01*
X130126271Y-74969221D01*
X130086611Y-74962940D01*
X129113389Y-74962940D01*
X129073728Y-74969221D01*
X128942302Y-74990037D01*
X128777552Y-75043568D01*
X128623211Y-75122208D01*
X128581111Y-75152796D01*
X128483072Y-75224026D01*
X128483070Y-75224028D01*
X128483069Y-75224028D01*
X128360588Y-75346509D01*
X128360588Y-75346510D01*
X128360586Y-75346512D01*
X128316859Y-75406696D01*
X128258768Y-75486651D01*
X128180128Y-75640992D01*
X128180127Y-75640994D01*
X128180127Y-75640995D01*
X128158747Y-75706794D01*
X128126597Y-75805742D01*
X128108176Y-75922050D01*
X128099500Y-75976829D01*
X105700500Y-75976829D01*
X105673402Y-75805739D01*
X105619873Y-75640995D01*
X105541232Y-75486652D01*
X105439414Y-75346512D01*
X105316928Y-75224026D01*
X105176788Y-75122208D01*
X105022445Y-75043567D01*
X104857701Y-74990038D01*
X104857699Y-74990037D01*
X104857698Y-74990037D01*
X104726271Y-74969221D01*
X104686611Y-74962940D01*
X103713389Y-74962940D01*
X103673728Y-74969221D01*
X103542302Y-74990037D01*
X103377552Y-75043568D01*
X103223211Y-75122208D01*
X103181111Y-75152796D01*
X103083072Y-75224026D01*
X103083070Y-75224028D01*
X103083069Y-75224028D01*
X102960588Y-75346509D01*
X102960588Y-75346510D01*
X102960586Y-75346512D01*
X102916859Y-75406696D01*
X102858768Y-75486651D01*
X102780128Y-75640992D01*
X102780127Y-75640994D01*
X102780127Y-75640995D01*
X102758747Y-75706794D01*
X102726597Y-75805742D01*
X102708176Y-75922050D01*
X102699500Y-75976829D01*
X96400500Y-75976829D01*
X96400500Y-73436829D01*
X102699500Y-73436829D01*
X102699500Y-73610051D01*
X102704680Y-73642754D01*
X102710549Y-73679815D01*
X102726598Y-73781141D01*
X102780127Y-73945885D01*
X102858768Y-74100228D01*
X102960586Y-74240368D01*
X103083072Y-74362854D01*
X103223212Y-74464672D01*
X103377555Y-74543313D01*
X103542299Y-74596842D01*
X103713389Y-74623940D01*
X103713390Y-74623940D01*
X104686610Y-74623940D01*
X104686611Y-74623940D01*
X104857701Y-74596842D01*
X105022445Y-74543313D01*
X105176788Y-74464672D01*
X105316928Y-74362854D01*
X105439414Y-74240368D01*
X105541232Y-74100228D01*
X105619873Y-73945885D01*
X105673402Y-73781141D01*
X105700500Y-73610051D01*
X105700500Y-73439549D01*
X128095820Y-73439549D01*
X128095820Y-73612771D01*
X128098318Y-73628540D01*
X128122486Y-73781137D01*
X128122918Y-73783861D01*
X128176447Y-73948605D01*
X128255088Y-74102948D01*
X128356906Y-74243088D01*
X128479392Y-74365574D01*
X128619532Y-74467392D01*
X128773875Y-74546033D01*
X128938619Y-74599562D01*
X129109709Y-74626660D01*
X129109710Y-74626660D01*
X130082930Y-74626660D01*
X130082931Y-74626660D01*
X130254021Y-74599562D01*
X130418765Y-74546033D01*
X130573108Y-74467392D01*
X130713248Y-74365574D01*
X130835734Y-74243088D01*
X130937552Y-74102948D01*
X131016193Y-73948605D01*
X131069722Y-73783861D01*
X131096820Y-73612771D01*
X131096820Y-73439549D01*
X131069722Y-73268459D01*
X131016193Y-73103715D01*
X130937552Y-72949372D01*
X130835734Y-72809232D01*
X130713248Y-72686746D01*
X130573108Y-72584928D01*
X130418765Y-72506287D01*
X130254021Y-72452758D01*
X130254019Y-72452757D01*
X130254018Y-72452757D01*
X130122591Y-72431941D01*
X130082931Y-72425660D01*
X129109709Y-72425660D01*
X129070048Y-72431941D01*
X128938622Y-72452757D01*
X128773872Y-72506288D01*
X128619531Y-72584928D01*
X128539576Y-72643019D01*
X128479392Y-72686746D01*
X128479390Y-72686748D01*
X128479389Y-72686748D01*
X128356908Y-72809229D01*
X128356908Y-72809230D01*
X128356906Y-72809232D01*
X128317676Y-72863227D01*
X128255088Y-72949371D01*
X128176448Y-73103712D01*
X128122917Y-73268462D01*
X128096251Y-73436829D01*
X128095820Y-73439549D01*
X105700500Y-73439549D01*
X105700500Y-73436829D01*
X105673402Y-73265739D01*
X105619873Y-73100995D01*
X105541232Y-72946652D01*
X105439414Y-72806512D01*
X105316928Y-72684026D01*
X105176788Y-72582208D01*
X105022445Y-72503567D01*
X104857701Y-72450038D01*
X104857699Y-72450037D01*
X104857698Y-72450037D01*
X104703784Y-72425660D01*
X104686611Y-72422940D01*
X103713389Y-72422940D01*
X103696216Y-72425660D01*
X103542302Y-72450037D01*
X103377552Y-72503568D01*
X103223211Y-72582208D01*
X103143256Y-72640299D01*
X103083072Y-72684026D01*
X103083070Y-72684028D01*
X103083069Y-72684028D01*
X102960588Y-72806509D01*
X102960588Y-72806510D01*
X102960586Y-72806512D01*
X102958610Y-72809232D01*
X102858768Y-72946651D01*
X102780128Y-73100992D01*
X102726597Y-73265742D01*
X102712515Y-73354655D01*
X102699500Y-73436829D01*
X96400500Y-73436829D01*
X96400500Y-70896829D01*
X102699500Y-70896829D01*
X102699500Y-71070051D01*
X102700112Y-71073914D01*
X102726065Y-71237781D01*
X102726598Y-71241141D01*
X102780127Y-71405885D01*
X102858768Y-71560228D01*
X102960586Y-71700368D01*
X103083072Y-71822854D01*
X103223212Y-71924672D01*
X103377555Y-72003313D01*
X103542299Y-72056842D01*
X103713389Y-72083940D01*
X103713390Y-72083940D01*
X104686610Y-72083940D01*
X104686611Y-72083940D01*
X104857701Y-72056842D01*
X105022445Y-72003313D01*
X105176788Y-71924672D01*
X105316928Y-71822854D01*
X105439414Y-71700368D01*
X105541232Y-71560228D01*
X105619873Y-71405885D01*
X105673402Y-71241141D01*
X105700500Y-71070051D01*
X105700500Y-70899549D01*
X128095820Y-70899549D01*
X128095820Y-71072771D01*
X128096364Y-71076204D01*
X128122812Y-71243195D01*
X128122918Y-71243861D01*
X128176447Y-71408605D01*
X128255088Y-71562948D01*
X128356906Y-71703088D01*
X128479392Y-71825574D01*
X128619532Y-71927392D01*
X128773875Y-72006033D01*
X128938619Y-72059562D01*
X129109709Y-72086660D01*
X129109710Y-72086660D01*
X130082930Y-72086660D01*
X130082931Y-72086660D01*
X130254021Y-72059562D01*
X130418765Y-72006033D01*
X130573108Y-71927392D01*
X130713248Y-71825574D01*
X130835734Y-71703088D01*
X130937552Y-71562948D01*
X131016193Y-71408605D01*
X131069722Y-71243861D01*
X131096820Y-71072771D01*
X131096820Y-70899549D01*
X131069722Y-70728459D01*
X131016193Y-70563715D01*
X130937552Y-70409372D01*
X130835734Y-70269232D01*
X130713248Y-70146746D01*
X130573108Y-70044928D01*
X130418765Y-69966287D01*
X130254021Y-69912758D01*
X130254019Y-69912757D01*
X130254018Y-69912757D01*
X130122591Y-69891941D01*
X130082931Y-69885660D01*
X129109709Y-69885660D01*
X129070048Y-69891941D01*
X128938622Y-69912757D01*
X128773872Y-69966288D01*
X128619531Y-70044928D01*
X128549195Y-70096031D01*
X128479392Y-70146746D01*
X128479390Y-70146748D01*
X128479389Y-70146748D01*
X128356908Y-70269229D01*
X128356908Y-70269230D01*
X128356906Y-70269232D01*
X128317365Y-70323656D01*
X128255088Y-70409371D01*
X128176448Y-70563712D01*
X128122917Y-70728462D01*
X128121431Y-70737847D01*
X128095820Y-70899549D01*
X105700500Y-70899549D01*
X105700500Y-70896829D01*
X105692279Y-70844926D01*
X105701233Y-70775633D01*
X105727068Y-70737850D01*
X107828101Y-68636819D01*
X107889424Y-68603334D01*
X107915782Y-68600500D01*
X108650501Y-68600500D01*
X108717540Y-68620185D01*
X108763295Y-68672989D01*
X108774501Y-68724500D01*
X108774501Y-68950018D01*
X108785000Y-69052796D01*
X108785001Y-69052799D01*
X108835492Y-69205169D01*
X108840186Y-69219334D01*
X108932288Y-69368656D01*
X109056344Y-69492712D01*
X109205666Y-69584814D01*
X109372203Y-69639999D01*
X109474991Y-69650500D01*
X110525008Y-69650499D01*
X110525016Y-69650498D01*
X110525019Y-69650498D01*
X110581302Y-69644748D01*
X110627797Y-69639999D01*
X110794334Y-69584814D01*
X110943656Y-69492712D01*
X111067712Y-69368656D01*
X111159814Y-69219334D01*
X111214999Y-69052797D01*
X111225500Y-68950009D01*
X111225500Y-68724500D01*
X111245185Y-68657461D01*
X111297989Y-68611706D01*
X111349500Y-68600500D01*
X112375501Y-68600500D01*
X112442540Y-68620185D01*
X112488295Y-68672989D01*
X112499501Y-68724500D01*
X112499501Y-68747876D01*
X112505908Y-68807483D01*
X112556202Y-68942328D01*
X112556206Y-68942335D01*
X112642452Y-69057544D01*
X112642455Y-69057547D01*
X112757664Y-69143793D01*
X112757671Y-69143797D01*
X112892517Y-69194091D01*
X112892516Y-69194091D01*
X112899444Y-69194835D01*
X112952127Y-69200500D01*
X114647872Y-69200499D01*
X114707483Y-69194091D01*
X114842331Y-69143796D01*
X114957546Y-69057546D01*
X115043796Y-68942331D01*
X115094091Y-68807483D01*
X115100500Y-68747873D01*
X115100500Y-68724500D01*
X115120185Y-68657461D01*
X115172989Y-68611706D01*
X115224500Y-68600500D01*
X140889357Y-68600500D01*
X140956396Y-68620185D01*
X141002151Y-68672989D01*
X141012095Y-68742147D01*
X140983070Y-68805703D01*
X140932690Y-68840682D01*
X140877671Y-68861202D01*
X140877664Y-68861206D01*
X140762455Y-68947452D01*
X140762452Y-68947455D01*
X140676206Y-69062664D01*
X140676202Y-69062671D01*
X140625908Y-69197517D01*
X140620264Y-69250017D01*
X140619501Y-69257123D01*
X140619500Y-69257135D01*
X140619500Y-71052870D01*
X140619501Y-71052876D01*
X140625908Y-71112483D01*
X140676202Y-71247328D01*
X140676206Y-71247335D01*
X140762452Y-71362544D01*
X140762455Y-71362547D01*
X140877664Y-71448793D01*
X140877671Y-71448797D01*
X141012517Y-71499091D01*
X141012516Y-71499091D01*
X141019444Y-71499835D01*
X141072127Y-71505500D01*
X142867872Y-71505499D01*
X142927483Y-71499091D01*
X143062331Y-71448796D01*
X143177546Y-71362546D01*
X143263796Y-71247331D01*
X143314091Y-71112483D01*
X143320500Y-71052873D01*
X143320499Y-69257128D01*
X143314412Y-69200499D01*
X143314091Y-69197516D01*
X143263797Y-69062671D01*
X143263793Y-69062664D01*
X143177547Y-68947455D01*
X143177544Y-68947452D01*
X143062335Y-68861206D01*
X143062328Y-68861202D01*
X142930917Y-68812189D01*
X142874983Y-68770318D01*
X142850566Y-68704853D01*
X142865418Y-68636580D01*
X142886563Y-68608332D01*
X143008495Y-68486401D01*
X143144035Y-68292830D01*
X143243903Y-68078663D01*
X143305063Y-67850408D01*
X143325659Y-67615000D01*
X143305063Y-67379592D01*
X143246226Y-67160008D01*
X143243905Y-67151344D01*
X143243904Y-67151343D01*
X143243903Y-67151337D01*
X143144035Y-66937171D01*
X143122856Y-66906923D01*
X143008494Y-66743597D01*
X142841402Y-66576506D01*
X142841396Y-66576501D01*
X142655842Y-66446575D01*
X142612217Y-66391998D01*
X142605023Y-66322500D01*
X142636546Y-66260145D01*
X142655842Y-66243425D01*
X142827934Y-66122925D01*
X142894140Y-66100598D01*
X142899057Y-66100500D01*
X148375500Y-66100500D01*
X148442539Y-66120185D01*
X148488294Y-66172989D01*
X148499500Y-66224500D01*
X148499500Y-70698541D01*
X148504464Y-70723494D01*
X148504464Y-70723496D01*
X148537947Y-70891828D01*
X148537950Y-70891840D01*
X148554643Y-70932139D01*
X148613366Y-71073911D01*
X148613371Y-71073920D01*
X148722860Y-71237781D01*
X148722863Y-71237785D01*
X148866537Y-71381459D01*
X148866559Y-71381479D01*
X155126339Y-77641259D01*
X155159824Y-77702582D01*
X155154840Y-77772274D01*
X155112968Y-77828207D01*
X155047504Y-77852624D01*
X155038658Y-77852940D01*
X130857204Y-77852940D01*
X130790165Y-77833255D01*
X130769523Y-77816621D01*
X130716930Y-77764028D01*
X130716928Y-77764026D01*
X130576788Y-77662208D01*
X130422445Y-77583567D01*
X130257701Y-77530038D01*
X130257699Y-77530037D01*
X130257698Y-77530037D01*
X130126271Y-77509221D01*
X130086611Y-77502940D01*
X129113389Y-77502940D01*
X129073728Y-77509221D01*
X128942302Y-77530037D01*
X128777552Y-77583568D01*
X128623211Y-77662208D01*
X128567642Y-77702582D01*
X128483072Y-77764026D01*
X128483070Y-77764028D01*
X128483069Y-77764028D01*
X128360588Y-77886509D01*
X128360588Y-77886510D01*
X128360586Y-77886512D01*
X128322919Y-77938356D01*
X128258768Y-78026651D01*
X128180128Y-78180992D01*
X128126597Y-78345742D01*
X128099500Y-78516829D01*
X128099500Y-78690051D01*
X128126598Y-78861141D01*
X128180127Y-79025885D01*
X128258768Y-79180228D01*
X128360586Y-79320368D01*
X128483072Y-79442854D01*
X128623212Y-79544672D01*
X128777555Y-79623313D01*
X128942299Y-79676842D01*
X129113389Y-79703940D01*
X129113390Y-79703940D01*
X130086610Y-79703940D01*
X130086611Y-79703940D01*
X130257701Y-79676842D01*
X130422445Y-79623313D01*
X130576788Y-79544672D01*
X130716928Y-79442854D01*
X130769523Y-79390259D01*
X130830846Y-79356774D01*
X130857204Y-79353940D01*
X154641210Y-79353940D01*
X154708249Y-79373625D01*
X154728891Y-79390259D01*
X155519891Y-80181259D01*
X155553376Y-80242582D01*
X155548392Y-80312274D01*
X155506520Y-80368207D01*
X155441056Y-80392624D01*
X155432210Y-80392940D01*
X130857204Y-80392940D01*
X130790165Y-80373255D01*
X130769523Y-80356621D01*
X130716930Y-80304028D01*
X130716928Y-80304026D01*
X130576788Y-80202208D01*
X130422445Y-80123567D01*
X130257701Y-80070038D01*
X130257699Y-80070037D01*
X130257698Y-80070037D01*
X130126271Y-80049221D01*
X130086611Y-80042940D01*
X129113389Y-80042940D01*
X129073728Y-80049221D01*
X128942302Y-80070037D01*
X128777552Y-80123568D01*
X128623211Y-80202208D01*
X128567642Y-80242582D01*
X128483072Y-80304026D01*
X128483070Y-80304028D01*
X128483069Y-80304028D01*
X128360588Y-80426509D01*
X128360588Y-80426510D01*
X128360586Y-80426512D01*
X128316859Y-80486696D01*
X128258768Y-80566651D01*
X128180128Y-80720992D01*
X128126597Y-80885742D01*
X128107207Y-81008170D01*
X128099500Y-81056829D01*
X128099500Y-81230051D01*
X128126598Y-81401141D01*
X128180127Y-81565885D01*
X128258768Y-81720228D01*
X128360586Y-81860368D01*
X128483072Y-81982854D01*
X128623212Y-82084672D01*
X128777555Y-82163313D01*
X128942299Y-82216842D01*
X129113389Y-82243940D01*
X129113390Y-82243940D01*
X130086610Y-82243940D01*
X130086611Y-82243940D01*
X130257701Y-82216842D01*
X130422445Y-82163313D01*
X130576788Y-82084672D01*
X130716928Y-81982854D01*
X130769523Y-81930259D01*
X130830846Y-81896774D01*
X130857204Y-81893940D01*
X155181210Y-81893940D01*
X155248249Y-81913625D01*
X155268891Y-81930259D01*
X156313181Y-82974548D01*
X156346666Y-83035871D01*
X156349500Y-83062229D01*
X156349500Y-87237769D01*
X156329815Y-87304808D01*
X156313181Y-87325450D01*
X155401833Y-88236797D01*
X155340510Y-88270282D01*
X155270818Y-88265298D01*
X155233622Y-88243407D01*
X155187822Y-88204291D01*
X155149628Y-88145785D01*
X155149128Y-88075917D01*
X155186481Y-88016870D01*
X155187753Y-88015767D01*
X155235224Y-87975224D01*
X155398836Y-87783659D01*
X155530466Y-87568859D01*
X155626873Y-87336111D01*
X155685683Y-87091148D01*
X155705449Y-86840000D01*
X155685683Y-86588852D01*
X155626873Y-86343889D01*
X155612857Y-86310051D01*
X155530466Y-86111140D01*
X155398839Y-85896346D01*
X155398833Y-85896337D01*
X155269331Y-85744709D01*
X155240760Y-85680948D01*
X155251197Y-85611862D01*
X155289309Y-85564912D01*
X155332546Y-85532546D01*
X155418796Y-85417331D01*
X155469091Y-85282483D01*
X155475500Y-85222873D01*
X155475499Y-85153527D01*
X155493773Y-85088735D01*
X155530464Y-85028863D01*
X155530466Y-85028858D01*
X155597719Y-84866496D01*
X155626873Y-84796111D01*
X155685683Y-84551148D01*
X155705449Y-84300000D01*
X155685683Y-84048852D01*
X155626873Y-83803889D01*
X155612857Y-83770051D01*
X155530466Y-83571140D01*
X155493772Y-83511261D01*
X155475499Y-83446471D01*
X155475499Y-83427129D01*
X155475498Y-83427123D01*
X155475349Y-83425739D01*
X155469091Y-83367517D01*
X155469089Y-83367512D01*
X155418797Y-83232671D01*
X155418793Y-83232664D01*
X155332547Y-83117455D01*
X155332544Y-83117452D01*
X155217335Y-83031206D01*
X155217328Y-83031202D01*
X155082482Y-82980908D01*
X155082484Y-82980908D01*
X155023054Y-82974519D01*
X154971520Y-82956957D01*
X154828859Y-82869533D01*
X154596110Y-82773126D01*
X154351151Y-82714317D01*
X154100000Y-82694551D01*
X153848848Y-82714317D01*
X153603889Y-82773126D01*
X153371142Y-82869533D01*
X153217836Y-82963478D01*
X153174834Y-82978132D01*
X153175069Y-82979124D01*
X153167517Y-82980908D01*
X153032673Y-83031201D01*
X153032664Y-83031206D01*
X152917455Y-83117452D01*
X152917452Y-83117455D01*
X152831206Y-83232664D01*
X152831201Y-83232673D01*
X152780910Y-83367512D01*
X152779125Y-83375068D01*
X152778135Y-83374834D01*
X152763477Y-83417838D01*
X152669534Y-83571140D01*
X152668783Y-83572954D01*
X152668311Y-83573538D01*
X152667320Y-83575485D01*
X152666911Y-83575276D01*
X152624941Y-83627357D01*
X152558647Y-83649421D01*
X152554222Y-83649500D01*
X147712659Y-83649500D01*
X147645620Y-83629815D01*
X147611084Y-83596623D01*
X147600045Y-83580858D01*
X147439141Y-83419954D01*
X147252734Y-83289432D01*
X147252732Y-83289431D01*
X147046497Y-83193261D01*
X147046488Y-83193258D01*
X146826697Y-83134366D01*
X146826693Y-83134365D01*
X146826692Y-83134365D01*
X146826691Y-83134364D01*
X146826686Y-83134364D01*
X146600002Y-83114532D01*
X146599998Y-83114532D01*
X146373313Y-83134364D01*
X146373302Y-83134366D01*
X146153511Y-83193258D01*
X146153502Y-83193261D01*
X145947267Y-83289431D01*
X145947265Y-83289432D01*
X145760858Y-83419954D01*
X145599954Y-83580858D01*
X145469432Y-83767265D01*
X145469431Y-83767267D01*
X145373261Y-83973502D01*
X145373258Y-83973511D01*
X145314366Y-84193302D01*
X145314364Y-84193313D01*
X145294532Y-84419998D01*
X145294532Y-84420001D01*
X145314364Y-84646686D01*
X145314366Y-84646697D01*
X145373258Y-84866488D01*
X145373261Y-84866497D01*
X145469431Y-85072732D01*
X145469432Y-85072734D01*
X145599954Y-85259141D01*
X145760858Y-85420045D01*
X145760861Y-85420047D01*
X145947266Y-85550568D01*
X146153504Y-85646739D01*
X146373308Y-85705635D01*
X146535230Y-85719801D01*
X146599998Y-85725468D01*
X146600000Y-85725468D01*
X146600002Y-85725468D01*
X146656673Y-85720509D01*
X146826692Y-85705635D01*
X147046496Y-85646739D01*
X147252734Y-85550568D01*
X147439139Y-85420047D01*
X147600047Y-85259139D01*
X147625431Y-85222886D01*
X147639092Y-85203377D01*
X147693669Y-85159752D01*
X147740667Y-85150500D01*
X152655336Y-85150500D01*
X152722375Y-85170185D01*
X152768130Y-85222989D01*
X152778626Y-85261246D01*
X152780909Y-85282483D01*
X152831202Y-85417328D01*
X152831206Y-85417335D01*
X152917452Y-85532544D01*
X152917453Y-85532544D01*
X152917454Y-85532546D01*
X152930189Y-85542079D01*
X152972060Y-85598011D01*
X152977045Y-85667703D01*
X152950170Y-85721877D01*
X152801161Y-85896344D01*
X152801160Y-85896346D01*
X152669537Y-86111134D01*
X152667324Y-86115479D01*
X152665586Y-86114593D01*
X152626916Y-86162569D01*
X152609802Y-86171912D01*
X152609874Y-86172046D01*
X152604504Y-86174916D01*
X152555269Y-86207813D01*
X152481588Y-86257044D01*
X152481580Y-86257050D01*
X150925451Y-87813181D01*
X150864128Y-87846666D01*
X150837770Y-87849500D01*
X135526080Y-87849500D01*
X135381092Y-87878340D01*
X135381082Y-87878343D01*
X135244511Y-87934912D01*
X135244498Y-87934919D01*
X135198843Y-87965426D01*
X135198842Y-87965427D01*
X135121579Y-88017051D01*
X131165338Y-91973292D01*
X131104015Y-92006777D01*
X131034323Y-92001793D01*
X130978390Y-91959921D01*
X130953973Y-91894457D01*
X130967171Y-91829318D01*
X131019873Y-91725885D01*
X131073402Y-91561141D01*
X131100500Y-91390051D01*
X131100500Y-91216829D01*
X131073402Y-91045739D01*
X131019873Y-90880995D01*
X130941232Y-90726652D01*
X130839414Y-90586512D01*
X130716928Y-90464026D01*
X130576788Y-90362208D01*
X130422445Y-90283567D01*
X130257701Y-90230038D01*
X130257699Y-90230037D01*
X130257698Y-90230037D01*
X130126271Y-90209221D01*
X130086611Y-90202940D01*
X129113389Y-90202940D01*
X129073728Y-90209221D01*
X128942302Y-90230037D01*
X128777552Y-90283568D01*
X128623211Y-90362208D01*
X128543256Y-90420299D01*
X128483072Y-90464026D01*
X128483070Y-90464028D01*
X128483069Y-90464028D01*
X128360588Y-90586509D01*
X128360588Y-90586510D01*
X128360586Y-90586512D01*
X128322919Y-90638356D01*
X128258768Y-90726651D01*
X128180128Y-90880992D01*
X128126597Y-91045742D01*
X128099500Y-91216829D01*
X128099500Y-91390050D01*
X128118361Y-91509139D01*
X128126598Y-91561141D01*
X128179165Y-91722925D01*
X128180128Y-91725887D01*
X128217958Y-91800134D01*
X128258768Y-91880228D01*
X128360586Y-92020368D01*
X128483072Y-92142854D01*
X128623212Y-92244672D01*
X128777555Y-92323313D01*
X128942299Y-92376842D01*
X129113389Y-92403940D01*
X129113390Y-92403940D01*
X130086610Y-92403940D01*
X130086611Y-92403940D01*
X130257701Y-92376842D01*
X130422445Y-92323313D01*
X130525878Y-92270611D01*
X130594545Y-92257716D01*
X130659286Y-92283992D01*
X130699543Y-92341098D01*
X130702535Y-92410904D01*
X130669852Y-92468778D01*
X130395129Y-92743501D01*
X130333806Y-92776986D01*
X130269136Y-92773753D01*
X130257699Y-92770037D01*
X130118807Y-92748039D01*
X130086611Y-92742940D01*
X129113389Y-92742940D01*
X129073728Y-92749221D01*
X128942302Y-92770037D01*
X128777552Y-92823568D01*
X128623211Y-92902208D01*
X128543256Y-92960299D01*
X128483072Y-93004026D01*
X128483070Y-93004028D01*
X128483069Y-93004028D01*
X128360588Y-93126509D01*
X128360588Y-93126510D01*
X128360586Y-93126512D01*
X128322919Y-93178356D01*
X128258768Y-93266651D01*
X128180128Y-93420992D01*
X128126597Y-93585742D01*
X128103569Y-93731140D01*
X128099500Y-93756829D01*
X128099500Y-93930051D01*
X128126598Y-94101141D01*
X128180127Y-94265885D01*
X128258768Y-94420228D01*
X128360586Y-94560368D01*
X128483072Y-94682854D01*
X128623212Y-94784672D01*
X128777555Y-94863313D01*
X128942299Y-94916842D01*
X129113389Y-94943940D01*
X129113390Y-94943940D01*
X130086610Y-94943940D01*
X130086611Y-94943940D01*
X130257701Y-94916842D01*
X130305811Y-94901209D01*
X130375649Y-94899213D01*
X130435482Y-94935293D01*
X130466311Y-94997993D01*
X130458348Y-95067407D01*
X130431809Y-95106821D01*
X130277248Y-95261382D01*
X130215925Y-95294867D01*
X130170168Y-95296174D01*
X130086615Y-95282940D01*
X130086611Y-95282940D01*
X129113389Y-95282940D01*
X129073728Y-95289221D01*
X128942302Y-95310037D01*
X128777552Y-95363568D01*
X128623211Y-95442208D01*
X128543256Y-95500299D01*
X128483072Y-95544026D01*
X128483070Y-95544028D01*
X128483069Y-95544028D01*
X128360588Y-95666509D01*
X128360588Y-95666510D01*
X128360586Y-95666512D01*
X128322919Y-95718356D01*
X128258768Y-95806651D01*
X128180128Y-95960992D01*
X128126597Y-96125742D01*
X128099500Y-96296829D01*
X128099500Y-96470050D01*
X128121017Y-96605908D01*
X128126598Y-96641141D01*
X128178052Y-96799500D01*
X128180128Y-96805887D01*
X128196463Y-96837947D01*
X128258768Y-96960228D01*
X128360586Y-97100368D01*
X128483072Y-97222854D01*
X128623212Y-97324672D01*
X128777555Y-97403313D01*
X128942299Y-97456842D01*
X129113389Y-97483940D01*
X129113390Y-97483940D01*
X130086610Y-97483940D01*
X130086611Y-97483940D01*
X130257701Y-97456842D01*
X130422445Y-97403313D01*
X130576788Y-97324672D01*
X130716928Y-97222854D01*
X130839414Y-97100368D01*
X130941232Y-96960228D01*
X131019873Y-96805885D01*
X131073402Y-96641141D01*
X131077106Y-96617750D01*
X131107033Y-96554619D01*
X131111880Y-96549486D01*
X133081368Y-94579998D01*
X145294532Y-94579998D01*
X145294532Y-94580001D01*
X145314364Y-94806686D01*
X145314366Y-94806697D01*
X145373258Y-95026488D01*
X145373261Y-95026497D01*
X145469431Y-95232732D01*
X145469432Y-95232734D01*
X145599954Y-95419141D01*
X145760858Y-95580045D01*
X145760861Y-95580047D01*
X145947266Y-95710568D01*
X146153504Y-95806739D01*
X146373308Y-95865635D01*
X146535230Y-95879801D01*
X146599998Y-95885468D01*
X146600000Y-95885468D01*
X146600002Y-95885468D01*
X146656673Y-95880509D01*
X146826692Y-95865635D01*
X147046496Y-95806739D01*
X147252734Y-95710568D01*
X147439139Y-95580047D01*
X147600047Y-95419139D01*
X147730568Y-95232734D01*
X147826739Y-95026496D01*
X147885635Y-94806692D01*
X147902634Y-94612384D01*
X147905468Y-94580001D01*
X147905468Y-94579998D01*
X147899801Y-94515230D01*
X147885635Y-94353308D01*
X147826739Y-94133504D01*
X147730568Y-93927266D01*
X147600047Y-93740861D01*
X147600045Y-93740858D01*
X147439141Y-93579954D01*
X147252734Y-93449432D01*
X147252732Y-93449431D01*
X147046497Y-93353261D01*
X147046488Y-93353258D01*
X146826697Y-93294366D01*
X146826693Y-93294365D01*
X146826692Y-93294365D01*
X146826691Y-93294364D01*
X146826686Y-93294364D01*
X146600002Y-93274532D01*
X146599998Y-93274532D01*
X146373313Y-93294364D01*
X146373302Y-93294366D01*
X146153511Y-93353258D01*
X146153502Y-93353261D01*
X145947267Y-93449431D01*
X145947265Y-93449432D01*
X145760858Y-93579954D01*
X145599954Y-93740858D01*
X145469432Y-93927265D01*
X145469431Y-93927267D01*
X145373261Y-94133502D01*
X145373258Y-94133511D01*
X145314366Y-94353302D01*
X145314364Y-94353313D01*
X145294532Y-94579998D01*
X133081368Y-94579998D01*
X137074548Y-90586819D01*
X137135871Y-90553334D01*
X137162229Y-90550500D01*
X145537770Y-90550500D01*
X145604809Y-90570185D01*
X145625451Y-90586819D01*
X152582826Y-97544194D01*
X152609706Y-97584422D01*
X152669533Y-97728859D01*
X152801160Y-97943653D01*
X152801161Y-97943656D01*
X152801164Y-97943659D01*
X152964776Y-98135224D01*
X153012178Y-98175709D01*
X153012179Y-98175710D01*
X153050372Y-98234217D01*
X153050870Y-98304085D01*
X153013516Y-98363131D01*
X153012179Y-98364290D01*
X152964776Y-98404775D01*
X152929263Y-98446356D01*
X152886835Y-98496032D01*
X152828331Y-98534225D01*
X152792547Y-98539500D01*
X148192264Y-98539500D01*
X148125225Y-98519815D01*
X148092997Y-98489810D01*
X148057550Y-98442458D01*
X148057547Y-98442455D01*
X148057546Y-98442454D01*
X148007215Y-98404776D01*
X147942335Y-98356206D01*
X147942328Y-98356202D01*
X147807482Y-98305908D01*
X147807483Y-98305908D01*
X147747883Y-98299501D01*
X147747881Y-98299500D01*
X147747873Y-98299500D01*
X147747865Y-98299500D01*
X146765783Y-98299500D01*
X146698744Y-98279815D01*
X146678102Y-98263181D01*
X145584209Y-97169289D01*
X145584206Y-97169285D01*
X145584206Y-97169286D01*
X145577139Y-97162219D01*
X145577139Y-97162218D01*
X145437782Y-97022861D01*
X145437781Y-97022860D01*
X145437780Y-97022859D01*
X145273920Y-96913371D01*
X145273907Y-96913364D01*
X145139445Y-96857669D01*
X145139444Y-96857669D01*
X145091836Y-96837949D01*
X145091828Y-96837947D01*
X144951262Y-96809987D01*
X144898543Y-96799500D01*
X144898541Y-96799500D01*
X138662320Y-96799500D01*
X138595281Y-96779815D01*
X138563052Y-96749809D01*
X138557548Y-96742457D01*
X138557546Y-96742454D01*
X138531459Y-96722925D01*
X138442335Y-96656206D01*
X138442328Y-96656202D01*
X138307482Y-96605908D01*
X138307483Y-96605908D01*
X138247883Y-96599501D01*
X138247881Y-96599500D01*
X138247873Y-96599500D01*
X138247864Y-96599500D01*
X136552129Y-96599500D01*
X136552123Y-96599501D01*
X136492516Y-96605908D01*
X136357671Y-96656202D01*
X136357664Y-96656206D01*
X136242455Y-96742452D01*
X136242452Y-96742455D01*
X136156206Y-96857664D01*
X136156204Y-96857669D01*
X136105908Y-96992517D01*
X136099501Y-97052116D01*
X136099500Y-97052135D01*
X136099500Y-97334215D01*
X136079815Y-97401254D01*
X136063183Y-97421894D01*
X136022862Y-97462215D01*
X136022858Y-97462221D01*
X135913371Y-97626080D01*
X135913364Y-97626093D01*
X135863426Y-97746657D01*
X135863426Y-97746658D01*
X135837950Y-97808161D01*
X135837948Y-97808168D01*
X135835009Y-97822943D01*
X135799500Y-98001454D01*
X135799500Y-100927983D01*
X135779815Y-100995022D01*
X135727011Y-101040777D01*
X135714510Y-101045686D01*
X135655666Y-101065186D01*
X135655663Y-101065187D01*
X135506342Y-101157289D01*
X135382289Y-101281342D01*
X135290187Y-101430663D01*
X135290185Y-101430668D01*
X135270504Y-101490061D01*
X135235001Y-101597203D01*
X135235001Y-101597204D01*
X135235000Y-101597204D01*
X135224500Y-101699983D01*
X135224500Y-103000001D01*
X135224501Y-103000018D01*
X135235000Y-103102796D01*
X135235001Y-103102799D01*
X135290185Y-103269331D01*
X135290187Y-103269336D01*
X135300780Y-103286510D01*
X135382288Y-103418656D01*
X135506344Y-103542712D01*
X135655666Y-103634814D01*
X135822203Y-103689999D01*
X135924991Y-103700500D01*
X137475008Y-103700499D01*
X137577797Y-103689999D01*
X137744334Y-103634814D01*
X137893656Y-103542712D01*
X137899549Y-103536819D01*
X137960872Y-103503334D01*
X137987230Y-103500500D01*
X140765530Y-103500500D01*
X140832569Y-103520185D01*
X140871067Y-103559401D01*
X140932288Y-103658656D01*
X141056344Y-103782712D01*
X141205666Y-103874814D01*
X141372203Y-103929999D01*
X141474991Y-103940500D01*
X142525008Y-103940499D01*
X142525016Y-103940498D01*
X142525019Y-103940498D01*
X142581302Y-103934748D01*
X142627797Y-103929999D01*
X142794334Y-103874814D01*
X142943656Y-103782712D01*
X143067712Y-103658656D01*
X143159814Y-103509334D01*
X143214999Y-103342797D01*
X143225500Y-103240009D01*
X143225499Y-102464992D01*
X143214999Y-102362203D01*
X143159814Y-102195666D01*
X143067712Y-102046344D01*
X142943656Y-101922288D01*
X142943652Y-101922285D01*
X142848281Y-101863459D01*
X142810276Y-101826812D01*
X142777137Y-101777216D01*
X142637784Y-101637863D01*
X142637780Y-101637860D01*
X142473920Y-101528372D01*
X142473910Y-101528367D01*
X142291836Y-101452949D01*
X142291828Y-101452947D01*
X142098543Y-101414500D01*
X142098540Y-101414500D01*
X141901460Y-101414500D01*
X141901457Y-101414500D01*
X141708171Y-101452947D01*
X141708163Y-101452949D01*
X141618569Y-101490061D01*
X141571116Y-101499500D01*
X138220908Y-101499500D01*
X138153869Y-101479815D01*
X138115363Y-101435728D01*
X138113605Y-101436813D01*
X138109812Y-101430663D01*
X138017712Y-101281344D01*
X137893656Y-101157288D01*
X137893653Y-101157285D01*
X137859401Y-101136158D01*
X137812678Y-101084210D01*
X137800500Y-101030621D01*
X137800500Y-99324499D01*
X137820185Y-99257460D01*
X137872989Y-99211705D01*
X137924500Y-99200499D01*
X138247871Y-99200499D01*
X138247872Y-99200499D01*
X138307483Y-99194091D01*
X138442331Y-99143796D01*
X138557546Y-99057546D01*
X138643796Y-98942331D01*
X138666609Y-98881167D01*
X138708480Y-98825233D01*
X138773944Y-98800816D01*
X138782791Y-98800500D01*
X144334218Y-98800500D01*
X144401257Y-98820185D01*
X144421899Y-98836819D01*
X145563181Y-99978102D01*
X145596666Y-100039425D01*
X145599500Y-100065783D01*
X145599500Y-100447869D01*
X145599501Y-100447876D01*
X145605908Y-100507483D01*
X145656202Y-100642328D01*
X145656206Y-100642335D01*
X145742452Y-100757544D01*
X145742455Y-100757547D01*
X145857664Y-100843793D01*
X145857671Y-100843797D01*
X145992517Y-100894091D01*
X145992516Y-100894091D01*
X145999444Y-100894835D01*
X146052127Y-100900500D01*
X147747872Y-100900499D01*
X147807483Y-100894091D01*
X147942331Y-100843796D01*
X148057546Y-100757546D01*
X148143796Y-100642331D01*
X148150483Y-100624403D01*
X148151690Y-100621167D01*
X148193561Y-100565233D01*
X148259025Y-100540816D01*
X148267872Y-100540500D01*
X152792547Y-100540500D01*
X152859586Y-100560185D01*
X152886833Y-100583965D01*
X152959166Y-100668656D01*
X152964776Y-100675224D01*
X153156343Y-100838838D01*
X153156346Y-100838839D01*
X153371140Y-100970466D01*
X153552746Y-101045689D01*
X153603889Y-101066873D01*
X153848852Y-101125683D01*
X154100000Y-101145449D01*
X154351148Y-101125683D01*
X154596111Y-101066873D01*
X154828859Y-100970466D01*
X155043659Y-100838836D01*
X155235224Y-100675224D01*
X155291812Y-100608967D01*
X155350317Y-100570775D01*
X155386101Y-100565500D01*
X157499454Y-100565500D01*
X157566493Y-100585185D01*
X157604991Y-100624401D01*
X157632288Y-100668656D01*
X157756344Y-100792712D01*
X157905666Y-100884814D01*
X158072203Y-100939999D01*
X158174991Y-100950500D01*
X159225008Y-100950499D01*
X159225016Y-100950498D01*
X159225019Y-100950498D01*
X159281302Y-100944748D01*
X159327797Y-100939999D01*
X159494334Y-100884814D01*
X159643656Y-100792712D01*
X159767712Y-100668656D01*
X159859814Y-100519334D01*
X159914999Y-100352797D01*
X159925500Y-100250009D01*
X159925499Y-100240790D01*
X159945178Y-100173752D01*
X159961812Y-100153107D01*
X160052139Y-100062782D01*
X160052140Y-100062779D01*
X160977140Y-99137781D01*
X161086632Y-98973914D01*
X161162052Y-98791835D01*
X161200501Y-98598540D01*
X161200501Y-98401459D01*
X161200501Y-98396349D01*
X161200500Y-98396323D01*
X161200500Y-95699998D01*
X161734532Y-95699998D01*
X161734532Y-95700001D01*
X161754364Y-95926686D01*
X161754366Y-95926697D01*
X161813258Y-96146488D01*
X161813261Y-96146497D01*
X161909431Y-96352732D01*
X161909432Y-96352734D01*
X162039954Y-96539141D01*
X162200858Y-96700045D01*
X162200861Y-96700047D01*
X162387266Y-96830568D01*
X162593504Y-96926739D01*
X162813308Y-96985635D01*
X162975230Y-96999801D01*
X163039998Y-97005468D01*
X163040000Y-97005468D01*
X163040002Y-97005468D01*
X163102682Y-96999984D01*
X163266692Y-96985635D01*
X163486496Y-96926739D01*
X163692734Y-96830568D01*
X163879139Y-96700047D01*
X164040047Y-96539139D01*
X164170568Y-96352734D01*
X164266739Y-96146496D01*
X164325635Y-95926692D01*
X164345468Y-95700000D01*
X164345468Y-95699998D01*
X171894532Y-95699998D01*
X171894532Y-95700001D01*
X171914364Y-95926686D01*
X171914366Y-95926697D01*
X171973258Y-96146488D01*
X171973261Y-96146497D01*
X172069431Y-96352732D01*
X172069432Y-96352734D01*
X172199954Y-96539141D01*
X172360858Y-96700045D01*
X172360861Y-96700047D01*
X172547266Y-96830568D01*
X172753504Y-96926739D01*
X172973308Y-96985635D01*
X173135230Y-96999801D01*
X173199998Y-97005468D01*
X173200000Y-97005468D01*
X173200002Y-97005468D01*
X173262682Y-96999984D01*
X173426692Y-96985635D01*
X173646496Y-96926739D01*
X173852734Y-96830568D01*
X174006465Y-96722924D01*
X174072671Y-96700598D01*
X174077588Y-96700500D01*
X175522412Y-96700500D01*
X175589451Y-96720185D01*
X175593523Y-96722917D01*
X175747266Y-96830568D01*
X175953504Y-96926739D01*
X176173308Y-96985635D01*
X176335230Y-96999801D01*
X176399998Y-97005468D01*
X176400000Y-97005468D01*
X176400002Y-97005468D01*
X176462682Y-96999984D01*
X176626692Y-96985635D01*
X176846496Y-96926739D01*
X177052734Y-96830568D01*
X177206465Y-96722924D01*
X177272671Y-96700598D01*
X177277588Y-96700500D01*
X224677145Y-96700500D01*
X224744184Y-96720185D01*
X224768374Y-96740517D01*
X224804551Y-96779815D01*
X224830256Y-96807738D01*
X225026491Y-96960474D01*
X225135840Y-97019651D01*
X225195830Y-97052116D01*
X225245190Y-97078828D01*
X225480386Y-97159571D01*
X225725665Y-97200500D01*
X225974335Y-97200500D01*
X226219614Y-97159571D01*
X226454810Y-97078828D01*
X226673509Y-96960474D01*
X226869744Y-96807738D01*
X227038164Y-96624785D01*
X227174173Y-96416607D01*
X227274063Y-96188881D01*
X227335108Y-95947821D01*
X227335109Y-95947812D01*
X227355643Y-95700005D01*
X227355643Y-95699994D01*
X227335109Y-95452187D01*
X227335107Y-95452175D01*
X227274063Y-95211118D01*
X227174173Y-94983393D01*
X227038166Y-94775217D01*
X226964757Y-94695474D01*
X226869744Y-94592262D01*
X226673509Y-94439526D01*
X226673507Y-94439525D01*
X226673506Y-94439524D01*
X226454811Y-94321172D01*
X226454802Y-94321169D01*
X226219616Y-94240429D01*
X225974335Y-94199500D01*
X225725665Y-94199500D01*
X225480383Y-94240429D01*
X225245197Y-94321169D01*
X225245188Y-94321172D01*
X225026493Y-94439524D01*
X224830255Y-94592262D01*
X224830252Y-94592265D01*
X224768374Y-94659483D01*
X224708487Y-94695474D01*
X224677145Y-94699500D01*
X177277588Y-94699500D01*
X177210549Y-94679815D01*
X177206465Y-94677075D01*
X177139604Y-94630259D01*
X177052734Y-94569432D01*
X177033301Y-94560370D01*
X176846497Y-94473261D01*
X176846488Y-94473258D01*
X176626697Y-94414366D01*
X176626693Y-94414365D01*
X176626692Y-94414365D01*
X176626691Y-94414364D01*
X176626686Y-94414364D01*
X176400002Y-94394532D01*
X176399998Y-94394532D01*
X176173313Y-94414364D01*
X176173302Y-94414366D01*
X175953511Y-94473258D01*
X175953502Y-94473261D01*
X175747267Y-94569431D01*
X175747265Y-94569432D01*
X175593535Y-94677075D01*
X175527329Y-94699402D01*
X175522412Y-94699500D01*
X174077588Y-94699500D01*
X174010549Y-94679815D01*
X174006465Y-94677075D01*
X173939604Y-94630259D01*
X173852734Y-94569432D01*
X173833301Y-94560370D01*
X173646497Y-94473261D01*
X173646488Y-94473258D01*
X173426697Y-94414366D01*
X173426693Y-94414365D01*
X173426692Y-94414365D01*
X173426691Y-94414364D01*
X173426686Y-94414364D01*
X173200002Y-94394532D01*
X173199998Y-94394532D01*
X172973313Y-94414364D01*
X172973302Y-94414366D01*
X172753511Y-94473258D01*
X172753502Y-94473261D01*
X172547267Y-94569431D01*
X172547265Y-94569432D01*
X172360858Y-94699954D01*
X172199954Y-94860858D01*
X172069432Y-95047265D01*
X172069431Y-95047267D01*
X171973261Y-95253502D01*
X171973258Y-95253511D01*
X171914366Y-95473302D01*
X171914364Y-95473313D01*
X171894532Y-95699998D01*
X164345468Y-95699998D01*
X164345467Y-95699994D01*
X164337879Y-95613255D01*
X164325635Y-95473308D01*
X164266739Y-95253504D01*
X164170568Y-95047266D01*
X164041764Y-94863313D01*
X164040045Y-94860858D01*
X163879141Y-94699954D01*
X163692734Y-94569432D01*
X163692732Y-94569431D01*
X163486497Y-94473261D01*
X163486488Y-94473258D01*
X163266697Y-94414366D01*
X163266693Y-94414365D01*
X163266692Y-94414365D01*
X163266691Y-94414364D01*
X163266686Y-94414364D01*
X163040002Y-94394532D01*
X163039998Y-94394532D01*
X162813313Y-94414364D01*
X162813302Y-94414366D01*
X162593511Y-94473258D01*
X162593502Y-94473261D01*
X162387267Y-94569431D01*
X162387265Y-94569432D01*
X162200858Y-94699954D01*
X162039954Y-94860858D01*
X161909432Y-95047265D01*
X161909431Y-95047267D01*
X161813261Y-95253502D01*
X161813258Y-95253511D01*
X161754366Y-95473302D01*
X161754364Y-95473313D01*
X161734532Y-95699998D01*
X161200500Y-95699998D01*
X161200500Y-90669998D01*
X161744532Y-90669998D01*
X161744532Y-90669999D01*
X161764364Y-90896686D01*
X161764366Y-90896697D01*
X161823258Y-91116488D01*
X161823261Y-91116497D01*
X161919431Y-91322732D01*
X161919432Y-91322734D01*
X162049954Y-91509141D01*
X162210858Y-91670045D01*
X162210861Y-91670047D01*
X162397266Y-91800568D01*
X162603504Y-91896739D01*
X162823308Y-91955635D01*
X162985230Y-91969801D01*
X163049998Y-91975468D01*
X163050000Y-91975468D01*
X163050002Y-91975468D01*
X163106673Y-91970509D01*
X163276692Y-91955635D01*
X163496496Y-91896739D01*
X163702734Y-91800568D01*
X163889139Y-91670047D01*
X164050047Y-91509139D01*
X164180568Y-91322734D01*
X164276739Y-91116496D01*
X164335635Y-90896692D01*
X164355468Y-90670000D01*
X164355468Y-90669998D01*
X171904532Y-90669998D01*
X171904532Y-90669999D01*
X171924364Y-90896686D01*
X171924366Y-90896697D01*
X171983258Y-91116488D01*
X171983261Y-91116497D01*
X172079431Y-91322732D01*
X172079432Y-91322734D01*
X172209954Y-91509141D01*
X172370858Y-91670045D01*
X172370861Y-91670047D01*
X172557266Y-91800568D01*
X172763504Y-91896739D01*
X172983308Y-91955635D01*
X173145230Y-91969801D01*
X173209998Y-91975468D01*
X173210000Y-91975468D01*
X173210002Y-91975468D01*
X173266673Y-91970509D01*
X173436692Y-91955635D01*
X173656496Y-91896739D01*
X173862734Y-91800568D01*
X173973621Y-91722924D01*
X174039826Y-91700598D01*
X174044743Y-91700500D01*
X175493848Y-91700500D01*
X175560887Y-91720185D01*
X175564971Y-91722925D01*
X175600601Y-91747873D01*
X175747266Y-91850568D01*
X175953504Y-91946739D01*
X176173308Y-92005635D01*
X176335230Y-92019801D01*
X176399998Y-92025468D01*
X176400000Y-92025468D01*
X176400002Y-92025468D01*
X176458293Y-92020368D01*
X176626692Y-92005635D01*
X176846496Y-91946739D01*
X177052734Y-91850568D01*
X177230799Y-91725887D01*
X177235029Y-91722925D01*
X177301235Y-91700598D01*
X177306152Y-91700500D01*
X224233023Y-91700500D01*
X224300062Y-91720185D01*
X224345817Y-91772989D01*
X224353266Y-91800134D01*
X224354124Y-91799932D01*
X224355907Y-91807479D01*
X224406202Y-91942328D01*
X224406206Y-91942335D01*
X224492452Y-92057544D01*
X224492455Y-92057547D01*
X224607664Y-92143793D01*
X224607671Y-92143797D01*
X224742517Y-92194091D01*
X224742516Y-92194091D01*
X224749444Y-92194835D01*
X224802127Y-92200500D01*
X226897872Y-92200499D01*
X226957483Y-92194091D01*
X227092331Y-92143796D01*
X227207546Y-92057546D01*
X227293796Y-91942331D01*
X227344091Y-91807483D01*
X227350500Y-91747873D01*
X227350499Y-89652128D01*
X227344091Y-89592517D01*
X227342940Y-89589432D01*
X227293797Y-89457671D01*
X227293793Y-89457664D01*
X227207547Y-89342455D01*
X227207544Y-89342452D01*
X227092335Y-89256206D01*
X227092328Y-89256202D01*
X226957482Y-89205908D01*
X226957483Y-89205908D01*
X226897883Y-89199501D01*
X226897881Y-89199500D01*
X226897873Y-89199500D01*
X226897864Y-89199500D01*
X224802129Y-89199500D01*
X224802123Y-89199501D01*
X224742516Y-89205908D01*
X224607671Y-89256202D01*
X224607664Y-89256206D01*
X224492455Y-89342452D01*
X224492452Y-89342455D01*
X224406206Y-89457664D01*
X224406202Y-89457671D01*
X224355908Y-89592517D01*
X224354126Y-89600062D01*
X224351853Y-89599525D01*
X224329571Y-89653312D01*
X224272177Y-89693157D01*
X224233024Y-89699500D01*
X177249025Y-89699500D01*
X177181986Y-89679815D01*
X177177902Y-89677075D01*
X177167732Y-89669954D01*
X177052734Y-89589432D01*
X177018673Y-89573549D01*
X176846497Y-89493261D01*
X176846488Y-89493258D01*
X176626697Y-89434366D01*
X176626693Y-89434365D01*
X176626692Y-89434365D01*
X176626691Y-89434364D01*
X176626686Y-89434364D01*
X176400002Y-89414532D01*
X176399998Y-89414532D01*
X176173313Y-89434364D01*
X176173302Y-89434366D01*
X175953511Y-89493258D01*
X175953502Y-89493261D01*
X175747267Y-89589431D01*
X175747265Y-89589432D01*
X175687684Y-89631151D01*
X175632268Y-89669954D01*
X175622098Y-89677075D01*
X175555892Y-89699402D01*
X175550975Y-89699500D01*
X174129485Y-89699500D01*
X174062446Y-89679815D01*
X174049786Y-89670495D01*
X174049142Y-89669954D01*
X173862734Y-89539432D01*
X173862732Y-89539431D01*
X173656497Y-89443261D01*
X173656488Y-89443258D01*
X173436697Y-89384366D01*
X173436693Y-89384365D01*
X173436692Y-89384365D01*
X173436691Y-89384364D01*
X173436686Y-89384364D01*
X173210002Y-89364532D01*
X173209998Y-89364532D01*
X172983313Y-89384364D01*
X172983302Y-89384366D01*
X172763511Y-89443258D01*
X172763502Y-89443261D01*
X172557267Y-89539431D01*
X172557265Y-89539432D01*
X172370858Y-89669954D01*
X172209954Y-89830858D01*
X172079432Y-90017265D01*
X172079431Y-90017267D01*
X171983261Y-90223502D01*
X171983258Y-90223511D01*
X171924366Y-90443302D01*
X171924364Y-90443313D01*
X171904532Y-90669998D01*
X164355468Y-90669998D01*
X164335635Y-90443308D01*
X164276739Y-90223504D01*
X164180568Y-90017266D01*
X164050047Y-89830861D01*
X164050045Y-89830858D01*
X163889141Y-89669954D01*
X163702734Y-89539432D01*
X163702732Y-89539431D01*
X163496497Y-89443261D01*
X163496488Y-89443258D01*
X163276697Y-89384366D01*
X163276693Y-89384365D01*
X163276692Y-89384365D01*
X163276691Y-89384364D01*
X163276686Y-89384364D01*
X163050002Y-89364532D01*
X163049998Y-89364532D01*
X162823313Y-89384364D01*
X162823302Y-89384366D01*
X162603511Y-89443258D01*
X162603502Y-89443261D01*
X162397267Y-89539431D01*
X162397265Y-89539432D01*
X162210858Y-89669954D01*
X162049954Y-89830858D01*
X161919432Y-90017265D01*
X161919431Y-90017267D01*
X161823261Y-90223502D01*
X161823258Y-90223511D01*
X161764366Y-90443302D01*
X161764364Y-90443313D01*
X161744532Y-90669998D01*
X161200500Y-90669998D01*
X161200500Y-81201456D01*
X161162052Y-81008170D01*
X161162051Y-81008169D01*
X161162051Y-81008165D01*
X161111341Y-80885739D01*
X161086635Y-80826092D01*
X161086628Y-80826079D01*
X160977139Y-80662218D01*
X160977136Y-80662214D01*
X160834686Y-80519764D01*
X160834655Y-80519735D01*
X150536819Y-70221899D01*
X150503334Y-70160576D01*
X150500500Y-70134218D01*
X150500500Y-69459484D01*
X154769500Y-69459484D01*
X154769500Y-71155219D01*
X154769501Y-71155225D01*
X154775908Y-71214832D01*
X154826202Y-71349677D01*
X154826206Y-71349684D01*
X154912452Y-71464893D01*
X154912455Y-71464896D01*
X155027664Y-71551142D01*
X155027671Y-71551146D01*
X155162517Y-71601440D01*
X155162516Y-71601440D01*
X155169444Y-71602184D01*
X155222127Y-71607849D01*
X156917872Y-71607848D01*
X156977483Y-71601440D01*
X157112331Y-71551145D01*
X157227546Y-71464895D01*
X157258756Y-71423202D01*
X157268500Y-71410188D01*
X157324434Y-71368318D01*
X157367766Y-71360500D01*
X160566277Y-71360500D01*
X160633316Y-71380185D01*
X160679071Y-71432989D01*
X160682459Y-71441168D01*
X160706201Y-71504826D01*
X160706206Y-71504835D01*
X160792452Y-71620044D01*
X160792455Y-71620047D01*
X160907664Y-71706293D01*
X160907671Y-71706297D01*
X161042517Y-71756591D01*
X161050062Y-71758374D01*
X161049523Y-71760651D01*
X161103287Y-71782908D01*
X161143147Y-71840293D01*
X161149500Y-71879475D01*
X161149500Y-73605621D01*
X161129815Y-73672660D01*
X161090599Y-73711158D01*
X161056346Y-73732285D01*
X160932289Y-73856342D01*
X160840187Y-74005663D01*
X160840185Y-74005668D01*
X160812349Y-74089670D01*
X160785001Y-74172203D01*
X160785001Y-74172204D01*
X160785000Y-74172204D01*
X160774500Y-74274983D01*
X160774500Y-75050001D01*
X160774501Y-75050019D01*
X160785000Y-75152796D01*
X160785001Y-75152799D01*
X160840185Y-75319331D01*
X160840187Y-75319336D01*
X160856948Y-75346510D01*
X160932288Y-75468656D01*
X161056344Y-75592712D01*
X161205666Y-75684814D01*
X161372203Y-75739999D01*
X161474991Y-75750500D01*
X162525008Y-75750499D01*
X162525016Y-75750498D01*
X162525019Y-75750498D01*
X162581302Y-75744748D01*
X162627797Y-75739999D01*
X162728003Y-75706794D01*
X162767007Y-75700500D01*
X182648543Y-75700500D01*
X182758082Y-75678710D01*
X182812853Y-75667816D01*
X182841836Y-75662051D01*
X182902572Y-75636893D01*
X183023914Y-75586632D01*
X183187782Y-75477139D01*
X183327139Y-75337782D01*
X183327140Y-75337779D01*
X183334206Y-75330714D01*
X183334209Y-75330710D01*
X184130713Y-74534206D01*
X184130720Y-74534200D01*
X184137780Y-74527139D01*
X184137782Y-74527139D01*
X184178532Y-74486388D01*
X184208103Y-74456818D01*
X184269426Y-74423333D01*
X184295784Y-74420499D01*
X184444217Y-74420499D01*
X184511256Y-74440184D01*
X184531898Y-74456818D01*
X186309735Y-76234655D01*
X186309764Y-76234686D01*
X186452214Y-76377136D01*
X186452218Y-76377139D01*
X186616079Y-76486628D01*
X186616092Y-76486635D01*
X186744833Y-76539961D01*
X186787744Y-76557735D01*
X186798164Y-76562051D01*
X186894812Y-76581275D01*
X186943135Y-76590887D01*
X186991458Y-76600500D01*
X186991459Y-76600500D01*
X196498542Y-76600500D01*
X196517870Y-76596655D01*
X196595188Y-76581275D01*
X196691836Y-76562051D01*
X196745165Y-76539961D01*
X196873914Y-76486632D01*
X197037782Y-76377139D01*
X197177139Y-76237782D01*
X197177139Y-76237780D01*
X197187347Y-76227573D01*
X197187348Y-76227570D01*
X200377139Y-73037782D01*
X200377140Y-73037779D01*
X200384200Y-73030720D01*
X200384206Y-73030713D01*
X201756712Y-71658206D01*
X201818033Y-71624723D01*
X201887725Y-71629707D01*
X201943657Y-71671578D01*
X201972454Y-71710046D01*
X201972455Y-71710047D01*
X202087664Y-71796293D01*
X202087671Y-71796297D01*
X202222517Y-71846591D01*
X202222516Y-71846591D01*
X202229444Y-71847335D01*
X202282127Y-71853000D01*
X204377872Y-71852999D01*
X204431407Y-71847244D01*
X204442247Y-71846079D01*
X204511006Y-71858486D01*
X204562143Y-71906097D01*
X204579500Y-71969369D01*
X204579500Y-73628541D01*
X204583013Y-73646204D01*
X204584059Y-73651458D01*
X204584059Y-73651461D01*
X204607078Y-73767187D01*
X204617949Y-73821836D01*
X204629010Y-73848540D01*
X204693364Y-74003907D01*
X204693371Y-74003920D01*
X204802859Y-74167780D01*
X204802860Y-74167781D01*
X204802861Y-74167782D01*
X204942218Y-74307139D01*
X204942219Y-74307139D01*
X204949286Y-74314206D01*
X204949285Y-74314206D01*
X204949288Y-74314208D01*
X206232860Y-75597781D01*
X206232861Y-75597782D01*
X206302894Y-75667815D01*
X206372219Y-75737140D01*
X206392214Y-75750500D01*
X206536086Y-75846632D01*
X206642745Y-75890811D01*
X206718164Y-75922051D01*
X206911454Y-75960499D01*
X206911457Y-75960500D01*
X206911459Y-75960500D01*
X213975222Y-75960500D01*
X214042261Y-75980185D01*
X214074489Y-76010190D01*
X214102449Y-76047541D01*
X214102452Y-76047544D01*
X214102454Y-76047546D01*
X214102457Y-76047548D01*
X214217664Y-76133793D01*
X214217671Y-76133797D01*
X214352517Y-76184091D01*
X214352516Y-76184091D01*
X214359444Y-76184835D01*
X214412127Y-76190500D01*
X216107872Y-76190499D01*
X216167483Y-76184091D01*
X216302331Y-76133796D01*
X216417546Y-76047546D01*
X216445511Y-76010190D01*
X216501444Y-75968318D01*
X216544778Y-75960500D01*
X223559800Y-75960500D01*
X223626839Y-75980185D01*
X223639365Y-75989493D01*
X223812179Y-76115048D01*
X223812181Y-76115049D01*
X223812184Y-76115051D01*
X224001588Y-76211557D01*
X224203757Y-76277246D01*
X224413713Y-76310500D01*
X224413714Y-76310500D01*
X224926286Y-76310500D01*
X224926287Y-76310500D01*
X225136243Y-76277246D01*
X225338412Y-76211557D01*
X225527816Y-76115051D01*
X225620727Y-76047548D01*
X225699786Y-75990109D01*
X225699788Y-75990106D01*
X225699792Y-75990104D01*
X225850104Y-75839792D01*
X225850106Y-75839788D01*
X225850109Y-75839786D01*
X225975048Y-75667820D01*
X225975047Y-75667820D01*
X225975051Y-75667816D01*
X226071557Y-75478412D01*
X226137246Y-75276243D01*
X226170500Y-75066287D01*
X226170500Y-74853713D01*
X226137246Y-74643757D01*
X226071557Y-74441588D01*
X225975051Y-74252184D01*
X225975049Y-74252181D01*
X225975048Y-74252179D01*
X225850109Y-74080213D01*
X225699786Y-73929890D01*
X225527820Y-73804951D01*
X225338414Y-73708444D01*
X225338413Y-73708443D01*
X225338412Y-73708443D01*
X225136243Y-73642754D01*
X225136241Y-73642753D01*
X225136240Y-73642753D01*
X224946939Y-73612771D01*
X224926287Y-73609500D01*
X224413713Y-73609500D01*
X224393061Y-73612771D01*
X224203760Y-73642753D01*
X224001585Y-73708444D01*
X223812179Y-73804951D01*
X223636266Y-73932759D01*
X223635635Y-73931891D01*
X223576581Y-73958359D01*
X223559800Y-73959500D01*
X216631602Y-73959500D01*
X216564563Y-73939815D01*
X216518808Y-73887011D01*
X216515420Y-73878833D01*
X216503797Y-73847671D01*
X216503793Y-73847664D01*
X216417547Y-73732455D01*
X216417544Y-73732452D01*
X216302335Y-73646206D01*
X216302328Y-73646202D01*
X216167482Y-73595908D01*
X216167483Y-73595908D01*
X216107883Y-73589501D01*
X216107881Y-73589500D01*
X216107873Y-73589500D01*
X216107864Y-73589500D01*
X214412129Y-73589500D01*
X214412123Y-73589501D01*
X214352516Y-73595908D01*
X214217671Y-73646202D01*
X214217664Y-73646206D01*
X214102455Y-73732452D01*
X214102452Y-73732455D01*
X214016206Y-73847664D01*
X214016202Y-73847671D01*
X214004580Y-73878833D01*
X213962709Y-73934767D01*
X213897244Y-73959184D01*
X213888398Y-73959500D01*
X207475783Y-73959500D01*
X207408744Y-73939815D01*
X207388102Y-73923181D01*
X206616819Y-73151898D01*
X206583334Y-73090575D01*
X206580500Y-73064217D01*
X206580500Y-67859992D01*
X216874671Y-67859992D01*
X216874671Y-67860007D01*
X216893964Y-68154363D01*
X216893965Y-68154373D01*
X216893966Y-68154380D01*
X216893968Y-68154390D01*
X216951518Y-68443716D01*
X216951521Y-68443730D01*
X217046349Y-68723080D01*
X217176825Y-68987660D01*
X217176829Y-68987667D01*
X217340725Y-69232955D01*
X217535241Y-69454758D01*
X217757044Y-69649274D01*
X217926077Y-69762218D01*
X218002335Y-69813172D01*
X218266923Y-69943652D01*
X218546278Y-70038481D01*
X218835620Y-70096034D01*
X218863888Y-70097886D01*
X219129993Y-70115329D01*
X219130000Y-70115329D01*
X219130007Y-70115329D01*
X219365675Y-70099881D01*
X219424380Y-70096034D01*
X219713722Y-70038481D01*
X219993077Y-69943652D01*
X220257665Y-69813172D01*
X220502957Y-69649273D01*
X220724758Y-69454758D01*
X220919273Y-69232957D01*
X221083172Y-68987665D01*
X221213652Y-68723077D01*
X221308481Y-68443722D01*
X221366034Y-68154380D01*
X221385329Y-67860000D01*
X221385329Y-67859992D01*
X221367675Y-67590657D01*
X221366034Y-67565620D01*
X221308481Y-67276278D01*
X221213652Y-66996923D01*
X221083172Y-66732336D01*
X221081945Y-66730500D01*
X220994414Y-66599500D01*
X220919273Y-66487043D01*
X220840343Y-66397041D01*
X220724758Y-66265241D01*
X220502955Y-66070725D01*
X220257667Y-65906829D01*
X220257660Y-65906825D01*
X219993080Y-65776349D01*
X219713730Y-65681521D01*
X219713724Y-65681519D01*
X219713722Y-65681519D01*
X219424380Y-65623966D01*
X219424373Y-65623965D01*
X219424363Y-65623964D01*
X219130007Y-65604671D01*
X219129993Y-65604671D01*
X218835636Y-65623964D01*
X218835624Y-65623965D01*
X218835620Y-65623966D01*
X218835612Y-65623967D01*
X218835609Y-65623968D01*
X218546283Y-65681518D01*
X218546269Y-65681521D01*
X218266919Y-65776349D01*
X218002334Y-65906828D01*
X217757041Y-66070728D01*
X217535241Y-66265241D01*
X217340728Y-66487041D01*
X217176828Y-66732334D01*
X217046349Y-66996919D01*
X216951521Y-67276269D01*
X216951518Y-67276283D01*
X216893968Y-67565609D01*
X216893964Y-67565636D01*
X216874671Y-67859992D01*
X206580500Y-67859992D01*
X206580500Y-65831458D01*
X206580499Y-65831457D01*
X206555130Y-65703915D01*
X206542051Y-65638164D01*
X206519961Y-65584834D01*
X206513920Y-65570249D01*
X206466635Y-65456092D01*
X206466628Y-65456079D01*
X206357140Y-65292219D01*
X206290703Y-65225782D01*
X206217782Y-65152861D01*
X206217781Y-65152860D01*
X205754208Y-64689288D01*
X205754206Y-64689285D01*
X205754206Y-64689286D01*
X205747139Y-64682219D01*
X205747139Y-64682218D01*
X205607782Y-64542861D01*
X205607781Y-64542860D01*
X205607780Y-64542859D01*
X205443920Y-64433371D01*
X205443907Y-64433364D01*
X205312097Y-64378768D01*
X205261836Y-64357949D01*
X205261828Y-64357947D01*
X205165188Y-64338724D01*
X205068544Y-64319500D01*
X205068541Y-64319500D01*
X204483214Y-64319500D01*
X204416175Y-64299815D01*
X204395533Y-64283181D01*
X204324068Y-64211716D01*
X204324066Y-64211714D01*
X204139038Y-64077283D01*
X204058999Y-64036501D01*
X203935255Y-63973450D01*
X203717748Y-63902778D01*
X203548326Y-63875944D01*
X203491854Y-63867000D01*
X203168146Y-63867000D01*
X203092849Y-63878926D01*
X202942253Y-63902778D01*
X202942250Y-63902778D01*
X202724744Y-63973450D01*
X202520961Y-64077283D01*
X202459808Y-64121714D01*
X202335934Y-64211714D01*
X202335932Y-64211716D01*
X202335931Y-64211716D01*
X202264467Y-64283181D01*
X202203144Y-64316666D01*
X202176786Y-64319500D01*
X200962230Y-64319500D01*
X200895191Y-64299815D01*
X200874549Y-64283181D01*
X200863657Y-64272289D01*
X200863656Y-64272288D01*
X200752293Y-64203599D01*
X200714336Y-64180187D01*
X200714331Y-64180185D01*
X200712862Y-64179698D01*
X200547797Y-64125001D01*
X200547795Y-64125000D01*
X200445010Y-64114500D01*
X199669998Y-64114500D01*
X199669980Y-64114501D01*
X199567203Y-64125000D01*
X199567200Y-64125001D01*
X199400668Y-64180185D01*
X199400663Y-64180187D01*
X199251342Y-64272289D01*
X199127289Y-64396342D01*
X199035187Y-64545663D01*
X199035186Y-64545666D01*
X198980001Y-64712203D01*
X198980001Y-64712204D01*
X198980000Y-64712204D01*
X198969500Y-64814983D01*
X198969500Y-65865001D01*
X198969501Y-65865019D01*
X198980000Y-65967796D01*
X198980001Y-65967799D01*
X199024007Y-66100598D01*
X199035186Y-66134334D01*
X199127288Y-66283656D01*
X199251344Y-66407712D01*
X199400666Y-66499814D01*
X199567203Y-66554999D01*
X199669991Y-66565500D01*
X200445008Y-66565499D01*
X200445016Y-66565498D01*
X200445019Y-66565498D01*
X200501302Y-66559748D01*
X200547797Y-66554999D01*
X200714334Y-66499814D01*
X200863656Y-66407712D01*
X200914549Y-66356819D01*
X200975872Y-66323334D01*
X201002230Y-66320500D01*
X202176786Y-66320500D01*
X202243825Y-66340185D01*
X202264467Y-66356819D01*
X202335934Y-66428286D01*
X202520962Y-66562717D01*
X202677223Y-66642336D01*
X202724744Y-66666549D01*
X202942251Y-66737221D01*
X202942252Y-66737221D01*
X202942255Y-66737222D01*
X203168146Y-66773000D01*
X203168147Y-66773000D01*
X203491853Y-66773000D01*
X203491854Y-66773000D01*
X203717745Y-66737222D01*
X203717748Y-66737221D01*
X203717749Y-66737221D01*
X203935255Y-66666549D01*
X203935255Y-66666548D01*
X203935258Y-66666548D01*
X204139038Y-66562717D01*
X204324066Y-66428286D01*
X204367819Y-66384533D01*
X204429142Y-66351048D01*
X204498834Y-66356032D01*
X204554767Y-66397904D01*
X204579184Y-66463368D01*
X204579500Y-66472214D01*
X204579500Y-68830631D01*
X204559815Y-68897670D01*
X204507011Y-68943425D01*
X204442246Y-68953921D01*
X204435756Y-68953223D01*
X204377873Y-68947000D01*
X204377865Y-68947000D01*
X202282129Y-68947000D01*
X202282123Y-68947001D01*
X202222516Y-68953408D01*
X202087671Y-69003702D01*
X202087664Y-69003706D01*
X201972455Y-69089952D01*
X201972452Y-69089955D01*
X201886206Y-69205164D01*
X201886202Y-69205171D01*
X201843810Y-69318833D01*
X201801939Y-69374767D01*
X201736475Y-69399184D01*
X201727628Y-69399500D01*
X201501455Y-69399500D01*
X201404812Y-69418724D01*
X201308171Y-69437947D01*
X201308163Y-69437949D01*
X201267584Y-69454758D01*
X201267583Y-69454758D01*
X201126092Y-69513364D01*
X201126079Y-69513371D01*
X200962219Y-69622859D01*
X200892540Y-69692538D01*
X200822861Y-69762218D01*
X200822858Y-69762221D01*
X199964160Y-70620918D01*
X199902837Y-70654403D01*
X199863224Y-70656526D01*
X199797883Y-70649501D01*
X199797881Y-70649500D01*
X199797873Y-70649500D01*
X199797865Y-70649500D01*
X199115783Y-70649500D01*
X199048744Y-70629815D01*
X199028102Y-70613181D01*
X197532208Y-69117288D01*
X197498723Y-69055965D01*
X197496531Y-69042204D01*
X197494999Y-69027202D01*
X197468572Y-68947452D01*
X197439814Y-68860666D01*
X197347712Y-68711344D01*
X197223656Y-68587288D01*
X197074334Y-68495186D01*
X196907797Y-68440001D01*
X196907795Y-68440000D01*
X196805010Y-68429500D01*
X195754998Y-68429500D01*
X195754980Y-68429501D01*
X195652203Y-68440000D01*
X195652200Y-68440001D01*
X195485668Y-68495185D01*
X195485663Y-68495187D01*
X195336342Y-68587289D01*
X195212289Y-68711342D01*
X195120187Y-68860663D01*
X195120185Y-68860668D01*
X195102611Y-68913704D01*
X195065001Y-69027203D01*
X195065001Y-69027204D01*
X195065000Y-69027204D01*
X195054500Y-69129983D01*
X195054500Y-69905001D01*
X195054501Y-69905019D01*
X195065000Y-70007796D01*
X195065001Y-70007799D01*
X195120185Y-70174331D01*
X195120187Y-70174336D01*
X195149524Y-70221899D01*
X195212288Y-70323656D01*
X195336344Y-70447712D01*
X195485666Y-70539814D01*
X195652203Y-70594999D01*
X195754991Y-70605500D01*
X196139217Y-70605499D01*
X196206256Y-70625183D01*
X196226898Y-70641818D01*
X197613181Y-72028102D01*
X197646666Y-72089425D01*
X197649500Y-72115783D01*
X197649500Y-72797870D01*
X197649501Y-72797876D01*
X197656526Y-72863227D01*
X197644119Y-72931987D01*
X197620917Y-72964161D01*
X196021899Y-74563181D01*
X195960576Y-74596666D01*
X195934218Y-74599500D01*
X194158690Y-74599500D01*
X194091651Y-74579815D01*
X194045896Y-74527011D01*
X194035952Y-74457853D01*
X194064977Y-74394297D01*
X194122140Y-74357009D01*
X194125382Y-74356008D01*
X194283004Y-74307389D01*
X194512634Y-74196805D01*
X194723217Y-74053232D01*
X194910050Y-73879877D01*
X195068959Y-73680612D01*
X195196393Y-73459888D01*
X195289508Y-73222637D01*
X195346222Y-72974157D01*
X195359432Y-72797876D01*
X195365268Y-72720004D01*
X195365268Y-72719995D01*
X195346222Y-72465845D01*
X195342614Y-72450038D01*
X195289508Y-72217363D01*
X195196393Y-71980112D01*
X195068959Y-71759388D01*
X194910050Y-71560123D01*
X194723217Y-71386768D01*
X194512634Y-71243195D01*
X194512630Y-71243193D01*
X194512627Y-71243191D01*
X194512626Y-71243190D01*
X194283006Y-71132612D01*
X194283008Y-71132612D01*
X194039466Y-71057489D01*
X194039462Y-71057488D01*
X194039458Y-71057487D01*
X193918231Y-71039214D01*
X193787440Y-71019500D01*
X193787435Y-71019500D01*
X193532565Y-71019500D01*
X193532559Y-71019500D01*
X193375609Y-71043157D01*
X193280542Y-71057487D01*
X193280539Y-71057488D01*
X193280533Y-71057489D01*
X193036992Y-71132612D01*
X192807373Y-71243190D01*
X192807372Y-71243191D01*
X192596774Y-71386774D01*
X192536460Y-71442737D01*
X192473928Y-71473905D01*
X192404471Y-71466318D01*
X192364439Y-71439519D01*
X191636819Y-70711899D01*
X191603334Y-70650576D01*
X191600500Y-70624218D01*
X191600500Y-67813957D01*
X191620185Y-67746918D01*
X191659407Y-67708416D01*
X191668656Y-67702712D01*
X191792712Y-67578656D01*
X191884814Y-67429334D01*
X191939999Y-67262797D01*
X191950500Y-67160009D01*
X191950499Y-65559992D01*
X191948319Y-65538655D01*
X191939999Y-65457203D01*
X191939998Y-65457200D01*
X191902604Y-65344353D01*
X191884814Y-65290666D01*
X191792712Y-65141344D01*
X191668656Y-65017288D01*
X191519334Y-64925186D01*
X191352797Y-64870001D01*
X191352795Y-64870000D01*
X191250010Y-64859500D01*
X189949998Y-64859500D01*
X189949981Y-64859501D01*
X189847203Y-64870000D01*
X189847200Y-64870001D01*
X189680668Y-64925185D01*
X189680663Y-64925187D01*
X189531342Y-65017289D01*
X189407289Y-65141342D01*
X189315187Y-65290663D01*
X189315185Y-65290668D01*
X189287349Y-65374670D01*
X189260001Y-65457203D01*
X189260001Y-65457204D01*
X189260000Y-65457204D01*
X189249500Y-65559983D01*
X189249500Y-67160001D01*
X189249501Y-67160018D01*
X189260000Y-67262796D01*
X189260001Y-67262799D01*
X189298701Y-67379586D01*
X189315186Y-67429334D01*
X189407288Y-67578656D01*
X189531344Y-67702712D01*
X189540591Y-67708416D01*
X189587318Y-67760360D01*
X189599500Y-67813957D01*
X189599500Y-71188543D01*
X189610504Y-71243861D01*
X189610504Y-71243862D01*
X189637947Y-71381829D01*
X189637948Y-71381833D01*
X189637949Y-71381836D01*
X189653705Y-71419873D01*
X189713364Y-71563906D01*
X189713371Y-71563919D01*
X189822860Y-71727782D01*
X189966537Y-71871459D01*
X189966559Y-71871479D01*
X191449735Y-73354655D01*
X191449764Y-73354686D01*
X191592214Y-73497136D01*
X191592218Y-73497139D01*
X191756079Y-73606628D01*
X191756092Y-73606635D01*
X191884833Y-73659961D01*
X191934690Y-73680612D01*
X191938164Y-73682051D01*
X192025886Y-73699500D01*
X192052279Y-73704750D01*
X192131456Y-73720500D01*
X192131459Y-73720500D01*
X192131460Y-73720500D01*
X192223136Y-73720500D01*
X192290175Y-73740185D01*
X192320081Y-73767185D01*
X192409950Y-73879877D01*
X192596783Y-74053232D01*
X192807366Y-74196805D01*
X192807371Y-74196807D01*
X192807372Y-74196808D01*
X192807373Y-74196809D01*
X192922351Y-74252179D01*
X193036992Y-74307387D01*
X193036993Y-74307387D01*
X193036996Y-74307389D01*
X193190448Y-74354722D01*
X193197860Y-74357009D01*
X193256119Y-74395580D01*
X193284277Y-74459524D01*
X193273393Y-74528541D01*
X193226924Y-74580718D01*
X193161310Y-74599500D01*
X187555782Y-74599500D01*
X187488743Y-74579815D01*
X187468101Y-74563181D01*
X185236818Y-72331898D01*
X185203333Y-72270575D01*
X185200499Y-72244217D01*
X185200499Y-71472129D01*
X185200498Y-71472123D01*
X185200497Y-71472116D01*
X185194091Y-71412517D01*
X185193222Y-71410188D01*
X185143797Y-71277671D01*
X185143793Y-71277664D01*
X185057547Y-71162455D01*
X185057544Y-71162452D01*
X184942335Y-71076206D01*
X184942328Y-71076202D01*
X184807482Y-71025908D01*
X184807483Y-71025908D01*
X184747883Y-71019501D01*
X184747881Y-71019500D01*
X184747873Y-71019500D01*
X184747864Y-71019500D01*
X182252129Y-71019500D01*
X182252123Y-71019501D01*
X182192516Y-71025908D01*
X182057671Y-71076202D01*
X182057664Y-71076206D01*
X181942455Y-71162452D01*
X181942452Y-71162455D01*
X181856206Y-71277664D01*
X181856202Y-71277671D01*
X181805908Y-71412517D01*
X181799501Y-71472116D01*
X181799500Y-71472127D01*
X181799500Y-72584928D01*
X181799501Y-73575500D01*
X181779816Y-73642539D01*
X181727013Y-73688294D01*
X181675501Y-73699500D01*
X163274500Y-73699500D01*
X163207461Y-73679815D01*
X163161706Y-73627011D01*
X163150500Y-73575500D01*
X163150500Y-71879476D01*
X163170185Y-71812437D01*
X163222989Y-71766682D01*
X163250135Y-71759236D01*
X163249932Y-71758376D01*
X163257479Y-71756592D01*
X163257481Y-71756591D01*
X163257483Y-71756591D01*
X163392331Y-71706296D01*
X163507546Y-71620046D01*
X163593796Y-71504831D01*
X163644091Y-71369983D01*
X163650500Y-71310373D01*
X163650499Y-69309628D01*
X163644091Y-69250017D01*
X163637727Y-69232955D01*
X163593797Y-69115171D01*
X163593793Y-69115164D01*
X163507547Y-68999955D01*
X163507544Y-68999952D01*
X163392335Y-68913706D01*
X163392328Y-68913702D01*
X163257482Y-68863408D01*
X163257483Y-68863408D01*
X163197883Y-68857001D01*
X163197881Y-68857000D01*
X163197873Y-68857000D01*
X163197864Y-68857000D01*
X161102129Y-68857000D01*
X161102123Y-68857001D01*
X161042516Y-68863408D01*
X160907671Y-68913702D01*
X160907664Y-68913706D01*
X160792455Y-68999952D01*
X160792452Y-68999955D01*
X160706206Y-69115164D01*
X160706202Y-69115171D01*
X160655908Y-69250017D01*
X160654126Y-69257562D01*
X160652552Y-69257190D01*
X160629301Y-69313313D01*
X160571906Y-69353157D01*
X160532755Y-69359500D01*
X157435131Y-69359500D01*
X157368092Y-69339815D01*
X157322337Y-69287011D01*
X157318950Y-69278834D01*
X157313797Y-69265020D01*
X157313794Y-69265015D01*
X157227547Y-69149804D01*
X157227544Y-69149801D01*
X157112335Y-69063555D01*
X157112328Y-69063551D01*
X156977482Y-69013257D01*
X156977483Y-69013257D01*
X156917883Y-69006850D01*
X156917881Y-69006849D01*
X156917873Y-69006849D01*
X156917864Y-69006849D01*
X155222129Y-69006849D01*
X155222123Y-69006850D01*
X155162516Y-69013257D01*
X155027671Y-69063551D01*
X155027664Y-69063555D01*
X154912455Y-69149801D01*
X154912452Y-69149804D01*
X154826206Y-69265013D01*
X154826202Y-69265020D01*
X154775908Y-69399866D01*
X154769501Y-69459465D01*
X154769500Y-69459484D01*
X150500500Y-69459484D01*
X150500500Y-67769992D01*
X175694671Y-67769992D01*
X175694671Y-67770007D01*
X175713964Y-68064363D01*
X175713965Y-68064373D01*
X175713966Y-68064380D01*
X175713968Y-68064390D01*
X175771518Y-68353716D01*
X175771521Y-68353730D01*
X175866349Y-68633080D01*
X175996825Y-68897660D01*
X175996829Y-68897667D01*
X176160725Y-69142955D01*
X176355241Y-69364758D01*
X176577044Y-69559274D01*
X176672206Y-69622859D01*
X176822335Y-69723172D01*
X177086923Y-69853652D01*
X177366278Y-69948481D01*
X177655620Y-70006034D01*
X177682518Y-70007797D01*
X177949993Y-70025329D01*
X177950000Y-70025329D01*
X177950007Y-70025329D01*
X178185675Y-70009881D01*
X178244380Y-70006034D01*
X178533722Y-69948481D01*
X178813077Y-69853652D01*
X179077665Y-69723172D01*
X179322957Y-69559273D01*
X179544758Y-69364758D01*
X179739273Y-69142957D01*
X179903172Y-68897665D01*
X180033652Y-68633077D01*
X180128481Y-68353722D01*
X180186034Y-68064380D01*
X180199431Y-67859992D01*
X180205329Y-67770007D01*
X180205329Y-67769992D01*
X180186035Y-67475636D01*
X180186034Y-67475620D01*
X180128481Y-67186278D01*
X180033652Y-66906923D01*
X179903172Y-66642336D01*
X179900239Y-66637947D01*
X179799409Y-66487043D01*
X179739273Y-66397043D01*
X179639835Y-66283656D01*
X179544758Y-66175241D01*
X179322955Y-65980725D01*
X179077667Y-65816829D01*
X179077660Y-65816825D01*
X178813080Y-65686349D01*
X178533730Y-65591521D01*
X178533724Y-65591519D01*
X178533722Y-65591519D01*
X178244380Y-65533966D01*
X178244373Y-65533965D01*
X178244363Y-65533964D01*
X177950007Y-65514671D01*
X177949993Y-65514671D01*
X177655636Y-65533964D01*
X177655624Y-65533965D01*
X177655620Y-65533966D01*
X177655612Y-65533967D01*
X177655609Y-65533968D01*
X177366283Y-65591518D01*
X177366269Y-65591521D01*
X177086919Y-65686349D01*
X176822334Y-65816828D01*
X176577041Y-65980728D01*
X176355241Y-66175241D01*
X176160728Y-66397041D01*
X175996828Y-66642334D01*
X175866349Y-66906919D01*
X175771521Y-67186269D01*
X175771518Y-67186283D01*
X175713968Y-67475609D01*
X175713964Y-67475636D01*
X175694671Y-67769992D01*
X150500500Y-67769992D01*
X150500500Y-66224500D01*
X150520185Y-66157461D01*
X150572989Y-66111706D01*
X150624500Y-66100500D01*
X152204758Y-66100500D01*
X152271797Y-66120185D01*
X152317552Y-66172989D01*
X152322462Y-66185491D01*
X152360186Y-66299334D01*
X152452288Y-66448656D01*
X152576344Y-66572712D01*
X152725666Y-66664814D01*
X152892203Y-66719999D01*
X152994991Y-66730500D01*
X154045008Y-66730499D01*
X154045016Y-66730498D01*
X154045019Y-66730498D01*
X154101302Y-66724748D01*
X154147797Y-66719999D01*
X154314334Y-66664814D01*
X154463656Y-66572712D01*
X154587712Y-66448656D01*
X154679814Y-66299334D01*
X154734999Y-66132797D01*
X154745500Y-66030009D01*
X154745499Y-65991715D01*
X154765182Y-65924678D01*
X154800607Y-65888614D01*
X154817782Y-65877139D01*
X154957139Y-65737782D01*
X154957140Y-65737780D01*
X154964206Y-65730714D01*
X154964209Y-65730710D01*
X156998101Y-63696818D01*
X157059424Y-63663333D01*
X157085782Y-63660499D01*
X157207871Y-63660499D01*
X157207872Y-63660499D01*
X157267483Y-63654091D01*
X157390207Y-63608318D01*
X157433540Y-63600500D01*
X159024218Y-63600500D01*
X159091257Y-63620185D01*
X159111899Y-63636819D01*
X160613181Y-65138101D01*
X160646666Y-65199424D01*
X160649500Y-65225782D01*
X160649500Y-65344353D01*
X160685278Y-65570246D01*
X160685278Y-65570249D01*
X160755950Y-65787755D01*
X160854275Y-65980727D01*
X160859783Y-65991538D01*
X160994214Y-66176566D01*
X161155934Y-66338286D01*
X161340962Y-66472717D01*
X161537213Y-66572712D01*
X161544744Y-66576549D01*
X161762251Y-66647221D01*
X161762252Y-66647221D01*
X161762255Y-66647222D01*
X161988146Y-66683000D01*
X161988147Y-66683000D01*
X162311853Y-66683000D01*
X162311854Y-66683000D01*
X162537745Y-66647222D01*
X162537748Y-66647221D01*
X162537749Y-66647221D01*
X162755255Y-66576549D01*
X162755255Y-66576548D01*
X162755258Y-66576548D01*
X162959038Y-66472717D01*
X163144066Y-66338286D01*
X163305786Y-66176566D01*
X163440217Y-65991538D01*
X163544048Y-65787758D01*
X163547755Y-65776348D01*
X163614721Y-65570249D01*
X163614721Y-65570248D01*
X163614722Y-65570245D01*
X163650500Y-65344354D01*
X163650500Y-65115646D01*
X163614722Y-64889755D01*
X163614721Y-64889751D01*
X163614721Y-64889750D01*
X163544049Y-64672244D01*
X163440216Y-64468461D01*
X163305786Y-64283434D01*
X163144066Y-64121714D01*
X162959038Y-63987283D01*
X162931889Y-63973450D01*
X162755255Y-63883450D01*
X162537748Y-63812778D01*
X162368326Y-63785944D01*
X162311854Y-63777000D01*
X162311853Y-63777000D01*
X162133283Y-63777000D01*
X162066244Y-63757315D01*
X162045602Y-63740681D01*
X160274209Y-61969289D01*
X160274206Y-61969285D01*
X160274206Y-61969286D01*
X160267139Y-61962219D01*
X160267139Y-61962218D01*
X160127782Y-61822861D01*
X160127781Y-61822860D01*
X160127780Y-61822859D01*
X159963920Y-61713371D01*
X159963911Y-61713366D01*
X159891315Y-61683296D01*
X159835165Y-61660038D01*
X159781836Y-61637949D01*
X159781832Y-61637948D01*
X159781828Y-61637946D01*
X159685188Y-61618724D01*
X159588544Y-61599500D01*
X159588541Y-61599500D01*
X157781276Y-61599500D01*
X157714237Y-61579815D01*
X157668482Y-61527011D01*
X157657986Y-61488752D01*
X157654091Y-61452516D01*
X157603797Y-61317671D01*
X157603793Y-61317664D01*
X157517547Y-61202455D01*
X157517544Y-61202452D01*
X157402335Y-61116206D01*
X157402328Y-61116202D01*
X157267482Y-61065908D01*
X157267483Y-61065908D01*
X157207883Y-61059501D01*
X157207881Y-61059500D01*
X157207873Y-61059500D01*
X157207864Y-61059500D01*
X155512129Y-61059500D01*
X155512123Y-61059501D01*
X155452516Y-61065908D01*
X155317671Y-61116202D01*
X155317664Y-61116206D01*
X155202455Y-61202452D01*
X155202452Y-61202455D01*
X155116206Y-61317664D01*
X155116202Y-61317671D01*
X155065908Y-61452517D01*
X155059501Y-61512116D01*
X155059500Y-61512135D01*
X155059500Y-62754217D01*
X155039815Y-62821256D01*
X155023181Y-62841898D01*
X153801899Y-64063181D01*
X153740576Y-64096666D01*
X153714218Y-64099500D01*
X142955758Y-64099500D01*
X142888719Y-64079815D01*
X142868077Y-64063181D01*
X142841402Y-64036506D01*
X142841395Y-64036501D01*
X142647834Y-63900967D01*
X142647830Y-63900965D01*
X142574992Y-63867000D01*
X142433663Y-63801097D01*
X142433659Y-63801096D01*
X142433655Y-63801094D01*
X142205413Y-63739938D01*
X142205403Y-63739936D01*
X141970001Y-63719341D01*
X141969999Y-63719341D01*
X141734596Y-63739936D01*
X141734586Y-63739938D01*
X141506344Y-63801094D01*
X141506335Y-63801098D01*
X141292171Y-63900964D01*
X141292169Y-63900965D01*
X141098597Y-64036505D01*
X140931505Y-64203597D01*
X140795965Y-64397169D01*
X140795964Y-64397171D01*
X140696098Y-64611335D01*
X140696094Y-64611344D01*
X140634938Y-64839586D01*
X140634936Y-64839596D01*
X140614341Y-65074999D01*
X140614341Y-65075000D01*
X140634936Y-65310403D01*
X140634938Y-65310413D01*
X140696094Y-65538655D01*
X140696096Y-65538659D01*
X140696097Y-65538663D01*
X140773156Y-65703916D01*
X140795965Y-65752830D01*
X140795967Y-65752834D01*
X140931501Y-65946395D01*
X140931506Y-65946402D01*
X141098597Y-66113493D01*
X141098603Y-66113498D01*
X141284158Y-66243425D01*
X141327783Y-66298002D01*
X141334977Y-66367500D01*
X141303454Y-66429855D01*
X141284158Y-66446575D01*
X141097784Y-66577075D01*
X141031578Y-66599402D01*
X141026661Y-66599500D01*
X107351457Y-66599500D01*
X107281736Y-66613369D01*
X107281735Y-66613369D01*
X107158171Y-66637947D01*
X107158163Y-66637949D01*
X107114110Y-66656197D01*
X107114109Y-66656197D01*
X106976092Y-66713364D01*
X106976079Y-66713371D01*
X106812219Y-66822859D01*
X106742540Y-66892538D01*
X106672861Y-66962218D01*
X103787797Y-69847282D01*
X103726474Y-69880767D01*
X103718171Y-69881993D01*
X103718201Y-69882178D01*
X103713390Y-69882940D01*
X103713389Y-69882940D01*
X103696216Y-69885660D01*
X103542302Y-69910037D01*
X103377552Y-69963568D01*
X103223211Y-70042208D01*
X103149131Y-70096031D01*
X103083072Y-70144026D01*
X103083070Y-70144028D01*
X103083069Y-70144028D01*
X102960588Y-70266509D01*
X102960588Y-70266510D01*
X102960586Y-70266512D01*
X102958610Y-70269232D01*
X102858768Y-70406651D01*
X102780128Y-70560992D01*
X102726597Y-70725742D01*
X102717604Y-70782524D01*
X102699500Y-70896829D01*
X96400500Y-70896829D01*
X96400500Y-60924500D01*
X96420185Y-60857461D01*
X96472989Y-60811706D01*
X96524500Y-60800500D01*
X245275500Y-60800500D01*
X245342539Y-60820185D01*
G37*
G04 #@! TD.AperFunction*
M02*
