%FSLAX45Y45*%
G04 Gerber Fmt 4.5, Leading zero omitted, Abs format (unit mm)*
G04 Created by KiCad (PCBNEW (6.0.4)) date 2022-04-05 13:55:58*
%MOMM*%
%LPD*%
G01*
G04 APERTURE LIST*
%TA.AperFunction,Profile*%
%ADD10C,0.100000*%
%TD*%
%ADD11C,0.200000*%
G04 APERTURE END LIST*
D10*
X5590000Y-9160000D02*
X12050000Y-9160000D01*
X12050000Y-9160000D02*
X12050000Y-10740000D01*
X12050000Y-10740000D02*
X5590000Y-10740000D01*
X5590000Y-10740000D02*
X5590000Y-9160000D01*
D11*
X5842619Y-11055476D02*
X5842619Y-10855476D01*
X5890238Y-10855476D01*
X5918809Y-10865000D01*
X5937857Y-10884048D01*
X5947381Y-10903095D01*
X5956905Y-10941190D01*
X5956905Y-10969762D01*
X5947381Y-11007857D01*
X5937857Y-11026905D01*
X5918809Y-11045952D01*
X5890238Y-11055476D01*
X5842619Y-11055476D01*
X6042619Y-11055476D02*
X6042619Y-10922143D01*
X6042619Y-10960238D02*
X6052143Y-10941190D01*
X6061667Y-10931667D01*
X6080714Y-10922143D01*
X6099762Y-10922143D01*
X6166428Y-11055476D02*
X6166428Y-10922143D01*
X6166428Y-10855476D02*
X6156905Y-10865000D01*
X6166428Y-10874524D01*
X6175952Y-10865000D01*
X6166428Y-10855476D01*
X6166428Y-10874524D01*
X6290238Y-11055476D02*
X6271190Y-11045952D01*
X6261667Y-11026905D01*
X6261667Y-10855476D01*
X6395000Y-11055476D02*
X6375952Y-11045952D01*
X6366428Y-11026905D01*
X6366428Y-10855476D01*
X6623571Y-11055476D02*
X6623571Y-10855476D01*
X6690238Y-10998333D01*
X6756905Y-10855476D01*
X6756905Y-11055476D01*
X6937857Y-11055476D02*
X6937857Y-10950714D01*
X6928333Y-10931667D01*
X6909286Y-10922143D01*
X6871190Y-10922143D01*
X6852143Y-10931667D01*
X6937857Y-11045952D02*
X6918809Y-11055476D01*
X6871190Y-11055476D01*
X6852143Y-11045952D01*
X6842619Y-11026905D01*
X6842619Y-11007857D01*
X6852143Y-10988810D01*
X6871190Y-10979286D01*
X6918809Y-10979286D01*
X6937857Y-10969762D01*
X7033095Y-10922143D02*
X7033095Y-11122143D01*
X7033095Y-10931667D02*
X7052143Y-10922143D01*
X7090238Y-10922143D01*
X7109286Y-10931667D01*
X7118809Y-10941190D01*
X7128333Y-10960238D01*
X7128333Y-11017381D01*
X7118809Y-11036429D01*
X7109286Y-11045952D01*
X7090238Y-11055476D01*
X7052143Y-11055476D01*
X7033095Y-11045952D01*
X7214048Y-11036429D02*
X7223571Y-11045952D01*
X7214048Y-11055476D01*
X7204524Y-11045952D01*
X7214048Y-11036429D01*
X7214048Y-11055476D01*
X7214048Y-10931667D02*
X7223571Y-10941190D01*
X7214048Y-10950714D01*
X7204524Y-10941190D01*
X7214048Y-10931667D01*
X7214048Y-10950714D01*
M02*
