G04 #@! TF.GenerationSoftware,KiCad,Pcbnew,(6.0.4)*
G04 #@! TF.CreationDate,2022-04-05T13:55:54+02:00*
G04 #@! TF.ProjectId,Sonda_w_cz,536f6e64-615f-4775-9f63-7a2e6b696361,rev?*
G04 #@! TF.SameCoordinates,Original*
G04 #@! TF.FileFunction,Copper,L1,Top*
G04 #@! TF.FilePolarity,Positive*
%FSLAX46Y46*%
G04 Gerber Fmt 4.6, Leading zero omitted, Abs format (unit mm)*
G04 Created by KiCad (PCBNEW (6.0.4)) date 2022-04-05 13:55:54*
%MOMM*%
%LPD*%
G01*
G04 APERTURE LIST*
G04 Aperture macros list*
%AMRoundRect*
0 Rectangle with rounded corners*
0 $1 Rounding radius*
0 $2 $3 $4 $5 $6 $7 $8 $9 X,Y pos of 4 corners*
0 Add a 4 corners polygon primitive as box body*
4,1,4,$2,$3,$4,$5,$6,$7,$8,$9,$2,$3,0*
0 Add four circle primitives for the rounded corners*
1,1,$1+$1,$2,$3*
1,1,$1+$1,$4,$5*
1,1,$1+$1,$6,$7*
1,1,$1+$1,$8,$9*
0 Add four rect primitives between the rounded corners*
20,1,$1+$1,$2,$3,$4,$5,0*
20,1,$1+$1,$4,$5,$6,$7,0*
20,1,$1+$1,$6,$7,$8,$9,0*
20,1,$1+$1,$8,$9,$2,$3,0*%
G04 Aperture macros list end*
G04 #@! TA.AperFunction,NonConductor*
%ADD10C,0.200000*%
G04 #@! TD*
G04 #@! TA.AperFunction,SMDPad,CuDef*
%ADD11RoundRect,0.250000X0.325000X0.650000X-0.325000X0.650000X-0.325000X-0.650000X0.325000X-0.650000X0*%
G04 #@! TD*
G04 #@! TA.AperFunction,SMDPad,CuDef*
%ADD12RoundRect,0.250000X0.262500X0.450000X-0.262500X0.450000X-0.262500X-0.450000X0.262500X-0.450000X0*%
G04 #@! TD*
G04 #@! TA.AperFunction,SMDPad,CuDef*
%ADD13RoundRect,0.250000X0.475000X-0.250000X0.475000X0.250000X-0.475000X0.250000X-0.475000X-0.250000X0*%
G04 #@! TD*
G04 #@! TA.AperFunction,SMDPad,CuDef*
%ADD14R,1.500000X2.000000*%
G04 #@! TD*
G04 #@! TA.AperFunction,SMDPad,CuDef*
%ADD15R,3.800000X2.000000*%
G04 #@! TD*
G04 #@! TA.AperFunction,SMDPad,CuDef*
%ADD16RoundRect,0.250000X-0.475000X0.250000X-0.475000X-0.250000X0.475000X-0.250000X0.475000X0.250000X0*%
G04 #@! TD*
G04 #@! TA.AperFunction,SMDPad,CuDef*
%ADD17RoundRect,0.250000X0.450000X-0.262500X0.450000X0.262500X-0.450000X0.262500X-0.450000X-0.262500X0*%
G04 #@! TD*
G04 #@! TA.AperFunction,SMDPad,CuDef*
%ADD18R,0.700000X1.000000*%
G04 #@! TD*
G04 #@! TA.AperFunction,SMDPad,CuDef*
%ADD19R,0.700000X0.600000*%
G04 #@! TD*
G04 #@! TA.AperFunction,SMDPad,CuDef*
%ADD20RoundRect,0.250000X-0.650000X0.325000X-0.650000X-0.325000X0.650000X-0.325000X0.650000X0.325000X0*%
G04 #@! TD*
G04 #@! TA.AperFunction,ComponentPad*
%ADD21R,1.700000X1.700000*%
G04 #@! TD*
G04 #@! TA.AperFunction,ComponentPad*
%ADD22O,1.700000X1.700000*%
G04 #@! TD*
G04 #@! TA.AperFunction,SMDPad,CuDef*
%ADD23RoundRect,0.250000X0.250000X0.475000X-0.250000X0.475000X-0.250000X-0.475000X0.250000X-0.475000X0*%
G04 #@! TD*
G04 #@! TA.AperFunction,ComponentPad*
%ADD24RoundRect,0.250000X-0.625000X0.350000X-0.625000X-0.350000X0.625000X-0.350000X0.625000X0.350000X0*%
G04 #@! TD*
G04 #@! TA.AperFunction,ComponentPad*
%ADD25O,1.750000X1.200000*%
G04 #@! TD*
G04 #@! TA.AperFunction,SMDPad,CuDef*
%ADD26RoundRect,0.250000X-0.450000X0.262500X-0.450000X-0.262500X0.450000X-0.262500X0.450000X0.262500X0*%
G04 #@! TD*
G04 #@! TA.AperFunction,SMDPad,CuDef*
%ADD27RoundRect,0.250000X-0.262500X-0.450000X0.262500X-0.450000X0.262500X0.450000X-0.262500X0.450000X0*%
G04 #@! TD*
G04 #@! TA.AperFunction,SMDPad,CuDef*
%ADD28R,0.450000X0.700000*%
G04 #@! TD*
G04 #@! TA.AperFunction,SMDPad,CuDef*
%ADD29R,1.800000X2.500000*%
G04 #@! TD*
G04 #@! TA.AperFunction,ViaPad*
%ADD30C,1.800000*%
G04 #@! TD*
G04 #@! TA.AperFunction,ViaPad*
%ADD31C,1.500000*%
G04 #@! TD*
G04 #@! TA.AperFunction,Conductor*
%ADD32C,0.500000*%
G04 #@! TD*
G04 #@! TA.AperFunction,Conductor*
%ADD33C,1.000000*%
G04 #@! TD*
G04 APERTURE END LIST*
D10*
X56800000Y-103050000D02*
X60300000Y-103050000D01*
X60300000Y-103050000D02*
X60300000Y-96750000D01*
X60300000Y-96750000D02*
X56800000Y-96750000D01*
X56800000Y-96750000D02*
X56800000Y-103050000D01*
G36*
X56800000Y-103050000D02*
G01*
X60300000Y-103050000D01*
X60300000Y-96750000D01*
X56800000Y-96750000D01*
X56800000Y-103050000D01*
G37*
D11*
G04 #@! TO.P,C7,1*
G04 #@! TO.N,Net-(C7-Pad1)*
X100075000Y-95800000D03*
G04 #@! TO.P,C7,2*
G04 #@! TO.N,GND*
X97125000Y-95800000D03*
G04 #@! TD*
D12*
G04 #@! TO.P,R5,1*
G04 #@! TO.N,Net-(Q2-Pad1)*
X79112500Y-98300000D03*
G04 #@! TO.P,R5,2*
G04 #@! TO.N,Net-(Q1-Pad2)*
X77287500Y-98300000D03*
G04 #@! TD*
D13*
G04 #@! TO.P,C11,1*
G04 #@! TO.N,+8V*
X87000000Y-96050000D03*
G04 #@! TO.P,C11,2*
G04 #@! TO.N,GND*
X87000000Y-94150000D03*
G04 #@! TD*
D14*
G04 #@! TO.P,U1,1,ADJ*
G04 #@! TO.N,Net-(C7-Pad1)*
X102400000Y-100750000D03*
D15*
G04 #@! TO.P,U1,2,VO*
G04 #@! TO.N,+8V*
X104700000Y-94450000D03*
D14*
X104700000Y-100750000D03*
G04 #@! TO.P,U1,3,VI*
G04 #@! TO.N,+10V*
X107000000Y-100750000D03*
G04 #@! TD*
D16*
G04 #@! TO.P,C17,1*
G04 #@! TO.N,Net-(C17-Pad1)*
X74600000Y-102050000D03*
G04 #@! TO.P,C17,2*
G04 #@! TO.N,GND*
X74600000Y-103950000D03*
G04 #@! TD*
G04 #@! TO.P,C8,1*
G04 #@! TO.N,Net-(C13-Pad1)*
X62000000Y-102050000D03*
G04 #@! TO.P,C8,2*
G04 #@! TO.N,GND*
X62000000Y-103950000D03*
G04 #@! TD*
D17*
G04 #@! TO.P,R4,1*
G04 #@! TO.N,Net-(Q1-Pad2)*
X75300000Y-96012500D03*
G04 #@! TO.P,R4,2*
G04 #@! TO.N,+8V*
X75300000Y-94187500D03*
G04 #@! TD*
D18*
G04 #@! TO.P,Q1,1,S*
G04 #@! TO.N,Net-(C17-Pad1)*
X70400000Y-98350000D03*
D19*
G04 #@! TO.P,Q1,2,D*
G04 #@! TO.N,Net-(Q1-Pad2)*
X70400000Y-96650000D03*
G04 #@! TO.P,Q1,3,G2*
G04 #@! TO.N,Net-(Q1-Pad3)*
X68400000Y-96650000D03*
G04 #@! TO.P,Q1,4,G1*
G04 #@! TO.N,Net-(C13-Pad1)*
X68400000Y-98550000D03*
G04 #@! TD*
D16*
G04 #@! TO.P,C1,1*
G04 #@! TO.N,+12V*
X116200000Y-102450000D03*
G04 #@! TO.P,C1,2*
G04 #@! TO.N,GND*
X116200000Y-104350000D03*
G04 #@! TD*
D20*
G04 #@! TO.P,C18,1*
G04 #@! TO.N,Net-(C16-Pad1)*
X87900000Y-99825000D03*
G04 #@! TO.P,C18,2*
G04 #@! TO.N,Net-(C16-Pad2)*
X87900000Y-102775000D03*
G04 #@! TD*
D21*
G04 #@! TO.P,J2,1,Pin_1*
G04 #@! TO.N,Net-(C16-Pad2)*
X94000000Y-100825000D03*
D22*
G04 #@! TO.P,J2,2,Pin_2*
G04 #@! TO.N,GND*
X94000000Y-103365000D03*
G04 #@! TD*
D23*
G04 #@! TO.P,C12,1*
G04 #@! TO.N,+8V*
X70350000Y-94200000D03*
G04 #@! TO.P,C12,2*
G04 #@! TO.N,GND*
X68450000Y-94200000D03*
G04 #@! TD*
D16*
G04 #@! TO.P,C5,1*
G04 #@! TO.N,+8V*
X99300000Y-102950000D03*
G04 #@! TO.P,C5,2*
G04 #@! TO.N,GND*
X99300000Y-104850000D03*
G04 #@! TD*
D20*
G04 #@! TO.P,C2,1*
G04 #@! TO.N,+10V*
X109000000Y-102425000D03*
G04 #@! TO.P,C2,2*
G04 #@! TO.N,GND*
X109000000Y-105375000D03*
G04 #@! TD*
D24*
G04 #@! TO.P,J1,1,Pin_1*
G04 #@! TO.N,+12V*
X117150000Y-95100000D03*
D25*
G04 #@! TO.P,J1,2,Pin_2*
G04 #@! TO.N,GND*
X117150000Y-97100000D03*
G04 #@! TD*
D13*
G04 #@! TO.P,C10,1*
G04 #@! TO.N,+8V*
X81300000Y-95950000D03*
G04 #@! TO.P,C10,2*
G04 #@! TO.N,GND*
X81300000Y-94050000D03*
G04 #@! TD*
D12*
G04 #@! TO.P,R2,1*
G04 #@! TO.N,Net-(C7-Pad1)*
X99912500Y-98200000D03*
G04 #@! TO.P,R2,2*
G04 #@! TO.N,GND*
X98087500Y-98200000D03*
G04 #@! TD*
D13*
G04 #@! TO.P,C4,1*
G04 #@! TO.N,+8V*
X90600000Y-96050000D03*
G04 #@! TO.P,C4,2*
G04 #@! TO.N,GND*
X90600000Y-94150000D03*
G04 #@! TD*
D26*
G04 #@! TO.P,R8,1*
G04 #@! TO.N,GND*
X63500000Y-94287500D03*
G04 #@! TO.P,R8,2*
G04 #@! TO.N,Net-(Q1-Pad3)*
X63500000Y-96112500D03*
G04 #@! TD*
D27*
G04 #@! TO.P,R9,1*
G04 #@! TO.N,GND*
X79687500Y-103200000D03*
G04 #@! TO.P,R9,2*
G04 #@! TO.N,Net-(C16-Pad1)*
X81512500Y-103200000D03*
G04 #@! TD*
G04 #@! TO.P,R1,1*
G04 #@! TO.N,+8V*
X98287500Y-100700000D03*
G04 #@! TO.P,R1,2*
G04 #@! TO.N,Net-(C7-Pad1)*
X100112500Y-100700000D03*
G04 #@! TD*
D16*
G04 #@! TO.P,C16,1*
G04 #@! TO.N,Net-(C16-Pad1)*
X90500000Y-100450000D03*
G04 #@! TO.P,C16,2*
G04 #@! TO.N,Net-(C16-Pad2)*
X90500000Y-102350000D03*
G04 #@! TD*
G04 #@! TO.P,C14,1*
G04 #@! TO.N,Net-(C13-Pad1)*
X68100000Y-102050000D03*
G04 #@! TO.P,C14,2*
G04 #@! TO.N,GND*
X68100000Y-103950000D03*
G04 #@! TD*
D17*
G04 #@! TO.P,R7,1*
G04 #@! TO.N,GND*
X71300000Y-103912500D03*
G04 #@! TO.P,R7,2*
G04 #@! TO.N,Net-(C17-Pad1)*
X71300000Y-102087500D03*
G04 #@! TD*
D20*
G04 #@! TO.P,C6,1*
G04 #@! TO.N,+8V*
X104700000Y-102525000D03*
G04 #@! TO.P,C6,2*
G04 #@! TO.N,GND*
X104700000Y-105475000D03*
G04 #@! TD*
D16*
G04 #@! TO.P,C15,1*
G04 #@! TO.N,Net-(C13-Pad1)*
X64900000Y-102050000D03*
G04 #@! TO.P,C15,2*
G04 #@! TO.N,GND*
X64900000Y-103950000D03*
G04 #@! TD*
G04 #@! TO.P,C3,1*
G04 #@! TO.N,+10V*
X112500000Y-102450000D03*
G04 #@! TO.P,C3,2*
G04 #@! TO.N,GND*
X112500000Y-104350000D03*
G04 #@! TD*
D28*
G04 #@! TO.P,Q2,1,B*
G04 #@! TO.N,Net-(Q2-Pad1)*
X83350000Y-99600000D03*
G04 #@! TO.P,Q2,2,E*
G04 #@! TO.N,Net-(C16-Pad1)*
X84650000Y-99600000D03*
G04 #@! TO.P,Q2,3,C*
G04 #@! TO.N,+8V*
X84000000Y-97600000D03*
G04 #@! TD*
D29*
G04 #@! TO.P,D1,1,K*
G04 #@! TO.N,+10V*
X110700000Y-99500000D03*
G04 #@! TO.P,D1,2,A*
G04 #@! TO.N,+12V*
X110700000Y-95500000D03*
G04 #@! TD*
D30*
G04 #@! TO.N,GND*
X65900000Y-105600000D03*
X63200000Y-105600000D03*
X73300000Y-105600000D03*
X68400000Y-105600000D03*
X70900000Y-105600000D03*
D31*
G04 #@! TO.N,+8V*
X78450000Y-94350000D03*
G04 #@! TO.N,Net-(C13-Pad1)*
X66400000Y-99600000D03*
G04 #@! TD*
D32*
G04 #@! TO.N,GND*
X98087500Y-96762500D02*
X97325000Y-96000000D01*
X71300000Y-105200000D02*
X70900000Y-105600000D01*
X98087500Y-98200000D02*
X98087500Y-96762500D01*
X116250000Y-103600000D02*
X116200000Y-103550000D01*
X117150000Y-97100000D02*
X117150000Y-97150000D01*
G04 #@! TO.N,+12V*
X111100000Y-95100000D02*
X110700000Y-95500000D01*
X114500000Y-99900000D02*
X114500000Y-95200000D01*
X116200000Y-102450000D02*
X116200000Y-101600000D01*
X116200000Y-101600000D02*
X114500000Y-99900000D01*
X114900000Y-95100000D02*
X111100000Y-95100000D01*
X117150000Y-95100000D02*
X114900000Y-95100000D01*
G04 #@! TO.N,+8V*
X104700000Y-102525000D02*
X104125000Y-103100000D01*
X80050000Y-95950000D02*
X78450000Y-94350000D01*
X98287500Y-100787500D02*
X93700000Y-96200000D01*
X81550000Y-96200000D02*
X81300000Y-95950000D01*
X93700000Y-96200000D02*
X93600000Y-96200000D01*
X104700000Y-102525000D02*
X104700000Y-100250000D01*
X84000000Y-97600000D02*
X84000000Y-96200000D01*
X84000000Y-96200000D02*
X81550000Y-96200000D01*
X78287500Y-94187500D02*
X78450000Y-94350000D01*
X81300000Y-95950000D02*
X80050000Y-95950000D01*
X104000000Y-102525000D02*
X104700000Y-102525000D01*
X98287500Y-101937500D02*
X98287500Y-100787500D01*
X70637500Y-94187500D02*
X78287500Y-94187500D01*
X104125000Y-103100000D02*
X99450000Y-103100000D01*
X99450000Y-103100000D02*
X98287500Y-101937500D01*
X93700000Y-96200000D02*
X84000000Y-96200000D01*
G04 #@! TO.N,Net-(Q2-Pad1)*
X81300000Y-99600000D02*
X83350000Y-99600000D01*
X80000000Y-98300000D02*
X81300000Y-99600000D01*
X79112500Y-98300000D02*
X80000000Y-98300000D01*
G04 #@! TO.N,+10V*
X107000000Y-100250000D02*
X107000000Y-100700000D01*
X110700000Y-99500000D02*
X110700000Y-102200000D01*
X112450000Y-102400000D02*
X109750000Y-102400000D01*
X108725000Y-102425000D02*
X109000000Y-102425000D01*
X110700000Y-102200000D02*
X110500000Y-102400000D01*
X112500000Y-102450000D02*
X112450000Y-102400000D01*
X107000000Y-100700000D02*
X108725000Y-102425000D01*
G04 #@! TO.N,Net-(C13-Pad1)*
X64900000Y-102050000D02*
X68100000Y-102050000D01*
X66400000Y-99600000D02*
X64900000Y-101100000D01*
X67450000Y-98550000D02*
X68400000Y-98550000D01*
X66400000Y-99600000D02*
X67450000Y-98550000D01*
X64900000Y-101100000D02*
X64900000Y-102050000D01*
X62000000Y-102050000D02*
X64900000Y-102050000D01*
G04 #@! TO.N,Net-(C16-Pad1)*
X84650000Y-99600000D02*
X87675000Y-99600000D01*
X87675000Y-99600000D02*
X87900000Y-99825000D01*
X83300000Y-103200000D02*
X84650000Y-101850000D01*
X89875000Y-99825000D02*
X90500000Y-100450000D01*
X87900000Y-99825000D02*
X89875000Y-99825000D01*
X81512500Y-103200000D02*
X83300000Y-103200000D01*
X84650000Y-101850000D02*
X84650000Y-99600000D01*
G04 #@! TO.N,Net-(Q1-Pad2)*
X75300000Y-96012500D02*
X74662500Y-96650000D01*
X77287500Y-98300000D02*
X77287500Y-98000000D01*
X77287500Y-98000000D02*
X75300000Y-96012500D01*
X74662500Y-96650000D02*
X70400000Y-96650000D01*
G04 #@! TO.N,Net-(C7-Pad1)*
X100112500Y-100700000D02*
X102350000Y-100700000D01*
X100075000Y-100662500D02*
X100112500Y-100700000D01*
X100075000Y-95800000D02*
X100075000Y-100662500D01*
X102350000Y-100700000D02*
X102400000Y-100750000D01*
D33*
G04 #@! TO.N,Net-(C16-Pad2)*
X91750000Y-102350000D02*
X90500000Y-102350000D01*
X94000000Y-100825000D02*
X93275000Y-100825000D01*
X93275000Y-100825000D02*
X91750000Y-102350000D01*
D32*
X90075000Y-102775000D02*
X90500000Y-102350000D01*
X87900000Y-102775000D02*
X90075000Y-102775000D01*
G04 #@! TO.N,Net-(Q1-Pad3)*
X58300000Y-97800000D02*
X58300000Y-99900000D01*
X67850000Y-96100000D02*
X63512500Y-96100000D01*
X59987500Y-96112500D02*
X58300000Y-97800000D01*
X68400000Y-96650000D02*
X67850000Y-96100000D01*
X63500000Y-96112500D02*
X59987500Y-96112500D01*
X63512500Y-96100000D02*
X63500000Y-96112500D01*
G04 #@! TO.N,Net-(C17-Pad1)*
X71200000Y-101987500D02*
X71300000Y-102087500D01*
X70650000Y-98350000D02*
X70400000Y-98350000D01*
X71200000Y-98900000D02*
X70650000Y-98350000D01*
X71300000Y-102087500D02*
X74562500Y-102087500D01*
X71200000Y-98900000D02*
X71200000Y-101987500D01*
X74562500Y-102087500D02*
X74600000Y-102050000D01*
G04 #@! TD*
G04 #@! TA.AperFunction,Conductor*
G04 #@! TO.N,GND*
G36*
X119933621Y-92128502D02*
G01*
X119980114Y-92182158D01*
X119991500Y-92234500D01*
X119991500Y-106765500D01*
X119971498Y-106833621D01*
X119917842Y-106880114D01*
X119865500Y-106891500D01*
X56534500Y-106891500D01*
X56466379Y-106871498D01*
X56419886Y-106817842D01*
X56408500Y-106765500D01*
X56408500Y-105147095D01*
X98067001Y-105147095D01*
X98067338Y-105153614D01*
X98077257Y-105249206D01*
X98080149Y-105262600D01*
X98131588Y-105416784D01*
X98137761Y-105429962D01*
X98223063Y-105567807D01*
X98232099Y-105579208D01*
X98346829Y-105693739D01*
X98358240Y-105702751D01*
X98496243Y-105787816D01*
X98509424Y-105793963D01*
X98663710Y-105845138D01*
X98677086Y-105848005D01*
X98771438Y-105857672D01*
X98777854Y-105858000D01*
X99027885Y-105858000D01*
X99043124Y-105853525D01*
X99044329Y-105852135D01*
X99046000Y-105844452D01*
X99046000Y-105839884D01*
X99554000Y-105839884D01*
X99558475Y-105855123D01*
X99559865Y-105856328D01*
X99567548Y-105857999D01*
X99822095Y-105857999D01*
X99828614Y-105857662D01*
X99924206Y-105847743D01*
X99927207Y-105847095D01*
X103292001Y-105847095D01*
X103292338Y-105853614D01*
X103302257Y-105949206D01*
X103305149Y-105962600D01*
X103356588Y-106116784D01*
X103362761Y-106129962D01*
X103448063Y-106267807D01*
X103457099Y-106279208D01*
X103571829Y-106393739D01*
X103583240Y-106402751D01*
X103721243Y-106487816D01*
X103734424Y-106493963D01*
X103888710Y-106545138D01*
X103902086Y-106548005D01*
X103996438Y-106557672D01*
X104002854Y-106558000D01*
X104427885Y-106558000D01*
X104443124Y-106553525D01*
X104444329Y-106552135D01*
X104446000Y-106544452D01*
X104446000Y-106539884D01*
X104954000Y-106539884D01*
X104958475Y-106555123D01*
X104959865Y-106556328D01*
X104967548Y-106557999D01*
X105397095Y-106557999D01*
X105403614Y-106557662D01*
X105499206Y-106547743D01*
X105512600Y-106544851D01*
X105666784Y-106493412D01*
X105679962Y-106487239D01*
X105817807Y-106401937D01*
X105829208Y-106392901D01*
X105943739Y-106278171D01*
X105952751Y-106266760D01*
X106037816Y-106128757D01*
X106043963Y-106115576D01*
X106095138Y-105961290D01*
X106098005Y-105947914D01*
X106107672Y-105853562D01*
X106108000Y-105847146D01*
X106108000Y-105747115D01*
X106107994Y-105747095D01*
X107592001Y-105747095D01*
X107592338Y-105753614D01*
X107602257Y-105849206D01*
X107605149Y-105862600D01*
X107656588Y-106016784D01*
X107662761Y-106029962D01*
X107748063Y-106167807D01*
X107757099Y-106179208D01*
X107871829Y-106293739D01*
X107883240Y-106302751D01*
X108021243Y-106387816D01*
X108034424Y-106393963D01*
X108188710Y-106445138D01*
X108202086Y-106448005D01*
X108296438Y-106457672D01*
X108302854Y-106458000D01*
X108727885Y-106458000D01*
X108743124Y-106453525D01*
X108744329Y-106452135D01*
X108746000Y-106444452D01*
X108746000Y-106439884D01*
X109254000Y-106439884D01*
X109258475Y-106455123D01*
X109259865Y-106456328D01*
X109267548Y-106457999D01*
X109697095Y-106457999D01*
X109703614Y-106457662D01*
X109799206Y-106447743D01*
X109812600Y-106444851D01*
X109966784Y-106393412D01*
X109979962Y-106387239D01*
X110117807Y-106301937D01*
X110129208Y-106292901D01*
X110243739Y-106178171D01*
X110252751Y-106166760D01*
X110337816Y-106028757D01*
X110343963Y-106015576D01*
X110395138Y-105861290D01*
X110398005Y-105847914D01*
X110407672Y-105753562D01*
X110408000Y-105747146D01*
X110408000Y-105647115D01*
X110403525Y-105631876D01*
X110402135Y-105630671D01*
X110394452Y-105629000D01*
X109272115Y-105629000D01*
X109256876Y-105633475D01*
X109255671Y-105634865D01*
X109254000Y-105642548D01*
X109254000Y-106439884D01*
X108746000Y-106439884D01*
X108746000Y-105647115D01*
X108741525Y-105631876D01*
X108740135Y-105630671D01*
X108732452Y-105629000D01*
X107610116Y-105629000D01*
X107594877Y-105633475D01*
X107593672Y-105634865D01*
X107592001Y-105642548D01*
X107592001Y-105747095D01*
X106107994Y-105747095D01*
X106103525Y-105731876D01*
X106102135Y-105730671D01*
X106094452Y-105729000D01*
X104972115Y-105729000D01*
X104956876Y-105733475D01*
X104955671Y-105734865D01*
X104954000Y-105742548D01*
X104954000Y-106539884D01*
X104446000Y-106539884D01*
X104446000Y-105747115D01*
X104441525Y-105731876D01*
X104440135Y-105730671D01*
X104432452Y-105729000D01*
X103310116Y-105729000D01*
X103294877Y-105733475D01*
X103293672Y-105734865D01*
X103292001Y-105742548D01*
X103292001Y-105847095D01*
X99927207Y-105847095D01*
X99937600Y-105844851D01*
X100091784Y-105793412D01*
X100104962Y-105787239D01*
X100242807Y-105701937D01*
X100254208Y-105692901D01*
X100368739Y-105578171D01*
X100377751Y-105566760D01*
X100462816Y-105428757D01*
X100468963Y-105415576D01*
X100520138Y-105261290D01*
X100523005Y-105247914D01*
X100527619Y-105202885D01*
X103292000Y-105202885D01*
X103296475Y-105218124D01*
X103297865Y-105219329D01*
X103305548Y-105221000D01*
X104427885Y-105221000D01*
X104443124Y-105216525D01*
X104444329Y-105215135D01*
X104446000Y-105207452D01*
X104446000Y-105202885D01*
X104954000Y-105202885D01*
X104958475Y-105218124D01*
X104959865Y-105219329D01*
X104967548Y-105221000D01*
X106089884Y-105221000D01*
X106105123Y-105216525D01*
X106106328Y-105215135D01*
X106107999Y-105207452D01*
X106107999Y-105102905D01*
X106107998Y-105102885D01*
X107592000Y-105102885D01*
X107596475Y-105118124D01*
X107597865Y-105119329D01*
X107605548Y-105121000D01*
X108727885Y-105121000D01*
X108743124Y-105116525D01*
X108744329Y-105115135D01*
X108746000Y-105107452D01*
X108746000Y-105102885D01*
X109254000Y-105102885D01*
X109258475Y-105118124D01*
X109259865Y-105119329D01*
X109267548Y-105121000D01*
X110389884Y-105121000D01*
X110405123Y-105116525D01*
X110406328Y-105115135D01*
X110407999Y-105107452D01*
X110407999Y-105002905D01*
X110407662Y-104996386D01*
X110397743Y-104900794D01*
X110394851Y-104887400D01*
X110343412Y-104733216D01*
X110337239Y-104720038D01*
X110292100Y-104647095D01*
X111267001Y-104647095D01*
X111267338Y-104653614D01*
X111277257Y-104749206D01*
X111280149Y-104762600D01*
X111331588Y-104916784D01*
X111337761Y-104929962D01*
X111423063Y-105067807D01*
X111432099Y-105079208D01*
X111546829Y-105193739D01*
X111558240Y-105202751D01*
X111696243Y-105287816D01*
X111709424Y-105293963D01*
X111863710Y-105345138D01*
X111877086Y-105348005D01*
X111971438Y-105357672D01*
X111977854Y-105358000D01*
X112227885Y-105358000D01*
X112243124Y-105353525D01*
X112244329Y-105352135D01*
X112246000Y-105344452D01*
X112246000Y-105339884D01*
X112754000Y-105339884D01*
X112758475Y-105355123D01*
X112759865Y-105356328D01*
X112767548Y-105357999D01*
X113022095Y-105357999D01*
X113028614Y-105357662D01*
X113124206Y-105347743D01*
X113137600Y-105344851D01*
X113291784Y-105293412D01*
X113304962Y-105287239D01*
X113442807Y-105201937D01*
X113454208Y-105192901D01*
X113568739Y-105078171D01*
X113577751Y-105066760D01*
X113662816Y-104928757D01*
X113668963Y-104915576D01*
X113720138Y-104761290D01*
X113723005Y-104747914D01*
X113732672Y-104653562D01*
X113733000Y-104647146D01*
X113733000Y-104647095D01*
X114967001Y-104647095D01*
X114967338Y-104653614D01*
X114977257Y-104749206D01*
X114980149Y-104762600D01*
X115031588Y-104916784D01*
X115037761Y-104929962D01*
X115123063Y-105067807D01*
X115132099Y-105079208D01*
X115246829Y-105193739D01*
X115258240Y-105202751D01*
X115396243Y-105287816D01*
X115409424Y-105293963D01*
X115563710Y-105345138D01*
X115577086Y-105348005D01*
X115671438Y-105357672D01*
X115677854Y-105358000D01*
X115927885Y-105358000D01*
X115943124Y-105353525D01*
X115944329Y-105352135D01*
X115946000Y-105344452D01*
X115946000Y-105339884D01*
X116454000Y-105339884D01*
X116458475Y-105355123D01*
X116459865Y-105356328D01*
X116467548Y-105357999D01*
X116722095Y-105357999D01*
X116728614Y-105357662D01*
X116824206Y-105347743D01*
X116837600Y-105344851D01*
X116991784Y-105293412D01*
X117004962Y-105287239D01*
X117142807Y-105201937D01*
X117154208Y-105192901D01*
X117268739Y-105078171D01*
X117277751Y-105066760D01*
X117362816Y-104928757D01*
X117368963Y-104915576D01*
X117420138Y-104761290D01*
X117423005Y-104747914D01*
X117432672Y-104653562D01*
X117433000Y-104647146D01*
X117433000Y-104622115D01*
X117428525Y-104606876D01*
X117427135Y-104605671D01*
X117419452Y-104604000D01*
X116472115Y-104604000D01*
X116456876Y-104608475D01*
X116455671Y-104609865D01*
X116454000Y-104617548D01*
X116454000Y-105339884D01*
X115946000Y-105339884D01*
X115946000Y-104622115D01*
X115941525Y-104606876D01*
X115940135Y-104605671D01*
X115932452Y-104604000D01*
X114985116Y-104604000D01*
X114969877Y-104608475D01*
X114968672Y-104609865D01*
X114967001Y-104617548D01*
X114967001Y-104647095D01*
X113733000Y-104647095D01*
X113733000Y-104622115D01*
X113728525Y-104606876D01*
X113727135Y-104605671D01*
X113719452Y-104604000D01*
X112772115Y-104604000D01*
X112756876Y-104608475D01*
X112755671Y-104609865D01*
X112754000Y-104617548D01*
X112754000Y-105339884D01*
X112246000Y-105339884D01*
X112246000Y-104622115D01*
X112241525Y-104606876D01*
X112240135Y-104605671D01*
X112232452Y-104604000D01*
X111285116Y-104604000D01*
X111269877Y-104608475D01*
X111268672Y-104609865D01*
X111267001Y-104617548D01*
X111267001Y-104647095D01*
X110292100Y-104647095D01*
X110251937Y-104582193D01*
X110242901Y-104570792D01*
X110128171Y-104456261D01*
X110116760Y-104447249D01*
X109978757Y-104362184D01*
X109965576Y-104356037D01*
X109811290Y-104304862D01*
X109797914Y-104301995D01*
X109703562Y-104292328D01*
X109697145Y-104292000D01*
X109272115Y-104292000D01*
X109256876Y-104296475D01*
X109255671Y-104297865D01*
X109254000Y-104305548D01*
X109254000Y-105102885D01*
X108746000Y-105102885D01*
X108746000Y-104310116D01*
X108741525Y-104294877D01*
X108740135Y-104293672D01*
X108732452Y-104292001D01*
X108302905Y-104292001D01*
X108296386Y-104292338D01*
X108200794Y-104302257D01*
X108187400Y-104305149D01*
X108033216Y-104356588D01*
X108020038Y-104362761D01*
X107882193Y-104448063D01*
X107870792Y-104457099D01*
X107756261Y-104571829D01*
X107747249Y-104583240D01*
X107662184Y-104721243D01*
X107656037Y-104734424D01*
X107604862Y-104888710D01*
X107601995Y-104902086D01*
X107592328Y-104996438D01*
X107592000Y-105002855D01*
X107592000Y-105102885D01*
X106107998Y-105102885D01*
X106107662Y-105096386D01*
X106097743Y-105000794D01*
X106094851Y-104987400D01*
X106043412Y-104833216D01*
X106037239Y-104820038D01*
X105951937Y-104682193D01*
X105942901Y-104670792D01*
X105828171Y-104556261D01*
X105816760Y-104547249D01*
X105678757Y-104462184D01*
X105665576Y-104456037D01*
X105511290Y-104404862D01*
X105497914Y-104401995D01*
X105403562Y-104392328D01*
X105397145Y-104392000D01*
X104972115Y-104392000D01*
X104956876Y-104396475D01*
X104955671Y-104397865D01*
X104954000Y-104405548D01*
X104954000Y-105202885D01*
X104446000Y-105202885D01*
X104446000Y-104410116D01*
X104441525Y-104394877D01*
X104440135Y-104393672D01*
X104432452Y-104392001D01*
X104002905Y-104392001D01*
X103996386Y-104392338D01*
X103900794Y-104402257D01*
X103887400Y-104405149D01*
X103733216Y-104456588D01*
X103720038Y-104462761D01*
X103582193Y-104548063D01*
X103570792Y-104557099D01*
X103456261Y-104671829D01*
X103447249Y-104683240D01*
X103362184Y-104821243D01*
X103356037Y-104834424D01*
X103304862Y-104988710D01*
X103301995Y-105002086D01*
X103292328Y-105096438D01*
X103292000Y-105102855D01*
X103292000Y-105202885D01*
X100527619Y-105202885D01*
X100532672Y-105153562D01*
X100533000Y-105147146D01*
X100533000Y-105122115D01*
X100528525Y-105106876D01*
X100527135Y-105105671D01*
X100519452Y-105104000D01*
X99572115Y-105104000D01*
X99556876Y-105108475D01*
X99555671Y-105109865D01*
X99554000Y-105117548D01*
X99554000Y-105839884D01*
X99046000Y-105839884D01*
X99046000Y-105122115D01*
X99041525Y-105106876D01*
X99040135Y-105105671D01*
X99032452Y-105104000D01*
X98085116Y-105104000D01*
X98069877Y-105108475D01*
X98068672Y-105109865D01*
X98067001Y-105117548D01*
X98067001Y-105147095D01*
X56408500Y-105147095D01*
X56408500Y-104247095D01*
X60767001Y-104247095D01*
X60767338Y-104253614D01*
X60777257Y-104349206D01*
X60780149Y-104362600D01*
X60831588Y-104516784D01*
X60837761Y-104529962D01*
X60923063Y-104667807D01*
X60932099Y-104679208D01*
X61046829Y-104793739D01*
X61058240Y-104802751D01*
X61196243Y-104887816D01*
X61209424Y-104893963D01*
X61363710Y-104945138D01*
X61377086Y-104948005D01*
X61471438Y-104957672D01*
X61477854Y-104958000D01*
X61727885Y-104958000D01*
X61743124Y-104953525D01*
X61744329Y-104952135D01*
X61746000Y-104944452D01*
X61746000Y-104939884D01*
X62254000Y-104939884D01*
X62258475Y-104955123D01*
X62259865Y-104956328D01*
X62267548Y-104957999D01*
X62522095Y-104957999D01*
X62528614Y-104957662D01*
X62624206Y-104947743D01*
X62637600Y-104944851D01*
X62791784Y-104893412D01*
X62804962Y-104887239D01*
X62942807Y-104801937D01*
X62954208Y-104792901D01*
X63068739Y-104678171D01*
X63077751Y-104666760D01*
X63162816Y-104528757D01*
X63168963Y-104515576D01*
X63220138Y-104361290D01*
X63223005Y-104347914D01*
X63232672Y-104253562D01*
X63233000Y-104247146D01*
X63233000Y-104247095D01*
X63667001Y-104247095D01*
X63667338Y-104253614D01*
X63677257Y-104349206D01*
X63680149Y-104362600D01*
X63731588Y-104516784D01*
X63737761Y-104529962D01*
X63823063Y-104667807D01*
X63832099Y-104679208D01*
X63946829Y-104793739D01*
X63958240Y-104802751D01*
X64096243Y-104887816D01*
X64109424Y-104893963D01*
X64263710Y-104945138D01*
X64277086Y-104948005D01*
X64371438Y-104957672D01*
X64377854Y-104958000D01*
X64627885Y-104958000D01*
X64643124Y-104953525D01*
X64644329Y-104952135D01*
X64646000Y-104944452D01*
X64646000Y-104939884D01*
X65154000Y-104939884D01*
X65158475Y-104955123D01*
X65159865Y-104956328D01*
X65167548Y-104957999D01*
X65422095Y-104957999D01*
X65428614Y-104957662D01*
X65524206Y-104947743D01*
X65537600Y-104944851D01*
X65691784Y-104893412D01*
X65704962Y-104887239D01*
X65842807Y-104801937D01*
X65854208Y-104792901D01*
X65968739Y-104678171D01*
X65977751Y-104666760D01*
X66062816Y-104528757D01*
X66068963Y-104515576D01*
X66120138Y-104361290D01*
X66123005Y-104347914D01*
X66132672Y-104253562D01*
X66133000Y-104247146D01*
X66133000Y-104247095D01*
X66867001Y-104247095D01*
X66867338Y-104253614D01*
X66877257Y-104349206D01*
X66880149Y-104362600D01*
X66931588Y-104516784D01*
X66937761Y-104529962D01*
X67023063Y-104667807D01*
X67032099Y-104679208D01*
X67146829Y-104793739D01*
X67158240Y-104802751D01*
X67296243Y-104887816D01*
X67309424Y-104893963D01*
X67463710Y-104945138D01*
X67477086Y-104948005D01*
X67571438Y-104957672D01*
X67577854Y-104958000D01*
X67827885Y-104958000D01*
X67843124Y-104953525D01*
X67844329Y-104952135D01*
X67846000Y-104944452D01*
X67846000Y-104939884D01*
X68354000Y-104939884D01*
X68358475Y-104955123D01*
X68359865Y-104956328D01*
X68367548Y-104957999D01*
X68622095Y-104957999D01*
X68628614Y-104957662D01*
X68724206Y-104947743D01*
X68737600Y-104944851D01*
X68891784Y-104893412D01*
X68904962Y-104887239D01*
X69042807Y-104801937D01*
X69054208Y-104792901D01*
X69168739Y-104678171D01*
X69177751Y-104666760D01*
X69262816Y-104528757D01*
X69268963Y-104515576D01*
X69320138Y-104361290D01*
X69323005Y-104347914D01*
X69332672Y-104253562D01*
X69333000Y-104247146D01*
X69333000Y-104222115D01*
X69332994Y-104222095D01*
X70092001Y-104222095D01*
X70092338Y-104228614D01*
X70102257Y-104324206D01*
X70105149Y-104337600D01*
X70156588Y-104491784D01*
X70162761Y-104504962D01*
X70248063Y-104642807D01*
X70257099Y-104654208D01*
X70371829Y-104768739D01*
X70383240Y-104777751D01*
X70521243Y-104862816D01*
X70534424Y-104868963D01*
X70688710Y-104920138D01*
X70702086Y-104923005D01*
X70796438Y-104932672D01*
X70802854Y-104933000D01*
X71027885Y-104933000D01*
X71043124Y-104928525D01*
X71044329Y-104927135D01*
X71046000Y-104919452D01*
X71046000Y-104914884D01*
X71554000Y-104914884D01*
X71558475Y-104930123D01*
X71559865Y-104931328D01*
X71567548Y-104932999D01*
X71797095Y-104932999D01*
X71803614Y-104932662D01*
X71899206Y-104922743D01*
X71912600Y-104919851D01*
X72066784Y-104868412D01*
X72079962Y-104862239D01*
X72217807Y-104776937D01*
X72229208Y-104767901D01*
X72343739Y-104653171D01*
X72352751Y-104641760D01*
X72437816Y-104503757D01*
X72443963Y-104490576D01*
X72495138Y-104336290D01*
X72498005Y-104322914D01*
X72505773Y-104247095D01*
X73367001Y-104247095D01*
X73367338Y-104253614D01*
X73377257Y-104349206D01*
X73380149Y-104362600D01*
X73431588Y-104516784D01*
X73437761Y-104529962D01*
X73523063Y-104667807D01*
X73532099Y-104679208D01*
X73646829Y-104793739D01*
X73658240Y-104802751D01*
X73796243Y-104887816D01*
X73809424Y-104893963D01*
X73963710Y-104945138D01*
X73977086Y-104948005D01*
X74071438Y-104957672D01*
X74077854Y-104958000D01*
X74327885Y-104958000D01*
X74343124Y-104953525D01*
X74344329Y-104952135D01*
X74346000Y-104944452D01*
X74346000Y-104939884D01*
X74854000Y-104939884D01*
X74858475Y-104955123D01*
X74859865Y-104956328D01*
X74867548Y-104957999D01*
X75122095Y-104957999D01*
X75128614Y-104957662D01*
X75224206Y-104947743D01*
X75237600Y-104944851D01*
X75391784Y-104893412D01*
X75404962Y-104887239D01*
X75542807Y-104801937D01*
X75554208Y-104792901D01*
X75668739Y-104678171D01*
X75677751Y-104666760D01*
X75762816Y-104528757D01*
X75768963Y-104515576D01*
X75820138Y-104361290D01*
X75823005Y-104347914D01*
X75832672Y-104253562D01*
X75833000Y-104247146D01*
X75833000Y-104222115D01*
X75828525Y-104206876D01*
X75827135Y-104205671D01*
X75819452Y-104204000D01*
X74872115Y-104204000D01*
X74856876Y-104208475D01*
X74855671Y-104209865D01*
X74854000Y-104217548D01*
X74854000Y-104939884D01*
X74346000Y-104939884D01*
X74346000Y-104222115D01*
X74341525Y-104206876D01*
X74340135Y-104205671D01*
X74332452Y-104204000D01*
X73385116Y-104204000D01*
X73369877Y-104208475D01*
X73368672Y-104209865D01*
X73367001Y-104217548D01*
X73367001Y-104247095D01*
X72505773Y-104247095D01*
X72507672Y-104228562D01*
X72508000Y-104222146D01*
X72508000Y-104184615D01*
X72503525Y-104169376D01*
X72502135Y-104168171D01*
X72494452Y-104166500D01*
X71572115Y-104166500D01*
X71556876Y-104170975D01*
X71555671Y-104172365D01*
X71554000Y-104180048D01*
X71554000Y-104914884D01*
X71046000Y-104914884D01*
X71046000Y-104184615D01*
X71041525Y-104169376D01*
X71040135Y-104168171D01*
X71032452Y-104166500D01*
X70110116Y-104166500D01*
X70094877Y-104170975D01*
X70093672Y-104172365D01*
X70092001Y-104180048D01*
X70092001Y-104222095D01*
X69332994Y-104222095D01*
X69328525Y-104206876D01*
X69327135Y-104205671D01*
X69319452Y-104204000D01*
X68372115Y-104204000D01*
X68356876Y-104208475D01*
X68355671Y-104209865D01*
X68354000Y-104217548D01*
X68354000Y-104939884D01*
X67846000Y-104939884D01*
X67846000Y-104222115D01*
X67841525Y-104206876D01*
X67840135Y-104205671D01*
X67832452Y-104204000D01*
X66885116Y-104204000D01*
X66869877Y-104208475D01*
X66868672Y-104209865D01*
X66867001Y-104217548D01*
X66867001Y-104247095D01*
X66133000Y-104247095D01*
X66133000Y-104222115D01*
X66128525Y-104206876D01*
X66127135Y-104205671D01*
X66119452Y-104204000D01*
X65172115Y-104204000D01*
X65156876Y-104208475D01*
X65155671Y-104209865D01*
X65154000Y-104217548D01*
X65154000Y-104939884D01*
X64646000Y-104939884D01*
X64646000Y-104222115D01*
X64641525Y-104206876D01*
X64640135Y-104205671D01*
X64632452Y-104204000D01*
X63685116Y-104204000D01*
X63669877Y-104208475D01*
X63668672Y-104209865D01*
X63667001Y-104217548D01*
X63667001Y-104247095D01*
X63233000Y-104247095D01*
X63233000Y-104222115D01*
X63228525Y-104206876D01*
X63227135Y-104205671D01*
X63219452Y-104204000D01*
X62272115Y-104204000D01*
X62256876Y-104208475D01*
X62255671Y-104209865D01*
X62254000Y-104217548D01*
X62254000Y-104939884D01*
X61746000Y-104939884D01*
X61746000Y-104222115D01*
X61741525Y-104206876D01*
X61740135Y-104205671D01*
X61732452Y-104204000D01*
X60785116Y-104204000D01*
X60769877Y-104208475D01*
X60768672Y-104209865D01*
X60767001Y-104217548D01*
X60767001Y-104247095D01*
X56408500Y-104247095D01*
X56408500Y-103735044D01*
X56419643Y-103697095D01*
X78667001Y-103697095D01*
X78667338Y-103703614D01*
X78677257Y-103799206D01*
X78680149Y-103812600D01*
X78731588Y-103966784D01*
X78737761Y-103979962D01*
X78823063Y-104117807D01*
X78832099Y-104129208D01*
X78946829Y-104243739D01*
X78958240Y-104252751D01*
X79096243Y-104337816D01*
X79109424Y-104343963D01*
X79263710Y-104395138D01*
X79277086Y-104398005D01*
X79371438Y-104407672D01*
X79377854Y-104408000D01*
X79415385Y-104408000D01*
X79430624Y-104403525D01*
X79431829Y-104402135D01*
X79433500Y-104394452D01*
X79433500Y-103472115D01*
X79429025Y-103456876D01*
X79427635Y-103455671D01*
X79419952Y-103454000D01*
X78685116Y-103454000D01*
X78669877Y-103458475D01*
X78668672Y-103459865D01*
X78667001Y-103467548D01*
X78667001Y-103697095D01*
X56419643Y-103697095D01*
X56428502Y-103666923D01*
X56482158Y-103620430D01*
X56552432Y-103610326D01*
X56582718Y-103618635D01*
X56633520Y-103639678D01*
X56633523Y-103639679D01*
X56641150Y-103642838D01*
X56800000Y-103663751D01*
X56808188Y-103662673D01*
X56831697Y-103659578D01*
X56848143Y-103658500D01*
X60251857Y-103658500D01*
X60268303Y-103659578D01*
X60300000Y-103663751D01*
X60308188Y-103662673D01*
X60339885Y-103658500D01*
X60450662Y-103643916D01*
X60458850Y-103642838D01*
X60594816Y-103586519D01*
X60665406Y-103578930D01*
X60728893Y-103610709D01*
X60763930Y-103667429D01*
X60771475Y-103693124D01*
X60772865Y-103694329D01*
X60780548Y-103696000D01*
X63214884Y-103696000D01*
X63230123Y-103691525D01*
X63231328Y-103690135D01*
X63232999Y-103682452D01*
X63232999Y-103652905D01*
X63232662Y-103646386D01*
X63222743Y-103550794D01*
X63219851Y-103537400D01*
X63168412Y-103383216D01*
X63162239Y-103370038D01*
X63076937Y-103232193D01*
X63067901Y-103220792D01*
X62953172Y-103106262D01*
X62944238Y-103099206D01*
X62903177Y-103041288D01*
X62899947Y-102970365D01*
X62935574Y-102908954D01*
X62943407Y-102902154D01*
X62949348Y-102898478D01*
X62964973Y-102882826D01*
X63002252Y-102845482D01*
X63064535Y-102811403D01*
X63091425Y-102808500D01*
X63808607Y-102808500D01*
X63876728Y-102828502D01*
X63897625Y-102845327D01*
X63951697Y-102899305D01*
X63956235Y-102902102D01*
X63996824Y-102959353D01*
X64000054Y-103030276D01*
X63964428Y-103091687D01*
X63955932Y-103099062D01*
X63945793Y-103107098D01*
X63831261Y-103221829D01*
X63822249Y-103233240D01*
X63737184Y-103371243D01*
X63731037Y-103384424D01*
X63679862Y-103538710D01*
X63676995Y-103552086D01*
X63667328Y-103646438D01*
X63667000Y-103652855D01*
X63667000Y-103677885D01*
X63671475Y-103693124D01*
X63672865Y-103694329D01*
X63680548Y-103696000D01*
X66114884Y-103696000D01*
X66130123Y-103691525D01*
X66131328Y-103690135D01*
X66132999Y-103682452D01*
X66132999Y-103652905D01*
X66132662Y-103646386D01*
X66122743Y-103550794D01*
X66119851Y-103537400D01*
X66068412Y-103383216D01*
X66062239Y-103370038D01*
X65976937Y-103232193D01*
X65967901Y-103220792D01*
X65853172Y-103106262D01*
X65844238Y-103099206D01*
X65803177Y-103041288D01*
X65799947Y-102970365D01*
X65835574Y-102908954D01*
X65843407Y-102902154D01*
X65849348Y-102898478D01*
X65864973Y-102882826D01*
X65902252Y-102845482D01*
X65964535Y-102811403D01*
X65991425Y-102808500D01*
X67008607Y-102808500D01*
X67076728Y-102828502D01*
X67097625Y-102845327D01*
X67151697Y-102899305D01*
X67156235Y-102902102D01*
X67196824Y-102959353D01*
X67200054Y-103030276D01*
X67164428Y-103091687D01*
X67155932Y-103099062D01*
X67145793Y-103107098D01*
X67031261Y-103221829D01*
X67022249Y-103233240D01*
X66937184Y-103371243D01*
X66931037Y-103384424D01*
X66879862Y-103538710D01*
X66876995Y-103552086D01*
X66867328Y-103646438D01*
X66867000Y-103652855D01*
X66867000Y-103677885D01*
X66871475Y-103693124D01*
X66872865Y-103694329D01*
X66880548Y-103696000D01*
X69314884Y-103696000D01*
X69330123Y-103691525D01*
X69331328Y-103690135D01*
X69332999Y-103682452D01*
X69332999Y-103652905D01*
X69332662Y-103646386D01*
X69322743Y-103550794D01*
X69319851Y-103537400D01*
X69268412Y-103383216D01*
X69262239Y-103370038D01*
X69176937Y-103232193D01*
X69167901Y-103220792D01*
X69053172Y-103106262D01*
X69044238Y-103099206D01*
X69003177Y-103041288D01*
X68999947Y-102970365D01*
X69035574Y-102908954D01*
X69043407Y-102902154D01*
X69049348Y-102898478D01*
X69174305Y-102773303D01*
X69186419Y-102753650D01*
X69263275Y-102628968D01*
X69263276Y-102628966D01*
X69267115Y-102622738D01*
X69297955Y-102529757D01*
X69320632Y-102461389D01*
X69320632Y-102461387D01*
X69322797Y-102454861D01*
X69326242Y-102421243D01*
X69332443Y-102360716D01*
X69333500Y-102350400D01*
X69333500Y-101749600D01*
X69331684Y-101732095D01*
X69323238Y-101650692D01*
X69323237Y-101650688D01*
X69322526Y-101643834D01*
X69320342Y-101637286D01*
X69268868Y-101483002D01*
X69266550Y-101476054D01*
X69173478Y-101325652D01*
X69048303Y-101200695D01*
X69013953Y-101179521D01*
X68903968Y-101111725D01*
X68903966Y-101111724D01*
X68897738Y-101107885D01*
X68802828Y-101076405D01*
X68736389Y-101054368D01*
X68736387Y-101054368D01*
X68729861Y-101052203D01*
X68723025Y-101051503D01*
X68723022Y-101051502D01*
X68679969Y-101047091D01*
X68625400Y-101041500D01*
X67574600Y-101041500D01*
X67571354Y-101041837D01*
X67571350Y-101041837D01*
X67475692Y-101051762D01*
X67475688Y-101051763D01*
X67468834Y-101052474D01*
X67462298Y-101054655D01*
X67462296Y-101054655D01*
X67376746Y-101083197D01*
X67301054Y-101108450D01*
X67150652Y-101201522D01*
X67145479Y-101206704D01*
X67097748Y-101254518D01*
X67035465Y-101288597D01*
X67008575Y-101291500D01*
X66085371Y-101291500D01*
X66017250Y-101271498D01*
X65970757Y-101217842D01*
X65960653Y-101147568D01*
X65990147Y-101082988D01*
X65996276Y-101076405D01*
X66183163Y-100889518D01*
X66245475Y-100855492D01*
X66283239Y-100853092D01*
X66394524Y-100862828D01*
X66394525Y-100862828D01*
X66400000Y-100863307D01*
X66619371Y-100844115D01*
X66832076Y-100787120D01*
X67031654Y-100694056D01*
X67173150Y-100594979D01*
X67207527Y-100570908D01*
X67207529Y-100570906D01*
X67212038Y-100567749D01*
X67367749Y-100412038D01*
X67373541Y-100403767D01*
X67490899Y-100236162D01*
X67490900Y-100236160D01*
X67494056Y-100231653D01*
X67496379Y-100226671D01*
X67496382Y-100226666D01*
X67553897Y-100103323D01*
X67587120Y-100032076D01*
X67644115Y-99819371D01*
X67663307Y-99600000D01*
X67661878Y-99583662D01*
X67653092Y-99483239D01*
X67667081Y-99413635D01*
X67689518Y-99383163D01*
X67723218Y-99349463D01*
X67785530Y-99315437D01*
X67856540Y-99320576D01*
X67939684Y-99351745D01*
X67947532Y-99352598D01*
X67947534Y-99352598D01*
X67993949Y-99357640D01*
X68001866Y-99358500D01*
X68798134Y-99358500D01*
X68860316Y-99351745D01*
X68996705Y-99300615D01*
X69113261Y-99213261D01*
X69200615Y-99096705D01*
X69251745Y-98960316D01*
X69258500Y-98898134D01*
X69258500Y-98201866D01*
X69251745Y-98139684D01*
X69200615Y-98003295D01*
X69113261Y-97886739D01*
X68996705Y-97799385D01*
X68860316Y-97748255D01*
X68798134Y-97741500D01*
X68001866Y-97741500D01*
X67998469Y-97741869D01*
X67947534Y-97747402D01*
X67947532Y-97747402D01*
X67939684Y-97748255D01*
X67932291Y-97751027D01*
X67932289Y-97751027D01*
X67845716Y-97783482D01*
X67801487Y-97791500D01*
X67517069Y-97791500D01*
X67498121Y-97790067D01*
X67490780Y-97788950D01*
X67483883Y-97787901D01*
X67483881Y-97787901D01*
X67476651Y-97786801D01*
X67469359Y-97787394D01*
X67469356Y-97787394D01*
X67423982Y-97791085D01*
X67413767Y-97791500D01*
X67405707Y-97791500D01*
X67392417Y-97793049D01*
X67377493Y-97794789D01*
X67373118Y-97795222D01*
X67307661Y-97800546D01*
X67307658Y-97800547D01*
X67300363Y-97801140D01*
X67293399Y-97803396D01*
X67287440Y-97804587D01*
X67281585Y-97805971D01*
X67274319Y-97806818D01*
X67205673Y-97831735D01*
X67201545Y-97833152D01*
X67139064Y-97853393D01*
X67139062Y-97853394D01*
X67132101Y-97855649D01*
X67125846Y-97859445D01*
X67120372Y-97861951D01*
X67114942Y-97864670D01*
X67108063Y-97867167D01*
X67047016Y-97907191D01*
X67043327Y-97909518D01*
X67023135Y-97921771D01*
X66985693Y-97944491D01*
X66985688Y-97944495D01*
X66980892Y-97947405D01*
X66972516Y-97954803D01*
X66972493Y-97954777D01*
X66969503Y-97957426D01*
X66966264Y-97960134D01*
X66960148Y-97964144D01*
X66955121Y-97969451D01*
X66955117Y-97969454D01*
X66906872Y-98020383D01*
X66904494Y-98022825D01*
X66616837Y-98310482D01*
X66554525Y-98344508D01*
X66516761Y-98346908D01*
X66405476Y-98337172D01*
X66405475Y-98337172D01*
X66400000Y-98336693D01*
X66180629Y-98355885D01*
X65967924Y-98412880D01*
X65882748Y-98452598D01*
X65773334Y-98503618D01*
X65773329Y-98503621D01*
X65768347Y-98505944D01*
X65763840Y-98509100D01*
X65763838Y-98509101D01*
X65592473Y-98629092D01*
X65592470Y-98629094D01*
X65587962Y-98632251D01*
X65432251Y-98787962D01*
X65429094Y-98792470D01*
X65429092Y-98792473D01*
X65340248Y-98919356D01*
X65305944Y-98968347D01*
X65303621Y-98973329D01*
X65303618Y-98973334D01*
X65261080Y-99064558D01*
X65212880Y-99167924D01*
X65155885Y-99380629D01*
X65136693Y-99600000D01*
X65137172Y-99605475D01*
X65137172Y-99605476D01*
X65146908Y-99716761D01*
X65132919Y-99786365D01*
X65110482Y-99816837D01*
X64411089Y-100516230D01*
X64396677Y-100528616D01*
X64385082Y-100537149D01*
X64385077Y-100537154D01*
X64379182Y-100541492D01*
X64374443Y-100547070D01*
X64374440Y-100547073D01*
X64344965Y-100581768D01*
X64338035Y-100589284D01*
X64332340Y-100594979D01*
X64330060Y-100597861D01*
X64314719Y-100617251D01*
X64311928Y-100620655D01*
X64269409Y-100670703D01*
X64264667Y-100676285D01*
X64261339Y-100682801D01*
X64257972Y-100687850D01*
X64254805Y-100692979D01*
X64250266Y-100698716D01*
X64219345Y-100764875D01*
X64217442Y-100768769D01*
X64184231Y-100833808D01*
X64182492Y-100840916D01*
X64180393Y-100846559D01*
X64178476Y-100852322D01*
X64175378Y-100858950D01*
X64173888Y-100866112D01*
X64173888Y-100866113D01*
X64160514Y-100930412D01*
X64159544Y-100934696D01*
X64142192Y-101005610D01*
X64141500Y-101016764D01*
X64141464Y-101016762D01*
X64141223Y-101020779D01*
X64140889Y-101024513D01*
X64114897Y-101090580D01*
X64081693Y-101120431D01*
X63950652Y-101201522D01*
X63945479Y-101206704D01*
X63897748Y-101254518D01*
X63835465Y-101288597D01*
X63808575Y-101291500D01*
X63091393Y-101291500D01*
X63023272Y-101271498D01*
X63002375Y-101254673D01*
X62953483Y-101205866D01*
X62948303Y-101200695D01*
X62913953Y-101179521D01*
X62803968Y-101111725D01*
X62803966Y-101111724D01*
X62797738Y-101107885D01*
X62702828Y-101076405D01*
X62636389Y-101054368D01*
X62636387Y-101054368D01*
X62629861Y-101052203D01*
X62623025Y-101051503D01*
X62623022Y-101051502D01*
X62579969Y-101047091D01*
X62525400Y-101041500D01*
X61474600Y-101041500D01*
X61471354Y-101041837D01*
X61471350Y-101041837D01*
X61375692Y-101051762D01*
X61375688Y-101051763D01*
X61368834Y-101052474D01*
X61362298Y-101054655D01*
X61362296Y-101054655D01*
X61276746Y-101083197D01*
X61201054Y-101108450D01*
X61178324Y-101122516D01*
X61100803Y-101170487D01*
X61032351Y-101189325D01*
X60964581Y-101168164D01*
X60919010Y-101113723D01*
X60908500Y-101063343D01*
X60908500Y-96997000D01*
X60928502Y-96928879D01*
X60982158Y-96882386D01*
X61034500Y-96871000D01*
X62421085Y-96871000D01*
X62489206Y-96891002D01*
X62510103Y-96907827D01*
X62547974Y-96945632D01*
X62576697Y-96974305D01*
X62582927Y-96978145D01*
X62582928Y-96978146D01*
X62720090Y-97062694D01*
X62727262Y-97067115D01*
X62781730Y-97085181D01*
X62888611Y-97120632D01*
X62888613Y-97120632D01*
X62895139Y-97122797D01*
X62901975Y-97123497D01*
X62901978Y-97123498D01*
X62945031Y-97127909D01*
X62999600Y-97133500D01*
X64000400Y-97133500D01*
X64003646Y-97133163D01*
X64003650Y-97133163D01*
X64099308Y-97123238D01*
X64099312Y-97123237D01*
X64106166Y-97122526D01*
X64112702Y-97120345D01*
X64112704Y-97120345D01*
X64259115Y-97071498D01*
X64273946Y-97066550D01*
X64424348Y-96973478D01*
X64502209Y-96895482D01*
X64564490Y-96861403D01*
X64591381Y-96858500D01*
X67415500Y-96858500D01*
X67483621Y-96878502D01*
X67530114Y-96932158D01*
X67541500Y-96984500D01*
X67541500Y-96998134D01*
X67548255Y-97060316D01*
X67599385Y-97196705D01*
X67686739Y-97313261D01*
X67803295Y-97400615D01*
X67939684Y-97451745D01*
X68001866Y-97458500D01*
X68798134Y-97458500D01*
X68860316Y-97451745D01*
X68996705Y-97400615D01*
X69113261Y-97313261D01*
X69200615Y-97196705D01*
X69251745Y-97060316D01*
X69258500Y-96998134D01*
X69258500Y-96301866D01*
X69251745Y-96239684D01*
X69200615Y-96103295D01*
X69113261Y-95986739D01*
X68996705Y-95899385D01*
X68860316Y-95848255D01*
X68798134Y-95841500D01*
X68716371Y-95841500D01*
X68648250Y-95821498D01*
X68627276Y-95804595D01*
X68470775Y-95648094D01*
X68436749Y-95585782D01*
X68441814Y-95514967D01*
X68484361Y-95458131D01*
X68550881Y-95433320D01*
X68559870Y-95432999D01*
X68747095Y-95432999D01*
X68753614Y-95432662D01*
X68849206Y-95422743D01*
X68862600Y-95419851D01*
X69016784Y-95368412D01*
X69029962Y-95362239D01*
X69167807Y-95276937D01*
X69179208Y-95267901D01*
X69293738Y-95153172D01*
X69300794Y-95144238D01*
X69358712Y-95103177D01*
X69429635Y-95099947D01*
X69491046Y-95135574D01*
X69497846Y-95143407D01*
X69501522Y-95149348D01*
X69626697Y-95274305D01*
X69632927Y-95278145D01*
X69632928Y-95278146D01*
X69770661Y-95363046D01*
X69777262Y-95367115D01*
X69857005Y-95393564D01*
X69938611Y-95420632D01*
X69938613Y-95420632D01*
X69945139Y-95422797D01*
X69951975Y-95423497D01*
X69951978Y-95423498D01*
X69988717Y-95427262D01*
X70049600Y-95433500D01*
X70650400Y-95433500D01*
X70653646Y-95433163D01*
X70653650Y-95433163D01*
X70749308Y-95423238D01*
X70749312Y-95423237D01*
X70756166Y-95422526D01*
X70762702Y-95420345D01*
X70762704Y-95420345D01*
X70908171Y-95371813D01*
X70923946Y-95366550D01*
X71074348Y-95273478D01*
X71199305Y-95148303D01*
X71222502Y-95110671D01*
X71287094Y-95005884D01*
X71339867Y-94958390D01*
X71394354Y-94946000D01*
X74221085Y-94946000D01*
X74289206Y-94966002D01*
X74310102Y-94982827D01*
X74338108Y-95010784D01*
X74372188Y-95073066D01*
X74367185Y-95143886D01*
X74338264Y-95188975D01*
X74320566Y-95206704D01*
X74250695Y-95276697D01*
X74246855Y-95282927D01*
X74246854Y-95282928D01*
X74162149Y-95420345D01*
X74157885Y-95427262D01*
X74143815Y-95469681D01*
X74105307Y-95585782D01*
X74102203Y-95595139D01*
X74101503Y-95601975D01*
X74101502Y-95601978D01*
X74100337Y-95613350D01*
X74091500Y-95699600D01*
X74091500Y-95765500D01*
X74071498Y-95833621D01*
X74017842Y-95880114D01*
X73965500Y-95891500D01*
X70998513Y-95891500D01*
X70954284Y-95883482D01*
X70867711Y-95851027D01*
X70867709Y-95851027D01*
X70860316Y-95848255D01*
X70852468Y-95847402D01*
X70852466Y-95847402D01*
X70801531Y-95841869D01*
X70798134Y-95841500D01*
X70001866Y-95841500D01*
X69939684Y-95848255D01*
X69803295Y-95899385D01*
X69686739Y-95986739D01*
X69599385Y-96103295D01*
X69548255Y-96239684D01*
X69541500Y-96301866D01*
X69541500Y-96998134D01*
X69548255Y-97060316D01*
X69599385Y-97196705D01*
X69686739Y-97313261D01*
X69687974Y-97314187D01*
X69720208Y-97373217D01*
X69715143Y-97444032D01*
X69688586Y-97485355D01*
X69686739Y-97486739D01*
X69599385Y-97603295D01*
X69548255Y-97739684D01*
X69541500Y-97801866D01*
X69541500Y-98898134D01*
X69548255Y-98960316D01*
X69599385Y-99096705D01*
X69686739Y-99213261D01*
X69803295Y-99300615D01*
X69939684Y-99351745D01*
X70001866Y-99358500D01*
X70315500Y-99358500D01*
X70383621Y-99378502D01*
X70430114Y-99432158D01*
X70441500Y-99484500D01*
X70441500Y-101115572D01*
X70421498Y-101183693D01*
X70387112Y-101217495D01*
X70387612Y-101218125D01*
X70381880Y-101222668D01*
X70375652Y-101226522D01*
X70370479Y-101231704D01*
X70344166Y-101258063D01*
X70250695Y-101351697D01*
X70246855Y-101357927D01*
X70246854Y-101357928D01*
X70169371Y-101483629D01*
X70157885Y-101502262D01*
X70102203Y-101670139D01*
X70101503Y-101676975D01*
X70101502Y-101676978D01*
X70098118Y-101710011D01*
X70091500Y-101774600D01*
X70091500Y-102400400D01*
X70091837Y-102403646D01*
X70091837Y-102403650D01*
X70099944Y-102481779D01*
X70102474Y-102506166D01*
X70104655Y-102512702D01*
X70104655Y-102512704D01*
X70139048Y-102615791D01*
X70158450Y-102673946D01*
X70251522Y-102824348D01*
X70256704Y-102829521D01*
X70338463Y-102911138D01*
X70372542Y-102973421D01*
X70367539Y-103044241D01*
X70338618Y-103089329D01*
X70256261Y-103171829D01*
X70247249Y-103183240D01*
X70162184Y-103321243D01*
X70156037Y-103334424D01*
X70104862Y-103488710D01*
X70101995Y-103502086D01*
X70092328Y-103596438D01*
X70092000Y-103602855D01*
X70092000Y-103640385D01*
X70096475Y-103655624D01*
X70097865Y-103656829D01*
X70105548Y-103658500D01*
X72489884Y-103658500D01*
X72505123Y-103654025D01*
X72506328Y-103652635D01*
X72507999Y-103644952D01*
X72507999Y-103602905D01*
X72507662Y-103596386D01*
X72497743Y-103500794D01*
X72494851Y-103487400D01*
X72443412Y-103333216D01*
X72437239Y-103320038D01*
X72351937Y-103182193D01*
X72342901Y-103170792D01*
X72261538Y-103089570D01*
X72227459Y-103027287D01*
X72232462Y-102956467D01*
X72261382Y-102911380D01*
X72289729Y-102882983D01*
X72352011Y-102848903D01*
X72378903Y-102846000D01*
X73546172Y-102846000D01*
X73614293Y-102866002D01*
X73635189Y-102882826D01*
X73645410Y-102893029D01*
X73651697Y-102899305D01*
X73656235Y-102902102D01*
X73696824Y-102959353D01*
X73700054Y-103030276D01*
X73664428Y-103091687D01*
X73655932Y-103099062D01*
X73645793Y-103107098D01*
X73531261Y-103221829D01*
X73522249Y-103233240D01*
X73437184Y-103371243D01*
X73431037Y-103384424D01*
X73379862Y-103538710D01*
X73376995Y-103552086D01*
X73367328Y-103646438D01*
X73367000Y-103652855D01*
X73367000Y-103677885D01*
X73371475Y-103693124D01*
X73372865Y-103694329D01*
X73380548Y-103696000D01*
X75814884Y-103696000D01*
X75830123Y-103691525D01*
X75831328Y-103690135D01*
X75832999Y-103682452D01*
X75832999Y-103652905D01*
X75832662Y-103646386D01*
X75822743Y-103550794D01*
X75819851Y-103537400D01*
X75768412Y-103383216D01*
X75762239Y-103370038D01*
X75676937Y-103232193D01*
X75667901Y-103220792D01*
X75553172Y-103106262D01*
X75544238Y-103099206D01*
X75503177Y-103041288D01*
X75499947Y-102970365D01*
X75524591Y-102927885D01*
X78667000Y-102927885D01*
X78671475Y-102943124D01*
X78672865Y-102944329D01*
X78680548Y-102946000D01*
X79415385Y-102946000D01*
X79430624Y-102941525D01*
X79431829Y-102940135D01*
X79433500Y-102932452D01*
X79433500Y-102010116D01*
X79429025Y-101994877D01*
X79427635Y-101993672D01*
X79419952Y-101992001D01*
X79377905Y-101992001D01*
X79371386Y-101992338D01*
X79275794Y-102002257D01*
X79262400Y-102005149D01*
X79108216Y-102056588D01*
X79095038Y-102062761D01*
X78957193Y-102148063D01*
X78945792Y-102157099D01*
X78831261Y-102271829D01*
X78822249Y-102283240D01*
X78737184Y-102421243D01*
X78731037Y-102434424D01*
X78679862Y-102588710D01*
X78676995Y-102602086D01*
X78667328Y-102696438D01*
X78667000Y-102702855D01*
X78667000Y-102927885D01*
X75524591Y-102927885D01*
X75535574Y-102908954D01*
X75543407Y-102902154D01*
X75549348Y-102898478D01*
X75674305Y-102773303D01*
X75686419Y-102753650D01*
X75763275Y-102628968D01*
X75763276Y-102628966D01*
X75767115Y-102622738D01*
X75797955Y-102529757D01*
X75820632Y-102461389D01*
X75820632Y-102461387D01*
X75822797Y-102454861D01*
X75826242Y-102421243D01*
X75832443Y-102360716D01*
X75833500Y-102350400D01*
X75833500Y-101749600D01*
X75831684Y-101732095D01*
X75823238Y-101650692D01*
X75823237Y-101650688D01*
X75822526Y-101643834D01*
X75820342Y-101637286D01*
X75768868Y-101483002D01*
X75766550Y-101476054D01*
X75673478Y-101325652D01*
X75548303Y-101200695D01*
X75513953Y-101179521D01*
X75403968Y-101111725D01*
X75403966Y-101111724D01*
X75397738Y-101107885D01*
X75302828Y-101076405D01*
X75236389Y-101054368D01*
X75236387Y-101054368D01*
X75229861Y-101052203D01*
X75223025Y-101051503D01*
X75223022Y-101051502D01*
X75179969Y-101047091D01*
X75125400Y-101041500D01*
X74074600Y-101041500D01*
X74071354Y-101041837D01*
X74071350Y-101041837D01*
X73975692Y-101051762D01*
X73975688Y-101051763D01*
X73968834Y-101052474D01*
X73962298Y-101054655D01*
X73962296Y-101054655D01*
X73876746Y-101083197D01*
X73801054Y-101108450D01*
X73650652Y-101201522D01*
X73563263Y-101289064D01*
X73560314Y-101292018D01*
X73498032Y-101326097D01*
X73471141Y-101329000D01*
X72378915Y-101329000D01*
X72310794Y-101308998D01*
X72289897Y-101292173D01*
X72228483Y-101230866D01*
X72223303Y-101225695D01*
X72201939Y-101212526D01*
X72078968Y-101136725D01*
X72078966Y-101136724D01*
X72072738Y-101132885D01*
X72044830Y-101123628D01*
X71986472Y-101083197D01*
X71959236Y-101017633D01*
X71958500Y-101004036D01*
X71958500Y-98967063D01*
X71959933Y-98948114D01*
X71962097Y-98933886D01*
X71963198Y-98926651D01*
X71958915Y-98873990D01*
X71958500Y-98863777D01*
X71958500Y-98855707D01*
X71958078Y-98852087D01*
X71958077Y-98852069D01*
X71955208Y-98827461D01*
X71954775Y-98823086D01*
X71953286Y-98804771D01*
X71948860Y-98750363D01*
X71946604Y-98743399D01*
X71945413Y-98737440D01*
X71944029Y-98731585D01*
X71943182Y-98724319D01*
X71918265Y-98655673D01*
X71916848Y-98651545D01*
X71896607Y-98589064D01*
X71896606Y-98589062D01*
X71894351Y-98582101D01*
X71890555Y-98575846D01*
X71888049Y-98570372D01*
X71885330Y-98564942D01*
X71882833Y-98558063D01*
X71842809Y-98497016D01*
X71840472Y-98493312D01*
X71805509Y-98435693D01*
X71805505Y-98435688D01*
X71802595Y-98430892D01*
X71795197Y-98422516D01*
X71795223Y-98422493D01*
X71792574Y-98419503D01*
X71789866Y-98416264D01*
X71785856Y-98410148D01*
X71780549Y-98405121D01*
X71780546Y-98405117D01*
X71729617Y-98356872D01*
X71727175Y-98354494D01*
X71295405Y-97922724D01*
X71261379Y-97860412D01*
X71258500Y-97833629D01*
X71258500Y-97801866D01*
X71251745Y-97739684D01*
X71200615Y-97603295D01*
X71195234Y-97596116D01*
X71194628Y-97595008D01*
X71179459Y-97525651D01*
X71204196Y-97459103D01*
X71260984Y-97416493D01*
X71305148Y-97408500D01*
X74595430Y-97408500D01*
X74614380Y-97409933D01*
X74628615Y-97412099D01*
X74628619Y-97412099D01*
X74635849Y-97413199D01*
X74643141Y-97412606D01*
X74643144Y-97412606D01*
X74688518Y-97408915D01*
X74698733Y-97408500D01*
X74706793Y-97408500D01*
X74720083Y-97406951D01*
X74735007Y-97405211D01*
X74739382Y-97404778D01*
X74804839Y-97399454D01*
X74804842Y-97399453D01*
X74812137Y-97398860D01*
X74819101Y-97396604D01*
X74825060Y-97395413D01*
X74830915Y-97394029D01*
X74838181Y-97393182D01*
X74906827Y-97368265D01*
X74910955Y-97366848D01*
X74973436Y-97346607D01*
X74973438Y-97346606D01*
X74980399Y-97344351D01*
X74986654Y-97340555D01*
X74992128Y-97338049D01*
X74997558Y-97335330D01*
X75004437Y-97332833D01*
X75034289Y-97313261D01*
X75065476Y-97292814D01*
X75069180Y-97290477D01*
X75131607Y-97252595D01*
X75139984Y-97245197D01*
X75140008Y-97245224D01*
X75143000Y-97242571D01*
X75146233Y-97239868D01*
X75152352Y-97235856D01*
X75205628Y-97179617D01*
X75208006Y-97177175D01*
X75210905Y-97174276D01*
X75273217Y-97140250D01*
X75344032Y-97145315D01*
X75389095Y-97174276D01*
X76229595Y-98014776D01*
X76263621Y-98077088D01*
X76266500Y-98103871D01*
X76266500Y-98800400D01*
X76266837Y-98803646D01*
X76266837Y-98803650D01*
X76276641Y-98898134D01*
X76277474Y-98906166D01*
X76279655Y-98912702D01*
X76279655Y-98912704D01*
X76297791Y-98967063D01*
X76333450Y-99073946D01*
X76426522Y-99224348D01*
X76431704Y-99229521D01*
X76449616Y-99247402D01*
X76551697Y-99349305D01*
X76557927Y-99353145D01*
X76557928Y-99353146D01*
X76695090Y-99437694D01*
X76702262Y-99442115D01*
X76732677Y-99452203D01*
X76863611Y-99495632D01*
X76863613Y-99495632D01*
X76870139Y-99497797D01*
X76876975Y-99498497D01*
X76876978Y-99498498D01*
X76913141Y-99502203D01*
X76974600Y-99508500D01*
X77600400Y-99508500D01*
X77603646Y-99508163D01*
X77603650Y-99508163D01*
X77699308Y-99498238D01*
X77699312Y-99498237D01*
X77706166Y-99497526D01*
X77712702Y-99495345D01*
X77712704Y-99495345D01*
X77844806Y-99451272D01*
X77873946Y-99441550D01*
X78024348Y-99348478D01*
X78110784Y-99261891D01*
X78173066Y-99227812D01*
X78243886Y-99232815D01*
X78288975Y-99261736D01*
X78342770Y-99315437D01*
X78376697Y-99349305D01*
X78382927Y-99353145D01*
X78382928Y-99353146D01*
X78520090Y-99437694D01*
X78527262Y-99442115D01*
X78557677Y-99452203D01*
X78688611Y-99495632D01*
X78688613Y-99495632D01*
X78695139Y-99497797D01*
X78701975Y-99498497D01*
X78701978Y-99498498D01*
X78738141Y-99502203D01*
X78799600Y-99508500D01*
X79425400Y-99508500D01*
X79428646Y-99508163D01*
X79428650Y-99508163D01*
X79524308Y-99498238D01*
X79524312Y-99498237D01*
X79531166Y-99497526D01*
X79537702Y-99495345D01*
X79537704Y-99495345D01*
X79669806Y-99451272D01*
X79698946Y-99441550D01*
X79756672Y-99405828D01*
X79842615Y-99352645D01*
X79911067Y-99333807D01*
X79978837Y-99354968D01*
X79998013Y-99370694D01*
X80716230Y-100088911D01*
X80728616Y-100103323D01*
X80737149Y-100114918D01*
X80737154Y-100114923D01*
X80741492Y-100120818D01*
X80747070Y-100125557D01*
X80747073Y-100125560D01*
X80781768Y-100155035D01*
X80789284Y-100161965D01*
X80794980Y-100167661D01*
X80797841Y-100169924D01*
X80797846Y-100169929D01*
X80817256Y-100185285D01*
X80820658Y-100188074D01*
X80876285Y-100235333D01*
X80882802Y-100238661D01*
X80887850Y-100242027D01*
X80892972Y-100245190D01*
X80898716Y-100249735D01*
X80964895Y-100280664D01*
X80968779Y-100282563D01*
X81033808Y-100315769D01*
X81040923Y-100317510D01*
X81046578Y-100319613D01*
X81052317Y-100321522D01*
X81058950Y-100324622D01*
X81130435Y-100339491D01*
X81134701Y-100340457D01*
X81205610Y-100357808D01*
X81211212Y-100358156D01*
X81211215Y-100358156D01*
X81216764Y-100358500D01*
X81216762Y-100358535D01*
X81220734Y-100358775D01*
X81224955Y-100359152D01*
X81232115Y-100360641D01*
X81309542Y-100358546D01*
X81312950Y-100358500D01*
X82780126Y-100358500D01*
X82848247Y-100378502D01*
X82855673Y-100383661D01*
X82878295Y-100400615D01*
X83014684Y-100451745D01*
X83076866Y-100458500D01*
X83623134Y-100458500D01*
X83685316Y-100451745D01*
X83721272Y-100438266D01*
X83792076Y-100433083D01*
X83854446Y-100467003D01*
X83888575Y-100529258D01*
X83891500Y-100556248D01*
X83891500Y-101483629D01*
X83871498Y-101551750D01*
X83854595Y-101572724D01*
X83022724Y-102404595D01*
X82960412Y-102438621D01*
X82933629Y-102441500D01*
X82546311Y-102441500D01*
X82478190Y-102421498D01*
X82439167Y-102381804D01*
X82428358Y-102364337D01*
X82373478Y-102275652D01*
X82349068Y-102251284D01*
X82253483Y-102155866D01*
X82248303Y-102150695D01*
X82242072Y-102146854D01*
X82103968Y-102061725D01*
X82103966Y-102061724D01*
X82097738Y-102057885D01*
X82016926Y-102031081D01*
X81936389Y-102004368D01*
X81936387Y-102004368D01*
X81929861Y-102002203D01*
X81923025Y-102001503D01*
X81923022Y-102001502D01*
X81879969Y-101997091D01*
X81825400Y-101991500D01*
X81199600Y-101991500D01*
X81196354Y-101991837D01*
X81196350Y-101991837D01*
X81100692Y-102001762D01*
X81100688Y-102001763D01*
X81093834Y-102002474D01*
X81087298Y-102004655D01*
X81087296Y-102004655D01*
X80970439Y-102043642D01*
X80926054Y-102058450D01*
X80775652Y-102151522D01*
X80770479Y-102156704D01*
X80688862Y-102238463D01*
X80626579Y-102272542D01*
X80555759Y-102267539D01*
X80510671Y-102238618D01*
X80428171Y-102156261D01*
X80416760Y-102147249D01*
X80278757Y-102062184D01*
X80265576Y-102056037D01*
X80111290Y-102004862D01*
X80097914Y-102001995D01*
X80003562Y-101992328D01*
X79997145Y-101992000D01*
X79959615Y-101992000D01*
X79944376Y-101996475D01*
X79943171Y-101997865D01*
X79941500Y-102005548D01*
X79941500Y-104389884D01*
X79945975Y-104405123D01*
X79947365Y-104406328D01*
X79955048Y-104407999D01*
X79997095Y-104407999D01*
X80003614Y-104407662D01*
X80099206Y-104397743D01*
X80112600Y-104394851D01*
X80266784Y-104343412D01*
X80279962Y-104337239D01*
X80417807Y-104251937D01*
X80429208Y-104242901D01*
X80510430Y-104161538D01*
X80572713Y-104127459D01*
X80643533Y-104132462D01*
X80688620Y-104161383D01*
X80771512Y-104244130D01*
X80771517Y-104244134D01*
X80776697Y-104249305D01*
X80782927Y-104253145D01*
X80782928Y-104253146D01*
X80920288Y-104337816D01*
X80927262Y-104342115D01*
X80944746Y-104347914D01*
X81088611Y-104395632D01*
X81088613Y-104395632D01*
X81095139Y-104397797D01*
X81101975Y-104398497D01*
X81101978Y-104398498D01*
X81138668Y-104402257D01*
X81199600Y-104408500D01*
X81825400Y-104408500D01*
X81828646Y-104408163D01*
X81828650Y-104408163D01*
X81924308Y-104398238D01*
X81924312Y-104398237D01*
X81931166Y-104397526D01*
X81937702Y-104395345D01*
X81937704Y-104395345D01*
X82079871Y-104347914D01*
X82098946Y-104341550D01*
X82249348Y-104248478D01*
X82374305Y-104123303D01*
X82438979Y-104018383D01*
X82491750Y-103970891D01*
X82546238Y-103958500D01*
X83232930Y-103958500D01*
X83251880Y-103959933D01*
X83266115Y-103962099D01*
X83266119Y-103962099D01*
X83273349Y-103963199D01*
X83280641Y-103962606D01*
X83280644Y-103962606D01*
X83326018Y-103958915D01*
X83336233Y-103958500D01*
X83344293Y-103958500D01*
X83357583Y-103956951D01*
X83372507Y-103955211D01*
X83376882Y-103954778D01*
X83442339Y-103949454D01*
X83442342Y-103949453D01*
X83449637Y-103948860D01*
X83456601Y-103946604D01*
X83462560Y-103945413D01*
X83468415Y-103944029D01*
X83475681Y-103943182D01*
X83544327Y-103918265D01*
X83548455Y-103916848D01*
X83610936Y-103896607D01*
X83610938Y-103896606D01*
X83617899Y-103894351D01*
X83624154Y-103890555D01*
X83629628Y-103888049D01*
X83635058Y-103885330D01*
X83641937Y-103882833D01*
X83672788Y-103862606D01*
X83702976Y-103842814D01*
X83706680Y-103840477D01*
X83769107Y-103802595D01*
X83777484Y-103795197D01*
X83777508Y-103795224D01*
X83780500Y-103792571D01*
X83783733Y-103789868D01*
X83789852Y-103785856D01*
X83843128Y-103729617D01*
X83845506Y-103727175D01*
X85138911Y-102433770D01*
X85153323Y-102421384D01*
X85164918Y-102412851D01*
X85164923Y-102412846D01*
X85170818Y-102408508D01*
X85175557Y-102402930D01*
X85175560Y-102402927D01*
X85205035Y-102368232D01*
X85211965Y-102360716D01*
X85217660Y-102355021D01*
X85228357Y-102341500D01*
X85235281Y-102332749D01*
X85238072Y-102329345D01*
X85280591Y-102279297D01*
X85280592Y-102279295D01*
X85285333Y-102273715D01*
X85288661Y-102267199D01*
X85292028Y-102262150D01*
X85295195Y-102257021D01*
X85299734Y-102251284D01*
X85330655Y-102185125D01*
X85332561Y-102181225D01*
X85334849Y-102176745D01*
X85365769Y-102116192D01*
X85367508Y-102109084D01*
X85369607Y-102103441D01*
X85371524Y-102097678D01*
X85374622Y-102091050D01*
X85389487Y-102019583D01*
X85390457Y-102015299D01*
X85393011Y-102004862D01*
X85407808Y-101944390D01*
X85408500Y-101933236D01*
X85408536Y-101933238D01*
X85408775Y-101929245D01*
X85409149Y-101925053D01*
X85410640Y-101917885D01*
X85408546Y-101840479D01*
X85408500Y-101837072D01*
X85408500Y-100484500D01*
X85428502Y-100416379D01*
X85482158Y-100369886D01*
X85534500Y-100358500D01*
X86429143Y-100358500D01*
X86497264Y-100378502D01*
X86543757Y-100432158D01*
X86548666Y-100444622D01*
X86556130Y-100466995D01*
X86556133Y-100467002D01*
X86558450Y-100473946D01*
X86651522Y-100624348D01*
X86776697Y-100749305D01*
X86782927Y-100753145D01*
X86782928Y-100753146D01*
X86920090Y-100837694D01*
X86927262Y-100842115D01*
X86967593Y-100855492D01*
X87088611Y-100895632D01*
X87088613Y-100895632D01*
X87095139Y-100897797D01*
X87101975Y-100898497D01*
X87101978Y-100898498D01*
X87145031Y-100902909D01*
X87199600Y-100908500D01*
X88600400Y-100908500D01*
X88603646Y-100908163D01*
X88603650Y-100908163D01*
X88699308Y-100898238D01*
X88699312Y-100898237D01*
X88706166Y-100897526D01*
X88712702Y-100895345D01*
X88712704Y-100895345D01*
X88844806Y-100851272D01*
X88873946Y-100841550D01*
X89024348Y-100748478D01*
X89056360Y-100716410D01*
X89118642Y-100682331D01*
X89189462Y-100687334D01*
X89246335Y-100729831D01*
X89270860Y-100792424D01*
X89276624Y-100847971D01*
X89277474Y-100856166D01*
X89279655Y-100862702D01*
X89279655Y-100862704D01*
X89302244Y-100930412D01*
X89333450Y-101023946D01*
X89426522Y-101174348D01*
X89551697Y-101299305D01*
X89555916Y-101301906D01*
X89596417Y-101359030D01*
X89599649Y-101429953D01*
X89564024Y-101491365D01*
X89556470Y-101497922D01*
X89550652Y-101501522D01*
X89425695Y-101626697D01*
X89421855Y-101632927D01*
X89421854Y-101632928D01*
X89348898Y-101751285D01*
X89332885Y-101777262D01*
X89305337Y-101860316D01*
X89301807Y-101870960D01*
X89261377Y-101929320D01*
X89195812Y-101956557D01*
X89125931Y-101944024D01*
X89093196Y-101920466D01*
X89028483Y-101855866D01*
X89023303Y-101850695D01*
X88938034Y-101798134D01*
X88878968Y-101761725D01*
X88878966Y-101761724D01*
X88872738Y-101757885D01*
X88775558Y-101725652D01*
X88711389Y-101704368D01*
X88711387Y-101704368D01*
X88704861Y-101702203D01*
X88698025Y-101701503D01*
X88698022Y-101701502D01*
X88654969Y-101697091D01*
X88600400Y-101691500D01*
X87199600Y-101691500D01*
X87196354Y-101691837D01*
X87196350Y-101691837D01*
X87100692Y-101701762D01*
X87100688Y-101701763D01*
X87093834Y-101702474D01*
X87087298Y-101704655D01*
X87087296Y-101704655D01*
X87005049Y-101732095D01*
X86926054Y-101758450D01*
X86775652Y-101851522D01*
X86650695Y-101976697D01*
X86646855Y-101982927D01*
X86646854Y-101982928D01*
X86562329Y-102120053D01*
X86557885Y-102127262D01*
X86549409Y-102152817D01*
X86506150Y-102283240D01*
X86502203Y-102295139D01*
X86501503Y-102301975D01*
X86501502Y-102301978D01*
X86497746Y-102338638D01*
X86491500Y-102399600D01*
X86491500Y-103150400D01*
X86491837Y-103153646D01*
X86491837Y-103153650D01*
X86501537Y-103247134D01*
X86502474Y-103256166D01*
X86504655Y-103262702D01*
X86504655Y-103262704D01*
X86536861Y-103359237D01*
X86558450Y-103423946D01*
X86651522Y-103574348D01*
X86656704Y-103579521D01*
X86663714Y-103586519D01*
X86776697Y-103699305D01*
X86782927Y-103703145D01*
X86782928Y-103703146D01*
X86920666Y-103788049D01*
X86927262Y-103792115D01*
X86967632Y-103805505D01*
X87088611Y-103845632D01*
X87088613Y-103845632D01*
X87095139Y-103847797D01*
X87101975Y-103848497D01*
X87101978Y-103848498D01*
X87145031Y-103852909D01*
X87199600Y-103858500D01*
X88600400Y-103858500D01*
X88603646Y-103858163D01*
X88603650Y-103858163D01*
X88699308Y-103848238D01*
X88699312Y-103848237D01*
X88706166Y-103847526D01*
X88712702Y-103845345D01*
X88712704Y-103845345D01*
X88844806Y-103801272D01*
X88873946Y-103791550D01*
X89024348Y-103698478D01*
X89089746Y-103632966D01*
X92668257Y-103632966D01*
X92698565Y-103767446D01*
X92701645Y-103777275D01*
X92781770Y-103974603D01*
X92786413Y-103983794D01*
X92897694Y-104165388D01*
X92903777Y-104173699D01*
X93043213Y-104334667D01*
X93050580Y-104341883D01*
X93214434Y-104477916D01*
X93222881Y-104483831D01*
X93406756Y-104591279D01*
X93416042Y-104595729D01*
X93615001Y-104671703D01*
X93624899Y-104674579D01*
X93728250Y-104695606D01*
X93742299Y-104694410D01*
X93746000Y-104684065D01*
X93746000Y-104683517D01*
X94254000Y-104683517D01*
X94258064Y-104697359D01*
X94271478Y-104699393D01*
X94278184Y-104698534D01*
X94288262Y-104696392D01*
X94492255Y-104635191D01*
X94501842Y-104631433D01*
X94693095Y-104537739D01*
X94701945Y-104532464D01*
X94875328Y-104408792D01*
X94883200Y-104402139D01*
X95034052Y-104251812D01*
X95040730Y-104243965D01*
X95165003Y-104071020D01*
X95170313Y-104062183D01*
X95264670Y-103871267D01*
X95268469Y-103861672D01*
X95330377Y-103657910D01*
X95332555Y-103647837D01*
X95333986Y-103636962D01*
X95331775Y-103622778D01*
X95318617Y-103619000D01*
X94272115Y-103619000D01*
X94256876Y-103623475D01*
X94255671Y-103624865D01*
X94254000Y-103632548D01*
X94254000Y-104683517D01*
X93746000Y-104683517D01*
X93746000Y-103637115D01*
X93741525Y-103621876D01*
X93740135Y-103620671D01*
X93732452Y-103619000D01*
X92683225Y-103619000D01*
X92669694Y-103622973D01*
X92668257Y-103632966D01*
X89089746Y-103632966D01*
X89102020Y-103620671D01*
X89149305Y-103573303D01*
X89150945Y-103574941D01*
X89199744Y-103540344D01*
X89240706Y-103533500D01*
X90007930Y-103533500D01*
X90026880Y-103534933D01*
X90041115Y-103537099D01*
X90041119Y-103537099D01*
X90048349Y-103538199D01*
X90055641Y-103537606D01*
X90055644Y-103537606D01*
X90101018Y-103533915D01*
X90111233Y-103533500D01*
X90119293Y-103533500D01*
X90132583Y-103531951D01*
X90147507Y-103530211D01*
X90151882Y-103529778D01*
X90217339Y-103524454D01*
X90217342Y-103524453D01*
X90224637Y-103523860D01*
X90231601Y-103521604D01*
X90237560Y-103520413D01*
X90243415Y-103519029D01*
X90250681Y-103518182D01*
X90319327Y-103493265D01*
X90323455Y-103491848D01*
X90385936Y-103471607D01*
X90385938Y-103471606D01*
X90392899Y-103469351D01*
X90399154Y-103465555D01*
X90404628Y-103463049D01*
X90410058Y-103460330D01*
X90416937Y-103457833D01*
X90423058Y-103453820D01*
X90477976Y-103417814D01*
X90481680Y-103415477D01*
X90544106Y-103377595D01*
X90545318Y-103379592D01*
X90602611Y-103358752D01*
X90610578Y-103358500D01*
X91688157Y-103358500D01*
X91701764Y-103359237D01*
X91733262Y-103362659D01*
X91733267Y-103362659D01*
X91739388Y-103363324D01*
X91767598Y-103360856D01*
X91789388Y-103358950D01*
X91794214Y-103358621D01*
X91796686Y-103358500D01*
X91799769Y-103358500D01*
X91811738Y-103357326D01*
X91842506Y-103354310D01*
X91843819Y-103354188D01*
X91888084Y-103350315D01*
X91936413Y-103346087D01*
X91941532Y-103344600D01*
X91946833Y-103344080D01*
X92035834Y-103317209D01*
X92036967Y-103316874D01*
X92120414Y-103292630D01*
X92120418Y-103292628D01*
X92126336Y-103290909D01*
X92131068Y-103288456D01*
X92136169Y-103286916D01*
X92141612Y-103284022D01*
X92218260Y-103243269D01*
X92219426Y-103242657D01*
X92296453Y-103202729D01*
X92301926Y-103199892D01*
X92306089Y-103196569D01*
X92310796Y-103194066D01*
X92382918Y-103135245D01*
X92383774Y-103134554D01*
X92422973Y-103103262D01*
X92425477Y-103100758D01*
X92426195Y-103100116D01*
X92430528Y-103096415D01*
X92464062Y-103069065D01*
X92464063Y-103069064D01*
X92464869Y-103070053D01*
X92521455Y-103039405D01*
X92592253Y-103044711D01*
X92648943Y-103087451D01*
X92651182Y-103092615D01*
X92664892Y-103107327D01*
X92678292Y-103111000D01*
X95318344Y-103111000D01*
X95331875Y-103107027D01*
X95333180Y-103097947D01*
X95291214Y-102930875D01*
X95287894Y-102921124D01*
X95202972Y-102725814D01*
X95198105Y-102716739D01*
X95082426Y-102537926D01*
X95076136Y-102529757D01*
X94932293Y-102371677D01*
X94901241Y-102307831D01*
X94909635Y-102237333D01*
X94954812Y-102182564D01*
X94981256Y-102168895D01*
X95088297Y-102128767D01*
X95096705Y-102125615D01*
X95213261Y-102038261D01*
X95300615Y-101921705D01*
X95351745Y-101785316D01*
X95358500Y-101723134D01*
X95358500Y-99926866D01*
X95351745Y-99864684D01*
X95300615Y-99728295D01*
X95213261Y-99611739D01*
X95096705Y-99524385D01*
X94960316Y-99473255D01*
X94898134Y-99466500D01*
X93101866Y-99466500D01*
X93039684Y-99473255D01*
X92903295Y-99524385D01*
X92786739Y-99611739D01*
X92699385Y-99728295D01*
X92648255Y-99864684D01*
X92641500Y-99926866D01*
X92641500Y-99980347D01*
X92621498Y-100048468D01*
X92599536Y-100074229D01*
X92598859Y-100074835D01*
X92594462Y-100078593D01*
X92560938Y-100105935D01*
X92557015Y-100110677D01*
X92557013Y-100110679D01*
X92531703Y-100141273D01*
X92523713Y-100150053D01*
X91948595Y-100725171D01*
X91886283Y-100759197D01*
X91815468Y-100754132D01*
X91758632Y-100711585D01*
X91733821Y-100645065D01*
X91733500Y-100636076D01*
X91733500Y-100149600D01*
X91733110Y-100145842D01*
X91723238Y-100050692D01*
X91723237Y-100050688D01*
X91722526Y-100043834D01*
X91720267Y-100037061D01*
X91668868Y-99883002D01*
X91666550Y-99876054D01*
X91573478Y-99725652D01*
X91564572Y-99716761D01*
X91453483Y-99605866D01*
X91448303Y-99600695D01*
X91442072Y-99596854D01*
X91303968Y-99511725D01*
X91303966Y-99511724D01*
X91297738Y-99507885D01*
X91193331Y-99473255D01*
X91136389Y-99454368D01*
X91136387Y-99454368D01*
X91129861Y-99452203D01*
X91123025Y-99451503D01*
X91123022Y-99451502D01*
X91079969Y-99447091D01*
X91025400Y-99441500D01*
X90616371Y-99441500D01*
X90548250Y-99421498D01*
X90527276Y-99404595D01*
X90458770Y-99336089D01*
X90446384Y-99321677D01*
X90437851Y-99310082D01*
X90437846Y-99310077D01*
X90433508Y-99304182D01*
X90427930Y-99299443D01*
X90427927Y-99299440D01*
X90393232Y-99269965D01*
X90385716Y-99263035D01*
X90380021Y-99257340D01*
X90363324Y-99244130D01*
X90357749Y-99239719D01*
X90354345Y-99236928D01*
X90304297Y-99194409D01*
X90304295Y-99194408D01*
X90298715Y-99189667D01*
X90292199Y-99186339D01*
X90287150Y-99182972D01*
X90282021Y-99179805D01*
X90276284Y-99175266D01*
X90210125Y-99144345D01*
X90206225Y-99142439D01*
X90203554Y-99141075D01*
X90141192Y-99109231D01*
X90134084Y-99107492D01*
X90128441Y-99105393D01*
X90122678Y-99103476D01*
X90116050Y-99100378D01*
X90098392Y-99096705D01*
X90044588Y-99085514D01*
X90040299Y-99084543D01*
X90022452Y-99080176D01*
X89969390Y-99067192D01*
X89963788Y-99066844D01*
X89963785Y-99066844D01*
X89958236Y-99066500D01*
X89958238Y-99066464D01*
X89954245Y-99066225D01*
X89950053Y-99065851D01*
X89942885Y-99064360D01*
X89876675Y-99066151D01*
X89865479Y-99066454D01*
X89862072Y-99066500D01*
X89240683Y-99066500D01*
X89172562Y-99046498D01*
X89148984Y-99025145D01*
X89148478Y-99025652D01*
X89028483Y-98905866D01*
X89023303Y-98900695D01*
X89013605Y-98894717D01*
X88878968Y-98811725D01*
X88878966Y-98811724D01*
X88872738Y-98807885D01*
X88792995Y-98781436D01*
X88711389Y-98754368D01*
X88711387Y-98754368D01*
X88704861Y-98752203D01*
X88698025Y-98751503D01*
X88698022Y-98751502D01*
X88654969Y-98747091D01*
X88600400Y-98741500D01*
X87199600Y-98741500D01*
X87196354Y-98741837D01*
X87196350Y-98741837D01*
X87100692Y-98751762D01*
X87100688Y-98751763D01*
X87093834Y-98752474D01*
X87087298Y-98754655D01*
X87087296Y-98754655D01*
X86987464Y-98787962D01*
X86926054Y-98808450D01*
X86919826Y-98812304D01*
X86919824Y-98812305D01*
X86903117Y-98822644D01*
X86836814Y-98841500D01*
X85219874Y-98841500D01*
X85151753Y-98821498D01*
X85144327Y-98816339D01*
X85121705Y-98799385D01*
X84985316Y-98748255D01*
X84923134Y-98741500D01*
X84376866Y-98741500D01*
X84314684Y-98748255D01*
X84178295Y-98799385D01*
X84078749Y-98873991D01*
X84075565Y-98876377D01*
X84009059Y-98901225D01*
X83939676Y-98886172D01*
X83924435Y-98876377D01*
X83921251Y-98873991D01*
X83821705Y-98799385D01*
X83685316Y-98748255D01*
X83623134Y-98741500D01*
X83076866Y-98741500D01*
X83014684Y-98748255D01*
X82878295Y-98799385D01*
X82855689Y-98816327D01*
X82789185Y-98841174D01*
X82780126Y-98841500D01*
X81666370Y-98841500D01*
X81598249Y-98821498D01*
X81577275Y-98804595D01*
X81091323Y-98318642D01*
X80583770Y-97811089D01*
X80571384Y-97796677D01*
X80562851Y-97785082D01*
X80562846Y-97785077D01*
X80558508Y-97779182D01*
X80552930Y-97774443D01*
X80552927Y-97774440D01*
X80518232Y-97744965D01*
X80510716Y-97738035D01*
X80505021Y-97732340D01*
X80498880Y-97727482D01*
X80482749Y-97714719D01*
X80479345Y-97711928D01*
X80429297Y-97669409D01*
X80429295Y-97669408D01*
X80423715Y-97664667D01*
X80417199Y-97661339D01*
X80412150Y-97657972D01*
X80407021Y-97654805D01*
X80401284Y-97650266D01*
X80335125Y-97619345D01*
X80331225Y-97617439D01*
X80319978Y-97611696D01*
X80266192Y-97584231D01*
X80259084Y-97582492D01*
X80253441Y-97580393D01*
X80247678Y-97578476D01*
X80241050Y-97575378D01*
X80169583Y-97560513D01*
X80165300Y-97559543D01*
X80123422Y-97549296D01*
X80062007Y-97513677D01*
X80046225Y-97493210D01*
X80024518Y-97458131D01*
X79973478Y-97375652D01*
X79848303Y-97250695D01*
X79842072Y-97246854D01*
X79703968Y-97161725D01*
X79703966Y-97161724D01*
X79697738Y-97157885D01*
X79593280Y-97123238D01*
X79536389Y-97104368D01*
X79536387Y-97104368D01*
X79529861Y-97102203D01*
X79523025Y-97101503D01*
X79523022Y-97101502D01*
X79479969Y-97097091D01*
X79425400Y-97091500D01*
X78799600Y-97091500D01*
X78796354Y-97091837D01*
X78796350Y-97091837D01*
X78700692Y-97101762D01*
X78700688Y-97101763D01*
X78693834Y-97102474D01*
X78687298Y-97104655D01*
X78687296Y-97104655D01*
X78601848Y-97133163D01*
X78526054Y-97158450D01*
X78375652Y-97251522D01*
X78370479Y-97256704D01*
X78368686Y-97258500D01*
X78316373Y-97310905D01*
X78289216Y-97338109D01*
X78226934Y-97372188D01*
X78156114Y-97367185D01*
X78111025Y-97338264D01*
X78028483Y-97255866D01*
X78023303Y-97250695D01*
X78017072Y-97246854D01*
X77878968Y-97161725D01*
X77878966Y-97161724D01*
X77872738Y-97157885D01*
X77768280Y-97123238D01*
X77711389Y-97104368D01*
X77711387Y-97104368D01*
X77704861Y-97102203D01*
X77698025Y-97101503D01*
X77698022Y-97101502D01*
X77654969Y-97097091D01*
X77600400Y-97091500D01*
X77503871Y-97091500D01*
X77435750Y-97071498D01*
X77414776Y-97054595D01*
X76545405Y-96185224D01*
X76511379Y-96122912D01*
X76508500Y-96096129D01*
X76508500Y-95699600D01*
X76506994Y-95685082D01*
X76498238Y-95600692D01*
X76498237Y-95600688D01*
X76497526Y-95593834D01*
X76493873Y-95582883D01*
X76443867Y-95432999D01*
X76441550Y-95426054D01*
X76348478Y-95275652D01*
X76261891Y-95189216D01*
X76227812Y-95126934D01*
X76232815Y-95056114D01*
X76261736Y-95011025D01*
X76279827Y-94992902D01*
X76289731Y-94982982D01*
X76352012Y-94948903D01*
X76378903Y-94946000D01*
X77265388Y-94946000D01*
X77333509Y-94966002D01*
X77368601Y-94999729D01*
X77476988Y-95154521D01*
X77482251Y-95162038D01*
X77637962Y-95317749D01*
X77642471Y-95320906D01*
X77642473Y-95320908D01*
X77709395Y-95367767D01*
X77818346Y-95444056D01*
X78017924Y-95537120D01*
X78230629Y-95594115D01*
X78450000Y-95613307D01*
X78455475Y-95612828D01*
X78455476Y-95612828D01*
X78566761Y-95603092D01*
X78636365Y-95617081D01*
X78666837Y-95639518D01*
X79466230Y-96438911D01*
X79478616Y-96453323D01*
X79487149Y-96464918D01*
X79487154Y-96464923D01*
X79491492Y-96470818D01*
X79497070Y-96475557D01*
X79497073Y-96475560D01*
X79531768Y-96505035D01*
X79539284Y-96511965D01*
X79544980Y-96517661D01*
X79547841Y-96519924D01*
X79547846Y-96519929D01*
X79567266Y-96535293D01*
X79570667Y-96538082D01*
X79626285Y-96585333D01*
X79632798Y-96588659D01*
X79637837Y-96592020D01*
X79642979Y-96595196D01*
X79648716Y-96599734D01*
X79714875Y-96630655D01*
X79718769Y-96632558D01*
X79783808Y-96665769D01*
X79790917Y-96667508D01*
X79796551Y-96669604D01*
X79802321Y-96671523D01*
X79808950Y-96674622D01*
X79816113Y-96676112D01*
X79816116Y-96676113D01*
X79866830Y-96686661D01*
X79880435Y-96689491D01*
X79884701Y-96690457D01*
X79955610Y-96707808D01*
X79961212Y-96708156D01*
X79961215Y-96708156D01*
X79966764Y-96708500D01*
X79966762Y-96708535D01*
X79970734Y-96708775D01*
X79974955Y-96709152D01*
X79982115Y-96710641D01*
X80059542Y-96708546D01*
X80062950Y-96708500D01*
X80208607Y-96708500D01*
X80276728Y-96728502D01*
X80297625Y-96745327D01*
X80351697Y-96799305D01*
X80357927Y-96803145D01*
X80357928Y-96803146D01*
X80486479Y-96882386D01*
X80502262Y-96892115D01*
X80577505Y-96917072D01*
X80663611Y-96945632D01*
X80663613Y-96945632D01*
X80670139Y-96947797D01*
X80676975Y-96948497D01*
X80676978Y-96948498D01*
X80720031Y-96952909D01*
X80774600Y-96958500D01*
X81462059Y-96958500D01*
X81473260Y-96958999D01*
X81474950Y-96959150D01*
X81482115Y-96960640D01*
X81559520Y-96958546D01*
X81562928Y-96958500D01*
X83115500Y-96958500D01*
X83183621Y-96978502D01*
X83230114Y-97032158D01*
X83241500Y-97084500D01*
X83241500Y-97644293D01*
X83248328Y-97702855D01*
X83253944Y-97751027D01*
X83256818Y-97775681D01*
X83259314Y-97782557D01*
X83261000Y-97789690D01*
X83260399Y-97789832D01*
X83266500Y-97824516D01*
X83266500Y-97998134D01*
X83273255Y-98060316D01*
X83324385Y-98196705D01*
X83411739Y-98313261D01*
X83528295Y-98400615D01*
X83664684Y-98451745D01*
X83726866Y-98458500D01*
X84273134Y-98458500D01*
X84335316Y-98451745D01*
X84471705Y-98400615D01*
X84588261Y-98313261D01*
X84675615Y-98196705D01*
X84726745Y-98060316D01*
X84733500Y-97998134D01*
X84733500Y-97808921D01*
X84737111Y-97778973D01*
X84743986Y-97750877D01*
X84757808Y-97694390D01*
X84758500Y-97683236D01*
X84758500Y-97084500D01*
X84778502Y-97016379D01*
X84832158Y-96969886D01*
X84884500Y-96958500D01*
X86112015Y-96958500D01*
X86178132Y-96977241D01*
X86196030Y-96988274D01*
X86196033Y-96988276D01*
X86202262Y-96992115D01*
X86275416Y-97016379D01*
X86363611Y-97045632D01*
X86363613Y-97045632D01*
X86370139Y-97047797D01*
X86376975Y-97048497D01*
X86376978Y-97048498D01*
X86418490Y-97052751D01*
X86474600Y-97058500D01*
X87525400Y-97058500D01*
X87528646Y-97058163D01*
X87528650Y-97058163D01*
X87624308Y-97048238D01*
X87624312Y-97048237D01*
X87631166Y-97047526D01*
X87637702Y-97045345D01*
X87637704Y-97045345D01*
X87789453Y-96994717D01*
X87798946Y-96991550D01*
X87821883Y-96977356D01*
X87888186Y-96958500D01*
X89712015Y-96958500D01*
X89778132Y-96977241D01*
X89796030Y-96988274D01*
X89796033Y-96988276D01*
X89802262Y-96992115D01*
X89875416Y-97016379D01*
X89963611Y-97045632D01*
X89963613Y-97045632D01*
X89970139Y-97047797D01*
X89976975Y-97048497D01*
X89976978Y-97048498D01*
X90018490Y-97052751D01*
X90074600Y-97058500D01*
X91125400Y-97058500D01*
X91128646Y-97058163D01*
X91128650Y-97058163D01*
X91224308Y-97048238D01*
X91224312Y-97048237D01*
X91231166Y-97047526D01*
X91237702Y-97045345D01*
X91237704Y-97045345D01*
X91389453Y-96994717D01*
X91398946Y-96991550D01*
X91421883Y-96977356D01*
X91488186Y-96958500D01*
X93333629Y-96958500D01*
X93401750Y-96978502D01*
X93422724Y-96995405D01*
X97229595Y-100802276D01*
X97263621Y-100864588D01*
X97266500Y-100891371D01*
X97266500Y-101200400D01*
X97266837Y-101203646D01*
X97266837Y-101203650D01*
X97276762Y-101299305D01*
X97277474Y-101306166D01*
X97279655Y-101312702D01*
X97279655Y-101312704D01*
X97308799Y-101400058D01*
X97333450Y-101473946D01*
X97426522Y-101624348D01*
X97431704Y-101629521D01*
X97492018Y-101689730D01*
X97526097Y-101752013D01*
X97529000Y-101778903D01*
X97529000Y-101870430D01*
X97527567Y-101889380D01*
X97526287Y-101897797D01*
X97524301Y-101910849D01*
X97524894Y-101918141D01*
X97524894Y-101918144D01*
X97528585Y-101963518D01*
X97529000Y-101973733D01*
X97529000Y-101981793D01*
X97529425Y-101985437D01*
X97532289Y-102010007D01*
X97532722Y-102014382D01*
X97536307Y-102058450D01*
X97538640Y-102087137D01*
X97540896Y-102094101D01*
X97542087Y-102100060D01*
X97543471Y-102105915D01*
X97544318Y-102113181D01*
X97569235Y-102181827D01*
X97570652Y-102185955D01*
X97589670Y-102244659D01*
X97593149Y-102255399D01*
X97596945Y-102261654D01*
X97599451Y-102267128D01*
X97602170Y-102272558D01*
X97604667Y-102279437D01*
X97608680Y-102285557D01*
X97608680Y-102285558D01*
X97644686Y-102340476D01*
X97647023Y-102344180D01*
X97684905Y-102406607D01*
X97688621Y-102410815D01*
X97688622Y-102410816D01*
X97692303Y-102414984D01*
X97692276Y-102415008D01*
X97694929Y-102418000D01*
X97697632Y-102421233D01*
X97701644Y-102427352D01*
X97706956Y-102432384D01*
X97757883Y-102480628D01*
X97760325Y-102483006D01*
X98029595Y-102752276D01*
X98063621Y-102814588D01*
X98066500Y-102841371D01*
X98066500Y-103250400D01*
X98066837Y-103253646D01*
X98066837Y-103253650D01*
X98076274Y-103344600D01*
X98077474Y-103356166D01*
X98079655Y-103362702D01*
X98079655Y-103362704D01*
X98097258Y-103415467D01*
X98133450Y-103523946D01*
X98226522Y-103674348D01*
X98351697Y-103799305D01*
X98356235Y-103802102D01*
X98396824Y-103859353D01*
X98400054Y-103930276D01*
X98364428Y-103991687D01*
X98355932Y-103999062D01*
X98345793Y-104007098D01*
X98231261Y-104121829D01*
X98222249Y-104133240D01*
X98137184Y-104271243D01*
X98131037Y-104284424D01*
X98079862Y-104438710D01*
X98076995Y-104452086D01*
X98067328Y-104546438D01*
X98067000Y-104552855D01*
X98067000Y-104577885D01*
X98071475Y-104593124D01*
X98072865Y-104594329D01*
X98080548Y-104596000D01*
X100514884Y-104596000D01*
X100530123Y-104591525D01*
X100531328Y-104590135D01*
X100532999Y-104582452D01*
X100532999Y-104552905D01*
X100532662Y-104546386D01*
X100522743Y-104450794D01*
X100519851Y-104437400D01*
X100468412Y-104283216D01*
X100462239Y-104270038D01*
X100376937Y-104132193D01*
X100367901Y-104120792D01*
X100320700Y-104073673D01*
X100286621Y-104011390D01*
X100291624Y-103940570D01*
X100334121Y-103883697D01*
X100400620Y-103858829D01*
X100409718Y-103858500D01*
X104057930Y-103858500D01*
X104076880Y-103859933D01*
X104091115Y-103862099D01*
X104091119Y-103862099D01*
X104098349Y-103863199D01*
X104105641Y-103862606D01*
X104105644Y-103862606D01*
X104151018Y-103858915D01*
X104161233Y-103858500D01*
X104169293Y-103858500D01*
X104182583Y-103856951D01*
X104197507Y-103855211D01*
X104201882Y-103854778D01*
X104267339Y-103849454D01*
X104267342Y-103849453D01*
X104274637Y-103848860D01*
X104281601Y-103846604D01*
X104287560Y-103845413D01*
X104293415Y-103844029D01*
X104300681Y-103843182D01*
X104369327Y-103818265D01*
X104373455Y-103816848D01*
X104435936Y-103796607D01*
X104435938Y-103796606D01*
X104442899Y-103794351D01*
X104449154Y-103790555D01*
X104454628Y-103788049D01*
X104460058Y-103785330D01*
X104466937Y-103782833D01*
X104473058Y-103778820D01*
X104527976Y-103742814D01*
X104531680Y-103740477D01*
X104594107Y-103702595D01*
X104602484Y-103695197D01*
X104602508Y-103695224D01*
X104605500Y-103692571D01*
X104608733Y-103689868D01*
X104614852Y-103685856D01*
X104650859Y-103647846D01*
X104712227Y-103612149D01*
X104742331Y-103608500D01*
X105400400Y-103608500D01*
X105403646Y-103608163D01*
X105403650Y-103608163D01*
X105499308Y-103598238D01*
X105499312Y-103598237D01*
X105506166Y-103597526D01*
X105512702Y-103595345D01*
X105512704Y-103595345D01*
X105666998Y-103543868D01*
X105673946Y-103541550D01*
X105824348Y-103448478D01*
X105831526Y-103441288D01*
X105913918Y-103358752D01*
X105949305Y-103323303D01*
X105964098Y-103299305D01*
X106038275Y-103178968D01*
X106038276Y-103178966D01*
X106042115Y-103172738D01*
X106083646Y-103047526D01*
X106095632Y-103011389D01*
X106095632Y-103011387D01*
X106097797Y-103004861D01*
X106101332Y-102970365D01*
X106103999Y-102944329D01*
X106108500Y-102900400D01*
X106108500Y-102384500D01*
X106128502Y-102316379D01*
X106182158Y-102269886D01*
X106234500Y-102258500D01*
X107433629Y-102258500D01*
X107501750Y-102278502D01*
X107522724Y-102295405D01*
X107554595Y-102327276D01*
X107588621Y-102389588D01*
X107591500Y-102416371D01*
X107591500Y-102800400D01*
X107591837Y-102803646D01*
X107591837Y-102803650D01*
X107597151Y-102854861D01*
X107602474Y-102906166D01*
X107604655Y-102912702D01*
X107604655Y-102912704D01*
X107624912Y-102973421D01*
X107658450Y-103073946D01*
X107751522Y-103224348D01*
X107756704Y-103229521D01*
X107789945Y-103262704D01*
X107876697Y-103349305D01*
X107882927Y-103353145D01*
X107882928Y-103353146D01*
X108020090Y-103437694D01*
X108027262Y-103442115D01*
X108103941Y-103467548D01*
X108188611Y-103495632D01*
X108188613Y-103495632D01*
X108195139Y-103497797D01*
X108201975Y-103498497D01*
X108201978Y-103498498D01*
X108245031Y-103502909D01*
X108299600Y-103508500D01*
X109700400Y-103508500D01*
X109703646Y-103508163D01*
X109703650Y-103508163D01*
X109799308Y-103498238D01*
X109799312Y-103498237D01*
X109806166Y-103497526D01*
X109812702Y-103495345D01*
X109812704Y-103495345D01*
X109953180Y-103448478D01*
X109973946Y-103441550D01*
X110124348Y-103348478D01*
X110181955Y-103290771D01*
X110223345Y-103249308D01*
X110249305Y-103223303D01*
X110253146Y-103217072D01*
X110257683Y-103211327D01*
X110259013Y-103212377D01*
X110305107Y-103170892D01*
X110359597Y-103158500D01*
X110432930Y-103158500D01*
X110451880Y-103159933D01*
X110466115Y-103162099D01*
X110466119Y-103162099D01*
X110473349Y-103163199D01*
X110480641Y-103162606D01*
X110480644Y-103162606D01*
X110526018Y-103158915D01*
X110536233Y-103158500D01*
X111358520Y-103158500D01*
X111426641Y-103178502D01*
X111447536Y-103195325D01*
X111551697Y-103299305D01*
X111556235Y-103302102D01*
X111596824Y-103359353D01*
X111600054Y-103430276D01*
X111564428Y-103491687D01*
X111555932Y-103499062D01*
X111545793Y-103507098D01*
X111431261Y-103621829D01*
X111422249Y-103633240D01*
X111337184Y-103771243D01*
X111331037Y-103784424D01*
X111279862Y-103938710D01*
X111276995Y-103952086D01*
X111267328Y-104046438D01*
X111267000Y-104052855D01*
X111267000Y-104077885D01*
X111271475Y-104093124D01*
X111272865Y-104094329D01*
X111280548Y-104096000D01*
X113714884Y-104096000D01*
X113730123Y-104091525D01*
X113731328Y-104090135D01*
X113732999Y-104082452D01*
X113732999Y-104052905D01*
X113732662Y-104046386D01*
X113722743Y-103950794D01*
X113719851Y-103937400D01*
X113668412Y-103783216D01*
X113662239Y-103770038D01*
X113576937Y-103632193D01*
X113567901Y-103620792D01*
X113453172Y-103506262D01*
X113444238Y-103499206D01*
X113403177Y-103441288D01*
X113399947Y-103370365D01*
X113435574Y-103308954D01*
X113443407Y-103302154D01*
X113449348Y-103298478D01*
X113574305Y-103173303D01*
X113578146Y-103167072D01*
X113663275Y-103028968D01*
X113663276Y-103028966D01*
X113667115Y-103022738D01*
X113700819Y-102921124D01*
X113720632Y-102861389D01*
X113720632Y-102861387D01*
X113722797Y-102854861D01*
X113726562Y-102818120D01*
X113728712Y-102797134D01*
X113733500Y-102750400D01*
X113733500Y-102149600D01*
X113731903Y-102134209D01*
X113723238Y-102050692D01*
X113723237Y-102050688D01*
X113722526Y-102043834D01*
X113711970Y-102012192D01*
X113668868Y-101883002D01*
X113666550Y-101876054D01*
X113573478Y-101725652D01*
X113448303Y-101600695D01*
X113349103Y-101539547D01*
X113303968Y-101511725D01*
X113303966Y-101511724D01*
X113297738Y-101507885D01*
X113217995Y-101481436D01*
X113136389Y-101454368D01*
X113136387Y-101454368D01*
X113129861Y-101452203D01*
X113123025Y-101451503D01*
X113123022Y-101451502D01*
X113079969Y-101447091D01*
X113025400Y-101441500D01*
X111974600Y-101441500D01*
X111971354Y-101441837D01*
X111971350Y-101441837D01*
X111935297Y-101445578D01*
X111885837Y-101450710D01*
X111816017Y-101437845D01*
X111798074Y-101421015D01*
X111787432Y-101453107D01*
X111732200Y-101497716D01*
X111723729Y-101500885D01*
X111701054Y-101508450D01*
X111650801Y-101539547D01*
X111582350Y-101558384D01*
X111514581Y-101537222D01*
X111469010Y-101482781D01*
X111458500Y-101432402D01*
X111458500Y-101384500D01*
X111478502Y-101316379D01*
X111532158Y-101269886D01*
X111584500Y-101258500D01*
X111648134Y-101258500D01*
X111670245Y-101256098D01*
X111740128Y-101268626D01*
X111758601Y-101285787D01*
X111769602Y-101253139D01*
X111828603Y-101207402D01*
X111838293Y-101203769D01*
X111838296Y-101203767D01*
X111846705Y-101200615D01*
X111963261Y-101113261D01*
X112050615Y-100996705D01*
X112101745Y-100860316D01*
X112108500Y-100798134D01*
X112108500Y-98201866D01*
X112101745Y-98139684D01*
X112050615Y-98003295D01*
X111963261Y-97886739D01*
X111846705Y-97799385D01*
X111710316Y-97748255D01*
X111648134Y-97741500D01*
X109751866Y-97741500D01*
X109689684Y-97748255D01*
X109553295Y-97799385D01*
X109436739Y-97886739D01*
X109349385Y-98003295D01*
X109298255Y-98139684D01*
X109291500Y-98201866D01*
X109291500Y-100798134D01*
X109298255Y-100860316D01*
X109349385Y-100996705D01*
X109436739Y-101113261D01*
X109443919Y-101118642D01*
X109450269Y-101124992D01*
X109448022Y-101127239D01*
X109481143Y-101171544D01*
X109486162Y-101242363D01*
X109452097Y-101304653D01*
X109389762Y-101338638D01*
X109363059Y-101341500D01*
X108766371Y-101341500D01*
X108698250Y-101321498D01*
X108677276Y-101304595D01*
X108295405Y-100922724D01*
X108261379Y-100860412D01*
X108258500Y-100833629D01*
X108258500Y-99701866D01*
X108251745Y-99639684D01*
X108200615Y-99503295D01*
X108113261Y-99386739D01*
X107996705Y-99299385D01*
X107860316Y-99248255D01*
X107798134Y-99241500D01*
X106201866Y-99241500D01*
X106139684Y-99248255D01*
X106003295Y-99299385D01*
X105996110Y-99304770D01*
X105996108Y-99304771D01*
X105925565Y-99357640D01*
X105859058Y-99382488D01*
X105789676Y-99367435D01*
X105774435Y-99357640D01*
X105703892Y-99304771D01*
X105703890Y-99304770D01*
X105696705Y-99299385D01*
X105560316Y-99248255D01*
X105498134Y-99241500D01*
X103901866Y-99241500D01*
X103839684Y-99248255D01*
X103703295Y-99299385D01*
X103696110Y-99304770D01*
X103696108Y-99304771D01*
X103625565Y-99357640D01*
X103559058Y-99382488D01*
X103489676Y-99367435D01*
X103474435Y-99357640D01*
X103403892Y-99304771D01*
X103403890Y-99304770D01*
X103396705Y-99299385D01*
X103260316Y-99248255D01*
X103198134Y-99241500D01*
X101601866Y-99241500D01*
X101539684Y-99248255D01*
X101403295Y-99299385D01*
X101286739Y-99386739D01*
X101199385Y-99503295D01*
X101148255Y-99639684D01*
X101147402Y-99647540D01*
X101146200Y-99658600D01*
X101118958Y-99724162D01*
X101060595Y-99764588D01*
X100989640Y-99767043D01*
X100931919Y-99734165D01*
X100870482Y-99672835D01*
X100836403Y-99610553D01*
X100833500Y-99583662D01*
X100833500Y-99062985D01*
X100852241Y-98996868D01*
X100863274Y-98978970D01*
X100863276Y-98978967D01*
X100867115Y-98972738D01*
X100895639Y-98886739D01*
X100920632Y-98811389D01*
X100920632Y-98811387D01*
X100922797Y-98804861D01*
X100924067Y-98792473D01*
X100933172Y-98703598D01*
X100933500Y-98700400D01*
X100933500Y-97699600D01*
X100933163Y-97696350D01*
X100923238Y-97600692D01*
X100923237Y-97600688D01*
X100922526Y-97593834D01*
X100915872Y-97573888D01*
X100868868Y-97433002D01*
X100866550Y-97426054D01*
X100860634Y-97416493D01*
X100852356Y-97403117D01*
X100833500Y-97336814D01*
X100833500Y-97140683D01*
X100853502Y-97072562D01*
X100874855Y-97048984D01*
X100874348Y-97048478D01*
X100944202Y-96978502D01*
X100999305Y-96923303D01*
X101016454Y-96895482D01*
X101076461Y-96798134D01*
X109291500Y-96798134D01*
X109298255Y-96860316D01*
X109349385Y-96996705D01*
X109436739Y-97113261D01*
X109553295Y-97200615D01*
X109689684Y-97251745D01*
X109751866Y-97258500D01*
X111648134Y-97258500D01*
X111710316Y-97251745D01*
X111846705Y-97200615D01*
X111963261Y-97113261D01*
X112050615Y-96996705D01*
X112101745Y-96860316D01*
X112108500Y-96798134D01*
X112108500Y-95984500D01*
X112128502Y-95916379D01*
X112182158Y-95869886D01*
X112234500Y-95858500D01*
X113615500Y-95858500D01*
X113683621Y-95878502D01*
X113730114Y-95932158D01*
X113741500Y-95984500D01*
X113741500Y-99832930D01*
X113740067Y-99851880D01*
X113736801Y-99873349D01*
X113737394Y-99880641D01*
X113737394Y-99880644D01*
X113741085Y-99926018D01*
X113741500Y-99936233D01*
X113741500Y-99944293D01*
X113741925Y-99947937D01*
X113744789Y-99972507D01*
X113745222Y-99976882D01*
X113750375Y-100040228D01*
X113751140Y-100049637D01*
X113753396Y-100056601D01*
X113754587Y-100062560D01*
X113755971Y-100068415D01*
X113756818Y-100075681D01*
X113781735Y-100144327D01*
X113783152Y-100148455D01*
X113795528Y-100186656D01*
X113805649Y-100217899D01*
X113809445Y-100224154D01*
X113811951Y-100229628D01*
X113814670Y-100235058D01*
X113817167Y-100241937D01*
X113821180Y-100248057D01*
X113821180Y-100248058D01*
X113857186Y-100302976D01*
X113859523Y-100306680D01*
X113897405Y-100369107D01*
X113901121Y-100373315D01*
X113901122Y-100373316D01*
X113904803Y-100377484D01*
X113904776Y-100377508D01*
X113907429Y-100380500D01*
X113910132Y-100383733D01*
X113914144Y-100389852D01*
X113919456Y-100394884D01*
X113970383Y-100443128D01*
X113972825Y-100445506D01*
X115104203Y-101576884D01*
X115138229Y-101639196D01*
X115133164Y-101710011D01*
X115122369Y-101732092D01*
X115069697Y-101817541D01*
X115036770Y-101870960D01*
X115032885Y-101877262D01*
X115030581Y-101884209D01*
X114987405Y-102014382D01*
X114977203Y-102045139D01*
X114976503Y-102051975D01*
X114976502Y-102051978D01*
X114975444Y-102062306D01*
X114966500Y-102149600D01*
X114966500Y-102750400D01*
X114966837Y-102753646D01*
X114966837Y-102753650D01*
X114975939Y-102841371D01*
X114977474Y-102856166D01*
X114979655Y-102862702D01*
X114979655Y-102862704D01*
X115007445Y-102946000D01*
X115033450Y-103023946D01*
X115126522Y-103174348D01*
X115131704Y-103179521D01*
X115161084Y-103208850D01*
X115251697Y-103299305D01*
X115256235Y-103302102D01*
X115296824Y-103359353D01*
X115300054Y-103430276D01*
X115264428Y-103491687D01*
X115255932Y-103499062D01*
X115245793Y-103507098D01*
X115131261Y-103621829D01*
X115122249Y-103633240D01*
X115037184Y-103771243D01*
X115031037Y-103784424D01*
X114979862Y-103938710D01*
X114976995Y-103952086D01*
X114967328Y-104046438D01*
X114967000Y-104052855D01*
X114967000Y-104077885D01*
X114971475Y-104093124D01*
X114972865Y-104094329D01*
X114980548Y-104096000D01*
X117414884Y-104096000D01*
X117430123Y-104091525D01*
X117431328Y-104090135D01*
X117432999Y-104082452D01*
X117432999Y-104052905D01*
X117432662Y-104046386D01*
X117422743Y-103950794D01*
X117419851Y-103937400D01*
X117368412Y-103783216D01*
X117362239Y-103770038D01*
X117276937Y-103632193D01*
X117267901Y-103620792D01*
X117153172Y-103506262D01*
X117144238Y-103499206D01*
X117103177Y-103441288D01*
X117099947Y-103370365D01*
X117135574Y-103308954D01*
X117143407Y-103302154D01*
X117149348Y-103298478D01*
X117274305Y-103173303D01*
X117278146Y-103167072D01*
X117363275Y-103028968D01*
X117363276Y-103028966D01*
X117367115Y-103022738D01*
X117400819Y-102921124D01*
X117420632Y-102861389D01*
X117420632Y-102861387D01*
X117422797Y-102854861D01*
X117426562Y-102818120D01*
X117428712Y-102797134D01*
X117433500Y-102750400D01*
X117433500Y-102149600D01*
X117431903Y-102134209D01*
X117423238Y-102050692D01*
X117423237Y-102050688D01*
X117422526Y-102043834D01*
X117411970Y-102012192D01*
X117368868Y-101883002D01*
X117366550Y-101876054D01*
X117273478Y-101725652D01*
X117148303Y-101600695D01*
X117102926Y-101572724D01*
X117000464Y-101509565D01*
X116952970Y-101456792D01*
X116944012Y-101431441D01*
X116943182Y-101424319D01*
X116918265Y-101355673D01*
X116916848Y-101351545D01*
X116896607Y-101289064D01*
X116896606Y-101289062D01*
X116894351Y-101282101D01*
X116890555Y-101275846D01*
X116888049Y-101270372D01*
X116885330Y-101264942D01*
X116882833Y-101258063D01*
X116862154Y-101226522D01*
X116842814Y-101197024D01*
X116840467Y-101193305D01*
X116835897Y-101185774D01*
X116802595Y-101130893D01*
X116795197Y-101122516D01*
X116795224Y-101122492D01*
X116792571Y-101119500D01*
X116789868Y-101116267D01*
X116785856Y-101110148D01*
X116729617Y-101056872D01*
X116727175Y-101054494D01*
X115295405Y-99622724D01*
X115261379Y-99560412D01*
X115258500Y-99533629D01*
X115258500Y-97367399D01*
X115799712Y-97367399D01*
X115821194Y-97456537D01*
X115825083Y-97467832D01*
X115907629Y-97649382D01*
X115913576Y-97659724D01*
X116028968Y-97822397D01*
X116036761Y-97831425D01*
X116180831Y-97969342D01*
X116190196Y-97976738D01*
X116357741Y-98084921D01*
X116368345Y-98090417D01*
X116553312Y-98164961D01*
X116564770Y-98168355D01*
X116761928Y-98206857D01*
X116770791Y-98207934D01*
X116773500Y-98208000D01*
X116877885Y-98208000D01*
X116893124Y-98203525D01*
X116894329Y-98202135D01*
X116896000Y-98194452D01*
X116896000Y-98189885D01*
X117404000Y-98189885D01*
X117408475Y-98205124D01*
X117409865Y-98206329D01*
X117417548Y-98208000D01*
X117474832Y-98208000D01*
X117480808Y-98207715D01*
X117629494Y-98193529D01*
X117641228Y-98191270D01*
X117832599Y-98135128D01*
X117843675Y-98130698D01*
X118020978Y-98039381D01*
X118031024Y-98032931D01*
X118187857Y-97909738D01*
X118196506Y-97901501D01*
X118327212Y-97750877D01*
X118334147Y-97741153D01*
X118434010Y-97568533D01*
X118438984Y-97557669D01*
X118504407Y-97369273D01*
X118504648Y-97368284D01*
X118503180Y-97357992D01*
X118489615Y-97354000D01*
X117422115Y-97354000D01*
X117406876Y-97358475D01*
X117405671Y-97359865D01*
X117404000Y-97367548D01*
X117404000Y-98189885D01*
X116896000Y-98189885D01*
X116896000Y-97372115D01*
X116891525Y-97356876D01*
X116890135Y-97355671D01*
X116882452Y-97354000D01*
X115814598Y-97354000D01*
X115801067Y-97357973D01*
X115799712Y-97367399D01*
X115258500Y-97367399D01*
X115258500Y-95984500D01*
X115278502Y-95916379D01*
X115332158Y-95869886D01*
X115384500Y-95858500D01*
X115815572Y-95858500D01*
X115883693Y-95878502D01*
X115917495Y-95912888D01*
X115918125Y-95912388D01*
X115922668Y-95918120D01*
X115926522Y-95924348D01*
X116051697Y-96049305D01*
X116057929Y-96053147D01*
X116057931Y-96053148D01*
X116103690Y-96081355D01*
X116151183Y-96134127D01*
X116162605Y-96204199D01*
X116134331Y-96269323D01*
X116115403Y-96287702D01*
X116112144Y-96290262D01*
X116103494Y-96298499D01*
X115972788Y-96449123D01*
X115965853Y-96458847D01*
X115865990Y-96631467D01*
X115861016Y-96642331D01*
X115795593Y-96830727D01*
X115795352Y-96831716D01*
X115796820Y-96842008D01*
X115810385Y-96846000D01*
X118485402Y-96846000D01*
X118498933Y-96842027D01*
X118500288Y-96832601D01*
X118478806Y-96743463D01*
X118474917Y-96732168D01*
X118392371Y-96550618D01*
X118386424Y-96540276D01*
X118271032Y-96377603D01*
X118263239Y-96368575D01*
X118172243Y-96281465D01*
X118136867Y-96219910D01*
X118140386Y-96149000D01*
X118181683Y-96091250D01*
X118193053Y-96083315D01*
X118249348Y-96048478D01*
X118374305Y-95923303D01*
X118418857Y-95851027D01*
X118463275Y-95778968D01*
X118463276Y-95778966D01*
X118467115Y-95772738D01*
X118519527Y-95614719D01*
X118520632Y-95611389D01*
X118520632Y-95611387D01*
X118522797Y-95604861D01*
X118524925Y-95584098D01*
X118528999Y-95544329D01*
X118533500Y-95500400D01*
X118533500Y-94699600D01*
X118531694Y-94682193D01*
X118523238Y-94600692D01*
X118523237Y-94600688D01*
X118522526Y-94593834D01*
X118512106Y-94562600D01*
X118468868Y-94433002D01*
X118466550Y-94426054D01*
X118373478Y-94275652D01*
X118248303Y-94150695D01*
X118230440Y-94139684D01*
X118103968Y-94061725D01*
X118103966Y-94061724D01*
X118097738Y-94057885D01*
X117937254Y-94004655D01*
X117936389Y-94004368D01*
X117936387Y-94004368D01*
X117929861Y-94002203D01*
X117923025Y-94001503D01*
X117923022Y-94001502D01*
X117879969Y-93997091D01*
X117825400Y-93991500D01*
X116474600Y-93991500D01*
X116471354Y-93991837D01*
X116471350Y-93991837D01*
X116375692Y-94001762D01*
X116375688Y-94001763D01*
X116368834Y-94002474D01*
X116362298Y-94004655D01*
X116362296Y-94004655D01*
X116275838Y-94033500D01*
X116201054Y-94058450D01*
X116050652Y-94151522D01*
X115925695Y-94276697D01*
X115921854Y-94282928D01*
X115917317Y-94288673D01*
X115915987Y-94287623D01*
X115869893Y-94329108D01*
X115815403Y-94341500D01*
X112234500Y-94341500D01*
X112166379Y-94321498D01*
X112119886Y-94267842D01*
X112108500Y-94215500D01*
X112108500Y-94201866D01*
X112101745Y-94139684D01*
X112050615Y-94003295D01*
X111963261Y-93886739D01*
X111846705Y-93799385D01*
X111710316Y-93748255D01*
X111648134Y-93741500D01*
X109751866Y-93741500D01*
X109689684Y-93748255D01*
X109553295Y-93799385D01*
X109436739Y-93886739D01*
X109349385Y-94003295D01*
X109298255Y-94139684D01*
X109291500Y-94201866D01*
X109291500Y-96798134D01*
X101076461Y-96798134D01*
X101088275Y-96778968D01*
X101088276Y-96778966D01*
X101092115Y-96772738D01*
X101135369Y-96642331D01*
X101145632Y-96611389D01*
X101145632Y-96611387D01*
X101147797Y-96604861D01*
X101158500Y-96500400D01*
X101158500Y-95498134D01*
X102291500Y-95498134D01*
X102298255Y-95560316D01*
X102349385Y-95696705D01*
X102436739Y-95813261D01*
X102553295Y-95900615D01*
X102689684Y-95951745D01*
X102751866Y-95958500D01*
X106648134Y-95958500D01*
X106710316Y-95951745D01*
X106846705Y-95900615D01*
X106963261Y-95813261D01*
X107050615Y-95696705D01*
X107101745Y-95560316D01*
X107108500Y-95498134D01*
X107108500Y-93401866D01*
X107101745Y-93339684D01*
X107050615Y-93203295D01*
X106963261Y-93086739D01*
X106846705Y-92999385D01*
X106710316Y-92948255D01*
X106648134Y-92941500D01*
X102751866Y-92941500D01*
X102689684Y-92948255D01*
X102553295Y-92999385D01*
X102436739Y-93086739D01*
X102349385Y-93203295D01*
X102298255Y-93339684D01*
X102291500Y-93401866D01*
X102291500Y-95498134D01*
X101158500Y-95498134D01*
X101158500Y-95099600D01*
X101153988Y-95056114D01*
X101148238Y-95000692D01*
X101148237Y-95000688D01*
X101147526Y-94993834D01*
X101143906Y-94982982D01*
X101093868Y-94833002D01*
X101091550Y-94826054D01*
X100998478Y-94675652D01*
X100873303Y-94550695D01*
X100798402Y-94504525D01*
X100728968Y-94461725D01*
X100728966Y-94461724D01*
X100722738Y-94457885D01*
X100601125Y-94417548D01*
X100561389Y-94404368D01*
X100561387Y-94404368D01*
X100554861Y-94402203D01*
X100548025Y-94401503D01*
X100548022Y-94401502D01*
X100504969Y-94397091D01*
X100450400Y-94391500D01*
X99699600Y-94391500D01*
X99696354Y-94391837D01*
X99696350Y-94391837D01*
X99600692Y-94401762D01*
X99600688Y-94401763D01*
X99593834Y-94402474D01*
X99587298Y-94404655D01*
X99587296Y-94404655D01*
X99473520Y-94442614D01*
X99426054Y-94458450D01*
X99275652Y-94551522D01*
X99150695Y-94676697D01*
X99146855Y-94682927D01*
X99146854Y-94682928D01*
X99118605Y-94728757D01*
X99057885Y-94827262D01*
X99054456Y-94837600D01*
X99006287Y-94982827D01*
X99002203Y-94995139D01*
X99001503Y-95001975D01*
X99001502Y-95001978D01*
X98998712Y-95029208D01*
X98991500Y-95099600D01*
X98991500Y-96500400D01*
X98991837Y-96503646D01*
X98991837Y-96503650D01*
X99001752Y-96599206D01*
X99002474Y-96606166D01*
X99004655Y-96612702D01*
X99004655Y-96612704D01*
X99036501Y-96708156D01*
X99058450Y-96773946D01*
X99151522Y-96924348D01*
X99156704Y-96929521D01*
X99189485Y-96962245D01*
X99223564Y-97024528D01*
X99218561Y-97095348D01*
X99179451Y-97149171D01*
X99175652Y-97151522D01*
X99170481Y-97156702D01*
X99088862Y-97238463D01*
X99026579Y-97272542D01*
X98955759Y-97267539D01*
X98910671Y-97238618D01*
X98828171Y-97156261D01*
X98816760Y-97147249D01*
X98678757Y-97062184D01*
X98665576Y-97056037D01*
X98511290Y-97004862D01*
X98497914Y-97001995D01*
X98403562Y-96992328D01*
X98397145Y-96992000D01*
X98232054Y-96992000D01*
X98163933Y-96971998D01*
X98117440Y-96918342D01*
X98107336Y-96848068D01*
X98124794Y-96799885D01*
X98137814Y-96778762D01*
X98143963Y-96765576D01*
X98195138Y-96611290D01*
X98198005Y-96597914D01*
X98207672Y-96503562D01*
X98208000Y-96497146D01*
X98208000Y-96072115D01*
X98203525Y-96056876D01*
X98202135Y-96055671D01*
X98194452Y-96054000D01*
X97397115Y-96054000D01*
X97381876Y-96058475D01*
X97380671Y-96059865D01*
X97379000Y-96067548D01*
X97379000Y-97122602D01*
X97358998Y-97190723D01*
X97305342Y-97237216D01*
X97288497Y-97243498D01*
X97247537Y-97255524D01*
X97231261Y-97271829D01*
X97222250Y-97283239D01*
X97137184Y-97421243D01*
X97131037Y-97434424D01*
X97079862Y-97588710D01*
X97076995Y-97602086D01*
X97067328Y-97696438D01*
X97067000Y-97702855D01*
X97067000Y-97927885D01*
X97071475Y-97943124D01*
X97072865Y-97944329D01*
X97080548Y-97946000D01*
X98215500Y-97946000D01*
X98283621Y-97966002D01*
X98330114Y-98019658D01*
X98341500Y-98072000D01*
X98341500Y-98328000D01*
X98321498Y-98396121D01*
X98267842Y-98442614D01*
X98215500Y-98454000D01*
X97078871Y-98454000D01*
X97010750Y-98433998D01*
X96989776Y-98417095D01*
X95069776Y-96497095D01*
X96042001Y-96497095D01*
X96042338Y-96503614D01*
X96052257Y-96599206D01*
X96055149Y-96612600D01*
X96106588Y-96766784D01*
X96112761Y-96779962D01*
X96198063Y-96917807D01*
X96207099Y-96929208D01*
X96321829Y-97043739D01*
X96333240Y-97052751D01*
X96471243Y-97137816D01*
X96484424Y-97143963D01*
X96638710Y-97195138D01*
X96652086Y-97198005D01*
X96746438Y-97207672D01*
X96752854Y-97208000D01*
X96852885Y-97208000D01*
X96868124Y-97203525D01*
X96869329Y-97202135D01*
X96871000Y-97194452D01*
X96871000Y-96072115D01*
X96866525Y-96056876D01*
X96865135Y-96055671D01*
X96857452Y-96054000D01*
X96060116Y-96054000D01*
X96044877Y-96058475D01*
X96043672Y-96059865D01*
X96042001Y-96067548D01*
X96042001Y-96497095D01*
X95069776Y-96497095D01*
X94283770Y-95711089D01*
X94271384Y-95696677D01*
X94262851Y-95685082D01*
X94262846Y-95685077D01*
X94258508Y-95679182D01*
X94252930Y-95674443D01*
X94252927Y-95674440D01*
X94218232Y-95644965D01*
X94210716Y-95638035D01*
X94205021Y-95632340D01*
X94185734Y-95617081D01*
X94182749Y-95614719D01*
X94179345Y-95611928D01*
X94129297Y-95569409D01*
X94129295Y-95569408D01*
X94123715Y-95564667D01*
X94117199Y-95561339D01*
X94112150Y-95557972D01*
X94107021Y-95554805D01*
X94101284Y-95550266D01*
X94053397Y-95527885D01*
X96042000Y-95527885D01*
X96046475Y-95543124D01*
X96047865Y-95544329D01*
X96055548Y-95546000D01*
X96852885Y-95546000D01*
X96868124Y-95541525D01*
X96869329Y-95540135D01*
X96871000Y-95532452D01*
X96871000Y-95527885D01*
X97379000Y-95527885D01*
X97383475Y-95543124D01*
X97384865Y-95544329D01*
X97392548Y-95546000D01*
X98189884Y-95546000D01*
X98205123Y-95541525D01*
X98206328Y-95540135D01*
X98207999Y-95532452D01*
X98207999Y-95102905D01*
X98207662Y-95096386D01*
X98197743Y-95000794D01*
X98194851Y-94987400D01*
X98143412Y-94833216D01*
X98137239Y-94820038D01*
X98051937Y-94682193D01*
X98042901Y-94670792D01*
X97928171Y-94556261D01*
X97916760Y-94547249D01*
X97778757Y-94462184D01*
X97765576Y-94456037D01*
X97611290Y-94404862D01*
X97597914Y-94401995D01*
X97503562Y-94392328D01*
X97497145Y-94392000D01*
X97397115Y-94392000D01*
X97381876Y-94396475D01*
X97380671Y-94397865D01*
X97379000Y-94405548D01*
X97379000Y-95527885D01*
X96871000Y-95527885D01*
X96871000Y-94410116D01*
X96866525Y-94394877D01*
X96865135Y-94393672D01*
X96857452Y-94392001D01*
X96752905Y-94392001D01*
X96746386Y-94392338D01*
X96650794Y-94402257D01*
X96637400Y-94405149D01*
X96483216Y-94456588D01*
X96470038Y-94462761D01*
X96332193Y-94548063D01*
X96320792Y-94557099D01*
X96206261Y-94671829D01*
X96197249Y-94683240D01*
X96112184Y-94821243D01*
X96106037Y-94834424D01*
X96054862Y-94988710D01*
X96051995Y-95002086D01*
X96042328Y-95096438D01*
X96042000Y-95102855D01*
X96042000Y-95527885D01*
X94053397Y-95527885D01*
X94035125Y-95519345D01*
X94031225Y-95517439D01*
X94023752Y-95513623D01*
X93966192Y-95484231D01*
X93959084Y-95482492D01*
X93953441Y-95480393D01*
X93947678Y-95478476D01*
X93941050Y-95475378D01*
X93924945Y-95472028D01*
X93869588Y-95460514D01*
X93865299Y-95459543D01*
X93794390Y-95442192D01*
X93788788Y-95441844D01*
X93788785Y-95441844D01*
X93783236Y-95441500D01*
X93783238Y-95441464D01*
X93779245Y-95441225D01*
X93775053Y-95440851D01*
X93767885Y-95439360D01*
X93701675Y-95441151D01*
X93690479Y-95441454D01*
X93687072Y-95441500D01*
X91815369Y-95441500D01*
X91747248Y-95421498D01*
X91708228Y-95381807D01*
X91673478Y-95325652D01*
X91548303Y-95200695D01*
X91543765Y-95197898D01*
X91503176Y-95140647D01*
X91499946Y-95069724D01*
X91535572Y-95008313D01*
X91544068Y-95000938D01*
X91554207Y-94992902D01*
X91668739Y-94878171D01*
X91677751Y-94866760D01*
X91762816Y-94728757D01*
X91768963Y-94715576D01*
X91820138Y-94561290D01*
X91823005Y-94547914D01*
X91832672Y-94453562D01*
X91833000Y-94447146D01*
X91833000Y-94422115D01*
X91828525Y-94406876D01*
X91827135Y-94405671D01*
X91819452Y-94404000D01*
X89385116Y-94404000D01*
X89369877Y-94408475D01*
X89368672Y-94409865D01*
X89367001Y-94417548D01*
X89367001Y-94447095D01*
X89367338Y-94453614D01*
X89377257Y-94549206D01*
X89380149Y-94562600D01*
X89431588Y-94716784D01*
X89437761Y-94729962D01*
X89523063Y-94867807D01*
X89532099Y-94879208D01*
X89646828Y-94993738D01*
X89655762Y-95000794D01*
X89696823Y-95058712D01*
X89700053Y-95129635D01*
X89664426Y-95191046D01*
X89656593Y-95197846D01*
X89650652Y-95201522D01*
X89525695Y-95326697D01*
X89521856Y-95332925D01*
X89521852Y-95332930D01*
X89491841Y-95381617D01*
X89439069Y-95429110D01*
X89384582Y-95441500D01*
X88215369Y-95441500D01*
X88147248Y-95421498D01*
X88108228Y-95381807D01*
X88073478Y-95325652D01*
X87948303Y-95200695D01*
X87943765Y-95197898D01*
X87903176Y-95140647D01*
X87899946Y-95069724D01*
X87935572Y-95008313D01*
X87944068Y-95000938D01*
X87954207Y-94992902D01*
X88068739Y-94878171D01*
X88077751Y-94866760D01*
X88162816Y-94728757D01*
X88168963Y-94715576D01*
X88220138Y-94561290D01*
X88223005Y-94547914D01*
X88232672Y-94453562D01*
X88233000Y-94447146D01*
X88233000Y-94422115D01*
X88228525Y-94406876D01*
X88227135Y-94405671D01*
X88219452Y-94404000D01*
X85785116Y-94404000D01*
X85769877Y-94408475D01*
X85768672Y-94409865D01*
X85767001Y-94417548D01*
X85767001Y-94447095D01*
X85767338Y-94453614D01*
X85777257Y-94549206D01*
X85780149Y-94562600D01*
X85831588Y-94716784D01*
X85837761Y-94729962D01*
X85923063Y-94867807D01*
X85932099Y-94879208D01*
X86046828Y-94993738D01*
X86055762Y-95000794D01*
X86096823Y-95058712D01*
X86100053Y-95129635D01*
X86064426Y-95191046D01*
X86056593Y-95197846D01*
X86050652Y-95201522D01*
X85925695Y-95326697D01*
X85921856Y-95332925D01*
X85921852Y-95332930D01*
X85891841Y-95381617D01*
X85839069Y-95429110D01*
X85784582Y-95441500D01*
X84027835Y-95441500D01*
X84020033Y-95441258D01*
X84019501Y-95441225D01*
X83958702Y-95437453D01*
X83945740Y-95439680D01*
X83924404Y-95441500D01*
X82576387Y-95441500D01*
X82508266Y-95421498D01*
X82467816Y-95375270D01*
X82466550Y-95376054D01*
X82377332Y-95231880D01*
X82373478Y-95225652D01*
X82353661Y-95205869D01*
X82253486Y-95105869D01*
X82248303Y-95100695D01*
X82243765Y-95097898D01*
X82203176Y-95040647D01*
X82199946Y-94969724D01*
X82235572Y-94908313D01*
X82244068Y-94900938D01*
X82254207Y-94892902D01*
X82368739Y-94778171D01*
X82377751Y-94766760D01*
X82462816Y-94628757D01*
X82468963Y-94615576D01*
X82520138Y-94461290D01*
X82523005Y-94447914D01*
X82532672Y-94353562D01*
X82533000Y-94347146D01*
X82533000Y-94322115D01*
X82528525Y-94306876D01*
X82527135Y-94305671D01*
X82519452Y-94304000D01*
X80085116Y-94304000D01*
X80069877Y-94308475D01*
X80068672Y-94309865D01*
X80067001Y-94317548D01*
X80067001Y-94347095D01*
X80067338Y-94353614D01*
X80077257Y-94449206D01*
X80080149Y-94462600D01*
X80133857Y-94623586D01*
X80136441Y-94694536D01*
X80100257Y-94755620D01*
X80036793Y-94787444D01*
X79966197Y-94779905D01*
X79925238Y-94752557D01*
X79739518Y-94566837D01*
X79705492Y-94504525D01*
X79703092Y-94466761D01*
X79712828Y-94355476D01*
X79712828Y-94355475D01*
X79713307Y-94350000D01*
X79694115Y-94130629D01*
X79637120Y-93917924D01*
X79618450Y-93877885D01*
X85767000Y-93877885D01*
X85771475Y-93893124D01*
X85772865Y-93894329D01*
X85780548Y-93896000D01*
X86727885Y-93896000D01*
X86743124Y-93891525D01*
X86744329Y-93890135D01*
X86746000Y-93882452D01*
X86746000Y-93877885D01*
X87254000Y-93877885D01*
X87258475Y-93893124D01*
X87259865Y-93894329D01*
X87267548Y-93896000D01*
X88214884Y-93896000D01*
X88230123Y-93891525D01*
X88231328Y-93890135D01*
X88232999Y-93882452D01*
X88232999Y-93877885D01*
X89367000Y-93877885D01*
X89371475Y-93893124D01*
X89372865Y-93894329D01*
X89380548Y-93896000D01*
X90327885Y-93896000D01*
X90343124Y-93891525D01*
X90344329Y-93890135D01*
X90346000Y-93882452D01*
X90346000Y-93877885D01*
X90854000Y-93877885D01*
X90858475Y-93893124D01*
X90859865Y-93894329D01*
X90867548Y-93896000D01*
X91814884Y-93896000D01*
X91830123Y-93891525D01*
X91831328Y-93890135D01*
X91832999Y-93882452D01*
X91832999Y-93852905D01*
X91832662Y-93846386D01*
X91822743Y-93750794D01*
X91819851Y-93737400D01*
X91768412Y-93583216D01*
X91762239Y-93570038D01*
X91676937Y-93432193D01*
X91667901Y-93420792D01*
X91553171Y-93306261D01*
X91541760Y-93297249D01*
X91403757Y-93212184D01*
X91390576Y-93206037D01*
X91236290Y-93154862D01*
X91222914Y-93151995D01*
X91128562Y-93142328D01*
X91122145Y-93142000D01*
X90872115Y-93142000D01*
X90856876Y-93146475D01*
X90855671Y-93147865D01*
X90854000Y-93155548D01*
X90854000Y-93877885D01*
X90346000Y-93877885D01*
X90346000Y-93160116D01*
X90341525Y-93144877D01*
X90340135Y-93143672D01*
X90332452Y-93142001D01*
X90077905Y-93142001D01*
X90071386Y-93142338D01*
X89975794Y-93152257D01*
X89962400Y-93155149D01*
X89808216Y-93206588D01*
X89795038Y-93212761D01*
X89657193Y-93298063D01*
X89645792Y-93307099D01*
X89531261Y-93421829D01*
X89522249Y-93433240D01*
X89437184Y-93571243D01*
X89431037Y-93584424D01*
X89379862Y-93738710D01*
X89376995Y-93752086D01*
X89367328Y-93846438D01*
X89367000Y-93852855D01*
X89367000Y-93877885D01*
X88232999Y-93877885D01*
X88232999Y-93852905D01*
X88232662Y-93846386D01*
X88222743Y-93750794D01*
X88219851Y-93737400D01*
X88168412Y-93583216D01*
X88162239Y-93570038D01*
X88076937Y-93432193D01*
X88067901Y-93420792D01*
X87953171Y-93306261D01*
X87941760Y-93297249D01*
X87803757Y-93212184D01*
X87790576Y-93206037D01*
X87636290Y-93154862D01*
X87622914Y-93151995D01*
X87528562Y-93142328D01*
X87522145Y-93142000D01*
X87272115Y-93142000D01*
X87256876Y-93146475D01*
X87255671Y-93147865D01*
X87254000Y-93155548D01*
X87254000Y-93877885D01*
X86746000Y-93877885D01*
X86746000Y-93160116D01*
X86741525Y-93144877D01*
X86740135Y-93143672D01*
X86732452Y-93142001D01*
X86477905Y-93142001D01*
X86471386Y-93142338D01*
X86375794Y-93152257D01*
X86362400Y-93155149D01*
X86208216Y-93206588D01*
X86195038Y-93212761D01*
X86057193Y-93298063D01*
X86045792Y-93307099D01*
X85931261Y-93421829D01*
X85922249Y-93433240D01*
X85837184Y-93571243D01*
X85831037Y-93584424D01*
X85779862Y-93738710D01*
X85776995Y-93752086D01*
X85767328Y-93846438D01*
X85767000Y-93852855D01*
X85767000Y-93877885D01*
X79618450Y-93877885D01*
X79578925Y-93793124D01*
X79571819Y-93777885D01*
X80067000Y-93777885D01*
X80071475Y-93793124D01*
X80072865Y-93794329D01*
X80080548Y-93796000D01*
X81027885Y-93796000D01*
X81043124Y-93791525D01*
X81044329Y-93790135D01*
X81046000Y-93782452D01*
X81046000Y-93777885D01*
X81554000Y-93777885D01*
X81558475Y-93793124D01*
X81559865Y-93794329D01*
X81567548Y-93796000D01*
X82514884Y-93796000D01*
X82530123Y-93791525D01*
X82531328Y-93790135D01*
X82532999Y-93782452D01*
X82532999Y-93752905D01*
X82532662Y-93746386D01*
X82522743Y-93650794D01*
X82519851Y-93637400D01*
X82468412Y-93483216D01*
X82462239Y-93470038D01*
X82376937Y-93332193D01*
X82367901Y-93320792D01*
X82253171Y-93206261D01*
X82241760Y-93197249D01*
X82103757Y-93112184D01*
X82090576Y-93106037D01*
X81936290Y-93054862D01*
X81922914Y-93051995D01*
X81828562Y-93042328D01*
X81822145Y-93042000D01*
X81572115Y-93042000D01*
X81556876Y-93046475D01*
X81555671Y-93047865D01*
X81554000Y-93055548D01*
X81554000Y-93777885D01*
X81046000Y-93777885D01*
X81046000Y-93060116D01*
X81041525Y-93044877D01*
X81040135Y-93043672D01*
X81032452Y-93042001D01*
X80777905Y-93042001D01*
X80771386Y-93042338D01*
X80675794Y-93052257D01*
X80662400Y-93055149D01*
X80508216Y-93106588D01*
X80495038Y-93112761D01*
X80357193Y-93198063D01*
X80345792Y-93207099D01*
X80231261Y-93321829D01*
X80222249Y-93333240D01*
X80137184Y-93471243D01*
X80131037Y-93484424D01*
X80079862Y-93638710D01*
X80076995Y-93652086D01*
X80067328Y-93746438D01*
X80067000Y-93752855D01*
X80067000Y-93777885D01*
X79571819Y-93777885D01*
X79546382Y-93723334D01*
X79546379Y-93723329D01*
X79544056Y-93718347D01*
X79488294Y-93638710D01*
X79420908Y-93542473D01*
X79420906Y-93542470D01*
X79417749Y-93537962D01*
X79262038Y-93382251D01*
X79243547Y-93369303D01*
X79154710Y-93307099D01*
X79081654Y-93255944D01*
X78882076Y-93162880D01*
X78669371Y-93105885D01*
X78450000Y-93086693D01*
X78230629Y-93105885D01*
X78017924Y-93162880D01*
X77925373Y-93206037D01*
X77823334Y-93253618D01*
X77823329Y-93253621D01*
X77818347Y-93255944D01*
X77813840Y-93259100D01*
X77813838Y-93259101D01*
X77642473Y-93379092D01*
X77642470Y-93379094D01*
X77637962Y-93382251D01*
X77628118Y-93392095D01*
X77565806Y-93426121D01*
X77539023Y-93429000D01*
X76378915Y-93429000D01*
X76310794Y-93408998D01*
X76289897Y-93392173D01*
X76228483Y-93330866D01*
X76223303Y-93325695D01*
X76193135Y-93307099D01*
X76078968Y-93236725D01*
X76078966Y-93236724D01*
X76072738Y-93232885D01*
X75983526Y-93203295D01*
X75911389Y-93179368D01*
X75911387Y-93179368D01*
X75904861Y-93177203D01*
X75898025Y-93176503D01*
X75898022Y-93176502D01*
X75854969Y-93172091D01*
X75800400Y-93166500D01*
X74799600Y-93166500D01*
X74796354Y-93166837D01*
X74796350Y-93166837D01*
X74700692Y-93176762D01*
X74700688Y-93176763D01*
X74693834Y-93177474D01*
X74687298Y-93179655D01*
X74687296Y-93179655D01*
X74589796Y-93212184D01*
X74526054Y-93233450D01*
X74375652Y-93326522D01*
X74370479Y-93331704D01*
X74310270Y-93392018D01*
X74247987Y-93426097D01*
X74221097Y-93429000D01*
X71379046Y-93429000D01*
X71310925Y-93408998D01*
X71271902Y-93369303D01*
X71202332Y-93256880D01*
X71198478Y-93250652D01*
X71073303Y-93125695D01*
X71067072Y-93121854D01*
X70928968Y-93036725D01*
X70928966Y-93036724D01*
X70922738Y-93032885D01*
X70812235Y-92996233D01*
X70761389Y-92979368D01*
X70761387Y-92979368D01*
X70754861Y-92977203D01*
X70748025Y-92976503D01*
X70748022Y-92976502D01*
X70704969Y-92972091D01*
X70650400Y-92966500D01*
X70049600Y-92966500D01*
X70046354Y-92966837D01*
X70046350Y-92966837D01*
X69950692Y-92976762D01*
X69950688Y-92976763D01*
X69943834Y-92977474D01*
X69937298Y-92979655D01*
X69937296Y-92979655D01*
X69878159Y-92999385D01*
X69776054Y-93033450D01*
X69625652Y-93126522D01*
X69620479Y-93131704D01*
X69590778Y-93161457D01*
X69500695Y-93251697D01*
X69497898Y-93256235D01*
X69440647Y-93296824D01*
X69369724Y-93300054D01*
X69308313Y-93264428D01*
X69300938Y-93255932D01*
X69292902Y-93245793D01*
X69178171Y-93131261D01*
X69166760Y-93122249D01*
X69028757Y-93037184D01*
X69015576Y-93031037D01*
X68861290Y-92979862D01*
X68847914Y-92976995D01*
X68753562Y-92967328D01*
X68747145Y-92967000D01*
X68722115Y-92967000D01*
X68706876Y-92971475D01*
X68705671Y-92972865D01*
X68704000Y-92980548D01*
X68704000Y-94328000D01*
X68683998Y-94396121D01*
X68630342Y-94442614D01*
X68578000Y-94454000D01*
X67460116Y-94454000D01*
X67444877Y-94458475D01*
X67443672Y-94459865D01*
X67442001Y-94467548D01*
X67442001Y-94722095D01*
X67442338Y-94728614D01*
X67452257Y-94824206D01*
X67455149Y-94837600D01*
X67506588Y-94991784D01*
X67512761Y-95004962D01*
X67601917Y-95149035D01*
X67599150Y-95150747D01*
X67620303Y-95203236D01*
X67607026Y-95272980D01*
X67558151Y-95324475D01*
X67494901Y-95341500D01*
X64566393Y-95341500D01*
X64498272Y-95321498D01*
X64477374Y-95304671D01*
X64461536Y-95288860D01*
X64427457Y-95226577D01*
X64432462Y-95155757D01*
X64461382Y-95110671D01*
X64543739Y-95028171D01*
X64552751Y-95016760D01*
X64637816Y-94878757D01*
X64643963Y-94865576D01*
X64695138Y-94711290D01*
X64698005Y-94697914D01*
X64707672Y-94603562D01*
X64708000Y-94597146D01*
X64708000Y-94559615D01*
X64703525Y-94544376D01*
X64702135Y-94543171D01*
X64694452Y-94541500D01*
X62310116Y-94541500D01*
X62294877Y-94545975D01*
X62293672Y-94547365D01*
X62292001Y-94555048D01*
X62292001Y-94597095D01*
X62292338Y-94603614D01*
X62302257Y-94699206D01*
X62305149Y-94712600D01*
X62356588Y-94866784D01*
X62362761Y-94879962D01*
X62448063Y-95017807D01*
X62457099Y-95029208D01*
X62538462Y-95110430D01*
X62572541Y-95172713D01*
X62567538Y-95243533D01*
X62538618Y-95288620D01*
X62510271Y-95317017D01*
X62447989Y-95351097D01*
X62421097Y-95354000D01*
X60054563Y-95354000D01*
X60035614Y-95352567D01*
X60035407Y-95352536D01*
X60014151Y-95349302D01*
X60006859Y-95349895D01*
X60006856Y-95349895D01*
X59961491Y-95353585D01*
X59951277Y-95354000D01*
X59943207Y-95354000D01*
X59939587Y-95354422D01*
X59939569Y-95354423D01*
X59914961Y-95357292D01*
X59910600Y-95357724D01*
X59885481Y-95359767D01*
X59845161Y-95363046D01*
X59845158Y-95363047D01*
X59837863Y-95363640D01*
X59830899Y-95365896D01*
X59824940Y-95367087D01*
X59819085Y-95368471D01*
X59811819Y-95369318D01*
X59743173Y-95394235D01*
X59739045Y-95395652D01*
X59676564Y-95415893D01*
X59676562Y-95415894D01*
X59669601Y-95418149D01*
X59663346Y-95421945D01*
X59657872Y-95424451D01*
X59652442Y-95427170D01*
X59645563Y-95429667D01*
X59584516Y-95469691D01*
X59580827Y-95472018D01*
X59575291Y-95475378D01*
X59523193Y-95506991D01*
X59523188Y-95506995D01*
X59518392Y-95509905D01*
X59510016Y-95517303D01*
X59509993Y-95517277D01*
X59507003Y-95519926D01*
X59503764Y-95522634D01*
X59497648Y-95526644D01*
X59492621Y-95531951D01*
X59492617Y-95531954D01*
X59444372Y-95582883D01*
X59441994Y-95585325D01*
X58922724Y-96104595D01*
X58860412Y-96138621D01*
X58833629Y-96141500D01*
X56848143Y-96141500D01*
X56831697Y-96140422D01*
X56808188Y-96137327D01*
X56800000Y-96136249D01*
X56733689Y-96144979D01*
X56641150Y-96157162D01*
X56633523Y-96160321D01*
X56633520Y-96160322D01*
X56582718Y-96181365D01*
X56512128Y-96188954D01*
X56448641Y-96157174D01*
X56412414Y-96096116D01*
X56408500Y-96064956D01*
X56408500Y-94015385D01*
X62292000Y-94015385D01*
X62296475Y-94030624D01*
X62297865Y-94031829D01*
X62305548Y-94033500D01*
X63227885Y-94033500D01*
X63243124Y-94029025D01*
X63244329Y-94027635D01*
X63246000Y-94019952D01*
X63246000Y-94015385D01*
X63754000Y-94015385D01*
X63758475Y-94030624D01*
X63759865Y-94031829D01*
X63767548Y-94033500D01*
X64689884Y-94033500D01*
X64705123Y-94029025D01*
X64706328Y-94027635D01*
X64707999Y-94019952D01*
X64707999Y-93977905D01*
X64707662Y-93971386D01*
X64703148Y-93927885D01*
X67442000Y-93927885D01*
X67446475Y-93943124D01*
X67447865Y-93944329D01*
X67455548Y-93946000D01*
X68177885Y-93946000D01*
X68193124Y-93941525D01*
X68194329Y-93940135D01*
X68196000Y-93932452D01*
X68196000Y-92985116D01*
X68191525Y-92969877D01*
X68190135Y-92968672D01*
X68182452Y-92967001D01*
X68152905Y-92967001D01*
X68146386Y-92967338D01*
X68050794Y-92977257D01*
X68037400Y-92980149D01*
X67883216Y-93031588D01*
X67870038Y-93037761D01*
X67732193Y-93123063D01*
X67720792Y-93132099D01*
X67606261Y-93246829D01*
X67597249Y-93258240D01*
X67512184Y-93396243D01*
X67506037Y-93409424D01*
X67454862Y-93563710D01*
X67451995Y-93577086D01*
X67442328Y-93671438D01*
X67442000Y-93677855D01*
X67442000Y-93927885D01*
X64703148Y-93927885D01*
X64697743Y-93875794D01*
X64694851Y-93862400D01*
X64643412Y-93708216D01*
X64637239Y-93695038D01*
X64551937Y-93557193D01*
X64542901Y-93545792D01*
X64428171Y-93431261D01*
X64416760Y-93422249D01*
X64278757Y-93337184D01*
X64265576Y-93331037D01*
X64111290Y-93279862D01*
X64097914Y-93276995D01*
X64003562Y-93267328D01*
X63997145Y-93267000D01*
X63772115Y-93267000D01*
X63756876Y-93271475D01*
X63755671Y-93272865D01*
X63754000Y-93280548D01*
X63754000Y-94015385D01*
X63246000Y-94015385D01*
X63246000Y-93285116D01*
X63241525Y-93269877D01*
X63240135Y-93268672D01*
X63232452Y-93267001D01*
X63002905Y-93267001D01*
X62996386Y-93267338D01*
X62900794Y-93277257D01*
X62887400Y-93280149D01*
X62733216Y-93331588D01*
X62720038Y-93337761D01*
X62582193Y-93423063D01*
X62570792Y-93432099D01*
X62456261Y-93546829D01*
X62447249Y-93558240D01*
X62362184Y-93696243D01*
X62356037Y-93709424D01*
X62304862Y-93863710D01*
X62301995Y-93877086D01*
X62292328Y-93971438D01*
X62292000Y-93977855D01*
X62292000Y-94015385D01*
X56408500Y-94015385D01*
X56408500Y-92234500D01*
X56428502Y-92166379D01*
X56482158Y-92119886D01*
X56534500Y-92108500D01*
X119865500Y-92108500D01*
X119933621Y-92128502D01*
G37*
G04 #@! TD.AperFunction*
G04 #@! TD*
M02*
