G04 #@! TF.GenerationSoftware,KiCad,Pcbnew,(6.0.4)*
G04 #@! TF.CreationDate,2022-04-05T13:55:54+02:00*
G04 #@! TF.ProjectId,Sonda_w_cz,536f6e64-615f-4775-9f63-7a2e6b696361,rev?*
G04 #@! TF.SameCoordinates,Original*
G04 #@! TF.FileFunction,Legend,Bot*
G04 #@! TF.FilePolarity,Positive*
%FSLAX46Y46*%
G04 Gerber Fmt 4.6, Leading zero omitted, Abs format (unit mm)*
G04 Created by KiCad (PCBNEW (6.0.4)) date 2022-04-05 13:55:54*
%MOMM*%
%LPD*%
G01*
G04 APERTURE LIST*
%ADD10C,0.150000*%
%ADD11C,0.120000*%
G04 APERTURE END LIST*
D10*
G04 #@! TO.C,TP1*
X59861904Y-96954380D02*
X59290476Y-96954380D01*
X59576190Y-97954380D02*
X59576190Y-96954380D01*
X58957142Y-97954380D02*
X58957142Y-96954380D01*
X58576190Y-96954380D01*
X58480952Y-97002000D01*
X58433333Y-97049619D01*
X58385714Y-97144857D01*
X58385714Y-97287714D01*
X58433333Y-97382952D01*
X58480952Y-97430571D01*
X58576190Y-97478190D01*
X58957142Y-97478190D01*
X57433333Y-97954380D02*
X58004761Y-97954380D01*
X57719047Y-97954380D02*
X57719047Y-96954380D01*
X57814285Y-97097238D01*
X57909523Y-97192476D01*
X58004761Y-97240095D01*
G04 #@! TO.C,R3*
X80302380Y-97733333D02*
X79826190Y-97400000D01*
X80302380Y-97161904D02*
X79302380Y-97161904D01*
X79302380Y-97542857D01*
X79350000Y-97638095D01*
X79397619Y-97685714D01*
X79492857Y-97733333D01*
X79635714Y-97733333D01*
X79730952Y-97685714D01*
X79778571Y-97638095D01*
X79826190Y-97542857D01*
X79826190Y-97161904D01*
X79302380Y-98066666D02*
X79302380Y-98685714D01*
X79683333Y-98352380D01*
X79683333Y-98495238D01*
X79730952Y-98590476D01*
X79778571Y-98638095D01*
X79873809Y-98685714D01*
X80111904Y-98685714D01*
X80207142Y-98638095D01*
X80254761Y-98590476D01*
X80302380Y-98495238D01*
X80302380Y-98209523D01*
X80254761Y-98114285D01*
X80207142Y-98066666D01*
G04 #@! TO.C,R6*
X76852380Y-101333333D02*
X76376190Y-101000000D01*
X76852380Y-100761904D02*
X75852380Y-100761904D01*
X75852380Y-101142857D01*
X75900000Y-101238095D01*
X75947619Y-101285714D01*
X76042857Y-101333333D01*
X76185714Y-101333333D01*
X76280952Y-101285714D01*
X76328571Y-101238095D01*
X76376190Y-101142857D01*
X76376190Y-100761904D01*
X75852380Y-102190476D02*
X75852380Y-102000000D01*
X75900000Y-101904761D01*
X75947619Y-101857142D01*
X76090476Y-101761904D01*
X76280952Y-101714285D01*
X76661904Y-101714285D01*
X76757142Y-101761904D01*
X76804761Y-101809523D01*
X76852380Y-101904761D01*
X76852380Y-102095238D01*
X76804761Y-102190476D01*
X76757142Y-102238095D01*
X76661904Y-102285714D01*
X76423809Y-102285714D01*
X76328571Y-102238095D01*
X76280952Y-102190476D01*
X76233333Y-102095238D01*
X76233333Y-101904761D01*
X76280952Y-101809523D01*
X76328571Y-101761904D01*
X76423809Y-101714285D01*
G04 #@! TO.C,C9*
X72657142Y-97433333D02*
X72704761Y-97385714D01*
X72752380Y-97242857D01*
X72752380Y-97147619D01*
X72704761Y-97004761D01*
X72609523Y-96909523D01*
X72514285Y-96861904D01*
X72323809Y-96814285D01*
X72180952Y-96814285D01*
X71990476Y-96861904D01*
X71895238Y-96909523D01*
X71800000Y-97004761D01*
X71752380Y-97147619D01*
X71752380Y-97242857D01*
X71800000Y-97385714D01*
X71847619Y-97433333D01*
X72752380Y-97909523D02*
X72752380Y-98100000D01*
X72704761Y-98195238D01*
X72657142Y-98242857D01*
X72514285Y-98338095D01*
X72323809Y-98385714D01*
X71942857Y-98385714D01*
X71847619Y-98338095D01*
X71800000Y-98290476D01*
X71752380Y-98195238D01*
X71752380Y-98004761D01*
X71800000Y-97909523D01*
X71847619Y-97861904D01*
X71942857Y-97814285D01*
X72180952Y-97814285D01*
X72276190Y-97861904D01*
X72323809Y-97909523D01*
X72371428Y-98004761D01*
X72371428Y-98195238D01*
X72323809Y-98290476D01*
X72276190Y-98338095D01*
X72180952Y-98385714D01*
G04 #@! TO.C,C13*
X66707142Y-100357142D02*
X66754761Y-100309523D01*
X66802380Y-100166666D01*
X66802380Y-100071428D01*
X66754761Y-99928571D01*
X66659523Y-99833333D01*
X66564285Y-99785714D01*
X66373809Y-99738095D01*
X66230952Y-99738095D01*
X66040476Y-99785714D01*
X65945238Y-99833333D01*
X65850000Y-99928571D01*
X65802380Y-100071428D01*
X65802380Y-100166666D01*
X65850000Y-100309523D01*
X65897619Y-100357142D01*
X66802380Y-101309523D02*
X66802380Y-100738095D01*
X66802380Y-101023809D02*
X65802380Y-101023809D01*
X65945238Y-100928571D01*
X66040476Y-100833333D01*
X66088095Y-100738095D01*
X65802380Y-101642857D02*
X65802380Y-102261904D01*
X66183333Y-101928571D01*
X66183333Y-102071428D01*
X66230952Y-102166666D01*
X66278571Y-102214285D01*
X66373809Y-102261904D01*
X66611904Y-102261904D01*
X66707142Y-102214285D01*
X66754761Y-102166666D01*
X66802380Y-102071428D01*
X66802380Y-101785714D01*
X66754761Y-101690476D01*
X66707142Y-101642857D01*
D11*
G04 #@! TO.C,TP1*
X60300000Y-98200000D02*
X56900000Y-98200000D01*
X60300000Y-101600000D02*
X60300000Y-98200000D01*
X56900000Y-98200000D02*
X56900000Y-101600000D01*
X56900000Y-101600000D02*
X60300000Y-101600000D01*
G04 #@! TO.C,R3*
X78935000Y-98127064D02*
X78935000Y-97672936D01*
X77465000Y-98127064D02*
X77465000Y-97672936D01*
G04 #@! TO.C,R6*
X75435000Y-101727064D02*
X75435000Y-101272936D01*
X73965000Y-101727064D02*
X73965000Y-101272936D01*
G04 #@! TO.C,C9*
X72935000Y-101238748D02*
X72935000Y-101761252D01*
X71465000Y-101238748D02*
X71465000Y-101761252D01*
G04 #@! TO.C,C13*
X69110000Y-100288748D02*
X69110000Y-101711252D01*
X67290000Y-100288748D02*
X67290000Y-101711252D01*
G04 #@! TD*
M02*
