G04 #@! TF.GenerationSoftware,KiCad,Pcbnew,(6.0.4)*
G04 #@! TF.CreationDate,2022-04-05T13:55:54+02:00*
G04 #@! TF.ProjectId,Sonda_w_cz,536f6e64-615f-4775-9f63-7a2e6b696361,rev?*
G04 #@! TF.SameCoordinates,Original*
G04 #@! TF.FileFunction,Copper,L2,Bot*
G04 #@! TF.FilePolarity,Positive*
%FSLAX46Y46*%
G04 Gerber Fmt 4.6, Leading zero omitted, Abs format (unit mm)*
G04 Created by KiCad (PCBNEW (6.0.4)) date 2022-04-05 13:55:54*
%MOMM*%
%LPD*%
G01*
G04 APERTURE LIST*
G04 Aperture macros list*
%AMRoundRect*
0 Rectangle with rounded corners*
0 $1 Rounding radius*
0 $2 $3 $4 $5 $6 $7 $8 $9 X,Y pos of 4 corners*
0 Add a 4 corners polygon primitive as box body*
4,1,4,$2,$3,$4,$5,$6,$7,$8,$9,$2,$3,0*
0 Add four circle primitives for the rounded corners*
1,1,$1+$1,$2,$3*
1,1,$1+$1,$4,$5*
1,1,$1+$1,$6,$7*
1,1,$1+$1,$8,$9*
0 Add four rect primitives between the rounded corners*
20,1,$1+$1,$2,$3,$4,$5,0*
20,1,$1+$1,$4,$5,$6,$7,0*
20,1,$1+$1,$6,$7,$8,$9,0*
20,1,$1+$1,$8,$9,$2,$3,0*%
G04 Aperture macros list end*
G04 #@! TA.AperFunction,NonConductor*
%ADD10C,0.200000*%
G04 #@! TD*
G04 #@! TA.AperFunction,ComponentPad*
%ADD11R,1.700000X1.700000*%
G04 #@! TD*
G04 #@! TA.AperFunction,ComponentPad*
%ADD12O,1.700000X1.700000*%
G04 #@! TD*
G04 #@! TA.AperFunction,ComponentPad*
%ADD13RoundRect,0.250000X-0.625000X0.350000X-0.625000X-0.350000X0.625000X-0.350000X0.625000X0.350000X0*%
G04 #@! TD*
G04 #@! TA.AperFunction,ComponentPad*
%ADD14O,1.750000X1.200000*%
G04 #@! TD*
G04 #@! TA.AperFunction,SMDPad,CuDef*
%ADD15R,3.000000X3.000000*%
G04 #@! TD*
G04 #@! TA.AperFunction,SMDPad,CuDef*
%ADD16RoundRect,0.250000X0.450000X-0.262500X0.450000X0.262500X-0.450000X0.262500X-0.450000X-0.262500X0*%
G04 #@! TD*
G04 #@! TA.AperFunction,SMDPad,CuDef*
%ADD17RoundRect,0.250000X-0.475000X0.250000X-0.475000X-0.250000X0.475000X-0.250000X0.475000X0.250000X0*%
G04 #@! TD*
G04 #@! TA.AperFunction,SMDPad,CuDef*
%ADD18RoundRect,0.250000X-0.650000X0.325000X-0.650000X-0.325000X0.650000X-0.325000X0.650000X0.325000X0*%
G04 #@! TD*
G04 #@! TA.AperFunction,ViaPad*
%ADD19C,1.800000*%
G04 #@! TD*
G04 #@! TA.AperFunction,ViaPad*
%ADD20C,1.500000*%
G04 #@! TD*
G04 #@! TA.AperFunction,Conductor*
%ADD21C,0.500000*%
G04 #@! TD*
G04 APERTURE END LIST*
D10*
G36*
X60300000Y-103100000D02*
G01*
X56800000Y-103100000D01*
X56800000Y-96700000D01*
X60300000Y-96700000D01*
X60300000Y-103100000D01*
G37*
X60300000Y-103100000D02*
X56800000Y-103100000D01*
X56800000Y-96700000D01*
X60300000Y-96700000D01*
X60300000Y-103100000D01*
D11*
G04 #@! TO.P,J2,1,Pin_1*
G04 #@! TO.N,Net-(C16-Pad2)*
X94000000Y-100825000D03*
D12*
G04 #@! TO.P,J2,2,Pin_2*
G04 #@! TO.N,GND*
X94000000Y-103365000D03*
G04 #@! TD*
D13*
G04 #@! TO.P,J1,1,Pin_1*
G04 #@! TO.N,+12V*
X117150000Y-95100000D03*
D14*
G04 #@! TO.P,J1,2,Pin_2*
G04 #@! TO.N,GND*
X117150000Y-97100000D03*
G04 #@! TD*
D15*
G04 #@! TO.P,TP1,1,1*
G04 #@! TO.N,Net-(Q1-Pad3)*
X58600000Y-99900000D03*
G04 #@! TD*
D16*
G04 #@! TO.P,R3,1*
G04 #@! TO.N,Net-(C13-Pad1)*
X78200000Y-98812500D03*
G04 #@! TO.P,R3,2*
G04 #@! TO.N,+8V*
X78200000Y-96987500D03*
G04 #@! TD*
G04 #@! TO.P,R6,1*
G04 #@! TO.N,GND*
X74700000Y-102412500D03*
G04 #@! TO.P,R6,2*
G04 #@! TO.N,Net-(C13-Pad1)*
X74700000Y-100587500D03*
G04 #@! TD*
D17*
G04 #@! TO.P,C9,1*
G04 #@! TO.N,Net-(C13-Pad1)*
X72200000Y-100550000D03*
G04 #@! TO.P,C9,2*
G04 #@! TO.N,GND*
X72200000Y-102450000D03*
G04 #@! TD*
D18*
G04 #@! TO.P,C13,1*
G04 #@! TO.N,Net-(C13-Pad1)*
X68200000Y-99525000D03*
G04 #@! TO.P,C13,2*
G04 #@! TO.N,GND*
X68200000Y-102475000D03*
G04 #@! TD*
D19*
G04 #@! TO.N,GND*
X65900000Y-105600000D03*
X63200000Y-105600000D03*
X73300000Y-105600000D03*
X68400000Y-105600000D03*
X70900000Y-105600000D03*
D20*
G04 #@! TO.N,+8V*
X78450000Y-94350000D03*
G04 #@! TO.N,Net-(C13-Pad1)*
X66400000Y-99600000D03*
G04 #@! TD*
D21*
G04 #@! TO.N,+8V*
X78200000Y-94600000D02*
X78450000Y-94350000D01*
X78200000Y-96987500D02*
X78200000Y-94600000D01*
G04 #@! TO.N,Net-(C13-Pad1)*
X76900000Y-100600000D02*
X74712500Y-100600000D01*
X78200000Y-99300000D02*
X76900000Y-100600000D01*
X72050000Y-100550000D02*
X71000000Y-99500000D01*
X72237500Y-100587500D02*
X72200000Y-100550000D01*
X66400000Y-99600000D02*
X68125000Y-99600000D01*
X74712500Y-100600000D02*
X74700000Y-100587500D01*
X68225000Y-99500000D02*
X68200000Y-99525000D01*
X78200000Y-98812500D02*
X78200000Y-99300000D01*
X68125000Y-99600000D02*
X68200000Y-99525000D01*
X72200000Y-100550000D02*
X72050000Y-100550000D01*
X71000000Y-99500000D02*
X68225000Y-99500000D01*
X74700000Y-100587500D02*
X72237500Y-100587500D01*
G04 #@! TD*
G04 #@! TA.AperFunction,Conductor*
G04 #@! TO.N,GND*
G36*
X119933621Y-92128502D02*
G01*
X119980114Y-92182158D01*
X119991500Y-92234500D01*
X119991500Y-106765500D01*
X119971498Y-106833621D01*
X119917842Y-106880114D01*
X119865500Y-106891500D01*
X56534500Y-106891500D01*
X56466379Y-106871498D01*
X56419886Y-106817842D01*
X56408500Y-106765500D01*
X56408500Y-103785044D01*
X56428502Y-103716923D01*
X56482158Y-103670430D01*
X56552432Y-103660326D01*
X56582718Y-103668635D01*
X56633520Y-103689678D01*
X56633523Y-103689679D01*
X56641150Y-103692838D01*
X56800000Y-103713751D01*
X56808188Y-103712673D01*
X56831697Y-103709578D01*
X56848143Y-103708500D01*
X60251857Y-103708500D01*
X60268303Y-103709578D01*
X60300000Y-103713751D01*
X60308188Y-103712673D01*
X60339885Y-103708500D01*
X60450662Y-103693916D01*
X60458850Y-103692838D01*
X60603394Y-103632966D01*
X92668257Y-103632966D01*
X92698565Y-103767446D01*
X92701645Y-103777275D01*
X92781770Y-103974603D01*
X92786413Y-103983794D01*
X92897694Y-104165388D01*
X92903777Y-104173699D01*
X93043213Y-104334667D01*
X93050580Y-104341883D01*
X93214434Y-104477916D01*
X93222881Y-104483831D01*
X93406756Y-104591279D01*
X93416042Y-104595729D01*
X93615001Y-104671703D01*
X93624899Y-104674579D01*
X93728250Y-104695606D01*
X93742299Y-104694410D01*
X93746000Y-104684065D01*
X93746000Y-104683517D01*
X94254000Y-104683517D01*
X94258064Y-104697359D01*
X94271478Y-104699393D01*
X94278184Y-104698534D01*
X94288262Y-104696392D01*
X94492255Y-104635191D01*
X94501842Y-104631433D01*
X94693095Y-104537739D01*
X94701945Y-104532464D01*
X94875328Y-104408792D01*
X94883200Y-104402139D01*
X95034052Y-104251812D01*
X95040730Y-104243965D01*
X95165003Y-104071020D01*
X95170313Y-104062183D01*
X95264670Y-103871267D01*
X95268469Y-103861672D01*
X95330377Y-103657910D01*
X95332555Y-103647837D01*
X95333986Y-103636962D01*
X95331775Y-103622778D01*
X95318617Y-103619000D01*
X94272115Y-103619000D01*
X94256876Y-103623475D01*
X94255671Y-103624865D01*
X94254000Y-103632548D01*
X94254000Y-104683517D01*
X93746000Y-104683517D01*
X93746000Y-103637115D01*
X93741525Y-103621876D01*
X93740135Y-103620671D01*
X93732452Y-103619000D01*
X92683225Y-103619000D01*
X92669694Y-103622973D01*
X92668257Y-103632966D01*
X60603394Y-103632966D01*
X60606875Y-103631524D01*
X60670431Y-103582755D01*
X60727434Y-103539016D01*
X60727437Y-103539013D01*
X60733987Y-103533987D01*
X60769859Y-103487239D01*
X60826498Y-103413426D01*
X60831524Y-103406876D01*
X60836873Y-103393963D01*
X60889678Y-103266480D01*
X60889679Y-103266477D01*
X60892838Y-103258850D01*
X60913751Y-103100000D01*
X60909578Y-103068303D01*
X60908500Y-103051857D01*
X60908500Y-102847095D01*
X66792001Y-102847095D01*
X66792338Y-102853614D01*
X66802257Y-102949206D01*
X66805149Y-102962600D01*
X66856588Y-103116784D01*
X66862761Y-103129962D01*
X66948063Y-103267807D01*
X66957099Y-103279208D01*
X67071829Y-103393739D01*
X67083240Y-103402751D01*
X67221243Y-103487816D01*
X67234424Y-103493963D01*
X67388710Y-103545138D01*
X67402086Y-103548005D01*
X67496438Y-103557672D01*
X67502854Y-103558000D01*
X67927885Y-103558000D01*
X67943124Y-103553525D01*
X67944329Y-103552135D01*
X67946000Y-103544452D01*
X67946000Y-103539884D01*
X68454000Y-103539884D01*
X68458475Y-103555123D01*
X68459865Y-103556328D01*
X68467548Y-103557999D01*
X68897095Y-103557999D01*
X68903614Y-103557662D01*
X68999206Y-103547743D01*
X69012600Y-103544851D01*
X69166784Y-103493412D01*
X69179962Y-103487239D01*
X69317807Y-103401937D01*
X69329208Y-103392901D01*
X69443739Y-103278171D01*
X69452751Y-103266760D01*
X69537816Y-103128757D01*
X69543963Y-103115576D01*
X69595138Y-102961290D01*
X69598005Y-102947914D01*
X69607672Y-102853562D01*
X69608000Y-102847146D01*
X69608000Y-102747115D01*
X69607994Y-102747095D01*
X70967001Y-102747095D01*
X70967338Y-102753614D01*
X70977257Y-102849206D01*
X70980149Y-102862600D01*
X71031588Y-103016784D01*
X71037761Y-103029962D01*
X71123063Y-103167807D01*
X71132099Y-103179208D01*
X71246829Y-103293739D01*
X71258240Y-103302751D01*
X71396243Y-103387816D01*
X71409424Y-103393963D01*
X71563710Y-103445138D01*
X71577086Y-103448005D01*
X71671438Y-103457672D01*
X71677854Y-103458000D01*
X71927885Y-103458000D01*
X71943124Y-103453525D01*
X71944329Y-103452135D01*
X71946000Y-103444452D01*
X71946000Y-103439884D01*
X72454000Y-103439884D01*
X72458475Y-103455123D01*
X72459865Y-103456328D01*
X72467548Y-103457999D01*
X72722095Y-103457999D01*
X72728614Y-103457662D01*
X72824206Y-103447743D01*
X72837600Y-103444851D01*
X72991784Y-103393412D01*
X73004962Y-103387239D01*
X73142807Y-103301937D01*
X73154208Y-103292901D01*
X73268739Y-103178171D01*
X73277751Y-103166760D01*
X73362891Y-103028636D01*
X73415663Y-102981143D01*
X73485734Y-102969719D01*
X73550858Y-102997993D01*
X73577295Y-103028448D01*
X73648066Y-103142810D01*
X73657099Y-103154208D01*
X73771829Y-103268739D01*
X73783240Y-103277751D01*
X73921243Y-103362816D01*
X73934424Y-103368963D01*
X74088710Y-103420138D01*
X74102086Y-103423005D01*
X74196438Y-103432672D01*
X74202854Y-103433000D01*
X74427885Y-103433000D01*
X74443124Y-103428525D01*
X74444329Y-103427135D01*
X74446000Y-103419452D01*
X74446000Y-103414884D01*
X74954000Y-103414884D01*
X74958475Y-103430123D01*
X74959865Y-103431328D01*
X74967548Y-103432999D01*
X75197095Y-103432999D01*
X75203614Y-103432662D01*
X75299206Y-103422743D01*
X75312600Y-103419851D01*
X75466784Y-103368412D01*
X75479962Y-103362239D01*
X75617807Y-103276937D01*
X75629208Y-103267901D01*
X75743739Y-103153171D01*
X75752751Y-103141760D01*
X75837816Y-103003757D01*
X75843963Y-102990576D01*
X75895138Y-102836290D01*
X75898005Y-102822914D01*
X75907672Y-102728562D01*
X75908000Y-102722146D01*
X75908000Y-102684615D01*
X75903525Y-102669376D01*
X75902135Y-102668171D01*
X75894452Y-102666500D01*
X74972115Y-102666500D01*
X74956876Y-102670975D01*
X74955671Y-102672365D01*
X74954000Y-102680048D01*
X74954000Y-103414884D01*
X74446000Y-103414884D01*
X74446000Y-102684615D01*
X74441525Y-102669376D01*
X74440135Y-102668171D01*
X74432452Y-102666500D01*
X73510116Y-102666500D01*
X73481594Y-102674875D01*
X73444217Y-102698896D01*
X73408718Y-102704000D01*
X72472115Y-102704000D01*
X72456876Y-102708475D01*
X72455671Y-102709865D01*
X72454000Y-102717548D01*
X72454000Y-103439884D01*
X71946000Y-103439884D01*
X71946000Y-102722115D01*
X71941525Y-102706876D01*
X71940135Y-102705671D01*
X71932452Y-102704000D01*
X70985116Y-102704000D01*
X70969877Y-102708475D01*
X70968672Y-102709865D01*
X70967001Y-102717548D01*
X70967001Y-102747095D01*
X69607994Y-102747095D01*
X69603525Y-102731876D01*
X69602135Y-102730671D01*
X69594452Y-102729000D01*
X68472115Y-102729000D01*
X68456876Y-102733475D01*
X68455671Y-102734865D01*
X68454000Y-102742548D01*
X68454000Y-103539884D01*
X67946000Y-103539884D01*
X67946000Y-102747115D01*
X67941525Y-102731876D01*
X67940135Y-102730671D01*
X67932452Y-102729000D01*
X66810116Y-102729000D01*
X66794877Y-102733475D01*
X66793672Y-102734865D01*
X66792001Y-102742548D01*
X66792001Y-102847095D01*
X60908500Y-102847095D01*
X60908500Y-102202885D01*
X66792000Y-102202885D01*
X66796475Y-102218124D01*
X66797865Y-102219329D01*
X66805548Y-102221000D01*
X67927885Y-102221000D01*
X67943124Y-102216525D01*
X67944329Y-102215135D01*
X67946000Y-102207452D01*
X67946000Y-102202885D01*
X68454000Y-102202885D01*
X68458475Y-102218124D01*
X68459865Y-102219329D01*
X68467548Y-102221000D01*
X69589884Y-102221000D01*
X69605123Y-102216525D01*
X69606328Y-102215135D01*
X69607999Y-102207452D01*
X69607999Y-102102905D01*
X69607662Y-102096386D01*
X69597743Y-102000794D01*
X69594851Y-101987400D01*
X69543412Y-101833216D01*
X69537239Y-101820038D01*
X69451937Y-101682193D01*
X69442901Y-101670792D01*
X69328171Y-101556261D01*
X69316760Y-101547249D01*
X69178757Y-101462184D01*
X69165576Y-101456037D01*
X69011290Y-101404862D01*
X68997914Y-101401995D01*
X68903562Y-101392328D01*
X68897145Y-101392000D01*
X68472115Y-101392000D01*
X68456876Y-101396475D01*
X68455671Y-101397865D01*
X68454000Y-101405548D01*
X68454000Y-102202885D01*
X67946000Y-102202885D01*
X67946000Y-101410116D01*
X67941525Y-101394877D01*
X67940135Y-101393672D01*
X67932452Y-101392001D01*
X67502905Y-101392001D01*
X67496386Y-101392338D01*
X67400794Y-101402257D01*
X67387400Y-101405149D01*
X67233216Y-101456588D01*
X67220038Y-101462761D01*
X67082193Y-101548063D01*
X67070792Y-101557099D01*
X66956261Y-101671829D01*
X66947249Y-101683240D01*
X66862184Y-101821243D01*
X66856037Y-101834424D01*
X66804862Y-101988710D01*
X66801995Y-102002086D01*
X66792328Y-102096438D01*
X66792000Y-102102855D01*
X66792000Y-102202885D01*
X60908500Y-102202885D01*
X60908500Y-99600000D01*
X65136693Y-99600000D01*
X65155885Y-99819371D01*
X65212880Y-100032076D01*
X65215205Y-100037061D01*
X65303618Y-100226666D01*
X65303621Y-100226671D01*
X65305944Y-100231653D01*
X65309100Y-100236160D01*
X65309101Y-100236162D01*
X65362468Y-100312377D01*
X65432251Y-100412038D01*
X65587962Y-100567749D01*
X65592471Y-100570906D01*
X65592473Y-100570908D01*
X65631876Y-100598498D01*
X65768346Y-100694056D01*
X65967924Y-100787120D01*
X66180629Y-100844115D01*
X66400000Y-100863307D01*
X66619371Y-100844115D01*
X66832076Y-100787120D01*
X67031654Y-100694056D01*
X67189919Y-100583237D01*
X67257193Y-100560549D01*
X67301857Y-100566857D01*
X67388611Y-100595632D01*
X67388613Y-100595632D01*
X67395139Y-100597797D01*
X67401975Y-100598497D01*
X67401978Y-100598498D01*
X67445031Y-100602909D01*
X67499600Y-100608500D01*
X68900400Y-100608500D01*
X68903646Y-100608163D01*
X68903650Y-100608163D01*
X68999308Y-100598238D01*
X68999312Y-100598237D01*
X69006166Y-100597526D01*
X69012702Y-100595345D01*
X69012704Y-100595345D01*
X69166998Y-100543868D01*
X69173946Y-100541550D01*
X69324348Y-100448478D01*
X69449305Y-100323303D01*
X69453146Y-100317072D01*
X69457683Y-100311327D01*
X69459013Y-100312377D01*
X69505107Y-100270892D01*
X69559597Y-100258500D01*
X70633629Y-100258500D01*
X70701750Y-100278502D01*
X70722724Y-100295405D01*
X70929595Y-100502276D01*
X70963621Y-100564588D01*
X70966500Y-100591371D01*
X70966500Y-100850400D01*
X70977474Y-100956166D01*
X71033450Y-101123946D01*
X71126522Y-101274348D01*
X71251697Y-101399305D01*
X71256235Y-101402102D01*
X71296824Y-101459353D01*
X71300054Y-101530276D01*
X71264428Y-101591687D01*
X71255932Y-101599062D01*
X71245793Y-101607098D01*
X71131261Y-101721829D01*
X71122249Y-101733240D01*
X71037184Y-101871243D01*
X71031037Y-101884424D01*
X70979862Y-102038710D01*
X70976995Y-102052086D01*
X70967328Y-102146438D01*
X70967000Y-102152855D01*
X70967000Y-102177885D01*
X70971475Y-102193124D01*
X70972865Y-102194329D01*
X70980548Y-102196000D01*
X73414884Y-102196000D01*
X73443406Y-102187625D01*
X73480783Y-102163604D01*
X73516282Y-102158500D01*
X75889884Y-102158500D01*
X75905123Y-102154025D01*
X75906328Y-102152635D01*
X75907999Y-102144952D01*
X75907999Y-102102905D01*
X75907662Y-102096386D01*
X75897743Y-102000794D01*
X75894851Y-101987400D01*
X75843412Y-101833216D01*
X75837239Y-101820038D01*
X75777272Y-101723134D01*
X92641500Y-101723134D01*
X92648255Y-101785316D01*
X92699385Y-101921705D01*
X92786739Y-102038261D01*
X92903295Y-102125615D01*
X92911704Y-102128767D01*
X92911705Y-102128768D01*
X93020960Y-102169726D01*
X93077725Y-102212367D01*
X93102425Y-102278929D01*
X93087218Y-102348278D01*
X93067825Y-102374759D01*
X92944590Y-102503717D01*
X92938104Y-102511727D01*
X92818098Y-102687649D01*
X92813000Y-102696623D01*
X92723338Y-102889783D01*
X92719775Y-102899470D01*
X92664389Y-103099183D01*
X92665912Y-103107607D01*
X92678292Y-103111000D01*
X95318344Y-103111000D01*
X95331875Y-103107027D01*
X95333180Y-103097947D01*
X95291214Y-102930875D01*
X95287894Y-102921124D01*
X95202972Y-102725814D01*
X95198105Y-102716739D01*
X95082426Y-102537926D01*
X95076136Y-102529757D01*
X94932293Y-102371677D01*
X94901241Y-102307831D01*
X94909635Y-102237333D01*
X94954812Y-102182564D01*
X94981256Y-102168895D01*
X95088297Y-102128767D01*
X95096705Y-102125615D01*
X95213261Y-102038261D01*
X95300615Y-101921705D01*
X95351745Y-101785316D01*
X95358500Y-101723134D01*
X95358500Y-99926866D01*
X95351745Y-99864684D01*
X95300615Y-99728295D01*
X95213261Y-99611739D01*
X95096705Y-99524385D01*
X94960316Y-99473255D01*
X94898134Y-99466500D01*
X93101866Y-99466500D01*
X93039684Y-99473255D01*
X92903295Y-99524385D01*
X92786739Y-99611739D01*
X92699385Y-99728295D01*
X92648255Y-99864684D01*
X92641500Y-99926866D01*
X92641500Y-101723134D01*
X75777272Y-101723134D01*
X75751937Y-101682193D01*
X75742901Y-101670792D01*
X75661538Y-101589570D01*
X75627459Y-101527287D01*
X75632462Y-101456467D01*
X75661382Y-101411380D01*
X75677251Y-101395483D01*
X75739533Y-101361403D01*
X75766425Y-101358500D01*
X76832930Y-101358500D01*
X76851880Y-101359933D01*
X76866115Y-101362099D01*
X76866119Y-101362099D01*
X76873349Y-101363199D01*
X76880641Y-101362606D01*
X76880644Y-101362606D01*
X76926018Y-101358915D01*
X76936233Y-101358500D01*
X76944293Y-101358500D01*
X76957583Y-101356951D01*
X76972507Y-101355211D01*
X76976882Y-101354778D01*
X77042339Y-101349454D01*
X77042342Y-101349453D01*
X77049637Y-101348860D01*
X77056601Y-101346604D01*
X77062560Y-101345413D01*
X77068415Y-101344029D01*
X77075681Y-101343182D01*
X77144327Y-101318265D01*
X77148455Y-101316848D01*
X77210936Y-101296607D01*
X77210938Y-101296606D01*
X77217899Y-101294351D01*
X77224154Y-101290555D01*
X77229628Y-101288049D01*
X77235058Y-101285330D01*
X77241937Y-101282833D01*
X77302976Y-101242814D01*
X77306680Y-101240477D01*
X77369107Y-101202595D01*
X77377484Y-101195197D01*
X77377508Y-101195224D01*
X77380500Y-101192571D01*
X77383733Y-101189868D01*
X77389852Y-101185856D01*
X77443128Y-101129617D01*
X77445506Y-101127175D01*
X78688911Y-99883770D01*
X78703323Y-99871384D01*
X78714923Y-99862847D01*
X78714927Y-99862843D01*
X78720818Y-99858508D01*
X78722807Y-99856166D01*
X78784710Y-99825117D01*
X78794176Y-99823770D01*
X78806166Y-99822526D01*
X78973946Y-99766550D01*
X79124348Y-99673478D01*
X79249305Y-99548303D01*
X79253296Y-99541828D01*
X79338275Y-99403968D01*
X79338276Y-99403966D01*
X79342115Y-99397738D01*
X79397797Y-99229861D01*
X79408500Y-99125400D01*
X79408500Y-98499600D01*
X79403807Y-98454368D01*
X79398238Y-98400692D01*
X79398237Y-98400688D01*
X79397526Y-98393834D01*
X79384706Y-98355406D01*
X79343868Y-98233002D01*
X79341550Y-98226054D01*
X79248478Y-98075652D01*
X79161891Y-97989216D01*
X79127812Y-97926934D01*
X79132815Y-97856114D01*
X79161736Y-97811025D01*
X79244134Y-97728483D01*
X79249305Y-97723303D01*
X79342115Y-97572738D01*
X79397797Y-97404861D01*
X79401635Y-97367399D01*
X115799712Y-97367399D01*
X115821194Y-97456537D01*
X115825083Y-97467832D01*
X115907629Y-97649382D01*
X115913576Y-97659724D01*
X116028968Y-97822397D01*
X116036761Y-97831425D01*
X116180831Y-97969342D01*
X116190196Y-97976738D01*
X116357741Y-98084921D01*
X116368345Y-98090417D01*
X116553312Y-98164961D01*
X116564770Y-98168355D01*
X116761928Y-98206857D01*
X116770791Y-98207934D01*
X116773500Y-98208000D01*
X116877885Y-98208000D01*
X116893124Y-98203525D01*
X116894329Y-98202135D01*
X116896000Y-98194452D01*
X116896000Y-98189885D01*
X117404000Y-98189885D01*
X117408475Y-98205124D01*
X117409865Y-98206329D01*
X117417548Y-98208000D01*
X117474832Y-98208000D01*
X117480808Y-98207715D01*
X117629494Y-98193529D01*
X117641228Y-98191270D01*
X117832599Y-98135128D01*
X117843675Y-98130698D01*
X118020978Y-98039381D01*
X118031024Y-98032931D01*
X118187857Y-97909738D01*
X118196506Y-97901501D01*
X118327212Y-97750877D01*
X118334147Y-97741153D01*
X118434010Y-97568533D01*
X118438984Y-97557669D01*
X118504407Y-97369273D01*
X118504648Y-97368284D01*
X118503180Y-97357992D01*
X118489615Y-97354000D01*
X117422115Y-97354000D01*
X117406876Y-97358475D01*
X117405671Y-97359865D01*
X117404000Y-97367548D01*
X117404000Y-98189885D01*
X116896000Y-98189885D01*
X116896000Y-97372115D01*
X116891525Y-97356876D01*
X116890135Y-97355671D01*
X116882452Y-97354000D01*
X115814598Y-97354000D01*
X115801067Y-97357973D01*
X115799712Y-97367399D01*
X79401635Y-97367399D01*
X79408500Y-97300400D01*
X79408500Y-96674600D01*
X79397526Y-96568834D01*
X79341550Y-96401054D01*
X79248478Y-96250652D01*
X79123303Y-96125695D01*
X79098364Y-96110322D01*
X79054529Y-96083302D01*
X79018383Y-96061021D01*
X78970891Y-96008250D01*
X78958500Y-95953762D01*
X78958500Y-95581754D01*
X78978502Y-95513633D01*
X78993652Y-95500400D01*
X115766500Y-95500400D01*
X115777474Y-95606166D01*
X115833450Y-95773946D01*
X115926522Y-95924348D01*
X116051697Y-96049305D01*
X116057929Y-96053147D01*
X116057931Y-96053148D01*
X116103690Y-96081355D01*
X116151183Y-96134127D01*
X116162605Y-96204199D01*
X116134331Y-96269323D01*
X116115403Y-96287702D01*
X116112144Y-96290262D01*
X116103494Y-96298499D01*
X115972788Y-96449123D01*
X115965853Y-96458847D01*
X115865990Y-96631467D01*
X115861016Y-96642331D01*
X115795593Y-96830727D01*
X115795352Y-96831716D01*
X115796820Y-96842008D01*
X115810385Y-96846000D01*
X118485402Y-96846000D01*
X118498933Y-96842027D01*
X118500288Y-96832601D01*
X118478806Y-96743463D01*
X118474917Y-96732168D01*
X118392371Y-96550618D01*
X118386424Y-96540276D01*
X118271032Y-96377603D01*
X118263239Y-96368575D01*
X118172243Y-96281465D01*
X118136867Y-96219910D01*
X118140386Y-96149000D01*
X118181683Y-96091250D01*
X118193053Y-96083315D01*
X118249348Y-96048478D01*
X118374305Y-95923303D01*
X118467115Y-95772738D01*
X118522797Y-95604861D01*
X118533500Y-95500400D01*
X118533500Y-94699600D01*
X118522526Y-94593834D01*
X118514365Y-94569371D01*
X118468868Y-94433002D01*
X118466550Y-94426054D01*
X118373478Y-94275652D01*
X118248303Y-94150695D01*
X118242072Y-94146854D01*
X118103968Y-94061725D01*
X118103966Y-94061724D01*
X118097738Y-94057885D01*
X117937254Y-94004655D01*
X117936389Y-94004368D01*
X117936387Y-94004368D01*
X117929861Y-94002203D01*
X117923025Y-94001503D01*
X117923022Y-94001502D01*
X117879969Y-93997091D01*
X117825400Y-93991500D01*
X116474600Y-93991500D01*
X116471354Y-93991837D01*
X116471350Y-93991837D01*
X116375692Y-94001762D01*
X116375688Y-94001763D01*
X116368834Y-94002474D01*
X116362298Y-94004655D01*
X116362296Y-94004655D01*
X116230194Y-94048728D01*
X116201054Y-94058450D01*
X116050652Y-94151522D01*
X115925695Y-94276697D01*
X115832885Y-94427262D01*
X115830581Y-94434209D01*
X115783989Y-94574681D01*
X115777203Y-94595139D01*
X115766500Y-94699600D01*
X115766500Y-95500400D01*
X78993652Y-95500400D01*
X79031251Y-95467559D01*
X79076670Y-95446380D01*
X79081654Y-95444056D01*
X79086152Y-95440907D01*
X79086158Y-95440903D01*
X79257527Y-95320908D01*
X79257529Y-95320906D01*
X79262038Y-95317749D01*
X79417749Y-95162038D01*
X79544056Y-94981653D01*
X79546379Y-94976671D01*
X79546382Y-94976666D01*
X79634795Y-94787061D01*
X79637120Y-94782076D01*
X79694115Y-94569371D01*
X79713307Y-94350000D01*
X79694115Y-94130629D01*
X79637120Y-93917924D01*
X79593585Y-93824562D01*
X79546382Y-93723334D01*
X79546379Y-93723329D01*
X79544056Y-93718347D01*
X79417749Y-93537962D01*
X79262038Y-93382251D01*
X79081654Y-93255944D01*
X78882076Y-93162880D01*
X78669371Y-93105885D01*
X78450000Y-93086693D01*
X78230629Y-93105885D01*
X78017924Y-93162880D01*
X77924562Y-93206415D01*
X77823334Y-93253618D01*
X77823329Y-93253621D01*
X77818347Y-93255944D01*
X77813840Y-93259100D01*
X77813838Y-93259101D01*
X77642473Y-93379092D01*
X77642470Y-93379094D01*
X77637962Y-93382251D01*
X77482251Y-93537962D01*
X77355944Y-93718347D01*
X77353621Y-93723329D01*
X77353618Y-93723334D01*
X77306415Y-93824562D01*
X77262880Y-93917924D01*
X77205885Y-94130629D01*
X77186693Y-94350000D01*
X77205885Y-94569371D01*
X77262880Y-94782076D01*
X77265205Y-94787061D01*
X77353619Y-94976666D01*
X77355944Y-94981653D01*
X77402484Y-95048120D01*
X77418713Y-95071297D01*
X77441500Y-95143567D01*
X77441500Y-95953689D01*
X77421498Y-96021810D01*
X77381804Y-96060833D01*
X77275652Y-96126522D01*
X77150695Y-96251697D01*
X77057885Y-96402262D01*
X77055581Y-96409209D01*
X77014349Y-96533521D01*
X77002203Y-96570139D01*
X76991500Y-96674600D01*
X76991500Y-97300400D01*
X76991837Y-97303646D01*
X76991837Y-97303650D01*
X76998452Y-97367399D01*
X77002474Y-97406166D01*
X77058450Y-97573946D01*
X77151522Y-97724348D01*
X77156704Y-97729521D01*
X77238109Y-97810784D01*
X77272188Y-97873066D01*
X77267185Y-97943886D01*
X77238264Y-97988975D01*
X77194385Y-98032931D01*
X77150695Y-98076697D01*
X77146855Y-98082927D01*
X77146854Y-98082928D01*
X77073374Y-98202135D01*
X77057885Y-98227262D01*
X77055581Y-98234209D01*
X77021589Y-98336693D01*
X77002203Y-98395139D01*
X76991500Y-98499600D01*
X76991500Y-99125400D01*
X77002474Y-99231166D01*
X77004655Y-99237702D01*
X77004655Y-99237704D01*
X77026274Y-99302503D01*
X77028858Y-99373452D01*
X76995845Y-99431475D01*
X76808400Y-99618919D01*
X76622723Y-99804596D01*
X76560411Y-99838621D01*
X76533628Y-99841500D01*
X75791437Y-99841500D01*
X75723316Y-99821498D01*
X75702419Y-99804673D01*
X75628483Y-99730866D01*
X75623303Y-99725695D01*
X75582746Y-99700695D01*
X75478968Y-99636725D01*
X75478966Y-99636724D01*
X75472738Y-99632885D01*
X75312254Y-99579655D01*
X75311389Y-99579368D01*
X75311387Y-99579368D01*
X75304861Y-99577203D01*
X75298025Y-99576503D01*
X75298022Y-99576502D01*
X75254969Y-99572091D01*
X75200400Y-99566500D01*
X74199600Y-99566500D01*
X74196354Y-99566837D01*
X74196350Y-99566837D01*
X74100692Y-99576762D01*
X74100688Y-99576763D01*
X74093834Y-99577474D01*
X74087298Y-99579655D01*
X74087296Y-99579655D01*
X73955194Y-99623728D01*
X73926054Y-99633450D01*
X73775652Y-99726522D01*
X73770479Y-99731704D01*
X73710270Y-99792018D01*
X73647987Y-99826097D01*
X73621097Y-99829000D01*
X73328959Y-99829000D01*
X73260838Y-99808998D01*
X73239941Y-99792173D01*
X73153484Y-99705866D01*
X73153479Y-99705862D01*
X73148303Y-99700695D01*
X73142072Y-99696854D01*
X73003968Y-99611725D01*
X73003966Y-99611724D01*
X72997738Y-99607885D01*
X72903121Y-99576502D01*
X72836389Y-99554368D01*
X72836387Y-99554368D01*
X72829861Y-99552203D01*
X72823025Y-99551503D01*
X72823022Y-99551502D01*
X72779969Y-99547091D01*
X72725400Y-99541500D01*
X72166371Y-99541500D01*
X72098250Y-99521498D01*
X72077276Y-99504595D01*
X71583770Y-99011089D01*
X71571384Y-98996677D01*
X71562851Y-98985082D01*
X71562846Y-98985077D01*
X71558508Y-98979182D01*
X71552930Y-98974443D01*
X71552927Y-98974440D01*
X71518232Y-98944965D01*
X71510716Y-98938035D01*
X71505021Y-98932340D01*
X71498880Y-98927482D01*
X71482749Y-98914719D01*
X71479345Y-98911928D01*
X71429297Y-98869409D01*
X71429295Y-98869408D01*
X71423715Y-98864667D01*
X71417199Y-98861339D01*
X71412150Y-98857972D01*
X71407021Y-98854805D01*
X71401284Y-98850266D01*
X71335125Y-98819345D01*
X71331225Y-98817439D01*
X71266192Y-98784231D01*
X71259084Y-98782492D01*
X71253441Y-98780393D01*
X71247678Y-98778476D01*
X71241050Y-98775378D01*
X71169583Y-98760513D01*
X71165299Y-98759543D01*
X71094390Y-98742192D01*
X71088788Y-98741844D01*
X71088785Y-98741844D01*
X71083236Y-98741500D01*
X71083238Y-98741464D01*
X71079245Y-98741225D01*
X71075053Y-98740851D01*
X71067885Y-98739360D01*
X71001675Y-98741151D01*
X70990479Y-98741454D01*
X70987072Y-98741500D01*
X69516480Y-98741500D01*
X69448359Y-98721498D01*
X69427462Y-98704673D01*
X69351750Y-98629092D01*
X69323303Y-98600695D01*
X69275348Y-98571135D01*
X69178968Y-98511725D01*
X69178966Y-98511724D01*
X69172738Y-98507885D01*
X69012254Y-98454655D01*
X69011389Y-98454368D01*
X69011387Y-98454368D01*
X69004861Y-98452203D01*
X68998025Y-98451503D01*
X68998022Y-98451502D01*
X68954969Y-98447091D01*
X68900400Y-98441500D01*
X67499600Y-98441500D01*
X67496354Y-98441837D01*
X67496350Y-98441837D01*
X67400692Y-98451762D01*
X67400688Y-98451763D01*
X67393834Y-98452474D01*
X67387298Y-98454655D01*
X67387296Y-98454655D01*
X67262322Y-98496350D01*
X67226054Y-98508450D01*
X67219822Y-98512307D01*
X67219821Y-98512307D01*
X67195336Y-98527458D01*
X67126884Y-98546295D01*
X67056765Y-98523527D01*
X67031654Y-98505944D01*
X66832076Y-98412880D01*
X66619371Y-98355885D01*
X66400000Y-98336693D01*
X66180629Y-98355885D01*
X65967924Y-98412880D01*
X65885099Y-98451502D01*
X65773334Y-98503618D01*
X65773329Y-98503621D01*
X65768347Y-98505944D01*
X65763840Y-98509100D01*
X65763838Y-98509101D01*
X65592473Y-98629092D01*
X65592470Y-98629094D01*
X65587962Y-98632251D01*
X65432251Y-98787962D01*
X65429094Y-98792470D01*
X65429092Y-98792473D01*
X65324633Y-98941656D01*
X65305944Y-98968347D01*
X65303621Y-98973329D01*
X65303618Y-98973334D01*
X65289158Y-99004345D01*
X65212880Y-99167924D01*
X65155885Y-99380629D01*
X65136693Y-99600000D01*
X60908500Y-99600000D01*
X60908500Y-96748143D01*
X60909578Y-96731697D01*
X60912673Y-96708188D01*
X60913751Y-96700000D01*
X60895622Y-96562296D01*
X60893916Y-96549338D01*
X60892838Y-96541150D01*
X60831524Y-96393125D01*
X60745844Y-96281465D01*
X60739016Y-96272566D01*
X60739013Y-96272563D01*
X60733987Y-96266013D01*
X60723451Y-96257928D01*
X60713968Y-96250652D01*
X60713967Y-96250651D01*
X60613426Y-96173502D01*
X60606876Y-96168476D01*
X60599250Y-96165317D01*
X60599248Y-96165316D01*
X60466480Y-96110322D01*
X60466477Y-96110321D01*
X60458850Y-96107162D01*
X60300000Y-96086249D01*
X60291812Y-96087327D01*
X60268303Y-96090422D01*
X60251857Y-96091500D01*
X56848143Y-96091500D01*
X56831697Y-96090422D01*
X56808188Y-96087327D01*
X56800000Y-96086249D01*
X56760115Y-96091500D01*
X56641150Y-96107162D01*
X56633523Y-96110321D01*
X56633520Y-96110322D01*
X56582718Y-96131365D01*
X56512128Y-96138954D01*
X56448641Y-96107174D01*
X56412414Y-96046116D01*
X56408500Y-96014956D01*
X56408500Y-92234500D01*
X56428502Y-92166379D01*
X56482158Y-92119886D01*
X56534500Y-92108500D01*
X119865500Y-92108500D01*
X119933621Y-92128502D01*
G37*
G04 #@! TD.AperFunction*
G04 #@! TD*
M02*
