G04 #@! TF.GenerationSoftware,KiCad,Pcbnew,(6.0.4)*
G04 #@! TF.CreationDate,2022-04-05T12:43:48+02:00*
G04 #@! TF.ProjectId,Sonda_w_cz,536f6e64-615f-4775-9f63-7a2e6b696361,rev?*
G04 #@! TF.SameCoordinates,Original*
G04 #@! TF.FileFunction,Paste,Top*
G04 #@! TF.FilePolarity,Positive*
%FSLAX46Y46*%
G04 Gerber Fmt 4.6, Leading zero omitted, Abs format (unit mm)*
G04 Created by KiCad (PCBNEW (6.0.4)) date 2022-04-05 12:43:48*
%MOMM*%
%LPD*%
G01*
G04 APERTURE LIST*
G04 Aperture macros list*
%AMRoundRect*
0 Rectangle with rounded corners*
0 $1 Rounding radius*
0 $2 $3 $4 $5 $6 $7 $8 $9 X,Y pos of 4 corners*
0 Add a 4 corners polygon primitive as box body*
4,1,4,$2,$3,$4,$5,$6,$7,$8,$9,$2,$3,0*
0 Add four circle primitives for the rounded corners*
1,1,$1+$1,$2,$3*
1,1,$1+$1,$4,$5*
1,1,$1+$1,$6,$7*
1,1,$1+$1,$8,$9*
0 Add four rect primitives between the rounded corners*
20,1,$1+$1,$2,$3,$4,$5,0*
20,1,$1+$1,$4,$5,$6,$7,0*
20,1,$1+$1,$6,$7,$8,$9,0*
20,1,$1+$1,$8,$9,$2,$3,0*%
G04 Aperture macros list end*
%ADD10RoundRect,0.250000X0.325000X0.650000X-0.325000X0.650000X-0.325000X-0.650000X0.325000X-0.650000X0*%
%ADD11RoundRect,0.250000X0.262500X0.450000X-0.262500X0.450000X-0.262500X-0.450000X0.262500X-0.450000X0*%
%ADD12RoundRect,0.250000X0.475000X-0.250000X0.475000X0.250000X-0.475000X0.250000X-0.475000X-0.250000X0*%
%ADD13R,1.500000X2.000000*%
%ADD14R,3.800000X2.000000*%
%ADD15RoundRect,0.250000X-0.475000X0.250000X-0.475000X-0.250000X0.475000X-0.250000X0.475000X0.250000X0*%
%ADD16RoundRect,0.250000X0.450000X-0.262500X0.450000X0.262500X-0.450000X0.262500X-0.450000X-0.262500X0*%
%ADD17R,0.700000X1.000000*%
%ADD18R,0.700000X0.600000*%
%ADD19RoundRect,0.250000X-0.650000X0.325000X-0.650000X-0.325000X0.650000X-0.325000X0.650000X0.325000X0*%
%ADD20RoundRect,0.250000X0.250000X0.475000X-0.250000X0.475000X-0.250000X-0.475000X0.250000X-0.475000X0*%
%ADD21RoundRect,0.250000X-0.450000X0.262500X-0.450000X-0.262500X0.450000X-0.262500X0.450000X0.262500X0*%
%ADD22RoundRect,0.250000X-0.262500X-0.450000X0.262500X-0.450000X0.262500X0.450000X-0.262500X0.450000X0*%
%ADD23R,0.450000X0.700000*%
%ADD24R,1.800000X2.500000*%
G04 APERTURE END LIST*
D10*
G04 #@! TO.C,C7*
X100075000Y-95800000D03*
X97125000Y-95800000D03*
G04 #@! TD*
D11*
G04 #@! TO.C,R5*
X79112500Y-98300000D03*
X77287500Y-98300000D03*
G04 #@! TD*
D12*
G04 #@! TO.C,C11*
X87000000Y-96050000D03*
X87000000Y-94150000D03*
G04 #@! TD*
D13*
G04 #@! TO.C,U1*
X102400000Y-100750000D03*
D14*
X104700000Y-94450000D03*
D13*
X104700000Y-100750000D03*
X107000000Y-100750000D03*
G04 #@! TD*
D15*
G04 #@! TO.C,C17*
X74600000Y-102050000D03*
X74600000Y-103950000D03*
G04 #@! TD*
G04 #@! TO.C,C8*
X62000000Y-102050000D03*
X62000000Y-103950000D03*
G04 #@! TD*
D16*
G04 #@! TO.C,R4*
X75300000Y-96012500D03*
X75300000Y-94187500D03*
G04 #@! TD*
D17*
G04 #@! TO.C,Q1*
X70400000Y-98350000D03*
D18*
X70400000Y-96650000D03*
X68400000Y-96650000D03*
X68400000Y-98550000D03*
G04 #@! TD*
D15*
G04 #@! TO.C,C1*
X116200000Y-102450000D03*
X116200000Y-104350000D03*
G04 #@! TD*
D19*
G04 #@! TO.C,C18*
X87900000Y-99825000D03*
X87900000Y-102775000D03*
G04 #@! TD*
D20*
G04 #@! TO.C,C12*
X70350000Y-94200000D03*
X68450000Y-94200000D03*
G04 #@! TD*
D15*
G04 #@! TO.C,C5*
X99300000Y-102950000D03*
X99300000Y-104850000D03*
G04 #@! TD*
D19*
G04 #@! TO.C,C2*
X109000000Y-102425000D03*
X109000000Y-105375000D03*
G04 #@! TD*
D12*
G04 #@! TO.C,C10*
X81300000Y-95950000D03*
X81300000Y-94050000D03*
G04 #@! TD*
D11*
G04 #@! TO.C,R2*
X99912500Y-98200000D03*
X98087500Y-98200000D03*
G04 #@! TD*
D12*
G04 #@! TO.C,C4*
X90600000Y-96050000D03*
X90600000Y-94150000D03*
G04 #@! TD*
D21*
G04 #@! TO.C,R8*
X63500000Y-94287500D03*
X63500000Y-96112500D03*
G04 #@! TD*
D22*
G04 #@! TO.C,R9*
X79687500Y-103200000D03*
X81512500Y-103200000D03*
G04 #@! TD*
G04 #@! TO.C,R1*
X98287500Y-100700000D03*
X100112500Y-100700000D03*
G04 #@! TD*
D15*
G04 #@! TO.C,C16*
X90500000Y-100450000D03*
X90500000Y-102350000D03*
G04 #@! TD*
G04 #@! TO.C,C14*
X68100000Y-102050000D03*
X68100000Y-103950000D03*
G04 #@! TD*
D16*
G04 #@! TO.C,R7*
X71300000Y-103912500D03*
X71300000Y-102087500D03*
G04 #@! TD*
D19*
G04 #@! TO.C,C6*
X104700000Y-102525000D03*
X104700000Y-105475000D03*
G04 #@! TD*
D15*
G04 #@! TO.C,C15*
X64900000Y-102050000D03*
X64900000Y-103950000D03*
G04 #@! TD*
G04 #@! TO.C,C3*
X112500000Y-102450000D03*
X112500000Y-104350000D03*
G04 #@! TD*
D23*
G04 #@! TO.C,Q2*
X83350000Y-99600000D03*
X84650000Y-99600000D03*
X84000000Y-97600000D03*
G04 #@! TD*
D24*
G04 #@! TO.C,D1*
X110700000Y-99500000D03*
X110700000Y-95500000D03*
G04 #@! TD*
M02*
