M48
; DRILL file {KiCad (6.0.4)} date Tue May  3 12:05:29 2022
; FORMAT={-:-/ absolute / metric / decimal}
; #@! TF.CreationDate,2022-05-03T12:05:29+02:00
; #@! TF.GenerationSoftware,Kicad,Pcbnew,(6.0.4)
; #@! TF.FileFunction,Plated,1,2,PTH
FMAT,2
METRIC
; #@! TA.AperFunction,Plated,PTH,ViaDrill
T1C0.400
; #@! TA.AperFunction,Plated,PTH,ComponentDrill
T2C0.750
; #@! TA.AperFunction,Plated,PTH,ComponentDrill
T3C0.800
; #@! TA.AperFunction,Plated,PTH,ComponentDrill
T4C0.900
; #@! TA.AperFunction,Plated,PTH,ComponentDrill
T5C1.100
; #@! TA.AperFunction,Plated,PTH,ComponentDrill
T6C1.190
; #@! TA.AperFunction,Plated,PTH,ComponentDrill
T7C1.200
; #@! TA.AperFunction,Plated,PTH,ComponentDrill
T8C1.300
; #@! TA.AperFunction,Plated,PTH,ComponentDrill
T9C1.600
; #@! TA.AperFunction,Plated,PTH,ComponentDrill
T10C2.500
%
G90
G05
T1
X82.2Y-105.6
X85.7Y-103.7
X93.3Y-86.5
X93.8Y-103.7
X102.7Y-67.4
X109.5Y-67.4
X112.6Y-99.9
X112.6Y-106.1
X139.5Y-69.1
X139.5Y-82.3
T2
X106.9Y-89.95
X108.9Y-89.95
T3
X87.65Y-106.7
X88.55Y-74.0
X95.15Y-106.7
X96.05Y-74.0
X98.72Y-83.1
X100.9Y-74.4
X100.9Y-79.4
X102.6Y-98.7
X102.6Y-103.7
X102.62Y-108.5
X103.92Y-95.6
X105.92Y-75.3
X108.88Y-83.1
X112.78Y-108.5
X114.08Y-95.6
X114.5Y-81.9
X114.5Y-92.06
X116.08Y-75.3
X123.95Y-63.4
X124.05Y-116.3
X131.45Y-63.4
X131.55Y-116.3
T4
X98.725Y-89.9
X101.265Y-89.9
T5
X102.52Y-111.8
X105.92Y-71.9
X106.96Y-63.3
X106.96Y-116.655
X109.5Y-63.3
X109.5Y-116.655
X112.04Y-63.3
X112.04Y-116.655
X112.68Y-111.8
X116.08Y-71.9
T6
X90.66Y-66.08
X90.8Y-113.95
X93.2Y-66.08
X93.34Y-113.95
X95.74Y-66.08
X95.88Y-113.95
X160.0Y-74.66
X160.0Y-77.2
T7
X88.324Y-83.4
X88.476Y-97.4
X93.324Y-83.4
X93.476Y-97.4
X127.8Y-73.622
X127.8Y-81.122
X128.0Y-98.722
X128.0Y-106.222
X143.9Y-65.4
X143.9Y-87.8
X144.0Y-91.9
X144.0Y-114.3
T8
X160.0Y-85.85
X160.0Y-91.05
X160.0Y-101.15
X160.0Y-106.35
T9
X151.1Y-69.78
X151.1Y-85.02
X151.1Y-95.18
X151.1Y-110.42
T10
X83.3Y-64.9
X83.5Y-115.5
X160.2Y-65.0
X160.2Y-115.3
T0
M30
