%FSLAX45Y45*%
G04 Gerber Fmt 4.5, Leading zero omitted, Abs format (unit mm)*
G04 Created by KiCad (PCBNEW (6.0.4)) date 2022-05-03 12:05:39*
%MOMM*%
%LPD*%
G01*
G04 APERTURE LIST*
%TA.AperFunction,Profile*%
%ADD10C,0.100000*%
%TD*%
%ADD11C,0.200000*%
%ADD12C,0.040000*%
%ADD13C,0.075000*%
%ADD14C,0.080000*%
%ADD15C,0.090000*%
%ADD16C,0.110000*%
%ADD17C,0.119000*%
%ADD18C,0.120000*%
%ADD19C,0.130000*%
%ADD20C,0.160000*%
%ADD21C,0.250000*%
G04 APERTURE END LIST*
D10*
X7910000Y-6000000D02*
X16460000Y-6000000D01*
X16460000Y-6000000D02*
X16460000Y-12000000D01*
X16460000Y-12000000D02*
X7910000Y-12000000D01*
X7910000Y-12000000D02*
X7910000Y-6000000D01*
D11*
D12*
X8200000Y-10540000D02*
X8240000Y-10580000D01*
X8240000Y-10540000D02*
X8200000Y-10580000D01*
X8550000Y-10350000D02*
X8590000Y-10390000D01*
X8590000Y-10350000D02*
X8550000Y-10390000D01*
X9310000Y-8630000D02*
X9350000Y-8670000D01*
X9350000Y-8630000D02*
X9310000Y-8670000D01*
X9360000Y-10350000D02*
X9400000Y-10390000D01*
X9400000Y-10350000D02*
X9360000Y-10390000D01*
X10250000Y-6720000D02*
X10290000Y-6760000D01*
X10290000Y-6720000D02*
X10250000Y-6760000D01*
X10930000Y-6720000D02*
X10970000Y-6760000D01*
X10970000Y-6720000D02*
X10930000Y-6760000D01*
X11240000Y-9970000D02*
X11280000Y-10010000D01*
X11280000Y-9970000D02*
X11240000Y-10010000D01*
X11240000Y-10590000D02*
X11280000Y-10630000D01*
X11280000Y-10590000D02*
X11240000Y-10630000D01*
X13930000Y-6890000D02*
X13970000Y-6930000D01*
X13970000Y-6890000D02*
X13930000Y-6930000D01*
X13930000Y-8210000D02*
X13970000Y-8250000D01*
X13970000Y-8210000D02*
X13930000Y-8250000D01*
D13*
X10727500Y-8995000D02*
G75*
G03*
X10727500Y-8995000I-37500J0D01*
G01*
X10927500Y-8995000D02*
G75*
G03*
X10927500Y-8995000I-37500J0D01*
G01*
D14*
X8765000Y-10630000D02*
X8765000Y-10710000D01*
X8725000Y-10670000D02*
X8805000Y-10670000D01*
X8855000Y-7360000D02*
X8855000Y-7440000D01*
X8815000Y-7400000D02*
X8895000Y-7400000D01*
X9515000Y-10630000D02*
X9515000Y-10710000D01*
X9475000Y-10670000D02*
X9555000Y-10670000D01*
X9605000Y-7360000D02*
X9605000Y-7440000D01*
X9565000Y-7400000D02*
X9645000Y-7400000D01*
X9872000Y-8270000D02*
X9872000Y-8350000D01*
X9832000Y-8310000D02*
X9912000Y-8310000D01*
X10090000Y-7400000D02*
X10090000Y-7480000D01*
X10050000Y-7440000D02*
X10130000Y-7440000D01*
X10090000Y-7900000D02*
X10090000Y-7980000D01*
X10050000Y-7940000D02*
X10130000Y-7940000D01*
X10260000Y-9830000D02*
X10260000Y-9910000D01*
X10220000Y-9870000D02*
X10300000Y-9870000D01*
X10260000Y-10330000D02*
X10260000Y-10410000D01*
X10220000Y-10370000D02*
X10300000Y-10370000D01*
X10262000Y-10810000D02*
X10262000Y-10890000D01*
X10222000Y-10850000D02*
X10302000Y-10850000D01*
X10392000Y-9520000D02*
X10392000Y-9600000D01*
X10352000Y-9560000D02*
X10432000Y-9560000D01*
X10592000Y-7490000D02*
X10592000Y-7570000D01*
X10552000Y-7530000D02*
X10632000Y-7530000D01*
X10888000Y-8270000D02*
X10888000Y-8350000D01*
X10848000Y-8310000D02*
X10928000Y-8310000D01*
X11278000Y-10810000D02*
X11278000Y-10890000D01*
X11238000Y-10850000D02*
X11318000Y-10850000D01*
X11408000Y-9520000D02*
X11408000Y-9600000D01*
X11368000Y-9560000D02*
X11448000Y-9560000D01*
X11450000Y-8150000D02*
X11450000Y-8230000D01*
X11410000Y-8190000D02*
X11490000Y-8190000D01*
X11450000Y-9166000D02*
X11450000Y-9246000D01*
X11410000Y-9206000D02*
X11490000Y-9206000D01*
X11608000Y-7490000D02*
X11608000Y-7570000D01*
X11568000Y-7530000D02*
X11648000Y-7530000D01*
X12395000Y-6300000D02*
X12395000Y-6380000D01*
X12355000Y-6340000D02*
X12435000Y-6340000D01*
X12405000Y-11590000D02*
X12405000Y-11670000D01*
X12365000Y-11630000D02*
X12445000Y-11630000D01*
X13145000Y-6300000D02*
X13145000Y-6380000D01*
X13105000Y-6340000D02*
X13185000Y-6340000D01*
X13155000Y-11590000D02*
X13155000Y-11670000D01*
X13115000Y-11630000D02*
X13195000Y-11630000D01*
D15*
X9904320Y-9021820D02*
X9904320Y-8958180D01*
X9840680Y-8958180D01*
X9840680Y-9021820D01*
X9904320Y-9021820D01*
X10158320Y-9021820D02*
X10158320Y-8958180D01*
X10094680Y-8958180D01*
X10094680Y-9021820D01*
X10158320Y-9021820D01*
D16*
X10252000Y-11235000D02*
X10307000Y-11180000D01*
X10252000Y-11125000D01*
X10197000Y-11180000D01*
X10252000Y-11235000D01*
X10592000Y-7245000D02*
X10647000Y-7190000D01*
X10592000Y-7135000D01*
X10537000Y-7190000D01*
X10592000Y-7245000D01*
X10696000Y-6385000D02*
X10751000Y-6330000D01*
X10696000Y-6275000D01*
X10641000Y-6330000D01*
X10696000Y-6385000D01*
X10696000Y-11720500D02*
X10751000Y-11665500D01*
X10696000Y-11610500D01*
X10641000Y-11665500D01*
X10696000Y-11720500D01*
X10950000Y-6385000D02*
X11005000Y-6330000D01*
X10950000Y-6275000D01*
X10895000Y-6330000D01*
X10950000Y-6385000D01*
X10950000Y-11720500D02*
X11005000Y-11665500D01*
X10950000Y-11610500D01*
X10895000Y-11665500D01*
X10950000Y-11720500D01*
X11204000Y-6385000D02*
X11259000Y-6330000D01*
X11204000Y-6275000D01*
X11149000Y-6330000D01*
X11204000Y-6385000D01*
X11204000Y-11720500D02*
X11259000Y-11665500D01*
X11204000Y-11610500D01*
X11149000Y-11665500D01*
X11204000Y-11720500D01*
X11268000Y-11235000D02*
X11323000Y-11180000D01*
X11268000Y-11125000D01*
X11213000Y-11180000D01*
X11268000Y-11235000D01*
X11608000Y-7245000D02*
X11663000Y-7190000D01*
X11608000Y-7135000D01*
X11553000Y-7190000D01*
X11608000Y-7245000D01*
D17*
X9006500Y-6548500D02*
X9125500Y-6667500D01*
X9125500Y-6548500D02*
X9006500Y-6667500D01*
X9125500Y-6608000D02*
G75*
G03*
X9125500Y-6608000I-59500J0D01*
G01*
X9020500Y-11335500D02*
X9139500Y-11454500D01*
X9139500Y-11335500D02*
X9020500Y-11454500D01*
X9139500Y-11395000D02*
G75*
G03*
X9139500Y-11395000I-59500J0D01*
G01*
X9260500Y-6548500D02*
X9379500Y-6667500D01*
X9379500Y-6548500D02*
X9260500Y-6667500D01*
X9379500Y-6608000D02*
G75*
G03*
X9379500Y-6608000I-59500J0D01*
G01*
X9274500Y-11335500D02*
X9393500Y-11454500D01*
X9393500Y-11335500D02*
X9274500Y-11454500D01*
X9393500Y-11395000D02*
G75*
G03*
X9393500Y-11395000I-59500J0D01*
G01*
X9514500Y-6548500D02*
X9633500Y-6667500D01*
X9633500Y-6548500D02*
X9514500Y-6667500D01*
X9633500Y-6608000D02*
G75*
G03*
X9633500Y-6608000I-59500J0D01*
G01*
X9528500Y-11335500D02*
X9647500Y-11454500D01*
X9647500Y-11335500D02*
X9528500Y-11454500D01*
X9647500Y-11395000D02*
G75*
G03*
X9647500Y-11395000I-59500J0D01*
G01*
X15940500Y-7406500D02*
X16059500Y-7525500D01*
X16059500Y-7406500D02*
X15940500Y-7525500D01*
X16059500Y-7466000D02*
G75*
G03*
X16059500Y-7466000I-59500J0D01*
G01*
X15940500Y-7660500D02*
X16059500Y-7779500D01*
X16059500Y-7660500D02*
X15940500Y-7779500D01*
X16059500Y-7720000D02*
G75*
G03*
X16059500Y-7720000I-59500J0D01*
G01*
D18*
X8772396Y-8280000D02*
X8892396Y-8400000D01*
X8892396Y-8280000D02*
X8772396Y-8400000D01*
X8832396Y-8280000D02*
X8832396Y-8400000D01*
X8772396Y-8340000D02*
X8892396Y-8340000D01*
X8787604Y-9680000D02*
X8907604Y-9800000D01*
X8907604Y-9680000D02*
X8787604Y-9800000D01*
X8847604Y-9680000D02*
X8847604Y-9800000D01*
X8787604Y-9740000D02*
X8907604Y-9740000D01*
X9272396Y-8280000D02*
X9392396Y-8400000D01*
X9392396Y-8280000D02*
X9272396Y-8400000D01*
X9332396Y-8280000D02*
X9332396Y-8400000D01*
X9272396Y-8340000D02*
X9392396Y-8340000D01*
X9287604Y-9680000D02*
X9407604Y-9800000D01*
X9407604Y-9680000D02*
X9287604Y-9800000D01*
X9347604Y-9680000D02*
X9347604Y-9800000D01*
X9287604Y-9740000D02*
X9407604Y-9740000D01*
X12720000Y-7302222D02*
X12840000Y-7422222D01*
X12840000Y-7302222D02*
X12720000Y-7422222D01*
X12780000Y-7302222D02*
X12780000Y-7422222D01*
X12720000Y-7362222D02*
X12840000Y-7362222D01*
X12720000Y-8052222D02*
X12840000Y-8172222D01*
X12840000Y-8052222D02*
X12720000Y-8172222D01*
X12780000Y-8052222D02*
X12780000Y-8172222D01*
X12720000Y-8112222D02*
X12840000Y-8112222D01*
X12740000Y-9812222D02*
X12860000Y-9932222D01*
X12860000Y-9812222D02*
X12740000Y-9932222D01*
X12800000Y-9812222D02*
X12800000Y-9932222D01*
X12740000Y-9872222D02*
X12860000Y-9872222D01*
X12740000Y-10562222D02*
X12860000Y-10682222D01*
X12860000Y-10562222D02*
X12740000Y-10682222D01*
X12800000Y-10562222D02*
X12800000Y-10682222D01*
X12740000Y-10622222D02*
X12860000Y-10622222D01*
X14330000Y-6480000D02*
X14450000Y-6600000D01*
X14450000Y-6480000D02*
X14330000Y-6600000D01*
X14390000Y-6480000D02*
X14390000Y-6600000D01*
X14330000Y-6540000D02*
X14450000Y-6540000D01*
X14330000Y-8720000D02*
X14450000Y-8840000D01*
X14450000Y-8720000D02*
X14330000Y-8840000D01*
X14390000Y-8720000D02*
X14390000Y-8840000D01*
X14330000Y-8780000D02*
X14450000Y-8780000D01*
X14340000Y-9130000D02*
X14460000Y-9250000D01*
X14460000Y-9130000D02*
X14340000Y-9250000D01*
X14400000Y-9130000D02*
X14400000Y-9250000D01*
X14340000Y-9190000D02*
X14460000Y-9190000D01*
X14340000Y-11370000D02*
X14460000Y-11490000D01*
X14460000Y-11370000D02*
X14340000Y-11490000D01*
X14400000Y-11370000D02*
X14400000Y-11490000D01*
X14340000Y-11430000D02*
X14460000Y-11430000D01*
D19*
X15935000Y-8520000D02*
X16065000Y-8650000D01*
X16065000Y-8520000D02*
X15935000Y-8650000D01*
X16045962Y-8630962D02*
X16045962Y-8539038D01*
X15954038Y-8539038D01*
X15954038Y-8630962D01*
X16045962Y-8630962D01*
X15935000Y-9040000D02*
X16065000Y-9170000D01*
X16065000Y-9040000D02*
X15935000Y-9170000D01*
X16045962Y-9150962D02*
X16045962Y-9059038D01*
X15954038Y-9059038D01*
X15954038Y-9150962D01*
X16045962Y-9150962D01*
X15935000Y-10050000D02*
X16065000Y-10180000D01*
X16065000Y-10050000D02*
X15935000Y-10180000D01*
X16045962Y-10160962D02*
X16045962Y-10069038D01*
X15954038Y-10069038D01*
X15954038Y-10160962D01*
X16045962Y-10160962D01*
X15935000Y-10570000D02*
X16065000Y-10700000D01*
X16065000Y-10570000D02*
X15935000Y-10700000D01*
X16045962Y-10680962D02*
X16045962Y-10589038D01*
X15954038Y-10589038D01*
X15954038Y-10680962D01*
X16045962Y-10680962D01*
D20*
X15030000Y-6898000D02*
X15190000Y-7058000D01*
X15190000Y-6898000D02*
X15030000Y-7058000D01*
X15110000Y-7058000D02*
X15190000Y-6978000D01*
X15110000Y-6898000D01*
X15030000Y-6978000D01*
X15110000Y-7058000D01*
X15030000Y-8422000D02*
X15190000Y-8582000D01*
X15190000Y-8422000D02*
X15030000Y-8582000D01*
X15110000Y-8582000D02*
X15190000Y-8502000D01*
X15110000Y-8422000D01*
X15030000Y-8502000D01*
X15110000Y-8582000D01*
X15030000Y-9438000D02*
X15190000Y-9598000D01*
X15190000Y-9438000D02*
X15030000Y-9598000D01*
X15110000Y-9598000D02*
X15190000Y-9518000D01*
X15110000Y-9438000D01*
X15030000Y-9518000D01*
X15110000Y-9598000D01*
X15030000Y-10962000D02*
X15190000Y-11122000D01*
X15190000Y-10962000D02*
X15030000Y-11122000D01*
X15110000Y-11122000D02*
X15190000Y-11042000D01*
X15110000Y-10962000D01*
X15030000Y-11042000D01*
X15110000Y-11122000D01*
D21*
X8330000Y-6365000D02*
X8330000Y-6615000D01*
X8205000Y-6490000D02*
X8455000Y-6490000D01*
X8455000Y-6490000D02*
G75*
G03*
X8455000Y-6490000I-125000J0D01*
G01*
X8350000Y-11425000D02*
X8350000Y-11675000D01*
X8225000Y-11550000D02*
X8475000Y-11550000D01*
X8475000Y-11550000D02*
G75*
G03*
X8475000Y-11550000I-125000J0D01*
G01*
X16020000Y-6375000D02*
X16020000Y-6625000D01*
X15895000Y-6500000D02*
X16145000Y-6500000D01*
X16145000Y-6500000D02*
G75*
G03*
X16145000Y-6500000I-125000J0D01*
G01*
X16020000Y-11405000D02*
X16020000Y-11655000D01*
X15895000Y-11530000D02*
X16145000Y-11530000D01*
X16145000Y-11530000D02*
G75*
G03*
X16145000Y-11530000I-125000J0D01*
G01*
D11*
X8162619Y-12315476D02*
X8162619Y-12115476D01*
X8210238Y-12115476D01*
X8238809Y-12125000D01*
X8257857Y-12144048D01*
X8267381Y-12163095D01*
X8276905Y-12201190D01*
X8276905Y-12229762D01*
X8267381Y-12267857D01*
X8257857Y-12286905D01*
X8238809Y-12305952D01*
X8210238Y-12315476D01*
X8162619Y-12315476D01*
X8362619Y-12315476D02*
X8362619Y-12182143D01*
X8362619Y-12220238D02*
X8372143Y-12201190D01*
X8381667Y-12191667D01*
X8400714Y-12182143D01*
X8419762Y-12182143D01*
X8486429Y-12315476D02*
X8486429Y-12182143D01*
X8486429Y-12115476D02*
X8476905Y-12125000D01*
X8486429Y-12134524D01*
X8495952Y-12125000D01*
X8486429Y-12115476D01*
X8486429Y-12134524D01*
X8610238Y-12315476D02*
X8591190Y-12305952D01*
X8581667Y-12286905D01*
X8581667Y-12115476D01*
X8715000Y-12315476D02*
X8695952Y-12305952D01*
X8686429Y-12286905D01*
X8686429Y-12115476D01*
X8943571Y-12315476D02*
X8943571Y-12115476D01*
X9010238Y-12258333D01*
X9076905Y-12115476D01*
X9076905Y-12315476D01*
X9257857Y-12315476D02*
X9257857Y-12210714D01*
X9248333Y-12191667D01*
X9229286Y-12182143D01*
X9191190Y-12182143D01*
X9172143Y-12191667D01*
X9257857Y-12305952D02*
X9238810Y-12315476D01*
X9191190Y-12315476D01*
X9172143Y-12305952D01*
X9162619Y-12286905D01*
X9162619Y-12267857D01*
X9172143Y-12248809D01*
X9191190Y-12239286D01*
X9238810Y-12239286D01*
X9257857Y-12229762D01*
X9353095Y-12182143D02*
X9353095Y-12382143D01*
X9353095Y-12191667D02*
X9372143Y-12182143D01*
X9410238Y-12182143D01*
X9429286Y-12191667D01*
X9438810Y-12201190D01*
X9448333Y-12220238D01*
X9448333Y-12277381D01*
X9438810Y-12296428D01*
X9429286Y-12305952D01*
X9410238Y-12315476D01*
X9372143Y-12315476D01*
X9353095Y-12305952D01*
X9534048Y-12296428D02*
X9543571Y-12305952D01*
X9534048Y-12315476D01*
X9524524Y-12305952D01*
X9534048Y-12296428D01*
X9534048Y-12315476D01*
X9534048Y-12191667D02*
X9543571Y-12201190D01*
X9534048Y-12210714D01*
X9524524Y-12201190D01*
X9534048Y-12191667D01*
X9534048Y-12210714D01*
D12*
X7865000Y-12625000D02*
X7905000Y-12665000D01*
X7905000Y-12625000D02*
X7865000Y-12665000D01*
D11*
X8200714Y-12535476D02*
X8219762Y-12535476D01*
X8238809Y-12545000D01*
X8248333Y-12554524D01*
X8257857Y-12573571D01*
X8267381Y-12611667D01*
X8267381Y-12659286D01*
X8257857Y-12697381D01*
X8248333Y-12716428D01*
X8238809Y-12725952D01*
X8219762Y-12735476D01*
X8200714Y-12735476D01*
X8181667Y-12725952D01*
X8172143Y-12716428D01*
X8162619Y-12697381D01*
X8153095Y-12659286D01*
X8153095Y-12611667D01*
X8162619Y-12573571D01*
X8172143Y-12554524D01*
X8181667Y-12545000D01*
X8200714Y-12535476D01*
X8353095Y-12716428D02*
X8362619Y-12725952D01*
X8353095Y-12735476D01*
X8343571Y-12725952D01*
X8353095Y-12716428D01*
X8353095Y-12735476D01*
X8534048Y-12602143D02*
X8534048Y-12735476D01*
X8486429Y-12525952D02*
X8438810Y-12668809D01*
X8562619Y-12668809D01*
X8676905Y-12535476D02*
X8695952Y-12535476D01*
X8715000Y-12545000D01*
X8724524Y-12554524D01*
X8734048Y-12573571D01*
X8743571Y-12611667D01*
X8743571Y-12659286D01*
X8734048Y-12697381D01*
X8724524Y-12716428D01*
X8715000Y-12725952D01*
X8695952Y-12735476D01*
X8676905Y-12735476D01*
X8657857Y-12725952D01*
X8648333Y-12716428D01*
X8638810Y-12697381D01*
X8629286Y-12659286D01*
X8629286Y-12611667D01*
X8638810Y-12573571D01*
X8648333Y-12554524D01*
X8657857Y-12545000D01*
X8676905Y-12535476D01*
X8867381Y-12535476D02*
X8886429Y-12535476D01*
X8905476Y-12545000D01*
X8915000Y-12554524D01*
X8924524Y-12573571D01*
X8934048Y-12611667D01*
X8934048Y-12659286D01*
X8924524Y-12697381D01*
X8915000Y-12716428D01*
X8905476Y-12725952D01*
X8886429Y-12735476D01*
X8867381Y-12735476D01*
X8848333Y-12725952D01*
X8838810Y-12716428D01*
X8829286Y-12697381D01*
X8819762Y-12659286D01*
X8819762Y-12611667D01*
X8829286Y-12573571D01*
X8838810Y-12554524D01*
X8848333Y-12545000D01*
X8867381Y-12535476D01*
X9019762Y-12735476D02*
X9019762Y-12602143D01*
X9019762Y-12621190D02*
X9029286Y-12611667D01*
X9048333Y-12602143D01*
X9076905Y-12602143D01*
X9095952Y-12611667D01*
X9105476Y-12630714D01*
X9105476Y-12735476D01*
X9105476Y-12630714D02*
X9115000Y-12611667D01*
X9134048Y-12602143D01*
X9162619Y-12602143D01*
X9181667Y-12611667D01*
X9191190Y-12630714D01*
X9191190Y-12735476D01*
X9286429Y-12735476D02*
X9286429Y-12602143D01*
X9286429Y-12621190D02*
X9295952Y-12611667D01*
X9315000Y-12602143D01*
X9343571Y-12602143D01*
X9362619Y-12611667D01*
X9372143Y-12630714D01*
X9372143Y-12735476D01*
X9372143Y-12630714D02*
X9381667Y-12611667D01*
X9400714Y-12602143D01*
X9429286Y-12602143D01*
X9448333Y-12611667D01*
X9457857Y-12630714D01*
X9457857Y-12735476D01*
X9848333Y-12525952D02*
X9676905Y-12783095D01*
X10105476Y-12535476D02*
X10124524Y-12535476D01*
X10143571Y-12545000D01*
X10153095Y-12554524D01*
X10162619Y-12573571D01*
X10172143Y-12611667D01*
X10172143Y-12659286D01*
X10162619Y-12697381D01*
X10153095Y-12716428D01*
X10143571Y-12725952D01*
X10124524Y-12735476D01*
X10105476Y-12735476D01*
X10086429Y-12725952D01*
X10076905Y-12716428D01*
X10067381Y-12697381D01*
X10057857Y-12659286D01*
X10057857Y-12611667D01*
X10067381Y-12573571D01*
X10076905Y-12554524D01*
X10086429Y-12545000D01*
X10105476Y-12535476D01*
X10257857Y-12716428D02*
X10267381Y-12725952D01*
X10257857Y-12735476D01*
X10248333Y-12725952D01*
X10257857Y-12716428D01*
X10257857Y-12735476D01*
X10391190Y-12535476D02*
X10410238Y-12535476D01*
X10429286Y-12545000D01*
X10438810Y-12554524D01*
X10448333Y-12573571D01*
X10457857Y-12611667D01*
X10457857Y-12659286D01*
X10448333Y-12697381D01*
X10438810Y-12716428D01*
X10429286Y-12725952D01*
X10410238Y-12735476D01*
X10391190Y-12735476D01*
X10372143Y-12725952D01*
X10362619Y-12716428D01*
X10353095Y-12697381D01*
X10343571Y-12659286D01*
X10343571Y-12611667D01*
X10353095Y-12573571D01*
X10362619Y-12554524D01*
X10372143Y-12545000D01*
X10391190Y-12535476D01*
X10648333Y-12735476D02*
X10534048Y-12735476D01*
X10591190Y-12735476D02*
X10591190Y-12535476D01*
X10572143Y-12564048D01*
X10553095Y-12583095D01*
X10534048Y-12592619D01*
X10829286Y-12535476D02*
X10734048Y-12535476D01*
X10724524Y-12630714D01*
X10734048Y-12621190D01*
X10753095Y-12611667D01*
X10800714Y-12611667D01*
X10819762Y-12621190D01*
X10829286Y-12630714D01*
X10838810Y-12649762D01*
X10838810Y-12697381D01*
X10829286Y-12716428D01*
X10819762Y-12725952D01*
X10800714Y-12735476D01*
X10753095Y-12735476D01*
X10734048Y-12725952D01*
X10724524Y-12716428D01*
X10905476Y-12535476D02*
X11038810Y-12535476D01*
X10953095Y-12735476D01*
X11105476Y-12535476D02*
X11105476Y-12573571D01*
X11181667Y-12535476D02*
X11181667Y-12573571D01*
X11476905Y-12811667D02*
X11467381Y-12802143D01*
X11448333Y-12773571D01*
X11438809Y-12754524D01*
X11429286Y-12725952D01*
X11419762Y-12678333D01*
X11419762Y-12640238D01*
X11429286Y-12592619D01*
X11438809Y-12564048D01*
X11448333Y-12545000D01*
X11467381Y-12516428D01*
X11476905Y-12506905D01*
X11657857Y-12735476D02*
X11543571Y-12735476D01*
X11600714Y-12735476D02*
X11600714Y-12535476D01*
X11581667Y-12564048D01*
X11562619Y-12583095D01*
X11543571Y-12592619D01*
X11781667Y-12535476D02*
X11800714Y-12535476D01*
X11819762Y-12545000D01*
X11829286Y-12554524D01*
X11838809Y-12573571D01*
X11848333Y-12611667D01*
X11848333Y-12659286D01*
X11838809Y-12697381D01*
X11829286Y-12716428D01*
X11819762Y-12725952D01*
X11800714Y-12735476D01*
X11781667Y-12735476D01*
X11762619Y-12725952D01*
X11753095Y-12716428D01*
X11743571Y-12697381D01*
X11734048Y-12659286D01*
X11734048Y-12611667D01*
X11743571Y-12573571D01*
X11753095Y-12554524D01*
X11762619Y-12545000D01*
X11781667Y-12535476D01*
X12086428Y-12735476D02*
X12086428Y-12535476D01*
X12172143Y-12735476D02*
X12172143Y-12630714D01*
X12162619Y-12611667D01*
X12143571Y-12602143D01*
X12115000Y-12602143D01*
X12095952Y-12611667D01*
X12086428Y-12621190D01*
X12295952Y-12735476D02*
X12276905Y-12725952D01*
X12267381Y-12716428D01*
X12257857Y-12697381D01*
X12257857Y-12640238D01*
X12267381Y-12621190D01*
X12276905Y-12611667D01*
X12295952Y-12602143D01*
X12324524Y-12602143D01*
X12343571Y-12611667D01*
X12353095Y-12621190D01*
X12362619Y-12640238D01*
X12362619Y-12697381D01*
X12353095Y-12716428D01*
X12343571Y-12725952D01*
X12324524Y-12735476D01*
X12295952Y-12735476D01*
X12476905Y-12735476D02*
X12457857Y-12725952D01*
X12448333Y-12706905D01*
X12448333Y-12535476D01*
X12629286Y-12725952D02*
X12610238Y-12735476D01*
X12572143Y-12735476D01*
X12553095Y-12725952D01*
X12543571Y-12706905D01*
X12543571Y-12630714D01*
X12553095Y-12611667D01*
X12572143Y-12602143D01*
X12610238Y-12602143D01*
X12629286Y-12611667D01*
X12638809Y-12630714D01*
X12638809Y-12649762D01*
X12543571Y-12668809D01*
X12715000Y-12725952D02*
X12734048Y-12735476D01*
X12772143Y-12735476D01*
X12791190Y-12725952D01*
X12800714Y-12706905D01*
X12800714Y-12697381D01*
X12791190Y-12678333D01*
X12772143Y-12668809D01*
X12743571Y-12668809D01*
X12724524Y-12659286D01*
X12715000Y-12640238D01*
X12715000Y-12630714D01*
X12724524Y-12611667D01*
X12743571Y-12602143D01*
X12772143Y-12602143D01*
X12791190Y-12611667D01*
X12867381Y-12811667D02*
X12876905Y-12802143D01*
X12895952Y-12773571D01*
X12905476Y-12754524D01*
X12915000Y-12725952D01*
X12924524Y-12678333D01*
X12924524Y-12640238D01*
X12915000Y-12592619D01*
X12905476Y-12564048D01*
X12895952Y-12545000D01*
X12876905Y-12516428D01*
X12867381Y-12506905D01*
D13*
X7905000Y-12909000D02*
G75*
G03*
X7905000Y-12909000I-37500J0D01*
G01*
D11*
X8200714Y-12799476D02*
X8219762Y-12799476D01*
X8238809Y-12809000D01*
X8248333Y-12818524D01*
X8257857Y-12837571D01*
X8267381Y-12875667D01*
X8267381Y-12923286D01*
X8257857Y-12961381D01*
X8248333Y-12980428D01*
X8238809Y-12989952D01*
X8219762Y-12999476D01*
X8200714Y-12999476D01*
X8181667Y-12989952D01*
X8172143Y-12980428D01*
X8162619Y-12961381D01*
X8153095Y-12923286D01*
X8153095Y-12875667D01*
X8162619Y-12837571D01*
X8172143Y-12818524D01*
X8181667Y-12809000D01*
X8200714Y-12799476D01*
X8353095Y-12980428D02*
X8362619Y-12989952D01*
X8353095Y-12999476D01*
X8343571Y-12989952D01*
X8353095Y-12980428D01*
X8353095Y-12999476D01*
X8429286Y-12799476D02*
X8562619Y-12799476D01*
X8476905Y-12999476D01*
X8734048Y-12799476D02*
X8638810Y-12799476D01*
X8629286Y-12894714D01*
X8638810Y-12885190D01*
X8657857Y-12875667D01*
X8705476Y-12875667D01*
X8724524Y-12885190D01*
X8734048Y-12894714D01*
X8743571Y-12913762D01*
X8743571Y-12961381D01*
X8734048Y-12980428D01*
X8724524Y-12989952D01*
X8705476Y-12999476D01*
X8657857Y-12999476D01*
X8638810Y-12989952D01*
X8629286Y-12980428D01*
X8867381Y-12799476D02*
X8886429Y-12799476D01*
X8905476Y-12809000D01*
X8915000Y-12818524D01*
X8924524Y-12837571D01*
X8934048Y-12875667D01*
X8934048Y-12923286D01*
X8924524Y-12961381D01*
X8915000Y-12980428D01*
X8905476Y-12989952D01*
X8886429Y-12999476D01*
X8867381Y-12999476D01*
X8848333Y-12989952D01*
X8838810Y-12980428D01*
X8829286Y-12961381D01*
X8819762Y-12923286D01*
X8819762Y-12875667D01*
X8829286Y-12837571D01*
X8838810Y-12818524D01*
X8848333Y-12809000D01*
X8867381Y-12799476D01*
X9019762Y-12999476D02*
X9019762Y-12866143D01*
X9019762Y-12885190D02*
X9029286Y-12875667D01*
X9048333Y-12866143D01*
X9076905Y-12866143D01*
X9095952Y-12875667D01*
X9105476Y-12894714D01*
X9105476Y-12999476D01*
X9105476Y-12894714D02*
X9115000Y-12875667D01*
X9134048Y-12866143D01*
X9162619Y-12866143D01*
X9181667Y-12875667D01*
X9191190Y-12894714D01*
X9191190Y-12999476D01*
X9286429Y-12999476D02*
X9286429Y-12866143D01*
X9286429Y-12885190D02*
X9295952Y-12875667D01*
X9315000Y-12866143D01*
X9343571Y-12866143D01*
X9362619Y-12875667D01*
X9372143Y-12894714D01*
X9372143Y-12999476D01*
X9372143Y-12894714D02*
X9381667Y-12875667D01*
X9400714Y-12866143D01*
X9429286Y-12866143D01*
X9448333Y-12875667D01*
X9457857Y-12894714D01*
X9457857Y-12999476D01*
X9848333Y-12789952D02*
X9676905Y-13047095D01*
X10105476Y-12799476D02*
X10124524Y-12799476D01*
X10143571Y-12809000D01*
X10153095Y-12818524D01*
X10162619Y-12837571D01*
X10172143Y-12875667D01*
X10172143Y-12923286D01*
X10162619Y-12961381D01*
X10153095Y-12980428D01*
X10143571Y-12989952D01*
X10124524Y-12999476D01*
X10105476Y-12999476D01*
X10086429Y-12989952D01*
X10076905Y-12980428D01*
X10067381Y-12961381D01*
X10057857Y-12923286D01*
X10057857Y-12875667D01*
X10067381Y-12837571D01*
X10076905Y-12818524D01*
X10086429Y-12809000D01*
X10105476Y-12799476D01*
X10257857Y-12980428D02*
X10267381Y-12989952D01*
X10257857Y-12999476D01*
X10248333Y-12989952D01*
X10257857Y-12980428D01*
X10257857Y-12999476D01*
X10391190Y-12799476D02*
X10410238Y-12799476D01*
X10429286Y-12809000D01*
X10438810Y-12818524D01*
X10448333Y-12837571D01*
X10457857Y-12875667D01*
X10457857Y-12923286D01*
X10448333Y-12961381D01*
X10438810Y-12980428D01*
X10429286Y-12989952D01*
X10410238Y-12999476D01*
X10391190Y-12999476D01*
X10372143Y-12989952D01*
X10362619Y-12980428D01*
X10353095Y-12961381D01*
X10343571Y-12923286D01*
X10343571Y-12875667D01*
X10353095Y-12837571D01*
X10362619Y-12818524D01*
X10372143Y-12809000D01*
X10391190Y-12799476D01*
X10534048Y-12818524D02*
X10543571Y-12809000D01*
X10562619Y-12799476D01*
X10610238Y-12799476D01*
X10629286Y-12809000D01*
X10638810Y-12818524D01*
X10648333Y-12837571D01*
X10648333Y-12856619D01*
X10638810Y-12885190D01*
X10524524Y-12999476D01*
X10648333Y-12999476D01*
X10743571Y-12999476D02*
X10781667Y-12999476D01*
X10800714Y-12989952D01*
X10810238Y-12980428D01*
X10829286Y-12951857D01*
X10838810Y-12913762D01*
X10838810Y-12837571D01*
X10829286Y-12818524D01*
X10819762Y-12809000D01*
X10800714Y-12799476D01*
X10762619Y-12799476D01*
X10743571Y-12809000D01*
X10734048Y-12818524D01*
X10724524Y-12837571D01*
X10724524Y-12885190D01*
X10734048Y-12904238D01*
X10743571Y-12913762D01*
X10762619Y-12923286D01*
X10800714Y-12923286D01*
X10819762Y-12913762D01*
X10829286Y-12904238D01*
X10838810Y-12885190D01*
X11019762Y-12799476D02*
X10924524Y-12799476D01*
X10915000Y-12894714D01*
X10924524Y-12885190D01*
X10943571Y-12875667D01*
X10991190Y-12875667D01*
X11010238Y-12885190D01*
X11019762Y-12894714D01*
X11029286Y-12913762D01*
X11029286Y-12961381D01*
X11019762Y-12980428D01*
X11010238Y-12989952D01*
X10991190Y-12999476D01*
X10943571Y-12999476D01*
X10924524Y-12989952D01*
X10915000Y-12980428D01*
X11105476Y-12799476D02*
X11105476Y-12837571D01*
X11181667Y-12799476D02*
X11181667Y-12837571D01*
X11476905Y-13075667D02*
X11467381Y-13066143D01*
X11448333Y-13037571D01*
X11438809Y-13018524D01*
X11429286Y-12989952D01*
X11419762Y-12942333D01*
X11419762Y-12904238D01*
X11429286Y-12856619D01*
X11438809Y-12828048D01*
X11448333Y-12809000D01*
X11467381Y-12780428D01*
X11476905Y-12770905D01*
X11543571Y-12818524D02*
X11553095Y-12809000D01*
X11572143Y-12799476D01*
X11619762Y-12799476D01*
X11638809Y-12809000D01*
X11648333Y-12818524D01*
X11657857Y-12837571D01*
X11657857Y-12856619D01*
X11648333Y-12885190D01*
X11534048Y-12999476D01*
X11657857Y-12999476D01*
X11895952Y-12999476D02*
X11895952Y-12799476D01*
X11981667Y-12999476D02*
X11981667Y-12894714D01*
X11972143Y-12875667D01*
X11953095Y-12866143D01*
X11924524Y-12866143D01*
X11905476Y-12875667D01*
X11895952Y-12885190D01*
X12105476Y-12999476D02*
X12086428Y-12989952D01*
X12076905Y-12980428D01*
X12067381Y-12961381D01*
X12067381Y-12904238D01*
X12076905Y-12885190D01*
X12086428Y-12875667D01*
X12105476Y-12866143D01*
X12134048Y-12866143D01*
X12153095Y-12875667D01*
X12162619Y-12885190D01*
X12172143Y-12904238D01*
X12172143Y-12961381D01*
X12162619Y-12980428D01*
X12153095Y-12989952D01*
X12134048Y-12999476D01*
X12105476Y-12999476D01*
X12286428Y-12999476D02*
X12267381Y-12989952D01*
X12257857Y-12970905D01*
X12257857Y-12799476D01*
X12438809Y-12989952D02*
X12419762Y-12999476D01*
X12381667Y-12999476D01*
X12362619Y-12989952D01*
X12353095Y-12970905D01*
X12353095Y-12894714D01*
X12362619Y-12875667D01*
X12381667Y-12866143D01*
X12419762Y-12866143D01*
X12438809Y-12875667D01*
X12448333Y-12894714D01*
X12448333Y-12913762D01*
X12353095Y-12932809D01*
X12524524Y-12989952D02*
X12543571Y-12999476D01*
X12581667Y-12999476D01*
X12600714Y-12989952D01*
X12610238Y-12970905D01*
X12610238Y-12961381D01*
X12600714Y-12942333D01*
X12581667Y-12932809D01*
X12553095Y-12932809D01*
X12534048Y-12923286D01*
X12524524Y-12904238D01*
X12524524Y-12894714D01*
X12534048Y-12875667D01*
X12553095Y-12866143D01*
X12581667Y-12866143D01*
X12600714Y-12875667D01*
X12676905Y-13075667D02*
X12686428Y-13066143D01*
X12705476Y-13037571D01*
X12715000Y-13018524D01*
X12724524Y-12989952D01*
X12734048Y-12942333D01*
X12734048Y-12904238D01*
X12724524Y-12856619D01*
X12715000Y-12828048D01*
X12705476Y-12809000D01*
X12686428Y-12780428D01*
X12676905Y-12770905D01*
D14*
X7865000Y-13133000D02*
X7865000Y-13213000D01*
X7825000Y-13173000D02*
X7905000Y-13173000D01*
D11*
X8200714Y-13063476D02*
X8219762Y-13063476D01*
X8238809Y-13073000D01*
X8248333Y-13082524D01*
X8257857Y-13101571D01*
X8267381Y-13139667D01*
X8267381Y-13187286D01*
X8257857Y-13225381D01*
X8248333Y-13244428D01*
X8238809Y-13253952D01*
X8219762Y-13263476D01*
X8200714Y-13263476D01*
X8181667Y-13253952D01*
X8172143Y-13244428D01*
X8162619Y-13225381D01*
X8153095Y-13187286D01*
X8153095Y-13139667D01*
X8162619Y-13101571D01*
X8172143Y-13082524D01*
X8181667Y-13073000D01*
X8200714Y-13063476D01*
X8353095Y-13244428D02*
X8362619Y-13253952D01*
X8353095Y-13263476D01*
X8343571Y-13253952D01*
X8353095Y-13244428D01*
X8353095Y-13263476D01*
X8476905Y-13149190D02*
X8457857Y-13139667D01*
X8448333Y-13130143D01*
X8438810Y-13111095D01*
X8438810Y-13101571D01*
X8448333Y-13082524D01*
X8457857Y-13073000D01*
X8476905Y-13063476D01*
X8515000Y-13063476D01*
X8534048Y-13073000D01*
X8543571Y-13082524D01*
X8553095Y-13101571D01*
X8553095Y-13111095D01*
X8543571Y-13130143D01*
X8534048Y-13139667D01*
X8515000Y-13149190D01*
X8476905Y-13149190D01*
X8457857Y-13158714D01*
X8448333Y-13168238D01*
X8438810Y-13187286D01*
X8438810Y-13225381D01*
X8448333Y-13244428D01*
X8457857Y-13253952D01*
X8476905Y-13263476D01*
X8515000Y-13263476D01*
X8534048Y-13253952D01*
X8543571Y-13244428D01*
X8553095Y-13225381D01*
X8553095Y-13187286D01*
X8543571Y-13168238D01*
X8534048Y-13158714D01*
X8515000Y-13149190D01*
X8676905Y-13063476D02*
X8695952Y-13063476D01*
X8715000Y-13073000D01*
X8724524Y-13082524D01*
X8734048Y-13101571D01*
X8743571Y-13139667D01*
X8743571Y-13187286D01*
X8734048Y-13225381D01*
X8724524Y-13244428D01*
X8715000Y-13253952D01*
X8695952Y-13263476D01*
X8676905Y-13263476D01*
X8657857Y-13253952D01*
X8648333Y-13244428D01*
X8638810Y-13225381D01*
X8629286Y-13187286D01*
X8629286Y-13139667D01*
X8638810Y-13101571D01*
X8648333Y-13082524D01*
X8657857Y-13073000D01*
X8676905Y-13063476D01*
X8867381Y-13063476D02*
X8886429Y-13063476D01*
X8905476Y-13073000D01*
X8915000Y-13082524D01*
X8924524Y-13101571D01*
X8934048Y-13139667D01*
X8934048Y-13187286D01*
X8924524Y-13225381D01*
X8915000Y-13244428D01*
X8905476Y-13253952D01*
X8886429Y-13263476D01*
X8867381Y-13263476D01*
X8848333Y-13253952D01*
X8838810Y-13244428D01*
X8829286Y-13225381D01*
X8819762Y-13187286D01*
X8819762Y-13139667D01*
X8829286Y-13101571D01*
X8838810Y-13082524D01*
X8848333Y-13073000D01*
X8867381Y-13063476D01*
X9019762Y-13263476D02*
X9019762Y-13130143D01*
X9019762Y-13149190D02*
X9029286Y-13139667D01*
X9048333Y-13130143D01*
X9076905Y-13130143D01*
X9095952Y-13139667D01*
X9105476Y-13158714D01*
X9105476Y-13263476D01*
X9105476Y-13158714D02*
X9115000Y-13139667D01*
X9134048Y-13130143D01*
X9162619Y-13130143D01*
X9181667Y-13139667D01*
X9191190Y-13158714D01*
X9191190Y-13263476D01*
X9286429Y-13263476D02*
X9286429Y-13130143D01*
X9286429Y-13149190D02*
X9295952Y-13139667D01*
X9315000Y-13130143D01*
X9343571Y-13130143D01*
X9362619Y-13139667D01*
X9372143Y-13158714D01*
X9372143Y-13263476D01*
X9372143Y-13158714D02*
X9381667Y-13139667D01*
X9400714Y-13130143D01*
X9429286Y-13130143D01*
X9448333Y-13139667D01*
X9457857Y-13158714D01*
X9457857Y-13263476D01*
X9848333Y-13053952D02*
X9676905Y-13311095D01*
X10105476Y-13063476D02*
X10124524Y-13063476D01*
X10143571Y-13073000D01*
X10153095Y-13082524D01*
X10162619Y-13101571D01*
X10172143Y-13139667D01*
X10172143Y-13187286D01*
X10162619Y-13225381D01*
X10153095Y-13244428D01*
X10143571Y-13253952D01*
X10124524Y-13263476D01*
X10105476Y-13263476D01*
X10086429Y-13253952D01*
X10076905Y-13244428D01*
X10067381Y-13225381D01*
X10057857Y-13187286D01*
X10057857Y-13139667D01*
X10067381Y-13101571D01*
X10076905Y-13082524D01*
X10086429Y-13073000D01*
X10105476Y-13063476D01*
X10257857Y-13244428D02*
X10267381Y-13253952D01*
X10257857Y-13263476D01*
X10248333Y-13253952D01*
X10257857Y-13244428D01*
X10257857Y-13263476D01*
X10391190Y-13063476D02*
X10410238Y-13063476D01*
X10429286Y-13073000D01*
X10438810Y-13082524D01*
X10448333Y-13101571D01*
X10457857Y-13139667D01*
X10457857Y-13187286D01*
X10448333Y-13225381D01*
X10438810Y-13244428D01*
X10429286Y-13253952D01*
X10410238Y-13263476D01*
X10391190Y-13263476D01*
X10372143Y-13253952D01*
X10362619Y-13244428D01*
X10353095Y-13225381D01*
X10343571Y-13187286D01*
X10343571Y-13139667D01*
X10353095Y-13101571D01*
X10362619Y-13082524D01*
X10372143Y-13073000D01*
X10391190Y-13063476D01*
X10524524Y-13063476D02*
X10648333Y-13063476D01*
X10581667Y-13139667D01*
X10610238Y-13139667D01*
X10629286Y-13149190D01*
X10638810Y-13158714D01*
X10648333Y-13177762D01*
X10648333Y-13225381D01*
X10638810Y-13244428D01*
X10629286Y-13253952D01*
X10610238Y-13263476D01*
X10553095Y-13263476D01*
X10534048Y-13253952D01*
X10524524Y-13244428D01*
X10838810Y-13263476D02*
X10724524Y-13263476D01*
X10781667Y-13263476D02*
X10781667Y-13063476D01*
X10762619Y-13092048D01*
X10743571Y-13111095D01*
X10724524Y-13120619D01*
X11019762Y-13063476D02*
X10924524Y-13063476D01*
X10915000Y-13158714D01*
X10924524Y-13149190D01*
X10943571Y-13139667D01*
X10991190Y-13139667D01*
X11010238Y-13149190D01*
X11019762Y-13158714D01*
X11029286Y-13177762D01*
X11029286Y-13225381D01*
X11019762Y-13244428D01*
X11010238Y-13253952D01*
X10991190Y-13263476D01*
X10943571Y-13263476D01*
X10924524Y-13253952D01*
X10915000Y-13244428D01*
X11105476Y-13063476D02*
X11105476Y-13101571D01*
X11181667Y-13063476D02*
X11181667Y-13101571D01*
X11476905Y-13339667D02*
X11467381Y-13330143D01*
X11448333Y-13301571D01*
X11438809Y-13282524D01*
X11429286Y-13253952D01*
X11419762Y-13206333D01*
X11419762Y-13168238D01*
X11429286Y-13120619D01*
X11438809Y-13092048D01*
X11448333Y-13073000D01*
X11467381Y-13044428D01*
X11476905Y-13034905D01*
X11543571Y-13082524D02*
X11553095Y-13073000D01*
X11572143Y-13063476D01*
X11619762Y-13063476D01*
X11638809Y-13073000D01*
X11648333Y-13082524D01*
X11657857Y-13101571D01*
X11657857Y-13120619D01*
X11648333Y-13149190D01*
X11534048Y-13263476D01*
X11657857Y-13263476D01*
X11734048Y-13082524D02*
X11743571Y-13073000D01*
X11762619Y-13063476D01*
X11810238Y-13063476D01*
X11829286Y-13073000D01*
X11838809Y-13082524D01*
X11848333Y-13101571D01*
X11848333Y-13120619D01*
X11838809Y-13149190D01*
X11724524Y-13263476D01*
X11848333Y-13263476D01*
X12086428Y-13263476D02*
X12086428Y-13063476D01*
X12172143Y-13263476D02*
X12172143Y-13158714D01*
X12162619Y-13139667D01*
X12143571Y-13130143D01*
X12115000Y-13130143D01*
X12095952Y-13139667D01*
X12086428Y-13149190D01*
X12295952Y-13263476D02*
X12276905Y-13253952D01*
X12267381Y-13244428D01*
X12257857Y-13225381D01*
X12257857Y-13168238D01*
X12267381Y-13149190D01*
X12276905Y-13139667D01*
X12295952Y-13130143D01*
X12324524Y-13130143D01*
X12343571Y-13139667D01*
X12353095Y-13149190D01*
X12362619Y-13168238D01*
X12362619Y-13225381D01*
X12353095Y-13244428D01*
X12343571Y-13253952D01*
X12324524Y-13263476D01*
X12295952Y-13263476D01*
X12476905Y-13263476D02*
X12457857Y-13253952D01*
X12448333Y-13234905D01*
X12448333Y-13063476D01*
X12629286Y-13253952D02*
X12610238Y-13263476D01*
X12572143Y-13263476D01*
X12553095Y-13253952D01*
X12543571Y-13234905D01*
X12543571Y-13158714D01*
X12553095Y-13139667D01*
X12572143Y-13130143D01*
X12610238Y-13130143D01*
X12629286Y-13139667D01*
X12638809Y-13158714D01*
X12638809Y-13177762D01*
X12543571Y-13196809D01*
X12715000Y-13253952D02*
X12734048Y-13263476D01*
X12772143Y-13263476D01*
X12791190Y-13253952D01*
X12800714Y-13234905D01*
X12800714Y-13225381D01*
X12791190Y-13206333D01*
X12772143Y-13196809D01*
X12743571Y-13196809D01*
X12724524Y-13187286D01*
X12715000Y-13168238D01*
X12715000Y-13158714D01*
X12724524Y-13139667D01*
X12743571Y-13130143D01*
X12772143Y-13130143D01*
X12791190Y-13139667D01*
X12867381Y-13339667D02*
X12876905Y-13330143D01*
X12895952Y-13301571D01*
X12905476Y-13282524D01*
X12915000Y-13253952D01*
X12924524Y-13206333D01*
X12924524Y-13168238D01*
X12915000Y-13120619D01*
X12905476Y-13092048D01*
X12895952Y-13073000D01*
X12876905Y-13044428D01*
X12867381Y-13034905D01*
D15*
X7891820Y-13468820D02*
X7891820Y-13405180D01*
X7828180Y-13405180D01*
X7828180Y-13468820D01*
X7891820Y-13468820D01*
D11*
X8200714Y-13327476D02*
X8219762Y-13327476D01*
X8238809Y-13337000D01*
X8248333Y-13346524D01*
X8257857Y-13365571D01*
X8267381Y-13403667D01*
X8267381Y-13451286D01*
X8257857Y-13489381D01*
X8248333Y-13508428D01*
X8238809Y-13517952D01*
X8219762Y-13527476D01*
X8200714Y-13527476D01*
X8181667Y-13517952D01*
X8172143Y-13508428D01*
X8162619Y-13489381D01*
X8153095Y-13451286D01*
X8153095Y-13403667D01*
X8162619Y-13365571D01*
X8172143Y-13346524D01*
X8181667Y-13337000D01*
X8200714Y-13327476D01*
X8353095Y-13508428D02*
X8362619Y-13517952D01*
X8353095Y-13527476D01*
X8343571Y-13517952D01*
X8353095Y-13508428D01*
X8353095Y-13527476D01*
X8457857Y-13527476D02*
X8495952Y-13527476D01*
X8515000Y-13517952D01*
X8524524Y-13508428D01*
X8543571Y-13479857D01*
X8553095Y-13441762D01*
X8553095Y-13365571D01*
X8543571Y-13346524D01*
X8534048Y-13337000D01*
X8515000Y-13327476D01*
X8476905Y-13327476D01*
X8457857Y-13337000D01*
X8448333Y-13346524D01*
X8438810Y-13365571D01*
X8438810Y-13413190D01*
X8448333Y-13432238D01*
X8457857Y-13441762D01*
X8476905Y-13451286D01*
X8515000Y-13451286D01*
X8534048Y-13441762D01*
X8543571Y-13432238D01*
X8553095Y-13413190D01*
X8676905Y-13327476D02*
X8695952Y-13327476D01*
X8715000Y-13337000D01*
X8724524Y-13346524D01*
X8734048Y-13365571D01*
X8743571Y-13403667D01*
X8743571Y-13451286D01*
X8734048Y-13489381D01*
X8724524Y-13508428D01*
X8715000Y-13517952D01*
X8695952Y-13527476D01*
X8676905Y-13527476D01*
X8657857Y-13517952D01*
X8648333Y-13508428D01*
X8638810Y-13489381D01*
X8629286Y-13451286D01*
X8629286Y-13403667D01*
X8638810Y-13365571D01*
X8648333Y-13346524D01*
X8657857Y-13337000D01*
X8676905Y-13327476D01*
X8867381Y-13327476D02*
X8886429Y-13327476D01*
X8905476Y-13337000D01*
X8915000Y-13346524D01*
X8924524Y-13365571D01*
X8934048Y-13403667D01*
X8934048Y-13451286D01*
X8924524Y-13489381D01*
X8915000Y-13508428D01*
X8905476Y-13517952D01*
X8886429Y-13527476D01*
X8867381Y-13527476D01*
X8848333Y-13517952D01*
X8838810Y-13508428D01*
X8829286Y-13489381D01*
X8819762Y-13451286D01*
X8819762Y-13403667D01*
X8829286Y-13365571D01*
X8838810Y-13346524D01*
X8848333Y-13337000D01*
X8867381Y-13327476D01*
X9019762Y-13527476D02*
X9019762Y-13394143D01*
X9019762Y-13413190D02*
X9029286Y-13403667D01*
X9048333Y-13394143D01*
X9076905Y-13394143D01*
X9095952Y-13403667D01*
X9105476Y-13422714D01*
X9105476Y-13527476D01*
X9105476Y-13422714D02*
X9115000Y-13403667D01*
X9134048Y-13394143D01*
X9162619Y-13394143D01*
X9181667Y-13403667D01*
X9191190Y-13422714D01*
X9191190Y-13527476D01*
X9286429Y-13527476D02*
X9286429Y-13394143D01*
X9286429Y-13413190D02*
X9295952Y-13403667D01*
X9315000Y-13394143D01*
X9343571Y-13394143D01*
X9362619Y-13403667D01*
X9372143Y-13422714D01*
X9372143Y-13527476D01*
X9372143Y-13422714D02*
X9381667Y-13403667D01*
X9400714Y-13394143D01*
X9429286Y-13394143D01*
X9448333Y-13403667D01*
X9457857Y-13422714D01*
X9457857Y-13527476D01*
X9848333Y-13317952D02*
X9676905Y-13575095D01*
X10105476Y-13327476D02*
X10124524Y-13327476D01*
X10143571Y-13337000D01*
X10153095Y-13346524D01*
X10162619Y-13365571D01*
X10172143Y-13403667D01*
X10172143Y-13451286D01*
X10162619Y-13489381D01*
X10153095Y-13508428D01*
X10143571Y-13517952D01*
X10124524Y-13527476D01*
X10105476Y-13527476D01*
X10086429Y-13517952D01*
X10076905Y-13508428D01*
X10067381Y-13489381D01*
X10057857Y-13451286D01*
X10057857Y-13403667D01*
X10067381Y-13365571D01*
X10076905Y-13346524D01*
X10086429Y-13337000D01*
X10105476Y-13327476D01*
X10257857Y-13508428D02*
X10267381Y-13517952D01*
X10257857Y-13527476D01*
X10248333Y-13517952D01*
X10257857Y-13508428D01*
X10257857Y-13527476D01*
X10391190Y-13327476D02*
X10410238Y-13327476D01*
X10429286Y-13337000D01*
X10438810Y-13346524D01*
X10448333Y-13365571D01*
X10457857Y-13403667D01*
X10457857Y-13451286D01*
X10448333Y-13489381D01*
X10438810Y-13508428D01*
X10429286Y-13517952D01*
X10410238Y-13527476D01*
X10391190Y-13527476D01*
X10372143Y-13517952D01*
X10362619Y-13508428D01*
X10353095Y-13489381D01*
X10343571Y-13451286D01*
X10343571Y-13403667D01*
X10353095Y-13365571D01*
X10362619Y-13346524D01*
X10372143Y-13337000D01*
X10391190Y-13327476D01*
X10524524Y-13327476D02*
X10648333Y-13327476D01*
X10581667Y-13403667D01*
X10610238Y-13403667D01*
X10629286Y-13413190D01*
X10638810Y-13422714D01*
X10648333Y-13441762D01*
X10648333Y-13489381D01*
X10638810Y-13508428D01*
X10629286Y-13517952D01*
X10610238Y-13527476D01*
X10553095Y-13527476D01*
X10534048Y-13517952D01*
X10524524Y-13508428D01*
X10829286Y-13327476D02*
X10734048Y-13327476D01*
X10724524Y-13422714D01*
X10734048Y-13413190D01*
X10753095Y-13403667D01*
X10800714Y-13403667D01*
X10819762Y-13413190D01*
X10829286Y-13422714D01*
X10838810Y-13441762D01*
X10838810Y-13489381D01*
X10829286Y-13508428D01*
X10819762Y-13517952D01*
X10800714Y-13527476D01*
X10753095Y-13527476D01*
X10734048Y-13517952D01*
X10724524Y-13508428D01*
X11010238Y-13394143D02*
X11010238Y-13527476D01*
X10962619Y-13317952D02*
X10915000Y-13460809D01*
X11038810Y-13460809D01*
X11105476Y-13327476D02*
X11105476Y-13365571D01*
X11181667Y-13327476D02*
X11181667Y-13365571D01*
X11476905Y-13603667D02*
X11467381Y-13594143D01*
X11448333Y-13565571D01*
X11438809Y-13546524D01*
X11429286Y-13517952D01*
X11419762Y-13470333D01*
X11419762Y-13432238D01*
X11429286Y-13384619D01*
X11438809Y-13356048D01*
X11448333Y-13337000D01*
X11467381Y-13308428D01*
X11476905Y-13298905D01*
X11543571Y-13346524D02*
X11553095Y-13337000D01*
X11572143Y-13327476D01*
X11619762Y-13327476D01*
X11638809Y-13337000D01*
X11648333Y-13346524D01*
X11657857Y-13365571D01*
X11657857Y-13384619D01*
X11648333Y-13413190D01*
X11534048Y-13527476D01*
X11657857Y-13527476D01*
X11895952Y-13527476D02*
X11895952Y-13327476D01*
X11981667Y-13527476D02*
X11981667Y-13422714D01*
X11972143Y-13403667D01*
X11953095Y-13394143D01*
X11924524Y-13394143D01*
X11905476Y-13403667D01*
X11895952Y-13413190D01*
X12105476Y-13527476D02*
X12086428Y-13517952D01*
X12076905Y-13508428D01*
X12067381Y-13489381D01*
X12067381Y-13432238D01*
X12076905Y-13413190D01*
X12086428Y-13403667D01*
X12105476Y-13394143D01*
X12134048Y-13394143D01*
X12153095Y-13403667D01*
X12162619Y-13413190D01*
X12172143Y-13432238D01*
X12172143Y-13489381D01*
X12162619Y-13508428D01*
X12153095Y-13517952D01*
X12134048Y-13527476D01*
X12105476Y-13527476D01*
X12286428Y-13527476D02*
X12267381Y-13517952D01*
X12257857Y-13498905D01*
X12257857Y-13327476D01*
X12438809Y-13517952D02*
X12419762Y-13527476D01*
X12381667Y-13527476D01*
X12362619Y-13517952D01*
X12353095Y-13498905D01*
X12353095Y-13422714D01*
X12362619Y-13403667D01*
X12381667Y-13394143D01*
X12419762Y-13394143D01*
X12438809Y-13403667D01*
X12448333Y-13422714D01*
X12448333Y-13441762D01*
X12353095Y-13460809D01*
X12524524Y-13517952D02*
X12543571Y-13527476D01*
X12581667Y-13527476D01*
X12600714Y-13517952D01*
X12610238Y-13498905D01*
X12610238Y-13489381D01*
X12600714Y-13470333D01*
X12581667Y-13460809D01*
X12553095Y-13460809D01*
X12534048Y-13451286D01*
X12524524Y-13432238D01*
X12524524Y-13422714D01*
X12534048Y-13403667D01*
X12553095Y-13394143D01*
X12581667Y-13394143D01*
X12600714Y-13403667D01*
X12676905Y-13603667D02*
X12686428Y-13594143D01*
X12705476Y-13565571D01*
X12715000Y-13546524D01*
X12724524Y-13517952D01*
X12734048Y-13470333D01*
X12734048Y-13432238D01*
X12724524Y-13384619D01*
X12715000Y-13356048D01*
X12705476Y-13337000D01*
X12686428Y-13308428D01*
X12676905Y-13298905D01*
D16*
X7850000Y-13756000D02*
X7905000Y-13701000D01*
X7850000Y-13646000D01*
X7795000Y-13701000D01*
X7850000Y-13756000D01*
D11*
X8267381Y-13791476D02*
X8153095Y-13791476D01*
X8210238Y-13791476D02*
X8210238Y-13591476D01*
X8191190Y-13620048D01*
X8172143Y-13639095D01*
X8153095Y-13648619D01*
X8353095Y-13772428D02*
X8362619Y-13781952D01*
X8353095Y-13791476D01*
X8343571Y-13781952D01*
X8353095Y-13772428D01*
X8353095Y-13791476D01*
X8553095Y-13791476D02*
X8438810Y-13791476D01*
X8495952Y-13791476D02*
X8495952Y-13591476D01*
X8476905Y-13620048D01*
X8457857Y-13639095D01*
X8438810Y-13648619D01*
X8676905Y-13591476D02*
X8695952Y-13591476D01*
X8715000Y-13601000D01*
X8724524Y-13610524D01*
X8734048Y-13629571D01*
X8743571Y-13667667D01*
X8743571Y-13715286D01*
X8734048Y-13753381D01*
X8724524Y-13772428D01*
X8715000Y-13781952D01*
X8695952Y-13791476D01*
X8676905Y-13791476D01*
X8657857Y-13781952D01*
X8648333Y-13772428D01*
X8638810Y-13753381D01*
X8629286Y-13715286D01*
X8629286Y-13667667D01*
X8638810Y-13629571D01*
X8648333Y-13610524D01*
X8657857Y-13601000D01*
X8676905Y-13591476D01*
X8867381Y-13591476D02*
X8886429Y-13591476D01*
X8905476Y-13601000D01*
X8915000Y-13610524D01*
X8924524Y-13629571D01*
X8934048Y-13667667D01*
X8934048Y-13715286D01*
X8924524Y-13753381D01*
X8915000Y-13772428D01*
X8905476Y-13781952D01*
X8886429Y-13791476D01*
X8867381Y-13791476D01*
X8848333Y-13781952D01*
X8838810Y-13772428D01*
X8829286Y-13753381D01*
X8819762Y-13715286D01*
X8819762Y-13667667D01*
X8829286Y-13629571D01*
X8838810Y-13610524D01*
X8848333Y-13601000D01*
X8867381Y-13591476D01*
X9019762Y-13791476D02*
X9019762Y-13658143D01*
X9019762Y-13677190D02*
X9029286Y-13667667D01*
X9048333Y-13658143D01*
X9076905Y-13658143D01*
X9095952Y-13667667D01*
X9105476Y-13686714D01*
X9105476Y-13791476D01*
X9105476Y-13686714D02*
X9115000Y-13667667D01*
X9134048Y-13658143D01*
X9162619Y-13658143D01*
X9181667Y-13667667D01*
X9191190Y-13686714D01*
X9191190Y-13791476D01*
X9286429Y-13791476D02*
X9286429Y-13658143D01*
X9286429Y-13677190D02*
X9295952Y-13667667D01*
X9315000Y-13658143D01*
X9343571Y-13658143D01*
X9362619Y-13667667D01*
X9372143Y-13686714D01*
X9372143Y-13791476D01*
X9372143Y-13686714D02*
X9381667Y-13667667D01*
X9400714Y-13658143D01*
X9429286Y-13658143D01*
X9448333Y-13667667D01*
X9457857Y-13686714D01*
X9457857Y-13791476D01*
X9848333Y-13581952D02*
X9676905Y-13839095D01*
X10105476Y-13591476D02*
X10124524Y-13591476D01*
X10143571Y-13601000D01*
X10153095Y-13610524D01*
X10162619Y-13629571D01*
X10172143Y-13667667D01*
X10172143Y-13715286D01*
X10162619Y-13753381D01*
X10153095Y-13772428D01*
X10143571Y-13781952D01*
X10124524Y-13791476D01*
X10105476Y-13791476D01*
X10086429Y-13781952D01*
X10076905Y-13772428D01*
X10067381Y-13753381D01*
X10057857Y-13715286D01*
X10057857Y-13667667D01*
X10067381Y-13629571D01*
X10076905Y-13610524D01*
X10086429Y-13601000D01*
X10105476Y-13591476D01*
X10257857Y-13772428D02*
X10267381Y-13781952D01*
X10257857Y-13791476D01*
X10248333Y-13781952D01*
X10257857Y-13772428D01*
X10257857Y-13791476D01*
X10391190Y-13591476D02*
X10410238Y-13591476D01*
X10429286Y-13601000D01*
X10438810Y-13610524D01*
X10448333Y-13629571D01*
X10457857Y-13667667D01*
X10457857Y-13715286D01*
X10448333Y-13753381D01*
X10438810Y-13772428D01*
X10429286Y-13781952D01*
X10410238Y-13791476D01*
X10391190Y-13791476D01*
X10372143Y-13781952D01*
X10362619Y-13772428D01*
X10353095Y-13753381D01*
X10343571Y-13715286D01*
X10343571Y-13667667D01*
X10353095Y-13629571D01*
X10362619Y-13610524D01*
X10372143Y-13601000D01*
X10391190Y-13591476D01*
X10629286Y-13658143D02*
X10629286Y-13791476D01*
X10581667Y-13581952D02*
X10534048Y-13724809D01*
X10657857Y-13724809D01*
X10715000Y-13591476D02*
X10838810Y-13591476D01*
X10772143Y-13667667D01*
X10800714Y-13667667D01*
X10819762Y-13677190D01*
X10829286Y-13686714D01*
X10838810Y-13705762D01*
X10838810Y-13753381D01*
X10829286Y-13772428D01*
X10819762Y-13781952D01*
X10800714Y-13791476D01*
X10743571Y-13791476D01*
X10724524Y-13781952D01*
X10715000Y-13772428D01*
X10905476Y-13591476D02*
X11029286Y-13591476D01*
X10962619Y-13667667D01*
X10991190Y-13667667D01*
X11010238Y-13677190D01*
X11019762Y-13686714D01*
X11029286Y-13705762D01*
X11029286Y-13753381D01*
X11019762Y-13772428D01*
X11010238Y-13781952D01*
X10991190Y-13791476D01*
X10934048Y-13791476D01*
X10915000Y-13781952D01*
X10905476Y-13772428D01*
X11105476Y-13591476D02*
X11105476Y-13629571D01*
X11181667Y-13591476D02*
X11181667Y-13629571D01*
X11476905Y-13867667D02*
X11467381Y-13858143D01*
X11448333Y-13829571D01*
X11438809Y-13810524D01*
X11429286Y-13781952D01*
X11419762Y-13734333D01*
X11419762Y-13696238D01*
X11429286Y-13648619D01*
X11438809Y-13620048D01*
X11448333Y-13601000D01*
X11467381Y-13572428D01*
X11476905Y-13562905D01*
X11657857Y-13791476D02*
X11543571Y-13791476D01*
X11600714Y-13791476D02*
X11600714Y-13591476D01*
X11581667Y-13620048D01*
X11562619Y-13639095D01*
X11543571Y-13648619D01*
X11781667Y-13591476D02*
X11800714Y-13591476D01*
X11819762Y-13601000D01*
X11829286Y-13610524D01*
X11838809Y-13629571D01*
X11848333Y-13667667D01*
X11848333Y-13715286D01*
X11838809Y-13753381D01*
X11829286Y-13772428D01*
X11819762Y-13781952D01*
X11800714Y-13791476D01*
X11781667Y-13791476D01*
X11762619Y-13781952D01*
X11753095Y-13772428D01*
X11743571Y-13753381D01*
X11734048Y-13715286D01*
X11734048Y-13667667D01*
X11743571Y-13629571D01*
X11753095Y-13610524D01*
X11762619Y-13601000D01*
X11781667Y-13591476D01*
X12086428Y-13791476D02*
X12086428Y-13591476D01*
X12172143Y-13791476D02*
X12172143Y-13686714D01*
X12162619Y-13667667D01*
X12143571Y-13658143D01*
X12115000Y-13658143D01*
X12095952Y-13667667D01*
X12086428Y-13677190D01*
X12295952Y-13791476D02*
X12276905Y-13781952D01*
X12267381Y-13772428D01*
X12257857Y-13753381D01*
X12257857Y-13696238D01*
X12267381Y-13677190D01*
X12276905Y-13667667D01*
X12295952Y-13658143D01*
X12324524Y-13658143D01*
X12343571Y-13667667D01*
X12353095Y-13677190D01*
X12362619Y-13696238D01*
X12362619Y-13753381D01*
X12353095Y-13772428D01*
X12343571Y-13781952D01*
X12324524Y-13791476D01*
X12295952Y-13791476D01*
X12476905Y-13791476D02*
X12457857Y-13781952D01*
X12448333Y-13762905D01*
X12448333Y-13591476D01*
X12629286Y-13781952D02*
X12610238Y-13791476D01*
X12572143Y-13791476D01*
X12553095Y-13781952D01*
X12543571Y-13762905D01*
X12543571Y-13686714D01*
X12553095Y-13667667D01*
X12572143Y-13658143D01*
X12610238Y-13658143D01*
X12629286Y-13667667D01*
X12638809Y-13686714D01*
X12638809Y-13705762D01*
X12543571Y-13724809D01*
X12715000Y-13781952D02*
X12734048Y-13791476D01*
X12772143Y-13791476D01*
X12791190Y-13781952D01*
X12800714Y-13762905D01*
X12800714Y-13753381D01*
X12791190Y-13734333D01*
X12772143Y-13724809D01*
X12743571Y-13724809D01*
X12724524Y-13715286D01*
X12715000Y-13696238D01*
X12715000Y-13686714D01*
X12724524Y-13667667D01*
X12743571Y-13658143D01*
X12772143Y-13658143D01*
X12791190Y-13667667D01*
X12867381Y-13867667D02*
X12876905Y-13858143D01*
X12895952Y-13829571D01*
X12905476Y-13810524D01*
X12915000Y-13781952D01*
X12924524Y-13734333D01*
X12924524Y-13696238D01*
X12915000Y-13648619D01*
X12905476Y-13620048D01*
X12895952Y-13601000D01*
X12876905Y-13572428D01*
X12867381Y-13562905D01*
D17*
X7786000Y-13905500D02*
X7905000Y-14024500D01*
X7905000Y-13905500D02*
X7786000Y-14024500D01*
X7905000Y-13965000D02*
G75*
G03*
X7905000Y-13965000I-59500J0D01*
G01*
D11*
X8267381Y-14055476D02*
X8153095Y-14055476D01*
X8210238Y-14055476D02*
X8210238Y-13855476D01*
X8191190Y-13884048D01*
X8172143Y-13903095D01*
X8153095Y-13912619D01*
X8353095Y-14036428D02*
X8362619Y-14045952D01*
X8353095Y-14055476D01*
X8343571Y-14045952D01*
X8353095Y-14036428D01*
X8353095Y-14055476D01*
X8553095Y-14055476D02*
X8438810Y-14055476D01*
X8495952Y-14055476D02*
X8495952Y-13855476D01*
X8476905Y-13884048D01*
X8457857Y-13903095D01*
X8438810Y-13912619D01*
X8648333Y-14055476D02*
X8686429Y-14055476D01*
X8705476Y-14045952D01*
X8715000Y-14036428D01*
X8734048Y-14007857D01*
X8743571Y-13969762D01*
X8743571Y-13893571D01*
X8734048Y-13874524D01*
X8724524Y-13865000D01*
X8705476Y-13855476D01*
X8667381Y-13855476D01*
X8648333Y-13865000D01*
X8638810Y-13874524D01*
X8629286Y-13893571D01*
X8629286Y-13941190D01*
X8638810Y-13960238D01*
X8648333Y-13969762D01*
X8667381Y-13979286D01*
X8705476Y-13979286D01*
X8724524Y-13969762D01*
X8734048Y-13960238D01*
X8743571Y-13941190D01*
X8867381Y-13855476D02*
X8886429Y-13855476D01*
X8905476Y-13865000D01*
X8915000Y-13874524D01*
X8924524Y-13893571D01*
X8934048Y-13931667D01*
X8934048Y-13979286D01*
X8924524Y-14017381D01*
X8915000Y-14036428D01*
X8905476Y-14045952D01*
X8886429Y-14055476D01*
X8867381Y-14055476D01*
X8848333Y-14045952D01*
X8838810Y-14036428D01*
X8829286Y-14017381D01*
X8819762Y-13979286D01*
X8819762Y-13931667D01*
X8829286Y-13893571D01*
X8838810Y-13874524D01*
X8848333Y-13865000D01*
X8867381Y-13855476D01*
X9019762Y-14055476D02*
X9019762Y-13922143D01*
X9019762Y-13941190D02*
X9029286Y-13931667D01*
X9048333Y-13922143D01*
X9076905Y-13922143D01*
X9095952Y-13931667D01*
X9105476Y-13950714D01*
X9105476Y-14055476D01*
X9105476Y-13950714D02*
X9115000Y-13931667D01*
X9134048Y-13922143D01*
X9162619Y-13922143D01*
X9181667Y-13931667D01*
X9191190Y-13950714D01*
X9191190Y-14055476D01*
X9286429Y-14055476D02*
X9286429Y-13922143D01*
X9286429Y-13941190D02*
X9295952Y-13931667D01*
X9315000Y-13922143D01*
X9343571Y-13922143D01*
X9362619Y-13931667D01*
X9372143Y-13950714D01*
X9372143Y-14055476D01*
X9372143Y-13950714D02*
X9381667Y-13931667D01*
X9400714Y-13922143D01*
X9429286Y-13922143D01*
X9448333Y-13931667D01*
X9457857Y-13950714D01*
X9457857Y-14055476D01*
X9848333Y-13845952D02*
X9676905Y-14103095D01*
X10105476Y-13855476D02*
X10124524Y-13855476D01*
X10143571Y-13865000D01*
X10153095Y-13874524D01*
X10162619Y-13893571D01*
X10172143Y-13931667D01*
X10172143Y-13979286D01*
X10162619Y-14017381D01*
X10153095Y-14036428D01*
X10143571Y-14045952D01*
X10124524Y-14055476D01*
X10105476Y-14055476D01*
X10086429Y-14045952D01*
X10076905Y-14036428D01*
X10067381Y-14017381D01*
X10057857Y-13979286D01*
X10057857Y-13931667D01*
X10067381Y-13893571D01*
X10076905Y-13874524D01*
X10086429Y-13865000D01*
X10105476Y-13855476D01*
X10257857Y-14036428D02*
X10267381Y-14045952D01*
X10257857Y-14055476D01*
X10248333Y-14045952D01*
X10257857Y-14036428D01*
X10257857Y-14055476D01*
X10391190Y-13855476D02*
X10410238Y-13855476D01*
X10429286Y-13865000D01*
X10438810Y-13874524D01*
X10448333Y-13893571D01*
X10457857Y-13931667D01*
X10457857Y-13979286D01*
X10448333Y-14017381D01*
X10438810Y-14036428D01*
X10429286Y-14045952D01*
X10410238Y-14055476D01*
X10391190Y-14055476D01*
X10372143Y-14045952D01*
X10362619Y-14036428D01*
X10353095Y-14017381D01*
X10343571Y-13979286D01*
X10343571Y-13931667D01*
X10353095Y-13893571D01*
X10362619Y-13874524D01*
X10372143Y-13865000D01*
X10391190Y-13855476D01*
X10629286Y-13922143D02*
X10629286Y-14055476D01*
X10581667Y-13845952D02*
X10534048Y-13988809D01*
X10657857Y-13988809D01*
X10819762Y-13855476D02*
X10781667Y-13855476D01*
X10762619Y-13865000D01*
X10753095Y-13874524D01*
X10734048Y-13903095D01*
X10724524Y-13941190D01*
X10724524Y-14017381D01*
X10734048Y-14036428D01*
X10743571Y-14045952D01*
X10762619Y-14055476D01*
X10800714Y-14055476D01*
X10819762Y-14045952D01*
X10829286Y-14036428D01*
X10838810Y-14017381D01*
X10838810Y-13969762D01*
X10829286Y-13950714D01*
X10819762Y-13941190D01*
X10800714Y-13931667D01*
X10762619Y-13931667D01*
X10743571Y-13941190D01*
X10734048Y-13950714D01*
X10724524Y-13969762D01*
X10934048Y-14055476D02*
X10972143Y-14055476D01*
X10991190Y-14045952D01*
X11000714Y-14036428D01*
X11019762Y-14007857D01*
X11029286Y-13969762D01*
X11029286Y-13893571D01*
X11019762Y-13874524D01*
X11010238Y-13865000D01*
X10991190Y-13855476D01*
X10953095Y-13855476D01*
X10934048Y-13865000D01*
X10924524Y-13874524D01*
X10915000Y-13893571D01*
X10915000Y-13941190D01*
X10924524Y-13960238D01*
X10934048Y-13969762D01*
X10953095Y-13979286D01*
X10991190Y-13979286D01*
X11010238Y-13969762D01*
X11019762Y-13960238D01*
X11029286Y-13941190D01*
X11105476Y-13855476D02*
X11105476Y-13893571D01*
X11181667Y-13855476D02*
X11181667Y-13893571D01*
X11476905Y-14131667D02*
X11467381Y-14122143D01*
X11448333Y-14093571D01*
X11438809Y-14074524D01*
X11429286Y-14045952D01*
X11419762Y-13998333D01*
X11419762Y-13960238D01*
X11429286Y-13912619D01*
X11438809Y-13884048D01*
X11448333Y-13865000D01*
X11467381Y-13836428D01*
X11476905Y-13826905D01*
X11581667Y-13941190D02*
X11562619Y-13931667D01*
X11553095Y-13922143D01*
X11543571Y-13903095D01*
X11543571Y-13893571D01*
X11553095Y-13874524D01*
X11562619Y-13865000D01*
X11581667Y-13855476D01*
X11619762Y-13855476D01*
X11638809Y-13865000D01*
X11648333Y-13874524D01*
X11657857Y-13893571D01*
X11657857Y-13903095D01*
X11648333Y-13922143D01*
X11638809Y-13931667D01*
X11619762Y-13941190D01*
X11581667Y-13941190D01*
X11562619Y-13950714D01*
X11553095Y-13960238D01*
X11543571Y-13979286D01*
X11543571Y-14017381D01*
X11553095Y-14036428D01*
X11562619Y-14045952D01*
X11581667Y-14055476D01*
X11619762Y-14055476D01*
X11638809Y-14045952D01*
X11648333Y-14036428D01*
X11657857Y-14017381D01*
X11657857Y-13979286D01*
X11648333Y-13960238D01*
X11638809Y-13950714D01*
X11619762Y-13941190D01*
X11895952Y-14055476D02*
X11895952Y-13855476D01*
X11981667Y-14055476D02*
X11981667Y-13950714D01*
X11972143Y-13931667D01*
X11953095Y-13922143D01*
X11924524Y-13922143D01*
X11905476Y-13931667D01*
X11895952Y-13941190D01*
X12105476Y-14055476D02*
X12086428Y-14045952D01*
X12076905Y-14036428D01*
X12067381Y-14017381D01*
X12067381Y-13960238D01*
X12076905Y-13941190D01*
X12086428Y-13931667D01*
X12105476Y-13922143D01*
X12134048Y-13922143D01*
X12153095Y-13931667D01*
X12162619Y-13941190D01*
X12172143Y-13960238D01*
X12172143Y-14017381D01*
X12162619Y-14036428D01*
X12153095Y-14045952D01*
X12134048Y-14055476D01*
X12105476Y-14055476D01*
X12286428Y-14055476D02*
X12267381Y-14045952D01*
X12257857Y-14026905D01*
X12257857Y-13855476D01*
X12438809Y-14045952D02*
X12419762Y-14055476D01*
X12381667Y-14055476D01*
X12362619Y-14045952D01*
X12353095Y-14026905D01*
X12353095Y-13950714D01*
X12362619Y-13931667D01*
X12381667Y-13922143D01*
X12419762Y-13922143D01*
X12438809Y-13931667D01*
X12448333Y-13950714D01*
X12448333Y-13969762D01*
X12353095Y-13988809D01*
X12524524Y-14045952D02*
X12543571Y-14055476D01*
X12581667Y-14055476D01*
X12600714Y-14045952D01*
X12610238Y-14026905D01*
X12610238Y-14017381D01*
X12600714Y-13998333D01*
X12581667Y-13988809D01*
X12553095Y-13988809D01*
X12534048Y-13979286D01*
X12524524Y-13960238D01*
X12524524Y-13950714D01*
X12534048Y-13931667D01*
X12553095Y-13922143D01*
X12581667Y-13922143D01*
X12600714Y-13931667D01*
X12676905Y-14131667D02*
X12686428Y-14122143D01*
X12705476Y-14093571D01*
X12715000Y-14074524D01*
X12724524Y-14045952D01*
X12734048Y-13998333D01*
X12734048Y-13960238D01*
X12724524Y-13912619D01*
X12715000Y-13884048D01*
X12705476Y-13865000D01*
X12686428Y-13836428D01*
X12676905Y-13826905D01*
D18*
X7785000Y-14169000D02*
X7905000Y-14289000D01*
X7905000Y-14169000D02*
X7785000Y-14289000D01*
X7845000Y-14169000D02*
X7845000Y-14289000D01*
X7785000Y-14229000D02*
X7905000Y-14229000D01*
D11*
X8267381Y-14319476D02*
X8153095Y-14319476D01*
X8210238Y-14319476D02*
X8210238Y-14119476D01*
X8191190Y-14148048D01*
X8172143Y-14167095D01*
X8153095Y-14176619D01*
X8353095Y-14300428D02*
X8362619Y-14309952D01*
X8353095Y-14319476D01*
X8343571Y-14309952D01*
X8353095Y-14300428D01*
X8353095Y-14319476D01*
X8438810Y-14138524D02*
X8448333Y-14129000D01*
X8467381Y-14119476D01*
X8515000Y-14119476D01*
X8534048Y-14129000D01*
X8543571Y-14138524D01*
X8553095Y-14157571D01*
X8553095Y-14176619D01*
X8543571Y-14205190D01*
X8429286Y-14319476D01*
X8553095Y-14319476D01*
X8676905Y-14119476D02*
X8695952Y-14119476D01*
X8715000Y-14129000D01*
X8724524Y-14138524D01*
X8734048Y-14157571D01*
X8743571Y-14195667D01*
X8743571Y-14243286D01*
X8734048Y-14281381D01*
X8724524Y-14300428D01*
X8715000Y-14309952D01*
X8695952Y-14319476D01*
X8676905Y-14319476D01*
X8657857Y-14309952D01*
X8648333Y-14300428D01*
X8638810Y-14281381D01*
X8629286Y-14243286D01*
X8629286Y-14195667D01*
X8638810Y-14157571D01*
X8648333Y-14138524D01*
X8657857Y-14129000D01*
X8676905Y-14119476D01*
X8867381Y-14119476D02*
X8886429Y-14119476D01*
X8905476Y-14129000D01*
X8915000Y-14138524D01*
X8924524Y-14157571D01*
X8934048Y-14195667D01*
X8934048Y-14243286D01*
X8924524Y-14281381D01*
X8915000Y-14300428D01*
X8905476Y-14309952D01*
X8886429Y-14319476D01*
X8867381Y-14319476D01*
X8848333Y-14309952D01*
X8838810Y-14300428D01*
X8829286Y-14281381D01*
X8819762Y-14243286D01*
X8819762Y-14195667D01*
X8829286Y-14157571D01*
X8838810Y-14138524D01*
X8848333Y-14129000D01*
X8867381Y-14119476D01*
X9019762Y-14319476D02*
X9019762Y-14186143D01*
X9019762Y-14205190D02*
X9029286Y-14195667D01*
X9048333Y-14186143D01*
X9076905Y-14186143D01*
X9095952Y-14195667D01*
X9105476Y-14214714D01*
X9105476Y-14319476D01*
X9105476Y-14214714D02*
X9115000Y-14195667D01*
X9134048Y-14186143D01*
X9162619Y-14186143D01*
X9181667Y-14195667D01*
X9191190Y-14214714D01*
X9191190Y-14319476D01*
X9286429Y-14319476D02*
X9286429Y-14186143D01*
X9286429Y-14205190D02*
X9295952Y-14195667D01*
X9315000Y-14186143D01*
X9343571Y-14186143D01*
X9362619Y-14195667D01*
X9372143Y-14214714D01*
X9372143Y-14319476D01*
X9372143Y-14214714D02*
X9381667Y-14195667D01*
X9400714Y-14186143D01*
X9429286Y-14186143D01*
X9448333Y-14195667D01*
X9457857Y-14214714D01*
X9457857Y-14319476D01*
X9848333Y-14109952D02*
X9676905Y-14367095D01*
X10105476Y-14119476D02*
X10124524Y-14119476D01*
X10143571Y-14129000D01*
X10153095Y-14138524D01*
X10162619Y-14157571D01*
X10172143Y-14195667D01*
X10172143Y-14243286D01*
X10162619Y-14281381D01*
X10153095Y-14300428D01*
X10143571Y-14309952D01*
X10124524Y-14319476D01*
X10105476Y-14319476D01*
X10086429Y-14309952D01*
X10076905Y-14300428D01*
X10067381Y-14281381D01*
X10057857Y-14243286D01*
X10057857Y-14195667D01*
X10067381Y-14157571D01*
X10076905Y-14138524D01*
X10086429Y-14129000D01*
X10105476Y-14119476D01*
X10257857Y-14300428D02*
X10267381Y-14309952D01*
X10257857Y-14319476D01*
X10248333Y-14309952D01*
X10257857Y-14300428D01*
X10257857Y-14319476D01*
X10391190Y-14119476D02*
X10410238Y-14119476D01*
X10429286Y-14129000D01*
X10438810Y-14138524D01*
X10448333Y-14157571D01*
X10457857Y-14195667D01*
X10457857Y-14243286D01*
X10448333Y-14281381D01*
X10438810Y-14300428D01*
X10429286Y-14309952D01*
X10410238Y-14319476D01*
X10391190Y-14319476D01*
X10372143Y-14309952D01*
X10362619Y-14300428D01*
X10353095Y-14281381D01*
X10343571Y-14243286D01*
X10343571Y-14195667D01*
X10353095Y-14157571D01*
X10362619Y-14138524D01*
X10372143Y-14129000D01*
X10391190Y-14119476D01*
X10629286Y-14186143D02*
X10629286Y-14319476D01*
X10581667Y-14109952D02*
X10534048Y-14252809D01*
X10657857Y-14252809D01*
X10715000Y-14119476D02*
X10848333Y-14119476D01*
X10762619Y-14319476D01*
X10915000Y-14138524D02*
X10924524Y-14129000D01*
X10943571Y-14119476D01*
X10991190Y-14119476D01*
X11010238Y-14129000D01*
X11019762Y-14138524D01*
X11029286Y-14157571D01*
X11029286Y-14176619D01*
X11019762Y-14205190D01*
X10905476Y-14319476D01*
X11029286Y-14319476D01*
X11105476Y-14119476D02*
X11105476Y-14157571D01*
X11181667Y-14119476D02*
X11181667Y-14157571D01*
X11476905Y-14395667D02*
X11467381Y-14386143D01*
X11448333Y-14357571D01*
X11438809Y-14338524D01*
X11429286Y-14309952D01*
X11419762Y-14262333D01*
X11419762Y-14224238D01*
X11429286Y-14176619D01*
X11438809Y-14148048D01*
X11448333Y-14129000D01*
X11467381Y-14100428D01*
X11476905Y-14090905D01*
X11657857Y-14319476D02*
X11543571Y-14319476D01*
X11600714Y-14319476D02*
X11600714Y-14119476D01*
X11581667Y-14148048D01*
X11562619Y-14167095D01*
X11543571Y-14176619D01*
X11734048Y-14138524D02*
X11743571Y-14129000D01*
X11762619Y-14119476D01*
X11810238Y-14119476D01*
X11829286Y-14129000D01*
X11838809Y-14138524D01*
X11848333Y-14157571D01*
X11848333Y-14176619D01*
X11838809Y-14205190D01*
X11724524Y-14319476D01*
X11848333Y-14319476D01*
X12086428Y-14319476D02*
X12086428Y-14119476D01*
X12172143Y-14319476D02*
X12172143Y-14214714D01*
X12162619Y-14195667D01*
X12143571Y-14186143D01*
X12115000Y-14186143D01*
X12095952Y-14195667D01*
X12086428Y-14205190D01*
X12295952Y-14319476D02*
X12276905Y-14309952D01*
X12267381Y-14300428D01*
X12257857Y-14281381D01*
X12257857Y-14224238D01*
X12267381Y-14205190D01*
X12276905Y-14195667D01*
X12295952Y-14186143D01*
X12324524Y-14186143D01*
X12343571Y-14195667D01*
X12353095Y-14205190D01*
X12362619Y-14224238D01*
X12362619Y-14281381D01*
X12353095Y-14300428D01*
X12343571Y-14309952D01*
X12324524Y-14319476D01*
X12295952Y-14319476D01*
X12476905Y-14319476D02*
X12457857Y-14309952D01*
X12448333Y-14290905D01*
X12448333Y-14119476D01*
X12629286Y-14309952D02*
X12610238Y-14319476D01*
X12572143Y-14319476D01*
X12553095Y-14309952D01*
X12543571Y-14290905D01*
X12543571Y-14214714D01*
X12553095Y-14195667D01*
X12572143Y-14186143D01*
X12610238Y-14186143D01*
X12629286Y-14195667D01*
X12638809Y-14214714D01*
X12638809Y-14233762D01*
X12543571Y-14252809D01*
X12715000Y-14309952D02*
X12734048Y-14319476D01*
X12772143Y-14319476D01*
X12791190Y-14309952D01*
X12800714Y-14290905D01*
X12800714Y-14281381D01*
X12791190Y-14262333D01*
X12772143Y-14252809D01*
X12743571Y-14252809D01*
X12724524Y-14243286D01*
X12715000Y-14224238D01*
X12715000Y-14214714D01*
X12724524Y-14195667D01*
X12743571Y-14186143D01*
X12772143Y-14186143D01*
X12791190Y-14195667D01*
X12867381Y-14395667D02*
X12876905Y-14386143D01*
X12895952Y-14357571D01*
X12905476Y-14338524D01*
X12915000Y-14309952D01*
X12924524Y-14262333D01*
X12924524Y-14224238D01*
X12915000Y-14176619D01*
X12905476Y-14148048D01*
X12895952Y-14129000D01*
X12876905Y-14100428D01*
X12867381Y-14090905D01*
D19*
X7775000Y-14428000D02*
X7905000Y-14558000D01*
X7905000Y-14428000D02*
X7775000Y-14558000D01*
X7885962Y-14538962D02*
X7885962Y-14447038D01*
X7794038Y-14447038D01*
X7794038Y-14538962D01*
X7885962Y-14538962D01*
D11*
X8267381Y-14583476D02*
X8153095Y-14583476D01*
X8210238Y-14583476D02*
X8210238Y-14383476D01*
X8191190Y-14412048D01*
X8172143Y-14431095D01*
X8153095Y-14440619D01*
X8353095Y-14564428D02*
X8362619Y-14573952D01*
X8353095Y-14583476D01*
X8343571Y-14573952D01*
X8353095Y-14564428D01*
X8353095Y-14583476D01*
X8429286Y-14383476D02*
X8553095Y-14383476D01*
X8486429Y-14459667D01*
X8515000Y-14459667D01*
X8534048Y-14469190D01*
X8543571Y-14478714D01*
X8553095Y-14497762D01*
X8553095Y-14545381D01*
X8543571Y-14564428D01*
X8534048Y-14573952D01*
X8515000Y-14583476D01*
X8457857Y-14583476D01*
X8438810Y-14573952D01*
X8429286Y-14564428D01*
X8676905Y-14383476D02*
X8695952Y-14383476D01*
X8715000Y-14393000D01*
X8724524Y-14402524D01*
X8734048Y-14421571D01*
X8743571Y-14459667D01*
X8743571Y-14507286D01*
X8734048Y-14545381D01*
X8724524Y-14564428D01*
X8715000Y-14573952D01*
X8695952Y-14583476D01*
X8676905Y-14583476D01*
X8657857Y-14573952D01*
X8648333Y-14564428D01*
X8638810Y-14545381D01*
X8629286Y-14507286D01*
X8629286Y-14459667D01*
X8638810Y-14421571D01*
X8648333Y-14402524D01*
X8657857Y-14393000D01*
X8676905Y-14383476D01*
X8867381Y-14383476D02*
X8886429Y-14383476D01*
X8905476Y-14393000D01*
X8915000Y-14402524D01*
X8924524Y-14421571D01*
X8934048Y-14459667D01*
X8934048Y-14507286D01*
X8924524Y-14545381D01*
X8915000Y-14564428D01*
X8905476Y-14573952D01*
X8886429Y-14583476D01*
X8867381Y-14583476D01*
X8848333Y-14573952D01*
X8838810Y-14564428D01*
X8829286Y-14545381D01*
X8819762Y-14507286D01*
X8819762Y-14459667D01*
X8829286Y-14421571D01*
X8838810Y-14402524D01*
X8848333Y-14393000D01*
X8867381Y-14383476D01*
X9019762Y-14583476D02*
X9019762Y-14450143D01*
X9019762Y-14469190D02*
X9029286Y-14459667D01*
X9048333Y-14450143D01*
X9076905Y-14450143D01*
X9095952Y-14459667D01*
X9105476Y-14478714D01*
X9105476Y-14583476D01*
X9105476Y-14478714D02*
X9115000Y-14459667D01*
X9134048Y-14450143D01*
X9162619Y-14450143D01*
X9181667Y-14459667D01*
X9191190Y-14478714D01*
X9191190Y-14583476D01*
X9286429Y-14583476D02*
X9286429Y-14450143D01*
X9286429Y-14469190D02*
X9295952Y-14459667D01*
X9315000Y-14450143D01*
X9343571Y-14450143D01*
X9362619Y-14459667D01*
X9372143Y-14478714D01*
X9372143Y-14583476D01*
X9372143Y-14478714D02*
X9381667Y-14459667D01*
X9400714Y-14450143D01*
X9429286Y-14450143D01*
X9448333Y-14459667D01*
X9457857Y-14478714D01*
X9457857Y-14583476D01*
X9848333Y-14373952D02*
X9676905Y-14631095D01*
X10105476Y-14383476D02*
X10124524Y-14383476D01*
X10143571Y-14393000D01*
X10153095Y-14402524D01*
X10162619Y-14421571D01*
X10172143Y-14459667D01*
X10172143Y-14507286D01*
X10162619Y-14545381D01*
X10153095Y-14564428D01*
X10143571Y-14573952D01*
X10124524Y-14583476D01*
X10105476Y-14583476D01*
X10086429Y-14573952D01*
X10076905Y-14564428D01*
X10067381Y-14545381D01*
X10057857Y-14507286D01*
X10057857Y-14459667D01*
X10067381Y-14421571D01*
X10076905Y-14402524D01*
X10086429Y-14393000D01*
X10105476Y-14383476D01*
X10257857Y-14564428D02*
X10267381Y-14573952D01*
X10257857Y-14583476D01*
X10248333Y-14573952D01*
X10257857Y-14564428D01*
X10257857Y-14583476D01*
X10391190Y-14383476D02*
X10410238Y-14383476D01*
X10429286Y-14393000D01*
X10438810Y-14402524D01*
X10448333Y-14421571D01*
X10457857Y-14459667D01*
X10457857Y-14507286D01*
X10448333Y-14545381D01*
X10438810Y-14564428D01*
X10429286Y-14573952D01*
X10410238Y-14583476D01*
X10391190Y-14583476D01*
X10372143Y-14573952D01*
X10362619Y-14564428D01*
X10353095Y-14545381D01*
X10343571Y-14507286D01*
X10343571Y-14459667D01*
X10353095Y-14421571D01*
X10362619Y-14402524D01*
X10372143Y-14393000D01*
X10391190Y-14383476D01*
X10638810Y-14383476D02*
X10543571Y-14383476D01*
X10534048Y-14478714D01*
X10543571Y-14469190D01*
X10562619Y-14459667D01*
X10610238Y-14459667D01*
X10629286Y-14469190D01*
X10638810Y-14478714D01*
X10648333Y-14497762D01*
X10648333Y-14545381D01*
X10638810Y-14564428D01*
X10629286Y-14573952D01*
X10610238Y-14583476D01*
X10562619Y-14583476D01*
X10543571Y-14573952D01*
X10534048Y-14564428D01*
X10838810Y-14583476D02*
X10724524Y-14583476D01*
X10781667Y-14583476D02*
X10781667Y-14383476D01*
X10762619Y-14412048D01*
X10743571Y-14431095D01*
X10724524Y-14440619D01*
X10915000Y-14402524D02*
X10924524Y-14393000D01*
X10943571Y-14383476D01*
X10991190Y-14383476D01*
X11010238Y-14393000D01*
X11019762Y-14402524D01*
X11029286Y-14421571D01*
X11029286Y-14440619D01*
X11019762Y-14469190D01*
X10905476Y-14583476D01*
X11029286Y-14583476D01*
X11105476Y-14383476D02*
X11105476Y-14421571D01*
X11181667Y-14383476D02*
X11181667Y-14421571D01*
X11476905Y-14659667D02*
X11467381Y-14650143D01*
X11448333Y-14621571D01*
X11438809Y-14602524D01*
X11429286Y-14573952D01*
X11419762Y-14526333D01*
X11419762Y-14488238D01*
X11429286Y-14440619D01*
X11438809Y-14412048D01*
X11448333Y-14393000D01*
X11467381Y-14364428D01*
X11476905Y-14354905D01*
X11638809Y-14450143D02*
X11638809Y-14583476D01*
X11591190Y-14373952D02*
X11543571Y-14516809D01*
X11667381Y-14516809D01*
X11895952Y-14583476D02*
X11895952Y-14383476D01*
X11981667Y-14583476D02*
X11981667Y-14478714D01*
X11972143Y-14459667D01*
X11953095Y-14450143D01*
X11924524Y-14450143D01*
X11905476Y-14459667D01*
X11895952Y-14469190D01*
X12105476Y-14583476D02*
X12086428Y-14573952D01*
X12076905Y-14564428D01*
X12067381Y-14545381D01*
X12067381Y-14488238D01*
X12076905Y-14469190D01*
X12086428Y-14459667D01*
X12105476Y-14450143D01*
X12134048Y-14450143D01*
X12153095Y-14459667D01*
X12162619Y-14469190D01*
X12172143Y-14488238D01*
X12172143Y-14545381D01*
X12162619Y-14564428D01*
X12153095Y-14573952D01*
X12134048Y-14583476D01*
X12105476Y-14583476D01*
X12286428Y-14583476D02*
X12267381Y-14573952D01*
X12257857Y-14554905D01*
X12257857Y-14383476D01*
X12438809Y-14573952D02*
X12419762Y-14583476D01*
X12381667Y-14583476D01*
X12362619Y-14573952D01*
X12353095Y-14554905D01*
X12353095Y-14478714D01*
X12362619Y-14459667D01*
X12381667Y-14450143D01*
X12419762Y-14450143D01*
X12438809Y-14459667D01*
X12448333Y-14478714D01*
X12448333Y-14497762D01*
X12353095Y-14516809D01*
X12524524Y-14573952D02*
X12543571Y-14583476D01*
X12581667Y-14583476D01*
X12600714Y-14573952D01*
X12610238Y-14554905D01*
X12610238Y-14545381D01*
X12600714Y-14526333D01*
X12581667Y-14516809D01*
X12553095Y-14516809D01*
X12534048Y-14507286D01*
X12524524Y-14488238D01*
X12524524Y-14478714D01*
X12534048Y-14459667D01*
X12553095Y-14450143D01*
X12581667Y-14450143D01*
X12600714Y-14459667D01*
X12676905Y-14659667D02*
X12686428Y-14650143D01*
X12705476Y-14621571D01*
X12715000Y-14602524D01*
X12724524Y-14573952D01*
X12734048Y-14526333D01*
X12734048Y-14488238D01*
X12724524Y-14440619D01*
X12715000Y-14412048D01*
X12705476Y-14393000D01*
X12686428Y-14364428D01*
X12676905Y-14354905D01*
D20*
X7745000Y-14677000D02*
X7905000Y-14837000D01*
X7905000Y-14677000D02*
X7745000Y-14837000D01*
X7825000Y-14837000D02*
X7905000Y-14757000D01*
X7825000Y-14677000D01*
X7745000Y-14757000D01*
X7825000Y-14837000D01*
D11*
X8267381Y-14847476D02*
X8153095Y-14847476D01*
X8210238Y-14847476D02*
X8210238Y-14647476D01*
X8191190Y-14676048D01*
X8172143Y-14695095D01*
X8153095Y-14704619D01*
X8353095Y-14828428D02*
X8362619Y-14837952D01*
X8353095Y-14847476D01*
X8343571Y-14837952D01*
X8353095Y-14828428D01*
X8353095Y-14847476D01*
X8534048Y-14647476D02*
X8495952Y-14647476D01*
X8476905Y-14657000D01*
X8467381Y-14666524D01*
X8448333Y-14695095D01*
X8438810Y-14733190D01*
X8438810Y-14809381D01*
X8448333Y-14828428D01*
X8457857Y-14837952D01*
X8476905Y-14847476D01*
X8515000Y-14847476D01*
X8534048Y-14837952D01*
X8543571Y-14828428D01*
X8553095Y-14809381D01*
X8553095Y-14761762D01*
X8543571Y-14742714D01*
X8534048Y-14733190D01*
X8515000Y-14723667D01*
X8476905Y-14723667D01*
X8457857Y-14733190D01*
X8448333Y-14742714D01*
X8438810Y-14761762D01*
X8676905Y-14647476D02*
X8695952Y-14647476D01*
X8715000Y-14657000D01*
X8724524Y-14666524D01*
X8734048Y-14685571D01*
X8743571Y-14723667D01*
X8743571Y-14771286D01*
X8734048Y-14809381D01*
X8724524Y-14828428D01*
X8715000Y-14837952D01*
X8695952Y-14847476D01*
X8676905Y-14847476D01*
X8657857Y-14837952D01*
X8648333Y-14828428D01*
X8638810Y-14809381D01*
X8629286Y-14771286D01*
X8629286Y-14723667D01*
X8638810Y-14685571D01*
X8648333Y-14666524D01*
X8657857Y-14657000D01*
X8676905Y-14647476D01*
X8867381Y-14647476D02*
X8886429Y-14647476D01*
X8905476Y-14657000D01*
X8915000Y-14666524D01*
X8924524Y-14685571D01*
X8934048Y-14723667D01*
X8934048Y-14771286D01*
X8924524Y-14809381D01*
X8915000Y-14828428D01*
X8905476Y-14837952D01*
X8886429Y-14847476D01*
X8867381Y-14847476D01*
X8848333Y-14837952D01*
X8838810Y-14828428D01*
X8829286Y-14809381D01*
X8819762Y-14771286D01*
X8819762Y-14723667D01*
X8829286Y-14685571D01*
X8838810Y-14666524D01*
X8848333Y-14657000D01*
X8867381Y-14647476D01*
X9019762Y-14847476D02*
X9019762Y-14714143D01*
X9019762Y-14733190D02*
X9029286Y-14723667D01*
X9048333Y-14714143D01*
X9076905Y-14714143D01*
X9095952Y-14723667D01*
X9105476Y-14742714D01*
X9105476Y-14847476D01*
X9105476Y-14742714D02*
X9115000Y-14723667D01*
X9134048Y-14714143D01*
X9162619Y-14714143D01*
X9181667Y-14723667D01*
X9191190Y-14742714D01*
X9191190Y-14847476D01*
X9286429Y-14847476D02*
X9286429Y-14714143D01*
X9286429Y-14733190D02*
X9295952Y-14723667D01*
X9315000Y-14714143D01*
X9343571Y-14714143D01*
X9362619Y-14723667D01*
X9372143Y-14742714D01*
X9372143Y-14847476D01*
X9372143Y-14742714D02*
X9381667Y-14723667D01*
X9400714Y-14714143D01*
X9429286Y-14714143D01*
X9448333Y-14723667D01*
X9457857Y-14742714D01*
X9457857Y-14847476D01*
X9848333Y-14637952D02*
X9676905Y-14895095D01*
X10105476Y-14647476D02*
X10124524Y-14647476D01*
X10143571Y-14657000D01*
X10153095Y-14666524D01*
X10162619Y-14685571D01*
X10172143Y-14723667D01*
X10172143Y-14771286D01*
X10162619Y-14809381D01*
X10153095Y-14828428D01*
X10143571Y-14837952D01*
X10124524Y-14847476D01*
X10105476Y-14847476D01*
X10086429Y-14837952D01*
X10076905Y-14828428D01*
X10067381Y-14809381D01*
X10057857Y-14771286D01*
X10057857Y-14723667D01*
X10067381Y-14685571D01*
X10076905Y-14666524D01*
X10086429Y-14657000D01*
X10105476Y-14647476D01*
X10257857Y-14828428D02*
X10267381Y-14837952D01*
X10257857Y-14847476D01*
X10248333Y-14837952D01*
X10257857Y-14828428D01*
X10257857Y-14847476D01*
X10391190Y-14647476D02*
X10410238Y-14647476D01*
X10429286Y-14657000D01*
X10438810Y-14666524D01*
X10448333Y-14685571D01*
X10457857Y-14723667D01*
X10457857Y-14771286D01*
X10448333Y-14809381D01*
X10438810Y-14828428D01*
X10429286Y-14837952D01*
X10410238Y-14847476D01*
X10391190Y-14847476D01*
X10372143Y-14837952D01*
X10362619Y-14828428D01*
X10353095Y-14809381D01*
X10343571Y-14771286D01*
X10343571Y-14723667D01*
X10353095Y-14685571D01*
X10362619Y-14666524D01*
X10372143Y-14657000D01*
X10391190Y-14647476D01*
X10629286Y-14647476D02*
X10591190Y-14647476D01*
X10572143Y-14657000D01*
X10562619Y-14666524D01*
X10543571Y-14695095D01*
X10534048Y-14733190D01*
X10534048Y-14809381D01*
X10543571Y-14828428D01*
X10553095Y-14837952D01*
X10572143Y-14847476D01*
X10610238Y-14847476D01*
X10629286Y-14837952D01*
X10638810Y-14828428D01*
X10648333Y-14809381D01*
X10648333Y-14761762D01*
X10638810Y-14742714D01*
X10629286Y-14733190D01*
X10610238Y-14723667D01*
X10572143Y-14723667D01*
X10553095Y-14733190D01*
X10543571Y-14742714D01*
X10534048Y-14761762D01*
X10715000Y-14647476D02*
X10838810Y-14647476D01*
X10772143Y-14723667D01*
X10800714Y-14723667D01*
X10819762Y-14733190D01*
X10829286Y-14742714D01*
X10838810Y-14761762D01*
X10838810Y-14809381D01*
X10829286Y-14828428D01*
X10819762Y-14837952D01*
X10800714Y-14847476D01*
X10743571Y-14847476D01*
X10724524Y-14837952D01*
X10715000Y-14828428D01*
X10962619Y-14647476D02*
X10981667Y-14647476D01*
X11000714Y-14657000D01*
X11010238Y-14666524D01*
X11019762Y-14685571D01*
X11029286Y-14723667D01*
X11029286Y-14771286D01*
X11019762Y-14809381D01*
X11010238Y-14828428D01*
X11000714Y-14837952D01*
X10981667Y-14847476D01*
X10962619Y-14847476D01*
X10943571Y-14837952D01*
X10934048Y-14828428D01*
X10924524Y-14809381D01*
X10915000Y-14771286D01*
X10915000Y-14723667D01*
X10924524Y-14685571D01*
X10934048Y-14666524D01*
X10943571Y-14657000D01*
X10962619Y-14647476D01*
X11105476Y-14647476D02*
X11105476Y-14685571D01*
X11181667Y-14647476D02*
X11181667Y-14685571D01*
X11476905Y-14923667D02*
X11467381Y-14914143D01*
X11448333Y-14885571D01*
X11438809Y-14866524D01*
X11429286Y-14837952D01*
X11419762Y-14790333D01*
X11419762Y-14752238D01*
X11429286Y-14704619D01*
X11438809Y-14676048D01*
X11448333Y-14657000D01*
X11467381Y-14628428D01*
X11476905Y-14618905D01*
X11638809Y-14714143D02*
X11638809Y-14847476D01*
X11591190Y-14637952D02*
X11543571Y-14780809D01*
X11667381Y-14780809D01*
X11895952Y-14847476D02*
X11895952Y-14647476D01*
X11981667Y-14847476D02*
X11981667Y-14742714D01*
X11972143Y-14723667D01*
X11953095Y-14714143D01*
X11924524Y-14714143D01*
X11905476Y-14723667D01*
X11895952Y-14733190D01*
X12105476Y-14847476D02*
X12086428Y-14837952D01*
X12076905Y-14828428D01*
X12067381Y-14809381D01*
X12067381Y-14752238D01*
X12076905Y-14733190D01*
X12086428Y-14723667D01*
X12105476Y-14714143D01*
X12134048Y-14714143D01*
X12153095Y-14723667D01*
X12162619Y-14733190D01*
X12172143Y-14752238D01*
X12172143Y-14809381D01*
X12162619Y-14828428D01*
X12153095Y-14837952D01*
X12134048Y-14847476D01*
X12105476Y-14847476D01*
X12286428Y-14847476D02*
X12267381Y-14837952D01*
X12257857Y-14818905D01*
X12257857Y-14647476D01*
X12438809Y-14837952D02*
X12419762Y-14847476D01*
X12381667Y-14847476D01*
X12362619Y-14837952D01*
X12353095Y-14818905D01*
X12353095Y-14742714D01*
X12362619Y-14723667D01*
X12381667Y-14714143D01*
X12419762Y-14714143D01*
X12438809Y-14723667D01*
X12448333Y-14742714D01*
X12448333Y-14761762D01*
X12353095Y-14780809D01*
X12524524Y-14837952D02*
X12543571Y-14847476D01*
X12581667Y-14847476D01*
X12600714Y-14837952D01*
X12610238Y-14818905D01*
X12610238Y-14809381D01*
X12600714Y-14790333D01*
X12581667Y-14780809D01*
X12553095Y-14780809D01*
X12534048Y-14771286D01*
X12524524Y-14752238D01*
X12524524Y-14742714D01*
X12534048Y-14723667D01*
X12553095Y-14714143D01*
X12581667Y-14714143D01*
X12600714Y-14723667D01*
X12676905Y-14923667D02*
X12686428Y-14914143D01*
X12705476Y-14885571D01*
X12715000Y-14866524D01*
X12724524Y-14837952D01*
X12734048Y-14790333D01*
X12734048Y-14752238D01*
X12724524Y-14704619D01*
X12715000Y-14676048D01*
X12705476Y-14657000D01*
X12686428Y-14628428D01*
X12676905Y-14618905D01*
X7805000Y-14937000D02*
X7805000Y-15137000D01*
X7705000Y-15037000D02*
X7905000Y-15037000D01*
X7905000Y-15037000D02*
G75*
G03*
X7905000Y-15037000I-100000J0D01*
G01*
X8153095Y-14946524D02*
X8162619Y-14937000D01*
X8181667Y-14927476D01*
X8229286Y-14927476D01*
X8248333Y-14937000D01*
X8257857Y-14946524D01*
X8267381Y-14965571D01*
X8267381Y-14984619D01*
X8257857Y-15013190D01*
X8143571Y-15127476D01*
X8267381Y-15127476D01*
X8353095Y-15108428D02*
X8362619Y-15117952D01*
X8353095Y-15127476D01*
X8343571Y-15117952D01*
X8353095Y-15108428D01*
X8353095Y-15127476D01*
X8543571Y-14927476D02*
X8448333Y-14927476D01*
X8438810Y-15022714D01*
X8448333Y-15013190D01*
X8467381Y-15003667D01*
X8515000Y-15003667D01*
X8534048Y-15013190D01*
X8543571Y-15022714D01*
X8553095Y-15041762D01*
X8553095Y-15089381D01*
X8543571Y-15108428D01*
X8534048Y-15117952D01*
X8515000Y-15127476D01*
X8467381Y-15127476D01*
X8448333Y-15117952D01*
X8438810Y-15108428D01*
X8676905Y-14927476D02*
X8695952Y-14927476D01*
X8715000Y-14937000D01*
X8724524Y-14946524D01*
X8734048Y-14965571D01*
X8743571Y-15003667D01*
X8743571Y-15051286D01*
X8734048Y-15089381D01*
X8724524Y-15108428D01*
X8715000Y-15117952D01*
X8695952Y-15127476D01*
X8676905Y-15127476D01*
X8657857Y-15117952D01*
X8648333Y-15108428D01*
X8638810Y-15089381D01*
X8629286Y-15051286D01*
X8629286Y-15003667D01*
X8638810Y-14965571D01*
X8648333Y-14946524D01*
X8657857Y-14937000D01*
X8676905Y-14927476D01*
X8867381Y-14927476D02*
X8886429Y-14927476D01*
X8905476Y-14937000D01*
X8915000Y-14946524D01*
X8924524Y-14965571D01*
X8934048Y-15003667D01*
X8934048Y-15051286D01*
X8924524Y-15089381D01*
X8915000Y-15108428D01*
X8905476Y-15117952D01*
X8886429Y-15127476D01*
X8867381Y-15127476D01*
X8848333Y-15117952D01*
X8838810Y-15108428D01*
X8829286Y-15089381D01*
X8819762Y-15051286D01*
X8819762Y-15003667D01*
X8829286Y-14965571D01*
X8838810Y-14946524D01*
X8848333Y-14937000D01*
X8867381Y-14927476D01*
X9019762Y-15127476D02*
X9019762Y-14994143D01*
X9019762Y-15013190D02*
X9029286Y-15003667D01*
X9048333Y-14994143D01*
X9076905Y-14994143D01*
X9095952Y-15003667D01*
X9105476Y-15022714D01*
X9105476Y-15127476D01*
X9105476Y-15022714D02*
X9115000Y-15003667D01*
X9134048Y-14994143D01*
X9162619Y-14994143D01*
X9181667Y-15003667D01*
X9191190Y-15022714D01*
X9191190Y-15127476D01*
X9286429Y-15127476D02*
X9286429Y-14994143D01*
X9286429Y-15013190D02*
X9295952Y-15003667D01*
X9315000Y-14994143D01*
X9343571Y-14994143D01*
X9362619Y-15003667D01*
X9372143Y-15022714D01*
X9372143Y-15127476D01*
X9372143Y-15022714D02*
X9381667Y-15003667D01*
X9400714Y-14994143D01*
X9429286Y-14994143D01*
X9448333Y-15003667D01*
X9457857Y-15022714D01*
X9457857Y-15127476D01*
X9848333Y-14917952D02*
X9676905Y-15175095D01*
X10105476Y-14927476D02*
X10124524Y-14927476D01*
X10143571Y-14937000D01*
X10153095Y-14946524D01*
X10162619Y-14965571D01*
X10172143Y-15003667D01*
X10172143Y-15051286D01*
X10162619Y-15089381D01*
X10153095Y-15108428D01*
X10143571Y-15117952D01*
X10124524Y-15127476D01*
X10105476Y-15127476D01*
X10086429Y-15117952D01*
X10076905Y-15108428D01*
X10067381Y-15089381D01*
X10057857Y-15051286D01*
X10057857Y-15003667D01*
X10067381Y-14965571D01*
X10076905Y-14946524D01*
X10086429Y-14937000D01*
X10105476Y-14927476D01*
X10257857Y-15108428D02*
X10267381Y-15117952D01*
X10257857Y-15127476D01*
X10248333Y-15117952D01*
X10257857Y-15108428D01*
X10257857Y-15127476D01*
X10391190Y-14927476D02*
X10410238Y-14927476D01*
X10429286Y-14937000D01*
X10438810Y-14946524D01*
X10448333Y-14965571D01*
X10457857Y-15003667D01*
X10457857Y-15051286D01*
X10448333Y-15089381D01*
X10438810Y-15108428D01*
X10429286Y-15117952D01*
X10410238Y-15127476D01*
X10391190Y-15127476D01*
X10372143Y-15117952D01*
X10362619Y-15108428D01*
X10353095Y-15089381D01*
X10343571Y-15051286D01*
X10343571Y-15003667D01*
X10353095Y-14965571D01*
X10362619Y-14946524D01*
X10372143Y-14937000D01*
X10391190Y-14927476D01*
X10553095Y-15127476D02*
X10591190Y-15127476D01*
X10610238Y-15117952D01*
X10619762Y-15108428D01*
X10638810Y-15079857D01*
X10648333Y-15041762D01*
X10648333Y-14965571D01*
X10638810Y-14946524D01*
X10629286Y-14937000D01*
X10610238Y-14927476D01*
X10572143Y-14927476D01*
X10553095Y-14937000D01*
X10543571Y-14946524D01*
X10534048Y-14965571D01*
X10534048Y-15013190D01*
X10543571Y-15032238D01*
X10553095Y-15041762D01*
X10572143Y-15051286D01*
X10610238Y-15051286D01*
X10629286Y-15041762D01*
X10638810Y-15032238D01*
X10648333Y-15013190D01*
X10762619Y-15013190D02*
X10743571Y-15003667D01*
X10734048Y-14994143D01*
X10724524Y-14975095D01*
X10724524Y-14965571D01*
X10734048Y-14946524D01*
X10743571Y-14937000D01*
X10762619Y-14927476D01*
X10800714Y-14927476D01*
X10819762Y-14937000D01*
X10829286Y-14946524D01*
X10838810Y-14965571D01*
X10838810Y-14975095D01*
X10829286Y-14994143D01*
X10819762Y-15003667D01*
X10800714Y-15013190D01*
X10762619Y-15013190D01*
X10743571Y-15022714D01*
X10734048Y-15032238D01*
X10724524Y-15051286D01*
X10724524Y-15089381D01*
X10734048Y-15108428D01*
X10743571Y-15117952D01*
X10762619Y-15127476D01*
X10800714Y-15127476D01*
X10819762Y-15117952D01*
X10829286Y-15108428D01*
X10838810Y-15089381D01*
X10838810Y-15051286D01*
X10829286Y-15032238D01*
X10819762Y-15022714D01*
X10800714Y-15013190D01*
X11010238Y-14994143D02*
X11010238Y-15127476D01*
X10962619Y-14917952D02*
X10915000Y-15060809D01*
X11038810Y-15060809D01*
X11105476Y-14927476D02*
X11105476Y-14965571D01*
X11181667Y-14927476D02*
X11181667Y-14965571D01*
X11476905Y-15203667D02*
X11467381Y-15194143D01*
X11448333Y-15165571D01*
X11438809Y-15146524D01*
X11429286Y-15117952D01*
X11419762Y-15070333D01*
X11419762Y-15032238D01*
X11429286Y-14984619D01*
X11438809Y-14956048D01*
X11448333Y-14937000D01*
X11467381Y-14908428D01*
X11476905Y-14898905D01*
X11638809Y-14994143D02*
X11638809Y-15127476D01*
X11591190Y-14917952D02*
X11543571Y-15060809D01*
X11667381Y-15060809D01*
X11895952Y-15127476D02*
X11895952Y-14927476D01*
X11981667Y-15127476D02*
X11981667Y-15022714D01*
X11972143Y-15003667D01*
X11953095Y-14994143D01*
X11924524Y-14994143D01*
X11905476Y-15003667D01*
X11895952Y-15013190D01*
X12105476Y-15127476D02*
X12086428Y-15117952D01*
X12076905Y-15108428D01*
X12067381Y-15089381D01*
X12067381Y-15032238D01*
X12076905Y-15013190D01*
X12086428Y-15003667D01*
X12105476Y-14994143D01*
X12134048Y-14994143D01*
X12153095Y-15003667D01*
X12162619Y-15013190D01*
X12172143Y-15032238D01*
X12172143Y-15089381D01*
X12162619Y-15108428D01*
X12153095Y-15117952D01*
X12134048Y-15127476D01*
X12105476Y-15127476D01*
X12286428Y-15127476D02*
X12267381Y-15117952D01*
X12257857Y-15098905D01*
X12257857Y-14927476D01*
X12438809Y-15117952D02*
X12419762Y-15127476D01*
X12381667Y-15127476D01*
X12362619Y-15117952D01*
X12353095Y-15098905D01*
X12353095Y-15022714D01*
X12362619Y-15003667D01*
X12381667Y-14994143D01*
X12419762Y-14994143D01*
X12438809Y-15003667D01*
X12448333Y-15022714D01*
X12448333Y-15041762D01*
X12353095Y-15060809D01*
X12524524Y-15117952D02*
X12543571Y-15127476D01*
X12581667Y-15127476D01*
X12600714Y-15117952D01*
X12610238Y-15098905D01*
X12610238Y-15089381D01*
X12600714Y-15070333D01*
X12581667Y-15060809D01*
X12553095Y-15060809D01*
X12534048Y-15051286D01*
X12524524Y-15032238D01*
X12524524Y-15022714D01*
X12534048Y-15003667D01*
X12553095Y-14994143D01*
X12581667Y-14994143D01*
X12600714Y-15003667D01*
X12676905Y-15203667D02*
X12686428Y-15194143D01*
X12705476Y-15165571D01*
X12715000Y-15146524D01*
X12724524Y-15117952D01*
X12734048Y-15070333D01*
X12734048Y-15032238D01*
X12724524Y-14984619D01*
X12715000Y-14956048D01*
X12705476Y-14937000D01*
X12686428Y-14908428D01*
X12676905Y-14898905D01*
M02*
