G04 #@! TF.GenerationSoftware,KiCad,Pcbnew,(6.0.4)*
G04 #@! TF.CreationDate,2022-05-03T12:05:26+02:00*
G04 #@! TF.ProjectId,Zasilacz_wzm_sluchawkowy_2x12v,5a617369-6c61-4637-9a5f-777a6d5f736c,rev?*
G04 #@! TF.SameCoordinates,Original*
G04 #@! TF.FileFunction,Soldermask,Top*
G04 #@! TF.FilePolarity,Negative*
%FSLAX46Y46*%
G04 Gerber Fmt 4.6, Leading zero omitted, Abs format (unit mm)*
G04 Created by KiCad (PCBNEW (6.0.4)) date 2022-05-03 12:05:26*
%MOMM*%
%LPD*%
G01*
G04 APERTURE LIST*
G04 Aperture macros list*
%AMRoundRect*
0 Rectangle with rounded corners*
0 $1 Rounding radius*
0 $2 $3 $4 $5 $6 $7 $8 $9 X,Y pos of 4 corners*
0 Add a 4 corners polygon primitive as box body*
4,1,4,$2,$3,$4,$5,$6,$7,$8,$9,$2,$3,0*
0 Add four circle primitives for the rounded corners*
1,1,$1+$1,$2,$3*
1,1,$1+$1,$4,$5*
1,1,$1+$1,$6,$7*
1,1,$1+$1,$8,$9*
0 Add four rect primitives between the rounded corners*
20,1,$1+$1,$2,$3,$4,$5,0*
20,1,$1+$1,$4,$5,$6,$7,0*
20,1,$1+$1,$6,$7,$8,$9,0*
20,1,$1+$1,$8,$9,$2,$3,0*%
G04 Aperture macros list end*
%ADD10R,2.400000X2.400000*%
%ADD11C,2.400000*%
%ADD12C,1.600000*%
%ADD13O,1.600000X1.600000*%
%ADD14C,2.300000*%
%ADD15R,1.600000X1.600000*%
%ADD16O,2.400000X2.400000*%
%ADD17C,5.000000*%
%ADD18RoundRect,0.250000X0.845000X-0.620000X0.845000X0.620000X-0.845000X0.620000X-0.845000X-0.620000X0*%
%ADD19O,2.190000X1.740000*%
%ADD20RoundRect,0.250000X-0.620000X-0.845000X0.620000X-0.845000X0.620000X0.845000X-0.620000X0.845000X0*%
%ADD21O,1.740000X2.190000*%
%ADD22R,2.200000X2.200000*%
%ADD23O,2.200000X2.200000*%
%ADD24R,3.200000X3.200000*%
%ADD25O,3.200000X3.200000*%
%ADD26R,1.800000X1.800000*%
%ADD27C,1.800000*%
%ADD28RoundRect,0.250000X-0.350000X-0.625000X0.350000X-0.625000X0.350000X0.625000X-0.350000X0.625000X0*%
%ADD29O,1.200000X1.750000*%
%ADD30R,1.905000X2.000000*%
%ADD31O,1.905000X2.000000*%
%ADD32RoundRect,0.250000X0.620000X0.845000X-0.620000X0.845000X-0.620000X-0.845000X0.620000X-0.845000X0*%
G04 APERTURE END LIST*
D10*
G04 #@! TO.C,C7*
X128000000Y-98722220D03*
D11*
X128000000Y-106222220D03*
G04 #@! TD*
D12*
G04 #@! TO.C,R4*
X98720000Y-83100000D03*
D13*
X108880000Y-83100000D03*
G04 #@! TD*
D12*
G04 #@! TO.C,C3*
X96050000Y-74000000D03*
X88550000Y-74000000D03*
G04 #@! TD*
D14*
G04 #@! TO.C,F1*
X160000000Y-85850000D03*
X160000000Y-91050000D03*
X160000000Y-101150000D03*
X160000000Y-106350000D03*
G04 #@! TD*
D15*
G04 #@! TO.C,C5*
X100900000Y-74400000D03*
D12*
X100900000Y-79400000D03*
G04 #@! TD*
G04 #@! TO.C,R6*
X102620000Y-108500000D03*
D13*
X112780000Y-108500000D03*
G04 #@! TD*
D12*
G04 #@! TO.C,R2*
X105920000Y-75300000D03*
D13*
X116080000Y-75300000D03*
G04 #@! TD*
D10*
G04 #@! TO.C,C4*
X93323959Y-83400000D03*
D11*
X88323959Y-83400000D03*
G04 #@! TD*
G04 #@! TO.C,R7*
X144000000Y-114300000D03*
D16*
X144000000Y-91900000D03*
G04 #@! TD*
D12*
G04 #@! TO.C,C8*
X131550000Y-116300000D03*
X124050000Y-116300000D03*
G04 #@! TD*
D17*
G04 #@! TO.C,REF\u002A\u002A*
X83500000Y-115500000D03*
G04 #@! TD*
D15*
G04 #@! TO.C,C6*
X102600000Y-103700000D03*
D12*
X102600000Y-98700000D03*
G04 #@! TD*
G04 #@! TO.C,R5*
X103920000Y-95600000D03*
D13*
X114080000Y-95600000D03*
G04 #@! TD*
D12*
G04 #@! TO.C,R3*
X114500000Y-81900000D03*
D13*
X114500000Y-92060000D03*
G04 #@! TD*
D18*
G04 #@! TO.C,J1*
X160000000Y-77200000D03*
D19*
X160000000Y-74660000D03*
G04 #@! TD*
D11*
G04 #@! TO.C,R1*
X143900000Y-65400000D03*
D16*
X143900000Y-87800000D03*
G04 #@! TD*
D20*
G04 #@! TO.C,J3*
X90800000Y-113950000D03*
D21*
X93340000Y-113950000D03*
X95880000Y-113950000D03*
G04 #@! TD*
D22*
G04 #@! TO.C,D4*
X112680000Y-111800000D03*
D23*
X102520000Y-111800000D03*
G04 #@! TD*
D10*
G04 #@! TO.C,C1*
X127800000Y-73622220D03*
D11*
X127800000Y-81122220D03*
G04 #@! TD*
D24*
G04 #@! TO.C,D5*
X151100000Y-95180000D03*
D25*
X151100000Y-110420000D03*
G04 #@! TD*
D22*
G04 #@! TO.C,D2*
X116080000Y-71900000D03*
D23*
X105920000Y-71900000D03*
G04 #@! TD*
D24*
G04 #@! TO.C,D1*
X151100000Y-69780000D03*
D25*
X151100000Y-85020000D03*
G04 #@! TD*
D26*
G04 #@! TO.C,D3*
X98725000Y-89900000D03*
D27*
X101265000Y-89900000D03*
G04 #@! TD*
D10*
G04 #@! TO.C,C10*
X88476041Y-97400000D03*
D11*
X93476041Y-97400000D03*
G04 #@! TD*
D12*
G04 #@! TO.C,C9*
X87650000Y-106700000D03*
X95150000Y-106700000D03*
G04 #@! TD*
D17*
G04 #@! TO.C,REF\u002A\u002A*
X83300000Y-64900000D03*
G04 #@! TD*
D12*
G04 #@! TO.C,C2*
X123950000Y-63400000D03*
X131450000Y-63400000D03*
G04 #@! TD*
D28*
G04 #@! TO.C,J2*
X106900000Y-89950000D03*
D29*
X108900000Y-89950000D03*
G04 #@! TD*
D30*
G04 #@! TO.C,U1*
X106960000Y-63300000D03*
D31*
X109500000Y-63300000D03*
X112040000Y-63300000D03*
G04 #@! TD*
D17*
G04 #@! TO.C,REF\u002A\u002A*
X160200000Y-65000000D03*
G04 #@! TD*
D32*
G04 #@! TO.C,J4*
X95740000Y-66080000D03*
D21*
X93200000Y-66080000D03*
X90660000Y-66080000D03*
G04 #@! TD*
D30*
G04 #@! TO.C,U2*
X112040000Y-116655000D03*
D31*
X109500000Y-116655000D03*
X106960000Y-116655000D03*
G04 #@! TD*
D17*
G04 #@! TO.C,REF\u002A\u002A*
X160200000Y-115300000D03*
G04 #@! TD*
M02*
