M48
; DRILL file {KiCad 9.0.5} date 2025-10-21T11:31:15+0200
; FORMAT={-:-/ absolute / metric / decimal}
; #@! TF.CreationDate,2025-10-21T11:31:15+02:00
; #@! TF.GenerationSoftware,Kicad,Pcbnew,9.0.5
; #@! TF.FileFunction,Plated,1,2,PTH
FMAT,2
METRIC
; #@! TA.AperFunction,Plated,PTH,ComponentDrill
T1C0.600
; #@! TA.AperFunction,Plated,PTH,ComponentDrill
T2C0.750
%
G90
G05
T1
X103.952Y-103.218
X104.048Y-98.218
X106.548Y-98.218
X106.548Y-103.218
X109.048Y-98.218
X109.129Y-103.232
X111.548Y-98.218
X111.548Y-103.218
X114.048Y-98.218
X114.048Y-103.218
X143.952Y-103.218
X144.048Y-98.218
X146.548Y-98.218
X146.548Y-103.218
X149.048Y-98.218
X149.129Y-103.232
X151.548Y-98.218
X151.548Y-103.218
X154.048Y-98.218
X154.048Y-103.218
T2
X105.0Y-88.0
X105.0Y-90.0
X107.0Y-88.0
X107.0Y-90.0
X109.0Y-88.0
X109.0Y-90.0
X111.0Y-88.0
X111.0Y-90.0
X113.0Y-88.0
X113.0Y-90.0
X144.8Y-88.0
X144.8Y-90.0
X146.8Y-88.0
X146.8Y-90.0
X148.8Y-88.0
X148.8Y-90.0
X150.8Y-88.0
X150.8Y-90.0
X152.8Y-88.0
X152.8Y-90.0
M30
