%TF.GenerationSoftware,KiCad,Pcbnew,9.0.5*%
%TF.CreationDate,2025-10-21T11:31:10+02:00*%
%TF.ProjectId,PCB_switches,5043425f-7377-4697-9463-6865732e6b69,rev?*%
%TF.SameCoordinates,Original*%
%TF.FileFunction,Copper,L2,Bot*%
%TF.FilePolarity,Positive*%
%FSLAX46Y46*%
G04 Gerber Fmt 4.6, Leading zero omitted, Abs format (unit mm)*
G04 Created by KiCad (PCBNEW 9.0.5) date 2025-10-21 11:31:10*
%MOMM*%
%LPD*%
G01*
G04 APERTURE LIST*
G04 Aperture macros list*
%AMRoundRect*
0 Rectangle with rounded corners*
0 $1 Rounding radius*
0 $2 $3 $4 $5 $6 $7 $8 $9 X,Y pos of 4 corners*
0 Add a 4 corners polygon primitive as box body*
4,1,4,$2,$3,$4,$5,$6,$7,$8,$9,$2,$3,0*
0 Add four circle primitives for the rounded corners*
1,1,$1+$1,$2,$3*
1,1,$1+$1,$4,$5*
1,1,$1+$1,$6,$7*
1,1,$1+$1,$8,$9*
0 Add four rect primitives between the rounded corners*
20,1,$1+$1,$2,$3,$4,$5,0*
20,1,$1+$1,$4,$5,$6,$7,0*
20,1,$1+$1,$6,$7,$8,$9,0*
20,1,$1+$1,$8,$9,$2,$3,0*%
G04 Aperture macros list end*
%TA.AperFunction,ComponentPad*%
%ADD10O,1.500000X3.000000*%
%TD*%
%TA.AperFunction,ComponentPad*%
%ADD11RoundRect,0.250000X-0.350000X-0.350000X0.350000X-0.350000X0.350000X0.350000X-0.350000X0.350000X0*%
%TD*%
%TA.AperFunction,ComponentPad*%
%ADD12C,1.200000*%
%TD*%
G04 APERTURE END LIST*
D10*
%TO.P,SW1,1,1*%
%TO.N,Net-(J1-Pin_1)*%
X104047791Y-98217500D03*
%TO.P,SW1,2,2*%
%TO.N,Net-(J1-Pin_2)*%
X106547791Y-98217500D03*
%TO.P,SW1,3,3*%
%TO.N,Net-(J1-Pin_3)*%
X109047791Y-98217500D03*
%TO.P,SW1,4,4*%
%TO.N,Net-(J1-Pin_4)*%
X111547791Y-98217500D03*
%TO.P,SW1,5,5*%
%TO.N,Net-(J1-Pin_5)*%
X114047791Y-98217500D03*
%TO.P,SW1,6,6*%
%TO.N,Net-(J1-Pin_6)*%
X103952210Y-103217500D03*
%TO.P,SW1,7,7*%
%TO.N,Net-(J1-Pin_7)*%
X106547791Y-103217500D03*
%TO.P,SW1,8,8*%
%TO.N,Net-(J1-Pin_8)*%
X109129260Y-103232421D03*
%TO.P,SW1,9,9*%
%TO.N,Net-(J1-Pin_9)*%
X111547791Y-103217500D03*
%TO.P,SW1,10,10*%
%TO.N,Net-(J1-Pin_10)*%
X114047791Y-103217500D03*
%TD*%
D11*
%TO.P,J1,1,Pin_1*%
%TO.N,Net-(J1-Pin_1)*%
X105000000Y-88000000D03*
D12*
%TO.P,J1,2,Pin_2*%
%TO.N,Net-(J1-Pin_2)*%
X107000000Y-88000000D03*
%TO.P,J1,3,Pin_3*%
%TO.N,Net-(J1-Pin_3)*%
X109000000Y-88000000D03*
%TO.P,J1,4,Pin_4*%
%TO.N,Net-(J1-Pin_4)*%
X111000000Y-88000000D03*
%TO.P,J1,5,Pin_5*%
%TO.N,Net-(J1-Pin_5)*%
X113000000Y-88000000D03*
%TO.P,J1,6,Pin_6*%
%TO.N,Net-(J1-Pin_6)*%
X105000000Y-90000000D03*
%TO.P,J1,7,Pin_7*%
%TO.N,Net-(J1-Pin_7)*%
X107000000Y-90000000D03*
%TO.P,J1,8,Pin_8*%
%TO.N,Net-(J1-Pin_8)*%
X109000000Y-90000000D03*
%TO.P,J1,9,Pin_9*%
%TO.N,Net-(J1-Pin_9)*%
X111000000Y-90000000D03*
%TO.P,J1,10,Pin_10*%
%TO.N,Net-(J1-Pin_10)*%
X113000000Y-90000000D03*
%TD*%
D11*
%TO.P,J2,1,Pin_1*%
%TO.N,Net-(J2-Pin_1)*%
X144800000Y-88000000D03*
D12*
%TO.P,J2,2,Pin_2*%
%TO.N,Net-(J2-Pin_2)*%
X146800000Y-88000000D03*
%TO.P,J2,3,Pin_3*%
%TO.N,Net-(J2-Pin_3)*%
X148800000Y-88000000D03*
%TO.P,J2,4,Pin_4*%
%TO.N,Net-(J2-Pin_4)*%
X150800000Y-88000000D03*
%TO.P,J2,5,Pin_5*%
%TO.N,Net-(J2-Pin_5)*%
X152800000Y-88000000D03*
%TO.P,J2,6,Pin_6*%
%TO.N,Net-(J2-Pin_6)*%
X144800000Y-90000000D03*
%TO.P,J2,7,Pin_7*%
%TO.N,Net-(J2-Pin_7)*%
X146800000Y-90000000D03*
%TO.P,J2,8,Pin_8*%
%TO.N,unconnected-(J2-Pin_8-Pad8)*%
X148800000Y-90000000D03*
%TO.P,J2,9,Pin_9*%
%TO.N,unconnected-(J2-Pin_9-Pad9)*%
X150800000Y-90000000D03*
%TO.P,J2,10,Pin_10*%
%TO.N,Net-(J2-Pin_10)*%
X152800000Y-90000000D03*
%TD*%
D10*
%TO.P,SW2,1,1*%
%TO.N,Net-(J2-Pin_1)*%
X144047791Y-98217500D03*
%TO.P,SW2,2,2*%
%TO.N,Net-(J2-Pin_2)*%
X146547791Y-98217500D03*
%TO.P,SW2,3,3*%
%TO.N,Net-(J2-Pin_3)*%
X149047791Y-98217500D03*
%TO.P,SW2,4,4*%
%TO.N,Net-(J2-Pin_4)*%
X151547791Y-98217500D03*
%TO.P,SW2,5,5*%
%TO.N,Net-(J2-Pin_5)*%
X154047791Y-98217500D03*
%TO.P,SW2,6,6*%
%TO.N,Net-(J2-Pin_6)*%
X143952210Y-103217500D03*
%TO.P,SW2,7,7*%
%TO.N,Net-(J2-Pin_7)*%
X146547791Y-103217500D03*
%TO.P,SW2,8,8*%
%TO.N,unconnected-(SW2-Pad8)*%
X149129260Y-103232421D03*
%TO.P,SW2,9,9*%
%TO.N,unconnected-(SW2-Pad9)*%
X151547791Y-103217500D03*
%TO.P,SW2,10,10*%
%TO.N,Net-(J2-Pin_10)*%
X154047791Y-103217500D03*
%TD*%
%TA.AperFunction,NonConductor*%
G36*
X157892539Y-83907730D02*
G01*
X157938294Y-83960534D01*
X157949500Y-84012045D01*
X157949500Y-107763045D01*
X157929815Y-107830084D01*
X157877011Y-107875839D01*
X157825500Y-107887045D01*
X99074500Y-107887045D01*
X99007461Y-107867360D01*
X98961706Y-107814556D01*
X98950500Y-107763045D01*
X98950500Y-102369077D01*
X102701710Y-102369077D01*
X102701710Y-104065922D01*
X102732500Y-104260326D01*
X102793327Y-104447529D01*
X102857230Y-104572945D01*
X102882686Y-104622905D01*
X102998382Y-104782146D01*
X103137564Y-104921328D01*
X103296805Y-105037024D01*
X103379665Y-105079243D01*
X103472180Y-105126382D01*
X103472182Y-105126382D01*
X103472185Y-105126384D01*
X103518101Y-105141303D01*
X103659383Y-105187209D01*
X103853788Y-105218000D01*
X103853793Y-105218000D01*
X104050632Y-105218000D01*
X104245036Y-105187209D01*
X104432235Y-105126384D01*
X104607615Y-105037024D01*
X104766856Y-104921328D01*
X104906038Y-104782146D01*
X105021734Y-104622905D01*
X105111094Y-104447525D01*
X105132070Y-104382967D01*
X105171506Y-104325294D01*
X105235865Y-104298095D01*
X105304711Y-104310009D01*
X105356187Y-104357253D01*
X105367931Y-104382968D01*
X105388908Y-104447529D01*
X105452811Y-104572945D01*
X105478267Y-104622905D01*
X105593963Y-104782146D01*
X105733145Y-104921328D01*
X105892386Y-105037024D01*
X105975246Y-105079243D01*
X106067761Y-105126382D01*
X106067763Y-105126382D01*
X106067766Y-105126384D01*
X106113682Y-105141303D01*
X106254964Y-105187209D01*
X106449369Y-105218000D01*
X106449374Y-105218000D01*
X106646213Y-105218000D01*
X106840617Y-105187209D01*
X107027816Y-105126384D01*
X107203196Y-105037024D01*
X107362437Y-104921328D01*
X107501619Y-104782146D01*
X107617315Y-104622905D01*
X107706675Y-104447525D01*
X107718170Y-104412144D01*
X107757607Y-104354470D01*
X107821965Y-104327271D01*
X107890812Y-104339185D01*
X107942288Y-104386429D01*
X107954031Y-104412142D01*
X107955918Y-104417948D01*
X107970377Y-104462450D01*
X108052133Y-104622905D01*
X108059736Y-104637826D01*
X108175432Y-104797067D01*
X108314614Y-104936249D01*
X108473855Y-105051945D01*
X108556715Y-105094164D01*
X108649230Y-105141303D01*
X108649232Y-105141303D01*
X108649235Y-105141305D01*
X108749577Y-105173908D01*
X108836433Y-105202130D01*
X109030838Y-105232921D01*
X109030843Y-105232921D01*
X109227682Y-105232921D01*
X109422086Y-105202130D01*
X109609285Y-105141305D01*
X109784665Y-105051945D01*
X109943906Y-104936249D01*
X110083088Y-104797067D01*
X110198784Y-104637826D01*
X110231842Y-104572944D01*
X110279814Y-104522150D01*
X110347635Y-104505354D01*
X110413770Y-104527890D01*
X110452811Y-104572945D01*
X110478267Y-104622905D01*
X110593963Y-104782146D01*
X110733145Y-104921328D01*
X110892386Y-105037024D01*
X110975246Y-105079243D01*
X111067761Y-105126382D01*
X111067763Y-105126382D01*
X111067766Y-105126384D01*
X111113682Y-105141303D01*
X111254964Y-105187209D01*
X111449369Y-105218000D01*
X111449374Y-105218000D01*
X111646213Y-105218000D01*
X111840617Y-105187209D01*
X112027816Y-105126384D01*
X112203196Y-105037024D01*
X112362437Y-104921328D01*
X112501619Y-104782146D01*
X112617315Y-104622905D01*
X112687306Y-104485538D01*
X112735280Y-104434743D01*
X112803101Y-104417948D01*
X112869236Y-104440485D01*
X112908275Y-104485538D01*
X112978267Y-104622905D01*
X113093963Y-104782146D01*
X113233145Y-104921328D01*
X113392386Y-105037024D01*
X113475246Y-105079243D01*
X113567761Y-105126382D01*
X113567763Y-105126382D01*
X113567766Y-105126384D01*
X113613682Y-105141303D01*
X113754964Y-105187209D01*
X113949369Y-105218000D01*
X113949374Y-105218000D01*
X114146213Y-105218000D01*
X114340617Y-105187209D01*
X114527816Y-105126384D01*
X114703196Y-105037024D01*
X114862437Y-104921328D01*
X115001619Y-104782146D01*
X115117315Y-104622905D01*
X115206675Y-104447525D01*
X115267500Y-104260326D01*
X115298291Y-104065922D01*
X115298291Y-102369077D01*
X142701710Y-102369077D01*
X142701710Y-104065922D01*
X142732500Y-104260326D01*
X142793327Y-104447529D01*
X142857230Y-104572945D01*
X142882686Y-104622905D01*
X142998382Y-104782146D01*
X143137564Y-104921328D01*
X143296805Y-105037024D01*
X143379665Y-105079243D01*
X143472180Y-105126382D01*
X143472182Y-105126382D01*
X143472185Y-105126384D01*
X143518101Y-105141303D01*
X143659383Y-105187209D01*
X143853788Y-105218000D01*
X143853793Y-105218000D01*
X144050632Y-105218000D01*
X144245036Y-105187209D01*
X144432235Y-105126384D01*
X144607615Y-105037024D01*
X144766856Y-104921328D01*
X144906038Y-104782146D01*
X145021734Y-104622905D01*
X145111094Y-104447525D01*
X145132070Y-104382967D01*
X145171506Y-104325294D01*
X145235865Y-104298095D01*
X145304711Y-104310009D01*
X145356187Y-104357253D01*
X145367931Y-104382968D01*
X145388908Y-104447529D01*
X145452811Y-104572945D01*
X145478267Y-104622905D01*
X145593963Y-104782146D01*
X145733145Y-104921328D01*
X145892386Y-105037024D01*
X145975246Y-105079243D01*
X146067761Y-105126382D01*
X146067763Y-105126382D01*
X146067766Y-105126384D01*
X146113682Y-105141303D01*
X146254964Y-105187209D01*
X146449369Y-105218000D01*
X146449374Y-105218000D01*
X146646213Y-105218000D01*
X146840617Y-105187209D01*
X147027816Y-105126384D01*
X147203196Y-105037024D01*
X147362437Y-104921328D01*
X147501619Y-104782146D01*
X147617315Y-104622905D01*
X147706675Y-104447525D01*
X147718170Y-104412144D01*
X147757607Y-104354470D01*
X147821965Y-104327271D01*
X147890812Y-104339185D01*
X147942288Y-104386429D01*
X147954031Y-104412142D01*
X147955918Y-104417948D01*
X147970377Y-104462450D01*
X148052133Y-104622905D01*
X148059736Y-104637826D01*
X148175432Y-104797067D01*
X148314614Y-104936249D01*
X148473855Y-105051945D01*
X148556715Y-105094164D01*
X148649230Y-105141303D01*
X148649232Y-105141303D01*
X148649235Y-105141305D01*
X148749577Y-105173908D01*
X148836433Y-105202130D01*
X149030838Y-105232921D01*
X149030843Y-105232921D01*
X149227682Y-105232921D01*
X149422086Y-105202130D01*
X149609285Y-105141305D01*
X149784665Y-105051945D01*
X149943906Y-104936249D01*
X150083088Y-104797067D01*
X150198784Y-104637826D01*
X150231842Y-104572944D01*
X150279814Y-104522150D01*
X150347635Y-104505354D01*
X150413770Y-104527890D01*
X150452811Y-104572945D01*
X150478267Y-104622905D01*
X150593963Y-104782146D01*
X150733145Y-104921328D01*
X150892386Y-105037024D01*
X150975246Y-105079243D01*
X151067761Y-105126382D01*
X151067763Y-105126382D01*
X151067766Y-105126384D01*
X151113682Y-105141303D01*
X151254964Y-105187209D01*
X151449369Y-105218000D01*
X151449374Y-105218000D01*
X151646213Y-105218000D01*
X151840617Y-105187209D01*
X152027816Y-105126384D01*
X152203196Y-105037024D01*
X152362437Y-104921328D01*
X152501619Y-104782146D01*
X152617315Y-104622905D01*
X152687306Y-104485538D01*
X152735280Y-104434743D01*
X152803101Y-104417948D01*
X152869236Y-104440485D01*
X152908275Y-104485538D01*
X152978267Y-104622905D01*
X153093963Y-104782146D01*
X153233145Y-104921328D01*
X153392386Y-105037024D01*
X153475246Y-105079243D01*
X153567761Y-105126382D01*
X153567763Y-105126382D01*
X153567766Y-105126384D01*
X153613682Y-105141303D01*
X153754964Y-105187209D01*
X153949369Y-105218000D01*
X153949374Y-105218000D01*
X154146213Y-105218000D01*
X154340617Y-105187209D01*
X154527816Y-105126384D01*
X154703196Y-105037024D01*
X154862437Y-104921328D01*
X155001619Y-104782146D01*
X155117315Y-104622905D01*
X155206675Y-104447525D01*
X155267500Y-104260326D01*
X155298291Y-104065922D01*
X155298291Y-102369077D01*
X155267500Y-102174673D01*
X155227650Y-102052030D01*
X155206675Y-101987475D01*
X155206673Y-101987472D01*
X155206673Y-101987470D01*
X155124918Y-101827017D01*
X155117315Y-101812095D01*
X155001619Y-101652854D01*
X154862437Y-101513672D01*
X154703196Y-101397976D01*
X154527820Y-101308617D01*
X154340617Y-101247790D01*
X154146213Y-101217000D01*
X154146208Y-101217000D01*
X153949374Y-101217000D01*
X153949369Y-101217000D01*
X153754964Y-101247790D01*
X153567761Y-101308617D01*
X153392385Y-101397976D01*
X153301532Y-101463985D01*
X153233145Y-101513672D01*
X153233143Y-101513674D01*
X153233142Y-101513674D01*
X153093965Y-101652851D01*
X153093965Y-101652852D01*
X153093963Y-101652854D01*
X153044276Y-101721241D01*
X152978267Y-101812094D01*
X152908276Y-101949460D01*
X152860301Y-102000256D01*
X152792480Y-102017051D01*
X152726345Y-101994514D01*
X152687306Y-101949460D01*
X152624918Y-101827017D01*
X152617315Y-101812095D01*
X152501619Y-101652854D01*
X152362437Y-101513672D01*
X152203196Y-101397976D01*
X152027820Y-101308617D01*
X151840617Y-101247790D01*
X151646213Y-101217000D01*
X151646208Y-101217000D01*
X151449374Y-101217000D01*
X151449369Y-101217000D01*
X151254964Y-101247790D01*
X151067761Y-101308617D01*
X150892385Y-101397976D01*
X150801532Y-101463985D01*
X150733145Y-101513672D01*
X150733143Y-101513674D01*
X150733142Y-101513674D01*
X150593965Y-101652851D01*
X150593965Y-101652852D01*
X150593963Y-101652854D01*
X150544276Y-101721241D01*
X150478267Y-101812094D01*
X150445209Y-101876975D01*
X150397234Y-101927771D01*
X150329413Y-101944566D01*
X150263278Y-101922029D01*
X150224239Y-101876974D01*
X150198785Y-101827017D01*
X150181404Y-101803095D01*
X150083088Y-101667775D01*
X149943906Y-101528593D01*
X149784665Y-101412897D01*
X149755381Y-101397976D01*
X149609289Y-101323538D01*
X149422086Y-101262711D01*
X149227682Y-101231921D01*
X149227677Y-101231921D01*
X149030843Y-101231921D01*
X149030838Y-101231921D01*
X148836433Y-101262711D01*
X148649230Y-101323538D01*
X148473854Y-101412897D01*
X148383001Y-101478906D01*
X148314614Y-101528593D01*
X148314612Y-101528595D01*
X148314611Y-101528595D01*
X148175434Y-101667772D01*
X148175434Y-101667773D01*
X148175432Y-101667775D01*
X148125745Y-101736162D01*
X148059736Y-101827015D01*
X147970376Y-102002394D01*
X147958879Y-102037778D01*
X147919440Y-102095452D01*
X147855081Y-102122649D01*
X147786235Y-102110733D01*
X147734760Y-102063488D01*
X147723019Y-102037779D01*
X147706675Y-101987475D01*
X147617315Y-101812095D01*
X147501619Y-101652854D01*
X147362437Y-101513672D01*
X147203196Y-101397976D01*
X147027820Y-101308617D01*
X146840617Y-101247790D01*
X146646213Y-101217000D01*
X146646208Y-101217000D01*
X146449374Y-101217000D01*
X146449369Y-101217000D01*
X146254964Y-101247790D01*
X146067761Y-101308617D01*
X145892385Y-101397976D01*
X145801532Y-101463985D01*
X145733145Y-101513672D01*
X145733143Y-101513674D01*
X145733142Y-101513674D01*
X145593965Y-101652851D01*
X145593965Y-101652852D01*
X145593963Y-101652854D01*
X145544276Y-101721241D01*
X145478267Y-101812094D01*
X145388906Y-101987474D01*
X145367930Y-102052032D01*
X145328492Y-102109707D01*
X145264133Y-102136904D01*
X145195287Y-102124989D01*
X145143812Y-102077744D01*
X145132069Y-102052030D01*
X145111094Y-101987475D01*
X145021734Y-101812095D01*
X144906038Y-101652854D01*
X144766856Y-101513672D01*
X144607615Y-101397976D01*
X144432239Y-101308617D01*
X144245036Y-101247790D01*
X144050632Y-101217000D01*
X144050627Y-101217000D01*
X143853793Y-101217000D01*
X143853788Y-101217000D01*
X143659383Y-101247790D01*
X143472180Y-101308617D01*
X143296804Y-101397976D01*
X143205951Y-101463985D01*
X143137564Y-101513672D01*
X143137562Y-101513674D01*
X143137561Y-101513674D01*
X142998384Y-101652851D01*
X142998384Y-101652852D01*
X142998382Y-101652854D01*
X142948695Y-101721241D01*
X142882686Y-101812094D01*
X142793327Y-101987470D01*
X142732500Y-102174673D01*
X142701710Y-102369077D01*
X115298291Y-102369077D01*
X115267500Y-102174673D01*
X115227650Y-102052030D01*
X115206675Y-101987475D01*
X115206673Y-101987472D01*
X115206673Y-101987470D01*
X115124918Y-101827017D01*
X115117315Y-101812095D01*
X115001619Y-101652854D01*
X114862437Y-101513672D01*
X114703196Y-101397976D01*
X114527820Y-101308617D01*
X114340617Y-101247790D01*
X114146213Y-101217000D01*
X114146208Y-101217000D01*
X113949374Y-101217000D01*
X113949369Y-101217000D01*
X113754964Y-101247790D01*
X113567761Y-101308617D01*
X113392385Y-101397976D01*
X113301532Y-101463985D01*
X113233145Y-101513672D01*
X113233143Y-101513674D01*
X113233142Y-101513674D01*
X113093965Y-101652851D01*
X113093965Y-101652852D01*
X113093963Y-101652854D01*
X113044276Y-101721241D01*
X112978267Y-101812094D01*
X112908276Y-101949460D01*
X112860301Y-102000256D01*
X112792480Y-102017051D01*
X112726345Y-101994514D01*
X112687306Y-101949460D01*
X112624918Y-101827017D01*
X112617315Y-101812095D01*
X112501619Y-101652854D01*
X112362437Y-101513672D01*
X112203196Y-101397976D01*
X112027820Y-101308617D01*
X111840617Y-101247790D01*
X111646213Y-101217000D01*
X111646208Y-101217000D01*
X111449374Y-101217000D01*
X111449369Y-101217000D01*
X111254964Y-101247790D01*
X111067761Y-101308617D01*
X110892385Y-101397976D01*
X110801532Y-101463985D01*
X110733145Y-101513672D01*
X110733143Y-101513674D01*
X110733142Y-101513674D01*
X110593965Y-101652851D01*
X110593965Y-101652852D01*
X110593963Y-101652854D01*
X110544276Y-101721241D01*
X110478267Y-101812094D01*
X110445209Y-101876975D01*
X110397234Y-101927771D01*
X110329413Y-101944566D01*
X110263278Y-101922029D01*
X110224239Y-101876974D01*
X110198785Y-101827017D01*
X110181404Y-101803095D01*
X110083088Y-101667775D01*
X109943906Y-101528593D01*
X109784665Y-101412897D01*
X109755381Y-101397976D01*
X109609289Y-101323538D01*
X109422086Y-101262711D01*
X109227682Y-101231921D01*
X109227677Y-101231921D01*
X109030843Y-101231921D01*
X109030838Y-101231921D01*
X108836433Y-101262711D01*
X108649230Y-101323538D01*
X108473854Y-101412897D01*
X108383001Y-101478906D01*
X108314614Y-101528593D01*
X108314612Y-101528595D01*
X108314611Y-101528595D01*
X108175434Y-101667772D01*
X108175434Y-101667773D01*
X108175432Y-101667775D01*
X108125745Y-101736162D01*
X108059736Y-101827015D01*
X107970376Y-102002394D01*
X107958879Y-102037778D01*
X107919440Y-102095452D01*
X107855081Y-102122649D01*
X107786235Y-102110733D01*
X107734760Y-102063488D01*
X107723019Y-102037779D01*
X107706675Y-101987475D01*
X107617315Y-101812095D01*
X107501619Y-101652854D01*
X107362437Y-101513672D01*
X107203196Y-101397976D01*
X107027820Y-101308617D01*
X106840617Y-101247790D01*
X106646213Y-101217000D01*
X106646208Y-101217000D01*
X106449374Y-101217000D01*
X106449369Y-101217000D01*
X106254964Y-101247790D01*
X106067761Y-101308617D01*
X105892385Y-101397976D01*
X105801532Y-101463985D01*
X105733145Y-101513672D01*
X105733143Y-101513674D01*
X105733142Y-101513674D01*
X105593965Y-101652851D01*
X105593965Y-101652852D01*
X105593963Y-101652854D01*
X105544276Y-101721241D01*
X105478267Y-101812094D01*
X105388906Y-101987474D01*
X105367930Y-102052032D01*
X105328492Y-102109707D01*
X105264133Y-102136904D01*
X105195287Y-102124989D01*
X105143812Y-102077744D01*
X105132069Y-102052030D01*
X105111094Y-101987475D01*
X105021734Y-101812095D01*
X104906038Y-101652854D01*
X104766856Y-101513672D01*
X104607615Y-101397976D01*
X104432239Y-101308617D01*
X104245036Y-101247790D01*
X104050632Y-101217000D01*
X104050627Y-101217000D01*
X103853793Y-101217000D01*
X103853788Y-101217000D01*
X103659383Y-101247790D01*
X103472180Y-101308617D01*
X103296804Y-101397976D01*
X103205951Y-101463985D01*
X103137564Y-101513672D01*
X103137562Y-101513674D01*
X103137561Y-101513674D01*
X102998384Y-101652851D01*
X102998384Y-101652852D01*
X102998382Y-101652854D01*
X102948695Y-101721241D01*
X102882686Y-101812094D01*
X102793327Y-101987470D01*
X102732500Y-102174673D01*
X102701710Y-102369077D01*
X98950500Y-102369077D01*
X98950500Y-97369077D01*
X102797291Y-97369077D01*
X102797291Y-99065922D01*
X102828081Y-99260326D01*
X102888908Y-99447529D01*
X102978267Y-99622905D01*
X103093963Y-99782146D01*
X103233145Y-99921328D01*
X103392386Y-100037024D01*
X103475246Y-100079243D01*
X103567761Y-100126382D01*
X103567763Y-100126382D01*
X103567766Y-100126384D01*
X103668108Y-100158987D01*
X103754964Y-100187209D01*
X103949369Y-100218000D01*
X103949374Y-100218000D01*
X104146213Y-100218000D01*
X104340617Y-100187209D01*
X104527816Y-100126384D01*
X104703196Y-100037024D01*
X104862437Y-99921328D01*
X105001619Y-99782146D01*
X105117315Y-99622905D01*
X105187306Y-99485538D01*
X105235280Y-99434743D01*
X105303101Y-99417948D01*
X105369236Y-99440485D01*
X105408275Y-99485538D01*
X105478267Y-99622905D01*
X105593963Y-99782146D01*
X105733145Y-99921328D01*
X105892386Y-100037024D01*
X105975246Y-100079243D01*
X106067761Y-100126382D01*
X106067763Y-100126382D01*
X106067766Y-100126384D01*
X106168108Y-100158987D01*
X106254964Y-100187209D01*
X106449369Y-100218000D01*
X106449374Y-100218000D01*
X106646213Y-100218000D01*
X106840617Y-100187209D01*
X107027816Y-100126384D01*
X107203196Y-100037024D01*
X107362437Y-99921328D01*
X107501619Y-99782146D01*
X107617315Y-99622905D01*
X107687306Y-99485538D01*
X107735280Y-99434743D01*
X107803101Y-99417948D01*
X107869236Y-99440485D01*
X107908275Y-99485538D01*
X107978267Y-99622905D01*
X108093963Y-99782146D01*
X108233145Y-99921328D01*
X108392386Y-100037024D01*
X108475246Y-100079243D01*
X108567761Y-100126382D01*
X108567763Y-100126382D01*
X108567766Y-100126384D01*
X108668108Y-100158987D01*
X108754964Y-100187209D01*
X108949369Y-100218000D01*
X108949374Y-100218000D01*
X109146213Y-100218000D01*
X109340617Y-100187209D01*
X109527816Y-100126384D01*
X109703196Y-100037024D01*
X109862437Y-99921328D01*
X110001619Y-99782146D01*
X110117315Y-99622905D01*
X110187306Y-99485538D01*
X110235280Y-99434743D01*
X110303101Y-99417948D01*
X110369236Y-99440485D01*
X110408275Y-99485538D01*
X110478267Y-99622905D01*
X110593963Y-99782146D01*
X110733145Y-99921328D01*
X110892386Y-100037024D01*
X110975246Y-100079243D01*
X111067761Y-100126382D01*
X111067763Y-100126382D01*
X111067766Y-100126384D01*
X111168108Y-100158987D01*
X111254964Y-100187209D01*
X111449369Y-100218000D01*
X111449374Y-100218000D01*
X111646213Y-100218000D01*
X111840617Y-100187209D01*
X112027816Y-100126384D01*
X112203196Y-100037024D01*
X112362437Y-99921328D01*
X112501619Y-99782146D01*
X112617315Y-99622905D01*
X112687306Y-99485538D01*
X112735280Y-99434743D01*
X112803101Y-99417948D01*
X112869236Y-99440485D01*
X112908275Y-99485538D01*
X112978267Y-99622905D01*
X113093963Y-99782146D01*
X113233145Y-99921328D01*
X113392386Y-100037024D01*
X113475246Y-100079243D01*
X113567761Y-100126382D01*
X113567763Y-100126382D01*
X113567766Y-100126384D01*
X113668108Y-100158987D01*
X113754964Y-100187209D01*
X113949369Y-100218000D01*
X113949374Y-100218000D01*
X114146213Y-100218000D01*
X114340617Y-100187209D01*
X114527816Y-100126384D01*
X114703196Y-100037024D01*
X114862437Y-99921328D01*
X115001619Y-99782146D01*
X115117315Y-99622905D01*
X115206675Y-99447525D01*
X115267500Y-99260326D01*
X115298291Y-99065922D01*
X115298291Y-97369077D01*
X115267500Y-97174673D01*
X115216285Y-97017051D01*
X115206675Y-96987475D01*
X115206673Y-96987472D01*
X115206673Y-96987470D01*
X115117314Y-96812094D01*
X115001619Y-96652854D01*
X114862437Y-96513672D01*
X114703196Y-96397976D01*
X114527820Y-96308617D01*
X114490567Y-96296513D01*
X114438715Y-96279665D01*
X114340617Y-96247790D01*
X114146213Y-96217000D01*
X114146208Y-96217000D01*
X113949374Y-96217000D01*
X113949369Y-96217000D01*
X113754964Y-96247790D01*
X113567761Y-96308617D01*
X113392385Y-96397976D01*
X113301532Y-96463985D01*
X113233145Y-96513672D01*
X113233143Y-96513674D01*
X113233142Y-96513674D01*
X113093965Y-96652851D01*
X113093965Y-96652852D01*
X113093963Y-96652854D01*
X113078029Y-96674785D01*
X112978267Y-96812094D01*
X112908276Y-96949460D01*
X112860301Y-97000256D01*
X112792480Y-97017051D01*
X112726345Y-96994514D01*
X112687306Y-96949460D01*
X112617314Y-96812094D01*
X112501619Y-96652854D01*
X112362437Y-96513672D01*
X112203196Y-96397976D01*
X112027820Y-96308617D01*
X111840617Y-96247790D01*
X111646213Y-96217000D01*
X111646208Y-96217000D01*
X111449374Y-96217000D01*
X111449369Y-96217000D01*
X111254964Y-96247790D01*
X111067761Y-96308617D01*
X110892385Y-96397976D01*
X110801532Y-96463985D01*
X110733145Y-96513672D01*
X110733143Y-96513674D01*
X110733142Y-96513674D01*
X110593965Y-96652851D01*
X110593965Y-96652852D01*
X110593963Y-96652854D01*
X110578029Y-96674785D01*
X110478267Y-96812094D01*
X110408276Y-96949460D01*
X110360301Y-97000256D01*
X110292480Y-97017051D01*
X110226345Y-96994514D01*
X110187306Y-96949460D01*
X110117314Y-96812094D01*
X110001619Y-96652854D01*
X109862437Y-96513672D01*
X109703196Y-96397976D01*
X109527820Y-96308617D01*
X109340617Y-96247790D01*
X109146213Y-96217000D01*
X109146208Y-96217000D01*
X108949374Y-96217000D01*
X108949369Y-96217000D01*
X108754964Y-96247790D01*
X108567761Y-96308617D01*
X108392385Y-96397976D01*
X108301532Y-96463985D01*
X108233145Y-96513672D01*
X108233143Y-96513674D01*
X108233142Y-96513674D01*
X108093965Y-96652851D01*
X108093965Y-96652852D01*
X108093963Y-96652854D01*
X108078029Y-96674785D01*
X107978267Y-96812094D01*
X107908276Y-96949460D01*
X107860301Y-97000256D01*
X107792480Y-97017051D01*
X107726345Y-96994514D01*
X107687306Y-96949460D01*
X107617314Y-96812094D01*
X107501619Y-96652854D01*
X107362437Y-96513672D01*
X107203196Y-96397976D01*
X107027820Y-96308617D01*
X106840617Y-96247790D01*
X106646213Y-96217000D01*
X106646208Y-96217000D01*
X106449374Y-96217000D01*
X106449369Y-96217000D01*
X106254964Y-96247790D01*
X106067761Y-96308617D01*
X105892385Y-96397976D01*
X105801532Y-96463985D01*
X105733145Y-96513672D01*
X105733143Y-96513674D01*
X105733142Y-96513674D01*
X105593965Y-96652851D01*
X105593965Y-96652852D01*
X105593963Y-96652854D01*
X105578029Y-96674785D01*
X105478267Y-96812094D01*
X105408276Y-96949460D01*
X105360301Y-97000256D01*
X105292480Y-97017051D01*
X105226345Y-96994514D01*
X105187306Y-96949460D01*
X105117314Y-96812094D01*
X105001619Y-96652854D01*
X104862437Y-96513672D01*
X104703196Y-96397976D01*
X104527820Y-96308617D01*
X104340617Y-96247790D01*
X104146213Y-96217000D01*
X104146208Y-96217000D01*
X103949374Y-96217000D01*
X103949369Y-96217000D01*
X103754964Y-96247790D01*
X103567761Y-96308617D01*
X103392385Y-96397976D01*
X103301532Y-96463985D01*
X103233145Y-96513672D01*
X103233143Y-96513674D01*
X103233142Y-96513674D01*
X103093965Y-96652851D01*
X103093965Y-96652852D01*
X103093963Y-96652854D01*
X103078029Y-96674785D01*
X102978267Y-96812094D01*
X102888908Y-96987470D01*
X102828081Y-97174673D01*
X102797291Y-97369077D01*
X98950500Y-97369077D01*
X98950500Y-96174038D01*
X127199500Y-96174038D01*
X127199500Y-96425961D01*
X127238910Y-96674785D01*
X127316760Y-96914383D01*
X127431132Y-97138848D01*
X127579201Y-97342649D01*
X127579205Y-97342654D01*
X127757345Y-97520794D01*
X127757350Y-97520798D01*
X127935117Y-97649952D01*
X127961155Y-97668870D01*
X128104184Y-97741747D01*
X128185616Y-97783239D01*
X128185618Y-97783239D01*
X128185621Y-97783241D01*
X128425215Y-97861090D01*
X128674038Y-97900500D01*
X128674039Y-97900500D01*
X128925961Y-97900500D01*
X128925962Y-97900500D01*
X129174785Y-97861090D01*
X129414379Y-97783241D01*
X129638845Y-97668870D01*
X129842656Y-97520793D01*
X129994372Y-97369077D01*
X142797291Y-97369077D01*
X142797291Y-99065922D01*
X142828081Y-99260326D01*
X142888908Y-99447529D01*
X142978267Y-99622905D01*
X143093963Y-99782146D01*
X143233145Y-99921328D01*
X143392386Y-100037024D01*
X143475246Y-100079243D01*
X143567761Y-100126382D01*
X143567763Y-100126382D01*
X143567766Y-100126384D01*
X143668108Y-100158987D01*
X143754964Y-100187209D01*
X143949369Y-100218000D01*
X143949374Y-100218000D01*
X144146213Y-100218000D01*
X144340617Y-100187209D01*
X144527816Y-100126384D01*
X144703196Y-100037024D01*
X144862437Y-99921328D01*
X145001619Y-99782146D01*
X145117315Y-99622905D01*
X145187306Y-99485538D01*
X145235280Y-99434743D01*
X145303101Y-99417948D01*
X145369236Y-99440485D01*
X145408275Y-99485538D01*
X145478267Y-99622905D01*
X145593963Y-99782146D01*
X145733145Y-99921328D01*
X145892386Y-100037024D01*
X145975246Y-100079243D01*
X146067761Y-100126382D01*
X146067763Y-100126382D01*
X146067766Y-100126384D01*
X146168108Y-100158987D01*
X146254964Y-100187209D01*
X146449369Y-100218000D01*
X146449374Y-100218000D01*
X146646213Y-100218000D01*
X146840617Y-100187209D01*
X147027816Y-100126384D01*
X147203196Y-100037024D01*
X147362437Y-99921328D01*
X147501619Y-99782146D01*
X147617315Y-99622905D01*
X147687306Y-99485538D01*
X147735280Y-99434743D01*
X147803101Y-99417948D01*
X147869236Y-99440485D01*
X147908275Y-99485538D01*
X147978267Y-99622905D01*
X148093963Y-99782146D01*
X148233145Y-99921328D01*
X148392386Y-100037024D01*
X148475246Y-100079243D01*
X148567761Y-100126382D01*
X148567763Y-100126382D01*
X148567766Y-100126384D01*
X148668108Y-100158987D01*
X148754964Y-100187209D01*
X148949369Y-100218000D01*
X148949374Y-100218000D01*
X149146213Y-100218000D01*
X149340617Y-100187209D01*
X149527816Y-100126384D01*
X149703196Y-100037024D01*
X149862437Y-99921328D01*
X150001619Y-99782146D01*
X150117315Y-99622905D01*
X150187306Y-99485538D01*
X150235280Y-99434743D01*
X150303101Y-99417948D01*
X150369236Y-99440485D01*
X150408275Y-99485538D01*
X150478267Y-99622905D01*
X150593963Y-99782146D01*
X150733145Y-99921328D01*
X150892386Y-100037024D01*
X150975246Y-100079243D01*
X151067761Y-100126382D01*
X151067763Y-100126382D01*
X151067766Y-100126384D01*
X151168108Y-100158987D01*
X151254964Y-100187209D01*
X151449369Y-100218000D01*
X151449374Y-100218000D01*
X151646213Y-100218000D01*
X151840617Y-100187209D01*
X152027816Y-100126384D01*
X152203196Y-100037024D01*
X152362437Y-99921328D01*
X152501619Y-99782146D01*
X152617315Y-99622905D01*
X152687306Y-99485538D01*
X152735280Y-99434743D01*
X152803101Y-99417948D01*
X152869236Y-99440485D01*
X152908275Y-99485538D01*
X152978267Y-99622905D01*
X153093963Y-99782146D01*
X153233145Y-99921328D01*
X153392386Y-100037024D01*
X153475246Y-100079243D01*
X153567761Y-100126382D01*
X153567763Y-100126382D01*
X153567766Y-100126384D01*
X153668108Y-100158987D01*
X153754964Y-100187209D01*
X153949369Y-100218000D01*
X153949374Y-100218000D01*
X154146213Y-100218000D01*
X154340617Y-100187209D01*
X154527816Y-100126384D01*
X154703196Y-100037024D01*
X154862437Y-99921328D01*
X155001619Y-99782146D01*
X155117315Y-99622905D01*
X155206675Y-99447525D01*
X155267500Y-99260326D01*
X155298291Y-99065922D01*
X155298291Y-97369077D01*
X155267500Y-97174673D01*
X155216285Y-97017051D01*
X155206675Y-96987475D01*
X155206673Y-96987472D01*
X155206673Y-96987470D01*
X155117314Y-96812094D01*
X155001619Y-96652854D01*
X154862437Y-96513672D01*
X154703196Y-96397976D01*
X154527820Y-96308617D01*
X154340617Y-96247790D01*
X154146213Y-96217000D01*
X154146208Y-96217000D01*
X153949374Y-96217000D01*
X153949369Y-96217000D01*
X153754964Y-96247790D01*
X153567761Y-96308617D01*
X153392385Y-96397976D01*
X153301532Y-96463985D01*
X153233145Y-96513672D01*
X153233143Y-96513674D01*
X153233142Y-96513674D01*
X153093965Y-96652851D01*
X153093965Y-96652852D01*
X153093963Y-96652854D01*
X153078029Y-96674785D01*
X152978267Y-96812094D01*
X152908276Y-96949460D01*
X152860301Y-97000256D01*
X152792480Y-97017051D01*
X152726345Y-96994514D01*
X152687306Y-96949460D01*
X152617314Y-96812094D01*
X152501619Y-96652854D01*
X152362437Y-96513672D01*
X152203196Y-96397976D01*
X152027820Y-96308617D01*
X151840617Y-96247790D01*
X151646213Y-96217000D01*
X151646208Y-96217000D01*
X151449374Y-96217000D01*
X151449369Y-96217000D01*
X151254964Y-96247790D01*
X151067761Y-96308617D01*
X150892385Y-96397976D01*
X150801532Y-96463985D01*
X150733145Y-96513672D01*
X150733143Y-96513674D01*
X150733142Y-96513674D01*
X150593965Y-96652851D01*
X150593965Y-96652852D01*
X150593963Y-96652854D01*
X150578029Y-96674785D01*
X150478267Y-96812094D01*
X150408276Y-96949460D01*
X150360301Y-97000256D01*
X150292480Y-97017051D01*
X150226345Y-96994514D01*
X150187306Y-96949460D01*
X150117314Y-96812094D01*
X150001619Y-96652854D01*
X149862437Y-96513672D01*
X149703196Y-96397976D01*
X149527820Y-96308617D01*
X149340617Y-96247790D01*
X149146213Y-96217000D01*
X149146208Y-96217000D01*
X148949374Y-96217000D01*
X148949369Y-96217000D01*
X148754964Y-96247790D01*
X148567761Y-96308617D01*
X148392385Y-96397976D01*
X148301532Y-96463985D01*
X148233145Y-96513672D01*
X148233143Y-96513674D01*
X148233142Y-96513674D01*
X148093965Y-96652851D01*
X148093965Y-96652852D01*
X148093963Y-96652854D01*
X148078029Y-96674785D01*
X147978267Y-96812094D01*
X147908276Y-96949460D01*
X147860301Y-97000256D01*
X147792480Y-97017051D01*
X147726345Y-96994514D01*
X147687306Y-96949460D01*
X147617314Y-96812094D01*
X147501619Y-96652854D01*
X147362437Y-96513672D01*
X147203196Y-96397976D01*
X147027820Y-96308617D01*
X146840617Y-96247790D01*
X146646213Y-96217000D01*
X146646208Y-96217000D01*
X146449374Y-96217000D01*
X146449369Y-96217000D01*
X146254964Y-96247790D01*
X146067761Y-96308617D01*
X145892385Y-96397976D01*
X145801532Y-96463985D01*
X145733145Y-96513672D01*
X145733143Y-96513674D01*
X145733142Y-96513674D01*
X145593965Y-96652851D01*
X145593965Y-96652852D01*
X145593963Y-96652854D01*
X145578029Y-96674785D01*
X145478267Y-96812094D01*
X145408276Y-96949460D01*
X145360301Y-97000256D01*
X145292480Y-97017051D01*
X145226345Y-96994514D01*
X145187306Y-96949460D01*
X145117314Y-96812094D01*
X145001619Y-96652854D01*
X144862437Y-96513672D01*
X144703196Y-96397976D01*
X144527820Y-96308617D01*
X144340617Y-96247790D01*
X144146213Y-96217000D01*
X144146208Y-96217000D01*
X143949374Y-96217000D01*
X143949369Y-96217000D01*
X143754964Y-96247790D01*
X143567761Y-96308617D01*
X143392385Y-96397976D01*
X143301532Y-96463985D01*
X143233145Y-96513672D01*
X143233143Y-96513674D01*
X143233142Y-96513674D01*
X143093965Y-96652851D01*
X143093965Y-96652852D01*
X143093963Y-96652854D01*
X143078029Y-96674785D01*
X142978267Y-96812094D01*
X142888908Y-96987470D01*
X142828081Y-97174673D01*
X142797291Y-97369077D01*
X129994372Y-97369077D01*
X130020793Y-97342656D01*
X130168870Y-97138845D01*
X130283241Y-96914379D01*
X130361090Y-96674785D01*
X130400500Y-96425962D01*
X130400500Y-96174038D01*
X130361090Y-95925215D01*
X130283241Y-95685621D01*
X130283239Y-95685618D01*
X130283239Y-95685616D01*
X130241747Y-95604184D01*
X130168870Y-95461155D01*
X130149952Y-95435117D01*
X130020798Y-95257350D01*
X130020794Y-95257345D01*
X129842654Y-95079205D01*
X129842649Y-95079201D01*
X129638848Y-94931132D01*
X129638847Y-94931131D01*
X129638845Y-94931130D01*
X129568747Y-94895413D01*
X129414383Y-94816760D01*
X129174785Y-94738910D01*
X128925962Y-94699500D01*
X128674038Y-94699500D01*
X128549626Y-94719205D01*
X128425214Y-94738910D01*
X128185616Y-94816760D01*
X127961151Y-94931132D01*
X127757350Y-95079201D01*
X127757345Y-95079205D01*
X127579205Y-95257345D01*
X127579201Y-95257350D01*
X127431132Y-95461151D01*
X127316760Y-95685616D01*
X127238910Y-95925214D01*
X127199500Y-96174038D01*
X98950500Y-96174038D01*
X98950500Y-87599983D01*
X103899500Y-87599983D01*
X103899500Y-88400001D01*
X103899501Y-88400019D01*
X103910000Y-88502796D01*
X103910001Y-88502799D01*
X103965185Y-88669331D01*
X103965187Y-88669336D01*
X103988870Y-88707732D01*
X104057288Y-88818656D01*
X104181344Y-88942712D01*
X104234298Y-88975374D01*
X104245543Y-88982310D01*
X104292268Y-89034258D01*
X104303489Y-89103221D01*
X104275646Y-89167303D01*
X104268128Y-89175530D01*
X104160585Y-89283073D01*
X104058768Y-89423211D01*
X103980128Y-89577552D01*
X103926597Y-89742302D01*
X103899500Y-89913389D01*
X103899500Y-90086611D01*
X103926598Y-90257701D01*
X103980127Y-90422445D01*
X104058768Y-90576788D01*
X104160586Y-90716928D01*
X104283072Y-90839414D01*
X104423212Y-90941232D01*
X104577555Y-91019873D01*
X104742299Y-91073402D01*
X104913389Y-91100500D01*
X104913390Y-91100500D01*
X105086610Y-91100500D01*
X105086611Y-91100500D01*
X105257701Y-91073402D01*
X105422445Y-91019873D01*
X105576788Y-90941232D01*
X105716928Y-90839414D01*
X105839414Y-90716928D01*
X105899682Y-90633975D01*
X105955012Y-90591311D01*
X106024626Y-90585332D01*
X106086421Y-90617938D01*
X106100315Y-90633973D01*
X106160586Y-90716928D01*
X106283072Y-90839414D01*
X106423212Y-90941232D01*
X106577555Y-91019873D01*
X106742299Y-91073402D01*
X106913389Y-91100500D01*
X106913390Y-91100500D01*
X107086610Y-91100500D01*
X107086611Y-91100500D01*
X107257701Y-91073402D01*
X107422445Y-91019873D01*
X107576788Y-90941232D01*
X107716928Y-90839414D01*
X107839414Y-90716928D01*
X107899682Y-90633975D01*
X107955012Y-90591311D01*
X108024626Y-90585332D01*
X108086421Y-90617938D01*
X108100315Y-90633973D01*
X108160586Y-90716928D01*
X108283072Y-90839414D01*
X108423212Y-90941232D01*
X108577555Y-91019873D01*
X108742299Y-91073402D01*
X108913389Y-91100500D01*
X108913390Y-91100500D01*
X109086610Y-91100500D01*
X109086611Y-91100500D01*
X109257701Y-91073402D01*
X109422445Y-91019873D01*
X109576788Y-90941232D01*
X109716928Y-90839414D01*
X109839414Y-90716928D01*
X109899682Y-90633975D01*
X109955012Y-90591311D01*
X110024626Y-90585332D01*
X110086421Y-90617938D01*
X110100315Y-90633973D01*
X110160586Y-90716928D01*
X110283072Y-90839414D01*
X110423212Y-90941232D01*
X110577555Y-91019873D01*
X110742299Y-91073402D01*
X110913389Y-91100500D01*
X110913390Y-91100500D01*
X111086610Y-91100500D01*
X111086611Y-91100500D01*
X111257701Y-91073402D01*
X111422445Y-91019873D01*
X111576788Y-90941232D01*
X111716928Y-90839414D01*
X111839414Y-90716928D01*
X111899682Y-90633975D01*
X111955012Y-90591311D01*
X112024626Y-90585332D01*
X112086421Y-90617938D01*
X112100315Y-90633973D01*
X112160586Y-90716928D01*
X112283072Y-90839414D01*
X112423212Y-90941232D01*
X112577555Y-91019873D01*
X112742299Y-91073402D01*
X112913389Y-91100500D01*
X112913390Y-91100500D01*
X113086610Y-91100500D01*
X113086611Y-91100500D01*
X113257701Y-91073402D01*
X113422445Y-91019873D01*
X113576788Y-90941232D01*
X113716928Y-90839414D01*
X113839414Y-90716928D01*
X113941232Y-90576788D01*
X114019873Y-90422445D01*
X114073402Y-90257701D01*
X114100500Y-90086611D01*
X114100500Y-89913389D01*
X114073402Y-89742299D01*
X114019873Y-89577555D01*
X113941232Y-89423212D01*
X113839414Y-89283072D01*
X113716928Y-89160586D01*
X113633975Y-89100317D01*
X113591311Y-89044988D01*
X113585332Y-88975374D01*
X113617938Y-88913579D01*
X113633976Y-88899682D01*
X113716928Y-88839414D01*
X113839414Y-88716928D01*
X113941232Y-88576788D01*
X114019873Y-88422445D01*
X114073402Y-88257701D01*
X114100500Y-88086611D01*
X114100500Y-87913389D01*
X114073402Y-87742299D01*
X114027160Y-87599983D01*
X143699500Y-87599983D01*
X143699500Y-88400001D01*
X143699501Y-88400019D01*
X143710000Y-88502796D01*
X143710001Y-88502799D01*
X143765185Y-88669331D01*
X143765187Y-88669336D01*
X143788870Y-88707732D01*
X143857288Y-88818656D01*
X143981344Y-88942712D01*
X144034298Y-88975374D01*
X144045543Y-88982310D01*
X144092268Y-89034258D01*
X144103489Y-89103221D01*
X144075646Y-89167303D01*
X144068128Y-89175530D01*
X143960585Y-89283073D01*
X143858768Y-89423211D01*
X143780128Y-89577552D01*
X143726597Y-89742302D01*
X143699500Y-89913389D01*
X143699500Y-90086611D01*
X143726598Y-90257701D01*
X143780127Y-90422445D01*
X143858768Y-90576788D01*
X143960586Y-90716928D01*
X144083072Y-90839414D01*
X144223212Y-90941232D01*
X144377555Y-91019873D01*
X144542299Y-91073402D01*
X144713389Y-91100500D01*
X144713390Y-91100500D01*
X144886610Y-91100500D01*
X144886611Y-91100500D01*
X145057701Y-91073402D01*
X145222445Y-91019873D01*
X145376788Y-90941232D01*
X145516928Y-90839414D01*
X145639414Y-90716928D01*
X145699682Y-90633975D01*
X145755012Y-90591311D01*
X145824626Y-90585332D01*
X145886421Y-90617938D01*
X145900315Y-90633973D01*
X145960586Y-90716928D01*
X146083072Y-90839414D01*
X146223212Y-90941232D01*
X146377555Y-91019873D01*
X146542299Y-91073402D01*
X146713389Y-91100500D01*
X146713390Y-91100500D01*
X146886610Y-91100500D01*
X146886611Y-91100500D01*
X147057701Y-91073402D01*
X147222445Y-91019873D01*
X147376788Y-90941232D01*
X147516928Y-90839414D01*
X147639414Y-90716928D01*
X147699682Y-90633975D01*
X147755012Y-90591311D01*
X147824626Y-90585332D01*
X147886421Y-90617938D01*
X147900315Y-90633973D01*
X147960586Y-90716928D01*
X148083072Y-90839414D01*
X148223212Y-90941232D01*
X148377555Y-91019873D01*
X148542299Y-91073402D01*
X148713389Y-91100500D01*
X148713390Y-91100500D01*
X148886610Y-91100500D01*
X148886611Y-91100500D01*
X149057701Y-91073402D01*
X149222445Y-91019873D01*
X149376788Y-90941232D01*
X149516928Y-90839414D01*
X149639414Y-90716928D01*
X149699682Y-90633975D01*
X149755012Y-90591311D01*
X149824626Y-90585332D01*
X149886421Y-90617938D01*
X149900315Y-90633973D01*
X149960586Y-90716928D01*
X150083072Y-90839414D01*
X150223212Y-90941232D01*
X150377555Y-91019873D01*
X150542299Y-91073402D01*
X150713389Y-91100500D01*
X150713390Y-91100500D01*
X150886610Y-91100500D01*
X150886611Y-91100500D01*
X151057701Y-91073402D01*
X151222445Y-91019873D01*
X151376788Y-90941232D01*
X151516928Y-90839414D01*
X151639414Y-90716928D01*
X151699682Y-90633975D01*
X151755012Y-90591311D01*
X151824626Y-90585332D01*
X151886421Y-90617938D01*
X151900315Y-90633973D01*
X151960586Y-90716928D01*
X152083072Y-90839414D01*
X152223212Y-90941232D01*
X152377555Y-91019873D01*
X152542299Y-91073402D01*
X152713389Y-91100500D01*
X152713390Y-91100500D01*
X152886610Y-91100500D01*
X152886611Y-91100500D01*
X153057701Y-91073402D01*
X153222445Y-91019873D01*
X153376788Y-90941232D01*
X153516928Y-90839414D01*
X153639414Y-90716928D01*
X153741232Y-90576788D01*
X153819873Y-90422445D01*
X153873402Y-90257701D01*
X153900500Y-90086611D01*
X153900500Y-89913389D01*
X153873402Y-89742299D01*
X153819873Y-89577555D01*
X153741232Y-89423212D01*
X153639414Y-89283072D01*
X153516928Y-89160586D01*
X153433975Y-89100317D01*
X153391311Y-89044988D01*
X153385332Y-88975374D01*
X153417938Y-88913579D01*
X153433976Y-88899682D01*
X153516928Y-88839414D01*
X153639414Y-88716928D01*
X153741232Y-88576788D01*
X153819873Y-88422445D01*
X153873402Y-88257701D01*
X153900500Y-88086611D01*
X153900500Y-87913389D01*
X153873402Y-87742299D01*
X153819873Y-87577555D01*
X153741232Y-87423212D01*
X153639414Y-87283072D01*
X153516928Y-87160586D01*
X153376788Y-87058768D01*
X153222445Y-86980127D01*
X153057701Y-86926598D01*
X153057699Y-86926597D01*
X153057698Y-86926597D01*
X152926271Y-86905781D01*
X152886611Y-86899500D01*
X152713389Y-86899500D01*
X152673728Y-86905781D01*
X152542302Y-86926597D01*
X152377552Y-86980128D01*
X152223211Y-87058768D01*
X152143256Y-87116859D01*
X152083072Y-87160586D01*
X152083070Y-87160588D01*
X152083069Y-87160588D01*
X151960588Y-87283069D01*
X151960581Y-87283078D01*
X151900317Y-87366023D01*
X151844987Y-87408689D01*
X151775374Y-87414667D01*
X151713579Y-87382061D01*
X151699683Y-87366023D01*
X151639418Y-87283078D01*
X151639414Y-87283072D01*
X151516928Y-87160586D01*
X151376788Y-87058768D01*
X151222445Y-86980127D01*
X151057701Y-86926598D01*
X151057699Y-86926597D01*
X151057698Y-86926597D01*
X150926271Y-86905781D01*
X150886611Y-86899500D01*
X150713389Y-86899500D01*
X150673728Y-86905781D01*
X150542302Y-86926597D01*
X150377552Y-86980128D01*
X150223211Y-87058768D01*
X150143256Y-87116859D01*
X150083072Y-87160586D01*
X150083070Y-87160588D01*
X150083069Y-87160588D01*
X149960588Y-87283069D01*
X149960581Y-87283078D01*
X149900317Y-87366023D01*
X149844987Y-87408689D01*
X149775374Y-87414667D01*
X149713579Y-87382061D01*
X149699683Y-87366023D01*
X149639418Y-87283078D01*
X149639414Y-87283072D01*
X149516928Y-87160586D01*
X149376788Y-87058768D01*
X149222445Y-86980127D01*
X149057701Y-86926598D01*
X149057699Y-86926597D01*
X149057698Y-86926597D01*
X148926271Y-86905781D01*
X148886611Y-86899500D01*
X148713389Y-86899500D01*
X148673728Y-86905781D01*
X148542302Y-86926597D01*
X148377552Y-86980128D01*
X148223211Y-87058768D01*
X148143256Y-87116859D01*
X148083072Y-87160586D01*
X148083070Y-87160588D01*
X148083069Y-87160588D01*
X147960588Y-87283069D01*
X147960581Y-87283078D01*
X147900317Y-87366023D01*
X147844987Y-87408689D01*
X147775374Y-87414667D01*
X147713579Y-87382061D01*
X147699683Y-87366023D01*
X147639418Y-87283078D01*
X147639414Y-87283072D01*
X147516928Y-87160586D01*
X147376788Y-87058768D01*
X147222445Y-86980127D01*
X147057701Y-86926598D01*
X147057699Y-86926597D01*
X147057698Y-86926597D01*
X146926271Y-86905781D01*
X146886611Y-86899500D01*
X146713389Y-86899500D01*
X146673728Y-86905781D01*
X146542302Y-86926597D01*
X146377552Y-86980128D01*
X146223211Y-87058768D01*
X146083073Y-87160585D01*
X145975530Y-87268128D01*
X145914207Y-87301612D01*
X145844515Y-87296628D01*
X145788582Y-87254756D01*
X145782310Y-87245543D01*
X145742712Y-87181344D01*
X145618656Y-87057288D01*
X145493559Y-86980128D01*
X145469336Y-86965187D01*
X145469331Y-86965185D01*
X145467862Y-86964698D01*
X145302797Y-86910001D01*
X145302795Y-86910000D01*
X145200010Y-86899500D01*
X144399998Y-86899500D01*
X144399980Y-86899501D01*
X144297203Y-86910000D01*
X144297200Y-86910001D01*
X144130668Y-86965185D01*
X144130663Y-86965187D01*
X143981342Y-87057289D01*
X143857289Y-87181342D01*
X143765187Y-87330663D01*
X143765186Y-87330666D01*
X143710001Y-87497203D01*
X143710001Y-87497204D01*
X143710000Y-87497204D01*
X143699500Y-87599983D01*
X114027160Y-87599983D01*
X114019873Y-87577555D01*
X113941232Y-87423212D01*
X113839414Y-87283072D01*
X113716928Y-87160586D01*
X113576788Y-87058768D01*
X113422445Y-86980127D01*
X113257701Y-86926598D01*
X113257699Y-86926597D01*
X113257698Y-86926597D01*
X113126271Y-86905781D01*
X113086611Y-86899500D01*
X112913389Y-86899500D01*
X112873728Y-86905781D01*
X112742302Y-86926597D01*
X112577552Y-86980128D01*
X112423211Y-87058768D01*
X112343256Y-87116859D01*
X112283072Y-87160586D01*
X112283070Y-87160588D01*
X112283069Y-87160588D01*
X112160588Y-87283069D01*
X112160581Y-87283078D01*
X112100317Y-87366023D01*
X112044987Y-87408689D01*
X111975374Y-87414667D01*
X111913579Y-87382061D01*
X111899683Y-87366023D01*
X111839418Y-87283078D01*
X111839414Y-87283072D01*
X111716928Y-87160586D01*
X111576788Y-87058768D01*
X111422445Y-86980127D01*
X111257701Y-86926598D01*
X111257699Y-86926597D01*
X111257698Y-86926597D01*
X111126271Y-86905781D01*
X111086611Y-86899500D01*
X110913389Y-86899500D01*
X110873728Y-86905781D01*
X110742302Y-86926597D01*
X110577552Y-86980128D01*
X110423211Y-87058768D01*
X110343256Y-87116859D01*
X110283072Y-87160586D01*
X110283070Y-87160588D01*
X110283069Y-87160588D01*
X110160588Y-87283069D01*
X110160581Y-87283078D01*
X110100317Y-87366023D01*
X110044987Y-87408689D01*
X109975374Y-87414667D01*
X109913579Y-87382061D01*
X109899683Y-87366023D01*
X109839418Y-87283078D01*
X109839414Y-87283072D01*
X109716928Y-87160586D01*
X109576788Y-87058768D01*
X109422445Y-86980127D01*
X109257701Y-86926598D01*
X109257699Y-86926597D01*
X109257698Y-86926597D01*
X109126271Y-86905781D01*
X109086611Y-86899500D01*
X108913389Y-86899500D01*
X108873728Y-86905781D01*
X108742302Y-86926597D01*
X108577552Y-86980128D01*
X108423211Y-87058768D01*
X108343256Y-87116859D01*
X108283072Y-87160586D01*
X108283070Y-87160588D01*
X108283069Y-87160588D01*
X108160588Y-87283069D01*
X108160581Y-87283078D01*
X108100317Y-87366023D01*
X108044987Y-87408689D01*
X107975374Y-87414667D01*
X107913579Y-87382061D01*
X107899683Y-87366023D01*
X107839418Y-87283078D01*
X107839414Y-87283072D01*
X107716928Y-87160586D01*
X107576788Y-87058768D01*
X107422445Y-86980127D01*
X107257701Y-86926598D01*
X107257699Y-86926597D01*
X107257698Y-86926597D01*
X107126271Y-86905781D01*
X107086611Y-86899500D01*
X106913389Y-86899500D01*
X106873728Y-86905781D01*
X106742302Y-86926597D01*
X106577552Y-86980128D01*
X106423211Y-87058768D01*
X106283073Y-87160585D01*
X106175530Y-87268128D01*
X106114207Y-87301612D01*
X106044515Y-87296628D01*
X105988582Y-87254756D01*
X105982310Y-87245543D01*
X105942712Y-87181344D01*
X105818656Y-87057288D01*
X105693559Y-86980128D01*
X105669336Y-86965187D01*
X105669331Y-86965185D01*
X105667862Y-86964698D01*
X105502797Y-86910001D01*
X105502795Y-86910000D01*
X105400010Y-86899500D01*
X104599998Y-86899500D01*
X104599980Y-86899501D01*
X104497203Y-86910000D01*
X104497200Y-86910001D01*
X104330668Y-86965185D01*
X104330663Y-86965187D01*
X104181342Y-87057289D01*
X104057289Y-87181342D01*
X103965187Y-87330663D01*
X103965186Y-87330666D01*
X103910001Y-87497203D01*
X103910001Y-87497204D01*
X103910000Y-87497204D01*
X103899500Y-87599983D01*
X98950500Y-87599983D01*
X98950500Y-84012045D01*
X98970185Y-83945006D01*
X99022989Y-83899251D01*
X99074500Y-83888045D01*
X157825500Y-83888045D01*
X157892539Y-83907730D01*
G37*
%TD.AperFunction*%
%TA.AperFunction,NonConductor*%
G36*
X151886421Y-88617938D02*
G01*
X151900315Y-88633973D01*
X151960586Y-88716928D01*
X152083072Y-88839414D01*
X152083078Y-88839418D01*
X152166023Y-88899683D01*
X152208689Y-88955013D01*
X152214667Y-89024626D01*
X152182061Y-89086421D01*
X152166023Y-89100317D01*
X152083078Y-89160581D01*
X152083069Y-89160588D01*
X151960588Y-89283069D01*
X151960581Y-89283078D01*
X151900317Y-89366023D01*
X151844987Y-89408689D01*
X151775374Y-89414667D01*
X151713579Y-89382061D01*
X151699683Y-89366023D01*
X151639418Y-89283078D01*
X151639414Y-89283072D01*
X151516928Y-89160586D01*
X151433975Y-89100317D01*
X151391311Y-89044988D01*
X151385332Y-88975374D01*
X151417938Y-88913579D01*
X151433976Y-88899682D01*
X151516928Y-88839414D01*
X151639414Y-88716928D01*
X151699682Y-88633975D01*
X151755012Y-88591311D01*
X151824626Y-88585332D01*
X151886421Y-88617938D01*
G37*
%TD.AperFunction*%
%TA.AperFunction,NonConductor*%
G36*
X149886421Y-88617938D02*
G01*
X149900315Y-88633973D01*
X149960586Y-88716928D01*
X150083072Y-88839414D01*
X150083078Y-88839418D01*
X150166023Y-88899683D01*
X150208689Y-88955013D01*
X150214667Y-89024626D01*
X150182061Y-89086421D01*
X150166023Y-89100317D01*
X150083078Y-89160581D01*
X150083069Y-89160588D01*
X149960588Y-89283069D01*
X149960581Y-89283078D01*
X149900317Y-89366023D01*
X149844987Y-89408689D01*
X149775374Y-89414667D01*
X149713579Y-89382061D01*
X149699683Y-89366023D01*
X149639418Y-89283078D01*
X149639414Y-89283072D01*
X149516928Y-89160586D01*
X149433975Y-89100317D01*
X149391311Y-89044988D01*
X149385332Y-88975374D01*
X149417938Y-88913579D01*
X149433976Y-88899682D01*
X149516928Y-88839414D01*
X149639414Y-88716928D01*
X149699682Y-88633975D01*
X149755012Y-88591311D01*
X149824626Y-88585332D01*
X149886421Y-88617938D01*
G37*
%TD.AperFunction*%
%TA.AperFunction,NonConductor*%
G36*
X147886421Y-88617938D02*
G01*
X147900315Y-88633973D01*
X147960586Y-88716928D01*
X148083072Y-88839414D01*
X148083078Y-88839418D01*
X148166023Y-88899683D01*
X148208689Y-88955013D01*
X148214667Y-89024626D01*
X148182061Y-89086421D01*
X148166023Y-89100317D01*
X148083078Y-89160581D01*
X148083069Y-89160588D01*
X147960588Y-89283069D01*
X147960581Y-89283078D01*
X147900317Y-89366023D01*
X147844987Y-89408689D01*
X147775374Y-89414667D01*
X147713579Y-89382061D01*
X147699683Y-89366023D01*
X147639418Y-89283078D01*
X147639414Y-89283072D01*
X147516928Y-89160586D01*
X147433975Y-89100317D01*
X147391311Y-89044988D01*
X147385332Y-88975374D01*
X147417938Y-88913579D01*
X147433976Y-88899682D01*
X147516928Y-88839414D01*
X147639414Y-88716928D01*
X147699682Y-88633975D01*
X147755012Y-88591311D01*
X147824626Y-88585332D01*
X147886421Y-88617938D01*
G37*
%TD.AperFunction*%
%TA.AperFunction,NonConductor*%
G36*
X145967303Y-88724352D02*
G01*
X145975530Y-88731872D01*
X146083072Y-88839414D01*
X146166356Y-88899923D01*
X146166677Y-88900160D01*
X146187644Y-88927722D01*
X146208689Y-88955013D01*
X146208725Y-88955432D01*
X146208980Y-88955768D01*
X146211712Y-88990217D01*
X146214667Y-89024626D01*
X146214470Y-89024998D01*
X146214504Y-89025419D01*
X146198161Y-89055907D01*
X146182061Y-89086421D01*
X146181583Y-89086834D01*
X146181495Y-89087000D01*
X146181209Y-89087158D01*
X146166023Y-89100317D01*
X146083078Y-89160581D01*
X146083069Y-89160588D01*
X145960588Y-89283069D01*
X145960581Y-89283078D01*
X145900317Y-89366023D01*
X145844987Y-89408689D01*
X145775374Y-89414667D01*
X145713579Y-89382061D01*
X145699683Y-89366023D01*
X145639418Y-89283078D01*
X145639414Y-89283072D01*
X145531872Y-89175530D01*
X145498387Y-89114207D01*
X145503371Y-89044515D01*
X145545243Y-88988582D01*
X145554457Y-88982310D01*
X145565702Y-88975374D01*
X145618656Y-88942712D01*
X145742712Y-88818656D01*
X145782310Y-88754456D01*
X145834258Y-88707732D01*
X145903220Y-88696509D01*
X145967303Y-88724352D01*
G37*
%TD.AperFunction*%
%TA.AperFunction,NonConductor*%
G36*
X112086421Y-88617938D02*
G01*
X112100315Y-88633973D01*
X112160586Y-88716928D01*
X112283072Y-88839414D01*
X112283078Y-88839418D01*
X112366023Y-88899683D01*
X112408689Y-88955013D01*
X112414667Y-89024626D01*
X112382061Y-89086421D01*
X112366023Y-89100317D01*
X112283078Y-89160581D01*
X112283069Y-89160588D01*
X112160588Y-89283069D01*
X112160581Y-89283078D01*
X112100317Y-89366023D01*
X112044987Y-89408689D01*
X111975374Y-89414667D01*
X111913579Y-89382061D01*
X111899683Y-89366023D01*
X111839418Y-89283078D01*
X111839414Y-89283072D01*
X111716928Y-89160586D01*
X111633975Y-89100317D01*
X111591311Y-89044988D01*
X111585332Y-88975374D01*
X111617938Y-88913579D01*
X111633976Y-88899682D01*
X111716928Y-88839414D01*
X111839414Y-88716928D01*
X111899682Y-88633975D01*
X111955012Y-88591311D01*
X112024626Y-88585332D01*
X112086421Y-88617938D01*
G37*
%TD.AperFunction*%
%TA.AperFunction,NonConductor*%
G36*
X110086421Y-88617938D02*
G01*
X110100315Y-88633973D01*
X110160586Y-88716928D01*
X110283072Y-88839414D01*
X110283078Y-88839418D01*
X110366023Y-88899683D01*
X110408689Y-88955013D01*
X110414667Y-89024626D01*
X110382061Y-89086421D01*
X110366023Y-89100317D01*
X110283078Y-89160581D01*
X110283069Y-89160588D01*
X110160588Y-89283069D01*
X110160581Y-89283078D01*
X110100317Y-89366023D01*
X110044987Y-89408689D01*
X109975374Y-89414667D01*
X109913579Y-89382061D01*
X109899683Y-89366023D01*
X109839418Y-89283078D01*
X109839414Y-89283072D01*
X109716928Y-89160586D01*
X109633975Y-89100317D01*
X109591311Y-89044988D01*
X109585332Y-88975374D01*
X109617938Y-88913579D01*
X109633976Y-88899682D01*
X109716928Y-88839414D01*
X109839414Y-88716928D01*
X109899682Y-88633975D01*
X109955012Y-88591311D01*
X110024626Y-88585332D01*
X110086421Y-88617938D01*
G37*
%TD.AperFunction*%
%TA.AperFunction,NonConductor*%
G36*
X108086421Y-88617938D02*
G01*
X108100315Y-88633973D01*
X108160586Y-88716928D01*
X108283072Y-88839414D01*
X108283078Y-88839418D01*
X108366023Y-88899683D01*
X108408689Y-88955013D01*
X108414667Y-89024626D01*
X108382061Y-89086421D01*
X108366023Y-89100317D01*
X108283078Y-89160581D01*
X108283069Y-89160588D01*
X108160588Y-89283069D01*
X108160581Y-89283078D01*
X108100317Y-89366023D01*
X108044987Y-89408689D01*
X107975374Y-89414667D01*
X107913579Y-89382061D01*
X107899683Y-89366023D01*
X107839418Y-89283078D01*
X107839414Y-89283072D01*
X107716928Y-89160586D01*
X107633975Y-89100317D01*
X107591311Y-89044988D01*
X107585332Y-88975374D01*
X107617938Y-88913579D01*
X107633976Y-88899682D01*
X107716928Y-88839414D01*
X107839414Y-88716928D01*
X107899682Y-88633975D01*
X107955012Y-88591311D01*
X108024626Y-88585332D01*
X108086421Y-88617938D01*
G37*
%TD.AperFunction*%
%TA.AperFunction,NonConductor*%
G36*
X106167303Y-88724352D02*
G01*
X106175530Y-88731872D01*
X106283072Y-88839414D01*
X106283078Y-88839418D01*
X106366023Y-88899683D01*
X106408689Y-88955013D01*
X106414667Y-89024626D01*
X106382061Y-89086421D01*
X106366023Y-89100317D01*
X106283078Y-89160581D01*
X106283069Y-89160588D01*
X106160588Y-89283069D01*
X106160581Y-89283078D01*
X106100317Y-89366023D01*
X106044987Y-89408689D01*
X105975374Y-89414667D01*
X105913579Y-89382061D01*
X105899683Y-89366023D01*
X105839418Y-89283078D01*
X105839414Y-89283072D01*
X105731872Y-89175530D01*
X105698387Y-89114207D01*
X105703371Y-89044515D01*
X105745243Y-88988582D01*
X105754457Y-88982310D01*
X105765702Y-88975374D01*
X105818656Y-88942712D01*
X105942712Y-88818656D01*
X105982310Y-88754456D01*
X106034258Y-88707732D01*
X106103220Y-88696509D01*
X106167303Y-88724352D01*
G37*
%TD.AperFunction*%
M02*
