%TF.GenerationSoftware,KiCad,Pcbnew,9.0.5*%
%TF.CreationDate,2025-10-21T11:31:10+02:00*%
%TF.ProjectId,PCB_switches,5043425f-7377-4697-9463-6865732e6b69,rev?*%
%TF.SameCoordinates,Original*%
%TF.FileFunction,Copper,L1,Top*%
%TF.FilePolarity,Positive*%
%FSLAX46Y46*%
G04 Gerber Fmt 4.6, Leading zero omitted, Abs format (unit mm)*
G04 Created by KiCad (PCBNEW 9.0.5) date 2025-10-21 11:31:10*
%MOMM*%
%LPD*%
G01*
G04 APERTURE LIST*
G04 Aperture macros list*
%AMRoundRect*
0 Rectangle with rounded corners*
0 $1 Rounding radius*
0 $2 $3 $4 $5 $6 $7 $8 $9 X,Y pos of 4 corners*
0 Add a 4 corners polygon primitive as box body*
4,1,4,$2,$3,$4,$5,$6,$7,$8,$9,$2,$3,0*
0 Add four circle primitives for the rounded corners*
1,1,$1+$1,$2,$3*
1,1,$1+$1,$4,$5*
1,1,$1+$1,$6,$7*
1,1,$1+$1,$8,$9*
0 Add four rect primitives between the rounded corners*
20,1,$1+$1,$2,$3,$4,$5,0*
20,1,$1+$1,$4,$5,$6,$7,0*
20,1,$1+$1,$6,$7,$8,$9,0*
20,1,$1+$1,$8,$9,$2,$3,0*%
G04 Aperture macros list end*
%TA.AperFunction,ComponentPad*%
%ADD10O,1.500000X3.000000*%
%TD*%
%TA.AperFunction,ComponentPad*%
%ADD11RoundRect,0.250000X-0.350000X-0.350000X0.350000X-0.350000X0.350000X0.350000X-0.350000X0.350000X0*%
%TD*%
%TA.AperFunction,ComponentPad*%
%ADD12C,1.200000*%
%TD*%
%TA.AperFunction,Conductor*%
%ADD13C,0.400000*%
%TD*%
%TA.AperFunction,Conductor*%
%ADD14C,0.500000*%
%TD*%
G04 APERTURE END LIST*
D10*
%TO.P,SW1,1,1*%
%TO.N,Net-(J1-Pin_1)*%
X104047791Y-98217500D03*
%TO.P,SW1,2,2*%
%TO.N,Net-(J1-Pin_2)*%
X106547791Y-98217500D03*
%TO.P,SW1,3,3*%
%TO.N,Net-(J1-Pin_3)*%
X109047791Y-98217500D03*
%TO.P,SW1,4,4*%
%TO.N,Net-(J1-Pin_4)*%
X111547791Y-98217500D03*
%TO.P,SW1,5,5*%
%TO.N,Net-(J1-Pin_5)*%
X114047791Y-98217500D03*
%TO.P,SW1,6,6*%
%TO.N,Net-(J1-Pin_6)*%
X103952210Y-103217500D03*
%TO.P,SW1,7,7*%
%TO.N,Net-(J1-Pin_7)*%
X106547791Y-103217500D03*
%TO.P,SW1,8,8*%
%TO.N,Net-(J1-Pin_8)*%
X109129260Y-103232421D03*
%TO.P,SW1,9,9*%
%TO.N,Net-(J1-Pin_9)*%
X111547791Y-103217500D03*
%TO.P,SW1,10,10*%
%TO.N,Net-(J1-Pin_10)*%
X114047791Y-103217500D03*
%TD*%
D11*
%TO.P,J1,1,Pin_1*%
%TO.N,Net-(J1-Pin_1)*%
X105000000Y-88000000D03*
D12*
%TO.P,J1,2,Pin_2*%
%TO.N,Net-(J1-Pin_2)*%
X107000000Y-88000000D03*
%TO.P,J1,3,Pin_3*%
%TO.N,Net-(J1-Pin_3)*%
X109000000Y-88000000D03*
%TO.P,J1,4,Pin_4*%
%TO.N,Net-(J1-Pin_4)*%
X111000000Y-88000000D03*
%TO.P,J1,5,Pin_5*%
%TO.N,Net-(J1-Pin_5)*%
X113000000Y-88000000D03*
%TO.P,J1,6,Pin_6*%
%TO.N,Net-(J1-Pin_6)*%
X105000000Y-90000000D03*
%TO.P,J1,7,Pin_7*%
%TO.N,Net-(J1-Pin_7)*%
X107000000Y-90000000D03*
%TO.P,J1,8,Pin_8*%
%TO.N,Net-(J1-Pin_8)*%
X109000000Y-90000000D03*
%TO.P,J1,9,Pin_9*%
%TO.N,Net-(J1-Pin_9)*%
X111000000Y-90000000D03*
%TO.P,J1,10,Pin_10*%
%TO.N,Net-(J1-Pin_10)*%
X113000000Y-90000000D03*
%TD*%
D11*
%TO.P,J2,1,Pin_1*%
%TO.N,Net-(J2-Pin_1)*%
X144800000Y-88000000D03*
D12*
%TO.P,J2,2,Pin_2*%
%TO.N,Net-(J2-Pin_2)*%
X146800000Y-88000000D03*
%TO.P,J2,3,Pin_3*%
%TO.N,Net-(J2-Pin_3)*%
X148800000Y-88000000D03*
%TO.P,J2,4,Pin_4*%
%TO.N,Net-(J2-Pin_4)*%
X150800000Y-88000000D03*
%TO.P,J2,5,Pin_5*%
%TO.N,Net-(J2-Pin_5)*%
X152800000Y-88000000D03*
%TO.P,J2,6,Pin_6*%
%TO.N,Net-(J2-Pin_6)*%
X144800000Y-90000000D03*
%TO.P,J2,7,Pin_7*%
%TO.N,Net-(J2-Pin_7)*%
X146800000Y-90000000D03*
%TO.P,J2,8,Pin_8*%
%TO.N,unconnected-(J2-Pin_8-Pad8)*%
X148800000Y-90000000D03*
%TO.P,J2,9,Pin_9*%
%TO.N,unconnected-(J2-Pin_9-Pad9)*%
X150800000Y-90000000D03*
%TO.P,J2,10,Pin_10*%
%TO.N,Net-(J2-Pin_10)*%
X152800000Y-90000000D03*
%TD*%
D10*
%TO.P,SW2,1,1*%
%TO.N,Net-(J2-Pin_1)*%
X144047791Y-98217500D03*
%TO.P,SW2,2,2*%
%TO.N,Net-(J2-Pin_2)*%
X146547791Y-98217500D03*
%TO.P,SW2,3,3*%
%TO.N,Net-(J2-Pin_3)*%
X149047791Y-98217500D03*
%TO.P,SW2,4,4*%
%TO.N,Net-(J2-Pin_4)*%
X151547791Y-98217500D03*
%TO.P,SW2,5,5*%
%TO.N,Net-(J2-Pin_5)*%
X154047791Y-98217500D03*
%TO.P,SW2,6,6*%
%TO.N,Net-(J2-Pin_6)*%
X143952210Y-103217500D03*
%TO.P,SW2,7,7*%
%TO.N,Net-(J2-Pin_7)*%
X146547791Y-103217500D03*
%TO.P,SW2,8,8*%
%TO.N,unconnected-(SW2-Pad8)*%
X149129260Y-103232421D03*
%TO.P,SW2,9,9*%
%TO.N,unconnected-(SW2-Pad9)*%
X151547791Y-103217500D03*
%TO.P,SW2,10,10*%
%TO.N,Net-(J2-Pin_10)*%
X154047791Y-103217500D03*
%TD*%
D13*
%TO.N,Net-(J2-Pin_6)*%
X142500000Y-95400000D02*
X144800000Y-93100000D01*
X144800000Y-93100000D02*
X144800000Y-90000000D01*
X142500000Y-100100000D02*
X142500000Y-95400000D01*
X143952210Y-101552210D02*
X142500000Y-100100000D01*
X143952210Y-103217500D02*
X143952210Y-101552210D01*
%TO.N,Net-(J2-Pin_7)*%
X145284040Y-96215960D02*
X146800000Y-94700000D01*
X146800000Y-94700000D02*
X146800000Y-90000000D01*
X145284040Y-97000000D02*
X145284040Y-96215960D01*
%TO.N,Net-(J2-Pin_10)*%
X152800000Y-100200000D02*
X154047791Y-101447791D01*
X154047791Y-101447791D02*
X154047791Y-103217500D01*
X152800000Y-90000000D02*
X152800000Y-100200000D01*
%TO.N,Net-(J2-Pin_5)*%
X154047791Y-98217500D02*
X154047791Y-89247791D01*
%TO.N,Net-(J2-Pin_4)*%
X151547791Y-95452209D02*
X151547791Y-98217500D01*
X151800000Y-95200000D02*
X151547791Y-95452209D01*
X151800000Y-89000000D02*
X151800000Y-95200000D01*
%TO.N,Net-(J2-Pin_3)*%
X149047791Y-95952209D02*
X149047791Y-98217500D01*
X149800000Y-89000000D02*
X149800000Y-95200000D01*
X149800000Y-95200000D02*
X149047791Y-95952209D01*
%TO.N,Net-(J2-Pin_2)*%
X146547791Y-96752209D02*
X146547791Y-98217500D01*
X147800000Y-89000000D02*
X147800000Y-95500000D01*
X147800000Y-95500000D02*
X146547791Y-96752209D01*
%TO.N,Net-(J2-Pin_1)*%
X144047791Y-95752209D02*
X144047791Y-98217500D01*
X145800000Y-94000000D02*
X144047791Y-95752209D01*
X145800000Y-89000000D02*
X145800000Y-94000000D01*
%TO.N,Net-(J1-Pin_6)*%
X102896791Y-102162081D02*
X103952210Y-103217500D01*
X102896791Y-93103209D02*
X102896791Y-102162081D01*
X105000000Y-91000000D02*
X102896791Y-93103209D01*
X105000000Y-90000000D02*
X105000000Y-91000000D01*
%TO.N,Net-(J1-Pin_1)*%
X104100000Y-98165291D02*
X104047791Y-98217500D01*
X106000000Y-89000000D02*
X106000000Y-91900000D01*
X106000000Y-91900000D02*
X104100000Y-93800000D01*
X104100000Y-93800000D02*
X104100000Y-98165291D01*
%TO.N,Net-(J1-Pin_2)*%
X108000000Y-94900000D02*
X108000000Y-89000000D01*
X106547791Y-96352209D02*
X108000000Y-94900000D01*
X106547791Y-98217500D02*
X106547791Y-96352209D01*
%TO.N,Net-(J1-Pin_3)*%
X110000000Y-95500000D02*
X110000000Y-89000000D01*
X109047791Y-96452209D02*
X110000000Y-95500000D01*
X109047791Y-98217500D02*
X109047791Y-96452209D01*
%TO.N,Net-(J1-Pin_7)*%
X105300000Y-96500000D02*
X107000000Y-94800000D01*
X107000000Y-94800000D02*
X107000000Y-90000000D01*
X105300000Y-101969709D02*
X105300000Y-96500000D01*
X106547791Y-103217500D02*
X105300000Y-101969709D01*
%TO.N,Net-(J1-Pin_8)*%
X107786785Y-101889946D02*
X109129260Y-103232421D01*
X107786785Y-96411064D02*
X107786785Y-101889946D01*
X109000000Y-95197849D02*
X107786785Y-96411064D01*
X109000000Y-90000000D02*
X109000000Y-95197849D01*
D14*
%TO.N,Net-(J1-Pin_9)*%
X110346791Y-102016500D02*
X111547791Y-103217500D01*
X110346791Y-96453209D02*
X110346791Y-102016500D01*
X111000000Y-95800000D02*
X110346791Y-96453209D01*
X111000000Y-90000000D02*
X111000000Y-95800000D01*
D13*
%TO.N,Net-(J1-Pin_4)*%
X112000000Y-96100000D02*
X111547791Y-96552209D01*
X111547791Y-96552209D02*
X111547791Y-98217500D01*
X112000000Y-89000000D02*
X112000000Y-96100000D01*
D14*
%TO.N,Net-(J1-Pin_5)*%
X114051000Y-98214291D02*
X114047791Y-98217500D01*
X114051000Y-89051000D02*
X114051000Y-98214291D01*
X114025500Y-89025500D02*
X114051000Y-89051000D01*
%TO.N,Net-(J1-Pin_10)*%
X112846791Y-90153209D02*
X112846791Y-102016500D01*
X112846791Y-102016500D02*
X114047791Y-103217500D01*
X113000000Y-90000000D02*
X112846791Y-90153209D01*
%TO.N,Net-(J1-Pin_5)*%
X113011003Y-88020909D02*
X114062003Y-89071909D01*
D13*
%TO.N,Net-(J1-Pin_4)*%
X111000000Y-88000000D02*
X112000000Y-89000000D01*
%TO.N,Net-(J1-Pin_3)*%
X110000000Y-89000000D02*
X109000000Y-88000000D01*
%TO.N,Net-(J1-Pin_2)*%
X108000000Y-89000000D02*
X107000000Y-88000000D01*
X106000000Y-97669709D02*
X106547791Y-98217500D01*
D14*
%TO.N,Net-(J1-Pin_1)*%
X103949000Y-98118709D02*
X104047791Y-98217500D01*
D13*
X105000000Y-88000000D02*
X106000000Y-89000000D01*
%TO.N,Net-(J2-Pin_2)*%
X146800000Y-88000000D02*
X147800000Y-89000000D01*
%TO.N,Net-(J2-Pin_1)*%
X144800000Y-88000000D02*
X145800000Y-89000000D01*
%TO.N,Net-(J2-Pin_7)*%
X146547791Y-101647791D02*
X145284040Y-100384040D01*
X145284040Y-100384040D02*
X145284040Y-96956157D01*
X146547791Y-103217500D02*
X146547791Y-101647791D01*
%TO.N,Net-(J2-Pin_4)*%
X150800000Y-88000000D02*
X151800000Y-89000000D01*
%TO.N,Net-(J2-Pin_3)*%
X148800000Y-88000000D02*
X149800000Y-89000000D01*
%TO.N,Net-(J2-Pin_5)*%
X154047791Y-89247791D02*
X152800000Y-88000000D01*
%TD*%
%TA.AperFunction,NonConductor*%
G36*
X157892539Y-83907730D02*
G01*
X157938294Y-83960534D01*
X157949500Y-84012045D01*
X157949500Y-107763045D01*
X157929815Y-107830084D01*
X157877011Y-107875839D01*
X157825500Y-107887045D01*
X99074500Y-107887045D01*
X99007461Y-107867360D01*
X98961706Y-107814556D01*
X98950500Y-107763045D01*
X98950500Y-102231077D01*
X102196290Y-102231077D01*
X102223209Y-102366403D01*
X102223212Y-102366413D01*
X102276013Y-102493888D01*
X102352678Y-102608626D01*
X102352679Y-102608627D01*
X102665391Y-102921338D01*
X102698876Y-102982661D01*
X102701710Y-103009019D01*
X102701710Y-104065922D01*
X102732500Y-104260326D01*
X102793327Y-104447529D01*
X102857230Y-104572945D01*
X102882686Y-104622905D01*
X102998382Y-104782146D01*
X103137564Y-104921328D01*
X103296805Y-105037024D01*
X103379665Y-105079243D01*
X103472180Y-105126382D01*
X103472182Y-105126382D01*
X103472185Y-105126384D01*
X103518101Y-105141303D01*
X103659383Y-105187209D01*
X103853788Y-105218000D01*
X103853793Y-105218000D01*
X104050632Y-105218000D01*
X104245036Y-105187209D01*
X104432235Y-105126384D01*
X104607615Y-105037024D01*
X104766856Y-104921328D01*
X104906038Y-104782146D01*
X105021734Y-104622905D01*
X105111094Y-104447525D01*
X105132070Y-104382967D01*
X105171506Y-104325294D01*
X105235865Y-104298095D01*
X105304711Y-104310009D01*
X105356187Y-104357253D01*
X105367931Y-104382968D01*
X105388908Y-104447529D01*
X105452811Y-104572945D01*
X105478267Y-104622905D01*
X105593963Y-104782146D01*
X105733145Y-104921328D01*
X105892386Y-105037024D01*
X105975246Y-105079243D01*
X106067761Y-105126382D01*
X106067763Y-105126382D01*
X106067766Y-105126384D01*
X106113682Y-105141303D01*
X106254964Y-105187209D01*
X106449369Y-105218000D01*
X106449374Y-105218000D01*
X106646213Y-105218000D01*
X106840617Y-105187209D01*
X107027816Y-105126384D01*
X107203196Y-105037024D01*
X107362437Y-104921328D01*
X107501619Y-104782146D01*
X107617315Y-104622905D01*
X107706675Y-104447525D01*
X107718170Y-104412144D01*
X107757607Y-104354470D01*
X107821965Y-104327271D01*
X107890812Y-104339185D01*
X107942288Y-104386429D01*
X107954031Y-104412142D01*
X107955918Y-104417948D01*
X107970377Y-104462450D01*
X108052133Y-104622905D01*
X108059736Y-104637826D01*
X108175432Y-104797067D01*
X108314614Y-104936249D01*
X108473855Y-105051945D01*
X108556715Y-105094164D01*
X108649230Y-105141303D01*
X108649232Y-105141303D01*
X108649235Y-105141305D01*
X108749577Y-105173908D01*
X108836433Y-105202130D01*
X109030838Y-105232921D01*
X109030843Y-105232921D01*
X109227682Y-105232921D01*
X109422086Y-105202130D01*
X109609285Y-105141305D01*
X109784665Y-105051945D01*
X109943906Y-104936249D01*
X110083088Y-104797067D01*
X110198784Y-104637826D01*
X110231842Y-104572944D01*
X110279814Y-104522150D01*
X110347635Y-104505354D01*
X110413770Y-104527890D01*
X110452811Y-104572945D01*
X110478267Y-104622905D01*
X110593963Y-104782146D01*
X110733145Y-104921328D01*
X110892386Y-105037024D01*
X110975246Y-105079243D01*
X111067761Y-105126382D01*
X111067763Y-105126382D01*
X111067766Y-105126384D01*
X111113682Y-105141303D01*
X111254964Y-105187209D01*
X111449369Y-105218000D01*
X111449374Y-105218000D01*
X111646213Y-105218000D01*
X111840617Y-105187209D01*
X112027816Y-105126384D01*
X112203196Y-105037024D01*
X112362437Y-104921328D01*
X112501619Y-104782146D01*
X112617315Y-104622905D01*
X112687306Y-104485538D01*
X112735280Y-104434743D01*
X112803101Y-104417948D01*
X112869236Y-104440485D01*
X112908275Y-104485538D01*
X112978267Y-104622905D01*
X113093963Y-104782146D01*
X113233145Y-104921328D01*
X113392386Y-105037024D01*
X113475246Y-105079243D01*
X113567761Y-105126382D01*
X113567763Y-105126382D01*
X113567766Y-105126384D01*
X113613682Y-105141303D01*
X113754964Y-105187209D01*
X113949369Y-105218000D01*
X113949374Y-105218000D01*
X114146213Y-105218000D01*
X114340617Y-105187209D01*
X114527816Y-105126384D01*
X114703196Y-105037024D01*
X114862437Y-104921328D01*
X115001619Y-104782146D01*
X115117315Y-104622905D01*
X115206675Y-104447525D01*
X115267500Y-104260326D01*
X115298291Y-104065922D01*
X115298291Y-102369077D01*
X115267500Y-102174673D01*
X115227650Y-102052030D01*
X115206675Y-101987475D01*
X115206673Y-101987472D01*
X115206673Y-101987470D01*
X115124918Y-101827017D01*
X115117315Y-101812095D01*
X115001619Y-101652854D01*
X114862437Y-101513672D01*
X114703196Y-101397976D01*
X114665557Y-101378798D01*
X114527820Y-101308617D01*
X114340617Y-101247790D01*
X114146213Y-101217000D01*
X114146208Y-101217000D01*
X113949374Y-101217000D01*
X113949369Y-101217000D01*
X113754961Y-101247791D01*
X113750225Y-101248928D01*
X113680443Y-101245430D01*
X113623630Y-101204760D01*
X113597824Y-101139830D01*
X113597291Y-101128351D01*
X113597291Y-100306647D01*
X113616976Y-100239608D01*
X113669780Y-100193853D01*
X113738938Y-100183909D01*
X113750249Y-100186076D01*
X113754959Y-100187207D01*
X113754965Y-100187209D01*
X113754970Y-100187209D01*
X113754971Y-100187210D01*
X113949369Y-100218000D01*
X113949374Y-100218000D01*
X114146213Y-100218000D01*
X114340617Y-100187209D01*
X114350773Y-100183909D01*
X114396670Y-100168996D01*
X141799499Y-100168996D01*
X141826418Y-100304322D01*
X141826421Y-100304332D01*
X141879222Y-100431807D01*
X141955887Y-100546545D01*
X141955888Y-100546546D01*
X142950348Y-101541005D01*
X142983833Y-101602328D01*
X142978849Y-101672020D01*
X142962985Y-101701571D01*
X142882688Y-101812090D01*
X142793327Y-101987470D01*
X142732500Y-102174673D01*
X142701710Y-102369077D01*
X142701710Y-104065922D01*
X142732500Y-104260326D01*
X142793327Y-104447529D01*
X142857230Y-104572945D01*
X142882686Y-104622905D01*
X142998382Y-104782146D01*
X143137564Y-104921328D01*
X143296805Y-105037024D01*
X143379665Y-105079243D01*
X143472180Y-105126382D01*
X143472182Y-105126382D01*
X143472185Y-105126384D01*
X143518101Y-105141303D01*
X143659383Y-105187209D01*
X143853788Y-105218000D01*
X143853793Y-105218000D01*
X144050632Y-105218000D01*
X144245036Y-105187209D01*
X144432235Y-105126384D01*
X144607615Y-105037024D01*
X144766856Y-104921328D01*
X144906038Y-104782146D01*
X145021734Y-104622905D01*
X145111094Y-104447525D01*
X145132070Y-104382967D01*
X145171506Y-104325294D01*
X145235865Y-104298095D01*
X145304711Y-104310009D01*
X145356187Y-104357253D01*
X145367931Y-104382968D01*
X145388908Y-104447529D01*
X145452811Y-104572945D01*
X145478267Y-104622905D01*
X145593963Y-104782146D01*
X145733145Y-104921328D01*
X145892386Y-105037024D01*
X145975246Y-105079243D01*
X146067761Y-105126382D01*
X146067763Y-105126382D01*
X146067766Y-105126384D01*
X146113682Y-105141303D01*
X146254964Y-105187209D01*
X146449369Y-105218000D01*
X146449374Y-105218000D01*
X146646213Y-105218000D01*
X146840617Y-105187209D01*
X147027816Y-105126384D01*
X147203196Y-105037024D01*
X147362437Y-104921328D01*
X147501619Y-104782146D01*
X147617315Y-104622905D01*
X147706675Y-104447525D01*
X147718170Y-104412144D01*
X147757607Y-104354470D01*
X147821965Y-104327271D01*
X147890812Y-104339185D01*
X147942288Y-104386429D01*
X147954031Y-104412142D01*
X147955918Y-104417948D01*
X147970377Y-104462450D01*
X148052133Y-104622905D01*
X148059736Y-104637826D01*
X148175432Y-104797067D01*
X148314614Y-104936249D01*
X148473855Y-105051945D01*
X148556715Y-105094164D01*
X148649230Y-105141303D01*
X148649232Y-105141303D01*
X148649235Y-105141305D01*
X148749577Y-105173908D01*
X148836433Y-105202130D01*
X149030838Y-105232921D01*
X149030843Y-105232921D01*
X149227682Y-105232921D01*
X149422086Y-105202130D01*
X149609285Y-105141305D01*
X149784665Y-105051945D01*
X149943906Y-104936249D01*
X150083088Y-104797067D01*
X150198784Y-104637826D01*
X150231842Y-104572944D01*
X150279814Y-104522150D01*
X150347635Y-104505354D01*
X150413770Y-104527890D01*
X150452811Y-104572945D01*
X150478267Y-104622905D01*
X150593963Y-104782146D01*
X150733145Y-104921328D01*
X150892386Y-105037024D01*
X150975246Y-105079243D01*
X151067761Y-105126382D01*
X151067763Y-105126382D01*
X151067766Y-105126384D01*
X151113682Y-105141303D01*
X151254964Y-105187209D01*
X151449369Y-105218000D01*
X151449374Y-105218000D01*
X151646213Y-105218000D01*
X151840617Y-105187209D01*
X152027816Y-105126384D01*
X152203196Y-105037024D01*
X152362437Y-104921328D01*
X152501619Y-104782146D01*
X152617315Y-104622905D01*
X152687306Y-104485538D01*
X152735280Y-104434743D01*
X152803101Y-104417948D01*
X152869236Y-104440485D01*
X152908275Y-104485538D01*
X152978267Y-104622905D01*
X153093963Y-104782146D01*
X153233145Y-104921328D01*
X153392386Y-105037024D01*
X153475246Y-105079243D01*
X153567761Y-105126382D01*
X153567763Y-105126382D01*
X153567766Y-105126384D01*
X153613682Y-105141303D01*
X153754964Y-105187209D01*
X153949369Y-105218000D01*
X153949374Y-105218000D01*
X154146213Y-105218000D01*
X154340617Y-105187209D01*
X154527816Y-105126384D01*
X154703196Y-105037024D01*
X154862437Y-104921328D01*
X155001619Y-104782146D01*
X155117315Y-104622905D01*
X155206675Y-104447525D01*
X155267500Y-104260326D01*
X155298291Y-104065922D01*
X155298291Y-102369077D01*
X155267500Y-102174673D01*
X155227650Y-102052030D01*
X155206675Y-101987475D01*
X155206673Y-101987472D01*
X155206673Y-101987470D01*
X155124918Y-101827017D01*
X155117315Y-101812095D01*
X155001619Y-101652854D01*
X154862437Y-101513672D01*
X154862436Y-101513671D01*
X154798858Y-101467478D01*
X154780969Y-101444278D01*
X154760967Y-101422876D01*
X154758860Y-101415605D01*
X154756193Y-101412147D01*
X154749757Y-101389409D01*
X154748291Y-101381371D01*
X154748291Y-101378798D01*
X154742844Y-101351416D01*
X154721371Y-101243463D01*
X154721369Y-101243458D01*
X154668568Y-101115983D01*
X154591903Y-101001245D01*
X154591902Y-101001244D01*
X154020338Y-100429681D01*
X153986853Y-100368358D01*
X153991837Y-100298667D01*
X154033708Y-100242733D01*
X154099173Y-100218316D01*
X154108019Y-100218000D01*
X154146213Y-100218000D01*
X154340617Y-100187209D01*
X154350773Y-100183909D01*
X154527816Y-100126384D01*
X154703196Y-100037024D01*
X154862437Y-99921328D01*
X155001619Y-99782146D01*
X155117315Y-99622905D01*
X155206675Y-99447525D01*
X155267500Y-99260326D01*
X155298291Y-99065922D01*
X155298291Y-97369077D01*
X155267500Y-97174673D01*
X155215177Y-97013641D01*
X155206675Y-96987475D01*
X155206673Y-96987472D01*
X155206673Y-96987470D01*
X155117314Y-96812094D01*
X155109494Y-96801331D01*
X155001619Y-96652854D01*
X154862437Y-96513672D01*
X154799404Y-96467875D01*
X154756739Y-96412545D01*
X154748291Y-96367558D01*
X154748291Y-89178798D01*
X154744668Y-89160588D01*
X154744668Y-89160586D01*
X154721371Y-89043463D01*
X154721369Y-89043458D01*
X154668568Y-88915983D01*
X154591903Y-88801245D01*
X153936819Y-88146161D01*
X153903334Y-88084838D01*
X153900500Y-88058480D01*
X153900500Y-87913389D01*
X153873402Y-87742302D01*
X153873402Y-87742299D01*
X153819873Y-87577555D01*
X153741232Y-87423212D01*
X153639414Y-87283072D01*
X153516928Y-87160586D01*
X153376788Y-87058768D01*
X153222445Y-86980127D01*
X153057701Y-86926598D01*
X153057699Y-86926597D01*
X153057698Y-86926597D01*
X152926271Y-86905781D01*
X152886611Y-86899500D01*
X152713389Y-86899500D01*
X152673728Y-86905781D01*
X152542302Y-86926597D01*
X152377552Y-86980128D01*
X152223211Y-87058768D01*
X152143256Y-87116859D01*
X152083072Y-87160586D01*
X152083070Y-87160588D01*
X152083069Y-87160588D01*
X151960588Y-87283069D01*
X151960581Y-87283078D01*
X151900317Y-87366023D01*
X151844987Y-87408689D01*
X151775374Y-87414667D01*
X151713579Y-87382061D01*
X151699683Y-87366023D01*
X151639418Y-87283078D01*
X151639414Y-87283072D01*
X151516928Y-87160586D01*
X151376788Y-87058768D01*
X151222445Y-86980127D01*
X151057701Y-86926598D01*
X151057699Y-86926597D01*
X151057698Y-86926597D01*
X150926271Y-86905781D01*
X150886611Y-86899500D01*
X150713389Y-86899500D01*
X150673728Y-86905781D01*
X150542302Y-86926597D01*
X150377552Y-86980128D01*
X150223211Y-87058768D01*
X150143256Y-87116859D01*
X150083072Y-87160586D01*
X150083070Y-87160588D01*
X150083069Y-87160588D01*
X149960588Y-87283069D01*
X149960581Y-87283078D01*
X149900317Y-87366023D01*
X149844987Y-87408689D01*
X149775374Y-87414667D01*
X149713579Y-87382061D01*
X149699683Y-87366023D01*
X149639418Y-87283078D01*
X149639414Y-87283072D01*
X149516928Y-87160586D01*
X149376788Y-87058768D01*
X149222445Y-86980127D01*
X149057701Y-86926598D01*
X149057699Y-86926597D01*
X149057698Y-86926597D01*
X148926271Y-86905781D01*
X148886611Y-86899500D01*
X148713389Y-86899500D01*
X148673728Y-86905781D01*
X148542302Y-86926597D01*
X148377552Y-86980128D01*
X148223211Y-87058768D01*
X148143256Y-87116859D01*
X148083072Y-87160586D01*
X148083070Y-87160588D01*
X148083069Y-87160588D01*
X147960588Y-87283069D01*
X147960581Y-87283078D01*
X147900317Y-87366023D01*
X147844987Y-87408689D01*
X147775374Y-87414667D01*
X147713579Y-87382061D01*
X147699683Y-87366023D01*
X147639418Y-87283078D01*
X147639414Y-87283072D01*
X147516928Y-87160586D01*
X147376788Y-87058768D01*
X147222445Y-86980127D01*
X147057701Y-86926598D01*
X147057699Y-86926597D01*
X147057698Y-86926597D01*
X146926271Y-86905781D01*
X146886611Y-86899500D01*
X146713389Y-86899500D01*
X146673728Y-86905781D01*
X146542302Y-86926597D01*
X146377552Y-86980128D01*
X146223211Y-87058768D01*
X146083073Y-87160585D01*
X145975530Y-87268128D01*
X145914207Y-87301612D01*
X145844515Y-87296628D01*
X145788582Y-87254756D01*
X145782310Y-87245543D01*
X145742712Y-87181344D01*
X145618656Y-87057288D01*
X145493559Y-86980128D01*
X145469336Y-86965187D01*
X145469331Y-86965185D01*
X145467862Y-86964698D01*
X145302797Y-86910001D01*
X145302795Y-86910000D01*
X145200010Y-86899500D01*
X144399998Y-86899500D01*
X144399980Y-86899501D01*
X144297203Y-86910000D01*
X144297200Y-86910001D01*
X144130668Y-86965185D01*
X144130663Y-86965187D01*
X143981342Y-87057289D01*
X143857289Y-87181342D01*
X143765187Y-87330663D01*
X143765186Y-87330666D01*
X143710001Y-87497203D01*
X143710001Y-87497204D01*
X143710000Y-87497204D01*
X143699500Y-87599983D01*
X143699500Y-88400001D01*
X143699501Y-88400019D01*
X143710000Y-88502796D01*
X143710001Y-88502799D01*
X143724676Y-88547084D01*
X143765186Y-88669334D01*
X143857288Y-88818656D01*
X143981344Y-88942712D01*
X144045543Y-88982310D01*
X144092268Y-89034258D01*
X144103489Y-89103221D01*
X144075646Y-89167303D01*
X144068128Y-89175530D01*
X143960585Y-89283073D01*
X143858768Y-89423211D01*
X143780128Y-89577552D01*
X143726597Y-89742302D01*
X143699500Y-89913389D01*
X143699500Y-90086611D01*
X143726598Y-90257701D01*
X143780127Y-90422445D01*
X143858768Y-90576788D01*
X143960586Y-90716928D01*
X143960588Y-90716930D01*
X144063181Y-90819523D01*
X144096666Y-90880846D01*
X144099500Y-90907204D01*
X144099500Y-92758480D01*
X144079815Y-92825519D01*
X144063181Y-92846161D01*
X141955888Y-94953453D01*
X141955887Y-94953454D01*
X141879222Y-95068192D01*
X141826421Y-95195667D01*
X141826418Y-95195679D01*
X141806797Y-95294318D01*
X141806786Y-95294376D01*
X141806529Y-95295672D01*
X141799500Y-95331007D01*
X141799500Y-100031006D01*
X141799500Y-100168994D01*
X141799500Y-100168996D01*
X141799499Y-100168996D01*
X114396670Y-100168996D01*
X114527816Y-100126384D01*
X114703196Y-100037024D01*
X114862437Y-99921328D01*
X115001619Y-99782146D01*
X115117315Y-99622905D01*
X115206675Y-99447525D01*
X115267500Y-99260326D01*
X115298291Y-99065922D01*
X115298291Y-97369077D01*
X115267500Y-97174673D01*
X115215177Y-97013641D01*
X115206675Y-96987475D01*
X115206673Y-96987472D01*
X115206673Y-96987470D01*
X115117314Y-96812094D01*
X115109494Y-96801331D01*
X115001619Y-96652854D01*
X114862437Y-96513672D01*
X114852610Y-96506532D01*
X114849271Y-96502201D01*
X114844297Y-96499930D01*
X114828165Y-96474828D01*
X114809947Y-96451200D01*
X114808694Y-96444531D01*
X114806523Y-96441152D01*
X114801500Y-96406217D01*
X114801500Y-96174038D01*
X127199500Y-96174038D01*
X127199500Y-96425962D01*
X127211575Y-96502201D01*
X127238910Y-96674785D01*
X127316760Y-96914383D01*
X127431132Y-97138848D01*
X127579201Y-97342649D01*
X127579205Y-97342654D01*
X127757345Y-97520794D01*
X127757350Y-97520798D01*
X127935117Y-97649952D01*
X127961155Y-97668870D01*
X128104184Y-97741747D01*
X128185616Y-97783239D01*
X128185618Y-97783239D01*
X128185621Y-97783241D01*
X128425215Y-97861090D01*
X128674038Y-97900500D01*
X128674039Y-97900500D01*
X128925961Y-97900500D01*
X128925962Y-97900500D01*
X129174785Y-97861090D01*
X129414379Y-97783241D01*
X129638845Y-97668870D01*
X129842656Y-97520793D01*
X130020793Y-97342656D01*
X130168870Y-97138845D01*
X130283241Y-96914379D01*
X130361090Y-96674785D01*
X130400500Y-96425962D01*
X130400500Y-96174038D01*
X130361090Y-95925215D01*
X130283241Y-95685621D01*
X130283239Y-95685618D01*
X130283239Y-95685616D01*
X130213059Y-95547881D01*
X130168870Y-95461155D01*
X130146966Y-95431006D01*
X130122841Y-95397800D01*
X130020798Y-95257350D01*
X130020794Y-95257345D01*
X129842654Y-95079205D01*
X129842649Y-95079201D01*
X129638848Y-94931132D01*
X129638847Y-94931131D01*
X129638845Y-94931130D01*
X129568747Y-94895413D01*
X129414383Y-94816760D01*
X129174785Y-94738910D01*
X128925962Y-94699500D01*
X128674038Y-94699500D01*
X128549626Y-94719205D01*
X128425214Y-94738910D01*
X128185616Y-94816760D01*
X127961151Y-94931132D01*
X127757350Y-95079201D01*
X127757345Y-95079205D01*
X127579205Y-95257345D01*
X127579201Y-95257350D01*
X127431132Y-95461151D01*
X127316760Y-95685616D01*
X127238910Y-95925214D01*
X127207812Y-96121561D01*
X127199500Y-96174038D01*
X114801500Y-96174038D01*
X114801500Y-89213348D01*
X114803883Y-89189156D01*
X114805943Y-89178798D01*
X114812502Y-89145826D01*
X114812502Y-88997991D01*
X114783661Y-88852996D01*
X114783659Y-88852991D01*
X114727240Y-88716782D01*
X114727238Y-88716780D01*
X114727087Y-88716414D01*
X114720924Y-88707191D01*
X114716084Y-88695505D01*
X114633951Y-88572584D01*
X114608451Y-88547084D01*
X114503916Y-88442548D01*
X114484213Y-88429383D01*
X114465423Y-88413962D01*
X114136819Y-88085357D01*
X114103334Y-88024034D01*
X114100500Y-87997676D01*
X114100500Y-87913389D01*
X114073402Y-87742302D01*
X114073402Y-87742299D01*
X114019873Y-87577555D01*
X113941232Y-87423212D01*
X113839414Y-87283072D01*
X113716928Y-87160586D01*
X113576788Y-87058768D01*
X113422445Y-86980127D01*
X113257701Y-86926598D01*
X113257699Y-86926597D01*
X113257698Y-86926597D01*
X113126271Y-86905781D01*
X113086611Y-86899500D01*
X112913389Y-86899500D01*
X112873728Y-86905781D01*
X112742302Y-86926597D01*
X112577552Y-86980128D01*
X112423211Y-87058768D01*
X112343256Y-87116859D01*
X112283072Y-87160586D01*
X112283070Y-87160588D01*
X112283069Y-87160588D01*
X112160588Y-87283069D01*
X112160581Y-87283078D01*
X112100317Y-87366023D01*
X112044987Y-87408689D01*
X111975374Y-87414667D01*
X111913579Y-87382061D01*
X111899683Y-87366023D01*
X111839418Y-87283078D01*
X111839414Y-87283072D01*
X111716928Y-87160586D01*
X111576788Y-87058768D01*
X111422445Y-86980127D01*
X111257701Y-86926598D01*
X111257699Y-86926597D01*
X111257698Y-86926597D01*
X111126271Y-86905781D01*
X111086611Y-86899500D01*
X110913389Y-86899500D01*
X110873728Y-86905781D01*
X110742302Y-86926597D01*
X110577552Y-86980128D01*
X110423211Y-87058768D01*
X110343256Y-87116859D01*
X110283072Y-87160586D01*
X110283070Y-87160588D01*
X110283069Y-87160588D01*
X110160588Y-87283069D01*
X110160581Y-87283078D01*
X110100317Y-87366023D01*
X110044987Y-87408689D01*
X109975374Y-87414667D01*
X109913579Y-87382061D01*
X109899683Y-87366023D01*
X109839418Y-87283078D01*
X109839414Y-87283072D01*
X109716928Y-87160586D01*
X109576788Y-87058768D01*
X109422445Y-86980127D01*
X109257701Y-86926598D01*
X109257699Y-86926597D01*
X109257698Y-86926597D01*
X109126271Y-86905781D01*
X109086611Y-86899500D01*
X108913389Y-86899500D01*
X108873728Y-86905781D01*
X108742302Y-86926597D01*
X108577552Y-86980128D01*
X108423211Y-87058768D01*
X108343256Y-87116859D01*
X108283072Y-87160586D01*
X108283070Y-87160588D01*
X108283069Y-87160588D01*
X108160588Y-87283069D01*
X108160581Y-87283078D01*
X108100317Y-87366023D01*
X108044987Y-87408689D01*
X107975374Y-87414667D01*
X107913579Y-87382061D01*
X107899683Y-87366023D01*
X107839418Y-87283078D01*
X107839414Y-87283072D01*
X107716928Y-87160586D01*
X107576788Y-87058768D01*
X107422445Y-86980127D01*
X107257701Y-86926598D01*
X107257699Y-86926597D01*
X107257698Y-86926597D01*
X107126271Y-86905781D01*
X107086611Y-86899500D01*
X106913389Y-86899500D01*
X106873728Y-86905781D01*
X106742302Y-86926597D01*
X106577552Y-86980128D01*
X106423211Y-87058768D01*
X106283073Y-87160585D01*
X106175530Y-87268128D01*
X106114207Y-87301612D01*
X106044515Y-87296628D01*
X105988582Y-87254756D01*
X105982310Y-87245543D01*
X105942712Y-87181344D01*
X105818656Y-87057288D01*
X105693559Y-86980128D01*
X105669336Y-86965187D01*
X105669331Y-86965185D01*
X105667862Y-86964698D01*
X105502797Y-86910001D01*
X105502795Y-86910000D01*
X105400010Y-86899500D01*
X104599998Y-86899500D01*
X104599980Y-86899501D01*
X104497203Y-86910000D01*
X104497200Y-86910001D01*
X104330668Y-86965185D01*
X104330663Y-86965187D01*
X104181342Y-87057289D01*
X104057289Y-87181342D01*
X103965187Y-87330663D01*
X103965186Y-87330666D01*
X103910001Y-87497203D01*
X103910001Y-87497204D01*
X103910000Y-87497204D01*
X103899500Y-87599983D01*
X103899500Y-88400001D01*
X103899501Y-88400019D01*
X103910000Y-88502796D01*
X103910001Y-88502799D01*
X103924676Y-88547084D01*
X103965186Y-88669334D01*
X104057288Y-88818656D01*
X104181344Y-88942712D01*
X104245543Y-88982310D01*
X104292268Y-89034258D01*
X104303489Y-89103221D01*
X104275646Y-89167303D01*
X104268128Y-89175530D01*
X104160585Y-89283073D01*
X104058768Y-89423211D01*
X103980128Y-89577552D01*
X103926597Y-89742302D01*
X103899500Y-89913389D01*
X103899500Y-90086610D01*
X103926597Y-90257697D01*
X103980128Y-90422447D01*
X104058768Y-90576788D01*
X104153810Y-90707601D01*
X104177290Y-90773408D01*
X104161465Y-90841461D01*
X104141173Y-90868168D01*
X102352678Y-92656663D01*
X102276013Y-92771401D01*
X102223212Y-92898876D01*
X102223209Y-92898888D01*
X102197605Y-93027604D01*
X102197600Y-93027633D01*
X102196930Y-93031006D01*
X102196291Y-93034216D01*
X102196291Y-102093087D01*
X102196291Y-102231075D01*
X102196291Y-102231077D01*
X102196290Y-102231077D01*
X98950500Y-102231077D01*
X98950500Y-84012045D01*
X98970185Y-83945006D01*
X99022989Y-83899251D01*
X99074500Y-83888045D01*
X157825500Y-83888045D01*
X157892539Y-83907730D01*
G37*
%TD.AperFunction*%
%TA.AperFunction,NonConductor*%
G36*
X148643777Y-91089474D02*
G01*
X148713389Y-91100500D01*
X148713391Y-91100500D01*
X148886609Y-91100500D01*
X148886611Y-91100500D01*
X148956103Y-91089493D01*
X149025395Y-91098447D01*
X149078847Y-91143443D01*
X149099487Y-91210194D01*
X149099500Y-91211966D01*
X149099500Y-94858481D01*
X149079815Y-94925520D01*
X149063181Y-94946162D01*
X148712181Y-95297162D01*
X148650858Y-95330647D01*
X148581166Y-95325663D01*
X148525233Y-95283791D01*
X148500816Y-95218327D01*
X148500500Y-95209481D01*
X148500500Y-91211966D01*
X148520185Y-91144927D01*
X148572989Y-91099172D01*
X148642147Y-91089228D01*
X148643777Y-91089474D01*
G37*
%TD.AperFunction*%
%TA.AperFunction,NonConductor*%
G36*
X150643777Y-91089474D02*
G01*
X150713389Y-91100500D01*
X150713391Y-91100500D01*
X150886609Y-91100500D01*
X150886611Y-91100500D01*
X150956103Y-91089493D01*
X151025395Y-91098447D01*
X151078847Y-91143443D01*
X151099487Y-91210194D01*
X151099500Y-91211966D01*
X151099500Y-94858480D01*
X151079815Y-94925519D01*
X151063181Y-94946161D01*
X151003679Y-95005662D01*
X151003678Y-95005663D01*
X150927014Y-95120401D01*
X150874212Y-95247877D01*
X150874209Y-95247889D01*
X150862717Y-95305662D01*
X150862716Y-95305669D01*
X150847291Y-95383213D01*
X150847291Y-96367558D01*
X150827606Y-96434597D01*
X150796178Y-96467875D01*
X150733145Y-96513671D01*
X150593965Y-96652851D01*
X150593965Y-96652852D01*
X150593963Y-96652854D01*
X150583052Y-96667872D01*
X150478267Y-96812094D01*
X150408276Y-96949460D01*
X150360301Y-97000256D01*
X150292480Y-97017051D01*
X150226345Y-96994514D01*
X150187306Y-96949460D01*
X150117314Y-96812094D01*
X150109494Y-96801331D01*
X150001619Y-96652854D01*
X149862437Y-96513672D01*
X149799404Y-96467875D01*
X149796063Y-96463543D01*
X149791088Y-96461271D01*
X149774958Y-96436173D01*
X149756739Y-96412545D01*
X149755486Y-96405872D01*
X149753314Y-96402493D01*
X149748291Y-96367558D01*
X149748291Y-96293728D01*
X149767976Y-96226689D01*
X149784610Y-96206047D01*
X150344112Y-95646545D01*
X150344114Y-95646543D01*
X150420775Y-95531811D01*
X150473580Y-95404329D01*
X150479541Y-95374357D01*
X150485557Y-95344117D01*
X150485557Y-95344114D01*
X150500500Y-95268993D01*
X150500500Y-91211966D01*
X150520185Y-91144927D01*
X150572989Y-91099172D01*
X150642147Y-91089228D01*
X150643777Y-91089474D01*
G37*
%TD.AperFunction*%
%TA.AperFunction,NonConductor*%
G36*
X148266625Y-96126545D02*
G01*
X148322558Y-96168417D01*
X148346975Y-96233881D01*
X148347291Y-96242727D01*
X148347291Y-96367558D01*
X148327606Y-96434597D01*
X148296178Y-96467875D01*
X148233145Y-96513671D01*
X148093965Y-96652851D01*
X148093965Y-96652852D01*
X148093963Y-96652854D01*
X148083052Y-96667872D01*
X147978267Y-96812094D01*
X147908276Y-96949460D01*
X147899790Y-96958444D01*
X147895186Y-96969913D01*
X147876250Y-96983368D01*
X147860301Y-97000256D01*
X147848304Y-97003226D01*
X147838231Y-97010385D01*
X147815027Y-97011467D01*
X147792480Y-97017051D01*
X147780783Y-97013065D01*
X147768437Y-97013641D01*
X147748331Y-97002006D01*
X147726345Y-96994514D01*
X147717184Y-96983982D01*
X147707963Y-96978646D01*
X147687956Y-96950378D01*
X147687519Y-96949876D01*
X147687354Y-96949555D01*
X147617315Y-96812095D01*
X147615075Y-96809012D01*
X147611125Y-96801331D01*
X147605385Y-96771391D01*
X147597425Y-96741965D01*
X147598870Y-96737406D01*
X147597970Y-96732711D01*
X147609328Y-96704421D01*
X147618541Y-96675362D01*
X147623328Y-96669550D01*
X147624002Y-96667872D01*
X147625710Y-96666657D01*
X147633710Y-96656945D01*
X148135611Y-96155045D01*
X148196933Y-96121561D01*
X148266625Y-96126545D01*
G37*
%TD.AperFunction*%
%TA.AperFunction,NonConductor*%
G36*
X150369236Y-99440485D02*
G01*
X150408275Y-99485538D01*
X150478267Y-99622905D01*
X150593963Y-99782146D01*
X150733145Y-99921328D01*
X150892386Y-100037024D01*
X150964346Y-100073689D01*
X151067761Y-100126382D01*
X151067763Y-100126382D01*
X151067766Y-100126384D01*
X151149601Y-100152974D01*
X151254964Y-100187209D01*
X151449369Y-100218000D01*
X151449374Y-100218000D01*
X151646213Y-100218000D01*
X151840617Y-100187209D01*
X151882658Y-100173549D01*
X151937181Y-100155832D01*
X152007022Y-100153838D01*
X152066855Y-100189918D01*
X152097684Y-100252618D01*
X152098572Y-100262966D01*
X152098903Y-100262934D01*
X152099499Y-100268996D01*
X152126418Y-100404322D01*
X152126421Y-100404332D01*
X152179222Y-100531807D01*
X152255887Y-100646545D01*
X152255888Y-100646546D01*
X153090408Y-101481065D01*
X153123893Y-101542388D01*
X153118909Y-101612079D01*
X153097021Y-101649273D01*
X153093968Y-101652847D01*
X152978267Y-101812094D01*
X152908276Y-101949460D01*
X152860301Y-102000256D01*
X152792480Y-102017051D01*
X152726345Y-101994514D01*
X152687306Y-101949460D01*
X152624918Y-101827017D01*
X152617315Y-101812095D01*
X152501619Y-101652854D01*
X152362437Y-101513672D01*
X152203196Y-101397976D01*
X152165557Y-101378798D01*
X152027820Y-101308617D01*
X151840617Y-101247790D01*
X151646213Y-101217000D01*
X151646208Y-101217000D01*
X151449374Y-101217000D01*
X151449369Y-101217000D01*
X151254964Y-101247790D01*
X151067761Y-101308617D01*
X150892385Y-101397976D01*
X150828657Y-101444278D01*
X150733145Y-101513672D01*
X150733143Y-101513674D01*
X150733142Y-101513674D01*
X150593965Y-101652851D01*
X150593965Y-101652852D01*
X150593963Y-101652854D01*
X150580596Y-101671252D01*
X150478267Y-101812094D01*
X150445209Y-101876975D01*
X150397234Y-101927771D01*
X150329413Y-101944566D01*
X150263278Y-101922029D01*
X150224239Y-101876974D01*
X150198785Y-101827017D01*
X150181404Y-101803095D01*
X150083088Y-101667775D01*
X149943906Y-101528593D01*
X149784665Y-101412897D01*
X149754535Y-101397545D01*
X149609289Y-101323538D01*
X149422086Y-101262711D01*
X149227682Y-101231921D01*
X149227677Y-101231921D01*
X149030843Y-101231921D01*
X149030838Y-101231921D01*
X148836433Y-101262711D01*
X148649230Y-101323538D01*
X148473854Y-101412897D01*
X148398731Y-101467478D01*
X148314614Y-101528593D01*
X148314612Y-101528595D01*
X148314611Y-101528595D01*
X148175434Y-101667772D01*
X148175434Y-101667773D01*
X148175432Y-101667775D01*
X148172906Y-101671252D01*
X148059736Y-101827015D01*
X147970376Y-102002394D01*
X147958879Y-102037778D01*
X147919440Y-102095452D01*
X147855081Y-102122649D01*
X147786235Y-102110733D01*
X147734760Y-102063488D01*
X147723019Y-102037779D01*
X147706675Y-101987475D01*
X147617315Y-101812095D01*
X147501619Y-101652854D01*
X147362437Y-101513672D01*
X147230534Y-101417838D01*
X147188859Y-101364972D01*
X147168569Y-101315987D01*
X147168568Y-101315986D01*
X147168566Y-101315980D01*
X147091905Y-101201248D01*
X147091903Y-101201245D01*
X147091902Y-101201244D01*
X146314392Y-100423735D01*
X146280907Y-100362412D01*
X146285891Y-100292721D01*
X146327763Y-100236787D01*
X146393227Y-100212370D01*
X146421473Y-100213581D01*
X146449371Y-100218000D01*
X146449374Y-100218000D01*
X146646213Y-100218000D01*
X146840617Y-100187209D01*
X146850773Y-100183909D01*
X147027816Y-100126384D01*
X147203196Y-100037024D01*
X147362437Y-99921328D01*
X147501619Y-99782146D01*
X147617315Y-99622905D01*
X147687306Y-99485538D01*
X147735280Y-99434743D01*
X147803101Y-99417948D01*
X147869236Y-99440485D01*
X147908275Y-99485538D01*
X147978267Y-99622905D01*
X148093963Y-99782146D01*
X148233145Y-99921328D01*
X148392386Y-100037024D01*
X148464346Y-100073689D01*
X148567761Y-100126382D01*
X148567763Y-100126382D01*
X148567766Y-100126384D01*
X148649601Y-100152974D01*
X148754964Y-100187209D01*
X148949369Y-100218000D01*
X148949374Y-100218000D01*
X149146213Y-100218000D01*
X149340617Y-100187209D01*
X149350773Y-100183909D01*
X149527816Y-100126384D01*
X149703196Y-100037024D01*
X149862437Y-99921328D01*
X150001619Y-99782146D01*
X150117315Y-99622905D01*
X150187306Y-99485538D01*
X150235280Y-99434743D01*
X150303101Y-99417948D01*
X150369236Y-99440485D01*
G37*
%TD.AperFunction*%
%TA.AperFunction,NonConductor*%
G36*
X144483797Y-100159229D02*
G01*
X144491061Y-100159022D01*
X144515152Y-100173549D01*
X144540743Y-100185236D01*
X144544671Y-100191349D01*
X144550895Y-100195102D01*
X144563309Y-100220350D01*
X144578517Y-100244014D01*
X144579993Y-100254282D01*
X144581724Y-100257802D01*
X144583540Y-100278949D01*
X144583540Y-100315046D01*
X144583540Y-100453034D01*
X144583540Y-100453036D01*
X144583539Y-100453036D01*
X144610458Y-100588362D01*
X144610461Y-100588372D01*
X144663262Y-100715847D01*
X144739927Y-100830585D01*
X144739928Y-100830586D01*
X145505708Y-101596365D01*
X145539193Y-101657688D01*
X145534209Y-101727379D01*
X145518345Y-101756931D01*
X145478269Y-101812090D01*
X145388906Y-101987474D01*
X145367930Y-102052032D01*
X145328492Y-102109707D01*
X145264133Y-102136904D01*
X145195287Y-102124989D01*
X145143812Y-102077744D01*
X145132069Y-102052030D01*
X145111094Y-101987475D01*
X145021734Y-101812095D01*
X144906038Y-101652854D01*
X144766856Y-101513672D01*
X144679769Y-101450399D01*
X144637105Y-101395069D01*
X144631040Y-101374279D01*
X144625790Y-101347882D01*
X144616483Y-101325412D01*
X144572987Y-101220402D01*
X144496322Y-101105664D01*
X144496321Y-101105663D01*
X143814392Y-100423735D01*
X143780907Y-100362412D01*
X143785891Y-100292721D01*
X143827762Y-100236787D01*
X143893227Y-100212370D01*
X143921473Y-100213581D01*
X143949371Y-100218000D01*
X143949374Y-100218000D01*
X144146213Y-100218000D01*
X144240457Y-100203072D01*
X144340617Y-100187209D01*
X144340622Y-100187207D01*
X144340624Y-100187207D01*
X144382658Y-100173549D01*
X144421221Y-100161018D01*
X144449340Y-100160214D01*
X144477187Y-100156211D01*
X144483797Y-100159229D01*
G37*
%TD.AperFunction*%
%TA.AperFunction,NonConductor*%
G36*
X106218834Y-92774337D02*
G01*
X106274767Y-92816209D01*
X106299184Y-92881673D01*
X106299500Y-92890519D01*
X106299500Y-94458481D01*
X106279815Y-94525520D01*
X106263181Y-94546162D01*
X105012181Y-95797162D01*
X104950858Y-95830647D01*
X104881166Y-95825663D01*
X104825233Y-95783791D01*
X104800816Y-95718327D01*
X104800500Y-95709481D01*
X104800500Y-94141519D01*
X104820185Y-94074480D01*
X104836819Y-94053838D01*
X106087819Y-92802838D01*
X106149142Y-92769353D01*
X106218834Y-92774337D01*
G37*
%TD.AperFunction*%
%TA.AperFunction,NonConductor*%
G36*
X106162808Y-100157265D02*
G01*
X106254965Y-100187209D01*
X106278642Y-100190959D01*
X106449369Y-100218000D01*
X106449374Y-100218000D01*
X106646213Y-100218000D01*
X106740457Y-100203072D01*
X106840617Y-100187209D01*
X106840622Y-100187207D01*
X106840624Y-100187207D01*
X106882658Y-100173549D01*
X106923966Y-100160126D01*
X106993806Y-100158130D01*
X107053640Y-100194210D01*
X107084469Y-100256910D01*
X107086285Y-100278057D01*
X107086285Y-101156942D01*
X107066600Y-101223981D01*
X107013796Y-101269736D01*
X106944638Y-101279680D01*
X106923966Y-101274873D01*
X106840617Y-101247790D01*
X106646213Y-101217000D01*
X106646208Y-101217000D01*
X106449374Y-101217000D01*
X106449369Y-101217000D01*
X106254963Y-101247791D01*
X106254956Y-101247792D01*
X106162817Y-101277730D01*
X106092976Y-101279725D01*
X106033144Y-101243644D01*
X106002316Y-101180943D01*
X106000500Y-101159799D01*
X106000500Y-100275199D01*
X106020185Y-100208160D01*
X106072989Y-100162405D01*
X106142147Y-100152461D01*
X106162808Y-100157265D01*
G37*
%TD.AperFunction*%
%TA.AperFunction,NonConductor*%
G36*
X112063646Y-100190959D02*
G01*
X112094475Y-100253660D01*
X112096291Y-100274806D01*
X112096291Y-101160192D01*
X112076606Y-101227231D01*
X112023802Y-101272986D01*
X111954644Y-101282930D01*
X111933973Y-101278123D01*
X111840620Y-101247791D01*
X111646213Y-101217000D01*
X111646208Y-101217000D01*
X111449374Y-101217000D01*
X111449369Y-101217000D01*
X111254961Y-101247791D01*
X111250225Y-101248928D01*
X111180443Y-101245430D01*
X111123630Y-101204760D01*
X111097824Y-101139830D01*
X111097291Y-101128351D01*
X111097291Y-100306647D01*
X111116976Y-100239608D01*
X111169780Y-100193853D01*
X111238938Y-100183909D01*
X111250249Y-100186076D01*
X111254959Y-100187207D01*
X111254965Y-100187209D01*
X111254970Y-100187209D01*
X111254971Y-100187210D01*
X111449369Y-100218000D01*
X111449374Y-100218000D01*
X111646213Y-100218000D01*
X111740457Y-100203072D01*
X111840617Y-100187209D01*
X111840622Y-100187207D01*
X111840624Y-100187207D01*
X111887830Y-100171868D01*
X111933971Y-100156875D01*
X112003812Y-100154879D01*
X112063646Y-100190959D01*
G37*
%TD.AperFunction*%
%TA.AperFunction,NonConductor*%
G36*
X104566855Y-100189918D02*
G01*
X104597684Y-100252618D01*
X104599500Y-100273764D01*
X104599500Y-101192320D01*
X104579815Y-101259359D01*
X104527011Y-101305114D01*
X104457853Y-101315058D01*
X104437107Y-101309386D01*
X104436868Y-101310122D01*
X104432238Y-101308617D01*
X104432235Y-101308616D01*
X104353182Y-101282930D01*
X104245036Y-101247790D01*
X104050632Y-101217000D01*
X104050627Y-101217000D01*
X103853793Y-101217000D01*
X103853788Y-101217000D01*
X103740689Y-101234913D01*
X103671395Y-101225958D01*
X103617943Y-101180962D01*
X103597304Y-101114211D01*
X103597291Y-101112440D01*
X103597291Y-100306647D01*
X103616976Y-100239608D01*
X103669780Y-100193853D01*
X103738938Y-100183909D01*
X103750249Y-100186076D01*
X103754959Y-100187207D01*
X103754965Y-100187209D01*
X103754970Y-100187209D01*
X103754971Y-100187210D01*
X103949369Y-100218000D01*
X103949374Y-100218000D01*
X104146213Y-100218000D01*
X104340617Y-100187209D01*
X104382658Y-100173549D01*
X104437181Y-100155832D01*
X104507022Y-100153838D01*
X104566855Y-100189918D01*
G37*
%TD.AperFunction*%
%TA.AperFunction,NonConductor*%
G36*
X108649591Y-100152970D02*
G01*
X108754965Y-100187209D01*
X108778642Y-100190959D01*
X108949369Y-100218000D01*
X108949374Y-100218000D01*
X109146213Y-100218000D01*
X109240457Y-100203072D01*
X109340617Y-100187209D01*
X109340622Y-100187207D01*
X109340624Y-100187207D01*
X109387830Y-100171868D01*
X109433971Y-100156875D01*
X109503812Y-100154879D01*
X109563646Y-100190959D01*
X109594475Y-100253660D01*
X109596291Y-100274806D01*
X109596291Y-101148642D01*
X109576606Y-101215681D01*
X109523802Y-101261436D01*
X109454644Y-101271380D01*
X109433979Y-101266575D01*
X109422088Y-101262712D01*
X109227682Y-101231921D01*
X109227677Y-101231921D01*
X109030843Y-101231921D01*
X109030838Y-101231921D01*
X108836432Y-101262712D01*
X108836429Y-101262712D01*
X108649603Y-101323417D01*
X108579762Y-101325412D01*
X108519929Y-101289332D01*
X108489101Y-101226631D01*
X108487285Y-101205486D01*
X108487285Y-100270905D01*
X108506970Y-100203866D01*
X108559774Y-100158111D01*
X108628932Y-100148167D01*
X108649591Y-100152970D01*
G37*
%TD.AperFunction*%
M02*
