%TF.GenerationSoftware,KiCad,Pcbnew,8.0.4*%
%TF.CreationDate,2024-07-20T11:29:03+02:00*%
%TF.ProjectId,Generatpr XR-2206,47656e65-7261-4747-9072-2058522d3232,rev?*%
%TF.SameCoordinates,Original*%
%TF.FileFunction,Copper,L1,Top*%
%TF.FilePolarity,Positive*%
%FSLAX46Y46*%
G04 Gerber Fmt 4.6, Leading zero omitted, Abs format (unit mm)*
G04 Created by KiCad (PCBNEW 8.0.4) date 2024-07-20 11:29:03*
%MOMM*%
%LPD*%
G01*
G04 APERTURE LIST*
G04 Aperture macros list*
%AMRoundRect*
0 Rectangle with rounded corners*
0 $1 Rounding radius*
0 $2 $3 $4 $5 $6 $7 $8 $9 X,Y pos of 4 corners*
0 Add a 4 corners polygon primitive as box body*
4,1,4,$2,$3,$4,$5,$6,$7,$8,$9,$2,$3,0*
0 Add four circle primitives for the rounded corners*
1,1,$1+$1,$2,$3*
1,1,$1+$1,$4,$5*
1,1,$1+$1,$6,$7*
1,1,$1+$1,$8,$9*
0 Add four rect primitives between the rounded corners*
20,1,$1+$1,$2,$3,$4,$5,0*
20,1,$1+$1,$4,$5,$6,$7,0*
20,1,$1+$1,$6,$7,$8,$9,0*
20,1,$1+$1,$8,$9,$2,$3,0*%
G04 Aperture macros list end*
%TA.AperFunction,ComponentPad*%
%ADD10R,1.800000X1.800000*%
%TD*%
%TA.AperFunction,ComponentPad*%
%ADD11C,1.800000*%
%TD*%
%TA.AperFunction,ComponentPad*%
%ADD12RoundRect,0.750000X-0.750000X1.250000X-0.750000X-1.250000X0.750000X-1.250000X0.750000X1.250000X0*%
%TD*%
%TA.AperFunction,ComponentPad*%
%ADD13R,3.500000X3.500000*%
%TD*%
%TA.AperFunction,ComponentPad*%
%ADD14C,4.000000*%
%TD*%
%TA.AperFunction,ComponentPad*%
%ADD15C,1.440000*%
%TD*%
%TA.AperFunction,ComponentPad*%
%ADD16C,1.600000*%
%TD*%
%TA.AperFunction,ComponentPad*%
%ADD17O,1.600000X1.600000*%
%TD*%
%TA.AperFunction,ComponentPad*%
%ADD18R,1.600000X1.600000*%
%TD*%
%TA.AperFunction,ComponentPad*%
%ADD19R,1.700000X1.700000*%
%TD*%
%TA.AperFunction,ComponentPad*%
%ADD20O,1.700000X1.700000*%
%TD*%
%TA.AperFunction,ComponentPad*%
%ADD21R,2.000000X4.600000*%
%TD*%
%TA.AperFunction,ComponentPad*%
%ADD22O,2.000000X4.200000*%
%TD*%
%TA.AperFunction,ComponentPad*%
%ADD23O,4.200000X2.000000*%
%TD*%
%TA.AperFunction,ComponentPad*%
%ADD24C,5.000000*%
%TD*%
%TA.AperFunction,ViaPad*%
%ADD25C,1.000000*%
%TD*%
%TA.AperFunction,Conductor*%
%ADD26C,0.500000*%
%TD*%
G04 APERTURE END LIST*
D10*
%TO.P,RV5,1,1*%
%TO.N,Net-(RV2-Pad3)*%
X183680000Y-90000000D03*
D11*
%TO.P,RV5,2,2*%
X181180000Y-90000000D03*
%TO.P,RV5,3,3*%
%TO.N,GND*%
X178680000Y-90000000D03*
D12*
%TO.P,RV5,MP,MP*%
X185580000Y-97000000D03*
X176780000Y-97000000D03*
%TD*%
D10*
%TO.P,RV2,1,1*%
%TO.N,Net-(R4-Pad2)*%
X166500000Y-90000000D03*
D11*
%TO.P,RV2,2,2*%
X164000000Y-90000000D03*
%TO.P,RV2,3,3*%
%TO.N,Net-(RV2-Pad3)*%
X161500000Y-90000000D03*
D12*
%TO.P,RV2,MP,MP*%
%TO.N,GND*%
X168400000Y-97000000D03*
X159600000Y-97000000D03*
%TD*%
D10*
%TO.P,RV1,1,1*%
%TO.N,Net-(C12-Pad2)*%
X147040000Y-90000000D03*
D11*
%TO.P,RV1,2,2*%
%TO.N,Net-(U1-MO)*%
X144540000Y-90000000D03*
%TO.P,RV1,3,3*%
X142040000Y-90000000D03*
D12*
%TO.P,RV1,MP,MP*%
%TO.N,GND*%
X148940000Y-97000000D03*
X140140000Y-97000000D03*
%TD*%
D13*
%TO.P,J2,1,In*%
%TO.N,Net-(J2-In)*%
X195735000Y-67040000D03*
D14*
%TO.P,J2,2,Ext*%
%TO.N,GND*%
X200760000Y-72065000D03*
X190710000Y-72065000D03*
X200760000Y-62015000D03*
X190710000Y-62015000D03*
%TD*%
D13*
%TO.P,J1,1,In*%
%TO.N,Net-(J1-In)*%
X195570000Y-82970000D03*
D14*
%TO.P,J1,2,Ext*%
%TO.N,GND*%
X200595000Y-87995000D03*
X190545000Y-87995000D03*
X200595000Y-77945000D03*
X190545000Y-77945000D03*
%TD*%
D15*
%TO.P,RV3,1,1*%
%TO.N,Net-(J6-Pin_2)*%
X175770000Y-62040000D03*
%TO.P,RV3,2,2*%
X173230000Y-62040000D03*
%TO.P,RV3,3,3*%
%TO.N,Net-(U1-WAVEA2)*%
X170690000Y-62040000D03*
%TD*%
D16*
%TO.P,R5,1*%
%TO.N,Net-(U1-SYMA1)*%
X166920000Y-57700000D03*
D17*
%TO.P,R5,2*%
%TO.N,Net-(R5-Pad2)*%
X177080000Y-57700000D03*
%TD*%
D18*
%TO.P,C3,1*%
%TO.N,Net-(C12-Pad2)*%
X151600000Y-85200000D03*
D16*
%TO.P,C3,2*%
%TO.N,GND*%
X151600000Y-80200000D03*
%TD*%
%TO.P,C9,1*%
%TO.N,Net-(J4-Pin_2)*%
X140150000Y-68800000D03*
D17*
%TO.P,C9,2*%
%TO.N,Net-(U1-TC2)*%
X147650000Y-68800000D03*
%TD*%
D19*
%TO.P,J4,1,Pin_1*%
%TO.N,Net-(J4-Pin_1)*%
X136600000Y-67220000D03*
D20*
%TO.P,J4,2,Pin_2*%
%TO.N,Net-(J4-Pin_2)*%
X136600000Y-69760000D03*
%TO.P,J4,3,Pin_3*%
%TO.N,Net-(J4-Pin_3)*%
X136600000Y-72300000D03*
%TO.P,J4,4,Pin_4*%
%TO.N,Net-(J4-Pin_4)*%
X136600000Y-74840000D03*
%TO.P,J4,5,Pin_5*%
%TO.N,Net-(J4-Pin_5)*%
X136600000Y-77380000D03*
%TD*%
D18*
%TO.P,C14,1*%
%TO.N,Net-(J4-Pin_5)*%
X142317621Y-81400000D03*
D16*
%TO.P,C14,2*%
%TO.N,Net-(U1-TC2)*%
X144817621Y-81400000D03*
%TD*%
D18*
%TO.P,C15,1*%
%TO.N,+12V*%
X149840000Y-52722380D03*
D16*
%TO.P,C15,2*%
%TO.N,GND*%
X149840000Y-50222380D03*
%TD*%
D18*
%TO.P,C4,1*%
%TO.N,Net-(U1-STO)*%
X172817621Y-82000000D03*
D16*
%TO.P,C4,2*%
%TO.N,Net-(C4-Pad2)*%
X175317621Y-82000000D03*
%TD*%
%TO.P,R4,1*%
%TO.N,Net-(U1-TR1)*%
X166800000Y-76220000D03*
D17*
%TO.P,R4,2*%
%TO.N,Net-(R4-Pad2)*%
X166800000Y-86380000D03*
%TD*%
D21*
%TO.P,J3,1*%
%TO.N,+12V*%
X138600000Y-54180000D03*
D22*
%TO.P,J3,2*%
%TO.N,GND*%
X132300000Y-54180000D03*
D23*
%TO.P,J3,3*%
X135700000Y-58980000D03*
%TD*%
D18*
%TO.P,C2,1*%
%TO.N,+12V*%
X149860000Y-61180000D03*
D16*
%TO.P,C2,2*%
%TO.N,GND*%
X149860000Y-56180000D03*
%TD*%
D24*
%TO.P,REF\u002A\u002A,1*%
%TO.N,GND*%
X196000000Y-100000000D03*
%TD*%
D16*
%TO.P,C10,1*%
%TO.N,Net-(J4-Pin_3)*%
X140250000Y-72500000D03*
D17*
%TO.P,C10,2*%
%TO.N,Net-(U1-TC2)*%
X147750000Y-72500000D03*
%TD*%
D19*
%TO.P,J5,1,Pin_1*%
%TO.N,Net-(J5-Pin_1)*%
X133900000Y-67220000D03*
D20*
%TO.P,J5,2,Pin_2*%
X133900000Y-69760000D03*
%TO.P,J5,3,Pin_3*%
X133900000Y-72300000D03*
%TO.P,J5,4,Pin_4*%
X133900000Y-74840000D03*
%TO.P,J5,5,Pin_5*%
X133900000Y-77380000D03*
%TD*%
D18*
%TO.P,C5,1*%
%TO.N,Net-(U1-SYNCO)*%
X176817621Y-70400000D03*
D16*
%TO.P,C5,2*%
%TO.N,Net-(C5-Pad2)*%
X179317621Y-70400000D03*
%TD*%
D24*
%TO.P,REF\u002A\u002A,1*%
%TO.N,GND*%
X130000000Y-49000000D03*
%TD*%
D18*
%TO.P,C1,1*%
%TO.N,Net-(U1-BIAS)*%
X170900000Y-70000000D03*
D16*
%TO.P,C1,2*%
%TO.N,GND*%
X170900000Y-75000000D03*
%TD*%
D15*
%TO.P,RV4,1,1*%
%TO.N,Net-(R5-Pad2)*%
X175730000Y-53400000D03*
%TO.P,RV4,2,2*%
%TO.N,GND*%
X173190000Y-53400000D03*
%TO.P,RV4,3,3*%
%TO.N,Net-(U1-SYMA2)*%
X170650000Y-53400000D03*
%TD*%
D24*
%TO.P,REF\u002A\u002A,1*%
%TO.N,GND*%
X130000000Y-100000000D03*
%TD*%
D18*
%TO.P,C6,1*%
%TO.N,Net-(J2-In)*%
X186182380Y-70400000D03*
D16*
%TO.P,C6,2*%
%TO.N,Net-(C5-Pad2)*%
X183682380Y-70400000D03*
%TD*%
%TO.P,C12,1*%
%TO.N,GND*%
X157440000Y-79940000D03*
D17*
%TO.P,C12,2*%
%TO.N,Net-(C12-Pad2)*%
X157440000Y-87440000D03*
%TD*%
D16*
%TO.P,R2,1*%
%TO.N,Net-(C12-Pad2)*%
X134300000Y-93780000D03*
D17*
%TO.P,R2,2*%
%TO.N,GND*%
X134300000Y-83620000D03*
%TD*%
D24*
%TO.P,REF\u002A\u002A,1*%
%TO.N,GND*%
X196000000Y-49000000D03*
%TD*%
D19*
%TO.P,J7,1,Pin_1*%
%TO.N,unconnected-(J7-Pin_1-Pad1)*%
X184075000Y-58800000D03*
D20*
%TO.P,J7,2,Pin_2*%
%TO.N,unconnected-(J7-Pin_2-Pad2)*%
X181535000Y-58800000D03*
%TD*%
D18*
%TO.P,C7,1*%
%TO.N,Net-(J1-In)*%
X182182380Y-82000000D03*
D16*
%TO.P,C7,2*%
%TO.N,Net-(C4-Pad2)*%
X179682380Y-82000000D03*
%TD*%
%TO.P,R3,1*%
%TO.N,Net-(U1-SYNCO)*%
X151800000Y-75180000D03*
D17*
%TO.P,R3,2*%
%TO.N,+12V*%
X151800000Y-65020000D03*
%TD*%
D16*
%TO.P,C8,1*%
%TO.N,Net-(J4-Pin_1)*%
X140150000Y-65000000D03*
D17*
%TO.P,C8,2*%
%TO.N,Net-(U1-TC2)*%
X147650000Y-65000000D03*
%TD*%
D16*
%TO.P,C13,1*%
%TO.N,GND*%
X163480000Y-53750000D03*
D17*
%TO.P,C13,2*%
%TO.N,+12V*%
X155980000Y-53750000D03*
%TD*%
D18*
%TO.P,U1,1,AMSI*%
%TO.N,GND*%
X156000000Y-57300000D03*
D17*
%TO.P,U1,2,STO*%
%TO.N,Net-(U1-STO)*%
X156000000Y-59840000D03*
%TO.P,U1,3,MO*%
%TO.N,Net-(U1-MO)*%
X156000000Y-62380000D03*
%TO.P,U1,4,Vcc*%
%TO.N,+12V*%
X156000000Y-64920000D03*
%TO.P,U1,5,TC1*%
%TO.N,Net-(J5-Pin_1)*%
X156000000Y-67460000D03*
%TO.P,U1,6,TC2*%
%TO.N,Net-(U1-TC2)*%
X156000000Y-70000000D03*
%TO.P,U1,7,TR1*%
%TO.N,Net-(U1-TR1)*%
X156000000Y-72540000D03*
%TO.P,U1,8,TR2*%
%TO.N,unconnected-(U1-TR2-Pad8)*%
X156000000Y-75080000D03*
%TO.P,U1,9,FSKI*%
%TO.N,unconnected-(U1-FSKI-Pad9)*%
X163620000Y-75080000D03*
%TO.P,U1,10,BIAS*%
%TO.N,Net-(U1-BIAS)*%
X163620000Y-72540000D03*
%TO.P,U1,11,SYNCO*%
%TO.N,Net-(U1-SYNCO)*%
X163620000Y-70000000D03*
%TO.P,U1,12,GND*%
%TO.N,GND*%
X163620000Y-67460000D03*
%TO.P,U1,13,WAVEA1*%
%TO.N,Net-(J6-Pin_1)*%
X163620000Y-64920000D03*
%TO.P,U1,14,WAVEA2*%
%TO.N,Net-(U1-WAVEA2)*%
X163620000Y-62380000D03*
%TO.P,U1,15,SYMA1*%
%TO.N,Net-(U1-SYMA1)*%
X163620000Y-59840000D03*
%TO.P,U1,16,SYMA2*%
%TO.N,Net-(U1-SYMA2)*%
X163620000Y-57300000D03*
%TD*%
D16*
%TO.P,R1,1*%
%TO.N,+12V*%
X130900000Y-83620000D03*
D17*
%TO.P,R1,2*%
%TO.N,Net-(C12-Pad2)*%
X130900000Y-93780000D03*
%TD*%
D19*
%TO.P,J6,1,Pin_1*%
%TO.N,Net-(J6-Pin_1)*%
X184075000Y-62300000D03*
D20*
%TO.P,J6,2,Pin_2*%
%TO.N,Net-(J6-Pin_2)*%
X181535000Y-62300000D03*
%TD*%
D16*
%TO.P,C11,1*%
%TO.N,Net-(J4-Pin_4)*%
X140250000Y-76100000D03*
D17*
%TO.P,C11,2*%
%TO.N,Net-(U1-TC2)*%
X147750000Y-76100000D03*
%TD*%
D25*
%TO.N,Net-(U1-STO)*%
X161450000Y-80720000D03*
X161450000Y-68840000D03*
%TO.N,Net-(U1-MO)*%
X158190000Y-77090000D03*
X158190000Y-69065000D03*
%TD*%
D26*
%TO.N,Net-(U1-MO)*%
X158190000Y-77090000D02*
X158190000Y-69065000D01*
%TO.N,Net-(U1-STO)*%
X161450000Y-80720000D02*
X161450000Y-68840000D01*
%TD*%
M02*
