M48
; DRILL file {KiCad 8.0.4} date 2024-07-20T11:29:07+0200
; FORMAT={-:-/ absolute / metric / decimal}
; #@! TF.CreationDate,2024-07-20T11:29:07+02:00
; #@! TF.GenerationSoftware,Kicad,Pcbnew,8.0.4
; #@! TF.FileFunction,Plated,1,2,PTH
FMAT,2
METRIC
; #@! TA.AperFunction,Plated,PTH,ViaDrill
T1C0.500
; #@! TA.AperFunction,Plated,PTH,ComponentDrill
T2C0.800
; #@! TA.AperFunction,Plated,PTH,ComponentDrill
T3C1.000
; #@! TA.AperFunction,Plated,PTH,ComponentDrill
T4C1.100
; #@! TA.AperFunction,Plated,PTH,ComponentDrill
T5C1.500
; #@! TA.AperFunction,Plated,PTH,ComponentDrill
T6C1.800
; #@! TA.AperFunction,Plated,PTH,ComponentDrill
T7C2.500
%
G90
G05
T1
X158.19Y-69.065
X158.19Y-77.09
X161.45Y-68.84
X161.45Y-80.72
T2
X130.9Y-83.62
X130.9Y-93.78
X134.3Y-83.62
X134.3Y-93.78
X140.15Y-65.0
X140.15Y-68.8
X140.25Y-72.5
X140.25Y-76.1
X142.318Y-81.4
X144.818Y-81.4
X147.65Y-65.0
X147.65Y-68.8
X147.75Y-72.5
X147.75Y-76.1
X149.84Y-50.222
X149.84Y-52.722
X149.86Y-56.18
X149.86Y-61.18
X151.6Y-80.2
X151.6Y-85.2
X151.8Y-65.02
X151.8Y-75.18
X155.98Y-53.75
X156.0Y-57.3
X156.0Y-59.84
X156.0Y-62.38
X156.0Y-64.92
X156.0Y-67.46
X156.0Y-70.0
X156.0Y-72.54
X156.0Y-75.08
X157.44Y-79.94
X157.44Y-87.44
X163.48Y-53.75
X163.62Y-57.3
X163.62Y-59.84
X163.62Y-62.38
X163.62Y-64.92
X163.62Y-67.46
X163.62Y-70.0
X163.62Y-72.54
X163.62Y-75.08
X166.8Y-76.22
X166.8Y-86.38
X166.92Y-57.7
X170.65Y-53.4
X170.69Y-62.04
X170.9Y-70.0
X170.9Y-75.0
X172.818Y-82.0
X173.19Y-53.4
X173.23Y-62.04
X175.318Y-82.0
X175.73Y-53.4
X175.77Y-62.04
X176.818Y-70.4
X177.08Y-57.7
X179.318Y-70.4
X179.682Y-82.0
X182.182Y-82.0
X183.682Y-70.4
X186.182Y-70.4
T3
X133.9Y-67.22
X133.9Y-69.76
X133.9Y-72.3
X133.9Y-74.84
X133.9Y-77.38
X136.6Y-67.22
X136.6Y-69.76
X136.6Y-72.3
X136.6Y-74.84
X136.6Y-77.38
X142.04Y-90.0
X144.54Y-90.0
X147.04Y-90.0
X161.5Y-90.0
X164.0Y-90.0
X166.5Y-90.0
X178.68Y-90.0
X181.18Y-90.0
X181.535Y-58.8
X181.535Y-62.3
X183.68Y-90.0
X184.075Y-58.8
X184.075Y-62.3
T4
X195.57Y-82.97
X195.735Y-67.04
T5
X190.545Y-77.945
X190.545Y-87.995
X190.71Y-62.015
X190.71Y-72.065
X200.595Y-77.945
X200.595Y-87.995
X200.76Y-62.015
X200.76Y-72.065
T7
X130.0Y-49.0
X130.0Y-100.0
X196.0Y-49.0
X196.0Y-100.0
T3
X132.3Y-53.08G85X132.3Y-55.28
G05
X136.8Y-58.98G85X134.6Y-58.98
G05
X138.6Y-52.88G85X138.6Y-55.48
G05
T6
X140.14Y-96.85G85X140.14Y-97.15
G05
X148.94Y-96.85G85X148.94Y-97.15
G05
X159.6Y-96.85G85X159.6Y-97.15
G05
X168.4Y-96.85G85X168.4Y-97.15
G05
X176.78Y-96.85G85X176.78Y-97.15
G05
X185.58Y-96.85G85X185.58Y-97.15
G05
M30
