%TF.GenerationSoftware,KiCad,Pcbnew,8.0.4*%
%TF.CreationDate,2024-07-20T11:29:09+02:00*%
%TF.ProjectId,Generatpr XR-2206,47656e65-7261-4747-9072-2058522d3232,rev?*%
%TF.SameCoordinates,Original*%
%TF.FileFunction,Drillmap*%
%TF.FilePolarity,Positive*%
%FSLAX45Y45*%
G04 Gerber Fmt 4.5, Leading zero omitted, Abs format (unit mm)*
G04 Created by KiCad (PCBNEW 8.0.4) date 2024-07-20 11:29:09*
%MOMM*%
%LPD*%
G01*
G04 APERTURE LIST*
%ADD10C,0.050000*%
%ADD11C,0.200000*%
G04 APERTURE END LIST*
D10*
X12360000Y-4487000D02*
X20360000Y-4487000D01*
X20360000Y-10487000D01*
X12360000Y-10487000D01*
X12360000Y-4487000D01*
D11*
X12618277Y-10800984D02*
X12618277Y-10600984D01*
X12618277Y-10600984D02*
X12665896Y-10600984D01*
X12665896Y-10600984D02*
X12694467Y-10610508D01*
X12694467Y-10610508D02*
X12713515Y-10629555D01*
X12713515Y-10629555D02*
X12723039Y-10648603D01*
X12723039Y-10648603D02*
X12732562Y-10686698D01*
X12732562Y-10686698D02*
X12732562Y-10715270D01*
X12732562Y-10715270D02*
X12723039Y-10753365D01*
X12723039Y-10753365D02*
X12713515Y-10772412D01*
X12713515Y-10772412D02*
X12694467Y-10791460D01*
X12694467Y-10791460D02*
X12665896Y-10800984D01*
X12665896Y-10800984D02*
X12618277Y-10800984D01*
X12818277Y-10800984D02*
X12818277Y-10667650D01*
X12818277Y-10705746D02*
X12827801Y-10686698D01*
X12827801Y-10686698D02*
X12837324Y-10677174D01*
X12837324Y-10677174D02*
X12856372Y-10667650D01*
X12856372Y-10667650D02*
X12875420Y-10667650D01*
X12942086Y-10800984D02*
X12942086Y-10667650D01*
X12942086Y-10600984D02*
X12932562Y-10610508D01*
X12932562Y-10610508D02*
X12942086Y-10620031D01*
X12942086Y-10620031D02*
X12951610Y-10610508D01*
X12951610Y-10610508D02*
X12942086Y-10600984D01*
X12942086Y-10600984D02*
X12942086Y-10620031D01*
X13065896Y-10800984D02*
X13046848Y-10791460D01*
X13046848Y-10791460D02*
X13037324Y-10772412D01*
X13037324Y-10772412D02*
X13037324Y-10600984D01*
X13170658Y-10800984D02*
X13151610Y-10791460D01*
X13151610Y-10791460D02*
X13142086Y-10772412D01*
X13142086Y-10772412D02*
X13142086Y-10600984D01*
X13399229Y-10800984D02*
X13399229Y-10600984D01*
X13399229Y-10600984D02*
X13465896Y-10743841D01*
X13465896Y-10743841D02*
X13532562Y-10600984D01*
X13532562Y-10600984D02*
X13532562Y-10800984D01*
X13713515Y-10800984D02*
X13713515Y-10696222D01*
X13713515Y-10696222D02*
X13703991Y-10677174D01*
X13703991Y-10677174D02*
X13684943Y-10667650D01*
X13684943Y-10667650D02*
X13646848Y-10667650D01*
X13646848Y-10667650D02*
X13627801Y-10677174D01*
X13713515Y-10791460D02*
X13694467Y-10800984D01*
X13694467Y-10800984D02*
X13646848Y-10800984D01*
X13646848Y-10800984D02*
X13627801Y-10791460D01*
X13627801Y-10791460D02*
X13618277Y-10772412D01*
X13618277Y-10772412D02*
X13618277Y-10753365D01*
X13618277Y-10753365D02*
X13627801Y-10734317D01*
X13627801Y-10734317D02*
X13646848Y-10724793D01*
X13646848Y-10724793D02*
X13694467Y-10724793D01*
X13694467Y-10724793D02*
X13713515Y-10715270D01*
X13808753Y-10667650D02*
X13808753Y-10867650D01*
X13808753Y-10677174D02*
X13827801Y-10667650D01*
X13827801Y-10667650D02*
X13865896Y-10667650D01*
X13865896Y-10667650D02*
X13884943Y-10677174D01*
X13884943Y-10677174D02*
X13894467Y-10686698D01*
X13894467Y-10686698D02*
X13903991Y-10705746D01*
X13903991Y-10705746D02*
X13903991Y-10762889D01*
X13903991Y-10762889D02*
X13894467Y-10781936D01*
X13894467Y-10781936D02*
X13884943Y-10791460D01*
X13884943Y-10791460D02*
X13865896Y-10800984D01*
X13865896Y-10800984D02*
X13827801Y-10800984D01*
X13827801Y-10800984D02*
X13808753Y-10791460D01*
X13989705Y-10781936D02*
X13999229Y-10791460D01*
X13999229Y-10791460D02*
X13989705Y-10800984D01*
X13989705Y-10800984D02*
X13980182Y-10791460D01*
X13980182Y-10791460D02*
X13989705Y-10781936D01*
X13989705Y-10781936D02*
X13989705Y-10800984D01*
X13989705Y-10677174D02*
X13999229Y-10686698D01*
X13999229Y-10686698D02*
X13989705Y-10696222D01*
X13989705Y-10696222D02*
X13980182Y-10686698D01*
X13980182Y-10686698D02*
X13989705Y-10677174D01*
X13989705Y-10677174D02*
X13989705Y-10696222D01*
M02*
