%TF.GenerationSoftware,KiCad,Pcbnew,9.0.5*%
%TF.CreationDate,2025-10-22T19:19:07+02:00*%
%TF.ProjectId,Sonda Fetprobe,536f6e64-6120-4466-9574-70726f62652e,rev?*%
%TF.SameCoordinates,Original*%
%TF.FileFunction,Soldermask,Top*%
%TF.FilePolarity,Negative*%
%FSLAX46Y46*%
G04 Gerber Fmt 4.6, Leading zero omitted, Abs format (unit mm)*
G04 Created by KiCad (PCBNEW 9.0.5) date 2025-10-22 19:19:07*
%MOMM*%
%LPD*%
G01*
G04 APERTURE LIST*
G04 Aperture macros list*
%AMRoundRect*
0 Rectangle with rounded corners*
0 $1 Rounding radius*
0 $2 $3 $4 $5 $6 $7 $8 $9 X,Y pos of 4 corners*
0 Add a 4 corners polygon primitive as box body*
4,1,4,$2,$3,$4,$5,$6,$7,$8,$9,$2,$3,0*
0 Add four circle primitives for the rounded corners*
1,1,$1+$1,$2,$3*
1,1,$1+$1,$4,$5*
1,1,$1+$1,$6,$7*
1,1,$1+$1,$8,$9*
0 Add four rect primitives between the rounded corners*
20,1,$1+$1,$2,$3,$4,$5,0*
20,1,$1+$1,$4,$5,$6,$7,0*
20,1,$1+$1,$6,$7,$8,$9,0*
20,1,$1+$1,$8,$9,$2,$3,0*%
G04 Aperture macros list end*
%ADD10RoundRect,0.250000X-0.450000X0.262500X-0.450000X-0.262500X0.450000X-0.262500X0.450000X0.262500X0*%
%ADD11RoundRect,0.250000X0.475000X-0.250000X0.475000X0.250000X-0.475000X0.250000X-0.475000X-0.250000X0*%
%ADD12RoundRect,0.250000X0.925000X-0.412500X0.925000X0.412500X-0.925000X0.412500X-0.925000X-0.412500X0*%
%ADD13RoundRect,0.250000X-0.650000X0.325000X-0.650000X-0.325000X0.650000X-0.325000X0.650000X0.325000X0*%
%ADD14R,1.300000X1.300000*%
%ADD15C,1.300000*%
%ADD16RoundRect,0.250000X-0.625000X0.375000X-0.625000X-0.375000X0.625000X-0.375000X0.625000X0.375000X0*%
%ADD17RoundRect,0.250000X0.450000X-0.262500X0.450000X0.262500X-0.450000X0.262500X-0.450000X-0.262500X0*%
%ADD18RoundRect,0.250000X0.625000X-0.350000X0.625000X0.350000X-0.625000X0.350000X-0.625000X-0.350000X0*%
%ADD19O,1.750000X1.200000*%
%ADD20RoundRect,0.175000X0.175000X0.325000X-0.175000X0.325000X-0.175000X-0.325000X0.175000X-0.325000X0*%
%ADD21RoundRect,0.150000X0.200000X0.150000X-0.200000X0.150000X-0.200000X-0.150000X0.200000X-0.150000X0*%
%ADD22RoundRect,0.250000X-0.262500X-0.450000X0.262500X-0.450000X0.262500X0.450000X-0.262500X0.450000X0*%
%ADD23R,2.000000X2.000000*%
%ADD24C,2.000000*%
%ADD25RoundRect,0.250000X0.600000X-0.400000X0.600000X0.400000X-0.600000X0.400000X-0.600000X-0.400000X0*%
%ADD26RoundRect,0.250000X-0.787500X-1.025000X0.787500X-1.025000X0.787500X1.025000X-0.787500X1.025000X0*%
%ADD27RoundRect,0.250000X-0.250000X-0.475000X0.250000X-0.475000X0.250000X0.475000X-0.250000X0.475000X0*%
%ADD28RoundRect,0.250000X0.650000X-0.325000X0.650000X0.325000X-0.650000X0.325000X-0.650000X-0.325000X0*%
G04 APERTURE END LIST*
D10*
%TO.C,R2*%
X128700000Y-86887500D03*
X128700000Y-88712500D03*
%TD*%
D11*
%TO.C,C13*%
X138120000Y-84270000D03*
X138120000Y-82370000D03*
%TD*%
D12*
%TO.C,C15*%
X145030000Y-85167500D03*
X145030000Y-82092500D03*
%TD*%
D13*
%TO.C,C10*%
X157630000Y-86275000D03*
X157630000Y-89225000D03*
%TD*%
D14*
%TO.C,U1*%
X153200000Y-84290000D03*
D15*
X154470000Y-83020000D03*
X155740000Y-84290000D03*
%TD*%
D11*
%TO.C,C5*%
X140080000Y-84270000D03*
X140080000Y-82370000D03*
%TD*%
%TO.C,C6*%
X136150000Y-84260000D03*
X136150000Y-82360000D03*
%TD*%
%TO.C,C9*%
X157600000Y-84650000D03*
X157600000Y-82750000D03*
%TD*%
D16*
%TO.C,D1*%
X148600000Y-82400000D03*
X148600000Y-85200000D03*
%TD*%
D17*
%TO.C,R5*%
X148500000Y-88712500D03*
X148500000Y-86887500D03*
%TD*%
D11*
%TO.C,C2*%
X132200000Y-84250000D03*
X132200000Y-82350000D03*
%TD*%
D18*
%TO.C,J2*%
X166950000Y-85500000D03*
D19*
X166950000Y-83500000D03*
%TD*%
D10*
%TO.C,R1*%
X128740000Y-83317500D03*
X128740000Y-85142500D03*
%TD*%
%TO.C,R3*%
X134220000Y-84947500D03*
X134220000Y-86772500D03*
%TD*%
D20*
%TO.C,Q1*%
X132651250Y-88600000D03*
D21*
X132651250Y-86900000D03*
X130651250Y-86900000D03*
X130651250Y-88800000D03*
%TD*%
D11*
%TO.C,C12*%
X150800000Y-86150000D03*
X150800000Y-84250000D03*
%TD*%
D22*
%TO.C,R6*%
X134427500Y-88900000D03*
X136252500Y-88900000D03*
%TD*%
D23*
%TO.C,J1*%
X142280000Y-88850000D03*
D24*
X142280000Y-91390000D03*
%TD*%
D25*
%TO.C,D2*%
X162300000Y-87250000D03*
X162300000Y-83750000D03*
%TD*%
D26*
%TO.C,C14*%
X162407500Y-90550000D03*
X168632500Y-90550000D03*
%TD*%
D27*
%TO.C,C8*%
X137780000Y-88920000D03*
X139680000Y-88920000D03*
%TD*%
D28*
%TO.C,C11*%
X142210000Y-85045000D03*
X142210000Y-82095000D03*
%TD*%
D13*
%TO.C,C7*%
X150700000Y-88165000D03*
X150700000Y-91115000D03*
%TD*%
D10*
%TO.C,R4*%
X134530000Y-90627500D03*
X134530000Y-92452500D03*
%TD*%
G36*
X133043039Y-80669685D02*
G01*
X133088794Y-80722489D01*
X133100000Y-80774000D01*
X133100000Y-82776000D01*
X133080315Y-82843039D01*
X133027511Y-82888794D01*
X132976000Y-82900000D01*
X128124000Y-82900000D01*
X128056961Y-82880315D01*
X128011206Y-82827511D01*
X128000000Y-82776000D01*
X128000000Y-80774000D01*
X128019685Y-80706961D01*
X128072489Y-80661206D01*
X128124000Y-80650000D01*
X132976000Y-80650000D01*
X133043039Y-80669685D01*
G37*
G36*
X133043039Y-91519685D02*
G01*
X133088794Y-91572489D01*
X133100000Y-91624000D01*
X133100000Y-94026000D01*
X133080315Y-94093039D01*
X133027511Y-94138794D01*
X132976000Y-94150000D01*
X128324000Y-94150000D01*
X128256961Y-94130315D01*
X128211206Y-94077511D01*
X128200000Y-94026000D01*
X128200000Y-91624000D01*
X128219685Y-91556961D01*
X128272489Y-91511206D01*
X128324000Y-91500000D01*
X132976000Y-91500000D01*
X133043039Y-91519685D01*
G37*
M02*
