%TF.GenerationSoftware,KiCad,Pcbnew,7.0.9*%
%TF.CreationDate,2023-11-26T22:18:51+01:00*%
%TF.ProjectId,Wzmacniacz_PW3017_modyfikacja,577a6d61-636e-4696-9163-7a5f50573330,rev?*%
%TF.SameCoordinates,Original*%
%TF.FileFunction,Legend,Top*%
%TF.FilePolarity,Positive*%
%FSLAX46Y46*%
G04 Gerber Fmt 4.6, Leading zero omitted, Abs format (unit mm)*
G04 Created by KiCad (PCBNEW 7.0.9) date 2023-11-26 22:18:51*
%MOMM*%
%LPD*%
G01*
G04 APERTURE LIST*
%ADD10C,0.150000*%
%ADD11C,0.120000*%
G04 APERTURE END LIST*
D10*
X162607142Y-111909580D02*
X162559523Y-111957200D01*
X162559523Y-111957200D02*
X162416666Y-112004819D01*
X162416666Y-112004819D02*
X162321428Y-112004819D01*
X162321428Y-112004819D02*
X162178571Y-111957200D01*
X162178571Y-111957200D02*
X162083333Y-111861961D01*
X162083333Y-111861961D02*
X162035714Y-111766723D01*
X162035714Y-111766723D02*
X161988095Y-111576247D01*
X161988095Y-111576247D02*
X161988095Y-111433390D01*
X161988095Y-111433390D02*
X162035714Y-111242914D01*
X162035714Y-111242914D02*
X162083333Y-111147676D01*
X162083333Y-111147676D02*
X162178571Y-111052438D01*
X162178571Y-111052438D02*
X162321428Y-111004819D01*
X162321428Y-111004819D02*
X162416666Y-111004819D01*
X162416666Y-111004819D02*
X162559523Y-111052438D01*
X162559523Y-111052438D02*
X162607142Y-111100057D01*
X163559523Y-112004819D02*
X162988095Y-112004819D01*
X163273809Y-112004819D02*
X163273809Y-111004819D01*
X163273809Y-111004819D02*
X163178571Y-111147676D01*
X163178571Y-111147676D02*
X163083333Y-111242914D01*
X163083333Y-111242914D02*
X162988095Y-111290533D01*
X164416666Y-111338152D02*
X164416666Y-112004819D01*
X164178571Y-110957200D02*
X163940476Y-111671485D01*
X163940476Y-111671485D02*
X164559523Y-111671485D01*
X173604819Y-83081666D02*
X173604819Y-83557856D01*
X173604819Y-83557856D02*
X172604819Y-83557856D01*
X173604819Y-82224523D02*
X173604819Y-82795951D01*
X173604819Y-82510237D02*
X172604819Y-82510237D01*
X172604819Y-82510237D02*
X172747676Y-82605475D01*
X172747676Y-82605475D02*
X172842914Y-82700713D01*
X172842914Y-82700713D02*
X172890533Y-82795951D01*
X155724819Y-83342857D02*
X155248628Y-83676190D01*
X155724819Y-83914285D02*
X154724819Y-83914285D01*
X154724819Y-83914285D02*
X154724819Y-83533333D01*
X154724819Y-83533333D02*
X154772438Y-83438095D01*
X154772438Y-83438095D02*
X154820057Y-83390476D01*
X154820057Y-83390476D02*
X154915295Y-83342857D01*
X154915295Y-83342857D02*
X155058152Y-83342857D01*
X155058152Y-83342857D02*
X155153390Y-83390476D01*
X155153390Y-83390476D02*
X155201009Y-83438095D01*
X155201009Y-83438095D02*
X155248628Y-83533333D01*
X155248628Y-83533333D02*
X155248628Y-83914285D01*
X155724819Y-82390476D02*
X155724819Y-82961904D01*
X155724819Y-82676190D02*
X154724819Y-82676190D01*
X154724819Y-82676190D02*
X154867676Y-82771428D01*
X154867676Y-82771428D02*
X154962914Y-82866666D01*
X154962914Y-82866666D02*
X155010533Y-82961904D01*
X155724819Y-81914285D02*
X155724819Y-81723809D01*
X155724819Y-81723809D02*
X155677200Y-81628571D01*
X155677200Y-81628571D02*
X155629580Y-81580952D01*
X155629580Y-81580952D02*
X155486723Y-81485714D01*
X155486723Y-81485714D02*
X155296247Y-81438095D01*
X155296247Y-81438095D02*
X154915295Y-81438095D01*
X154915295Y-81438095D02*
X154820057Y-81485714D01*
X154820057Y-81485714D02*
X154772438Y-81533333D01*
X154772438Y-81533333D02*
X154724819Y-81628571D01*
X154724819Y-81628571D02*
X154724819Y-81819047D01*
X154724819Y-81819047D02*
X154772438Y-81914285D01*
X154772438Y-81914285D02*
X154820057Y-81961904D01*
X154820057Y-81961904D02*
X154915295Y-82009523D01*
X154915295Y-82009523D02*
X155153390Y-82009523D01*
X155153390Y-82009523D02*
X155248628Y-81961904D01*
X155248628Y-81961904D02*
X155296247Y-81914285D01*
X155296247Y-81914285D02*
X155343866Y-81819047D01*
X155343866Y-81819047D02*
X155343866Y-81628571D01*
X155343866Y-81628571D02*
X155296247Y-81533333D01*
X155296247Y-81533333D02*
X155248628Y-81485714D01*
X155248628Y-81485714D02*
X155153390Y-81438095D01*
X188533333Y-114139580D02*
X188485714Y-114187200D01*
X188485714Y-114187200D02*
X188342857Y-114234819D01*
X188342857Y-114234819D02*
X188247619Y-114234819D01*
X188247619Y-114234819D02*
X188104762Y-114187200D01*
X188104762Y-114187200D02*
X188009524Y-114091961D01*
X188009524Y-114091961D02*
X187961905Y-113996723D01*
X187961905Y-113996723D02*
X187914286Y-113806247D01*
X187914286Y-113806247D02*
X187914286Y-113663390D01*
X187914286Y-113663390D02*
X187961905Y-113472914D01*
X187961905Y-113472914D02*
X188009524Y-113377676D01*
X188009524Y-113377676D02*
X188104762Y-113282438D01*
X188104762Y-113282438D02*
X188247619Y-113234819D01*
X188247619Y-113234819D02*
X188342857Y-113234819D01*
X188342857Y-113234819D02*
X188485714Y-113282438D01*
X188485714Y-113282438D02*
X188533333Y-113330057D01*
X189390476Y-113234819D02*
X189200000Y-113234819D01*
X189200000Y-113234819D02*
X189104762Y-113282438D01*
X189104762Y-113282438D02*
X189057143Y-113330057D01*
X189057143Y-113330057D02*
X188961905Y-113472914D01*
X188961905Y-113472914D02*
X188914286Y-113663390D01*
X188914286Y-113663390D02*
X188914286Y-114044342D01*
X188914286Y-114044342D02*
X188961905Y-114139580D01*
X188961905Y-114139580D02*
X189009524Y-114187200D01*
X189009524Y-114187200D02*
X189104762Y-114234819D01*
X189104762Y-114234819D02*
X189295238Y-114234819D01*
X189295238Y-114234819D02*
X189390476Y-114187200D01*
X189390476Y-114187200D02*
X189438095Y-114139580D01*
X189438095Y-114139580D02*
X189485714Y-114044342D01*
X189485714Y-114044342D02*
X189485714Y-113806247D01*
X189485714Y-113806247D02*
X189438095Y-113711009D01*
X189438095Y-113711009D02*
X189390476Y-113663390D01*
X189390476Y-113663390D02*
X189295238Y-113615771D01*
X189295238Y-113615771D02*
X189104762Y-113615771D01*
X189104762Y-113615771D02*
X189009524Y-113663390D01*
X189009524Y-113663390D02*
X188961905Y-113711009D01*
X188961905Y-113711009D02*
X188914286Y-113806247D01*
X163266666Y-93024819D02*
X163266666Y-93739104D01*
X163266666Y-93739104D02*
X163219047Y-93881961D01*
X163219047Y-93881961D02*
X163123809Y-93977200D01*
X163123809Y-93977200D02*
X162980952Y-94024819D01*
X162980952Y-94024819D02*
X162885714Y-94024819D01*
X163695238Y-93120057D02*
X163742857Y-93072438D01*
X163742857Y-93072438D02*
X163838095Y-93024819D01*
X163838095Y-93024819D02*
X164076190Y-93024819D01*
X164076190Y-93024819D02*
X164171428Y-93072438D01*
X164171428Y-93072438D02*
X164219047Y-93120057D01*
X164219047Y-93120057D02*
X164266666Y-93215295D01*
X164266666Y-93215295D02*
X164266666Y-93310533D01*
X164266666Y-93310533D02*
X164219047Y-93453390D01*
X164219047Y-93453390D02*
X163647619Y-94024819D01*
X163647619Y-94024819D02*
X164266666Y-94024819D01*
X166200000Y-95554819D02*
X166390476Y-95554819D01*
X166390476Y-95554819D02*
X166485714Y-95602438D01*
X166485714Y-95602438D02*
X166580952Y-95697676D01*
X166580952Y-95697676D02*
X166628571Y-95888152D01*
X166628571Y-95888152D02*
X166628571Y-96221485D01*
X166628571Y-96221485D02*
X166580952Y-96411961D01*
X166580952Y-96411961D02*
X166485714Y-96507200D01*
X166485714Y-96507200D02*
X166390476Y-96554819D01*
X166390476Y-96554819D02*
X166200000Y-96554819D01*
X166200000Y-96554819D02*
X166104762Y-96507200D01*
X166104762Y-96507200D02*
X166009524Y-96411961D01*
X166009524Y-96411961D02*
X165961905Y-96221485D01*
X165961905Y-96221485D02*
X165961905Y-95888152D01*
X165961905Y-95888152D02*
X166009524Y-95697676D01*
X166009524Y-95697676D02*
X166104762Y-95602438D01*
X166104762Y-95602438D02*
X166200000Y-95554819D01*
X167057143Y-95554819D02*
X167057143Y-96364342D01*
X167057143Y-96364342D02*
X167104762Y-96459580D01*
X167104762Y-96459580D02*
X167152381Y-96507200D01*
X167152381Y-96507200D02*
X167247619Y-96554819D01*
X167247619Y-96554819D02*
X167438095Y-96554819D01*
X167438095Y-96554819D02*
X167533333Y-96507200D01*
X167533333Y-96507200D02*
X167580952Y-96459580D01*
X167580952Y-96459580D02*
X167628571Y-96364342D01*
X167628571Y-96364342D02*
X167628571Y-95554819D01*
X167961905Y-95554819D02*
X168533333Y-95554819D01*
X168247619Y-96554819D02*
X168247619Y-95554819D01*
X154328571Y-73150057D02*
X154233333Y-73102438D01*
X154233333Y-73102438D02*
X154138095Y-73007200D01*
X154138095Y-73007200D02*
X153995238Y-72864342D01*
X153995238Y-72864342D02*
X153900000Y-72816723D01*
X153900000Y-72816723D02*
X153804762Y-72816723D01*
X153852381Y-73054819D02*
X153757143Y-73007200D01*
X153757143Y-73007200D02*
X153661905Y-72911961D01*
X153661905Y-72911961D02*
X153614286Y-72721485D01*
X153614286Y-72721485D02*
X153614286Y-72388152D01*
X153614286Y-72388152D02*
X153661905Y-72197676D01*
X153661905Y-72197676D02*
X153757143Y-72102438D01*
X153757143Y-72102438D02*
X153852381Y-72054819D01*
X153852381Y-72054819D02*
X154042857Y-72054819D01*
X154042857Y-72054819D02*
X154138095Y-72102438D01*
X154138095Y-72102438D02*
X154233333Y-72197676D01*
X154233333Y-72197676D02*
X154280952Y-72388152D01*
X154280952Y-72388152D02*
X154280952Y-72721485D01*
X154280952Y-72721485D02*
X154233333Y-72911961D01*
X154233333Y-72911961D02*
X154138095Y-73007200D01*
X154138095Y-73007200D02*
X154042857Y-73054819D01*
X154042857Y-73054819D02*
X153852381Y-73054819D01*
X155233333Y-73054819D02*
X154661905Y-73054819D01*
X154947619Y-73054819D02*
X154947619Y-72054819D01*
X154947619Y-72054819D02*
X154852381Y-72197676D01*
X154852381Y-72197676D02*
X154757143Y-72292914D01*
X154757143Y-72292914D02*
X154661905Y-72340533D01*
X155614286Y-72150057D02*
X155661905Y-72102438D01*
X155661905Y-72102438D02*
X155757143Y-72054819D01*
X155757143Y-72054819D02*
X155995238Y-72054819D01*
X155995238Y-72054819D02*
X156090476Y-72102438D01*
X156090476Y-72102438D02*
X156138095Y-72150057D01*
X156138095Y-72150057D02*
X156185714Y-72245295D01*
X156185714Y-72245295D02*
X156185714Y-72340533D01*
X156185714Y-72340533D02*
X156138095Y-72483390D01*
X156138095Y-72483390D02*
X155566667Y-73054819D01*
X155566667Y-73054819D02*
X156185714Y-73054819D01*
X148009580Y-106434343D02*
X148057200Y-106481962D01*
X148057200Y-106481962D02*
X148104819Y-106624819D01*
X148104819Y-106624819D02*
X148104819Y-106720057D01*
X148104819Y-106720057D02*
X148057200Y-106862914D01*
X148057200Y-106862914D02*
X147961961Y-106958152D01*
X147961961Y-106958152D02*
X147866723Y-107005771D01*
X147866723Y-107005771D02*
X147676247Y-107053390D01*
X147676247Y-107053390D02*
X147533390Y-107053390D01*
X147533390Y-107053390D02*
X147342914Y-107005771D01*
X147342914Y-107005771D02*
X147247676Y-106958152D01*
X147247676Y-106958152D02*
X147152438Y-106862914D01*
X147152438Y-106862914D02*
X147104819Y-106720057D01*
X147104819Y-106720057D02*
X147104819Y-106624819D01*
X147104819Y-106624819D02*
X147152438Y-106481962D01*
X147152438Y-106481962D02*
X147200057Y-106434343D01*
X147200057Y-106053390D02*
X147152438Y-106005771D01*
X147152438Y-106005771D02*
X147104819Y-105910533D01*
X147104819Y-105910533D02*
X147104819Y-105672438D01*
X147104819Y-105672438D02*
X147152438Y-105577200D01*
X147152438Y-105577200D02*
X147200057Y-105529581D01*
X147200057Y-105529581D02*
X147295295Y-105481962D01*
X147295295Y-105481962D02*
X147390533Y-105481962D01*
X147390533Y-105481962D02*
X147533390Y-105529581D01*
X147533390Y-105529581D02*
X148104819Y-106101009D01*
X148104819Y-106101009D02*
X148104819Y-105481962D01*
X143264761Y-93594819D02*
X142931428Y-93118628D01*
X142693333Y-93594819D02*
X142693333Y-92594819D01*
X142693333Y-92594819D02*
X143074285Y-92594819D01*
X143074285Y-92594819D02*
X143169523Y-92642438D01*
X143169523Y-92642438D02*
X143217142Y-92690057D01*
X143217142Y-92690057D02*
X143264761Y-92785295D01*
X143264761Y-92785295D02*
X143264761Y-92928152D01*
X143264761Y-92928152D02*
X143217142Y-93023390D01*
X143217142Y-93023390D02*
X143169523Y-93071009D01*
X143169523Y-93071009D02*
X143074285Y-93118628D01*
X143074285Y-93118628D02*
X142693333Y-93118628D01*
X143550476Y-92594819D02*
X143883809Y-93594819D01*
X143883809Y-93594819D02*
X144217142Y-92594819D01*
X145074285Y-93594819D02*
X144502857Y-93594819D01*
X144788571Y-93594819D02*
X144788571Y-92594819D01*
X144788571Y-92594819D02*
X144693333Y-92737676D01*
X144693333Y-92737676D02*
X144598095Y-92832914D01*
X144598095Y-92832914D02*
X144502857Y-92880533D01*
X125757142Y-89009580D02*
X125709523Y-89057200D01*
X125709523Y-89057200D02*
X125566666Y-89104819D01*
X125566666Y-89104819D02*
X125471428Y-89104819D01*
X125471428Y-89104819D02*
X125328571Y-89057200D01*
X125328571Y-89057200D02*
X125233333Y-88961961D01*
X125233333Y-88961961D02*
X125185714Y-88866723D01*
X125185714Y-88866723D02*
X125138095Y-88676247D01*
X125138095Y-88676247D02*
X125138095Y-88533390D01*
X125138095Y-88533390D02*
X125185714Y-88342914D01*
X125185714Y-88342914D02*
X125233333Y-88247676D01*
X125233333Y-88247676D02*
X125328571Y-88152438D01*
X125328571Y-88152438D02*
X125471428Y-88104819D01*
X125471428Y-88104819D02*
X125566666Y-88104819D01*
X125566666Y-88104819D02*
X125709523Y-88152438D01*
X125709523Y-88152438D02*
X125757142Y-88200057D01*
X126709523Y-89104819D02*
X126138095Y-89104819D01*
X126423809Y-89104819D02*
X126423809Y-88104819D01*
X126423809Y-88104819D02*
X126328571Y-88247676D01*
X126328571Y-88247676D02*
X126233333Y-88342914D01*
X126233333Y-88342914D02*
X126138095Y-88390533D01*
X127280952Y-88533390D02*
X127185714Y-88485771D01*
X127185714Y-88485771D02*
X127138095Y-88438152D01*
X127138095Y-88438152D02*
X127090476Y-88342914D01*
X127090476Y-88342914D02*
X127090476Y-88295295D01*
X127090476Y-88295295D02*
X127138095Y-88200057D01*
X127138095Y-88200057D02*
X127185714Y-88152438D01*
X127185714Y-88152438D02*
X127280952Y-88104819D01*
X127280952Y-88104819D02*
X127471428Y-88104819D01*
X127471428Y-88104819D02*
X127566666Y-88152438D01*
X127566666Y-88152438D02*
X127614285Y-88200057D01*
X127614285Y-88200057D02*
X127661904Y-88295295D01*
X127661904Y-88295295D02*
X127661904Y-88342914D01*
X127661904Y-88342914D02*
X127614285Y-88438152D01*
X127614285Y-88438152D02*
X127566666Y-88485771D01*
X127566666Y-88485771D02*
X127471428Y-88533390D01*
X127471428Y-88533390D02*
X127280952Y-88533390D01*
X127280952Y-88533390D02*
X127185714Y-88581009D01*
X127185714Y-88581009D02*
X127138095Y-88628628D01*
X127138095Y-88628628D02*
X127090476Y-88723866D01*
X127090476Y-88723866D02*
X127090476Y-88914342D01*
X127090476Y-88914342D02*
X127138095Y-89009580D01*
X127138095Y-89009580D02*
X127185714Y-89057200D01*
X127185714Y-89057200D02*
X127280952Y-89104819D01*
X127280952Y-89104819D02*
X127471428Y-89104819D01*
X127471428Y-89104819D02*
X127566666Y-89057200D01*
X127566666Y-89057200D02*
X127614285Y-89009580D01*
X127614285Y-89009580D02*
X127661904Y-88914342D01*
X127661904Y-88914342D02*
X127661904Y-88723866D01*
X127661904Y-88723866D02*
X127614285Y-88628628D01*
X127614285Y-88628628D02*
X127566666Y-88581009D01*
X127566666Y-88581009D02*
X127471428Y-88533390D01*
X135759580Y-94042857D02*
X135807200Y-94090476D01*
X135807200Y-94090476D02*
X135854819Y-94233333D01*
X135854819Y-94233333D02*
X135854819Y-94328571D01*
X135854819Y-94328571D02*
X135807200Y-94471428D01*
X135807200Y-94471428D02*
X135711961Y-94566666D01*
X135711961Y-94566666D02*
X135616723Y-94614285D01*
X135616723Y-94614285D02*
X135426247Y-94661904D01*
X135426247Y-94661904D02*
X135283390Y-94661904D01*
X135283390Y-94661904D02*
X135092914Y-94614285D01*
X135092914Y-94614285D02*
X134997676Y-94566666D01*
X134997676Y-94566666D02*
X134902438Y-94471428D01*
X134902438Y-94471428D02*
X134854819Y-94328571D01*
X134854819Y-94328571D02*
X134854819Y-94233333D01*
X134854819Y-94233333D02*
X134902438Y-94090476D01*
X134902438Y-94090476D02*
X134950057Y-94042857D01*
X135854819Y-93090476D02*
X135854819Y-93661904D01*
X135854819Y-93376190D02*
X134854819Y-93376190D01*
X134854819Y-93376190D02*
X134997676Y-93471428D01*
X134997676Y-93471428D02*
X135092914Y-93566666D01*
X135092914Y-93566666D02*
X135140533Y-93661904D01*
X134854819Y-92185714D02*
X134854819Y-92661904D01*
X134854819Y-92661904D02*
X135331009Y-92709523D01*
X135331009Y-92709523D02*
X135283390Y-92661904D01*
X135283390Y-92661904D02*
X135235771Y-92566666D01*
X135235771Y-92566666D02*
X135235771Y-92328571D01*
X135235771Y-92328571D02*
X135283390Y-92233333D01*
X135283390Y-92233333D02*
X135331009Y-92185714D01*
X135331009Y-92185714D02*
X135426247Y-92138095D01*
X135426247Y-92138095D02*
X135664342Y-92138095D01*
X135664342Y-92138095D02*
X135759580Y-92185714D01*
X135759580Y-92185714D02*
X135807200Y-92233333D01*
X135807200Y-92233333D02*
X135854819Y-92328571D01*
X135854819Y-92328571D02*
X135854819Y-92566666D01*
X135854819Y-92566666D02*
X135807200Y-92661904D01*
X135807200Y-92661904D02*
X135759580Y-92709523D01*
X176557142Y-85759580D02*
X176509523Y-85807200D01*
X176509523Y-85807200D02*
X176366666Y-85854819D01*
X176366666Y-85854819D02*
X176271428Y-85854819D01*
X176271428Y-85854819D02*
X176128571Y-85807200D01*
X176128571Y-85807200D02*
X176033333Y-85711961D01*
X176033333Y-85711961D02*
X175985714Y-85616723D01*
X175985714Y-85616723D02*
X175938095Y-85426247D01*
X175938095Y-85426247D02*
X175938095Y-85283390D01*
X175938095Y-85283390D02*
X175985714Y-85092914D01*
X175985714Y-85092914D02*
X176033333Y-84997676D01*
X176033333Y-84997676D02*
X176128571Y-84902438D01*
X176128571Y-84902438D02*
X176271428Y-84854819D01*
X176271428Y-84854819D02*
X176366666Y-84854819D01*
X176366666Y-84854819D02*
X176509523Y-84902438D01*
X176509523Y-84902438D02*
X176557142Y-84950057D01*
X177509523Y-85854819D02*
X176938095Y-85854819D01*
X177223809Y-85854819D02*
X177223809Y-84854819D01*
X177223809Y-84854819D02*
X177128571Y-84997676D01*
X177128571Y-84997676D02*
X177033333Y-85092914D01*
X177033333Y-85092914D02*
X176938095Y-85140533D01*
X177842857Y-84854819D02*
X178509523Y-84854819D01*
X178509523Y-84854819D02*
X178080952Y-85854819D01*
X143347142Y-87674819D02*
X143013809Y-87198628D01*
X142775714Y-87674819D02*
X142775714Y-86674819D01*
X142775714Y-86674819D02*
X143156666Y-86674819D01*
X143156666Y-86674819D02*
X143251904Y-86722438D01*
X143251904Y-86722438D02*
X143299523Y-86770057D01*
X143299523Y-86770057D02*
X143347142Y-86865295D01*
X143347142Y-86865295D02*
X143347142Y-87008152D01*
X143347142Y-87008152D02*
X143299523Y-87103390D01*
X143299523Y-87103390D02*
X143251904Y-87151009D01*
X143251904Y-87151009D02*
X143156666Y-87198628D01*
X143156666Y-87198628D02*
X142775714Y-87198628D01*
X143728095Y-86770057D02*
X143775714Y-86722438D01*
X143775714Y-86722438D02*
X143870952Y-86674819D01*
X143870952Y-86674819D02*
X144109047Y-86674819D01*
X144109047Y-86674819D02*
X144204285Y-86722438D01*
X144204285Y-86722438D02*
X144251904Y-86770057D01*
X144251904Y-86770057D02*
X144299523Y-86865295D01*
X144299523Y-86865295D02*
X144299523Y-86960533D01*
X144299523Y-86960533D02*
X144251904Y-87103390D01*
X144251904Y-87103390D02*
X143680476Y-87674819D01*
X143680476Y-87674819D02*
X144299523Y-87674819D01*
X145156666Y-87008152D02*
X145156666Y-87674819D01*
X144918571Y-86627200D02*
X144680476Y-87341485D01*
X144680476Y-87341485D02*
X145299523Y-87341485D01*
X179757142Y-78934819D02*
X179423809Y-78458628D01*
X179185714Y-78934819D02*
X179185714Y-77934819D01*
X179185714Y-77934819D02*
X179566666Y-77934819D01*
X179566666Y-77934819D02*
X179661904Y-77982438D01*
X179661904Y-77982438D02*
X179709523Y-78030057D01*
X179709523Y-78030057D02*
X179757142Y-78125295D01*
X179757142Y-78125295D02*
X179757142Y-78268152D01*
X179757142Y-78268152D02*
X179709523Y-78363390D01*
X179709523Y-78363390D02*
X179661904Y-78411009D01*
X179661904Y-78411009D02*
X179566666Y-78458628D01*
X179566666Y-78458628D02*
X179185714Y-78458628D01*
X180138095Y-78030057D02*
X180185714Y-77982438D01*
X180185714Y-77982438D02*
X180280952Y-77934819D01*
X180280952Y-77934819D02*
X180519047Y-77934819D01*
X180519047Y-77934819D02*
X180614285Y-77982438D01*
X180614285Y-77982438D02*
X180661904Y-78030057D01*
X180661904Y-78030057D02*
X180709523Y-78125295D01*
X180709523Y-78125295D02*
X180709523Y-78220533D01*
X180709523Y-78220533D02*
X180661904Y-78363390D01*
X180661904Y-78363390D02*
X180090476Y-78934819D01*
X180090476Y-78934819D02*
X180709523Y-78934819D01*
X181614285Y-77934819D02*
X181138095Y-77934819D01*
X181138095Y-77934819D02*
X181090476Y-78411009D01*
X181090476Y-78411009D02*
X181138095Y-78363390D01*
X181138095Y-78363390D02*
X181233333Y-78315771D01*
X181233333Y-78315771D02*
X181471428Y-78315771D01*
X181471428Y-78315771D02*
X181566666Y-78363390D01*
X181566666Y-78363390D02*
X181614285Y-78411009D01*
X181614285Y-78411009D02*
X181661904Y-78506247D01*
X181661904Y-78506247D02*
X181661904Y-78744342D01*
X181661904Y-78744342D02*
X181614285Y-78839580D01*
X181614285Y-78839580D02*
X181566666Y-78887200D01*
X181566666Y-78887200D02*
X181471428Y-78934819D01*
X181471428Y-78934819D02*
X181233333Y-78934819D01*
X181233333Y-78934819D02*
X181138095Y-78887200D01*
X181138095Y-78887200D02*
X181090476Y-78839580D01*
X203466666Y-89424819D02*
X203466666Y-90139104D01*
X203466666Y-90139104D02*
X203419047Y-90281961D01*
X203419047Y-90281961D02*
X203323809Y-90377200D01*
X203323809Y-90377200D02*
X203180952Y-90424819D01*
X203180952Y-90424819D02*
X203085714Y-90424819D01*
X204371428Y-89758152D02*
X204371428Y-90424819D01*
X204133333Y-89377200D02*
X203895238Y-90091485D01*
X203895238Y-90091485D02*
X204514285Y-90091485D01*
X206085714Y-92373866D02*
X206847619Y-92373866D01*
X207180952Y-91754819D02*
X207514285Y-92754819D01*
X207514285Y-92754819D02*
X207847618Y-91754819D01*
X208180952Y-92231009D02*
X208514285Y-92231009D01*
X208657142Y-92754819D02*
X208180952Y-92754819D01*
X208180952Y-92754819D02*
X208180952Y-91754819D01*
X208180952Y-91754819D02*
X208657142Y-91754819D01*
X209085714Y-92231009D02*
X209419047Y-92231009D01*
X209561904Y-92754819D02*
X209085714Y-92754819D01*
X209085714Y-92754819D02*
X209085714Y-91754819D01*
X209085714Y-91754819D02*
X209561904Y-91754819D01*
X189444761Y-102370057D02*
X189349523Y-102322438D01*
X189349523Y-102322438D02*
X189254285Y-102227200D01*
X189254285Y-102227200D02*
X189111428Y-102084342D01*
X189111428Y-102084342D02*
X189016190Y-102036723D01*
X189016190Y-102036723D02*
X188920952Y-102036723D01*
X188968571Y-102274819D02*
X188873333Y-102227200D01*
X188873333Y-102227200D02*
X188778095Y-102131961D01*
X188778095Y-102131961D02*
X188730476Y-101941485D01*
X188730476Y-101941485D02*
X188730476Y-101608152D01*
X188730476Y-101608152D02*
X188778095Y-101417676D01*
X188778095Y-101417676D02*
X188873333Y-101322438D01*
X188873333Y-101322438D02*
X188968571Y-101274819D01*
X188968571Y-101274819D02*
X189159047Y-101274819D01*
X189159047Y-101274819D02*
X189254285Y-101322438D01*
X189254285Y-101322438D02*
X189349523Y-101417676D01*
X189349523Y-101417676D02*
X189397142Y-101608152D01*
X189397142Y-101608152D02*
X189397142Y-101941485D01*
X189397142Y-101941485D02*
X189349523Y-102131961D01*
X189349523Y-102131961D02*
X189254285Y-102227200D01*
X189254285Y-102227200D02*
X189159047Y-102274819D01*
X189159047Y-102274819D02*
X188968571Y-102274819D01*
X190254285Y-101274819D02*
X190063809Y-101274819D01*
X190063809Y-101274819D02*
X189968571Y-101322438D01*
X189968571Y-101322438D02*
X189920952Y-101370057D01*
X189920952Y-101370057D02*
X189825714Y-101512914D01*
X189825714Y-101512914D02*
X189778095Y-101703390D01*
X189778095Y-101703390D02*
X189778095Y-102084342D01*
X189778095Y-102084342D02*
X189825714Y-102179580D01*
X189825714Y-102179580D02*
X189873333Y-102227200D01*
X189873333Y-102227200D02*
X189968571Y-102274819D01*
X189968571Y-102274819D02*
X190159047Y-102274819D01*
X190159047Y-102274819D02*
X190254285Y-102227200D01*
X190254285Y-102227200D02*
X190301904Y-102179580D01*
X190301904Y-102179580D02*
X190349523Y-102084342D01*
X190349523Y-102084342D02*
X190349523Y-101846247D01*
X190349523Y-101846247D02*
X190301904Y-101751009D01*
X190301904Y-101751009D02*
X190254285Y-101703390D01*
X190254285Y-101703390D02*
X190159047Y-101655771D01*
X190159047Y-101655771D02*
X189968571Y-101655771D01*
X189968571Y-101655771D02*
X189873333Y-101703390D01*
X189873333Y-101703390D02*
X189825714Y-101751009D01*
X189825714Y-101751009D02*
X189778095Y-101846247D01*
X170557142Y-89634819D02*
X170223809Y-89158628D01*
X169985714Y-89634819D02*
X169985714Y-88634819D01*
X169985714Y-88634819D02*
X170366666Y-88634819D01*
X170366666Y-88634819D02*
X170461904Y-88682438D01*
X170461904Y-88682438D02*
X170509523Y-88730057D01*
X170509523Y-88730057D02*
X170557142Y-88825295D01*
X170557142Y-88825295D02*
X170557142Y-88968152D01*
X170557142Y-88968152D02*
X170509523Y-89063390D01*
X170509523Y-89063390D02*
X170461904Y-89111009D01*
X170461904Y-89111009D02*
X170366666Y-89158628D01*
X170366666Y-89158628D02*
X169985714Y-89158628D01*
X170938095Y-88730057D02*
X170985714Y-88682438D01*
X170985714Y-88682438D02*
X171080952Y-88634819D01*
X171080952Y-88634819D02*
X171319047Y-88634819D01*
X171319047Y-88634819D02*
X171414285Y-88682438D01*
X171414285Y-88682438D02*
X171461904Y-88730057D01*
X171461904Y-88730057D02*
X171509523Y-88825295D01*
X171509523Y-88825295D02*
X171509523Y-88920533D01*
X171509523Y-88920533D02*
X171461904Y-89063390D01*
X171461904Y-89063390D02*
X170890476Y-89634819D01*
X170890476Y-89634819D02*
X171509523Y-89634819D01*
X172080952Y-89063390D02*
X171985714Y-89015771D01*
X171985714Y-89015771D02*
X171938095Y-88968152D01*
X171938095Y-88968152D02*
X171890476Y-88872914D01*
X171890476Y-88872914D02*
X171890476Y-88825295D01*
X171890476Y-88825295D02*
X171938095Y-88730057D01*
X171938095Y-88730057D02*
X171985714Y-88682438D01*
X171985714Y-88682438D02*
X172080952Y-88634819D01*
X172080952Y-88634819D02*
X172271428Y-88634819D01*
X172271428Y-88634819D02*
X172366666Y-88682438D01*
X172366666Y-88682438D02*
X172414285Y-88730057D01*
X172414285Y-88730057D02*
X172461904Y-88825295D01*
X172461904Y-88825295D02*
X172461904Y-88872914D01*
X172461904Y-88872914D02*
X172414285Y-88968152D01*
X172414285Y-88968152D02*
X172366666Y-89015771D01*
X172366666Y-89015771D02*
X172271428Y-89063390D01*
X172271428Y-89063390D02*
X172080952Y-89063390D01*
X172080952Y-89063390D02*
X171985714Y-89111009D01*
X171985714Y-89111009D02*
X171938095Y-89158628D01*
X171938095Y-89158628D02*
X171890476Y-89253866D01*
X171890476Y-89253866D02*
X171890476Y-89444342D01*
X171890476Y-89444342D02*
X171938095Y-89539580D01*
X171938095Y-89539580D02*
X171985714Y-89587200D01*
X171985714Y-89587200D02*
X172080952Y-89634819D01*
X172080952Y-89634819D02*
X172271428Y-89634819D01*
X172271428Y-89634819D02*
X172366666Y-89587200D01*
X172366666Y-89587200D02*
X172414285Y-89539580D01*
X172414285Y-89539580D02*
X172461904Y-89444342D01*
X172461904Y-89444342D02*
X172461904Y-89253866D01*
X172461904Y-89253866D02*
X172414285Y-89158628D01*
X172414285Y-89158628D02*
X172366666Y-89111009D01*
X172366666Y-89111009D02*
X172271428Y-89063390D01*
X184734819Y-82892857D02*
X184258628Y-83226190D01*
X184734819Y-83464285D02*
X183734819Y-83464285D01*
X183734819Y-83464285D02*
X183734819Y-83083333D01*
X183734819Y-83083333D02*
X183782438Y-82988095D01*
X183782438Y-82988095D02*
X183830057Y-82940476D01*
X183830057Y-82940476D02*
X183925295Y-82892857D01*
X183925295Y-82892857D02*
X184068152Y-82892857D01*
X184068152Y-82892857D02*
X184163390Y-82940476D01*
X184163390Y-82940476D02*
X184211009Y-82988095D01*
X184211009Y-82988095D02*
X184258628Y-83083333D01*
X184258628Y-83083333D02*
X184258628Y-83464285D01*
X184734819Y-81940476D02*
X184734819Y-82511904D01*
X184734819Y-82226190D02*
X183734819Y-82226190D01*
X183734819Y-82226190D02*
X183877676Y-82321428D01*
X183877676Y-82321428D02*
X183972914Y-82416666D01*
X183972914Y-82416666D02*
X184020533Y-82511904D01*
X183830057Y-81559523D02*
X183782438Y-81511904D01*
X183782438Y-81511904D02*
X183734819Y-81416666D01*
X183734819Y-81416666D02*
X183734819Y-81178571D01*
X183734819Y-81178571D02*
X183782438Y-81083333D01*
X183782438Y-81083333D02*
X183830057Y-81035714D01*
X183830057Y-81035714D02*
X183925295Y-80988095D01*
X183925295Y-80988095D02*
X184020533Y-80988095D01*
X184020533Y-80988095D02*
X184163390Y-81035714D01*
X184163390Y-81035714D02*
X184734819Y-81607142D01*
X184734819Y-81607142D02*
X184734819Y-80988095D01*
X179570057Y-114005238D02*
X179522438Y-114100476D01*
X179522438Y-114100476D02*
X179427200Y-114195714D01*
X179427200Y-114195714D02*
X179284342Y-114338571D01*
X179284342Y-114338571D02*
X179236723Y-114433809D01*
X179236723Y-114433809D02*
X179236723Y-114529047D01*
X179474819Y-114481428D02*
X179427200Y-114576666D01*
X179427200Y-114576666D02*
X179331961Y-114671904D01*
X179331961Y-114671904D02*
X179141485Y-114719523D01*
X179141485Y-114719523D02*
X178808152Y-114719523D01*
X178808152Y-114719523D02*
X178617676Y-114671904D01*
X178617676Y-114671904D02*
X178522438Y-114576666D01*
X178522438Y-114576666D02*
X178474819Y-114481428D01*
X178474819Y-114481428D02*
X178474819Y-114290952D01*
X178474819Y-114290952D02*
X178522438Y-114195714D01*
X178522438Y-114195714D02*
X178617676Y-114100476D01*
X178617676Y-114100476D02*
X178808152Y-114052857D01*
X178808152Y-114052857D02*
X179141485Y-114052857D01*
X179141485Y-114052857D02*
X179331961Y-114100476D01*
X179331961Y-114100476D02*
X179427200Y-114195714D01*
X179427200Y-114195714D02*
X179474819Y-114290952D01*
X179474819Y-114290952D02*
X179474819Y-114481428D01*
X178808152Y-113195714D02*
X179474819Y-113195714D01*
X178427200Y-113433809D02*
X179141485Y-113671904D01*
X179141485Y-113671904D02*
X179141485Y-113052857D01*
X127166666Y-91524819D02*
X127166666Y-92239104D01*
X127166666Y-92239104D02*
X127119047Y-92381961D01*
X127119047Y-92381961D02*
X127023809Y-92477200D01*
X127023809Y-92477200D02*
X126880952Y-92524819D01*
X126880952Y-92524819D02*
X126785714Y-92524819D01*
X128166666Y-92524819D02*
X127595238Y-92524819D01*
X127880952Y-92524819D02*
X127880952Y-91524819D01*
X127880952Y-91524819D02*
X127785714Y-91667676D01*
X127785714Y-91667676D02*
X127690476Y-91762914D01*
X127690476Y-91762914D02*
X127595238Y-91810533D01*
X121290476Y-94573866D02*
X122052381Y-94573866D01*
X121671428Y-94954819D02*
X121671428Y-94192914D01*
X122385714Y-93954819D02*
X122719047Y-94954819D01*
X122719047Y-94954819D02*
X123052380Y-93954819D01*
X123957142Y-94859580D02*
X123909523Y-94907200D01*
X123909523Y-94907200D02*
X123766666Y-94954819D01*
X123766666Y-94954819D02*
X123671428Y-94954819D01*
X123671428Y-94954819D02*
X123528571Y-94907200D01*
X123528571Y-94907200D02*
X123433333Y-94811961D01*
X123433333Y-94811961D02*
X123385714Y-94716723D01*
X123385714Y-94716723D02*
X123338095Y-94526247D01*
X123338095Y-94526247D02*
X123338095Y-94383390D01*
X123338095Y-94383390D02*
X123385714Y-94192914D01*
X123385714Y-94192914D02*
X123433333Y-94097676D01*
X123433333Y-94097676D02*
X123528571Y-94002438D01*
X123528571Y-94002438D02*
X123671428Y-93954819D01*
X123671428Y-93954819D02*
X123766666Y-93954819D01*
X123766666Y-93954819D02*
X123909523Y-94002438D01*
X123909523Y-94002438D02*
X123957142Y-94050057D01*
X124957142Y-94859580D02*
X124909523Y-94907200D01*
X124909523Y-94907200D02*
X124766666Y-94954819D01*
X124766666Y-94954819D02*
X124671428Y-94954819D01*
X124671428Y-94954819D02*
X124528571Y-94907200D01*
X124528571Y-94907200D02*
X124433333Y-94811961D01*
X124433333Y-94811961D02*
X124385714Y-94716723D01*
X124385714Y-94716723D02*
X124338095Y-94526247D01*
X124338095Y-94526247D02*
X124338095Y-94383390D01*
X124338095Y-94383390D02*
X124385714Y-94192914D01*
X124385714Y-94192914D02*
X124433333Y-94097676D01*
X124433333Y-94097676D02*
X124528571Y-94002438D01*
X124528571Y-94002438D02*
X124671428Y-93954819D01*
X124671428Y-93954819D02*
X124766666Y-93954819D01*
X124766666Y-93954819D02*
X124909523Y-94002438D01*
X124909523Y-94002438D02*
X124957142Y-94050057D01*
X138088571Y-88490057D02*
X137993333Y-88442438D01*
X137993333Y-88442438D02*
X137898095Y-88347200D01*
X137898095Y-88347200D02*
X137755238Y-88204342D01*
X137755238Y-88204342D02*
X137660000Y-88156723D01*
X137660000Y-88156723D02*
X137564762Y-88156723D01*
X137612381Y-88394819D02*
X137517143Y-88347200D01*
X137517143Y-88347200D02*
X137421905Y-88251961D01*
X137421905Y-88251961D02*
X137374286Y-88061485D01*
X137374286Y-88061485D02*
X137374286Y-87728152D01*
X137374286Y-87728152D02*
X137421905Y-87537676D01*
X137421905Y-87537676D02*
X137517143Y-87442438D01*
X137517143Y-87442438D02*
X137612381Y-87394819D01*
X137612381Y-87394819D02*
X137802857Y-87394819D01*
X137802857Y-87394819D02*
X137898095Y-87442438D01*
X137898095Y-87442438D02*
X137993333Y-87537676D01*
X137993333Y-87537676D02*
X138040952Y-87728152D01*
X138040952Y-87728152D02*
X138040952Y-88061485D01*
X138040952Y-88061485D02*
X137993333Y-88251961D01*
X137993333Y-88251961D02*
X137898095Y-88347200D01*
X137898095Y-88347200D02*
X137802857Y-88394819D01*
X137802857Y-88394819D02*
X137612381Y-88394819D01*
X138993333Y-88394819D02*
X138421905Y-88394819D01*
X138707619Y-88394819D02*
X138707619Y-87394819D01*
X138707619Y-87394819D02*
X138612381Y-87537676D01*
X138612381Y-87537676D02*
X138517143Y-87632914D01*
X138517143Y-87632914D02*
X138421905Y-87680533D01*
X139612381Y-87394819D02*
X139707619Y-87394819D01*
X139707619Y-87394819D02*
X139802857Y-87442438D01*
X139802857Y-87442438D02*
X139850476Y-87490057D01*
X139850476Y-87490057D02*
X139898095Y-87585295D01*
X139898095Y-87585295D02*
X139945714Y-87775771D01*
X139945714Y-87775771D02*
X139945714Y-88013866D01*
X139945714Y-88013866D02*
X139898095Y-88204342D01*
X139898095Y-88204342D02*
X139850476Y-88299580D01*
X139850476Y-88299580D02*
X139802857Y-88347200D01*
X139802857Y-88347200D02*
X139707619Y-88394819D01*
X139707619Y-88394819D02*
X139612381Y-88394819D01*
X139612381Y-88394819D02*
X139517143Y-88347200D01*
X139517143Y-88347200D02*
X139469524Y-88299580D01*
X139469524Y-88299580D02*
X139421905Y-88204342D01*
X139421905Y-88204342D02*
X139374286Y-88013866D01*
X139374286Y-88013866D02*
X139374286Y-87775771D01*
X139374286Y-87775771D02*
X139421905Y-87585295D01*
X139421905Y-87585295D02*
X139469524Y-87490057D01*
X139469524Y-87490057D02*
X139517143Y-87442438D01*
X139517143Y-87442438D02*
X139612381Y-87394819D01*
X167660057Y-114461428D02*
X167612438Y-114556666D01*
X167612438Y-114556666D02*
X167517200Y-114651904D01*
X167517200Y-114651904D02*
X167374342Y-114794761D01*
X167374342Y-114794761D02*
X167326723Y-114889999D01*
X167326723Y-114889999D02*
X167326723Y-114985237D01*
X167564819Y-114937618D02*
X167517200Y-115032856D01*
X167517200Y-115032856D02*
X167421961Y-115128094D01*
X167421961Y-115128094D02*
X167231485Y-115175713D01*
X167231485Y-115175713D02*
X166898152Y-115175713D01*
X166898152Y-115175713D02*
X166707676Y-115128094D01*
X166707676Y-115128094D02*
X166612438Y-115032856D01*
X166612438Y-115032856D02*
X166564819Y-114937618D01*
X166564819Y-114937618D02*
X166564819Y-114747142D01*
X166564819Y-114747142D02*
X166612438Y-114651904D01*
X166612438Y-114651904D02*
X166707676Y-114556666D01*
X166707676Y-114556666D02*
X166898152Y-114509047D01*
X166898152Y-114509047D02*
X167231485Y-114509047D01*
X167231485Y-114509047D02*
X167421961Y-114556666D01*
X167421961Y-114556666D02*
X167517200Y-114651904D01*
X167517200Y-114651904D02*
X167564819Y-114747142D01*
X167564819Y-114747142D02*
X167564819Y-114937618D01*
X167564819Y-113556666D02*
X167564819Y-114128094D01*
X167564819Y-113842380D02*
X166564819Y-113842380D01*
X166564819Y-113842380D02*
X166707676Y-113937618D01*
X166707676Y-113937618D02*
X166802914Y-114032856D01*
X166802914Y-114032856D02*
X166850533Y-114128094D01*
X167564819Y-112604285D02*
X167564819Y-113175713D01*
X167564819Y-112889999D02*
X166564819Y-112889999D01*
X166564819Y-112889999D02*
X166707676Y-112985237D01*
X166707676Y-112985237D02*
X166802914Y-113080475D01*
X166802914Y-113080475D02*
X166850533Y-113175713D01*
X172428571Y-73350057D02*
X172333333Y-73302438D01*
X172333333Y-73302438D02*
X172238095Y-73207200D01*
X172238095Y-73207200D02*
X172095238Y-73064342D01*
X172095238Y-73064342D02*
X172000000Y-73016723D01*
X172000000Y-73016723D02*
X171904762Y-73016723D01*
X171952381Y-73254819D02*
X171857143Y-73207200D01*
X171857143Y-73207200D02*
X171761905Y-73111961D01*
X171761905Y-73111961D02*
X171714286Y-72921485D01*
X171714286Y-72921485D02*
X171714286Y-72588152D01*
X171714286Y-72588152D02*
X171761905Y-72397676D01*
X171761905Y-72397676D02*
X171857143Y-72302438D01*
X171857143Y-72302438D02*
X171952381Y-72254819D01*
X171952381Y-72254819D02*
X172142857Y-72254819D01*
X172142857Y-72254819D02*
X172238095Y-72302438D01*
X172238095Y-72302438D02*
X172333333Y-72397676D01*
X172333333Y-72397676D02*
X172380952Y-72588152D01*
X172380952Y-72588152D02*
X172380952Y-72921485D01*
X172380952Y-72921485D02*
X172333333Y-73111961D01*
X172333333Y-73111961D02*
X172238095Y-73207200D01*
X172238095Y-73207200D02*
X172142857Y-73254819D01*
X172142857Y-73254819D02*
X171952381Y-73254819D01*
X173333333Y-73254819D02*
X172761905Y-73254819D01*
X173047619Y-73254819D02*
X173047619Y-72254819D01*
X173047619Y-72254819D02*
X172952381Y-72397676D01*
X172952381Y-72397676D02*
X172857143Y-72492914D01*
X172857143Y-72492914D02*
X172761905Y-72540533D01*
X173666667Y-72254819D02*
X174285714Y-72254819D01*
X174285714Y-72254819D02*
X173952381Y-72635771D01*
X173952381Y-72635771D02*
X174095238Y-72635771D01*
X174095238Y-72635771D02*
X174190476Y-72683390D01*
X174190476Y-72683390D02*
X174238095Y-72731009D01*
X174238095Y-72731009D02*
X174285714Y-72826247D01*
X174285714Y-72826247D02*
X174285714Y-73064342D01*
X174285714Y-73064342D02*
X174238095Y-73159580D01*
X174238095Y-73159580D02*
X174190476Y-73207200D01*
X174190476Y-73207200D02*
X174095238Y-73254819D01*
X174095238Y-73254819D02*
X173809524Y-73254819D01*
X173809524Y-73254819D02*
X173714286Y-73207200D01*
X173714286Y-73207200D02*
X173666667Y-73159580D01*
X202924819Y-107009580D02*
X202877200Y-107057200D01*
X202877200Y-107057200D02*
X202734343Y-107104819D01*
X202734343Y-107104819D02*
X202639105Y-107104819D01*
X202639105Y-107104819D02*
X202496248Y-107057200D01*
X202496248Y-107057200D02*
X202401010Y-106961961D01*
X202401010Y-106961961D02*
X202353391Y-106866723D01*
X202353391Y-106866723D02*
X202305772Y-106676247D01*
X202305772Y-106676247D02*
X202305772Y-106533390D01*
X202305772Y-106533390D02*
X202353391Y-106342914D01*
X202353391Y-106342914D02*
X202401010Y-106247676D01*
X202401010Y-106247676D02*
X202496248Y-106152438D01*
X202496248Y-106152438D02*
X202639105Y-106104819D01*
X202639105Y-106104819D02*
X202734343Y-106104819D01*
X202734343Y-106104819D02*
X202877200Y-106152438D01*
X202877200Y-106152438D02*
X202924819Y-106200057D01*
X203877200Y-107104819D02*
X203305772Y-107104819D01*
X203591486Y-107104819D02*
X203591486Y-106104819D01*
X203591486Y-106104819D02*
X203496248Y-106247676D01*
X203496248Y-106247676D02*
X203401010Y-106342914D01*
X203401010Y-106342914D02*
X203305772Y-106390533D01*
X204258153Y-106200057D02*
X204305772Y-106152438D01*
X204305772Y-106152438D02*
X204401010Y-106104819D01*
X204401010Y-106104819D02*
X204639105Y-106104819D01*
X204639105Y-106104819D02*
X204734343Y-106152438D01*
X204734343Y-106152438D02*
X204781962Y-106200057D01*
X204781962Y-106200057D02*
X204829581Y-106295295D01*
X204829581Y-106295295D02*
X204829581Y-106390533D01*
X204829581Y-106390533D02*
X204781962Y-106533390D01*
X204781962Y-106533390D02*
X204210534Y-107104819D01*
X204210534Y-107104819D02*
X204829581Y-107104819D01*
X202957142Y-87609580D02*
X202909523Y-87657200D01*
X202909523Y-87657200D02*
X202766666Y-87704819D01*
X202766666Y-87704819D02*
X202671428Y-87704819D01*
X202671428Y-87704819D02*
X202528571Y-87657200D01*
X202528571Y-87657200D02*
X202433333Y-87561961D01*
X202433333Y-87561961D02*
X202385714Y-87466723D01*
X202385714Y-87466723D02*
X202338095Y-87276247D01*
X202338095Y-87276247D02*
X202338095Y-87133390D01*
X202338095Y-87133390D02*
X202385714Y-86942914D01*
X202385714Y-86942914D02*
X202433333Y-86847676D01*
X202433333Y-86847676D02*
X202528571Y-86752438D01*
X202528571Y-86752438D02*
X202671428Y-86704819D01*
X202671428Y-86704819D02*
X202766666Y-86704819D01*
X202766666Y-86704819D02*
X202909523Y-86752438D01*
X202909523Y-86752438D02*
X202957142Y-86800057D01*
X203909523Y-87704819D02*
X203338095Y-87704819D01*
X203623809Y-87704819D02*
X203623809Y-86704819D01*
X203623809Y-86704819D02*
X203528571Y-86847676D01*
X203528571Y-86847676D02*
X203433333Y-86942914D01*
X203433333Y-86942914D02*
X203338095Y-86990533D01*
X204385714Y-87704819D02*
X204576190Y-87704819D01*
X204576190Y-87704819D02*
X204671428Y-87657200D01*
X204671428Y-87657200D02*
X204719047Y-87609580D01*
X204719047Y-87609580D02*
X204814285Y-87466723D01*
X204814285Y-87466723D02*
X204861904Y-87276247D01*
X204861904Y-87276247D02*
X204861904Y-86895295D01*
X204861904Y-86895295D02*
X204814285Y-86800057D01*
X204814285Y-86800057D02*
X204766666Y-86752438D01*
X204766666Y-86752438D02*
X204671428Y-86704819D01*
X204671428Y-86704819D02*
X204480952Y-86704819D01*
X204480952Y-86704819D02*
X204385714Y-86752438D01*
X204385714Y-86752438D02*
X204338095Y-86800057D01*
X204338095Y-86800057D02*
X204290476Y-86895295D01*
X204290476Y-86895295D02*
X204290476Y-87133390D01*
X204290476Y-87133390D02*
X204338095Y-87228628D01*
X204338095Y-87228628D02*
X204385714Y-87276247D01*
X204385714Y-87276247D02*
X204480952Y-87323866D01*
X204480952Y-87323866D02*
X204671428Y-87323866D01*
X204671428Y-87323866D02*
X204766666Y-87276247D01*
X204766666Y-87276247D02*
X204814285Y-87228628D01*
X204814285Y-87228628D02*
X204861904Y-87133390D01*
X186257142Y-101434819D02*
X185923809Y-100958628D01*
X185685714Y-101434819D02*
X185685714Y-100434819D01*
X185685714Y-100434819D02*
X186066666Y-100434819D01*
X186066666Y-100434819D02*
X186161904Y-100482438D01*
X186161904Y-100482438D02*
X186209523Y-100530057D01*
X186209523Y-100530057D02*
X186257142Y-100625295D01*
X186257142Y-100625295D02*
X186257142Y-100768152D01*
X186257142Y-100768152D02*
X186209523Y-100863390D01*
X186209523Y-100863390D02*
X186161904Y-100911009D01*
X186161904Y-100911009D02*
X186066666Y-100958628D01*
X186066666Y-100958628D02*
X185685714Y-100958628D01*
X187209523Y-101434819D02*
X186638095Y-101434819D01*
X186923809Y-101434819D02*
X186923809Y-100434819D01*
X186923809Y-100434819D02*
X186828571Y-100577676D01*
X186828571Y-100577676D02*
X186733333Y-100672914D01*
X186733333Y-100672914D02*
X186638095Y-100720533D01*
X187828571Y-100434819D02*
X187923809Y-100434819D01*
X187923809Y-100434819D02*
X188019047Y-100482438D01*
X188019047Y-100482438D02*
X188066666Y-100530057D01*
X188066666Y-100530057D02*
X188114285Y-100625295D01*
X188114285Y-100625295D02*
X188161904Y-100815771D01*
X188161904Y-100815771D02*
X188161904Y-101053866D01*
X188161904Y-101053866D02*
X188114285Y-101244342D01*
X188114285Y-101244342D02*
X188066666Y-101339580D01*
X188066666Y-101339580D02*
X188019047Y-101387200D01*
X188019047Y-101387200D02*
X187923809Y-101434819D01*
X187923809Y-101434819D02*
X187828571Y-101434819D01*
X187828571Y-101434819D02*
X187733333Y-101387200D01*
X187733333Y-101387200D02*
X187685714Y-101339580D01*
X187685714Y-101339580D02*
X187638095Y-101244342D01*
X187638095Y-101244342D02*
X187590476Y-101053866D01*
X187590476Y-101053866D02*
X187590476Y-100815771D01*
X187590476Y-100815771D02*
X187638095Y-100625295D01*
X187638095Y-100625295D02*
X187685714Y-100530057D01*
X187685714Y-100530057D02*
X187733333Y-100482438D01*
X187733333Y-100482438D02*
X187828571Y-100434819D01*
X202257142Y-90959580D02*
X202209523Y-91007200D01*
X202209523Y-91007200D02*
X202066666Y-91054819D01*
X202066666Y-91054819D02*
X201971428Y-91054819D01*
X201971428Y-91054819D02*
X201828571Y-91007200D01*
X201828571Y-91007200D02*
X201733333Y-90911961D01*
X201733333Y-90911961D02*
X201685714Y-90816723D01*
X201685714Y-90816723D02*
X201638095Y-90626247D01*
X201638095Y-90626247D02*
X201638095Y-90483390D01*
X201638095Y-90483390D02*
X201685714Y-90292914D01*
X201685714Y-90292914D02*
X201733333Y-90197676D01*
X201733333Y-90197676D02*
X201828571Y-90102438D01*
X201828571Y-90102438D02*
X201971428Y-90054819D01*
X201971428Y-90054819D02*
X202066666Y-90054819D01*
X202066666Y-90054819D02*
X202209523Y-90102438D01*
X202209523Y-90102438D02*
X202257142Y-90150057D01*
X202638095Y-90150057D02*
X202685714Y-90102438D01*
X202685714Y-90102438D02*
X202780952Y-90054819D01*
X202780952Y-90054819D02*
X203019047Y-90054819D01*
X203019047Y-90054819D02*
X203114285Y-90102438D01*
X203114285Y-90102438D02*
X203161904Y-90150057D01*
X203161904Y-90150057D02*
X203209523Y-90245295D01*
X203209523Y-90245295D02*
X203209523Y-90340533D01*
X203209523Y-90340533D02*
X203161904Y-90483390D01*
X203161904Y-90483390D02*
X202590476Y-91054819D01*
X202590476Y-91054819D02*
X203209523Y-91054819D01*
X204161904Y-91054819D02*
X203590476Y-91054819D01*
X203876190Y-91054819D02*
X203876190Y-90054819D01*
X203876190Y-90054819D02*
X203780952Y-90197676D01*
X203780952Y-90197676D02*
X203685714Y-90292914D01*
X203685714Y-90292914D02*
X203590476Y-90340533D01*
X140128571Y-73950057D02*
X140033333Y-73902438D01*
X140033333Y-73902438D02*
X139938095Y-73807200D01*
X139938095Y-73807200D02*
X139795238Y-73664342D01*
X139795238Y-73664342D02*
X139700000Y-73616723D01*
X139700000Y-73616723D02*
X139604762Y-73616723D01*
X139652381Y-73854819D02*
X139557143Y-73807200D01*
X139557143Y-73807200D02*
X139461905Y-73711961D01*
X139461905Y-73711961D02*
X139414286Y-73521485D01*
X139414286Y-73521485D02*
X139414286Y-73188152D01*
X139414286Y-73188152D02*
X139461905Y-72997676D01*
X139461905Y-72997676D02*
X139557143Y-72902438D01*
X139557143Y-72902438D02*
X139652381Y-72854819D01*
X139652381Y-72854819D02*
X139842857Y-72854819D01*
X139842857Y-72854819D02*
X139938095Y-72902438D01*
X139938095Y-72902438D02*
X140033333Y-72997676D01*
X140033333Y-72997676D02*
X140080952Y-73188152D01*
X140080952Y-73188152D02*
X140080952Y-73521485D01*
X140080952Y-73521485D02*
X140033333Y-73711961D01*
X140033333Y-73711961D02*
X139938095Y-73807200D01*
X139938095Y-73807200D02*
X139842857Y-73854819D01*
X139842857Y-73854819D02*
X139652381Y-73854819D01*
X141033333Y-73854819D02*
X140461905Y-73854819D01*
X140747619Y-73854819D02*
X140747619Y-72854819D01*
X140747619Y-72854819D02*
X140652381Y-72997676D01*
X140652381Y-72997676D02*
X140557143Y-73092914D01*
X140557143Y-73092914D02*
X140461905Y-73140533D01*
X141890476Y-73188152D02*
X141890476Y-73854819D01*
X141652381Y-72807200D02*
X141414286Y-73521485D01*
X141414286Y-73521485D02*
X142033333Y-73521485D01*
X125907235Y-109410479D02*
X125907235Y-108410479D01*
X125907235Y-108410479D02*
X126145330Y-108410479D01*
X126145330Y-108410479D02*
X126288187Y-108458098D01*
X126288187Y-108458098D02*
X126383425Y-108553336D01*
X126383425Y-108553336D02*
X126431044Y-108648574D01*
X126431044Y-108648574D02*
X126478663Y-108839050D01*
X126478663Y-108839050D02*
X126478663Y-108981907D01*
X126478663Y-108981907D02*
X126431044Y-109172383D01*
X126431044Y-109172383D02*
X126383425Y-109267621D01*
X126383425Y-109267621D02*
X126288187Y-109362860D01*
X126288187Y-109362860D02*
X126145330Y-109410479D01*
X126145330Y-109410479D02*
X125907235Y-109410479D01*
X126859616Y-108505717D02*
X126907235Y-108458098D01*
X126907235Y-108458098D02*
X127002473Y-108410479D01*
X127002473Y-108410479D02*
X127240568Y-108410479D01*
X127240568Y-108410479D02*
X127335806Y-108458098D01*
X127335806Y-108458098D02*
X127383425Y-108505717D01*
X127383425Y-108505717D02*
X127431044Y-108600955D01*
X127431044Y-108600955D02*
X127431044Y-108696193D01*
X127431044Y-108696193D02*
X127383425Y-108839050D01*
X127383425Y-108839050D02*
X126811997Y-109410479D01*
X126811997Y-109410479D02*
X127431044Y-109410479D01*
X127473425Y-106404819D02*
X127473425Y-105404819D01*
X128044853Y-106404819D02*
X127616282Y-105833390D01*
X128044853Y-105404819D02*
X127473425Y-105976247D01*
X148194819Y-116043094D02*
X147194819Y-116043094D01*
X147194819Y-116043094D02*
X147194819Y-115804999D01*
X147194819Y-115804999D02*
X147242438Y-115662142D01*
X147242438Y-115662142D02*
X147337676Y-115566904D01*
X147337676Y-115566904D02*
X147432914Y-115519285D01*
X147432914Y-115519285D02*
X147623390Y-115471666D01*
X147623390Y-115471666D02*
X147766247Y-115471666D01*
X147766247Y-115471666D02*
X147956723Y-115519285D01*
X147956723Y-115519285D02*
X148051961Y-115566904D01*
X148051961Y-115566904D02*
X148147200Y-115662142D01*
X148147200Y-115662142D02*
X148194819Y-115804999D01*
X148194819Y-115804999D02*
X148194819Y-116043094D01*
X148194819Y-114519285D02*
X148194819Y-115090713D01*
X148194819Y-114804999D02*
X147194819Y-114804999D01*
X147194819Y-114804999D02*
X147337676Y-114900237D01*
X147337676Y-114900237D02*
X147432914Y-114995475D01*
X147432914Y-114995475D02*
X147480533Y-115090713D01*
X163266666Y-99124819D02*
X163266666Y-99839104D01*
X163266666Y-99839104D02*
X163219047Y-99981961D01*
X163219047Y-99981961D02*
X163123809Y-100077200D01*
X163123809Y-100077200D02*
X162980952Y-100124819D01*
X162980952Y-100124819D02*
X162885714Y-100124819D01*
X164219047Y-99124819D02*
X163742857Y-99124819D01*
X163742857Y-99124819D02*
X163695238Y-99601009D01*
X163695238Y-99601009D02*
X163742857Y-99553390D01*
X163742857Y-99553390D02*
X163838095Y-99505771D01*
X163838095Y-99505771D02*
X164076190Y-99505771D01*
X164076190Y-99505771D02*
X164171428Y-99553390D01*
X164171428Y-99553390D02*
X164219047Y-99601009D01*
X164219047Y-99601009D02*
X164266666Y-99696247D01*
X164266666Y-99696247D02*
X164266666Y-99934342D01*
X164266666Y-99934342D02*
X164219047Y-100029580D01*
X164219047Y-100029580D02*
X164171428Y-100077200D01*
X164171428Y-100077200D02*
X164076190Y-100124819D01*
X164076190Y-100124819D02*
X163838095Y-100124819D01*
X163838095Y-100124819D02*
X163742857Y-100077200D01*
X163742857Y-100077200D02*
X163695238Y-100029580D01*
X166738095Y-101602438D02*
X166642857Y-101554819D01*
X166642857Y-101554819D02*
X166500000Y-101554819D01*
X166500000Y-101554819D02*
X166357143Y-101602438D01*
X166357143Y-101602438D02*
X166261905Y-101697676D01*
X166261905Y-101697676D02*
X166214286Y-101792914D01*
X166214286Y-101792914D02*
X166166667Y-101983390D01*
X166166667Y-101983390D02*
X166166667Y-102126247D01*
X166166667Y-102126247D02*
X166214286Y-102316723D01*
X166214286Y-102316723D02*
X166261905Y-102411961D01*
X166261905Y-102411961D02*
X166357143Y-102507200D01*
X166357143Y-102507200D02*
X166500000Y-102554819D01*
X166500000Y-102554819D02*
X166595238Y-102554819D01*
X166595238Y-102554819D02*
X166738095Y-102507200D01*
X166738095Y-102507200D02*
X166785714Y-102459580D01*
X166785714Y-102459580D02*
X166785714Y-102126247D01*
X166785714Y-102126247D02*
X166595238Y-102126247D01*
X167214286Y-102554819D02*
X167214286Y-101554819D01*
X167214286Y-101554819D02*
X167785714Y-102554819D01*
X167785714Y-102554819D02*
X167785714Y-101554819D01*
X168261905Y-102554819D02*
X168261905Y-101554819D01*
X168261905Y-101554819D02*
X168500000Y-101554819D01*
X168500000Y-101554819D02*
X168642857Y-101602438D01*
X168642857Y-101602438D02*
X168738095Y-101697676D01*
X168738095Y-101697676D02*
X168785714Y-101792914D01*
X168785714Y-101792914D02*
X168833333Y-101983390D01*
X168833333Y-101983390D02*
X168833333Y-102126247D01*
X168833333Y-102126247D02*
X168785714Y-102316723D01*
X168785714Y-102316723D02*
X168738095Y-102411961D01*
X168738095Y-102411961D02*
X168642857Y-102507200D01*
X168642857Y-102507200D02*
X168500000Y-102554819D01*
X168500000Y-102554819D02*
X168261905Y-102554819D01*
X136057142Y-85534819D02*
X135723809Y-85058628D01*
X135485714Y-85534819D02*
X135485714Y-84534819D01*
X135485714Y-84534819D02*
X135866666Y-84534819D01*
X135866666Y-84534819D02*
X135961904Y-84582438D01*
X135961904Y-84582438D02*
X136009523Y-84630057D01*
X136009523Y-84630057D02*
X136057142Y-84725295D01*
X136057142Y-84725295D02*
X136057142Y-84868152D01*
X136057142Y-84868152D02*
X136009523Y-84963390D01*
X136009523Y-84963390D02*
X135961904Y-85011009D01*
X135961904Y-85011009D02*
X135866666Y-85058628D01*
X135866666Y-85058628D02*
X135485714Y-85058628D01*
X136438095Y-84630057D02*
X136485714Y-84582438D01*
X136485714Y-84582438D02*
X136580952Y-84534819D01*
X136580952Y-84534819D02*
X136819047Y-84534819D01*
X136819047Y-84534819D02*
X136914285Y-84582438D01*
X136914285Y-84582438D02*
X136961904Y-84630057D01*
X136961904Y-84630057D02*
X137009523Y-84725295D01*
X137009523Y-84725295D02*
X137009523Y-84820533D01*
X137009523Y-84820533D02*
X136961904Y-84963390D01*
X136961904Y-84963390D02*
X136390476Y-85534819D01*
X136390476Y-85534819D02*
X137009523Y-85534819D01*
X137628571Y-84534819D02*
X137723809Y-84534819D01*
X137723809Y-84534819D02*
X137819047Y-84582438D01*
X137819047Y-84582438D02*
X137866666Y-84630057D01*
X137866666Y-84630057D02*
X137914285Y-84725295D01*
X137914285Y-84725295D02*
X137961904Y-84915771D01*
X137961904Y-84915771D02*
X137961904Y-85153866D01*
X137961904Y-85153866D02*
X137914285Y-85344342D01*
X137914285Y-85344342D02*
X137866666Y-85439580D01*
X137866666Y-85439580D02*
X137819047Y-85487200D01*
X137819047Y-85487200D02*
X137723809Y-85534819D01*
X137723809Y-85534819D02*
X137628571Y-85534819D01*
X137628571Y-85534819D02*
X137533333Y-85487200D01*
X137533333Y-85487200D02*
X137485714Y-85439580D01*
X137485714Y-85439580D02*
X137438095Y-85344342D01*
X137438095Y-85344342D02*
X137390476Y-85153866D01*
X137390476Y-85153866D02*
X137390476Y-84915771D01*
X137390476Y-84915771D02*
X137438095Y-84725295D01*
X137438095Y-84725295D02*
X137485714Y-84630057D01*
X137485714Y-84630057D02*
X137533333Y-84582438D01*
X137533333Y-84582438D02*
X137628571Y-84534819D01*
X132133333Y-96984819D02*
X131800000Y-96508628D01*
X131561905Y-96984819D02*
X131561905Y-95984819D01*
X131561905Y-95984819D02*
X131942857Y-95984819D01*
X131942857Y-95984819D02*
X132038095Y-96032438D01*
X132038095Y-96032438D02*
X132085714Y-96080057D01*
X132085714Y-96080057D02*
X132133333Y-96175295D01*
X132133333Y-96175295D02*
X132133333Y-96318152D01*
X132133333Y-96318152D02*
X132085714Y-96413390D01*
X132085714Y-96413390D02*
X132038095Y-96461009D01*
X132038095Y-96461009D02*
X131942857Y-96508628D01*
X131942857Y-96508628D02*
X131561905Y-96508628D01*
X132990476Y-95984819D02*
X132800000Y-95984819D01*
X132800000Y-95984819D02*
X132704762Y-96032438D01*
X132704762Y-96032438D02*
X132657143Y-96080057D01*
X132657143Y-96080057D02*
X132561905Y-96222914D01*
X132561905Y-96222914D02*
X132514286Y-96413390D01*
X132514286Y-96413390D02*
X132514286Y-96794342D01*
X132514286Y-96794342D02*
X132561905Y-96889580D01*
X132561905Y-96889580D02*
X132609524Y-96937200D01*
X132609524Y-96937200D02*
X132704762Y-96984819D01*
X132704762Y-96984819D02*
X132895238Y-96984819D01*
X132895238Y-96984819D02*
X132990476Y-96937200D01*
X132990476Y-96937200D02*
X133038095Y-96889580D01*
X133038095Y-96889580D02*
X133085714Y-96794342D01*
X133085714Y-96794342D02*
X133085714Y-96556247D01*
X133085714Y-96556247D02*
X133038095Y-96461009D01*
X133038095Y-96461009D02*
X132990476Y-96413390D01*
X132990476Y-96413390D02*
X132895238Y-96365771D01*
X132895238Y-96365771D02*
X132704762Y-96365771D01*
X132704762Y-96365771D02*
X132609524Y-96413390D01*
X132609524Y-96413390D02*
X132561905Y-96461009D01*
X132561905Y-96461009D02*
X132514286Y-96556247D01*
X148859580Y-115566666D02*
X148907200Y-115614285D01*
X148907200Y-115614285D02*
X148954819Y-115757142D01*
X148954819Y-115757142D02*
X148954819Y-115852380D01*
X148954819Y-115852380D02*
X148907200Y-115995237D01*
X148907200Y-115995237D02*
X148811961Y-116090475D01*
X148811961Y-116090475D02*
X148716723Y-116138094D01*
X148716723Y-116138094D02*
X148526247Y-116185713D01*
X148526247Y-116185713D02*
X148383390Y-116185713D01*
X148383390Y-116185713D02*
X148192914Y-116138094D01*
X148192914Y-116138094D02*
X148097676Y-116090475D01*
X148097676Y-116090475D02*
X148002438Y-115995237D01*
X148002438Y-115995237D02*
X147954819Y-115852380D01*
X147954819Y-115852380D02*
X147954819Y-115757142D01*
X147954819Y-115757142D02*
X148002438Y-115614285D01*
X148002438Y-115614285D02*
X148050057Y-115566666D01*
X147954819Y-115233332D02*
X147954819Y-114614285D01*
X147954819Y-114614285D02*
X148335771Y-114947618D01*
X148335771Y-114947618D02*
X148335771Y-114804761D01*
X148335771Y-114804761D02*
X148383390Y-114709523D01*
X148383390Y-114709523D02*
X148431009Y-114661904D01*
X148431009Y-114661904D02*
X148526247Y-114614285D01*
X148526247Y-114614285D02*
X148764342Y-114614285D01*
X148764342Y-114614285D02*
X148859580Y-114661904D01*
X148859580Y-114661904D02*
X148907200Y-114709523D01*
X148907200Y-114709523D02*
X148954819Y-114804761D01*
X148954819Y-114804761D02*
X148954819Y-115090475D01*
X148954819Y-115090475D02*
X148907200Y-115185713D01*
X148907200Y-115185713D02*
X148859580Y-115233332D01*
X160440057Y-96145238D02*
X160392438Y-96240476D01*
X160392438Y-96240476D02*
X160297200Y-96335714D01*
X160297200Y-96335714D02*
X160154342Y-96478571D01*
X160154342Y-96478571D02*
X160106723Y-96573809D01*
X160106723Y-96573809D02*
X160106723Y-96669047D01*
X160344819Y-96621428D02*
X160297200Y-96716666D01*
X160297200Y-96716666D02*
X160201961Y-96811904D01*
X160201961Y-96811904D02*
X160011485Y-96859523D01*
X160011485Y-96859523D02*
X159678152Y-96859523D01*
X159678152Y-96859523D02*
X159487676Y-96811904D01*
X159487676Y-96811904D02*
X159392438Y-96716666D01*
X159392438Y-96716666D02*
X159344819Y-96621428D01*
X159344819Y-96621428D02*
X159344819Y-96430952D01*
X159344819Y-96430952D02*
X159392438Y-96335714D01*
X159392438Y-96335714D02*
X159487676Y-96240476D01*
X159487676Y-96240476D02*
X159678152Y-96192857D01*
X159678152Y-96192857D02*
X160011485Y-96192857D01*
X160011485Y-96192857D02*
X160201961Y-96240476D01*
X160201961Y-96240476D02*
X160297200Y-96335714D01*
X160297200Y-96335714D02*
X160344819Y-96430952D01*
X160344819Y-96430952D02*
X160344819Y-96621428D01*
X159773390Y-95621428D02*
X159725771Y-95716666D01*
X159725771Y-95716666D02*
X159678152Y-95764285D01*
X159678152Y-95764285D02*
X159582914Y-95811904D01*
X159582914Y-95811904D02*
X159535295Y-95811904D01*
X159535295Y-95811904D02*
X159440057Y-95764285D01*
X159440057Y-95764285D02*
X159392438Y-95716666D01*
X159392438Y-95716666D02*
X159344819Y-95621428D01*
X159344819Y-95621428D02*
X159344819Y-95430952D01*
X159344819Y-95430952D02*
X159392438Y-95335714D01*
X159392438Y-95335714D02*
X159440057Y-95288095D01*
X159440057Y-95288095D02*
X159535295Y-95240476D01*
X159535295Y-95240476D02*
X159582914Y-95240476D01*
X159582914Y-95240476D02*
X159678152Y-95288095D01*
X159678152Y-95288095D02*
X159725771Y-95335714D01*
X159725771Y-95335714D02*
X159773390Y-95430952D01*
X159773390Y-95430952D02*
X159773390Y-95621428D01*
X159773390Y-95621428D02*
X159821009Y-95716666D01*
X159821009Y-95716666D02*
X159868628Y-95764285D01*
X159868628Y-95764285D02*
X159963866Y-95811904D01*
X159963866Y-95811904D02*
X160154342Y-95811904D01*
X160154342Y-95811904D02*
X160249580Y-95764285D01*
X160249580Y-95764285D02*
X160297200Y-95716666D01*
X160297200Y-95716666D02*
X160344819Y-95621428D01*
X160344819Y-95621428D02*
X160344819Y-95430952D01*
X160344819Y-95430952D02*
X160297200Y-95335714D01*
X160297200Y-95335714D02*
X160249580Y-95288095D01*
X160249580Y-95288095D02*
X160154342Y-95240476D01*
X160154342Y-95240476D02*
X159963866Y-95240476D01*
X159963866Y-95240476D02*
X159868628Y-95288095D01*
X159868628Y-95288095D02*
X159821009Y-95335714D01*
X159821009Y-95335714D02*
X159773390Y-95430952D01*
X186359580Y-98166666D02*
X186407200Y-98214285D01*
X186407200Y-98214285D02*
X186454819Y-98357142D01*
X186454819Y-98357142D02*
X186454819Y-98452380D01*
X186454819Y-98452380D02*
X186407200Y-98595237D01*
X186407200Y-98595237D02*
X186311961Y-98690475D01*
X186311961Y-98690475D02*
X186216723Y-98738094D01*
X186216723Y-98738094D02*
X186026247Y-98785713D01*
X186026247Y-98785713D02*
X185883390Y-98785713D01*
X185883390Y-98785713D02*
X185692914Y-98738094D01*
X185692914Y-98738094D02*
X185597676Y-98690475D01*
X185597676Y-98690475D02*
X185502438Y-98595237D01*
X185502438Y-98595237D02*
X185454819Y-98452380D01*
X185454819Y-98452380D02*
X185454819Y-98357142D01*
X185454819Y-98357142D02*
X185502438Y-98214285D01*
X185502438Y-98214285D02*
X185550057Y-98166666D01*
X185454819Y-97833332D02*
X185454819Y-97166666D01*
X185454819Y-97166666D02*
X186454819Y-97595237D01*
X125757142Y-92159580D02*
X125709523Y-92207200D01*
X125709523Y-92207200D02*
X125566666Y-92254819D01*
X125566666Y-92254819D02*
X125471428Y-92254819D01*
X125471428Y-92254819D02*
X125328571Y-92207200D01*
X125328571Y-92207200D02*
X125233333Y-92111961D01*
X125233333Y-92111961D02*
X125185714Y-92016723D01*
X125185714Y-92016723D02*
X125138095Y-91826247D01*
X125138095Y-91826247D02*
X125138095Y-91683390D01*
X125138095Y-91683390D02*
X125185714Y-91492914D01*
X125185714Y-91492914D02*
X125233333Y-91397676D01*
X125233333Y-91397676D02*
X125328571Y-91302438D01*
X125328571Y-91302438D02*
X125471428Y-91254819D01*
X125471428Y-91254819D02*
X125566666Y-91254819D01*
X125566666Y-91254819D02*
X125709523Y-91302438D01*
X125709523Y-91302438D02*
X125757142Y-91350057D01*
X126138095Y-91350057D02*
X126185714Y-91302438D01*
X126185714Y-91302438D02*
X126280952Y-91254819D01*
X126280952Y-91254819D02*
X126519047Y-91254819D01*
X126519047Y-91254819D02*
X126614285Y-91302438D01*
X126614285Y-91302438D02*
X126661904Y-91350057D01*
X126661904Y-91350057D02*
X126709523Y-91445295D01*
X126709523Y-91445295D02*
X126709523Y-91540533D01*
X126709523Y-91540533D02*
X126661904Y-91683390D01*
X126661904Y-91683390D02*
X126090476Y-92254819D01*
X126090476Y-92254819D02*
X126709523Y-92254819D01*
X127328571Y-91254819D02*
X127423809Y-91254819D01*
X127423809Y-91254819D02*
X127519047Y-91302438D01*
X127519047Y-91302438D02*
X127566666Y-91350057D01*
X127566666Y-91350057D02*
X127614285Y-91445295D01*
X127614285Y-91445295D02*
X127661904Y-91635771D01*
X127661904Y-91635771D02*
X127661904Y-91873866D01*
X127661904Y-91873866D02*
X127614285Y-92064342D01*
X127614285Y-92064342D02*
X127566666Y-92159580D01*
X127566666Y-92159580D02*
X127519047Y-92207200D01*
X127519047Y-92207200D02*
X127423809Y-92254819D01*
X127423809Y-92254819D02*
X127328571Y-92254819D01*
X127328571Y-92254819D02*
X127233333Y-92207200D01*
X127233333Y-92207200D02*
X127185714Y-92159580D01*
X127185714Y-92159580D02*
X127138095Y-92064342D01*
X127138095Y-92064342D02*
X127090476Y-91873866D01*
X127090476Y-91873866D02*
X127090476Y-91635771D01*
X127090476Y-91635771D02*
X127138095Y-91445295D01*
X127138095Y-91445295D02*
X127185714Y-91350057D01*
X127185714Y-91350057D02*
X127233333Y-91302438D01*
X127233333Y-91302438D02*
X127328571Y-91254819D01*
X128233333Y-120709580D02*
X128185714Y-120757200D01*
X128185714Y-120757200D02*
X128042857Y-120804819D01*
X128042857Y-120804819D02*
X127947619Y-120804819D01*
X127947619Y-120804819D02*
X127804762Y-120757200D01*
X127804762Y-120757200D02*
X127709524Y-120661961D01*
X127709524Y-120661961D02*
X127661905Y-120566723D01*
X127661905Y-120566723D02*
X127614286Y-120376247D01*
X127614286Y-120376247D02*
X127614286Y-120233390D01*
X127614286Y-120233390D02*
X127661905Y-120042914D01*
X127661905Y-120042914D02*
X127709524Y-119947676D01*
X127709524Y-119947676D02*
X127804762Y-119852438D01*
X127804762Y-119852438D02*
X127947619Y-119804819D01*
X127947619Y-119804819D02*
X128042857Y-119804819D01*
X128042857Y-119804819D02*
X128185714Y-119852438D01*
X128185714Y-119852438D02*
X128233333Y-119900057D01*
X129090476Y-120138152D02*
X129090476Y-120804819D01*
X128852381Y-119757200D02*
X128614286Y-120471485D01*
X128614286Y-120471485D02*
X129233333Y-120471485D01*
X184859580Y-93266666D02*
X184907200Y-93314285D01*
X184907200Y-93314285D02*
X184954819Y-93457142D01*
X184954819Y-93457142D02*
X184954819Y-93552380D01*
X184954819Y-93552380D02*
X184907200Y-93695237D01*
X184907200Y-93695237D02*
X184811961Y-93790475D01*
X184811961Y-93790475D02*
X184716723Y-93838094D01*
X184716723Y-93838094D02*
X184526247Y-93885713D01*
X184526247Y-93885713D02*
X184383390Y-93885713D01*
X184383390Y-93885713D02*
X184192914Y-93838094D01*
X184192914Y-93838094D02*
X184097676Y-93790475D01*
X184097676Y-93790475D02*
X184002438Y-93695237D01*
X184002438Y-93695237D02*
X183954819Y-93552380D01*
X183954819Y-93552380D02*
X183954819Y-93457142D01*
X183954819Y-93457142D02*
X184002438Y-93314285D01*
X184002438Y-93314285D02*
X184050057Y-93266666D01*
X184383390Y-92695237D02*
X184335771Y-92790475D01*
X184335771Y-92790475D02*
X184288152Y-92838094D01*
X184288152Y-92838094D02*
X184192914Y-92885713D01*
X184192914Y-92885713D02*
X184145295Y-92885713D01*
X184145295Y-92885713D02*
X184050057Y-92838094D01*
X184050057Y-92838094D02*
X184002438Y-92790475D01*
X184002438Y-92790475D02*
X183954819Y-92695237D01*
X183954819Y-92695237D02*
X183954819Y-92504761D01*
X183954819Y-92504761D02*
X184002438Y-92409523D01*
X184002438Y-92409523D02*
X184050057Y-92361904D01*
X184050057Y-92361904D02*
X184145295Y-92314285D01*
X184145295Y-92314285D02*
X184192914Y-92314285D01*
X184192914Y-92314285D02*
X184288152Y-92361904D01*
X184288152Y-92361904D02*
X184335771Y-92409523D01*
X184335771Y-92409523D02*
X184383390Y-92504761D01*
X184383390Y-92504761D02*
X184383390Y-92695237D01*
X184383390Y-92695237D02*
X184431009Y-92790475D01*
X184431009Y-92790475D02*
X184478628Y-92838094D01*
X184478628Y-92838094D02*
X184573866Y-92885713D01*
X184573866Y-92885713D02*
X184764342Y-92885713D01*
X184764342Y-92885713D02*
X184859580Y-92838094D01*
X184859580Y-92838094D02*
X184907200Y-92790475D01*
X184907200Y-92790475D02*
X184954819Y-92695237D01*
X184954819Y-92695237D02*
X184954819Y-92504761D01*
X184954819Y-92504761D02*
X184907200Y-92409523D01*
X184907200Y-92409523D02*
X184859580Y-92361904D01*
X184859580Y-92361904D02*
X184764342Y-92314285D01*
X184764342Y-92314285D02*
X184573866Y-92314285D01*
X184573866Y-92314285D02*
X184478628Y-92361904D01*
X184478628Y-92361904D02*
X184431009Y-92409523D01*
X184431009Y-92409523D02*
X184383390Y-92504761D01*
X137300057Y-106805238D02*
X137252438Y-106900476D01*
X137252438Y-106900476D02*
X137157200Y-106995714D01*
X137157200Y-106995714D02*
X137014342Y-107138571D01*
X137014342Y-107138571D02*
X136966723Y-107233809D01*
X136966723Y-107233809D02*
X136966723Y-107329047D01*
X137204819Y-107281428D02*
X137157200Y-107376666D01*
X137157200Y-107376666D02*
X137061961Y-107471904D01*
X137061961Y-107471904D02*
X136871485Y-107519523D01*
X136871485Y-107519523D02*
X136538152Y-107519523D01*
X136538152Y-107519523D02*
X136347676Y-107471904D01*
X136347676Y-107471904D02*
X136252438Y-107376666D01*
X136252438Y-107376666D02*
X136204819Y-107281428D01*
X136204819Y-107281428D02*
X136204819Y-107090952D01*
X136204819Y-107090952D02*
X136252438Y-106995714D01*
X136252438Y-106995714D02*
X136347676Y-106900476D01*
X136347676Y-106900476D02*
X136538152Y-106852857D01*
X136538152Y-106852857D02*
X136871485Y-106852857D01*
X136871485Y-106852857D02*
X137061961Y-106900476D01*
X137061961Y-106900476D02*
X137157200Y-106995714D01*
X137157200Y-106995714D02*
X137204819Y-107090952D01*
X137204819Y-107090952D02*
X137204819Y-107281428D01*
X136204819Y-106519523D02*
X136204819Y-105900476D01*
X136204819Y-105900476D02*
X136585771Y-106233809D01*
X136585771Y-106233809D02*
X136585771Y-106090952D01*
X136585771Y-106090952D02*
X136633390Y-105995714D01*
X136633390Y-105995714D02*
X136681009Y-105948095D01*
X136681009Y-105948095D02*
X136776247Y-105900476D01*
X136776247Y-105900476D02*
X137014342Y-105900476D01*
X137014342Y-105900476D02*
X137109580Y-105948095D01*
X137109580Y-105948095D02*
X137157200Y-105995714D01*
X137157200Y-105995714D02*
X137204819Y-106090952D01*
X137204819Y-106090952D02*
X137204819Y-106376666D01*
X137204819Y-106376666D02*
X137157200Y-106471904D01*
X137157200Y-106471904D02*
X137109580Y-106519523D01*
X177709580Y-114516666D02*
X177757200Y-114564285D01*
X177757200Y-114564285D02*
X177804819Y-114707142D01*
X177804819Y-114707142D02*
X177804819Y-114802380D01*
X177804819Y-114802380D02*
X177757200Y-114945237D01*
X177757200Y-114945237D02*
X177661961Y-115040475D01*
X177661961Y-115040475D02*
X177566723Y-115088094D01*
X177566723Y-115088094D02*
X177376247Y-115135713D01*
X177376247Y-115135713D02*
X177233390Y-115135713D01*
X177233390Y-115135713D02*
X177042914Y-115088094D01*
X177042914Y-115088094D02*
X176947676Y-115040475D01*
X176947676Y-115040475D02*
X176852438Y-114945237D01*
X176852438Y-114945237D02*
X176804819Y-114802380D01*
X176804819Y-114802380D02*
X176804819Y-114707142D01*
X176804819Y-114707142D02*
X176852438Y-114564285D01*
X176852438Y-114564285D02*
X176900057Y-114516666D01*
X176804819Y-113611904D02*
X176804819Y-114088094D01*
X176804819Y-114088094D02*
X177281009Y-114135713D01*
X177281009Y-114135713D02*
X177233390Y-114088094D01*
X177233390Y-114088094D02*
X177185771Y-113992856D01*
X177185771Y-113992856D02*
X177185771Y-113754761D01*
X177185771Y-113754761D02*
X177233390Y-113659523D01*
X177233390Y-113659523D02*
X177281009Y-113611904D01*
X177281009Y-113611904D02*
X177376247Y-113564285D01*
X177376247Y-113564285D02*
X177614342Y-113564285D01*
X177614342Y-113564285D02*
X177709580Y-113611904D01*
X177709580Y-113611904D02*
X177757200Y-113659523D01*
X177757200Y-113659523D02*
X177804819Y-113754761D01*
X177804819Y-113754761D02*
X177804819Y-113992856D01*
X177804819Y-113992856D02*
X177757200Y-114088094D01*
X177757200Y-114088094D02*
X177709580Y-114135713D01*
X203457142Y-106259580D02*
X203409523Y-106307200D01*
X203409523Y-106307200D02*
X203266666Y-106354819D01*
X203266666Y-106354819D02*
X203171428Y-106354819D01*
X203171428Y-106354819D02*
X203028571Y-106307200D01*
X203028571Y-106307200D02*
X202933333Y-106211961D01*
X202933333Y-106211961D02*
X202885714Y-106116723D01*
X202885714Y-106116723D02*
X202838095Y-105926247D01*
X202838095Y-105926247D02*
X202838095Y-105783390D01*
X202838095Y-105783390D02*
X202885714Y-105592914D01*
X202885714Y-105592914D02*
X202933333Y-105497676D01*
X202933333Y-105497676D02*
X203028571Y-105402438D01*
X203028571Y-105402438D02*
X203171428Y-105354819D01*
X203171428Y-105354819D02*
X203266666Y-105354819D01*
X203266666Y-105354819D02*
X203409523Y-105402438D01*
X203409523Y-105402438D02*
X203457142Y-105450057D01*
X204409523Y-106354819D02*
X203838095Y-106354819D01*
X204123809Y-106354819D02*
X204123809Y-105354819D01*
X204123809Y-105354819D02*
X204028571Y-105497676D01*
X204028571Y-105497676D02*
X203933333Y-105592914D01*
X203933333Y-105592914D02*
X203838095Y-105640533D01*
X205028571Y-105354819D02*
X205123809Y-105354819D01*
X205123809Y-105354819D02*
X205219047Y-105402438D01*
X205219047Y-105402438D02*
X205266666Y-105450057D01*
X205266666Y-105450057D02*
X205314285Y-105545295D01*
X205314285Y-105545295D02*
X205361904Y-105735771D01*
X205361904Y-105735771D02*
X205361904Y-105973866D01*
X205361904Y-105973866D02*
X205314285Y-106164342D01*
X205314285Y-106164342D02*
X205266666Y-106259580D01*
X205266666Y-106259580D02*
X205219047Y-106307200D01*
X205219047Y-106307200D02*
X205123809Y-106354819D01*
X205123809Y-106354819D02*
X205028571Y-106354819D01*
X205028571Y-106354819D02*
X204933333Y-106307200D01*
X204933333Y-106307200D02*
X204885714Y-106259580D01*
X204885714Y-106259580D02*
X204838095Y-106164342D01*
X204838095Y-106164342D02*
X204790476Y-105973866D01*
X204790476Y-105973866D02*
X204790476Y-105735771D01*
X204790476Y-105735771D02*
X204838095Y-105545295D01*
X204838095Y-105545295D02*
X204885714Y-105450057D01*
X204885714Y-105450057D02*
X204933333Y-105402438D01*
X204933333Y-105402438D02*
X205028571Y-105354819D01*
X142657142Y-100209580D02*
X142609523Y-100257200D01*
X142609523Y-100257200D02*
X142466666Y-100304819D01*
X142466666Y-100304819D02*
X142371428Y-100304819D01*
X142371428Y-100304819D02*
X142228571Y-100257200D01*
X142228571Y-100257200D02*
X142133333Y-100161961D01*
X142133333Y-100161961D02*
X142085714Y-100066723D01*
X142085714Y-100066723D02*
X142038095Y-99876247D01*
X142038095Y-99876247D02*
X142038095Y-99733390D01*
X142038095Y-99733390D02*
X142085714Y-99542914D01*
X142085714Y-99542914D02*
X142133333Y-99447676D01*
X142133333Y-99447676D02*
X142228571Y-99352438D01*
X142228571Y-99352438D02*
X142371428Y-99304819D01*
X142371428Y-99304819D02*
X142466666Y-99304819D01*
X142466666Y-99304819D02*
X142609523Y-99352438D01*
X142609523Y-99352438D02*
X142657142Y-99400057D01*
X143609523Y-100304819D02*
X143038095Y-100304819D01*
X143323809Y-100304819D02*
X143323809Y-99304819D01*
X143323809Y-99304819D02*
X143228571Y-99447676D01*
X143228571Y-99447676D02*
X143133333Y-99542914D01*
X143133333Y-99542914D02*
X143038095Y-99590533D01*
X144466666Y-99304819D02*
X144276190Y-99304819D01*
X144276190Y-99304819D02*
X144180952Y-99352438D01*
X144180952Y-99352438D02*
X144133333Y-99400057D01*
X144133333Y-99400057D02*
X144038095Y-99542914D01*
X144038095Y-99542914D02*
X143990476Y-99733390D01*
X143990476Y-99733390D02*
X143990476Y-100114342D01*
X143990476Y-100114342D02*
X144038095Y-100209580D01*
X144038095Y-100209580D02*
X144085714Y-100257200D01*
X144085714Y-100257200D02*
X144180952Y-100304819D01*
X144180952Y-100304819D02*
X144371428Y-100304819D01*
X144371428Y-100304819D02*
X144466666Y-100257200D01*
X144466666Y-100257200D02*
X144514285Y-100209580D01*
X144514285Y-100209580D02*
X144561904Y-100114342D01*
X144561904Y-100114342D02*
X144561904Y-99876247D01*
X144561904Y-99876247D02*
X144514285Y-99781009D01*
X144514285Y-99781009D02*
X144466666Y-99733390D01*
X144466666Y-99733390D02*
X144371428Y-99685771D01*
X144371428Y-99685771D02*
X144180952Y-99685771D01*
X144180952Y-99685771D02*
X144085714Y-99733390D01*
X144085714Y-99733390D02*
X144038095Y-99781009D01*
X144038095Y-99781009D02*
X143990476Y-99876247D01*
X175084819Y-101212857D02*
X174608628Y-101546190D01*
X175084819Y-101784285D02*
X174084819Y-101784285D01*
X174084819Y-101784285D02*
X174084819Y-101403333D01*
X174084819Y-101403333D02*
X174132438Y-101308095D01*
X174132438Y-101308095D02*
X174180057Y-101260476D01*
X174180057Y-101260476D02*
X174275295Y-101212857D01*
X174275295Y-101212857D02*
X174418152Y-101212857D01*
X174418152Y-101212857D02*
X174513390Y-101260476D01*
X174513390Y-101260476D02*
X174561009Y-101308095D01*
X174561009Y-101308095D02*
X174608628Y-101403333D01*
X174608628Y-101403333D02*
X174608628Y-101784285D01*
X175084819Y-100260476D02*
X175084819Y-100831904D01*
X175084819Y-100546190D02*
X174084819Y-100546190D01*
X174084819Y-100546190D02*
X174227676Y-100641428D01*
X174227676Y-100641428D02*
X174322914Y-100736666D01*
X174322914Y-100736666D02*
X174370533Y-100831904D01*
X174513390Y-99689047D02*
X174465771Y-99784285D01*
X174465771Y-99784285D02*
X174418152Y-99831904D01*
X174418152Y-99831904D02*
X174322914Y-99879523D01*
X174322914Y-99879523D02*
X174275295Y-99879523D01*
X174275295Y-99879523D02*
X174180057Y-99831904D01*
X174180057Y-99831904D02*
X174132438Y-99784285D01*
X174132438Y-99784285D02*
X174084819Y-99689047D01*
X174084819Y-99689047D02*
X174084819Y-99498571D01*
X174084819Y-99498571D02*
X174132438Y-99403333D01*
X174132438Y-99403333D02*
X174180057Y-99355714D01*
X174180057Y-99355714D02*
X174275295Y-99308095D01*
X174275295Y-99308095D02*
X174322914Y-99308095D01*
X174322914Y-99308095D02*
X174418152Y-99355714D01*
X174418152Y-99355714D02*
X174465771Y-99403333D01*
X174465771Y-99403333D02*
X174513390Y-99498571D01*
X174513390Y-99498571D02*
X174513390Y-99689047D01*
X174513390Y-99689047D02*
X174561009Y-99784285D01*
X174561009Y-99784285D02*
X174608628Y-99831904D01*
X174608628Y-99831904D02*
X174703866Y-99879523D01*
X174703866Y-99879523D02*
X174894342Y-99879523D01*
X174894342Y-99879523D02*
X174989580Y-99831904D01*
X174989580Y-99831904D02*
X175037200Y-99784285D01*
X175037200Y-99784285D02*
X175084819Y-99689047D01*
X175084819Y-99689047D02*
X175084819Y-99498571D01*
X175084819Y-99498571D02*
X175037200Y-99403333D01*
X175037200Y-99403333D02*
X174989580Y-99355714D01*
X174989580Y-99355714D02*
X174894342Y-99308095D01*
X174894342Y-99308095D02*
X174703866Y-99308095D01*
X174703866Y-99308095D02*
X174608628Y-99355714D01*
X174608628Y-99355714D02*
X174561009Y-99403333D01*
X174561009Y-99403333D02*
X174513390Y-99498571D01*
X194057142Y-80524819D02*
X193723809Y-80048628D01*
X193485714Y-80524819D02*
X193485714Y-79524819D01*
X193485714Y-79524819D02*
X193866666Y-79524819D01*
X193866666Y-79524819D02*
X193961904Y-79572438D01*
X193961904Y-79572438D02*
X194009523Y-79620057D01*
X194009523Y-79620057D02*
X194057142Y-79715295D01*
X194057142Y-79715295D02*
X194057142Y-79858152D01*
X194057142Y-79858152D02*
X194009523Y-79953390D01*
X194009523Y-79953390D02*
X193961904Y-80001009D01*
X193961904Y-80001009D02*
X193866666Y-80048628D01*
X193866666Y-80048628D02*
X193485714Y-80048628D01*
X194438095Y-79620057D02*
X194485714Y-79572438D01*
X194485714Y-79572438D02*
X194580952Y-79524819D01*
X194580952Y-79524819D02*
X194819047Y-79524819D01*
X194819047Y-79524819D02*
X194914285Y-79572438D01*
X194914285Y-79572438D02*
X194961904Y-79620057D01*
X194961904Y-79620057D02*
X195009523Y-79715295D01*
X195009523Y-79715295D02*
X195009523Y-79810533D01*
X195009523Y-79810533D02*
X194961904Y-79953390D01*
X194961904Y-79953390D02*
X194390476Y-80524819D01*
X194390476Y-80524819D02*
X195009523Y-80524819D01*
X195342857Y-79524819D02*
X196009523Y-79524819D01*
X196009523Y-79524819D02*
X195580952Y-80524819D01*
X145624763Y-86559580D02*
X145577144Y-86607200D01*
X145577144Y-86607200D02*
X145434287Y-86654819D01*
X145434287Y-86654819D02*
X145339049Y-86654819D01*
X145339049Y-86654819D02*
X145196192Y-86607200D01*
X145196192Y-86607200D02*
X145100954Y-86511961D01*
X145100954Y-86511961D02*
X145053335Y-86416723D01*
X145053335Y-86416723D02*
X145005716Y-86226247D01*
X145005716Y-86226247D02*
X145005716Y-86083390D01*
X145005716Y-86083390D02*
X145053335Y-85892914D01*
X145053335Y-85892914D02*
X145100954Y-85797676D01*
X145100954Y-85797676D02*
X145196192Y-85702438D01*
X145196192Y-85702438D02*
X145339049Y-85654819D01*
X145339049Y-85654819D02*
X145434287Y-85654819D01*
X145434287Y-85654819D02*
X145577144Y-85702438D01*
X145577144Y-85702438D02*
X145624763Y-85750057D01*
X146577144Y-86654819D02*
X146005716Y-86654819D01*
X146291430Y-86654819D02*
X146291430Y-85654819D01*
X146291430Y-85654819D02*
X146196192Y-85797676D01*
X146196192Y-85797676D02*
X146100954Y-85892914D01*
X146100954Y-85892914D02*
X146005716Y-85940533D01*
X146910478Y-85654819D02*
X147529525Y-85654819D01*
X147529525Y-85654819D02*
X147196192Y-86035771D01*
X147196192Y-86035771D02*
X147339049Y-86035771D01*
X147339049Y-86035771D02*
X147434287Y-86083390D01*
X147434287Y-86083390D02*
X147481906Y-86131009D01*
X147481906Y-86131009D02*
X147529525Y-86226247D01*
X147529525Y-86226247D02*
X147529525Y-86464342D01*
X147529525Y-86464342D02*
X147481906Y-86559580D01*
X147481906Y-86559580D02*
X147434287Y-86607200D01*
X147434287Y-86607200D02*
X147339049Y-86654819D01*
X147339049Y-86654819D02*
X147053335Y-86654819D01*
X147053335Y-86654819D02*
X146958097Y-86607200D01*
X146958097Y-86607200D02*
X146910478Y-86559580D01*
X198874819Y-90142857D02*
X198398628Y-90476190D01*
X198874819Y-90714285D02*
X197874819Y-90714285D01*
X197874819Y-90714285D02*
X197874819Y-90333333D01*
X197874819Y-90333333D02*
X197922438Y-90238095D01*
X197922438Y-90238095D02*
X197970057Y-90190476D01*
X197970057Y-90190476D02*
X198065295Y-90142857D01*
X198065295Y-90142857D02*
X198208152Y-90142857D01*
X198208152Y-90142857D02*
X198303390Y-90190476D01*
X198303390Y-90190476D02*
X198351009Y-90238095D01*
X198351009Y-90238095D02*
X198398628Y-90333333D01*
X198398628Y-90333333D02*
X198398628Y-90714285D01*
X197970057Y-89761904D02*
X197922438Y-89714285D01*
X197922438Y-89714285D02*
X197874819Y-89619047D01*
X197874819Y-89619047D02*
X197874819Y-89380952D01*
X197874819Y-89380952D02*
X197922438Y-89285714D01*
X197922438Y-89285714D02*
X197970057Y-89238095D01*
X197970057Y-89238095D02*
X198065295Y-89190476D01*
X198065295Y-89190476D02*
X198160533Y-89190476D01*
X198160533Y-89190476D02*
X198303390Y-89238095D01*
X198303390Y-89238095D02*
X198874819Y-89809523D01*
X198874819Y-89809523D02*
X198874819Y-89190476D01*
X197970057Y-88809523D02*
X197922438Y-88761904D01*
X197922438Y-88761904D02*
X197874819Y-88666666D01*
X197874819Y-88666666D02*
X197874819Y-88428571D01*
X197874819Y-88428571D02*
X197922438Y-88333333D01*
X197922438Y-88333333D02*
X197970057Y-88285714D01*
X197970057Y-88285714D02*
X198065295Y-88238095D01*
X198065295Y-88238095D02*
X198160533Y-88238095D01*
X198160533Y-88238095D02*
X198303390Y-88285714D01*
X198303390Y-88285714D02*
X198874819Y-88857142D01*
X198874819Y-88857142D02*
X198874819Y-88238095D01*
X186267142Y-104534819D02*
X185933809Y-104058628D01*
X185695714Y-104534819D02*
X185695714Y-103534819D01*
X185695714Y-103534819D02*
X186076666Y-103534819D01*
X186076666Y-103534819D02*
X186171904Y-103582438D01*
X186171904Y-103582438D02*
X186219523Y-103630057D01*
X186219523Y-103630057D02*
X186267142Y-103725295D01*
X186267142Y-103725295D02*
X186267142Y-103868152D01*
X186267142Y-103868152D02*
X186219523Y-103963390D01*
X186219523Y-103963390D02*
X186171904Y-104011009D01*
X186171904Y-104011009D02*
X186076666Y-104058628D01*
X186076666Y-104058628D02*
X185695714Y-104058628D01*
X187219523Y-104534819D02*
X186648095Y-104534819D01*
X186933809Y-104534819D02*
X186933809Y-103534819D01*
X186933809Y-103534819D02*
X186838571Y-103677676D01*
X186838571Y-103677676D02*
X186743333Y-103772914D01*
X186743333Y-103772914D02*
X186648095Y-103820533D01*
X188076666Y-103868152D02*
X188076666Y-104534819D01*
X187838571Y-103487200D02*
X187600476Y-104201485D01*
X187600476Y-104201485D02*
X188219523Y-104201485D01*
X170347142Y-111074819D02*
X170013809Y-110598628D01*
X169775714Y-111074819D02*
X169775714Y-110074819D01*
X169775714Y-110074819D02*
X170156666Y-110074819D01*
X170156666Y-110074819D02*
X170251904Y-110122438D01*
X170251904Y-110122438D02*
X170299523Y-110170057D01*
X170299523Y-110170057D02*
X170347142Y-110265295D01*
X170347142Y-110265295D02*
X170347142Y-110408152D01*
X170347142Y-110408152D02*
X170299523Y-110503390D01*
X170299523Y-110503390D02*
X170251904Y-110551009D01*
X170251904Y-110551009D02*
X170156666Y-110598628D01*
X170156666Y-110598628D02*
X169775714Y-110598628D01*
X171299523Y-111074819D02*
X170728095Y-111074819D01*
X171013809Y-111074819D02*
X171013809Y-110074819D01*
X171013809Y-110074819D02*
X170918571Y-110217676D01*
X170918571Y-110217676D02*
X170823333Y-110312914D01*
X170823333Y-110312914D02*
X170728095Y-110360533D01*
X171632857Y-110074819D02*
X172299523Y-110074819D01*
X172299523Y-110074819D02*
X171870952Y-111074819D01*
X197557142Y-111959580D02*
X197509523Y-112007200D01*
X197509523Y-112007200D02*
X197366666Y-112054819D01*
X197366666Y-112054819D02*
X197271428Y-112054819D01*
X197271428Y-112054819D02*
X197128571Y-112007200D01*
X197128571Y-112007200D02*
X197033333Y-111911961D01*
X197033333Y-111911961D02*
X196985714Y-111816723D01*
X196985714Y-111816723D02*
X196938095Y-111626247D01*
X196938095Y-111626247D02*
X196938095Y-111483390D01*
X196938095Y-111483390D02*
X196985714Y-111292914D01*
X196985714Y-111292914D02*
X197033333Y-111197676D01*
X197033333Y-111197676D02*
X197128571Y-111102438D01*
X197128571Y-111102438D02*
X197271428Y-111054819D01*
X197271428Y-111054819D02*
X197366666Y-111054819D01*
X197366666Y-111054819D02*
X197509523Y-111102438D01*
X197509523Y-111102438D02*
X197557142Y-111150057D01*
X198509523Y-112054819D02*
X197938095Y-112054819D01*
X198223809Y-112054819D02*
X198223809Y-111054819D01*
X198223809Y-111054819D02*
X198128571Y-111197676D01*
X198128571Y-111197676D02*
X198033333Y-111292914D01*
X198033333Y-111292914D02*
X197938095Y-111340533D01*
X199461904Y-112054819D02*
X198890476Y-112054819D01*
X199176190Y-112054819D02*
X199176190Y-111054819D01*
X199176190Y-111054819D02*
X199080952Y-111197676D01*
X199080952Y-111197676D02*
X198985714Y-111292914D01*
X198985714Y-111292914D02*
X198890476Y-111340533D01*
X200428571Y-73450057D02*
X200333333Y-73402438D01*
X200333333Y-73402438D02*
X200238095Y-73307200D01*
X200238095Y-73307200D02*
X200095238Y-73164342D01*
X200095238Y-73164342D02*
X200000000Y-73116723D01*
X200000000Y-73116723D02*
X199904762Y-73116723D01*
X199952381Y-73354819D02*
X199857143Y-73307200D01*
X199857143Y-73307200D02*
X199761905Y-73211961D01*
X199761905Y-73211961D02*
X199714286Y-73021485D01*
X199714286Y-73021485D02*
X199714286Y-72688152D01*
X199714286Y-72688152D02*
X199761905Y-72497676D01*
X199761905Y-72497676D02*
X199857143Y-72402438D01*
X199857143Y-72402438D02*
X199952381Y-72354819D01*
X199952381Y-72354819D02*
X200142857Y-72354819D01*
X200142857Y-72354819D02*
X200238095Y-72402438D01*
X200238095Y-72402438D02*
X200333333Y-72497676D01*
X200333333Y-72497676D02*
X200380952Y-72688152D01*
X200380952Y-72688152D02*
X200380952Y-73021485D01*
X200380952Y-73021485D02*
X200333333Y-73211961D01*
X200333333Y-73211961D02*
X200238095Y-73307200D01*
X200238095Y-73307200D02*
X200142857Y-73354819D01*
X200142857Y-73354819D02*
X199952381Y-73354819D01*
X201333333Y-73354819D02*
X200761905Y-73354819D01*
X201047619Y-73354819D02*
X201047619Y-72354819D01*
X201047619Y-72354819D02*
X200952381Y-72497676D01*
X200952381Y-72497676D02*
X200857143Y-72592914D01*
X200857143Y-72592914D02*
X200761905Y-72640533D01*
X202238095Y-72354819D02*
X201761905Y-72354819D01*
X201761905Y-72354819D02*
X201714286Y-72831009D01*
X201714286Y-72831009D02*
X201761905Y-72783390D01*
X201761905Y-72783390D02*
X201857143Y-72735771D01*
X201857143Y-72735771D02*
X202095238Y-72735771D01*
X202095238Y-72735771D02*
X202190476Y-72783390D01*
X202190476Y-72783390D02*
X202238095Y-72831009D01*
X202238095Y-72831009D02*
X202285714Y-72926247D01*
X202285714Y-72926247D02*
X202285714Y-73164342D01*
X202285714Y-73164342D02*
X202238095Y-73259580D01*
X202238095Y-73259580D02*
X202190476Y-73307200D01*
X202190476Y-73307200D02*
X202095238Y-73354819D01*
X202095238Y-73354819D02*
X201857143Y-73354819D01*
X201857143Y-73354819D02*
X201761905Y-73307200D01*
X201761905Y-73307200D02*
X201714286Y-73259580D01*
X182854819Y-110933333D02*
X183569104Y-110933333D01*
X183569104Y-110933333D02*
X183711961Y-110980952D01*
X183711961Y-110980952D02*
X183807200Y-111076190D01*
X183807200Y-111076190D02*
X183854819Y-111219047D01*
X183854819Y-111219047D02*
X183854819Y-111314285D01*
X182854819Y-110552380D02*
X182854819Y-109933333D01*
X182854819Y-109933333D02*
X183235771Y-110266666D01*
X183235771Y-110266666D02*
X183235771Y-110123809D01*
X183235771Y-110123809D02*
X183283390Y-110028571D01*
X183283390Y-110028571D02*
X183331009Y-109980952D01*
X183331009Y-109980952D02*
X183426247Y-109933333D01*
X183426247Y-109933333D02*
X183664342Y-109933333D01*
X183664342Y-109933333D02*
X183759580Y-109980952D01*
X183759580Y-109980952D02*
X183807200Y-110028571D01*
X183807200Y-110028571D02*
X183854819Y-110123809D01*
X183854819Y-110123809D02*
X183854819Y-110409523D01*
X183854819Y-110409523D02*
X183807200Y-110504761D01*
X183807200Y-110504761D02*
X183759580Y-110552380D01*
X191354819Y-112528570D02*
X190354819Y-112528570D01*
X191354819Y-112052380D02*
X190354819Y-112052380D01*
X190354819Y-112052380D02*
X191354819Y-111480952D01*
X191354819Y-111480952D02*
X190354819Y-111480952D01*
X191354819Y-111004761D02*
X190354819Y-111004761D01*
X190354819Y-111004761D02*
X190354819Y-110623809D01*
X190354819Y-110623809D02*
X190402438Y-110528571D01*
X190402438Y-110528571D02*
X190450057Y-110480952D01*
X190450057Y-110480952D02*
X190545295Y-110433333D01*
X190545295Y-110433333D02*
X190688152Y-110433333D01*
X190688152Y-110433333D02*
X190783390Y-110480952D01*
X190783390Y-110480952D02*
X190831009Y-110528571D01*
X190831009Y-110528571D02*
X190878628Y-110623809D01*
X190878628Y-110623809D02*
X190878628Y-111004761D01*
X190354819Y-110004761D02*
X191164342Y-110004761D01*
X191164342Y-110004761D02*
X191259580Y-109957142D01*
X191259580Y-109957142D02*
X191307200Y-109909523D01*
X191307200Y-109909523D02*
X191354819Y-109814285D01*
X191354819Y-109814285D02*
X191354819Y-109623809D01*
X191354819Y-109623809D02*
X191307200Y-109528571D01*
X191307200Y-109528571D02*
X191259580Y-109480952D01*
X191259580Y-109480952D02*
X191164342Y-109433333D01*
X191164342Y-109433333D02*
X190354819Y-109433333D01*
X190354819Y-109099999D02*
X190354819Y-108528571D01*
X191354819Y-108814285D02*
X190354819Y-108814285D01*
X159834819Y-80902857D02*
X159358628Y-81236190D01*
X159834819Y-81474285D02*
X158834819Y-81474285D01*
X158834819Y-81474285D02*
X158834819Y-81093333D01*
X158834819Y-81093333D02*
X158882438Y-80998095D01*
X158882438Y-80998095D02*
X158930057Y-80950476D01*
X158930057Y-80950476D02*
X159025295Y-80902857D01*
X159025295Y-80902857D02*
X159168152Y-80902857D01*
X159168152Y-80902857D02*
X159263390Y-80950476D01*
X159263390Y-80950476D02*
X159311009Y-80998095D01*
X159311009Y-80998095D02*
X159358628Y-81093333D01*
X159358628Y-81093333D02*
X159358628Y-81474285D01*
X158930057Y-80521904D02*
X158882438Y-80474285D01*
X158882438Y-80474285D02*
X158834819Y-80379047D01*
X158834819Y-80379047D02*
X158834819Y-80140952D01*
X158834819Y-80140952D02*
X158882438Y-80045714D01*
X158882438Y-80045714D02*
X158930057Y-79998095D01*
X158930057Y-79998095D02*
X159025295Y-79950476D01*
X159025295Y-79950476D02*
X159120533Y-79950476D01*
X159120533Y-79950476D02*
X159263390Y-79998095D01*
X159263390Y-79998095D02*
X159834819Y-80569523D01*
X159834819Y-80569523D02*
X159834819Y-79950476D01*
X158834819Y-79617142D02*
X158834819Y-78998095D01*
X158834819Y-78998095D02*
X159215771Y-79331428D01*
X159215771Y-79331428D02*
X159215771Y-79188571D01*
X159215771Y-79188571D02*
X159263390Y-79093333D01*
X159263390Y-79093333D02*
X159311009Y-79045714D01*
X159311009Y-79045714D02*
X159406247Y-78998095D01*
X159406247Y-78998095D02*
X159644342Y-78998095D01*
X159644342Y-78998095D02*
X159739580Y-79045714D01*
X159739580Y-79045714D02*
X159787200Y-79093333D01*
X159787200Y-79093333D02*
X159834819Y-79188571D01*
X159834819Y-79188571D02*
X159834819Y-79474285D01*
X159834819Y-79474285D02*
X159787200Y-79569523D01*
X159787200Y-79569523D02*
X159739580Y-79617142D01*
X139957142Y-80224819D02*
X139623809Y-79748628D01*
X139385714Y-80224819D02*
X139385714Y-79224819D01*
X139385714Y-79224819D02*
X139766666Y-79224819D01*
X139766666Y-79224819D02*
X139861904Y-79272438D01*
X139861904Y-79272438D02*
X139909523Y-79320057D01*
X139909523Y-79320057D02*
X139957142Y-79415295D01*
X139957142Y-79415295D02*
X139957142Y-79558152D01*
X139957142Y-79558152D02*
X139909523Y-79653390D01*
X139909523Y-79653390D02*
X139861904Y-79701009D01*
X139861904Y-79701009D02*
X139766666Y-79748628D01*
X139766666Y-79748628D02*
X139385714Y-79748628D01*
X140338095Y-79320057D02*
X140385714Y-79272438D01*
X140385714Y-79272438D02*
X140480952Y-79224819D01*
X140480952Y-79224819D02*
X140719047Y-79224819D01*
X140719047Y-79224819D02*
X140814285Y-79272438D01*
X140814285Y-79272438D02*
X140861904Y-79320057D01*
X140861904Y-79320057D02*
X140909523Y-79415295D01*
X140909523Y-79415295D02*
X140909523Y-79510533D01*
X140909523Y-79510533D02*
X140861904Y-79653390D01*
X140861904Y-79653390D02*
X140290476Y-80224819D01*
X140290476Y-80224819D02*
X140909523Y-80224819D01*
X141766666Y-79224819D02*
X141576190Y-79224819D01*
X141576190Y-79224819D02*
X141480952Y-79272438D01*
X141480952Y-79272438D02*
X141433333Y-79320057D01*
X141433333Y-79320057D02*
X141338095Y-79462914D01*
X141338095Y-79462914D02*
X141290476Y-79653390D01*
X141290476Y-79653390D02*
X141290476Y-80034342D01*
X141290476Y-80034342D02*
X141338095Y-80129580D01*
X141338095Y-80129580D02*
X141385714Y-80177200D01*
X141385714Y-80177200D02*
X141480952Y-80224819D01*
X141480952Y-80224819D02*
X141671428Y-80224819D01*
X141671428Y-80224819D02*
X141766666Y-80177200D01*
X141766666Y-80177200D02*
X141814285Y-80129580D01*
X141814285Y-80129580D02*
X141861904Y-80034342D01*
X141861904Y-80034342D02*
X141861904Y-79796247D01*
X141861904Y-79796247D02*
X141814285Y-79701009D01*
X141814285Y-79701009D02*
X141766666Y-79653390D01*
X141766666Y-79653390D02*
X141671428Y-79605771D01*
X141671428Y-79605771D02*
X141480952Y-79605771D01*
X141480952Y-79605771D02*
X141385714Y-79653390D01*
X141385714Y-79653390D02*
X141338095Y-79701009D01*
X141338095Y-79701009D02*
X141290476Y-79796247D01*
X150757142Y-91434819D02*
X150423809Y-90958628D01*
X150185714Y-91434819D02*
X150185714Y-90434819D01*
X150185714Y-90434819D02*
X150566666Y-90434819D01*
X150566666Y-90434819D02*
X150661904Y-90482438D01*
X150661904Y-90482438D02*
X150709523Y-90530057D01*
X150709523Y-90530057D02*
X150757142Y-90625295D01*
X150757142Y-90625295D02*
X150757142Y-90768152D01*
X150757142Y-90768152D02*
X150709523Y-90863390D01*
X150709523Y-90863390D02*
X150661904Y-90911009D01*
X150661904Y-90911009D02*
X150566666Y-90958628D01*
X150566666Y-90958628D02*
X150185714Y-90958628D01*
X151709523Y-91434819D02*
X151138095Y-91434819D01*
X151423809Y-91434819D02*
X151423809Y-90434819D01*
X151423809Y-90434819D02*
X151328571Y-90577676D01*
X151328571Y-90577676D02*
X151233333Y-90672914D01*
X151233333Y-90672914D02*
X151138095Y-90720533D01*
X152566666Y-90434819D02*
X152376190Y-90434819D01*
X152376190Y-90434819D02*
X152280952Y-90482438D01*
X152280952Y-90482438D02*
X152233333Y-90530057D01*
X152233333Y-90530057D02*
X152138095Y-90672914D01*
X152138095Y-90672914D02*
X152090476Y-90863390D01*
X152090476Y-90863390D02*
X152090476Y-91244342D01*
X152090476Y-91244342D02*
X152138095Y-91339580D01*
X152138095Y-91339580D02*
X152185714Y-91387200D01*
X152185714Y-91387200D02*
X152280952Y-91434819D01*
X152280952Y-91434819D02*
X152471428Y-91434819D01*
X152471428Y-91434819D02*
X152566666Y-91387200D01*
X152566666Y-91387200D02*
X152614285Y-91339580D01*
X152614285Y-91339580D02*
X152661904Y-91244342D01*
X152661904Y-91244342D02*
X152661904Y-91006247D01*
X152661904Y-91006247D02*
X152614285Y-90911009D01*
X152614285Y-90911009D02*
X152566666Y-90863390D01*
X152566666Y-90863390D02*
X152471428Y-90815771D01*
X152471428Y-90815771D02*
X152280952Y-90815771D01*
X152280952Y-90815771D02*
X152185714Y-90863390D01*
X152185714Y-90863390D02*
X152138095Y-90911009D01*
X152138095Y-90911009D02*
X152090476Y-91006247D01*
D11*
%TO.C,C14*%
X166054775Y-109275000D02*
X165554775Y-109275000D01*
X165804775Y-109525000D02*
X165804775Y-109025000D01*
X163250000Y-110380000D02*
X163250000Y-105220000D01*
X163210000Y-110380000D02*
X163210000Y-105220000D01*
X163170000Y-110379000D02*
X163170000Y-105221000D01*
X163130000Y-110378000D02*
X163130000Y-105222000D01*
X163090000Y-110376000D02*
X163090000Y-105224000D01*
X163050000Y-110373000D02*
X163050000Y-105227000D01*
X163010000Y-110369000D02*
X163010000Y-108840000D01*
X163010000Y-106760000D02*
X163010000Y-105231000D01*
X162970000Y-110365000D02*
X162970000Y-108840000D01*
X162970000Y-106760000D02*
X162970000Y-105235000D01*
X162930000Y-110361000D02*
X162930000Y-108840000D01*
X162930000Y-106760000D02*
X162930000Y-105239000D01*
X162890000Y-110356000D02*
X162890000Y-108840000D01*
X162890000Y-106760000D02*
X162890000Y-105244000D01*
X162850000Y-110350000D02*
X162850000Y-108840000D01*
X162850000Y-106760000D02*
X162850000Y-105250000D01*
X162810000Y-110343000D02*
X162810000Y-108840000D01*
X162810000Y-106760000D02*
X162810000Y-105257000D01*
X162770000Y-110336000D02*
X162770000Y-108840000D01*
X162770000Y-106760000D02*
X162770000Y-105264000D01*
X162730000Y-110328000D02*
X162730000Y-108840000D01*
X162730000Y-106760000D02*
X162730000Y-105272000D01*
X162690000Y-110320000D02*
X162690000Y-108840000D01*
X162690000Y-106760000D02*
X162690000Y-105280000D01*
X162650000Y-110311000D02*
X162650000Y-108840000D01*
X162650000Y-106760000D02*
X162650000Y-105289000D01*
X162610000Y-110301000D02*
X162610000Y-108840000D01*
X162610000Y-106760000D02*
X162610000Y-105299000D01*
X162570000Y-110291000D02*
X162570000Y-108840000D01*
X162570000Y-106760000D02*
X162570000Y-105309000D01*
X162529000Y-110280000D02*
X162529000Y-108840000D01*
X162529000Y-106760000D02*
X162529000Y-105320000D01*
X162489000Y-110268000D02*
X162489000Y-108840000D01*
X162489000Y-106760000D02*
X162489000Y-105332000D01*
X162449000Y-110255000D02*
X162449000Y-108840000D01*
X162449000Y-106760000D02*
X162449000Y-105345000D01*
X162409000Y-110242000D02*
X162409000Y-108840000D01*
X162409000Y-106760000D02*
X162409000Y-105358000D01*
X162369000Y-110228000D02*
X162369000Y-108840000D01*
X162369000Y-106760000D02*
X162369000Y-105372000D01*
X162329000Y-110214000D02*
X162329000Y-108840000D01*
X162329000Y-106760000D02*
X162329000Y-105386000D01*
X162289000Y-110198000D02*
X162289000Y-108840000D01*
X162289000Y-106760000D02*
X162289000Y-105402000D01*
X162249000Y-110182000D02*
X162249000Y-108840000D01*
X162249000Y-106760000D02*
X162249000Y-105418000D01*
X162209000Y-110165000D02*
X162209000Y-108840000D01*
X162209000Y-106760000D02*
X162209000Y-105435000D01*
X162169000Y-110148000D02*
X162169000Y-108840000D01*
X162169000Y-106760000D02*
X162169000Y-105452000D01*
X162129000Y-110129000D02*
X162129000Y-108840000D01*
X162129000Y-106760000D02*
X162129000Y-105471000D01*
X162089000Y-110110000D02*
X162089000Y-108840000D01*
X162089000Y-106760000D02*
X162089000Y-105490000D01*
X162049000Y-110090000D02*
X162049000Y-108840000D01*
X162049000Y-106760000D02*
X162049000Y-105510000D01*
X162009000Y-110068000D02*
X162009000Y-108840000D01*
X162009000Y-106760000D02*
X162009000Y-105532000D01*
X161969000Y-110047000D02*
X161969000Y-108840000D01*
X161969000Y-106760000D02*
X161969000Y-105553000D01*
X161929000Y-110024000D02*
X161929000Y-108840000D01*
X161929000Y-106760000D02*
X161929000Y-105576000D01*
X161889000Y-110000000D02*
X161889000Y-108840000D01*
X161889000Y-106760000D02*
X161889000Y-105600000D01*
X161849000Y-109975000D02*
X161849000Y-108840000D01*
X161849000Y-106760000D02*
X161849000Y-105625000D01*
X161809000Y-109949000D02*
X161809000Y-108840000D01*
X161809000Y-106760000D02*
X161809000Y-105651000D01*
X161769000Y-109922000D02*
X161769000Y-108840000D01*
X161769000Y-106760000D02*
X161769000Y-105678000D01*
X161729000Y-109895000D02*
X161729000Y-108840000D01*
X161729000Y-106760000D02*
X161729000Y-105705000D01*
X161689000Y-109865000D02*
X161689000Y-108840000D01*
X161689000Y-106760000D02*
X161689000Y-105735000D01*
X161649000Y-109835000D02*
X161649000Y-108840000D01*
X161649000Y-106760000D02*
X161649000Y-105765000D01*
X161609000Y-109804000D02*
X161609000Y-108840000D01*
X161609000Y-106760000D02*
X161609000Y-105796000D01*
X161569000Y-109771000D02*
X161569000Y-108840000D01*
X161569000Y-106760000D02*
X161569000Y-105829000D01*
X161529000Y-109737000D02*
X161529000Y-108840000D01*
X161529000Y-106760000D02*
X161529000Y-105863000D01*
X161489000Y-109701000D02*
X161489000Y-108840000D01*
X161489000Y-106760000D02*
X161489000Y-105899000D01*
X161449000Y-109664000D02*
X161449000Y-108840000D01*
X161449000Y-106760000D02*
X161449000Y-105936000D01*
X161409000Y-109626000D02*
X161409000Y-108840000D01*
X161409000Y-106760000D02*
X161409000Y-105974000D01*
X161369000Y-109585000D02*
X161369000Y-108840000D01*
X161369000Y-106760000D02*
X161369000Y-106015000D01*
X161329000Y-109543000D02*
X161329000Y-108840000D01*
X161329000Y-106760000D02*
X161329000Y-106057000D01*
X161289000Y-109499000D02*
X161289000Y-108840000D01*
X161289000Y-106760000D02*
X161289000Y-106101000D01*
X161249000Y-109453000D02*
X161249000Y-108840000D01*
X161249000Y-106760000D02*
X161249000Y-106147000D01*
X161209000Y-109405000D02*
X161209000Y-108840000D01*
X161209000Y-106760000D02*
X161209000Y-106195000D01*
X161169000Y-109354000D02*
X161169000Y-108840000D01*
X161169000Y-106760000D02*
X161169000Y-106246000D01*
X161129000Y-109300000D02*
X161129000Y-108840000D01*
X161129000Y-106760000D02*
X161129000Y-106300000D01*
X161089000Y-109243000D02*
X161089000Y-108840000D01*
X161089000Y-106760000D02*
X161089000Y-106357000D01*
X161049000Y-109183000D02*
X161049000Y-108840000D01*
X161049000Y-106760000D02*
X161049000Y-106417000D01*
X161009000Y-109119000D02*
X161009000Y-108840000D01*
X161009000Y-106760000D02*
X161009000Y-106481000D01*
X160969000Y-109051000D02*
X160969000Y-108840000D01*
X160969000Y-106760000D02*
X160969000Y-106549000D01*
X160929000Y-108978000D02*
X160929000Y-106622000D01*
X160889000Y-108898000D02*
X160889000Y-106702000D01*
X160849000Y-108811000D02*
X160849000Y-106789000D01*
X160809000Y-108715000D02*
X160809000Y-106885000D01*
X160769000Y-108605000D02*
X160769000Y-106995000D01*
X160729000Y-108477000D02*
X160729000Y-107123000D01*
X160689000Y-108318000D02*
X160689000Y-107282000D01*
X160649000Y-108084000D02*
X160649000Y-107516000D01*
X165870000Y-107800000D02*
G75*
G03*
X165870000Y-107800000I-2620000J0D01*
G01*
%TO.C,L1*%
X164840000Y-80465000D02*
G75*
G03*
X164840000Y-80465000I-1340000J0D01*
G01*
X172020000Y-80465000D02*
G75*
G03*
X172020000Y-80465000I-8520000J0D01*
G01*
%TO.C,R19*%
X152900000Y-78660000D02*
X152900000Y-79430000D01*
X154270000Y-79430000D02*
X151530000Y-79430000D01*
X151530000Y-79430000D02*
X151530000Y-85970000D01*
X154270000Y-85970000D02*
X154270000Y-79430000D01*
X151530000Y-85970000D02*
X154270000Y-85970000D01*
X152900000Y-86740000D02*
X152900000Y-85970000D01*
%TO.C,C6*%
X185990000Y-116200000D02*
X186680000Y-116200000D01*
X186680000Y-114780000D02*
X186680000Y-117620000D01*
X186680000Y-117620000D02*
X190720000Y-117620000D01*
X190720000Y-114780000D02*
X186680000Y-114780000D01*
X190720000Y-117620000D02*
X190720000Y-114780000D01*
X191410000Y-116200000D02*
X190720000Y-116200000D01*
%TO.C,J2*%
X162270000Y-94570000D02*
X163600000Y-94570000D01*
X162270000Y-95900000D02*
X162270000Y-94570000D01*
X162270000Y-97170000D02*
X162270000Y-97230000D01*
X162270000Y-97170000D02*
X164930000Y-97170000D01*
X162270000Y-97230000D02*
X164930000Y-97230000D01*
X164930000Y-97170000D02*
X164930000Y-97230000D01*
%TO.C,Q12*%
X144680000Y-70655000D02*
X144680000Y-74145000D01*
X144680000Y-70655000D02*
X152920000Y-70655000D01*
X144680000Y-74145000D02*
X152920000Y-74145000D01*
X147200000Y-70655000D02*
X147200000Y-71725000D01*
X147200000Y-73825000D02*
X147200000Y-74145000D01*
X150401000Y-70655000D02*
X150401000Y-72235000D01*
X150401000Y-73315000D02*
X150401000Y-74145000D01*
X152920000Y-70655000D02*
X152920000Y-74145000D01*
%TO.C,C2*%
X151025000Y-111747323D02*
X151025000Y-110747323D01*
X150525000Y-111247323D02*
X151525000Y-111247323D01*
X148820000Y-106267677D02*
X158980000Y-106267677D01*
X148820000Y-106227677D02*
X158980000Y-106227677D01*
X148820000Y-106187677D02*
X158980000Y-106187677D01*
X148821000Y-106147677D02*
X158979000Y-106147677D01*
X148822000Y-106107677D02*
X158978000Y-106107677D01*
X148823000Y-106067677D02*
X158977000Y-106067677D01*
X148825000Y-106027677D02*
X158975000Y-106027677D01*
X148827000Y-105987677D02*
X158973000Y-105987677D01*
X148830000Y-105947677D02*
X158970000Y-105947677D01*
X148832000Y-105907677D02*
X158968000Y-105907677D01*
X148835000Y-105867677D02*
X158965000Y-105867677D01*
X148838000Y-105827677D02*
X158962000Y-105827677D01*
X148842000Y-105787677D02*
X158958000Y-105787677D01*
X148846000Y-105747677D02*
X158954000Y-105747677D01*
X148850000Y-105707677D02*
X158950000Y-105707677D01*
X148855000Y-105667677D02*
X158945000Y-105667677D01*
X148860000Y-105627677D02*
X158940000Y-105627677D01*
X148865000Y-105587677D02*
X158935000Y-105587677D01*
X148870000Y-105546677D02*
X158930000Y-105546677D01*
X148876000Y-105506677D02*
X158924000Y-105506677D01*
X148882000Y-105466677D02*
X158918000Y-105466677D01*
X148889000Y-105426677D02*
X158911000Y-105426677D01*
X148896000Y-105386677D02*
X158904000Y-105386677D01*
X148903000Y-105346677D02*
X158897000Y-105346677D01*
X148910000Y-105306677D02*
X158890000Y-105306677D01*
X148918000Y-105266677D02*
X158882000Y-105266677D01*
X148926000Y-105226677D02*
X158874000Y-105226677D01*
X148935000Y-105186677D02*
X158865000Y-105186677D01*
X148944000Y-105146677D02*
X158856000Y-105146677D01*
X148953000Y-105106677D02*
X158847000Y-105106677D01*
X148962000Y-105066677D02*
X158838000Y-105066677D01*
X148972000Y-105026677D02*
X158828000Y-105026677D01*
X148982000Y-104986677D02*
X152659000Y-104986677D01*
X155141000Y-104986677D02*
X158818000Y-104986677D01*
X148993000Y-104946677D02*
X152659000Y-104946677D01*
X155141000Y-104946677D02*
X158807000Y-104946677D01*
X149003000Y-104906677D02*
X152659000Y-104906677D01*
X155141000Y-104906677D02*
X158797000Y-104906677D01*
X149015000Y-104866677D02*
X152659000Y-104866677D01*
X155141000Y-104866677D02*
X158785000Y-104866677D01*
X149026000Y-104826677D02*
X152659000Y-104826677D01*
X155141000Y-104826677D02*
X158774000Y-104826677D01*
X149038000Y-104786677D02*
X152659000Y-104786677D01*
X155141000Y-104786677D02*
X158762000Y-104786677D01*
X149050000Y-104746677D02*
X152659000Y-104746677D01*
X155141000Y-104746677D02*
X158750000Y-104746677D01*
X149063000Y-104706677D02*
X152659000Y-104706677D01*
X155141000Y-104706677D02*
X158737000Y-104706677D01*
X149076000Y-104666677D02*
X152659000Y-104666677D01*
X155141000Y-104666677D02*
X158724000Y-104666677D01*
X149089000Y-104626677D02*
X152659000Y-104626677D01*
X155141000Y-104626677D02*
X158711000Y-104626677D01*
X149103000Y-104586677D02*
X152659000Y-104586677D01*
X155141000Y-104586677D02*
X158697000Y-104586677D01*
X149117000Y-104546677D02*
X152659000Y-104546677D01*
X155141000Y-104546677D02*
X158683000Y-104546677D01*
X149132000Y-104506677D02*
X152659000Y-104506677D01*
X155141000Y-104506677D02*
X158668000Y-104506677D01*
X149146000Y-104466677D02*
X152659000Y-104466677D01*
X155141000Y-104466677D02*
X158654000Y-104466677D01*
X149162000Y-104426677D02*
X152659000Y-104426677D01*
X155141000Y-104426677D02*
X158638000Y-104426677D01*
X149177000Y-104386677D02*
X152659000Y-104386677D01*
X155141000Y-104386677D02*
X158623000Y-104386677D01*
X149193000Y-104346677D02*
X152659000Y-104346677D01*
X155141000Y-104346677D02*
X158607000Y-104346677D01*
X149210000Y-104306677D02*
X152659000Y-104306677D01*
X155141000Y-104306677D02*
X158590000Y-104306677D01*
X149226000Y-104266677D02*
X152659000Y-104266677D01*
X155141000Y-104266677D02*
X158574000Y-104266677D01*
X149243000Y-104226677D02*
X152659000Y-104226677D01*
X155141000Y-104226677D02*
X158557000Y-104226677D01*
X149261000Y-104186677D02*
X152659000Y-104186677D01*
X155141000Y-104186677D02*
X158539000Y-104186677D01*
X149279000Y-104146677D02*
X152659000Y-104146677D01*
X155141000Y-104146677D02*
X158521000Y-104146677D01*
X149297000Y-104106677D02*
X152659000Y-104106677D01*
X155141000Y-104106677D02*
X158503000Y-104106677D01*
X149316000Y-104066677D02*
X152659000Y-104066677D01*
X155141000Y-104066677D02*
X158484000Y-104066677D01*
X149336000Y-104026677D02*
X152659000Y-104026677D01*
X155141000Y-104026677D02*
X158464000Y-104026677D01*
X149355000Y-103986677D02*
X152659000Y-103986677D01*
X155141000Y-103986677D02*
X158445000Y-103986677D01*
X149375000Y-103946677D02*
X152659000Y-103946677D01*
X155141000Y-103946677D02*
X158425000Y-103946677D01*
X149396000Y-103906677D02*
X152659000Y-103906677D01*
X155141000Y-103906677D02*
X158404000Y-103906677D01*
X149417000Y-103866677D02*
X152659000Y-103866677D01*
X155141000Y-103866677D02*
X158383000Y-103866677D01*
X149438000Y-103826677D02*
X152659000Y-103826677D01*
X155141000Y-103826677D02*
X158362000Y-103826677D01*
X149460000Y-103786677D02*
X152659000Y-103786677D01*
X155141000Y-103786677D02*
X158340000Y-103786677D01*
X149483000Y-103746677D02*
X152659000Y-103746677D01*
X155141000Y-103746677D02*
X158317000Y-103746677D01*
X149505000Y-103706677D02*
X152659000Y-103706677D01*
X155141000Y-103706677D02*
X158295000Y-103706677D01*
X149529000Y-103666677D02*
X152659000Y-103666677D01*
X155141000Y-103666677D02*
X158271000Y-103666677D01*
X149553000Y-103626677D02*
X152659000Y-103626677D01*
X155141000Y-103626677D02*
X158247000Y-103626677D01*
X149577000Y-103586677D02*
X152659000Y-103586677D01*
X155141000Y-103586677D02*
X158223000Y-103586677D01*
X149602000Y-103546677D02*
X152659000Y-103546677D01*
X155141000Y-103546677D02*
X158198000Y-103546677D01*
X149627000Y-103506677D02*
X152659000Y-103506677D01*
X155141000Y-103506677D02*
X158173000Y-103506677D01*
X149653000Y-103466677D02*
X152659000Y-103466677D01*
X155141000Y-103466677D02*
X158147000Y-103466677D01*
X149679000Y-103426677D02*
X152659000Y-103426677D01*
X155141000Y-103426677D02*
X158121000Y-103426677D01*
X149706000Y-103386677D02*
X152659000Y-103386677D01*
X155141000Y-103386677D02*
X158094000Y-103386677D01*
X149734000Y-103346677D02*
X152659000Y-103346677D01*
X155141000Y-103346677D02*
X158066000Y-103346677D01*
X149762000Y-103306677D02*
X152659000Y-103306677D01*
X155141000Y-103306677D02*
X158038000Y-103306677D01*
X149790000Y-103266677D02*
X152659000Y-103266677D01*
X155141000Y-103266677D02*
X158010000Y-103266677D01*
X149820000Y-103226677D02*
X152659000Y-103226677D01*
X155141000Y-103226677D02*
X157980000Y-103226677D01*
X149850000Y-103186677D02*
X152659000Y-103186677D01*
X155141000Y-103186677D02*
X157950000Y-103186677D01*
X149880000Y-103146677D02*
X152659000Y-103146677D01*
X155141000Y-103146677D02*
X157920000Y-103146677D01*
X149911000Y-103106677D02*
X152659000Y-103106677D01*
X155141000Y-103106677D02*
X157889000Y-103106677D01*
X149943000Y-103066677D02*
X152659000Y-103066677D01*
X155141000Y-103066677D02*
X157857000Y-103066677D01*
X149975000Y-103026677D02*
X152659000Y-103026677D01*
X155141000Y-103026677D02*
X157825000Y-103026677D01*
X150008000Y-102986677D02*
X152659000Y-102986677D01*
X155141000Y-102986677D02*
X157792000Y-102986677D01*
X150042000Y-102946677D02*
X152659000Y-102946677D01*
X155141000Y-102946677D02*
X157758000Y-102946677D01*
X150076000Y-102906677D02*
X152659000Y-102906677D01*
X155141000Y-102906677D02*
X157724000Y-102906677D01*
X150111000Y-102866677D02*
X152659000Y-102866677D01*
X155141000Y-102866677D02*
X157689000Y-102866677D01*
X150147000Y-102826677D02*
X152659000Y-102826677D01*
X155141000Y-102826677D02*
X157653000Y-102826677D01*
X150184000Y-102786677D02*
X152659000Y-102786677D01*
X155141000Y-102786677D02*
X157616000Y-102786677D01*
X150221000Y-102746677D02*
X152659000Y-102746677D01*
X155141000Y-102746677D02*
X157579000Y-102746677D01*
X150260000Y-102706677D02*
X152659000Y-102706677D01*
X155141000Y-102706677D02*
X157540000Y-102706677D01*
X150299000Y-102666677D02*
X152659000Y-102666677D01*
X155141000Y-102666677D02*
X157501000Y-102666677D01*
X150339000Y-102626677D02*
X152659000Y-102626677D01*
X155141000Y-102626677D02*
X157461000Y-102626677D01*
X150380000Y-102586677D02*
X152659000Y-102586677D01*
X155141000Y-102586677D02*
X157420000Y-102586677D01*
X150422000Y-102546677D02*
X152659000Y-102546677D01*
X155141000Y-102546677D02*
X157378000Y-102546677D01*
X150464000Y-102506677D02*
X157336000Y-102506677D01*
X150508000Y-102466677D02*
X157292000Y-102466677D01*
X150553000Y-102426677D02*
X157247000Y-102426677D01*
X150599000Y-102386677D02*
X157201000Y-102386677D01*
X150646000Y-102346677D02*
X157154000Y-102346677D01*
X150694000Y-102306677D02*
X157106000Y-102306677D01*
X150744000Y-102266677D02*
X157056000Y-102266677D01*
X150794000Y-102226677D02*
X157006000Y-102226677D01*
X150846000Y-102186677D02*
X156954000Y-102186677D01*
X150900000Y-102146677D02*
X156900000Y-102146677D01*
X150955000Y-102106677D02*
X156845000Y-102106677D01*
X151011000Y-102066677D02*
X156789000Y-102066677D01*
X151070000Y-102026677D02*
X156730000Y-102026677D01*
X151130000Y-101986677D02*
X156670000Y-101986677D01*
X151191000Y-101946677D02*
X156609000Y-101946677D01*
X151255000Y-101906677D02*
X156545000Y-101906677D01*
X151321000Y-101866677D02*
X156479000Y-101866677D01*
X151390000Y-101826677D02*
X156410000Y-101826677D01*
X151461000Y-101786677D02*
X156339000Y-101786677D01*
X151535000Y-101746677D02*
X156265000Y-101746677D01*
X151611000Y-101706677D02*
X156189000Y-101706677D01*
X151691000Y-101666677D02*
X156109000Y-101666677D01*
X151775000Y-101626677D02*
X156025000Y-101626677D01*
X151863000Y-101586677D02*
X155937000Y-101586677D01*
X151956000Y-101546677D02*
X155844000Y-101546677D01*
X152054000Y-101506677D02*
X155746000Y-101506677D01*
X152158000Y-101466677D02*
X155642000Y-101466677D01*
X152270000Y-101426677D02*
X155530000Y-101426677D01*
X152390000Y-101386677D02*
X155410000Y-101386677D01*
X152522000Y-101346677D02*
X155278000Y-101346677D01*
X152670000Y-101306677D02*
X155130000Y-101306677D01*
X152838000Y-101266677D02*
X154962000Y-101266677D01*
X153038000Y-101226677D02*
X154762000Y-101226677D01*
X153301000Y-101186677D02*
X154499000Y-101186677D01*
X159020000Y-106267677D02*
G75*
G03*
X159020000Y-106267677I-5120000J0D01*
G01*
%TO.C,RV1*%
X138975000Y-94270000D02*
X138975000Y-99340000D01*
X138975000Y-94270000D02*
X148745000Y-94270000D01*
X138975000Y-99340000D02*
X148745000Y-99340000D01*
X148745000Y-94270000D02*
X148745000Y-99340000D01*
%TO.C,C18*%
X131879646Y-85275000D02*
X130879646Y-85275000D01*
X131379646Y-85775000D02*
X131379646Y-84775000D01*
X126400000Y-87480000D02*
X126400000Y-77320000D01*
X126360000Y-87480000D02*
X126360000Y-77320000D01*
X126320000Y-87480000D02*
X126320000Y-77320000D01*
X126280000Y-87479000D02*
X126280000Y-77321000D01*
X126240000Y-87478000D02*
X126240000Y-77322000D01*
X126200000Y-87477000D02*
X126200000Y-77323000D01*
X126160000Y-87475000D02*
X126160000Y-77325000D01*
X126120000Y-87473000D02*
X126120000Y-77327000D01*
X126080000Y-87470000D02*
X126080000Y-77330000D01*
X126040000Y-87468000D02*
X126040000Y-77332000D01*
X126000000Y-87465000D02*
X126000000Y-77335000D01*
X125960000Y-87462000D02*
X125960000Y-77338000D01*
X125920000Y-87458000D02*
X125920000Y-77342000D01*
X125880000Y-87454000D02*
X125880000Y-77346000D01*
X125840000Y-87450000D02*
X125840000Y-77350000D01*
X125800000Y-87445000D02*
X125800000Y-77355000D01*
X125760000Y-87440000D02*
X125760000Y-77360000D01*
X125720000Y-87435000D02*
X125720000Y-77365000D01*
X125679000Y-87430000D02*
X125679000Y-77370000D01*
X125639000Y-87424000D02*
X125639000Y-77376000D01*
X125599000Y-87418000D02*
X125599000Y-77382000D01*
X125559000Y-87411000D02*
X125559000Y-77389000D01*
X125519000Y-87404000D02*
X125519000Y-77396000D01*
X125479000Y-87397000D02*
X125479000Y-77403000D01*
X125439000Y-87390000D02*
X125439000Y-77410000D01*
X125399000Y-87382000D02*
X125399000Y-77418000D01*
X125359000Y-87374000D02*
X125359000Y-77426000D01*
X125319000Y-87365000D02*
X125319000Y-77435000D01*
X125279000Y-87356000D02*
X125279000Y-77444000D01*
X125239000Y-87347000D02*
X125239000Y-77453000D01*
X125199000Y-87338000D02*
X125199000Y-77462000D01*
X125159000Y-87328000D02*
X125159000Y-77472000D01*
X125119000Y-87318000D02*
X125119000Y-83641000D01*
X125119000Y-81159000D02*
X125119000Y-77482000D01*
X125079000Y-87307000D02*
X125079000Y-83641000D01*
X125079000Y-81159000D02*
X125079000Y-77493000D01*
X125039000Y-87297000D02*
X125039000Y-83641000D01*
X125039000Y-81159000D02*
X125039000Y-77503000D01*
X124999000Y-87285000D02*
X124999000Y-83641000D01*
X124999000Y-81159000D02*
X124999000Y-77515000D01*
X124959000Y-87274000D02*
X124959000Y-83641000D01*
X124959000Y-81159000D02*
X124959000Y-77526000D01*
X124919000Y-87262000D02*
X124919000Y-83641000D01*
X124919000Y-81159000D02*
X124919000Y-77538000D01*
X124879000Y-87250000D02*
X124879000Y-83641000D01*
X124879000Y-81159000D02*
X124879000Y-77550000D01*
X124839000Y-87237000D02*
X124839000Y-83641000D01*
X124839000Y-81159000D02*
X124839000Y-77563000D01*
X124799000Y-87224000D02*
X124799000Y-83641000D01*
X124799000Y-81159000D02*
X124799000Y-77576000D01*
X124759000Y-87211000D02*
X124759000Y-83641000D01*
X124759000Y-81159000D02*
X124759000Y-77589000D01*
X124719000Y-87197000D02*
X124719000Y-83641000D01*
X124719000Y-81159000D02*
X124719000Y-77603000D01*
X124679000Y-87183000D02*
X124679000Y-83641000D01*
X124679000Y-81159000D02*
X124679000Y-77617000D01*
X124639000Y-87168000D02*
X124639000Y-83641000D01*
X124639000Y-81159000D02*
X124639000Y-77632000D01*
X124599000Y-87154000D02*
X124599000Y-83641000D01*
X124599000Y-81159000D02*
X124599000Y-77646000D01*
X124559000Y-87138000D02*
X124559000Y-83641000D01*
X124559000Y-81159000D02*
X124559000Y-77662000D01*
X124519000Y-87123000D02*
X124519000Y-83641000D01*
X124519000Y-81159000D02*
X124519000Y-77677000D01*
X124479000Y-87107000D02*
X124479000Y-83641000D01*
X124479000Y-81159000D02*
X124479000Y-77693000D01*
X124439000Y-87090000D02*
X124439000Y-83641000D01*
X124439000Y-81159000D02*
X124439000Y-77710000D01*
X124399000Y-87074000D02*
X124399000Y-83641000D01*
X124399000Y-81159000D02*
X124399000Y-77726000D01*
X124359000Y-87057000D02*
X124359000Y-83641000D01*
X124359000Y-81159000D02*
X124359000Y-77743000D01*
X124319000Y-87039000D02*
X124319000Y-83641000D01*
X124319000Y-81159000D02*
X124319000Y-77761000D01*
X124279000Y-87021000D02*
X124279000Y-83641000D01*
X124279000Y-81159000D02*
X124279000Y-77779000D01*
X124239000Y-87003000D02*
X124239000Y-83641000D01*
X124239000Y-81159000D02*
X124239000Y-77797000D01*
X124199000Y-86984000D02*
X124199000Y-83641000D01*
X124199000Y-81159000D02*
X124199000Y-77816000D01*
X124159000Y-86964000D02*
X124159000Y-83641000D01*
X124159000Y-81159000D02*
X124159000Y-77836000D01*
X124119000Y-86945000D02*
X124119000Y-83641000D01*
X124119000Y-81159000D02*
X124119000Y-77855000D01*
X124079000Y-86925000D02*
X124079000Y-83641000D01*
X124079000Y-81159000D02*
X124079000Y-77875000D01*
X124039000Y-86904000D02*
X124039000Y-83641000D01*
X124039000Y-81159000D02*
X124039000Y-77896000D01*
X123999000Y-86883000D02*
X123999000Y-83641000D01*
X123999000Y-81159000D02*
X123999000Y-77917000D01*
X123959000Y-86862000D02*
X123959000Y-83641000D01*
X123959000Y-81159000D02*
X123959000Y-77938000D01*
X123919000Y-86840000D02*
X123919000Y-83641000D01*
X123919000Y-81159000D02*
X123919000Y-77960000D01*
X123879000Y-86817000D02*
X123879000Y-83641000D01*
X123879000Y-81159000D02*
X123879000Y-77983000D01*
X123839000Y-86795000D02*
X123839000Y-83641000D01*
X123839000Y-81159000D02*
X123839000Y-78005000D01*
X123799000Y-86771000D02*
X123799000Y-83641000D01*
X123799000Y-81159000D02*
X123799000Y-78029000D01*
X123759000Y-86747000D02*
X123759000Y-83641000D01*
X123759000Y-81159000D02*
X123759000Y-78053000D01*
X123719000Y-86723000D02*
X123719000Y-83641000D01*
X123719000Y-81159000D02*
X123719000Y-78077000D01*
X123679000Y-86698000D02*
X123679000Y-83641000D01*
X123679000Y-81159000D02*
X123679000Y-78102000D01*
X123639000Y-86673000D02*
X123639000Y-83641000D01*
X123639000Y-81159000D02*
X123639000Y-78127000D01*
X123599000Y-86647000D02*
X123599000Y-83641000D01*
X123599000Y-81159000D02*
X123599000Y-78153000D01*
X123559000Y-86621000D02*
X123559000Y-83641000D01*
X123559000Y-81159000D02*
X123559000Y-78179000D01*
X123519000Y-86594000D02*
X123519000Y-83641000D01*
X123519000Y-81159000D02*
X123519000Y-78206000D01*
X123479000Y-86566000D02*
X123479000Y-83641000D01*
X123479000Y-81159000D02*
X123479000Y-78234000D01*
X123439000Y-86538000D02*
X123439000Y-83641000D01*
X123439000Y-81159000D02*
X123439000Y-78262000D01*
X123399000Y-86510000D02*
X123399000Y-83641000D01*
X123399000Y-81159000D02*
X123399000Y-78290000D01*
X123359000Y-86480000D02*
X123359000Y-83641000D01*
X123359000Y-81159000D02*
X123359000Y-78320000D01*
X123319000Y-86450000D02*
X123319000Y-83641000D01*
X123319000Y-81159000D02*
X123319000Y-78350000D01*
X123279000Y-86420000D02*
X123279000Y-83641000D01*
X123279000Y-81159000D02*
X123279000Y-78380000D01*
X123239000Y-86389000D02*
X123239000Y-83641000D01*
X123239000Y-81159000D02*
X123239000Y-78411000D01*
X123199000Y-86357000D02*
X123199000Y-83641000D01*
X123199000Y-81159000D02*
X123199000Y-78443000D01*
X123159000Y-86325000D02*
X123159000Y-83641000D01*
X123159000Y-81159000D02*
X123159000Y-78475000D01*
X123119000Y-86292000D02*
X123119000Y-83641000D01*
X123119000Y-81159000D02*
X123119000Y-78508000D01*
X123079000Y-86258000D02*
X123079000Y-83641000D01*
X123079000Y-81159000D02*
X123079000Y-78542000D01*
X123039000Y-86224000D02*
X123039000Y-83641000D01*
X123039000Y-81159000D02*
X123039000Y-78576000D01*
X122999000Y-86189000D02*
X122999000Y-83641000D01*
X122999000Y-81159000D02*
X122999000Y-78611000D01*
X122959000Y-86153000D02*
X122959000Y-83641000D01*
X122959000Y-81159000D02*
X122959000Y-78647000D01*
X122919000Y-86116000D02*
X122919000Y-83641000D01*
X122919000Y-81159000D02*
X122919000Y-78684000D01*
X122879000Y-86079000D02*
X122879000Y-83641000D01*
X122879000Y-81159000D02*
X122879000Y-78721000D01*
X122839000Y-86040000D02*
X122839000Y-83641000D01*
X122839000Y-81159000D02*
X122839000Y-78760000D01*
X122799000Y-86001000D02*
X122799000Y-83641000D01*
X122799000Y-81159000D02*
X122799000Y-78799000D01*
X122759000Y-85961000D02*
X122759000Y-83641000D01*
X122759000Y-81159000D02*
X122759000Y-78839000D01*
X122719000Y-85920000D02*
X122719000Y-83641000D01*
X122719000Y-81159000D02*
X122719000Y-78880000D01*
X122679000Y-85878000D02*
X122679000Y-83641000D01*
X122679000Y-81159000D02*
X122679000Y-78922000D01*
X122639000Y-85836000D02*
X122639000Y-78964000D01*
X122599000Y-85792000D02*
X122599000Y-79008000D01*
X122559000Y-85747000D02*
X122559000Y-79053000D01*
X122519000Y-85701000D02*
X122519000Y-79099000D01*
X122479000Y-85654000D02*
X122479000Y-79146000D01*
X122439000Y-85606000D02*
X122439000Y-79194000D01*
X122399000Y-85556000D02*
X122399000Y-79244000D01*
X122359000Y-85506000D02*
X122359000Y-79294000D01*
X122319000Y-85454000D02*
X122319000Y-79346000D01*
X122279000Y-85400000D02*
X122279000Y-79400000D01*
X122239000Y-85345000D02*
X122239000Y-79455000D01*
X122199000Y-85289000D02*
X122199000Y-79511000D01*
X122159000Y-85230000D02*
X122159000Y-79570000D01*
X122119000Y-85170000D02*
X122119000Y-79630000D01*
X122079000Y-85109000D02*
X122079000Y-79691000D01*
X122039000Y-85045000D02*
X122039000Y-79755000D01*
X121999000Y-84979000D02*
X121999000Y-79821000D01*
X121959000Y-84910000D02*
X121959000Y-79890000D01*
X121919000Y-84839000D02*
X121919000Y-79961000D01*
X121879000Y-84765000D02*
X121879000Y-80035000D01*
X121839000Y-84689000D02*
X121839000Y-80111000D01*
X121799000Y-84609000D02*
X121799000Y-80191000D01*
X121759000Y-84525000D02*
X121759000Y-80275000D01*
X121719000Y-84437000D02*
X121719000Y-80363000D01*
X121679000Y-84344000D02*
X121679000Y-80456000D01*
X121639000Y-84246000D02*
X121639000Y-80554000D01*
X121599000Y-84142000D02*
X121599000Y-80658000D01*
X121559000Y-84030000D02*
X121559000Y-80770000D01*
X121519000Y-83910000D02*
X121519000Y-80890000D01*
X121479000Y-83778000D02*
X121479000Y-81022000D01*
X121439000Y-83630000D02*
X121439000Y-81170000D01*
X121399000Y-83462000D02*
X121399000Y-81338000D01*
X121359000Y-83262000D02*
X121359000Y-81538000D01*
X121319000Y-82999000D02*
X121319000Y-81801000D01*
X131520000Y-82400000D02*
G75*
G03*
X131520000Y-82400000I-5120000J0D01*
G01*
%TO.C,C15*%
X134270000Y-88780000D02*
X133565000Y-88780000D01*
X134270000Y-88780000D02*
X134270000Y-98020000D01*
X132235000Y-88780000D02*
X131530000Y-88780000D01*
X131530000Y-88780000D02*
X131530000Y-98020000D01*
X134270000Y-98020000D02*
X133565000Y-98020000D01*
X132235000Y-98020000D02*
X131530000Y-98020000D01*
%TO.C,C17*%
X172580000Y-86530000D02*
X172580000Y-87235000D01*
X172580000Y-86530000D02*
X181820000Y-86530000D01*
X172580000Y-88565000D02*
X172580000Y-89270000D01*
X172580000Y-89270000D02*
X181820000Y-89270000D01*
X181820000Y-86530000D02*
X181820000Y-87235000D01*
X181820000Y-88565000D02*
X181820000Y-89270000D01*
%TO.C,R24*%
X151120000Y-86220000D02*
X151120000Y-79580000D01*
X151120000Y-79580000D02*
X144480000Y-79580000D01*
X144480000Y-86220000D02*
X151120000Y-86220000D01*
X144480000Y-82900000D02*
X141680000Y-82900000D01*
X144480000Y-79580000D02*
X144480000Y-86220000D01*
%TO.C,R25*%
X173270000Y-79480000D02*
X173270000Y-86120000D01*
X173270000Y-86120000D02*
X179910000Y-86120000D01*
X179910000Y-79480000D02*
X173270000Y-79480000D01*
X179910000Y-82800000D02*
X182710000Y-82800000D01*
X179910000Y-86120000D02*
X179910000Y-79480000D01*
%TO.C,J4*%
X202470000Y-90970000D02*
X203800000Y-90970000D01*
X202470000Y-92300000D02*
X202470000Y-90970000D01*
X202470000Y-93570000D02*
X202470000Y-93630000D01*
X202470000Y-93570000D02*
X205130000Y-93570000D01*
X202470000Y-93630000D02*
X205130000Y-93630000D01*
X205130000Y-93570000D02*
X205130000Y-93630000D01*
%TO.C,Q6*%
X193660000Y-100820000D02*
X193660000Y-97330000D01*
X193660000Y-100820000D02*
X185420000Y-100820000D01*
X193660000Y-97330000D02*
X185420000Y-97330000D01*
X191140000Y-100820000D02*
X191140000Y-99750000D01*
X191140000Y-97650000D02*
X191140000Y-97330000D01*
X187939000Y-100820000D02*
X187939000Y-99240000D01*
X187939000Y-98160000D02*
X187939000Y-97330000D01*
X185420000Y-100820000D02*
X185420000Y-97330000D01*
%TO.C,R28*%
X168080000Y-92300000D02*
X165080000Y-92300000D01*
X174320000Y-92300000D02*
G75*
G03*
X174320000Y-92300000I-3120000J0D01*
G01*
%TO.C,R12*%
X187000000Y-87560000D02*
X187000000Y-86870000D01*
X185280000Y-86870000D02*
X188720000Y-86870000D01*
X188720000Y-86870000D02*
X188720000Y-77630000D01*
X185280000Y-77630000D02*
X185280000Y-86870000D01*
X188720000Y-77630000D02*
X185280000Y-77630000D01*
X187000000Y-76940000D02*
X187000000Y-77630000D01*
%TO.C,Q4*%
X172980000Y-112100000D02*
X172980000Y-115700000D01*
X177179999Y-112760000D02*
G75*
G03*
X175933842Y-111532802I-2349999J-1140000D01*
G01*
X173707205Y-111575817D02*
G75*
G03*
X172980001Y-112100001I1122795J-2324183D01*
G01*
X175928371Y-116255457D02*
G75*
G03*
X177180000Y-115010000I-1098371J2355457D01*
G01*
X172980001Y-115699999D02*
G75*
G03*
X173707205Y-116224183I1849999J1799999D01*
G01*
%TO.C,J1*%
X126170000Y-93070000D02*
X127500000Y-93070000D01*
X126170000Y-94400000D02*
X126170000Y-93070000D01*
X126170000Y-95670000D02*
X126170000Y-95730000D01*
X126170000Y-95670000D02*
X128830000Y-95670000D01*
X126170000Y-95730000D02*
X128830000Y-95730000D01*
X128830000Y-95670000D02*
X128830000Y-95730000D01*
%TO.C,Q10*%
X136860000Y-93350000D02*
X140460000Y-93350000D01*
X138660000Y-88900001D02*
G75*
G03*
X136303601Y-90401193I0J-2599999D01*
G01*
X136335817Y-92622795D02*
G75*
G03*
X136860001Y-93349999I2324183J1122795D01*
G01*
X141016400Y-90401193D02*
G75*
G03*
X138660000Y-88900000I-2356400J-1098807D01*
G01*
X140459999Y-93349999D02*
G75*
G03*
X140984183Y-92622795I-1799999J1849999D01*
G01*
%TO.C,Q11*%
X173150000Y-115700000D02*
X173150000Y-112100000D01*
X168950001Y-115040000D02*
G75*
G03*
X170196158Y-116267198I2349999J1140000D01*
G01*
X172422795Y-116224183D02*
G75*
G03*
X173149999Y-115699999I-1122795J2324183D01*
G01*
X170201629Y-111544543D02*
G75*
G03*
X168950000Y-112790000I1098371J-2355457D01*
G01*
X173149999Y-112100001D02*
G75*
G03*
X172422795Y-111575817I-1849999J-1799999D01*
G01*
%TO.C,Q13*%
X174780000Y-70680000D02*
X174780000Y-74170000D01*
X174780000Y-70680000D02*
X183020000Y-70680000D01*
X174780000Y-74170000D02*
X183020000Y-74170000D01*
X177300000Y-70680000D02*
X177300000Y-71750000D01*
X177300000Y-73850000D02*
X177300000Y-74170000D01*
X180501000Y-70680000D02*
X180501000Y-72260000D01*
X180501000Y-73340000D02*
X180501000Y-74170000D01*
X183020000Y-70680000D02*
X183020000Y-74170000D01*
%TO.C,C12*%
X209047323Y-103275000D02*
X208047323Y-103275000D01*
X208547323Y-103775000D02*
X208547323Y-102775000D01*
X203567677Y-105480000D02*
X203567677Y-95320000D01*
X203527677Y-105480000D02*
X203527677Y-95320000D01*
X203487677Y-105480000D02*
X203487677Y-95320000D01*
X203447677Y-105479000D02*
X203447677Y-95321000D01*
X203407677Y-105478000D02*
X203407677Y-95322000D01*
X203367677Y-105477000D02*
X203367677Y-95323000D01*
X203327677Y-105475000D02*
X203327677Y-95325000D01*
X203287677Y-105473000D02*
X203287677Y-95327000D01*
X203247677Y-105470000D02*
X203247677Y-95330000D01*
X203207677Y-105468000D02*
X203207677Y-95332000D01*
X203167677Y-105465000D02*
X203167677Y-95335000D01*
X203127677Y-105462000D02*
X203127677Y-95338000D01*
X203087677Y-105458000D02*
X203087677Y-95342000D01*
X203047677Y-105454000D02*
X203047677Y-95346000D01*
X203007677Y-105450000D02*
X203007677Y-95350000D01*
X202967677Y-105445000D02*
X202967677Y-95355000D01*
X202927677Y-105440000D02*
X202927677Y-95360000D01*
X202887677Y-105435000D02*
X202887677Y-95365000D01*
X202846677Y-105430000D02*
X202846677Y-95370000D01*
X202806677Y-105424000D02*
X202806677Y-95376000D01*
X202766677Y-105418000D02*
X202766677Y-95382000D01*
X202726677Y-105411000D02*
X202726677Y-95389000D01*
X202686677Y-105404000D02*
X202686677Y-95396000D01*
X202646677Y-105397000D02*
X202646677Y-95403000D01*
X202606677Y-105390000D02*
X202606677Y-95410000D01*
X202566677Y-105382000D02*
X202566677Y-95418000D01*
X202526677Y-105374000D02*
X202526677Y-95426000D01*
X202486677Y-105365000D02*
X202486677Y-95435000D01*
X202446677Y-105356000D02*
X202446677Y-95444000D01*
X202406677Y-105347000D02*
X202406677Y-95453000D01*
X202366677Y-105338000D02*
X202366677Y-95462000D01*
X202326677Y-105328000D02*
X202326677Y-95472000D01*
X202286677Y-105318000D02*
X202286677Y-101641000D01*
X202286677Y-99159000D02*
X202286677Y-95482000D01*
X202246677Y-105307000D02*
X202246677Y-101641000D01*
X202246677Y-99159000D02*
X202246677Y-95493000D01*
X202206677Y-105297000D02*
X202206677Y-101641000D01*
X202206677Y-99159000D02*
X202206677Y-95503000D01*
X202166677Y-105285000D02*
X202166677Y-101641000D01*
X202166677Y-99159000D02*
X202166677Y-95515000D01*
X202126677Y-105274000D02*
X202126677Y-101641000D01*
X202126677Y-99159000D02*
X202126677Y-95526000D01*
X202086677Y-105262000D02*
X202086677Y-101641000D01*
X202086677Y-99159000D02*
X202086677Y-95538000D01*
X202046677Y-105250000D02*
X202046677Y-101641000D01*
X202046677Y-99159000D02*
X202046677Y-95550000D01*
X202006677Y-105237000D02*
X202006677Y-101641000D01*
X202006677Y-99159000D02*
X202006677Y-95563000D01*
X201966677Y-105224000D02*
X201966677Y-101641000D01*
X201966677Y-99159000D02*
X201966677Y-95576000D01*
X201926677Y-105211000D02*
X201926677Y-101641000D01*
X201926677Y-99159000D02*
X201926677Y-95589000D01*
X201886677Y-105197000D02*
X201886677Y-101641000D01*
X201886677Y-99159000D02*
X201886677Y-95603000D01*
X201846677Y-105183000D02*
X201846677Y-101641000D01*
X201846677Y-99159000D02*
X201846677Y-95617000D01*
X201806677Y-105168000D02*
X201806677Y-101641000D01*
X201806677Y-99159000D02*
X201806677Y-95632000D01*
X201766677Y-105154000D02*
X201766677Y-101641000D01*
X201766677Y-99159000D02*
X201766677Y-95646000D01*
X201726677Y-105138000D02*
X201726677Y-101641000D01*
X201726677Y-99159000D02*
X201726677Y-95662000D01*
X201686677Y-105123000D02*
X201686677Y-101641000D01*
X201686677Y-99159000D02*
X201686677Y-95677000D01*
X201646677Y-105107000D02*
X201646677Y-101641000D01*
X201646677Y-99159000D02*
X201646677Y-95693000D01*
X201606677Y-105090000D02*
X201606677Y-101641000D01*
X201606677Y-99159000D02*
X201606677Y-95710000D01*
X201566677Y-105074000D02*
X201566677Y-101641000D01*
X201566677Y-99159000D02*
X201566677Y-95726000D01*
X201526677Y-105057000D02*
X201526677Y-101641000D01*
X201526677Y-99159000D02*
X201526677Y-95743000D01*
X201486677Y-105039000D02*
X201486677Y-101641000D01*
X201486677Y-99159000D02*
X201486677Y-95761000D01*
X201446677Y-105021000D02*
X201446677Y-101641000D01*
X201446677Y-99159000D02*
X201446677Y-95779000D01*
X201406677Y-105003000D02*
X201406677Y-101641000D01*
X201406677Y-99159000D02*
X201406677Y-95797000D01*
X201366677Y-104984000D02*
X201366677Y-101641000D01*
X201366677Y-99159000D02*
X201366677Y-95816000D01*
X201326677Y-104964000D02*
X201326677Y-101641000D01*
X201326677Y-99159000D02*
X201326677Y-95836000D01*
X201286677Y-104945000D02*
X201286677Y-101641000D01*
X201286677Y-99159000D02*
X201286677Y-95855000D01*
X201246677Y-104925000D02*
X201246677Y-101641000D01*
X201246677Y-99159000D02*
X201246677Y-95875000D01*
X201206677Y-104904000D02*
X201206677Y-101641000D01*
X201206677Y-99159000D02*
X201206677Y-95896000D01*
X201166677Y-104883000D02*
X201166677Y-101641000D01*
X201166677Y-99159000D02*
X201166677Y-95917000D01*
X201126677Y-104862000D02*
X201126677Y-101641000D01*
X201126677Y-99159000D02*
X201126677Y-95938000D01*
X201086677Y-104840000D02*
X201086677Y-101641000D01*
X201086677Y-99159000D02*
X201086677Y-95960000D01*
X201046677Y-104817000D02*
X201046677Y-101641000D01*
X201046677Y-99159000D02*
X201046677Y-95983000D01*
X201006677Y-104795000D02*
X201006677Y-101641000D01*
X201006677Y-99159000D02*
X201006677Y-96005000D01*
X200966677Y-104771000D02*
X200966677Y-101641000D01*
X200966677Y-99159000D02*
X200966677Y-96029000D01*
X200926677Y-104747000D02*
X200926677Y-101641000D01*
X200926677Y-99159000D02*
X200926677Y-96053000D01*
X200886677Y-104723000D02*
X200886677Y-101641000D01*
X200886677Y-99159000D02*
X200886677Y-96077000D01*
X200846677Y-104698000D02*
X200846677Y-101641000D01*
X200846677Y-99159000D02*
X200846677Y-96102000D01*
X200806677Y-104673000D02*
X200806677Y-101641000D01*
X200806677Y-99159000D02*
X200806677Y-96127000D01*
X200766677Y-104647000D02*
X200766677Y-101641000D01*
X200766677Y-99159000D02*
X200766677Y-96153000D01*
X200726677Y-104621000D02*
X200726677Y-101641000D01*
X200726677Y-99159000D02*
X200726677Y-96179000D01*
X200686677Y-104594000D02*
X200686677Y-101641000D01*
X200686677Y-99159000D02*
X200686677Y-96206000D01*
X200646677Y-104566000D02*
X200646677Y-101641000D01*
X200646677Y-99159000D02*
X200646677Y-96234000D01*
X200606677Y-104538000D02*
X200606677Y-101641000D01*
X200606677Y-99159000D02*
X200606677Y-96262000D01*
X200566677Y-104510000D02*
X200566677Y-101641000D01*
X200566677Y-99159000D02*
X200566677Y-96290000D01*
X200526677Y-104480000D02*
X200526677Y-101641000D01*
X200526677Y-99159000D02*
X200526677Y-96320000D01*
X200486677Y-104450000D02*
X200486677Y-101641000D01*
X200486677Y-99159000D02*
X200486677Y-96350000D01*
X200446677Y-104420000D02*
X200446677Y-101641000D01*
X200446677Y-99159000D02*
X200446677Y-96380000D01*
X200406677Y-104389000D02*
X200406677Y-101641000D01*
X200406677Y-99159000D02*
X200406677Y-96411000D01*
X200366677Y-104357000D02*
X200366677Y-101641000D01*
X200366677Y-99159000D02*
X200366677Y-96443000D01*
X200326677Y-104325000D02*
X200326677Y-101641000D01*
X200326677Y-99159000D02*
X200326677Y-96475000D01*
X200286677Y-104292000D02*
X200286677Y-101641000D01*
X200286677Y-99159000D02*
X200286677Y-96508000D01*
X200246677Y-104258000D02*
X200246677Y-101641000D01*
X200246677Y-99159000D02*
X200246677Y-96542000D01*
X200206677Y-104224000D02*
X200206677Y-101641000D01*
X200206677Y-99159000D02*
X200206677Y-96576000D01*
X200166677Y-104189000D02*
X200166677Y-101641000D01*
X200166677Y-99159000D02*
X200166677Y-96611000D01*
X200126677Y-104153000D02*
X200126677Y-101641000D01*
X200126677Y-99159000D02*
X200126677Y-96647000D01*
X200086677Y-104116000D02*
X200086677Y-101641000D01*
X200086677Y-99159000D02*
X200086677Y-96684000D01*
X200046677Y-104079000D02*
X200046677Y-101641000D01*
X200046677Y-99159000D02*
X200046677Y-96721000D01*
X200006677Y-104040000D02*
X200006677Y-101641000D01*
X200006677Y-99159000D02*
X200006677Y-96760000D01*
X199966677Y-104001000D02*
X199966677Y-101641000D01*
X199966677Y-99159000D02*
X199966677Y-96799000D01*
X199926677Y-103961000D02*
X199926677Y-101641000D01*
X199926677Y-99159000D02*
X199926677Y-96839000D01*
X199886677Y-103920000D02*
X199886677Y-101641000D01*
X199886677Y-99159000D02*
X199886677Y-96880000D01*
X199846677Y-103878000D02*
X199846677Y-101641000D01*
X199846677Y-99159000D02*
X199846677Y-96922000D01*
X199806677Y-103836000D02*
X199806677Y-96964000D01*
X199766677Y-103792000D02*
X199766677Y-97008000D01*
X199726677Y-103747000D02*
X199726677Y-97053000D01*
X199686677Y-103701000D02*
X199686677Y-97099000D01*
X199646677Y-103654000D02*
X199646677Y-97146000D01*
X199606677Y-103606000D02*
X199606677Y-97194000D01*
X199566677Y-103556000D02*
X199566677Y-97244000D01*
X199526677Y-103506000D02*
X199526677Y-97294000D01*
X199486677Y-103454000D02*
X199486677Y-97346000D01*
X199446677Y-103400000D02*
X199446677Y-97400000D01*
X199406677Y-103345000D02*
X199406677Y-97455000D01*
X199366677Y-103289000D02*
X199366677Y-97511000D01*
X199326677Y-103230000D02*
X199326677Y-97570000D01*
X199286677Y-103170000D02*
X199286677Y-97630000D01*
X199246677Y-103109000D02*
X199246677Y-97691000D01*
X199206677Y-103045000D02*
X199206677Y-97755000D01*
X199166677Y-102979000D02*
X199166677Y-97821000D01*
X199126677Y-102910000D02*
X199126677Y-97890000D01*
X199086677Y-102839000D02*
X199086677Y-97961000D01*
X199046677Y-102765000D02*
X199046677Y-98035000D01*
X199006677Y-102689000D02*
X199006677Y-98111000D01*
X198966677Y-102609000D02*
X198966677Y-98191000D01*
X198926677Y-102525000D02*
X198926677Y-98275000D01*
X198886677Y-102437000D02*
X198886677Y-98363000D01*
X198846677Y-102344000D02*
X198846677Y-98456000D01*
X198806677Y-102246000D02*
X198806677Y-98554000D01*
X198766677Y-102142000D02*
X198766677Y-98658000D01*
X198726677Y-102030000D02*
X198726677Y-98770000D01*
X198686677Y-101910000D02*
X198686677Y-98890000D01*
X198646677Y-101778000D02*
X198646677Y-99022000D01*
X198606677Y-101630000D02*
X198606677Y-99170000D01*
X198566677Y-101462000D02*
X198566677Y-99338000D01*
X198526677Y-101262000D02*
X198526677Y-99538000D01*
X198486677Y-100999000D02*
X198486677Y-99801000D01*
X208687677Y-100400000D02*
G75*
G03*
X208687677Y-100400000I-5120000J0D01*
G01*
%TO.C,C19*%
X209079646Y-83875000D02*
X208079646Y-83875000D01*
X208579646Y-84375000D02*
X208579646Y-83375000D01*
X203600000Y-86080000D02*
X203600000Y-75920000D01*
X203560000Y-86080000D02*
X203560000Y-75920000D01*
X203520000Y-86080000D02*
X203520000Y-75920000D01*
X203480000Y-86079000D02*
X203480000Y-75921000D01*
X203440000Y-86078000D02*
X203440000Y-75922000D01*
X203400000Y-86077000D02*
X203400000Y-75923000D01*
X203360000Y-86075000D02*
X203360000Y-75925000D01*
X203320000Y-86073000D02*
X203320000Y-75927000D01*
X203280000Y-86070000D02*
X203280000Y-75930000D01*
X203240000Y-86068000D02*
X203240000Y-75932000D01*
X203200000Y-86065000D02*
X203200000Y-75935000D01*
X203160000Y-86062000D02*
X203160000Y-75938000D01*
X203120000Y-86058000D02*
X203120000Y-75942000D01*
X203080000Y-86054000D02*
X203080000Y-75946000D01*
X203040000Y-86050000D02*
X203040000Y-75950000D01*
X203000000Y-86045000D02*
X203000000Y-75955000D01*
X202960000Y-86040000D02*
X202960000Y-75960000D01*
X202920000Y-86035000D02*
X202920000Y-75965000D01*
X202879000Y-86030000D02*
X202879000Y-75970000D01*
X202839000Y-86024000D02*
X202839000Y-75976000D01*
X202799000Y-86018000D02*
X202799000Y-75982000D01*
X202759000Y-86011000D02*
X202759000Y-75989000D01*
X202719000Y-86004000D02*
X202719000Y-75996000D01*
X202679000Y-85997000D02*
X202679000Y-76003000D01*
X202639000Y-85990000D02*
X202639000Y-76010000D01*
X202599000Y-85982000D02*
X202599000Y-76018000D01*
X202559000Y-85974000D02*
X202559000Y-76026000D01*
X202519000Y-85965000D02*
X202519000Y-76035000D01*
X202479000Y-85956000D02*
X202479000Y-76044000D01*
X202439000Y-85947000D02*
X202439000Y-76053000D01*
X202399000Y-85938000D02*
X202399000Y-76062000D01*
X202359000Y-85928000D02*
X202359000Y-76072000D01*
X202319000Y-85918000D02*
X202319000Y-82241000D01*
X202319000Y-79759000D02*
X202319000Y-76082000D01*
X202279000Y-85907000D02*
X202279000Y-82241000D01*
X202279000Y-79759000D02*
X202279000Y-76093000D01*
X202239000Y-85897000D02*
X202239000Y-82241000D01*
X202239000Y-79759000D02*
X202239000Y-76103000D01*
X202199000Y-85885000D02*
X202199000Y-82241000D01*
X202199000Y-79759000D02*
X202199000Y-76115000D01*
X202159000Y-85874000D02*
X202159000Y-82241000D01*
X202159000Y-79759000D02*
X202159000Y-76126000D01*
X202119000Y-85862000D02*
X202119000Y-82241000D01*
X202119000Y-79759000D02*
X202119000Y-76138000D01*
X202079000Y-85850000D02*
X202079000Y-82241000D01*
X202079000Y-79759000D02*
X202079000Y-76150000D01*
X202039000Y-85837000D02*
X202039000Y-82241000D01*
X202039000Y-79759000D02*
X202039000Y-76163000D01*
X201999000Y-85824000D02*
X201999000Y-82241000D01*
X201999000Y-79759000D02*
X201999000Y-76176000D01*
X201959000Y-85811000D02*
X201959000Y-82241000D01*
X201959000Y-79759000D02*
X201959000Y-76189000D01*
X201919000Y-85797000D02*
X201919000Y-82241000D01*
X201919000Y-79759000D02*
X201919000Y-76203000D01*
X201879000Y-85783000D02*
X201879000Y-82241000D01*
X201879000Y-79759000D02*
X201879000Y-76217000D01*
X201839000Y-85768000D02*
X201839000Y-82241000D01*
X201839000Y-79759000D02*
X201839000Y-76232000D01*
X201799000Y-85754000D02*
X201799000Y-82241000D01*
X201799000Y-79759000D02*
X201799000Y-76246000D01*
X201759000Y-85738000D02*
X201759000Y-82241000D01*
X201759000Y-79759000D02*
X201759000Y-76262000D01*
X201719000Y-85723000D02*
X201719000Y-82241000D01*
X201719000Y-79759000D02*
X201719000Y-76277000D01*
X201679000Y-85707000D02*
X201679000Y-82241000D01*
X201679000Y-79759000D02*
X201679000Y-76293000D01*
X201639000Y-85690000D02*
X201639000Y-82241000D01*
X201639000Y-79759000D02*
X201639000Y-76310000D01*
X201599000Y-85674000D02*
X201599000Y-82241000D01*
X201599000Y-79759000D02*
X201599000Y-76326000D01*
X201559000Y-85657000D02*
X201559000Y-82241000D01*
X201559000Y-79759000D02*
X201559000Y-76343000D01*
X201519000Y-85639000D02*
X201519000Y-82241000D01*
X201519000Y-79759000D02*
X201519000Y-76361000D01*
X201479000Y-85621000D02*
X201479000Y-82241000D01*
X201479000Y-79759000D02*
X201479000Y-76379000D01*
X201439000Y-85603000D02*
X201439000Y-82241000D01*
X201439000Y-79759000D02*
X201439000Y-76397000D01*
X201399000Y-85584000D02*
X201399000Y-82241000D01*
X201399000Y-79759000D02*
X201399000Y-76416000D01*
X201359000Y-85564000D02*
X201359000Y-82241000D01*
X201359000Y-79759000D02*
X201359000Y-76436000D01*
X201319000Y-85545000D02*
X201319000Y-82241000D01*
X201319000Y-79759000D02*
X201319000Y-76455000D01*
X201279000Y-85525000D02*
X201279000Y-82241000D01*
X201279000Y-79759000D02*
X201279000Y-76475000D01*
X201239000Y-85504000D02*
X201239000Y-82241000D01*
X201239000Y-79759000D02*
X201239000Y-76496000D01*
X201199000Y-85483000D02*
X201199000Y-82241000D01*
X201199000Y-79759000D02*
X201199000Y-76517000D01*
X201159000Y-85462000D02*
X201159000Y-82241000D01*
X201159000Y-79759000D02*
X201159000Y-76538000D01*
X201119000Y-85440000D02*
X201119000Y-82241000D01*
X201119000Y-79759000D02*
X201119000Y-76560000D01*
X201079000Y-85417000D02*
X201079000Y-82241000D01*
X201079000Y-79759000D02*
X201079000Y-76583000D01*
X201039000Y-85395000D02*
X201039000Y-82241000D01*
X201039000Y-79759000D02*
X201039000Y-76605000D01*
X200999000Y-85371000D02*
X200999000Y-82241000D01*
X200999000Y-79759000D02*
X200999000Y-76629000D01*
X200959000Y-85347000D02*
X200959000Y-82241000D01*
X200959000Y-79759000D02*
X200959000Y-76653000D01*
X200919000Y-85323000D02*
X200919000Y-82241000D01*
X200919000Y-79759000D02*
X200919000Y-76677000D01*
X200879000Y-85298000D02*
X200879000Y-82241000D01*
X200879000Y-79759000D02*
X200879000Y-76702000D01*
X200839000Y-85273000D02*
X200839000Y-82241000D01*
X200839000Y-79759000D02*
X200839000Y-76727000D01*
X200799000Y-85247000D02*
X200799000Y-82241000D01*
X200799000Y-79759000D02*
X200799000Y-76753000D01*
X200759000Y-85221000D02*
X200759000Y-82241000D01*
X200759000Y-79759000D02*
X200759000Y-76779000D01*
X200719000Y-85194000D02*
X200719000Y-82241000D01*
X200719000Y-79759000D02*
X200719000Y-76806000D01*
X200679000Y-85166000D02*
X200679000Y-82241000D01*
X200679000Y-79759000D02*
X200679000Y-76834000D01*
X200639000Y-85138000D02*
X200639000Y-82241000D01*
X200639000Y-79759000D02*
X200639000Y-76862000D01*
X200599000Y-85110000D02*
X200599000Y-82241000D01*
X200599000Y-79759000D02*
X200599000Y-76890000D01*
X200559000Y-85080000D02*
X200559000Y-82241000D01*
X200559000Y-79759000D02*
X200559000Y-76920000D01*
X200519000Y-85050000D02*
X200519000Y-82241000D01*
X200519000Y-79759000D02*
X200519000Y-76950000D01*
X200479000Y-85020000D02*
X200479000Y-82241000D01*
X200479000Y-79759000D02*
X200479000Y-76980000D01*
X200439000Y-84989000D02*
X200439000Y-82241000D01*
X200439000Y-79759000D02*
X200439000Y-77011000D01*
X200399000Y-84957000D02*
X200399000Y-82241000D01*
X200399000Y-79759000D02*
X200399000Y-77043000D01*
X200359000Y-84925000D02*
X200359000Y-82241000D01*
X200359000Y-79759000D02*
X200359000Y-77075000D01*
X200319000Y-84892000D02*
X200319000Y-82241000D01*
X200319000Y-79759000D02*
X200319000Y-77108000D01*
X200279000Y-84858000D02*
X200279000Y-82241000D01*
X200279000Y-79759000D02*
X200279000Y-77142000D01*
X200239000Y-84824000D02*
X200239000Y-82241000D01*
X200239000Y-79759000D02*
X200239000Y-77176000D01*
X200199000Y-84789000D02*
X200199000Y-82241000D01*
X200199000Y-79759000D02*
X200199000Y-77211000D01*
X200159000Y-84753000D02*
X200159000Y-82241000D01*
X200159000Y-79759000D02*
X200159000Y-77247000D01*
X200119000Y-84716000D02*
X200119000Y-82241000D01*
X200119000Y-79759000D02*
X200119000Y-77284000D01*
X200079000Y-84679000D02*
X200079000Y-82241000D01*
X200079000Y-79759000D02*
X200079000Y-77321000D01*
X200039000Y-84640000D02*
X200039000Y-82241000D01*
X200039000Y-79759000D02*
X200039000Y-77360000D01*
X199999000Y-84601000D02*
X199999000Y-82241000D01*
X199999000Y-79759000D02*
X199999000Y-77399000D01*
X199959000Y-84561000D02*
X199959000Y-82241000D01*
X199959000Y-79759000D02*
X199959000Y-77439000D01*
X199919000Y-84520000D02*
X199919000Y-82241000D01*
X199919000Y-79759000D02*
X199919000Y-77480000D01*
X199879000Y-84478000D02*
X199879000Y-82241000D01*
X199879000Y-79759000D02*
X199879000Y-77522000D01*
X199839000Y-84436000D02*
X199839000Y-77564000D01*
X199799000Y-84392000D02*
X199799000Y-77608000D01*
X199759000Y-84347000D02*
X199759000Y-77653000D01*
X199719000Y-84301000D02*
X199719000Y-77699000D01*
X199679000Y-84254000D02*
X199679000Y-77746000D01*
X199639000Y-84206000D02*
X199639000Y-77794000D01*
X199599000Y-84156000D02*
X199599000Y-77844000D01*
X199559000Y-84106000D02*
X199559000Y-77894000D01*
X199519000Y-84054000D02*
X199519000Y-77946000D01*
X199479000Y-84000000D02*
X199479000Y-78000000D01*
X199439000Y-83945000D02*
X199439000Y-78055000D01*
X199399000Y-83889000D02*
X199399000Y-78111000D01*
X199359000Y-83830000D02*
X199359000Y-78170000D01*
X199319000Y-83770000D02*
X199319000Y-78230000D01*
X199279000Y-83709000D02*
X199279000Y-78291000D01*
X199239000Y-83645000D02*
X199239000Y-78355000D01*
X199199000Y-83579000D02*
X199199000Y-78421000D01*
X199159000Y-83510000D02*
X199159000Y-78490000D01*
X199119000Y-83439000D02*
X199119000Y-78561000D01*
X199079000Y-83365000D02*
X199079000Y-78635000D01*
X199039000Y-83289000D02*
X199039000Y-78711000D01*
X198999000Y-83209000D02*
X198999000Y-78791000D01*
X198959000Y-83125000D02*
X198959000Y-78875000D01*
X198919000Y-83037000D02*
X198919000Y-78963000D01*
X198879000Y-82944000D02*
X198879000Y-79056000D01*
X198839000Y-82846000D02*
X198839000Y-79154000D01*
X198799000Y-82742000D02*
X198799000Y-79258000D01*
X198759000Y-82630000D02*
X198759000Y-79370000D01*
X198719000Y-82510000D02*
X198719000Y-79490000D01*
X198679000Y-82378000D02*
X198679000Y-79622000D01*
X198639000Y-82230000D02*
X198639000Y-79770000D01*
X198599000Y-82062000D02*
X198599000Y-79938000D01*
X198559000Y-81862000D02*
X198559000Y-80138000D01*
X198519000Y-81599000D02*
X198519000Y-80401000D01*
X208720000Y-81000000D02*
G75*
G03*
X208720000Y-81000000I-5120000J0D01*
G01*
%TO.C,R10*%
X184030000Y-102900000D02*
X184980000Y-102900000D01*
X184980000Y-101980000D02*
X184980000Y-103820000D01*
X184980000Y-103820000D02*
X188820000Y-103820000D01*
X188820000Y-101980000D02*
X184980000Y-101980000D01*
X188820000Y-103820000D02*
X188820000Y-101980000D01*
X189770000Y-102900000D02*
X188820000Y-102900000D01*
%TO.C,C21*%
X207520000Y-89470000D02*
X207520000Y-88765000D01*
X207520000Y-89470000D02*
X198280000Y-89470000D01*
X207520000Y-87435000D02*
X207520000Y-86730000D01*
X207520000Y-86730000D02*
X198280000Y-86730000D01*
X198280000Y-89470000D02*
X198280000Y-88765000D01*
X198280000Y-87435000D02*
X198280000Y-86730000D01*
%TO.C,Q14*%
X128680000Y-70375000D02*
X128680000Y-75016000D01*
X128680000Y-70375000D02*
X138920000Y-70375000D01*
X128680000Y-71885000D02*
X138920000Y-71885000D01*
X128680000Y-75016000D02*
X138920000Y-75016000D01*
X131950000Y-70375000D02*
X131950000Y-71885000D01*
X135651000Y-70375000D02*
X135651000Y-71885000D01*
X138920000Y-70375000D02*
X138920000Y-75016000D01*
%TO.C,D2*%
X125360990Y-106700000D02*
X128135330Y-106700000D01*
X125360990Y-106700000D02*
G75*
G03*
X125360990Y-106700000I-1255660J0D01*
G01*
%TO.C,D1*%
X150155000Y-117865000D02*
X153245000Y-117865000D01*
X151700462Y-112315001D02*
G75*
G03*
X150155170Y-117864999I-462J-2989999D01*
G01*
X153244830Y-117865000D02*
G75*
G03*
X151699538Y-112315000I-1544830J2560000D01*
G01*
X154200000Y-115305000D02*
G75*
G03*
X154200000Y-115305000I-2500000J0D01*
G01*
%TO.C,J5*%
X162270000Y-100670000D02*
X163600000Y-100670000D01*
X162270000Y-102000000D02*
X162270000Y-100670000D01*
X162270000Y-103270000D02*
X162270000Y-103330000D01*
X162270000Y-103270000D02*
X164930000Y-103270000D01*
X162270000Y-103330000D02*
X164930000Y-103330000D01*
X164930000Y-103270000D02*
X164930000Y-103330000D01*
%TO.C,R20*%
X133830000Y-87000000D02*
X134780000Y-87000000D01*
X134780000Y-86080000D02*
X134780000Y-87920000D01*
X134780000Y-87920000D02*
X138620000Y-87920000D01*
X138620000Y-86080000D02*
X134780000Y-86080000D01*
X138620000Y-87920000D02*
X138620000Y-86080000D01*
X139570000Y-87000000D02*
X138620000Y-87000000D01*
%TO.C,R6*%
X128260000Y-98900000D02*
X129030000Y-98900000D01*
X129030000Y-97530000D02*
X129030000Y-100270000D01*
X129030000Y-100270000D02*
X135570000Y-100270000D01*
X135570000Y-97530000D02*
X129030000Y-97530000D01*
X135570000Y-100270000D02*
X135570000Y-97530000D01*
X136340000Y-98900000D02*
X135570000Y-98900000D01*
%TO.C,C3*%
X146115000Y-112327738D02*
X146115000Y-112877738D01*
X146390000Y-112602738D02*
X145840000Y-112602738D01*
X145560000Y-118067076D02*
G75*
G03*
X145560000Y-112732924I-1060000J2667076D01*
G01*
X143440000Y-112732924D02*
G75*
G03*
X143440000Y-118067076I1060000J-2667076D01*
G01*
%TO.C,Q8*%
X153850000Y-94240000D02*
X153850000Y-97840000D01*
X158049999Y-94900000D02*
G75*
G03*
X156803842Y-93672802I-2349999J-1140000D01*
G01*
X154577205Y-93715817D02*
G75*
G03*
X153850001Y-94240001I1122795J-2324183D01*
G01*
X156798371Y-98395457D02*
G75*
G03*
X158050000Y-97150000I-1098371J2355457D01*
G01*
X153850001Y-97839999D02*
G75*
G03*
X154577205Y-98364183I1849999J1799999D01*
G01*
%TO.C,C7*%
X184870000Y-95530000D02*
X184555000Y-95530000D01*
X184870000Y-95530000D02*
X184870000Y-100470000D01*
X182445000Y-95530000D02*
X182130000Y-95530000D01*
X182130000Y-95530000D02*
X182130000Y-100470000D01*
X184870000Y-100470000D02*
X184555000Y-100470000D01*
X182445000Y-100470000D02*
X182130000Y-100470000D01*
%TO.C,C20*%
X131020000Y-90670000D02*
X131020000Y-89965000D01*
X131020000Y-90670000D02*
X121780000Y-90670000D01*
X131020000Y-88635000D02*
X131020000Y-87930000D01*
X131020000Y-87930000D02*
X121780000Y-87930000D01*
X121780000Y-90670000D02*
X121780000Y-89965000D01*
X121780000Y-88635000D02*
X121780000Y-87930000D01*
%TO.C,C4*%
X133879646Y-116975000D02*
X132879646Y-116975000D01*
X133379646Y-117475000D02*
X133379646Y-116475000D01*
X128400000Y-119180000D02*
X128400000Y-109020000D01*
X128360000Y-119180000D02*
X128360000Y-109020000D01*
X128320000Y-119180000D02*
X128320000Y-109020000D01*
X128280000Y-119179000D02*
X128280000Y-109021000D01*
X128240000Y-119178000D02*
X128240000Y-109022000D01*
X128200000Y-119177000D02*
X128200000Y-109023000D01*
X128160000Y-119175000D02*
X128160000Y-109025000D01*
X128120000Y-119173000D02*
X128120000Y-109027000D01*
X128080000Y-119170000D02*
X128080000Y-109030000D01*
X128040000Y-119168000D02*
X128040000Y-109032000D01*
X128000000Y-119165000D02*
X128000000Y-109035000D01*
X127960000Y-119162000D02*
X127960000Y-109038000D01*
X127920000Y-119158000D02*
X127920000Y-109042000D01*
X127880000Y-119154000D02*
X127880000Y-109046000D01*
X127840000Y-119150000D02*
X127840000Y-109050000D01*
X127800000Y-119145000D02*
X127800000Y-109055000D01*
X127760000Y-119140000D02*
X127760000Y-109060000D01*
X127720000Y-119135000D02*
X127720000Y-109065000D01*
X127679000Y-119130000D02*
X127679000Y-109070000D01*
X127639000Y-119124000D02*
X127639000Y-109076000D01*
X127599000Y-119118000D02*
X127599000Y-109082000D01*
X127559000Y-119111000D02*
X127559000Y-109089000D01*
X127519000Y-119104000D02*
X127519000Y-109096000D01*
X127479000Y-119097000D02*
X127479000Y-109103000D01*
X127439000Y-119090000D02*
X127439000Y-109110000D01*
X127399000Y-119082000D02*
X127399000Y-109118000D01*
X127359000Y-119074000D02*
X127359000Y-109126000D01*
X127319000Y-119065000D02*
X127319000Y-109135000D01*
X127279000Y-119056000D02*
X127279000Y-109144000D01*
X127239000Y-119047000D02*
X127239000Y-109153000D01*
X127199000Y-119038000D02*
X127199000Y-109162000D01*
X127159000Y-119028000D02*
X127159000Y-109172000D01*
X127119000Y-119018000D02*
X127119000Y-115341000D01*
X127119000Y-112859000D02*
X127119000Y-109182000D01*
X127079000Y-119007000D02*
X127079000Y-115341000D01*
X127079000Y-112859000D02*
X127079000Y-109193000D01*
X127039000Y-118997000D02*
X127039000Y-115341000D01*
X127039000Y-112859000D02*
X127039000Y-109203000D01*
X126999000Y-118985000D02*
X126999000Y-115341000D01*
X126999000Y-112859000D02*
X126999000Y-109215000D01*
X126959000Y-118974000D02*
X126959000Y-115341000D01*
X126959000Y-112859000D02*
X126959000Y-109226000D01*
X126919000Y-118962000D02*
X126919000Y-115341000D01*
X126919000Y-112859000D02*
X126919000Y-109238000D01*
X126879000Y-118950000D02*
X126879000Y-115341000D01*
X126879000Y-112859000D02*
X126879000Y-109250000D01*
X126839000Y-118937000D02*
X126839000Y-115341000D01*
X126839000Y-112859000D02*
X126839000Y-109263000D01*
X126799000Y-118924000D02*
X126799000Y-115341000D01*
X126799000Y-112859000D02*
X126799000Y-109276000D01*
X126759000Y-118911000D02*
X126759000Y-115341000D01*
X126759000Y-112859000D02*
X126759000Y-109289000D01*
X126719000Y-118897000D02*
X126719000Y-115341000D01*
X126719000Y-112859000D02*
X126719000Y-109303000D01*
X126679000Y-118883000D02*
X126679000Y-115341000D01*
X126679000Y-112859000D02*
X126679000Y-109317000D01*
X126639000Y-118868000D02*
X126639000Y-115341000D01*
X126639000Y-112859000D02*
X126639000Y-109332000D01*
X126599000Y-118854000D02*
X126599000Y-115341000D01*
X126599000Y-112859000D02*
X126599000Y-109346000D01*
X126559000Y-118838000D02*
X126559000Y-115341000D01*
X126559000Y-112859000D02*
X126559000Y-109362000D01*
X126519000Y-118823000D02*
X126519000Y-115341000D01*
X126519000Y-112859000D02*
X126519000Y-109377000D01*
X126479000Y-118807000D02*
X126479000Y-115341000D01*
X126479000Y-112859000D02*
X126479000Y-109393000D01*
X126439000Y-118790000D02*
X126439000Y-115341000D01*
X126439000Y-112859000D02*
X126439000Y-109410000D01*
X126399000Y-118774000D02*
X126399000Y-115341000D01*
X126399000Y-112859000D02*
X126399000Y-109426000D01*
X126359000Y-118757000D02*
X126359000Y-115341000D01*
X126359000Y-112859000D02*
X126359000Y-109443000D01*
X126319000Y-118739000D02*
X126319000Y-115341000D01*
X126319000Y-112859000D02*
X126319000Y-109461000D01*
X126279000Y-118721000D02*
X126279000Y-115341000D01*
X126279000Y-112859000D02*
X126279000Y-109479000D01*
X126239000Y-118703000D02*
X126239000Y-115341000D01*
X126239000Y-112859000D02*
X126239000Y-109497000D01*
X126199000Y-118684000D02*
X126199000Y-115341000D01*
X126199000Y-112859000D02*
X126199000Y-109516000D01*
X126159000Y-118664000D02*
X126159000Y-115341000D01*
X126159000Y-112859000D02*
X126159000Y-109536000D01*
X126119000Y-118645000D02*
X126119000Y-115341000D01*
X126119000Y-112859000D02*
X126119000Y-109555000D01*
X126079000Y-118625000D02*
X126079000Y-115341000D01*
X126079000Y-112859000D02*
X126079000Y-109575000D01*
X126039000Y-118604000D02*
X126039000Y-115341000D01*
X126039000Y-112859000D02*
X126039000Y-109596000D01*
X125999000Y-118583000D02*
X125999000Y-115341000D01*
X125999000Y-112859000D02*
X125999000Y-109617000D01*
X125959000Y-118562000D02*
X125959000Y-115341000D01*
X125959000Y-112859000D02*
X125959000Y-109638000D01*
X125919000Y-118540000D02*
X125919000Y-115341000D01*
X125919000Y-112859000D02*
X125919000Y-109660000D01*
X125879000Y-118517000D02*
X125879000Y-115341000D01*
X125879000Y-112859000D02*
X125879000Y-109683000D01*
X125839000Y-118495000D02*
X125839000Y-115341000D01*
X125839000Y-112859000D02*
X125839000Y-109705000D01*
X125799000Y-118471000D02*
X125799000Y-115341000D01*
X125799000Y-112859000D02*
X125799000Y-109729000D01*
X125759000Y-118447000D02*
X125759000Y-115341000D01*
X125759000Y-112859000D02*
X125759000Y-109753000D01*
X125719000Y-118423000D02*
X125719000Y-115341000D01*
X125719000Y-112859000D02*
X125719000Y-109777000D01*
X125679000Y-118398000D02*
X125679000Y-115341000D01*
X125679000Y-112859000D02*
X125679000Y-109802000D01*
X125639000Y-118373000D02*
X125639000Y-115341000D01*
X125639000Y-112859000D02*
X125639000Y-109827000D01*
X125599000Y-118347000D02*
X125599000Y-115341000D01*
X125599000Y-112859000D02*
X125599000Y-109853000D01*
X125559000Y-118321000D02*
X125559000Y-115341000D01*
X125559000Y-112859000D02*
X125559000Y-109879000D01*
X125519000Y-118294000D02*
X125519000Y-115341000D01*
X125519000Y-112859000D02*
X125519000Y-109906000D01*
X125479000Y-118266000D02*
X125479000Y-115341000D01*
X125479000Y-112859000D02*
X125479000Y-109934000D01*
X125439000Y-118238000D02*
X125439000Y-115341000D01*
X125439000Y-112859000D02*
X125439000Y-109962000D01*
X125399000Y-118210000D02*
X125399000Y-115341000D01*
X125399000Y-112859000D02*
X125399000Y-109990000D01*
X125359000Y-118180000D02*
X125359000Y-115341000D01*
X125359000Y-112859000D02*
X125359000Y-110020000D01*
X125319000Y-118150000D02*
X125319000Y-115341000D01*
X125319000Y-112859000D02*
X125319000Y-110050000D01*
X125279000Y-118120000D02*
X125279000Y-115341000D01*
X125279000Y-112859000D02*
X125279000Y-110080000D01*
X125239000Y-118089000D02*
X125239000Y-115341000D01*
X125239000Y-112859000D02*
X125239000Y-110111000D01*
X125199000Y-118057000D02*
X125199000Y-115341000D01*
X125199000Y-112859000D02*
X125199000Y-110143000D01*
X125159000Y-118025000D02*
X125159000Y-115341000D01*
X125159000Y-112859000D02*
X125159000Y-110175000D01*
X125119000Y-117992000D02*
X125119000Y-115341000D01*
X125119000Y-112859000D02*
X125119000Y-110208000D01*
X125079000Y-117958000D02*
X125079000Y-115341000D01*
X125079000Y-112859000D02*
X125079000Y-110242000D01*
X125039000Y-117924000D02*
X125039000Y-115341000D01*
X125039000Y-112859000D02*
X125039000Y-110276000D01*
X124999000Y-117889000D02*
X124999000Y-115341000D01*
X124999000Y-112859000D02*
X124999000Y-110311000D01*
X124959000Y-117853000D02*
X124959000Y-115341000D01*
X124959000Y-112859000D02*
X124959000Y-110347000D01*
X124919000Y-117816000D02*
X124919000Y-115341000D01*
X124919000Y-112859000D02*
X124919000Y-110384000D01*
X124879000Y-117779000D02*
X124879000Y-115341000D01*
X124879000Y-112859000D02*
X124879000Y-110421000D01*
X124839000Y-117740000D02*
X124839000Y-115341000D01*
X124839000Y-112859000D02*
X124839000Y-110460000D01*
X124799000Y-117701000D02*
X124799000Y-115341000D01*
X124799000Y-112859000D02*
X124799000Y-110499000D01*
X124759000Y-117661000D02*
X124759000Y-115341000D01*
X124759000Y-112859000D02*
X124759000Y-110539000D01*
X124719000Y-117620000D02*
X124719000Y-115341000D01*
X124719000Y-112859000D02*
X124719000Y-110580000D01*
X124679000Y-117578000D02*
X124679000Y-115341000D01*
X124679000Y-112859000D02*
X124679000Y-110622000D01*
X124639000Y-117536000D02*
X124639000Y-110664000D01*
X124599000Y-117492000D02*
X124599000Y-110708000D01*
X124559000Y-117447000D02*
X124559000Y-110753000D01*
X124519000Y-117401000D02*
X124519000Y-110799000D01*
X124479000Y-117354000D02*
X124479000Y-110846000D01*
X124439000Y-117306000D02*
X124439000Y-110894000D01*
X124399000Y-117256000D02*
X124399000Y-110944000D01*
X124359000Y-117206000D02*
X124359000Y-110994000D01*
X124319000Y-117154000D02*
X124319000Y-111046000D01*
X124279000Y-117100000D02*
X124279000Y-111100000D01*
X124239000Y-117045000D02*
X124239000Y-111155000D01*
X124199000Y-116989000D02*
X124199000Y-111211000D01*
X124159000Y-116930000D02*
X124159000Y-111270000D01*
X124119000Y-116870000D02*
X124119000Y-111330000D01*
X124079000Y-116809000D02*
X124079000Y-111391000D01*
X124039000Y-116745000D02*
X124039000Y-111455000D01*
X123999000Y-116679000D02*
X123999000Y-111521000D01*
X123959000Y-116610000D02*
X123959000Y-111590000D01*
X123919000Y-116539000D02*
X123919000Y-111661000D01*
X123879000Y-116465000D02*
X123879000Y-111735000D01*
X123839000Y-116389000D02*
X123839000Y-111811000D01*
X123799000Y-116309000D02*
X123799000Y-111891000D01*
X123759000Y-116225000D02*
X123759000Y-111975000D01*
X123719000Y-116137000D02*
X123719000Y-112063000D01*
X123679000Y-116044000D02*
X123679000Y-112156000D01*
X123639000Y-115946000D02*
X123639000Y-112254000D01*
X123599000Y-115842000D02*
X123599000Y-112358000D01*
X123559000Y-115730000D02*
X123559000Y-112470000D01*
X123519000Y-115610000D02*
X123519000Y-112590000D01*
X123479000Y-115478000D02*
X123479000Y-112722000D01*
X123439000Y-115330000D02*
X123439000Y-112870000D01*
X123399000Y-115162000D02*
X123399000Y-113038000D01*
X123359000Y-114962000D02*
X123359000Y-113238000D01*
X123319000Y-114699000D02*
X123319000Y-113501000D01*
X133520000Y-114100000D02*
G75*
G03*
X133520000Y-114100000I-5120000J0D01*
G01*
%TO.C,C8*%
X185630000Y-95570000D02*
X185945000Y-95570000D01*
X185630000Y-95570000D02*
X185630000Y-90630000D01*
X188055000Y-95570000D02*
X188370000Y-95570000D01*
X188370000Y-95570000D02*
X188370000Y-90630000D01*
X185630000Y-90630000D02*
X185945000Y-90630000D01*
X188055000Y-90630000D02*
X188370000Y-90630000D01*
%TO.C,Q3*%
X130710000Y-104900000D02*
X130710000Y-108500000D01*
X134909999Y-105560000D02*
G75*
G03*
X133663842Y-104332802I-2349999J-1140000D01*
G01*
X131437205Y-104375817D02*
G75*
G03*
X130710001Y-104900001I1122795J-2324183D01*
G01*
X133658371Y-109055457D02*
G75*
G03*
X134910000Y-107810000I-1098371J2355457D01*
G01*
X130710001Y-108499999D02*
G75*
G03*
X131437205Y-109024183I1849999J1799999D01*
G01*
%TO.C,C5*%
X179625000Y-117154775D02*
X179625000Y-116654775D01*
X179375000Y-116904775D02*
X179875000Y-116904775D01*
X178520000Y-114350000D02*
X183680000Y-114350000D01*
X178520000Y-114310000D02*
X183680000Y-114310000D01*
X178521000Y-114270000D02*
X183679000Y-114270000D01*
X178522000Y-114230000D02*
X183678000Y-114230000D01*
X178524000Y-114190000D02*
X183676000Y-114190000D01*
X178527000Y-114150000D02*
X183673000Y-114150000D01*
X178531000Y-114110000D02*
X180060000Y-114110000D01*
X182140000Y-114110000D02*
X183669000Y-114110000D01*
X178535000Y-114070000D02*
X180060000Y-114070000D01*
X182140000Y-114070000D02*
X183665000Y-114070000D01*
X178539000Y-114030000D02*
X180060000Y-114030000D01*
X182140000Y-114030000D02*
X183661000Y-114030000D01*
X178544000Y-113990000D02*
X180060000Y-113990000D01*
X182140000Y-113990000D02*
X183656000Y-113990000D01*
X178550000Y-113950000D02*
X180060000Y-113950000D01*
X182140000Y-113950000D02*
X183650000Y-113950000D01*
X178557000Y-113910000D02*
X180060000Y-113910000D01*
X182140000Y-113910000D02*
X183643000Y-113910000D01*
X178564000Y-113870000D02*
X180060000Y-113870000D01*
X182140000Y-113870000D02*
X183636000Y-113870000D01*
X178572000Y-113830000D02*
X180060000Y-113830000D01*
X182140000Y-113830000D02*
X183628000Y-113830000D01*
X178580000Y-113790000D02*
X180060000Y-113790000D01*
X182140000Y-113790000D02*
X183620000Y-113790000D01*
X178589000Y-113750000D02*
X180060000Y-113750000D01*
X182140000Y-113750000D02*
X183611000Y-113750000D01*
X178599000Y-113710000D02*
X180060000Y-113710000D01*
X182140000Y-113710000D02*
X183601000Y-113710000D01*
X178609000Y-113670000D02*
X180060000Y-113670000D01*
X182140000Y-113670000D02*
X183591000Y-113670000D01*
X178620000Y-113629000D02*
X180060000Y-113629000D01*
X182140000Y-113629000D02*
X183580000Y-113629000D01*
X178632000Y-113589000D02*
X180060000Y-113589000D01*
X182140000Y-113589000D02*
X183568000Y-113589000D01*
X178645000Y-113549000D02*
X180060000Y-113549000D01*
X182140000Y-113549000D02*
X183555000Y-113549000D01*
X178658000Y-113509000D02*
X180060000Y-113509000D01*
X182140000Y-113509000D02*
X183542000Y-113509000D01*
X178672000Y-113469000D02*
X180060000Y-113469000D01*
X182140000Y-113469000D02*
X183528000Y-113469000D01*
X178686000Y-113429000D02*
X180060000Y-113429000D01*
X182140000Y-113429000D02*
X183514000Y-113429000D01*
X178702000Y-113389000D02*
X180060000Y-113389000D01*
X182140000Y-113389000D02*
X183498000Y-113389000D01*
X178718000Y-113349000D02*
X180060000Y-113349000D01*
X182140000Y-113349000D02*
X183482000Y-113349000D01*
X178735000Y-113309000D02*
X180060000Y-113309000D01*
X182140000Y-113309000D02*
X183465000Y-113309000D01*
X178752000Y-113269000D02*
X180060000Y-113269000D01*
X182140000Y-113269000D02*
X183448000Y-113269000D01*
X178771000Y-113229000D02*
X180060000Y-113229000D01*
X182140000Y-113229000D02*
X183429000Y-113229000D01*
X178790000Y-113189000D02*
X180060000Y-113189000D01*
X182140000Y-113189000D02*
X183410000Y-113189000D01*
X178810000Y-113149000D02*
X180060000Y-113149000D01*
X182140000Y-113149000D02*
X183390000Y-113149000D01*
X178832000Y-113109000D02*
X180060000Y-113109000D01*
X182140000Y-113109000D02*
X183368000Y-113109000D01*
X178853000Y-113069000D02*
X180060000Y-113069000D01*
X182140000Y-113069000D02*
X183347000Y-113069000D01*
X178876000Y-113029000D02*
X180060000Y-113029000D01*
X182140000Y-113029000D02*
X183324000Y-113029000D01*
X178900000Y-112989000D02*
X180060000Y-112989000D01*
X182140000Y-112989000D02*
X183300000Y-112989000D01*
X178925000Y-112949000D02*
X180060000Y-112949000D01*
X182140000Y-112949000D02*
X183275000Y-112949000D01*
X178951000Y-112909000D02*
X180060000Y-112909000D01*
X182140000Y-112909000D02*
X183249000Y-112909000D01*
X178978000Y-112869000D02*
X180060000Y-112869000D01*
X182140000Y-112869000D02*
X183222000Y-112869000D01*
X179005000Y-112829000D02*
X180060000Y-112829000D01*
X182140000Y-112829000D02*
X183195000Y-112829000D01*
X179035000Y-112789000D02*
X180060000Y-112789000D01*
X182140000Y-112789000D02*
X183165000Y-112789000D01*
X179065000Y-112749000D02*
X180060000Y-112749000D01*
X182140000Y-112749000D02*
X183135000Y-112749000D01*
X179096000Y-112709000D02*
X180060000Y-112709000D01*
X182140000Y-112709000D02*
X183104000Y-112709000D01*
X179129000Y-112669000D02*
X180060000Y-112669000D01*
X182140000Y-112669000D02*
X183071000Y-112669000D01*
X179163000Y-112629000D02*
X180060000Y-112629000D01*
X182140000Y-112629000D02*
X183037000Y-112629000D01*
X179199000Y-112589000D02*
X180060000Y-112589000D01*
X182140000Y-112589000D02*
X183001000Y-112589000D01*
X179236000Y-112549000D02*
X180060000Y-112549000D01*
X182140000Y-112549000D02*
X182964000Y-112549000D01*
X179274000Y-112509000D02*
X180060000Y-112509000D01*
X182140000Y-112509000D02*
X182926000Y-112509000D01*
X179315000Y-112469000D02*
X180060000Y-112469000D01*
X182140000Y-112469000D02*
X182885000Y-112469000D01*
X179357000Y-112429000D02*
X180060000Y-112429000D01*
X182140000Y-112429000D02*
X182843000Y-112429000D01*
X179401000Y-112389000D02*
X180060000Y-112389000D01*
X182140000Y-112389000D02*
X182799000Y-112389000D01*
X179447000Y-112349000D02*
X180060000Y-112349000D01*
X182140000Y-112349000D02*
X182753000Y-112349000D01*
X179495000Y-112309000D02*
X180060000Y-112309000D01*
X182140000Y-112309000D02*
X182705000Y-112309000D01*
X179546000Y-112269000D02*
X180060000Y-112269000D01*
X182140000Y-112269000D02*
X182654000Y-112269000D01*
X179600000Y-112229000D02*
X180060000Y-112229000D01*
X182140000Y-112229000D02*
X182600000Y-112229000D01*
X179657000Y-112189000D02*
X180060000Y-112189000D01*
X182140000Y-112189000D02*
X182543000Y-112189000D01*
X179717000Y-112149000D02*
X180060000Y-112149000D01*
X182140000Y-112149000D02*
X182483000Y-112149000D01*
X179781000Y-112109000D02*
X180060000Y-112109000D01*
X182140000Y-112109000D02*
X182419000Y-112109000D01*
X179849000Y-112069000D02*
X180060000Y-112069000D01*
X182140000Y-112069000D02*
X182351000Y-112069000D01*
X179922000Y-112029000D02*
X182278000Y-112029000D01*
X180002000Y-111989000D02*
X182198000Y-111989000D01*
X180089000Y-111949000D02*
X182111000Y-111949000D01*
X180185000Y-111909000D02*
X182015000Y-111909000D01*
X180295000Y-111869000D02*
X181905000Y-111869000D01*
X180423000Y-111829000D02*
X181777000Y-111829000D01*
X180582000Y-111789000D02*
X181618000Y-111789000D01*
X180816000Y-111749000D02*
X181384000Y-111749000D01*
X183720000Y-114350000D02*
G75*
G03*
X183720000Y-114350000I-2620000J0D01*
G01*
%TO.C,C10*%
X201027738Y-108285000D02*
X201577738Y-108285000D01*
X201302738Y-108010000D02*
X201302738Y-108560000D01*
X206767076Y-108840000D02*
G75*
G03*
X201432924Y-108840000I-2667076J-1060000D01*
G01*
X201432924Y-110960000D02*
G75*
G03*
X206767076Y-110960000I2667076J1060000D01*
G01*
%TO.C,C16*%
X137820354Y-103225000D02*
X138820354Y-103225000D01*
X138320354Y-102725000D02*
X138320354Y-103725000D01*
X143300000Y-101020000D02*
X143300000Y-111180000D01*
X143340000Y-101020000D02*
X143340000Y-111180000D01*
X143380000Y-101020000D02*
X143380000Y-111180000D01*
X143420000Y-101021000D02*
X143420000Y-111179000D01*
X143460000Y-101022000D02*
X143460000Y-111178000D01*
X143500000Y-101023000D02*
X143500000Y-111177000D01*
X143540000Y-101025000D02*
X143540000Y-111175000D01*
X143580000Y-101027000D02*
X143580000Y-111173000D01*
X143620000Y-101030000D02*
X143620000Y-111170000D01*
X143660000Y-101032000D02*
X143660000Y-111168000D01*
X143700000Y-101035000D02*
X143700000Y-111165000D01*
X143740000Y-101038000D02*
X143740000Y-111162000D01*
X143780000Y-101042000D02*
X143780000Y-111158000D01*
X143820000Y-101046000D02*
X143820000Y-111154000D01*
X143860000Y-101050000D02*
X143860000Y-111150000D01*
X143900000Y-101055000D02*
X143900000Y-111145000D01*
X143940000Y-101060000D02*
X143940000Y-111140000D01*
X143980000Y-101065000D02*
X143980000Y-111135000D01*
X144021000Y-101070000D02*
X144021000Y-111130000D01*
X144061000Y-101076000D02*
X144061000Y-111124000D01*
X144101000Y-101082000D02*
X144101000Y-111118000D01*
X144141000Y-101089000D02*
X144141000Y-111111000D01*
X144181000Y-101096000D02*
X144181000Y-111104000D01*
X144221000Y-101103000D02*
X144221000Y-111097000D01*
X144261000Y-101110000D02*
X144261000Y-111090000D01*
X144301000Y-101118000D02*
X144301000Y-111082000D01*
X144341000Y-101126000D02*
X144341000Y-111074000D01*
X144381000Y-101135000D02*
X144381000Y-111065000D01*
X144421000Y-101144000D02*
X144421000Y-111056000D01*
X144461000Y-101153000D02*
X144461000Y-111047000D01*
X144501000Y-101162000D02*
X144501000Y-111038000D01*
X144541000Y-101172000D02*
X144541000Y-111028000D01*
X144581000Y-101182000D02*
X144581000Y-104859000D01*
X144581000Y-107341000D02*
X144581000Y-111018000D01*
X144621000Y-101193000D02*
X144621000Y-104859000D01*
X144621000Y-107341000D02*
X144621000Y-111007000D01*
X144661000Y-101203000D02*
X144661000Y-104859000D01*
X144661000Y-107341000D02*
X144661000Y-110997000D01*
X144701000Y-101215000D02*
X144701000Y-104859000D01*
X144701000Y-107341000D02*
X144701000Y-110985000D01*
X144741000Y-101226000D02*
X144741000Y-104859000D01*
X144741000Y-107341000D02*
X144741000Y-110974000D01*
X144781000Y-101238000D02*
X144781000Y-104859000D01*
X144781000Y-107341000D02*
X144781000Y-110962000D01*
X144821000Y-101250000D02*
X144821000Y-104859000D01*
X144821000Y-107341000D02*
X144821000Y-110950000D01*
X144861000Y-101263000D02*
X144861000Y-104859000D01*
X144861000Y-107341000D02*
X144861000Y-110937000D01*
X144901000Y-101276000D02*
X144901000Y-104859000D01*
X144901000Y-107341000D02*
X144901000Y-110924000D01*
X144941000Y-101289000D02*
X144941000Y-104859000D01*
X144941000Y-107341000D02*
X144941000Y-110911000D01*
X144981000Y-101303000D02*
X144981000Y-104859000D01*
X144981000Y-107341000D02*
X144981000Y-110897000D01*
X145021000Y-101317000D02*
X145021000Y-104859000D01*
X145021000Y-107341000D02*
X145021000Y-110883000D01*
X145061000Y-101332000D02*
X145061000Y-104859000D01*
X145061000Y-107341000D02*
X145061000Y-110868000D01*
X145101000Y-101346000D02*
X145101000Y-104859000D01*
X145101000Y-107341000D02*
X145101000Y-110854000D01*
X145141000Y-101362000D02*
X145141000Y-104859000D01*
X145141000Y-107341000D02*
X145141000Y-110838000D01*
X145181000Y-101377000D02*
X145181000Y-104859000D01*
X145181000Y-107341000D02*
X145181000Y-110823000D01*
X145221000Y-101393000D02*
X145221000Y-104859000D01*
X145221000Y-107341000D02*
X145221000Y-110807000D01*
X145261000Y-101410000D02*
X145261000Y-104859000D01*
X145261000Y-107341000D02*
X145261000Y-110790000D01*
X145301000Y-101426000D02*
X145301000Y-104859000D01*
X145301000Y-107341000D02*
X145301000Y-110774000D01*
X145341000Y-101443000D02*
X145341000Y-104859000D01*
X145341000Y-107341000D02*
X145341000Y-110757000D01*
X145381000Y-101461000D02*
X145381000Y-104859000D01*
X145381000Y-107341000D02*
X145381000Y-110739000D01*
X145421000Y-101479000D02*
X145421000Y-104859000D01*
X145421000Y-107341000D02*
X145421000Y-110721000D01*
X145461000Y-101497000D02*
X145461000Y-104859000D01*
X145461000Y-107341000D02*
X145461000Y-110703000D01*
X145501000Y-101516000D02*
X145501000Y-104859000D01*
X145501000Y-107341000D02*
X145501000Y-110684000D01*
X145541000Y-101536000D02*
X145541000Y-104859000D01*
X145541000Y-107341000D02*
X145541000Y-110664000D01*
X145581000Y-101555000D02*
X145581000Y-104859000D01*
X145581000Y-107341000D02*
X145581000Y-110645000D01*
X145621000Y-101575000D02*
X145621000Y-104859000D01*
X145621000Y-107341000D02*
X145621000Y-110625000D01*
X145661000Y-101596000D02*
X145661000Y-104859000D01*
X145661000Y-107341000D02*
X145661000Y-110604000D01*
X145701000Y-101617000D02*
X145701000Y-104859000D01*
X145701000Y-107341000D02*
X145701000Y-110583000D01*
X145741000Y-101638000D02*
X145741000Y-104859000D01*
X145741000Y-107341000D02*
X145741000Y-110562000D01*
X145781000Y-101660000D02*
X145781000Y-104859000D01*
X145781000Y-107341000D02*
X145781000Y-110540000D01*
X145821000Y-101683000D02*
X145821000Y-104859000D01*
X145821000Y-107341000D02*
X145821000Y-110517000D01*
X145861000Y-101705000D02*
X145861000Y-104859000D01*
X145861000Y-107341000D02*
X145861000Y-110495000D01*
X145901000Y-101729000D02*
X145901000Y-104859000D01*
X145901000Y-107341000D02*
X145901000Y-110471000D01*
X145941000Y-101753000D02*
X145941000Y-104859000D01*
X145941000Y-107341000D02*
X145941000Y-110447000D01*
X145981000Y-101777000D02*
X145981000Y-104859000D01*
X145981000Y-107341000D02*
X145981000Y-110423000D01*
X146021000Y-101802000D02*
X146021000Y-104859000D01*
X146021000Y-107341000D02*
X146021000Y-110398000D01*
X146061000Y-101827000D02*
X146061000Y-104859000D01*
X146061000Y-107341000D02*
X146061000Y-110373000D01*
X146101000Y-101853000D02*
X146101000Y-104859000D01*
X146101000Y-107341000D02*
X146101000Y-110347000D01*
X146141000Y-101879000D02*
X146141000Y-104859000D01*
X146141000Y-107341000D02*
X146141000Y-110321000D01*
X146181000Y-101906000D02*
X146181000Y-104859000D01*
X146181000Y-107341000D02*
X146181000Y-110294000D01*
X146221000Y-101934000D02*
X146221000Y-104859000D01*
X146221000Y-107341000D02*
X146221000Y-110266000D01*
X146261000Y-101962000D02*
X146261000Y-104859000D01*
X146261000Y-107341000D02*
X146261000Y-110238000D01*
X146301000Y-101990000D02*
X146301000Y-104859000D01*
X146301000Y-107341000D02*
X146301000Y-110210000D01*
X146341000Y-102020000D02*
X146341000Y-104859000D01*
X146341000Y-107341000D02*
X146341000Y-110180000D01*
X146381000Y-102050000D02*
X146381000Y-104859000D01*
X146381000Y-107341000D02*
X146381000Y-110150000D01*
X146421000Y-102080000D02*
X146421000Y-104859000D01*
X146421000Y-107341000D02*
X146421000Y-110120000D01*
X146461000Y-102111000D02*
X146461000Y-104859000D01*
X146461000Y-107341000D02*
X146461000Y-110089000D01*
X146501000Y-102143000D02*
X146501000Y-104859000D01*
X146501000Y-107341000D02*
X146501000Y-110057000D01*
X146541000Y-102175000D02*
X146541000Y-104859000D01*
X146541000Y-107341000D02*
X146541000Y-110025000D01*
X146581000Y-102208000D02*
X146581000Y-104859000D01*
X146581000Y-107341000D02*
X146581000Y-109992000D01*
X146621000Y-102242000D02*
X146621000Y-104859000D01*
X146621000Y-107341000D02*
X146621000Y-109958000D01*
X146661000Y-102276000D02*
X146661000Y-104859000D01*
X146661000Y-107341000D02*
X146661000Y-109924000D01*
X146701000Y-102311000D02*
X146701000Y-104859000D01*
X146701000Y-107341000D02*
X146701000Y-109889000D01*
X146741000Y-102347000D02*
X146741000Y-104859000D01*
X146741000Y-107341000D02*
X146741000Y-109853000D01*
X146781000Y-102384000D02*
X146781000Y-104859000D01*
X146781000Y-107341000D02*
X146781000Y-109816000D01*
X146821000Y-102421000D02*
X146821000Y-104859000D01*
X146821000Y-107341000D02*
X146821000Y-109779000D01*
X146861000Y-102460000D02*
X146861000Y-104859000D01*
X146861000Y-107341000D02*
X146861000Y-109740000D01*
X146901000Y-102499000D02*
X146901000Y-104859000D01*
X146901000Y-107341000D02*
X146901000Y-109701000D01*
X146941000Y-102539000D02*
X146941000Y-104859000D01*
X146941000Y-107341000D02*
X146941000Y-109661000D01*
X146981000Y-102580000D02*
X146981000Y-104859000D01*
X146981000Y-107341000D02*
X146981000Y-109620000D01*
X147021000Y-102622000D02*
X147021000Y-104859000D01*
X147021000Y-107341000D02*
X147021000Y-109578000D01*
X147061000Y-102664000D02*
X147061000Y-109536000D01*
X147101000Y-102708000D02*
X147101000Y-109492000D01*
X147141000Y-102753000D02*
X147141000Y-109447000D01*
X147181000Y-102799000D02*
X147181000Y-109401000D01*
X147221000Y-102846000D02*
X147221000Y-109354000D01*
X147261000Y-102894000D02*
X147261000Y-109306000D01*
X147301000Y-102944000D02*
X147301000Y-109256000D01*
X147341000Y-102994000D02*
X147341000Y-109206000D01*
X147381000Y-103046000D02*
X147381000Y-109154000D01*
X147421000Y-103100000D02*
X147421000Y-109100000D01*
X147461000Y-103155000D02*
X147461000Y-109045000D01*
X147501000Y-103211000D02*
X147501000Y-108989000D01*
X147541000Y-103270000D02*
X147541000Y-108930000D01*
X147581000Y-103330000D02*
X147581000Y-108870000D01*
X147621000Y-103391000D02*
X147621000Y-108809000D01*
X147661000Y-103455000D02*
X147661000Y-108745000D01*
X147701000Y-103521000D02*
X147701000Y-108679000D01*
X147741000Y-103590000D02*
X147741000Y-108610000D01*
X147781000Y-103661000D02*
X147781000Y-108539000D01*
X147821000Y-103735000D02*
X147821000Y-108465000D01*
X147861000Y-103811000D02*
X147861000Y-108389000D01*
X147901000Y-103891000D02*
X147901000Y-108309000D01*
X147941000Y-103975000D02*
X147941000Y-108225000D01*
X147981000Y-104063000D02*
X147981000Y-108137000D01*
X148021000Y-104156000D02*
X148021000Y-108044000D01*
X148061000Y-104254000D02*
X148061000Y-107946000D01*
X148101000Y-104358000D02*
X148101000Y-107842000D01*
X148141000Y-104470000D02*
X148141000Y-107730000D01*
X148181000Y-104590000D02*
X148181000Y-107610000D01*
X148221000Y-104722000D02*
X148221000Y-107478000D01*
X148261000Y-104870000D02*
X148261000Y-107330000D01*
X148301000Y-105038000D02*
X148301000Y-107162000D01*
X148341000Y-105238000D02*
X148341000Y-106962000D01*
X148381000Y-105501000D02*
X148381000Y-106699000D01*
X148420000Y-106100000D02*
G75*
G03*
X148420000Y-106100000I-5120000J0D01*
G01*
%TO.C,R18*%
X177000000Y-104610000D02*
X177000000Y-103840000D01*
X175630000Y-103840000D02*
X178370000Y-103840000D01*
X178370000Y-103840000D02*
X178370000Y-97300000D01*
X175630000Y-97300000D02*
X175630000Y-103840000D01*
X178370000Y-97300000D02*
X175630000Y-97300000D01*
X177000000Y-96530000D02*
X177000000Y-97300000D01*
%TO.C,R27*%
X198740000Y-77700000D02*
X197970000Y-77700000D01*
X197970000Y-79070000D02*
X197970000Y-76330000D01*
X197970000Y-76330000D02*
X191430000Y-76330000D01*
X191430000Y-79070000D02*
X197970000Y-79070000D01*
X191430000Y-76330000D02*
X191430000Y-79070000D01*
X190660000Y-77700000D02*
X191430000Y-77700000D01*
%TO.C,C13*%
X142767380Y-88761000D02*
X143397380Y-88761000D01*
X143082380Y-88446000D02*
X143082380Y-89076000D01*
X146267621Y-87370000D02*
X146267621Y-93830000D01*
X146307621Y-87370000D02*
X146307621Y-93830000D01*
X146347621Y-87370000D02*
X146347621Y-93830000D01*
X146387621Y-87372000D02*
X146387621Y-93828000D01*
X146427621Y-87373000D02*
X146427621Y-93827000D01*
X146467621Y-87376000D02*
X146467621Y-93824000D01*
X146507621Y-87378000D02*
X146507621Y-89560000D01*
X146507621Y-91640000D02*
X146507621Y-93822000D01*
X146547621Y-87382000D02*
X146547621Y-89560000D01*
X146547621Y-91640000D02*
X146547621Y-93818000D01*
X146587621Y-87385000D02*
X146587621Y-89560000D01*
X146587621Y-91640000D02*
X146587621Y-93815000D01*
X146627621Y-87389000D02*
X146627621Y-89560000D01*
X146627621Y-91640000D02*
X146627621Y-93811000D01*
X146667621Y-87394000D02*
X146667621Y-89560000D01*
X146667621Y-91640000D02*
X146667621Y-93806000D01*
X146707621Y-87399000D02*
X146707621Y-89560000D01*
X146707621Y-91640000D02*
X146707621Y-93801000D01*
X146747621Y-87405000D02*
X146747621Y-89560000D01*
X146747621Y-91640000D02*
X146747621Y-93795000D01*
X146787621Y-87411000D02*
X146787621Y-89560000D01*
X146787621Y-91640000D02*
X146787621Y-93789000D01*
X146827621Y-87418000D02*
X146827621Y-89560000D01*
X146827621Y-91640000D02*
X146827621Y-93782000D01*
X146867621Y-87425000D02*
X146867621Y-89560000D01*
X146867621Y-91640000D02*
X146867621Y-93775000D01*
X146907621Y-87433000D02*
X146907621Y-89560000D01*
X146907621Y-91640000D02*
X146907621Y-93767000D01*
X146947621Y-87441000D02*
X146947621Y-89560000D01*
X146947621Y-91640000D02*
X146947621Y-93759000D01*
X146988621Y-87450000D02*
X146988621Y-89560000D01*
X146988621Y-91640000D02*
X146988621Y-93750000D01*
X147028621Y-87459000D02*
X147028621Y-89560000D01*
X147028621Y-91640000D02*
X147028621Y-93741000D01*
X147068621Y-87469000D02*
X147068621Y-89560000D01*
X147068621Y-91640000D02*
X147068621Y-93731000D01*
X147108621Y-87479000D02*
X147108621Y-89560000D01*
X147108621Y-91640000D02*
X147108621Y-93721000D01*
X147148621Y-87490000D02*
X147148621Y-89560000D01*
X147148621Y-91640000D02*
X147148621Y-93710000D01*
X147188621Y-87502000D02*
X147188621Y-89560000D01*
X147188621Y-91640000D02*
X147188621Y-93698000D01*
X147228621Y-87514000D02*
X147228621Y-89560000D01*
X147228621Y-91640000D02*
X147228621Y-93686000D01*
X147268621Y-87526000D02*
X147268621Y-89560000D01*
X147268621Y-91640000D02*
X147268621Y-93674000D01*
X147308621Y-87539000D02*
X147308621Y-89560000D01*
X147308621Y-91640000D02*
X147308621Y-93661000D01*
X147348621Y-87553000D02*
X147348621Y-89560000D01*
X147348621Y-91640000D02*
X147348621Y-93647000D01*
X147388621Y-87567000D02*
X147388621Y-89560000D01*
X147388621Y-91640000D02*
X147388621Y-93633000D01*
X147428621Y-87582000D02*
X147428621Y-89560000D01*
X147428621Y-91640000D02*
X147428621Y-93618000D01*
X147468621Y-87598000D02*
X147468621Y-89560000D01*
X147468621Y-91640000D02*
X147468621Y-93602000D01*
X147508621Y-87614000D02*
X147508621Y-89560000D01*
X147508621Y-91640000D02*
X147508621Y-93586000D01*
X147548621Y-87630000D02*
X147548621Y-89560000D01*
X147548621Y-91640000D02*
X147548621Y-93570000D01*
X147588621Y-87648000D02*
X147588621Y-89560000D01*
X147588621Y-91640000D02*
X147588621Y-93552000D01*
X147628621Y-87666000D02*
X147628621Y-89560000D01*
X147628621Y-91640000D02*
X147628621Y-93534000D01*
X147668621Y-87684000D02*
X147668621Y-89560000D01*
X147668621Y-91640000D02*
X147668621Y-93516000D01*
X147708621Y-87704000D02*
X147708621Y-89560000D01*
X147708621Y-91640000D02*
X147708621Y-93496000D01*
X147748621Y-87724000D02*
X147748621Y-89560000D01*
X147748621Y-91640000D02*
X147748621Y-93476000D01*
X147788621Y-87744000D02*
X147788621Y-89560000D01*
X147788621Y-91640000D02*
X147788621Y-93456000D01*
X147828621Y-87766000D02*
X147828621Y-89560000D01*
X147828621Y-91640000D02*
X147828621Y-93434000D01*
X147868621Y-87788000D02*
X147868621Y-89560000D01*
X147868621Y-91640000D02*
X147868621Y-93412000D01*
X147908621Y-87810000D02*
X147908621Y-89560000D01*
X147908621Y-91640000D02*
X147908621Y-93390000D01*
X147948621Y-87834000D02*
X147948621Y-89560000D01*
X147948621Y-91640000D02*
X147948621Y-93366000D01*
X147988621Y-87858000D02*
X147988621Y-89560000D01*
X147988621Y-91640000D02*
X147988621Y-93342000D01*
X148028621Y-87884000D02*
X148028621Y-89560000D01*
X148028621Y-91640000D02*
X148028621Y-93316000D01*
X148068621Y-87910000D02*
X148068621Y-89560000D01*
X148068621Y-91640000D02*
X148068621Y-93290000D01*
X148108621Y-87936000D02*
X148108621Y-89560000D01*
X148108621Y-91640000D02*
X148108621Y-93264000D01*
X148148621Y-87964000D02*
X148148621Y-89560000D01*
X148148621Y-91640000D02*
X148148621Y-93236000D01*
X148188621Y-87993000D02*
X148188621Y-89560000D01*
X148188621Y-91640000D02*
X148188621Y-93207000D01*
X148228621Y-88022000D02*
X148228621Y-89560000D01*
X148228621Y-91640000D02*
X148228621Y-93178000D01*
X148268621Y-88052000D02*
X148268621Y-89560000D01*
X148268621Y-91640000D02*
X148268621Y-93148000D01*
X148308621Y-88084000D02*
X148308621Y-89560000D01*
X148308621Y-91640000D02*
X148308621Y-93116000D01*
X148348621Y-88116000D02*
X148348621Y-89560000D01*
X148348621Y-91640000D02*
X148348621Y-93084000D01*
X148388621Y-88150000D02*
X148388621Y-89560000D01*
X148388621Y-91640000D02*
X148388621Y-93050000D01*
X148428621Y-88184000D02*
X148428621Y-89560000D01*
X148428621Y-91640000D02*
X148428621Y-93016000D01*
X148468621Y-88220000D02*
X148468621Y-89560000D01*
X148468621Y-91640000D02*
X148468621Y-92980000D01*
X148508621Y-88257000D02*
X148508621Y-89560000D01*
X148508621Y-91640000D02*
X148508621Y-92943000D01*
X148548621Y-88295000D02*
X148548621Y-89560000D01*
X148548621Y-91640000D02*
X148548621Y-92905000D01*
X148588621Y-88335000D02*
X148588621Y-92865000D01*
X148628621Y-88376000D02*
X148628621Y-92824000D01*
X148668621Y-88418000D02*
X148668621Y-92782000D01*
X148708621Y-88463000D02*
X148708621Y-92737000D01*
X148748621Y-88508000D02*
X148748621Y-92692000D01*
X148788621Y-88556000D02*
X148788621Y-92644000D01*
X148828621Y-88605000D02*
X148828621Y-92595000D01*
X148868621Y-88656000D02*
X148868621Y-92544000D01*
X148908621Y-88710000D02*
X148908621Y-92490000D01*
X148948621Y-88766000D02*
X148948621Y-92434000D01*
X148988621Y-88824000D02*
X148988621Y-92376000D01*
X149028621Y-88886000D02*
X149028621Y-92314000D01*
X149068621Y-88950000D02*
X149068621Y-92250000D01*
X149108621Y-89019000D02*
X149108621Y-92181000D01*
X149148621Y-89091000D02*
X149148621Y-92109000D01*
X149188621Y-89168000D02*
X149188621Y-92032000D01*
X149228621Y-89250000D02*
X149228621Y-91950000D01*
X149268621Y-89338000D02*
X149268621Y-91862000D01*
X149308621Y-89435000D02*
X149308621Y-91765000D01*
X149348621Y-89541000D02*
X149348621Y-91659000D01*
X149388621Y-89660000D02*
X149388621Y-91540000D01*
X149428621Y-89798000D02*
X149428621Y-91402000D01*
X149468621Y-89967000D02*
X149468621Y-91233000D01*
X149508621Y-90198000D02*
X149508621Y-91002000D01*
X149537621Y-90600000D02*
G75*
G03*
X149537621Y-90600000I-3270000J0D01*
G01*
%TO.C,R22*%
X195700000Y-84190000D02*
X195700000Y-84880000D01*
X197420000Y-84880000D02*
X193980000Y-84880000D01*
X193980000Y-84880000D02*
X193980000Y-94120000D01*
X197420000Y-94120000D02*
X197420000Y-84880000D01*
X193980000Y-94120000D02*
X197420000Y-94120000D01*
X195700000Y-94810000D02*
X195700000Y-94120000D01*
%TO.C,R14*%
X184040000Y-106000000D02*
X184990000Y-106000000D01*
X184990000Y-105080000D02*
X184990000Y-106920000D01*
X184990000Y-106920000D02*
X188830000Y-106920000D01*
X188830000Y-105080000D02*
X184990000Y-105080000D01*
X188830000Y-106920000D02*
X188830000Y-105080000D01*
X189780000Y-106000000D02*
X188830000Y-106000000D01*
%TO.C,R17*%
X173860000Y-108700000D02*
X172910000Y-108700000D01*
X172910000Y-109620000D02*
X172910000Y-107780000D01*
X172910000Y-107780000D02*
X169070000Y-107780000D01*
X169070000Y-109620000D02*
X172910000Y-109620000D01*
X169070000Y-107780000D02*
X169070000Y-109620000D01*
X168120000Y-108700000D02*
X169070000Y-108700000D01*
%TO.C,C11*%
X195127738Y-113985000D02*
X195677738Y-113985000D01*
X195402738Y-113710000D02*
X195402738Y-114260000D01*
X200867076Y-114540000D02*
G75*
G03*
X195532924Y-114540000I-2667076J-1060000D01*
G01*
X195532924Y-116660000D02*
G75*
G03*
X200867076Y-116660000I2667076J1060000D01*
G01*
%TO.C,Q15*%
X188780000Y-70375000D02*
X188780000Y-75016000D01*
X188780000Y-70375000D02*
X199020000Y-70375000D01*
X188780000Y-71885000D02*
X199020000Y-71885000D01*
X188780000Y-75016000D02*
X199020000Y-75016000D01*
X192050000Y-70375000D02*
X192050000Y-71885000D01*
X195751000Y-70375000D02*
X195751000Y-71885000D01*
X199020000Y-70375000D02*
X199020000Y-75016000D01*
%TO.C,J3*%
X189810000Y-107140000D02*
X188560000Y-107140000D01*
X189510000Y-107440000D02*
X184790000Y-107440000D01*
X188200000Y-107440000D02*
X188200000Y-108050000D01*
X186900000Y-107440000D02*
X186900000Y-108050000D01*
X184790000Y-107440000D02*
X184790000Y-113560000D01*
X188900000Y-108050000D02*
X185400000Y-108050000D01*
X185400000Y-108050000D02*
X185400000Y-112950000D01*
X189810000Y-108390000D02*
X189810000Y-107140000D01*
X189710000Y-108900000D02*
X189510000Y-108900000D01*
X189710000Y-109200000D02*
X189710000Y-108900000D01*
X189610000Y-109200000D02*
X189610000Y-108900000D01*
X189510000Y-109200000D02*
X189710000Y-109200000D01*
X189510000Y-110000000D02*
X188900000Y-110000000D01*
X188900000Y-110000000D02*
X188900000Y-108050000D01*
X185900000Y-110400000D02*
X185900000Y-110600000D01*
X185400000Y-110400000D02*
X185900000Y-110400000D01*
X185400000Y-110500000D02*
X185900000Y-110500000D01*
X185900000Y-110600000D02*
X185400000Y-110600000D01*
X188900000Y-111000000D02*
X189510000Y-111000000D01*
X188900000Y-112950000D02*
X188900000Y-111000000D01*
X185400000Y-112950000D02*
X188900000Y-112950000D01*
X189510000Y-113560000D02*
X189510000Y-107440000D01*
X188200000Y-113560000D02*
X188200000Y-112950000D01*
X186900000Y-113560000D02*
X186900000Y-112950000D01*
X184790000Y-113560000D02*
X189510000Y-113560000D01*
%TO.C,R23*%
X163500000Y-79680000D02*
X163500000Y-79220000D01*
X166620000Y-82800000D02*
G75*
G03*
X166620000Y-82800000I-3120000J0D01*
G01*
%TO.C,R26*%
X144640000Y-77400000D02*
X143870000Y-77400000D01*
X143870000Y-78770000D02*
X143870000Y-76030000D01*
X143870000Y-76030000D02*
X137330000Y-76030000D01*
X137330000Y-78770000D02*
X143870000Y-78770000D01*
X137330000Y-76030000D02*
X137330000Y-78770000D01*
X136560000Y-77400000D02*
X137330000Y-77400000D01*
%TD*%
M02*
