%TF.GenerationSoftware,KiCad,Pcbnew,7.0.9*%
%TF.CreationDate,2023-11-26T22:18:51+01:00*%
%TF.ProjectId,Wzmacniacz_PW3017_modyfikacja,577a6d61-636e-4696-9163-7a5f50573330,rev?*%
%TF.SameCoordinates,Original*%
%TF.FileFunction,Paste,Bot*%
%TF.FilePolarity,Positive*%
%FSLAX46Y46*%
G04 Gerber Fmt 4.6, Leading zero omitted, Abs format (unit mm)*
G04 Created by KiCad (PCBNEW 7.0.9) date 2023-11-26 22:18:51*
%MOMM*%
%LPD*%
G01*
G04 APERTURE LIST*
G04 Aperture macros list*
%AMRoundRect*
0 Rectangle with rounded corners*
0 $1 Rounding radius*
0 $2 $3 $4 $5 $6 $7 $8 $9 X,Y pos of 4 corners*
0 Add a 4 corners polygon primitive as box body*
4,1,4,$2,$3,$4,$5,$6,$7,$8,$9,$2,$3,0*
0 Add four circle primitives for the rounded corners*
1,1,$1+$1,$2,$3*
1,1,$1+$1,$4,$5*
1,1,$1+$1,$6,$7*
1,1,$1+$1,$8,$9*
0 Add four rect primitives between the rounded corners*
20,1,$1+$1,$2,$3,$4,$5,0*
20,1,$1+$1,$4,$5,$6,$7,0*
20,1,$1+$1,$6,$7,$8,$9,0*
20,1,$1+$1,$8,$9,$2,$3,0*%
G04 Aperture macros list end*
%ADD10RoundRect,0.250000X-0.400000X-0.625000X0.400000X-0.625000X0.400000X0.625000X-0.400000X0.625000X0*%
%ADD11RoundRect,0.250000X-0.625000X0.400000X-0.625000X-0.400000X0.625000X-0.400000X0.625000X0.400000X0*%
%ADD12RoundRect,0.250000X-0.475000X0.337500X-0.475000X-0.337500X0.475000X-0.337500X0.475000X0.337500X0*%
%ADD13RoundRect,0.250000X0.400000X0.625000X-0.400000X0.625000X-0.400000X-0.625000X0.400000X-0.625000X0*%
%ADD14RoundRect,0.150000X-0.150000X0.587500X-0.150000X-0.587500X0.150000X-0.587500X0.150000X0.587500X0*%
%ADD15RoundRect,0.150000X-0.587500X-0.150000X0.587500X-0.150000X0.587500X0.150000X-0.587500X0.150000X0*%
%ADD16RoundRect,0.250000X0.625000X-0.400000X0.625000X0.400000X-0.625000X0.400000X-0.625000X-0.400000X0*%
%ADD17RoundRect,0.250000X0.337500X0.475000X-0.337500X0.475000X-0.337500X-0.475000X0.337500X-0.475000X0*%
%ADD18RoundRect,0.150000X0.587500X0.150000X-0.587500X0.150000X-0.587500X-0.150000X0.587500X-0.150000X0*%
%ADD19RoundRect,0.250000X-0.337500X-0.475000X0.337500X-0.475000X0.337500X0.475000X-0.337500X0.475000X0*%
G04 APERTURE END LIST*
D10*
%TO.C,R13*%
X165450000Y-111300000D03*
X168550000Y-111300000D03*
%TD*%
D11*
%TO.C,R2*%
X158100000Y-114150000D03*
X158100000Y-117250000D03*
%TD*%
D12*
%TO.C,C22*%
X192000000Y-93762500D03*
X192000000Y-95837500D03*
%TD*%
D13*
%TO.C,R16*%
X152950000Y-92800000D03*
X149850000Y-92800000D03*
%TD*%
D14*
%TO.C,Q5*%
X193050000Y-107325000D03*
X194950000Y-107325000D03*
X194000000Y-109200000D03*
%TD*%
D10*
%TO.C,R15*%
X196500000Y-112300000D03*
X199600000Y-112300000D03*
%TD*%
D15*
%TO.C,Q2*%
X161025000Y-117250000D03*
X161025000Y-115350000D03*
X162900000Y-116300000D03*
%TD*%
D13*
%TO.C,R4*%
X137950000Y-112500000D03*
X134850000Y-112500000D03*
%TD*%
%TO.C,R3*%
X137950000Y-117100000D03*
X134850000Y-117100000D03*
%TD*%
D10*
%TO.C,R9*%
X165350000Y-116600000D03*
X168450000Y-116600000D03*
%TD*%
%TO.C,R1*%
X154750000Y-110800000D03*
X157850000Y-110800000D03*
%TD*%
D16*
%TO.C,R21*%
X137400000Y-97250000D03*
X137400000Y-94150000D03*
%TD*%
D10*
%TO.C,R11*%
X202950000Y-113200000D03*
X206050000Y-113200000D03*
%TD*%
D11*
%TO.C,R5*%
X138100000Y-106050000D03*
X138100000Y-109150000D03*
%TD*%
D15*
%TO.C,Q1*%
X161025000Y-113650000D03*
X161025000Y-111750000D03*
X162900000Y-112700000D03*
%TD*%
D17*
%TO.C,C1*%
X150537500Y-109500000D03*
X148462500Y-109500000D03*
%TD*%
D15*
%TO.C,Q7*%
X197525000Y-104450000D03*
X197525000Y-102550000D03*
X199400000Y-103500000D03*
%TD*%
D13*
%TO.C,R8*%
X152850000Y-96700000D03*
X149750000Y-96700000D03*
%TD*%
D10*
%TO.C,R7*%
X187150000Y-116200000D03*
X190250000Y-116200000D03*
%TD*%
D18*
%TO.C,Q9*%
X199337500Y-108100000D03*
X199337500Y-110000000D03*
X197462500Y-109050000D03*
%TD*%
D19*
%TO.C,C9*%
X204162500Y-105700000D03*
X206237500Y-105700000D03*
%TD*%
M02*
