M48
; DRILL file {KiCad 7.0.9} date Sun Nov 26 22:18:59 2023
; FORMAT={-:-/ absolute / metric / decimal}
; #@! TF.CreationDate,2023-11-26T22:18:59+01:00
; #@! TF.GenerationSoftware,Kicad,Pcbnew,7.0.9
; #@! TF.FileFunction,Plated,1,2,PTH
FMAT,2
METRIC
; #@! TA.AperFunction,Plated,PTH,ViaDrill
T1C0.700
; #@! TA.AperFunction,Plated,PTH,ComponentDrill
T2C0.700
; #@! TA.AperFunction,Plated,PTH,ComponentDrill
T3C0.750
; #@! TA.AperFunction,Plated,PTH,ComponentDrill
T4C0.800
; #@! TA.AperFunction,Plated,PTH,ComponentDrill
T5C0.900
; #@! TA.AperFunction,Plated,PTH,ComponentDrill
T6C1.000
; #@! TA.AperFunction,Plated,PTH,ComponentDrill
T7C1.100
%
G90
G05
T1
X125.1Y-100.6
X125.1Y-102.5
X135.7Y-100.6
X135.7Y-102.46
X137.6Y-79.6
X142.7Y-79.6
X145.7Y-87.3
X149.6Y-87.3
X174.8Y-90.5
X179.2Y-98.2
X179.2Y-92.2
X181.4Y-92.2
X181.4Y-98.2
X184.8Y-90.5
X194.0Y-105.2
T2
X132.89Y-87.0
X140.51Y-87.0
X167.18Y-108.7
X174.8Y-108.7
X183.09Y-102.9
X183.1Y-106.0
X190.71Y-102.9
X190.72Y-106.0
T3
X124.105Y-106.7
X129.185Y-106.7
X187.7Y-109.5
X187.7Y-111.5
T4
X122.65Y-89.3
X127.22Y-98.9
X130.15Y-89.3
X132.56Y-104.16
X132.56Y-109.24
X132.9Y-89.65
X132.9Y-97.15
X135.1Y-106.7
X135.52Y-77.4
X136.12Y-91.5
X137.38Y-98.9
X138.66Y-91.5
X141.2Y-91.5
X141.32Y-96.8
X143.86Y-96.8
X144.5Y-112.9
X144.5Y-117.9
X145.018Y-90.6
X145.68Y-77.4
X146.4Y-96.8
X147.518Y-90.6
X152.9Y-77.62
X152.9Y-87.78
X155.7Y-93.5
X155.7Y-98.58
X158.24Y-96.04
X162.0Y-107.8
X164.5Y-107.8
X168.76Y-113.9
X171.3Y-111.36
X171.3Y-116.44
X173.45Y-87.9
X174.83Y-111.36
X174.83Y-116.44
X177.0Y-95.49
X177.0Y-105.65
X177.37Y-113.9
X180.95Y-87.9
X181.1Y-113.1
X181.1Y-115.6
X183.5Y-95.5
X183.5Y-100.5
X184.95Y-116.2
X187.0Y-75.9
X187.0Y-88.6
X187.0Y-90.6
X187.0Y-95.6
X189.62Y-77.7
X192.45Y-116.2
X195.7Y-83.15
X195.7Y-95.85
X195.7Y-115.6
X199.15Y-88.1
X199.78Y-77.7
X200.7Y-115.6
X201.6Y-109.9
X206.6Y-109.9
X206.65Y-88.1
T5
X151.7Y-114.035
X151.7Y-116.575
T6
X123.9Y-82.4
X125.9Y-114.1
X127.5Y-94.4
X128.9Y-82.4
X130.9Y-114.1
X140.18Y-82.9
X140.8Y-106.1
X145.8Y-106.1
X146.26Y-72.775
X147.8Y-82.9
X148.8Y-72.775
X151.34Y-72.775
X153.9Y-103.768
X153.9Y-108.768
X163.5Y-74.43
X163.5Y-77.72
X163.5Y-82.8
X163.5Y-86.5
X163.58Y-92.3
X163.6Y-95.9
X163.6Y-102.0
X171.2Y-92.3
X176.36Y-72.8
X176.59Y-82.8
X178.9Y-72.8
X181.44Y-72.8
X184.21Y-82.8
X187.0Y-98.7
X189.54Y-98.7
X192.08Y-98.7
X201.068Y-100.4
X201.1Y-81.0
X203.8Y-92.3
X206.068Y-100.4
X206.1Y-81.0
T7
X131.26Y-73.645
X133.8Y-73.645
X136.34Y-73.645
X191.36Y-73.645
X193.9Y-73.645
X196.44Y-73.645
T0
M30
