%TF.GenerationSoftware,KiCad,Pcbnew,7.0.9*%
%TF.CreationDate,2023-11-26T22:18:51+01:00*%
%TF.ProjectId,Wzmacniacz_PW3017_modyfikacja,577a6d61-636e-4696-9163-7a5f50573330,rev?*%
%TF.SameCoordinates,Original*%
%TF.FileFunction,Copper,L1,Top*%
%TF.FilePolarity,Positive*%
%FSLAX46Y46*%
G04 Gerber Fmt 4.6, Leading zero omitted, Abs format (unit mm)*
G04 Created by KiCad (PCBNEW 7.0.9) date 2023-11-26 22:18:51*
%MOMM*%
%LPD*%
G01*
G04 APERTURE LIST*
G04 Aperture macros list*
%AMRoundRect*
0 Rectangle with rounded corners*
0 $1 Rounding radius*
0 $2 $3 $4 $5 $6 $7 $8 $9 X,Y pos of 4 corners*
0 Add a 4 corners polygon primitive as box body*
4,1,4,$2,$3,$4,$5,$6,$7,$8,$9,$2,$3,0*
0 Add four circle primitives for the rounded corners*
1,1,$1+$1,$2,$3*
1,1,$1+$1,$4,$5*
1,1,$1+$1,$6,$7*
1,1,$1+$1,$8,$9*
0 Add four rect primitives between the rounded corners*
20,1,$1+$1,$2,$3,$4,$5,0*
20,1,$1+$1,$4,$5,$6,$7,0*
20,1,$1+$1,$6,$7,$8,$9,0*
20,1,$1+$1,$8,$9,$2,$3,0*%
G04 Aperture macros list end*
%TA.AperFunction,ComponentPad*%
%ADD10R,2.000000X2.300000*%
%TD*%
%TA.AperFunction,ComponentPad*%
%ADD11C,2.200000*%
%TD*%
%TA.AperFunction,ComponentPad*%
%ADD12C,3.000000*%
%TD*%
%TA.AperFunction,ComponentPad*%
%ADD13C,1.600000*%
%TD*%
%TA.AperFunction,ComponentPad*%
%ADD14O,1.600000X1.600000*%
%TD*%
%TA.AperFunction,ComponentPad*%
%ADD15R,3.200000X3.200000*%
%TD*%
%TA.AperFunction,ComponentPad*%
%ADD16R,2.100000X2.500000*%
%TD*%
%TA.AperFunction,ComponentPad*%
%ADD17O,2.100000X2.500000*%
%TD*%
%TA.AperFunction,ComponentPad*%
%ADD18R,2.500000X2.200000*%
%TD*%
%TA.AperFunction,ComponentPad*%
%ADD19C,2.500000*%
%TD*%
%TA.AperFunction,ComponentPad*%
%ADD20C,2.300000*%
%TD*%
%TA.AperFunction,ComponentPad*%
%ADD21C,2.800000*%
%TD*%
%TA.AperFunction,ComponentPad*%
%ADD22R,3.000000X3.000000*%
%TD*%
%TA.AperFunction,ComponentPad*%
%ADD23O,2.200000X2.500000*%
%TD*%
%TA.AperFunction,ComponentPad*%
%ADD24R,2.000000X2.000000*%
%TD*%
%TA.AperFunction,ComponentPad*%
%ADD25R,2.300000X2.000000*%
%TD*%
%TA.AperFunction,ComponentPad*%
%ADD26R,2.000000X2.500000*%
%TD*%
%TA.AperFunction,ComponentPad*%
%ADD27R,2.500000X2.500000*%
%TD*%
%TA.AperFunction,ComponentPad*%
%ADD28C,1.400000*%
%TD*%
%TA.AperFunction,ComponentPad*%
%ADD29O,1.400000X1.400000*%
%TD*%
%TA.AperFunction,ComponentPad*%
%ADD30R,1.500000X1.500000*%
%TD*%
%TA.AperFunction,ComponentPad*%
%ADD31O,1.500000X1.500000*%
%TD*%
%TA.AperFunction,ComponentPad*%
%ADD32C,2.600000*%
%TD*%
%TA.AperFunction,ComponentPad*%
%ADD33R,2.500000X2.000000*%
%TD*%
%TA.AperFunction,ComponentPad*%
%ADD34R,2.300000X2.100000*%
%TD*%
%TA.AperFunction,ComponentPad*%
%ADD35O,2.300000X2.100000*%
%TD*%
%TA.AperFunction,ComponentPad*%
%ADD36R,2.200000X2.500000*%
%TD*%
%TA.AperFunction,ComponentPad*%
%ADD37R,1.600000X1.600000*%
%TD*%
%TA.AperFunction,ComponentPad*%
%ADD38R,2.100000X2.300000*%
%TD*%
%TA.AperFunction,ComponentPad*%
%ADD39RoundRect,0.374999X-0.875001X0.525001X-0.875001X-0.525001X0.875001X-0.525001X0.875001X0.525001X0*%
%TD*%
%TA.AperFunction,ComponentPad*%
%ADD40O,2.500000X1.700000*%
%TD*%
%TA.AperFunction,ViaPad*%
%ADD41C,2.000000*%
%TD*%
%TA.AperFunction,Conductor*%
%ADD42C,0.500000*%
%TD*%
%TA.AperFunction,Conductor*%
%ADD43C,1.000000*%
%TD*%
G04 APERTURE END LIST*
D10*
%TO.P,C14,1*%
%TO.N,Net-(C14-Pad1)*%
X164500000Y-107800000D03*
D11*
%TO.P,C14,2*%
%TO.N,GND*%
X162000000Y-107800000D03*
%TD*%
D12*
%TO.P,L1,1*%
%TO.N,Net-(C13-Pad2)*%
X163500000Y-74430000D03*
%TO.P,L1,2*%
%TO.N,Net-(J2-Pin_1)*%
X163500000Y-86500000D03*
%TD*%
D13*
%TO.P,R19,1*%
%TO.N,Net-(Q12-B)*%
X152900000Y-77620000D03*
D14*
%TO.P,R19,2*%
%TO.N,Net-(Q10-G)*%
X152900000Y-87780000D03*
%TD*%
D13*
%TO.P,C6,1*%
%TO.N,Net-(Q4-B)*%
X184950000Y-116200000D03*
D14*
%TO.P,C6,2*%
%TO.N,GND*%
X192450000Y-116200000D03*
%TD*%
D15*
%TO.P,J2,1,Pin_1*%
%TO.N,Net-(J2-Pin_1)*%
X163600000Y-95900000D03*
%TD*%
D16*
%TO.P,Q12,1,E*%
%TO.N,Net-(Q12-E)*%
X146260000Y-72775000D03*
D17*
%TO.P,Q12,2,C*%
%TO.N,Net-(J1-Pin_1)*%
X148800000Y-72775000D03*
%TO.P,Q12,3,B*%
%TO.N,Net-(Q12-B)*%
X151340000Y-72775000D03*
%TD*%
D18*
%TO.P,C2,1*%
%TO.N,/VC+*%
X153900000Y-108767677D03*
D19*
%TO.P,C2,2*%
%TO.N,GND*%
X153900000Y-103767677D03*
%TD*%
D11*
%TO.P,RV1,1,1*%
%TO.N,Net-(R8-Pad2)*%
X146400000Y-96800000D03*
%TO.P,RV1,2,2*%
%TO.N,Net-(Q6-C)*%
X143860000Y-96800000D03*
D20*
%TO.P,RV1,3,3*%
X141320000Y-96800000D03*
%TD*%
D16*
%TO.P,C18,1*%
%TO.N,Net-(J1-Pin_1)*%
X128900000Y-82400000D03*
D19*
%TO.P,C18,2*%
%TO.N,GND*%
X123900000Y-82400000D03*
%TD*%
D13*
%TO.P,C15,1*%
%TO.N,Net-(Q10-G)*%
X132900000Y-89650000D03*
%TO.P,C15,2*%
%TO.N,Net-(Q6-C)*%
X132900000Y-97150000D03*
%TD*%
%TO.P,C17,1*%
%TO.N,Net-(C17-Pad1)*%
X173450000Y-87900000D03*
%TO.P,C17,2*%
%TO.N,GND*%
X180950000Y-87900000D03*
%TD*%
D12*
%TO.P,R24,1*%
%TO.N,Net-(C13-Pad2)*%
X147800000Y-82900000D03*
D21*
%TO.P,R24,2*%
%TO.N,Net-(Q14-E)*%
X140180000Y-82900000D03*
%TD*%
D12*
%TO.P,R25,1*%
%TO.N,Net-(C13-Pad2)*%
X176590000Y-82800000D03*
%TO.P,R25,2*%
%TO.N,Net-(Q15-E)*%
X184210000Y-82800000D03*
%TD*%
D22*
%TO.P,J4,1,Pin_1*%
%TO.N,Net-(J4-Pin_1)*%
X203800000Y-92300000D03*
%TD*%
D16*
%TO.P,Q6,1,E*%
%TO.N,Net-(Q6-E)*%
X192080000Y-98700000D03*
D23*
%TO.P,Q6,2,C*%
%TO.N,Net-(Q6-C)*%
X189540000Y-98700000D03*
D17*
%TO.P,Q6,3,B*%
%TO.N,Net-(Q4-C)*%
X187000000Y-98700000D03*
%TD*%
D12*
%TO.P,R28,1*%
%TO.N,Net-(C17-Pad1)*%
X171200000Y-92300000D03*
%TO.P,R28,2*%
%TO.N,Net-(J2-Pin_1)*%
X163580000Y-92300000D03*
%TD*%
D13*
%TO.P,R12,1*%
%TO.N,Net-(Q6-C)*%
X187000000Y-88600000D03*
D14*
%TO.P,R12,2*%
%TO.N,Net-(Q13-B)*%
X187000000Y-75900000D03*
%TD*%
D24*
%TO.P,Q4,1,C*%
%TO.N,Net-(Q4-C)*%
X174830000Y-111360000D03*
D11*
%TO.P,Q4,2,B*%
%TO.N,Net-(Q4-B)*%
X177370000Y-113900000D03*
%TO.P,Q4,3,E*%
%TO.N,Net-(Q4-E)*%
X174830000Y-116440000D03*
%TD*%
D22*
%TO.P,J1,1,Pin_1*%
%TO.N,Net-(J1-Pin_1)*%
X127500000Y-94400000D03*
%TD*%
D10*
%TO.P,Q10,1,G*%
%TO.N,Net-(Q10-G)*%
X136120000Y-91500000D03*
D11*
%TO.P,Q10,2,S*%
%TO.N,Net-(Q10-S)*%
X138660000Y-91500000D03*
%TO.P,Q10,3,D*%
%TO.N,Net-(Q10-D)*%
X141200000Y-91500000D03*
%TD*%
D25*
%TO.P,Q11,1,C*%
%TO.N,Net-(Q11-C)*%
X171300000Y-116440000D03*
D11*
%TO.P,Q11,2,B*%
%TO.N,Net-(Q11-B)*%
X168760000Y-113900000D03*
%TO.P,Q11,3,E*%
%TO.N,Net-(Q11-E)*%
X171300000Y-111360000D03*
%TD*%
D16*
%TO.P,Q13,1,E*%
%TO.N,Net-(Q13-E)*%
X176360000Y-72800000D03*
D17*
%TO.P,Q13,2,C*%
%TO.N,Net-(J4-Pin_1)*%
X178900000Y-72800000D03*
%TO.P,Q13,3,B*%
%TO.N,Net-(Q13-B)*%
X181440000Y-72800000D03*
%TD*%
D26*
%TO.P,C12,1*%
%TO.N,GND*%
X206067677Y-100400000D03*
D19*
%TO.P,C12,2*%
%TO.N,Net-(Q6-E)*%
X201067677Y-100400000D03*
%TD*%
D27*
%TO.P,C19,1*%
%TO.N,GND*%
X206100000Y-81000000D03*
D19*
%TO.P,C19,2*%
%TO.N,Net-(J4-Pin_1)*%
X201100000Y-81000000D03*
%TD*%
D28*
%TO.P,R10,1*%
%TO.N,Net-(Q4-C)*%
X183090000Y-102900000D03*
D29*
%TO.P,R10,2*%
%TO.N,Net-(Q7-C)*%
X190710000Y-102900000D03*
%TD*%
D13*
%TO.P,C21,1*%
%TO.N,GND*%
X206650000Y-88100000D03*
%TO.P,C21,2*%
%TO.N,Net-(J4-Pin_1)*%
X199150000Y-88100000D03*
%TD*%
D16*
%TO.P,Q14,1,B*%
%TO.N,Net-(Q12-E)*%
X131260000Y-73645000D03*
D17*
%TO.P,Q14,2,C*%
%TO.N,Net-(J1-Pin_1)*%
X133800000Y-73645000D03*
%TO.P,Q14,3,E*%
%TO.N,Net-(Q14-E)*%
X136340000Y-73645000D03*
%TD*%
D30*
%TO.P,D2,1,K*%
%TO.N,Net-(D2-K)*%
X129185330Y-106700000D03*
D31*
%TO.P,D2,2,A*%
%TO.N,GND*%
X124105330Y-106700000D03*
%TD*%
D25*
%TO.P,D1,1,K*%
%TO.N,Net-(D1-K)*%
X151700000Y-116575000D03*
D11*
%TO.P,D1,2,A*%
%TO.N,/VC+*%
X151700000Y-114035000D03*
%TD*%
D15*
%TO.P,J5,1,Pin_1*%
%TO.N,GND*%
X163600000Y-102000000D03*
%TD*%
D28*
%TO.P,R20,1*%
%TO.N,Net-(Q10-G)*%
X132890000Y-87000000D03*
D29*
%TO.P,R20,2*%
%TO.N,Net-(Q10-S)*%
X140510000Y-87000000D03*
%TD*%
D13*
%TO.P,R6,1*%
%TO.N,Net-(J1-Pin_1)*%
X127220000Y-98900000D03*
D14*
%TO.P,R6,2*%
%TO.N,Net-(Q3-C)*%
X137380000Y-98900000D03*
%TD*%
D18*
%TO.P,C3,1*%
%TO.N,/VC+*%
X144500000Y-112900000D03*
D32*
%TO.P,C3,2*%
%TO.N,Net-(Q2-B)*%
X144500000Y-117900000D03*
%TD*%
D24*
%TO.P,Q8,1,C*%
%TO.N,Net-(Q10-G)*%
X155700000Y-93500000D03*
D11*
%TO.P,Q8,2,B*%
%TO.N,Net-(Q8-B)*%
X158240000Y-96040000D03*
%TO.P,Q8,3,E*%
%TO.N,Net-(Q6-C)*%
X155700000Y-98580000D03*
%TD*%
D13*
%TO.P,C7,1*%
%TO.N,Net-(C13-Pad2)*%
X183500000Y-95500000D03*
%TO.P,C7,2*%
%TO.N,Net-(Q4-C)*%
X183500000Y-100500000D03*
%TD*%
%TO.P,C20,1*%
%TO.N,Net-(J1-Pin_1)*%
X130150000Y-89300000D03*
%TO.P,C20,2*%
%TO.N,GND*%
X122650000Y-89300000D03*
%TD*%
D16*
%TO.P,C4,1*%
%TO.N,Net-(D2-K)*%
X130900000Y-114100000D03*
D19*
%TO.P,C4,2*%
%TO.N,GND*%
X125900000Y-114100000D03*
%TD*%
D13*
%TO.P,C8,1*%
%TO.N,Net-(Q4-C)*%
X187000000Y-95600000D03*
%TO.P,C8,2*%
%TO.N,Net-(Q6-C)*%
X187000000Y-90600000D03*
%TD*%
D33*
%TO.P,Q3,1,C*%
%TO.N,Net-(Q3-C)*%
X132560000Y-104160000D03*
D19*
%TO.P,Q3,2,B*%
%TO.N,Net-(D2-K)*%
X135100000Y-106700000D03*
%TO.P,Q3,3,E*%
%TO.N,Net-(Q3-E)*%
X132560000Y-109240000D03*
%TD*%
D34*
%TO.P,C5,1*%
%TO.N,Net-(Q4-B)*%
X181100000Y-115600000D03*
D35*
%TO.P,C5,2*%
%TO.N,Net-(J3-Pin_2)*%
X181100000Y-113100000D03*
%TD*%
D10*
%TO.P,C10,1*%
%TO.N,Net-(Q7-E)*%
X201600000Y-109900000D03*
D11*
%TO.P,C10,2*%
%TO.N,Net-(Q6-E)*%
X206600000Y-109900000D03*
%TD*%
D36*
%TO.P,C16,1*%
%TO.N,Net-(Q3-C)*%
X140800000Y-106100000D03*
D19*
%TO.P,C16,2*%
%TO.N,GND*%
X145800000Y-106100000D03*
%TD*%
D13*
%TO.P,R18,1*%
%TO.N,Net-(Q11-B)*%
X177000000Y-105650000D03*
D14*
%TO.P,R18,2*%
%TO.N,Net-(C13-Pad2)*%
X177000000Y-95490000D03*
%TD*%
D13*
%TO.P,R27,1*%
%TO.N,Net-(Q15-E)*%
X199780000Y-77700000D03*
D14*
%TO.P,R27,2*%
%TO.N,Net-(Q13-E)*%
X189620000Y-77700000D03*
%TD*%
D37*
%TO.P,C13,1*%
%TO.N,Net-(Q10-D)*%
X145017621Y-90600000D03*
D13*
%TO.P,C13,2*%
%TO.N,Net-(C13-Pad2)*%
X147517621Y-90600000D03*
%TD*%
%TO.P,R22,1*%
%TO.N,Net-(J4-Pin_1)*%
X195700000Y-83150000D03*
D14*
%TO.P,R22,2*%
%TO.N,Net-(Q6-E)*%
X195700000Y-95850000D03*
%TD*%
D28*
%TO.P,R14,1*%
%TO.N,Net-(Q11-C)*%
X183100000Y-106000000D03*
D29*
%TO.P,R14,2*%
%TO.N,Net-(JP1-B)*%
X190720000Y-106000000D03*
%TD*%
D28*
%TO.P,R17,1*%
%TO.N,Net-(Q11-B)*%
X174800000Y-108700000D03*
D29*
%TO.P,R17,2*%
%TO.N,Net-(C14-Pad1)*%
X167180000Y-108700000D03*
%TD*%
D38*
%TO.P,C11,1*%
%TO.N,Net-(Q9-E)*%
X195700000Y-115600000D03*
D20*
%TO.P,C11,2*%
%TO.N,Net-(Q6-E)*%
X200700000Y-115600000D03*
%TD*%
D16*
%TO.P,Q15,1,B*%
%TO.N,Net-(Q13-E)*%
X191360000Y-73645000D03*
D17*
%TO.P,Q15,2,C*%
%TO.N,Net-(J4-Pin_1)*%
X193900000Y-73645000D03*
%TO.P,Q15,3,E*%
%TO.N,Net-(Q15-E)*%
X196440000Y-73645000D03*
%TD*%
D39*
%TO.P,J3,1,Pin_1*%
%TO.N,GND*%
X187700000Y-109500000D03*
D40*
%TO.P,J3,2,Pin_2*%
%TO.N,Net-(J3-Pin_2)*%
X187700000Y-111500000D03*
%TD*%
D12*
%TO.P,R23,1*%
%TO.N,Net-(J2-Pin_1)*%
X163500000Y-82800000D03*
%TO.P,R23,2*%
%TO.N,Net-(C13-Pad2)*%
X163500000Y-77720000D03*
%TD*%
D13*
%TO.P,R26,1*%
%TO.N,Net-(Q12-E)*%
X145680000Y-77400000D03*
D14*
%TO.P,R26,2*%
%TO.N,Net-(Q14-E)*%
X135520000Y-77400000D03*
%TD*%
D41*
%TO.N,/VC+*%
X194000000Y-105200000D03*
%TO.N,GND*%
X125100000Y-102500000D03*
X181400000Y-98200000D03*
X135700000Y-100600000D03*
X181400000Y-92199500D03*
X179200000Y-98200000D03*
X179200497Y-92200000D03*
X125100000Y-100600000D03*
X135700000Y-102460500D03*
%TO.N,Net-(Q6-C)*%
X184800000Y-90500000D03*
X174800000Y-90500000D03*
%TO.N,Net-(Q10-G)*%
X145700000Y-87300000D03*
X149600000Y-87300000D03*
%TO.N,Net-(Q12-E)*%
X137600000Y-79600000D03*
X142700000Y-79600000D03*
%TD*%
D42*
%TO.N,/VC+*%
X189600000Y-104500000D02*
X186200000Y-107900000D01*
X160500000Y-104600000D02*
X156332323Y-108767677D01*
X194000000Y-105200000D02*
X193300000Y-104500000D01*
X173200000Y-104600000D02*
X160500000Y-104600000D01*
X156332323Y-108767677D02*
X153900000Y-108767677D01*
X176500000Y-107900000D02*
X173200000Y-104600000D01*
X186200000Y-107900000D02*
X176500000Y-107900000D01*
X193300000Y-104500000D02*
X189600000Y-104500000D01*
D43*
%TO.N,GND*%
X135699500Y-102460000D02*
X135700000Y-102460500D01*
X125100000Y-100600000D02*
X135700000Y-100600000D01*
X125100000Y-102500000D02*
X125140000Y-102460000D01*
X179200000Y-92200497D02*
X179200497Y-92200000D01*
X179200000Y-98200000D02*
X179200000Y-92200497D01*
X181400000Y-98200000D02*
X181400000Y-92199500D01*
X125140000Y-102460000D02*
X135699500Y-102460000D01*
%TO.N,Net-(Q6-C)*%
X184800000Y-90500000D02*
X184300000Y-90000000D01*
X184300000Y-90000000D02*
X175300000Y-90000000D01*
X175300000Y-90000000D02*
X174800000Y-90500000D01*
%TO.N,Net-(Q10-G)*%
X145700000Y-87300000D02*
X149600000Y-87300000D01*
%TO.N,Net-(Q12-E)*%
X137600000Y-79600000D02*
X142700000Y-79600000D01*
%TD*%
M02*
