%TF.GenerationSoftware,KiCad,Pcbnew,7.0.9*%
%TF.CreationDate,2023-11-26T22:18:52+01:00*%
%TF.ProjectId,Wzmacniacz_PW3017_modyfikacja,577a6d61-636e-4696-9163-7a5f50573330,rev?*%
%TF.SameCoordinates,Original*%
%TF.FileFunction,Soldermask,Top*%
%TF.FilePolarity,Negative*%
%FSLAX46Y46*%
G04 Gerber Fmt 4.6, Leading zero omitted, Abs format (unit mm)*
G04 Created by KiCad (PCBNEW 7.0.9) date 2023-11-26 22:18:52*
%MOMM*%
%LPD*%
G01*
G04 APERTURE LIST*
G04 Aperture macros list*
%AMRoundRect*
0 Rectangle with rounded corners*
0 $1 Rounding radius*
0 $2 $3 $4 $5 $6 $7 $8 $9 X,Y pos of 4 corners*
0 Add a 4 corners polygon primitive as box body*
4,1,4,$2,$3,$4,$5,$6,$7,$8,$9,$2,$3,0*
0 Add four circle primitives for the rounded corners*
1,1,$1+$1,$2,$3*
1,1,$1+$1,$4,$5*
1,1,$1+$1,$6,$7*
1,1,$1+$1,$8,$9*
0 Add four rect primitives between the rounded corners*
20,1,$1+$1,$2,$3,$4,$5,0*
20,1,$1+$1,$4,$5,$6,$7,0*
20,1,$1+$1,$6,$7,$8,$9,0*
20,1,$1+$1,$8,$9,$2,$3,0*%
G04 Aperture macros list end*
%ADD10R,2.000000X2.300000*%
%ADD11C,2.200000*%
%ADD12C,3.000000*%
%ADD13C,1.600000*%
%ADD14O,1.600000X1.600000*%
%ADD15R,3.200000X3.200000*%
%ADD16R,2.100000X2.500000*%
%ADD17O,2.100000X2.500000*%
%ADD18R,2.500000X2.200000*%
%ADD19C,2.500000*%
%ADD20C,2.300000*%
%ADD21C,2.800000*%
%ADD22R,3.000000X3.000000*%
%ADD23O,2.200000X2.500000*%
%ADD24R,2.000000X2.000000*%
%ADD25R,2.300000X2.000000*%
%ADD26R,2.000000X2.500000*%
%ADD27R,2.500000X2.500000*%
%ADD28C,1.400000*%
%ADD29O,1.400000X1.400000*%
%ADD30R,1.500000X1.500000*%
%ADD31O,1.500000X1.500000*%
%ADD32C,2.600000*%
%ADD33R,2.500000X2.000000*%
%ADD34R,2.300000X2.100000*%
%ADD35O,2.300000X2.100000*%
%ADD36R,2.200000X2.500000*%
%ADD37R,1.600000X1.600000*%
%ADD38R,2.100000X2.300000*%
%ADD39RoundRect,0.374999X-0.875001X0.525001X-0.875001X-0.525001X0.875001X-0.525001X0.875001X0.525001X0*%
%ADD40O,2.500000X1.700000*%
G04 APERTURE END LIST*
D10*
%TO.C,C14*%
X164500000Y-107800000D03*
D11*
X162000000Y-107800000D03*
%TD*%
D12*
%TO.C,L1*%
X163500000Y-74430000D03*
X163500000Y-86500000D03*
%TD*%
D13*
%TO.C,R19*%
X152900000Y-77620000D03*
D14*
X152900000Y-87780000D03*
%TD*%
D13*
%TO.C,C6*%
X184950000Y-116200000D03*
D14*
X192450000Y-116200000D03*
%TD*%
D15*
%TO.C,J2*%
X163600000Y-95900000D03*
%TD*%
D16*
%TO.C,Q12*%
X146260000Y-72775000D03*
D17*
X148800000Y-72775000D03*
X151340000Y-72775000D03*
%TD*%
D18*
%TO.C,C2*%
X153900000Y-108767677D03*
D19*
X153900000Y-103767677D03*
%TD*%
D11*
%TO.C,RV1*%
X146400000Y-96800000D03*
X143860000Y-96800000D03*
D20*
X141320000Y-96800000D03*
%TD*%
D16*
%TO.C,C18*%
X128900000Y-82400000D03*
D19*
X123900000Y-82400000D03*
%TD*%
D13*
%TO.C,C15*%
X132900000Y-89650000D03*
X132900000Y-97150000D03*
%TD*%
%TO.C,C17*%
X173450000Y-87900000D03*
X180950000Y-87900000D03*
%TD*%
D12*
%TO.C,R24*%
X147800000Y-82900000D03*
D21*
X140180000Y-82900000D03*
%TD*%
D12*
%TO.C,R25*%
X176590000Y-82800000D03*
X184210000Y-82800000D03*
%TD*%
D22*
%TO.C,J4*%
X203800000Y-92300000D03*
%TD*%
D16*
%TO.C,Q6*%
X192080000Y-98700000D03*
D23*
X189540000Y-98700000D03*
D17*
X187000000Y-98700000D03*
%TD*%
D12*
%TO.C,R28*%
X171200000Y-92300000D03*
X163580000Y-92300000D03*
%TD*%
D13*
%TO.C,R12*%
X187000000Y-88600000D03*
D14*
X187000000Y-75900000D03*
%TD*%
D24*
%TO.C,Q4*%
X174830000Y-111360000D03*
D11*
X177370000Y-113900000D03*
X174830000Y-116440000D03*
%TD*%
D22*
%TO.C,J1*%
X127500000Y-94400000D03*
%TD*%
D10*
%TO.C,Q10*%
X136120000Y-91500000D03*
D11*
X138660000Y-91500000D03*
X141200000Y-91500000D03*
%TD*%
D25*
%TO.C,Q11*%
X171300000Y-116440000D03*
D11*
X168760000Y-113900000D03*
X171300000Y-111360000D03*
%TD*%
D16*
%TO.C,Q13*%
X176360000Y-72800000D03*
D17*
X178900000Y-72800000D03*
X181440000Y-72800000D03*
%TD*%
D26*
%TO.C,C12*%
X206067677Y-100400000D03*
D19*
X201067677Y-100400000D03*
%TD*%
D27*
%TO.C,C19*%
X206100000Y-81000000D03*
D19*
X201100000Y-81000000D03*
%TD*%
D28*
%TO.C,R10*%
X183090000Y-102900000D03*
D29*
X190710000Y-102900000D03*
%TD*%
D13*
%TO.C,C21*%
X206650000Y-88100000D03*
X199150000Y-88100000D03*
%TD*%
D16*
%TO.C,Q14*%
X131260000Y-73645000D03*
D17*
X133800000Y-73645000D03*
X136340000Y-73645000D03*
%TD*%
D30*
%TO.C,D2*%
X129185330Y-106700000D03*
D31*
X124105330Y-106700000D03*
%TD*%
D25*
%TO.C,D1*%
X151700000Y-116575000D03*
D11*
X151700000Y-114035000D03*
%TD*%
D15*
%TO.C,J5*%
X163600000Y-102000000D03*
%TD*%
D28*
%TO.C,R20*%
X132890000Y-87000000D03*
D29*
X140510000Y-87000000D03*
%TD*%
D13*
%TO.C,R6*%
X127220000Y-98900000D03*
D14*
X137380000Y-98900000D03*
%TD*%
D18*
%TO.C,C3*%
X144500000Y-112900000D03*
D32*
X144500000Y-117900000D03*
%TD*%
D24*
%TO.C,Q8*%
X155700000Y-93500000D03*
D11*
X158240000Y-96040000D03*
X155700000Y-98580000D03*
%TD*%
D13*
%TO.C,C7*%
X183500000Y-95500000D03*
X183500000Y-100500000D03*
%TD*%
%TO.C,C20*%
X130150000Y-89300000D03*
X122650000Y-89300000D03*
%TD*%
D16*
%TO.C,C4*%
X130900000Y-114100000D03*
D19*
X125900000Y-114100000D03*
%TD*%
D13*
%TO.C,C8*%
X187000000Y-95600000D03*
X187000000Y-90600000D03*
%TD*%
D33*
%TO.C,Q3*%
X132560000Y-104160000D03*
D19*
X135100000Y-106700000D03*
X132560000Y-109240000D03*
%TD*%
D34*
%TO.C,C5*%
X181100000Y-115600000D03*
D35*
X181100000Y-113100000D03*
%TD*%
D10*
%TO.C,C10*%
X201600000Y-109900000D03*
D11*
X206600000Y-109900000D03*
%TD*%
D36*
%TO.C,C16*%
X140800000Y-106100000D03*
D19*
X145800000Y-106100000D03*
%TD*%
D13*
%TO.C,R18*%
X177000000Y-105650000D03*
D14*
X177000000Y-95490000D03*
%TD*%
D13*
%TO.C,R27*%
X199780000Y-77700000D03*
D14*
X189620000Y-77700000D03*
%TD*%
D37*
%TO.C,C13*%
X145017621Y-90600000D03*
D13*
X147517621Y-90600000D03*
%TD*%
%TO.C,R22*%
X195700000Y-83150000D03*
D14*
X195700000Y-95850000D03*
%TD*%
D28*
%TO.C,R14*%
X183100000Y-106000000D03*
D29*
X190720000Y-106000000D03*
%TD*%
D28*
%TO.C,R17*%
X174800000Y-108700000D03*
D29*
X167180000Y-108700000D03*
%TD*%
D38*
%TO.C,C11*%
X195700000Y-115600000D03*
D20*
X200700000Y-115600000D03*
%TD*%
D16*
%TO.C,Q15*%
X191360000Y-73645000D03*
D17*
X193900000Y-73645000D03*
X196440000Y-73645000D03*
%TD*%
D39*
%TO.C,J3*%
X187700000Y-109500000D03*
D40*
X187700000Y-111500000D03*
%TD*%
D12*
%TO.C,R23*%
X163500000Y-82800000D03*
X163500000Y-77720000D03*
%TD*%
D13*
%TO.C,R26*%
X145680000Y-77400000D03*
D14*
X135520000Y-77400000D03*
%TD*%
M02*
