%TF.GenerationSoftware,KiCad,Pcbnew,8.0.3*%
%TF.CreationDate,2024-07-19T13:19:08+02:00*%
%TF.ProjectId,Konwerter_impendancji.kicad_3_pcb,4b6f6e77-6572-4746-9572-5f696d70656e,rev?*%
%TF.SameCoordinates,Original*%
%TF.FileFunction,Legend,Top*%
%TF.FilePolarity,Positive*%
%FSLAX46Y46*%
G04 Gerber Fmt 4.6, Leading zero omitted, Abs format (unit mm)*
G04 Created by KiCad (PCBNEW 8.0.3) date 2024-07-19 13:19:08*
%MOMM*%
%LPD*%
G01*
G04 APERTURE LIST*
%ADD10C,0.300000*%
%ADD11C,0.150000*%
%ADD12C,0.120000*%
G04 APERTURE END LIST*
D10*
G36*
X137092221Y-113341860D02*
G01*
X132279231Y-113341860D01*
X132279231Y-110940374D01*
X132501453Y-110940374D01*
X132501453Y-110998902D01*
X132523851Y-111052974D01*
X132565235Y-111094358D01*
X132619307Y-111116756D01*
X132648571Y-111119638D01*
X133443803Y-111117411D01*
X132856698Y-112952479D01*
X132861475Y-113010811D01*
X132888210Y-113062873D01*
X132932834Y-113100743D01*
X132988555Y-113118654D01*
X133046887Y-113113877D01*
X133098949Y-113087142D01*
X133136819Y-113042518D01*
X133148518Y-113015539D01*
X133500986Y-111913857D01*
X133998793Y-111913857D01*
X134000641Y-111926796D01*
X133999676Y-111940198D01*
X134004767Y-111955673D01*
X134007071Y-111971795D01*
X134013824Y-111983201D01*
X134017968Y-111995794D01*
X134028590Y-112008138D01*
X134036890Y-112022156D01*
X134047496Y-112030110D01*
X134056141Y-112040157D01*
X134070681Y-112047498D01*
X134083713Y-112057272D01*
X134096553Y-112060561D01*
X134108386Y-112066536D01*
X134124629Y-112067754D01*
X134140409Y-112071797D01*
X134153529Y-112069922D01*
X134166750Y-112070914D01*
X134182225Y-112065822D01*
X134198347Y-112063519D01*
X134209753Y-112056765D01*
X134222346Y-112052622D01*
X134234690Y-112041999D01*
X134248708Y-112033700D01*
X134264988Y-112015929D01*
X134266709Y-112014449D01*
X134267156Y-112013563D01*
X134268572Y-112012018D01*
X134320792Y-111939494D01*
X134405540Y-111881223D01*
X134672211Y-111879234D01*
X134755623Y-111933130D01*
X134799565Y-111989408D01*
X134855836Y-112133992D01*
X134858239Y-112555479D01*
X134805670Y-112701123D01*
X134762062Y-112761687D01*
X134677316Y-112819956D01*
X134410644Y-112821945D01*
X134327232Y-112768048D01*
X134248708Y-112667480D01*
X134198347Y-112637661D01*
X134140409Y-112629383D01*
X134083713Y-112643908D01*
X134036890Y-112679024D01*
X134007071Y-112729385D01*
X133998793Y-112787323D01*
X134013318Y-112844019D01*
X134028570Y-112869160D01*
X134104879Y-112966892D01*
X134114044Y-112980577D01*
X134118260Y-112984030D01*
X134119862Y-112986081D01*
X134123121Y-112988010D01*
X134136794Y-112999208D01*
X134271245Y-113086082D01*
X134279521Y-113094358D01*
X134292147Y-113099588D01*
X134305601Y-113108281D01*
X134320017Y-113111132D01*
X134333593Y-113116756D01*
X134362857Y-113119638D01*
X134363009Y-113119636D01*
X134363015Y-113119638D01*
X134363021Y-113119636D01*
X134707007Y-113117071D01*
X134719841Y-113119638D01*
X134733828Y-113116871D01*
X134749263Y-113116756D01*
X134762837Y-113111133D01*
X134777256Y-113108281D01*
X134803204Y-113094446D01*
X134803327Y-113094361D01*
X134803335Y-113094358D01*
X134803341Y-113094351D01*
X134947251Y-112995402D01*
X134962994Y-112986081D01*
X134966714Y-112982019D01*
X134968813Y-112980577D01*
X134970922Y-112977426D01*
X134982858Y-112964399D01*
X135051093Y-112869634D01*
X135061760Y-112858219D01*
X135067026Y-112847506D01*
X135069538Y-112844019D01*
X135070404Y-112840635D01*
X135074734Y-112831830D01*
X135145838Y-112634831D01*
X135152832Y-112617949D01*
X135153169Y-112614521D01*
X135153740Y-112612941D01*
X135153633Y-112609808D01*
X135155714Y-112588685D01*
X135152987Y-112110416D01*
X135153740Y-112088239D01*
X135152841Y-112084869D01*
X135152832Y-112083231D01*
X135151631Y-112080333D01*
X135146163Y-112059827D01*
X135073874Y-111874088D01*
X135069538Y-111857161D01*
X135063257Y-111846807D01*
X135061760Y-111842961D01*
X135059374Y-111840408D01*
X135054286Y-111832020D01*
X134977981Y-111734293D01*
X134968813Y-111720603D01*
X134964593Y-111717147D01*
X134962994Y-111715099D01*
X134959736Y-111713170D01*
X134946062Y-111701972D01*
X134811608Y-111615095D01*
X134803335Y-111606822D01*
X134790710Y-111601592D01*
X134777256Y-111592899D01*
X134762837Y-111590046D01*
X134749263Y-111584424D01*
X134719999Y-111581542D01*
X134719846Y-111581543D01*
X134719841Y-111581542D01*
X134719834Y-111581543D01*
X134375849Y-111584108D01*
X134363015Y-111581542D01*
X134349027Y-111584308D01*
X134333593Y-111584424D01*
X134322967Y-111588825D01*
X134326408Y-111541066D01*
X135427142Y-111541066D01*
X135429803Y-112007852D01*
X135427319Y-112024548D01*
X135430002Y-112042690D01*
X135430024Y-112046521D01*
X135430871Y-112048565D01*
X135431621Y-112053637D01*
X135512942Y-112367042D01*
X135513206Y-112367398D01*
X135513317Y-112367831D01*
X135528570Y-112392971D01*
X135674475Y-112583203D01*
X135685472Y-112599624D01*
X135689768Y-112603142D01*
X135691293Y-112605130D01*
X135694551Y-112607059D01*
X135708223Y-112618255D01*
X135784840Y-112667760D01*
X135785915Y-112820744D01*
X135547878Y-112822520D01*
X135493806Y-112844918D01*
X135452422Y-112886302D01*
X135430024Y-112940374D01*
X135430024Y-112998902D01*
X135452422Y-113052974D01*
X135493806Y-113094358D01*
X135547878Y-113116756D01*
X135577142Y-113119638D01*
X135963549Y-113116756D01*
X136017621Y-113094358D01*
X136059005Y-113052974D01*
X136081403Y-112998902D01*
X136084285Y-112969638D01*
X136081699Y-112601599D01*
X136084285Y-112588528D01*
X136081510Y-112574653D01*
X136081403Y-112559421D01*
X136075719Y-112545699D01*
X136072807Y-112531138D01*
X136064628Y-112518925D01*
X136059005Y-112505349D01*
X136048506Y-112494850D01*
X136040241Y-112482508D01*
X136017732Y-112464076D01*
X136017621Y-112463965D01*
X136017570Y-112463944D01*
X136017490Y-112463878D01*
X135899110Y-112387387D01*
X135787766Y-112242216D01*
X135727091Y-112008379D01*
X135724588Y-111569441D01*
X135783342Y-111325206D01*
X135884524Y-111187224D01*
X136032764Y-111119390D01*
X136255182Y-111117355D01*
X136407255Y-111182962D01*
X136509373Y-111316106D01*
X136570049Y-111549944D01*
X136572552Y-111988881D01*
X136513797Y-112233115D01*
X136406194Y-112379856D01*
X136290457Y-112459434D01*
X136279520Y-112463965D01*
X136269949Y-112473535D01*
X136256900Y-112482508D01*
X136248634Y-112494850D01*
X136238136Y-112505349D01*
X136232512Y-112518925D01*
X136224334Y-112531138D01*
X136221421Y-112545700D01*
X136215738Y-112559421D01*
X136212886Y-112588373D01*
X136212856Y-112588527D01*
X136212866Y-112588579D01*
X136212856Y-112588685D01*
X136215738Y-112998902D01*
X136238136Y-113052974D01*
X136279520Y-113094358D01*
X136333592Y-113116756D01*
X136362856Y-113119638D01*
X136749263Y-113116756D01*
X136803335Y-113094358D01*
X136844719Y-113052974D01*
X136867117Y-112998902D01*
X136867117Y-112940374D01*
X136844719Y-112886302D01*
X136803335Y-112844918D01*
X136749263Y-112822520D01*
X136719999Y-112819638D01*
X136511813Y-112821190D01*
X136510743Y-112669018D01*
X136590105Y-112614450D01*
X136605849Y-112605129D01*
X136609570Y-112601066D01*
X136611669Y-112599624D01*
X136613778Y-112596473D01*
X136625713Y-112583447D01*
X136783823Y-112367831D01*
X136783933Y-112367400D01*
X136784198Y-112367043D01*
X136794091Y-112339352D01*
X136860961Y-112061381D01*
X136867117Y-112046521D01*
X136868905Y-112028357D01*
X136869822Y-112024549D01*
X136869496Y-112022360D01*
X136869999Y-112017257D01*
X136867337Y-111550469D01*
X136869822Y-111533774D01*
X136867138Y-111515631D01*
X136867117Y-111511802D01*
X136866270Y-111509757D01*
X136865520Y-111504685D01*
X136784198Y-111191280D01*
X136783933Y-111190922D01*
X136783823Y-111190492D01*
X136768570Y-111165352D01*
X136635001Y-110991203D01*
X136632520Y-110984752D01*
X136619726Y-110971287D01*
X136605849Y-110953194D01*
X136598271Y-110948707D01*
X136592205Y-110942323D01*
X136566634Y-110927804D01*
X136374955Y-110845109D01*
X136374764Y-110844918D01*
X136368416Y-110842288D01*
X136324437Y-110823315D01*
X136322491Y-110823265D01*
X136320692Y-110822520D01*
X136291428Y-110819638D01*
X136031715Y-110822014D01*
X136031213Y-110821821D01*
X136019133Y-110822129D01*
X135976449Y-110822520D01*
X135974649Y-110823265D01*
X135972704Y-110823315D01*
X135944792Y-110832566D01*
X135748472Y-110922400D01*
X135741654Y-110923375D01*
X135725697Y-110932822D01*
X135704936Y-110942323D01*
X135698870Y-110948706D01*
X135691293Y-110953193D01*
X135671429Y-110974875D01*
X135513317Y-111190492D01*
X135513206Y-111190924D01*
X135512942Y-111191281D01*
X135503049Y-111218972D01*
X135436180Y-111496940D01*
X135430024Y-111511802D01*
X135428235Y-111529967D01*
X135427319Y-111533775D01*
X135427644Y-111535962D01*
X135427142Y-111541066D01*
X134326408Y-111541066D01*
X134356813Y-111119107D01*
X134963549Y-111116756D01*
X135017621Y-111094358D01*
X135059005Y-111052974D01*
X135081403Y-110998902D01*
X135081403Y-110940374D01*
X135059005Y-110886302D01*
X135017621Y-110844918D01*
X134963549Y-110822520D01*
X134934285Y-110819638D01*
X134223805Y-110822391D01*
X134201820Y-110820743D01*
X134196486Y-110822497D01*
X134190735Y-110822520D01*
X134168794Y-110831608D01*
X134146224Y-110839034D01*
X134141913Y-110842743D01*
X134136663Y-110844918D01*
X134119871Y-110861709D01*
X134101861Y-110877207D01*
X134099298Y-110882282D01*
X134095279Y-110886302D01*
X134086188Y-110908247D01*
X134075482Y-110929453D01*
X134074078Y-110937483D01*
X134072881Y-110940374D01*
X134072881Y-110944333D01*
X134070419Y-110958419D01*
X134002662Y-111898753D01*
X133998793Y-111913857D01*
X133500986Y-111913857D01*
X133787014Y-111019843D01*
X133795689Y-110998902D01*
X133795689Y-110992730D01*
X133797587Y-110986798D01*
X133795689Y-110963625D01*
X133795689Y-110940374D01*
X133793315Y-110934642D01*
X133792809Y-110928465D01*
X133782190Y-110907785D01*
X133773291Y-110886302D01*
X133768906Y-110881917D01*
X133766075Y-110876403D01*
X133748348Y-110861359D01*
X133731907Y-110844918D01*
X133726178Y-110842545D01*
X133721451Y-110838533D01*
X133699319Y-110831419D01*
X133677835Y-110822520D01*
X133668891Y-110821639D01*
X133665730Y-110820623D01*
X133661822Y-110820943D01*
X133648571Y-110819638D01*
X132619307Y-110822520D01*
X132565235Y-110844918D01*
X132523851Y-110886302D01*
X132501453Y-110940374D01*
X132279231Y-110940374D01*
X132279231Y-110597416D01*
X137092221Y-110597416D01*
X137092221Y-113341860D01*
G37*
G36*
X115274194Y-111171225D02*
G01*
X115318138Y-111227505D01*
X115376908Y-111378513D01*
X115445716Y-111731976D01*
X115448271Y-112180150D01*
X115384238Y-112535196D01*
X115383835Y-112536017D01*
X115324241Y-112701125D01*
X115280634Y-112761685D01*
X115195296Y-112820362D01*
X115142421Y-112821247D01*
X115060090Y-112768049D01*
X115016147Y-112711770D01*
X114957375Y-112560763D01*
X114888568Y-112207299D01*
X114886013Y-111759123D01*
X114950046Y-111404076D01*
X114950448Y-111403259D01*
X115010042Y-111238151D01*
X115053651Y-111177589D01*
X115138988Y-111118913D01*
X115191862Y-111118028D01*
X115274194Y-111171225D01*
G37*
G36*
X117682221Y-113341860D02*
G01*
X112938000Y-113341860D01*
X112938000Y-111913857D01*
X113160222Y-111913857D01*
X113162070Y-111926796D01*
X113161105Y-111940198D01*
X113166196Y-111955673D01*
X113168500Y-111971795D01*
X113175253Y-111983201D01*
X113179397Y-111995794D01*
X113190019Y-112008138D01*
X113198319Y-112022156D01*
X113208925Y-112030110D01*
X113217570Y-112040157D01*
X113232110Y-112047498D01*
X113245142Y-112057272D01*
X113257982Y-112060561D01*
X113269815Y-112066536D01*
X113286058Y-112067754D01*
X113301838Y-112071797D01*
X113314958Y-112069922D01*
X113328179Y-112070914D01*
X113343654Y-112065822D01*
X113359776Y-112063519D01*
X113371182Y-112056765D01*
X113383775Y-112052622D01*
X113396119Y-112041999D01*
X113410137Y-112033700D01*
X113426417Y-112015929D01*
X113428138Y-112014449D01*
X113428585Y-112013563D01*
X113430001Y-112012018D01*
X113482221Y-111939494D01*
X113566969Y-111881223D01*
X113833640Y-111879234D01*
X113917052Y-111933130D01*
X113960994Y-111989408D01*
X114017265Y-112133992D01*
X114019668Y-112555479D01*
X113967099Y-112701123D01*
X113923491Y-112761687D01*
X113838745Y-112819956D01*
X113572073Y-112821945D01*
X113488661Y-112768048D01*
X113410137Y-112667480D01*
X113359776Y-112637661D01*
X113301838Y-112629383D01*
X113245142Y-112643908D01*
X113198319Y-112679024D01*
X113168500Y-112729385D01*
X113160222Y-112787323D01*
X113174747Y-112844019D01*
X113189999Y-112869160D01*
X113266308Y-112966892D01*
X113275473Y-112980577D01*
X113279689Y-112984030D01*
X113281291Y-112986081D01*
X113284550Y-112988010D01*
X113298223Y-112999208D01*
X113432674Y-113086082D01*
X113440950Y-113094358D01*
X113453576Y-113099588D01*
X113467030Y-113108281D01*
X113481446Y-113111132D01*
X113495022Y-113116756D01*
X113524286Y-113119638D01*
X113524438Y-113119636D01*
X113524444Y-113119638D01*
X113524450Y-113119636D01*
X113868436Y-113117071D01*
X113881270Y-113119638D01*
X113895257Y-113116871D01*
X113910692Y-113116756D01*
X113924266Y-113111133D01*
X113938685Y-113108281D01*
X113964633Y-113094446D01*
X113964756Y-113094361D01*
X113964764Y-113094358D01*
X113964770Y-113094351D01*
X114108680Y-112995402D01*
X114124423Y-112986081D01*
X114128143Y-112982019D01*
X114130242Y-112980577D01*
X114132351Y-112977426D01*
X114144287Y-112964399D01*
X114212522Y-112869634D01*
X114223189Y-112858219D01*
X114228455Y-112847506D01*
X114230967Y-112844019D01*
X114231833Y-112840635D01*
X114236163Y-112831830D01*
X114307267Y-112634831D01*
X114314261Y-112617949D01*
X114314598Y-112614521D01*
X114315169Y-112612941D01*
X114315062Y-112609808D01*
X114317143Y-112588685D01*
X114314416Y-112110416D01*
X114315169Y-112088239D01*
X114314270Y-112084869D01*
X114314261Y-112083231D01*
X114313060Y-112080333D01*
X114307592Y-112059827D01*
X114235303Y-111874088D01*
X114230967Y-111857161D01*
X114224686Y-111846807D01*
X114223189Y-111842961D01*
X114220803Y-111840408D01*
X114215715Y-111832020D01*
X114139410Y-111734293D01*
X114137568Y-111731542D01*
X114588571Y-111731542D01*
X114591205Y-112193601D01*
X114588580Y-112206082D01*
X114591140Y-112235376D01*
X114591452Y-112236983D01*
X114591453Y-112236997D01*
X114591457Y-112237008D01*
X114662368Y-112601279D01*
X114661973Y-112612941D01*
X114669550Y-112641354D01*
X114670790Y-112644541D01*
X114670794Y-112644559D01*
X114670802Y-112644571D01*
X114741837Y-112827089D01*
X114746175Y-112844020D01*
X114752456Y-112854373D01*
X114753953Y-112858219D01*
X114756338Y-112860771D01*
X114761428Y-112869161D01*
X114837732Y-112966885D01*
X114846901Y-112980577D01*
X114851120Y-112984032D01*
X114852721Y-112986082D01*
X114855978Y-112988010D01*
X114869652Y-112999208D01*
X115004101Y-113086081D01*
X115012378Y-113094358D01*
X115025006Y-113099589D01*
X115038457Y-113108280D01*
X115052871Y-113111131D01*
X115066450Y-113116756D01*
X115095714Y-113119638D01*
X115095859Y-113119635D01*
X115095872Y-113119638D01*
X115095886Y-113119635D01*
X115227389Y-113117433D01*
X115238413Y-113119638D01*
X115251608Y-113117027D01*
X115267835Y-113116756D01*
X115281413Y-113111131D01*
X115295828Y-113108280D01*
X115321776Y-113094446D01*
X115321899Y-113094361D01*
X115321907Y-113094358D01*
X115321913Y-113094351D01*
X115465819Y-112995404D01*
X115481564Y-112986082D01*
X115485285Y-112982019D01*
X115487384Y-112980577D01*
X115489493Y-112977426D01*
X115501428Y-112964400D01*
X115569665Y-112869634D01*
X115580333Y-112858218D01*
X115585597Y-112847509D01*
X115588110Y-112844020D01*
X115588977Y-112840633D01*
X115593306Y-112831829D01*
X115657689Y-112653451D01*
X115663490Y-112644560D01*
X115671716Y-112616328D01*
X115738045Y-112248552D01*
X115742832Y-112236997D01*
X115745714Y-112207733D01*
X115743079Y-111745673D01*
X115745705Y-111733193D01*
X115743145Y-111703899D01*
X115742832Y-111702291D01*
X115742832Y-111702278D01*
X115742827Y-111702266D01*
X115711447Y-111541066D01*
X116017142Y-111541066D01*
X116019803Y-112007852D01*
X116017319Y-112024548D01*
X116020002Y-112042690D01*
X116020024Y-112046521D01*
X116020871Y-112048565D01*
X116021621Y-112053637D01*
X116102942Y-112367042D01*
X116103206Y-112367398D01*
X116103317Y-112367831D01*
X116118570Y-112392971D01*
X116264475Y-112583203D01*
X116275472Y-112599624D01*
X116279768Y-112603142D01*
X116281293Y-112605130D01*
X116284551Y-112607059D01*
X116298223Y-112618255D01*
X116374840Y-112667760D01*
X116375915Y-112820744D01*
X116137878Y-112822520D01*
X116083806Y-112844918D01*
X116042422Y-112886302D01*
X116020024Y-112940374D01*
X116020024Y-112998902D01*
X116042422Y-113052974D01*
X116083806Y-113094358D01*
X116137878Y-113116756D01*
X116167142Y-113119638D01*
X116553549Y-113116756D01*
X116607621Y-113094358D01*
X116649005Y-113052974D01*
X116671403Y-112998902D01*
X116674285Y-112969638D01*
X116671699Y-112601599D01*
X116674285Y-112588528D01*
X116671510Y-112574653D01*
X116671403Y-112559421D01*
X116665719Y-112545699D01*
X116662807Y-112531138D01*
X116654628Y-112518925D01*
X116649005Y-112505349D01*
X116638506Y-112494850D01*
X116630241Y-112482508D01*
X116607732Y-112464076D01*
X116607621Y-112463965D01*
X116607570Y-112463944D01*
X116607490Y-112463878D01*
X116489110Y-112387387D01*
X116377766Y-112242216D01*
X116317091Y-112008379D01*
X116314588Y-111569441D01*
X116373342Y-111325206D01*
X116474524Y-111187224D01*
X116622764Y-111119390D01*
X116845182Y-111117355D01*
X116997255Y-111182962D01*
X117099373Y-111316106D01*
X117160049Y-111549944D01*
X117162552Y-111988881D01*
X117103797Y-112233115D01*
X116996194Y-112379856D01*
X116880457Y-112459434D01*
X116869520Y-112463965D01*
X116859949Y-112473535D01*
X116846900Y-112482508D01*
X116838634Y-112494850D01*
X116828136Y-112505349D01*
X116822512Y-112518925D01*
X116814334Y-112531138D01*
X116811421Y-112545700D01*
X116805738Y-112559421D01*
X116802886Y-112588373D01*
X116802856Y-112588527D01*
X116802866Y-112588579D01*
X116802856Y-112588685D01*
X116805738Y-112998902D01*
X116828136Y-113052974D01*
X116869520Y-113094358D01*
X116923592Y-113116756D01*
X116952856Y-113119638D01*
X117339263Y-113116756D01*
X117393335Y-113094358D01*
X117434719Y-113052974D01*
X117457117Y-112998902D01*
X117457117Y-112940374D01*
X117434719Y-112886302D01*
X117393335Y-112844918D01*
X117339263Y-112822520D01*
X117309999Y-112819638D01*
X117101813Y-112821190D01*
X117100743Y-112669018D01*
X117180105Y-112614450D01*
X117195849Y-112605129D01*
X117199570Y-112601066D01*
X117201669Y-112599624D01*
X117203778Y-112596473D01*
X117215713Y-112583447D01*
X117373823Y-112367831D01*
X117373933Y-112367400D01*
X117374198Y-112367043D01*
X117384091Y-112339352D01*
X117450961Y-112061381D01*
X117457117Y-112046521D01*
X117458905Y-112028357D01*
X117459822Y-112024549D01*
X117459496Y-112022360D01*
X117459999Y-112017257D01*
X117457337Y-111550469D01*
X117459822Y-111533774D01*
X117457138Y-111515631D01*
X117457117Y-111511802D01*
X117456270Y-111509757D01*
X117455520Y-111504685D01*
X117374198Y-111191280D01*
X117373933Y-111190922D01*
X117373823Y-111190492D01*
X117358570Y-111165352D01*
X117225001Y-110991203D01*
X117222520Y-110984752D01*
X117209726Y-110971287D01*
X117195849Y-110953194D01*
X117188271Y-110948707D01*
X117182205Y-110942323D01*
X117156634Y-110927804D01*
X116964955Y-110845109D01*
X116964764Y-110844918D01*
X116958416Y-110842288D01*
X116914437Y-110823315D01*
X116912491Y-110823265D01*
X116910692Y-110822520D01*
X116881428Y-110819638D01*
X116621715Y-110822014D01*
X116621213Y-110821821D01*
X116609133Y-110822129D01*
X116566449Y-110822520D01*
X116564649Y-110823265D01*
X116562704Y-110823315D01*
X116534792Y-110832566D01*
X116338472Y-110922400D01*
X116331654Y-110923375D01*
X116315697Y-110932822D01*
X116294936Y-110942323D01*
X116288870Y-110948706D01*
X116281293Y-110953193D01*
X116261429Y-110974875D01*
X116103317Y-111190492D01*
X116103206Y-111190924D01*
X116102942Y-111191281D01*
X116093049Y-111218972D01*
X116026180Y-111496940D01*
X116020024Y-111511802D01*
X116018235Y-111529967D01*
X116017319Y-111533775D01*
X116017644Y-111535962D01*
X116017142Y-111541066D01*
X115711447Y-111541066D01*
X115671915Y-111337994D01*
X115672311Y-111326334D01*
X115664734Y-111297922D01*
X115663494Y-111294736D01*
X115663490Y-111294715D01*
X115663479Y-111294699D01*
X115592447Y-111112184D01*
X115588110Y-111095254D01*
X115581829Y-111084902D01*
X115580333Y-111081057D01*
X115577947Y-111078503D01*
X115572857Y-111070114D01*
X115496551Y-110972389D01*
X115487384Y-110958699D01*
X115483164Y-110955243D01*
X115481564Y-110953194D01*
X115478304Y-110951263D01*
X115464633Y-110940069D01*
X115330184Y-110853195D01*
X115321907Y-110844918D01*
X115309278Y-110839686D01*
X115295828Y-110830996D01*
X115281413Y-110828144D01*
X115267835Y-110822520D01*
X115238571Y-110819638D01*
X115238425Y-110819640D01*
X115238413Y-110819638D01*
X115238398Y-110819640D01*
X115106895Y-110821842D01*
X115095872Y-110819638D01*
X115082676Y-110822248D01*
X115066450Y-110822520D01*
X115052871Y-110828144D01*
X115038457Y-110830996D01*
X115012509Y-110844830D01*
X115012385Y-110844914D01*
X115012378Y-110844918D01*
X115012371Y-110844924D01*
X114868464Y-110943872D01*
X114852721Y-110953194D01*
X114848999Y-110957256D01*
X114846901Y-110958699D01*
X114844792Y-110961848D01*
X114832857Y-110974875D01*
X114764616Y-111069643D01*
X114753953Y-111081056D01*
X114748689Y-111091762D01*
X114746175Y-111095254D01*
X114745307Y-111098641D01*
X114740979Y-111107445D01*
X114676594Y-111285825D01*
X114670794Y-111294716D01*
X114662568Y-111322947D01*
X114596239Y-111690722D01*
X114591453Y-111702278D01*
X114588571Y-111731542D01*
X114137568Y-111731542D01*
X114130242Y-111720603D01*
X114126022Y-111717147D01*
X114124423Y-111715099D01*
X114121165Y-111713170D01*
X114107491Y-111701972D01*
X113973037Y-111615095D01*
X113964764Y-111606822D01*
X113952139Y-111601592D01*
X113938685Y-111592899D01*
X113924266Y-111590046D01*
X113910692Y-111584424D01*
X113881428Y-111581542D01*
X113881275Y-111581543D01*
X113881270Y-111581542D01*
X113881263Y-111581543D01*
X113537278Y-111584108D01*
X113524444Y-111581542D01*
X113510456Y-111584308D01*
X113495022Y-111584424D01*
X113484396Y-111588825D01*
X113518242Y-111119107D01*
X114124978Y-111116756D01*
X114179050Y-111094358D01*
X114220434Y-111052974D01*
X114242832Y-110998902D01*
X114242832Y-110940374D01*
X114220434Y-110886302D01*
X114179050Y-110844918D01*
X114124978Y-110822520D01*
X114095714Y-110819638D01*
X113385234Y-110822391D01*
X113363249Y-110820743D01*
X113357915Y-110822497D01*
X113352164Y-110822520D01*
X113330223Y-110831608D01*
X113307653Y-110839034D01*
X113303342Y-110842743D01*
X113298092Y-110844918D01*
X113281300Y-110861709D01*
X113263290Y-110877207D01*
X113260727Y-110882282D01*
X113256708Y-110886302D01*
X113247617Y-110908247D01*
X113236911Y-110929453D01*
X113235507Y-110937483D01*
X113234310Y-110940374D01*
X113234310Y-110944333D01*
X113231848Y-110958419D01*
X113164091Y-111898753D01*
X113160222Y-111913857D01*
X112938000Y-111913857D01*
X112938000Y-110597416D01*
X117682221Y-110597416D01*
X117682221Y-113341860D01*
G37*
D11*
X114933333Y-102429580D02*
X114885714Y-102477200D01*
X114885714Y-102477200D02*
X114742857Y-102524819D01*
X114742857Y-102524819D02*
X114647619Y-102524819D01*
X114647619Y-102524819D02*
X114504762Y-102477200D01*
X114504762Y-102477200D02*
X114409524Y-102381961D01*
X114409524Y-102381961D02*
X114361905Y-102286723D01*
X114361905Y-102286723D02*
X114314286Y-102096247D01*
X114314286Y-102096247D02*
X114314286Y-101953390D01*
X114314286Y-101953390D02*
X114361905Y-101762914D01*
X114361905Y-101762914D02*
X114409524Y-101667676D01*
X114409524Y-101667676D02*
X114504762Y-101572438D01*
X114504762Y-101572438D02*
X114647619Y-101524819D01*
X114647619Y-101524819D02*
X114742857Y-101524819D01*
X114742857Y-101524819D02*
X114885714Y-101572438D01*
X114885714Y-101572438D02*
X114933333Y-101620057D01*
X115885714Y-102524819D02*
X115314286Y-102524819D01*
X115600000Y-102524819D02*
X115600000Y-101524819D01*
X115600000Y-101524819D02*
X115504762Y-101667676D01*
X115504762Y-101667676D02*
X115409524Y-101762914D01*
X115409524Y-101762914D02*
X115314286Y-101810533D01*
X122158095Y-101214819D02*
X122729523Y-101214819D01*
X122443809Y-102214819D02*
X122443809Y-101214819D01*
X123634285Y-102214819D02*
X123300952Y-101738628D01*
X123062857Y-102214819D02*
X123062857Y-101214819D01*
X123062857Y-101214819D02*
X123443809Y-101214819D01*
X123443809Y-101214819D02*
X123539047Y-101262438D01*
X123539047Y-101262438D02*
X123586666Y-101310057D01*
X123586666Y-101310057D02*
X123634285Y-101405295D01*
X123634285Y-101405295D02*
X123634285Y-101548152D01*
X123634285Y-101548152D02*
X123586666Y-101643390D01*
X123586666Y-101643390D02*
X123539047Y-101691009D01*
X123539047Y-101691009D02*
X123443809Y-101738628D01*
X123443809Y-101738628D02*
X123062857Y-101738628D01*
X124586666Y-102214819D02*
X124015238Y-102214819D01*
X124300952Y-102214819D02*
X124300952Y-101214819D01*
X124300952Y-101214819D02*
X124205714Y-101357676D01*
X124205714Y-101357676D02*
X124110476Y-101452914D01*
X124110476Y-101452914D02*
X124015238Y-101500533D01*
X107046666Y-111272319D02*
X107046666Y-111986604D01*
X107046666Y-111986604D02*
X106999047Y-112129461D01*
X106999047Y-112129461D02*
X106903809Y-112224700D01*
X106903809Y-112224700D02*
X106760952Y-112272319D01*
X106760952Y-112272319D02*
X106665714Y-112272319D01*
X108046666Y-112272319D02*
X107475238Y-112272319D01*
X107760952Y-112272319D02*
X107760952Y-111272319D01*
X107760952Y-111272319D02*
X107665714Y-111415176D01*
X107665714Y-111415176D02*
X107570476Y-111510414D01*
X107570476Y-111510414D02*
X107475238Y-111558033D01*
X134166666Y-97672319D02*
X134166666Y-98386604D01*
X134166666Y-98386604D02*
X134119047Y-98529461D01*
X134119047Y-98529461D02*
X134023809Y-98624700D01*
X134023809Y-98624700D02*
X133880952Y-98672319D01*
X133880952Y-98672319D02*
X133785714Y-98672319D01*
X134595238Y-97767557D02*
X134642857Y-97719938D01*
X134642857Y-97719938D02*
X134738095Y-97672319D01*
X134738095Y-97672319D02*
X134976190Y-97672319D01*
X134976190Y-97672319D02*
X135071428Y-97719938D01*
X135071428Y-97719938D02*
X135119047Y-97767557D01*
X135119047Y-97767557D02*
X135166666Y-97862795D01*
X135166666Y-97862795D02*
X135166666Y-97958033D01*
X135166666Y-97958033D02*
X135119047Y-98100890D01*
X135119047Y-98100890D02*
X134547619Y-98672319D01*
X134547619Y-98672319D02*
X135166666Y-98672319D01*
D12*
%TO.C,C1*%
X115661252Y-103907500D02*
X114238748Y-103907500D01*
X115661252Y-105727500D02*
X114238748Y-105727500D01*
%TO.C,TR1*%
X120160000Y-104230000D02*
X126640000Y-104230000D01*
X126640000Y-110330000D01*
X120160000Y-110330000D01*
X120160000Y-104230000D01*
%TO.C,J1*%
X110880000Y-104817500D02*
X111380000Y-104567500D01*
X111380000Y-104567500D02*
X111380000Y-105067500D01*
X111380000Y-105067500D02*
X110880000Y-104817500D01*
%TD*%
M02*
