%TF.GenerationSoftware,KiCad,Pcbnew,8.0.3*%
%TF.CreationDate,2024-07-19T13:19:13+02:00*%
%TF.ProjectId,Konwerter_impendancji.kicad_3_pcb,4b6f6e77-6572-4746-9572-5f696d70656e,rev?*%
%TF.SameCoordinates,Original*%
%TF.FileFunction,Drillmap*%
%TF.FilePolarity,Positive*%
%FSLAX45Y45*%
G04 Gerber Fmt 4.5, Leading zero omitted, Abs format (unit mm)*
G04 Created by KiCad (PCBNEW 8.0.3) date 2024-07-19 13:19:13*
%MOMM*%
%LPD*%
G01*
G04 APERTURE LIST*
%ADD10C,0.100000*%
%ADD11C,0.200000*%
%ADD12C,0.120000*%
G04 APERTURE END LIST*
D10*
X10194000Y-9627000D02*
X14194000Y-9627000D01*
X14194000Y-11427000D01*
X10194000Y-11427000D01*
X10194000Y-9627000D01*
D11*
D10*
X11037000Y-10020750D02*
X11083000Y-10066750D01*
X11083000Y-10020750D02*
X11037000Y-10066750D01*
X11037000Y-10896750D02*
X11083000Y-10942750D01*
X11083000Y-10896750D02*
X11037000Y-10942750D01*
X13498000Y-10477750D02*
G75*
G02*
X13398000Y-10477750I-50000J0D01*
G01*
X13398000Y-10477750D02*
G75*
G02*
X13498000Y-10477750I50000J0D01*
G01*
D12*
X13048000Y-10007750D02*
X13048000Y-10127750D01*
X12988000Y-10067750D02*
X13108000Y-10067750D01*
D10*
X13033858Y-9997039D02*
X12977289Y-10053608D01*
X13062142Y-10138461D02*
G75*
G02*
X12977289Y-10053608I-42426J42426D01*
G01*
X13062142Y-10138461D02*
X13118711Y-10081892D01*
X13118711Y-10081892D02*
G75*
G03*
X13033858Y-9997039I-42426J42426D01*
G01*
D12*
X13048000Y-10827750D02*
X13048000Y-10947750D01*
X12988000Y-10887750D02*
X13108000Y-10887750D01*
D10*
X12977289Y-10901892D02*
X13033858Y-10958461D01*
X13118711Y-10873608D02*
G75*
G02*
X13033858Y-10958461I-42426J-42426D01*
G01*
X13118711Y-10873608D02*
X13062142Y-10817039D01*
X13062142Y-10817039D02*
G75*
G03*
X12977289Y-10901892I-42426J-42426D01*
G01*
D12*
X13838000Y-10017750D02*
X13838000Y-10137750D01*
X13778000Y-10077750D02*
X13898000Y-10077750D01*
D10*
X13767289Y-10091892D02*
X13823858Y-10148461D01*
X13908711Y-10063608D02*
G75*
G02*
X13823858Y-10148461I-42426J-42426D01*
G01*
X13908711Y-10063608D02*
X13852142Y-10007039D01*
X13852142Y-10007039D02*
G75*
G03*
X13767289Y-10091892I-42426J-42426D01*
G01*
D12*
X13838000Y-10827750D02*
X13838000Y-10947750D01*
X13778000Y-10887750D02*
X13898000Y-10887750D01*
D10*
X13823858Y-10817039D02*
X13767289Y-10873608D01*
X13852142Y-10958461D02*
G75*
G02*
X13767289Y-10873608I-42426J42426D01*
G01*
X13852142Y-10958461D02*
X13908711Y-10901892D01*
X13908711Y-10901892D02*
G75*
G03*
X13823858Y-10817039I-42426J42426D01*
G01*
D11*
X10449777Y-11743484D02*
X10449777Y-11543484D01*
X10449777Y-11543484D02*
X10497396Y-11543484D01*
X10497396Y-11543484D02*
X10525967Y-11553008D01*
X10525967Y-11553008D02*
X10545015Y-11572055D01*
X10545015Y-11572055D02*
X10554539Y-11591103D01*
X10554539Y-11591103D02*
X10564063Y-11629198D01*
X10564063Y-11629198D02*
X10564063Y-11657769D01*
X10564063Y-11657769D02*
X10554539Y-11695865D01*
X10554539Y-11695865D02*
X10545015Y-11714912D01*
X10545015Y-11714912D02*
X10525967Y-11733960D01*
X10525967Y-11733960D02*
X10497396Y-11743484D01*
X10497396Y-11743484D02*
X10449777Y-11743484D01*
X10649777Y-11743484D02*
X10649777Y-11610150D01*
X10649777Y-11648246D02*
X10659301Y-11629198D01*
X10659301Y-11629198D02*
X10668824Y-11619674D01*
X10668824Y-11619674D02*
X10687872Y-11610150D01*
X10687872Y-11610150D02*
X10706920Y-11610150D01*
X10773586Y-11743484D02*
X10773586Y-11610150D01*
X10773586Y-11543484D02*
X10764063Y-11553008D01*
X10764063Y-11553008D02*
X10773586Y-11562531D01*
X10773586Y-11562531D02*
X10783110Y-11553008D01*
X10783110Y-11553008D02*
X10773586Y-11543484D01*
X10773586Y-11543484D02*
X10773586Y-11562531D01*
X10897396Y-11743484D02*
X10878348Y-11733960D01*
X10878348Y-11733960D02*
X10868824Y-11714912D01*
X10868824Y-11714912D02*
X10868824Y-11543484D01*
X11002158Y-11743484D02*
X10983110Y-11733960D01*
X10983110Y-11733960D02*
X10973586Y-11714912D01*
X10973586Y-11714912D02*
X10973586Y-11543484D01*
X11230729Y-11743484D02*
X11230729Y-11543484D01*
X11230729Y-11543484D02*
X11297396Y-11686341D01*
X11297396Y-11686341D02*
X11364062Y-11543484D01*
X11364062Y-11543484D02*
X11364062Y-11743484D01*
X11545015Y-11743484D02*
X11545015Y-11638722D01*
X11545015Y-11638722D02*
X11535491Y-11619674D01*
X11535491Y-11619674D02*
X11516443Y-11610150D01*
X11516443Y-11610150D02*
X11478348Y-11610150D01*
X11478348Y-11610150D02*
X11459301Y-11619674D01*
X11545015Y-11733960D02*
X11525967Y-11743484D01*
X11525967Y-11743484D02*
X11478348Y-11743484D01*
X11478348Y-11743484D02*
X11459301Y-11733960D01*
X11459301Y-11733960D02*
X11449777Y-11714912D01*
X11449777Y-11714912D02*
X11449777Y-11695865D01*
X11449777Y-11695865D02*
X11459301Y-11676817D01*
X11459301Y-11676817D02*
X11478348Y-11667293D01*
X11478348Y-11667293D02*
X11525967Y-11667293D01*
X11525967Y-11667293D02*
X11545015Y-11657769D01*
X11640253Y-11610150D02*
X11640253Y-11810150D01*
X11640253Y-11619674D02*
X11659301Y-11610150D01*
X11659301Y-11610150D02*
X11697396Y-11610150D01*
X11697396Y-11610150D02*
X11716443Y-11619674D01*
X11716443Y-11619674D02*
X11725967Y-11629198D01*
X11725967Y-11629198D02*
X11735491Y-11648246D01*
X11735491Y-11648246D02*
X11735491Y-11705388D01*
X11735491Y-11705388D02*
X11725967Y-11724436D01*
X11725967Y-11724436D02*
X11716443Y-11733960D01*
X11716443Y-11733960D02*
X11697396Y-11743484D01*
X11697396Y-11743484D02*
X11659301Y-11743484D01*
X11659301Y-11743484D02*
X11640253Y-11733960D01*
X11821205Y-11724436D02*
X11830729Y-11733960D01*
X11830729Y-11733960D02*
X11821205Y-11743484D01*
X11821205Y-11743484D02*
X11811682Y-11733960D01*
X11811682Y-11733960D02*
X11821205Y-11724436D01*
X11821205Y-11724436D02*
X11821205Y-11743484D01*
X11821205Y-11619674D02*
X11830729Y-11629198D01*
X11830729Y-11629198D02*
X11821205Y-11638722D01*
X11821205Y-11638722D02*
X11811682Y-11629198D01*
X11811682Y-11629198D02*
X11821205Y-11619674D01*
X11821205Y-11619674D02*
X11821205Y-11638722D01*
D10*
X10143000Y-12049000D02*
X10189000Y-12095000D01*
X10189000Y-12049000D02*
X10143000Y-12095000D01*
D11*
X10487872Y-11963484D02*
X10506920Y-11963484D01*
X10506920Y-11963484D02*
X10525967Y-11973008D01*
X10525967Y-11973008D02*
X10535491Y-11982531D01*
X10535491Y-11982531D02*
X10545015Y-12001579D01*
X10545015Y-12001579D02*
X10554539Y-12039674D01*
X10554539Y-12039674D02*
X10554539Y-12087293D01*
X10554539Y-12087293D02*
X10545015Y-12125388D01*
X10545015Y-12125388D02*
X10535491Y-12144436D01*
X10535491Y-12144436D02*
X10525967Y-12153960D01*
X10525967Y-12153960D02*
X10506920Y-12163484D01*
X10506920Y-12163484D02*
X10487872Y-12163484D01*
X10487872Y-12163484D02*
X10468824Y-12153960D01*
X10468824Y-12153960D02*
X10459301Y-12144436D01*
X10459301Y-12144436D02*
X10449777Y-12125388D01*
X10449777Y-12125388D02*
X10440253Y-12087293D01*
X10440253Y-12087293D02*
X10440253Y-12039674D01*
X10440253Y-12039674D02*
X10449777Y-12001579D01*
X10449777Y-12001579D02*
X10459301Y-11982531D01*
X10459301Y-11982531D02*
X10468824Y-11973008D01*
X10468824Y-11973008D02*
X10487872Y-11963484D01*
X10640253Y-12144436D02*
X10649777Y-12153960D01*
X10649777Y-12153960D02*
X10640253Y-12163484D01*
X10640253Y-12163484D02*
X10630729Y-12153960D01*
X10630729Y-12153960D02*
X10640253Y-12144436D01*
X10640253Y-12144436D02*
X10640253Y-12163484D01*
X10821205Y-12030150D02*
X10821205Y-12163484D01*
X10773586Y-11953960D02*
X10725967Y-12096817D01*
X10725967Y-12096817D02*
X10849777Y-12096817D01*
X11011682Y-11963484D02*
X10973586Y-11963484D01*
X10973586Y-11963484D02*
X10954539Y-11973008D01*
X10954539Y-11973008D02*
X10945015Y-11982531D01*
X10945015Y-11982531D02*
X10925967Y-12011103D01*
X10925967Y-12011103D02*
X10916444Y-12049198D01*
X10916444Y-12049198D02*
X10916444Y-12125388D01*
X10916444Y-12125388D02*
X10925967Y-12144436D01*
X10925967Y-12144436D02*
X10935491Y-12153960D01*
X10935491Y-12153960D02*
X10954539Y-12163484D01*
X10954539Y-12163484D02*
X10992634Y-12163484D01*
X10992634Y-12163484D02*
X11011682Y-12153960D01*
X11011682Y-12153960D02*
X11021205Y-12144436D01*
X11021205Y-12144436D02*
X11030729Y-12125388D01*
X11030729Y-12125388D02*
X11030729Y-12077769D01*
X11030729Y-12077769D02*
X11021205Y-12058722D01*
X11021205Y-12058722D02*
X11011682Y-12049198D01*
X11011682Y-12049198D02*
X10992634Y-12039674D01*
X10992634Y-12039674D02*
X10954539Y-12039674D01*
X10954539Y-12039674D02*
X10935491Y-12049198D01*
X10935491Y-12049198D02*
X10925967Y-12058722D01*
X10925967Y-12058722D02*
X10916444Y-12077769D01*
X11154539Y-11963484D02*
X11173586Y-11963484D01*
X11173586Y-11963484D02*
X11192634Y-11973008D01*
X11192634Y-11973008D02*
X11202158Y-11982531D01*
X11202158Y-11982531D02*
X11211682Y-12001579D01*
X11211682Y-12001579D02*
X11221205Y-12039674D01*
X11221205Y-12039674D02*
X11221205Y-12087293D01*
X11221205Y-12087293D02*
X11211682Y-12125388D01*
X11211682Y-12125388D02*
X11202158Y-12144436D01*
X11202158Y-12144436D02*
X11192634Y-12153960D01*
X11192634Y-12153960D02*
X11173586Y-12163484D01*
X11173586Y-12163484D02*
X11154539Y-12163484D01*
X11154539Y-12163484D02*
X11135491Y-12153960D01*
X11135491Y-12153960D02*
X11125967Y-12144436D01*
X11125967Y-12144436D02*
X11116444Y-12125388D01*
X11116444Y-12125388D02*
X11106920Y-12087293D01*
X11106920Y-12087293D02*
X11106920Y-12039674D01*
X11106920Y-12039674D02*
X11116444Y-12001579D01*
X11116444Y-12001579D02*
X11125967Y-11982531D01*
X11125967Y-11982531D02*
X11135491Y-11973008D01*
X11135491Y-11973008D02*
X11154539Y-11963484D01*
X11306920Y-12163484D02*
X11306920Y-12030150D01*
X11306920Y-12049198D02*
X11316443Y-12039674D01*
X11316443Y-12039674D02*
X11335491Y-12030150D01*
X11335491Y-12030150D02*
X11364063Y-12030150D01*
X11364063Y-12030150D02*
X11383110Y-12039674D01*
X11383110Y-12039674D02*
X11392634Y-12058722D01*
X11392634Y-12058722D02*
X11392634Y-12163484D01*
X11392634Y-12058722D02*
X11402158Y-12039674D01*
X11402158Y-12039674D02*
X11421205Y-12030150D01*
X11421205Y-12030150D02*
X11449777Y-12030150D01*
X11449777Y-12030150D02*
X11468824Y-12039674D01*
X11468824Y-12039674D02*
X11478348Y-12058722D01*
X11478348Y-12058722D02*
X11478348Y-12163484D01*
X11573586Y-12163484D02*
X11573586Y-12030150D01*
X11573586Y-12049198D02*
X11583110Y-12039674D01*
X11583110Y-12039674D02*
X11602158Y-12030150D01*
X11602158Y-12030150D02*
X11630729Y-12030150D01*
X11630729Y-12030150D02*
X11649777Y-12039674D01*
X11649777Y-12039674D02*
X11659301Y-12058722D01*
X11659301Y-12058722D02*
X11659301Y-12163484D01*
X11659301Y-12058722D02*
X11668824Y-12039674D01*
X11668824Y-12039674D02*
X11687872Y-12030150D01*
X11687872Y-12030150D02*
X11716443Y-12030150D01*
X11716443Y-12030150D02*
X11735491Y-12039674D01*
X11735491Y-12039674D02*
X11745015Y-12058722D01*
X11745015Y-12058722D02*
X11745015Y-12163484D01*
X12135491Y-11953960D02*
X11964063Y-12211103D01*
X12392634Y-11963484D02*
X12411682Y-11963484D01*
X12411682Y-11963484D02*
X12430729Y-11973008D01*
X12430729Y-11973008D02*
X12440253Y-11982531D01*
X12440253Y-11982531D02*
X12449777Y-12001579D01*
X12449777Y-12001579D02*
X12459301Y-12039674D01*
X12459301Y-12039674D02*
X12459301Y-12087293D01*
X12459301Y-12087293D02*
X12449777Y-12125388D01*
X12449777Y-12125388D02*
X12440253Y-12144436D01*
X12440253Y-12144436D02*
X12430729Y-12153960D01*
X12430729Y-12153960D02*
X12411682Y-12163484D01*
X12411682Y-12163484D02*
X12392634Y-12163484D01*
X12392634Y-12163484D02*
X12373586Y-12153960D01*
X12373586Y-12153960D02*
X12364063Y-12144436D01*
X12364063Y-12144436D02*
X12354539Y-12125388D01*
X12354539Y-12125388D02*
X12345015Y-12087293D01*
X12345015Y-12087293D02*
X12345015Y-12039674D01*
X12345015Y-12039674D02*
X12354539Y-12001579D01*
X12354539Y-12001579D02*
X12364063Y-11982531D01*
X12364063Y-11982531D02*
X12373586Y-11973008D01*
X12373586Y-11973008D02*
X12392634Y-11963484D01*
X12545015Y-12144436D02*
X12554539Y-12153960D01*
X12554539Y-12153960D02*
X12545015Y-12163484D01*
X12545015Y-12163484D02*
X12535491Y-12153960D01*
X12535491Y-12153960D02*
X12545015Y-12144436D01*
X12545015Y-12144436D02*
X12545015Y-12163484D01*
X12678348Y-11963484D02*
X12697396Y-11963484D01*
X12697396Y-11963484D02*
X12716444Y-11973008D01*
X12716444Y-11973008D02*
X12725967Y-11982531D01*
X12725967Y-11982531D02*
X12735491Y-12001579D01*
X12735491Y-12001579D02*
X12745015Y-12039674D01*
X12745015Y-12039674D02*
X12745015Y-12087293D01*
X12745015Y-12087293D02*
X12735491Y-12125388D01*
X12735491Y-12125388D02*
X12725967Y-12144436D01*
X12725967Y-12144436D02*
X12716444Y-12153960D01*
X12716444Y-12153960D02*
X12697396Y-12163484D01*
X12697396Y-12163484D02*
X12678348Y-12163484D01*
X12678348Y-12163484D02*
X12659301Y-12153960D01*
X12659301Y-12153960D02*
X12649777Y-12144436D01*
X12649777Y-12144436D02*
X12640253Y-12125388D01*
X12640253Y-12125388D02*
X12630729Y-12087293D01*
X12630729Y-12087293D02*
X12630729Y-12039674D01*
X12630729Y-12039674D02*
X12640253Y-12001579D01*
X12640253Y-12001579D02*
X12649777Y-11982531D01*
X12649777Y-11982531D02*
X12659301Y-11973008D01*
X12659301Y-11973008D02*
X12678348Y-11963484D01*
X12935491Y-12163484D02*
X12821206Y-12163484D01*
X12878348Y-12163484D02*
X12878348Y-11963484D01*
X12878348Y-11963484D02*
X12859301Y-11992055D01*
X12859301Y-11992055D02*
X12840253Y-12011103D01*
X12840253Y-12011103D02*
X12821206Y-12020627D01*
X13049777Y-12049198D02*
X13030729Y-12039674D01*
X13030729Y-12039674D02*
X13021206Y-12030150D01*
X13021206Y-12030150D02*
X13011682Y-12011103D01*
X13011682Y-12011103D02*
X13011682Y-12001579D01*
X13011682Y-12001579D02*
X13021206Y-11982531D01*
X13021206Y-11982531D02*
X13030729Y-11973008D01*
X13030729Y-11973008D02*
X13049777Y-11963484D01*
X13049777Y-11963484D02*
X13087872Y-11963484D01*
X13087872Y-11963484D02*
X13106920Y-11973008D01*
X13106920Y-11973008D02*
X13116444Y-11982531D01*
X13116444Y-11982531D02*
X13125967Y-12001579D01*
X13125967Y-12001579D02*
X13125967Y-12011103D01*
X13125967Y-12011103D02*
X13116444Y-12030150D01*
X13116444Y-12030150D02*
X13106920Y-12039674D01*
X13106920Y-12039674D02*
X13087872Y-12049198D01*
X13087872Y-12049198D02*
X13049777Y-12049198D01*
X13049777Y-12049198D02*
X13030729Y-12058722D01*
X13030729Y-12058722D02*
X13021206Y-12068246D01*
X13021206Y-12068246D02*
X13011682Y-12087293D01*
X13011682Y-12087293D02*
X13011682Y-12125388D01*
X13011682Y-12125388D02*
X13021206Y-12144436D01*
X13021206Y-12144436D02*
X13030729Y-12153960D01*
X13030729Y-12153960D02*
X13049777Y-12163484D01*
X13049777Y-12163484D02*
X13087872Y-12163484D01*
X13087872Y-12163484D02*
X13106920Y-12153960D01*
X13106920Y-12153960D02*
X13116444Y-12144436D01*
X13116444Y-12144436D02*
X13125967Y-12125388D01*
X13125967Y-12125388D02*
X13125967Y-12087293D01*
X13125967Y-12087293D02*
X13116444Y-12068246D01*
X13116444Y-12068246D02*
X13106920Y-12058722D01*
X13106920Y-12058722D02*
X13087872Y-12049198D01*
X13316444Y-12163484D02*
X13202158Y-12163484D01*
X13259301Y-12163484D02*
X13259301Y-11963484D01*
X13259301Y-11963484D02*
X13240253Y-11992055D01*
X13240253Y-11992055D02*
X13221206Y-12011103D01*
X13221206Y-12011103D02*
X13202158Y-12020627D01*
X13392634Y-11963484D02*
X13392634Y-12001579D01*
X13468825Y-11963484D02*
X13468825Y-12001579D01*
X13764063Y-12239674D02*
X13754539Y-12230150D01*
X13754539Y-12230150D02*
X13735491Y-12201579D01*
X13735491Y-12201579D02*
X13725968Y-12182531D01*
X13725968Y-12182531D02*
X13716444Y-12153960D01*
X13716444Y-12153960D02*
X13706920Y-12106341D01*
X13706920Y-12106341D02*
X13706920Y-12068246D01*
X13706920Y-12068246D02*
X13716444Y-12020627D01*
X13716444Y-12020627D02*
X13725968Y-11992055D01*
X13725968Y-11992055D02*
X13735491Y-11973008D01*
X13735491Y-11973008D02*
X13754539Y-11944436D01*
X13754539Y-11944436D02*
X13764063Y-11934912D01*
X13830729Y-11982531D02*
X13840253Y-11973008D01*
X13840253Y-11973008D02*
X13859301Y-11963484D01*
X13859301Y-11963484D02*
X13906920Y-11963484D01*
X13906920Y-11963484D02*
X13925968Y-11973008D01*
X13925968Y-11973008D02*
X13935491Y-11982531D01*
X13935491Y-11982531D02*
X13945015Y-12001579D01*
X13945015Y-12001579D02*
X13945015Y-12020627D01*
X13945015Y-12020627D02*
X13935491Y-12049198D01*
X13935491Y-12049198D02*
X13821206Y-12163484D01*
X13821206Y-12163484D02*
X13945015Y-12163484D01*
X14183110Y-12163484D02*
X14183110Y-11963484D01*
X14268825Y-12163484D02*
X14268825Y-12058722D01*
X14268825Y-12058722D02*
X14259301Y-12039674D01*
X14259301Y-12039674D02*
X14240253Y-12030150D01*
X14240253Y-12030150D02*
X14211682Y-12030150D01*
X14211682Y-12030150D02*
X14192634Y-12039674D01*
X14192634Y-12039674D02*
X14183110Y-12049198D01*
X14392634Y-12163484D02*
X14373587Y-12153960D01*
X14373587Y-12153960D02*
X14364063Y-12144436D01*
X14364063Y-12144436D02*
X14354539Y-12125388D01*
X14354539Y-12125388D02*
X14354539Y-12068246D01*
X14354539Y-12068246D02*
X14364063Y-12049198D01*
X14364063Y-12049198D02*
X14373587Y-12039674D01*
X14373587Y-12039674D02*
X14392634Y-12030150D01*
X14392634Y-12030150D02*
X14421206Y-12030150D01*
X14421206Y-12030150D02*
X14440253Y-12039674D01*
X14440253Y-12039674D02*
X14449777Y-12049198D01*
X14449777Y-12049198D02*
X14459301Y-12068246D01*
X14459301Y-12068246D02*
X14459301Y-12125388D01*
X14459301Y-12125388D02*
X14449777Y-12144436D01*
X14449777Y-12144436D02*
X14440253Y-12153960D01*
X14440253Y-12153960D02*
X14421206Y-12163484D01*
X14421206Y-12163484D02*
X14392634Y-12163484D01*
X14573587Y-12163484D02*
X14554539Y-12153960D01*
X14554539Y-12153960D02*
X14545015Y-12134912D01*
X14545015Y-12134912D02*
X14545015Y-11963484D01*
X14725968Y-12153960D02*
X14706920Y-12163484D01*
X14706920Y-12163484D02*
X14668825Y-12163484D01*
X14668825Y-12163484D02*
X14649777Y-12153960D01*
X14649777Y-12153960D02*
X14640253Y-12134912D01*
X14640253Y-12134912D02*
X14640253Y-12058722D01*
X14640253Y-12058722D02*
X14649777Y-12039674D01*
X14649777Y-12039674D02*
X14668825Y-12030150D01*
X14668825Y-12030150D02*
X14706920Y-12030150D01*
X14706920Y-12030150D02*
X14725968Y-12039674D01*
X14725968Y-12039674D02*
X14735491Y-12058722D01*
X14735491Y-12058722D02*
X14735491Y-12077769D01*
X14735491Y-12077769D02*
X14640253Y-12096817D01*
X14811682Y-12153960D02*
X14830730Y-12163484D01*
X14830730Y-12163484D02*
X14868825Y-12163484D01*
X14868825Y-12163484D02*
X14887872Y-12153960D01*
X14887872Y-12153960D02*
X14897396Y-12134912D01*
X14897396Y-12134912D02*
X14897396Y-12125388D01*
X14897396Y-12125388D02*
X14887872Y-12106341D01*
X14887872Y-12106341D02*
X14868825Y-12096817D01*
X14868825Y-12096817D02*
X14840253Y-12096817D01*
X14840253Y-12096817D02*
X14821206Y-12087293D01*
X14821206Y-12087293D02*
X14811682Y-12068246D01*
X14811682Y-12068246D02*
X14811682Y-12058722D01*
X14811682Y-12058722D02*
X14821206Y-12039674D01*
X14821206Y-12039674D02*
X14840253Y-12030150D01*
X14840253Y-12030150D02*
X14868825Y-12030150D01*
X14868825Y-12030150D02*
X14887872Y-12039674D01*
X14964063Y-12239674D02*
X14973587Y-12230150D01*
X14973587Y-12230150D02*
X14992634Y-12201579D01*
X14992634Y-12201579D02*
X15002158Y-12182531D01*
X15002158Y-12182531D02*
X15011682Y-12153960D01*
X15011682Y-12153960D02*
X15021206Y-12106341D01*
X15021206Y-12106341D02*
X15021206Y-12068246D01*
X15021206Y-12068246D02*
X15011682Y-12020627D01*
X15011682Y-12020627D02*
X15002158Y-11992055D01*
X15002158Y-11992055D02*
X14992634Y-11973008D01*
X14992634Y-11973008D02*
X14973587Y-11944436D01*
X14973587Y-11944436D02*
X14964063Y-11934912D01*
D10*
X10189000Y-12336000D02*
G75*
G02*
X10089000Y-12336000I-50000J0D01*
G01*
X10089000Y-12336000D02*
G75*
G02*
X10189000Y-12336000I50000J0D01*
G01*
D11*
X10554539Y-12427484D02*
X10440253Y-12427484D01*
X10497396Y-12427484D02*
X10497396Y-12227484D01*
X10497396Y-12227484D02*
X10478348Y-12256055D01*
X10478348Y-12256055D02*
X10459301Y-12275103D01*
X10459301Y-12275103D02*
X10440253Y-12284627D01*
X10640253Y-12408436D02*
X10649777Y-12417960D01*
X10649777Y-12417960D02*
X10640253Y-12427484D01*
X10640253Y-12427484D02*
X10630729Y-12417960D01*
X10630729Y-12417960D02*
X10640253Y-12408436D01*
X10640253Y-12408436D02*
X10640253Y-12427484D01*
X10773586Y-12227484D02*
X10792634Y-12227484D01*
X10792634Y-12227484D02*
X10811682Y-12237008D01*
X10811682Y-12237008D02*
X10821205Y-12246531D01*
X10821205Y-12246531D02*
X10830729Y-12265579D01*
X10830729Y-12265579D02*
X10840253Y-12303674D01*
X10840253Y-12303674D02*
X10840253Y-12351293D01*
X10840253Y-12351293D02*
X10830729Y-12389388D01*
X10830729Y-12389388D02*
X10821205Y-12408436D01*
X10821205Y-12408436D02*
X10811682Y-12417960D01*
X10811682Y-12417960D02*
X10792634Y-12427484D01*
X10792634Y-12427484D02*
X10773586Y-12427484D01*
X10773586Y-12427484D02*
X10754539Y-12417960D01*
X10754539Y-12417960D02*
X10745015Y-12408436D01*
X10745015Y-12408436D02*
X10735491Y-12389388D01*
X10735491Y-12389388D02*
X10725967Y-12351293D01*
X10725967Y-12351293D02*
X10725967Y-12303674D01*
X10725967Y-12303674D02*
X10735491Y-12265579D01*
X10735491Y-12265579D02*
X10745015Y-12246531D01*
X10745015Y-12246531D02*
X10754539Y-12237008D01*
X10754539Y-12237008D02*
X10773586Y-12227484D01*
X10964063Y-12227484D02*
X10983110Y-12227484D01*
X10983110Y-12227484D02*
X11002158Y-12237008D01*
X11002158Y-12237008D02*
X11011682Y-12246531D01*
X11011682Y-12246531D02*
X11021205Y-12265579D01*
X11021205Y-12265579D02*
X11030729Y-12303674D01*
X11030729Y-12303674D02*
X11030729Y-12351293D01*
X11030729Y-12351293D02*
X11021205Y-12389388D01*
X11021205Y-12389388D02*
X11011682Y-12408436D01*
X11011682Y-12408436D02*
X11002158Y-12417960D01*
X11002158Y-12417960D02*
X10983110Y-12427484D01*
X10983110Y-12427484D02*
X10964063Y-12427484D01*
X10964063Y-12427484D02*
X10945015Y-12417960D01*
X10945015Y-12417960D02*
X10935491Y-12408436D01*
X10935491Y-12408436D02*
X10925967Y-12389388D01*
X10925967Y-12389388D02*
X10916444Y-12351293D01*
X10916444Y-12351293D02*
X10916444Y-12303674D01*
X10916444Y-12303674D02*
X10925967Y-12265579D01*
X10925967Y-12265579D02*
X10935491Y-12246531D01*
X10935491Y-12246531D02*
X10945015Y-12237008D01*
X10945015Y-12237008D02*
X10964063Y-12227484D01*
X11154539Y-12227484D02*
X11173586Y-12227484D01*
X11173586Y-12227484D02*
X11192634Y-12237008D01*
X11192634Y-12237008D02*
X11202158Y-12246531D01*
X11202158Y-12246531D02*
X11211682Y-12265579D01*
X11211682Y-12265579D02*
X11221205Y-12303674D01*
X11221205Y-12303674D02*
X11221205Y-12351293D01*
X11221205Y-12351293D02*
X11211682Y-12389388D01*
X11211682Y-12389388D02*
X11202158Y-12408436D01*
X11202158Y-12408436D02*
X11192634Y-12417960D01*
X11192634Y-12417960D02*
X11173586Y-12427484D01*
X11173586Y-12427484D02*
X11154539Y-12427484D01*
X11154539Y-12427484D02*
X11135491Y-12417960D01*
X11135491Y-12417960D02*
X11125967Y-12408436D01*
X11125967Y-12408436D02*
X11116444Y-12389388D01*
X11116444Y-12389388D02*
X11106920Y-12351293D01*
X11106920Y-12351293D02*
X11106920Y-12303674D01*
X11106920Y-12303674D02*
X11116444Y-12265579D01*
X11116444Y-12265579D02*
X11125967Y-12246531D01*
X11125967Y-12246531D02*
X11135491Y-12237008D01*
X11135491Y-12237008D02*
X11154539Y-12227484D01*
X11306920Y-12427484D02*
X11306920Y-12294150D01*
X11306920Y-12313198D02*
X11316443Y-12303674D01*
X11316443Y-12303674D02*
X11335491Y-12294150D01*
X11335491Y-12294150D02*
X11364063Y-12294150D01*
X11364063Y-12294150D02*
X11383110Y-12303674D01*
X11383110Y-12303674D02*
X11392634Y-12322722D01*
X11392634Y-12322722D02*
X11392634Y-12427484D01*
X11392634Y-12322722D02*
X11402158Y-12303674D01*
X11402158Y-12303674D02*
X11421205Y-12294150D01*
X11421205Y-12294150D02*
X11449777Y-12294150D01*
X11449777Y-12294150D02*
X11468824Y-12303674D01*
X11468824Y-12303674D02*
X11478348Y-12322722D01*
X11478348Y-12322722D02*
X11478348Y-12427484D01*
X11573586Y-12427484D02*
X11573586Y-12294150D01*
X11573586Y-12313198D02*
X11583110Y-12303674D01*
X11583110Y-12303674D02*
X11602158Y-12294150D01*
X11602158Y-12294150D02*
X11630729Y-12294150D01*
X11630729Y-12294150D02*
X11649777Y-12303674D01*
X11649777Y-12303674D02*
X11659301Y-12322722D01*
X11659301Y-12322722D02*
X11659301Y-12427484D01*
X11659301Y-12322722D02*
X11668824Y-12303674D01*
X11668824Y-12303674D02*
X11687872Y-12294150D01*
X11687872Y-12294150D02*
X11716443Y-12294150D01*
X11716443Y-12294150D02*
X11735491Y-12303674D01*
X11735491Y-12303674D02*
X11745015Y-12322722D01*
X11745015Y-12322722D02*
X11745015Y-12427484D01*
X12135491Y-12217960D02*
X11964063Y-12475103D01*
X12392634Y-12227484D02*
X12411682Y-12227484D01*
X12411682Y-12227484D02*
X12430729Y-12237008D01*
X12430729Y-12237008D02*
X12440253Y-12246531D01*
X12440253Y-12246531D02*
X12449777Y-12265579D01*
X12449777Y-12265579D02*
X12459301Y-12303674D01*
X12459301Y-12303674D02*
X12459301Y-12351293D01*
X12459301Y-12351293D02*
X12449777Y-12389388D01*
X12449777Y-12389388D02*
X12440253Y-12408436D01*
X12440253Y-12408436D02*
X12430729Y-12417960D01*
X12430729Y-12417960D02*
X12411682Y-12427484D01*
X12411682Y-12427484D02*
X12392634Y-12427484D01*
X12392634Y-12427484D02*
X12373586Y-12417960D01*
X12373586Y-12417960D02*
X12364063Y-12408436D01*
X12364063Y-12408436D02*
X12354539Y-12389388D01*
X12354539Y-12389388D02*
X12345015Y-12351293D01*
X12345015Y-12351293D02*
X12345015Y-12303674D01*
X12345015Y-12303674D02*
X12354539Y-12265579D01*
X12354539Y-12265579D02*
X12364063Y-12246531D01*
X12364063Y-12246531D02*
X12373586Y-12237008D01*
X12373586Y-12237008D02*
X12392634Y-12227484D01*
X12545015Y-12408436D02*
X12554539Y-12417960D01*
X12554539Y-12417960D02*
X12545015Y-12427484D01*
X12545015Y-12427484D02*
X12535491Y-12417960D01*
X12535491Y-12417960D02*
X12545015Y-12408436D01*
X12545015Y-12408436D02*
X12545015Y-12427484D01*
X12678348Y-12227484D02*
X12697396Y-12227484D01*
X12697396Y-12227484D02*
X12716444Y-12237008D01*
X12716444Y-12237008D02*
X12725967Y-12246531D01*
X12725967Y-12246531D02*
X12735491Y-12265579D01*
X12735491Y-12265579D02*
X12745015Y-12303674D01*
X12745015Y-12303674D02*
X12745015Y-12351293D01*
X12745015Y-12351293D02*
X12735491Y-12389388D01*
X12735491Y-12389388D02*
X12725967Y-12408436D01*
X12725967Y-12408436D02*
X12716444Y-12417960D01*
X12716444Y-12417960D02*
X12697396Y-12427484D01*
X12697396Y-12427484D02*
X12678348Y-12427484D01*
X12678348Y-12427484D02*
X12659301Y-12417960D01*
X12659301Y-12417960D02*
X12649777Y-12408436D01*
X12649777Y-12408436D02*
X12640253Y-12389388D01*
X12640253Y-12389388D02*
X12630729Y-12351293D01*
X12630729Y-12351293D02*
X12630729Y-12303674D01*
X12630729Y-12303674D02*
X12640253Y-12265579D01*
X12640253Y-12265579D02*
X12649777Y-12246531D01*
X12649777Y-12246531D02*
X12659301Y-12237008D01*
X12659301Y-12237008D02*
X12678348Y-12227484D01*
X12811682Y-12227484D02*
X12935491Y-12227484D01*
X12935491Y-12227484D02*
X12868825Y-12303674D01*
X12868825Y-12303674D02*
X12897396Y-12303674D01*
X12897396Y-12303674D02*
X12916444Y-12313198D01*
X12916444Y-12313198D02*
X12925967Y-12322722D01*
X12925967Y-12322722D02*
X12935491Y-12341769D01*
X12935491Y-12341769D02*
X12935491Y-12389388D01*
X12935491Y-12389388D02*
X12925967Y-12408436D01*
X12925967Y-12408436D02*
X12916444Y-12417960D01*
X12916444Y-12417960D02*
X12897396Y-12427484D01*
X12897396Y-12427484D02*
X12840253Y-12427484D01*
X12840253Y-12427484D02*
X12821206Y-12417960D01*
X12821206Y-12417960D02*
X12811682Y-12408436D01*
X13030729Y-12427484D02*
X13068825Y-12427484D01*
X13068825Y-12427484D02*
X13087872Y-12417960D01*
X13087872Y-12417960D02*
X13097396Y-12408436D01*
X13097396Y-12408436D02*
X13116444Y-12379865D01*
X13116444Y-12379865D02*
X13125967Y-12341769D01*
X13125967Y-12341769D02*
X13125967Y-12265579D01*
X13125967Y-12265579D02*
X13116444Y-12246531D01*
X13116444Y-12246531D02*
X13106920Y-12237008D01*
X13106920Y-12237008D02*
X13087872Y-12227484D01*
X13087872Y-12227484D02*
X13049777Y-12227484D01*
X13049777Y-12227484D02*
X13030729Y-12237008D01*
X13030729Y-12237008D02*
X13021206Y-12246531D01*
X13021206Y-12246531D02*
X13011682Y-12265579D01*
X13011682Y-12265579D02*
X13011682Y-12313198D01*
X13011682Y-12313198D02*
X13021206Y-12332246D01*
X13021206Y-12332246D02*
X13030729Y-12341769D01*
X13030729Y-12341769D02*
X13049777Y-12351293D01*
X13049777Y-12351293D02*
X13087872Y-12351293D01*
X13087872Y-12351293D02*
X13106920Y-12341769D01*
X13106920Y-12341769D02*
X13116444Y-12332246D01*
X13116444Y-12332246D02*
X13125967Y-12313198D01*
X13297396Y-12294150D02*
X13297396Y-12427484D01*
X13249777Y-12217960D02*
X13202158Y-12360817D01*
X13202158Y-12360817D02*
X13325967Y-12360817D01*
X13392634Y-12227484D02*
X13392634Y-12265579D01*
X13468825Y-12227484D02*
X13468825Y-12265579D01*
X13764063Y-12503674D02*
X13754539Y-12494150D01*
X13754539Y-12494150D02*
X13735491Y-12465579D01*
X13735491Y-12465579D02*
X13725968Y-12446531D01*
X13725968Y-12446531D02*
X13716444Y-12417960D01*
X13716444Y-12417960D02*
X13706920Y-12370341D01*
X13706920Y-12370341D02*
X13706920Y-12332246D01*
X13706920Y-12332246D02*
X13716444Y-12284627D01*
X13716444Y-12284627D02*
X13725968Y-12256055D01*
X13725968Y-12256055D02*
X13735491Y-12237008D01*
X13735491Y-12237008D02*
X13754539Y-12208436D01*
X13754539Y-12208436D02*
X13764063Y-12198912D01*
X13945015Y-12427484D02*
X13830729Y-12427484D01*
X13887872Y-12427484D02*
X13887872Y-12227484D01*
X13887872Y-12227484D02*
X13868825Y-12256055D01*
X13868825Y-12256055D02*
X13849777Y-12275103D01*
X13849777Y-12275103D02*
X13830729Y-12284627D01*
X14183110Y-12427484D02*
X14183110Y-12227484D01*
X14268825Y-12427484D02*
X14268825Y-12322722D01*
X14268825Y-12322722D02*
X14259301Y-12303674D01*
X14259301Y-12303674D02*
X14240253Y-12294150D01*
X14240253Y-12294150D02*
X14211682Y-12294150D01*
X14211682Y-12294150D02*
X14192634Y-12303674D01*
X14192634Y-12303674D02*
X14183110Y-12313198D01*
X14392634Y-12427484D02*
X14373587Y-12417960D01*
X14373587Y-12417960D02*
X14364063Y-12408436D01*
X14364063Y-12408436D02*
X14354539Y-12389388D01*
X14354539Y-12389388D02*
X14354539Y-12332246D01*
X14354539Y-12332246D02*
X14364063Y-12313198D01*
X14364063Y-12313198D02*
X14373587Y-12303674D01*
X14373587Y-12303674D02*
X14392634Y-12294150D01*
X14392634Y-12294150D02*
X14421206Y-12294150D01*
X14421206Y-12294150D02*
X14440253Y-12303674D01*
X14440253Y-12303674D02*
X14449777Y-12313198D01*
X14449777Y-12313198D02*
X14459301Y-12332246D01*
X14459301Y-12332246D02*
X14459301Y-12389388D01*
X14459301Y-12389388D02*
X14449777Y-12408436D01*
X14449777Y-12408436D02*
X14440253Y-12417960D01*
X14440253Y-12417960D02*
X14421206Y-12427484D01*
X14421206Y-12427484D02*
X14392634Y-12427484D01*
X14573587Y-12427484D02*
X14554539Y-12417960D01*
X14554539Y-12417960D02*
X14545015Y-12398912D01*
X14545015Y-12398912D02*
X14545015Y-12227484D01*
X14725968Y-12417960D02*
X14706920Y-12427484D01*
X14706920Y-12427484D02*
X14668825Y-12427484D01*
X14668825Y-12427484D02*
X14649777Y-12417960D01*
X14649777Y-12417960D02*
X14640253Y-12398912D01*
X14640253Y-12398912D02*
X14640253Y-12322722D01*
X14640253Y-12322722D02*
X14649777Y-12303674D01*
X14649777Y-12303674D02*
X14668825Y-12294150D01*
X14668825Y-12294150D02*
X14706920Y-12294150D01*
X14706920Y-12294150D02*
X14725968Y-12303674D01*
X14725968Y-12303674D02*
X14735491Y-12322722D01*
X14735491Y-12322722D02*
X14735491Y-12341769D01*
X14735491Y-12341769D02*
X14640253Y-12360817D01*
X14802158Y-12503674D02*
X14811682Y-12494150D01*
X14811682Y-12494150D02*
X14830730Y-12465579D01*
X14830730Y-12465579D02*
X14840253Y-12446531D01*
X14840253Y-12446531D02*
X14849777Y-12417960D01*
X14849777Y-12417960D02*
X14859301Y-12370341D01*
X14859301Y-12370341D02*
X14859301Y-12332246D01*
X14859301Y-12332246D02*
X14849777Y-12284627D01*
X14849777Y-12284627D02*
X14840253Y-12256055D01*
X14840253Y-12256055D02*
X14830730Y-12237008D01*
X14830730Y-12237008D02*
X14811682Y-12208436D01*
X14811682Y-12208436D02*
X14802158Y-12198912D01*
D12*
X10129000Y-12540000D02*
X10129000Y-12660000D01*
X10069000Y-12600000D02*
X10189000Y-12600000D01*
D11*
X10554539Y-12691484D02*
X10440253Y-12691484D01*
X10497396Y-12691484D02*
X10497396Y-12491484D01*
X10497396Y-12491484D02*
X10478348Y-12520055D01*
X10478348Y-12520055D02*
X10459301Y-12539103D01*
X10459301Y-12539103D02*
X10440253Y-12548627D01*
X10640253Y-12672436D02*
X10649777Y-12681960D01*
X10649777Y-12681960D02*
X10640253Y-12691484D01*
X10640253Y-12691484D02*
X10630729Y-12681960D01*
X10630729Y-12681960D02*
X10640253Y-12672436D01*
X10640253Y-12672436D02*
X10640253Y-12691484D01*
X10725967Y-12510531D02*
X10735491Y-12501008D01*
X10735491Y-12501008D02*
X10754539Y-12491484D01*
X10754539Y-12491484D02*
X10802158Y-12491484D01*
X10802158Y-12491484D02*
X10821205Y-12501008D01*
X10821205Y-12501008D02*
X10830729Y-12510531D01*
X10830729Y-12510531D02*
X10840253Y-12529579D01*
X10840253Y-12529579D02*
X10840253Y-12548627D01*
X10840253Y-12548627D02*
X10830729Y-12577198D01*
X10830729Y-12577198D02*
X10716444Y-12691484D01*
X10716444Y-12691484D02*
X10840253Y-12691484D01*
X10964063Y-12491484D02*
X10983110Y-12491484D01*
X10983110Y-12491484D02*
X11002158Y-12501008D01*
X11002158Y-12501008D02*
X11011682Y-12510531D01*
X11011682Y-12510531D02*
X11021205Y-12529579D01*
X11021205Y-12529579D02*
X11030729Y-12567674D01*
X11030729Y-12567674D02*
X11030729Y-12615293D01*
X11030729Y-12615293D02*
X11021205Y-12653388D01*
X11021205Y-12653388D02*
X11011682Y-12672436D01*
X11011682Y-12672436D02*
X11002158Y-12681960D01*
X11002158Y-12681960D02*
X10983110Y-12691484D01*
X10983110Y-12691484D02*
X10964063Y-12691484D01*
X10964063Y-12691484D02*
X10945015Y-12681960D01*
X10945015Y-12681960D02*
X10935491Y-12672436D01*
X10935491Y-12672436D02*
X10925967Y-12653388D01*
X10925967Y-12653388D02*
X10916444Y-12615293D01*
X10916444Y-12615293D02*
X10916444Y-12567674D01*
X10916444Y-12567674D02*
X10925967Y-12529579D01*
X10925967Y-12529579D02*
X10935491Y-12510531D01*
X10935491Y-12510531D02*
X10945015Y-12501008D01*
X10945015Y-12501008D02*
X10964063Y-12491484D01*
X11154539Y-12491484D02*
X11173586Y-12491484D01*
X11173586Y-12491484D02*
X11192634Y-12501008D01*
X11192634Y-12501008D02*
X11202158Y-12510531D01*
X11202158Y-12510531D02*
X11211682Y-12529579D01*
X11211682Y-12529579D02*
X11221205Y-12567674D01*
X11221205Y-12567674D02*
X11221205Y-12615293D01*
X11221205Y-12615293D02*
X11211682Y-12653388D01*
X11211682Y-12653388D02*
X11202158Y-12672436D01*
X11202158Y-12672436D02*
X11192634Y-12681960D01*
X11192634Y-12681960D02*
X11173586Y-12691484D01*
X11173586Y-12691484D02*
X11154539Y-12691484D01*
X11154539Y-12691484D02*
X11135491Y-12681960D01*
X11135491Y-12681960D02*
X11125967Y-12672436D01*
X11125967Y-12672436D02*
X11116444Y-12653388D01*
X11116444Y-12653388D02*
X11106920Y-12615293D01*
X11106920Y-12615293D02*
X11106920Y-12567674D01*
X11106920Y-12567674D02*
X11116444Y-12529579D01*
X11116444Y-12529579D02*
X11125967Y-12510531D01*
X11125967Y-12510531D02*
X11135491Y-12501008D01*
X11135491Y-12501008D02*
X11154539Y-12491484D01*
X11306920Y-12691484D02*
X11306920Y-12558150D01*
X11306920Y-12577198D02*
X11316443Y-12567674D01*
X11316443Y-12567674D02*
X11335491Y-12558150D01*
X11335491Y-12558150D02*
X11364063Y-12558150D01*
X11364063Y-12558150D02*
X11383110Y-12567674D01*
X11383110Y-12567674D02*
X11392634Y-12586722D01*
X11392634Y-12586722D02*
X11392634Y-12691484D01*
X11392634Y-12586722D02*
X11402158Y-12567674D01*
X11402158Y-12567674D02*
X11421205Y-12558150D01*
X11421205Y-12558150D02*
X11449777Y-12558150D01*
X11449777Y-12558150D02*
X11468824Y-12567674D01*
X11468824Y-12567674D02*
X11478348Y-12586722D01*
X11478348Y-12586722D02*
X11478348Y-12691484D01*
X11573586Y-12691484D02*
X11573586Y-12558150D01*
X11573586Y-12577198D02*
X11583110Y-12567674D01*
X11583110Y-12567674D02*
X11602158Y-12558150D01*
X11602158Y-12558150D02*
X11630729Y-12558150D01*
X11630729Y-12558150D02*
X11649777Y-12567674D01*
X11649777Y-12567674D02*
X11659301Y-12586722D01*
X11659301Y-12586722D02*
X11659301Y-12691484D01*
X11659301Y-12586722D02*
X11668824Y-12567674D01*
X11668824Y-12567674D02*
X11687872Y-12558150D01*
X11687872Y-12558150D02*
X11716443Y-12558150D01*
X11716443Y-12558150D02*
X11735491Y-12567674D01*
X11735491Y-12567674D02*
X11745015Y-12586722D01*
X11745015Y-12586722D02*
X11745015Y-12691484D01*
X12135491Y-12481960D02*
X11964063Y-12739103D01*
X12392634Y-12491484D02*
X12411682Y-12491484D01*
X12411682Y-12491484D02*
X12430729Y-12501008D01*
X12430729Y-12501008D02*
X12440253Y-12510531D01*
X12440253Y-12510531D02*
X12449777Y-12529579D01*
X12449777Y-12529579D02*
X12459301Y-12567674D01*
X12459301Y-12567674D02*
X12459301Y-12615293D01*
X12459301Y-12615293D02*
X12449777Y-12653388D01*
X12449777Y-12653388D02*
X12440253Y-12672436D01*
X12440253Y-12672436D02*
X12430729Y-12681960D01*
X12430729Y-12681960D02*
X12411682Y-12691484D01*
X12411682Y-12691484D02*
X12392634Y-12691484D01*
X12392634Y-12691484D02*
X12373586Y-12681960D01*
X12373586Y-12681960D02*
X12364063Y-12672436D01*
X12364063Y-12672436D02*
X12354539Y-12653388D01*
X12354539Y-12653388D02*
X12345015Y-12615293D01*
X12345015Y-12615293D02*
X12345015Y-12567674D01*
X12345015Y-12567674D02*
X12354539Y-12529579D01*
X12354539Y-12529579D02*
X12364063Y-12510531D01*
X12364063Y-12510531D02*
X12373586Y-12501008D01*
X12373586Y-12501008D02*
X12392634Y-12491484D01*
X12545015Y-12672436D02*
X12554539Y-12681960D01*
X12554539Y-12681960D02*
X12545015Y-12691484D01*
X12545015Y-12691484D02*
X12535491Y-12681960D01*
X12535491Y-12681960D02*
X12545015Y-12672436D01*
X12545015Y-12672436D02*
X12545015Y-12691484D01*
X12678348Y-12491484D02*
X12697396Y-12491484D01*
X12697396Y-12491484D02*
X12716444Y-12501008D01*
X12716444Y-12501008D02*
X12725967Y-12510531D01*
X12725967Y-12510531D02*
X12735491Y-12529579D01*
X12735491Y-12529579D02*
X12745015Y-12567674D01*
X12745015Y-12567674D02*
X12745015Y-12615293D01*
X12745015Y-12615293D02*
X12735491Y-12653388D01*
X12735491Y-12653388D02*
X12725967Y-12672436D01*
X12725967Y-12672436D02*
X12716444Y-12681960D01*
X12716444Y-12681960D02*
X12697396Y-12691484D01*
X12697396Y-12691484D02*
X12678348Y-12691484D01*
X12678348Y-12691484D02*
X12659301Y-12681960D01*
X12659301Y-12681960D02*
X12649777Y-12672436D01*
X12649777Y-12672436D02*
X12640253Y-12653388D01*
X12640253Y-12653388D02*
X12630729Y-12615293D01*
X12630729Y-12615293D02*
X12630729Y-12567674D01*
X12630729Y-12567674D02*
X12640253Y-12529579D01*
X12640253Y-12529579D02*
X12649777Y-12510531D01*
X12649777Y-12510531D02*
X12659301Y-12501008D01*
X12659301Y-12501008D02*
X12678348Y-12491484D01*
X12916444Y-12558150D02*
X12916444Y-12691484D01*
X12868825Y-12481960D02*
X12821206Y-12624817D01*
X12821206Y-12624817D02*
X12945015Y-12624817D01*
X13002158Y-12491484D02*
X13135491Y-12491484D01*
X13135491Y-12491484D02*
X13049777Y-12691484D01*
X13202158Y-12510531D02*
X13211682Y-12501008D01*
X13211682Y-12501008D02*
X13230729Y-12491484D01*
X13230729Y-12491484D02*
X13278348Y-12491484D01*
X13278348Y-12491484D02*
X13297396Y-12501008D01*
X13297396Y-12501008D02*
X13306920Y-12510531D01*
X13306920Y-12510531D02*
X13316444Y-12529579D01*
X13316444Y-12529579D02*
X13316444Y-12548627D01*
X13316444Y-12548627D02*
X13306920Y-12577198D01*
X13306920Y-12577198D02*
X13192634Y-12691484D01*
X13192634Y-12691484D02*
X13316444Y-12691484D01*
X13392634Y-12491484D02*
X13392634Y-12529579D01*
X13468825Y-12491484D02*
X13468825Y-12529579D01*
X13764063Y-12767674D02*
X13754539Y-12758150D01*
X13754539Y-12758150D02*
X13735491Y-12729579D01*
X13735491Y-12729579D02*
X13725968Y-12710531D01*
X13725968Y-12710531D02*
X13716444Y-12681960D01*
X13716444Y-12681960D02*
X13706920Y-12634341D01*
X13706920Y-12634341D02*
X13706920Y-12596246D01*
X13706920Y-12596246D02*
X13716444Y-12548627D01*
X13716444Y-12548627D02*
X13725968Y-12520055D01*
X13725968Y-12520055D02*
X13735491Y-12501008D01*
X13735491Y-12501008D02*
X13754539Y-12472436D01*
X13754539Y-12472436D02*
X13764063Y-12462912D01*
X13878348Y-12491484D02*
X13897396Y-12491484D01*
X13897396Y-12491484D02*
X13916444Y-12501008D01*
X13916444Y-12501008D02*
X13925968Y-12510531D01*
X13925968Y-12510531D02*
X13935491Y-12529579D01*
X13935491Y-12529579D02*
X13945015Y-12567674D01*
X13945015Y-12567674D02*
X13945015Y-12615293D01*
X13945015Y-12615293D02*
X13935491Y-12653388D01*
X13935491Y-12653388D02*
X13925968Y-12672436D01*
X13925968Y-12672436D02*
X13916444Y-12681960D01*
X13916444Y-12681960D02*
X13897396Y-12691484D01*
X13897396Y-12691484D02*
X13878348Y-12691484D01*
X13878348Y-12691484D02*
X13859301Y-12681960D01*
X13859301Y-12681960D02*
X13849777Y-12672436D01*
X13849777Y-12672436D02*
X13840253Y-12653388D01*
X13840253Y-12653388D02*
X13830729Y-12615293D01*
X13830729Y-12615293D02*
X13830729Y-12567674D01*
X13830729Y-12567674D02*
X13840253Y-12529579D01*
X13840253Y-12529579D02*
X13849777Y-12510531D01*
X13849777Y-12510531D02*
X13859301Y-12501008D01*
X13859301Y-12501008D02*
X13878348Y-12491484D01*
X14183110Y-12691484D02*
X14183110Y-12491484D01*
X14268825Y-12691484D02*
X14268825Y-12586722D01*
X14268825Y-12586722D02*
X14259301Y-12567674D01*
X14259301Y-12567674D02*
X14240253Y-12558150D01*
X14240253Y-12558150D02*
X14211682Y-12558150D01*
X14211682Y-12558150D02*
X14192634Y-12567674D01*
X14192634Y-12567674D02*
X14183110Y-12577198D01*
X14392634Y-12691484D02*
X14373587Y-12681960D01*
X14373587Y-12681960D02*
X14364063Y-12672436D01*
X14364063Y-12672436D02*
X14354539Y-12653388D01*
X14354539Y-12653388D02*
X14354539Y-12596246D01*
X14354539Y-12596246D02*
X14364063Y-12577198D01*
X14364063Y-12577198D02*
X14373587Y-12567674D01*
X14373587Y-12567674D02*
X14392634Y-12558150D01*
X14392634Y-12558150D02*
X14421206Y-12558150D01*
X14421206Y-12558150D02*
X14440253Y-12567674D01*
X14440253Y-12567674D02*
X14449777Y-12577198D01*
X14449777Y-12577198D02*
X14459301Y-12596246D01*
X14459301Y-12596246D02*
X14459301Y-12653388D01*
X14459301Y-12653388D02*
X14449777Y-12672436D01*
X14449777Y-12672436D02*
X14440253Y-12681960D01*
X14440253Y-12681960D02*
X14421206Y-12691484D01*
X14421206Y-12691484D02*
X14392634Y-12691484D01*
X14573587Y-12691484D02*
X14554539Y-12681960D01*
X14554539Y-12681960D02*
X14545015Y-12662912D01*
X14545015Y-12662912D02*
X14545015Y-12491484D01*
X14725968Y-12681960D02*
X14706920Y-12691484D01*
X14706920Y-12691484D02*
X14668825Y-12691484D01*
X14668825Y-12691484D02*
X14649777Y-12681960D01*
X14649777Y-12681960D02*
X14640253Y-12662912D01*
X14640253Y-12662912D02*
X14640253Y-12586722D01*
X14640253Y-12586722D02*
X14649777Y-12567674D01*
X14649777Y-12567674D02*
X14668825Y-12558150D01*
X14668825Y-12558150D02*
X14706920Y-12558150D01*
X14706920Y-12558150D02*
X14725968Y-12567674D01*
X14725968Y-12567674D02*
X14735491Y-12586722D01*
X14735491Y-12586722D02*
X14735491Y-12605769D01*
X14735491Y-12605769D02*
X14640253Y-12624817D01*
X14811682Y-12681960D02*
X14830730Y-12691484D01*
X14830730Y-12691484D02*
X14868825Y-12691484D01*
X14868825Y-12691484D02*
X14887872Y-12681960D01*
X14887872Y-12681960D02*
X14897396Y-12662912D01*
X14897396Y-12662912D02*
X14897396Y-12653388D01*
X14897396Y-12653388D02*
X14887872Y-12634341D01*
X14887872Y-12634341D02*
X14868825Y-12624817D01*
X14868825Y-12624817D02*
X14840253Y-12624817D01*
X14840253Y-12624817D02*
X14821206Y-12615293D01*
X14821206Y-12615293D02*
X14811682Y-12596246D01*
X14811682Y-12596246D02*
X14811682Y-12586722D01*
X14811682Y-12586722D02*
X14821206Y-12567674D01*
X14821206Y-12567674D02*
X14840253Y-12558150D01*
X14840253Y-12558150D02*
X14868825Y-12558150D01*
X14868825Y-12558150D02*
X14887872Y-12567674D01*
X15135492Y-12615293D02*
X15287873Y-12615293D01*
X15211682Y-12691484D02*
X15211682Y-12539103D01*
X15621206Y-12558150D02*
X15621206Y-12691484D01*
X15573587Y-12481960D02*
X15525968Y-12624817D01*
X15525968Y-12624817D02*
X15649777Y-12624817D01*
X15868825Y-12681960D02*
X15887873Y-12691484D01*
X15887873Y-12691484D02*
X15925968Y-12691484D01*
X15925968Y-12691484D02*
X15945015Y-12681960D01*
X15945015Y-12681960D02*
X15954539Y-12662912D01*
X15954539Y-12662912D02*
X15954539Y-12653388D01*
X15954539Y-12653388D02*
X15945015Y-12634341D01*
X15945015Y-12634341D02*
X15925968Y-12624817D01*
X15925968Y-12624817D02*
X15897396Y-12624817D01*
X15897396Y-12624817D02*
X15878349Y-12615293D01*
X15878349Y-12615293D02*
X15868825Y-12596246D01*
X15868825Y-12596246D02*
X15868825Y-12586722D01*
X15868825Y-12586722D02*
X15878349Y-12567674D01*
X15878349Y-12567674D02*
X15897396Y-12558150D01*
X15897396Y-12558150D02*
X15925968Y-12558150D01*
X15925968Y-12558150D02*
X15945015Y-12567674D01*
X16068825Y-12691484D02*
X16049777Y-12681960D01*
X16049777Y-12681960D02*
X16040254Y-12662912D01*
X16040254Y-12662912D02*
X16040254Y-12491484D01*
X16173587Y-12691484D02*
X16154539Y-12681960D01*
X16154539Y-12681960D02*
X16145015Y-12672436D01*
X16145015Y-12672436D02*
X16135492Y-12653388D01*
X16135492Y-12653388D02*
X16135492Y-12596246D01*
X16135492Y-12596246D02*
X16145015Y-12577198D01*
X16145015Y-12577198D02*
X16154539Y-12567674D01*
X16154539Y-12567674D02*
X16173587Y-12558150D01*
X16173587Y-12558150D02*
X16202158Y-12558150D01*
X16202158Y-12558150D02*
X16221206Y-12567674D01*
X16221206Y-12567674D02*
X16230730Y-12577198D01*
X16230730Y-12577198D02*
X16240254Y-12596246D01*
X16240254Y-12596246D02*
X16240254Y-12653388D01*
X16240254Y-12653388D02*
X16230730Y-12672436D01*
X16230730Y-12672436D02*
X16221206Y-12681960D01*
X16221206Y-12681960D02*
X16202158Y-12691484D01*
X16202158Y-12691484D02*
X16173587Y-12691484D01*
X16297396Y-12558150D02*
X16373587Y-12558150D01*
X16325968Y-12491484D02*
X16325968Y-12662912D01*
X16325968Y-12662912D02*
X16335492Y-12681960D01*
X16335492Y-12681960D02*
X16354539Y-12691484D01*
X16354539Y-12691484D02*
X16373587Y-12691484D01*
X16430730Y-12681960D02*
X16449777Y-12691484D01*
X16449777Y-12691484D02*
X16487873Y-12691484D01*
X16487873Y-12691484D02*
X16506920Y-12681960D01*
X16506920Y-12681960D02*
X16516444Y-12662912D01*
X16516444Y-12662912D02*
X16516444Y-12653388D01*
X16516444Y-12653388D02*
X16506920Y-12634341D01*
X16506920Y-12634341D02*
X16487873Y-12624817D01*
X16487873Y-12624817D02*
X16459301Y-12624817D01*
X16459301Y-12624817D02*
X16440254Y-12615293D01*
X16440254Y-12615293D02*
X16430730Y-12596246D01*
X16430730Y-12596246D02*
X16430730Y-12586722D01*
X16430730Y-12586722D02*
X16440254Y-12567674D01*
X16440254Y-12567674D02*
X16459301Y-12558150D01*
X16459301Y-12558150D02*
X16487873Y-12558150D01*
X16487873Y-12558150D02*
X16506920Y-12567674D01*
X16583111Y-12767674D02*
X16592635Y-12758150D01*
X16592635Y-12758150D02*
X16611682Y-12729579D01*
X16611682Y-12729579D02*
X16621206Y-12710531D01*
X16621206Y-12710531D02*
X16630730Y-12681960D01*
X16630730Y-12681960D02*
X16640254Y-12634341D01*
X16640254Y-12634341D02*
X16640254Y-12596246D01*
X16640254Y-12596246D02*
X16630730Y-12548627D01*
X16630730Y-12548627D02*
X16621206Y-12520055D01*
X16621206Y-12520055D02*
X16611682Y-12501008D01*
X16611682Y-12501008D02*
X16592635Y-12472436D01*
X16592635Y-12472436D02*
X16583111Y-12462912D01*
M02*
