%TF.GenerationSoftware,KiCad,Pcbnew,8.0.3*%
%TF.CreationDate,2024-07-19T13:19:08+02:00*%
%TF.ProjectId,Konwerter_impendancji.kicad_3_pcb,4b6f6e77-6572-4746-9572-5f696d70656e,rev?*%
%TF.SameCoordinates,Original*%
%TF.FileFunction,Copper,L1,Top*%
%TF.FilePolarity,Positive*%
%FSLAX46Y46*%
G04 Gerber Fmt 4.6, Leading zero omitted, Abs format (unit mm)*
G04 Created by KiCad (PCBNEW 8.0.3) date 2024-07-19 13:19:08*
%MOMM*%
%LPD*%
G01*
G04 APERTURE LIST*
G04 Aperture macros list*
%AMRoundRect*
0 Rectangle with rounded corners*
0 $1 Rounding radius*
0 $2 $3 $4 $5 $6 $7 $8 $9 X,Y pos of 4 corners*
0 Add a 4 corners polygon primitive as box body*
4,1,4,$2,$3,$4,$5,$6,$7,$8,$9,$2,$3,0*
0 Add four circle primitives for the rounded corners*
1,1,$1+$1,$2,$3*
1,1,$1+$1,$4,$5*
1,1,$1+$1,$6,$7*
1,1,$1+$1,$8,$9*
0 Add four rect primitives between the rounded corners*
20,1,$1+$1,$2,$3,$4,$5,0*
20,1,$1+$1,$4,$5,$6,$7,0*
20,1,$1+$1,$6,$7,$8,$9,0*
20,1,$1+$1,$8,$9,$2,$3,0*%
G04 Aperture macros list end*
%TA.AperFunction,SMDPad,CuDef*%
%ADD10RoundRect,0.250000X0.325000X0.650000X-0.325000X0.650000X-0.325000X-0.650000X0.325000X-0.650000X0*%
%TD*%
%TA.AperFunction,SMDPad,CuDef*%
%ADD11R,1.200000X1.350000*%
%TD*%
%TA.AperFunction,SMDPad,CuDef*%
%ADD12R,1.200000X1.300000*%
%TD*%
%TA.AperFunction,SMDPad,CuDef*%
%ADD13R,5.080000X2.290000*%
%TD*%
%TA.AperFunction,SMDPad,CuDef*%
%ADD14R,5.080000X2.420000*%
%TD*%
%TA.AperFunction,SMDPad,CuDef*%
%ADD15R,0.950000X0.460000*%
%TD*%
%TA.AperFunction,ComponentPad*%
%ADD16C,0.970000*%
%TD*%
%TA.AperFunction,ComponentPad*%
%ADD17C,2.500000*%
%TD*%
%TA.AperFunction,ComponentPad*%
%ADD18C,3.500000*%
%TD*%
%TA.AperFunction,Conductor*%
%ADD19C,0.250000*%
%TD*%
%TA.AperFunction,Conductor*%
%ADD20C,1.800000*%
%TD*%
%TA.AperFunction,Conductor*%
%ADD21C,1.500000*%
%TD*%
%TA.AperFunction,Conductor*%
%ADD22C,1.120000*%
%TD*%
%TA.AperFunction,Conductor*%
%ADD23C,1.200000*%
%TD*%
G04 APERTURE END LIST*
D10*
%TO.P,C1,1*%
%TO.N,Net-(C1-Pad1)*%
X116425000Y-104817500D03*
%TO.P,C1,2*%
%TO.N,Net-(J1-In)*%
X113475000Y-104817500D03*
%TD*%
D11*
%TO.P,TR1,1*%
%TO.N,Net-(C1-Pad1)*%
X120540000Y-104810000D03*
%TO.P,TR1,2*%
%TO.N,N/C*%
X120550000Y-107300000D03*
%TO.P,TR1,3*%
%TO.N,GND*%
X120530000Y-109780000D03*
D12*
%TO.P,TR1,4*%
X126190000Y-109740000D03*
D11*
%TO.P,TR1,5*%
%TO.N,N/C*%
X126190000Y-107310000D03*
%TO.P,TR1,6*%
%TO.N,Net-(C2-Pad1)*%
X126190000Y-104770000D03*
%TD*%
D13*
%TO.P,J1,1,In*%
%TO.N,Net-(J1-In)*%
X107160000Y-104817500D03*
D14*
%TO.P,J1,2,Ext*%
%TO.N,GND*%
X107160000Y-100437500D03*
X107160000Y-109197500D03*
D15*
X110150000Y-100437500D03*
X110150000Y-109197500D03*
D16*
X110600000Y-100437500D03*
X110600000Y-109197500D03*
%TD*%
D17*
%TO.P,J2,1*%
%TO.N,Net-(C2-Pad1)*%
X134480000Y-104777500D03*
D18*
%TO.P,J2,2*%
%TO.N,GND*%
X130480000Y-100677500D03*
X130480000Y-108877500D03*
X138380000Y-100777500D03*
X138380000Y-108877500D03*
%TD*%
D19*
%TO.N,Net-(C1-Pad1)*%
X120532500Y-104817500D02*
X120540000Y-104810000D01*
D20*
X116900000Y-104817500D02*
X119900000Y-104817500D01*
D21*
%TO.N,Net-(J1-In)*%
X106900000Y-104837500D02*
X106920000Y-104817500D01*
D20*
X106660000Y-104817500D02*
X113100000Y-104817500D01*
D22*
%TO.N,Net-(C2-Pad1)*%
X126207500Y-104787500D02*
X126190000Y-104770000D01*
D23*
X134440000Y-104787500D02*
X126207500Y-104787500D01*
%TD*%
%TA.AperFunction,Conductor*%
%TO.N,GND*%
G36*
X141883039Y-96289685D02*
G01*
X141928794Y-96342489D01*
X141940000Y-96394000D01*
X141940000Y-114146000D01*
X141920315Y-114213039D01*
X141867511Y-114258794D01*
X141816000Y-114270000D01*
X122498910Y-114270000D01*
X122483338Y-104023984D01*
X124439500Y-104023984D01*
X124439500Y-105516015D01*
X124445650Y-105604624D01*
X124445652Y-105604640D01*
X124494465Y-105812176D01*
X124494468Y-105812186D01*
X124572942Y-105989915D01*
X124582013Y-106059193D01*
X124572942Y-106090085D01*
X124494468Y-106267813D01*
X124494465Y-106267823D01*
X124445652Y-106475359D01*
X124445650Y-106475375D01*
X124439500Y-106563984D01*
X124439500Y-108056015D01*
X124445650Y-108144624D01*
X124445652Y-108144640D01*
X124494465Y-108352176D01*
X124494467Y-108352182D01*
X124494468Y-108352185D01*
X124580591Y-108547237D01*
X124580592Y-108547238D01*
X124701088Y-108723141D01*
X124701093Y-108723147D01*
X124851852Y-108873906D01*
X124851858Y-108873911D01*
X125027763Y-108994409D01*
X125222815Y-109080532D01*
X125222821Y-109080533D01*
X125222823Y-109080534D01*
X125430359Y-109129347D01*
X125430364Y-109129347D01*
X125430370Y-109129349D01*
X125479602Y-109132766D01*
X125518984Y-109135500D01*
X125518988Y-109135500D01*
X126861016Y-109135500D01*
X126896459Y-109133039D01*
X126949630Y-109129349D01*
X126949636Y-109129347D01*
X126949640Y-109129347D01*
X127157176Y-109080534D01*
X127157174Y-109080534D01*
X127157185Y-109080532D01*
X127352237Y-108994409D01*
X127528142Y-108873911D01*
X127678911Y-108723142D01*
X127799409Y-108547237D01*
X127885532Y-108352185D01*
X127934349Y-108144630D01*
X127940500Y-108056012D01*
X127940500Y-106662000D01*
X127960185Y-106594961D01*
X128012989Y-106549206D01*
X128064500Y-106538000D01*
X132798949Y-106538000D01*
X132865988Y-106557685D01*
X132883833Y-106571608D01*
X132946836Y-106630772D01*
X132946846Y-106630780D01*
X133191193Y-106808308D01*
X133191198Y-106808310D01*
X133191205Y-106808316D01*
X133455896Y-106953832D01*
X133455901Y-106953834D01*
X133455903Y-106953835D01*
X133455904Y-106953836D01*
X133736734Y-107065024D01*
X133736737Y-107065025D01*
X133834259Y-107090064D01*
X134029302Y-107140142D01*
X134176039Y-107158679D01*
X134328963Y-107177999D01*
X134328969Y-107177999D01*
X134328973Y-107178000D01*
X134328975Y-107178000D01*
X134631025Y-107178000D01*
X134631027Y-107178000D01*
X134631032Y-107177999D01*
X134631036Y-107177999D01*
X134710591Y-107167948D01*
X134930698Y-107140142D01*
X135223262Y-107065025D01*
X135223265Y-107065024D01*
X135504095Y-106953836D01*
X135504096Y-106953835D01*
X135504094Y-106953835D01*
X135504104Y-106953832D01*
X135768795Y-106808316D01*
X136013162Y-106630774D01*
X136233349Y-106424004D01*
X136425885Y-106191268D01*
X136587733Y-105936236D01*
X136716341Y-105662930D01*
X136809681Y-105375660D01*
X136866280Y-105078957D01*
X136885246Y-104777500D01*
X136866280Y-104476043D01*
X136809681Y-104179340D01*
X136716341Y-103892070D01*
X136587733Y-103618764D01*
X136425885Y-103363732D01*
X136233349Y-103130996D01*
X136013162Y-102924226D01*
X136013159Y-102924224D01*
X136013153Y-102924219D01*
X135768806Y-102746691D01*
X135768799Y-102746686D01*
X135768795Y-102746684D01*
X135504104Y-102601168D01*
X135504101Y-102601166D01*
X135504096Y-102601164D01*
X135504095Y-102601163D01*
X135223265Y-102489975D01*
X135223262Y-102489974D01*
X134930695Y-102414857D01*
X134631036Y-102377000D01*
X134631027Y-102377000D01*
X134328973Y-102377000D01*
X134328963Y-102377000D01*
X134029304Y-102414857D01*
X133736737Y-102489974D01*
X133736734Y-102489975D01*
X133455904Y-102601163D01*
X133455903Y-102601164D01*
X133191205Y-102746684D01*
X133191193Y-102746691D01*
X132946846Y-102924219D01*
X132946836Y-102924227D01*
X132925248Y-102944500D01*
X132866714Y-102999468D01*
X132862535Y-103003392D01*
X132800190Y-103034934D01*
X132777651Y-103037000D01*
X127268346Y-103037000D01*
X127218261Y-103026435D01*
X127157180Y-102999466D01*
X126949640Y-102950652D01*
X126949624Y-102950650D01*
X126861016Y-102944500D01*
X126861012Y-102944500D01*
X125518988Y-102944500D01*
X125518984Y-102944500D01*
X125430375Y-102950650D01*
X125430359Y-102950652D01*
X125222823Y-102999465D01*
X125222817Y-102999467D01*
X125027761Y-103085592D01*
X124851858Y-103206088D01*
X124851852Y-103206093D01*
X124701093Y-103356852D01*
X124701088Y-103356858D01*
X124580592Y-103532761D01*
X124494467Y-103727817D01*
X124494465Y-103727823D01*
X124445652Y-103935359D01*
X124445650Y-103935375D01*
X124439500Y-104023984D01*
X122483338Y-104023984D01*
X122471554Y-96270000D01*
X141816000Y-96270000D01*
X141883039Y-96289685D01*
G37*
%TD.AperFunction*%
%TD*%
%TA.AperFunction,Conductor*%
%TO.N,GND*%
G36*
X122498910Y-114270000D02*
G01*
X102064000Y-114270000D01*
X101996961Y-114250315D01*
X101951206Y-114197511D01*
X101940000Y-114146000D01*
X101940000Y-103639006D01*
X104194500Y-103639006D01*
X104194500Y-105995993D01*
X104210279Y-106095621D01*
X104210280Y-106095624D01*
X104210281Y-106095626D01*
X104271472Y-106215720D01*
X104271473Y-106215721D01*
X104271476Y-106215725D01*
X104366774Y-106311023D01*
X104366778Y-106311026D01*
X104366780Y-106311028D01*
X104486874Y-106372219D01*
X104486876Y-106372219D01*
X104486878Y-106372220D01*
X104586507Y-106388000D01*
X104586512Y-106388000D01*
X109733493Y-106388000D01*
X109833121Y-106372220D01*
X109833121Y-106372219D01*
X109833126Y-106372219D01*
X109953220Y-106311028D01*
X110048528Y-106215720D01*
X110049661Y-106213496D01*
X110051085Y-106210703D01*
X110099060Y-106159908D01*
X110161568Y-106143000D01*
X113854591Y-106143000D01*
X113854594Y-106143000D01*
X113922657Y-106136815D01*
X114079270Y-106088012D01*
X114129160Y-106057853D01*
X114219648Y-106003151D01*
X114219647Y-106003151D01*
X114219653Y-106003148D01*
X114335648Y-105887153D01*
X114368065Y-105833528D01*
X114420511Y-105746772D01*
X114420514Y-105746763D01*
X114460599Y-105618126D01*
X114469315Y-105590157D01*
X114475500Y-105522094D01*
X114475500Y-104112906D01*
X115424500Y-104112906D01*
X115424500Y-105522094D01*
X115430685Y-105590157D01*
X115430686Y-105590162D01*
X115430687Y-105590164D01*
X115479485Y-105746763D01*
X115479488Y-105746772D01*
X115564348Y-105887148D01*
X115564351Y-105887152D01*
X115680347Y-106003148D01*
X115680351Y-106003151D01*
X115820727Y-106088011D01*
X115820730Y-106088012D01*
X115977343Y-106136815D01*
X116045406Y-106143000D01*
X116045409Y-106143000D01*
X119530889Y-106143000D01*
X119597928Y-106162685D01*
X119643683Y-106215489D01*
X119653627Y-106284647D01*
X119624602Y-106348203D01*
X119618570Y-106354681D01*
X119601476Y-106371774D01*
X119601473Y-106371778D01*
X119540279Y-106491878D01*
X119524500Y-106591506D01*
X119524500Y-108008493D01*
X119540279Y-108108121D01*
X119540280Y-108108124D01*
X119540281Y-108108126D01*
X119601472Y-108228220D01*
X119601473Y-108228221D01*
X119601476Y-108228225D01*
X119696774Y-108323523D01*
X119696778Y-108323526D01*
X119696780Y-108323528D01*
X119816874Y-108384719D01*
X119816876Y-108384719D01*
X119816878Y-108384720D01*
X119916507Y-108400500D01*
X119916512Y-108400500D01*
X121183493Y-108400500D01*
X121283121Y-108384720D01*
X121283121Y-108384719D01*
X121283126Y-108384719D01*
X121403220Y-108323528D01*
X121498528Y-108228220D01*
X121559719Y-108108126D01*
X121559720Y-108108121D01*
X121575500Y-108008493D01*
X121575500Y-106591506D01*
X121559720Y-106491878D01*
X121559719Y-106491876D01*
X121559719Y-106491874D01*
X121498528Y-106371780D01*
X121498526Y-106371778D01*
X121498523Y-106371774D01*
X121403225Y-106276476D01*
X121403221Y-106276473D01*
X121403220Y-106276472D01*
X121283126Y-106215281D01*
X121283124Y-106215280D01*
X121283121Y-106215279D01*
X121183493Y-106199500D01*
X121183488Y-106199500D01*
X120623836Y-106199500D01*
X120556797Y-106179815D01*
X120511042Y-106127011D01*
X120501098Y-106057853D01*
X120530123Y-105994297D01*
X120567542Y-105965015D01*
X120577547Y-105959916D01*
X120594714Y-105951170D01*
X120600251Y-105947146D01*
X120618097Y-105934182D01*
X120683903Y-105910702D01*
X120690982Y-105910500D01*
X121173493Y-105910500D01*
X121273121Y-105894720D01*
X121273121Y-105894719D01*
X121273126Y-105894719D01*
X121393220Y-105833528D01*
X121488528Y-105738220D01*
X121549719Y-105618126D01*
X121554149Y-105590157D01*
X121565500Y-105518493D01*
X121565500Y-104101506D01*
X121549720Y-104001878D01*
X121549719Y-104001876D01*
X121549719Y-104001874D01*
X121488528Y-103881780D01*
X121488526Y-103881778D01*
X121488523Y-103881774D01*
X121393225Y-103786476D01*
X121393221Y-103786473D01*
X121393220Y-103786472D01*
X121273126Y-103725281D01*
X121273124Y-103725280D01*
X121273121Y-103725279D01*
X121173493Y-103709500D01*
X121173488Y-103709500D01*
X120670336Y-103709500D01*
X120603297Y-103689815D01*
X120597452Y-103685819D01*
X120594715Y-103683831D01*
X120594716Y-103683831D01*
X120594714Y-103683830D01*
X120506753Y-103639012D01*
X120408820Y-103589112D01*
X120210389Y-103524637D01*
X120004324Y-103492000D01*
X120004319Y-103492000D01*
X116804594Y-103492000D01*
X116045406Y-103492000D01*
X115977343Y-103498185D01*
X115977339Y-103498186D01*
X115977335Y-103498187D01*
X115820736Y-103546985D01*
X115820727Y-103546988D01*
X115680351Y-103631848D01*
X115680347Y-103631851D01*
X115564351Y-103747847D01*
X115564348Y-103747851D01*
X115479488Y-103888227D01*
X115479485Y-103888236D01*
X115430687Y-104044835D01*
X115430685Y-104044843D01*
X115424500Y-104112906D01*
X114475500Y-104112906D01*
X114469315Y-104044843D01*
X114420512Y-103888230D01*
X114420511Y-103888227D01*
X114335651Y-103747851D01*
X114335648Y-103747847D01*
X114219652Y-103631851D01*
X114219648Y-103631848D01*
X114079272Y-103546988D01*
X114079263Y-103546985D01*
X113922664Y-103498187D01*
X113922662Y-103498186D01*
X113922657Y-103498185D01*
X113854594Y-103492000D01*
X113854591Y-103492000D01*
X110161568Y-103492000D01*
X110094529Y-103472315D01*
X110051085Y-103424297D01*
X110048530Y-103419284D01*
X110048528Y-103419280D01*
X110048525Y-103419277D01*
X110048523Y-103419274D01*
X109953225Y-103323976D01*
X109953221Y-103323973D01*
X109953220Y-103323972D01*
X109833126Y-103262781D01*
X109833124Y-103262780D01*
X109833121Y-103262779D01*
X109733493Y-103247000D01*
X109733488Y-103247000D01*
X104586512Y-103247000D01*
X104586507Y-103247000D01*
X104486878Y-103262779D01*
X104366778Y-103323973D01*
X104366774Y-103323976D01*
X104271476Y-103419274D01*
X104271473Y-103419278D01*
X104210279Y-103539378D01*
X104194500Y-103639006D01*
X101940000Y-103639006D01*
X101940000Y-96394000D01*
X101959685Y-96326961D01*
X102012489Y-96281206D01*
X102064000Y-96270000D01*
X122471554Y-96270000D01*
X122498910Y-114270000D01*
G37*
%TD.AperFunction*%
%TD*%
M02*
