%TF.GenerationSoftware,KiCad,Pcbnew,7.0.9*%
%TF.CreationDate,2023-11-29T12:49:09+01:00*%
%TF.ProjectId,Zabezpieczenie_UPC1237_2,5a616265-7a70-4696-9563-7a656e69655f,rev?*%
%TF.SameCoordinates,Original*%
%TF.FileFunction,Drillmap*%
%TF.FilePolarity,Positive*%
%FSLAX45Y45*%
G04 Gerber Fmt 4.5, Leading zero omitted, Abs format (unit mm)*
G04 Created by KiCad (PCBNEW 7.0.9) date 2023-11-29 12:49:09*
%MOMM*%
%LPD*%
G01*
G04 APERTURE LIST*
%ADD10C,0.100000*%
%ADD11C,0.200000*%
G04 APERTURE END LIST*
D10*
X11180000Y-7500000D02*
X18680000Y-7500000D01*
X18680000Y-12300000D01*
X11180000Y-12300000D01*
X11180000Y-7500000D01*
D11*
X11435777Y-12616484D02*
X11435777Y-12416484D01*
X11435777Y-12416484D02*
X11483396Y-12416484D01*
X11483396Y-12416484D02*
X11511967Y-12426008D01*
X11511967Y-12426008D02*
X11531015Y-12445055D01*
X11531015Y-12445055D02*
X11540539Y-12464103D01*
X11540539Y-12464103D02*
X11550062Y-12502198D01*
X11550062Y-12502198D02*
X11550062Y-12530769D01*
X11550062Y-12530769D02*
X11540539Y-12568865D01*
X11540539Y-12568865D02*
X11531015Y-12587912D01*
X11531015Y-12587912D02*
X11511967Y-12606960D01*
X11511967Y-12606960D02*
X11483396Y-12616484D01*
X11483396Y-12616484D02*
X11435777Y-12616484D01*
X11635777Y-12616484D02*
X11635777Y-12483150D01*
X11635777Y-12521246D02*
X11645301Y-12502198D01*
X11645301Y-12502198D02*
X11654824Y-12492674D01*
X11654824Y-12492674D02*
X11673872Y-12483150D01*
X11673872Y-12483150D02*
X11692920Y-12483150D01*
X11759586Y-12616484D02*
X11759586Y-12483150D01*
X11759586Y-12416484D02*
X11750062Y-12426008D01*
X11750062Y-12426008D02*
X11759586Y-12435531D01*
X11759586Y-12435531D02*
X11769110Y-12426008D01*
X11769110Y-12426008D02*
X11759586Y-12416484D01*
X11759586Y-12416484D02*
X11759586Y-12435531D01*
X11883396Y-12616484D02*
X11864348Y-12606960D01*
X11864348Y-12606960D02*
X11854824Y-12587912D01*
X11854824Y-12587912D02*
X11854824Y-12416484D01*
X11988158Y-12616484D02*
X11969110Y-12606960D01*
X11969110Y-12606960D02*
X11959586Y-12587912D01*
X11959586Y-12587912D02*
X11959586Y-12416484D01*
X12216729Y-12616484D02*
X12216729Y-12416484D01*
X12216729Y-12416484D02*
X12283396Y-12559341D01*
X12283396Y-12559341D02*
X12350062Y-12416484D01*
X12350062Y-12416484D02*
X12350062Y-12616484D01*
X12531015Y-12616484D02*
X12531015Y-12511722D01*
X12531015Y-12511722D02*
X12521491Y-12492674D01*
X12521491Y-12492674D02*
X12502443Y-12483150D01*
X12502443Y-12483150D02*
X12464348Y-12483150D01*
X12464348Y-12483150D02*
X12445301Y-12492674D01*
X12531015Y-12606960D02*
X12511967Y-12616484D01*
X12511967Y-12616484D02*
X12464348Y-12616484D01*
X12464348Y-12616484D02*
X12445301Y-12606960D01*
X12445301Y-12606960D02*
X12435777Y-12587912D01*
X12435777Y-12587912D02*
X12435777Y-12568865D01*
X12435777Y-12568865D02*
X12445301Y-12549817D01*
X12445301Y-12549817D02*
X12464348Y-12540293D01*
X12464348Y-12540293D02*
X12511967Y-12540293D01*
X12511967Y-12540293D02*
X12531015Y-12530769D01*
X12626253Y-12483150D02*
X12626253Y-12683150D01*
X12626253Y-12492674D02*
X12645301Y-12483150D01*
X12645301Y-12483150D02*
X12683396Y-12483150D01*
X12683396Y-12483150D02*
X12702443Y-12492674D01*
X12702443Y-12492674D02*
X12711967Y-12502198D01*
X12711967Y-12502198D02*
X12721491Y-12521246D01*
X12721491Y-12521246D02*
X12721491Y-12578388D01*
X12721491Y-12578388D02*
X12711967Y-12597436D01*
X12711967Y-12597436D02*
X12702443Y-12606960D01*
X12702443Y-12606960D02*
X12683396Y-12616484D01*
X12683396Y-12616484D02*
X12645301Y-12616484D01*
X12645301Y-12616484D02*
X12626253Y-12606960D01*
X12807205Y-12597436D02*
X12816729Y-12606960D01*
X12816729Y-12606960D02*
X12807205Y-12616484D01*
X12807205Y-12616484D02*
X12797682Y-12606960D01*
X12797682Y-12606960D02*
X12807205Y-12597436D01*
X12807205Y-12597436D02*
X12807205Y-12616484D01*
X12807205Y-12492674D02*
X12816729Y-12502198D01*
X12816729Y-12502198D02*
X12807205Y-12511722D01*
X12807205Y-12511722D02*
X12797682Y-12502198D01*
X12797682Y-12502198D02*
X12807205Y-12492674D01*
X12807205Y-12492674D02*
X12807205Y-12511722D01*
M02*
