%TF.GenerationSoftware,KiCad,Pcbnew,7.0.9*%
%TF.CreationDate,2023-11-29T12:49:05+01:00*%
%TF.ProjectId,Zabezpieczenie_UPC1237_2,5a616265-7a70-4696-9563-7a656e69655f,rev?*%
%TF.SameCoordinates,Original*%
%TF.FileFunction,Soldermask,Bot*%
%TF.FilePolarity,Negative*%
%FSLAX46Y46*%
G04 Gerber Fmt 4.6, Leading zero omitted, Abs format (unit mm)*
G04 Created by KiCad (PCBNEW 7.0.9) date 2023-11-29 12:49:05*
%MOMM*%
%LPD*%
G01*
G04 APERTURE LIST*
G04 Aperture macros list*
%AMRoundRect*
0 Rectangle with rounded corners*
0 $1 Rounding radius*
0 $2 $3 $4 $5 $6 $7 $8 $9 X,Y pos of 4 corners*
0 Add a 4 corners polygon primitive as box body*
4,1,4,$2,$3,$4,$5,$6,$7,$8,$9,$2,$3,0*
0 Add four circle primitives for the rounded corners*
1,1,$1+$1,$2,$3*
1,1,$1+$1,$4,$5*
1,1,$1+$1,$6,$7*
1,1,$1+$1,$8,$9*
0 Add four rect primitives between the rounded corners*
20,1,$1+$1,$2,$3,$4,$5,0*
20,1,$1+$1,$4,$5,$6,$7,0*
20,1,$1+$1,$6,$7,$8,$9,0*
20,1,$1+$1,$8,$9,$2,$3,0*%
G04 Aperture macros list end*
%ADD10C,1.400000*%
%ADD11O,1.400000X1.400000*%
%ADD12R,2.300000X2.300000*%
%ADD13C,2.300000*%
%ADD14RoundRect,0.312500X0.937500X-0.437500X0.937500X0.437500X-0.937500X0.437500X-0.937500X-0.437500X0*%
%ADD15O,2.500000X1.600000*%
%ADD16R,1.600000X1.600000*%
%ADD17C,1.600000*%
%ADD18C,3.200000*%
%ADD19R,3.200000X3.200000*%
%ADD20R,1.800000X1.800000*%
%ADD21C,2.000000*%
%ADD22O,1.600000X1.600000*%
%ADD23C,1.900000*%
%ADD24R,2.200000X2.200000*%
%ADD25O,2.200000X2.200000*%
%ADD26RoundRect,0.250000X-0.350000X-0.625000X0.350000X-0.625000X0.350000X0.625000X-0.350000X0.625000X0*%
%ADD27O,1.200000X1.750000*%
%ADD28C,1.700000*%
%ADD29R,3.500000X3.500000*%
%ADD30C,3.500000*%
%ADD31R,2.100000X2.500000*%
%ADD32C,2.200000*%
%ADD33R,1.500000X1.500000*%
%ADD34O,1.500000X1.500000*%
%ADD35O,2.100000X2.500000*%
%ADD36R,1.900000X0.800000*%
%ADD37RoundRect,0.250000X-0.400000X-0.625000X0.400000X-0.625000X0.400000X0.625000X-0.400000X0.625000X0*%
%ADD38RoundRect,0.250000X0.400000X0.625000X-0.400000X0.625000X-0.400000X-0.625000X0.400000X-0.625000X0*%
%ADD39RoundRect,0.250000X-0.625000X0.400000X-0.625000X-0.400000X0.625000X-0.400000X0.625000X0.400000X0*%
%ADD40RoundRect,0.250000X0.625000X-0.400000X0.625000X0.400000X-0.625000X0.400000X-0.625000X-0.400000X0*%
%ADD41C,5.000000*%
%ADD42RoundRect,0.250000X0.650000X-0.412500X0.650000X0.412500X-0.650000X0.412500X-0.650000X-0.412500X0*%
%ADD43R,0.800000X1.900000*%
%ADD44RoundRect,0.250000X-0.412500X-0.650000X0.412500X-0.650000X0.412500X0.650000X-0.412500X0.650000X0*%
%ADD45RoundRect,0.250000X-0.650000X0.412500X-0.650000X-0.412500X0.650000X-0.412500X0.650000X0.412500X0*%
%ADD46RoundRect,0.150000X-0.150000X0.587500X-0.150000X-0.587500X0.150000X-0.587500X0.150000X0.587500X0*%
G04 APERTURE END LIST*
D10*
%TO.C,R17*%
X124090000Y-82400000D03*
D11*
X131710000Y-82400000D03*
%TD*%
D12*
%TO.C,Q5*%
X141550000Y-78550000D03*
D13*
X139010000Y-81090000D03*
X136470000Y-78550000D03*
%TD*%
D14*
%TO.C,J1*%
X115800000Y-92100000D03*
D15*
X115800000Y-90100000D03*
%TD*%
D16*
%TO.C,C9*%
X152600000Y-113700000D03*
D17*
X155100000Y-113700000D03*
%TD*%
D16*
%TO.C,C5*%
X128205113Y-111500000D03*
D17*
X125705113Y-111500000D03*
%TD*%
D18*
%TO.C,K1*%
X168300000Y-100600000D03*
X168300000Y-95600000D03*
X168300000Y-105600000D03*
X160800000Y-100600000D03*
X160800000Y-95600000D03*
X160800000Y-105600000D03*
D19*
X168300000Y-80600000D03*
D18*
X160800000Y-80600000D03*
%TD*%
D13*
%TO.C,R22*%
X143820000Y-78500000D03*
X153980000Y-78500000D03*
%TD*%
D20*
%TO.C,U1*%
X139400000Y-85760000D03*
D21*
X139400000Y-88300000D03*
X139400000Y-90840000D03*
X139400000Y-93380000D03*
X139400000Y-95920000D03*
X139400000Y-98460000D03*
X139400000Y-101000000D03*
X139400000Y-103540000D03*
%TD*%
D10*
%TO.C,C3*%
X146100000Y-93350000D03*
X146100000Y-95850000D03*
%TD*%
D17*
%TO.C,R5*%
X143000000Y-97480000D03*
D22*
X143000000Y-87320000D03*
%TD*%
D20*
%TO.C,U2*%
X123850000Y-102350000D03*
D23*
X126390000Y-99810000D03*
X128930000Y-102350000D03*
%TD*%
D24*
%TO.C,D1*%
X134100000Y-96750000D03*
D25*
X134100000Y-109450000D03*
%TD*%
D16*
%TO.C,D6*%
X155500000Y-89910000D03*
D22*
X155500000Y-82290000D03*
%TD*%
D17*
%TO.C,R4*%
X147200000Y-114880000D03*
D22*
X147200000Y-104720000D03*
%TD*%
D26*
%TO.C,J3*%
X126800000Y-78600000D03*
D27*
X128800000Y-78600000D03*
%TD*%
D16*
%TO.C,C1*%
X135182380Y-85900000D03*
D17*
X132682380Y-85900000D03*
%TD*%
D21*
%TO.C,RV1*%
X127400000Y-89920000D03*
X127400000Y-92460000D03*
X127400000Y-95000000D03*
%TD*%
D28*
%TO.C,REF\u002A\u002A*%
X146100000Y-98200000D03*
%TD*%
D16*
%TO.C,C4*%
X142994888Y-101000000D03*
D17*
X145494888Y-101000000D03*
%TD*%
D29*
%TO.C,J4*%
X178700000Y-107000000D03*
D30*
X178700000Y-102000000D03*
X178700000Y-97000000D03*
X178700000Y-92000000D03*
%TD*%
D10*
%TO.C,R11*%
X121100000Y-114510000D03*
D11*
X121100000Y-119590000D03*
%TD*%
D31*
%TO.C,D5*%
X169260000Y-117500000D03*
D32*
X171800000Y-117500000D03*
%TD*%
D17*
%TO.C,R6*%
X144110000Y-111700000D03*
D22*
X136490000Y-111700000D03*
%TD*%
D31*
%TO.C,D4*%
X124960000Y-117500000D03*
D32*
X127500000Y-117500000D03*
%TD*%
D16*
%TO.C,C2*%
X133700000Y-93605113D03*
D17*
X133700000Y-91105113D03*
%TD*%
D33*
%TO.C,D3*%
X131000000Y-111685000D03*
D34*
X131000000Y-119305000D03*
%TD*%
D31*
%TO.C,J2*%
X144240000Y-119200000D03*
D35*
X141700000Y-119200000D03*
X139160000Y-119200000D03*
%TD*%
D17*
%TO.C,R16*%
X144110000Y-114600000D03*
D22*
X136490000Y-114600000D03*
%TD*%
D16*
%TO.C,C7*%
X142800000Y-106094888D03*
D17*
X142800000Y-108594888D03*
%TD*%
D36*
%TO.C,Q2*%
X120300000Y-110750000D03*
X120300000Y-112650000D03*
X117300000Y-111700000D03*
%TD*%
D37*
%TO.C,R24*%
X146150000Y-86500000D03*
X149250000Y-86500000D03*
%TD*%
D38*
%TO.C,R20*%
X166350000Y-113800000D03*
X163250000Y-113800000D03*
%TD*%
D39*
%TO.C,R13*%
X121900000Y-91350000D03*
X121900000Y-94450000D03*
%TD*%
D37*
%TO.C,R1*%
X151650000Y-98300000D03*
X154750000Y-98300000D03*
%TD*%
D40*
%TO.C,R23*%
X145400000Y-84250000D03*
X145400000Y-81150000D03*
%TD*%
D41*
%TO.C,REF\u002A\u002A*%
X116800000Y-118800000D03*
%TD*%
D40*
%TO.C,R25*%
X133400000Y-80750000D03*
X133400000Y-77650000D03*
%TD*%
D37*
%TO.C,R10*%
X117050000Y-108500000D03*
X120150000Y-108500000D03*
%TD*%
D42*
%TO.C,C8*%
X145100000Y-107862500D03*
X145100000Y-104737500D03*
%TD*%
D39*
%TO.C,R7*%
X127000000Y-105350000D03*
X127000000Y-108450000D03*
%TD*%
%TO.C,R19*%
X149900000Y-112250000D03*
X149900000Y-115350000D03*
%TD*%
D43*
%TO.C,Q1*%
X120050000Y-101800000D03*
X118150000Y-101800000D03*
X119100000Y-98800000D03*
%TD*%
D41*
%TO.C,REF\u002A\u002A*%
X116800000Y-79800000D03*
%TD*%
D40*
%TO.C,R12*%
X122800000Y-100050000D03*
X122800000Y-96950000D03*
%TD*%
D44*
%TO.C,C10*%
X157237500Y-113800000D03*
X160362500Y-113800000D03*
%TD*%
D37*
%TO.C,R2*%
X151650000Y-94900000D03*
X154750000Y-94900000D03*
%TD*%
D40*
%TO.C,R14*%
X122800000Y-112250000D03*
X122800000Y-109150000D03*
%TD*%
D37*
%TO.C,R8*%
X116950000Y-96200000D03*
X120050000Y-96200000D03*
%TD*%
D45*
%TO.C,C6*%
X133900000Y-116137500D03*
X133900000Y-119262500D03*
%TD*%
D40*
%TO.C,R18*%
X129500000Y-109350000D03*
X129500000Y-106250000D03*
%TD*%
D41*
%TO.C,REF\u002A\u002A*%
X181800000Y-118800000D03*
%TD*%
D42*
%TO.C,C11*%
X129300000Y-100162500D03*
X129300000Y-97037500D03*
%TD*%
D39*
%TO.C,R21*%
X158800000Y-116250000D03*
X158800000Y-119350000D03*
%TD*%
%TO.C,R3*%
X136100000Y-100450000D03*
X136100000Y-103550000D03*
%TD*%
D37*
%TO.C,R9*%
X118350000Y-104200000D03*
X121450000Y-104200000D03*
%TD*%
D36*
%TO.C,Q3*%
X162300000Y-118750000D03*
X162300000Y-116850000D03*
X165300000Y-117800000D03*
%TD*%
D37*
%TO.C,R15*%
X121950000Y-106600000D03*
X125050000Y-106600000D03*
%TD*%
D41*
%TO.C,REF\u002A\u002A*%
X181800000Y-79800000D03*
%TD*%
D46*
%TO.C,Q4*%
X148200000Y-82300000D03*
X150100000Y-82300000D03*
X149150000Y-84175000D03*
%TD*%
M02*
